<svg width="25" height="25" viewBox="0 0 25 25" fill="none" xmlns="http://www.w3.org/2000/svg">
<path d="M12.5 0C5.60769 0 0 5.60721 0 12.5C0 19.3928 5.60769 25 12.5 25C19.3923 25 25 19.3928 25 12.5C25 5.60721 19.3923 0 12.5 0ZM12.5 24.0385C6.13798 24.0385 0.961538 18.862 0.961538 12.5C0.961538 6.13798 6.13798 0.961538 12.5 0.961538C18.862 0.961538 24.0385 6.13798 24.0385 12.5C24.0385 18.862 18.862 24.0385 12.5 24.0385Z" fill="#C5A26D"/>
<path d="M18.3903 7.37368L11.0013 15.6862L6.54988 12.1251C6.34315 11.9593 6.03979 11.9934 5.8744 12.2001C5.70854 12.4078 5.74219 12.7102 5.9494 12.8761L10.7571 16.7222C10.8456 16.7929 10.9518 16.8275 11.0576 16.8275C11.1903 16.8275 11.3225 16.7727 11.4172 16.666L19.1095 8.01214C19.2859 7.81407 19.2682 7.50974 19.0696 7.33378C18.8706 7.15685 18.5672 7.17464 18.3903 7.37368Z" fill="#C5A26D"/>
</svg>
