<svg width="140" height="123" viewBox="0 0 140 123" fill="none" xmlns="http://www.w3.org/2000/svg">
<path d="M41.9693 83.643L43.0449 84.2634L43.8278 83.5816L41.7855 82.3954C42.3942 82.3954 43.002 82.3475 43.6032 82.2522L44.6856 82.8726L45.4685 82.1909L43.4262 81.0046C44.0349 81.0047 44.6426 80.9568 45.2438 80.8615L46.3194 81.4819L94.654 40.5228L92.6117 39.3365C94.5662 39.2702 96.4973 38.888 98.3301 38.2048C97.3582 39.8997 96.6684 41.7418 96.2878 43.6588L95.4573 41.4295L47.0547 82.4363L47.4835 83.6021C47.291 84.1802 47.1453 84.773 47.0478 85.3746L46.2173 83.1726L45.4344 83.8543L45.8701 85.0201C45.6795 85.5993 45.5316 86.1917 45.4276 86.7926L44.6039 84.5361L43.821 85.2178L44.2499 86.3836C44.0573 86.9641 43.9116 87.5591 43.8142 88.1629L42.7658 85.3269L40.1653 83.7861C40.774 83.7862 41.3817 83.7383 41.9829 83.643H41.9693Z" fill="#332A1C"/>
<path d="M101.142 58.0024C100.257 58.0979 99.3582 58.0024 98.4732 58.057C97.7584 60.6067 97.0708 63.1564 96.3765 65.7198C96.3482 65.8733 96.2612 66.0097 96.1341 66.1001C96.007 66.1905 95.8497 66.2277 95.6957 66.2038C92.2918 66.2038 88.888 66.2038 85.4842 66.2038C85.3546 66.189 85.2349 66.127 85.1481 66.0296C85.0612 65.9321 85.0132 65.8061 85.0132 65.6755C85.0132 65.5448 85.0612 65.4188 85.1481 65.3213C85.2349 65.2239 85.3546 65.1619 85.4842 65.1471C88.7927 65.1471 92.108 65.1471 95.4166 65.1471C96.1722 62.5769 96.8258 59.9659 97.561 57.3889C97.5864 57.2796 97.6495 57.1828 97.7392 57.1155C97.8288 57.0481 97.9393 57.0146 98.0511 57.0207C99.0519 57.0207 100.046 57.0207 101.047 57.0207C101.16 57.0412 101.263 57.0984 101.34 57.1834C101.418 57.2685 101.465 57.3767 101.476 57.4914C101.486 57.6061 101.458 57.7209 101.396 57.8182C101.335 57.9155 101.243 57.9898 101.135 58.0297L101.142 58.0024Z" fill="#332A1C"/>
<path d="M93.9936 69.0676C93.814 69.0644 93.6371 69.0232 93.4745 68.9466C93.3119 68.87 93.1673 68.7599 93.0503 68.6234C92.9333 68.4868 92.8464 68.3271 92.7954 68.1545C92.7445 67.982 92.7306 67.8006 92.7546 67.6223C92.7905 67.3687 92.9029 67.1322 93.077 66.9445C93.251 66.7568 93.4782 66.627 93.7281 66.5724C93.9005 66.5359 94.0787 66.5361 94.251 66.5729C94.4234 66.6096 94.5861 66.6822 94.7287 66.7859C94.8712 66.8896 94.9905 67.0222 95.0787 67.1749C95.167 67.3277 95.2222 67.4973 95.2409 67.6728C95.2595 67.8482 95.2412 68.0257 95.1871 68.1936C95.133 68.3616 95.0443 68.5163 94.9268 68.6477C94.8092 68.7792 94.6654 68.8845 94.5047 68.9568C94.3439 69.0292 94.1698 69.0669 93.9936 69.0676Z" fill="#332A1C"/>
<path d="M87.9688 69.0467C87.6588 69.0958 87.3416 69.0273 87.0795 68.8545C86.8173 68.6817 86.629 68.4171 86.5515 68.1125C86.474 67.8079 86.5128 67.4853 86.6604 67.2079C86.8079 66.9305 87.0536 66.7183 87.3493 66.6129C87.515 66.5571 87.6906 66.5369 87.8646 66.5535C88.0386 66.5701 88.2072 66.6233 88.3594 66.7094C88.5116 66.7956 88.6439 66.9129 88.7479 67.0536C88.8518 67.1944 88.925 67.3555 88.9627 67.5264C88.9995 67.6917 89.0028 67.8628 88.9725 68.0294C88.9421 68.196 88.8788 68.3549 88.7861 68.4966C88.6935 68.6383 88.5734 68.76 88.4331 68.8545C88.2927 68.949 88.1348 69.0143 87.9688 69.0467Z" fill="#332A1C"/>
<path d="M84.6264 57.6827C88.4591 57.6418 92.285 57.6827 96.1246 57.6827C96.2159 57.6757 96.3076 57.6918 96.3911 57.7297C96.4745 57.7675 96.5471 57.8259 96.6021 57.8993C96.6571 57.9727 96.6927 58.0588 96.7056 58.1497C96.7185 58.2405 96.7083 58.3332 96.676 58.419C96.1518 60.3893 95.6548 62.3595 95.1238 64.3229C95.0842 64.4564 94.9974 64.5709 94.8796 64.6449C94.7619 64.719 94.6212 64.7475 94.4839 64.7251H86.3487C86.2074 64.7403 86.0654 64.7028 85.9499 64.6198C85.8344 64.5368 85.7534 64.4141 85.7224 64.2752C85.2187 62.3458 84.7421 60.3961 84.252 58.4667C84.1362 58.1668 84.252 57.7305 84.6264 57.7032V57.6827ZM89.4666 62.8094C89.4515 63.0795 89.4744 63.3503 89.5347 63.6139C90.2155 63.6139 90.8963 63.6139 91.543 63.6139C91.543 63.348 91.6655 63.0412 91.543 62.8094C90.8622 62.8094 90.1815 62.8094 89.4598 62.8094H89.4666ZM95.2123 59.7348C95.3351 59.4089 95.4218 59.0706 95.471 58.7258C94.6337 58.7258 93.7895 58.7258 92.959 58.7258C92.8947 59.059 92.8947 59.4015 92.959 59.7348C93.7146 59.7348 94.4771 59.7348 95.2328 59.7348H95.2123ZM89.3373 60.8119C89.3258 61.1105 89.3418 61.4094 89.385 61.705C90.15 61.7834 90.9209 61.7834 91.6859 61.705C91.7226 61.4271 91.7385 61.1468 91.7336 60.8665C90.9357 60.8154 90.1353 60.8154 89.3373 60.8665V60.8119ZM94.2116 63.6071C94.3022 63.3511 94.375 63.0891 94.4295 62.8231C93.844 62.8231 93.2653 62.8231 92.6731 62.8231C92.6525 63.0908 92.6525 63.3598 92.6731 63.6275C93.1973 63.6275 93.7214 63.6275 94.232 63.6275L94.2116 63.6071ZM94.6473 61.7118C94.8651 61.4937 94.8515 61.1051 94.9332 60.8051C94.2524 60.8051 93.5172 60.8051 92.8228 60.8051C92.772 61.1091 92.7583 61.4182 92.782 61.7255C93.4015 61.7255 94.0278 61.7255 94.6473 61.7255V61.7118ZM91.8153 59.728C91.8153 59.3939 91.8698 59.0462 91.8698 58.7258C90.978 58.7258 90.093 58.7258 89.2011 58.7258C89.1793 59.0659 89.2022 59.4074 89.2692 59.7416C90.1202 59.7416 90.9643 59.7416 91.8153 59.7416V59.728ZM88.1596 59.728C88.1676 59.3932 88.1517 59.0583 88.1119 58.7258C87.2201 58.6713 86.3351 58.7258 85.4297 58.7258C85.4828 59.0727 85.5717 59.4131 85.6952 59.7416C86.5189 59.7416 87.3358 59.7416 88.1596 59.7416V59.728ZM86.4577 62.8094C86.4983 63.0838 86.5667 63.3534 86.6619 63.6139C87.2542 63.6139 87.8396 63.6139 88.4319 63.6139C88.4465 63.3484 88.4236 63.0821 88.3638 62.8231C87.7239 62.8231 87.0976 62.8231 86.4577 62.8231V62.8094ZM85.9539 60.8119C85.999 61.1164 86.0742 61.4155 86.1785 61.705C86.8838 61.7425 87.5905 61.7425 88.2957 61.705C88.3081 61.4062 88.2899 61.107 88.2413 60.8119C87.4794 60.771 86.7158 60.771 85.9539 60.8119Z" fill="#332A1C"/>
<path fill-rule="evenodd" clip-rule="evenodd" d="M45.7885 54.0418C47.3867 54.0418 48.949 54.5164 50.2779 55.4055C51.6068 56.2947 52.6425 57.5586 53.2541 59.0373C53.8657 60.5159 54.0257 62.143 53.7139 63.7128C53.4021 65.2825 52.6325 66.7244 51.5024 67.8561C50.3723 68.9879 48.9325 69.7586 47.365 70.0708C45.7975 70.3831 44.1727 70.2228 42.6961 69.6103C41.2196 68.9979 39.9575 67.9606 39.0696 66.6299C38.1817 65.2991 37.7078 63.7345 37.7078 62.134C37.7069 61.0711 37.9153 60.0184 38.3211 59.0362C38.7268 58.054 39.322 57.1615 40.0726 56.4099C40.8231 55.6583 41.7143 55.0623 42.6951 54.6559C43.6759 54.2496 44.7271 54.0409 45.7885 54.0418Z" fill="#332A1C"/>
<path d="M42.97 66.9606V57.7775H46.4351C46.9017 57.7686 47.3683 57.796 47.8307 57.8593C48.2344 57.9172 48.6203 58.0639 48.9607 58.2888C49.2774 58.5165 49.5305 58.8216 49.696 59.1751C49.9363 59.7008 50.0198 60.2848 49.9365 60.8569C49.8532 61.4289 49.6065 61.9647 49.2262 62.3997C48.7293 62.9451 47.8647 63.211 46.5032 63.211H44.1885V66.9606H42.97ZM44.1885 62.1339H46.5576C47.1477 62.1912 47.7388 62.0365 48.2255 61.6975C48.3948 61.5418 48.5272 61.3502 48.6132 61.1368C48.6991 60.9233 48.7365 60.6933 48.7225 60.4636C48.7333 60.1112 48.6307 59.7646 48.4297 59.4751C48.2435 59.2086 47.9682 59.0176 47.6537 58.9365C47.2788 58.8676 46.8976 58.8402 46.5168 58.8547H44.1885V62.1339Z" fill="white"/>
<path d="M121.694 63.354V67.0763H116.765V66.1287C116.765 65.6333 116.82 65.1394 116.929 64.6561C117.042 64.1711 117.209 63.7001 117.426 63.2517C117.648 62.7676 117.924 62.3102 118.249 61.8883L119.134 60.7361C119.471 60.3344 119.728 59.8714 119.89 59.3726C120.014 58.8295 120.069 58.2729 120.053 57.716C120.053 56.557 119.761 55.9844 119.162 55.9844C118.562 55.9844 118.215 56.5298 118.215 57.6137C118.215 57.6865 118.249 58.0682 118.317 58.7591H116.888C116.806 58.3943 116.765 58.0216 116.765 57.6478C116.713 56.8581 116.937 56.0747 117.398 55.4322C117.616 55.1717 117.891 54.9658 118.202 54.8308C118.512 54.6959 118.85 54.6357 119.189 54.655C119.54 54.6362 119.89 54.7005 120.212 54.8426C120.534 54.9847 120.818 55.2007 121.04 55.4731C121.526 56.1474 121.766 56.9678 121.721 57.7978C121.725 58.43 121.626 59.0585 121.429 59.659C121.264 60.1712 121.008 60.6494 120.673 61.0702L119.597 62.345C119.335 62.6611 119.107 63.0039 118.916 63.3676C118.723 63.7308 118.566 64.1121 118.447 64.5062C118.336 64.8578 118.27 65.2219 118.249 65.5901H120.326V63.354H121.694ZM127.869 60.9406C127.869 63.2631 127.667 64.8993 127.263 65.8492C127.154 66.2553 126.915 66.6142 126.582 66.8703C126.249 67.1263 125.841 67.2651 125.421 67.2651C125.001 67.2651 124.593 67.1263 124.26 66.8703C123.927 66.6142 123.688 66.2553 123.58 65.8492C123.176 64.9084 122.974 63.2677 122.974 60.927C122.912 59.3412 123.103 57.7556 123.539 56.2298C123.92 55.1663 124.546 54.6345 125.418 54.6345C125.838 54.6492 126.242 54.797 126.572 55.0568C126.903 55.3166 127.142 55.6749 127.256 56.0798C127.664 57.0388 127.869 58.6545 127.869 60.927V60.9406ZM124.615 63.3336C124.589 63.9959 124.653 64.6586 124.805 65.3038C124.934 65.7333 125.139 65.9446 125.425 65.9446C125.711 65.9446 125.922 65.7401 126.044 65.3311C126.186 64.6752 126.245 64.0042 126.221 63.3336V58.5614C126.252 57.8966 126.188 57.2309 126.031 56.5843C125.894 56.1957 125.697 56.0048 125.425 56.0048C124.887 56.0048 124.615 56.8161 124.615 58.4455V63.3336ZM130.027 67.0763V65.6651H130.755V56.8911C130.543 57.0693 130.294 57.1975 130.027 57.266V55.7594C130.641 55.5439 131.181 55.1586 131.586 54.6482H132.266V65.6651H132.947V67.0763H130.027ZM138.523 60.4771C139.512 60.9906 140.004 62.0042 140 63.5176C140 66.0264 139.176 67.274 137.535 67.274C137.176 67.2924 136.817 67.215 136.497 67.0498C136.176 66.8845 135.905 66.6373 135.711 66.3332C135.251 65.5014 135.036 64.5557 135.092 63.6063C135.092 62.011 135.577 60.9747 136.548 60.4975C135.697 60.1157 135.269 59.1817 135.269 57.6955C135.223 56.9072 135.433 56.1252 135.868 55.4662C136.069 55.2171 136.323 55.0162 136.611 54.8782C136.9 54.7402 137.216 54.6685 137.535 54.6685C137.855 54.6685 138.171 54.7402 138.46 54.8782C138.748 55.0162 139.002 55.2171 139.203 55.4662C139.638 56.1252 139.848 56.9072 139.802 57.6955C139.802 59.1817 139.374 60.1157 138.523 60.4975V60.4771ZM137.515 55.9776C137.377 55.9733 137.242 56.0162 137.132 56.0993C137.022 56.1823 136.943 56.3005 136.909 56.4343C136.786 56.9288 136.738 57.439 136.766 57.9478C136.766 59.209 137.018 59.8362 137.535 59.8362C137.67 59.8355 137.8 59.7912 137.907 59.7101C138.013 59.629 138.091 59.5153 138.128 59.3863C138.267 58.9201 138.327 58.4338 138.305 57.9478C138.327 57.4342 138.277 56.9201 138.155 56.4207C138.122 56.2826 138.042 56.1603 137.929 56.0745C137.816 55.9887 137.677 55.9448 137.535 55.9503L137.515 55.9776ZM137.515 61.1929C137.358 61.189 137.204 61.2399 137.08 61.3369C136.956 61.4338 136.869 61.5709 136.834 61.7246C136.707 62.3248 136.654 62.9385 136.678 63.5517C136.66 64.1551 136.708 64.7585 136.821 65.3515C136.842 65.5166 136.923 65.668 137.049 65.7773C137.174 65.8865 137.335 65.946 137.501 65.9446C137.835 65.9446 138.053 65.7537 138.182 65.3651C138.31 64.7927 138.365 64.2062 138.346 63.6199C138.373 62.9725 138.318 62.3242 138.182 61.6906C138.141 61.5431 138.051 61.4138 137.928 61.3235C137.805 61.2332 137.654 61.1872 137.501 61.1929H137.515Z" fill="#332A1C"/>
<path d="M0 67.0764V65.597H0.898614V56.3253H0V54.8459H5.62315V58.4182H4.14588V56.3253H2.62096V60.034H3.86676V61.5065H2.62096V65.597H4.14588V63.32H5.62315V67.0764H0ZM6.97107 67.0764V62.87H8.44153V64.0017C8.41214 64.4656 8.48176 64.9304 8.64576 65.3652C8.71011 65.4865 8.80464 65.5891 8.92021 65.663C9.03577 65.737 9.16845 65.7798 9.3054 65.7874C9.44234 65.7949 9.57891 65.7669 9.70188 65.7061C9.82485 65.6453 9.93005 65.5537 10.0073 65.4402C10.1623 65.1818 10.2337 64.8818 10.2115 64.5812C10.2057 64.2387 10.1507 63.8989 10.0481 63.5722C9.96125 63.2523 9.82823 62.9469 9.65329 62.6655C9.50352 62.4269 9.10868 61.9088 8.47556 61.1111C7.96119 60.5053 7.52228 59.8391 7.16849 59.1272C6.93977 58.5721 6.82851 57.9755 6.84172 57.3752C6.81138 56.6795 7.00206 55.9921 7.38634 55.4117C7.53075 55.18 7.73125 54.9885 7.96926 54.855C8.20728 54.7215 8.47509 54.6504 8.74787 54.6482C8.98648 54.6479 9.22239 54.6988 9.43965 54.7976C9.65692 54.8964 9.85049 55.0407 10.0073 55.2209V54.8595H11.4778V58.5137H10.0073V57.5729C10.0317 57.1919 9.96399 56.8107 9.80987 56.4616C9.74678 56.3547 9.65573 56.2671 9.54656 56.2082C9.43738 56.1494 9.31422 56.1215 9.19037 56.1276C8.73653 56.1276 8.49826 56.4275 8.47556 57.0275C8.48025 57.3948 8.55416 57.7579 8.69341 58.0978C8.87483 58.5377 9.12281 58.947 9.42864 59.3113L10.2115 60.2385C11.2344 61.3655 11.8421 62.8087 11.9339 64.3289C11.962 65.08 11.7445 65.8197 11.3144 66.4355C11.1454 66.6917 10.916 66.9022 10.6465 67.0485C10.377 67.1947 10.0756 67.2722 9.76902 67.2741C9.52256 67.2759 9.27853 67.2252 9.05316 67.1253C8.82779 67.0254 8.62625 66.8786 8.46195 66.6946V67.0764H6.97107ZM19.3066 54.8459V59.3113H18.0131V56.1412H17.0192V65.597H17.9791V67.0764H14.2961V65.597H15.2628V56.1412H14.2349V59.3113H12.9346V54.8459H19.3066ZM19.2045 67.0764V65.0311H20.8792V67.0764H19.2045Z" fill="#332A1C"/>
<path d="M30.0149 37.087L28.2449 35.9416L30.2872 32.7852L31.6488 33.6442C33.2216 34.5427 34.5459 35.8197 35.5019 37.3597C35.8329 37.8739 36.0089 38.4727 36.0089 39.0845C36.0089 39.6963 35.8329 40.2951 35.5019 40.8093C35.1756 41.3214 34.7004 41.7211 34.1404 41.9546C33.4929 42.2142 32.7898 42.3034 32.0981 42.2137C31.1921 42.0987 30.3125 41.8289 29.4975 41.416C28.2488 40.7865 27.0372 40.0854 25.869 39.3163C23.2095 37.6028 21.4168 36.1144 20.491 34.8509C19.5651 33.5874 19.4312 32.4511 20.0893 31.4421C20.295 31.1444 20.5629 30.8951 20.8744 30.7114C21.1859 30.5278 21.5336 30.4142 21.8934 30.3786L21.3215 29.9968L22.4652 28.2175L27.2306 31.2853L26.0869 33.0647C24.0446 31.7421 22.7647 31.4762 22.261 32.2602C22.1708 32.398 22.1227 32.5591 22.1227 32.7238C22.1227 32.8885 22.1708 33.0497 22.261 33.1874C22.6341 33.7046 23.0949 34.1523 23.6225 34.51C24.3532 35.069 25.506 35.8553 27.0808 36.8688C28.7963 37.9732 30.0762 38.7572 30.9067 39.2072C31.4506 39.5502 32.0493 39.797 32.6767 39.9367C32.8466 39.9632 33.0205 39.94 33.1775 39.8698C33.3345 39.7997 33.468 39.6856 33.5617 39.5412C33.8545 39.0777 33.7455 38.5868 33.2281 38.0619C32.4358 37.3128 31.5664 36.6501 30.6344 36.0848L29.9945 37.087H30.0149ZM38.1229 36.1325L36.6728 34.6054L37.5987 33.7192L28.4492 24.0998L27.5233 24.9792L26.0665 23.4521L31.887 17.9027L35.3998 21.5978L33.8749 23.0567L31.8326 20.8888L30.2532 22.3954L33.8953 26.2268L35.1819 24.9997L36.6388 26.5336L35.3521 27.7607L39.3687 31.9875L40.9481 30.4877L38.7151 28.1289L40.2401 26.6699L43.9298 30.5627L38.1229 36.1325ZM47.9259 17.8823C50.8941 23.0363 51.214 26.2859 48.8858 27.6312C47.6877 28.3129 46.4419 28.1902 45.1348 27.2426C43.8277 26.295 42.4117 24.5156 40.9276 21.9318C40.0495 20.4705 39.3371 18.9156 38.8036 17.296C38.4247 16.2256 38.3171 15.0777 38.4905 13.9554C38.5583 13.5459 38.7154 13.1564 38.9508 12.8147C39.1861 12.4729 39.4939 12.1874 39.852 11.9784C40.9685 11.3376 42.2075 11.5012 43.569 12.4692C44.9305 13.4373 46.3715 15.2326 47.8919 17.855L47.9259 17.8823ZM43.3103 20.657C44.1268 22.176 45.072 23.6221 46.1355 24.9792C46.7482 25.661 47.286 25.8996 47.7421 25.661C48.1982 25.4224 48.2527 24.8361 47.96 23.9566C47.3112 22.3424 46.5254 20.7869 45.6113 19.3071C44.7362 17.6825 43.7371 16.128 42.6227 14.6576C42.0032 13.935 41.4586 13.7032 41.0025 13.9759C40.5464 14.2486 40.4579 14.8894 40.8255 15.8643C41.529 17.511 42.3479 19.1057 43.2763 20.6365L43.3103 20.657ZM56.1428 17.371L55.571 15.3257L59.1382 14.3168L59.5671 15.8439C60.1434 17.5448 60.2931 19.3617 60.0028 21.1342C59.9078 21.7384 59.6428 22.303 59.2389 22.7619C58.835 23.2207 58.3089 23.5547 57.7222 23.7248C57.1449 23.8984 56.5295 23.8984 55.9522 23.7248C55.2956 23.4904 54.7113 23.0886 54.2571 22.559C53.6528 21.8744 53.1714 21.0902 52.8343 20.2411C52.3177 18.9429 51.8768 17.6158 51.5136 16.2666C50.6558 13.2214 50.2973 10.9171 50.438 9.35368C50.5809 7.77885 51.2413 6.8176 52.419 6.504C52.7678 6.41957 53.1307 6.41118 53.4831 6.4794C53.8354 6.54762 54.169 6.69085 54.4613 6.89941L54.2843 6.26538L56.3266 5.69272L57.872 11.1467L55.8296 11.7261C55.1489 9.38095 54.3864 8.31743 53.4878 8.59013C53.3277 8.62876 53.1826 8.7142 53.0711 8.8356C52.9596 8.95699 52.8866 9.10885 52.8615 9.27187C52.7952 9.90446 52.8413 10.5438 52.9977 11.1603C53.1746 12.0693 53.5196 13.4328 54.0324 15.2508C54.5838 17.221 55.0263 18.6595 55.3463 19.5389C55.5346 20.169 55.8344 20.7602 56.2313 21.2842C56.3443 21.4141 56.493 21.5079 56.6588 21.554C56.8246 21.6 57.0002 21.5963 57.164 21.5432C57.6881 21.3933 57.9332 20.9501 57.8924 20.1798C57.7827 19.1159 57.5683 18.0654 57.2525 17.0437L56.1088 17.371H56.1428ZM66.4496 14.0304L66.5926 19.8457L67.8656 19.7707L67.9201 21.8841L62.6782 22.0136L62.6305 19.9139L64.101 19.8798L63.7742 6.64034H62.3037L62.2493 4.52694L66.6062 4.42468C67.2456 4.37701 67.8879 4.46266 68.4925 4.67623C69.0971 4.8898 69.651 5.22663 70.119 5.66545C70.5638 6.11228 70.9137 6.64461 71.1477 7.23042C71.3817 7.81623 71.4949 8.4434 71.4805 9.07417C71.5523 9.87929 71.4085 10.689 71.0639 11.42C70.7193 12.1509 70.1863 12.7767 69.5199 13.2328L71.5622 19.6957H72.6038L72.6582 21.8091L69.7173 21.8841L67.3959 13.9077C67.0775 13.9704 66.7537 14.0024 66.4292 14.0032L66.4496 14.0304ZM66.2386 6.57899L66.3679 11.8966C66.7269 11.9218 67.0873 11.8745 67.4277 11.7574C67.768 11.6403 68.0813 11.4557 68.349 11.2148C68.7858 10.6279 68.9852 9.89744 68.9072 9.16961C68.9385 8.80027 68.8943 8.42841 68.7772 8.07676C68.6602 7.72512 68.4728 7.40106 68.2264 7.12438C67.6487 6.70411 66.9343 6.51674 66.225 6.59944L66.2386 6.57899ZM78.5605 16.8938L77.2738 20.6638L78.3563 20.916L77.8865 22.9613L73.3322 21.9046L73.8087 19.8593L74.8707 20.1048L79.711 7.63569L78.5469 7.36299L79.0234 5.31776L85.3001 6.76988L84.8236 8.8151L83.6595 8.54922L82.5362 21.8841L83.5982 22.1295L83.1285 24.1748L78.5741 23.1181L79.0507 21.0728L80.1399 21.3251L80.6368 17.371L78.5945 16.8938H78.5605ZM79.2072 14.8485L80.9364 15.2439L81.9643 7.49934L81.6852 7.43798L79.2072 14.8553V14.8485ZM86.3281 23.5407L92.9043 12.0466L91.6721 11.3648L92.7205 9.54457L96.4647 11.6921C97.0523 11.9901 97.5673 12.414 97.9732 12.9335C98.379 13.4531 98.6659 14.0556 98.8133 14.6985C99.0428 16.1222 98.7346 17.5805 97.9488 18.789C97.3238 20.0542 96.262 21.0497 94.9602 21.591C93.7984 22.0136 92.396 21.7546 90.7531 20.8138L88.4997 24.7952L89.7523 25.511L88.7039 27.3449L84.0815 24.6929L85.0959 22.859L86.3281 23.5407ZM95.0419 13.2737L91.8014 18.939C92.1975 19.1825 92.6294 19.362 93.0813 19.4707C93.5178 19.5261 93.959 19.4114 94.3135 19.1503C94.9045 18.6966 95.3841 18.1136 95.7159 17.446C96.349 16.3415 96.5804 15.4894 96.3966 14.8622C96.2885 14.5191 96.1121 14.2015 95.8781 13.9285C95.6441 13.6555 95.3573 13.4328 95.0351 13.2737H95.0419ZM101.012 26.3291L96.7847 30.7604L97.3905 31.3331L95.9337 32.8602L92.5843 29.6901L94.0344 28.163L95.0011 29.0833L104.157 19.498L103.197 18.5845L104.634 17.0437L107.976 20.2343L106.52 21.8159L105.921 21.2365L102.469 24.8633L104.232 26.5472L107.684 22.9272L107.085 22.3545L108.542 20.8274L111.884 24.0248L110.427 25.5519L109.467 24.6315L100.338 34.1759L101.298 35.0963L99.8413 36.6234L96.4987 33.4056L97.9556 31.8785L98.5547 32.4511L102.775 28.0266L101.012 26.3359V26.3291ZM101.591 39.589L103.422 38.5391L104.035 39.6094L108.923 36.8484L114.137 30.5968L113.579 29.6219L115.41 28.572L117.759 32.6625L115.928 33.7123L115.329 32.7238L112.109 36.4393V36.4802L116.874 35.4576L116.323 34.4895L118.154 33.4396L120.38 37.3256L118.556 38.3823L117.997 37.4074L110.284 38.8595L105.247 41.7569L105.866 42.8272L104.035 43.8771L101.577 39.5958L101.591 39.589Z" fill="#332A1C"/>
<path fill-rule="evenodd" clip-rule="evenodd" d="M69.1933 0C97.6426 0 121.708 18.2162 129.707 43.2907H127.106C119.196 19.6001 96.2607 2.46791 69.1933 2.46791C42.126 2.46791 19.1909 19.6001 11.2736 43.2907H8.67984C16.6721 18.2162 40.744 0 69.1933 0ZM130.258 77.8618C122.879 103.884 98.337 123 69.1933 123C40.0496 123 15.5011 103.911 8.12842 77.8618H10.6881C18.0064 102.507 41.4248 120.532 69.1933 120.532C96.9619 120.532 120.38 102.507 127.692 77.8618H130.258Z" fill="#332A1C"/>
<path d="M21.7847 79.2594L28.2315 76.3552L28.7149 77.4187L26.1756 78.5709L27.1287 80.6707L29.6612 79.5185L30.1445 80.582L23.7044 83.4999L23.2211 82.4364L26.0395 81.1274L25.0864 79.0822L22.2748 80.3571L21.7847 79.2594ZM27.0879 82.6682C27.6953 82.3035 28.3726 82.0712 29.0757 81.9864C29.6036 81.9198 30.1396 82.0049 30.621 82.2318C31.0755 82.4776 31.4473 82.8523 31.6898 83.309C31.89 83.6414 32.0102 84.0158 32.0409 84.4027C32.0716 84.7897 32.012 85.1784 31.8668 85.5383C31.472 86.4308 30.7753 87.155 29.8994 87.5835C29.0686 88.1342 28.0712 88.3755 27.081 88.2653C26.7113 88.2013 26.3614 88.0523 26.059 87.8298C25.7566 87.6074 25.5099 87.3177 25.3383 86.9836C25.1377 86.6648 25.0131 86.3041 24.9741 85.9293C24.9352 85.5545 24.9829 85.1758 25.1136 84.8225C25.5126 83.9305 26.2112 83.2068 27.0879 82.7772V82.6682ZM27.721 83.6976C27.1372 83.9709 26.6589 84.4283 26.3594 84.9997C26.2529 85.2019 26.1989 85.4277 26.2024 85.6563C26.2058 85.8849 26.2666 86.109 26.3791 86.3079C26.4917 86.5068 26.6523 86.6742 26.8464 86.7946C27.0404 86.9151 27.2616 86.9848 27.4895 86.9972C28.1414 87.0231 28.7849 86.8418 29.3276 86.4791C29.9036 86.2043 30.3796 85.7562 30.6891 85.1974C30.7883 84.9925 30.8346 84.766 30.8239 84.5386C30.8132 84.3111 30.7458 84.09 30.6278 83.8953C30.5128 83.7037 30.3542 83.5421 30.1649 83.4236C29.9756 83.3051 29.761 83.2332 29.5386 83.2136C28.8927 83.1843 28.2547 83.3662 27.721 83.7317V83.6976ZM28.4562 91.4899L33.031 87.788L31.9485 86.4246L32.8812 85.6746L35.7745 89.3083L34.8418 90.0583L33.7662 88.6948L29.1914 92.3898L28.4562 91.4899ZM30.6891 94.3805L35.7813 89.4651L38.763 92.5602L37.9053 93.3988L35.7336 91.1422L34.6103 92.2262L36.6526 94.326L35.7881 95.1577L33.7458 93.0579L32.3842 94.4214L34.6308 96.7598L33.7662 97.5915L30.7095 94.4146L30.6891 94.3805ZM34.4538 98.2869L39.0626 92.9966L39.9408 93.7601L36.1216 98.171L38.3137 100.087L37.5308 100.993L34.4538 98.3073V98.2869ZM43.6033 101.082C43.3935 101.388 43.0785 101.607 42.7183 101.696C42.5658 101.74 42.4052 101.75 42.2484 101.724C42.0917 101.698 41.9428 101.637 41.8129 101.546C41.6872 101.45 41.5846 101.328 41.5127 101.187C41.4408 101.047 41.4015 100.892 41.3976 100.734C41.3861 100.363 41.4983 99.9992 41.7165 99.6992C41.9347 99.3992 42.2465 99.1805 42.6026 99.0777C42.7546 99.0358 42.914 99.0282 43.0694 99.0553C43.2248 99.0824 43.3722 99.1436 43.5012 99.2345C43.6256 99.3314 43.7278 99.454 43.8006 99.594C43.8735 99.734 43.9153 99.8881 43.9232 100.046C43.9455 100.419 43.8318 100.787 43.6033 101.082ZM44.1615 105.541L47.3271 99.2004L49.526 100.305C49.9502 100.483 50.3327 100.748 50.6492 101.082C50.8445 101.336 50.9498 101.648 50.9488 101.968C50.959 102.36 50.8675 102.748 50.6833 103.093C50.4898 103.532 50.1539 103.892 49.7302 104.116C49.3203 104.301 48.8554 104.323 48.4299 104.177C48.5681 104.431 48.6668 104.705 48.7227 104.988C48.7909 105.44 48.8205 105.896 48.8112 106.352V107.906L47.5586 107.279L47.4837 105.52C47.4762 105.114 47.4466 104.709 47.3952 104.307C47.3717 104.154 47.3083 104.011 47.2114 103.891C47.0714 103.748 46.9048 103.635 46.7212 103.557L46.5034 103.448L45.1895 106.093L44.1411 105.575L44.1615 105.541ZM47.0276 102.405L47.8104 102.793C48.1038 102.961 48.4171 103.092 48.7431 103.182C48.8973 103.207 49.0554 103.173 49.1856 103.086C49.3519 102.979 49.4823 102.825 49.56 102.643C49.6543 102.478 49.697 102.288 49.6826 102.098C49.6666 101.937 49.5942 101.787 49.4783 101.675C49.22 101.491 48.9441 101.334 48.6546 101.205L47.8309 100.796L47.0276 102.405ZM49.4375 108.056L52.1061 101.498L56.0818 103.12L55.6325 104.232L52.7324 103.045L52.1469 104.498L54.87 105.595L54.4207 106.706L51.6976 105.602L50.976 107.388L53.9714 108.615L53.5221 109.72L49.4375 108.056ZM54.8223 107.613L55.9524 107.777C55.8435 108.683 56.1362 109.229 56.8238 109.42C57.1124 109.513 57.4251 109.496 57.702 109.372C57.8194 109.315 57.9229 109.233 58.0053 109.132C58.0876 109.031 58.1467 108.912 58.1785 108.786C58.2158 108.647 58.2158 108.501 58.1785 108.363C58.1309 108.225 58.0461 108.102 57.9335 108.009C57.6403 107.781 57.3334 107.571 57.0144 107.381C56.6651 107.181 56.3521 106.923 56.0886 106.618C55.9059 106.378 55.7844 106.097 55.7346 105.8C55.6922 105.481 55.7225 105.157 55.8231 104.852C55.9099 104.499 56.0911 104.176 56.3473 103.918C56.5881 103.671 56.8957 103.501 57.2323 103.427C57.6232 103.363 58.0236 103.389 58.4032 103.502C58.9762 103.623 59.478 103.966 59.7988 104.457C60.0766 104.978 60.1377 105.588 59.969 106.154L58.8185 105.902C58.8857 105.613 58.8445 105.31 58.7027 105.05C58.5376 104.83 58.2934 104.683 58.022 104.641C57.7768 104.558 57.5114 104.558 57.2663 104.641C57.1766 104.671 57.0957 104.723 57.0304 104.792C56.9652 104.861 56.9177 104.945 56.8919 105.036C56.8682 105.127 56.865 105.222 56.8827 105.314C56.9004 105.406 56.9384 105.493 56.994 105.568C57.2598 105.845 57.5705 106.076 57.913 106.25C58.3164 106.478 58.6835 106.765 59.0023 107.102C59.2031 107.353 59.3367 107.651 59.3903 107.968C59.4426 108.336 59.4123 108.71 59.3018 109.065C59.1735 109.625 58.8345 110.113 58.3555 110.429C58.0695 110.582 57.7544 110.674 57.4306 110.698C57.1068 110.721 56.7818 110.676 56.4766 110.565C55.1151 110.19 54.5568 109.202 54.8223 107.606V107.613ZM61.031 111.438L62.1338 105.67L60.4455 105.35L60.6702 104.17L65.1904 105.036L64.9658 106.209L63.3115 105.875L62.2087 111.656L61.065 111.438H61.031ZM69.2682 112.222L68.002 112.126L67.6276 110.49L65.3062 110.313L64.7071 111.874L63.4681 111.806L66.2524 104.92L67.4983 105.016L69.2682 112.249V112.222ZM67.3417 109.27L66.7154 106.591L65.7283 109.147L67.3144 109.27H67.3417ZM69.384 105.111L70.5481 105.023L70.834 108.84C70.8539 109.229 70.8994 109.616 70.9702 109.999C71.0248 110.27 71.1746 110.512 71.3922 110.681C71.6096 110.818 71.8623 110.888 72.119 110.882C72.3756 110.875 72.6248 110.794 72.8355 110.647C72.9974 110.513 73.1081 110.328 73.1486 110.122C73.1992 109.669 73.1992 109.212 73.1486 108.758L72.8559 104.859L74.0132 104.77L74.2991 108.479C74.3683 109.159 74.3683 109.844 74.2991 110.524C74.2364 110.946 74.0207 111.329 73.6932 111.601C73.3034 111.907 72.8267 112.081 72.3317 112.099C71.8397 112.164 71.3394 112.088 70.8885 111.881C70.535 111.689 70.2531 111.388 70.0852 111.022C69.8396 110.329 69.7063 109.602 69.6903 108.868L69.4044 105.104L69.384 105.111ZM75.7628 111.751L74.4421 104.798L76.8656 104.334C77.3108 104.223 77.7738 104.202 78.2272 104.273C78.5352 104.36 78.8072 104.544 79.0032 104.798C79.2491 105.103 79.411 105.467 79.473 105.854C79.5779 106.312 79.5276 106.792 79.33 107.218C79.1163 107.613 78.7612 107.912 78.3361 108.056C78.5981 108.174 78.8412 108.331 79.0577 108.52C79.3783 108.831 79.6721 109.168 79.9359 109.529L80.889 110.749L79.5274 111.015L78.4042 109.652C78.1528 109.331 77.8823 109.026 77.594 108.738C77.4835 108.632 77.3474 108.557 77.1992 108.52C77.0014 108.493 76.8003 108.505 76.6069 108.554L76.3687 108.595L76.9269 111.499L75.7764 111.717L75.7628 111.751ZM76.1508 107.524L77.0018 107.361C77.3377 107.314 77.6668 107.227 77.9821 107.102C78.118 107.028 78.2221 106.907 78.2748 106.761C78.3349 106.57 78.3349 106.365 78.2748 106.175C78.2501 105.987 78.1694 105.811 78.0434 105.67C77.9341 105.553 77.787 105.478 77.6281 105.459C77.3094 105.469 76.9925 105.51 76.6818 105.582L75.7832 105.759L76.1236 107.524H76.1508ZM86.5257 109.181L85.3071 109.522L84.3949 108.118L82.1484 108.752V110.422L80.9502 110.763L81.2021 103.332L82.4071 102.991L86.553 109.181H86.5257ZM83.7005 107.068L82.2165 104.757L82.1688 107.484L83.7005 107.047V107.068ZM87.1044 108.915L84.1907 102.466L85.2255 101.996L89.3441 105.322L87.3971 101.014L88.3842 100.564L91.2979 107.013L90.2291 107.504L86.1921 104.259L88.0983 108.465L87.1044 108.915ZM93.5581 105.888L90.658 100.768L89.1603 101.621L88.568 100.578L92.5709 98.3005L93.1632 99.3436L91.6655 100.196L94.5724 105.309L93.5581 105.888ZM98.1056 98.7096C98.3312 99.0059 98.4424 99.3739 98.4187 99.7458C98.4165 99.9052 98.3772 100.062 98.3038 100.203C98.2304 100.345 98.125 100.467 97.996 100.56C97.8671 100.654 97.7181 100.716 97.561 100.741C97.4039 100.767 97.243 100.755 97.0912 100.707C96.7303 100.616 96.4153 100.395 96.2063 100.087C95.9796 99.7909 95.8682 99.4225 95.8931 99.0504C95.8994 98.8926 95.9414 98.7382 96.0159 98.5989C96.0905 98.4597 96.1957 98.3393 96.3235 98.2467C96.4514 98.1541 96.5986 98.0918 96.754 98.0645C96.9094 98.0373 97.0689 98.0457 97.2206 98.0892C97.5813 98.1809 97.8961 98.4015 98.1056 98.7096ZM100.754 98.171L101.475 97.2847C102.156 97.8437 102.837 97.8778 103.327 97.3802C103.559 97.1813 103.705 96.9004 103.736 96.5962C103.743 96.4713 103.724 96.3462 103.681 96.2289C103.637 96.1116 103.57 96.0045 103.484 95.9144C103.386 95.8069 103.259 95.7312 103.118 95.6971C102.977 95.6631 102.83 95.6723 102.694 95.7235C102.348 95.858 102.012 96.0151 101.686 96.1939C101.333 96.3872 100.952 96.523 100.556 96.5962C100.256 96.628 99.9531 96.5882 99.6714 96.4803C99.3727 96.3657 99.1031 96.1864 98.8817 95.9553C98.6247 95.697 98.4414 95.3745 98.3507 95.0213C98.2519 94.6923 98.2519 94.3414 98.3507 94.0124C98.4965 93.6395 98.73 93.3074 99.0314 93.0443C99.2231 92.8244 99.4596 92.6481 99.725 92.5273C99.9904 92.4066 100.278 92.3441 100.57 92.3441C100.861 92.3441 101.15 92.4066 101.415 92.5273C101.68 92.6481 101.917 92.8244 102.109 93.0443L101.298 93.9033C101.086 93.6968 100.805 93.5755 100.509 93.5624C100.247 93.5897 100.004 93.7136 99.8279 93.9101C99.6211 94.0833 99.4833 94.3253 99.4399 94.5918C99.4199 94.686 99.4231 94.7836 99.4492 94.8762C99.4753 94.9689 99.5235 95.0538 99.5897 95.1236C99.6536 95.191 99.7326 95.2423 99.8202 95.2731C99.9078 95.3039 100.001 95.3134 100.093 95.3008C100.471 95.2216 100.832 95.0787 101.162 94.8782C101.565 94.6453 102.001 94.4773 102.456 94.3805C102.773 94.3312 103.098 94.3689 103.395 94.4896C103.738 94.6309 104.045 94.8475 104.294 95.1236C104.705 95.5198 104.949 96.0592 104.975 96.6303C104.962 96.955 104.88 97.2733 104.735 97.5637C104.589 97.8542 104.383 98.1101 104.13 98.3142C103.109 99.3004 101.975 99.2686 100.727 98.2187L100.754 98.171ZM106.418 95.8326L101.019 91.2581L101.775 90.365L103.899 92.1716L105.39 90.4128L103.259 88.6061L104.015 87.7199L109.413 92.2944L108.657 93.1875L106.295 91.1831L104.811 92.942L107.167 94.9463L106.418 95.8326ZM107.099 89.6969C106.483 89.3356 105.954 88.8448 105.546 88.2585C105.243 87.8225 105.068 87.3098 105.043 86.7791C105.045 86.2622 105.204 85.7583 105.499 85.3338C105.699 85.0001 105.975 84.7178 106.303 84.5095C106.632 84.3012 107.004 84.1726 107.391 84.1339C108.362 84.1418 109.309 84.4288 110.122 84.9605C110.934 85.4923 111.576 86.2466 111.973 87.1336C112.072 87.4934 112.095 87.8701 112.04 88.2393C111.985 88.6086 111.853 88.9621 111.653 89.2771C111.453 89.592 111.189 89.8613 110.878 90.0675C110.567 90.2737 110.216 90.4122 109.849 90.4741C108.878 90.5449 107.913 90.2696 107.126 89.6969H107.099ZM107.704 88.6539C108.218 89.0422 108.844 89.2528 109.488 89.2538C109.715 89.2466 109.937 89.1846 110.135 89.0731C110.333 88.9615 110.501 88.8036 110.625 88.613C110.749 88.4232 110.824 88.2053 110.843 87.9791C110.862 87.7529 110.825 87.5256 110.734 87.3176C110.446 86.7368 109.984 86.2603 109.413 85.9542C108.902 85.5746 108.286 85.3626 107.65 85.3474C107.422 85.3581 107.2 85.4261 107.005 85.5453C106.81 85.6644 106.648 85.8308 106.534 86.0292C106.405 86.2179 106.325 86.4361 106.303 86.6637C106.28 86.8912 106.315 87.1208 106.404 87.3313C106.682 87.9128 107.137 88.3905 107.704 88.6948V88.6539ZM113.471 86.0087L107.194 82.75L108.065 81.0729C108.257 80.6542 108.5 80.2605 108.787 79.9003C109.059 79.6336 109.421 79.4781 109.801 79.464C110.278 79.4487 110.749 79.5667 111.163 79.8048C111.566 79.997 111.914 80.2906 112.17 80.657C112.374 80.9436 112.484 81.2868 112.483 81.6387C112.415 82.1433 112.243 82.6283 111.98 83.0636L111.626 83.7453L113.995 84.9793L113.457 86.0087H113.471ZM108.794 82.2659L110.577 83.1931L110.877 82.6136C111.032 82.3562 111.145 82.0753 111.21 81.7819C111.224 81.6102 111.184 81.4384 111.095 81.291C110.982 81.1164 110.824 80.9751 110.639 80.882C110.457 80.778 110.248 80.7306 110.039 80.7456C109.868 80.7563 109.706 80.8234 109.577 80.9365C109.364 81.1833 109.188 81.4587 109.052 81.7546L108.794 82.2659Z" fill="#332A1C"/>
<path d="M78.1452 89.3489V89.308C78.1405 89.0738 78.092 88.8425 78.0022 88.6262L77.1377 84.1199C77.1233 84.0644 77.1004 84.0115 77.0696 83.9631V80.4453C77.0678 79.9685 76.8779 79.5118 76.5412 79.1746C76.2045 78.8375 75.7485 78.6473 75.2724 78.6455H62.9436C62.467 78.6455 62.0099 78.8351 61.6728 79.1727C61.3358 79.5102 61.1464 79.968 61.1464 80.4453V83.9222C61.1102 83.9675 61.0868 84.0216 61.0783 84.079L60.2342 88.5308C60.1274 88.7688 60.0717 89.0266 60.0708 89.2875V92.9757H60.7856V91.3532H77.4236V92.9621H78.1452V89.342V89.3489ZM61.8612 80.4453C61.863 80.159 61.9779 79.885 62.1807 79.6832C62.3835 79.4814 62.6577 79.3681 62.9436 79.3682H75.2724C75.5576 79.3682 75.8312 79.4816 76.0329 79.6836C76.2346 79.8857 76.348 80.1596 76.348 80.4453V83.7858H75.2451C75.2451 83.7858 75.2451 83.7245 75.2451 83.6904V82.3269C75.2433 82.037 75.1271 81.7596 74.9217 81.5552C74.7164 81.3508 74.4386 81.2361 74.1491 81.2361H70.7997C70.5108 81.2361 70.2338 81.3511 70.0295 81.5556C69.8252 81.7602 69.7105 82.0376 69.7105 82.3269V83.6904C69.7071 83.7221 69.7071 83.7541 69.7105 83.7858H68.4783V82.3065C68.4783 82.0172 68.3635 81.7397 68.1593 81.5352C67.955 81.3306 67.6779 81.2157 67.3891 81.2157H64.0533C63.7644 81.2157 63.4874 81.3306 63.2831 81.5352C63.0788 81.7397 62.9641 82.0172 62.9641 82.3065V83.7858H61.8612V80.4453ZM60.7856 90.6714V89.308C60.7874 89.0162 60.9044 88.7371 61.111 88.5314C61.3176 88.3258 61.5971 88.2103 61.8885 88.2104H76.3275C76.6182 88.2104 76.897 88.326 77.1026 88.5318C77.3081 88.7377 77.4236 89.0169 77.4236 89.308V90.6714H60.7856Z" fill="#332A1C"/>
<path fill-rule="evenodd" clip-rule="evenodd" d="M47.8988 43.6315L96.9141 85.6542L96.1312 86.5404L47.1159 44.4701L46.2581 45.5813C46.1662 45.6919 46.0526 45.7825 45.9245 45.8476C45.7963 45.9127 45.6562 45.9508 45.5128 45.9598C45.3694 45.9687 45.2257 45.9482 45.0904 45.8996C44.9552 45.8509 44.8313 45.7751 44.7264 45.6768C43.3649 44.5451 39.6002 40.3251 39.3347 39.5411L44.9306 44.3133C44.99 44.3641 45.0588 44.4026 45.1331 44.4267C45.2073 44.4508 45.2856 44.4599 45.3635 44.4536C45.4413 44.4473 45.5171 44.4256 45.5865 44.3898C45.6559 44.354 45.7176 44.3049 45.768 44.2451C45.865 44.1241 45.9121 43.9704 45.8994 43.8157C45.8867 43.661 45.8153 43.517 45.6999 43.4134L40.2538 37.9594L46.6394 42.3294C46.762 42.4255 46.9162 42.4718 47.0713 42.4592C47.2265 42.4466 47.3712 42.3759 47.4767 42.2612C47.577 42.1416 47.6262 41.9871 47.6134 41.8314C47.6007 41.6756 47.5271 41.5312 47.4086 41.4295L41.8331 36.6914C42.7249 36.9437 47.4018 40.1478 48.6 41.1705C48.7083 41.2616 48.7977 41.3733 48.8629 41.4992C48.928 41.625 48.9678 41.7625 48.9798 41.9037C48.9918 42.0449 48.9759 42.1872 48.9329 42.3222C48.8899 42.4573 48.8207 42.5825 48.7293 42.6907L47.8988 43.6315Z" fill="#332A1C"/>
<path fill-rule="evenodd" clip-rule="evenodd" d="M78.7512 38.9686C78.1567 36.7334 76.768 34.7924 74.8458 33.5099C72.9236 32.2273 70.6001 31.6914 68.3114 32.0027C66.0226 32.314 63.926 33.4511 62.415 35.2006C60.904 36.9501 60.0826 39.1917 60.1049 41.5047L78.7512 38.9686Z" fill="#332A1C"/>
<path fill-rule="evenodd" clip-rule="evenodd" d="M56.9802 43.4953C56.9802 43.768 57.4227 43.993 57.9742 43.993H58.6549L59.4378 44.9951H79.8608L80.4872 43.9793H81.0113C81.5628 43.9793 82.0053 43.7543 82.0053 43.4817V42.984C82.0053 42.7045 81.5628 42.4795 81.0113 42.4795H57.9742C57.4227 42.4795 56.9802 42.7045 56.9802 42.984V43.4817V43.4953Z" fill="#332A1C"/>
<path fill-rule="evenodd" clip-rule="evenodd" d="M68.6282 30.924C68.8294 30.8112 68.9961 30.6455 69.1101 30.4448C69.2242 30.2441 69.2813 30.016 69.2755 29.7852C69.2696 29.5543 69.2008 29.3295 69.0767 29.1349C68.9525 28.9403 68.7777 28.7833 68.571 28.681C68.3643 28.5786 68.1336 28.5347 67.9038 28.554C67.674 28.5733 67.4538 28.6551 67.267 28.7905C67.0803 28.9259 66.934 29.1099 66.8439 29.3225C66.7539 29.5351 66.7235 29.7682 66.7561 29.9969C66.7894 30.2508 66.8991 30.4885 67.0705 30.6785C67.242 30.8684 67.4671 31.0016 67.716 31.0604L67.8522 32.0694L68.3083 32.008L68.7644 31.9398L68.6282 30.9377V30.924Z" fill="#332A1C"/>
</svg>
