<svg width="90" height="90" fill="none" xmlns="http://www.w3.org/2000/svg"><path d="M39.92 58.065a6.54 6.54 0 0 0-6.533 6.532 6.54 6.54 0 0 0 6.532 6.532 6.54 6.54 0 0 0 6.533-6.532 6.54 6.54 0 0 0-6.532-6.532zm0 10.16c-2 0-3.63-1.626-3.63-3.628a3.633 3.633 0 0 1 3.63-3.63c2 0 3.628 1.628 3.628 3.63a3.633 3.633 0 0 1-3.629 3.629zM45 36.29a4.36 4.36 0 0 0-4.355 4.355A4.36 4.36 0 0 0 45 45a4.36 4.36 0 0 0 4.355-4.355A4.36 4.36 0 0 0 45 36.29zm0 5.807c-.8 0-1.452-.652-1.452-1.452 0-.8.652-1.452 1.452-1.452.8 0 1.452.652 1.452 1.452 0 .8-.652 1.452-1.452 1.452zm23.226 17.419a4.36 4.36 0 0 0-4.355 4.355 4.36 4.36 0 0 0 4.355 4.355 4.36 4.36 0 0 0 4.355-4.355 4.36 4.36 0 0 0-4.355-4.355zm0 5.807a1.453 1.453 0 0 1 0-2.904 1.452 1.452 0 0 1 0 2.904zM58.79 75.484a4.36 4.36 0 0 0-4.355 4.355 4.36 4.36 0 0 0 4.355 4.355 4.36 4.36 0 0 0 4.355-4.355 4.36 4.36 0 0 0-4.355-4.355zm0 5.806a1.452 1.452 0 1 1 .002-2.904 1.452 1.452 0 0 1-.002 2.904zm-45-47.903a6.54 6.54 0 0 0-6.532 6.532 6.54 6.54 0 0 0 6.532 6.533 6.54 6.54 0 0 0 6.533-6.533 6.54 6.54 0 0 0-6.533-6.532zm0 10.161c-2 0-3.629-1.628-3.629-3.629 0-2 1.63-3.629 3.63-3.629s3.628 1.629 3.628 3.63c0 2-1.628 3.628-3.629 3.628zm6.533-33.387a4.36 4.36 0 0 0-4.355 4.355 4.36 4.36 0 0 0 4.355 4.355 4.36 4.36 0 0 0 4.354-4.355 4.36 4.36 0 0 0-4.354-4.355zm0 5.807c-.8 0-1.452-.652-1.452-1.452 0-.8.652-1.451 1.452-1.451.8 0 1.451.651 1.451 1.451s-.652 1.452-1.451 1.452zM43.548 8.71a4.36 4.36 0 0 0-4.355 4.355 4.36 4.36 0 0 0 4.355 4.354 4.36 4.36 0 0 0 4.355-4.354 4.36 4.36 0 0 0-4.355-4.355zm0 5.806c-.8 0-1.451-.652-1.451-1.451 0-.8.651-1.452 1.451-1.452S45 12.265 45 13.065c0 .8-.652 1.451-1.452 1.451z" fill="#fff"/><path d="M89.32 51.508l-.36-1.725-1.624.684a4.344 4.344 0 0 1-1.69.34c-1.672 0-3.168-.948-3.906-2.474l-.577-1.195-1.242.47c-3.05 1.153-5.886-1.175-5.893-3.96l.06-1.418-1.128-.288a4.34 4.34 0 0 1-3.283-4.2c0-.498.1-1.013.296-1.531l.47-1.243-1.195-.578c-1.526-.737-2.474-2.235-2.474-3.906 0-.452.087-.918.266-1.427l.522-1.492-1.531-.394a33.872 33.872 0 0 0-2.67-.561C60.792 11.37 47.49 0 31.936 0 14.326 0 0 14.326 0 31.936c0 15.543 11.353 28.836 26.576 31.42C29.105 78.456 42.258 90 58.065 90 75.674 90 90 75.674 90 58.065c0-2.191-.23-4.396-.68-6.557zm-63.1 8.837C12.806 57.657 2.903 45.777 2.903 31.935c0-16.008 13.024-29.032 29.033-29.032 13.842 0 25.725 9.907 28.409 23.323a29.47 29.47 0 0 0-2.28-.097 31.746 31.746 0 0 0-13.326 2.924c-.595-1.696-2.197-2.924-4.094-2.924a4.36 4.36 0 0 0-4.355 4.355c0 1.199.508 2.288 1.317 3.082-7.01 5.863-11.478 14.667-11.478 24.498 0 .768.036 1.526.09 2.281zm15.868-29.913a30.94 30.94 0 0 0-2.1 1.326 1.437 1.437 0 0 1-.793-1.274c0-.8.651-1.452 1.451-1.452.783 0 1.413.625 1.442 1.4zm15.977 56.665c-16.008 0-29.032-13.024-29.032-29.032 0-16.009 13.024-29.033 29.033-29.033a28.6 28.6 0 0 1 5.858.626 7.177 7.177 0 0 0 2.99 6.714 6.945 6.945 0 0 0-.139 1.37c0 2.93 1.764 5.53 4.404 6.654.421 3.603 3.493 6.41 7.21 6.41a6.9 6.9 0 0 0 1.37-.139 7.178 7.178 0 0 0 5.887 3.043c.375 0 .745-.03 1.11-.084.227 1.473.342 2.96.342 4.439 0 16.008-13.024 29.032-29.032 29.032z" fill="#fff"/><path d="M56.613 33.387H53.71v2.903h2.903v-2.903zm2.903 10.161h-2.903v2.904h2.903v-2.904zM36.29 49.355h-2.903v2.903h2.903v-2.903zm13.065 2.903h-2.903v2.903h2.903v-2.903zm7.258 11.613H53.71v2.903h2.903v-2.903zm-8.71 14.516H45v2.903h2.903v-2.903zm24.677-2.903h-2.903v2.903h2.904v-2.903zm7.259-15.968h-2.903v2.903h2.903v-2.903zM52.258 20.323h-2.903v2.903h2.903v-2.903zM36.29 17.42h-2.903v2.902h2.903V17.42zM33.387 5.806h-2.903V8.71h2.903V5.806zm-23.226 17.42H7.258v2.903h2.903v-2.903zm15.969 2.903h-2.904v2.903h2.903V26.13zm2.902 11.613H26.13v2.903h2.903v-2.903zm-7.258 13.064h-2.903v2.904h2.903v-2.904zm46.452 0h-2.903v2.904h2.903v-2.904z" fill="#fff"/></svg>