<svg width="17" height="18" fill="none" xmlns="http://www.w3.org/2000/svg"><path d="M.147 8.601L.14 8.61c-.011.014-.022.025-.03.04-.003.004-.003.007-.007.011-.007.015-.019.03-.026.044 0 .004-.004.008-.004.008l-.022.047c0 .004 0 .004-.003.008-.008.014-.011.033-.019.051 0 .004 0 .007-.003.007-.004.019-.011.034-.011.052 0 .007 0 .01-.004.018-.004.015-.004.03-.007.044A.357.357 0 0 0 0 9.002c0 .022 0 .04.004.062 0 .015.003.03.007.044 0 .008 0 .011.004.019l.01.051c0 .004 0 .008.004.008.004.018.011.033.019.051 0 .004 0 .004.003.007.008.015.015.033.022.048 0 .004.004.007.004.007a.26.26 0 0 0 .026.045c.004.003.004.007.007.01.011.015.019.03.03.041l.007.007c.015.015.026.033.044.048l3.634 3.63a.632.632 0 0 0 .893-.893L2.16 9.63h10.167a.631.631 0 1 0 0-1.26H2.157l2.539-2.54a.632.632 0 0 0-.445-1.077.629.629 0 0 0-.445.184L.195 8.55a.705.705 0 0 1-.048.051z" fill="#fff"/><path d="M13.286 16.74H8.583a.631.631 0 1 0 0 1.26h4.703a3.426 3.426 0 0 0 3.42-3.42V3.42A3.426 3.426 0 0 0 13.287 0H8.66a.631.631 0 1 0 0 1.26h4.626c1.19 0 2.16.97 2.16 2.16v11.16a2.164 2.164 0 0 1-2.16 2.16z" fill="#fff"/></svg>