<svg width="18" height="11" fill="none" xmlns="http://www.w3.org/2000/svg"><path d="M8.526 0C5.268 0 2.313 1.782.133 4.677a.675.675 0 0 0 0 .806c2.18 2.899 5.135 4.681 8.393 4.681 3.257 0 6.212-1.782 8.392-4.677a.675.675 0 0 0 0-.806C14.738 1.782 11.783 0 8.526 0zm.233 8.66a3.588 3.588 0 0 1-3.812-3.812 3.594 3.594 0 0 1 3.345-3.345 3.589 3.589 0 0 1 3.812 3.813A3.606 3.606 0 0 1 8.76 8.66zm-.108-1.653a1.928 1.928 0 0 1-2.05-2.05 1.94 1.94 0 0 1 1.802-1.804 1.928 1.928 0 0 1 2.051 2.051 1.94 1.94 0 0 1-1.803 1.803z" fill="#9DB2C6"/></svg>