<svg width="20" height="20" fill="none" xmlns="http://www.w3.org/2000/svg"><path d="M18.586 14.377c-.59-.59-1.578-1.105-3.135-1.884-.785-.393-2.092-1.046-2.409-1.345 1.327-1.63 2.097-3.472 2.097-5.083 0-1.094 0-2.455-.613-3.67C13.975 1.304 12.741 0 10 0 7.26 0 6.025 1.303 5.474 2.396c-.613 1.214-.613 2.575-.613 3.668 0 1.613.77 3.454 2.097 5.084-.318.3-1.624.953-2.41 1.345-1.556.778-2.544 1.293-3.135 1.884C.106 15.685.007 17.88 0 18.308A1.668 1.668 0 0 0 1.666 20h16.667A1.668 1.668 0 0 0 20 18.308c-.007-.427-.107-2.622-1.414-3.931zm.044 4.249a.416.416 0 0 1-.297.124H1.666a.416.416 0 0 1-.416-.423c.003-.21.06-2.079 1.047-3.066.456-.455 1.41-.949 2.811-1.65 1.496-.748 2.326-1.193 2.708-1.555l.844-.797-.733-.9C6.773 8.942 6.111 7.376 6.111 6.065c0-1.012 0-2.157.479-3.106C7.163 1.825 8.31 1.25 10 1.25c1.69 0 2.838.575 3.41 1.708.479.95.479 2.095.479 3.107 0 1.31-.662 2.876-1.817 4.294l-.732.9.843.797c.382.361 1.211.807 2.708 1.555 1.402.7 2.355 1.195 2.81 1.65.804.803 1.037 2.305 1.048 3.066a.416.416 0 0 1-.119.299z" fill="#fff"/></svg>