<svg width="18" height="16" fill="none" xmlns="http://www.w3.org/2000/svg"><path d="M9 16c-.257 0-.503-.091-.696-.26a210.931 210.931 0 0 0-2.046-1.76l-.004-.003C4.44 12.435 2.876 11.1 1.786 9.787.566 8.316 0 6.926 0 5.405c0-1.479.506-2.842 1.427-3.84A4.837 4.837 0 0 1 5.027 0c1.041 0 1.99.327 2.827.977.422.326.805.727 1.142 1.194A5.785 5.785 0 0 1 10.139.977 4.54 4.54 0 0 1 12.973 0c1.388 0 2.668.555 3.6 1.567.92.997 1.427 2.36 1.427 3.839 0 1.52-.566 2.912-1.786 4.38-1.09 1.314-2.654 2.649-4.468 4.19-.619.528-1.322 1.125-2.05 1.764-.193.169-.44.26-.696.26zM5.027 1.054c-1.09 0-2.095.435-2.823 1.226-.742.804-1.15 1.914-1.15 3.126 0 1.279.475 2.424 1.544 3.71 1.03 1.243 2.566 2.55 4.342 4.06l.003.003c.623.53 1.326 1.128 2.057 1.767.738-.643 1.441-1.24 2.064-1.77 1.775-1.514 3.308-2.817 4.341-4.06 1.066-1.286 1.544-2.431 1.544-3.71 0-1.212-.408-2.322-1.15-3.126a3.809 3.809 0 0 0-2.826-1.226c-.802 0-1.537.253-2.184.755-.576.446-.98 1.012-1.216 1.405A.66.66 0 0 1 9 3.537a.667.667 0 0 1-.573-.323A5.09 5.09 0 0 0 7.21 1.809a3.485 3.485 0 0 0-2.184-.755z" fill="#fff"/></svg>