<svg width="17" height="22" fill="none" xmlns="http://www.w3.org/2000/svg"><path d="M8.05 8.452a.69.69 0 0 0-.974-.001l-2.263 2.264-.889-.89a.688.688 0 0 0-.972.973l1.375 1.375a.69.69 0 0 0 .972.001l2.75-2.75a.688.688 0 0 0 0-.972zm0 5.5a.69.69 0 0 0-.974-.001l-2.263 2.264-.889-.888a.688.688 0 0 0-.972.972l1.375 1.375a.685.685 0 0 0 .972 0l2.75-2.75a.688.688 0 0 0 0-.972zm5.013-4.327h-2.75a.688.688 0 0 0 0 1.375h2.75a.688.688 0 0 0 0-1.375zm0 5.5h-2.75a.688.688 0 0 0 0 1.375h2.75a.688.688 0 0 0 0-1.375z" fill="#fff"/><path d="M15.125 2.75h-2.75v-.688a.688.688 0 0 0-.688-.687h-1.491A2.068 2.068 0 0 0 8.25 0a2.07 2.07 0 0 0-1.946 1.375H4.812a.688.688 0 0 0-.687.688v.687h-2.75C.617 2.75 0 3.367 0 4.125v16.5C0 21.383.617 22 1.375 22h13.75c.758 0 1.375-.617 1.375-1.375v-16.5c0-.758-.617-1.375-1.375-1.375zm-9.625 0h1.375c.38 0 .688-.308.688-.688a.688.688 0 0 1 1.375 0c0 .38.307.688.687.688H11v1.375H5.5V2.75zm9.625 17.875H1.375v-16.5h2.75v.688c0 .379.308.687.688.687h6.875a.688.688 0 0 0 .687-.688v-.687h2.75v16.5z" fill="#fff"/></svg>