<svg width="32" height="32" viewBox="0 0 32 32" fill="none" xmlns="http://www.w3.org/2000/svg">
<path d="M20.2542 23.9747C19.0391 23.9747 17.8754 23.382 16.7913 22.2106C15.9151 21.2641 14.9496 20.7711 13.9209 20.7454C12.031 20.6868 10.4415 22.2214 10.4256 22.2368C10.122 22.5342 9.63469 22.5295 9.33732 22.2265C9.03995 21.9235 9.04253 21.4376 9.34505 21.1393C9.42724 21.0576 11.3921 19.1651 13.9456 19.2047C15.4103 19.2371 16.7487 19.8965 17.9217 21.164C18.7644 22.074 19.6216 22.4956 20.4515 22.4248C22.0544 22.2841 23.2612 20.4342 23.2736 20.4152C23.5032 20.0578 23.9792 19.953 24.3372 20.1826C24.6946 20.4116 24.7999 20.8861 24.5724 21.2441C24.5072 21.3463 22.9557 23.7457 20.5958 23.9588C20.4812 23.969 20.3677 23.9747 20.2542 23.9747Z" fill="#857F77"/>
<path d="M23.113 11.806C23.113 12.8239 22.2887 13.6487 21.2714 13.6487C20.2545 13.6487 19.4292 12.8239 19.4292 11.806C19.4292 10.7887 20.2545 9.96387 21.2714 9.96387C22.2887 9.96387 23.113 10.7887 23.113 11.806Z" fill="#857F77"/>
<path d="M12.5227 11.806C12.5227 12.8239 11.6984 13.6487 10.6805 13.6487C9.66366 13.6487 8.83887 12.8239 8.83887 11.806C8.83887 10.7887 9.66366 9.96387 10.6805 9.96387C11.6984 9.96387 12.5227 10.7887 12.5227 11.806Z" fill="#857F77"/>
<path d="M16.001 32C7.18046 32 0.00439453 24.8224 0.00439453 16.0003C0.00439453 7.17761 7.18046 0 16.001 0C24.8216 0 31.9971 7.17761 31.9971 16.0002C31.9972 24.8223 24.8216 32 16.001 32ZM16.001 1.54125C8.0299 1.54125 1.54507 8.02763 1.54507 16.0003C1.54507 23.9729 8.0299 30.4593 16.001 30.4593C23.9716 30.4593 30.4565 23.9729 30.4565 16.0003C30.4565 8.02763 23.9716 1.54125 16.001 1.54125Z" fill="#857F77"/>
</svg>
