<svg width="32" height="32" viewBox="0 0 32 32" fill="none" xmlns="http://www.w3.org/2000/svg">
<path d="M23.118 11.8031C23.118 12.8214 22.2931 13.6468 21.2748 13.6468C20.257 13.6468 19.4316 12.8214 19.4316 11.8031C19.4316 10.7849 20.257 9.95996 21.2748 9.95996C22.2931 9.95996 23.118 10.7849 23.118 11.8031Z" fill="#C5A26D"/>
<path d="M12.5203 11.8031C12.5203 12.8214 11.6949 13.6468 10.6772 13.6468C9.65939 13.6468 8.83398 12.8214 8.83398 11.8031C8.83398 10.7849 9.65939 9.95996 10.6772 9.95996C11.6949 9.95996 12.5203 10.7849 12.5203 11.8031Z" fill="#C5A26D"/>
<path d="M9.73024 25.5818C9.31099 25.5818 8.9707 25.242 8.9707 24.8223C8.9707 21.5436 11.6079 18.876 14.8497 18.876H17.4099C20.6517 18.876 23.2888 21.5288 23.2888 24.7893C23.2888 25.2091 22.9491 25.5494 22.5293 25.5494C22.11 25.5494 21.7703 25.2091 21.7703 24.7893C21.7703 22.3669 19.8142 20.3956 17.4099 20.3956H14.8497C12.4455 20.3956 10.4899 22.381 10.4899 24.8222C10.4898 25.242 10.1495 25.5818 9.73024 25.5818Z" fill="#C5A26D"/>
<path d="M15.9991 32C7.17866 32 0.00292969 24.8222 0.00292969 15.9997C0.00292969 7.17776 7.17866 0 15.9991 0C24.8191 0 31.9948 7.17776 31.9948 15.9997C31.9948 24.8222 24.8191 32 15.9991 32ZM15.9991 1.51964C8.0162 1.51964 1.52206 8.01535 1.52206 15.9997C1.52206 23.9847 8.01625 30.4804 15.9991 30.4804C23.9815 30.4804 30.4757 23.9846 30.4757 15.9997C30.4757 8.0153 23.9815 1.51964 15.9991 1.51964Z" fill="#C5A26D"/>
</svg>
