<svg width="32" height="32" viewBox="0 0 32 32" fill="none" xmlns="http://www.w3.org/2000/svg">
<path d="M17.6429 26.5934H14.5491C10.7138 26.5934 7.59229 23.7128 7.59229 20.1722C7.59229 19.7465 7.93742 19.4014 8.36262 19.4014H23.8293C24.2545 19.4014 24.5996 19.7465 24.5996 20.1722C24.6002 23.7128 21.4787 26.5934 17.6429 26.5934ZM9.20034 20.9426C9.6117 23.2686 11.8534 25.0522 14.5492 25.0522H17.6424C20.3381 25.0522 22.5804 23.2686 22.9918 20.9426H9.20034Z" fill="#E0DFDD"/>
<path d="M23.114 11.806C23.114 12.8239 22.2892 13.6482 21.2718 13.6482C20.255 13.6482 19.4302 12.8239 19.4302 11.806C19.4302 10.7887 20.255 9.96387 21.2718 9.96387C22.2892 9.96387 23.114 10.7887 23.114 11.806Z" fill="#E0DFDD"/>
<path d="M12.5222 11.806C12.5222 12.8239 11.6979 13.6482 10.6805 13.6482C9.66314 13.6482 8.83887 12.8239 8.83887 11.806C8.83887 10.7887 9.66314 9.96387 10.6805 9.96387C11.6979 9.96387 12.5222 10.7887 12.5222 11.806Z" fill="#E0DFDD"/>
<path d="M16.0005 32C7.18046 32 0.00439453 24.8224 0.00439453 16.0003C0.00433733 7.17761 7.18046 0 16.0005 0C24.8206 0 31.9966 7.17761 31.9966 16.0002C31.9971 24.8223 24.8211 32 16.0005 32ZM16.0005 1.54125C8.02939 1.54125 1.54507 8.02711 1.54507 16.0003C1.54507 23.9729 8.02939 30.4588 16.0005 30.4588C23.9711 30.4588 30.4559 23.9729 30.4559 16.0003C30.4565 8.02711 23.9711 1.54125 16.0005 1.54125Z" fill="#E0DFDD"/>
</svg>
