<svg width="32" height="32" viewBox="0 0 32 32" fill="none" xmlns="http://www.w3.org/2000/svg">
<path d="M23.1185 11.8031C23.1185 12.8214 22.2936 13.6468 21.2753 13.6468C20.2575 13.6468 19.4321 12.8214 19.4321 11.8031C19.4321 10.7849 20.2575 9.95996 21.2753 9.95996C22.2936 9.95996 23.1185 10.7849 23.1185 11.8031Z" fill="#E0DFDD"/>
<path d="M12.5203 11.8031C12.5203 12.8214 11.6949 13.6468 10.6772 13.6468C9.65939 13.6468 8.83398 12.8214 8.83398 11.8031C8.83398 10.7849 9.65939 9.95996 10.6772 9.95996C11.6949 9.95996 12.5203 10.7849 12.5203 11.8031Z" fill="#E0DFDD"/>
<path d="M17.4093 25.4607H14.8496C11.6078 25.4607 8.97021 22.8549 8.97021 19.6511C8.97021 19.2314 9.31051 18.8916 9.72975 18.8916C10.149 18.8916 10.4893 19.2314 10.4893 19.6511C10.4893 22.0569 12.4044 23.9416 14.8496 23.9416H17.4093C19.8546 23.9416 21.7697 22.0883 21.7697 19.722C21.7697 19.3023 22.11 18.9625 22.5292 18.9625C22.949 18.9625 23.2887 19.3023 23.2887 19.722C23.2888 22.94 20.7063 25.4607 17.4093 25.4607Z" fill="#E0DFDD"/>
<path d="M16.0011 32C7.18062 32 0.00488281 24.8222 0.00488281 15.9997C0.00488281 7.17776 7.18062 0 16.0011 0C24.821 0 31.9968 7.17776 31.9968 15.9997C31.9968 24.8222 24.821 32 16.0011 32ZM16.0011 1.51964C8.01815 1.51964 1.52401 8.01535 1.52401 15.9997C1.52401 23.9847 8.01821 30.4804 16.0011 30.4804C23.9835 30.4804 30.4776 23.9846 30.4776 15.9997C30.4776 8.0153 23.9835 1.51964 16.0011 1.51964Z" fill="#E0DFDD"/>
</svg>
