<svg width="32" height="32" viewBox="0 0 32 32" fill="none" xmlns="http://www.w3.org/2000/svg">
<path d="M23.514 22.4836H9.13411C8.7089 22.4836 8.36377 22.1384 8.36377 21.7132C8.36377 21.2875 8.7089 20.9424 9.13411 20.9424H23.514C23.9393 20.9424 24.2844 21.2875 24.2844 21.7132C24.2844 22.1385 23.9393 22.4836 23.514 22.4836Z" fill="#857F77"/>
<path d="M23.114 11.806C23.114 12.8239 22.2892 13.6487 21.2718 13.6487C20.2544 13.6487 19.4302 12.8239 19.4302 11.806C19.4302 10.7887 20.2544 9.96387 21.2718 9.96387C22.2892 9.96387 23.114 10.7887 23.114 11.806Z" fill="#857F77"/>
<path d="M12.5222 11.806C12.5222 12.8239 11.6974 13.6487 10.6805 13.6487C9.66314 13.6487 8.83887 12.8239 8.83887 11.806C8.83887 10.7887 9.66314 9.96387 10.6805 9.96387C11.6979 9.96387 12.5222 10.7887 12.5222 11.806Z" fill="#857F77"/>
<path d="M16.0005 32C7.17995 32 0.00439453 24.8224 0.00439453 16.0003C0.00485211 7.17761 7.18046 0 16.0005 0C24.8206 0 31.9966 7.17761 31.9966 16.0002C31.9966 24.8223 24.8206 32 16.0005 32ZM16.0005 1.54125C8.02991 1.54125 1.54507 8.02763 1.54507 16.0003C1.54507 23.9729 8.02991 30.4593 16.0005 30.4593C23.9716 30.4593 30.4559 23.9729 30.4559 16.0002C30.4559 8.02757 23.9716 1.54125 16.0005 1.54125Z" fill="#857F77"/>
</svg>
