<svg width="24" height="24" viewBox="0 0 24 24" fill="none" xmlns="http://www.w3.org/2000/svg">
<g clip-path="url(#clip0)">
<path d="M23.6894 11.1588C23.4786 10.9102 18.4408 5.07959 12.0006 5.07959C5.56027 5.07959 0.522655 10.9102 0.311364 11.159C-0.103177 11.6464 -0.103177 12.3537 0.311607 12.8416C0.522655 13.0901 5.56027 18.9205 12.0006 18.9205C18.4408 18.9205 23.4786 13.0897 23.6897 12.8411C24.1042 12.3537 24.1042 11.6464 23.6894 11.1588ZM13.9678 8.58211C14.4009 8.34571 15.0048 8.61696 15.3165 9.18771C15.6282 9.75871 15.5297 10.4133 15.0967 10.6497C14.6638 10.8863 14.0597 10.6148 13.7478 10.0441C13.4363 9.47309 13.5345 8.8185 13.9678 8.58211ZM12.0006 16.8081C7.50186 16.8081 3.71591 13.3531 2.40552 12.0001C3.29041 11.0862 5.30511 9.21476 7.90519 8.09567C7.39804 8.86724 7.10072 9.78918 7.10072 10.7815C7.10072 13.4876 9.29431 15.6812 12.0004 15.6812C14.7065 15.6812 16.9003 13.4876 16.9003 10.7815C16.9003 9.78918 16.6032 8.86724 16.0961 8.09567C18.6962 9.21501 20.7106 11.0862 21.5955 12.0001C20.2851 13.3538 16.4992 16.8081 12.0006 16.8081Z" fill="#121212" fill-opacity="0.75"/>
</g>
<defs>
<clipPath id="clip0">
<rect width="24" height="24" fill="white"/>
</clipPath>
</defs>
</svg>
