<svg width="38" height="39" viewBox="0 0 38 39" fill="none" xmlns="http://www.w3.org/2000/svg">
<path d="M21.0745 14.7265H16.6039V10.3086C16.6039 9.90214 16.2701 9.57227 15.8588 9.57227C15.4475 9.57227 15.1137 9.90214 15.1137 10.3086V14.7265H10.6431C10.2318 14.7265 9.89795 15.0564 9.89795 15.4628C9.89795 15.8693 10.2318 16.1992 10.6431 16.1992H15.1137V20.6171C15.1137 21.0235 15.4475 21.3534 15.8588 21.3534C16.2701 21.3534 16.6039 21.0235 16.6039 20.6171V16.1992H21.0745C21.4858 16.1992 21.8196 15.8693 21.8196 15.4628C21.8196 15.0564 21.4858 14.7265 21.0745 14.7265Z" fill="white"/>
<path d="M37.7923 37.7534L26.7209 26.375C29.5448 23.5763 31.2943 19.718 31.2943 15.4627C31.2943 6.93615 24.2754 0 15.6472 0C7.01887 0 0 6.93615 0 15.4627C0 23.9894 7.01887 30.9255 15.6472 30.9255C19.4345 30.9255 22.9104 29.5876 25.6196 27.3676L36.7179 38.7739C36.8639 38.9249 37.0592 39 37.2551 39C37.4414 39 37.6269 38.9315 37.7715 38.7946C38.068 38.5126 38.077 38.0465 37.7923 37.7534ZM1.4902 15.4627C1.4902 7.74831 7.84071 1.47264 15.6472 1.47264C23.4536 1.47264 29.8041 7.74831 29.8041 15.4627C29.8041 23.1772 23.4536 29.4529 15.6472 29.4529C7.84071 29.4529 1.4902 23.1772 1.4902 15.4627Z" fill="white"/>
</svg>
