<svg width="30" height="25" viewBox="0 0 30 25" fill="none" xmlns="http://www.w3.org/2000/svg">
<path d="M27.6609 2.4558C26.0812 0.872207 23.9682 5.74034e-05 21.711 5.74034e-05C19.4885 5.74034e-05 17.3989 0.848544 15.8269 2.38947L15.0156 3.18523L14.2036 2.38924C12.6318 0.848487 10.5425 0 8.32072 0C6.0982 0 4.00863 0.848487 2.43691 2.38924C0.86543 3.92958 0 5.97766 0 8.15622C0 10.3348 0.86543 12.3829 2.43691 13.9232L12.8363 24.1168C13.437 24.7056 14.2259 25 15.015 25C15.8039 24.9999 16.593 24.7056 17.1936 24.1169L27.5259 13.9898C30.7712 10.8086 30.8317 5.6346 27.6609 2.4558ZM26.4365 12.9219L16.1042 23.0492C15.5036 23.6379 14.5262 23.6379 13.9256 23.0491L3.52623 12.8553C2.24572 11.6002 1.54055 9.93137 1.54055 8.15617C1.54055 6.38097 2.24572 4.71214 3.52623 3.45695C4.80697 2.20148 6.50971 1.51008 8.32072 1.51008C10.131 1.51008 11.8334 2.20148 13.1142 3.45695L13.9267 4.25335L12.6826 5.47378C12.3819 5.76877 12.3821 6.2468 12.683 6.54155C12.8334 6.68888 13.0304 6.76251 13.2274 6.76251C13.4247 6.76251 13.6219 6.68865 13.7723 6.54115L16.9163 3.4569C18.1971 2.20142 19.8998 1.51002 21.7108 1.51002C23.55 1.51002 25.2718 2.22084 26.5593 3.51146C29.143 6.1016 29.0879 10.3231 26.4365 12.9219Z" fill="#FBFFFC"/>
</svg>
