<svg width="42" height="30" viewBox="0 0 42 30" fill="none" xmlns="http://www.w3.org/2000/svg">
<path d="M0 5C0 2.23858 2.23858 0 5 0H37C39.7614 0 42 2.23858 42 5V25C42 27.7614 39.7614 30 37 30H5C2.23858 30 0 27.7614 0 25V5Z" fill="#5FB46E"/>
<path d="M31.7443 19.52L25.6439 14.3115C25.2339 14.0206 24.8721 14.0132 24.6376 14.0568C24.3005 14.1213 23.9997 14.3341 23.7658 14.6743L21.5838 17.1504C21.3945 17.3654 21.4114 17.6972 21.6218 17.8907C21.8328 18.0847 22.1571 18.0678 22.3464 17.8518L24.5504 15.3506C24.5663 15.3328 24.5812 15.3134 24.5946 15.2935C24.671 15.1777 24.7572 15.1011 24.8265 15.0874C24.8952 15.0764 24.9923 15.1262 25.022 15.1446L30.8986 20.1649L11.5496 20.1596L18.6917 11.5885C18.7138 11.5617 18.7332 11.5329 18.7497 11.5025C18.7528 11.4973 18.7553 11.492 18.7579 11.4878C18.7651 11.4978 18.7723 11.5083 18.7805 11.5209L21.4525 15.306C21.6187 15.5409 21.9389 15.5944 22.1694 15.425C22.3993 15.2556 22.4511 14.928 22.2853 14.6932L19.6267 10.9285C19.402 10.5751 19.073 10.3775 18.7195 10.3932C18.3844 10.4053 18.0811 10.6055 17.88 10.9447L10.6978 19.5636C10.6752 19.5909 10.6557 19.6197 10.6393 19.6511C10.4392 20.0218 10.4279 20.4118 10.607 20.7217C10.7866 21.031 11.1268 21.2082 11.5404 21.2082L30.9859 21.2134C31.4041 21.2134 31.7438 21.0351 31.9172 20.7237C32.0912 20.4123 32.0691 20.0233 31.8567 19.6558C31.8274 19.6045 31.7894 19.5583 31.7443 19.52Z" fill="white"/>
<path d="M8.51318 24H33.4868C33.7706 24 34 23.7657 34 23.4757V6.52429C34 6.23438 33.7706 6 33.4868 6H8.51318C8.22935 6 8 6.23431 8 6.52429V23.4757C8 23.7656 8.22935 24 8.51318 24ZM9.0263 7.04851H32.9736V22.9514H9.0263V7.04851Z" fill="white"/>
<path d="M24.691 12.9161C25.7696 12.9161 26.6472 12.0196 26.6472 10.9176C26.6472 9.81511 25.7696 8.91913 24.691 8.91913C23.6119 8.91913 22.7344 9.81562 22.7344 10.9176C22.7344 12.0196 23.6119 12.9161 24.691 12.9161ZM24.691 9.96712C25.2036 9.96712 25.6209 10.3934 25.6209 10.9171C25.6209 11.4408 25.2036 11.867 24.691 11.867C24.1784 11.867 23.7607 11.4408 23.7607 10.9171C23.7607 10.3934 24.1783 9.96712 24.691 9.96712Z" fill="white"/>
</svg>
