<svg width="30" height="8" viewBox="0 0 30 8" fill="none" xmlns="http://www.w3.org/2000/svg">
<path d="M30 3.99984C30.0001 1.7946 28.1947 0.00024547 25.9756 0L19.8966 0.000210556C18.158 0.000105345 16.6727 1.10227 16.112 2.64081H13.8875C13.3269 1.10227 11.842 0.000140393 10.1029 0.000245604L4.02418 0.000105478C1.80542 -3.47804e-05 7.05949e-05 1.79432 2.0699e-09 3.99977C-7.05908e-05 6.20522 1.80553 7.99947 4.02414 7.99975L10.1028 7.99958C11.9171 7.99948 13.4539 6.80017 13.9551 5.15797L16.0446 5.15783C16.5458 6.80003 18.083 7.99968 19.8967 7.99961L25.9755 8C28.1942 8.00014 29.9999 6.2055 30 3.99984ZM10.1033 6.15378L4.02428 6.15388C2.82988 6.15392 1.85775 5.18771 1.85768 4.00019C1.85789 2.81246 2.82988 1.8464 4.02411 1.84598L10.103 1.84594C10.78 1.84601 11.3846 2.15643 11.7822 2.64063L10.1596 2.6405C9.46123 2.64081 8.89308 3.2055 8.89308 3.89927C8.8934 4.5935 9.46158 5.15822 10.1596 5.15804L11.9278 5.15783C11.5418 5.75594 10.8689 6.15406 10.1033 6.15378ZM25.9754 6.15371H19.8966C19.1302 6.15364 18.4579 5.75619 18.0722 5.15815L19.1652 5.15832C19.8634 5.15825 20.4316 4.59353 20.4313 3.89959C20.4311 3.20543 19.8632 2.64099 19.1651 2.64113L18.2181 2.64095C18.6153 2.15674 19.2202 1.84636 19.8969 1.84633L25.9758 1.84633C27.17 1.84626 28.1422 2.81257 28.1424 4.00037C28.1424 5.18792 27.1705 6.15388 25.9754 6.15371Z" fill="#999999"/>
</svg>
