<svg width="16" height="16" viewBox="0 0 16 16" fill="none" xmlns="http://www.w3.org/2000/svg">
<path d="M12.5393 8.40008V6.00168C12.5508 4.17315 11.3212 2.96035 10.2647 2.47741C9.96202 2.33901 9.65002 2.23235 9.33295 2.15315V2.00008C9.33295 1.26488 8.73482 0.666748 7.99962 0.666748C7.26442 0.666748 6.66628 1.26488 6.66628 2.00008V2.17635C6.38068 2.25341 6.09988 2.35395 5.82735 2.47981C4.65988 3.01795 3.47695 4.31501 3.46628 6.00008V8.40008C3.46628 10.1035 2.86468 11.5651 1.67828 12.7443C1.60762 12.8147 1.58202 12.9185 1.61188 13.0137C1.64175 13.1089 1.72255 13.1793 1.82095 13.1963L4.35188 13.6334C4.82335 13.7147 5.25748 13.7814 5.67055 13.8363C6.13588 14.7483 7.04975 15.3337 8.04815 15.3337C9.04682 15.3337 9.96095 14.7481 10.426 13.8355C10.8375 13.7809 11.2695 13.7145 11.7383 13.6334L14.2689 13.1963C14.3673 13.1795 14.4479 13.1089 14.478 13.0137C14.5081 12.9187 14.4825 12.8147 14.4116 12.7443C13.1695 11.5094 12.5393 10.0478 12.5393 8.40008ZM7.19962 2.00008C7.19962 1.55901 7.55855 1.20008 7.99962 1.20008C8.44068 1.20008 8.79962 1.55901 8.79962 2.00008V2.04861C8.26815 1.97235 7.72895 1.97555 7.19962 2.06115V2.00008ZM8.04842 14.8001C7.37322 14.8001 6.74228 14.4646 6.33722 13.9161C6.93322 13.9774 7.48948 14.0083 8.04548 14.0083C8.60362 14.0083 9.16175 13.9774 9.76015 13.9153C9.35482 14.4643 8.72362 14.8001 8.04842 14.8001ZM11.6479 13.1075C11.1361 13.1958 10.6671 13.2675 10.2239 13.3241C10.2233 13.3241 10.2228 13.3241 10.222 13.3241C10.0265 13.3489 9.83668 13.3705 9.65082 13.3891C9.64922 13.3891 9.64788 13.3894 9.64628 13.3894C9.47588 13.4065 9.30948 13.4203 9.14468 13.4321C9.11375 13.4342 9.08282 13.4363 9.05215 13.4382C8.90948 13.4475 8.76842 13.455 8.62815 13.4603C8.59962 13.4614 8.57082 13.463 8.54228 13.4638C8.21055 13.475 7.88335 13.475 7.55188 13.4641C7.52228 13.463 7.49242 13.4614 7.46282 13.4603C7.32495 13.4547 7.18602 13.4478 7.04548 13.4385C7.01215 13.4363 6.97882 13.4342 6.94522 13.4318C6.78548 13.4203 6.62388 13.407 6.45882 13.3905C6.45268 13.3899 6.44682 13.3894 6.44068 13.3889C6.25615 13.3705 6.06788 13.3489 5.87428 13.3243C5.87348 13.3243 5.87268 13.3243 5.87188 13.3243C5.42708 13.2681 4.95615 13.1958 4.44228 13.1073L2.39962 12.7547C3.46175 11.5403 3.99962 10.0779 3.99962 8.40008V6.00168C4.00868 4.55235 5.03642 3.43181 6.05055 2.96408C6.35215 2.82515 6.66495 2.72141 6.98308 2.64861C6.98575 2.64808 6.98868 2.64835 6.99135 2.64781C7.64868 2.50008 8.34788 2.49341 9.01268 2.62968C9.01615 2.63048 9.01962 2.62888 9.02308 2.62941C9.37082 2.70195 9.71322 2.81181 10.0431 2.96248C11.0268 3.41235 12.0153 4.52541 12.006 6.00035V8.40035C12.006 10.0091 12.586 11.5051 13.6895 12.7553L11.6479 13.1075Z" fill="white"/>
<path d="M9.71198 3.69027C8.67865 3.218 7.41332 3.21747 6.38692 3.6908C5.80159 3.96067 4.80879 4.75027 4.80079 5.99854C4.79999 6.14574 4.91839 6.26574 5.06585 6.2668C5.06639 6.2668 5.06692 6.2668 5.06745 6.2668C5.21385 6.2668 5.33332 6.14867 5.33412 6.00174C5.34025 5.0212 6.13918 4.3924 6.61012 4.17507C7.49812 3.7652 8.59572 3.76627 9.48985 4.17507C9.62398 4.2364 9.78212 4.17747 9.84345 4.0436C9.90478 3.90947 9.84558 3.75134 9.71198 3.69027Z" fill="white"/>
<path d="M1.28053 6.0782C1.17627 5.97393 1.00773 5.97393 0.903467 6.0782C0.3208 6.66087 0 7.43633 0 8.2622C0 9.08807 0.3208 9.8638 0.903467 10.4462C0.955467 10.4982 1.02373 10.5243 1.092 10.5243C1.16027 10.5243 1.22853 10.4982 1.28053 10.4462C1.3848 10.3419 1.3848 10.1734 1.28053 10.0691C0.798667 9.58727 0.533333 8.94567 0.533333 8.2622C0.533333 7.57873 0.798667 6.93687 1.28053 6.45527C1.38453 6.351 1.38453 6.18247 1.28053 6.0782Z" fill="white"/>
<path d="M2.21531 9.91751C2.28358 9.91751 2.35184 9.89138 2.40384 9.83938C2.50811 9.73511 2.50811 9.56658 2.40384 9.46231C1.72171 8.78018 1.72171 7.67058 2.40384 6.98871C2.50811 6.88445 2.50811 6.71591 2.40384 6.61165C2.29958 6.50738 2.13104 6.50738 2.02678 6.61165C1.13691 7.50151 1.13691 8.94978 2.02678 9.83938C2.07877 9.89165 2.14704 9.91751 2.21531 9.91751Z" fill="white"/>
<path d="M15.0959 6.0782C14.9916 5.97393 14.8231 5.97393 14.7188 6.0782C14.6146 6.18247 14.6146 6.351 14.7188 6.45527C15.2007 6.93713 15.466 7.57873 15.466 8.2622C15.466 8.94567 15.2007 9.58727 14.7188 10.0691C14.6146 10.1734 14.6146 10.3419 14.7188 10.4462C14.7708 10.4982 14.8391 10.5243 14.9074 10.5243C14.9756 10.5243 15.0439 10.4982 15.0959 10.4462C15.6786 9.8638 15.9994 9.08807 15.9994 8.2622C15.9994 7.43633 15.6786 6.66087 15.0959 6.0782Z" fill="white"/>
<path d="M13.5958 6.61165C13.4915 6.71591 13.4915 6.88445 13.5958 6.98871C14.2779 7.67085 14.2779 8.78045 13.5958 9.46231C13.4915 9.56658 13.4915 9.73511 13.5958 9.83938C13.6478 9.89138 13.716 9.91751 13.7843 9.91751C13.8526 9.91751 13.9208 9.89138 13.9728 9.83938C14.8627 8.94951 14.8627 7.50125 13.9728 6.61165C13.8686 6.50738 13.6998 6.50738 13.5958 6.61165Z" fill="white"/>
</svg>
