<svg id="Слой_1" data-name="Слой 1" xmlns="http://www.w3.org/2000/svg" viewBox="0 0 272.94 71.56"><defs><style>.cls-1{fill:#75b32b;}.cls-2{fill:#aacc71;}.cls-3{fill:#e9efcd;}.cls-4{fill:#794811;}.cls-5{fill:#a3702e;}.cls-6{fill:#96c93d;}.cls-7{fill:#3c3c3b;}</style></defs><title>new-logo-freshmart</title><path class="cls-1" d="M157.64,186.44q2,0,4.05.12a29.62,29.62,0,0,1,8.59-18.09c.32-.32.64-.62,1-.93.05-.39.08-.82.12-1.25.18-2.11.41-4.74,2-7a8.52,8.52,0,0,1,1.09-1.26,35.78,35.78,0,0,0-18.73,28.43c.63,0,1.26,0,1.9,0" transform="translate(-155.6 -153.79)"/><path class="cls-1" d="M210,161.79c.35.67.69,1.31,1,1.82a7.81,7.81,0,0,1,1.39,4.78l.09.08a29.71,29.71,0,0,1,8.59,18.08c1.3-.07,2.61-.11,3.93-.11.68,0,1.35,0,2,0a35.82,35.82,0,0,0-20-29.08,17.76,17.76,0,0,1,3,4.4" transform="translate(-155.6 -153.79)"/><path class="cls-2" d="M172.9,178.05c0-.24-.05-.58-.08-.74a6.44,6.44,0,0,0-.8-1.16,7.16,7.16,0,0,1-1.48-2.62,26.14,26.14,0,0,0-5.32,13.34q3,.34,5.87,1a20.07,20.07,0,0,1,2.17-7.58,10.33,10.33,0,0,1-.36-2.2" transform="translate(-155.6 -153.79)"/><path class="cls-2" d="M217.55,186.86a26.26,26.26,0,0,0-6.3-14.53,27.31,27.31,0,0,1-1.8,2.82,16.92,16.92,0,0,0-1.56,2.48,20.28,20.28,0,0,1,3.79,10.18c1.92-.41,3.88-.72,5.87-.95" transform="translate(-155.6 -153.79)"/><path class="cls-3" d="M203.93,189.94c1.13-.41,2.28-.8,3.44-1.15a15.15,15.15,0,0,0-1.61-6.37c-.27.21-.55.41-.84.62-.64.45-1.38.94-2,1.33a11.64,11.64,0,0,1,1.06,4.86c0,.24,0,.48,0,.71" transform="translate(-155.6 -153.79)"/><path class="cls-3" d="M179.57,184.65h-.08a4.54,4.54,0,0,1-2.75-.93l-.28-.08-.15,0a15.2,15.2,0,0,0-1.08,5.23c1.16.36,2.31.75,3.44,1.17,0-.25,0-.5,0-.76a11.64,11.64,0,0,1,.93-4.58" transform="translate(-155.6 -153.79)"/><path class="cls-1" d="M195.14,182.52c1.74.29,2.28.79,4.28-.21.83-.41,4.76-2.91,4.77-3.66.09-4.8,7.22-8.27,4-13.18-1.25-1.89-2.11-4.43-3.83-5.95-1.08-1-2.56-.61-3.71-1.52s-2.24-1.92-3.49-2.78c-3.17-2.17-13.18-2-15.56,1.51-1.41,2.1-4,2.52-5.44,4.52-1.8,2.55-1,6.28-2,9.08-1.12,3.15.53,2.95,1.79,5.59.56,1.18.15,3,.92,4s2,.7,2.9,1.41c1.18,1,2.17-.86,3.21.32,1.37,1.55,2.82,1.64,4.69,1-.1-2.69,7.61-2.74,7.51-.08" transform="translate(-155.6 -153.79)"/><path class="cls-4" d="M197.41,168a18.66,18.66,0,0,0-2.41,1.19c-.69-2.34-2-3.93-3.59-3.93s-2.88,1.56-3.58,3.87a18.78,18.78,0,0,0-2.32-1.13,22.6,22.6,0,0,0-3.33-1.35c-.05.08,1.92,1.73,2.57,2.55,2.38,3,2.31,5.34,2.31,5.34q.42,4,.57,8.07c0,1.17.07,2.34.07,3.52,0,2.6,0,5.21-.22,7.81,1.32.74,2.61,1.53,3.85,2.37q1.9-1.29,3.95-2.43c-.16-2.64-.23-5.27-.22-7.91,0-1.15,0-2.29.08-3.44.1-2.66.28-5.32.57-8h0a10.27,10.27,0,0,1,2.47-5.34c.65-.82,2.61-2.47,2.56-2.55a22.6,22.6,0,0,0-3.33,1.35" transform="translate(-155.6 -153.79)"/><path class="cls-5" d="M206,198.72a47.3,47.3,0,0,0-7.41,3.54l.42.43a47.42,47.42,0,0,1,7-4" transform="translate(-155.6 -153.79)"/><path class="cls-5" d="M227.16,189.57a36.86,36.86,0,0,1-.26,4.36,53.85,53.85,0,0,0-21,4.79,47.3,47.3,0,0,0-7.41,3.54,48.55,48.55,0,0,0-4.45-3.95l-.2-.15A57.44,57.44,0,0,1,225,189.4c.72,0,1.44,0,2.15,0v.13" transform="translate(-155.6 -153.79)"/><path class="cls-4" d="M225.36,200.81a36.09,36.09,0,0,0,1-3.9,48.85,48.85,0,0,0-25.44,8,40.09,40.09,0,0,1,3.48,4.8h0a.35.35,0,0,1,.05.08l1.22-.89h0A49.76,49.76,0,0,1,225.36,200.81Z" transform="translate(-155.6 -153.79)"/><path class="cls-5" d="M224.08,204.1a34.61,34.61,0,0,1-4.54,7.52h0a37.54,37.54,0,0,0-11.21,6.5,36.5,36.5,0,0,0-2.36-5.72,46,46,0,0,1,18.11-8.31" transform="translate(-155.6 -153.79)"/><path class="cls-4" d="M206.31,222.09v0a38.73,38.73,0,0,1-5.64,2.07h0c-2-11.23-11.22-20.65-24-25.44a53.81,53.81,0,0,0-20.83-4.81,35,35,0,0,1-.27-4.36.61.61,0,0,1,0-.14c.67,0,1.35,0,2,0,13.05,0,25.34,4,34.62,11.25A40.1,40.1,0,0,1,203,213.09a33.34,33.34,0,0,1,3.33,9" transform="translate(-155.6 -153.79)"/><path class="cls-5" d="M196.13,225h0a26.71,26.71,0,0,1-4.75.32h-1c-.27-.69-.58-1.38-.91-2.06-2.11-5.74-6.56-10.75-12.52-14.37a49.94,49.94,0,0,0-19.46-8.07h-.06a36.27,36.27,0,0,1-1-3.91h0A48.08,48.08,0,0,1,184,206.59c6.47,5,10.66,11.46,12.15,18.44" transform="translate(-155.6 -153.79)"/><path class="cls-4" d="M176.86,212.55a45.84,45.84,0,0,0-18.19-8.43h0a35.67,35.67,0,0,0,4.55,7.55A34.57,34.57,0,0,1,179,223.17a35.53,35.53,0,0,0,8,1.92,33.94,33.94,0,0,0-10.18-12.54" transform="translate(-155.6 -153.79)"/><path class="cls-6" d="M260.13,169.3s1.57,4.56-3,6.48c-2.94,1.22-7.54.08-7.54.08,0,.87,0,2.83,0,4.95H256s.28,0,.24.24v4.16c0,.19-.27.19-.27.19h-6.4v3.5c.19,6.2,3,4.87,2.59,6-.47,1.41-2.91,3.17-5.26,3.17-3.18,0-6-2-6-6.87s0-21.87,0-21.87a.19.19,0,0,1,.19-.19h18.69A.36.36,0,0,1,260.13,169.3Z" transform="translate(-155.6 -153.79)"/><path class="cls-6" d="M276.15,181a4.74,4.74,0,0,1-4.91,5.06,2.76,2.76,0,0,1-2-.79c-.24-.35-.08-.62-.08-1.41,0-1.22-.24-1.73-.82-1.73-1.14,0-1.34,2-1.34,4.44V197a.17.17,0,0,1-.16.19H259s-.15,0-.15-.19c0,0,.31-8.92.31-11.63,0-6.24-2.67-4.9-2.32-6,.43-1.26,2.56-2.79,4.75-2.79a5.16,5.16,0,0,1,5.27,4.28c1-2.59,3-4.28,4.94-4.28A4.11,4.11,0,0,1,276.15,181Z" transform="translate(-155.6 -153.79)"/><path class="cls-6" d="M295.63,191.72A10.28,10.28,0,0,1,286.2,198a10.67,10.67,0,0,1-10.67-10.72c0-5.73,4.43-10.68,11.18-10.68,6.45,0,9.23,4,9.23,6.83,0,6.16-7.18,6.91-12.33,6.05,1.38,3.92,6.6,4.32,11.39,1.65a.41.41,0,0,1,.51,0C295.67,191.21,295.75,191.37,295.63,191.72ZM283.3,186c3.49.31,5.22-1,5.22-3.1a1.89,1.89,0,0,0-2.08-1.88s0,0,0,0h-.12a2.58,2.58,0,0,0-.94.36C284.05,182.22,283.46,184.11,283.3,186Z" transform="translate(-155.6 -153.79)"/><path class="cls-6" d="M315.61,191.69c0,4.75-5.65,6.39-10.13,6.39-3.49,0-9.22-1.21-9.22-5.1a3.62,3.62,0,0,1,3.8-3.57c1.3,0,2.79.35,2.95.67s.08.86.08,1.61a2.18,2.18,0,0,0,2.31,2.39c1.46,0,2.08-.71,2.12-1.77-.08-1.88-2.71-2.31-5.61-3.26-2.67-.94-5.3-2.82-5.34-5.92V183c0-4.08,4.83-6.4,8.83-6.4,4.6,0,9.27,1.61,9.27,5.1,0,1.89-1.37,3.42-3.81,3.42a4.73,4.73,0,0,1-2.83-.71c-.19-.31,0-.82,0-1.61,0-1.57-.66-2.28-2-2.24a1.9,1.9,0,0,0-1.84,1.85c0,1.92,2.31,2.43,5,3.22C312.31,186.54,315.61,188.11,315.61,191.69Z" transform="translate(-155.6 -153.79)"/><path class="cls-6" d="M339.28,195.18c-.43,1.22-2.55,2.75-4.75,2.75a5.64,5.64,0,0,1-5.77-6v-7.62c0-3.92-4-2.55-4,2.08V197a.23.23,0,0,1-.16.23H317a.2.2,0,0,1-.15-.19s-.12-23.64-.12-27.88a.16.16,0,0,1,.16-.16h7.73s.12,0,.12.16V181a7.68,7.68,0,0,1,6.55-4.4c2.91,0,5.38,2.55,5.38,6.48v6.12C336.65,195.42,339.64,194.08,339.28,195.18Z" transform="translate(-155.6 -153.79)"/><path class="cls-6" d="M361.91,169.34a.44.44,0,0,1,.27-.19h7.58s.24,0,.2.19l.11,27.65c0,.19-.23.19-.23.19h-8s-.24,0-.2-.19l.12-12.57.75-4c-.47.82-6.17,11.7-6.17,11.7-.08.16-.23.16-.51.16h-1.1c-.47,0-.47,0-.55-.16l-6.43-11.82.74,3.65.24,13.08a.19.19,0,0,1-.2.19h-8.28s-.24,0-.2-.19c0,0,.27-21.44.27-21.48-.19-4.52-2.66-3.61-2.27-4.6.47-1.29,3.33-2.9,5.93-2.9,3.73,0,5.45,2.79,7.26,5.93,2,3.38,3.92,7.5,3.92,7.5Z" transform="translate(-155.6 -153.79)"/><path class="cls-6" d="M395.41,195.26c-.39,1.25-2.52,2.78-4.71,2.78a5.22,5.22,0,0,1-5.34-4.47c-1.34,2.55-3.46,4.44-6.21,4.44-4.94,0-7.69-5.46-7.69-10.72s2.75-10.64,7.89-10.64a6.54,6.54,0,0,1,5.85,3.73v-2.71a.25.25,0,0,1,.2-.24h7.85a.21.21,0,0,1,.16.2s-.28,9-.28,11.66C393.13,195.53,395.8,194.2,395.41,195.26Zm-10-8c0-2.95-1-5.34-2.95-5.34s-2.94,2.39-2.94,5.34,1,5.3,2.94,5.3S385.44,190.23,385.44,187.29Z" transform="translate(-155.6 -153.79)"/><path class="cls-6" d="M413,181a4.74,4.74,0,0,1-4.9,5.06,2.77,2.77,0,0,1-2-.79c-.23-.35-.08-.62-.08-1.41,0-1.22-.23-1.73-.82-1.73-1.14,0-1.34,2-1.34,4.44V197c0,.19-.15.19-.15.19h-7.89a.17.17,0,0,1-.16-.19s.31-8.92.31-11.63c0-6.24-2.67-4.9-2.31-6,.43-1.26,2.55-2.79,4.75-2.79a5.16,5.16,0,0,1,5.26,4.28c1.06-2.59,3-4.28,4.95-4.28A4.11,4.11,0,0,1,413,181Z" transform="translate(-155.6 -153.79)"/><path class="cls-6" d="M427.89,193.65c-1.53,0-4,.71-4.48-2.48-.07-2.94-.07-6-.07-10h4.75s.15,0,.15-.19v-3.3c0-.2-.11-.2-.11-.2H425v0h-1.62c0-3.32,0-6.05,0-6.05,0-.16-.16-.2-.16-.2l-7.54,3.1a.19.19,0,0,0-.19.2v3h-2v3.68h2v11a5.86,5.86,0,0,0,2.67,5.26,7.42,7.42,0,0,0,3.49.9c2.83,0,5.77-1.45,6.83-3.57C428.68,194.16,428.6,193.65,427.89,193.65Z" transform="translate(-155.6 -153.79)"/><path class="cls-7" d="M241.71,210.61V203.2h1.21v6h0l3.33-6h1.56v7.41h-1.22v-6h0l-3.32,6Z" transform="translate(-155.6 -153.79)"/><path class="cls-7" d="M249.71,210.61V203.2h1.22v3h3.69v-3h1.22v7.41h-1.22v-3.39h-3.69v3.39Z" transform="translate(-155.6 -153.79)"/><path class="cls-7" d="M260.8,204.27v6.34h-1.22v-6.34h-2.65V203.2h6.52v1.07Z" transform="translate(-155.6 -153.79)"/><path class="cls-7" d="M270.73,208.26a3,3,0,0,1-3.17,2.52c-2.36,0-3.48-1.65-3.55-3.9a3.56,3.56,0,0,1,3.48-3.85c2.62,0,3.42,2.45,3.35,4.24H265.3a2.18,2.18,0,0,0,2.31,2.43,1.75,1.75,0,0,0,1.91-1.44Zm-1.18-2.07a2.12,2.12,0,0,0-2.13-2.09,2.1,2.1,0,0,0-2.12,2.09Z" transform="translate(-155.6 -153.79)"/><path class="cls-7" d="M272.23,203.2h1.21v1h0a2.49,2.49,0,0,1,2.37-1.17c2.27,0,3.41,1.8,3.41,3.89s-1.12,3.86-3.39,3.86a2.85,2.85,0,0,1-2.39-1.16h0v3.82h-1.21Zm3.43.9c-1.64,0-2.26,1.42-2.26,2.79s.66,2.81,2.33,2.81,2.23-1.41,2.23-2.86S277.24,204.1,275.66,204.1Z" transform="translate(-155.6 -153.79)"/><path class="cls-7" d="M280.73,210.61V203.2H282v3h3.7v-3h1.22v7.41h-1.22v-3.39H282v3.39Z" transform="translate(-155.6 -153.79)"/><path class="cls-7" d="M295.05,208.26a3,3,0,0,1-3.16,2.52c-2.37,0-3.49-1.65-3.56-3.9a3.56,3.56,0,0,1,3.48-3.85c2.63,0,3.43,2.45,3.36,4.24h-5.55a2.18,2.18,0,0,0,2.31,2.43,1.76,1.76,0,0,0,1.92-1.44Zm-1.17-2.07a2.14,2.14,0,0,0-2.14-2.09,2.1,2.1,0,0,0-2.12,2.09Z" transform="translate(-155.6 -153.79)"/><path class="cls-7" d="M299.51,204.27v6.34h-1.22v-6.34h-2.65V203.2h6.52v1.07Z" transform="translate(-155.6 -153.79)"/><path class="cls-7" d="M302.18,206.05h4.14v1.15h-4.14Z" transform="translate(-155.6 -153.79)"/><path class="cls-7" d="M308.07,203.2h1.22v1h0a2.48,2.48,0,0,1,2.36-1.17c2.28,0,3.41,1.8,3.41,3.89s-1.12,3.86-3.38,3.86a2.84,2.84,0,0,1-2.39-1.16h0v3.82h-1.22Zm3.44.9c-1.65,0-2.27,1.42-2.27,2.79s.66,2.81,2.34,2.81,2.22-1.41,2.22-2.86S313.08,204.1,311.51,204.1Z" transform="translate(-155.6 -153.79)"/><path class="cls-7" d="M320.07,210.61h-3.49V203.2h1.21V206h2.3a2.18,2.18,0,0,1,2.4,2.27A2.25,2.25,0,0,1,320.07,210.61Zm-2.28-3.54v2.49h1.95c1,0,1.49-.4,1.49-1.25s-.51-1.24-1.47-1.24Zm5.88,3.54V203.2h1.22v7.41Z" transform="translate(-155.6 -153.79)"/><path class="cls-7" d="M326.78,210.61V203.2H328v3h3.7v-3h1.22v7.41h-1.22v-3.39H328v3.39Z" transform="translate(-155.6 -153.79)"/><path class="cls-7" d="M338,203c2.35,0,3.6,1.7,3.6,3.88s-1.25,3.87-3.6,3.87-3.59-1.71-3.59-3.87S335.64,203,338,203Zm0,6.67c1.28,0,2.31-1,2.31-2.79s-1-2.81-2.31-2.81-2.3,1-2.3,2.81S336.72,209.7,338,209.7Z" transform="translate(-155.6 -153.79)"/><path class="cls-7" d="M343.08,203.2h1.22v3.42l3.38-3.42h1.63l-3,2.85,3.21,4.56H348l-2.55-3.69L344.3,208v2.61h-1.22Z" transform="translate(-155.6 -153.79)"/><path class="cls-7" d="M354.56,210.61V203.2h6.14v7.41h-1.22v-6.34h-3.7v6.34Z" transform="translate(-155.6 -153.79)"/><path class="cls-7" d="M362.59,203.2h1.22v1h0A2.48,2.48,0,0,1,366.2,203c2.28,0,3.41,1.8,3.41,3.89s-1.12,3.86-3.38,3.86a2.85,2.85,0,0,1-2.39-1.16h0v3.82h-1.22Zm3.44.9c-1.65,0-2.26,1.42-2.26,2.79s.66,2.81,2.33,2.81,2.22-1.41,2.22-2.86S367.61,204.1,366,204.1Z" transform="translate(-155.6 -153.79)"/><path class="cls-7" d="M374.33,203c2.35,0,3.59,1.7,3.59,3.88s-1.24,3.87-3.59,3.87-3.6-1.71-3.6-3.87S372,203,374.33,203Zm0,6.67c1.27,0,2.3-1,2.3-2.79s-1-2.81-2.3-2.81-2.31,1-2.31,2.81S373.05,209.7,374.33,209.7Z" transform="translate(-155.6 -153.79)"/><path class="cls-7" d="M385.25,213v-2.35h-5.53V213H378.5v-3.43h.8a10.65,10.65,0,0,0,.94-4.54V203.2h5.27v6.33h1V213Zm-1-8.69h-2.85V205a10.78,10.78,0,0,1-.87,4.5h3.72Z" transform="translate(-155.6 -153.79)"/><path class="cls-7" d="M390.58,211.59c-.58,1.44-1.06,2-2.15,2a2.44,2.44,0,0,1-.85-.13v-1.12a2.31,2.31,0,0,0,.72.18,1,1,0,0,0,1-.68l.5-1.26-2.93-7.36h1.37l2.17,6.06h0l2.08-6.06h1.29Z" transform="translate(-155.6 -153.79)"/><path class="cls-7" d="M394.93,203.2h1.22v3.42l3.38-3.42h1.63l-3,2.85,3.21,4.56h-1.55l-2.55-3.69L396.15,208v2.61h-1.22Z" transform="translate(-155.6 -153.79)"/><path class="cls-7" d="M405.74,204.27v6.34h-1.22v-6.34h-2.65V203.2h6.52v1.07Z" transform="translate(-155.6 -153.79)"/><path class="cls-7" d="M412.56,203c2.35,0,3.59,1.7,3.59,3.88s-1.24,3.87-3.59,3.87-3.6-1.71-3.6-3.87S410.21,203,412.56,203Zm0,6.67c1.27,0,2.3-1,2.3-2.79s-1-2.81-2.3-2.81-2.31,1-2.31,2.81S411.28,209.7,412.56,209.7Z" transform="translate(-155.6 -153.79)"/><path class="cls-7" d="M417.64,203.2h3.42c1.67,0,2.53.56,2.53,1.8a1.66,1.66,0,0,1-1.08,1.61h0a1.73,1.73,0,0,1,1.41,1.81,2.14,2.14,0,0,1-2.25,2.18h-4Zm3.4,3c.93,0,1.31-.34,1.31-1s-.38-1-1.36-1h-2.16v1.95Zm-2.21,3.37h2.61a1.11,1.11,0,0,0,1.24-1.16c0-.69-.45-1.18-1.46-1.18h-2.39Z" transform="translate(-155.6 -153.79)"/></svg>