<svg width="1915" height="710" viewBox="0 0 1915 710" fill="none" xmlns="http://www.w3.org/2000/svg">
<g clip-path="url(#clip0)">
<path d="M1813.18 264.946C1800.14 437.612 1901.46 545.603 1970.67 671.48L1970.67 547.207L2142.76 224.621L1970.67 68.4804C1969.91 80.242 1823.62 126.812 1813.18 264.946Z" fill="url(#paint0_linear)"/>
<g opacity="0.58">
<g opacity="0.58">
<path opacity="0.58" d="M96.8978 181L443.74 528" stroke="#F3F6FB" stroke-width="3" stroke-miterlimit="10"/>
<path opacity="0.58" d="M76.8936 181L423.736 528" stroke="#F3F6FB" stroke-width="3" stroke-miterlimit="10"/>
<path opacity="0.58" d="M56.7322 181L403.732 528" stroke="#F3F6FB" stroke-width="3" stroke-miterlimit="10"/>
<path opacity="0.58" d="M36.7278 181L383.728 528" stroke="#F3F6FB" stroke-width="3" stroke-miterlimit="10"/>
<path opacity="0.58" d="M16.7236 181L363.724 528" stroke="#F3F6FB" stroke-width="3" stroke-miterlimit="10"/>
<path opacity="0.58" d="M-3.28021 181L343.72 528" stroke="#F3F6FB" stroke-width="3" stroke-miterlimit="10"/>
<path opacity="0.58" d="M-23.2844 181L323.558 528" stroke="#F3F6FB" stroke-width="3" stroke-miterlimit="10"/>
<path opacity="0.58" d="M-43.2885 181L303.554 528" stroke="#F3F6FB" stroke-width="3" stroke-miterlimit="10"/>
<path opacity="0.58" d="M-63.4499 181L283.55 528" stroke="#F3F6FB" stroke-width="3" stroke-miterlimit="10"/>
<path opacity="0.58" d="M-83.4538 181L263.546 528" stroke="#F3F6FB" stroke-width="3" stroke-miterlimit="10"/>
<path opacity="0.58" d="M-103.458 181L243.542 528" stroke="#F3F6FB" stroke-width="3" stroke-miterlimit="10"/>
<path opacity="0.58" d="M-123.462 181L223.538 528" stroke="#F3F6FB" stroke-width="3" stroke-miterlimit="10"/>
<path opacity="0.58" d="M-143.466 181L203.376 528" stroke="#F3F6FB" stroke-width="3" stroke-miterlimit="10"/>
<path opacity="0.58" d="M-163.47 181L183.372 528" stroke="#F3F6FB" stroke-width="3" stroke-miterlimit="10"/>
<path opacity="0.58" d="M-183.632 181L163.368 528" stroke="#F3F6FB" stroke-width="3" stroke-miterlimit="10"/>
<path opacity="0.58" d="M-203.636 181L143.364 528" stroke="#F3F6FB" stroke-width="3" stroke-miterlimit="10"/>
<path opacity="0.58" d="M-223.64 181L123.36 528" stroke="#F3F6FB" stroke-width="3" stroke-miterlimit="10"/>
<path opacity="0.58" d="M-243.644 181L103.355 528" stroke="#F3F6FB" stroke-width="3" stroke-miterlimit="10"/>
<path opacity="0.58" d="M-263.648 181L83.1943 528" stroke="#F3F6FB" stroke-width="3" stroke-miterlimit="10"/>
<path opacity="0.58" d="M-283.653 181L63.1899 528" stroke="#F3F6FB" stroke-width="3" stroke-miterlimit="10"/>
<path opacity="0.58" d="M-303.814 181L43.1858 528" stroke="#F3F6FB" stroke-width="3" stroke-miterlimit="10"/>
<path opacity="0.58" d="M-323.818 181L23.1819 528" stroke="#F3F6FB" stroke-width="3" stroke-miterlimit="10"/>
<path opacity="0.58" d="M-343.822 181L3.17773 528" stroke="#F3F6FB" stroke-width="3" stroke-miterlimit="10"/>
</g>
</g>
</g>
<defs>
<linearGradient id="paint0_linear" x1="1708.5" y1="512" x2="2056.42" y2="593.728" gradientUnits="userSpaceOnUse">
<stop offset="0.111618" stop-color="#182DF4"/>
<stop offset="0.825586" stop-color="#F11052"/>
</linearGradient>
<clipPath id="clip0">
<rect width="1915" height="710" fill="white"/>
</clipPath>
</defs>
</svg>
