<svg xmlns="http://www.w3.org/2000/svg" viewBox="0 0 880.02 523.75">
    <title>1 floor</title>

    <g class="base">
        <path class="base_shadow" d="M1439.45,502.11c-.45-17.51-23.05-40-83.49-54.07C1280.5,425.5,1255.34,417,1255.34,417L1221.5,441.5,891.17,323,652.88,404.4v8.1l14.59,7.09-18,6.91L628,415.15l-38.13,12.27.13,7.13,3.48,2.14-26.4,8.59v7.1l2.47,2-6.58,2v8.1L742.19,571.17l18.43-11.44-12.46,49v8.1l56.8-.63L781.5,716.5h0l0,.08h0l0,.08h0l0,.08h0l0,.08h0l0,.08h0l0,.08h0l0,.08h0l0,.08h0l0,.08h0l0,.08h0l0,.08h0l0,.08h0l0,.08h0l0,.08h0l0,.08h0l0,.08h0l0,.08h0l0,.08h0l0,.08h0l0,.08h0l0,.08h0l0,.08h0l0,.08h0l0,.08h0l0,.08h0l0,.08h0l0,.08h0l0,.08h0l0,.08h0l0,.08h0l0,.08h0l0,.08h0l0,.08h0l0,.08h0l0,.08h0l0,.08h0l0,.08h0l0,.08h0l0,.08h0l0,.08h0l0,.08h0l0,.08h0l0,.08h0l0,.08h0l0,.08h0l0,.08h0l0,.08h0l0,.08h0l0,.08h0l0,.08h0l0,.08h0l0,.08h0l0,.08h0l0,.08h0l0,.08h0l0,.08h0l0,.08h0l0,.08h0l0,.08h0l0,.08h0l0,.08h0l0,.08h0l0,.08h0l0,.08h0l0,.08h0l0,.08h0l0,.08h0l0,.08h0l0,.08h0l0,.08h0l0,.08h0l0,.08h0l0,.08h0l0,.08h0l0,.08h0l0,.08h0l0,.08h0l0,.08h0l0,.08h0l0,.08h0l0,.08h0l0,.08h0l0,.08h0l0,.08h0l0,.08h0l0,.08h0l0,.08h0l0,.08h0l0,.08h0l0,.08s95.34,69.32,190,77,179-47,179-47l6-47,23,1,7-33,197-158s36,15.92,36.41,15.78c12.22-4,19.86-12.76,19.54-23.25,0,0,0-.06,0-.09s0-.06,0-.09,0-.06,0-.09,0-.06,0-.09,0-.06,0-.09,0-.06,0-.09,0-.06,0-.09,0-.06,0-.09,0-.06,0-.09,0-.06,0-.09,0-.06,0-.09,0-.06,0-.09,0-.06,0-.09,0-.06,0-.09,0-.06,0-.09,0-.06,0-.09,0-.06,0-.09,0-.06,0-.09,0-.06,0-.09,0-.06,0-.09,0-.06,0-.09,0-.06,0-.09,0-.06,0-.09,0-.06,0-.09,0-.06,0-.09,0-.06,0-.09,0-.06,0-.09,0-.06,0-.09,0-.06,0-.09,0-.06,0-.09,0-.06,0-.09,0-.06,0-.09,0-.06,0-.09,0-.06,0-.09,0-.06,0-.09,0-.06,0-.09,0-.06,0-.09,0-.06,0-.09,0-.06,0-.09,0-.06,0-.09,0-.06,0-.09,0-.06,0-.09,0-.06,0-.09,0-.06,0-.09,0-.06,0-.09,0-.06,0-.09,0-.06,0-.09,0-.06,0-.09,0-.06,0-.09,0-.06,0-.09,0-.06,0-.09,0-.06,0-.09,0-.06,0-.09,0-.06,0-.09,0-.06,0-.09,0-.06,0-.09,0-.06,0-.09,0-.06,0-.09,0-.06,0-.09,0-.06,0-.09,0-.06,0-.09,0-.06,0-.09,0-.06,0-.09,0-.06,0-.09,0-.06,0-.09,0-.06,0-.09,0-.06,0-.09,0-.06,0-.09,0-.06,0-.09,0-.06,0-.09,0-.06,0-.09,0-.06,0-.09,0-.06,0-.09,0-.06,0-.09,0-.06,0-.09,0-.06,0-.09,0-.06,0-.09,0-.06,0-.09,0-.06,0-.09,0-.06,0-.09,0-.06,0-.09,0-.06,0-.09,0-.06,0-.09,0-.06,0-.09,0-.06,0-.09,0-.06,0-.09,0-.06,0-.09,0-.06,0-.09S1439.45,502.14,1439.45,502.11Z" transform="translate(-560.13 -322.27)"/>
        <path class="base1" d="M1221.5,441.5,891.17,323,654.5,404.5l21.74,11.71L649.5,426.5,628,415.15,591.5,427.5l11,6-34,12,8,6-12,5L742.19,563.08l-.69.42,21.41-13.29L749,608.09h57.88L781.5,716.5s95.34,69.32,190,77,179-47,179-47l6-47,23,1,7-33,197-158s36,15.92,36.41,15.78c32.59-10.78,32.59-54.78-64-77.24C1280.5,425.5,1255.34,417,1255.34,417L1221.5,441.5" transform="translate(-560.13 -322.27)"/>
    </g>

    <g class="shop">
        <polygon class="shop1" data-elem="floor1_area1" points="430.87 349.45 406.4 369.51 428.75 378.65 454.29 357.52 430.87 349.45"/>
        <path class="shop1" data-elem="floor1_area2" d="M911.5,702.5l26.56-15.64L939.67,585l-11.25-29.47a258.63,258.63,0,0,1-50.11,4.29c-8.31-4.56-18.49-11.79-18.49-11.79l-20.63,9.38-12.86-6.7L766,582.64l-6.16-2.51-6.43,24.74h59.22L793.5,686.5Z" transform="translate(-560.13 -322.27)"/>
        <polygon class="shop1" data-elem="floor1_area3" points="301.29 224.19 320.05 234.38 355.42 232.23 363.72 229.28 334.96 207.31 301.29 224.19"/>
        <polygon class="shop1" data-elem="floor1_area4" points="298.6,190.6 281.8,200.9 302.6,211.2 320.4,199.8"/>
        <polygon class="shop1" data-elem="floor1_area5" points="179.78 236.39 145.49 215.89 253.6 167.39 285.62 184.2 179.78 236.39"/>
        <polygon class="shop1" data-elem="floor1_area6" points="103.3 190.52 149.1 170.74 161.7 165.11 190.23 160.56 225.6 153.59 250.79 165.78 144.41 214.82 103.3 190.52"/>
        <polygon class="shop1" data-elem="floor1_area7" points="51.04 157.21 143.88 122.11 179.92 122.11 214.35 140.6 221.98 151.18 202.82 155.87 161.83 162.97 113.33 182.8 100.61 189.09 51.04 157.21"/>
        <polygon class="shop1" data-elem="floor1_area8" points="67.92 94.78 36.57 106.3 47.55 111.37 12.99 123.72 21.83 129.88 11.37 134.23 48.09 155.87 124.99 127.47 67.92 94.78"/>
        <path class="shop1" data-elem="floor1_area9" d="M815.07,352.12l80,33.58L874,394.81,870.63,392l-82.7,33.22s-31.44,14.11-79.67,5.89c-13-7.5-47.51-25.37-47.51-25.37Z" transform="translate(-560.13 -322.27)"/>
        <path class="shop1" data-elem="floor1_area10" d="M847,467.69l102.62-47-17.28-7.23s-13.8-8.57-34-5.36-55.46,18.62-55.46,18.62l-22.64,9.91s-10.58,7-4,15.67C825.92,457.64,847,467.69,847,467.69Z" transform="translate(-560.13 -322.27)"/>
        <polygon class="shop1" data-elem="floor1_area11" points="289.37 147.43 393.06 99.87 440.22 120.23 409.54 136.58 387.7 137.25 328.36 165.65 289.37 147.43"/>
        <polygon class="shop1" data-elem="floor1_area12" points="331.75 167.39 373.5 147.38 388.73 139.7 409.63 139.7 423.03 174.63 387.48 178.47 370.69 188.29 331.75 167.39"/>
        <path class="shop1" data-elem="floor1_area13" d="M980,478.75l-8.16-18.3,33-16L1027.28,455s6.61,4,10.54,15.77Z" transform="translate(-560.13 -322.27)"/>
        <path class="shop1" data-elem="floor1_area14" d="M1038.82,472.8c9.65,19.65,12.4,26.33,12.4,26.33l-13.4,3.93s-6.92.4-11.88-3.89l-7-3.89-31.75,1.61L981,480.75Z" transform="translate(-560.13 -322.27)"/>
        <path class="shop1" data-elem="floor1_area15" d="M975.84,543.11l91.23-12.59L1052.47,502l-12.86,2.95s-8.17,3.08-14.07-2.28c-5-3.35-9.51-5.76-9.51-5.76l-24,2.41-43.27,3.62-15.14,9.24S970.48,533.6,975.84,543.11Z" transform="translate(-560.13 -322.27)"/>
        <path class="shop1" data-elem="floor1_area16" d="M977.8,544.68,1068,532.89s4.82,5.14,7,18c1.61,12.73-5.49,29.07-9.11,34.43s-21.57,24.25-21.57,24.25L992.72,583S1000.4,567.41,977.8,544.68Z" transform="translate(-560.13 -322.27)"/>
        <path class="shop1" data-elem="floor1_area17" d="M992.72,585.31l49.3,26.26s-23.87,15-35.92,5.36S993.79,592,992.72,585.31Z" transform="translate(-560.13 -322.27)"/>
        <polygon class="shop1" data-elem="floor1_area18" points="258.33 28.6 331.04 2.7 440.22 43.42 383.91 68.79 347.83 54.86 334.25 59.5 258.33 28.6"/>
        <polygon class="shop1" data-elem="floor1_area19" points="443.43 44.67 511.76 69.86 495.15 78.17 486.31 74.15 444.11 93.31 386.77 70.61 443.43 44.67"/>
        <path class="shop1" data-elem="floor1_area20" d="M1007.32,416.65l38.72-18,60.82,22.51-25.32,16.32s-8,6.72-25.86,0C1043.22,431.78,1007.32,416.65,1007.32,416.65Z" transform="translate(-560.13 -322.27)"/>
        <polygon class="shop1" data-elem="floor1_area21" points="544.72 122.91 598.98 145.55 554.1 173.02 532.53 164.18 530.38 156 514.04 130.01 533.87 128.94 544.72 122.91"/>
        <path class="shop1" data-elem="floor1_area22" d="M1098.82,492.07l69.93,29.21-28.13,18.49S1117.44,531.32,1098.82,492.07Z" transform="translate(-560.13 -322.27)"/>
        <path class="shop1" data-elem="floor1_area23" d="M1294.5,431.5l-17,15-40-14-52,39,45,18-92.56,55.62v6.16L1257.5,605.5l127-100s25,11,38,16c29-16,8-41-22.42-53.63Z" transform="translate(-560.13 -322.27)"/>
        <polygon class="shop1" data-elem="floor1_area24" points="651.4,267.5 616.8,296.9 628.8,303.6 664.4,273.2"/>
        <path class="shop1" data-elem="floor1_area25" d="M1143.5,732.5l2-38-25-6,11-81-29.23,13.11s-15.41,6.83-13.93,19.83c3.35,21-13.55,82.58-13.55,82.58Z" transform="translate(-560.13 -322.27)"/>
        <polygon class="shop1" data-elem="floor1_area26" points="623.7,314.9 609.3,326.9 627.3,337.2 642.9,324.1"/>
        <ellipse class="shop1" data-elem="floor1_area27" cx="537.9" cy="251.4" rx="20.2" ry="11.8"/>
        <polygon class="shop1" data-elem="floor1_area28" points="670.3,277.2 655.8,289.3 673.9,299.5 689.4,286.4"/>
    </g>

    <g class="shop_hover">
        <g id="floor1_area1" class="shop_hover_group" data-name="Упаковка подарунків">
            <polygon class="shop_hover_shadow" points="454.26 357.55 454.29 357.52 430.87 349.45 406.4 369.51 406.42 369.52 406.4 369.54 406.42 369.55 406.4 369.57 406.42 369.58 406.4 369.6 406.42 369.61 406.4 369.63 406.42 369.64 406.4 369.66 406.42 369.67 406.4 369.69 406.42 369.7 406.4 369.72 406.42 369.73 406.4 369.75 406.42 369.76 406.4 369.78 406.42 369.79 406.4 369.81 406.42 369.82 406.4 369.84 406.42 369.85 406.4 369.87 406.42 369.88 406.4 369.9 406.42 369.91 406.4 369.93 406.42 369.94 406.4 369.96 406.42 369.97 406.4 369.99 406.42 370 406.4 370.02 406.42 370.03 406.4 370.05 406.42 370.06 406.4 370.08 406.42 370.09 406.4 370.11 406.42 370.12 406.4 370.14 406.42 370.15 406.4 370.17 406.42 370.18 406.4 370.2 406.42 370.21 406.4 370.23 406.42 370.24 406.4 370.26 406.42 370.27 406.4 370.29 406.42 370.3 406.4 370.32 406.42 370.33 406.4 370.35 406.42 370.36 406.4 370.38 406.42 370.39 406.4 370.41 406.42 370.42 406.4 370.44 406.42 370.45 406.4 370.47 406.42 370.48 406.4 370.5 406.42 370.51 406.4 370.53 406.42 370.54 406.4 370.56 406.42 370.57 406.4 370.59 406.42 370.6 406.4 370.62 406.42 370.63 406.4 370.65 406.42 370.66 406.4 370.68 406.42 370.69 406.4 370.71 406.42 370.72 406.4 370.74 406.42 370.75 406.4 370.77 406.42 370.78 406.4 370.8 406.42 370.81 406.4 370.83 406.42 370.84 406.4 370.86 406.42 370.87 406.4 370.89 406.42 370.9 406.4 370.92 406.42 370.93 406.4 370.95 406.42 370.96 406.4 370.98 406.42 370.99 406.4 371.01 406.42 371.02 406.4 371.04 406.42 371.05 406.4 371.07 406.42 371.08 406.4 371.1 406.42 371.11 406.4 371.13 406.42 371.14 406.4 371.16 406.42 371.17 406.4 371.19 406.42 371.2 406.4 371.22 406.42 371.23 406.4 371.25 406.42 371.26 406.4 371.28 406.42 371.29 406.4 371.31 406.42 371.32 406.4 371.34 406.42 371.35 406.4 371.37 406.42 371.38 406.4 371.4 406.42 371.41 406.4 371.43 406.42 371.44 406.4 371.46 406.42 371.47 406.4 371.49 406.42 371.5 406.4 371.52 406.42 371.53 406.4 371.55 406.42 371.56 406.4 371.58 406.42 371.59 406.4 371.61 428.75 380.75 454.29 359.63 454.26 359.62 454.29 359.6 454.26 359.59 454.29 359.56 454.26 359.56 454.29 359.54 454.26 359.53 454.29 359.5 454.26 359.5 454.29 359.48 454.26 359.47 454.29 359.44 454.26 359.44 454.29 359.42 454.26 359.41 454.29 359.38 454.26 359.38 454.29 359.36 454.26 359.35 454.29 359.32 454.26 359.32 454.29 359.3 454.26 359.29 454.29 359.26 454.26 359.26 454.29 359.24 454.26 359.23 454.29 359.2 454.26 359.2 454.29 359.18 454.26 359.17 454.29 359.14 454.26 359.14 454.29 359.12 454.26 359.11 454.29 359.08 454.26 359.08 454.29 359.06 454.26 359.05 454.29 359.02 454.26 359.02 454.29 359 454.26 358.99 454.29 358.96 454.26 358.96 454.29 358.94 454.26 358.93 454.29 358.9 454.26 358.9 454.29 358.88 454.26 358.87 454.29 358.85 454.26 358.84 454.29 358.81 454.26 358.81 454.29 358.79 454.26 358.78 454.29 358.75 454.26 358.75 454.29 358.73 454.26 358.72 454.29 358.69 454.26 358.69 454.29 358.67 454.26 358.66 454.29 358.63 454.26 358.63 454.29 358.61 454.26 358.6 454.29 358.57 454.26 358.57 454.29 358.55 454.26 358.54 454.29 358.51 454.26 358.51 454.29 358.49 454.26 358.48 454.29 358.45 454.26 358.45 454.29 358.43 454.26 358.42 454.29 358.39 454.26 358.39 454.29 358.37 454.26 358.36 454.29 358.33 454.26 358.33 454.29 358.31 454.26 358.3 454.29 358.27 454.26 358.27 454.29 358.25 454.26 358.24 454.29 358.21 454.26 358.21 454.29 358.19 454.26 358.18 454.29 358.15 454.26 358.15 454.29 358.13 454.26 358.12 454.29 358.1 454.26 358.09 454.29 358.06 454.26 358.06 454.29 358.04 454.26 358.03 454.29 358 454.26 358 454.29 357.98 454.26 357.97 454.29 357.94 454.26 357.94 454.29 357.92 454.26 357.91 454.29 357.88 454.26 357.88 454.29 357.86 454.26 357.85 454.29 357.82 454.26 357.82 454.29 357.8 454.26 357.79 454.29 357.76 454.26 357.76 454.29 357.74 454.26 357.73 454.29 357.7 454.26 357.7 454.29 357.68 454.26 357.67 454.29 357.64 454.26 357.64 454.29 357.62 454.26 357.61 454.29 357.58 454.26 357.58 454.29 357.56 454.26 357.55"/>
            <polyline class="shop_hover_type3" points="430.87 349.45 406.4 369.51 428.75 378.65 454.29 357.52"/>
        </g>

        <g id="floor1_area2" class="shop_hover_group" data-name="Brocard">
            <path class="shop_hover_shadow" d="M939.67,585l-11.25-29.47a258.63,258.63,0,0,1-50.11,4.29c-8.31-4.55-18.49-11.79-18.49-11.79l-20.63,9.38-12.86-6.7L766,582.64l-6.16-2.51-6.43,24.74V607h58.72L793.5,686.5v2.1l118,16L938.06,689l1.61-101.82h0Z" transform="translate(-560.13 -322.27)"/>
            <path class="shop_hover_type1" d="M911.5,702.5l26.56-15.64L939.67,585l-11.25-29.47a258.63,258.63,0,0,1-50.11,4.29c-8.31-4.56-18.49-11.79-18.49-11.79l-20.63,9.38-12.86-6.7L766,582.64l-6.16-2.51-6.43,24.74h59.22L793.5,686.5Z" transform="translate(-560.13 -322.27)"/>
        </g>

        <g id="floor1_area3" class="shop_hover_group" data-name="Янтар Полісся">
            <polygon class="shop_hover_shadow" points="363.7 229.29 363.72 229.28 334.96 207.31 301.29 224.19 301.32 224.21 301.29 224.22 301.32 224.24 301.29 224.25 301.32 224.27 301.29 224.28 301.32 224.3 301.29 224.31 301.32 224.33 301.29 224.34 301.32 224.36 301.29 224.38 301.32 224.39 301.29 224.41 301.32 224.42 301.29 224.44 301.32 224.45 301.29 224.47 301.32 224.48 301.29 224.5 301.32 224.51 301.29 224.53 301.32 224.54 301.29 224.56 301.32 224.57 301.29 224.59 301.32 224.6 301.29 224.62 301.32 224.63 301.29 224.65 301.32 224.66 301.29 224.68 301.32 224.69 301.29 224.71 301.32 224.72 301.29 224.74 301.32 224.75 301.29 224.76 301.32 224.78 301.29 224.79 301.32 224.81 301.29 224.82 301.32 224.84 301.29 224.85 301.32 224.87 301.29 224.88 301.32 224.9 301.29 224.91 301.32 224.93 301.29 224.94 301.32 224.96 301.29 224.97 301.32 224.99 301.29 225 301.32 225.02 301.29 225.03 301.32 225.05 301.29 225.06 301.32 225.08 301.29 225.09 301.32 225.11 301.29 225.13 301.32 225.14 301.29 225.16 301.32 225.17 301.29 225.19 301.32 225.2 301.29 225.22 301.32 225.23 301.29 225.25 301.32 225.26 301.29 225.28 301.32 225.29 301.29 225.31 301.32 225.32 301.29 225.34 301.32 225.35 301.29 225.37 301.32 225.38 301.29 225.4 301.32 225.41 301.29 225.43 301.32 225.44 301.29 225.46 301.32 225.47 301.29 225.49 301.32 225.5 301.29 225.51 301.32 225.53 301.29 225.54 301.32 225.56 301.29 225.57 301.32 225.59 301.29 225.6 301.32 225.62 301.29 225.63 301.32 225.65 301.29 225.66 301.32 225.68 301.29 225.69 301.32 225.71 301.29 225.72 301.32 225.74 301.29 225.75 301.32 225.77 301.29 225.78 301.32 225.8 301.29 225.81 301.32 225.83 301.29 225.84 301.32 225.86 301.29 225.88 301.32 225.89 301.29 225.91 301.32 225.92 301.29 225.94 301.32 225.95 301.29 225.97 301.32 225.98 301.29 226 301.32 226.01 301.29 226.03 301.32 226.04 301.29 226.06 301.32 226.07 301.29 226.09 301.32 226.1 301.29 226.12 301.32 226.13 301.29 226.15 301.32 226.16 301.29 226.18 301.32 226.19 301.29 226.21 301.32 226.22 301.29 226.24 301.32 226.25 301.29 226.26 301.32 226.28 301.29 226.29 320.05 236.48 355.42 234.33 363.72 231.38 363.7 231.37 363.72 231.35 363.7 231.34 363.72 231.32 363.7 231.31 363.72 231.29 363.7 231.28 363.72 231.26 363.7 231.25 363.72 231.24 363.7 231.22 363.72 231.21 363.7 231.19 363.72 231.18 363.7 231.16 363.72 231.15 363.7 231.13 363.72 231.12 363.7 231.09 363.72 231.09 363.7 231.06 363.72 231.06 363.7 231.03 363.72 231.03 363.7 231 363.72 231 363.7 230.97 363.72 230.97 363.7 230.94 363.72 230.94 363.7 230.91 363.72 230.91 363.7 230.88 363.72 230.88 363.7 230.85 363.72 230.84 363.7 230.82 363.72 230.81 363.7 230.79 363.72 230.78 363.7 230.76 363.72 230.75 363.7 230.74 363.72 230.72 363.7 230.71 363.72 230.69 363.7 230.68 363.72 230.66 363.7 230.65 363.72 230.63 363.7 230.62 363.72 230.6 363.7 230.59 363.72 230.57 363.7 230.56 363.72 230.54 363.7 230.53 363.72 230.51 363.7 230.5 363.72 230.49 363.7 230.47 363.72 230.46 363.7 230.44 363.72 230.43 363.7 230.41 363.72 230.4 363.7 230.38 363.72 230.37 363.7 230.34 363.72 230.34 363.7 230.31 363.72 230.31 363.7 230.28 363.72 230.28 363.7 230.25 363.72 230.25 363.7 230.22 363.72 230.22 363.7 230.19 363.72 230.19 363.7 230.16 363.72 230.16 363.7 230.13 363.72 230.13 363.7 230.1 363.72 230.09 363.7 230.07 363.72 230.06 363.7 230.04 363.72 230.03 363.7 230.01 363.72 230 363.7 229.99 363.72 229.97 363.7 229.96 363.72 229.94 363.7 229.93 363.72 229.91 363.7 229.9 363.72 229.88 363.7 229.87 363.72 229.85 363.7 229.84 363.72 229.82 363.7 229.81 363.72 229.79 363.7 229.78 363.72 229.76 363.7 229.75 363.72 229.74 363.7 229.72 363.72 229.71 363.7 229.69 363.72 229.68 363.7 229.66 363.72 229.65 363.7 229.63 363.72 229.62 363.7 229.59 363.72 229.59 363.7 229.56 363.72 229.56 363.7 229.53 363.72 229.53 363.7 229.5 363.72 229.5 363.7 229.47 363.72 229.47 363.7 229.44 363.72 229.44 363.7 229.41 363.72 229.41 363.7 229.38 363.72 229.38 363.7 229.35 363.72 229.34 363.7 229.32 363.72 229.31 363.7 229.29"/>
            <polygon class="shop_hover_type1" points="301.29 224.19 320.05 234.38 355.42 232.23 363.72 229.28 334.96 207.31 301.29 224.19"/>
        </g>

        <g id="floor1_area4" class="shop_hover_group" data-name="DeVice">
            <polygon class="shop_hover_shadow" points="320.3,199.8 320.4,199.8 298.6,190.6 281.8,200.9 281.9,200.9 281.8,201 281.9,201 281.8,201 281.9,201 281.8,201 281.9,201 281.8,201.1 281.9,201.1 281.8,201.1 281.9,201.1 281.8,201.1 281.9,201.1 281.8,201.1 281.9,201.2 281.8,201.2 281.9,201.2 281.8,201.2 281.9,201.2 281.8,201.2 281.9,201.3 281.8,201.3 281.9,201.3 281.8,201.3 281.9,201.3 281.8,201.3 281.9,201.3 281.8,201.4 281.9,201.4 281.8,201.4 281.9,201.4 281.8,201.4 281.9,201.4 281.8,201.4 281.9,201.5 281.8,201.5 281.9,201.5 281.8,201.5 281.9,201.5 281.8,201.5 281.9,201.5 281.8,201.6 281.9,201.6 281.8,201.6 281.9,201.6 281.8,201.6 281.9,201.6 281.8,201.7 281.9,201.7 281.8,201.7 281.9,201.7 281.8,201.7 281.9,201.7 281.8,201.8 281.9,201.8 281.8,201.8 281.9,201.8 281.8,201.8 281.9,201.8 281.8,201.8 281.9,201.9 281.8,201.9 281.9,201.9 281.8,201.9 281.9,201.9 281.8,201.9 281.9,201.9 281.8,202 281.9,202 281.8,202 281.9,202 281.8,202 281.9,202 281.8,202 281.9,202.1 281.8,202.1 281.9,202.1 281.8,202.1 281.9,202.1 281.8,202.1 281.9,202.1 281.8,202.2 281.9,202.2 281.8,202.2 281.9,202.2 281.8,202.2 281.9,202.2 281.8,202.3 281.9,202.3 281.8,202.3 281.9,202.3 281.8,202.3 281.9,202.3 281.8,202.4 281.9,202.4 281.8,202.4 281.9,202.4 281.8,202.4 281.9,202.4 281.8,202.4 281.9,202.4 281.8,202.5 281.9,202.5 281.8,202.5 281.9,202.5 281.8,202.5 281.9,202.5 281.8,202.6 281.9,202.6 281.8,202.6 281.9,202.6 281.8,202.6 281.9,202.6 281.8,202.6 281.9,202.7 281.8,202.7 281.9,202.7 281.8,202.7 281.9,202.7 281.8,202.7 281.9,202.8 281.8,202.8 281.9,202.8 281.8,202.8 281.9,202.8 281.8,202.8 281.9,202.8 281.8,202.9 281.9,202.9 281.8,202.9 281.9,202.9 281.8,202.9 281.9,202.9 281.8,202.9 281.9,203 281.8,203 281.9,203 281.8,203 281.9,203 281.8,203 302.6,213.3 320.4,201.9 320.3,201.9 320.4,201.9 320.3,201.9 320.4,201.8 320.3,201.8 320.4,201.8 320.3,201.8 320.4,201.8 320.3,201.8 320.4,201.7 320.3,201.7 320.4,201.7 320.3,201.7 320.4,201.7 320.3,201.7 320.4,201.6 320.3,201.6 320.4,201.6 320.3,201.6 320.4,201.6 320.3,201.6 320.4,201.6 320.3,201.6 320.4,201.5 320.3,201.5 320.4,201.5 320.3,201.5 320.4,201.5 320.3,201.5 320.4,201.4 320.3,201.4 320.4,201.4 320.3,201.4 320.4,201.4 320.3,201.4 320.4,201.3 320.3,201.3 320.4,201.3 320.3,201.3 320.4,201.3 320.3,201.3 320.4,201.3 320.3,201.3 320.4,201.2 320.3,201.2 320.4,201.2 320.3,201.2 320.4,201.2 320.3,201.2 320.4,201.1 320.3,201.1 320.4,201.1 320.3,201.1 320.4,201.1 320.3,201.1 320.4,201.1 320.3,201 320.4,201 320.3,201 320.4,201 320.3,201 320.4,201 320.3,201 320.4,200.9 320.3,200.9 320.4,200.9 320.3,200.9 320.4,200.9 320.3,200.9 320.4,200.8 320.3,200.8 320.4,200.8 320.3,200.8 320.4,200.8 320.3,200.8 320.4,200.8 320.3,200.7 320.4,200.7 320.3,200.7 320.4,200.7 320.3,200.7 320.4,200.7 320.3,200.7 320.4,200.6 320.3,200.6 320.4,200.6 320.3,200.6 320.4,200.6 320.3,200.6 320.4,200.5 320.3,200.5 320.4,200.5 320.3,200.5 320.4,200.5 320.3,200.5 320.4,200.5 320.3,200.4 320.4,200.4 320.3,200.4 320.4,200.4 320.3,200.4 320.4,200.4 320.3,200.4 320.4,200.3 320.3,200.3 320.4,200.3 320.3,200.3 320.4,200.3 320.3,200.3 320.4,200.2 320.3,200.2 320.4,200.2 320.3,200.2 320.4,200.2 320.3,200.2 320.4,200.1 320.3,200.1 320.4,200.1 320.3,200.1 320.4,200.1 320.3,200.1 320.4,200.1 320.3,200.1 320.4,200 320.3,200 320.4,200 320.3,200 320.4,200 320.3,200 320.4,199.9 320.3,199.9 320.4,199.9 320.3,199.9 320.4,199.9 320.3,199.9 320.4,199.8 320.3,199.8 320.4,199.8"/>
            <polyline class="shop_hover_type1" points="298.6,190.6 281.8,200.9 302.6,211.2 320.4,199.8"/>
        </g>

        <g id="floor1_area5" class="shop_hover_group" data-name="Arber">
            <polygon class="shop_hover_shadow" points="285.59 184.22 285.62 184.2 253.6 167.39 145.49 215.89 145.51 215.91 145.49 215.92 145.51 215.94 145.49 215.95 145.51 215.97 145.49 215.98 145.51 216 145.49 216.01 145.51 216.03 145.49 216.04 145.51 216.06 145.49 216.07 145.51 216.09 145.49 216.1 145.51 216.12 145.49 216.13 145.51 216.15 145.49 216.16 145.51 216.18 145.49 216.19 145.51 216.21 145.49 216.22 145.51 216.24 145.49 216.25 145.51 216.26 145.49 216.28 145.51 216.29 145.49 216.31 145.51 216.32 145.49 216.34 145.51 216.35 145.49 216.37 145.51 216.38 145.49 216.4 145.51 216.41 145.49 216.43 145.51 216.44 145.49 216.46 145.51 216.48 145.49 216.49 145.51 216.5 145.49 216.52 145.51 216.54 145.49 216.55 145.51 216.56 145.49 216.58 145.51 216.6 145.49 216.61 145.51 216.63 145.49 216.64 145.51 216.66 145.49 216.67 145.51 216.69 145.49 216.7 145.51 216.72 145.49 216.73 145.51 216.75 145.49 216.76 145.51 216.78 145.49 216.79 145.51 216.81 145.49 216.82 145.51 216.84 145.49 216.85 145.51 216.87 145.49 216.88 145.51 216.9 145.49 216.91 145.51 216.93 145.49 216.94 145.51 216.96 145.49 216.97 145.51 216.99 145.49 217 145.51 217.01 145.49 217.03 145.51 217.04 145.49 217.06 145.51 217.07 145.49 217.09 145.51 217.1 145.49 217.12 145.51 217.13 145.49 217.15 145.51 217.16 145.49 217.18 145.51 217.19 145.49 217.21 145.51 217.23 145.49 217.24 145.51 217.25 145.49 217.27 145.51 217.29 145.49 217.3 145.51 217.31 145.49 217.33 145.51 217.35 145.49 217.36 145.51 217.38 145.49 217.39 145.51 217.41 145.49 217.42 145.51 217.44 145.49 217.45 145.51 217.47 145.49 217.48 145.51 217.5 145.49 217.51 145.51 217.53 145.49 217.54 145.51 217.56 145.49 217.57 145.51 217.59 145.49 217.6 145.51 217.62 145.49 217.63 145.51 217.65 145.49 217.66 145.51 217.68 145.49 217.69 145.51 217.71 145.49 217.72 145.51 217.74 145.49 217.75 145.51 217.76 145.49 217.78 145.51 217.79 145.49 217.81 145.51 217.82 145.49 217.84 145.51 217.85 145.49 217.87 145.51 217.88 145.49 217.9 145.51 217.91 145.49 217.93 145.51 217.94 145.49 217.96 145.51 217.98 145.49 217.99 179.78 238.49 285.62 186.3 285.59 186.29 285.62 186.27 285.59 186.26 285.62 186.24 285.59 186.23 285.62 186.21 285.59 186.2 285.62 186.18 285.59 186.17 285.62 186.15 285.59 186.14 285.62 186.12 285.59 186.11 285.62 186.09 285.59 186.08 285.62 186.06 285.59 186.05 285.62 186.03 285.59 186.02 285.62 186 285.59 185.99 285.62 185.97 285.59 185.96 285.62 185.94 285.59 185.93 285.62 185.91 285.59 185.9 285.62 185.88 285.59 185.87 285.62 185.85 285.59 185.84 285.62 185.82 285.59 185.81 285.62 185.79 285.59 185.78 285.62 185.76 285.59 185.75 285.62 185.73 285.59 185.72 285.62 185.7 285.59 185.69 285.62 185.67 285.59 185.66 285.62 185.64 285.59 185.63 285.62 185.61 285.59 185.6 285.62 185.58 285.59 185.57 285.62 185.55 285.59 185.54 285.62 185.52 285.59 185.51 285.62 185.49 285.59 185.48 285.62 185.46 285.59 185.45 285.62 185.43 285.59 185.42 285.62 185.4 285.59 185.39 285.62 185.37 285.59 185.36 285.62 185.34 285.59 185.33 285.62 185.31 285.59 185.3 285.62 185.28 285.59 185.27 285.62 185.25 285.59 185.24 285.62 185.22 285.59 185.21 285.62 185.19 285.59 185.18 285.62 185.16 285.59 185.15 285.62 185.13 285.59 185.12 285.62 185.1 285.59 185.09 285.62 185.07 285.59 185.06 285.62 185.04 285.59 185.03 285.62 185.01 285.59 185 285.62 184.98 285.59 184.97 285.62 184.95 285.59 184.94 285.62 184.92 285.59 184.91 285.62 184.89 285.59 184.88 285.62 184.86 285.59 184.85 285.62 184.83 285.59 184.82 285.62 184.8 285.59 184.79 285.62 184.77 285.59 184.76 285.62 184.74 285.59 184.73 285.62 184.71 285.59 184.7 285.62 184.68 285.59 184.67 285.62 184.65 285.59 184.64 285.62 184.62 285.59 184.61 285.62 184.59 285.59 184.58 285.62 184.56 285.59 184.55 285.62 184.53 285.59 184.52 285.62 184.5 285.59 184.49 285.62 184.47 285.59 184.46 285.62 184.44 285.59 184.43 285.62 184.41 285.59 184.4 285.62 184.38 285.59 184.37 285.62 184.35 285.59 184.34 285.62 184.32 285.59 184.31 285.62 184.29 285.59 184.28 285.62 184.26 285.59 184.25 285.62 184.23 285.59 184.22"/>
            <polygon class="shop_hover_type1" points="179.78 236.39 145.49 215.89 253.6 167.39 285.62 184.2 179.78 236.39"/>
        </g>

        <g id="floor1_area6" class="shop_hover_group" data-name="Top Secret">
            <polygon class="shop_hover_shadow" points="250.75 165.8 250.79 165.78 225.6 153.59 190.23 160.56 161.7 165.11 149.1 170.74 103.3 190.52 103.33 190.53 103.3 190.55 103.33 190.56 103.3 190.58 103.33 190.59 103.3 190.61 103.33 190.63 103.3 190.64 103.33 190.66 103.3 190.67 103.33 190.69 103.3 190.7 103.33 190.72 103.3 190.73 103.33 190.75 103.3 190.76 103.33 190.78 103.3 190.79 103.33 190.81 103.3 190.82 103.33 190.84 103.3 190.85 103.33 190.87 103.3 190.88 103.33 190.9 103.3 190.91 103.33 190.93 103.3 190.94 103.33 190.96 103.3 190.97 103.33 190.99 103.3 191 103.33 191.01 103.3 191.03 103.33 191.04 103.3 191.06 103.33 191.07 103.3 191.09 103.33 191.1 103.3 191.12 103.33 191.13 103.3 191.15 103.33 191.16 103.3 191.18 103.33 191.19 103.3 191.21 103.33 191.22 103.3 191.24 103.33 191.25 103.3 191.27 103.33 191.28 103.3 191.3 103.33 191.31 103.3 191.33 103.33 191.34 103.3 191.36 103.33 191.38 103.3 191.39 103.33 191.41 103.3 191.42 103.33 191.44 103.3 191.45 103.33 191.47 103.3 191.48 103.33 191.5 103.3 191.51 103.33 191.53 103.3 191.54 103.33 191.56 103.3 191.57 103.33 191.59 103.3 191.6 103.33 191.62 103.3 191.63 103.33 191.65 103.3 191.66 103.33 191.68 103.3 191.69 103.33 191.71 103.3 191.72 103.33 191.74 103.3 191.75 103.33 191.76 103.3 191.78 103.33 191.79 103.3 191.81 103.33 191.82 103.3 191.84 103.33 191.85 103.3 191.87 103.33 191.88 103.3 191.9 103.33 191.91 103.3 191.93 103.33 191.94 103.3 191.96 103.33 191.97 103.3 191.99 103.33 192 103.3 192.02 103.33 192.03 103.3 192.05 103.33 192.06 103.3 192.08 103.33 192.09 103.3 192.11 103.33 192.13 103.3 192.14 103.33 192.16 103.3 192.17 103.33 192.19 103.3 192.2 103.33 192.22 103.3 192.23 103.33 192.25 103.3 192.26 103.33 192.28 103.3 192.29 103.33 192.31 103.3 192.32 103.33 192.34 103.3 192.35 103.33 192.37 103.3 192.38 103.33 192.4 103.3 192.41 103.33 192.43 103.3 192.44 103.33 192.46 103.3 192.47 103.33 192.49 103.3 192.5 103.33 192.51 103.3 192.53 103.33 192.54 103.3 192.56 103.33 192.57 103.3 192.59 103.33 192.6 103.3 192.62 144.41 216.92 250.79 167.88 250.75 167.87 250.79 167.85 250.75 167.84 250.79 167.82 250.75 167.81 250.79 167.79 250.75 167.78 250.79 167.76 250.75 167.75 250.79 167.73 250.75 167.72 250.79 167.7 250.75 167.69 250.79 167.67 250.75 167.66 250.79 167.64 250.75 167.63 250.79 167.61 250.75 167.6 250.79 167.58 250.75 167.57 250.79 167.55 250.75 167.54 250.79 167.52 250.75 167.51 250.79 167.49 250.75 167.48 250.79 167.46 250.75 167.45 250.79 167.43 250.75 167.42 250.79 167.4 250.75 167.39 250.79 167.37 250.75 167.36 250.79 167.34 250.75 167.33 250.79 167.31 250.75 167.3 250.79 167.28 250.75 167.27 250.79 167.25 250.75 167.24 250.79 167.22 250.75 167.21 250.79 167.19 250.75 167.18 250.79 167.16 250.75 167.15 250.79 167.13 250.75 167.12 250.79 167.1 250.75 167.09 250.79 167.07 250.75 167.06 250.79 167.04 250.75 167.03 250.79 167.01 250.75 167 250.79 166.98 250.75 166.97 250.79 166.95 250.75 166.94 250.79 166.92 250.75 166.91 250.79 166.89 250.75 166.88 250.79 166.86 250.75 166.85 250.79 166.83 250.75 166.82 250.79 166.8 250.75 166.79 250.79 166.77 250.75 166.76 250.79 166.74 250.75 166.73 250.79 166.71 250.75 166.7 250.79 166.68 250.75 166.67 250.79 166.65 250.75 166.64 250.79 166.62 250.75 166.61 250.79 166.59 250.75 166.58 250.79 166.56 250.75 166.55 250.79 166.53 250.75 166.52 250.79 166.5 250.75 166.49 250.79 166.47 250.75 166.46 250.79 166.44 250.75 166.43 250.79 166.41 250.75 166.4 250.79 166.38 250.75 166.37 250.79 166.35 250.75 166.34 250.79 166.32 250.75 166.31 250.79 166.29 250.75 166.28 250.79 166.26 250.75 166.25 250.79 166.23 250.75 166.22 250.79 166.2 250.75 166.19 250.79 166.17 250.75 166.16 250.79 166.14 250.75 166.13 250.79 166.11 250.75 166.1 250.79 166.08 250.75 166.07 250.79 166.05 250.75 166.04 250.79 166.02 250.75 166.01 250.79 165.99 250.75 165.98 250.79 165.96 250.75 165.95 250.79 165.93 250.75 165.92 250.79 165.9 250.75 165.89 250.79 165.87 250.75 165.86 250.79 165.84 250.75 165.83 250.79 165.81 250.75 165.8"/>
            <polygon class="shop_hover_type1" points="103.3 190.52 149.1 170.74 161.7 165.11 190.23 160.56 225.6 153.59 250.79 165.78 144.41 214.82 103.3 190.52"/>
        </g>

        <g id="floor1_area7" class="shop_hover_group" data-name="Cropp Town">
            <polygon class="shop_hover_shadow" points="221.97 151.19 221.98 151.18 214.35 140.6 179.92 122.11 143.88 122.11 51.04 157.21 51.07 157.23 51.04 157.24 51.07 157.26 51.04 157.27 51.07 157.29 51.04 157.3 51.07 157.32 51.04 157.33 51.07 157.35 51.04 157.36 51.07 157.38 51.04 157.39 51.07 157.41 51.04 157.42 51.07 157.44 51.04 157.45 51.07 157.47 51.04 157.48 51.07 157.5 51.04 157.51 51.07 157.53 51.04 157.54 51.07 157.56 51.04 157.57 51.07 157.59 51.04 157.6 51.07 157.62 51.04 157.63 51.07 157.65 51.04 157.66 51.07 157.68 51.04 157.69 51.07 157.71 51.04 157.72 51.07 157.74 51.04 157.75 51.07 157.77 51.04 157.78 51.07 157.8 51.04 157.81 51.07 157.83 51.04 157.84 51.07 157.86 51.04 157.87 51.07 157.89 51.04 157.9 51.07 157.92 51.04 157.93 51.07 157.95 51.04 157.96 51.07 157.98 51.04 157.99 51.07 158.01 51.04 158.02 51.07 158.04 51.04 158.05 51.07 158.07 51.04 158.08 51.07 158.1 51.04 158.11 51.07 158.13 51.04 158.14 51.07 158.16 51.04 158.17 51.07 158.19 51.04 158.2 51.07 158.22 51.04 158.23 51.07 158.25 51.04 158.26 51.07 158.28 51.04 158.29 51.07 158.31 51.04 158.32 51.07 158.34 51.04 158.35 51.07 158.37 51.04 158.38 51.07 158.4 51.04 158.41 51.07 158.43 51.04 158.44 51.07 158.46 51.04 158.47 51.07 158.49 51.04 158.5 51.07 158.52 51.04 158.53 51.07 158.55 51.04 158.56 51.07 158.58 51.04 158.59 51.07 158.61 51.04 158.62 51.07 158.64 51.04 158.65 51.07 158.67 51.04 158.68 51.07 158.7 51.04 158.71 51.07 158.73 51.04 158.74 51.07 158.76 51.04 158.77 51.07 158.79 51.04 158.8 51.07 158.82 51.04 158.83 51.07 158.85 51.04 158.86 51.07 158.88 51.04 158.89 51.07 158.91 51.04 158.92 51.07 158.94 51.04 158.95 51.07 158.97 51.04 158.98 51.07 159 51.04 159.01 51.07 159.03 51.04 159.04 51.07 159.06 51.04 159.07 51.07 159.09 51.04 159.1 51.07 159.12 51.04 159.13 51.07 159.15 51.04 159.16 51.07 159.18 51.04 159.19 51.07 159.21 51.04 159.22 51.07 159.24 51.04 159.25 51.07 159.27 51.04 159.28 51.07 159.3 51.04 159.31 100.61 191.19 113.33 184.9 161.83 165.07 202.82 157.97 221.98 153.28 221.97 153.25 221.98 153.25 221.97 153.22 221.98 153.22 221.97 153.19 221.98 153.19 221.97 153.16 221.98 153.16 221.97 153.13 221.98 153.13 221.97 153.1 221.98 153.1 221.97 153.07 221.98 153.07 221.97 153.04 221.98 153.04 221.97 153.01 221.98 153.01 221.97 152.99 221.98 152.98 221.97 152.96 221.98 152.95 221.97 152.93 221.98 152.92 221.97 152.9 221.98 152.89 221.97 152.87 221.98 152.86 221.97 152.84 221.98 152.83 221.97 152.81 221.98 152.8 221.97 152.78 221.98 152.77 221.97 152.75 221.98 152.74 221.97 152.72 221.98 152.71 221.97 152.69 221.98 152.68 221.97 152.66 221.98 152.65 221.97 152.63 221.98 152.62 221.97 152.59 221.98 152.59 221.97 152.56 221.98 152.56 221.97 152.53 221.98 152.53 221.97 152.5 221.98 152.5 221.97 152.47 221.98 152.47 221.97 152.44 221.98 152.44 221.97 152.41 221.98 152.41 221.97 152.38 221.98 152.38 221.97 152.35 221.98 152.35 221.97 152.32 221.98 152.32 221.97 152.29 221.98 152.29 221.97 152.26 221.98 152.26 221.97 152.24 221.98 152.23 221.97 152.21 221.98 152.2 221.97 152.18 221.98 152.17 221.97 152.15 221.98 152.14 221.97 152.12 221.98 152.11 221.97 152.09 221.98 152.08 221.97 152.06 221.98 152.05 221.97 152.03 221.98 152.02 221.97 152 221.98 151.99 221.97 151.97 221.98 151.96 221.97 151.94 221.98 151.93 221.97 151.91 221.98 151.9 221.97 151.88 221.98 151.87 221.97 151.84 221.98 151.84 221.97 151.81 221.98 151.81 221.97 151.78 221.98 151.78 221.97 151.75 221.98 151.75 221.97 151.72 221.98 151.72 221.97 151.69 221.98 151.69 221.97 151.66 221.98 151.66 221.97 151.63 221.98 151.63 221.97 151.6 221.98 151.6 221.97 151.57 221.98 151.57 221.97 151.54 221.98 151.54 221.97 151.51 221.98 151.51 221.97 151.49 221.98 151.48 221.97 151.46 221.98 151.45 221.97 151.43 221.98 151.42 221.97 151.4 221.98 151.39 221.97 151.37 221.98 151.36 221.97 151.34 221.98 151.33 221.97 151.31 221.98 151.3 221.97 151.28 221.98 151.27 221.97 151.25 221.98 151.24 221.97 151.22 221.98 151.21 221.97 151.19"/>
            <polygon class="shop_hover_type1" points="51.04 157.21 143.88 122.11 179.92 122.11 214.35 140.6 221.98 151.18 202.82 155.87 161.83 162.97 113.33 182.8 100.61 189.09 51.04 157.21"/>
        </g>

        <g id="floor1_area8" class="shop_hover_group" data-name="Кредобанк">
            <polygon class="shop_hover_shadow" points="124.96 127.48 124.99 127.47 67.92 94.78 36.57 106.3 36.6 106.32 36.57 106.33 36.6 106.35 36.57 106.36 36.6 106.38 36.57 106.39 36.6 106.41 36.57 106.42 36.6 106.44 36.57 106.45 36.6 106.47 36.57 106.48 36.6 106.5 36.57 106.51 36.6 106.53 36.57 106.54 36.6 106.56 36.57 106.57 36.6 106.59 36.57 106.6 36.6 106.62 36.57 106.63 36.6 106.65 36.57 106.66 36.6 106.68 36.57 106.69 36.6 106.71 36.57 106.72 36.6 106.74 36.57 106.75 36.6 106.77 36.57 106.78 36.6 106.8 36.57 106.81 36.6 106.83 36.57 106.84 36.6 106.86 36.57 106.87 36.6 106.89 36.57 106.9 36.6 106.92 36.57 106.93 36.6 106.95 36.57 106.96 36.6 106.98 36.57 106.99 36.6 107.01 36.57 107.02 36.6 107.04 36.57 107.05 36.6 107.07 36.57 107.08 36.6 107.1 36.57 107.11 36.6 107.13 36.57 107.14 36.6 107.16 36.57 107.17 36.6 107.19 36.57 107.2 36.6 107.22 36.57 107.23 36.6 107.25 36.57 107.26 36.6 107.28 36.57 107.29 36.6 107.31 36.57 107.32 36.6 107.34 36.57 107.35 36.6 107.37 36.57 107.38 36.6 107.4 36.57 107.41 36.6 107.43 36.57 107.44 36.6 107.46 36.57 107.47 36.6 107.49 36.57 107.5 36.6 107.52 36.57 107.53 36.6 107.55 36.57 107.56 36.6 107.58 36.57 107.59 36.6 107.61 36.57 107.62 36.6 107.64 36.57 107.65 36.6 107.67 36.57 107.68 36.6 107.7 36.57 107.71 36.6 107.73 36.57 107.74 36.6 107.76 36.57 107.77 36.6 107.79 36.57 107.8 36.6 107.82 36.57 107.83 36.6 107.85 36.57 107.86 36.6 107.88 36.57 107.89 36.6 107.91 36.57 107.92 36.6 107.94 36.57 107.95 36.6 107.97 36.57 107.98 36.6 108 36.57 108.01 36.6 108.03 36.57 108.04 36.6 108.06 36.57 108.07 36.6 108.09 36.57 108.1 36.6 108.12 36.57 108.13 36.6 108.15 36.57 108.16 36.6 108.18 36.57 108.19 36.6 108.21 36.57 108.22 36.6 108.24 36.57 108.25 36.6 108.27 36.57 108.28 36.6 108.3 36.57 108.31 36.6 108.33 36.57 108.34 36.6 108.36 36.57 108.37 36.6 108.39 36.57 108.4 44.99 112.29 12.99 123.72 13.02 123.74 12.99 123.75 13.02 123.77 12.99 123.78 13.02 123.8 12.99 123.81 13.02 123.83 12.99 123.84 13.02 123.86 12.99 123.87 13.02 123.89 12.99 123.9 13.02 123.92 12.99 123.93 13.02 123.95 12.99 123.96 13.02 123.98 12.99 123.99 13.02 124.01 12.99 124.02 13.02 124.04 12.99 124.05 13.02 124.07 12.99 124.08 13.02 124.1 12.99 124.11 13.02 124.13 12.99 124.14 13.02 124.16 12.99 124.17 13.02 124.19 12.99 124.2 13.02 124.22 12.99 124.23 13.02 124.25 12.99 124.26 13.02 124.28 12.99 124.29 13.02 124.31 12.99 124.32 13.02 124.34 12.99 124.35 13.02 124.37 12.99 124.38 13.02 124.4 12.99 124.41 13.02 124.43 12.99 124.44 13.02 124.46 12.99 124.47 13.02 124.49 12.99 124.5 13.02 124.52 12.99 124.53 13.02 124.55 12.99 124.56 13.02 124.58 12.99 124.59 13.02 124.61 12.99 124.62 13.02 124.64 12.99 124.65 13.02 124.67 12.99 124.68 13.02 124.7 12.99 124.71 13.02 124.73 12.99 124.74 13.02 124.76 12.99 124.77 13.02 124.79 12.99 124.8 13.02 124.82 12.99 124.83 13.02 124.85 12.99 124.86 13.02 124.88 12.99 124.89 13.02 124.91 12.99 124.92 13.02 124.94 12.99 124.95 13.02 124.97 12.99 124.98 13.02 125 12.99 125.01 13.02 125.03 12.99 125.04 13.02 125.06 12.99 125.07 13.02 125.09 12.99 125.1 13.02 125.12 12.99 125.13 13.02 125.15 12.99 125.16 13.02 125.18 12.99 125.19 13.02 125.21 12.99 125.22 13.02 125.24 12.99 125.25 13.02 125.27 12.99 125.28 13.02 125.3 12.99 125.31 13.02 125.33 12.99 125.34 13.02 125.36 12.99 125.37 13.02 125.39 12.99 125.4 13.02 125.42 12.99 125.43 13.02 125.45 12.99 125.46 13.02 125.48 12.99 125.49 13.02 125.51 12.99 125.52 13.02 125.54 12.99 125.55 13.02 125.57 12.99 125.58 13.02 125.6 12.99 125.61 13.02 125.63 12.99 125.64 13.02 125.66 12.99 125.67 13.02 125.69 12.99 125.7 13.02 125.72 12.99 125.73 13.02 125.75 12.99 125.76 13.02 125.78 12.99 125.79 13.02 125.81 12.99 125.82 19.94 130.66 11.37 134.23 11.4 134.25 11.37 134.26 11.4 134.28 11.37 134.29 11.4 134.31 11.37 134.32 11.4 134.34 11.37 134.35 11.4 134.37 11.37 134.38 11.4 134.4 11.37 134.41 11.4 134.43 11.37 134.44 11.4 134.46 11.37 134.47 11.4 134.49 11.37 134.5 11.4 134.52 11.37 134.53 11.4 134.55 11.37 134.56 11.4 134.58 11.37 134.59 11.4 134.61 11.37 134.62 11.4 134.64 11.37 134.65 11.4 134.67 11.37 134.68 11.4 134.7 11.37 134.71 11.4 134.73 11.37 134.74 11.4 134.76 11.37 134.77 11.4 134.79 11.37 134.8 11.4 134.82 11.37 134.83 11.4 134.85 11.37 134.86 11.4 134.88 11.37 134.89 11.4 134.91 11.37 134.92 11.4 134.94 11.37 134.95 11.4 134.97 11.37 134.98 11.4 135 11.37 135.01 11.4 135.03 11.37 135.04 11.4 135.06 11.37 135.07 11.4 135.09 11.37 135.1 11.4 135.12 11.37 135.13 11.4 135.15 11.37 135.16 11.4 135.18 11.37 135.19 11.4 135.21 11.37 135.22 11.4 135.24 11.37 135.25 11.4 135.27 11.37 135.28 11.4 135.3 11.37 135.31 11.4 135.33 11.37 135.34 11.4 135.36 11.37 135.37 11.4 135.39 11.37 135.4 11.4 135.42 11.37 135.43 11.4 135.45 11.37 135.46 11.4 135.48 11.37 135.49 11.4 135.51 11.37 135.52 11.4 135.54 11.37 135.55 11.4 135.57 11.37 135.58 11.4 135.6 11.37 135.61 11.4 135.63 11.37 135.64 11.4 135.66 11.37 135.67 11.4 135.69 11.37 135.7 11.4 135.72 11.37 135.73 11.4 135.75 11.37 135.76 11.4 135.78 11.37 135.79 11.4 135.81 11.37 135.82 11.4 135.84 11.37 135.85 11.4 135.87 11.37 135.88 11.4 135.9 11.37 135.91 11.4 135.93 11.37 135.94 11.4 135.96 11.37 135.97 11.4 135.99 11.37 136 11.4 136.02 11.37 136.03 11.4 136.05 11.37 136.06 11.4 136.08 11.37 136.09 11.4 136.11 11.37 136.12 11.4 136.14 11.37 136.15 11.4 136.17 11.37 136.18 11.4 136.2 11.37 136.21 11.4 136.23 11.37 136.24 11.4 136.26 11.37 136.27 11.4 136.29 11.37 136.3 11.4 136.32 11.37 136.33 48.09 157.97 124.99 129.57 124.96 129.55 124.99 129.54 124.96 129.52 124.99 129.51 124.96 129.49 124.99 129.48 124.96 129.46 124.99 129.45 124.96 129.43 124.99 129.42 124.96 129.4 124.99 129.39 124.96 129.37 124.99 129.36 124.96 129.34 124.99 129.33 124.96 129.31 124.99 129.3 124.96 129.28 124.99 129.27 124.96 129.25 124.99 129.24 124.96 129.22 124.99 129.21 124.96 129.19 124.99 129.18 124.96 129.16 124.99 129.15 124.96 129.13 124.99 129.12 124.96 129.1 124.99 129.09 124.96 129.07 124.99 129.06 124.96 129.04 124.99 129.03 124.96 129.01 124.99 129 124.96 128.98 124.99 128.97 124.96 128.95 124.99 128.94 124.96 128.92 124.99 128.91 124.96 128.89 124.99 128.88 124.96 128.86 124.99 128.85 124.96 128.83 124.99 128.82 124.96 128.8 124.99 128.79 124.96 128.77 124.99 128.76 124.96 128.74 124.99 128.73 124.96 128.71 124.99 128.7 124.96 128.68 124.99 128.67 124.96 128.65 124.99 128.64 124.96 128.62 124.99 128.61 124.96 128.59 124.99 128.58 124.96 128.56 124.99 128.55 124.96 128.53 124.99 128.52 124.96 128.5 124.99 128.49 124.96 128.47 124.99 128.46 124.96 128.44 124.99 128.43 124.96 128.41 124.99 128.4 124.96 128.38 124.99 128.37 124.96 128.35 124.99 128.34 124.96 128.32 124.99 128.31 124.96 128.29 124.99 128.28 124.96 128.26 124.99 128.25 124.96 128.23 124.99 128.22 124.96 128.2 124.99 128.19 124.96 128.17 124.99 128.16 124.96 128.14 124.99 128.13 124.96 128.11 124.99 128.1 124.96 128.08 124.99 128.07 124.96 128.05 124.99 128.04 124.96 128.02 124.99 128.01 124.96 127.99 124.99 127.98 124.96 127.96 124.99 127.95 124.96 127.93 124.99 127.92 124.96 127.9 124.99 127.89 124.96 127.87 124.99 127.86 124.96 127.84 124.99 127.83 124.96 127.81 124.99 127.8 124.96 127.78 124.99 127.77 124.96 127.75 124.99 127.74 124.96 127.72 124.99 127.71 124.96 127.69 124.99 127.68 124.96 127.66 124.99 127.65 124.96 127.63 124.99 127.62 124.96 127.6 124.99 127.59 124.96 127.57 124.99 127.56 124.96 127.54 124.99 127.53 124.96 127.51 124.99 127.5 124.96 127.48"/>
            <polygon class="shop_hover_type3" points="67.92 94.78 36.57 106.3 47.55 111.37 12.99 123.72 21.83 129.88 11.37 134.23 48.09 155.87 124.99 127.47 67.92 94.78"/>
        </g>

        <g id="floor1_area9" class="shop_hover_group" data-name="CCC">
            <path class="shop_hover_shadow" d="M895.1,385.7l-80-33.58L660.74,405.7v2.1s34.48,17.86,47.51,25.37c48.23,8.22,79.67-5.89,79.67-5.89l82.7-33.22,3.39,2.86,21.08-9.11Z" transform="translate(-560.13 -322.27)"/>
            <path class="shop_hover_type1" d="M815.07,352.12l80,33.58L874,394.81,870.63,392l-82.7,33.22s-31.44,14.11-79.67,5.89c-13-7.5-47.51-25.37-47.51-25.37Z" transform="translate(-560.13 -322.27)"/>
        </g>

        <g id="floor1_area10" class="shop_hover_group" data-name="Tatuum">
            <path class="shop_hover_shadow" d="M949.58,420.66l-17.28-7.23s-13.8-8.57-34-5.36-55.46,18.62-55.46,18.62l-22.64,9.91s-6,3.93-6.16,9.58c0,0,0,2.06,0,2.07a9.45,9.45,0,0,0,2.14,6.13c9.78,5.36,30.81,15.41,30.81,15.41l102.62-47Z" transform="translate(-560.13 -322.27)"/>
            <path class="shop_hover_type1" d="M847,467.69l102.62-47-17.28-7.23s-13.8-8.57-34-5.36-55.46,18.62-55.46,18.62l-22.64,9.91s-10.58,7-4,15.67C825.92,457.64,847,467.69,847,467.69Z" transform="translate(-560.13 -322.27)"/>
        </g>

        <g id="floor1_area11" class="shop_hover_group" data-name="Space/Poza">
            <polygon class="shop_hover_shadow" points="440.19 120.25 440.22 120.23 393.06 99.87 289.37 147.43 289.4 147.44 289.37 147.46 289.4 147.47 289.37 147.49 289.4 147.5 289.37 147.52 289.4 147.53 289.37 147.55 289.4 147.56 289.37 147.58 289.4 147.59 289.37 147.61 289.4 147.62 289.37 147.64 289.4 147.65 289.37 147.67 289.4 147.68 289.37 147.7 289.4 147.71 289.37 147.73 289.4 147.74 289.37 147.76 289.4 147.77 289.37 147.79 289.4 147.8 289.37 147.82 289.4 147.83 289.37 147.85 289.4 147.86 289.37 147.88 289.4 147.89 289.37 147.91 289.4 147.92 289.37 147.94 289.4 147.95 289.37 147.97 289.4 147.98 289.37 148 289.4 148.01 289.37 148.03 289.4 148.04 289.37 148.06 289.4 148.07 289.37 148.09 289.4 148.1 289.37 148.12 289.4 148.13 289.37 148.15 289.4 148.16 289.37 148.18 289.4 148.19 289.37 148.21 289.4 148.22 289.37 148.24 289.4 148.25 289.37 148.27 289.4 148.28 289.37 148.3 289.4 148.31 289.37 148.33 289.4 148.34 289.37 148.36 289.4 148.37 289.37 148.39 289.4 148.4 289.37 148.42 289.4 148.43 289.37 148.45 289.4 148.46 289.37 148.48 289.4 148.49 289.37 148.51 289.4 148.52 289.37 148.54 289.4 148.55 289.37 148.57 289.4 148.58 289.37 148.6 289.4 148.61 289.37 148.63 289.4 148.64 289.37 148.66 289.4 148.67 289.37 148.69 289.4 148.7 289.37 148.72 289.4 148.73 289.37 148.75 289.4 148.76 289.37 148.78 289.4 148.79 289.37 148.81 289.4 148.82 289.37 148.84 289.4 148.85 289.37 148.87 289.4 148.88 289.37 148.9 289.4 148.91 289.37 148.93 289.4 148.94 289.37 148.96 289.4 148.97 289.37 148.99 289.4 149 289.37 149.02 289.4 149.03 289.37 149.05 289.4 149.06 289.37 149.08 289.4 149.09 289.37 149.11 289.4 149.12 289.37 149.14 289.4 149.15 289.37 149.17 289.4 149.18 289.37 149.2 289.4 149.21 289.37 149.23 289.4 149.24 289.37 149.26 289.4 149.27 289.37 149.29 289.4 149.3 289.37 149.32 289.4 149.33 289.37 149.35 289.4 149.36 289.37 149.38 289.4 149.39 289.37 149.41 289.4 149.42 289.37 149.44 289.4 149.45 289.37 149.47 289.4 149.48 289.37 149.5 289.4 149.51 289.37 149.53 328.36 167.75 387.7 139.35 409.54 138.68 440.22 122.33 440.19 122.32 440.22 122.3 440.19 122.29 440.22 122.27 440.19 122.26 440.22 122.24 440.19 122.23 440.22 122.21 440.19 122.2 440.22 122.18 440.19 122.17 440.22 122.15 440.19 122.14 440.22 122.12 440.19 122.11 440.22 122.09 440.19 122.08 440.22 122.06 440.19 122.05 440.22 122.03 440.19 122.02 440.22 122 440.19 121.99 440.22 121.97 440.19 121.96 440.22 121.94 440.19 121.93 440.22 121.91 440.19 121.9 440.22 121.88 440.19 121.87 440.22 121.85 440.19 121.84 440.22 121.82 440.19 121.81 440.22 121.79 440.19 121.78 440.22 121.76 440.19 121.75 440.22 121.73 440.19 121.72 440.22 121.7 440.19 121.69 440.22 121.67 440.19 121.66 440.22 121.64 440.19 121.63 440.22 121.61 440.19 121.6 440.22 121.58 440.19 121.57 440.22 121.55 440.19 121.54 440.22 121.52 440.19 121.51 440.22 121.49 440.19 121.48 440.22 121.46 440.19 121.45 440.22 121.43 440.19 121.42 440.22 121.4 440.19 121.39 440.22 121.37 440.19 121.36 440.22 121.34 440.19 121.33 440.22 121.31 440.19 121.3 440.22 121.28 440.19 121.27 440.22 121.25 440.19 121.24 440.22 121.22 440.19 121.21 440.22 121.19 440.19 121.18 440.22 121.16 440.19 121.15 440.22 121.13 440.19 121.12 440.22 121.1 440.19 121.09 440.22 121.07 440.19 121.06 440.22 121.04 440.19 121.03 440.22 121.01 440.19 121 440.22 120.98 440.19 120.97 440.22 120.95 440.19 120.94 440.22 120.92 440.19 120.91 440.22 120.89 440.19 120.88 440.22 120.86 440.19 120.85 440.22 120.83 440.19 120.82 440.22 120.8 440.19 120.79 440.22 120.77 440.19 120.76 440.22 120.74 440.19 120.73 440.22 120.71 440.19 120.7 440.22 120.68 440.19 120.67 440.22 120.65 440.19 120.64 440.22 120.62 440.19 120.61 440.22 120.59 440.19 120.58 440.22 120.56 440.19 120.55 440.22 120.53 440.19 120.52 440.22 120.5 440.19 120.49 440.22 120.47 440.19 120.46 440.22 120.44 440.19 120.43 440.22 120.41 440.19 120.4 440.22 120.38 440.19 120.37 440.22 120.35 440.19 120.34 440.22 120.32 440.19 120.31 440.22 120.29 440.19 120.28 440.22 120.26 440.19 120.25"/>
            <polygon class="shop_hover_type1" points="289.37 147.43 393.06 99.87 440.22 120.23 409.54 136.58 387.7 137.25 328.36 165.65 289.37 147.43"/>
        </g>

        <g id="floor1_area12" class="shop_hover_group" data-name="Kleo">
            <polygon class="shop_hover_shadow" points="423.02 174.63 423.03 174.63 409.63 139.7 388.73 139.7 373.5 147.38 331.75 167.39 331.78 167.41 331.75 167.42 331.78 167.44 331.75 167.45 331.78 167.47 331.75 167.48 331.78 167.5 331.75 167.51 331.78 167.53 331.75 167.54 331.78 167.56 331.75 167.57 331.78 167.59 331.75 167.6 331.78 167.62 331.75 167.63 331.78 167.65 331.75 167.66 331.78 167.68 331.75 167.69 331.78 167.71 331.75 167.72 331.78 167.74 331.75 167.75 331.78 167.77 331.75 167.78 331.78 167.8 331.75 167.81 331.78 167.83 331.75 167.84 331.78 167.86 331.75 167.87 331.78 167.89 331.75 167.9 331.78 167.92 331.75 167.93 331.78 167.95 331.75 167.96 331.78 167.98 331.75 167.99 331.78 168.01 331.75 168.02 331.78 168.04 331.75 168.05 331.78 168.07 331.75 168.08 331.78 168.1 331.75 168.11 331.78 168.13 331.75 168.14 331.78 168.16 331.75 168.17 331.78 168.19 331.75 168.2 331.78 168.22 331.75 168.23 331.78 168.25 331.75 168.26 331.78 168.28 331.75 168.29 331.78 168.31 331.75 168.32 331.78 168.34 331.75 168.35 331.78 168.37 331.75 168.38 331.78 168.4 331.75 168.41 331.78 168.43 331.75 168.44 331.78 168.46 331.75 168.47 331.78 168.49 331.75 168.5 331.78 168.52 331.75 168.53 331.78 168.55 331.75 168.56 331.78 168.58 331.75 168.59 331.78 168.61 331.75 168.62 331.78 168.64 331.75 168.65 331.78 168.67 331.75 168.68 331.78 168.7 331.75 168.71 331.78 168.73 331.75 168.74 331.78 168.76 331.75 168.77 331.78 168.79 331.75 168.8 331.78 168.82 331.75 168.83 331.78 168.85 331.75 168.86 331.78 168.88 331.75 168.89 331.78 168.91 331.75 168.92 331.78 168.94 331.75 168.95 331.78 168.97 331.75 168.98 331.78 169 331.75 169.01 331.78 169.03 331.75 169.04 331.78 169.06 331.75 169.07 331.78 169.09 331.75 169.1 331.78 169.12 331.75 169.13 331.78 169.15 331.75 169.16 331.78 169.18 331.75 169.19 331.78 169.21 331.75 169.22 331.78 169.24 331.75 169.25 331.78 169.27 331.75 169.28 331.78 169.3 331.75 169.31 331.78 169.33 331.75 169.34 331.78 169.36 331.75 169.37 331.78 169.39 331.75 169.4 331.78 169.42 331.75 169.43 331.78 169.45 331.75 169.46 331.78 169.48 331.75 169.49 370.69 190.39 387.48 180.57 423.03 176.72 423.02 176.7 423.03 176.69 423.02 176.67 423.03 176.66 423.02 176.64 423.03 176.63 423.02 176.61 423.03 176.6 423.02 176.58 423.03 176.57 423.02 176.55 423.03 176.54 423.02 176.52 423.03 176.51 423.02 176.49 423.03 176.49 423.02 176.46 423.03 176.46 423.02 176.43 423.03 176.43 423.02 176.4 423.03 176.4 423.02 176.37 423.03 176.37 423.02 176.34 423.03 176.34 423.02 176.31 423.03 176.31 423.02 176.28 423.03 176.28 423.02 176.25 423.03 176.25 423.02 176.22 423.03 176.22 423.02 176.19 423.03 176.19 423.02 176.16 423.03 176.16 423.02 176.13 423.03 176.13 423.02 176.1 423.03 176.09 423.02 176.07 423.03 176.06 423.02 176.04 423.03 176.03 423.02 176.01 423.03 176 423.02 175.98 423.03 175.97 423.02 175.95 423.03 175.94 423.02 175.92 423.03 175.91 423.02 175.89 423.03 175.88 423.02 175.86 423.03 175.85 423.02 175.83 423.03 175.82 423.02 175.8 423.03 175.79 423.02 175.77 423.03 175.76 423.02 175.74 423.03 175.74 423.02 175.71 423.03 175.71 423.02 175.68 423.03 175.68 423.02 175.65 423.03 175.65 423.02 175.62 423.03 175.62 423.02 175.59 423.03 175.59 423.02 175.56 423.03 175.56 423.02 175.53 423.03 175.53 423.02 175.5 423.03 175.5 423.02 175.47 423.03 175.47 423.02 175.44 423.03 175.44 423.02 175.41 423.03 175.41 423.02 175.38 423.03 175.38 423.02 175.35 423.03 175.34 423.02 175.32 423.03 175.31 423.02 175.29 423.03 175.28 423.02 175.26 423.03 175.25 423.02 175.23 423.03 175.22 423.02 175.2 423.03 175.19 423.02 175.17 423.03 175.16 423.02 175.14 423.03 175.13 423.02 175.11 423.03 175.1 423.02 175.08 423.03 175.07 423.02 175.05 423.03 175.04 423.02 175.02 423.03 175.01 423.02 174.99 423.03 174.99 423.02 174.96 423.03 174.96 423.02 174.93 423.03 174.93 423.02 174.9 423.03 174.9 423.02 174.87 423.03 174.87 423.02 174.84 423.03 174.84 423.02 174.81 423.03 174.81 423.02 174.78 423.03 174.78 423.02 174.75 423.03 174.75 423.02 174.72 423.03 174.72 423.02 174.69 423.03 174.69 423.02 174.66 423.03 174.66 423.02 174.63"/>
            <polygon class="shop_hover_type1" points="331.75 167.39 373.5 147.38 388.73 139.7 409.63 139.7 423.03 174.63 387.48 178.47 370.69 188.29 331.75 167.39"/>
        </g>

        <g id="floor1_area13" class="shop_hover_group" data-name="Дека">
            <path class="shop_hover_shadow" d="M1037.82,470.8C1033.89,459,1027.28,455,1027.28,455l-22.51-10.56-33,16v2.09h0l8.16,18.3,57.84-8S1037.82,470.8,1037.82,470.8Z" transform="translate(-560.13 -322.27)"/>
            <path class="shop_hover_type1" d="M980,478.75l-8.16-18.3,33-16L1027.28,455s6.61,4,10.54,15.77Z" transform="translate(-560.13 -322.27)"/>
        </g>

        <g id="floor1_area14" class="shop_hover_group" data-name="Yves Rocher">
            <path class="shop_hover_shadow" d="M1051.21,499.13h0s-2.75-6.68-12.4-26.33l-57.84,8v0h0v0h0v0h0v0h0v0h0v0h0v0h0v0h0v0h0v0h0v0h0v0h0v0h0v0h0v0h0v0h0v0h0v0h0v0h0v0h0v0h0v0h0v0h0v0h0v0h0v0h0v0h0v0h0v0h0v0h0v0h0v0h0v0h0v0h0v0h0v0h0v0h0v0h0v0h0v0h0v0h0v0h0v0h0v0h0v0h0v0h0v0h0v0h0v0h0v0h0v0h0v0h0v0h0v0h0v0h0v0h0v0h0v0h0v0h0v0h0v0h0v0h0v0h0v0h0v0h0v0h0v0h0v0h0v0h0v0h0L987.22,499l31.75-1.61,7,3.89c5,4.29,11.88,3.89,11.88,3.89l13.4-3.93v0h0v0h0v0h0v0h0v0h0v0h0v0h0v0h0v0h0v0h0v0h0v0h0v0h0v0h0v0h0v0h0v0h0v0h0v0h0v0h0v0h0v0h0v0h0v0h0v0h0v0h0v0h0v0h0v0h0v0h0v0h0v0h0v0h0v0h0v0h0v0h0v0h0v0h0v0h0v0h0v0h0v0h0v0h0v0h0v0h0v0h0v0h0v0h0v0h0v0h0v0h0v0h0v0h0v0h0v0h0v0h0v0h0v0h0v0h0v0h0v0h0v0h0v0h0v0h0v0h0v0h0v0h0v0h0v0h0Z" transform="translate(-560.13 -322.27)"/>
            <path class="shop_hover_type1" d="M1038.82,472.8c9.65,19.65,12.4,26.33,12.4,26.33l-13.4,3.93s-6.92.4-11.88-3.89l-7-3.89-31.75,1.61L981,480.75Z" transform="translate(-560.13 -322.27)"/>
        </g>

        <g id="floor1_area15" class="shop_hover_group" data-name="Seta Decor">
            <path class="shop_hover_shadow" d="M1067.06,530.52h0L1052.47,502l-12.86,2.95s-8.17,3.08-14.07-2.28c-5-3.35-9.51-5.76-9.51-5.76l-24,2.41-43.27,3.62-15.14,9.24v2.1s36.84,21.44,42.2,30.95l91.23-12.59v0h0v0h0v0h0v0h0v0h0v0h0v0h0v0h0v0h0v0h0v0h0v0h0Z" transform="translate(-560.13 -322.27)"/>
            <path class="shop_hover_type1" d="M975.84,543.11l91.23-12.59L1052.47,502l-12.86,2.95s-8.17,3.08-14.07-2.28c-5-3.35-9.51-5.76-9.51-5.76l-24,2.41-43.27,3.62-15.14,9.24S970.48,533.6,975.84,543.11Z" transform="translate(-560.13 -322.27)"/>
        </g>

        <g id="floor1_area16" class="shop_hover_group" data-name="Золотий вік">
            <path class="shop_hover_shadow" d="M1075.21,554.57a30.8,30.8,0,0,0-.23-3.68c-2.14-12.86-7-18-7-18L977.8,544.68s0,2.1,0,2.1C990.57,559.62,993.67,570.2,994,577a16.56,16.56,0,0,1-1.23,6.07v2.1l51.58,26.53s18-18.89,21.57-24.25c3.28-4.86,9.42-18.74,9.34-30.78,0,0,0-2,0-2S1075.21,554.58,1075.21,554.57Z" transform="translate(-560.13 -322.27)"/>
            <path class="shop_hover_type1" d="M977.8,544.68,1068,532.89s4.82,5.14,7,18c1.61,12.73-5.49,29.07-9.11,34.43s-21.57,24.25-21.57,24.25L992.72,583S1000.4,567.41,977.8,544.68Z" transform="translate(-560.13 -322.27)"/>
        </g>

        <g id="floor1_area17" class="shop_hover_group" data-name="EmoZZi">
            <path class="shop_hover_shadow" d="M1042,611.57l-49.3-26.26s0,2.09,0,2.1h0c1.07,6.7,1.34,22,13.39,31.62s35.92-5.36,35.92-5.36Z" transform="translate(-560.13 -322.27)"/>
            <path class="shop_hover_type1" d="M992.72,585.31l49.3,26.26s-23.87,15-35.92,5.36S993.79,592,992.72,585.31Z" transform="translate(-560.13 -322.27)"/>
        </g>

        <g id="floor1_area18" class="shop_hover_group" data-name="Medicine">
            <polygon class="shop_hover_shadow" points="440.19 43.44 440.22 43.42 331.04 2.7 258.33 28.6 258.37 28.61 258.33 28.63 258.37 28.64 258.33 28.66 258.37 28.67 258.33 28.69 258.37 28.7 258.33 28.72 258.37 28.73 258.33 28.75 258.37 28.76 258.33 28.78 258.37 28.79 258.33 28.81 258.37 28.82 258.33 28.84 258.37 28.85 258.33 28.87 258.37 28.88 258.33 28.9 258.37 28.91 258.33 28.93 258.37 28.94 258.33 28.96 258.37 28.97 258.33 28.99 258.37 29 258.33 29.02 258.37 29.03 258.33 29.05 258.37 29.06 258.33 29.08 258.37 29.09 258.33 29.11 258.37 29.12 258.33 29.14 258.37 29.15 258.33 29.17 258.37 29.18 258.33 29.2 258.37 29.21 258.33 29.23 258.37 29.24 258.33 29.26 258.37 29.27 258.33 29.29 258.37 29.3 258.33 29.32 258.37 29.33 258.33 29.35 258.37 29.36 258.33 29.38 258.37 29.39 258.33 29.41 258.37 29.42 258.33 29.44 258.37 29.45 258.33 29.47 258.37 29.48 258.33 29.5 258.37 29.51 258.33 29.53 258.37 29.54 258.33 29.56 258.37 29.57 258.33 29.59 258.37 29.6 258.33 29.62 258.37 29.63 258.33 29.65 258.37 29.66 258.33 29.68 258.37 29.69 258.33 29.71 258.37 29.72 258.33 29.74 258.37 29.75 258.33 29.77 258.37 29.78 258.33 29.8 258.37 29.81 258.33 29.83 258.37 29.84 258.33 29.86 258.37 29.87 258.33 29.89 258.37 29.9 258.33 29.92 258.37 29.93 258.33 29.95 258.37 29.96 258.33 29.98 258.37 29.99 258.33 30.01 258.37 30.02 258.33 30.04 258.37 30.05 258.33 30.07 258.37 30.08 258.33 30.1 258.37 30.11 258.33 30.13 258.37 30.14 258.33 30.16 258.37 30.17 258.33 30.19 258.37 30.2 258.33 30.22 258.37 30.23 258.33 30.25 258.37 30.26 258.33 30.28 258.37 30.29 258.33 30.31 258.37 30.32 258.33 30.34 258.37 30.35 258.33 30.37 258.37 30.38 258.33 30.4 258.37 30.41 258.33 30.43 258.37 30.44 258.33 30.46 258.37 30.47 258.33 30.49 258.37 30.5 258.33 30.52 258.37 30.53 258.33 30.55 258.37 30.56 258.33 30.58 258.37 30.59 258.33 30.61 258.37 30.62 258.33 30.64 258.37 30.65 258.33 30.67 258.37 30.68 258.33 30.7 334.25 61.6 347.83 56.96 383.91 70.89 440.22 45.52 440.19 45.51 440.22 45.49 440.19 45.48 440.22 45.46 440.19 45.45 440.22 45.43 440.19 45.42 440.22 45.4 440.19 45.39 440.22 45.37 440.19 45.36 440.22 45.34 440.19 45.33 440.22 45.31 440.19 45.3 440.22 45.28 440.19 45.27 440.22 45.25 440.19 45.24 440.22 45.22 440.19 45.21 440.22 45.19 440.19 45.18 440.22 45.16 440.19 45.15 440.22 45.13 440.19 45.12 440.22 45.1 440.19 45.09 440.22 45.07 440.19 45.06 440.22 45.04 440.19 45.03 440.22 45.01 440.19 45 440.22 44.98 440.19 44.97 440.22 44.95 440.19 44.94 440.22 44.92 440.19 44.91 440.22 44.89 440.19 44.88 440.22 44.86 440.19 44.85 440.22 44.83 440.19 44.82 440.22 44.8 440.19 44.79 440.22 44.77 440.19 44.76 440.22 44.74 440.19 44.73 440.22 44.71 440.19 44.7 440.22 44.68 440.19 44.67 440.22 44.65 440.19 44.64 440.22 44.62 440.19 44.61 440.22 44.59 440.19 44.58 440.22 44.56 440.19 44.55 440.22 44.53 440.19 44.52 440.22 44.5 440.19 44.49 440.22 44.47 440.19 44.46 440.22 44.44 440.19 44.43 440.22 44.41 440.19 44.4 440.22 44.38 440.19 44.37 440.22 44.35 440.19 44.34 440.22 44.32 440.19 44.31 440.22 44.29 440.19 44.28 440.22 44.26 440.19 44.25 440.22 44.23 440.19 44.22 440.22 44.2 440.19 44.19 440.22 44.17 440.19 44.16 440.22 44.14 440.19 44.13 440.22 44.11 440.19 44.1 440.22 44.08 440.19 44.07 440.22 44.05 440.19 44.04 440.22 44.02 440.19 44.01 440.22 43.99 440.19 43.98 440.22 43.96 440.19 43.95 440.22 43.93 440.19 43.92 440.22 43.9 440.19 43.89 440.22 43.87 440.19 43.86 440.22 43.84 440.19 43.83 440.22 43.81 440.19 43.8 440.22 43.78 440.19 43.77 440.22 43.75 440.19 43.74 440.22 43.72 440.19 43.71 440.22 43.69 440.19 43.68 440.22 43.66 440.19 43.65 440.22 43.63 440.19 43.62 440.22 43.6 440.19 43.59 440.22 43.57 440.19 43.56 440.22 43.54 440.19 43.53 440.22 43.51 440.19 43.5 440.22 43.48 440.19 43.47 440.22 43.45 440.19 43.44"/>
            <polygon class="shop_hover_type1" points="258.33 28.6 331.04 2.7 440.22 43.42 383.91 68.79 347.83 54.86 334.25 59.5 258.33 28.6"/>
        </g>

        <g id="floor1_area19" class="shop_hover_group" data-name="Motor">
            <polygon class="shop_hover_shadow" points="511.73 69.88 511.76 69.86 443.43 44.67 386.77 70.61 386.8 70.62 386.77 70.64 386.8 70.65 386.77 70.67 386.8 70.68 386.77 70.7 386.8 70.71 386.77 70.73 386.8 70.74 386.77 70.76 386.8 70.77 386.77 70.79 386.8 70.8 386.77 70.82 386.8 70.83 386.77 70.85 386.8 70.86 386.77 70.88 386.8 70.89 386.77 70.91 386.8 70.92 386.77 70.94 386.8 70.95 386.77 70.97 386.8 70.98 386.77 71 386.8 71.01 386.77 71.03 386.8 71.04 386.77 71.06 386.8 71.07 386.77 71.09 386.8 71.1 386.77 71.12 386.8 71.13 386.77 71.15 386.8 71.16 386.77 71.18 386.8 71.19 386.77 71.21 386.8 71.22 386.77 71.24 386.8 71.25 386.77 71.27 386.8 71.28 386.77 71.3 386.8 71.31 386.77 71.33 386.8 71.34 386.77 71.36 386.8 71.37 386.77 71.39 386.8 71.4 386.77 71.42 386.8 71.43 386.77 71.45 386.8 71.46 386.77 71.48 386.8 71.49 386.77 71.51 386.8 71.52 386.77 71.54 386.8 71.55 386.77 71.57 386.8 71.58 386.77 71.6 386.8 71.61 386.77 71.63 386.8 71.64 386.77 71.66 386.8 71.67 386.77 71.69 386.8 71.7 386.77 71.72 386.8 71.73 386.77 71.75 386.8 71.76 386.77 71.78 386.8 71.79 386.77 71.81 386.8 71.82 386.77 71.84 386.8 71.85 386.77 71.87 386.8 71.88 386.77 71.9 386.8 71.91 386.77 71.93 386.8 71.94 386.77 71.96 386.8 71.97 386.77 71.99 386.8 72 386.77 72.02 386.8 72.03 386.77 72.05 386.8 72.06 386.77 72.08 386.8 72.09 386.77 72.11 386.8 72.12 386.77 72.14 386.8 72.15 386.77 72.17 386.8 72.18 386.77 72.2 386.8 72.21 386.77 72.23 386.8 72.24 386.77 72.26 386.8 72.27 386.77 72.29 386.8 72.3 386.77 72.32 386.8 72.33 386.77 72.35 386.8 72.36 386.77 72.38 386.8 72.39 386.77 72.41 386.8 72.42 386.77 72.44 386.8 72.45 386.77 72.47 386.8 72.48 386.77 72.5 386.8 72.51 386.77 72.53 386.8 72.54 386.77 72.56 386.8 72.57 386.77 72.59 386.8 72.6 386.77 72.62 386.8 72.63 386.77 72.65 386.8 72.66 386.77 72.68 386.8 72.69 386.77 72.71 444.11 95.41 486.31 76.25 495.15 80.27 511.76 71.96 511.73 71.95 511.76 71.93 511.73 71.92 511.76 71.9 511.73 71.89 511.76 71.87 511.73 71.86 511.76 71.84 511.73 71.83 511.76 71.81 511.73 71.8 511.76 71.78 511.73 71.77 511.76 71.75 511.73 71.74 511.76 71.72 511.73 71.71 511.76 71.69 511.73 71.68 511.76 71.66 511.73 71.65 511.76 71.63 511.73 71.62 511.76 71.6 511.73 71.59 511.76 71.57 511.73 71.56 511.76 71.54 511.73 71.53 511.76 71.51 511.73 71.5 511.76 71.48 511.73 71.47 511.76 71.45 511.73 71.44 511.76 71.42 511.73 71.41 511.76 71.39 511.73 71.38 511.76 71.36 511.73 71.35 511.76 71.33 511.73 71.32 511.76 71.3 511.73 71.29 511.76 71.27 511.73 71.26 511.76 71.24 511.73 71.23 511.76 71.21 511.73 71.2 511.76 71.18 511.73 71.17 511.76 71.15 511.73 71.14 511.76 71.12 511.73 71.11 511.76 71.09 511.73 71.08 511.76 71.06 511.73 71.05 511.76 71.03 511.73 71.02 511.76 71 511.73 70.99 511.76 70.97 511.73 70.96 511.76 70.94 511.73 70.93 511.76 70.91 511.73 70.9 511.76 70.88 511.73 70.87 511.76 70.85 511.73 70.84 511.76 70.82 511.73 70.81 511.76 70.79 511.73 70.78 511.76 70.76 511.73 70.75 511.76 70.73 511.73 70.72 511.76 70.7 511.73 70.69 511.76 70.67 511.73 70.66 511.76 70.64 511.73 70.63 511.76 70.61 511.73 70.6 511.76 70.58 511.73 70.57 511.76 70.55 511.73 70.54 511.76 70.52 511.73 70.51 511.76 70.49 511.73 70.48 511.76 70.46 511.73 70.45 511.76 70.43 511.73 70.42 511.76 70.4 511.73 70.39 511.76 70.37 511.73 70.36 511.76 70.34 511.73 70.33 511.76 70.31 511.73 70.3 511.76 70.28 511.73 70.27 511.76 70.25 511.73 70.24 511.76 70.22 511.73 70.21 511.76 70.19 511.73 70.18 511.76 70.16 511.73 70.15 511.76 70.13 511.73 70.12 511.76 70.1 511.73 70.09 511.76 70.07 511.73 70.06 511.76 70.04 511.73 70.03 511.76 70.01 511.73 70 511.76 69.98 511.73 69.97 511.76 69.95 511.73 69.94 511.76 69.92 511.73 69.91 511.76 69.89 511.73 69.88"/>
            <polygon class="shop_hover_type1" points="443.43 44.67 511.76 69.86 495.15 78.17 486.31 74.15 444.11 93.31 386.77 70.61 443.43 44.67"/>
        </g>

        <g id="floor1_area20" class="shop_hover_group" data-name="Levi’s">
            <path class="shop_hover_shadow" d="M1106.86,421.2,1046,398.69l-38.72,18v2.1s35.9,15.14,48.36,20.87c17.89,6.72,25.86,0,25.86,0l25.32-16.32Z" transform="translate(-560.13 -322.27)"/>
            <path class="shop_hover_type1" d="M1007.32,416.65l38.72-18,60.82,22.51-25.32,16.32s-8,6.72-25.86,0C1043.22,431.78,1007.32,416.65,1007.32,416.65Z" transform="translate(-560.13 -322.27)"/>
        </g>

        <g id="floor1_area21" class="shop_hover_group" data-name="Mega Vision">
            <polygon class="shop_hover_shadow" points="598.95 145.57 598.98 145.55 544.72 122.91 533.87 128.94 514.04 130.01 514.06 130.04 514.04 130.04 514.06 130.07 514.04 130.07 514.06 130.1 514.04 130.1 514.06 130.13 514.04 130.13 514.06 130.16 514.04 130.16 514.06 130.19 514.04 130.19 514.06 130.22 514.04 130.22 514.06 130.25 514.04 130.25 514.06 130.28 514.04 130.28 514.06 130.31 514.04 130.31 514.06 130.34 514.04 130.34 514.06 130.37 514.04 130.37 514.06 130.4 514.04 130.4 514.06 130.43 514.04 130.43 514.06 130.46 514.04 130.46 514.06 130.49 514.04 130.49 514.06 130.52 514.04 130.52 514.06 130.55 514.04 130.55 514.06 130.58 514.04 130.58 514.06 130.61 514.04 130.61 514.06 130.64 514.04 130.64 514.06 130.67 514.04 130.67 514.06 130.7 514.04 130.7 514.06 130.73 514.04 130.73 514.06 130.76 514.04 130.76 514.06 130.79 514.04 130.79 514.06 130.82 514.04 130.82 514.06 130.85 514.04 130.85 514.06 130.88 514.04 130.88 514.06 130.91 514.04 130.91 514.06 130.94 514.04 130.94 514.06 130.97 514.04 130.97 514.06 131 514.04 131 514.06 131.03 514.04 131.03 514.06 131.06 514.04 131.06 514.06 131.09 514.04 131.09 514.06 131.12 514.04 131.12 514.06 131.15 514.04 131.15 514.06 131.18 514.04 131.18 514.06 131.21 514.04 131.21 514.06 131.24 514.04 131.24 514.06 131.27 514.04 131.27 514.06 131.3 514.04 131.3 514.06 131.33 514.04 131.33 514.06 131.36 514.04 131.36 514.06 131.39 514.04 131.39 514.06 131.42 514.04 131.42 514.06 131.45 514.04 131.45 514.06 131.48 514.04 131.48 514.06 131.51 514.04 131.51 514.06 131.54 514.04 131.54 514.06 131.57 514.04 131.57 514.06 131.6 514.04 131.6 514.06 131.63 514.04 131.63 514.06 131.66 514.04 131.66 514.06 131.69 514.04 131.69 514.06 131.72 514.04 131.72 514.06 131.75 514.04 131.75 514.06 131.78 514.04 131.78 514.06 131.81 514.04 131.81 514.06 131.84 514.04 131.84 514.06 131.87 514.04 131.87 514.06 131.9 514.04 131.9 514.06 131.93 514.04 131.93 514.06 131.96 514.04 131.96 514.06 131.99 514.04 131.99 514.06 132.02 514.04 132.02 514.06 132.05 514.04 132.05 514.06 132.08 514.04 132.08 514.06 132.11 514.04 132.11 530.38 158.1 532.53 166.28 554.1 175.12 598.98 147.65 598.95 147.64 598.98 147.62 598.95 147.61 598.98 147.59 598.95 147.58 598.98 147.56 598.95 147.55 598.98 147.53 598.95 147.52 598.98 147.5 598.95 147.49 598.98 147.47 598.95 147.46 598.98 147.44 598.95 147.43 598.98 147.41 598.95 147.4 598.98 147.38 598.95 147.37 598.98 147.35 598.95 147.34 598.98 147.32 598.95 147.31 598.98 147.29 598.95 147.28 598.98 147.26 598.95 147.25 598.98 147.23 598.95 147.22 598.98 147.2 598.95 147.19 598.98 147.17 598.95 147.16 598.98 147.14 598.95 147.13 598.98 147.11 598.95 147.1 598.98 147.08 598.95 147.07 598.98 147.05 598.95 147.04 598.98 147.02 598.95 147.01 598.98 146.99 598.95 146.98 598.98 146.96 598.95 146.95 598.98 146.93 598.95 146.92 598.98 146.9 598.95 146.89 598.98 146.87 598.95 146.86 598.98 146.84 598.95 146.83 598.98 146.81 598.95 146.8 598.98 146.78 598.95 146.77 598.98 146.75 598.95 146.74 598.98 146.72 598.95 146.71 598.98 146.69 598.95 146.68 598.98 146.66 598.95 146.65 598.98 146.63 598.95 146.62 598.98 146.6 598.95 146.59 598.98 146.57 598.95 146.56 598.98 146.54 598.95 146.53 598.98 146.51 598.95 146.5 598.98 146.48 598.95 146.47 598.98 146.45 598.95 146.44 598.98 146.42 598.95 146.41 598.98 146.39 598.95 146.38 598.98 146.36 598.95 146.35 598.98 146.33 598.95 146.32 598.98 146.3 598.95 146.29 598.98 146.27 598.95 146.26 598.98 146.24 598.95 146.23 598.98 146.21 598.95 146.2 598.98 146.18 598.95 146.17 598.98 146.15 598.95 146.14 598.98 146.12 598.95 146.11 598.98 146.09 598.95 146.08 598.98 146.06 598.95 146.05 598.98 146.03 598.95 146.02 598.98 146 598.95 145.99 598.98 145.97 598.95 145.96 598.98 145.94 598.95 145.93 598.98 145.91 598.95 145.9 598.98 145.88 598.95 145.87 598.98 145.85 598.95 145.84 598.98 145.82 598.95 145.81 598.98 145.79 598.95 145.78 598.98 145.76 598.95 145.75 598.98 145.73 598.95 145.72 598.98 145.7 598.95 145.69 598.98 145.67 598.95 145.66 598.98 145.64 598.95 145.63 598.98 145.61 598.95 145.6 598.98 145.58 598.95 145.57"/>
            <polygon class="shop_hover_type1" points="544.72 122.91 598.98 145.55 554.1 173.02 532.53 164.18 530.38 156 514.04 130.01 533.87 128.94 544.72 122.91"/>
        </g>

        <g id="floor1_area22" class="shop_hover_group" data-name="KSD Aurum">
            <path class="shop_hover_shadow" d="M1168.76,521.28l-69.93-29.21s0,2.1,0,2.1c18.62,39.25,41.8,47.69,41.8,47.69l28.13-18.49Z" transform="translate(-560.13 -322.27)"/>
            <path class="shop_hover_type1" d="M1098.82,492.07l69.93,29.21-28.13,18.49S1117.44,531.32,1098.82,492.07Z" transform="translate(-560.13 -322.27)"/>
        </g>

        <g id="floor1_area23" class="shop_hover_group" data-name="McDonalds">
            <path class="shop_hover_shadow" d="M1436.33,503.6c.37-13.17-15.81-27.24-36.25-35.73L1294.5,431.5l-17,15-40-14-52,39v2.1l42.9,17.16-90.46,54.36v8.26L1257.5,607.6l127-100s25,11,38,16c9.53-5.26,13.66-11.49,13.83-17.93C1436.33,505.66,1436.33,503.61,1436.33,503.6Z" transform="translate(-560.13 -322.27)"/>
            <path class="shop_hover_type2" d="M1294.5,431.5l-17,15-40-14-52,39,45,18-92.56,55.62v6.16L1257.5,605.5l127-100s25,11,38,16c29-16,8-41-22.42-53.63Z" transform="translate(-560.13 -322.27)"/>
        </g>

        <g id="floor1_area24" class="shop_hover_group" data-name="Срібний вік">
            <polygon class="shop_hover_shadow" points="664.4,273.2 664.4,273.2 651.4,267.5 616.8,296.9 616.8,296.9 616.8,296.9 616.8,296.9 616.8,296.9 616.8,296.9 616.8,297 616.8,297 616.8,297 616.8,297 616.8,297 616.8,297 616.8,297.1 616.8,297.1 616.8,297.1 616.8,297.1 616.8,297.1 616.8,297.1 616.8,297.1 616.8,297.2 616.8,297.2 616.8,297.2 616.8,297.2 616.8,297.2 616.8,297.2 616.8,297.2 616.8,297.3 616.8,297.3 616.8,297.3 616.8,297.3 616.8,297.3 616.8,297.3 616.8,297.4 616.8,297.4 616.8,297.4 616.8,297.4 616.8,297.4 616.8,297.4 616.8,297.4 616.8,297.5 616.8,297.5 616.8,297.5 616.8,297.5 616.8,297.5 616.8,297.5 616.8,297.5 616.8,297.6 616.8,297.6 616.8,297.6 616.8,297.6 616.8,297.6 616.8,297.6 616.8,297.7 616.8,297.7 616.8,297.7 616.8,297.7 616.8,297.7 616.8,297.7 616.8,297.7 616.8,297.8 616.8,297.8 616.8,297.8 616.8,297.8 616.8,297.8 616.8,297.8 616.8,297.8 616.8,297.9 616.8,297.9 616.8,297.9 616.8,297.9 616.8,297.9 616.8,297.9 616.8,298 616.8,298 616.8,298 616.8,298 616.8,298 616.8,298 616.8,298 616.8,298.1 616.8,298.1 616.8,298.1 616.8,298.1 616.8,298.1 616.8,298.1 616.8,298.1 616.8,298.2 616.8,298.2 616.8,298.2 616.8,298.2 616.8,298.2 616.8,298.2 616.8,298.3 616.8,298.3 616.8,298.3 616.8,298.3 616.8,298.3 616.8,298.3 616.8,298.3 616.8,298.4 616.8,298.4 616.8,298.4 616.8,298.4 616.8,298.4 616.8,298.4 616.8,298.4 616.8,298.5 616.8,298.5 616.8,298.5 616.8,298.5 616.8,298.5 616.8,298.5 616.8,298.6 616.8,298.6 616.8,298.6 616.8,298.6 616.8,298.6 616.8,298.6 616.8,298.6 616.8,298.7 616.8,298.7 616.8,298.7 616.8,298.7 616.8,298.7 616.8,298.7 616.8,298.7 616.8,298.8 616.8,298.8 616.8,298.8 616.8,298.8 616.8,298.8 616.8,298.8 616.8,298.9 616.8,298.9 616.8,298.9 616.8,298.9 616.8,298.9 616.8,298.9 616.8,298.9 616.8,299 616.8,299 628.8,305.7 664.4,275.3 664.4,275.2 664.4,275.2 664.4,275.2 664.4,275.2 664.4,275.2 664.4,275.2 664.4,275.2 664.4,275.1 664.4,275.1 664.4,275.1 664.4,275.1 664.4,275.1 664.4,275.1 664.4,275.1 664.4,275 664.4,275 664.4,275 664.4,275 664.4,275 664.4,275 664.4,274.9 664.4,274.9 664.4,274.9 664.4,274.9 664.4,274.9 664.4,274.9 664.4,274.9 664.4,274.8 664.4,274.8 664.4,274.8 664.4,274.8 664.4,274.8 664.4,274.8 664.4,274.8 664.4,274.7 664.4,274.7 664.4,274.7 664.4,274.7 664.4,274.7 664.4,274.7 664.4,274.6 664.4,274.6 664.4,274.6 664.4,274.6 664.4,274.6 664.4,274.6 664.4,274.6 664.4,274.5 664.4,274.5 664.4,274.5 664.4,274.5 664.4,274.5 664.4,274.5 664.4,274.4 664.4,274.4 664.4,274.4 664.4,274.4 664.4,274.4 664.4,274.4 664.4,274.4 664.4,274.3 664.4,274.3 664.4,274.3 664.4,274.3 664.4,274.3 664.4,274.3 664.4,274.3 664.4,274.2 664.4,274.2 664.4,274.2 664.4,274.2 664.4,274.2 664.4,274.2 664.4,274.1 664.4,274.1 664.4,274.1 664.4,274.1 664.4,274.1 664.4,274.1 664.4,274.1 664.4,274 664.4,274 664.4,274 664.4,274 664.4,274 664.4,274 664.4,274 664.4,273.9 664.4,273.9 664.4,273.9 664.4,273.9 664.4,273.9 664.4,273.9 664.4,273.8 664.4,273.8 664.4,273.8 664.4,273.8 664.4,273.8 664.4,273.8 664.4,273.8 664.4,273.7 664.4,273.7 664.4,273.7 664.4,273.7 664.4,273.7 664.4,273.7 664.4,273.7 664.4,273.6 664.4,273.6 664.4,273.6 664.4,273.6 664.4,273.6 664.4,273.6 664.4,273.6 664.4,273.5 664.4,273.5 664.4,273.5 664.4,273.5 664.4,273.5 664.4,273.5 664.4,273.4 664.4,273.4 664.4,273.4 664.4,273.4 664.4,273.4 664.4,273.4 664.4,273.4 664.4,273.3 664.4,273.3 664.4,273.3 664.4,273.3 664.4,273.3 664.4,273.3 664.4,273.3 664.4,273.2 664.4,273.2 664.4,273.2 664.4,273.2     "/>
            <polygon class="shop_hover_type3" points="651.4,267.5 616.8,296.9 628.8,303.6 664.4,273.2"/>
        </g>

        <g id="floor1_area25" class="shop_hover_group" data-name="Ringoo">
            <path class="shop_hover_shadow" d="M1145.5,694.53v0l-24.72-5.93,10.72-79h0v-2.07h0v0l-29.23,13.11s-14.46,6.41-14,18.63c0,0,0,2.88.09,3.3a40,40,0,0,1,.43,5.51c-.36,25.36-14,75-14,75h0s0,2.1,0,2.1l68.72,9.48,2-38h0v-2.07Z" transform="translate(-560.13 -322.27)"/>
            <path class="shop_hover_type1" d="M1143.5,732.5l2-38-25-6,11-81-29.23,13.11s-15.41,6.83-13.93,19.83c3.35,21-13.55,82.58-13.55,82.58Z" transform="translate(-560.13 -322.27)"/>
        </g>

        <g id="floor1_area26" class="shop_hover_group" data-name="Обмін валют">
            <polygon class="shop_hover_shadow" points="642.9,324.1 642.9,324.1 623.7,314.9 609.3,326.9 609.3,327 609.3,327 609.3,327 609.3,327 609.3,327 609.3,327 609.3,327 609.3,327.1 609.3,327.1 609.3,327.1 609.3,327.1 609.3,327.1 609.3,327.1 609.3,327.2 609.3,327.2 609.3,327.2 609.3,327.2 609.3,327.2 609.3,327.2 609.3,327.2 609.3,327.3 609.3,327.3 609.3,327.3 609.3,327.3 609.3,327.3 609.3,327.3 609.3,327.3 609.3,327.4 609.3,327.4 609.3,327.4 609.3,327.4 609.3,327.4 609.3,327.4 609.3,327.5 609.3,327.5 609.3,327.5 609.3,327.5 609.3,327.5 609.3,327.5 609.3,327.5 609.3,327.6 609.3,327.6 609.3,327.6 609.3,327.6 609.3,327.6 609.3,327.6 609.3,327.6 609.3,327.7 609.3,327.7 609.3,327.7 609.3,327.7 609.3,327.7 609.3,327.7 609.3,327.8 609.3,327.8 609.3,327.8 609.3,327.8 609.3,327.8 609.3,327.8 609.3,327.8 609.3,327.9 609.3,327.9 609.3,327.9 609.3,327.9 609.3,327.9 609.3,327.9 609.3,327.9 609.3,328 609.3,328 609.3,328 609.3,328 609.3,328 609.3,328 609.3,328.1 609.3,328.1 609.3,328.1 609.3,328.1 609.3,328.1 609.3,328.1 609.3,328.1 609.3,328.2 609.3,328.2 609.3,328.2 609.3,328.2 609.3,328.2 609.3,328.2 609.3,328.2 609.3,328.3 609.3,328.3 609.3,328.3 609.3,328.3 609.3,328.3 609.3,328.3 609.3,328.4 609.3,328.4 609.3,328.4 609.3,328.4 609.3,328.4 609.3,328.4 609.3,328.4 609.3,328.5 609.3,328.5 609.3,328.5 609.3,328.5 609.3,328.5 609.3,328.5 609.3,328.5 609.3,328.6 609.3,328.6 609.3,328.6 609.3,328.6 609.3,328.6 609.3,328.6 609.3,328.7 609.3,328.7 609.3,328.7 609.3,328.7 609.3,328.7 609.3,328.7 609.3,328.7 609.3,328.8 609.3,328.8 609.3,328.8 609.3,328.8 609.3,328.8 609.3,328.8 609.3,328.8 609.3,328.9 609.3,328.9 609.3,328.9 609.3,328.9 609.3,328.9 609.3,328.9 609.3,329 609.3,329 609.3,329 609.3,329 609.3,329 609.3,329 609.3,329 627.3,339.3 642.9,326.2 642.9,326.2 642.9,326.2 642.9,326.1 642.9,326.1 642.9,326.1 642.9,326.1 642.9,326.1 642.9,326.1 642.9,326 642.9,326 642.9,326 642.9,326 642.9,326 642.9,326 642.9,326 642.9,325.9 642.9,325.9 642.9,325.9 642.9,325.9 642.9,325.9 642.9,325.9 642.9,325.9 642.9,325.8 642.9,325.8 642.9,325.8 642.9,325.8 642.9,325.8 642.9,325.8 642.9,325.7 642.9,325.7 642.9,325.7 642.9,325.7 642.9,325.7 642.9,325.7 642.9,325.7 642.9,325.6 642.9,325.6 642.9,325.6 642.9,325.6 642.9,325.6 642.9,325.6 642.9,325.6 642.9,325.5 642.9,325.5 642.9,325.5 642.9,325.5 642.9,325.5 642.9,325.5 642.9,325.4 642.9,325.4 642.9,325.4 642.9,325.4 642.9,325.4 642.9,325.4 642.9,325.4 642.9,325.3 642.9,325.3 642.9,325.3 642.9,325.3 642.9,325.3 642.9,325.3 642.9,325.2 642.9,325.2 642.9,325.2 642.9,325.2 642.9,325.2 642.9,325.2 642.9,325.2 642.9,325.1 642.9,325.1 642.9,325.1 642.9,325.1 642.9,325.1 642.9,325.1 642.9,325.1 642.9,325 642.9,325 642.9,325 642.9,325 642.9,325 642.9,325 642.9,324.9 642.9,324.9 642.9,324.9 642.9,324.9 642.9,324.9 642.9,324.9 642.9,324.9 642.9,324.8 642.9,324.8 642.9,324.8 642.9,324.8 642.9,324.8 642.9,324.8 642.9,324.8 642.9,324.7 642.9,324.7 642.9,324.7 642.9,324.7 642.9,324.7 642.9,324.7 642.9,324.7 642.9,324.6 642.9,324.6 642.9,324.6 642.9,324.6 642.9,324.6 642.9,324.6 642.9,324.5 642.9,324.5 642.9,324.5 642.9,324.5 642.9,324.5 642.9,324.5 642.9,324.5 642.9,324.4 642.9,324.4 642.9,324.4 642.9,324.4 642.9,324.4 642.9,324.4 642.9,324.4 642.9,324.3 642.9,324.3 642.9,324.3 642.9,324.3 642.9,324.3 642.9,324.3 642.9,324.2 642.9,324.2 642.9,324.2 642.9,324.2 642.9,324.2 642.9,324.2 642.9,324.2 642.9,324.1 642.9,324.1 642.9,324.1"/>
            <polygon class="shop_hover_type3" points="623.7,314.9 609.3,326.9 627.3,337.2 642.9,324.1"/>
        </g>

        <g id="floor1_area27" class="shop_hover_group" data-name="Cherry Berry">
            <path class="shop_hover_shadow" d="M558.2,251.4c0-6.5-9.1-11.8-20.2-11.8s-20.2,5.3-20.2,11.8v2.1c0,6.5,9.1,11.8,20.2,11.8s20.2-5.3,20.2-11.8V251.4z"/>
            <ellipse class="shop_hover_type1" cx="537.9" cy="251.4" rx="20.2" ry="11.8"/>
        </g>

        <g id="floor1_area28" class="shop_hover_group" data-name="Mobile Expert">
            <polygon class="shop_hover_shadow" points="689.4,286.4 689.4,286.4 670.3,277.2 655.8,289.3 655.8,289.3 655.8,289.3 655.8,289.3 655.8,289.3 655.8,289.4 655.8,289.4 655.8,289.4 655.8,289.4 655.8,289.4 655.8,289.4 655.8,289.4 655.8,289.5 655.8,289.5 655.8,289.5 655.8,289.5 655.8,289.5 655.8,289.5 655.8,289.6 655.8,289.6 655.8,289.6 655.8,289.6 655.8,289.6 655.8,289.6 655.8,289.6 655.8,289.7 655.8,289.7 655.8,289.7 655.8,289.7 655.8,289.7 655.8,289.7 655.8,289.7 655.8,289.8 655.8,289.8 655.8,289.8 655.8,289.8 655.8,289.8 655.8,289.8 655.8,289.9 655.8,289.9 655.8,289.9 655.8,289.9 655.8,289.9 655.8,289.9 655.8,289.9 655.8,290 655.8,290 655.8,290 655.8,290 655.8,290 655.8,290 655.8,290 655.8,290.1 655.8,290.1 655.8,290.1 655.8,290.1 655.8,290.1 655.8,290.1 655.8,290.2 655.8,290.2 655.8,290.2 655.8,290.2 655.8,290.2 655.8,290.2 655.8,290.2 655.8,290.3 655.8,290.3 655.8,290.3 655.8,290.3 655.8,290.3 655.8,290.3 655.8,290.3 655.8,290.4 655.8,290.4 655.8,290.4 655.8,290.4 655.8,290.4 655.8,290.4 655.8,290.5 655.8,290.5 655.8,290.5 655.8,290.5 655.8,290.5 655.8,290.5 655.8,290.5 655.8,290.6 655.8,290.6 655.8,290.6 655.8,290.6 655.8,290.6 655.8,290.6 655.8,290.6 655.8,290.7 655.8,290.7 655.8,290.7 655.8,290.7 655.8,290.7 655.8,290.7 655.8,290.8 655.8,290.8 655.8,290.8 655.8,290.8 655.8,290.8 655.8,290.8 655.8,290.8 655.8,290.9 655.8,290.9 655.8,290.9 655.8,290.9 655.8,290.9 655.8,290.9 655.8,290.9 655.8,291 655.8,291 655.8,291 655.8,291 655.8,291 655.8,291 655.8,291.1 655.8,291.1 655.8,291.1 655.8,291.1 655.8,291.1 655.8,291.1 655.8,291.1 655.8,291.2 655.8,291.2 655.8,291.2 655.8,291.2 655.8,291.2 655.8,291.2 655.8,291.2 655.8,291.3 655.8,291.3 655.8,291.3 655.8,291.3 655.8,291.3 655.8,291.3 655.8,291.4 655.8,291.4 655.8,291.4 673.9,301.6 689.4,288.5 689.4,288.5 689.4,288.5 689.4,288.5 689.4,288.4 689.4,288.4 689.4,288.4 689.4,288.4 689.4,288.4 689.4,288.4 689.4,288.4 689.4,288.3 689.4,288.3 689.4,288.3 689.4,288.3 689.4,288.3 689.4,288.3 689.4,288.3 689.4,288.2 689.4,288.2 689.4,288.2 689.4,288.2 689.4,288.2 689.4,288.2 689.4,288.1 689.4,288.1 689.4,288.1 689.4,288.1 689.4,288.1 689.4,288.1 689.4,288.1 689.4,288 689.4,288 689.4,288 689.4,288 689.4,288 689.4,288 689.4,288 689.4,287.9 689.4,287.9 689.4,287.9 689.4,287.9 689.4,287.9 689.4,287.9 689.4,287.8 689.4,287.8 689.4,287.8 689.4,287.8 689.4,287.8 689.4,287.8 689.4,287.8 689.4,287.7 689.4,287.7 689.4,287.7 689.4,287.7 689.4,287.7 689.4,287.7 689.4,287.7 689.4,287.6 689.4,287.6 689.4,287.6 689.4,287.6 689.4,287.6 689.4,287.6 689.4,287.6 689.4,287.5 689.4,287.5 689.4,287.5 689.4,287.5 689.4,287.5 689.4,287.5 689.4,287.4 689.4,287.4 689.4,287.4 689.4,287.4 689.4,287.4 689.4,287.4 689.4,287.4 689.4,287.3 689.4,287.3 689.4,287.3 689.4,287.3 689.4,287.3 689.4,287.3 689.4,287.3 689.4,287.2 689.4,287.2 689.4,287.2 689.4,287.2 689.4,287.2 689.4,287.2 689.4,287.1 689.4,287.1 689.4,287.1 689.4,287.1 689.4,287.1 689.4,287.1 689.4,287.1 689.4,287 689.4,287 689.4,287 689.4,287 689.4,287 689.4,287 689.4,286.9 689.4,286.9 689.4,286.9 689.4,286.9 689.4,286.9 689.4,286.9 689.4,286.9 689.4,286.8 689.4,286.8 689.4,286.8 689.4,286.8 689.4,286.8 689.4,286.8 689.4,286.8 689.4,286.7 689.4,286.7 689.4,286.7 689.4,286.7 689.4,286.7 689.4,286.7 689.4,286.6 689.4,286.6 689.4,286.6 689.4,286.6 689.4,286.6 689.4,286.6 689.4,286.6 689.4,286.5 689.4,286.5 689.4,286.5 689.4,286.5 689.4,286.5 689.4,286.5 689.4,286.5 689.4,286.4     "/>
            <polygon class="shop_hover_type3" points="670.3,277.2 655.8,289.3 673.9,299.5 689.4,286.4"/>
        </g>
    </g>

    <g class="icon">
        <g class="arrow">
            <path class="icon4" d="M901.92,802.92a1,1,0,1,0,.66,2l9.93-3.43-10.73,22a1,1,0,0,0,.47,1.37,1,1,0,0,0,1.39-.47l10.73-22,3.41,9.92a1.05,1.05,0,0,0,1.32.64,1,1,0,0,0,.64-1.32l-4.24-12.28a1,1,0,0,0-1.3-.63Zm0,0" transform="translate(-560.13 -322.27)"/>
            <path class="icon4" d="M1245.66,690.39a1,1,0,0,0,2.06-.08l-.44-10.49,18,16.58a1,1,0,0,0,1.45-.06,1,1,0,0,0-.05-1.46l-18-16.58,10.48-.43a1.05,1.05,0,0,0,1-1.08,1,1,0,0,0-1.08-1l-13,.54a1,1,0,0,0-1,1.06Zm0,0" transform="translate(-560.13 -322.27)"/>
        </g>

        <g class="main_stairs" data-name="Вход">
            <path class="icon1" d="M1118.67,733.08l.26-2M814.34,693.91l-.25,2m-9.44-3.2-.8,6.48c93.66,68.75,216.37,83.4,324,39.57l.79-6.49m-319.12-39-.53,4.3c91.56,64.88,209.65,79,314.28,38.36l.54-4.28M814.09,695.92c89.41,61.18,203,74.69,304.58,37.16M795,691.51l-1.31,10.54c97.64,76.89,229.94,92.71,343.37,42l1.23-10M799.8,692.11l-1.05,8.58c95.67,72.74,223.12,88,333.67,40.77l1.05-8.59" transform="translate(-560.13 -322.27)"/>
            <path class="icon2" d="M1250.67,658.29l-24.1,21.42-2.25-2.28,24-21.28c3.41-4.21,1.92-11.23-2.52-16.36l-7.51-7.5,1.75-1.62,6.46,6.45C1252.82,643.31,1255.1,652.83,1250.67,658.29Zm-4.88-18.5-7.51-7.5-1.63,1.49,7.4,7.39c3.47,4.1,4.44,9.75,1.73,13.09l-23.62,21,2.16,2.2,24-21.28C1251.72,651.94,1250.22,644.92,1245.78,639.79Zm-1.74,1.38-7.4-7.39-1.79,1.65,7.27,7.26c2.52,3,3.36,7.24,1.37,9.72l-23.37,20.77,2,2,23.62-21C1248.48,650.92,1247.52,645.27,1244,641.17Zm-1.92,1.52-7.27-7.26-1.67,1.53,6.45,6.44c2.11,2.07,3.06,5.33,1.57,7.15l-23.12,20.56,2,2.07,23.37-20.77C1245.48,649.93,1244.65,645.74,1242.13,642.69Zm-2.49.71-6.45-6.44-27.31,21.78,10.05,10.19,2.16,2.18,23.12-20.56C1242.7,648.73,1241.74,645.47,1239.64,643.4Zm-34.07,54.44L1204,679.42l11.92-10.49-10.05-10.19-20,16.3-7,32.8,27.95,4.92-1.24-14.65Zm12.52-26.73-2.16-2.18L1204,679.42l1.56,18.42,0,.27,21-18.4Z" transform="translate(-560.13 -322.27)"/>
            <path class="icon2" d="M1407,527.27l-66,52.54c-2.16,1.65-5.62.74-7.51-1.21l-10.62-13.36m-2.12,1.63,10.81,13.59c2.83,2.93,7.84,4,11.08,1.48l66-52.54m-90.09,39.12,10.84,13.63.17.21c3.78,3.9,10.34,5,14.67,1.71l67.28-53.57m-95.09,39.65,11,13.88.16.2c4.73,4.89,12.84,6.11,18.23,2l68.66-54.7m-100.18,40.25,11.4,14.33c5.67,5.84,15.43,7.4,21.91,2.45l69.87-56" transform="translate(-560.13 -322.27)"/>
        </g>

        <g class="terminal" data-name="Платіжний термінал">
            <path class="icon3" d="M1063.31,703.33a5,5,0,0,0-.72,1.4h-.43s-1,0-1-.82,1-.78,1-.78h1.12S1063.31,703.2,1063.31,703.33Zm3.13-10.86a44,44,0,0,0-5.64.5,44,44,0,0,1-5.75.51,17.4,17.4,0,0,1-3.33-.3v8a16.39,16.39,0,0,0,3.33.32,40.77,40.77,0,0,0,5.21-.44l.42-.06c.82-.11,1.66-.21,2.5-.31h.13c0-1.06,0-1.8,0-2a3.9,3.9,0,0,1-2.61,1.61,2.85,2.85,0,0,1-3.3-2.91,3.85,3.85,0,0,1,3.3-3.68,2.85,2.85,0,0,1,3.3,2.91,3.44,3.44,0,0,1,0,.36,2.13,2.13,0,0,1,1.59-.59,2.17,2.17,0,0,1,2.26,2.19v2h0l.94.09h.07l.93.15v-8A16.44,16.44,0,0,0,1066.44,692.46Zm-6.45,9.41c.13.94,1.38.94,1.38.94h2v-1.35m-12.42.33,19.71-.38a16.65,16.65,0,0,1,.15,2.84,48.77,48.77,0,0,1-2.05,5.1v2.43h-5.6v-2.18a5.89,5.89,0,0,1,1.05-5.83v-5.25a1.25,1.25,0,0,1,1.42-1.28,1.23,1.23,0,0,1,1.41,1.23V703c0,.09.11.27.48.27s.51-.29.49-.39c-.08-.73-.2-2-.2-2a15.6,15.6,0,0,1,2.43.35v-8.81c-6.29-1.46-12.59,1.66-18.88.21v8.81l.78.16.27,0,.51.07.32,0,.46,0,.34,0,.44,0H1056l.35,0,.43,0,.35,0,.44,0,.34,0,.46,0,.32,0,.49-.06.29,0,.56-.07h0l.2,0,.83-.11h.09l.67-.09.24,0,1.27-.15" transform="translate(-560.13 -322.27)"/>
            <path class="icon3" d="M1163.74,636a5,5,0,0,0-.72,1.4h-.43s-1,0-1-.82,1-.78,1-.78h1.12S1163.74,635.83,1163.74,636Zm3.13-10.86a44,44,0,0,0-5.64.5,44,44,0,0,1-5.75.51,17.4,17.4,0,0,1-3.33-.3v8a16.39,16.39,0,0,0,3.33.32,40.77,40.77,0,0,0,5.21-.44l.42-.06c.82-.11,1.66-.21,2.5-.31h.13c0-1.06,0-1.8,0-2a3.9,3.9,0,0,1-2.61,1.61,2.85,2.85,0,0,1-3.3-2.91,3.85,3.85,0,0,1,3.3-3.68,2.85,2.85,0,0,1,3.3,2.91,3.44,3.44,0,0,1,0,.36,2.13,2.13,0,0,1,1.59-.59,2.17,2.17,0,0,1,2.26,2.19v2h0l.94.09h.07l.93.15v-8A16.44,16.44,0,0,0,1166.88,625.09Zm-6.45,9.41c.13.94,1.38.94,1.38.94h2v-1.35m-12.42.33M1171,634a16.65,16.65,0,0,1,.15,2.84,48.77,48.77,0,0,1-2.05,5.1v2.43h-5.6v-2.18a5.89,5.89,0,0,1,1.05-5.83v-5.25a1.25,1.25,0,0,1,1.42-1.28,1.23,1.23,0,0,1,1.41,1.23v4.52c0,.09.11.27.48.27s.51-.29.49-.39c-.08-.73-.2-2-.2-2a15.6,15.6,0,0,1,2.43.35v-8.81c-6.29-1.46-12.59,1.66-18.88.21v8.81l.78.16.27,0,.51.07.32,0,.46,0,.34,0,.44,0h1.56l.35,0,.43,0,.35,0,.44,0,.34,0,.46,0,.32,0,.49-.06.29,0,.56-.07h0l.2,0,.83-.11h.09l.67-.09.24,0,1.27-.15" transform="translate(-560.13 -322.27)"/>
            <path class="icon3" d="M127.4,114.9c-0.3,0.4-0.6,0.9-0.7,1.4h-0.4c0,0-1,0-1-0.8s1-0.8,1-0.8h1.1C127.4,114.7,127.4,114.8,127.4,114.9z M130.5,104c-1.9,0-3.8,0.2-5.6,0.5c-1.9,0.3-3.8,0.5-5.8,0.5c-1.1,0-2.2-0.1-3.3-0.3v8c1.1,0.2,2.2,0.3,3.3,0.3c1.7,0,3.5-0.2,5.2-0.4l0.4-0.1c0.8-0.1,1.7-0.2,2.5-0.3h0.1c0-1.1,0-1.8,0-2c-0.6,0.9-1.6,1.5-2.6,1.6c-1.6,0.2-3-0.8-3.3-2.4c0-0.2,0-0.4,0-0.5c0.1-1.9,1.5-3.4,3.3-3.7c1.6-0.2,3,0.8,3.3,2.4c0,0.2,0,0.4,0,0.5c0,0.1,0,0.2,0,0.4c0.4-0.4,1-0.6,1.6-0.6c1.2,0,2.2,0.9,2.3,2.1c0,0,0,0.1,0,0.1v2l0,0l0.9,0.1h0.1l0.9,0.2v-8C132.8,104.2,131.7,104,130.5,104L130.5,104z M124.1,113.4c0.1,0.9,1.4,0.9,1.4,0.9h2V113 M115.1,113.4l19.7-0.4c0.1,0.9,0.2,1.9,0.2,2.8c-0.6,1.7-1.3,3.4-2.1,5.1v2.4h-5.6v-2.2c-0.7-2-0.3-4.2,1.1-5.8v-5.3c0-0.7,0.5-1.3,1.2-1.3c0.1,0,0.1,0,0.2,0c0.7-0.1,1.3,0.4,1.4,1c0,0.1,0,0.1,0,0.2v4.5c0,0.1,0.1,0.3,0.5,0.3s0.5-0.3,0.5-0.4c-0.1-0.7-0.2-2-0.2-2c0.8,0.1,1.6,0.2,2.4,0.3V104c-6.3-1.5-12.6,1.7-18.9,0.2v8.8l0.8,0.2h0.3l0.5,0.1h0.3h0.5h0.3h0.4h1.5h0.3h0.4h0.3h0.4h0.3h0.5h0.3l0.5-0.1h0.3l0.6-0.1l0,0h0.2l0.8-0.1h0.1l0.7-0.1h0.2l1.3-0.2"/>
        </g>

        <g class="elevator" data-name="Ліфт">
            <path class="icon4" d="M806.86,531.56a.36.36,0,0,0-.36.36v19.62a.34.34,0,0,0,.36.36H817a.34.34,0,0,0,.36-.36V531.93a.34.34,0,0,0-.36-.36ZM817,552.63H806.86a1.07,1.07,0,0,1-1.09-1.09V531.93a1.07,1.07,0,0,1,1.09-1.09H817a1.07,1.07,0,0,1,1.09,1.09v19.62a1.07,1.07,0,0,1-1.09,1.09Zm-5.09-13.08a2.18,2.18,0,1,0,2.18,2.18,2.19,2.19,0,0,0-2.18-2.18Zm0,5.09a2.91,2.91,0,1,1,2.91-2.91,2.91,2.91,0,0,1-2.91,2.91Zm0-11.26a.15.15,0,0,0-.15.07l-2.4,3.2h5.09l-2.4-3.2a.15.15,0,0,0-.15-.07Zm2.54,4h-5.09a.69.69,0,0,1-.65-.4.72.72,0,0,1,.07-.76l2.4-3.2a1,1,0,0,1,.73-.36h0a1,1,0,0,1,.73.36l2.4,3.2a.72.72,0,0,1-.58,1.16Zm-5.09,9.45h0l2.4,3.23a.27.27,0,0,0,.15,0h0s.07,0,.15-.07l2.4-3.2Zm2.54,4h0a1,1,0,0,1-.73-.36l-2.4-3.2a.72.72,0,0,1-.07-.76.77.77,0,0,1,.65-.4h5.09a.69.69,0,0,1,.65.4.72.72,0,0,1-.07.76l-2.4,3.23a.91.91,0,0,1-.73.33Z" transform="translate(-560.13 -322.27)"/>
        </g>

        <g class="toilet" data-name="Туалет">
            <path class="icon4" d="M1170.85,499.49l1,3.62c.19.8.38,1.55.52,2.29h0c.16-.72.4-1.49.64-2.28l1.17-3.64h1.09l1.11,3.58c.27.84.47,1.61.64,2.34h0a22,22,0,0,1,.54-2.32l1-3.6h1.29l-2.31,7.16h-1.18l-1.09-3.42c-.25-.81-.46-1.52-.64-2.36h0a21.13,21.13,0,0,1-.65,2.38l-1.15,3.4h-1.18l-2.16-7.16Zm15.32,6.89a5,5,0,0,1-2.05.41,3.4,3.4,0,0,1-3.57-3.65,3.65,3.65,0,0,1,3.85-3.81,4.08,4.08,0,0,1,1.8.39l-.29,1a3.19,3.19,0,0,0-1.51-.34,2.48,2.48,0,0,0-2.53,2.7,2.45,2.45,0,0,0,2.49,2.68,3.71,3.71,0,0,0,1.59-.34Z" transform="translate(-560.13 -322.27)"/>
        </g>

        <g class="infostructure" data-name="Інфостійка">
            <path class="icon4" d="M524.7,197.3c-4.6,0-8.3,3.7-8.3,8.3s3.7,8.3,8.3,8.3c4.6,0,8.3-3.7,8.3-8.3v0C533,201,529.3,197.3,524.7,197.3z M524.7,212.9c-4,0-7.3-3.3-7.3-7.3s3.3-7.3,7.3-7.3c4,0,7.3,3.3,7.3,7.3C532,209.6,528.7,212.9,524.7,212.9z M525.7,202.3c0,0.5-0.4,0.9-0.9,0.9c-0.5,0-0.9-0.4-0.9-0.9c0-0.5,0.4-0.9,0.9-0.9l0,0C525.3,201.4,525.7,201.8,525.7,202.3z M524.6,204.5c-0.3,0-0.5,0.2-0.5,0.5l0,0v4.3c0.1,0.3,0.3,0.5,0.6,0.4c0.2,0,0.4-0.2,0.4-0.4V205C525.1,204.8,524.9,204.5,524.6,204.5L524.6,204.5L524.6,204.5z"/>
        </g>

        <g class="stairs" data-name="Сходи">
            <path class="icon4" d="M1155.85,687.67H1173v.8h-22.74v-.8H1155v-2.79h.8v2.79Zm3.19-3.19h.8v-.8h-.8v-2.79h-.8v2.79h-4.39v.8H1159Zm3.19-4h.8v-.8h-.8V676.9h-.8v2.79H1157v.8h5.19Zm3.19-4h.8v-.8h-.8v-2.79h-.8v2.79h-4.39v.8h5.19Zm-2-4.79v.8h6v-.8Z" transform="translate(-560.13 -322.27)"/>
            <path class="icon4" d="M565.72,439.08h17.15v.8H560.13v-.8h4.79v-2.79h.8v2.79Zm3.19-3.19h.8v-.8h-.8V432.3h-.8v2.79h-4.39v.8h5.19Zm3.19-4h.8v-.8h-.8v-2.79h-.8v2.79h-4.39v.8h5.19Zm3.19-4h.8v-.8h-.8v-2.79h-.8v2.79H570.1v.8h5.19Zm-2-4.79v.8h6v-.8Z" transform="translate(-560.13 -322.27)"/>
        </g>
    </g>

    <g class="text">
        <text class="text1" transform="translate(311 519)">вул. Соборна</text>
        <text class="text1" transform="translate(676 393)">Майдан
            <tspan x="-10" y="21">Короленка</tspan>
        </text>
        <text class="text2" data-elem="floor1_area2" transform="translate(288 300)">Brocard</text>
        <text class="text2" data-elem="floor1_area5" transform="translate(196 207)">Arber</text>
        <text class="text2" data-elem="floor1_area6" transform="translate(140 186)">Top Secret</text>
        <text class="text2" data-elem="floor1_area7" transform="translate(113 146)">Cropp
            <tspan x="2" y="16">Town</tspan>
        </text>
        <text class="text2" data-elem="floor1_area8" transform="translate(30 132)">Кредобанк</text>
        <text class="text2" data-elem="floor1_area9" transform="translate(210 76)">CCC</text>
        <text class="text2" data-elem="floor1_area10" transform="translate(295 115)">Tatuum</text>
        <text class="text2" data-elem="floor1_area11" transform="translate(350 131)">Space/Poza</text>
        <text class="text2" data-elem="floor1_area12" transform="translate(370 166)">Gloria</text>
        <text class="text2" data-elem="floor1_area13" transform="translate(427 145)">Дека</text>
        <text class="text2" data-elem="floor1_area15" transform="translate(430 193)">Seta
            <tspan x="-5" y="16">Decor</tspan>
        </text>
        <text class="text2" data-elem="floor1_area16" transform="translate(445 244)">Золотий</tspan>
            <tspan x="17" y="16">вік</tspan>
        </text>
        <text class="text2" data-elem="floor1_area18" transform="translate(312 38)">Medicine</text>
        <text class="text2" data-elem="floor1_area19" transform="translate(425 72)">Motor</text>
        <text class="text2" data-elem="floor1_area20" transform="translate(479 102)">Levi’s</text>
        <text class="text2" data-elem="floor1_area21" transform="translate(536 144)">Mega</tspan>
            <tspan x="-1" y="16">Vision</tspan>
        </text>
        <text class="text2" data-elem="floor1_area22" transform="translate(565 194)">KSD
            <tspan x="-6" y="16">Aurum</tspan>
        </text>
        <text class="text2" data-elem="floor1_area23" transform="translate(694 198)">McDonalds</text>
        <text class="text2" data-elem="floor1_area25" transform="translate(529 391)">Ringoo</text>
    </g>
</svg>

