<svg width="24" height="31" viewBox="0 0 24 31" fill="none" xmlns="http://www.w3.org/2000/svg">
<path d="M14.4573 12.0744C12.641 11.0498 11.0254 10.0296 9.44132 8.95946C8.83172 8.54602 8.78262 8.0726 9.33837 7.5963C11.041 6.1107 13.0016 5.20924 15.3151 5.19865C16.5673 5.19187 17.391 4.60645 17.9191 3.54047C17.9781 3.4222 18.0976 3.30599 17.9472 3.18547C17.3054 2.66654 18.1197 2.43234 18.1881 2.052C18.2306 1.80493 18.3858 1.56982 18.7764 1.7759C18.9999 1.90196 19.1621 1.52281 19.0594 1.45062C18.4505 1.02686 19.043 0.728193 19.1483 0.402468C19.2967 -0.0486474 19.542 -0.0885837 19.9807 0.125074C21.2386 0.76341 22.4602 1.46326 23.6597 2.20054C24.0685 2.45258 24.091 2.66671 23.8233 3.00599C23.7068 3.1605 23.6056 3.32552 23.5212 3.4988C23.41 3.71776 23.2668 3.7725 23.0526 3.63383C22.9211 3.54894 22.8303 3.60113 22.7662 3.72187C22.7093 3.81815 22.6079 3.94989 22.7502 4.01951C23.1855 4.23297 22.9356 4.48065 22.8014 4.71696C22.6829 4.91754 22.5644 5.11811 22.4467 5.31735C22.389 5.41496 22.3084 5.58522 22.2054 5.5289C21.6564 5.22811 21.6005 5.72251 21.4357 5.98609C20.8909 6.84657 20.9153 7.73392 21.4162 8.57103C22.5848 10.5567 22.8015 12.6651 22.3392 14.8772C22.1772 15.6558 21.7606 15.838 21.0105 15.4933C18.7126 14.4412 16.4878 13.2592 14.4573 12.0744Z" fill="#C2D5FC"/>
<path d="M9.92071 21.013C7.96934 19.9371 6.0839 18.7558 4.24048 17.5126C3.53457 17.0377 3.43293 16.5917 3.86892 15.8445C4.39196 14.9593 4.91499 14.0741 5.43724 13.1903C6.07878 12.1045 6.47602 12.0041 7.54312 12.7256C10.2187 14.5132 12.996 16.1508 15.8616 17.6306C16.8835 18.1642 17.9365 18.6389 18.971 19.1511C19.7653 19.544 19.903 20.0335 19.4624 20.7977C18.8966 21.7717 18.3243 22.7402 17.7456 23.7033C17.3166 24.4294 16.8522 24.5543 16.0671 24.1827C13.9728 23.2134 11.9079 22.1697 9.92071 21.013Z" fill="#C2D5FC"/>
<path d="M5.74042 28.3554C4.0028 27.3359 2.80866 26.5927 1.63879 25.8115C-0.107834 24.6443 -0.462091 23.1715 0.594248 21.3837C1.41988 19.9863 1.40566 20.0104 2.75932 20.9203C6.38749 23.3653 10.2177 25.5106 14.2105 27.3341C15.1858 27.7773 15.2485 27.9357 14.7099 28.8442C14.6008 29.0287 14.4926 29.2119 14.3836 29.3964C13.4828 30.8994 11.958 31.3923 10.3331 30.6771C8.57454 29.899 6.88326 28.9948 5.74042 28.3554Z" fill="#C2D5FC"/>
<path d="M13.5451 15.1987C11.4638 14.0353 9.43841 12.7833 7.46895 11.4428C6.78973 10.9812 6.79029 10.682 7.47535 9.75628C7.81788 9.29341 8.08735 9.28319 8.67185 9.68068C12.5135 12.2928 16.5737 14.5833 20.8097 16.5282C21.4754 16.8343 21.5846 17.0616 21.3271 17.6295C20.8694 18.6194 20.5967 18.7704 19.8616 18.4341C17.7055 17.4495 15.6022 16.3664 13.5451 15.1987Z" fill="#C2D5FC"/>
<path d="M9.15751 23.633C6.95559 22.3908 4.69657 21.0361 2.53938 19.5214C2.00437 19.1447 1.98467 18.8983 2.43356 18.2708C2.77265 17.7953 3.10793 17.9719 3.48332 18.2283C6.98887 20.6355 10.6869 22.7629 14.542 24.59C15.0024 24.807 15.4573 25.0333 15.9259 25.2334C16.3607 25.4199 16.5385 25.6878 16.3123 26.1414C16.0009 26.7698 15.7498 26.9027 15.2336 26.6757C13.1885 25.7769 11.2122 24.7493 9.15751 23.633Z" fill="#C2D5FC"/>
</svg>
