<?xml version="1.0" encoding="UTF-8"?>
<svg width="16px" height="24px" viewBox="0 0 16 24" version="1.1" xmlns="http://www.w3.org/2000/svg" xmlns:xlink="http://www.w3.org/1999/xlink">
    <title>award</title>
    <g id="Landing-page" stroke="none" stroke-width="1" fill="none" fill-rule="evenodd">
        <g id="10_Landing-page-1" transform="translate(-1466.000000, -752.000000)" fill="#40AC60" fill-rule="nonzero">
            <g id="sidebar" transform="translate(1313.000000, 140.000000)">
                <g id="Satisfied-customers" transform="translate(0.000000, 530.000000)">
                    <g id="Samples" transform="translate(0.000000, 63.000000)">
                        <g id="Group" transform="translate(95.000000, 19.000000)">
                            <g id="award" transform="translate(58.000000, 0.000000)">
                                <path d="M8,0.25 C12.2802068,0.25 15.75,3.71979319 15.75,8 C15.75,10.5600699 14.5086972,12.8302181 12.5951299,14.241406 L13.7434848,22.9013578 C13.8214971,23.4893513 13.2251566,23.9165409 12.7049806,23.6899865 L12.6141282,23.6431197 L8,20.874 L3.38587182,23.6431197 C2.87721289,23.9483151 2.24824489,23.5706628 2.24959295,23.0032522 L2.25652928,22.9012514 L3.40586248,14.2421377 C1.491732,12.8310029 0.25,10.5605125 0.25,8 C0.25,3.71979319 3.71979319,0.25 8,0.25 Z M11.1911524,15.0646015 C10.2179704,15.5048903 9.13760939,15.75 8,15.75 C6.86277887,15.75 5.78276709,15.5050576 4.80984403,15.0650522 L3.948,21.556 L7.61412818,19.3568803 C7.81770972,19.2347314 8.0647912,19.2172815 8.28080129,19.3045308 L8.38587182,19.3568803 L12.051,21.556 L11.1911524,15.0646015 Z M8,1.75 C4.54822031,1.75 1.75,4.54822031 1.75,8 C1.75,11.4517797 4.54822031,14.25 8,14.25 C9.21975457,14.25 10.3578991,13.9005857 11.3197995,13.296391 C11.3555222,13.2666853 11.3948955,13.2405137 11.4367953,13.2181455 C13.1322183,12.1021833 14.25,10.1816276 14.25,8 C14.25,4.54822031 11.4517797,1.75 8,1.75 Z" id="Shape"></path>
                            </g>
                        </g>
                    </g>
                </g>
            </g>
        </g>
    </g>
</svg>