<svg width="15" height="15" viewBox="0 0 15 15" fill="none" xmlns="http://www.w3.org/2000/svg">
<path fill-rule="evenodd" clip-rule="evenodd" d="M12.3975 5.00665C12.3975 5.70665 12.247 6.37328 11.9765 6.9789L14.2394 10.7663C14.6599 11.4699 14.1016 12.3528 13.2857 12.2746L11.3178 12.0862L10.4803 13.8587C10.1385 14.582 9.12797 14.6311 8.71767 13.9444L7.20051 11.405L5.68335 13.9444C5.27305 14.6311 4.26253 14.582 3.92076 13.8587L3.08322 12.0862L1.11537 12.2746C0.299425 12.3528 -0.258789 11.4699 0.161625 10.7663L2.4245 6.9789C2.154 6.37328 2.00355 5.70665 2.00355 5.00665C2.00355 2.24599 4.33491 0 7.20051 0C10.0661 0 12.3975 2.24599 12.3975 5.00665ZM2.72865 10.2334L4.27891 10.085L4.92437 11.4511L5.88133 9.8494C5.03981 9.63649 4.28157 9.22457 3.66294 8.66971L2.72865 10.2334ZM10.122 10.085L9.47659 11.451L8.51963 9.84934C9.36115 9.63643 10.1194 9.22451 10.738 8.66965L11.6724 10.2334L10.122 10.085ZM10.3514 4.96339C10.3514 3.25316 8.93728 1.86179 7.19908 1.86179C5.46082 1.86179 4.04675 3.25316 4.04675 4.96339C4.04675 6.6736 5.46089 8.06498 7.19908 8.06498C8.93728 8.06498 10.3514 6.6736 10.3514 4.96339Z" fill="white"/>
</svg>
