<?xml version="1.0" encoding="UTF-8"?>
<svg width="15px" height="15px" viewBox="0 0 15 15" version="1.1" xmlns="http://www.w3.org/2000/svg" xmlns:xlink="http://www.w3.org/1999/xlink">
    <!-- Generator: Sketch 53 (72520) - https://sketchapp.com -->
    <title>Combined Shape</title>
    <desc>Created with Sketch.</desc>
    <g id="Home-page" stroke="none" stroke-width="1" fill="none" fill-rule="evenodd">
        <g id="Desktop-Home-page" transform="translate(-1330.000000, -853.000000)" fill="#2C2C2C" fill-rule="nonzero">
            <g id="Text" transform="translate(277.000000, 751.000000)">
                <g transform="translate(467.000000, 59.000000)" id="CTA">
                    <g transform="translate(0.000000, 37.000000)">
                        <g id="Title" transform="translate(577.000000, 0.000000)">
                            <path d="M20.976604,12.9788997 L23.2395217,16.7662854 C23.3488358,16.9492415 23.3968382,17.1623372 23.3765277,17.3744928 C23.3238961,17.924264 22.835552,18.3272752 22.2857809,18.2746435 L20.317889,18.0862498 L19.4803483,19.8586909 C19.395593,20.0380538 19.259405,20.1881551 19.0891059,20.2899034 C18.614997,20.5731687 18.001024,20.4184593 17.7177588,19.9443503 L16.2005957,17.4050319 L14.6834325,19.9443503 C14.5816842,20.1146494 14.4315829,20.2508374 14.25222,20.3355927 C13.7528776,20.5715495 13.1567999,20.3580333 12.920843,19.8586909 L12.0833023,18.0862498 L10.1154576,18.2746421 C9.90330447,18.2949526 9.69021113,18.246952 9.50725615,18.1376407 C9.03314881,17.8543728 8.87844285,17.2403989 9.16171071,16.7662916 L11.4245873,12.9788997 C11.1540854,12.3732824 11.0036333,11.7066465 11.0036333,11.0066537 C11.0036333,8.24598484 13.3349906,6 16.2005957,6 C19.0662007,6 21.397558,8.24598484 21.397558,11.0066537 C21.397558,11.7066465 21.2471059,12.3732824 20.976604,12.9788997 Z M13.2789934,16.0850277 L13.9244561,17.4510932 L14.8814117,15.8494021 C14.0398936,15.6364941 13.2816568,15.2245717 12.6630234,14.6697093 L11.7287395,16.2334124 L13.2789934,16.0850277 Z M19.122133,16.0850277 L20.6724518,16.2334124 L19.7381029,14.6696467 C19.1194695,15.2245091 18.3612327,15.6364315 17.5197146,15.8493395 L18.4766703,17.4510306 L19.122133,16.0850277 Z M16.1991672,7.86178864 C14.46091,7.86178864 13.0468383,9.25316479 13.0468383,10.9633851 C13.0468383,12.6736053 14.460973,14.0649815 16.1991672,14.0649815 C17.9373614,14.0649815 19.3514961,12.6736053 19.3514961,10.9633851 C19.3514961,9.25316479 17.9373614,7.86178864 16.1991672,7.86178864 Z" id="Combined-Shape"></path>
                        </g>
                    </g>
                </g>
            </g>
        </g>
    </g>
</svg>