<?xml version="1.0" encoding="UTF-8"?>
<svg width="23px" height="22px" viewBox="0 0 23 22" version="1.1" xmlns="http://www.w3.org/2000/svg" xmlns:xlink="http://www.w3.org/1999/xlink">
    <title>Star</title>
    <g id="z" stroke="none" stroke-width="1" fill="none" fill-rule="evenodd">
        <g id="1_Home-page" transform="translate(-1131.000000, -3327.000000)" fill="#FDA650" stroke="#F59C44">
            <g id="Testimonial" transform="translate(0.000000, 3082.000000)">
                <g id="1" transform="translate(607.000000, 222.000000)">
                    <g id="Group-4" transform="translate(21.000000, 23.000000)">
                        <g id="Star" transform="translate(503.000000, 0.000000)">
                            <path d="M11.404552,0.517612973 C11.6638578,0.546963362 11.7102621,0.591036283 11.7355867,0.647201799 L11.7355867,0.647201799 L15.0229446,7.93798478 L22.260052,8.36688863 C22.3314071,8.37111745 22.3947823,8.40252041 22.4388707,8.45130854 C22.4795881,8.49636646 22.5035567,8.55648651 22.4995461,8.62153816 C22.4959579,8.67973778 22.4700162,8.73420997 22.427969,8.77518198 L22.427969,8.77518198 L17.1993552,13.8700932 L18.460439,21.2202834 C18.4713885,21.2841021 18.4543894,21.3460241 18.4189928,21.3947655 C18.4044843,21.4147438 18.3869589,21.4325193 18.3669779,21.4475155 L18.3669779,21.4475155 L11.4942601,18.0124985 L4.9167544,21.4693258 C4.8524551,21.5031185 4.78028224,21.5079281 4.715612,21.4887762 C4.69398934,21.4823728 4.67312977,21.4732515 4.65372327,21.4615143 L4.65372327,21.4615143 L5.7959222,13.865515 L0.57200683,8.77518198 C0.52479822,8.72918055 0.500191684,8.66900441 0.500001139,8.60829763 C0.499810694,8.54762247 0.524017384,8.48732517 0.570913848,8.44106192 C0.61595925,8.39662474 0.676307303,8.37065883 0.739923837,8.36688863 L0.739923837,8.36688863 L7.97703125,7.93798478 L11.2643892,0.647201799 C11.2925629,0.58471729 11.3446114,0.540349933 11.404552,0.517612973 Z"></path>
                        </g>
                    </g>
                </g>
            </g>
        </g>
    </g>
</svg>