<svg width="26" height="26" fill="none" xmlns="http://www.w3.org/2000/svg"><path d="M26 14.583c0-.897-.731-1.631-1.625-1.631h-.538V2.075a2.075 2.075 0 0 0-3.54-1.468l-1.335 1.34-.158-.158a.525.525 0 0 0-.472-.153l-2.707.444a.542.542 0 0 0-.426.367.54.54 0 0 0 .127.55l3.25 3.359a.533.533 0 0 0 .386.163.53.53 0 0 0 .533-.433l.543-2.717a.542.542 0 0 0-.147-.49l-.157-.157 1.335-1.34a.988.988 0 0 1 1.686.698v10.872H1.625a1.633 1.633 0 0 0-.421 3.206L2.6 21.066a3.803 3.803 0 0 0 3.565 2.758l-.69 1.391a.544.544 0 0 0 .487.785.538.538 0 0 0 .482-.3l.934-1.876h11.249l.934 1.875a.543.543 0 1 0 .97-.484l-.691-1.391a3.815 3.815 0 0 0 3.57-2.758l1.397-4.908A1.637 1.637 0 0 0 26 14.583zm-7.373-9.72l-1.808-1.871 1.411-.23.681.684-.284 1.417zM1.625 14.037h22.75a.544.544 0 0 1 0 1.091H1.625a.545.545 0 0 1 0-1.09zm20.739 6.728a2.72 2.72 0 0 1-2.605 1.973H6.241a2.72 2.72 0 0 1-2.605-1.973L2.34 16.214h21.313l-1.29 4.551z" fill="#2C77BB"/></svg>