<svg width="26" height="26" fill="none" xmlns="http://www.w3.org/2000/svg"><path d="M4.522 16.391v9.044c0 .31.254.565.565.565h15.826a.573.573 0 0 0 .403-.163.56.56 0 0 0 .162-.402V16.39A7.351 7.351 0 0 0 26 9.61c0-4.049-3.299-7.348-7.348-7.348-.12 0-.233.007-.346.014A7.334 7.334 0 0 0 13 0a7.334 7.334 0 0 0-5.306 2.275 5.66 5.66 0 0 0-.346-.014C3.299 2.26 0 5.56 0 9.609c0 3.052 1.872 5.673 4.522 6.782zm1.13 8.479v-2.261h14.696v2.26H5.652zM6.804 3.42a7.252 7.252 0 0 0-1.152 3.928c0 4.048 3.3 7.348 7.348 7.348a.567.567 0 0 0 .565-.566.567.567 0 0 0-.565-.565 6.226 6.226 0 0 1-6.217-6.217A6.226 6.226 0 0 1 13 1.13a6.226 6.226 0 0 1 6.217 6.218c0 .31.255.565.566.565.31 0 .565-.254.565-.565a7.25 7.25 0 0 0-1.152-3.928c3.172.275 5.674 2.946 5.674 6.189a6.227 6.227 0 0 1-6.218 6.217.567.567 0 0 0-.565.565c0 .311.254.566.565.566.587 0 1.152-.078 1.696-.205v4.726H5.652v-4.726a7.425 7.425 0 0 0 1.696.204.567.567 0 0 0 .565-.565.567.567 0 0 0-.565-.565A6.227 6.227 0 0 1 1.13 9.61c0-3.243 2.502-5.914 5.674-6.19z" fill="#2C77BB"/></svg>