<svg width="26" height="22" fill="none" xmlns="http://www.w3.org/2000/svg"><path d="M25.492 0H.508A.513.513 0 0 0 0 .515v2.576c0 .603.305 1.139.762 1.453v16.94c0 .284.228.516.508.516h23.46c.28 0 .508-.232.508-.515V4.545C25.7 4.23 26 3.694 26 3.09V.515A.513.513 0 0 0 25.492 0zM1.016 1.03h23.968v2.061c0 .397-.32.722-.711.722h-3.671a.513.513 0 0 0-.508.515c0 .283.229.515.508.515h.929v1.752H4.469V4.843h10.263a.513.513 0 0 0 .507-.515.513.513 0 0 0-.507-.515H1.727a.718.718 0 0 1-.711-.722v-2.06zm2.437 17.843v2.097H1.777V4.843h1.676v9.913c0 .283.229.515.508.515a.513.513 0 0 0 .508-.515V7.63h17.062v10.727h-2.158v-1.159c0-.768-.614-1.386-1.366-1.386h-2.346c.503-.752.752-1.5.752-2.241 0-2.53-3.017-4.472-3.144-4.555a.507.507 0 0 0-.538 0c-.127.083-3.143 2.025-3.143 4.555 0 .742.253 1.494.751 2.241H7.993c-.757 0-1.366.624-1.366 1.386v1.16H3.961a.51.51 0 0 0-.508.515zm8.658-3.169c0-.51.518-1.04.889-1.345.371.304.889.835.889 1.345 0 .036 0 .067-.005.103h-1.763c-.01-.036-.01-.067-.01-.103zm2.727-.505c-.289-1.077-1.422-1.819-1.569-1.911a.507.507 0 0 0-.538 0c-.147.092-1.275.84-1.569 1.911-.315-.484-.564-1.046-.564-1.633 0-1.582 1.727-2.999 2.402-3.493.858.618 2.397 2.035 2.397 3.493 0 .587-.244 1.154-.559 1.633zm3.169 1.638c.193 0 .35.16.35.356v1.16H7.643v-1.16c0-.196.157-.356.35-.356h10.014zm-13.538 2.55h17.062v1.583H4.469v-1.582zm19.754 1.583h-1.676V4.843h1.676V20.97z" fill="#2C77BB"/></svg>