<svg width="24" height="26" fill="none" xmlns="http://www.w3.org/2000/svg"><path d="M22.313 16.577h.115A1.728 1.728 0 0 0 24 14.857c0-.977-.767-1.76-1.725-1.76-.192 0-.422.04-.614.118a.611.611 0 0 0-.613.626.61.61 0 0 0 .613.625.543.543 0 0 0 .46-.234.573.573 0 0 1 .691.547.596.596 0 0 1-.576.586h-3.527V2.385c0-1.486-.613-2.268-1.802-2.307C14.875-.039 12.767 0 10.735.04c-.997 0-2.07.04-3.106.04-1.495 0-2.3.625-2.338 1.837a25.942 25.942 0 0 0 0 2.463v11.026H1.725a.596.596 0 0 1-.575-.587c0-.313.269-.586.575-.586.039 0 .115 0 .154.039a.612.612 0 0 0 .498.234.611.611 0 0 0 .613-.625c0-.352-.268-.626-.575-.626-.23-.078-.46-.156-.69-.156-.958 0-1.725.782-1.725 1.76 0 .977.767 1.758 1.725 1.758h1.917v8.211H1.725c-.383 0-.575.313-.575.586 0 .274.192.587.575.587h20.626c.384 0 .576-.313.576-.587 0-.273-.192-.586-.576-.586h-1.955v-8.21l1.917-.04zm-7.016 0v8.211h-2.76v-8.21h2.76zm-3.872 0v8.211h-2.76v-8.21h2.76zm7.783 0v8.211h-2.761v-8.21h2.761zM6.441 2.737c-.038-.782-.038-1.447.805-1.525.92-.04 1.84-.04 2.76 0 .46 0 .921.04 1.381.04h5.099c.191 0 .383-.04.536 0 .614.116.614.507.575 1.016v13.136H6.479V3.09a1.112 1.112 0 0 1-.038-.352zm1.073 13.84v8.211h-2.76v-8.21h2.76z" fill="#2C77BB"/></svg>