<svg width="30" height="21" fill="none" xmlns="http://www.w3.org/2000/svg"><path d="M29.468 0H15.443c-2.549 0-4.613 2.024-4.613 4.525v8.568l-6.589-8.41C3.768 3.153 2.337 2.108.713 2.095a.529.529 0 0 0-.532.523v8.24c0 .288.239.523.532.523a3.698 3.698 0 0 0 2.989-1.535l6.01 8.947a4.595 4.595 0 0 0 3.901 2.109h7.514c2.55 0 4.613-2.024 4.613-4.525V9.9c2.423-.268 4.253-2.28 4.26-4.67V.523A.53.53 0 0 0 29.468 0zm-4.793 16.371c0 1.92-1.591 3.48-3.548 3.48h-7.514a3.554 3.554 0 0 1-3.009-1.632L4.108 8.535a.548.548 0 0 0-.446-.235h-.054a.523.523 0 0 0-.439.326 2.665 2.665 0 0 1-1.923 1.64v-7.08a2.68 2.68 0 0 1 2.003 1.881.57.57 0 0 0 .087.17l7.601 9.704c.18.228.512.274.745.098a.514.514 0 0 0 .207-.412V4.525c0-1.92 1.59-3.48 3.547-3.48h9.232V16.37h.007zM25.74 3.135h1.065v2.09c0 .665-.426 1.253-1.065 1.475V3.134zm3.195 2.09c0 1.815-1.364 3.356-3.195 3.617V7.784c1.238-.248 2.13-1.32 2.13-2.56V2.612a.53.53 0 0 0-.532-.522H25.74V1.045h3.195v4.18z" fill="#2C77BB"/></svg>