<svg width="25" height="25" fill="none" xmlns="http://www.w3.org/2000/svg"><path d="M20.554 4.832v2.31h-.21V1.05h4.111A.556.556 0 0 0 25 .504C25 .21 24.706 0 24.455 0h-4.698c-.042 0-.084 0-.126.042-.042 0-.084.042-.084.042s-.042 0-.042.042L1.678 14.832a.382.382 0 0 0-.168.336c0 .126.042.294.126.378.168.21.503.252.755.084l.545-.504v5.462H1.049A1.04 1.04 0 0 0 0 21.638V25h24.958V3.782h-3.356c-.587 0-1.048.462-1.048 1.05zm-4.405 5.672v-6.26l3.146-2.605v5.504h-1.887a1.04 1.04 0 0 0-1.049 1.05v2.311h-.21zM5.243 20.588v-2.31h3.146a1.04 1.04 0 0 0 1.049-1.051v-2.311h3.146a1.04 1.04 0 0 0 1.049-1.05v-2.311h3.775V8.193h3.146c.587 0 1.048-.462 1.048-1.05V4.832h2.307V23.95H1.049v-2.311h3.146c.587 0 1.048-.462 1.048-1.05zm9.858-10.084h-1.468a1.04 1.04 0 0 0-1.049 1.05v2.312h-.21V7.353l2.727-2.227v5.378zm-3.775 3.362H9.438a1.04 1.04 0 0 0-1.049 1.05v2.31H8.18v-6.428l3.146-2.605v5.673zm-4.195 3.36H5.243a1.04 1.04 0 0 0-1.048 1.051v2.311h-.21v-6.344l3.146-2.605v5.588z" fill="#2C77BB"/></svg>