<svg width="100" height="100" viewBox="0 0 100 100" fill="none" xmlns="http://www.w3.org/2000/svg">
<g clip-path="url(#clip0)">
<path d="M-2.18557e-06 50C-9.80373e-07 22.4283 22.4283 9.80373e-07 50 2.18557e-06C77.5717 3.39077e-06 100 22.4283 100 50C100 77.5717 77.5678 100 50 100C22.4322 100 -3.39077e-06 77.5717 -2.18557e-06 50ZM92.2541 50C92.2541 26.7041 73.2998 7.7459 50 7.7459C26.7002 7.7459 7.7459 26.7041 7.7459 50C7.7459 73.2998 26.7002 92.2541 50 92.2541C73.2998 92.2541 92.2541 73.2959 92.2541 50Z" fill="#FF4A4A" fill-opacity="0.7"/>
<path d="M55.3449 72.1151L35.9801 52.7502C34.4773 51.2397 34.4773 48.7998 35.9801 47.2893L55.3449 27.9244C56.7934 26.6813 58.9352 26.6813 60.3836 27.9244C62.0064 29.3149 62.1961 31.7625 60.8057 33.3854L44.1908 50.0004L60.8059 66.6541C62.3086 68.1647 62.3086 70.6045 60.8059 72.1151C59.2953 73.6178 56.8553 73.6178 55.3449 72.1151Z" fill="#FF4A4A" fill-opacity="0.7"/>
</g>
<defs>
<clipPath id="clip0">
<rect width="100" height="100" fill="white" transform="matrix(-4.37114e-08 1 1 4.37114e-08 0 0)"/>
</clipPath>
</defs>
</svg>
