<svg width="16" height="24" viewBox="0 0 16 24" fill="none" xmlns="http://www.w3.org/2000/svg">
<path d="M15.6197 0.371796C15.3944 0.166667 15.1972 -3.51256e-07 15.1972 -3.51256e-07L8.01408 6.55128L0.816901 -1.88812e-08C0.816901 -1.88812e-08 0.633803 0.166667 0.408451 0.371796C0.183099 0.576924 1.71868e-08 0.74359 1.71868e-08 0.74359L7.59155 7.65385L8.01408 8C8.01408 8 8.29578 7.75641 8.40845 7.65385L16 0.74359C16 0.74359 15.8451 0.576924 15.6197 0.371796Z" fill="white"/>
<path d="M15.6197 8.3718C15.3944 8.16667 15.1972 8 15.1972 8L8.01408 14.5513L0.816901 8C0.816901 8 0.633803 8.16667 0.408451 8.3718C0.183099 8.57692 1.71868e-08 8.74359 1.71868e-08 8.74359L7.59155 15.6538L8.01408 16C8.01408 16 8.29578 15.7564 8.40845 15.6538L16 8.74359C16 8.74359 15.8451 8.57692 15.6197 8.3718Z" fill="white"/>
<path d="M15.6197 16.3718C15.3944 16.1667 15.1972 16 15.1972 16L8.01408 22.5513L0.816901 16C0.816901 16 0.633803 16.1667 0.408451 16.3718C0.183099 16.5769 1.71868e-08 16.7436 1.71868e-08 16.7436L7.59155 23.6538L8.01408 24C8.01408 24 8.29578 23.7564 8.40845 23.6538L16 16.7436C16 16.7436 15.8451 16.5769 15.6197 16.3718Z" fill="white"/>
</svg>
