<svg width="28" height="37" viewBox="0 0 28 37" fill="none" xmlns="http://www.w3.org/2000/svg">
<path d="M24.1974 0.0337952C25.5323 0.608314 26.2927 1.67286 26.7151 3.00777C27.5431 5.54241 27.4755 8.04326 26.242 10.4596C25.7519 11.4228 25.0591 12.2001 23.8594 12.217C22.6428 12.2339 21.9669 11.4566 21.4262 10.5272C20.5644 9.04022 20.3785 7.40115 20.4292 5.72829C20.4292 5.45793 20.4292 5.17067 20.4292 4.9003C19.314 4.59615 18.4015 5.17067 18.2832 6.47178C18.1818 7.68841 18.1818 8.95573 18.3677 10.1555C18.8577 13.2646 19.5505 16.34 20.0068 19.4491C20.5306 22.9807 20.5813 26.4954 19.2802 29.9256C16.7624 36.5833 8.97263 38.3745 3.4978 34.319C1.57148 32.8827 0.625211 30.8381 0.185874 28.5232C0.152078 28.3035 0.0675904 28.1007 0 27.8979C0 26.7151 0 25.5323 0 24.3494C0.0675904 24.1129 0.152078 23.8763 0.185874 23.6397C0.675904 20.6151 2.51774 18.4522 5.11997 18.1649C7.31666 17.9284 9.54714 17.9621 11.7607 17.8777C11.9635 18.6887 12.1325 19.3815 12.2846 20.0575C12.4366 20.7165 12.5718 21.3924 12.7239 22.1528C11.4228 22.1528 10.2737 22.1528 9.1247 22.1528C7.51943 22.1528 6.26901 22.8962 5.79588 24.4001C5.44103 25.5154 5.35654 26.7658 5.42413 27.9486C5.57621 30.1115 7.41805 31.852 9.68233 32.2406C11.3552 32.5279 13.0787 31.4126 14.0588 29.4356C14.7516 28.0162 14.9713 26.4954 15.0051 24.924C15.0727 21.5951 14.2278 18.4015 13.6195 15.174C13.0618 12.2001 12.707 9.22609 13.2139 6.20142C13.7546 2.92329 15.7824 0.77729 18.807 0.236566C19.1957 0.168976 19.5674 0.084488 19.9392 0C21.3755 0.0337952 22.7949 0.0337952 24.1974 0.0337952Z" fill="#ED0035"/>
</svg>
