<svg width="39" height="44" viewBox="0 0 39 44" fill="none" xmlns="http://www.w3.org/2000/svg">
<path fill-rule="evenodd" clip-rule="evenodd" d="M31.5766 0.825176C32.0785 0.378026 32.8435 0.40503 33.3126 0.886461L38.4877 6.19701C38.9173 6.6379 38.979 7.31963 38.6354 7.83045V7.83045C35.6615 12.3431 35.1231 17.5347 37.1228 22.4599C38.1739 25.0471 39.0456 28.2188 37.5074 32.1899C36.0888 35.7484 33.5507 37.9145 29.9102 38.6365C25.6458 39.5132 22.7488 40.8799 20.544 43.0975V43.0975C20.0433 43.6012 19.2337 43.6183 18.7121 43.1362L18.6981 43.1233C16.4848 40.8799 13.5878 39.5132 9.28071 38.6365C5.79403 37.9402 3.30722 35.9031 1.87153 32.5767C0.512753 29.3276 0.564027 26.2333 2.07663 22.4685C4.10197 17.5347 3.56359 12.3516 0.589665 7.83045V7.83045C0.245906 7.31933 0.306716 6.63738 0.735483 6.19514L5.86255 0.907063C6.3426 0.411937 7.12512 0.376057 7.64847 0.825176V0.825176C7.6741 0.850962 10.2122 3.09437 13.1861 3.09437C16.1857 3.09437 18.7238 0.773603 18.7494 0.747817V0.747817C19.235 0.318646 19.9621 0.311518 20.456 0.73109L20.4757 0.747817C20.5013 0.773603 23.0394 3.09437 26.0133 3.09437C29.0129 3.09437 31.551 0.850962 31.5766 0.825176V0.825176ZM28.2106 26.0451C28.4416 25.9087 28.7145 25.8247 29.0085 25.8247C29.8903 25.8247 30.6042 26.5384 30.6147 27.4306C30.6147 28.3227 29.8903 29.0364 29.0085 29.0364C28.1161 29.0364 27.4022 28.3122 27.4022 27.4306C27.4022 27.3256 27.3182 27.2416 27.2238 27.2311L23.3079 26.8008C22.72 26.7274 22.1636 27.0527 21.9221 27.5985L20.3264 31.2089C20.2949 31.2929 20.3264 31.3979 20.4104 31.4503C20.8933 31.7232 21.2188 32.248 21.2188 32.8358C21.2188 33.7279 20.4944 34.4416 19.6125 34.4416C18.7202 34.4416 18.0063 33.7174 18.0063 32.8358C18.0063 32.248 18.3318 31.7232 18.8147 31.4503C18.8987 31.4084 18.9407 31.3034 18.8987 31.2089L17.3029 27.5985C17.072 27.0632 16.5051 26.7378 15.9172 26.8008L12.0013 27.2311C11.8963 27.2416 11.8229 27.3256 11.8229 27.4306C11.8229 28.3227 11.0985 29.0364 10.2166 29.0364C9.32427 29.0364 8.61039 28.3122 8.61039 27.4306C8.61039 26.5384 9.33477 25.8247 10.2166 25.8247C10.5106 25.8247 10.7835 25.9087 11.0145 26.0451C11.0985 26.0976 11.2035 26.0766 11.2664 25.9927L13.5971 22.8125C13.9435 22.3297 13.9435 21.6895 13.5971 21.2067L11.2664 18.0266C11.214 17.9426 11.0985 17.9216 11.0145 17.9741C10.7835 18.1105 10.5106 18.1945 10.2166 18.1945C9.32427 18.1945 8.61039 17.4703 8.61039 16.5887C8.61039 15.6965 9.33477 14.9828 10.2166 14.9828C11.109 14.9828 11.8229 15.707 11.8229 16.5887C11.8229 16.6831 11.9068 16.7671 12.0013 16.7776L15.9172 17.2079C16.5051 17.2814 17.0615 16.956 17.3029 16.4102L18.8987 12.7998C18.9302 12.7158 18.8987 12.6109 18.8147 12.5584C18.3318 12.2855 18.0063 11.7607 18.0063 11.173C18.0063 10.2808 18.7307 9.56715 19.6125 9.56715C20.5049 9.56715 21.2188 10.2913 21.2188 11.173C21.2188 11.7607 20.8933 12.2855 20.4104 12.5584C20.3264 12.6004 20.2844 12.7053 20.3264 12.7998L21.9221 16.4102C22.1531 16.9455 22.72 17.2709 23.3079 17.2079L27.2238 16.7776C27.3287 16.7671 27.4022 16.6831 27.4022 16.5887C27.4022 15.6965 28.1266 14.9828 29.0085 14.9828C29.9008 14.9828 30.6147 15.707 30.6147 16.5887C30.6147 17.4808 29.8903 18.1945 29.0085 18.1945C28.7145 18.1945 28.4416 18.1105 28.2106 17.9741C28.1266 17.9216 28.0216 17.9426 27.9586 18.0266L25.628 21.2067C25.2816 21.6895 25.2816 22.3297 25.628 22.8125L27.9586 25.9927C28.0111 26.0766 28.1266 26.0976 28.2106 26.0451Z" fill="#ED0035"/>
</svg>
