<svg width="40" height="40" viewBox="0 0 40 40" fill="none" xmlns="http://www.w3.org/2000/svg">
<path d="M0 27.886C0 28.5331 0.524614 29.0577 1.17171 29.0577H14.0605C14.0603 29.0577 14.0601 29.0577 14.0597 29.0577H25.9347C25.9345 29.0577 25.9342 29.0577 25.9339 29.0577H38.8227C39.4698 29.0577 39.9944 28.5331 39.9944 27.886C39.9944 25.9446 38.4206 24.3708 36.4792 24.3708H3.51513C1.57378 24.3708 0 25.9446 0 27.886Z" fill="#ED0035"/>
<path d="M12.7324 14.295C12.0863 14.295 11.5605 14.8207 11.5605 15.4669C11.5605 16.1131 12.0863 16.6388 12.7324 16.6388C13.3786 16.6388 13.9043 16.1131 13.9043 15.4669C13.9043 14.8207 13.3786 14.295 12.7324 14.295Z" fill="#ED0035"/>
<path d="M26.8247 14.295C26.1785 14.295 25.6528 14.8207 25.6528 15.4669C25.6528 16.1131 26.1785 16.6388 26.8247 16.6388C27.4709 16.6388 27.9966 16.1131 27.9966 15.4669C27.9966 14.8207 27.4709 14.295 26.8247 14.295Z" fill="#ED0035"/>
<path d="M20.687 5.74286C20.46 5.5158 20.152 5.38824 19.8309 5.38824H12.5446C12.2235 5.38824 11.9156 5.51581 11.6885 5.74287C10.9257 6.50561 11.466 7.80978 12.5446 7.80978H19.8309C20.9096 7.80978 21.4498 6.50559 20.687 5.74286Z" fill="#ED0035"/>
<path d="M27.4963 10.1532H9.99875C8.92022 10.1532 8.0459 11.0275 8.0459 12.106V13.1715C8.0459 13.6616 8.4432 14.0589 8.9333 14.0589C9.28546 14.0589 9.59597 13.8446 9.78854 13.5498C10.4164 12.5884 11.5014 11.9517 12.7328 11.9517C12.8152 11.9517 12.8969 11.9545 12.9779 11.9602C15.2971 12.1207 17.454 14.0589 19.7787 14.0589C22.1034 14.0589 24.2603 12.1207 26.5795 11.9602C26.6605 11.9545 26.7422 11.9517 26.8246 11.9517C28.0182 11.9517 29.0743 12.55 29.7098 13.4623C29.9477 13.8038 30.3133 14.0589 30.7296 14.0589C31.3596 14.0589 31.8554 13.4978 31.6154 12.9152C30.9485 11.2959 29.3534 10.1532 27.4963 10.1532Z" fill="#ED0035"/>
<path d="M38.8283 0H1.17733C0.530238 0 0.00562421 0.524614 0.00562421 1.17171L0.00163726 15.7865C0.000733098 19.1009 2.68729 21.7882 6.00164 21.7882H33.996C37.3091 21.7882 39.9951 19.1029 39.996 15.7898L40 1.17171C40 0.524614 39.4755 0 38.8283 0ZM34.292 15.2306C34.292 15.8777 33.7674 16.4023 33.1203 16.4023C31.4021 16.4023 29.9552 17.8077 28.4276 18.5944C27.9467 18.8421 27.4017 18.9819 26.8245 18.9819C26.5118 18.9819 26.2086 18.9409 25.9199 18.8639C23.8315 18.307 21.94 16.4023 19.7786 16.4023C17.6171 16.4023 15.7257 18.307 13.6373 18.8639C13.3486 18.9409 13.0453 18.9819 12.7327 18.9819C11.9994 18.9819 11.318 18.7562 10.7542 18.3705C9.54922 17.5463 8.33392 16.4023 6.87403 16.4023C6.22694 16.4023 5.70232 15.8777 5.70232 15.2306V8.98147C5.70232 8.6284 5.87605 8.24126 6.06329 8.05402L10.7293 3.38804C10.949 3.1683 11.247 3.04481 11.5577 3.04481H20.8178C21.1279 3.04481 21.4254 3.16783 21.645 3.38677C21.6458 3.38762 21.6455 3.38732 21.6464 3.38817C21.6653 3.4071 23.7436 5.48788 25.0396 6.78798C25.682 7.43245 26.5861 7.80976 27.4961 7.80976C31.2434 7.80976 34.292 10.8584 34.292 14.6057V15.2306Z" fill="#ED0035"/>
<path d="M27.8448 33.2376C27.4242 33.1121 27.1058 32.7433 27.1058 32.3044C27.1058 31.8055 26.7013 31.4011 26.2025 31.4011H13.7973C13.2956 31.4011 12.8889 31.8078 12.8889 32.3095C12.8889 32.7486 12.5722 33.118 12.1525 33.2473C11.1102 33.5682 10.1666 34.1547 9.39863 34.9736C8.35589 36.0854 7.7334 37.524 7.7334 38.8219C7.7334 39.469 8.25801 39.9936 8.90511 39.9936H31.0895C31.7366 39.9936 32.2612 39.469 32.2612 38.8219C32.2612 36.5006 30.5497 34.0447 27.8448 33.2376Z" fill="#ED0035"/>
</svg>
