<svg width="41" height="42" viewBox="0 0 41 42" fill="none" xmlns="http://www.w3.org/2000/svg">
<path d="M40.5303 16.601C40.3348 14.8794 36.7619 15.7772 35.0634 16.3053C34.5168 16.4753 34.1403 16.9599 34.0769 17.5287L33.8599 19.4753C33.8417 19.6387 33.6632 19.7289 33.5155 19.6566C33.4509 19.625 33.4019 19.5667 33.3858 19.4965L31.8723 12.893C31.3083 9.69598 28.8953 7.34098 25.3783 7.46198H16.7789C16.5276 7.46198 16.3156 7.64951 16.2627 7.89516C16.191 8.22811 16.434 8.55498 16.7745 8.55498H25.9883C28.0413 8.55498 29.9223 9.87598 30.4363 12.057L32.0138 18.384C32.0517 18.5361 31.9342 18.674 31.7773 18.674H15.8453C14.0596 18.674 12.6124 20.1223 12.6138 21.908C12.6152 23.6917 14.0616 25.137 15.8453 25.137H23.7668C24.1659 25.137 24.4893 25.4605 24.4893 25.8595C24.4893 26.2585 24.1659 26.582 23.7668 26.582H12.8288C12.7121 26.582 12.6176 26.6768 12.6178 26.7935C12.6181 26.9098 12.7125 27.004 12.8288 27.004H23.6453C24.0452 27.004 24.3693 27.3281 24.3693 27.728C24.3693 28.1278 24.0452 28.452 23.6453 28.452H15.3353C13.8351 28.452 12.6192 29.6687 12.6203 31.169C12.6214 32.6677 13.8367 33.882 15.3353 33.882H21.8603C23.7596 33.882 25.2993 35.4217 25.2993 37.321C25.2993 38.718 27.0283 39.853 29.1593 39.853C31.2903 39.853 33.0163 38.719 33.0163 37.321C33.0163 35.0119 34.881 33.1098 35.8009 30.9918C35.998 30.5381 36.1053 30.0494 36.1053 29.54V23.387C36.1053 22.0876 36.9018 19.8721 38.1993 19.802L40.5303 19.676C40.5303 19.676 40.7863 18.862 40.5303 16.601ZM33.2193 26.688C33.2193 27.6026 32.4779 28.344 31.5633 28.344H27.9093C26.9947 28.344 26.2533 27.6026 26.2533 26.688C26.2533 25.7734 26.9947 25.032 27.9093 25.032H31.5633C32.4779 25.032 33.2193 25.7734 33.2193 26.688Z" fill="#ED0035"/>
<path d="M12.6179 28.3624V27.0914C12.6179 27.0426 12.5783 27.0029 12.5294 27.0029C12.4805 27.0029 12.4409 27.0426 12.4409 27.0914V28.3624C12.4409 28.4113 12.4805 28.4509 12.5294 28.4509C12.5783 28.4509 12.6179 28.4113 12.6179 28.3624Z" fill="#ED0035"/>
<path d="M12.617 26.5545V25.1645C12.617 25.1493 12.6047 25.137 12.5895 25.137C12.5743 25.137 12.562 25.1493 12.562 25.1645V26.5545C12.562 26.5697 12.5743 26.582 12.5895 26.582C12.6047 26.582 12.617 26.5697 12.617 26.5545Z" fill="#ED0035"/>
<path d="M14.97 6.488C14.9675 5.32145 14.6997 4.21802 14.2235 3.23489C13.3518 1.43567 11.205 2.49175 11.205 4.491C11.205 5.42043 10.7091 6.27925 9.90418 6.74392L9.34543 7.06646C8.19374 7.73129 6.7747 7.73054 5.62371 7.06449L5.05645 6.73623C4.25408 6.27191 3.76 5.41516 3.76 4.48813C3.76 2.49104 1.61514 1.43674 0.744564 3.23409C0.268272 4.21742 0.000840081 5.32113 0 6.488C0 9.38961 1.65697 11.9053 4.07548 13.1494C4.09295 13.1584 4.104 13.1764 4.104 13.196V37.845C4.104 38.821 4.497 39.704 5.137 40.345C5.776 40.985 6.658 41.374 7.636 41.378C9.58 41.378 11.16 39.8 11.167 37.846L11.1541 16.5184C11.1528 14.3495 12.4985 12.4454 13.7061 10.6439C14.5033 9.4547 14.9684 8.0247 14.97 6.488ZM8.414 39.409C7.888 39.937 7.032 39.937 6.502 39.408C5.98 38.884 5.981 38.032 6.507 37.504C7.036 36.978 7.889 36.978 8.411 37.5C8.94 38.029 8.941 38.882 8.414 39.409Z" fill="#ED0035"/>
</svg>
