<svg width="37" height="42" viewBox="0 0 37 42" fill="none" xmlns="http://www.w3.org/2000/svg">
<path fill-rule="evenodd" clip-rule="evenodd" d="M30.0012 0.385435C30.485 -0.0414035 31.218 -0.0155366 31.6705 0.44434L36.646 5.50083C37.0575 5.91896 37.1164 6.56942 36.7869 7.05469C33.928 11.3508 33.4104 16.2935 35.3328 20.9824C36.3432 23.4455 37.1812 26.4651 35.7025 30.2457C34.3387 33.6335 31.8989 35.6957 28.3992 36.3831C24.2998 37.2178 21.5149 38.5189 19.3954 40.6301C18.9127 41.1109 18.1373 41.1273 17.6347 40.6673L17.6209 40.6547C15.4932 38.5189 12.7083 37.2178 8.56785 36.3831C5.21607 35.7202 2.82547 33.7808 1.44532 30.614C0.139114 27.5207 0.188405 24.5748 1.64248 20.9906C3.58947 16.2935 3.07192 11.359 0.21305 7.05469C-0.116701 6.56913 -0.058568 5.91845 0.352038 5.49904L5.28121 0.464137C5.7443 -0.00889041 6.49435 -0.043259 6.99876 0.385435C7.0234 0.409984 9.4633 2.54578 12.3222 2.54578C15.2057 2.54578 17.6456 0.336336 17.6702 0.311786C18.1381 -0.0977624 18.8348 -0.104582 19.3106 0.295731L19.3297 0.311786C19.3543 0.336336 21.7942 2.54578 24.6531 2.54578C27.5366 2.54578 29.9765 0.409984 30.0012 0.385435ZM26.7633 24.3957C26.9853 24.2658 27.2477 24.1859 27.5303 24.1859C28.378 24.1859 29.0643 24.8653 29.0744 25.7147C29.0744 26.564 28.378 27.2434 27.5303 27.2434C26.6725 27.2434 25.9862 26.554 25.9862 25.7147C25.9862 25.6147 25.9055 25.5348 25.8146 25.5248L22.0503 25.1151C21.4851 25.0452 20.9503 25.3549 20.7181 25.8745L19.1841 29.3118C19.1539 29.3917 19.1841 29.4917 19.2649 29.5416C19.7291 29.8014 20.042 30.301 20.042 30.8606C20.042 31.7099 19.3456 32.3894 18.4979 32.3894C17.6401 32.3894 16.9538 31.6999 16.9538 30.8606C16.9538 30.301 17.2666 29.8014 17.7309 29.5416C17.8116 29.5017 17.852 29.4017 17.8116 29.3118L16.2776 25.8745C16.0556 25.3649 15.5106 25.0552 14.9455 25.1151L11.1811 25.5248C11.0802 25.5348 11.0096 25.6147 11.0096 25.7147C11.0096 26.564 10.3132 27.2434 9.46547 27.2434C8.60764 27.2434 7.92138 26.554 7.92138 25.7147C7.92138 24.8653 8.61774 24.1859 9.46547 24.1859C9.74805 24.1859 10.0104 24.2658 10.2325 24.3957C10.3132 24.4457 10.4141 24.4257 10.4747 24.3457L12.7151 21.3181C13.0482 20.8585 13.0482 20.249 12.7151 19.7893L10.4747 16.7617C10.4242 16.6818 10.3132 16.6618 10.2325 16.7118C10.0104 16.8417 9.74805 16.9216 9.46547 16.9216C8.60764 16.9216 7.92138 16.2321 7.92138 15.3928C7.92138 14.5435 8.61774 13.864 9.46547 13.864C10.3233 13.864 11.0096 14.5535 11.0096 15.3928C11.0096 15.4827 11.0903 15.5627 11.1811 15.5727L14.9455 15.9823C15.5106 16.0523 16.0455 15.7425 16.2776 15.2229L17.8116 11.7857C17.8419 11.7057 17.8116 11.6058 17.7309 11.5558C17.2666 11.296 16.9538 10.7964 16.9538 10.2369C16.9538 9.38755 17.6501 8.70808 18.4979 8.70808C19.3557 8.70808 20.042 9.39754 20.042 10.2369C20.042 10.7964 19.7291 11.296 19.2649 11.5558C19.1841 11.5958 19.1438 11.6957 19.1841 11.7857L20.7181 15.2229C20.9402 15.7325 21.4851 16.0423 22.0503 15.9823L25.8146 15.5727C25.9156 15.5627 25.9862 15.4827 25.9862 15.3928C25.9862 14.5435 26.6826 13.864 27.5303 13.864C28.3881 13.864 29.0744 14.5535 29.0744 15.3928C29.0744 16.2421 28.378 16.9216 27.5303 16.9216C27.2477 16.9216 26.9853 16.8417 26.7633 16.7118C26.6826 16.6618 26.5816 16.6818 26.5211 16.7617L24.2806 19.7893C23.9476 20.249 23.9476 20.8585 24.2806 21.3181L26.5211 24.3457C26.5715 24.4257 26.6826 24.4457 26.7633 24.3957Z" fill="#ED0035"/>
</svg>
