<svg width="101" height="100" viewBox="0 0 101 100" fill="none" xmlns="http://www.w3.org/2000/svg">
<path d="M53.4011 52.509C51.3384 52.509 49.6601 54.2064 49.6601 56.2924C49.6601 58.3785 51.3384 60.0759 53.4011 60.0759C54.4137 60.0759 55.3673 59.6728 56.0862 58.9405C56.7828 58.2309 57.1825 57.2658 57.1825 56.2924C57.1825 55.2924 56.7862 54.3451 56.067 53.6252C55.3474 52.9056 54.4007 52.509 53.4011 52.509ZM53.4011 58.7393C52.0748 58.7393 50.996 57.6417 50.996 56.2924C50.996 54.9432 52.0748 53.8456 53.4011 53.8456C54.7266 53.8456 55.8463 54.9662 55.8463 56.2924C55.8463 57.6187 54.7266 58.7393 53.4011 58.7393Z" fill="#FF5312"/>
<path d="M59.8378 42.0717C60.1161 42.3147 60.5378 42.2859 60.7804 42.0078C62.3901 40.1628 63.2064 38.2313 63.2064 36.2671C63.2064 34.1958 62.2765 32.3182 60.5882 30.9803C58.891 29.6355 56.5879 28.9248 53.9271 28.9248C50.6357 28.9248 48.5998 30.0365 47.4719 30.9689C46.1079 32.0964 45.2933 33.6084 45.2933 35.0133C45.2933 35.9265 45.667 36.7309 46.3457 37.2785C46.9043 37.7293 47.6483 37.9878 48.3874 37.9878C49.6608 37.9878 50.2191 37.1642 50.6676 36.5023C51.2358 35.6642 51.7722 34.8725 53.8053 34.8725C54.5022 34.8725 56.7762 35.0229 56.7762 36.9551C56.7762 38.4136 55.4287 39.4487 54.2397 40.3619C53.946 40.5871 53.6687 40.8003 53.41 41.0201C52.0409 42.2008 50.4689 44.0245 50.4689 47.6757C50.4689 49.7037 50.9606 51.0547 53.3609 51.0547C54.424 51.0547 55.2266 50.8137 55.7465 50.3385C56.1829 49.9396 56.4139 49.3824 56.4139 48.727C56.4139 46.757 56.4139 45.7682 58.422 44.1968L58.4563 44.1701C58.5448 44.101 58.6471 44.021 58.7596 43.9301C59.0468 43.6983 59.0918 43.2778 58.8602 42.9904C58.6285 42.703 58.2082 42.6581 57.921 42.8898C57.8143 42.976 57.7178 43.0512 57.6344 43.1164L57.5991 43.1439C55.195 45.0253 55.078 46.4216 55.078 48.7273C55.078 49.0236 55.078 49.7181 53.3609 49.7181C52.5223 49.7181 52.267 49.5427 52.1383 49.3896C51.9139 49.1228 51.8048 48.5622 51.8048 47.6757C51.8048 44.5855 53.0572 43.0889 54.2782 42.036C54.5084 41.8406 54.773 41.6374 55.0533 41.4221C56.4159 40.3753 58.1124 39.0724 58.1124 36.9551C58.1124 34.878 56.4218 33.536 53.8053 33.536C51.0643 33.536 50.1961 34.8169 49.562 35.7521C49.1286 36.3917 48.9309 36.6513 48.3874 36.6513C47.6809 36.6513 46.6295 36.2149 46.6295 35.0133C46.6295 34.2329 47.0742 33.0313 48.3229 31.9993C49.2823 31.2065 51.033 30.261 53.9275 30.261C58.6045 30.261 61.8706 32.7309 61.8706 36.2671C61.8706 37.8986 61.1654 39.5342 59.7743 41.1289C59.5313 41.407 59.5602 41.8289 59.8378 42.0717Z" fill="#FF5312"/>
<path d="M95.2288 50C95.2288 74.5769 75.3157 94.5 50.7522 94.5C26.1887 94.5 6.27563 74.5769 6.27563 50C6.27563 25.4231 26.1887 5.5 50.7522 5.5C75.3157 5.5 95.2288 25.4231 95.2288 50Z" stroke="#FF5312"/>
<path d="M99.7262 50C99.7262 77.0624 77.7993 99 50.7522 99C23.7051 99 1.7782 77.0624 1.7782 50C1.7782 22.9376 23.7051 1 50.7522 1C77.7993 1 99.7262 22.9376 99.7262 50Z" stroke="#FF5312" stroke-width="2"/>
</svg>
