<svg width="101" height="100" viewBox="0 0 101 100" fill="none" xmlns="http://www.w3.org/2000/svg">
<g clip-path="url(#clip0)">
<path d="M61.2012 59.4442C60.7969 59.4442 60.4692 59.7721 60.4692 60.1766V65.8957C60.4692 67.0271 59.9845 68.1072 59.1393 68.8588L55.0072 72.5337C54.281 73.1795 53.3461 73.5351 52.3746 73.5351H48.1202C47.1488 73.5351 46.2139 73.1795 45.4877 72.5338L41.3555 68.8589C40.5103 68.1072 40.0256 67.0271 40.0256 65.8957V60.1767C40.0256 59.7722 39.6978 59.4443 39.2936 59.4443C38.8893 59.4443 38.5615 59.7722 38.5615 60.1767V65.8957C38.5615 67.4452 39.2253 68.9243 40.3829 69.9537L44.5152 73.6286C45.5095 74.513 46.7899 75 48.1202 75H52.3746C53.705 75 54.9854 74.513 55.9798 73.6286L60.1119 69.9537C61.2693 68.9243 61.9332 67.4453 61.9332 65.8958V60.1767C61.9332 59.7721 61.6055 59.4442 61.2012 59.4442Z" fill="#FF5312"/>
<path d="M53.5413 56.268L51.7985 51.9085C51.5433 51.2702 50.9343 50.8577 50.2471 50.8577C49.5598 50.8577 48.9509 51.2702 48.6956 51.9085L46.9528 56.268C46.7465 56.7837 46.8093 57.3663 47.1205 57.8262C47.4317 58.2862 47.9489 58.5608 48.5041 58.5608H51.9899C52.5451 58.5608 53.0623 58.2862 53.3736 57.8262C53.6847 57.3663 53.7475 56.7837 53.5413 56.268ZM52.1612 57.0049C52.1383 57.0389 52.0855 57.0958 51.9899 57.0958H48.5041C48.4086 57.0958 48.3558 57.0389 48.3328 57.0049C48.3099 56.9709 48.2766 56.9007 48.312 56.8121L50.0549 52.4526C50.0978 52.3451 50.1829 52.3225 50.2469 52.3225C50.3108 52.3225 50.3959 52.3451 50.439 52.4526L52.1818 56.8121C52.2175 56.9007 52.1842 56.9709 52.1612 57.0049Z" fill="#FF5312"/>
<path d="M50.247 25C40.352 25 32.3018 33.0544 32.3018 42.9546C32.3018 46.0737 33.1139 49.1414 34.649 51.8353V54.6969C34.649 56.3957 36.0303 57.7777 37.7282 57.7777H41.6404C41.6682 57.7777 41.6907 57.8003 41.6907 57.8281V62.5251C41.6907 63.3606 42.3701 64.0403 43.2052 64.0403H44.8203V64.8735C44.8203 65.278 45.1481 65.606 45.5524 65.606C45.9567 65.606 46.2844 65.278 46.2844 64.8735V64.0403H47.95V64.8735C47.95 65.278 48.2777 65.606 48.682 65.606C49.0863 65.606 49.414 65.278 49.414 64.8735V64.0403H51.0796V64.8735C51.0796 65.278 51.4073 65.606 51.8116 65.606C52.2159 65.606 52.5437 65.278 52.5437 64.8735V64.0403H54.2092V64.8735C54.2092 65.278 54.537 65.606 54.9413 65.606C55.3455 65.606 55.6733 65.278 55.6733 64.8735V64.0403H57.2885C58.1236 64.0403 58.8029 63.3606 58.8029 62.5251V57.8281C58.8029 57.8003 58.8255 57.7777 58.8533 57.7777H62.7654C64.4633 57.7777 65.8447 56.3957 65.8447 54.6969V51.8354C67.3801 49.1414 68.1923 46.0736 68.1923 42.9546C68.1923 33.0544 60.1421 25 50.247 25ZM65.113 43.7878C64.7087 43.7878 64.381 44.1157 64.381 44.5202V54.697C64.381 55.5881 63.6564 56.313 62.7658 56.313H58.8537C58.0186 56.313 57.3392 56.9927 57.3392 57.8282V62.5252C57.3392 62.553 57.3167 62.5756 57.2889 62.5756H55.6737V61.7423C55.6737 61.3378 55.3459 61.0099 54.9416 61.0099C54.5374 61.0099 54.2096 61.3378 54.2096 61.7423V62.5756H52.5441V61.7424C52.5441 61.3379 52.2163 61.01 51.812 61.01C51.4077 61.01 51.08 61.3379 51.08 61.7424V62.5756H49.4144V61.7424C49.4144 61.3379 49.0867 61.01 48.6824 61.01C48.2781 61.01 47.9504 61.3379 47.9504 61.7424V62.5756H46.2848V61.7424C46.2848 61.3379 45.9571 61.01 45.5528 61.01C45.1485 61.01 44.8207 61.3379 44.8207 61.7424V62.5756H43.2056C43.1777 62.5756 43.1552 62.553 43.1552 62.5252V57.8282C43.1552 56.9927 42.4759 56.313 41.6407 56.313H37.7286C36.838 56.313 36.1134 55.5881 36.1134 54.697V44.5202C36.1134 44.1157 35.7857 43.7878 35.3814 43.7878C34.9771 43.7878 34.6494 44.1157 34.6494 44.5202V48.2866C34.0677 46.5793 33.7662 44.7766 33.7662 42.9546C33.7658 33.8621 41.1593 26.4648 50.247 26.4648C59.3348 26.4648 66.7282 33.8621 66.7282 42.9546C66.7282 44.7765 66.4267 46.5792 65.8451 48.2865V44.5202C65.8451 44.1157 65.5173 43.7878 65.113 43.7878Z" fill="#FF5312"/>
<path d="M48.103 45.3115C47.929 44.9464 47.492 44.7916 47.1272 44.9658C46.7622 45.1399 46.6075 45.5771 46.7817 45.9422C47.5034 47.4559 47.1937 49.268 46.0112 50.4513C44.4662 51.997 41.9524 51.9971 40.4073 50.4513C39.6589 49.7025 39.2467 48.7069 39.2467 47.6479C39.2467 46.5889 39.6589 45.5934 40.4073 44.8446C41.59 43.6614 43.4012 43.3515 44.9141 44.0737C45.279 44.2479 45.7159 44.093 45.89 43.728C46.0642 43.3629 45.9094 42.9257 45.5445 42.7515C43.4729 41.7628 40.9924 42.1877 39.3721 43.8088C38.3472 44.8341 37.7827 46.1976 37.7827 47.6478C37.7827 49.098 38.3472 50.4615 39.3721 51.487C40.43 52.5454 41.8197 53.0747 43.2092 53.0747C44.5988 53.0747 45.9885 52.5455 47.0464 51.487C48.6666 49.866 49.0913 47.3841 48.103 45.3115Z" fill="#FF5312"/>
<path d="M62.1864 45.3114C62.0125 44.9463 61.5755 44.7916 61.2107 44.9658C60.8457 45.1399 60.691 45.5771 60.8651 45.9421C61.5869 47.456 61.2773 49.2681 60.0946 50.4513C58.5496 51.997 56.0359 51.9971 54.4908 50.4513C53.7424 49.7025 53.3302 48.7069 53.3302 47.6479C53.3302 46.5889 53.7424 45.5934 54.4908 44.8446C55.6735 43.6613 57.4847 43.3515 58.9976 44.0737C59.3625 44.2479 59.7994 44.093 59.9735 43.728C60.1476 43.3628 59.9929 42.9257 59.628 42.7515C57.5561 41.7626 55.0758 42.1876 53.4556 43.8087C52.4307 44.8341 51.8662 46.1976 51.8662 47.6478C51.8662 49.098 52.4307 50.4615 53.4556 51.487C54.5137 52.5456 55.903 53.0748 57.2927 53.0747C58.6821 53.0746 60.0721 52.5454 61.1298 51.487C62.7501 49.8659 63.1748 47.384 62.1864 45.3114Z" fill="#FF5312"/>
</g>
<path d="M51 15C31.7008 15 16 30.7008 16 50C16 69.2992 31.7008 85 51 85C70.2992 85 86 69.2992 86 50C86 30.7008 70.2992 15 51 15ZM51 79.9028C34.5117 79.9028 21.0971 66.4883 21.0971 50C21.0971 33.5117 34.5117 20.0971 51 20.0971C67.4883 20.0971 80.9028 33.5117 80.9028 50C80.9028 66.4883 67.4883 79.9028 51 79.9028Z" fill="#FF5312"/>
<path d="M71.5395 25.938L26.8545 70.623L30.458 74.2266L75.1431 29.5415L71.5395 25.938Z" fill="#FF5312"/>
<path d="M94.7241 50C94.7241 74.5769 74.811 94.5 50.2476 94.5C25.6841 94.5 5.771 74.5769 5.771 50C5.771 25.4231 25.6841 5.5 50.2476 5.5C74.811 5.5 94.7241 25.4231 94.7241 50Z" stroke="#FF5312"/>
<path d="M99.2214 50C99.2214 77.0624 77.2945 99 50.2474 99C23.2003 99 1.27344 77.0624 1.27344 50C1.27344 22.9376 23.2003 1 50.2474 1C77.2945 1 99.2214 22.9376 99.2214 50Z" stroke="#FF5312" stroke-width="2"/>
<defs>
<clipPath id="clip0">
</clipPath>
</defs>
</svg>
