<svg width="101" height="100" viewBox="0 0 101 100" fill="none" xmlns="http://www.w3.org/2000/svg">
<path d="M75.508 47.0406C75.3952 46.9074 72.6948 43.7411 68.3062 40.5355C65.7208 38.6472 63.085 37.1406 60.4719 36.058C57.176 34.6924 53.9059 34 50.7524 34C47.5988 34 44.3287 34.6924 41.0328 36.0579C38.4197 37.1405 35.7839 38.6471 33.1985 40.5354C28.8099 43.7411 26.1095 46.9074 25.9967 47.0406C25.6883 47.4049 25.6883 47.9389 25.9967 48.3032C26.0831 48.4052 27.6882 50.2863 30.4054 52.6012C28.6321 56.4976 25.7654 63.1855 25.7654 65.7011C25.7654 69.5448 28.8304 72.6719 32.5978 72.6719C36.3651 72.6719 39.4301 69.5448 39.4301 65.7011C39.4301 64.022 38.1527 60.484 36.7758 57.1576C38.1937 57.9867 39.6166 58.699 41.0328 59.2858C44.3287 60.6514 47.5988 61.3438 50.7524 61.3438C53.9059 61.3438 57.176 60.6514 60.4719 59.2858C63.085 58.2032 65.7208 56.6967 68.3062 54.8083C72.6948 51.6026 75.3952 48.4363 75.508 48.3032C75.8165 47.9389 75.8165 47.4049 75.508 47.0406ZM64.4171 40.8359C64.4171 48.3746 58.2871 54.5078 50.7524 54.5078C43.2176 54.5078 37.0876 48.3746 37.0876 40.8359C37.0876 40.6483 37.0915 40.4597 37.0991 40.2716C39.531 38.7861 42.4473 37.3813 45.6381 36.5971C44.8657 37.6487 44.408 38.9455 44.408 40.3477C44.408 43.8478 47.2541 46.6953 50.7524 46.6953C54.2506 46.6953 57.0967 43.8478 57.0967 40.3477C57.0967 38.9455 56.6391 37.6487 55.8667 36.5972C59.0593 37.3819 61.976 38.7877 64.4057 40.2718C64.4132 40.4599 64.4171 40.6484 64.4171 40.8359ZM55.1446 40.3477C55.1446 42.7708 53.1742 44.7422 50.7524 44.7422C48.3305 44.7422 46.3601 42.7708 46.3601 40.3477C46.3601 37.9245 48.3305 35.9531 50.7524 35.9531C53.1742 35.9531 55.1446 37.9245 55.1446 40.3477ZM37.478 65.7011C37.478 68.4678 35.2887 70.7188 32.5978 70.7188C29.9068 70.7188 27.7175 68.4678 27.7175 65.7011C27.7175 63.7774 30.1165 58.0054 31.9722 53.8809C32.3648 54.1879 32.7734 54.4979 33.1985 54.8083C33.4118 54.9641 33.6256 55.1163 33.8396 55.2669C35.569 59.2062 37.478 63.9846 37.478 65.7011ZM67.1551 53.2308C63.3079 56.0409 57.3394 59.3906 50.7524 59.3906C44.1813 59.3906 38.2264 56.0561 34.3878 53.2587C31.3059 51.0127 29.053 48.7409 28.0557 47.6715C29.0469 46.6077 31.28 44.3551 34.3496 42.113C34.6075 41.9246 34.8757 41.7337 35.1521 41.5417C35.5223 49.831 42.3776 56.4609 50.7524 56.4609C59.1272 56.4609 65.9825 49.8309 66.3525 41.5413C66.6157 41.724 66.8707 41.9057 67.1169 42.0851C70.1989 44.3311 72.4516 46.6026 73.449 47.6723C72.4578 48.7359 70.2246 50.9887 67.1551 53.2308Z" fill="#FF5312"/>
<path d="M59.7104 42.5292L61.2576 42.7673C61.3078 42.775 61.3578 42.7788 61.4071 42.7788C61.8807 42.7788 62.2964 42.4333 62.3706 41.9506C62.4525 41.4175 62.0871 40.919 61.5543 40.8369L60.0071 40.5989C59.4741 40.517 58.976 40.8825 58.894 41.4156C58.8121 41.9487 59.1777 42.4473 59.7104 42.5292Z" fill="#FF5312"/>
<path d="M46.6529 47.5495C46.1859 47.2798 45.5891 47.4397 45.3197 47.9069L44.3436 49.5983C44.074 50.0654 44.234 50.6627 44.7008 50.9323C44.8546 51.021 45.0224 51.0632 45.188 51.0632C45.5253 51.0632 45.8534 50.8881 46.0341 50.5749L47.0102 48.8834C47.2798 48.4163 47.1198 47.8191 46.6529 47.5495Z" fill="#FF5312"/>
<path d="M42.3187 44.1895L40.6281 45.1661C40.1612 45.4357 40.0013 46.0329 40.2709 46.5C40.4516 46.8133 40.7797 46.9884 41.117 46.9884C41.2825 46.9884 41.4504 46.9462 41.6041 46.8574L43.2947 45.8809C43.7616 45.6113 43.9216 45.014 43.652 44.5469C43.3825 44.0798 42.7854 43.9198 42.3187 44.1895Z" fill="#FF5312"/>
<path d="M50.7524 48.6484C50.2133 48.6484 49.7764 49.0856 49.7764 49.625V51.5781C49.7764 52.1175 50.2133 52.5547 50.7524 52.5547C51.2915 52.5547 51.7285 52.1175 51.7285 51.5781V49.625C51.7285 49.0856 51.2915 48.6484 50.7524 48.6484Z" fill="#FF5312"/>
<path d="M58.2101 45.8809L59.9007 46.8574C60.0544 46.9462 60.2222 46.9884 60.3879 46.9884C60.7252 46.9884 61.0532 46.8133 61.234 46.5C61.5036 46.0329 61.3436 45.4356 60.8768 45.166L59.1861 44.1894C58.7194 43.9199 58.1224 44.0797 57.8529 44.5468C57.5833 45.0139 57.7434 45.6112 58.2101 45.8809Z" fill="#FF5312"/>
<path d="M54.8517 47.5494C54.3849 47.8191 54.2249 48.4163 54.4945 48.8834L55.4705 50.5749C55.6513 50.8881 55.9794 51.0632 56.3167 51.0632C56.4822 51.0632 56.6501 51.021 56.8038 50.9323C57.2707 50.6627 57.4306 50.0654 57.1611 49.5983L56.185 47.9069C55.9154 47.4398 55.3186 47.2798 54.8517 47.5494Z" fill="#FF5312"/>
<path d="M41.7943 42.5292C42.327 42.4472 42.6925 41.9486 42.6106 41.4155C42.5287 40.8825 42.0308 40.5168 41.4975 40.5988L39.9504 40.8368C39.4177 40.9188 39.0521 41.4174 39.134 41.9505C39.2082 42.4333 39.624 42.7787 40.0976 42.7787C40.1469 42.7787 40.1969 42.7749 40.2471 42.7672L41.7943 42.5292Z" fill="#FF5312"/>
<path d="M32.4836 66.6758C32.4446 66.6709 32.4046 66.668 32.3655 66.668C31.8727 66.668 31.4569 67.0381 31.3973 67.5283C31.3661 67.7871 31.4373 68.043 31.5984 68.248C31.7594 68.4531 31.9908 68.583 32.2494 68.6143C32.2884 68.6191 32.3285 68.6221 32.3675 68.6221C32.8604 68.6221 33.2762 68.252 33.3357 67.7617C33.4001 67.2275 33.0175 66.7402 32.4836 66.6758Z" fill="#FF5312"/>
<path d="M32.5987 59.5205C32.2259 59.5205 31.8803 59.7373 31.7193 60.0732C31.7183 60.0732 31.7183 60.0732 31.7183 60.0742L31.7164 60.0771C31.6627 60.1895 31.3757 60.792 31.0292 61.5772C30.5178 62.7383 30.1586 63.6475 29.9331 64.3564C29.855 64.6055 29.8775 64.8691 29.9975 65.1006C30.1176 65.333 30.3206 65.5039 30.5685 65.582C30.6652 65.6133 30.7637 65.6279 30.8643 65.6279C31.2908 65.6279 31.6646 65.3545 31.7945 64.9463C32.057 64.1152 32.546 62.9736 32.8144 62.3662C32.9638 62.0273 33.1219 61.6797 33.2839 61.332C33.4059 61.0693 33.4772 60.9219 33.4772 60.9209C33.7105 60.4355 33.5055 59.8506 33.0214 59.6172C32.8876 59.5537 32.7451 59.5205 32.5987 59.5205Z" fill="#FF5312"/>
<path d="M95.2288 50C95.2288 74.5769 75.3157 94.5 50.7522 94.5C26.1887 94.5 6.27563 74.5769 6.27563 50C6.27563 25.4231 26.1887 5.5 50.7522 5.5C75.3157 5.5 95.2288 25.4231 95.2288 50Z" stroke="#FF5312"/>
<path d="M99.7263 50C99.7263 77.0624 77.7994 99 50.7523 99C23.7052 99 1.77832 77.0624 1.77832 50C1.77832 22.9376 23.7052 1 50.7523 1C77.7994 1 99.7263 22.9376 99.7263 50Z" stroke="#FF5312" stroke-width="2"/>
</svg>
