<svg width="101" height="100" viewBox="0 0 101 100" fill="none" xmlns="http://www.w3.org/2000/svg">
<path d="M50.8866 47.5238L45.1318 45.7786L44.5058 44.5266C44.3107 44.1362 43.8645 43.9556 43.4609 44.0807V43.8628C45.8441 42.1412 47.4614 39.422 47.6907 36.3216C48.8075 36.0095 49.6863 35.1014 49.8703 33.9694C49.9864 33.2554 49.8348 32.5524 49.4876 31.9681C50.5986 31.3865 51.3589 30.2228 51.3589 28.8844C51.3589 27.6706 50.7156 26.5646 49.7155 25.9415C49.7707 25.7146 49.7989 25.4808 49.7989 25.2444C49.7989 23.6128 48.4715 22.2854 46.8399 22.2854C46.4485 22.2854 46.0749 22.3625 45.7327 22.5011C44.039 20.9624 41.8704 20.1199 39.5597 20.1199H35.3995C33.099 20.1199 30.9213 20.9639 29.2262 22.501C28.884 22.3624 28.5105 22.2854 28.1192 22.2854C26.4876 22.2854 25.1603 23.6128 25.1603 25.2444C25.1603 25.481 25.1885 25.7147 25.2437 25.9415C24.2434 26.5646 23.6003 27.6706 23.6003 28.8844C23.6003 30.2221 24.3596 31.3851 25.4694 31.967C25.1231 32.5493 24.9723 33.2521 25.0889 33.9694C25.2729 35.1014 26.1517 36.0095 27.2685 36.3216C27.4973 39.4178 29.1106 42.1336 31.4884 43.8556V44.0774C31.0874 43.9583 30.6469 44.1394 30.4533 44.5265L29.8277 45.7774L23.85 47.5708C22.1453 48.0823 21 49.6217 21 51.4014V73.0007C21 73.4861 21.3935 73.8797 21.8789 73.8797C22.3643 73.8797 22.7578 73.4861 22.7578 73.0007V51.4014C22.7578 51.3369 22.7607 51.2732 22.766 51.2099L26.2792 54.723C26.899 55.3429 27.2402 56.1668 27.2402 57.0432V73.0006C27.2402 73.486 27.6337 73.8795 28.1191 73.8795C28.6045 73.8795 28.998 73.486 28.998 73.0006V57.0432C28.998 55.6972 28.4739 54.4318 27.5221 53.48L23.6516 49.6096C23.8588 49.4549 24.0947 49.3327 24.3551 49.2546L28.3149 48.0667C28.625 48.9382 30.9278 54.9237 36.992 58.9664C37.1396 59.0648 37.3095 59.1141 37.4795 59.1141C37.6494 59.1141 37.8193 59.0648 37.967 58.9664C44.2343 54.7882 46.47 48.6118 46.6539 48.0771L50.3766 49.206C50.4617 49.2318 50.5475 49.2441 50.632 49.2441C51.009 49.2441 51.3576 48.9995 51.4727 48.6199C51.6135 48.1554 51.3512 47.6647 50.8866 47.5238ZM43.7221 46.89L40.752 50.6027C40.7113 50.6537 40.6623 50.6642 40.6236 50.6632C40.5876 50.6626 40.5364 50.651 40.4973 50.5988L38.8146 48.3551L43.3266 46.099L43.7221 46.89ZM37.4795 47.0572L33.2461 44.9406V44.8817C34.537 45.4702 35.9706 45.7987 37.4795 45.7987C38.9846 45.7987 40.4147 45.4716 41.7031 44.8858V44.9454L37.4795 47.0572ZM46.8398 24.0433C47.5021 24.0433 48.041 24.5821 48.041 25.2445C48.041 25.4791 47.9718 25.7075 47.8412 25.9049C47.6859 26.1394 47.6523 26.434 47.7507 26.6975C47.8491 26.9609 48.0676 27.1613 48.3384 27.2368C49.0818 27.4437 49.6011 28.1213 49.6011 28.8845C49.6011 29.8336 48.8289 30.6058 47.8798 30.6058C46.9307 30.6058 46.1586 29.8336 46.1586 28.8845C46.1586 28.4593 46.3221 28.0474 46.6189 27.7249C46.8092 27.5181 46.8891 27.2329 46.8341 26.9574C46.779 26.6819 46.5955 26.4493 46.3405 26.3316C45.9141 26.1349 45.6386 25.7082 45.6386 25.2445C45.6386 24.5821 46.1775 24.0433 46.8398 24.0433ZM25.3578 28.8845C25.358 28.1214 25.8771 27.4438 26.6205 27.2369C26.8915 27.1614 27.1099 26.961 27.2082 26.6976C27.3066 26.4342 27.2729 26.1395 27.1178 25.9051C26.9871 25.7076 26.918 25.4792 26.918 25.2446C26.918 24.5822 27.4568 24.0434 28.1191 24.0434C28.7815 24.0434 29.3203 24.5821 29.3203 25.2445C29.3203 25.7082 29.0448 26.135 28.6185 26.3316C28.3633 26.4493 28.1798 26.6819 28.1249 26.9574C28.0698 27.2329 28.1497 27.5181 28.34 27.7249C28.6369 28.0474 28.8003 28.4593 28.8003 28.8845C28.8003 29.8336 28.0282 30.6058 27.0791 30.6058C26.13 30.6058 25.3578 29.8336 25.3578 28.8845ZM28.998 35.5594C28.998 35.074 28.6045 34.6805 28.1191 34.6805C27.4727 34.6805 26.9157 34.2536 26.8237 33.6875C26.7189 33.0425 27.1135 32.4491 27.7417 32.3076C27.7757 32.3 27.8083 32.2899 27.8405 32.2786C29.3937 31.9304 30.558 30.5413 30.558 28.8847C30.558 28.3471 30.4319 27.8222 30.1943 27.3466C30.7488 26.7994 31.0781 26.0447 31.0781 25.2445C31.0781 24.6512 30.9019 24.0984 30.6 23.6347C31.9414 22.4991 33.6251 21.8778 35.3994 21.8778H39.5595C41.3417 21.8778 43.0203 22.4961 44.3603 23.6326C44.0575 24.0967 43.8808 24.6502 43.8808 25.2445C43.8808 26.0447 44.2101 26.7994 44.7646 27.3466C44.5269 27.8222 44.4009 28.3471 44.4009 28.8847C44.4009 30.5747 45.6126 31.9866 47.2128 32.2988C47.2398 32.3098 47.2674 32.3198 47.2959 32.3282C47.7985 32.4783 48.2482 32.9934 48.1353 33.6876C48.0433 34.2537 47.4863 34.6806 46.8399 34.6806C46.3545 34.6806 45.961 35.0741 45.961 35.5595C45.961 40.2362 42.1563 44.041 37.4796 44.041C32.8029 44.041 28.998 40.2361 28.998 35.5594ZM31.3538 46.6558L31.6323 46.099L36.1445 48.3551L34.4618 50.5988C34.4226 50.651 34.3714 50.6626 34.3354 50.6632C34.297 50.6663 34.2478 50.6537 34.207 50.6027L31.2603 46.9194C31.3052 46.8374 31.3367 46.7485 31.3538 46.6558ZM37.4795 57.1683C33.5448 54.3718 31.4271 50.712 30.5271 48.8167L32.8344 51.7008C33.2015 52.1597 33.7459 52.421 34.3319 52.421C34.3422 52.421 34.3526 52.4209 34.3629 52.4208C34.9606 52.4114 35.5092 52.1317 35.8679 51.6534L36.6004 50.6767V54.2802C36.6004 54.7656 36.994 55.1591 37.4793 55.1591C37.9647 55.1591 38.3582 54.7656 38.3582 54.2802V50.6767L39.0908 51.6534C39.4495 52.1318 39.9981 52.4114 40.5958 52.4208C40.6061 52.4209 40.6164 52.421 40.6268 52.421C41.2128 52.421 41.7571 52.1597 42.1243 51.7008L44.4386 48.8078C43.5459 50.6979 41.4345 54.3588 37.4795 57.1683Z" fill="#FF5312"/>
<path d="M40.1131 37.997C39.7361 37.6912 39.1826 37.749 38.8769 38.126C38.503 38.587 38.0068 38.8408 37.4794 38.8408C36.9521 38.8408 36.4558 38.587 36.082 38.126C35.7763 37.749 35.2227 37.6913 34.8458 37.997C34.4688 38.3028 34.4111 38.8563 34.7168 39.2333C35.4206 40.1009 36.4275 40.5985 37.4795 40.5985C38.5315 40.5985 39.5382 40.1008 40.242 39.2333C40.5477 38.8563 40.4901 38.3028 40.1131 37.997Z" fill="#FF5312"/>
<path d="M33.3193 32.6005C32.8339 32.6005 32.4404 32.994 32.4404 33.4794V34.5194C32.4404 35.0048 32.8339 35.3983 33.3193 35.3983C33.8047 35.3983 34.1982 35.0048 34.1982 34.5194V33.4794C34.1982 32.994 33.8047 32.6005 33.3193 32.6005Z" fill="#FF5312"/>
<path d="M41.6396 32.6005C41.1543 32.6005 40.7607 32.994 40.7607 33.4794V34.5194C40.7607 35.0048 41.1543 35.3983 41.6396 35.3983C42.125 35.3983 42.5186 35.0048 42.5186 34.5194V33.4794C42.5186 32.994 42.125 32.6005 41.6396 32.6005Z" fill="#FF5312"/>
<path d="M50.5814 51.5786C50.2382 51.2354 49.6816 51.2354 49.3385 51.5786L47.4369 53.4802C46.4851 54.432 45.9609 55.6974 45.9609 57.0434V73.0008C45.9609 73.4862 46.3545 73.8797 46.8398 73.8797C47.3252 73.8797 47.7187 73.4862 47.7187 73.0008V57.0434C47.7187 56.1669 48.0601 55.3429 48.6798 54.7232L50.5814 52.8216C50.9246 52.4784 50.9246 51.9218 50.5814 51.5786Z" fill="#FF5312"/>
<path d="M68.1941 45.2773C67.8171 44.9715 67.2636 45.0292 66.9579 45.4062C66.5841 45.8672 66.0878 46.1211 65.5605 46.1211C65.0331 46.1211 64.5368 45.8672 64.163 45.4062C63.8574 45.0292 63.3038 44.9716 62.9268 45.2773C62.5498 45.5831 62.4922 46.1365 62.7979 46.5135C63.5015 47.3811 64.5084 47.8788 65.5604 47.8788C66.6123 47.8788 67.6192 47.3811 68.323 46.5135C68.6288 46.1365 68.5711 45.5831 68.1941 45.2773Z" fill="#FF5312"/>
<path d="M56.2002 60.6814C55.7148 60.6814 55.3213 61.0749 55.3213 61.5603V73.0007C55.3213 73.4861 55.7148 73.8796 56.2002 73.8796C56.6856 73.8796 57.0791 73.4861 57.0791 73.0007V61.5603C57.0791 61.0749 56.6856 60.6814 56.2002 60.6814Z" fill="#FF5312"/>
<path d="M74.9209 60.6814C74.4355 60.6814 74.042 61.0749 74.042 61.5603V73.0007C74.042 73.4861 74.4355 73.8796 74.9209 73.8796C75.4063 73.8796 75.7998 73.4861 75.7998 73.0007V61.5603C75.7998 61.0749 75.4063 60.6814 74.9209 60.6814Z" fill="#FF5312"/>
<path d="M78.0618 54.6753C78.6108 53.9789 78.9199 53.1109 78.9199 52.2C78.9199 50.7189 78.1075 49.3934 76.8364 48.7039C76.8387 48.6558 76.8398 48.6079 76.8398 48.56C76.8398 47.4175 76.2867 46.3717 75.3837 45.7281C75.4435 45.5254 75.4991 45.3212 75.5459 45.1145C75.6598 44.6126 75.7325 44.0822 75.7666 43.501C77.15 41.4598 77.8798 39.0786 77.8798 36.5995C77.8798 29.8066 72.3534 24.2802 65.5605 24.2802C58.7676 24.2802 53.2412 29.8066 53.2412 36.5995C53.2412 39.0788 53.9712 41.46 55.3546 43.5011C55.3887 44.0827 55.4613 44.613 55.5751 45.1144C55.622 45.321 55.6775 45.5252 55.7373 45.728C54.8344 46.3716 54.2812 47.4174 54.2812 48.56C54.2812 48.6079 54.2824 48.6558 54.2846 48.7039C53.0134 49.3934 52.2012 50.719 52.2012 52.2C52.2012 53.1109 52.5103 53.9789 53.0592 54.6753C51.248 55.762 50.1211 57.7143 50.1211 59.8808V73.0012C50.1211 73.4866 50.5146 73.8801 51 73.8801C51.4854 73.8801 51.8789 73.4866 51.8789 73.0012V59.8808C51.8789 58.1036 52.9452 56.5287 54.5953 55.8686L54.7635 55.8013C57.363 59.3146 61.3678 61.3992 65.5606 61.3992C69.8108 61.3992 73.7278 59.3626 76.357 55.8011L76.5258 55.8686C78.1761 56.5287 79.2422 58.1036 79.2422 59.8808V73.0008C79.2422 73.4862 79.6358 73.8797 80.1212 73.8797C80.6065 73.8797 81.0001 73.4862 81.0001 73.0008V59.8808C80.9999 57.7143 79.8731 55.762 78.0618 54.6753ZM54.999 36.5995C54.999 30.7758 59.7369 26.038 65.5605 26.038C71.3841 26.038 76.122 30.7758 76.122 36.5995C76.122 38.0808 75.8177 39.5209 75.2322 40.8501C73.9659 38.1251 71.1513 37.3615 68.4132 36.6207C66.1997 36.0217 63.9108 35.4023 61.9493 33.8331C61.742 33.6673 61.4707 33.6039 61.2117 33.661C60.9525 33.7179 60.7329 33.8889 60.6142 34.1263C60.605 34.1445 59.6843 35.9548 57.8871 36.8534C57.4529 37.0704 57.2769 37.5984 57.494 38.0325C57.7111 38.4667 58.2389 38.6429 58.6732 38.4256C60.1037 37.7103 61.0894 36.5745 61.6451 35.7882C63.6923 37.1642 65.9418 37.773 67.9541 38.3174C68.6145 38.4961 69.2224 38.6656 69.778 38.8422C69.7588 38.8418 69.7398 38.8408 69.7205 38.8408C68.6495 38.8408 67.7095 39.4128 67.1901 40.2674C66.7043 40.0173 66.1466 39.8808 65.5605 39.8808C64.9743 39.8808 64.4165 40.0173 63.9308 40.2674C63.4113 39.4129 62.4713 38.8408 61.4004 38.8408C59.7688 38.8408 58.4414 40.1682 58.4414 41.7998C58.4414 43.4314 59.7688 44.7587 61.4004 44.7587C62.921 44.7587 64.1769 43.6056 64.3407 42.1279C64.6275 41.8227 65.0758 41.6386 65.5605 41.6386C66.0451 41.6386 66.4934 41.8227 66.7802 42.1279C66.944 43.6056 68.1999 44.7587 69.7205 44.7587C71.3521 44.7587 72.6795 43.4314 72.6795 41.7998C72.6795 40.945 72.3148 40.1741 71.7334 39.6336C72.9903 40.3185 73.7634 41.2748 74.0499 42.9637C74.0351 43.0226 74.0258 43.0838 74.0234 43.147C74.0025 43.733 73.9396 44.2493 73.8316 44.7256C73.4132 46.5693 72.3677 48.2434 70.8877 49.4398C69.3649 50.6707 67.5228 51.3214 65.5604 51.3214C63.598 51.3214 61.7558 50.6707 60.2331 49.4398C58.7531 48.2435 57.7077 46.5693 57.2892 44.7256C57.1814 44.2503 57.1186 43.7344 57.0975 43.1485C57.0891 42.9157 56.9907 42.7068 56.8365 42.5547C55.6338 40.7968 54.999 38.7411 54.999 36.5995ZM70.9218 41.7997C70.9218 42.462 70.383 43.0008 69.7207 43.0008C69.0583 43.0008 68.5195 42.462 68.5195 41.7997C68.5195 41.1373 69.0583 40.5985 69.7207 40.5985C70.383 40.5985 70.9218 41.1373 70.9218 41.7997ZM62.6015 41.7997C62.6015 42.462 62.0627 43.0008 61.4004 43.0008C60.738 43.0008 60.1992 42.462 60.1992 41.7997C60.1992 41.1373 60.738 40.5985 61.4004 40.5985C62.0627 40.5985 62.6015 41.1373 62.6015 41.7997ZM70.6134 53.5008C69.2469 54.7694 67.4593 55.4811 65.5604 55.4811C63.6635 55.4811 61.875 54.7688 60.508 53.5006C61.0569 53.2603 61.5115 52.866 61.8234 52.3697C63.0072 52.8334 64.2759 53.0789 65.5605 53.0789C66.8451 53.0789 68.1138 52.8334 69.2976 52.3697C69.6097 52.8662 70.0645 53.2606 70.6134 53.5008ZM54.7546 53.9117C54.2529 53.4877 53.9591 52.8642 53.9591 52.1999C53.959 51.2281 54.5892 50.3751 55.5272 50.0773C55.9762 49.9348 56.2329 49.4636 56.1094 49.009C56.0613 48.8326 56.0391 48.6899 56.0391 48.56C56.0391 48.1524 56.182 47.7703 56.4288 47.4692C57.0803 48.7499 57.999 49.894 59.1281 50.8067C59.4776 51.0891 59.8448 51.3465 60.2264 51.5789C60.1029 51.7212 59.9469 51.8347 59.7664 51.9069L54.7546 53.9117ZM65.5605 59.6414C62.0179 59.6414 58.7442 58.0049 56.4583 55.1234L58.7388 54.2113C60.4834 56.1421 62.9394 57.2391 65.5606 57.2391C68.1843 57.2391 70.6378 56.1424 72.3822 54.2112L74.6635 55.1237C72.3766 58.0043 69.0973 59.6414 65.5605 59.6414ZM76.3665 53.9118L71.3545 51.9069C71.174 51.8347 71.0182 51.7212 70.8946 51.5789C71.2761 51.3464 71.6435 51.0891 71.9929 50.8067C73.122 49.894 74.0408 48.7498 74.6922 47.4692C74.939 47.7703 75.082 48.1524 75.082 48.56C75.082 48.6899 75.0597 48.8326 75.0117 49.009C74.888 49.4636 75.1448 49.9348 75.5939 50.0773C76.5318 50.3751 77.1621 51.2281 77.1621 52.2C77.1621 52.8644 76.8682 53.4878 76.3665 53.9118Z" fill="#FF5312"/>
<path d="M94.7241 50C94.7241 74.5769 74.811 94.5 50.2476 94.5C25.6841 94.5 5.771 74.5769 5.771 50C5.771 25.4231 25.6841 5.5 50.2476 5.5C74.811 5.5 94.7241 25.4231 94.7241 50Z" stroke="#FF5312"/>
<path d="M99.2214 50C99.2214 77.0624 77.2945 99 50.2474 99C23.2003 99 1.27344 77.0624 1.27344 50C1.27344 22.9376 23.2003 1 50.2474 1C77.2945 1 99.2214 22.9376 99.2214 50Z" stroke="#FF5312" stroke-width="2"/>
</svg>
