<svg width="177" height="25" viewBox="0 0 177 25" fill="none" xmlns="http://www.w3.org/2000/svg">
<path d="M116.131 23.7253V5.30698H121.119C122.965 5.30698 124.42 5.7232 125.484 6.55567C126.548 7.38814 127.08 8.61081 127.08 10.2237C127.08 11.8366 126.54 13.068 125.459 13.9178C124.378 14.7502 122.915 15.1665 121.07 15.1665H117.927V23.7253H116.131ZM117.927 6.91987V13.5796H120.969C122.366 13.5796 123.431 13.2935 124.162 12.7211C124.91 12.1488 125.285 11.3164 125.285 10.2237C125.285 8.02116 123.846 6.91987 120.969 6.91987H117.927Z" fill="#2A6AF0"/>
<path d="M145.438 7.59625C147.184 9.41726 148.057 11.7239 148.057 14.5161C148.057 17.3084 147.184 19.6236 145.438 21.462C143.693 23.2831 141.497 24.1936 138.854 24.1936C136.21 24.1936 134.015 23.2831 132.269 21.462C130.523 19.6236 129.651 17.3084 129.651 14.5161C129.651 11.7239 130.523 9.41726 132.269 7.59625C134.015 5.7579 136.21 4.83871 138.854 4.83871C141.497 4.83871 143.693 5.7579 145.438 7.59625ZM144.141 20.2133C145.488 18.6524 146.161 16.7534 146.161 14.5161C146.161 12.2789 145.488 10.3798 144.141 8.81896C142.811 7.25807 141.049 6.47763 138.854 6.47763C136.659 6.47763 134.888 7.25807 133.541 8.81896C132.212 10.3798 131.546 12.2789 131.546 14.5161C131.546 16.7534 132.212 18.6524 133.541 20.2133C134.888 21.7569 136.659 22.5286 138.854 22.5286C141.049 22.5286 142.811 21.7569 144.141 20.2133Z" fill="#2A6AF0"/>
<path d="M161.764 7.07596L160.343 8.27267C159.511 7.04128 158.298 6.4256 156.702 6.4256C155.721 6.4256 154.848 6.72911 154.083 7.33611C153.318 7.94312 152.935 8.79291 152.935 9.88557C152.935 10.3365 153.01 10.744 153.16 11.1082C153.326 11.4724 153.501 11.7586 153.684 11.9667C153.867 12.1748 154.166 12.3916 154.582 12.6171C155.014 12.8425 155.347 12.9986 155.579 13.0853C155.829 13.172 156.228 13.3108 156.776 13.5015C157.342 13.6923 157.708 13.8224 157.874 13.8918C158.057 13.9438 158.389 14.0739 158.871 14.282C159.37 14.4901 159.711 14.6722 159.894 14.8283C160.094 14.967 160.36 15.1839 160.692 15.4786C161.041 15.7735 161.282 16.0683 161.415 16.3632C161.565 16.658 161.698 17.0222 161.814 17.4558C161.947 17.8894 162.014 18.3663 162.014 18.8866C162.014 20.6036 161.44 21.9216 160.293 22.8408C159.145 23.7427 157.799 24.1936 156.253 24.1936C155.138 24.1936 154.083 23.9594 153.085 23.4911C152.104 23.0229 151.306 22.3465 150.691 21.462L152.238 20.2653C152.653 20.959 153.21 21.5227 153.908 21.9563C154.607 22.3725 155.396 22.5807 156.277 22.5807C157.292 22.5807 158.198 22.2685 158.996 21.6441C159.794 21.0024 160.193 20.1266 160.193 19.0166C160.193 18.5137 160.102 18.0715 159.919 17.6899C159.752 17.2911 159.561 16.9702 159.346 16.7273C159.129 16.4846 158.788 16.2504 158.323 16.025C157.874 15.7822 157.5 15.6087 157.2 15.5047C156.918 15.4007 156.477 15.2532 155.879 15.0624C155.18 14.8369 154.59 14.6115 154.108 14.3861C153.642 14.1606 153.16 13.8571 152.661 13.4756C152.162 13.094 151.78 12.6084 151.514 12.0187C151.264 11.4117 151.14 10.7094 151.14 9.91154C151.14 8.78428 151.431 7.83039 152.013 7.04995C152.612 6.25217 153.318 5.68852 154.133 5.35901C154.964 5.01214 155.845 4.83871 156.776 4.83871C157.89 4.83871 158.888 5.0555 159.769 5.48908C160.65 5.90531 161.316 6.43427 161.764 7.07596Z" fill="#2A6AF0"/>
<path d="M171.089 6.9719V23.7253H169.294V6.9719H163.382V5.30698H177V6.9719H171.089Z" fill="#2A6AF0"/>
<path fill-rule="evenodd" clip-rule="evenodd" d="M66.6978 10.4464H71.3715V5.43855H66.6978V0.10498H60.2667V5.43855H57.1109V10.4464H60.3065V18.9964C60.3065 19.8858 60.3877 20.6964 60.5499 21.4285H71.1038L71.0919 20.7064C70.5858 20.9235 69.9466 21.0321 69.1744 21.0321C68.269 21.0321 67.6299 20.8014 67.257 20.34C66.8842 19.8785 66.6978 19.1593 66.6978 18.1821V10.4464ZM92.4581 21.4285H74.8775C73.9266 19.8218 73.4514 17.8982 73.4514 15.6578C73.4514 12.4007 74.4633 9.78144 76.4872 7.79997C78.5378 5.79141 81.1077 4.78712 84.1967 4.78712C87.1793 4.78712 89.5892 5.77784 91.4265 7.75926C93.2646 9.71354 94.1832 12.4007 94.1832 15.8207C94.1832 16.5535 94.1696 17.0828 94.1432 17.4085H79.7228C79.8293 18.4943 80.3484 19.4035 81.2806 20.1364C82.2129 20.8693 83.2781 21.2357 84.4762 21.2357C86.3936 21.2357 87.8585 20.53 88.87 19.1185L92.4581 21.4285ZM104.797 21.4285H98.2454V5.43855H104.557V8.36999H104.637C105.143 7.31141 105.875 6.46997 106.834 5.84569C107.792 5.19426 108.857 4.86855 110.029 4.86855C110.668 4.86855 111.134 4.92284 111.428 5.03141L111.148 10.8943C110.642 10.7585 110.083 10.6907 109.47 10.6907C107.899 10.6907 106.727 11.1928 105.955 12.1971C105.183 13.1743 104.797 14.2057 104.797 15.2914V21.4285ZM14.7636 21.4285H5.41832L0 5.43855H7.07029L10.5056 18.2635H10.6254L14.1805 5.43855H20.7715L24.4464 18.2635H24.5264L28.0016 5.43855H34.7922L29.3424 21.4285H19.9615L17.3761 13.0928H17.2963L14.7636 21.4285ZM55.0881 21.4285V15.495C55.0881 11.7493 54.3823 9.03499 52.971 7.35212C51.5595 5.64212 49.2161 4.78712 45.9406 4.78712C42.3988 4.78712 39.4429 5.92712 37.0728 8.20709L40.3883 11.8307C41.8529 10.4464 43.4907 9.75426 45.3015 9.75426C46.3667 9.75426 47.2322 10.0121 47.898 10.5278C48.5637 11.0164 48.8965 11.7357 48.8965 12.6857V13.0114C40.3749 13.0114 36.1141 15.2914 36.1141 19.8514C36.1141 20.4114 36.1704 20.9372 36.2828 21.4285H43.3729C43.2383 21.3722 43.1089 21.308 42.9847 21.2357C42.4255 20.8828 42.1459 20.3535 42.1459 19.6478C42.1459 17.8021 44.183 16.8793 48.2574 16.8793H49.0963V17.5714C49.0963 18.8471 48.7368 19.865 48.0178 20.625C47.6717 20.9777 47.2578 21.2456 46.7759 21.4285H55.0881ZM79.7228 13.2557H88.1516C88.1516 12.1428 87.8048 11.22 87.1128 10.4871C86.4473 9.75426 85.4886 9.38781 84.2368 9.38781C83.0114 9.38781 81.9734 9.76781 81.1213 10.5278C80.2691 11.2878 79.8027 12.1971 79.7228 13.2557Z" fill="#111111"/>
<path d="M55.5838 20.9181C53.5531 20.9181 51.6255 20.039 50.2953 18.506C49.9382 18.0944 49.4179 17.8573 48.8708 17.8573C48.3236 17.8573 47.8037 18.0942 47.4463 18.506C46.1165 20.0387 44.189 20.9179 42.158 20.9179C40.127 20.9179 38.1997 20.0387 36.8695 18.5058C36.5124 18.0942 35.9922 17.8572 35.4451 17.8572C34.8979 17.8572 34.3779 18.094 34.0206 18.5058C32.6908 20.0385 30.7632 20.9177 28.7322 20.9177C26.7013 20.9177 24.774 20.0385 23.4439 18.5058C23.0866 18.094 22.5666 17.8572 22.0194 17.8572C21.4723 17.8572 20.9523 18.094 20.595 18.5058C19.265 20.0387 17.3374 20.9179 15.3065 20.9179C13.2755 20.9179 11.3482 20.0387 10.0182 18.506C9.66084 18.0942 9.14089 17.8573 8.59371 17.8573C8.04653 17.8573 7.52658 18.0942 7.16924 18.506C5.8392 20.039 3.91168 20.9181 1.88092 20.9181C0.842023 20.9181 0 21.7548 0 22.7873C0 23.8198 0.842023 24.6565 1.88092 24.6565C4.06884 24.6565 6.17735 23.993 7.94768 22.7873C8.16819 22.6372 8.38427 22.4799 8.59387 22.3131C8.80331 22.4799 9.01963 22.6372 9.24004 22.7873C11.0103 23.993 13.119 24.6565 15.3067 24.6565C17.4944 24.6565 19.6031 23.993 21.3734 22.7873C21.594 22.6372 21.8101 22.4799 22.0197 22.3131C22.2291 22.4799 22.4454 22.6372 22.6659 22.7873C24.4361 23.993 26.5447 24.6565 28.7325 24.6565C30.9202 24.6565 33.0288 23.993 34.7991 22.7873C35.0196 22.6372 35.2356 22.4799 35.4453 22.3131C35.6547 22.4799 35.8709 22.6372 36.0915 22.7873C37.8618 23.993 39.9703 24.6565 42.1583 24.6565C44.3462 24.6565 46.4547 23.993 48.2248 22.7873C48.4453 22.6372 48.6614 22.4799 48.8711 22.3131C49.0804 22.4799 49.2967 22.6372 49.5172 22.7873C51.2876 23.993 53.3961 24.6565 55.584 24.6565C56.6229 24.6565 57.4649 23.8198 57.4649 22.7873C57.4649 21.7551 56.6227 20.9181 55.5838 20.9181Z" fill="#2A6AF0"/>
<path d="M109.545 20.9181C107.514 20.9181 105.586 20.039 104.256 18.506C103.899 18.0944 103.378 17.8573 102.832 17.8573C102.284 17.8573 101.765 18.0942 101.407 18.506C100.077 20.0387 98.1501 20.9179 96.119 20.9179C94.0887 20.9179 92.1601 20.0387 90.8306 18.5058C90.4734 18.0942 89.9528 17.8572 89.4066 17.8572C88.8588 17.8572 88.339 18.094 87.9818 18.5058C86.6515 20.0385 84.7245 20.9177 82.6934 20.9177C80.6623 20.9177 78.7346 20.0385 77.4053 18.5058C77.0478 18.094 76.5278 17.8572 75.9805 17.8572C75.4332 17.8572 74.9133 18.094 74.5558 18.5058C73.2257 20.0387 71.2985 20.9179 69.2674 20.9179C67.2364 20.9179 65.3091 20.0387 63.9791 18.506C63.6218 18.0942 63.1018 17.8573 62.5547 17.8573C62.0075 17.8573 61.4875 18.0942 61.1302 18.506C59.8002 20.039 57.8726 20.9181 55.8419 20.9181C54.8029 20.9181 53.9609 21.7548 53.9609 22.7873C53.9609 23.8198 54.8029 24.6565 55.8419 24.6565C58.0298 24.6565 60.1383 23.993 61.9086 22.7873C62.1291 22.6372 62.3452 22.4799 62.5548 22.3131C62.7642 22.4799 62.9806 22.6372 63.2011 22.7873C64.9712 23.993 67.0799 24.6565 69.2677 24.6565C71.4555 24.6565 73.5642 23.993 75.3344 22.7873C75.5552 22.6372 75.7709 22.4799 75.9805 22.3131C76.1901 22.4799 76.4066 22.6372 76.6266 22.7873C78.3969 23.993 80.5053 24.6565 82.6934 24.6565C84.8815 24.6565 86.9903 23.993 88.7603 22.7873C88.9805 22.6372 89.1968 22.4799 89.4066 22.3131C89.6156 22.4799 89.8319 22.6372 90.0521 22.7873C91.8229 23.993 93.9317 24.6565 96.119 24.6565C98.307 24.6565 100.416 23.993 102.186 22.7873C102.406 22.6372 102.622 22.4799 102.832 22.3131C103.041 22.4799 103.257 22.6372 103.478 22.7873C105.248 23.993 107.357 24.6565 109.545 24.6565C110.583 24.6565 111.426 23.8198 111.426 22.7873C111.426 21.7551 110.583 20.9181 109.545 20.9181Z" fill="#2A6AF0"/>
</svg>
