<svg width="39" height="39" fill="none" xmlns="http://www.w3.org/2000/svg"><g clip-path="url(#clip0)"><path d="M35.204 16.539v-6.341c0-2.836-2.002-3.879-3.879-3.879H7.55c-1.877 0-3.88 1.001-3.88 3.88v6.34C1.795 16.747 0 17.999 0 20.877v4.922c0 .834.667 1.501 1.502 1.501h.5v3.88c0 .833.668 1.5 1.502 1.5h1.418c.834 0 1.502-.667 1.502-1.5v-3.922h26.153v3.921c0 .834.667 1.502 1.501 1.502h1.418c.834 0 1.502-.668 1.502-1.502v-3.92h.5c.835 0 1.502-.668 1.502-1.502v-4.88c-.125-2.878-1.919-4.13-3.796-4.338zM5.09 10.199h.083c0-1.961 1.293-2.378 2.378-2.378h23.775c1.085 0 2.378.417 2.378 2.377v6.299h-1.127V12.91c0-.835-.667-1.502-1.501-1.502h-9.177c-.834 0-1.501.668-1.501 1.502v3.587h-1.752V12.91c0-.835-.668-1.502-1.502-1.502H7.967c-.834 0-1.502.668-1.502 1.502v3.587H5.09v-6.299zm25.986 2.71v3.588h-9.177V12.91h9.177zm-13.848 0v3.588H8.05V12.91h9.177zM4.88 31.18H3.462v-3.92H4.88v3.92zm30.533 0h-1.418v-3.92h1.418v3.92zm1.96-5.38H1.46v-2.211h35.913v2.21zm0-3.713H1.46v-1.21c0-2.502 1.835-2.878 2.878-2.878h30.157c1.085 0 2.878.376 2.878 2.879v1.21z" fill="#C5A26D"/></g><defs><clipPath id="clip0"><path fill="#fff" d="M0 0h39v39H0z"/></clipPath></defs></svg>