<svg width="32" height="32" fill="none" xmlns="http://www.w3.org/2000/svg"><g clip-path="url(#clip0)" fill="#C5A26D"><path d="M22.324 6.711a8.82 8.82 0 0 0-6.197-2.637 8.81 8.81 0 0 0-6.336 2.557 8.805 8.805 0 0 0-2.656 6.29 8.875 8.875 0 0 0 3.04 6.715c1.404 1.226 2.21 2.97 2.21 4.783v4.477A3.108 3.108 0 0 0 15.489 32h1.042a3.108 3.108 0 0 0 3.104-3.104v-4.42c0-1.865.79-3.616 2.167-4.804a8.871 8.871 0 0 0 3.083-6.724c0-2.35-.91-4.565-2.561-6.237zm-6.322 10.736h-.415a.411.411 0 0 1 0-.822c.229 0 .415.186.415.415v.407zm.008 3.715c.345 0 .625.28.625.625v2.125h-1.25v-2.125c0-.345.28-.625.625-.625zm2.375 4v.92h-4.75v-.92h4.75zm-4.75 2.17h4.75v.918h-4.75v-.919zm2.896 3.418h-1.042a1.857 1.857 0 0 1-1.753-1.25h4.547a1.857 1.857 0 0 1-1.752 1.25zm4.455-12.025a7.548 7.548 0 0 0-2.58 5.187h-.521v-2.125a1.87 1.87 0 0 0-.634-1.403l.001-.009v-2.054a2.01 2.01 0 0 0 .841-1.635v-.968a2.418 2.418 0 0 0-2.415-2.415h-1.126a.625.625 0 1 0 0 1.25h1.126c.643 0 1.165.523 1.165 1.165v.23a1.661 1.661 0 1 0-1.256 2.75h.415v1.214a1.877 1.877 0 0 0-1.867 1.875v2.125h-.518a7.636 7.636 0 0 0-2.62-5.218 7.624 7.624 0 0 1-2.612-5.769 7.564 7.564 0 0 1 2.283-5.403 7.566 7.566 0 0 1 5.443-2.198c4.149.054 7.524 3.474 7.524 7.624 0 2.22-.966 4.326-2.649 5.777z"/><path d="M16.136 7.114h-.01a.623.623 0 0 0-.629.618.628.628 0 0 0 .621.632h.017a.622.622 0 0 0 .622-.617.627.627 0 0 0-.621-.633zm2.75.733a.625.625 0 1 0-.608 1.092 4.592 4.592 0 0 1 2.358 4.008.625.625 0 1 0 1.25 0c0-2.115-1.15-4.07-3-5.1z"/></g><defs><clipPath id="clip0"><path fill="#fff" d="M0 0h32v32H0z"/></clipPath></defs></svg>