<svg width="37" height="50" fill="none" xmlns="http://www.w3.org/2000/svg"><path d="M18.108 0C8.123 0 0 8.123 0 18.108 0 30.5 16.205 48.691 16.895 49.46a1.63 1.63 0 0 0 2.426 0c.69-.768 16.895-18.96 16.895-31.35C36.216 8.122 28.093 0 18.108 0zm0 45.872c-5.454-6.478-14.847-19.26-14.847-27.764 0-8.187 6.66-14.847 14.847-14.847s14.847 6.66 14.847 14.847c0 8.505-9.392 21.284-14.847 27.764z" fill="#C5A26D"/><path d="M18.108 8.997c-5.024 0-9.11 4.087-9.11 9.11 0 5.024 4.087 9.111 9.11 9.111 5.024 0 9.11-4.087 9.11-9.11 0-5.024-4.086-9.11-9.11-9.11zm0 14.96a5.856 5.856 0 0 1-5.85-5.85 5.856 5.856 0 0 1 5.85-5.849 5.856 5.856 0 0 1 5.85 5.85 5.856 5.856 0 0 1-5.85 5.85z" fill="#C5A26D"/></svg>