<svg width="22" height="38" fill="none" xmlns="http://www.w3.org/2000/svg"><path d="M13.933 1.9H7.6a.634.634 0 0 0 0 1.267h6.333a.634.634 0 0 0 0-1.267zm-2.38 30.4H9.981a1.75 1.75 0 0 0-1.748 1.748v.306c0 .963.784 1.746 1.747 1.746h1.573a1.75 1.75 0 0 0 1.747-1.746v-.306a1.75 1.75 0 0 0-1.747-1.748zm.48 2.054a.48.48 0 0 1-.48.48H9.981a.48.48 0 0 1-.481-.48v-.306a.48.48 0 0 1 .48-.481h1.573a.48.48 0 0 1 .48.48v.307z" fill="#C5A26D"/><path d="M19.244 0H2.29A2.292 2.292 0 0 0 0 2.29v33.42A2.292 2.292 0 0 0 2.29 38h16.954a2.292 2.292 0 0 0 2.29-2.289V2.29A2.292 2.292 0 0 0 19.243 0zm1.023 35.71c0 .564-.459 1.023-1.023 1.023H2.29a1.023 1.023 0 0 1-1.023-1.022V2.29c0-.563.458-1.022 1.022-1.022h16.955c.564 0 1.023.459 1.023 1.022v33.422z" fill="#C5A26D"/><path d="M20.9 3.8H.633A.634.634 0 0 0 0 4.434v26.6c0 .35.284.633.633.633H20.9c.35 0 .633-.284.633-.633v-26.6A.634.634 0 0 0 20.9 3.8zm-.633 26.6h-19V5.067h19V30.4z" fill="#C5A26D"/></svg>