<svg width="15" height="21" fill="none" xmlns="http://www.w3.org/2000/svg"><path d="M7.373 0C3.307 0 0 3.307 0 7.373c0 5.045 6.598 12.452 6.879 12.765a.664.664 0 0 0 .988 0c.28-.313 6.879-7.72 6.879-12.765C14.746 3.307 11.438 0 7.373 0zm0 18.677c-2.22-2.637-6.045-7.841-6.045-11.304a6.052 6.052 0 0 1 6.045-6.045 6.052 6.052 0 0 1 6.045 6.045c0 3.463-3.824 8.666-6.045 11.304z" fill="#C5A26D"/><path d="M7.373 3.663a3.714 3.714 0 0 0-3.71 3.71 3.714 3.714 0 0 0 3.71 3.71 3.714 3.714 0 0 0 3.71-3.71 3.714 3.714 0 0 0-3.71-3.71zm0 6.091A2.384 2.384 0 0 1 4.99 7.373 2.384 2.384 0 0 1 7.373 4.99a2.384 2.384 0 0 1 2.382 2.382 2.384 2.384 0 0 1-2.382 2.381z" fill="#C5A26D"/></svg>