<svg width="53" height="19" fill="none" xmlns="http://www.w3.org/2000/svg"><path d="M52.303 2.143a9.161 9.161 0 0 1-2.627.721 4.594 4.594 0 0 0 2.01-2.53 9.224 9.224 0 0 1-2.907 1.111 4.575 4.575 0 0 0-7.796 4.171 12.989 12.989 0 0 1-9.43-4.78 4.54 4.54 0 0 0-.618 2.3 4.57 4.57 0 0 0 2.035 3.807 4.576 4.576 0 0 1-2.072-.574v.057a4.58 4.58 0 0 0 3.669 4.486c-.383.103-.787.16-1.206.16-.295 0-.58-.029-.86-.084a4.578 4.578 0 0 0 4.272 3.177 9.18 9.18 0 0 1-5.682 1.955c-.37 0-.733-.022-1.091-.062a12.932 12.932 0 0 0 7.013 2.058c8.416 0 13.017-6.971 13.017-13.017l-.016-.592a9.136 9.136 0 0 0 2.289-2.364zM27.254 0H12.806C11.813 0 11 .813 11 1.806v14.448c0 .993.813 1.806 1.806 1.806h14.448c.993 0 1.806-.813 1.806-1.806V1.806C29.06.813 28.247 0 27.254 0zM20.03 5.418a3.623 3.623 0 0 1 3.612 3.612 3.623 3.623 0 0 1-3.612 3.612 3.623 3.623 0 0 1-3.612-3.612 3.622 3.622 0 0 1 3.612-3.612zm-6.773 10.836c-.27 0-.451-.181-.451-.452V8.127h1.896c-.09.27-.09.632-.09.903 0 2.98 2.438 5.418 5.418 5.418s5.418-2.438 5.418-5.418c0-.271 0-.632-.09-.903h1.896v7.675c0 .271-.181.452-.452.452H13.257zm13.997-12.19c0 .27-.181.45-.452.45h-1.806c-.27 0-.451-.18-.451-.45V2.256c0-.27.18-.451.451-.451h1.806c.271 0 .452.18.452.451v1.806zM9.414.004L7.068 0c-2.636 0-4.34 1.744-4.34 4.444v2.05H.368A.369.369 0 0 0 0 6.862v2.97c0 .203.165.367.369.367h2.36v7.492c0 .204.164.369.368.369h3.078a.369.369 0 0 0 .369-.369V10.2h2.758a.368.368 0 0 0 .37-.368v-2.97a.368.368 0 0 0-.369-.368h-2.76V4.757c0-.835.2-1.26 1.29-1.26h1.58a.369.369 0 0 0 .37-.368V.372a.369.369 0 0 0-.37-.368z" fill="#C5A26D"/></svg>