<svg width="23" height="20" fill="none" xmlns="http://www.w3.org/2000/svg"><path d="M23 3.135a9.15 9.15 0 0 1-2.627.72 4.594 4.594 0 0 0 2.011-2.53 9.224 9.224 0 0 1-2.907 1.111 4.575 4.575 0 0 0-7.796 4.171 12.99 12.99 0 0 1-9.43-4.78 4.54 4.54 0 0 0-.619 2.3c0 1.587.809 2.988 2.035 3.807a4.575 4.575 0 0 1-2.072-.574v.057a4.58 4.58 0 0 0 3.67 4.486 4.606 4.606 0 0 1-2.067.076 4.578 4.578 0 0 0 4.273 3.177 9.18 9.18 0 0 1-5.682 1.956c-.37 0-.733-.023-1.092-.063a12.932 12.932 0 0 0 7.013 2.058c8.416 0 13.017-6.97 13.017-13.016l-.015-.593A9.136 9.136 0 0 0 23 3.135z" fill="#C5A26D"/></svg>