<svg width="61" height="63" fill="none" xmlns="http://www.w3.org/2000/svg"><path d="M27.603 23.616h7.085v-7.085a1.181 1.181 0 0 1 2.361 0v7.085h7.085a1.181 1.181 0 0 1 0 2.362H37.05v7.084a1.181 1.181 0 0 1-2.361 0v-7.084h-7.085a1.181 1.181 0 0 1 0-2.362z" fill="#fff"/><path d="M1.109 60.543l17.545-18.247c-4.475-4.488-7.248-10.675-7.248-17.5C11.406 11.124 22.53 0 36.203 0 49.877 0 61 11.123 61 24.797c0 13.673-11.123 24.797-24.797 24.797A24.682 24.682 0 0 1 20.4 43.888L2.811 62.18a1.178 1.178 0 0 1-1.67.033 1.182 1.182 0 0 1-.032-1.67zm57.53-35.746c0-12.371-10.065-22.435-22.436-22.435S13.768 12.426 13.768 24.797c0 12.371 10.064 22.435 22.435 22.435 12.371 0 22.435-10.064 22.435-22.435z" fill="#fff"/></svg>