<svg width="40" height="53" fill="none" xmlns="http://www.w3.org/2000/svg"><path d="M20.006.041C8.959.041 0 8.847 0 19.706c0 4.42 1.484 8.504 3.99 11.788l16.015 20.973L36.01 31.484A19.344 19.344 0 0 0 40 19.695C40 8.847 31.041.041 20.006.041zm0 32.772c-7.365 0-13.334-5.867-13.334-13.107 0-7.24 5.969-13.106 13.334-13.106 7.364 0 13.333 5.867 13.333 13.106 0 7.229-5.98 13.107-13.333 13.107z" fill="#ED0035"/><path d="M24.537 12.016c.637.268 1 .764 1.2 1.386.396 1.181.363 2.347-.225 3.473-.233.45-.564.812-1.136.82-.58.007-.902-.355-1.16-.788-.41-.693-.5-1.457-.475-2.237v-.386c-.532-.142-.967.126-1.023.733a7.19 7.19 0 0 0 .04 1.717c.233 1.449.564 2.882.781 4.332.25 1.646.274 3.284-.346 4.883-1.2 3.103-4.915 3.938-7.525 2.048-.919-.67-1.37-1.623-1.58-2.702-.015-.102-.056-.197-.088-.291V23.35c.032-.11.072-.22.089-.331.233-1.41 1.111-2.418 2.352-2.552 1.048-.11 2.111-.095 3.167-.134a33.49 33.49 0 0 1 .46 1.993H17.35c-.766 0-1.362.346-1.587 1.047-.17.52-.21 1.103-.178 1.654.073 1.008.95 1.82 2.03 2 .798.135 1.62-.385 2.087-1.307.33-.661.435-1.37.451-2.102.033-1.552-.37-3.04-.66-4.545-.266-1.386-.435-2.773-.194-4.182.258-1.528 1.225-2.529 2.667-2.78.186-.032.363-.072.54-.111.685.016 1.362.016 2.03.016z" fill="#ED0035"/></svg>