<svg width="40" height="40" viewBox="0 0 40 40" fill="none" xmlns="http://www.w3.org/2000/svg">
<path d="M36.6667 0H3.33333C2.59692 0 2 0.596917 2 1.33333V38.6667C2 39.4031 2.59692 40 3.33333 40H36.6667C37.4031 40 38 39.4031 38 38.6667V1.33333C38 0.596917 37.4031 0 36.6667 0ZM36.6667 38.6667H3.33333V16.6667H36.6667V38.6667ZM36.6667 15.3333H3.33333V12.6667H36.6667V15.3333ZM36.6667 11.3333H3.33333V1.33333H36.6667V11.3333Z" fill="#8BC958"/>
<path d="M16 2.66602H8C6.89542 2.66602 6 3.56143 6 4.66602V7.99935C6 9.10393 6.89542 9.99935 8 9.99935H16C17.1046 9.99935 18 9.10393 18 7.99935V4.66602C18 3.56143 17.1046 2.66602 16 2.66602ZM16.6667 7.99935C16.6667 8.36752 16.3682 8.66602 16 8.66602H8C7.63183 8.66602 7.33333 8.36752 7.33333 7.99935V4.66602C7.33333 4.29785 7.63183 3.99935 8 3.99935H16C16.3682 3.99935 16.6667 4.29785 16.6667 4.66602V7.99935Z" fill="#8BC958"/>
<path d="M32 2.66602H24C22.8954 2.66602 22 3.56143 22 4.66602V7.99935C22 9.10393 22.8954 9.99935 24 9.99935H32C33.1046 9.99935 34 9.10393 34 7.99935V4.66602C34 3.56143 33.1046 2.66602 32 2.66602ZM32.6667 7.99935C32.6667 8.36752 32.3682 8.66602 32 8.66602H24C23.6318 8.66602 23.3333 8.36752 23.3333 7.99935V4.66602C23.3333 4.29785 23.6318 3.99935 24 3.99935H32C32.3682 3.99935 32.6667 4.29785 32.6667 4.66602V7.99935Z" fill="#8BC958"/>
</svg>
