<svg width="40" height="40" viewBox="0 0 40 40" fill="none" xmlns="http://www.w3.org/2000/svg">
<path d="M39.3333 5.66602H0.666667C0.2985 5.66602 0 5.96452 0 6.33268V28.9994C0 29.3675 0.2985 29.666 0.666667 29.666H18V32.9994H9.33333C8.96517 32.9994 8.66667 33.2979 8.66667 33.666C8.66667 34.0342 8.96517 34.3327 9.33333 34.3327H30.6667C31.0348 34.3327 31.3333 34.0342 31.3333 33.666C31.3333 33.2979 31.0348 32.9994 30.6667 32.9994H22V29.666H39.3333C39.7015 29.666 40 29.3675 40 28.9994V6.33268C40 5.96452 39.7015 5.66602 39.3333 5.66602ZM35.0573 6.99935L16.3907 25.666H12.9427L31.6093 6.99935H35.0573ZM29.724 6.99935L11.0573 25.666H2.276L20.9427 6.99935H29.724ZM1.33333 6.99935H19.0573L1.33333 24.7234V6.99935ZM20.6667 32.9994H19.3333V29.666H20.6667V32.9994ZM38.6667 28.3327H1.33333V26.9994H38.6667V28.3327ZM38.6667 25.666H18.276L36.9427 6.99935H38.6667V25.666Z" fill="#8BC958"/>
</svg>
