<svg width="40" height="40" viewBox="0 0 40 40" fill="none" xmlns="http://www.w3.org/2000/svg">
<path d="M39.3333 0H0.666667C0.2985 0 0 0.2985 0 0.666667V36.6667C0 37.0348 0.2985 37.3333 0.666667 37.3333H1.33333V39.3333C1.33333 39.7015 1.63183 40 2 40H38C38.3682 40 38.6667 39.7015 38.6667 39.3333V37.3333H39.3333C39.7015 37.3333 40 37.0348 40 36.6667V0.666667C40 0.2985 39.7015 0 39.3333 0ZM37.3333 38.6667H2.66667V37.3333H37.3333V38.6667ZM38.6667 28H33.3333V26.6667H38.6667V28ZM32.6667 12H34.6667V25.3333H32.6667C32.2985 25.3333 32 25.6318 32 26V28.6667C32 29.0348 32.2985 29.3333 32.6667 29.3333H34.6667V32H5.33333V5.33333H34.6667V8H32.6667C32.2985 8 32 8.2985 32 8.66667V11.3333C32 11.7015 32.2985 12 32.6667 12ZM38.6667 25.3333H36V12H38.6667V25.3333ZM38.6667 10.6667H33.3333V9.33333H38.6667V10.6667ZM38.6667 8H36V4.66667C36 4.2985 35.7015 4 35.3333 4H4.66667C4.2985 4 4 4.2985 4 4.66667V32.6667C4 33.0348 4.2985 33.3333 4.66667 33.3333H35.3333C35.7015 33.3333 36 33.0348 36 32.6667V29.3333H38.6667V36H1.33333V1.33333H38.6667V8Z" fill="#8BC958"/>
<path d="M12.667 12.666C9.35333 12.666 6.66699 15.3523 6.66699 18.666C6.66699 21.9797 9.35333 24.666 12.667 24.666C15.9807 24.666 18.667 21.9797 18.667 18.666C18.6633 15.3538 15.9792 12.6697 12.667 12.666ZM12.0003 14.0527V17.518C11.8012 17.6344 11.6355 17.8003 11.519 17.9993H8.05233C8.34966 15.9549 9.95583 14.3493 12.0003 14.0527ZM12.0003 23.2793C9.95633 22.9822 8.35083 21.3767 8.05366 19.3327H11.5203C11.6368 19.5318 11.8026 19.6975 12.0017 19.814L12.0003 23.2793ZM13.3337 14.0513C15.3781 14.3487 16.9837 15.9548 17.2803 17.9993H13.815C13.6986 17.8003 13.5327 17.6344 13.3337 17.518V14.0513ZM13.3337 23.2793V19.8127C13.5326 19.6966 13.6983 19.5313 13.815 19.3327H17.2817C16.9843 21.3771 15.3782 22.9827 13.3337 23.2793Z" fill="#8BC958"/>
<path d="M26.667 14.666C24.4578 14.666 22.667 16.4568 22.667 18.666C22.667 20.8752 24.4578 22.666 26.667 22.666C28.8762 22.666 30.667 20.8752 30.667 18.666C30.6648 16.4578 28.8752 14.6682 26.667 14.666ZM26.667 21.3327C25.1942 21.3327 24.0003 20.1388 24.0003 18.666C24.0003 17.1933 25.1942 15.9993 26.667 15.9993C28.1397 15.9993 29.3337 17.1933 29.3337 18.666C29.3337 20.1388 28.1397 21.3327 26.667 21.3327Z" fill="#8BC958"/>
<path d="M26.6663 20.0007C27.4027 20.0007 27.9997 19.4037 27.9997 18.6673C27.9997 17.9309 27.4027 17.334 26.6663 17.334C25.93 17.334 25.333 17.9309 25.333 18.6673C25.333 19.4037 25.93 20.0007 26.6663 20.0007Z" fill="#8BC958"/>
<path d="M26.6667 12C26.2985 12 26 12.2985 26 12.6667V13.3333C26 13.7015 26.2985 14 26.6667 14C27.0348 14 27.3333 13.7015 27.3333 13.3333V12.6667C27.3333 12.2985 27.0348 12 26.6667 12Z" fill="#8BC958"/>
<path d="M31.3644 13.9528C31.106 13.7032 30.6964 13.7032 30.438 13.9528L29.9667 14.4241C29.7063 14.6845 29.7064 15.1066 29.9668 15.3669C30.0919 15.4918 30.2614 15.5621 30.438 15.5621C30.6149 15.5621 30.7844 15.4918 30.9094 15.3668L31.3807 14.8954C31.6365 14.6306 31.6292 14.2085 31.3644 13.9528Z" fill="#8BC958"/>
<path d="M32.6663 18H31.9997C31.6315 18 31.333 18.2985 31.333 18.6667C31.333 19.0348 31.6315 19.3333 31.9997 19.3333H32.6663C33.0345 19.3333 33.333 19.0348 33.333 18.6667C33.333 18.2985 33.0345 18 32.6663 18Z" fill="#8BC958"/>
<path d="M31.3802 22.4385L30.9089 21.9672C30.653 21.7024 30.231 21.695 29.9662 21.9509C29.7014 22.2067 29.694 22.6287 29.9499 22.8935C29.9552 22.899 29.9607 22.9045 29.9662 22.9098L30.4375 23.3812C30.7024 23.637 31.1244 23.6297 31.3802 23.3648C31.6298 23.1065 31.6298 22.6969 31.3802 22.4385Z" fill="#8BC958"/>
<path d="M26.6667 23.334C26.2985 23.334 26 23.6325 26 24.0007V24.6673C26 25.0355 26.2985 25.334 26.6667 25.334C27.0348 25.334 27.3333 25.0355 27.3333 24.6673V24.0007C27.3333 23.6325 27.0348 23.334 26.6667 23.334Z" fill="#8BC958"/>
<path d="M23.3829 21.9672C23.127 21.7024 22.705 21.695 22.4402 21.9509C22.4347 21.9562 22.4292 21.9617 22.4239 21.9672L21.9525 22.4385C21.6877 22.6944 21.6804 23.1164 21.9362 23.3812C22.192 23.646 22.614 23.6534 22.8789 23.3975C22.8844 23.3922 22.8899 23.3868 22.8952 23.3812L23.3665 22.9099C23.6314 22.654 23.6387 22.232 23.3829 21.9672Z" fill="#8BC958"/>
<path d="M21.3333 18H20.6667C20.2985 18 20 18.2985 20 18.6667C20 19.0348 20.2985 19.3333 20.6667 19.3333H21.3333C21.7015 19.3333 22 19.0348 22 18.6667C22 18.2985 21.7015 18 21.3333 18Z" fill="#8BC958"/>
<path d="M23.3831 14.4405C23.3778 14.4349 23.3723 14.4295 23.3668 14.4241L22.8954 13.9528C22.6306 13.697 22.2086 13.7043 21.9528 13.9691C21.7032 14.2275 21.7032 14.6371 21.9528 14.8955L22.4241 15.3668C22.6799 15.6316 23.1019 15.639 23.3668 15.3831C23.6316 15.1274 23.6389 14.7053 23.3831 14.4405Z" fill="#8BC958"/>
</svg>
