<svg width="40" height="40" viewBox="0 0 40 40" fill="none" xmlns="http://www.w3.org/2000/svg">
<path d="M39.3333 3.66732H36.6667V3.00065C36.6667 2.63248 36.3682 2.33398 36 2.33398H32.6667C32.2985 2.33398 32 2.63248 32 3.00065V7.66732H31.3333V7.00065C31.3333 6.63248 31.0348 6.33398 30.6667 6.33398H28C27.6318 6.33398 27.3333 6.63248 27.3333 7.00065V7.66732H12.6667V7.00065C12.6667 6.63248 12.3682 6.33398 12 6.33398H9.33333C8.96517 6.33398 8.66667 6.63248 8.66667 7.00065V7.66732H8V3.00065C8 2.63248 7.7015 2.33398 7.33333 2.33398H4C3.63183 2.33398 3.33333 2.63248 3.33333 3.00065V3.66732H0.666667C0.2985 3.66732 0 3.96582 0 4.33398V14.334C0 14.7022 0.2985 15.0007 0.666667 15.0007H3.33333V15.6673C3.33333 16.0355 3.63183 16.334 4 16.334H7.33333C7.7015 16.334 8 16.0355 8 15.6673V11.6673H8.66667V12.334C8.66667 12.7022 8.96517 13.0007 9.33333 13.0007H10V37.0007C10 37.3688 10.2985 37.6673 10.6667 37.6673C11.0348 37.6673 11.3333 37.3688 11.3333 37.0007V13.0007H12C12.3682 13.0007 12.6667 12.7022 12.6667 12.334V11.6673H27.3333V12.334C27.3333 12.7022 27.6318 13.0007 28 13.0007H28.6667V37.0007C28.6667 37.3688 28.9652 37.6673 29.3333 37.6673C29.7015 37.6673 30 37.3688 30 37.0007V13.0007H30.6667C31.0348 13.0007 31.3333 12.7022 31.3333 12.334V11.6673H32V15.6673C32 16.0355 32.2985 16.334 32.6667 16.334H36C36.3682 16.334 36.6667 16.0355 36.6667 15.6673V15.0007H39.3333C39.7015 15.0007 40 14.7022 40 14.334V4.33398C40 3.96582 39.7015 3.66732 39.3333 3.66732ZM3.33333 13.6673H1.33333V5.00065H3.33333V13.6673ZM6.66667 8.33398V15.0007H4.66667V3.66732H6.66667V8.33398ZM8.66667 10.334H8V9.00065H8.66667V10.334ZM11.3333 11.6673H10V7.66732H11.3333V11.6673ZM27.3333 10.334H12.6667V9.00065H27.3333V10.334ZM30 11.6673H28.6667V7.66732H30V11.6673ZM32 10.334H31.3333V9.00065H32V10.334ZM35.3333 4.33398V15.0007H33.3333V3.66732H35.3333V4.33398ZM38.6667 13.6673H36.6667V5.00065H38.6667V13.6673Z" fill="#8BC958"/>
<path d="M27.2195 25.6664C26.9379 24.8667 26.1816 24.3323 25.3337 24.334H14.6671C13.5651 24.3319 12.6701 25.2236 12.668 26.3255C12.6664 27.1733 13.2007 27.9297 14.0004 28.2113V29.6673C14.0004 30.0355 14.2989 30.334 14.6671 30.334V37.0006C14.6671 37.3688 14.9656 37.6673 15.3337 37.6673C15.7019 37.6673 16.0004 37.3688 16.0004 37.0006V36.334H24.0004V37.0006C24.0004 37.3688 24.2989 37.6673 24.667 37.6673C25.0352 37.6673 25.3337 37.3688 25.3337 37.0006V30.334C25.7019 30.334 26.0004 30.0355 26.0004 29.6673V28.2113C27.0398 27.8452 27.5856 26.7058 27.2195 25.6664ZM24.0004 35.0006H16.0004V30.334H24.0004V35.0006ZM24.667 29.0006H15.3337V28.334H24.667V29.0006ZM25.3337 27.0007H14.6671C14.2989 27.0007 14.0004 26.7022 14.0004 26.334C14.0004 25.9658 14.2989 25.6673 14.6671 25.6673H25.3337C25.7019 25.6673 26.0004 25.9658 26.0004 26.334C26.0004 26.7022 25.7019 27.0007 25.3337 27.0007Z" fill="#8BC958"/>
</svg>
