<svg width="40" height="40" viewBox="0 0 40 40" fill="none" xmlns="http://www.w3.org/2000/svg">
<g clip-path="url(#clip0)">
<path d="M19.9995 7.33398C13.004 7.33398 7.33301 13.005 7.33301 20.0005C7.33301 26.996 13.004 32.667 19.9995 32.667C26.995 32.667 32.666 26.996 32.666 20.0005C32.6583 13.0082 26.9918 7.34165 19.9995 7.33398ZM20.6662 31.2997V30.0004C20.6662 29.6322 20.3677 29.3337 19.9995 29.3337C19.6314 29.3337 19.3329 29.6322 19.3329 30.0004V31.2997C13.6085 30.9573 9.04274 26.3915 8.70032 20.6671H9.99964C10.3678 20.6671 10.6663 20.3687 10.6663 20.0005C10.6663 19.6323 10.3678 19.3338 9.99964 19.3338H8.70032C9.04274 13.6095 13.6085 9.04371 19.3329 8.7013V10.0006C19.3329 10.3688 19.6314 10.6673 19.9995 10.6673C20.3677 10.6673 20.6662 10.3688 20.6662 10.0006V8.7013C26.3905 9.04371 30.9563 13.6095 31.2987 19.3338H29.9994C29.6312 19.3338 29.3327 19.6323 29.3327 20.0005C29.3327 20.3687 29.6312 20.6671 29.9994 20.6671H31.2987C30.9563 26.3915 26.3905 30.9573 20.6662 31.2997Z" fill="#8BC958"/>
<path d="M28.2099 22.0329L24.588 20.8255C25.0517 18.2903 23.3725 15.8591 20.8373 15.3953C18.3021 14.9316 15.8708 16.6108 15.4071 19.1461C15.1728 20.4268 15.4842 21.7471 16.2661 22.7882L15.5268 23.5275C15.2619 23.7832 15.2546 24.2053 15.5104 24.4702C15.7662 24.735 16.1882 24.7423 16.4531 24.4865C16.4587 24.4812 16.4641 24.4757 16.4694 24.4702L17.2101 23.7322C19.2605 25.276 22.1742 24.8654 23.718 22.815C23.8889 22.588 24.0386 22.3458 24.1653 22.0915L27.7886 23.2995C28.1383 23.4158 28.5162 23.2266 28.6326 22.8768C28.7489 22.527 28.5597 22.1492 28.2099 22.0329ZM19.9994 23.3322C19.3462 23.332 18.7077 23.1388 18.1641 22.7768L19.6587 21.2822C20.0874 21.4059 20.5494 21.2968 20.8773 20.9942L22.8727 21.6609C22.2822 22.6913 21.1868 23.3283 19.9994 23.3322ZM23.2927 20.3942L21.3053 19.7322C21.157 19.011 20.452 18.5465 19.7308 18.6948C19.1116 18.8221 18.667 19.3667 18.666 19.9989C18.6676 20.1141 18.6845 20.2287 18.716 20.3395L17.2214 21.8342C16.204 20.3 16.6229 18.2314 18.1571 17.214C19.6914 16.1966 21.7599 16.6155 22.7773 18.1497C23.1408 18.6978 23.334 19.3411 23.3327 19.9988C23.3274 20.1314 23.3141 20.2634 23.2927 20.3942Z" fill="#8BC958"/>
<path d="M36.6664 33.3329H34.9004C42.2671 25.1066 41.5701 12.4661 33.3439 5.09944C29.6756 1.81448 24.9241 -0.00133258 19.9999 7.33751e-07C8.95431 -8.25985e-05 8.33323e-05 8.95406 0 19.9996C0 25.1352 1.97556 30.074 5.51743 33.7928C5.77151 34.0594 6.19351 34.0696 6.46009 33.8155C6.72667 33.5614 6.73683 33.1394 6.48275 32.8728C-0.628242 25.4088 -0.341995 13.5933 7.12216 6.48234C14.5863 -0.628658 26.4018 -0.342329 33.5127 7.12174C40.1898 14.1304 40.4012 25.0804 33.9997 32.3415V30.6662C33.9997 30.298 33.7012 29.9995 33.3331 29.9995C32.9649 29.9995 32.6664 30.298 32.6664 30.6662V33.9995C32.6664 34.3677 32.9649 34.6661 33.3331 34.6661H36.6664C37.0345 34.6661 37.333 34.3677 37.333 33.9995C37.333 33.6313 37.0345 33.3329 36.6664 33.3329Z" fill="#8BC958"/>
<path d="M12.9643 36.5987C13.1914 36.4852 13.3344 36.2526 13.333 35.9987V33.9987C13.333 33.6305 13.0345 33.332 12.6663 33.332H9.99968C9.63151 33.332 9.33301 33.6305 9.33301 33.9987V35.332C9.33301 35.7002 9.63151 35.9987 9.99968 35.9987C10.3678 35.9987 10.6663 35.7002 10.6663 35.332V34.6654H11.9997V35.5867L9.70168 36.7354C9.47567 36.8483 9.33292 37.0794 9.33301 37.332V39.332C9.33301 39.7002 9.63151 39.9987 9.99968 39.9987H12.6663C13.0345 39.9987 13.333 39.7002 13.333 39.332C13.333 38.9639 13.0345 38.6654 12.6663 38.6654H10.6663V37.744L12.9643 36.5987Z" fill="#8BC958"/>
<path d="M19.3327 36.6654H18.666V34.6654C18.666 34.2972 18.3675 33.9987 17.9993 33.9987C17.6312 33.9987 17.3327 34.2972 17.3327 34.6654V36.6654H15.9993V33.9987C15.9993 33.6305 15.7008 33.332 15.3327 33.332C14.9645 33.332 14.666 33.6305 14.666 33.9987V37.332C14.666 37.7002 14.9645 37.9987 15.3327 37.9987H17.3327V39.332C17.3327 39.7002 17.6312 39.9987 17.9993 39.9987C18.3675 39.9987 18.666 39.7002 18.666 39.332V37.9987H19.3327C19.7008 37.9987 19.9993 37.7002 19.9993 37.332C19.9993 36.9639 19.7008 36.6654 19.3327 36.6654Z" fill="#8BC958"/>
<path d="M23.5667 33.3763C23.2217 33.2475 22.8375 33.4226 22.7087 33.7676V33.7663L20.7087 39.0996C20.5794 39.4444 20.7539 39.8286 21.0986 39.9581C21.0989 39.9581 21.0991 39.9582 21.0994 39.9583C21.1744 39.9858 21.2535 40.0001 21.3334 40.0003C21.6114 40.0005 21.8604 39.8281 21.958 39.5676L23.958 34.2343C24.0869 33.8893 23.9116 33.5051 23.5667 33.3763Z" fill="#8BC958"/>
<path d="M29.333 33.332H25.9997C25.6315 33.332 25.333 33.6305 25.333 33.9987V35.332C25.333 35.7002 25.6315 35.9987 25.9997 35.9987C26.3678 35.9987 26.6663 35.7002 26.6663 35.332V34.6654H28.6663V35.132L26.1117 38.962C25.9073 39.2684 25.99 39.6823 26.2963 39.8867C26.6027 40.091 27.0167 40.0083 27.221 39.702L29.8877 35.702C29.9605 35.5924 29.9994 35.4637 29.9997 35.332V33.9987C29.9997 33.6305 29.7012 33.332 29.333 33.332Z" fill="#8BC958"/>
</g>
<defs>
<clipPath id="clip0">
<rect width="40" height="40" fill="white"/>
</clipPath>
</defs>
</svg>
