<svg width="40" height="40" viewBox="0 0 40 40" fill="none" xmlns="http://www.w3.org/2000/svg">
<g clip-path="url(#clip0)">
<path d="M39.3325 11.6654H35.9994V3.96399C35.98 2.67958 34.9261 1.6524 33.6416 1.66615C32.811 1.6639 32.0393 2.09495 31.6057 2.8034L27.3333 9.92157V3.96399C27.3139 2.67958 26.26 1.6524 24.9755 1.66615C24.1449 1.6639 23.3732 2.09495 22.9397 2.8034L17.6207 11.6654H0.668573C0.300432 11.6654 0.00195312 11.9639 0.00195312 12.3321C0.00195312 12.7002 0.300432 12.9987 0.668573 12.9987H16.8208L16.6288 13.318C16.218 14.0029 16.0009 14.7866 16.0008 15.5852V25.6644C16.0008 26.0326 16.2993 26.3311 16.6674 26.3311C17.0356 26.3311 17.3341 26.0326 17.3341 25.6644V22.998H24.6669V25.6644C24.6669 26.0326 24.9654 26.3311 25.3335 26.3311C25.7016 26.3311 26.0001 26.0326 26.0001 25.6644V15.5852C26.0004 15.0282 26.1517 14.4817 26.4381 14.0039L27.0414 12.9987H39.3325C39.7006 12.9987 39.9991 12.7002 39.9991 12.3321C39.9991 11.9639 39.7006 11.6654 39.3325 11.6654ZM24.6669 21.6647H17.3341V18.3316H24.6669V21.6647ZM25.2948 13.318C24.884 14.0029 24.667 14.7866 24.6669 15.5852V16.9984H17.3341V15.5852C17.3343 15.0282 17.4856 14.4817 17.772 14.0039L18.3753 12.9987H25.4868L25.2948 13.318ZM26.0001 11.6654H19.1759L24.0829 3.48936C24.2746 3.18146 24.6129 2.99581 24.9755 2.99939C25.5238 2.98556 25.9809 3.41586 26.0001 3.96399V11.6654V11.6654ZM34.6662 11.6654H27.842L32.749 3.48936C32.9406 3.18146 33.2789 2.99581 33.6416 2.99939C34.1899 2.98556 34.6469 3.41586 34.6662 3.96399V11.6654V11.6654Z" fill="#8BC958"/>
<path d="M39.8104 28.5204C39.5533 28.2559 39.1304 28.2499 38.8658 28.5071C37.8335 29.5001 36.2011 29.5001 35.1688 28.5071C33.617 27.016 31.1649 27.016 29.6131 28.5071C28.5801 29.4984 26.9491 29.4984 25.9161 28.5071C24.3641 27.0159 21.9118 27.0159 20.3598 28.5071C19.3275 29.5001 17.6951 29.5001 16.6627 28.5071C15.111 27.016 12.6588 27.016 11.1071 28.5071C10.0741 29.4984 8.44306 29.4984 7.41005 28.5071C5.85808 27.0159 3.40575 27.0159 1.85378 28.5071L0.201896 30.1143C-0.0615017 30.3715 -0.0665847 30.7935 0.190564 31.0569C0.447379 31.3206 0.869349 31.3264 1.13316 31.0696L2.78571 29.465C3.81806 28.472 5.45044 28.472 6.48279 29.465C8.03526 30.9548 10.4866 30.9548 12.0391 29.465C13.0713 28.4724 14.7032 28.4724 15.7355 29.465C17.2877 30.9555 19.7395 30.9555 21.2917 29.465C22.324 28.4724 23.9559 28.4724 24.9881 29.465C26.5406 30.9548 28.9919 30.9548 30.5444 29.465C31.5767 28.4724 33.2086 28.4724 34.2408 29.465C35.793 30.9555 38.2449 30.9555 39.7971 29.465C40.0617 29.2079 40.0676 28.785 39.8104 28.5204Z" fill="#8BC958"/>
<path d="M39.8101 22.0562C39.5523 21.7926 39.1297 21.7878 38.8661 22.0455C37.8338 23.0386 36.2014 23.0386 35.1691 22.0455C33.6171 20.5551 31.1654 20.5551 29.6135 22.0455C29.1642 22.4795 28.576 22.7407 27.9529 22.7828C27.5856 22.8081 27.3084 23.1263 27.3336 23.4936C27.3336 23.4938 27.3336 23.4939 27.3336 23.4941C27.3648 23.8587 27.6795 24.1327 28.0449 24.1134C28.9835 24.0492 29.8691 23.6548 30.5447 23.0001C31.577 22.0075 33.2089 22.0075 34.2411 23.0001C35.7936 24.492 38.2469 24.492 39.7994 23.0001C40.0631 22.7424 40.0678 22.3198 39.8101 22.0562Z" fill="#8BC958"/>
<path d="M14.0224 20.9244C12.9395 20.8855 11.8875 21.2892 11.1086 22.0424C10.0762 23.0354 8.44386 23.0354 7.41151 22.0424C5.85871 20.5532 3.40805 20.5532 1.85524 22.0424L0.201357 23.6523C-0.0626242 23.91 -0.0677072 24.3329 0.190025 24.5969C0.447756 24.8609 0.870643 24.8659 1.13462 24.6082L2.78517 22.9996C3.81843 22.009 5.44899 22.009 6.48225 22.9996C8.03505 24.4888 10.4857 24.4888 12.0385 22.9996C12.5575 22.4991 13.2578 22.2312 13.9784 22.2577C14.3465 22.2699 14.6548 21.9812 14.667 21.6131C14.6792 21.2449 14.3905 20.9366 14.0224 20.9244Z" fill="#8BC958"/>
<path d="M39.8105 35.5921C39.5533 35.3276 39.1304 35.3216 38.8659 35.5787C37.8335 36.5717 36.2011 36.5717 35.1688 35.5787C33.6168 34.0883 31.1652 34.0883 29.6132 35.5787C28.5802 36.57 26.9491 36.57 25.9161 35.5787C24.3633 34.0896 21.9126 34.0896 20.3598 35.5787C19.3275 36.5717 17.6951 36.5717 16.6628 35.5787C15.1108 34.0883 12.6591 34.0883 11.1072 35.5787C10.0741 36.57 8.44309 36.57 7.41008 35.5787C5.85728 34.0896 3.40662 34.0896 1.85381 35.5787L0.201927 37.186C-0.0620545 37.4426 -0.0679707 37.8647 0.188678 38.1286C0.189344 38.1293 0.189928 38.13 0.190594 38.1306C0.447243 38.3945 0.869213 38.4004 1.13319 38.1439L2.78574 36.5367C3.81875 35.5454 5.44981 35.5454 6.48282 36.5367C8.03529 38.0265 10.4866 38.0265 12.0391 36.5367C13.0713 35.5441 14.7032 35.5441 15.7355 36.5367C17.2877 38.0271 19.7395 38.0271 21.2918 36.5367C22.324 35.5441 23.9559 35.5441 24.9882 36.5367C26.5406 38.0265 28.992 38.0265 30.5444 36.5367C31.5767 35.5441 33.2086 35.5441 34.2409 36.5367C35.7933 38.0265 38.2447 38.0265 39.7971 36.5367C40.0617 36.2795 40.0676 35.8566 39.8105 35.5921Z" fill="#8BC958"/>
</g>
<defs>
<clipPath id="clip0">
<rect width="40" height="40" fill="white"/>
</clipPath>
</defs>
</svg>
