<svg width="6" height="9" viewBox="0 0 6 9" fill="none" xmlns="http://www.w3.org/2000/svg">
<path fill-rule="evenodd" clip-rule="evenodd" d="M5.27014 3.83021C5.65014 4.21021 5.65014 4.83021 5.27014 5.22021L2.19014 8.30021C1.81014 8.68021 1.18014 8.68021 0.800137 8.30021C0.420137 7.92021 0.420137 7.29021 0.800137 6.91021L3.89014 3.82021C4.27014 3.45021 4.89014 3.45021 5.27014 3.83021Z" fill="white"/>
<path fill-rule="evenodd" clip-rule="evenodd" d="M5.3402 5.22984C4.9602 5.60984 4.3302 5.60984 3.9502 5.22984L0.860195 2.13984C0.480195 1.75984 0.480195 1.12984 0.860195 0.749844C1.2402 0.369844 1.8702 0.369844 2.2502 0.749844L5.3402 3.83984C5.7202 4.21984 5.7202 4.83984 5.3402 5.22984Z" fill="white"/>
</svg>
