<svg width="63" height="75" viewBox="0 0 63 75" fill="none" xmlns="http://www.w3.org/2000/svg">
<g clip-path="url(#clip0)">
<path fill-rule="evenodd" clip-rule="evenodd" d="M52.9859 37.3799C51.9169 35.1417 50.6032 33.0287 49.0689 31.0799C37.7109 14.5599 27.2689 15.9699 27.5999 15.8299C36.9419 11.6499 46.6769 12.6799 46.7999 11.1199C47.1109 6.9399 32.4529 -3.3202 16.1419 1.0198C15.2129 1.2598 18.3619 8.88994 20.6209 8.15994C28.4719 5.61994 37.1519 7.8298 37.5209 9.0198C37.6359 9.3898 28.6339 8.06986 16.8329 15.8299C15.9209 16.4199 17.4789 19.7498 18.1999 20.0098C19.0999 20.3198 26.0509 19.2099 33.0999 21.5699C32.4819 21.5099 31.8569 21.47 31.2269 21.47C21.9689 21.47 13.8909 28.31 9.53585 37.24C9.50067 37.282 9.47233 37.3291 9.45187 37.3799C9.23287 37.9999 -3.33314 46.6999 0.85186 56.9099C2.57386 61.1199 6.03286 63.72 9.13686 63.7C10.4583 66.7614 12.2126 69.6172 14.3459 72.18C17.5699 75.43 26.5239 75.5098 28.5009 72.7698C29.5009 71.3898 29.4259 69.6499 31.5539 69.6499H31.6019C33.6259 69.6499 34.0839 72.5299 34.4829 73.0999C36.3759 75.8399 45.8959 75.05 48.4669 71.94C50.2537 69.34 51.7985 66.5819 53.0819 63.7C56.2219 63.85 59.8329 61.2199 61.5939 56.9199C65.7699 46.6999 53.2049 37.9999 52.9859 37.3799Z" fill="#EE3358"/>
<path fill-rule="evenodd" clip-rule="evenodd" d="M24.8472 55.61C24.8472 54.96 27.5172 55.6499 32.8472 55.0399C36.0072 54.6699 37.5022 53.9701 37.5532 54.4901C37.7726 55.7605 37.523 57.0671 36.8508 58.1671C36.1786 59.2672 35.1297 60.0857 33.8992 60.4701C29.5412 62.0701 24.8472 57.46 24.8472 55.61Z" fill="#012B37"/>
<path fill-rule="evenodd" clip-rule="evenodd" d="M32.3261 58.0699C31.5433 57.9581 30.7451 58.0431 30.0034 58.3172C29.2617 58.5913 28.6 59.046 28.0781 59.64C28.9096 60.2223 29.8635 60.6063 30.8665 60.7623C31.8696 60.9183 32.895 60.8421 33.8641 60.5399C34.4016 60.3457 34.9121 60.0835 35.3831 59.7599C35.0192 59.2809 34.5594 58.8834 34.033 58.5924C33.5066 58.3014 32.9252 58.1234 32.3261 58.0699Z" fill="#A7102E"/>
<path fill-rule="evenodd" clip-rule="evenodd" d="M36.5638 54.39C35.7948 54.54 34.5698 54.8399 32.8448 55.0399C30.6166 55.2831 28.3743 55.3733 26.1338 55.3099C26.3842 55.7841 26.74 56.1946 27.1738 56.5099C28.6918 57.5399 34.4308 57.0699 35.8138 55.8099C36.1751 55.4043 36.4325 54.9171 36.5638 54.39Z" fill="white"/>
<path fill-rule="evenodd" clip-rule="evenodd" d="M20.9849 36.2999C19.856 36.3287 18.7438 36.5797 17.7121 37.0387C16.6803 37.4977 15.7491 38.1558 14.9718 38.975C14.1945 39.7942 13.5863 40.7584 13.1821 41.8129C12.7778 42.8673 12.5855 43.9911 12.6159 45.12C12.6399 50 19.4709 52.8399 25.0699 51.4999C29.0549 50.5499 29.2459 48.57 28.9909 45.12C28.6369 40.27 25.6039 36.2999 20.9849 36.2999ZM41.1779 36.2999C36.5589 36.2999 33.5259 40.29 33.1679 45.12C32.9169 48.58 33.0919 50.5499 37.0889 51.4999C42.6889 52.8299 49.5149 49.98 49.5429 45.12C49.6021 42.8415 48.7542 40.6327 47.1857 38.9789C45.6173 37.3251 43.4564 36.3614 41.1779 36.2999Z" fill="white"/>
<path fill-rule="evenodd" clip-rule="evenodd" d="M37.543 41.2001C36.659 41.1166 35.7705 41.3023 34.9941 41.7331C34.2177 42.1639 33.5898 42.8197 33.1929 43.614C32.7961 44.4083 32.6488 45.304 32.7705 46.1835C32.8922 47.0631 33.2772 47.8852 33.8748 48.5419C34.4725 49.1986 35.2548 49.6592 36.119 49.863C36.9832 50.0668 37.8888 50.0045 38.7169 49.684C39.545 49.3636 40.2568 48.8 40.7586 48.0676C41.2605 47.3351 41.5291 46.4679 41.529 45.58C41.5756 44.4721 41.183 43.3906 40.4367 42.5705C39.6903 41.7504 38.6504 41.2579 37.543 41.2001ZM24.616 41.2001C23.7307 41.1153 22.8405 41.3004 22.0624 41.7311C21.2843 42.1619 20.6549 42.8182 20.2568 43.6135C19.8588 44.4088 19.7108 45.3059 19.8323 46.187C19.9539 47.068 20.3392 47.8917 20.9378 48.5495C21.5363 49.2073 22.3199 49.6685 23.1855 49.8725C24.0511 50.0765 24.9583 50.0136 25.7875 49.6923C26.6168 49.371 27.3294 48.8062 27.8316 48.0722C28.3338 47.3382 28.602 46.4694 28.601 45.58C28.6476 44.4727 28.2556 43.3917 27.5101 42.5717C26.7646 41.7517 25.7257 41.2589 24.619 41.2001H24.616Z" fill="#002A36"/>
<path fill-rule="evenodd" clip-rule="evenodd" d="M38.3759 42.03C37.9733 41.9895 37.5676 42.0695 37.2104 42.2595C36.8531 42.4495 36.5601 42.7411 36.3686 43.0976C36.1772 43.4542 36.0957 43.8596 36.1346 44.2624C36.1734 44.6652 36.3309 45.0473 36.587 45.3606C36.8431 45.6739 37.1864 45.9045 37.5734 46.0227C37.9604 46.1409 38.3739 46.1416 38.7613 46.0249C39.1488 45.9081 39.493 45.679 39.7503 45.3667C40.0076 45.0543 40.1665 44.6727 40.2069 44.27C40.2139 44.2 40.2169 44.13 40.2169 44.06C40.2387 43.5475 40.0577 43.0472 39.7131 42.6672C39.3685 42.2872 38.8881 42.0582 38.3759 42.03ZM23.7469 42.03C23.3442 41.9893 22.9385 42.0691 22.5811 42.259C22.2237 42.4489 21.9307 42.7404 21.739 43.0969C21.5474 43.4534 21.4658 43.8586 21.5045 44.2615C21.5433 44.6643 21.7006 45.0467 21.9567 45.3601C22.2127 45.6735 22.556 45.9041 22.943 46.0224C23.3301 46.1408 23.7435 46.1416 24.131 46.0249C24.5186 45.9082 24.8628 45.679 25.1201 45.3667C25.3775 45.0543 25.5365 44.6727 25.5769 44.27C25.5839 44.2 25.5879 44.13 25.5879 44.06C25.6097 43.5475 25.4287 43.0472 25.0841 42.6672C24.7395 42.2872 24.2591 42.0582 23.7469 42.03Z" fill="white"/>
</g>
<defs>
<clipPath id="clip0">
<rect width="62.438" height="74.78" fill="white"/>
</clipPath>
</defs>
</svg>
