<svg id="Capa_1" data-name="Capa 1" xmlns="http://www.w3.org/2000/svg" width="70" height="70" viewBox="0 0 70 70"><defs><style>.cls-1{fill:#2c77bb;}</style></defs><title>raketa</title><path class="cls-1" d="M36.72,35a1.17,1.17,0,1,1-1.65-1.65,1.16,1.16,0,0,1,1.28-.26,1.06,1.06,0,0,1,.39.24A1.2,1.2,0,0,1,36.72,35Z"/><path class="cls-1" d="M54.22,15.85a6.68,6.68,0,1,0,2,4.72A6.63,6.63,0,0,0,54.22,15.85Zm-1.66,7.78a4.11,4.11,0,0,1-1.43.95,4.33,4.33,0,0,1-4.7-7.07,4.3,4.3,0,0,1,3.06-1.26,4.36,4.36,0,0,1,3.07,1.26,4.28,4.28,0,0,1,1.26,3.07A4.19,4.19,0,0,1,52.56,23.63Z"/><path class="cls-1" d="M69.77.29A1.16,1.16,0,0,0,68.9,0,60.34,60.34,0,0,0,52.45,3.36,45.53,45.53,0,0,0,35.06,13.91c-1,1-2,2.09-2.94,3.2l-.11.14-.15-.08c-4.44-2.61-8-1.76-10.16-.59-5.17,2.76-8.37,10.29-8.37,15.68a1.16,1.16,0,0,0,.73,1.07,1.14,1.14,0,0,0,.45.1,1.16,1.16,0,0,0,.83-.35,8.88,8.88,0,0,1,6.35-2.57,8.74,8.74,0,0,1,1.1.07h.07l.63.64-.06.12A46.66,46.66,0,0,0,21.18,38a3.56,3.56,0,0,0,.16,2.25l.07.18-.18.08a13.13,13.13,0,0,0-3.65,2.58c-3.48,3.48-4.19,12-4.22,12.4a1.16,1.16,0,0,0,.34.93,1.2,1.2,0,0,0,.92.34c.36,0,8.91-.74,12.4-4.24a12.41,12.41,0,0,0,2.57-3.66l.08-.18.18.07a3.62,3.62,0,0,0,2.27.15,49.65,49.65,0,0,0,6.65-2.25l.13-.06.63.64v.07A9,9,0,0,1,37,54.76a1.18,1.18,0,0,0,.82,2c5.39,0,12.91-3.21,15.67-8.38,1.17-2.18,2-5.72-.59-10.16l-.08-.15L53,38C54.11,37,55.2,36,56.2,35a45.67,45.67,0,0,0,10.54-17.4A61.39,61.39,0,0,0,70.15,1.17,1.41,1.41,0,0,0,69.77.29ZM16.31,29.47l-.38.2.08-.42c.81-3.91,3.22-8.7,6.8-10.62,2.31-1.24,4.84-1.12,7.52.34l.21.11-.14.19a56.59,56.59,0,0,0-5.76,9.38l-.09.21-.2-.12s0,0-.05-.06a1.17,1.17,0,0,0-.61-.34A11.58,11.58,0,0,0,16.31,29.47Zm11.4,17.79a10.09,10.09,0,0,1-2.37,3.61c-2.11,2.12-7.17,3.05-9.23,3.35l-.28.05,0-.28c.31-2.08,1.24-7.12,3.36-9.24a10,10,0,0,1,3.6-2.37l.12,0,4.81,4.81Zm9.08-2.33a45,45,0,0,1-5.28,1.72,1.45,1.45,0,0,1-.3,0,1.57,1.57,0,0,1-1.08-.48L23.89,40a1.46,1.46,0,0,1-.44-1.4,44.89,44.89,0,0,1,1.71-5.28l.11-.29L37.08,44.8Zm14.65,2.35c-1.91,3.59-6.7,6-10.61,6.81l-.42.08.2-.39a11.62,11.62,0,0,0,1.12-7.4,1.59,1.59,0,0,0-.33-.57l-.06-.07-.12-.2.2-.09a56.18,56.18,0,0,0,9.38-5.76l.19-.14.11.2C52.57,42.44,52.68,45,51.44,47.28ZM64.2,17.65a43.31,43.31,0,0,1-9.69,15.71,48.56,48.56,0,0,1-4,3.57,53.33,53.33,0,0,1-11,6.83l-.14.05L26.26,30.68l.06-.14a53.43,53.43,0,0,1,6.82-11,48.42,48.42,0,0,1,3.57-4,42.93,42.93,0,0,1,15.7-9.7l.12,0,11.7,11.7Zm3.46-15a61.59,61.59,0,0,1-2.46,12.1l-.09.33L55,5l.33-.1A61.79,61.79,0,0,1,67.44,2.41l.25,0Z"/><path class="cls-1" d="M32.83,58.35l-3.89,3.89a1.15,1.15,0,0,1-1.64,0,1.16,1.16,0,0,1,0-1.65l3.88-3.89a1.18,1.18,0,0,1,.83-.34,1.13,1.13,0,0,1,.82.34A1.16,1.16,0,0,1,32.83,58.35Z"/><path class="cls-1" d="M13.4,38.9,9.51,42.79a1.16,1.16,0,0,1-1.65,0A1.13,1.13,0,0,1,7.52,42a1.16,1.16,0,0,1,.34-.83l3.89-3.89a1.17,1.17,0,0,1,1.65,0A1.18,1.18,0,0,1,13.4,38.9Z"/><path class="cls-1" d="M23.46,59.48a1.13,1.13,0,0,1-.34.82l-9.31,9.32a1,1,0,0,1-.38.24A1.14,1.14,0,0,1,13,70a1.16,1.16,0,0,1-.82-.35,1.18,1.18,0,0,1,0-1.65l9.3-9.31a1.16,1.16,0,0,1,.83-.34,1.19,1.19,0,0,1,.45.08,1.08,1.08,0,0,1,.39.25A1.24,1.24,0,0,1,23.46,59.48Z"/><path class="cls-1" d="M12.46,59.48a1.13,1.13,0,0,1-.34.82l-9.3,9.32a1,1,0,0,1-.39.24A1.13,1.13,0,0,1,2,70a1.16,1.16,0,0,1-.83-.35,1.17,1.17,0,0,1,0-1.65l9.31-9.31a1.15,1.15,0,0,1,.82-.34,1.24,1.24,0,0,1,.46.08,1.14,1.14,0,0,1,.38.25A1.24,1.24,0,0,1,12.46,59.48Z"/><path class="cls-1" d="M11.45,48.63,2.14,58A1.17,1.17,0,0,1,.49,56.3L9.8,47a1.15,1.15,0,0,1,.82-.34,1.24,1.24,0,0,1,.46.08,1,1,0,0,1,.38.26A1.14,1.14,0,0,1,11.45,48.63Z"/><path class="cls-1" d="M42.55,29.18l-1.94,1.94A1.17,1.17,0,1,1,39,29.47l1.94-1.94a1.14,1.14,0,0,1,.83-.35,1.1,1.1,0,0,1,.82.35A1.18,1.18,0,0,1,42.55,29.18Z"/></svg>