<svg id="Слой_1" data-name="Слой 1" xmlns="http://www.w3.org/2000/svg" width="66" height="70" viewBox="0 0 66 70"><defs><style>.cls-1{fill:#2c77bb;}</style></defs><title>call-center</title><path class="cls-1" d="M-.07,66.63v2.2A1.17,1.17,0,0,0,1.11,70a1.17,1.17,0,0,0,1.18-1.17v-2.2c0-8.86,6.44-15.3,15.32-15.3H24.2l7.9,7.83a1.2,1.2,0,0,0,1.67,0l7.9-7.83h6.59c8.87,0,15.32,6.44,15.32,15.3v2.2a1.18,1.18,0,0,0,2.35,0v-2.2C65.93,56.41,58.5,49,48.26,49H41.18a1.17,1.17,0,0,0-.83.34l-7.42,7.34-7.41-7.34a1.18,1.18,0,0,0-.84-.34H17.61C7.37,49-.07,56.41-.07,66.63Z"/><path class="cls-1" d="M10.06,37a20.44,20.44,0,0,1-3.43,1.57,1.16,1.16,0,0,0-.46,1.93,12.51,12.51,0,0,0,8.86,4,7.4,7.4,0,0,0,1.69-.17,1.17,1.17,0,0,0,.85-1.42A1.19,1.19,0,0,0,16.15,42a8.91,8.91,0,0,1-6.93-2q1-.48,2-1c2.41-1.42,3.43-4.23,2.8-7.7-1.09-6-1.4-17.39,4.32-22.24l.14-.13c.05-.07,5.68-6.59,14.41-6.59S47.3,8.85,47.35,8.92a.86.86,0,0,0,.14.13,13.83,13.83,0,0,1,4.13,7.55,1.18,1.18,0,0,0,1.14.9.86.86,0,0,0,.28,0,1.16,1.16,0,0,0,.87-1.4,16,16,0,0,0-4.82-8.71A22.61,22.61,0,0,0,32.93,0,22.64,22.64,0,0,0,16.77,7.34c-7.94,6.85-5.35,22.59-5,24.37C12,33.16,12.13,35.77,10.06,37Z"/><path class="cls-1" d="M49.15,44.3a7.34,7.34,0,0,0,1.69.16,12.54,12.54,0,0,0,8.86-4,1.16,1.16,0,0,0,0-1.65,1.1,1.1,0,0,0-.46-.28A20.52,20.52,0,0,1,55.87,37a1.19,1.19,0,0,0-1.62.41,1.16,1.16,0,0,0,.42,1.6,20.46,20.46,0,0,0,2,1,8.88,8.88,0,0,1-6.94,2,1.17,1.17,0,0,0-1.42.85,1.16,1.16,0,0,0,.86,1.41Z"/><path class="cls-1" d="M54.15,21H49.51l-.08,0H44.74V16.33a1.2,1.2,0,0,0-2.39,0V21H37.66V16.33a1.19,1.19,0,0,0-2.38,0V21H30.59V16.33a1.2,1.2,0,0,0-2.39,0V21H23.52V16.33a1.2,1.2,0,0,0-2.39,0V21h-4.7a1.2,1.2,0,0,0-1.19,1.19v.07l.59,9.65C16.38,42.13,23.21,49,32.8,49h.25a17.21,17.21,0,0,0,7.47-1.64,1.19,1.19,0,0,0,.56-1.58,1.21,1.21,0,0,0-1.6-.55,14.84,14.84,0,0,1-6.43,1.4h-.23c-8.25,0-14.12-6-14.6-14.9l-.51-8.4H48.17l-.52,8.4A1.19,1.19,0,0,0,50,31.9l.53-8.57h3.59a1.18,1.18,0,0,1,1.18,1.17v7a1.18,1.18,0,0,1-1.18,1.17,1.17,1.17,0,1,0,0,2.33,3.52,3.52,0,0,0,3.53-3.5v-7A3.52,3.52,0,0,0,54.15,21Z"/><path class="cls-1" d="M54.16,26.83a1.19,1.19,0,0,0-2.38,0,12.9,12.9,0,0,1-13,12.82h-.16A4.74,4.74,0,0,0,32.9,36.3,4.69,4.69,0,1,0,38.67,42h.16A15.28,15.28,0,0,0,54.16,26.83Zm-20,16.32a2.32,2.32,0,1,1,2.34-2.32A2.33,2.33,0,0,1,34.11,43.15Z"/></svg>