<svg id="Слой_1" data-name="Слой 1" xmlns="http://www.w3.org/2000/svg" width="70" height="53" viewBox="0 0 70 53"><defs><style>.cls-1{fill:#2c77bb;}</style></defs><title>mortarboard</title><path class="cls-1" d="M69.31,16.22,35.48.9a1.15,1.15,0,0,0-1,0L.69,16.22a1.19,1.19,0,0,0,0,2.16l11,5V44.42a1.18,1.18,0,0,0,.41.9,35.23,35.23,0,0,0,45.84,0,1.18,1.18,0,0,0,.41-.9V23.35L63,21.24V41.71l-1.75,2.64a3.51,3.51,0,0,0-.58,2v1.37a3.5,3.5,0,1,0,7,0V46.31a3.58,3.58,0,0,0-.59-2l-1.75-2.64V20.18l4-1.8a1.19,1.19,0,0,0,.59-1.56A1.23,1.23,0,0,0,69.31,16.22Zm-4,31.46a1.17,1.17,0,1,1-2.33,0V46.31a1.16,1.16,0,0,1,.2-.65l1-1.48,1,1.47a1.27,1.27,0,0,1,.19.66ZM56,43.86a32.9,32.9,0,0,1-42,0V24.41l20.52,9.3a1.15,1.15,0,0,0,1,0L56,24.41Zm7.5-25.44-28.41-2.3a1.18,1.18,0,0,0-.18,2.36l24.16,1.95L35,31.33,4,17.3l31-14,31,14Z"/></svg>