<svg id="Слой_1" data-name="Слой 1" xmlns="http://www.w3.org/2000/svg" width="70" height="70" viewBox="0 0 70 70"><defs><style>.cls-1{fill:#2c77bb;}</style></defs><title>puzzle</title><path class="cls-1" d="M48.18,39.67A1.16,1.16,0,0,0,47,40.83a5.18,5.18,0,1,1-10.35,0h0a1.16,1.16,0,0,0-1.17-1.16H30.33V35.45a7.63,7.63,0,0,0,0-15.08V12.83a1.16,1.16,0,0,0-1.16-1.16h-28A1.16,1.16,0,0,0,0,12.83v56A1.17,1.17,0,0,0,1.17,70h56a1.16,1.16,0,0,0,1.16-1.17V39.67ZM2.33,14H28v7.45a1.17,1.17,0,0,0,1.17,1.17,5.3,5.3,0,0,1,0,10.59A1.16,1.16,0,0,0,28,34.37v5.3H23.78a7.63,7.63,0,0,0-15.08,0H2.33Zm0,28H9.78A1.17,1.17,0,0,0,11,40.83a5.3,5.3,0,0,1,10.59,0A1.17,1.17,0,0,0,22.71,42H28v4.09a7.49,7.49,0,0,0,0,14.84v6.74H2.33ZM56,67.67H30.33V59.85a1.17,1.17,0,0,0-1.16-1.17,5.17,5.17,0,1,1,0-10.34,1.17,1.17,0,0,0,1.16-1.17V42h4.1a7.51,7.51,0,0,0,14.83,0H56V67.67Z"/><path class="cls-1" d="M68.83,0h-28a1.16,1.16,0,0,0-1.16,1.17V9.78A1.16,1.16,0,0,0,40.83,11a5.3,5.3,0,0,1,0,10.59,1.16,1.16,0,0,0-1.16,1.17v6.46a1.16,1.16,0,0,0,1.16,1.16h5.26a7.49,7.49,0,0,0,14.84,0h7.9A1.16,1.16,0,0,0,70,29.17v-28A1.17,1.17,0,0,0,68.83,0ZM67.67,28H59.85a1.17,1.17,0,0,0-1.17,1.17,5.17,5.17,0,0,1-10.34.22v-.22A1.17,1.17,0,0,0,47.17,28H42V23.78A7.65,7.65,0,0,0,42,8.71V2.33H67.67Z"/><path class="cls-1" d="M5.83,16.33h9.34v2.34H5.83Z"/><path class="cls-1" d="M5.83,21h9.34v2.33H5.83Z"/><path class="cls-1" d="M5.83,25.67H10.5V28H5.83Z"/><path class="cls-1" d="M37.33,52.5h10.5v2.33H37.33Z"/><path class="cls-1" d="M37.33,57.17h10.5V59.5H37.33Z"/><path class="cls-1" d="M37.33,61.83h5.84v2.34H37.33Z"/></svg>