<svg width="180" height="180" viewBox="0 0 180 180" fill="none" xmlns="http://www.w3.org/2000/svg">
<path d="M177 162H168V105C167.999 103.343 166.654 102.001 164.998 102.002C164.02 102.003 163.104 102.48 162.543 103.281L120.543 163.281C119.593 164.639 119.925 166.509 121.282 167.459C121.786 167.811 122.385 168 123 168H162V177C162 178.657 163.343 180 165 180C166.657 180 168 178.657 168 177V168H177C178.657 168 180 166.657 180 165C180 163.343 178.657 162 177 162ZM162 162H128.76L162 114.516V162Z" fill="white"/>
<path d="M123 174H87.483L120.504 135.117C120.579 135.028 120.649 134.935 120.714 134.838C126.926 125.644 124.857 113.196 116.004 106.506C105.24 98.7716 90.2434 101.228 82.5094 111.993C79.5765 116.074 77.9993 120.974 78 126C78 127.657 79.3433 129 81 129C82.6568 129 84 127.657 84 126C83.9989 116.059 92.0572 107.999 101.998 107.998C105.766 107.998 109.439 109.18 112.5 111.378C118.701 116.13 120.145 124.881 115.8 131.373L78.714 175.059C77.6419 176.322 77.7971 178.215 79.0605 179.287C79.6024 179.747 80.2894 180 81 180H123C124.657 180 126 178.657 126 177C126 175.343 124.657 174 123 174Z" fill="white"/>
<path d="M81.066 159.057C81.1286 157.401 79.8368 156.009 78.1811 155.946C78.1808 155.946 78.1804 155.946 78.18 155.946C39.0413 154.493 7.62788 123.136 6.105 84H18C19.6568 84 21 82.6568 21 81C21 79.3432 19.6568 78 18 78H6.105C7.60613 38.9329 38.9325 7.60763 78 6.108V15C78 16.6567 79.3433 18 81 18C82.6568 18 84 16.6567 84 15V6.108C122.533 7.59825 153.632 38.1105 155.856 76.608L144.156 64.908C142.964 63.7567 141.065 63.7897 139.914 64.9815C138.791 66.144 138.791 67.9871 139.914 69.15L156.66 85.896C156.975 86.2777 157.382 86.5736 157.842 86.757C157.959 86.7923 158.079 86.8215 158.199 86.844C158.405 86.9183 158.618 86.9696 158.835 86.997C158.865 86.997 158.892 86.997 158.922 86.997C158.952 86.997 158.979 86.997 159.006 86.997C159.234 86.9798 159.46 86.9355 159.678 86.865C159.801 86.85 159.924 86.8271 160.044 86.796C160.45 86.6516 160.82 86.4202 161.127 86.118L178.101 69.15C179.252 67.9582 179.219 66.0592 178.028 64.908C176.865 63.7852 175.022 63.7852 173.859 64.908L161.868 76.89C159.725 33.8887 124.268 0.105375 81.213 0.042C81.138 0.039 81.075 0 81 0C80.925 0 80.862 0.039 80.787 0.042C36.2183 0.103125 0.103125 36.2183 0.042 80.787C0.042 80.862 0 80.925 0 81C0 81.075 0.039 81.138 0.042 81.213C0.116625 124.682 34.5191 160.327 77.958 161.943H78.069C79.6811 161.943 81.0049 160.668 81.066 159.057Z" fill="white"/>
<path d="M121.305 40.695C120.133 39.5239 118.234 39.5239 117.063 40.695L84.825 72.93C82.3894 71.844 79.6072 71.844 77.172 72.93L61.908 57.666C60.7162 56.5151 58.8169 56.5481 57.666 57.7399C56.5432 58.9024 56.5432 60.7455 57.666 61.908L72.9 77.142C70.761 81.6195 72.657 86.9835 77.1349 89.1221C80.5717 90.7639 84.6705 90.06 87.363 87.366C90.0701 84.6817 90.7672 80.5717 89.097 77.145L121.305 44.937C122.476 43.7655 122.476 41.8665 121.305 40.695ZM83.1217 83.1202C83.1214 83.1206 83.1214 83.1206 83.121 83.121C81.9345 84.2554 80.0655 84.2554 78.879 83.121C77.7071 81.9495 77.7071 80.0501 78.8782 78.8782C80.0497 77.7064 81.9491 77.7064 83.121 78.8775C84.2929 80.049 84.2929 81.9487 83.1217 83.1202Z" fill="white"/>
</svg>
