<svg width="14" height="20" viewBox="0 0 14 20" fill="none" xmlns="http://www.w3.org/2000/svg">
<path d="M7 0C3.14125 0 0 3.25 0 7.24C0 12.24 6.265 19.48 6.5275 19.78C6.65459 19.9193 6.82388 19.9972 7 19.9972C7.17612 19.9972 7.34541 19.9193 7.4725 19.78C7.735 19.48 14 12.2 14 7.24C14 3.25 10.8587 0 7 0ZM7 10.89C6.11362 10.9308 5.24892 10.5704 4.59364 9.88706C3.93835 9.20369 3.54536 8.2525 3.5 7.24C3.54535 6.22834 3.93863 5.27815 4.59418 4.59637C5.24974 3.91459 6.11446 3.55647 7 3.6C7.88494 3.5591 8.74838 3.91813 9.40342 4.59938C10.0585 5.28062 10.4524 6.22927 10.5 7.24C10.4524 8.25158 10.0588 9.20123 9.40398 9.88407C8.7492 10.5669 7.88578 10.9282 7 10.89Z" fill="white"/>
</svg>
