<svg width="44" height="56" viewBox="0 0 44 56" fill="none" xmlns="http://www.w3.org/2000/svg">
<path d="M43.8662 13.0714C43.7141 12.8389 43.454 12.6984 43.176 12.6984H42.2951C41.9163 9.16972 40.4185 6.28152 37.8345 4.10469C34.7244 1.48481 29.9197 0.105648 23.5546 0.00567163C18.8798 -0.0678151 15.1454 0.596556 14.9809 0.626464C14.7667 0.667052 9.70581 1.67536 7.61368 5.81625C6.76021 7.50516 6.70194 8.78862 7.43973 9.63115C8.89989 11.2983 12.8052 10.0823 13.6266 9.80205C13.6574 9.79308 13.7003 9.78026 13.7641 9.76104C16.3288 8.99156 18.8335 8.29685 21.0075 7.75211C21.4488 7.64146 21.7166 7.19498 21.6056 6.75449C21.4946 6.31442 21.0465 6.04696 20.6056 6.15805C18.4077 6.70877 15.8776 7.41032 13.2894 8.18705C13.2221 8.20713 13.178 8.22038 13.1591 8.22593C13.142 8.23063 13.1253 8.23576 13.1086 8.24131C11.4008 8.82835 9.16253 9.0988 8.68095 8.54979C8.49629 8.33873 8.50529 7.70383 9.08584 6.55539C10.8078 3.1468 15.2474 2.24915 15.2825 2.24232C15.4291 2.21583 30.0058 -0.338691 36.7711 5.36038C38.9742 7.21677 40.2724 9.68199 40.6366 12.6984H38.7664C38.4275 10.2374 37.3786 8.29386 35.574 6.77371C32.2813 4.00002 27.1279 4.70156 23.5384 5.47103C23.0932 5.56631 22.81 6.00339 22.9055 6.4473C23.0011 6.89121 23.4398 7.17362 23.8845 7.07792C27.1348 6.3815 31.7723 5.72268 34.5101 8.0294C35.9317 9.22655 36.7831 10.7604 37.0988 12.6984H0.824018C0.545525 12.6984 0.285884 12.8385 0.133784 13.0714C-0.0183165 13.3038 -0.0423097 13.5973 0.0699445 13.8515C0.14578 14.0228 1.98084 18.0949 6.7872 21.5796C7.15524 21.8466 7.67067 21.765 7.93845 21.398C8.2058 21.031 8.1244 20.517 7.75636 20.25C4.81932 18.1206 3.06696 15.7241 2.21563 14.342H41.7882C41.5389 14.7487 41.2098 15.2439 40.7955 15.7946C40.7951 15.7951 40.7942 15.7955 40.7938 15.7963C40.6683 15.963 40.5359 16.1334 40.3975 16.3065C40.3945 16.3103 40.3915 16.3142 40.3881 16.318C40.3439 16.3731 40.2976 16.4291 40.2518 16.4846C40.2205 16.5231 40.1901 16.5607 40.1575 16.5996C40.149 16.6103 40.1395 16.6209 40.1306 16.6316C39.697 17.149 39.1965 17.6963 38.6224 18.253C36.1143 20.6845 31.6819 23.7517 24.8091 24.5575C24.4077 24.6045 24.0996 24.9348 24.0821 25.3372L24.0808 25.3586C23.4317 25.5534 22.7839 25.7423 22.1262 25.9332C22.1155 25.9362 22.1043 25.9397 22.0936 25.9426C21.3712 26.152 20.6613 26.3584 19.9728 26.5669L19.9184 25.3372C19.9004 24.9348 19.5923 24.6045 19.1913 24.5571C16.0949 24.1943 13.2285 23.3463 10.6715 22.0367C10.2667 21.8295 9.76965 21.9889 9.56185 22.3926C9.35405 22.7964 9.51386 23.2916 9.91832 23.4988C12.4573 24.7993 15.2744 25.673 18.3018 26.0999L18.3455 27.0804C17.3104 27.4252 16.3532 27.7854 15.5182 28.1848C15.0495 28.4087 14.0739 28.8748 13.202 29.6682C12.0589 30.7086 11.4792 31.9425 11.4792 33.3362C11.4792 35.8189 12.9582 37.7992 15.6446 38.9122C16.5379 39.2826 17.5632 39.5761 18.9102 39.8445L19.0563 43.1548C18.7534 43.1877 18.4629 43.218 18.1926 43.2466C17.7007 43.2983 17.2363 43.347 16.8284 43.3953L16.6407 43.4171C14.1454 43.7004 11.8211 44.1853 11.7105 45.8016C11.6797 46.254 11.8301 46.6715 12.1454 47.0081C13.0974 48.0241 15.3772 48.1049 18.2641 48.1049C18.552 48.1049 18.8939 48.1015 19.2748 48.0912L19.2907 48.4433C17.2333 48.8427 11.4346 50.3073 7.58455 54.6328C7.36904 54.8746 7.31634 55.2203 7.44916 55.5155C7.58241 55.8103 7.87675 56 8.20109 56H35.7993C36.1237 56 36.418 55.8103 36.5508 55.5155C36.6841 55.2203 36.631 54.8746 36.4159 54.6328C35.0864 53.1391 33.3902 51.8446 31.3739 50.7854C30.9716 50.5735 30.4728 50.7278 30.2608 51.1289C30.0487 51.5306 30.2029 52.0279 30.6057 52.2394C31.7916 52.8627 32.8529 53.5711 33.7783 54.3564H10.223C14.4599 50.7671 20.1917 49.954 20.2551 49.9455C20.6784 49.8891 20.9882 49.5199 20.9689 49.0948L20.9214 48.0117C20.9359 48.0109 20.9501 48.0092 20.9646 48.0083C21.1073 47.9981 21.2513 47.987 21.3974 47.9746C21.4154 47.9729 21.4338 47.9711 21.4518 47.9694C21.6 47.9566 21.7496 47.9429 21.9008 47.928C22.0992 47.9079 22.2941 47.8861 22.4865 47.8626C22.4934 47.8618 22.5002 47.8613 22.5066 47.8601C22.7037 47.8366 22.8978 47.8105 23.0885 47.7832L23.0306 49.0948C23.0118 49.5195 23.3216 49.8882 23.7436 49.9455C23.7603 49.9476 25.4432 50.1804 27.6356 50.9525C28.0649 51.1033 28.5358 50.8794 28.6875 50.4513C28.8387 50.0232 28.6138 49.5537 28.1845 49.4029C26.7076 48.8825 25.4574 48.5924 24.7089 48.445L24.7517 47.4854C27.0371 46.9833 28.7667 46.1827 29.9111 45.0928C31.0397 44.0178 31.6361 42.6579 31.6361 41.16C31.6361 38.2722 29.268 36.943 27.8563 36.4077C27.1429 36.1372 26.3271 35.9151 25.2727 35.7053L25.5122 30.2946C28.8837 29.288 32.4643 28.081 35.487 26.1853C39.3803 23.7436 41.6494 20.5247 42.2372 16.6162C43.3898 15.0546 43.8983 13.9229 43.9301 13.8511C44.0423 13.5973 44.0183 13.3038 43.8662 13.0714ZM27.2706 37.9445C29.0735 38.6281 29.9878 39.7099 29.9878 41.1604C29.9878 42.1986 29.5679 43.1471 28.7727 43.9046C27.7556 44.8732 26.0954 45.5734 23.8284 45.9964C23.8207 45.9977 23.813 45.9981 23.8053 45.9994C23.3198 46.09 22.8117 46.1673 22.289 46.231C22.1069 46.2528 21.9231 46.2737 21.735 46.2929C21.6108 46.3053 21.4848 46.3168 21.358 46.3279C21.3344 46.3301 21.3113 46.3322 21.2881 46.3344C21.1652 46.3446 21.0418 46.3544 20.9171 46.3638C20.8957 46.3655 20.8742 46.3668 20.8528 46.3685C20.7269 46.3775 20.5996 46.3865 20.4719 46.3942C20.4565 46.395 20.4415 46.3959 20.4261 46.3967C20.3057 46.404 20.1844 46.4108 20.0632 46.4168C19.3558 46.4519 18.7333 46.4617 18.2586 46.4617C17.2667 46.4617 16.0327 46.4617 15.0182 46.3489C13.8794 46.2224 13.4967 46.0054 13.3841 45.9169C13.4852 45.8246 13.8014 45.6068 14.6896 45.3923C15.4685 45.2047 16.319 45.1082 16.8271 45.0505L17.0225 45.0278C17.4192 44.9808 17.8785 44.9326 18.3648 44.8817C18.9124 44.824 19.4492 44.7659 19.9728 44.7048C19.9848 44.704 19.9968 44.704 20.0088 44.7027C20.7311 44.619 21.6695 44.5019 22.6275 44.3383C24.8181 43.9695 26.5615 43.4534 27.4925 42.5656C27.9518 42.1281 28.1035 41.5573 27.9441 40.8699C27.7367 39.9735 26.6819 39.5262 25.1185 39.1993L25.1995 37.3681C26.0401 37.5437 26.6995 37.7279 27.2706 37.9445ZM20.2029 31.772C20.8498 31.5828 21.5182 31.4097 22.1253 31.2525C22.5405 31.1452 22.936 31.0427 23.2907 30.944C23.3738 30.9209 23.4552 30.8979 23.5336 30.8752C23.5846 30.8603 23.6369 30.8453 23.6883 30.8304C23.7389 30.8154 23.7899 30.8009 23.8408 30.7859L23.3211 42.5344C23.2629 42.5464 23.2042 42.5583 23.145 42.5703C23.1253 42.5741 23.1052 42.5784 23.0851 42.5823C22.3168 42.7339 21.4959 42.8578 20.6977 42.9617L20.2029 31.772ZM24.9904 42.0939L25.0448 40.8677C25.9458 41.0758 26.2556 41.2501 26.3558 41.327C26.3588 41.3458 26.3601 41.3608 26.3597 41.3714C26.3584 41.3731 26.3563 41.3753 26.3537 41.3774C26.0632 41.6543 25.5846 41.8905 24.9904 42.0939ZM34.6095 24.7942C31.6039 26.6792 27.9214 27.8725 24.4977 28.8813C24.4921 28.883 24.4865 28.8834 24.4814 28.8851C24.0067 29.0248 23.5354 29.1628 23.0731 29.297C22.6836 29.4098 22.211 29.532 21.7106 29.6614C18.7928 30.4164 15.4856 31.2721 15.4856 33.2328C15.4856 35.0537 17.5238 35.8446 18.7483 36.1898L18.8348 38.1504C17.7975 37.927 16.9698 37.6817 16.277 37.3946C14.187 36.5286 13.1274 35.1631 13.1274 33.3362C13.1274 31.3768 14.8982 30.3036 16.2307 29.667C17.1429 29.2312 18.2401 28.836 19.4419 28.4523C19.4436 28.4519 19.4458 28.4519 19.4475 28.451C20.1969 28.2122 20.9826 27.9789 21.7629 27.7508C21.7834 27.7448 21.804 27.7388 21.8241 27.7328C22.0688 27.6615 22.313 27.5905 22.5546 27.5205C24.6232 26.9202 26.966 26.2404 29.1661 25.3902C33.846 24.1187 37.2205 21.8599 39.5808 19.6185C38.5723 21.6189 36.9099 23.3514 34.6095 24.7942ZM18.6707 34.4338C17.6823 34.08 17.1343 33.6592 17.1343 33.2328C17.1343 33.2294 17.235 32.8611 18.5773 32.3206L18.6707 34.4338Z" fill="#824DFF"/>
</svg>
