<svg width="49" height="72" viewBox="0 0 49 72" fill="none" xmlns="http://www.w3.org/2000/svg">
<g clip-path="url(#clip0)">
<path d="M44.0635 25.1513L42.7497 16.361C42.7233 16.1848 42.6281 16.0263 42.4849 15.9203C42.3417 15.8143 42.1622 15.7696 41.986 15.7959L39.7722 16.1268C39.4053 16.1817 39.1523 16.5236 39.2071 16.8905L39.6139 19.612L37.166 19.9778L36.9734 18.6888C36.9184 18.3219 36.5766 18.069 36.2097 18.1237L14.592 21.3547C14.225 21.4096 13.972 21.7515 14.0268 22.1184L14.3703 24.4167L3.83528 25.9912C3.46837 26.0461 3.21537 26.388 3.27017 26.7549C3.2976 26.9384 3.3968 27.0934 3.53498 27.1956C3.67317 27.2979 3.85033 27.3474 4.03384 27.32L14.569 25.7454L14.9125 28.0437C14.9399 28.2271 15.0391 28.3821 15.1773 28.4843C15.3155 28.5866 15.4927 28.6361 15.6761 28.6087L37.2938 25.3778C37.6607 25.3229 37.9137 24.981 37.8589 24.614L37.6663 23.325L40.1141 22.9591L40.5208 25.6807C40.5472 25.8569 40.6424 26.0155 40.7857 26.1214C40.9289 26.2274 41.1083 26.2721 41.2845 26.2458L43.4983 25.9149C43.8654 25.8601 44.1183 25.5182 44.0635 25.1513ZM16.1419 27.1807L15.4549 22.5841L17.2516 22.3155L17.3907 23.2464C17.4182 23.4299 17.5174 23.5848 17.6556 23.6871C17.7937 23.7893 17.9709 23.8389 18.1544 23.8115C18.5213 23.7566 18.7743 23.4147 18.7195 23.0478L18.5804 22.1169L20.1167 21.8873L20.2558 22.8182C20.2832 23.0017 20.3824 23.1566 20.5206 23.2588C20.6588 23.3611 20.836 23.4107 21.0195 23.3832C21.3864 23.3284 21.6394 22.9865 21.5846 22.6195L21.4455 21.6886L22.9818 21.459L23.1209 22.3899C23.1483 22.5734 23.2475 22.7283 23.3857 22.8306C23.5239 22.9328 23.701 22.9824 23.8846 22.955C24.2515 22.9001 24.5045 22.5582 24.4497 22.1912L24.3105 21.2604L25.8468 21.0308L25.986 21.9616C26.0134 22.1451 26.1126 22.3001 26.2508 22.4023C26.389 22.5046 26.5661 22.5541 26.7496 22.5267C27.1165 22.4719 27.3695 22.13 27.3147 21.763L27.1756 20.8321L28.7118 20.6025L28.851 21.5333C28.8784 21.7168 28.9776 21.8718 29.1158 21.974C29.254 22.0763 29.4311 22.1258 29.6146 22.0984C29.9816 22.0436 30.2346 21.7017 30.1798 21.3347L30.0406 20.4038L35.7442 19.5514L36.4311 24.1483L16.1419 27.1807ZM37.4677 21.9964L37.3646 21.3066L39.8124 20.9407L39.9155 21.6305L37.4677 21.9964ZM41.7503 24.8179L40.6351 17.3562L41.5203 17.2239L42.6355 24.6856L41.7503 24.8179Z" fill="#824DFF"/>
<path d="M2.71065 26.8386C2.65572 26.4716 2.31391 26.2187 1.94694 26.2735L1.75165 26.3027C1.38473 26.3576 1.13173 26.6995 1.18653 27.0664C1.214 27.2499 1.3132 27.4048 1.45139 27.5071C1.58957 27.6093 1.76674 27.6589 1.95024 27.6315L2.14554 27.6023C2.51245 27.5474 2.76549 27.2055 2.71065 26.8386Z" fill="#824DFF"/>
</g>
<g clip-path="url(#clip1)">
<path d="M40.6244 45.9972C39.3514 45.2196 37.696 45.5372 36.8012 46.7306L32.796 52.0702C32.1178 52.9804 31.1119 53.5908 29.9913 53.7719L21.9629 54.8379L26.0838 53.1829C27.2451 52.7674 27.8498 51.4891 27.4343 50.3277C27.2773 49.8889 26.9869 49.5102 26.6039 49.2446C26.0413 48.8517 25.3288 48.7408 24.6734 48.9441L12.1887 52.7833C10.4751 53.2686 9.02649 54.4187 8.16545 55.9777L5.80275 60.2311C5.78124 60.2694 5.76349 60.3099 5.74974 60.3517L2.1803 71.06C2.0551 71.4335 2.25642 71.8377 2.62987 71.9629C2.70314 71.9874 2.77997 71.9999 2.85725 71.9998H13.5656C13.9256 71.9996 14.229 71.7316 14.2739 71.3744L14.8108 67.0779C14.8866 66.4869 15.2932 65.991 15.8579 65.8007L34.0139 59.7494C35.4021 59.2908 36.565 58.3236 37.269 57.0423L41.5851 49.9746C42.4181 48.6109 41.988 46.8302 40.6244 45.9972ZM40.3665 49.23L36.033 56.3284C35.5013 57.3057 34.6181 58.0443 33.5622 58.3948L15.4062 64.4468C14.321 64.8121 13.5397 65.7651 13.3942 66.9008L12.9354 70.572H3.84803L7.08284 60.8662L9.41342 56.6714C10.0943 55.4402 11.24 54.533 12.5945 54.1526L25.0932 50.3092C25.3298 50.2353 25.5875 50.2755 25.7904 50.418C25.9983 50.5622 26.1265 50.7954 26.1369 51.0482C26.1369 51.4133 25.9045 51.7379 25.5589 51.8556L16.1549 55.6319C15.7892 55.7793 15.6121 56.1951 15.7594 56.5608C15.8812 56.8631 16.1922 57.0446 16.5154 57.0018L30.1985 55.1843C31.6917 54.9481 33.0337 54.1379 33.938 52.9262L37.9432 47.5867C38.4289 46.9391 39.3475 46.8079 39.9951 47.2936C40.5994 47.747 40.7602 48.5852 40.3665 49.23Z" fill="#824DFF"/>
<path d="M21.4184 29.1665C18.6585 29.1665 16.4212 31.4038 16.4212 34.1637C16.4212 36.9236 18.6585 39.1609 21.4184 39.1609C24.1783 39.1609 26.4156 36.9236 26.4156 34.1637C26.4123 31.4053 24.177 29.1699 21.4184 29.1665ZM19.3848 31.2274C19.9823 30.814 20.6919 30.5931 21.4184 30.5943C22.1411 30.5943 22.8465 30.8152 23.4401 31.2274L18.482 36.1855C17.3623 34.567 17.7664 32.3472 19.3848 31.2274ZM23.3496 37.1719C22.7733 37.5409 22.1028 37.7358 21.4184 37.7332C20.7433 37.7316 20.0826 37.5368 19.5146 37.1719L24.4266 32.2599C25.4856 33.9137 25.0034 36.1129 23.3496 37.1719Z" fill="#824DFF"/>
<path d="M25.7018 40.5887H17.1351C15.1638 40.5887 13.5657 42.1869 13.5657 44.1582C13.5657 46.1295 15.1638 47.7276 17.1351 47.7276H25.7018C27.6731 47.7276 29.2712 46.1295 29.2712 44.1582C29.2712 42.1869 27.6732 40.5887 25.7018 40.5887ZM20.7046 46.2999H17.1351C15.9528 46.2986 14.9947 45.3405 14.9935 44.1582C14.9947 42.9759 15.9528 42.0178 17.1351 42.0165H20.7046V46.2999ZM25.7018 46.2999H22.1323V42.0165H25.7018C26.8846 42.0165 27.8434 42.9754 27.8434 44.1582C27.8434 45.341 26.8846 46.2999 25.7018 46.2999Z" fill="#824DFF"/>
<path d="M8.56889 44.9352C8.55604 44.9222 8.5431 44.9094 8.53016 44.8965C6.57268 42.964 3.42542 42.964 1.46793 44.8965C-0.471612 46.8146 -0.489013 49.942 1.4292 51.8816C1.44205 51.8946 1.45499 51.9074 1.46793 51.9203C2.40679 52.8517 3.67653 53.373 4.999 53.3697C6.32148 53.3728 7.59122 52.8516 8.53007 51.9203C10.4697 50.0022 10.487 46.8748 8.56889 44.9352ZM4.35204 51.8816C3.64137 51.7548 2.98602 51.4147 2.47318 50.9067C1.09341 49.5434 1.08002 47.3198 2.44328 45.94C2.45319 45.93 2.46318 45.9201 2.47318 45.9101C2.98602 45.402 3.64128 45.0619 4.35204 44.9349V51.8816ZM7.52483 50.9067C7.04456 51.3803 6.43927 51.7073 5.77982 51.8493V44.9671C6.43927 45.1093 7.04456 45.4364 7.52483 45.9101C8.1941 46.5687 8.57023 47.4689 8.56844 48.408C8.57005 49.3473 8.19401 50.2476 7.52483 50.9067Z" fill="#824DFF"/>
<path d="M12.4941 36.4854L6.24759 30.2374C4.81839 28.8082 2.50111 28.8082 1.0719 30.2374C-0.357301 31.6666 -0.357301 33.9839 1.0719 35.4131H1.07262L7.31985 41.6596C8.75361 43.0836 11.0702 43.0756 12.4941 41.6419C13.9112 40.2152 13.9112 37.9122 12.4941 36.4854ZM2.08277 34.4037C1.21352 33.5316 1.21325 32.1208 2.08206 31.2483C2.95425 30.3788 4.36552 30.3784 5.23807 31.2476L7.85643 33.8662L4.70095 37.0219L2.08277 34.4037ZM11.4847 40.6502C10.6122 41.5188 9.20175 41.5188 8.32938 40.6502L5.71048 38.0313L8.86596 34.8758L11.4847 37.4948C12.3541 38.367 12.3541 39.7781 11.4847 40.6502Z" fill="#824DFF"/>
<path d="M41.7639 30.2377C40.3351 28.8086 38.0183 28.8084 36.5893 30.2373L30.3413 36.4845C28.9127 37.9121 28.9119 40.2275 30.3395 41.6562C31.026 42.3433 31.9578 42.729 32.9292 42.7283C33.8994 42.7302 34.8305 42.3453 35.5163 41.6589L41.7635 35.4124C43.1926 33.9835 43.1927 31.6668 41.7639 30.2377ZM34.5069 40.6494C33.6356 41.5207 32.2229 41.5207 31.3515 40.6494C30.4801 39.7781 30.4802 38.3654 31.3515 37.494L33.9706 34.8752L37.1259 38.0305L34.5069 40.6494ZM40.7541 34.4028L38.1355 37.0212L34.9801 33.8658L37.5987 31.2474C38.47 30.3761 39.8828 30.3761 40.7541 31.2474C41.6255 32.1188 41.6255 33.5315 40.7541 34.4028Z" fill="#824DFF"/>
</g>
<defs>
<clipPath id="clip0">
<rect x="20.9695" width="33.7215" height="33.7215" transform="rotate(36.4995 20.9695 0)" fill="white"/>
</clipPath>
<clipPath id="clip1">
<rect y="29.1646" width="42.8354" height="42.8354" fill="white"/>
</clipPath>
</defs>
</svg>
