<svg width="26" height="23" viewBox="0 0 26 23" fill="none" xmlns="http://www.w3.org/2000/svg">
<path d="M0.447676 10.404C0.154369 10.6664 -4.48259e-08 11.0255 -5.99188e-08 11.3708C-7.50118e-08 11.7161 0.154369 12.0752 0.447676 12.3376L11.9175 22.5995C12.2108 22.8619 12.5967 23 12.9981 23C13.3994 23 13.7854 22.8619 14.0787 22.5995L25.5485 12.3376C26.1505 11.7989 26.1505 10.9426 25.5485 10.404C24.9464 9.86534 23.9893 9.86534 23.3873 10.404L12.9981 19.6991L2.60888 10.404C2.00683 9.87915 1.03429 9.87915 0.447676 10.404Z" fill="#8C53FF"/>
<path d="M0.447676 0.403983C0.154369 0.6664 -4.48259e-08 1.0255 -5.99188e-08 1.37078C-7.50118e-08 1.71607 0.154369 2.07516 0.447676 2.33758L11.9175 12.5995C12.2108 12.8619 12.5967 13 12.9981 13C13.3994 13 13.7854 12.8619 14.0787 12.5995L25.5485 2.33758C26.1505 1.79894 26.1505 0.942629 25.5485 0.403984C24.9464 -0.134661 23.9893 -0.134661 23.3873 0.403984L12.9981 9.69907L2.60888 0.403983C2.00683 -0.120851 1.03429 -0.120851 0.447676 0.403983Z" fill="#8C53FF"/>
</svg>
