<svg width="101" height="100" viewBox="0 0 101 100" fill="none" xmlns="http://www.w3.org/2000/svg">
<path d="M67.3879 30.3758L67.388 30.3757C62.7669 26.751 58.4886 25.2733 53.4885 25.5279C50.803 25.7135 48.1346 26.0948 45.5045 26.6688L45.4966 26.6705L45.4966 26.6705C41.7977 27.4151 39.1767 28.7024 37.413 30.5638C35.9867 32.0828 34.8856 33.8771 34.1773 35.8366C33.8758 36.7029 33.6302 37.5876 33.4418 38.4853L33.4396 38.4957L33.4395 38.4957L33.3695 38.7972L33.3674 38.8059L33.3651 38.8146C33.1825 39.4905 32.936 40.1476 32.629 40.7768C32.4562 41.1621 32.2911 41.5333 32.1501 41.9079L32.1455 41.92L32.1404 41.9318C31.9861 42.2852 31.9217 42.6711 31.9525 43.0553C32.1 43.67 32.4601 44.2131 32.9697 44.5882L32.9914 44.6041L33.0111 44.6223C33.2111 44.8055 33.406 44.9872 33.5497 45.16C33.6848 45.3223 33.8497 45.5621 33.8528 45.8622L33.8535 45.9286L33.8368 45.9929C33.795 46.1542 33.7324 46.3092 33.6508 46.4543C32.6388 48.5843 31.3996 50.5987 29.9549 52.4626L29.9467 52.4732L29.9466 52.4731C29.6493 52.8361 29.3717 53.1978 29.1816 53.5615C28.9985 53.9119 28.9189 54.2223 28.9519 54.5043C29.1033 55.0206 29.4489 55.4587 29.9168 55.726L29.936 55.737L29.9542 55.7496C30.2073 55.9256 30.4743 56.0805 30.7526 56.2128L30.7649 56.2186L30.7648 56.2188L30.7698 56.2213C30.9457 56.3109 31.2047 56.4427 31.4265 56.5832C31.5377 56.6537 31.6566 56.7368 31.7562 56.8285C31.8363 56.9022 31.9896 57.0563 32.0324 57.2797C32.1062 57.6601 32.0631 58.0538 31.9087 58.4091L31.9054 58.4166L31.9019 58.424C31.7749 58.6918 31.6435 58.9238 31.5365 59.1129L31.5224 59.1377C31.5224 59.1378 31.5223 59.1379 31.5223 59.1379C31.362 59.4216 31.2032 59.7113 31.1513 59.9906C31.127 60.1212 31.131 60.228 31.1581 60.3172C31.1836 60.4017 31.2382 60.4991 31.3628 60.6036L31.3729 60.6121L31.3728 60.6122C31.5376 60.758 31.8321 60.9899 32.1142 61.2055L32.4612 61.4706L32.2451 61.8502C32.0888 62.1247 32.0172 62.4394 32.0393 62.7545C32.0684 62.9388 32.1704 63.1039 32.3228 63.2125C32.4861 63.3283 32.6647 63.4319 32.8638 63.5459C32.8641 63.546 32.8643 63.5462 32.8646 63.5463L32.6162 63.9803C33.1062 64.2595 33.2974 64.3897 33.3633 64.6496L67.3879 30.3758ZM67.3879 30.3758L67.3973 30.3828M67.3879 30.3758L67.3973 30.3828M67.3973 30.3828C69.7006 32.1044 71.3847 34.5254 72.1975 37.2837C72.8119 39.5408 73.099 41.8744 73.0499 44.213H73.0499L73.0499 44.2201C73.0339 46.5554 72.3542 48.838 71.0901 50.8017L71.0883 50.8045C70.6327 51.5227 70.1258 52.2064 69.6225 52.8834C68.7148 54.0117 67.9377 55.239 67.3058 56.5418L67.3016 56.5504L67.2978 56.5591C66.2544 58.9375 65.8647 61.5513 66.1691 64.1306C66.3494 65.8289 66.684 67.5073 67.1688 69.1449L67.1703 69.1499C67.4293 69.9925 67.7536 70.8137 68.1406 71.606L68.145 71.6151L68.1498 71.624C68.3371 71.971 68.5536 72.3015 68.797 72.6119L68.7969 72.612M67.3973 30.3828L68.7969 72.612M68.7969 72.612L68.8043 72.6209M68.7969 72.612L68.8043 72.6209M68.8043 72.6209C69.1644 73.0588 69.4513 73.552 69.6542 74.0815L68.8043 72.6209ZM46.4665 67.8305C46.5025 67.8178 46.538 67.8054 46.5731 67.793L46.6874 67.753C47.2546 67.5544 47.6823 67.4047 47.9044 67.3348C51.4769 66.2135 53.264 64.5899 53.2152 62.509L46.4665 67.8305ZM46.4665 67.8305C46.4205 67.778 46.374 67.7258 46.3272 67.6739L45.9562 68.0091L46.1209 68.4812C46.1845 68.459 46.2472 68.4371 46.3088 68.4156C47.5058 69.853 48.3875 71.5285 48.8939 73.3334H67.2556C67.3183 73.4207 67.3827 73.5069 67.4488 73.5918C67.4557 73.601 67.4614 73.6089 67.4659 73.6155L67.8787 73.3334V73.2621V73.2615V72.8334H67.5174C67.362 72.6012 67.2191 72.3608 67.0894 72.1131C66.6777 71.2686 66.3322 70.3933 66.0559 69.4952C65.5499 67.7906 65.2003 66.0435 65.0118 64.2755L46.4665 67.8305ZM69.0764 52.5013L69.0707 52.5085C68.1339 53.6786 67.3328 54.9512 66.6829 56.3019C65.5941 58.7886 65.1886 61.5208 65.5083 64.2166L65.509 64.2225C65.6942 65.9594 66.0375 67.6757 66.5345 69.3503C66.8023 70.2207 67.137 71.0689 67.5357 71.8875C67.7375 72.272 67.9731 72.6376 68.2399 72.9802L68.2436 72.9849L68.2436 72.9849C68.2588 73.005 68.2752 73.0274 68.2915 73.0512L68.8261 73.8334H67.8787H48.8939H48.5149L48.4125 73.4685C47.8784 71.565 46.9107 69.8112 45.5852 68.3444L45.08 67.7853L45.7915 67.537C46.0091 67.4611 46.2154 67.3888 46.4071 67.3214L46.4079 67.3211L46.5289 67.2787C47.089 67.0827 47.524 66.9304 47.7543 66.8579L47.7547 66.8578C49.5063 66.308 50.7695 65.6495 51.5815 64.9117C52.38 64.1862 52.7358 63.3929 52.7153 62.5207L52.7153 62.5207C52.711 62.3366 52.5582 62.1908 52.3741 62.1951C52.1899 62.1995 52.0441 62.3524 52.0484 62.5363C52.0625 63.1296 51.8169 63.7901 51.1205 64.4293C50.4386 65.0552 49.3196 65.6679 47.5538 66.2221C47.3171 66.297 46.8377 66.4641 46.1877 66.6922L46.1873 66.6923C45.59 66.9015 44.8528 67.1595 44.0459 67.4353L69.0764 52.5013ZM69.0764 52.5013L69.0819 52.494M69.0764 52.5013L69.0819 52.494M69.0819 52.494L69.0854 52.4892C69.5671 51.8402 70.0778 51.1522 70.5233 50.4503C71.723 48.5877 72.3681 46.4223 72.3834 44.2068C72.4318 41.9339 72.1538 39.6659 71.5584 37.472L71.5585 37.4719L71.5558 37.4628C70.7875 34.8315 69.1776 32.5248 66.9727 30.8964C62.5345 27.416 58.3743 25.9493 53.5191 26.1934L53.5191 26.1933L53.5094 26.194C50.8571 26.3795 48.2218 26.7575 45.6243 27.3248C42.1609 28.0224 39.6073 29.2165 37.8959 31.0229L37.894 31.0248C36.5293 32.4808 35.4763 34.2002 34.7994 36.0775L34.7994 36.0775L34.7973 36.0834C34.5064 36.9231 34.2696 37.7804 34.0882 38.6503L34.0203 38.9417C33.8312 39.6602 33.5724 40.3587 33.2478 41.027L33.2442 41.0344L33.2409 41.0419C33.2302 41.0658 33.2195 41.0898 33.2088 41.1138C33.0637 41.439 32.9118 41.7796 32.7798 42.1284C32.6709 42.3707 32.6125 42.6328 32.6084 42.8986L32.6078 42.9374L32.6132 42.9758C32.6528 43.2587 32.8297 43.4902 32.9655 43.6445C33.1098 43.8085 33.2906 43.9739 33.4508 44.1205L33.4616 44.1304L33.4854 44.1522L33.5118 44.1707C34.0741 44.5658 34.4402 45.182 34.5188 45.8636C34.503 46.1671 34.4149 46.4626 34.2617 46.7254L34.2509 46.7437L34.2418 46.7629C33.2165 48.9234 31.9602 50.9664 30.4947 52.8562L69.0819 52.494ZM36.8274 69.6138L36.8157 69.6161C35.7826 69.8165 34.7764 69.1721 34.523 68.1552C34.3238 67.6238 34.2485 67.0537 34.3031 66.4884L34.3039 66.4797L34.3051 66.4711C34.3297 66.2841 34.3707 66.0997 34.4063 65.9397L34.4127 65.9106L34.4165 65.8938L34.4214 65.8772C34.5667 65.3857 34.5913 64.8666 34.4933 64.3637C34.2938 63.7485 33.839 63.2484 33.2444 62.9917L33.2192 62.9808L33.1953 62.9672L33.1812 62.9592C33.1269 62.9283 33.068 62.8948 33.0103 62.8607L32.6123 62.626L32.815 62.2108C32.9185 61.9989 33.0428 61.7975 33.1863 61.6099L33.19 61.6051L33.1901 61.6051C33.2456 61.5344 33.2701 61.4443 33.258 61.3551C33.246 61.2662 33.1984 61.1857 33.1262 61.1323C33.1262 61.1323 33.1261 61.1322 33.126 61.1322L36.8274 69.6138ZM36.8274 69.6138L36.8389 69.611M36.8274 69.6138L36.8389 69.611M36.8389 69.611C39.2782 69.0161 41.6837 68.2899 44.0449 67.4357L36.8389 69.611ZM33.6448 66.3758C33.6701 66.1892 33.7106 65.998 33.7567 65.7883L47.9388 74.2458C47.7767 73.5857 47.3916 72.3989 46.8044 71.2295C46.2259 70.0772 45.4081 68.8534 44.3425 68.2241L44.1403 68.1047L43.9194 68.184C41.6343 69.004 39.3067 69.7002 36.9467 70.2696C35.605 70.557 34.2718 69.7465 33.91 68.4223L33.9039 68.4003L33.8959 68.3789C33.6568 67.74 33.5708 67.0539 33.6448 66.3758ZM32.6881 57.1567C32.7893 57.6828 32.7243 58.2274 32.5022 58.7148L30.317 55.1884C30.3171 55.1885 30.3173 55.1886 30.3174 55.1887C30.5573 55.3555 30.8104 55.5024 31.0744 55.6278C31.4362 55.8125 31.8056 56.0036 32.1117 56.2583C32.4113 56.5077 32.6189 56.7931 32.6879 57.1557L32.6881 57.1567Z" stroke="#FF5312"/>
<path d="M53.4011 52.509C51.3385 52.509 49.6602 54.2064 49.6602 56.2924C49.6602 58.3785 51.3385 60.0759 53.4011 60.0759C54.4137 60.0759 55.3673 59.6728 56.0862 58.9405C56.7828 58.2309 57.1826 57.2658 57.1826 56.2924C57.1826 55.2924 56.7862 54.3451 56.067 53.6252C55.3474 52.9056 54.4007 52.509 53.4011 52.509ZM53.4011 58.7393C52.0749 58.7393 50.996 57.6417 50.996 56.2924C50.996 54.9432 52.0749 53.8456 53.4011 53.8456C54.7267 53.8456 55.8464 54.9662 55.8464 56.2924C55.8464 57.6187 54.7267 58.7393 53.4011 58.7393V58.7393Z" fill="#FF5312"/>
<path d="M59.838 42.0717C60.1162 42.3147 60.538 42.2859 60.7806 42.0078C62.3903 40.1628 63.2066 38.2313 63.2066 36.2671C63.2066 34.1958 62.2767 32.3182 60.5884 30.9803C58.8912 29.6355 56.588 28.9248 53.9273 28.9248C50.6359 28.9248 48.6 30.0365 47.4721 30.9689C46.1081 32.0964 45.2935 33.6084 45.2935 35.0133C45.2935 35.9265 45.6671 36.7309 46.3459 37.2785C46.9045 37.7293 47.6485 37.9878 48.3876 37.9878C49.661 37.9878 50.2193 37.1642 50.6678 36.5023C51.236 35.6642 51.7724 34.8725 53.8055 34.8725C54.5024 34.8725 56.7764 35.0229 56.7764 36.9551C56.7764 38.4136 55.4289 39.4487 54.2399 40.3619C53.9462 40.5871 53.6689 40.8003 53.4102 41.0201C52.041 42.2008 50.4691 44.0245 50.4691 47.6757C50.4691 49.7037 50.9608 51.0547 53.3611 51.0547C54.4242 51.0547 55.2268 50.8137 55.7467 50.3385C56.1831 49.9396 56.4141 49.3824 56.4141 48.727C56.4141 46.757 56.4141 45.7682 58.4221 44.1968L58.4565 44.1701C58.545 44.101 58.6472 44.021 58.7598 43.9301C59.047 43.6983 59.092 43.2778 58.8603 42.9904C58.6287 42.703 58.2084 42.6581 57.9212 42.8898C57.8144 42.976 57.718 43.0512 57.6346 43.1164L57.5993 43.1439C55.1952 45.0253 55.0782 46.4216 55.0782 48.7273C55.0782 49.0236 55.0782 49.7181 53.3611 49.7181C52.5225 49.7181 52.2672 49.5427 52.1385 49.3896C51.9141 49.1228 51.805 48.5622 51.805 47.6757C51.805 44.5855 53.0574 43.0889 54.2783 42.036C54.5086 41.8406 54.7732 41.6374 55.0535 41.4221C56.4161 40.3753 58.1126 39.0724 58.1126 36.9551C58.1126 34.878 56.422 33.536 53.8055 33.536C51.0645 33.536 50.1963 34.8169 49.5622 35.7521C49.1288 36.3917 48.9311 36.6513 48.3876 36.6513C47.6811 36.6513 46.6297 36.2149 46.6297 35.0133C46.6297 34.2329 47.0744 33.0313 48.3231 31.9993C49.2825 31.2065 51.0332 30.261 53.9276 30.261C58.6047 30.261 61.8707 32.7309 61.8707 36.2671C61.8707 37.8986 61.1656 39.5342 59.7745 41.1289C59.5315 41.407 59.5604 41.8289 59.838 42.0717V42.0717Z" fill="#FF5312"/>
<path d="M95.2288 50C95.2288 74.5769 75.3157 94.5 50.7522 94.5C26.1887 94.5 6.27563 74.5769 6.27563 50C6.27563 25.4231 26.1887 5.5 50.7522 5.5C75.3157 5.5 95.2288 25.4231 95.2288 50Z" stroke="#FF5312"/>
<path d="M99.7263 50C99.7263 77.0624 77.7994 99 50.7523 99C23.7052 99 1.77832 77.0624 1.77832 50C1.77832 22.9376 23.7052 1 50.7523 1C77.7994 1 99.7263 22.9376 99.7263 50Z" stroke="#FF5312" stroke-width="2"/>
</svg>
