<svg width="180" height="180" viewBox="0 0 180 180" fill="none" xmlns="http://www.w3.org/2000/svg">
<path d="M59.3002 102.888L59.3002 79.544C59.3002 77.9086 60.6239 76.5827 62.2593 76.5827L82.7613 76.5827L82.7613 64.401C82.7613 62.7645 84.0872 61.4397 85.7226 61.4397C87.359 61.4397 88.6838 62.7645 88.6838 64.401L88.6838 79.544C88.6838 81.1783 87.359 82.5042 85.7226 82.5042L65.2217 82.5042L65.2217 99.9254L85.7226 99.9254C87.359 99.9254 88.6838 101.253 88.6838 102.888L88.6838 114.73C88.6838 116.363 87.359 117.69 85.7226 117.69C84.0872 117.69 82.7613 116.363 82.7613 114.73L82.7613 105.847L62.2593 105.847C60.6239 105.847 59.3002 104.523 59.3002 102.888Z" fill="white"/>
<path d="M106.813 114.73L106.813 102.888C106.813 101.253 108.139 99.9254 109.774 99.9254L130.354 99.9254L130.354 82.5042L109.774 82.5042C108.139 82.5042 106.813 81.1783 106.813 79.544L106.813 64.401C106.813 62.7645 108.139 61.4397 109.774 61.4397C111.411 61.4397 112.735 62.7645 112.735 64.401L112.735 76.5827L133.313 76.5827C134.949 76.5827 136.274 77.9086 136.274 79.544L136.274 102.888C136.274 104.523 134.949 105.847 133.313 105.847L112.735 105.847L112.735 114.73C112.735 116.363 111.411 117.69 109.774 117.69C108.139 117.69 106.813 116.363 106.813 114.73Z" fill="white"/>
<path d="M65.2217 163.577C65.2217 160.759 66.3511 158.2 68.1841 156.329C68.1754 156.153 68.1841 155.98 68.2047 155.806L71.1421 132.403C71.2474 121.007 80.5515 111.768 91.9699 111.768L112.992 111.768C118.919 111.768 124.088 115.32 126.276 120.649L148.117 120.649C149.754 120.649 151.077 121.975 151.077 123.61L151.077 162.097C151.077 163.731 149.754 165.058 148.117 165.058L126.276 165.058C124.088 170.388 118.919 173.94 112.992 173.94L74.1034 173.94C73.5159 173.94 72.9708 173.768 72.5071 173.474C68.2905 172.161 65.2217 168.222 65.2217 163.577ZM78.5437 156.177C78.5437 157.812 77.221 159.137 75.5846 159.137C73.1347 159.137 71.1421 161.128 71.1421 163.577C71.1421 166.027 73.1347 168.019 75.5846 168.019L112.992 168.019C116.956 168.019 120.348 165.311 121.234 161.436C121.545 160.091 122.74 159.137 124.119 159.137L145.156 159.137L145.156 126.573L124.119 126.573C122.74 126.573 121.545 125.618 121.234 124.273C120.348 120.397 116.956 117.69 112.992 117.69L91.9699 117.69C83.7506 117.69 77.0647 124.375 77.0647 132.595C77.0647 132.718 77.0538 132.841 77.0408 132.963L74.4997 153.217L75.5846 153.217C77.221 153.217 78.5437 154.541 78.5437 156.177Z" fill="white"/>
<path d="M68.1829 156.177C68.1829 154.541 69.5056 153.217 71.142 153.217L85.9441 153.217C87.5806 153.217 88.9065 154.541 88.9065 156.177C88.9065 157.812 87.5806 159.137 85.9441 159.137L71.142 159.137C69.5056 159.137 68.1829 157.812 68.1829 156.177Z" fill="white"/>
<path d="M74.1033 141.375C74.1033 139.739 75.4282 138.412 77.0646 138.412L85.9441 138.412C87.5806 138.412 88.9065 139.739 88.9065 141.375C88.9065 143.009 87.5806 144.334 85.9441 144.334L77.0646 144.334C75.4281 144.334 74.1033 143.009 74.1033 141.375Z" fill="white"/>
<path d="M74.1033 129.532C74.1033 127.896 75.4282 126.573 77.0646 126.573L85.9441 126.573C87.5806 126.573 88.9065 127.896 88.9065 129.532C88.9065 131.166 87.5806 132.492 85.9441 132.492L77.0646 132.492C75.4281 132.492 74.1033 131.166 74.1033 129.532Z" fill="white"/>
<path d="M145.156 165.058L145.156 117.69C145.156 116.056 146.48 114.73 148.117 114.73L168.84 114.73C170.477 114.73 171.801 116.056 171.801 117.69L171.801 165.058C171.801 166.693 170.477 168.019 168.84 168.019L148.117 168.019C146.48 168.019 145.156 166.693 145.156 165.058ZM151.077 120.649L151.077 162.097L165.879 162.097L165.879 120.649L151.077 120.649Z" fill="white"/>
<path d="M29.6961 55.5194L29.6961 17.0325C29.6961 15.396 31.0187 14.0723 32.6552 14.0723L54.495 14.0723C56.6842 8.74159 61.8542 5.18957 67.7801 5.18957L88.8 5.18957C100.222 5.18957 109.526 14.4274 109.629 25.8251L112.567 49.2287C112.587 49.4024 112.598 49.5783 112.587 49.7499C114.421 51.6188 115.551 54.1794 115.551 56.9984C115.551 61.6417 112.479 65.5836 108.265 66.8943C107.802 67.1907 107.255 67.3612 106.669 67.3612L67.7822 67.3612C61.8553 67.3612 56.6864 63.807 54.495 58.4785L32.6552 58.4785C31.0187 58.4785 29.6961 57.1537 29.6961 55.5194ZM35.6176 19.9916L35.6176 52.5581L56.6527 52.5581C58.0318 52.5581 59.2285 53.5115 59.538 54.8559C60.4241 58.7304 63.8154 61.4397 67.7822 61.4397L105.189 61.4398C107.638 61.4398 109.629 59.4482 109.629 56.9984C109.629 54.5496 107.638 52.5581 105.189 52.5581C103.552 52.5581 102.228 51.2344 102.228 49.5968C102.228 47.9625 103.552 46.6366 105.189 46.6366L106.273 46.6366L103.731 26.3855C103.716 26.2617 103.708 26.1401 103.708 26.0163C103.708 17.797 97.0225 11.11 88.8 11.11L67.7801 11.11C63.8176 11.11 60.4241 13.8171 59.538 17.696C59.2285 19.0393 58.0318 19.9916 56.6527 19.9916L35.6176 19.9916Z" fill="white"/>
<path d="M91.8666 49.5968C91.8666 47.9625 93.1904 46.6366 94.8258 46.6366L109.629 46.6366C111.264 46.6366 112.59 47.9625 112.59 49.5968C112.59 51.2343 111.264 52.5581 109.629 52.5581L94.8258 52.5581C93.1904 52.5581 91.8666 51.2343 91.8666 49.5968Z" fill="white"/>
<path d="M91.8667 34.7937C91.8667 33.1594 93.1904 31.8346 94.8258 31.8346L103.709 31.8346C105.345 31.8346 106.669 33.1594 106.669 34.7937C106.669 36.4291 105.345 37.7561 103.709 37.7561L94.8258 37.7561C93.1904 37.7561 91.8667 36.4291 91.8667 34.7937Z" fill="white"/>
<path d="M91.8667 22.9529C91.8667 21.3186 93.1904 19.9916 94.8258 19.9916L103.709 19.9916C105.345 19.9916 106.669 21.3186 106.669 22.9529C106.669 24.5871 105.345 25.913 103.709 25.913L94.8258 25.913C93.1904 25.913 91.8667 24.5871 91.8667 22.9529Z" fill="white"/>
<path d="M8.97047 58.4785L8.97047 11.11C8.97047 9.47677 10.2964 8.15088 11.9328 8.15088L32.6553 8.15088C34.2917 8.15088 35.6176 9.47678 35.6176 11.11L35.6176 58.4785C35.6176 60.1139 34.2917 61.4398 32.6553 61.4398L11.9328 61.4398C10.2964 61.4398 8.97047 60.1139 8.97047 58.4785ZM14.8919 14.0723L14.8919 55.5194L29.6961 55.5194L29.6961 14.0723L14.8919 14.0723Z" fill="white"/>
<path d="M151.077 73.2849C151.077 72.3282 151.54 71.3878 152.395 70.8177L161.276 64.8973C162.638 63.9906 164.475 64.3598 165.383 65.7193C166.287 67.0778 165.923 68.9152 164.561 69.8241L155.679 75.7445C154.317 76.6523 152.483 76.2853 151.574 74.9235C151.239 74.4197 151.077 73.8485 151.077 73.2849Z" fill="white"/>
<path d="M145.156 64.3978C145.156 63.9536 145.258 63.5008 145.467 63.0773L154.35 45.3129C155.082 43.848 156.861 43.2573 158.321 43.9892C159.786 44.7189 160.376 46.4933 159.646 47.9603L150.765 65.7247C150.033 67.1875 148.255 67.7793 146.792 67.0485C145.754 66.5305 145.156 65.4858 145.156 64.3978Z" fill="white"/>
<path d="M133.313 61.4397L133.313 49.5968C133.313 47.9625 134.637 46.6366 136.274 46.6366C137.911 46.6366 139.235 47.9625 139.235 49.5968L139.235 61.4397C139.235 63.074 137.911 64.401 136.274 64.401C134.637 64.401 133.313 63.074 133.313 61.4397Z" fill="white"/>
</svg>
