<svg width="180" height="180" viewBox="0 0 180 180" fill="none" xmlns="http://www.w3.org/2000/svg">
<path d="M59.121 126.879L32.121 99.879L31.605 99.363L21 88.758V52.5C21 46.71 16.29 42 10.5 42C4.71 42 0 46.71 0 52.5V118.5C0 119.172 0.225 119.82 0.636 120.348L27 154.035V180H33V153C33 152.328 32.775 151.68 32.364 151.152L6 117.465V52.5C6 50.019 8.019 48 10.5 48C12.981 48 15 50.019 15 52.5V90C15 90.798 15.315 91.56 15.879 92.121L20.271 96.513C15.51 97.914 12 102.276 12 107.484C12 110.553 13.194 113.436 15.366 115.605L33.879 134.121L38.121 129.879L19.605 111.363C18.585 110.34 18 108.93 18 107.484C18 104.46 20.46 102 23.487 102C24.948 102 26.322 102.57 27.357 103.599L27.879 104.121L54 130.242V180H60V129C60 128.202 59.685 127.44 59.121 126.879Z" fill="white"/>
<path d="M169.5 42C163.71 42 159 46.71 159 52.5V88.758L148.401 99.357C148.398 99.36 148.395 99.36 148.392 99.363L120.879 126.879C120.315 127.44 120 128.202 120 129V180H126V130.242L152.121 104.118L152.649 103.59C153.684 102.567 155.055 102 156.513 102C159.54 102 162 104.46 162 107.484C162 108.927 161.415 110.34 160.392 111.363L141.879 129.879L146.121 134.121L164.634 115.605C166.806 113.436 168 110.556 168 107.484C168 102.276 164.49 97.914 159.729 96.513L164.121 92.121C164.685 91.56 165 90.798 165 90V52.5C165 50.019 167.019 48 169.5 48C171.981 48 174 50.019 174 52.5V117.465L147.636 151.152C147.225 151.68 147 152.328 147 153V180H153V154.035L179.364 120.348C179.775 119.82 180 119.172 180 118.5V52.5C180 46.71 175.29 42 169.5 42Z" fill="white"/>
<path d="M90 0C58.569 0 33 25.569 33 57C33 88.431 58.569 114 90 114C121.431 114 147 88.431 147 57C147 25.569 121.431 0 90 0ZM90 108C61.878 108 39 85.122 39 57C39 28.878 61.878 6 90 6C118.122 6 141 28.878 141 57C141 85.122 118.122 108 90 108Z" fill="white"/>
<path d="M123 42H105V24C105 22.341 103.656 21 102 21H78C76.344 21 75 22.341 75 24V42H57C55.344 42 54 43.341 54 45V69C54 70.659 55.344 72 57 72H75V90C75 91.659 76.344 93 78 93H102C103.656 93 105 91.659 105 90V72H123C124.656 72 126 70.659 126 69V45C126 43.341 124.656 42 123 42ZM120 66H102C100.344 66 99 67.341 99 69V87H81V69C81 67.341 79.656 66 78 66H60V48H78C79.656 48 81 46.659 81 45V27H99V45C99 46.659 100.344 48 102 48H120V66Z" fill="white"/>
<path d="M81 120H75V126H81V120Z" fill="white"/>
<path d="M93 120H87V126H93V120Z" fill="white"/>
<path d="M105 120H99V126H105V120Z" fill="white"/>
</svg>
