<svg width="21" height="20" viewBox="0 0 21 20" fill="none" xmlns="http://www.w3.org/2000/svg">
<path d="M10.4992 0C4.98786 0 0.504395 4.48579 0.504395 10C0.504395 15.5142 4.98786 20 10.4992 20C16.0106 20 20.494 15.5142 20.494 10C20.494 4.48579 16.0106 0 10.4992 0ZM10.4992 18.9474C5.56808 18.9474 1.55648 14.9337 1.55648 10C1.55648 5.06632 5.56808 1.05263 10.4992 1.05263C15.4303 1.05263 19.4419 5.06632 19.4419 10C19.4419 14.9337 15.4303 18.9474 10.4992 18.9474Z" fill="#8C53FF"/>
<path d="M16.2857 7.36847H13.1295V4.21063C13.1295 3.91959 12.8938 3.68433 12.6034 3.68433H8.39506C8.10468 3.68433 7.86902 3.91959 7.86902 4.21063V7.36847H4.71275C4.42237 7.36847 4.18671 7.60373 4.18671 7.89478V12.1052C4.18671 12.3963 4.42237 12.6315 4.71275 12.6315H7.86902V15.7894C7.86902 16.0804 8.10468 16.3157 8.39506 16.3157H12.6034C12.8938 16.3157 13.1295 16.0804 13.1295 15.7894V12.6315H16.2857C16.5761 12.6315 16.8118 12.3963 16.8118 12.1052V7.89478C16.8118 7.60373 16.5761 7.36847 16.2857 7.36847ZM15.7597 11.5789H12.6034C12.313 11.5789 12.0774 11.8142 12.0774 12.1052V15.2631H8.9211V12.1052C8.9211 11.8142 8.68544 11.5789 8.39506 11.5789H5.23879V8.42108H8.39506C8.68544 8.42108 8.9211 8.18582 8.9211 7.89478V4.73694H12.0774V7.89478C12.0774 8.18582 12.313 8.42108 12.6034 8.42108H15.7597V11.5789Z" fill="#8C53FF"/>
</svg>
