<svg width="10" height="21" viewBox="0 0 10 21" fill="none" xmlns="http://www.w3.org/2000/svg">
<path d="M9.40904 0.00422199L7.06393 0C4.42928 0 2.72665 1.96006 2.72665 4.99377V7.29623H0.368746C0.164995 7.29623 0 7.48157 0 7.71019V11.0462C0 11.2748 0.165183 11.46 0.368746 11.46H2.72665V19.8777C2.72665 20.1064 2.89164 20.2915 3.0954 20.2915H6.17179C6.37554 20.2915 6.54054 20.1062 6.54054 19.8777V11.46H9.29748C9.50123 11.46 9.66622 11.2748 9.66622 11.0462L9.66735 7.71019C9.66735 7.60042 9.62841 7.49529 9.55936 7.41761C9.49032 7.33992 9.39625 7.29623 9.29842 7.29623H6.54054V5.3444C6.54054 4.40628 6.73977 3.93004 7.82889 3.93004L9.40866 3.9294C9.61223 3.9294 9.77722 3.74406 9.77722 3.51565V0.417977C9.77722 0.189778 9.61241 0.00464419 9.40904 0.00422199Z" fill="white"/>
</svg>
