<svg width="24" height="37" viewBox="0 0 24 37" fill="none" xmlns="http://www.w3.org/2000/svg">
<path d="M11.7132 15.755C11.7977 15.7555 11.8779 15.7517 11.9597 15.749C11.946 16.1361 11.9438 16.202 11.9323 16.542C11.8554 16.5453 11.7785 16.5485 11.6984 16.5485C11.6193 16.5485 11.5435 16.5452 11.4683 16.542L11.4287 15.7446C11.522 15.7495 11.616 15.7544 11.7132 15.755ZM23.3104 11.6555C23.3104 18.0944 11.6544 37 11.6544 37C11.6544 37 0 18.0944 0 11.6555C0 5.21928 5.21816 0 11.6544 0C18.0928 0 23.3104 5.21928 23.3104 11.6555ZM20.6733 11.6555C20.6733 6.68391 16.6287 2.6382 11.6544 2.6382C6.68172 2.6382 2.63437 6.68391 2.63494 11.6555C2.63494 16.6287 6.68228 20.675 11.6544 20.675C16.6282 20.675 20.6733 16.6292 20.6733 11.6555ZM17.0318 9.83444C15.0361 7.83876 12.8703 9.83444 12.8703 9.83444H12.8714V10.1744H12.3617V9.82185C12.1426 9.90914 11.9054 9.96023 11.6555 9.96023C11.3859 9.96023 11.1306 9.90313 10.8977 9.80263V10.1739H10.4386V11.2975H10.8977V11.7648H11.2305L11.3205 13.565C11.4249 13.5699 11.5287 13.5754 11.6369 13.576C11.7736 13.5771 11.9071 13.5732 12.0367 13.5672C12.0614 12.8604 12.0982 11.8115 12.0993 11.7648H12.3612V11.2975H12.8703V11.8076C14.665 12.6352 16.0132 12.3804 16.0132 12.3804C19.0688 12.3804 19.1561 9.83393 19.1561 9.83393C18.3053 10.6835 17.0318 9.83444 17.0318 9.83444ZM10.2057 10.1744H10.4374V9.83444H10.438C10.438 9.83444 8.27264 7.83876 6.27645 9.83444C6.27645 9.83444 5.00294 10.6835 4.15391 9.83444C4.15391 9.83444 4.23901 12.3809 7.29568 12.3809C7.29568 12.3809 8.64333 12.6357 10.4374 11.8081V11.298H10.2057V10.1744ZM10.8971 9.6005V9.80257C10.2189 9.50877 9.74496 8.83494 9.74496 8.05016C9.74496 6.99468 10.5984 6.13795 11.655 6.13795C12.7105 6.13795 13.5655 6.99412 13.5655 8.05016C13.5655 8.85417 13.0663 9.54002 12.3617 9.82123V9.59994L10.8971 9.6005ZM11.0552 8.01121C11.0552 8.37752 11.3512 8.67239 11.717 8.67239C12.0811 8.67239 12.3776 8.37696 12.3776 8.01121C12.3776 7.64602 12.0811 7.35003 11.717 7.35003C11.3513 7.35003 11.0552 7.64602 11.0552 8.01121ZM11.3793 14.7582L11.4243 15.6638C11.5127 15.6682 11.6017 15.6726 11.6945 15.6726C11.7862 15.6731 11.8751 15.6698 11.9631 15.6666C11.9785 15.2207 11.979 15.2058 11.9949 14.7594C11.9027 14.7627 11.8121 14.7676 11.717 14.7676C11.6011 14.7676 11.4902 14.7632 11.3793 14.7582ZM11.5072 17.3157L11.533 17.8297C11.589 17.8325 11.6467 17.8347 11.7055 17.8347C11.7681 17.8347 11.8285 17.8325 11.8878 17.8292C11.8916 17.7128 11.8999 17.4793 11.9059 17.313C11.8268 17.3168 11.7461 17.3201 11.6632 17.3201C11.6094 17.3201 11.5589 17.3173 11.5072 17.3157ZM12.3776 13.6517C13.0751 13.7286 13.5737 13.9175 13.5737 14.1453C13.5737 14.4095 12.8916 14.6286 11.9976 14.6703C11.996 14.7143 11.996 14.7159 11.9943 14.7599C12.0887 14.7566 12.181 14.7522 12.2711 14.745V14.75C12.9191 14.8214 13.3848 14.9976 13.3832 15.2047C13.382 15.4447 12.7654 15.6353 11.9625 15.6666C11.9609 15.7072 11.9609 15.7088 11.9597 15.749C12.0493 15.7462 12.1366 15.7424 12.2217 15.7363C12.7823 15.7956 13.1844 15.9472 13.1844 16.1268C13.1844 16.3212 12.7274 16.481 12.1058 16.531C12.0992 16.5304 12.0931 16.5294 12.086 16.5288L12.0844 16.5326C12.0344 16.5364 11.9839 16.5398 11.9317 16.542C11.9306 16.5727 11.9301 16.5837 11.9289 16.6139C12.0064 16.6111 12.0816 16.6073 12.1552 16.6024C12.5731 16.6567 12.8653 16.7754 12.8653 16.9132C12.8653 17.0796 12.455 17.2175 11.9064 17.251C11.9058 17.2718 11.9048 17.2927 11.9042 17.3125C11.9531 17.3103 11.9998 17.3064 12.0464 17.3026C12.4116 17.3399 12.6752 17.4404 12.6752 17.5595C12.6752 17.6924 12.3353 17.8044 11.8861 17.8292C11.8855 17.8396 11.8849 17.8654 11.8844 17.8753C12.4292 17.8517 12.8477 17.7193 12.8477 17.5595C12.8477 17.4371 12.6209 17.3327 12.2754 17.2784C12.7526 17.213 13.0849 17.0746 13.0849 16.9138C13.0854 16.7693 12.8295 16.6458 12.4346 16.5749C13.0321 16.4975 13.45 16.3278 13.45 16.1269C13.4506 15.9423 13.1052 15.7831 12.5802 15.7002C13.232 15.6123 13.684 15.4267 13.6851 15.2065C13.6857 14.9929 13.2557 14.8067 12.6302 14.7095C13.3831 14.6112 13.9081 14.3965 13.9081 14.1455C13.9087 13.9104 13.4748 13.71 12.813 13.6046C13.6236 13.4903 14.1849 13.2558 14.1871 12.9785C14.1882 12.6518 13.4199 12.3744 12.3737 12.2816V12.392C13.203 12.4826 13.7999 12.71 13.7988 12.9753C13.7966 13.2762 13.0366 13.52 12.0349 13.5672C12.0333 13.6084 12.0327 13.6293 12.0311 13.6716C12.1514 13.6676 12.2651 13.661 12.3776 13.6517ZM11.4721 16.6139L11.5039 17.2554C11.5523 17.257 11.6001 17.2597 11.65 17.2597C11.7384 17.2597 11.8247 17.257 11.9076 17.2515C11.9153 17.0395 11.9202 16.883 11.9296 16.6145C11.8587 16.6172 11.7884 16.6205 11.7154 16.6205C11.6324 16.6205 11.5523 16.6167 11.4721 16.6139ZM11.6961 14.6792C11.7994 14.6792 11.8993 14.6753 11.9976 14.6704C12.0147 14.1827 12.0185 14.0773 12.0322 13.672C11.9098 13.6764 11.7879 13.6813 11.6605 13.6803C11.5451 13.6797 11.4359 13.6737 11.3249 13.6687L11.3749 14.6693C11.4792 14.6748 11.5857 14.6792 11.6961 14.6792ZM11.5353 17.8753L11.5786 18.7441H11.856C11.856 18.7441 11.8796 18.0626 11.8862 17.8753C11.8307 17.8775 11.7747 17.8803 11.717 17.8803C11.6539 17.8808 11.5946 17.8781 11.5353 17.8753ZM10.7334 17.5601C10.7334 17.4448 10.9783 17.3503 11.3227 17.3075C11.3825 17.3119 11.444 17.3141 11.5066 17.3158L11.5033 17.2554C10.9009 17.2345 10.433 17.0917 10.433 16.9138C10.433 16.7704 10.7515 16.6474 11.1964 16.5958C11.2854 16.6035 11.3765 16.6101 11.4715 16.6134L11.4682 16.5426C10.7576 16.5113 10.2123 16.3394 10.2123 16.1269C10.2123 15.9484 10.611 15.7968 11.1711 15.7369V15.727C11.2552 15.7347 11.3403 15.7408 11.4281 15.7446L11.4243 15.6634C10.623 15.6227 10.0102 15.4223 10.0118 15.1845C10.0118 14.9802 10.466 14.8088 11.1014 14.7451V14.7402C11.1926 14.7479 11.2842 14.7545 11.3793 14.7583L11.3749 14.6699C10.4913 14.6259 9.81584 14.4079 9.81584 14.1455C9.81584 13.9175 10.315 13.7275 11.0141 13.6501C11.1157 13.6584 11.2189 13.6644 11.3249 13.6687L11.32 13.5655C10.2776 13.515 9.47752 13.2563 9.47915 12.9482C9.48028 12.6885 10.0624 12.4704 10.8768 12.3859V12.2815C9.87345 12.3705 9.14252 12.6302 9.14089 12.9471C9.13926 13.2365 9.74715 13.4902 10.6198 13.6083C9.96681 13.7153 9.52198 13.9142 9.52198 14.1448C9.52198 14.3914 10.0333 14.6028 10.7686 14.7038C10.1634 14.795 9.74878 14.9718 9.74878 15.1832C9.74659 15.4084 10.2178 15.6045 10.8938 15.6973C10.3512 15.7802 9.97946 15.9405 9.97946 16.1267C9.97946 16.3227 10.3793 16.4886 10.9537 16.5682C10.5308 16.6368 10.2414 16.7653 10.2414 16.9136C10.2414 17.0822 10.6022 17.2266 11.1151 17.2881C10.7966 17.3447 10.5824 17.443 10.5824 17.5594C10.5824 17.7181 10.9954 17.8499 11.5346 17.8746L11.5324 17.829C11.0794 17.8061 10.7334 17.6941 10.7334 17.5601Z" fill="#FF5312"/>
</svg>
