<svg width="21" height="20" viewBox="0 0 21 20" fill="none" xmlns="http://www.w3.org/2000/svg">
<path d="M18.4384 0H2.44672C1.34729 0 0.447754 0.9 0.447754 2V18C0.447754 19.1 1.34729 20 2.44672 20H18.4384C19.5378 20 20.4374 19.1 20.4374 18V2C20.4374 0.9 19.5378 0 18.4384 0ZM10.4426 6C12.6414 6 14.4405 7.8 14.4405 10C14.4405 12.2 12.6414 14 10.4426 14C8.24371 14 6.44464 12.2 6.44464 10C6.44464 7.8 8.24371 6 10.4426 6ZM2.94646 18C2.64661 18 2.44672 17.8 2.44672 17.5V9H4.54563C4.44568 9.3 4.44568 9.7 4.44568 10C4.44568 13.3 7.14428 16 10.4426 16C13.7409 16 16.4395 13.3 16.4395 10C16.4395 9.7 16.4395 9.3 16.3395 9H18.4384V17.5C18.4384 17.8 18.2385 18 17.9387 18H2.94646ZM18.4384 4.5C18.4384 4.8 18.2385 5 17.9387 5H15.9397C15.6399 5 15.44 4.8 15.44 4.5V2.5C15.44 2.2 15.6399 2 15.9397 2H17.9387C18.2385 2 18.4384 2.2 18.4384 2.5V4.5Z" fill="white"/>
</svg>
