<svg width="25" height="36" viewBox="0 0 25 36" fill="none" xmlns="http://www.w3.org/2000/svg">
<path d="M21.4535 5.53723L21.4521 5.53975C21.1275 5.11251 20.7722 4.69838 20.3809 4.29904C18.0915 1.96375 15.3347 0.796387 12.113 0.796387C8.97496 0.796387 6.2402 1.96403 3.90898 4.29904C1.57553 6.63432 0.410889 9.44592 0.410889 12.7319C0.410889 15.9328 1.57553 18.7221 3.90898 21.0998C5.91529 23.1478 8.22085 24.3104 10.8245 24.5957L10.8301 24.6038C10.4221 27.6126 8.273 32.8359 4.67982 35.3315L4.97181 35.7897C12.7332 35.3337 21.3422 28.5451 23.4676 19.8945C25.8075 10.3687 21.4535 5.53723 21.4535 5.53723Z" fill="white"/>
</svg>
