<svg width="113" height="84" viewBox="0 0 113 84" fill="none" xmlns="http://www.w3.org/2000/svg">
<path d="M0.681274 0.288818H16.4077V5.41088H6.69436V9.38734H10.9231C12.6411 9.38734 14.1331 9.69633 15.3998 10.314C16.666 10.932 17.6407 11.7856 18.3237 12.8749C19.0061 13.9648 19.348 15.2169 19.348 16.6322C19.348 18.0475 19.0064 19.2999 18.3237 20.3894C17.6407 21.4796 16.666 22.3329 15.3998 22.9506C14.1328 23.5686 12.6411 23.8773 10.9231 23.8773H0.681274V0.288818ZM10.4278 18.755C11.3529 18.755 12.0685 18.5642 12.5752 18.1822C13.0817 17.8004 13.3352 17.2839 13.3352 16.6322C13.3352 15.9807 13.0817 15.4643 12.5752 15.0819C12.0685 14.7001 11.3529 14.5091 10.4278 14.5091H6.69463V18.755H10.4278Z" fill="#010202"/>
<path d="M22.5856 0.288086H28.5987V23.8763H22.5856V0.288086Z" fill="#010202"/>
<path d="M31.1753 23.5395V18.788L31.6377 18.5183C32.1882 18.9227 32.761 19.1249 33.3556 19.1249C33.796 19.1249 34.1703 18.962 34.479 18.6363C34.7872 18.3109 35.0571 17.6876 35.2886 16.7662C35.5198 15.8453 35.6793 14.5084 35.7674 12.756L36.4613 0.287842H54.7318V23.8761H48.7187V5.40991H41.8137L41.252 14.5081C41.0537 17.8557 40.4592 20.3098 39.468 21.8712C38.4768 23.4329 36.8465 24.2132 34.5783 24.2132C33.2569 24.2132 32.1221 23.9884 31.1753 23.5395Z" fill="#010202"/>
<path d="M64.6432 0.288086V7.36449H68.5418C70.3919 7.36449 72.0273 7.6905 73.4479 8.34166C74.8686 8.99339 75.9755 9.9371 76.7684 11.1722C77.5615 12.4079 77.9578 13.8907 77.9578 15.6205C77.9578 17.3507 77.5613 18.8334 76.7684 20.0686C75.9758 21.3042 74.8686 22.248 73.4479 22.8991C72.0273 23.5511 70.3919 23.8763 68.5418 23.8763H58.6301V0.288086H64.6432ZM64.6432 18.7542H68.0462C69.3232 18.7542 70.2926 18.5072 70.9536 18.0127C71.6143 17.5188 71.9447 16.7212 71.9447 15.6203C71.9447 14.5198 71.6143 13.722 70.9536 13.2278C70.2929 12.7339 69.3232 12.4863 68.0462 12.4863H64.6432V18.7542Z" fill="#010202"/>
<path d="M0.681274 30.0212H20.6036V53.6095H14.5905V35.1433H6.69436V53.6095H0.681274V30.0212Z" fill="#010202"/>
<path d="M24.5016 30.0212H34.4132C36.2634 30.0212 37.8988 30.347 39.3194 30.9984C40.7401 31.6501 41.847 32.5938 42.6398 33.829C43.433 35.0647 43.8293 36.5474 43.8293 38.277C43.8293 40.0071 43.433 41.4899 42.6398 42.7253C41.847 43.961 40.7401 44.9044 39.3194 45.5559C37.8988 46.2079 36.2634 46.533 34.4132 46.533H30.5147V53.6095H24.5016V30.0212ZM33.9176 41.411C35.1949 41.411 36.1644 41.1639 36.825 40.6695C37.4857 40.1756 37.8162 39.378 37.8162 38.277C37.8162 37.1766 37.4857 36.379 36.825 35.8846C36.1644 35.3907 35.1947 35.143 33.9176 35.143H30.5147V41.4107H33.9176V41.411Z" fill="#010202"/>
<path d="M51.6596 52.4131C49.831 51.3913 48.3997 49.9649 47.3645 48.1335C46.329 46.303 45.8116 44.197 45.8116 41.8151C45.8116 39.4344 46.329 37.3283 47.3645 35.4967C48.3994 33.6662 49.831 32.2397 51.6596 31.2171C53.4875 30.195 55.5468 29.6838 57.8378 29.6838C60.1283 29.6838 62.1876 30.195 64.016 31.2171C65.8441 32.2394 67.2756 33.6659 68.3111 35.4967C69.3461 37.328 69.864 39.4341 69.864 41.8151C69.864 44.1967 69.3461 46.3027 68.3111 48.1335C67.2759 49.9649 65.8441 51.3913 64.016 52.4131C62.1876 53.4358 60.1286 53.9464 57.8378 53.9464C55.5468 53.9464 53.4875 53.4358 51.6596 52.4131ZM62.1988 46.6845C63.2998 45.4377 63.8506 43.8149 63.8506 41.8151C63.8506 39.8159 63.2998 38.1925 62.1988 36.946C61.0972 35.6991 59.6433 35.0759 57.8375 35.0759C56.0315 35.0759 54.5776 35.6994 53.4766 36.946C52.375 38.1928 51.8247 39.8161 51.8247 41.8151C51.8247 43.8149 52.375 45.4377 53.4766 46.6845C54.5776 47.9314 56.0315 48.5546 57.8375 48.5546C59.6436 48.5549 61.0972 47.9314 62.1988 46.6845Z" fill="#010202"/>
<path d="M0.681274 59.7544H20.6036V83.3426H14.5905V64.8765H6.69436V83.3426H0.681274V59.7544Z" fill="#010202"/>
<path d="M24.5016 59.7544H34.4132C36.2634 59.7544 37.8988 60.0801 39.3194 60.7316C40.7401 61.3836 41.847 62.327 42.6398 63.5621C43.433 64.7978 43.8293 66.2806 43.8293 68.0102C43.8293 69.7403 43.433 71.2231 42.6398 72.4585C41.847 73.6942 40.7401 74.6376 39.3194 75.289C37.8988 75.9408 36.2634 76.2662 34.4132 76.2662H30.5147V83.3426H24.5016V59.7544ZM33.9176 71.1441C35.1949 71.1441 36.1644 70.8971 36.825 70.4026C37.4857 69.9087 37.8162 69.1109 37.8162 68.0102C37.8162 66.9097 37.4857 66.1122 36.825 65.6177C36.1644 65.1238 35.1947 64.8762 33.9176 64.8762H30.5147V71.1439H33.9176V71.1441Z" fill="#010202"/>
<path d="M51.4279 59.7544H56.7139L65.7666 83.3426H59.4894L58.2007 79.6696H49.9411L48.6527 83.3426H42.3755L51.4279 59.7544ZM56.4169 74.5475L54.5007 69.0548L54.2034 66.4602H53.939L53.6417 69.0548L51.7255 74.5475H56.4169Z" fill="#010202"/>
<path d="M68.013 59.7544H78.7833C80.2586 59.7544 81.5694 60.0185 82.7151 60.5464C83.8599 61.0746 84.7468 61.7932 85.3746 62.7029C86.0021 63.6126 86.3161 64.6294 86.3161 65.7527C86.3161 66.9438 86.1231 67.8983 85.7379 68.617C85.3522 69.3362 84.7303 69.9765 83.8714 70.5379V70.9085C86.3376 71.9423 87.5714 73.7394 87.5714 76.3002C87.5714 77.6706 87.2244 78.8896 86.5308 79.9563C85.837 81.0235 84.8402 81.8549 83.5409 82.45C82.241 83.0456 80.6993 83.3429 78.9155 83.3429H68.0127V59.7544H68.013ZM78.486 68.8526C79.2128 68.8526 79.7748 68.673 80.1711 68.3133C80.5676 67.9541 80.7657 67.4708 80.7657 66.8643C80.7657 66.2577 80.5676 65.775 80.1711 65.4152C79.7745 65.0561 79.2128 64.8762 78.486 64.8762H74.0258V68.8526H78.486ZM79.1799 78.2206C79.8623 78.2206 80.4352 78.0468 80.8979 77.6982C81.3603 77.3502 81.5914 76.8167 81.5914 76.0975C81.5914 75.3788 81.3603 74.8456 80.8979 74.497C80.4352 74.149 79.8621 73.9747 79.1799 73.9747H74.0258V78.2206H79.1799Z" fill="#010202"/>
<path d="M97.7473 59.7544H103.033L112.086 83.3426H105.809L104.52 79.6696H96.2606L94.9724 83.3426H88.6952L97.7473 59.7544ZM102.736 74.5475L100.82 69.0548L100.523 66.4602H100.258L99.9608 69.0548L98.0446 74.5475H102.736Z" fill="#010202"/>
</svg>
