<svg width="18" height="18" viewBox="0 0 18 18" fill="none" xmlns="http://www.w3.org/2000/svg">
<path d="M3.64426 8.36823C5.03647 11.0315 7.20913 13.2053 9.87099 14.5982L11.9399 12.5282C12.0512 12.3909 12.2063 12.2961 12.3792 12.2597C12.5521 12.2232 12.7322 12.2474 12.8894 12.3282C13.9788 12.7195 15.1303 12.9093 16.2876 12.8882C16.4183 12.8818 16.5489 12.9037 16.6704 12.9524C16.7919 13.0011 16.9014 13.0754 16.9916 13.1704C17.0817 13.2653 17.1503 13.3786 17.1927 13.5025C17.2351 13.6264 17.2502 13.7579 17.2371 13.8882V17.0482C17.2428 17.1745 17.2221 17.3006 17.1764 17.4184C17.1307 17.5362 17.061 17.6432 16.9717 17.7326C16.8823 17.822 16.7754 17.8918 16.6576 17.9375C16.5398 17.9832 16.4138 18.0039 16.2876 17.9982C12.0339 17.9956 7.95524 16.3038 4.94743 13.2944C1.93963 10.285 0.248685 6.20414 0.246037 1.94823C0.240357 1.82196 0.261028 1.6959 0.306735 1.57806C0.352442 1.46023 0.422182 1.35322 0.51151 1.26384C0.600839 1.17447 0.707796 1.10469 0.825567 1.05896C0.943337 1.01323 1.06934 0.992548 1.19554 0.998232H4.49381C4.62415 0.991601 4.75438 1.01343 4.87544 1.0622C4.99651 1.11096 5.10552 1.18551 5.19491 1.28065C5.2843 1.3758 5.35192 1.48926 5.39309 1.61317C5.43426 1.73709 5.44799 1.86848 5.43332 1.99823C5.44874 3.13686 5.63748 4.26649 5.99302 5.34823C6.02973 5.51105 6.03179 5.67977 5.99908 5.84344C5.96636 6.00711 5.8996 6.16206 5.80312 6.29823L3.64426 8.36823Z" fill="white"/>
</svg>
