<svg width="30" height="24" viewBox="0 0 30 24" fill="none" xmlns="http://www.w3.org/2000/svg">
<path d="M30 2.76923C28.8281 3.23077 27.6562 3.69231 26.4844 3.69231C27.6562 3 28.8281 1.84615 29.2969 0.230769C28.125 0.923077 26.7188 1.38462 25.3125 1.61538C24.1406 0.692308 22.5 0 20.8594 0C17.3438 0 14.5312 2.76923 14.5312 6C14.5312 6.46154 14.5312 6.92308 14.7656 7.38462C9.60938 7.15385 5.15625 4.84615 2.10938 1.15385C1.64062 2.07692 1.17188 3 1.17188 4.15385C1.17188 6.23077 2.34375 8.07692 3.98438 9.23077C3.04688 9.23077 2.10938 9 1.17188 8.53846C1.17188 11.5385 3.28125 13.8462 6.09375 14.5385C5.625 14.5385 5.15625 14.7692 4.45312 14.7692C3.98438 14.7692 3.75 14.7692 3.28125 14.7692C3.98438 17.0769 6.32812 18.9231 9.14062 18.9231C7.03125 20.3077 4.45312 21.4615 1.40625 21.4615C0.9375 21.4615 0.46875 21.4615 0 21.4615C2.8125 23.0769 5.85938 24.2308 9.375 24.2308C20.625 24.2308 26.9531 15 26.9531 6.92308V6.23077C28.125 5.07692 29.0625 4.15385 30 2.76923Z" fill="black"/>
</svg>
