<svg width="27" height="19" viewBox="0 0 27 19" fill="none" xmlns="http://www.w3.org/2000/svg">
<path fill-rule="evenodd" clip-rule="evenodd" d="M26.3769 3.00545C26.0654 1.58909 24.8885 0.518182 23.4692 0.38C20.1462 0 16.7538 0 13.4308 0C10.0731 0 6.71539 0 3.39231 0.38C1.97308 0.518182 0.796154 1.58909 0.484615 3.00545C0 5.04364 0 7.25455 0 9.32727C0 11.4 0 13.6455 0.484615 15.6491C0.796154 17.0655 1.97308 18.1364 3.39231 18.2745C6.71539 18.6545 10.0731 18.6545 13.4308 18.6545C16.7885 18.6545 20.1462 18.6545 23.4692 18.2745C24.8885 18.1018 26.0308 17.0655 26.3769 15.6491C26.8615 13.6109 26.8615 11.4 26.8615 9.32727C26.8269 7.25455 26.8269 5.04364 26.3769 3.00545ZM9.93462 13.4727V4.62909C12.7731 6.11455 15.6115 7.56545 18.45 9.08545C15.6115 10.5364 12.8077 12.0218 9.93462 13.4727Z" fill="black"/>
</svg>
