<svg xmlns="http://www.w3.org/2000/svg" viewBox="0 0 512.001 512.001"><path d="M491.096 0H20.905c-5.632 0-10.199 4.566-10.199 10.199v59.403c0 2.802 1.131 5.338 2.96 7.182v.002l.024.026.005.005 195.524 197.016v169.438c0 3.099 1.409 6.029 3.828 7.965l73.163 58.53a10.193 10.193 0 0 0 10.789 1.228 10.2 10.2 0 0 0 5.781-9.193V273.833L498.306 76.816l.005-.005.024-.026v-.002a10.165 10.165 0 0 0 2.96-7.182V10.199C501.295 4.566 496.728 0 491.096 0zM282.383 480.58l-52.765-42.211V279.83h52.765v200.75zm5.952-221.148h-64.669L45.396 79.802h421.209l-178.27 179.63zM480.897 59.403H31.104V20.398h449.793v39.005z"/><path d="M200.291 191.208l-4.391-4.391c-3.98-3.982-10.439-3.984-14.424 0-3.984 3.983-3.984 10.44-.001 14.424l4.392 4.391c1.991 1.992 4.602 2.987 7.212 2.987s5.22-.995 7.211-2.987c3.984-3.984 3.984-10.441.001-14.424zm-26.823-26.825L103.23 94.145c-3.984-3.982-10.44-3.982-14.425 0-3.982 3.984-3.982 10.442.001 14.425l70.238 70.238c1.992 1.991 4.602 2.987 7.212 2.987s5.22-.996 7.212-2.987c3.982-3.983 3.982-10.442 0-14.425z"/></svg>