<svg width="109" height="38" fill="none" xmlns="http://www.w3.org/2000/svg"><g clip-path="url(#clip0)" fill="#FECD3B"><path d="M109 8.1a2.56 2.56 0 0 0-2.39-2.71c-.3 0-.6-.1-.9-.1a20.202 20.202 0 0 1-2.39-.4A26.146 26.146 0 0 1 94.25.7a2.87 2.87 0 0 0-1.8-.7 2.87 2.87 0 0 0-1.79.7c-4.29 2.92-8.08 4.4-12.06 4.73A2.53 2.53 0 0 0 76 8.24v12c-.01 1.149.125 2.295.4 3.41a15 15 0 0 0 4.29 7.45 27.79 27.79 0 0 0 10.77 6.7c.32.123.658.19 1 .2a5 5 0 0 0 1.2-.2c.2-.1.5-.2.7-.3 1.1-.51 2.19-.91 3.29-1.51a25.178 25.178 0 0 0 8.36-6.89 14.353 14.353 0 0 0 2.94-7.69v-8.54c.1-1.51.1-3.12.1-4.73L109 8.1zm-1.89 6.64v6.53a11.67 11.67 0 0 1-2.49 6.54 22.62 22.62 0 0 1-7.67 6.47c-1 .5-2.09 1-3.09 1.41-.24.082-.475.182-.7.3a.6.6 0 0 1-.4.1h-.3a26.88 26.88 0 0 1-10.08-6.33 14.19 14.19 0 0 1-3.78-6.54c-.23-.985-.365-1.99-.4-3v-12a1 1 0 0 1 .2-.7.94.94 0 0 1 .69-.2c4.29-.3 8.48-1.91 13-5 .222-.147.452-.28.69-.4.27.053.517.194.7.4a26.3 26.3 0 0 0 9.67 4.53c.854.189 1.719.322 2.59.4.3 0 .6.1.8.1.6.1.7.3.7.8v4.73l-.13 1.86z"/><path d="M93.35 15.98a1.69 1.69 0 0 0-1.29-.4c-.37-.021-.74.012-1.1.1v3c.3 0 .6.1 1 .1a1.83 1.83 0 0 0 1.29-.4 1.681 1.681 0 0 0 .5-1.21 1.31 1.31 0 0 0-.4-1.21v.02zm2.49 4.41a5.67 5.67 0 0 1-3.59 1.1c-.4.016-.799-.018-1.19-.1v2.31a1.6 1.6 0 0 1-.4 1.21 1.66 1.66 0 0 1-1.2.5 1.629 1.629 0 0 1-1.19-.5 1.6 1.6 0 0 1-.4-1.21v-8.82a1.67 1.67 0 0 1 1.39-1.78 12.313 12.313 0 0 1 2.9-.3 6.18 6.18 0 0 1 3.68 1.1 3.92 3.92 0 0 1 1.4 3.2 4 4 0 0 1-1.4 3.32"/></g><g clip-path="url(#clip1)" fill="#FDCD39"><path d="M72.9 14.82A6.77 6.77 0 0 0 70.3 13a8.66 8.66 0 0 0-3.2-.6h-6.3V8.82a.9.9 0 0 0-.9-.9H32.1a.9.9 0 0 0-.9.9v24.6a.9.9 0 0 0 .9.9h4.6v.2A4.26 4.26 0 0 0 40.8 38a4.18 4.18 0 0 0 4.1-3.5v-.2h17.6v.2a4.26 4.26 0 0 0 4.1 3.5 4.18 4.18 0 0 0 4.1-3.5v-.2h3.5a.9.9 0 0 0 .9-.9V21.72a9.42 9.42 0 0 0-2.2-6.9zM40.9 36a2.4 2.4 0 1 1 2.4-2.4 2.37 2.37 0 0 1-2.4 2.4zM59 32.42H44.9l-.1-.1a4.18 4.18 0 0 0-3.9-2.8 4.08 4.08 0 0 0-3.9 2.8l-.1.1H33V9.62h26v22.8zM66.7 36a2.4 2.4 0 1 1 2.4-2.4 2.37 2.37 0 0 1-2.4 2.4zm6.7-3.6h-2.8l-.1-.1a4.18 4.18 0 0 0-3.9-2.8 4.08 4.08 0 0 0-3.9 2.8l-.1.1h-1.9V14.22H67c3.9 0 6.3 2.9 6.3 7.6v10.6l.1-.02zM27.8 12H1.1a.9.9 0 0 1-.9-.9.9.9 0 0 1 .9-.9h26.7V12zm.1 5H4a.9.9 0 1 1 0-1.8h23.9V17zm0 4.92H6.5a.9.9 0 1 1 0-1.8h21.4v1.8zm0 4.9H9.1a.9.9 0 0 1-.9-.9.9.9 0 0 1 .9-.9h18.8v1.8zm0 4.9H11.4a.9.9 0 0 1-.9-.9.9.9 0 0 1 .9-.9h16.5v1.8z"/></g><defs><clipPath id="clip0"><path fill="#fff" transform="translate(76)" d="M0 0h33v38H0z"/></clipPath><clipPath id="clip1"><path fill="#fff" transform="translate(0 8)" d="M0 0h75v30H0z"/></clipPath></defs></svg>