<svg id="Слой_1" data-name="Слой 1" xmlns="http://www.w3.org/2000/svg" viewBox="0 0 497 497"><defs><style>.cls-1{fill:#0f61a7}</style></defs><path class="cls-1" d="M256 7.5C119 7.5 7.5 119 7.5 256S119 504.5 256 504.5 504.5 393 504.5 256 393 7.5 256 7.5zm0 460.21c-116.74 0-211.71-95-211.71-211.71S139.26 44.3 256 44.3s211.71 95 211.71 211.7S372.74 467.71 256 467.71z" transform="translate(-7.5 -7.5)"/><path class="cls-1" d="M402.4 269.26a12.22 12.22 0 0 1-12.2 12.2H253.27a12.22 12.22 0 0 1-12.2-12.2V108.91a12.21 12.21 0 0 1 24.41 0v148.14H390.2a12.22 12.22 0 0 1 12.2 12.21z" transform="translate(-7.5 -7.5)"/></svg>