<svg version="1.1" id="Слой_1" xmlns="http://www.w3.org/2000/svg" x="0" y="0" viewBox="0 0 44 22" xml:space="preserve"><style>.st0{fill:#6ac43e}</style><path class="st0" d="M40 1c1.7 0 3 1.3 3 3v14c0 1.7-1.3 3-3 3H4c-1.7 0-3-1.3-3-3V4c0-1.7 1.3-3 3-3h36m0-1H4C1.8 0 0 1.8 0 4v14c0 2.2 1.8 4 4 4h36c2.2 0 4-1.8 4-4V4c0-2.2-1.8-4-4-4z"/><path class="st0" d="M9.3 14.9h-1L5 11.3v3.6h-.9V7.8H5v3.5l3.2-3.5h1L6 11.3l3.3 3.6zm5.5-5c0 .7-.2 1.3-.7 1.7s-1.2.6-2.1.6h-.8V15h-.8V7.8h1.9c1.6 0 2.5.7 2.5 2.1zm-3.7 1.5h.7c.7 0 1.3-.1 1.6-.4s.5-.6.5-1.1c0-.5-.2-.8-.5-1.1s-.7-.3-1.4-.3h-.9v2.9zm9.2 3.5h-4V7.8h4v.7h-3.1v2.3h3v.7h-3v2.6h3.1v.8zm7.2 1.9h-.8v-1.9h-5v1.9h-.8v-2.6h.6c.5-.8.9-1.9 1.3-3.1.4-1.2.6-2.3.6-3.3h3.2v6.4h.9v2.6zm-1.8-2.6V8.5h-1.6c-.1.8-.3 1.7-.6 2.8s-.7 2-1.2 2.8h3.4zm3-6.4h.8v4c0 .7 0 1.4-.1 2l4-6h.9v7.1h-.8V11c0-.7 0-1.3.1-2.1l-4 6h-.9V7.8zm9.8 7.1h-.8V8.5h-2.3v-.7h5.4v.7h-2.3v6.4z"/></svg>