<svg id="Capa_1" data-name="Capa 1" xmlns="http://www.w3.org/2000/svg" width="15" height="12"><defs><style>.cls-1{fill:#2c77bb}</style></defs><path class="cls-1" d="M14.18.8a2.88 2.88 0 0 0-2-.8 2.87 2.87 0 0 0-2 .8L6.57 4.33A2.71 2.71 0 0 0 5.85 7a.53.53 0 0 0 .66.36.52.52 0 0 0 .37-.64 1.67 1.67 0 0 1 .45-1.66L11 1.54a1.78 1.78 0 0 1 2.46 0 1.66 1.66 0 0 1 0 2.39L9.79 7.46a1.64 1.64 0 0 1-.87.46.53.53 0 0 0-.42.62A.54.54 0 0 0 9 9h.11a2.69 2.69 0 0 0 1.4-.74l3.64-3.53A2.7 2.7 0 0 0 14.18.8z"/><path class="cls-1" d="M9.13 5a.54.54 0 0 0-.66-.37.53.53 0 0 0-.37.65 1.66 1.66 0 0 1-.44 1.65L4 10.48a1.78 1.78 0 0 1-2.46 0 1.67 1.67 0 0 1 0-2.4L5.2 4.55a1.79 1.79 0 0 1 .87-.46.52.52 0 0 0 .42-.61.54.54 0 0 0-.63-.41 2.83 2.83 0 0 0-1.41.74L.81 7.35a2.67 2.67 0 0 0 0 3.86 2.86 2.86 0 0 0 3.94 0l3.67-3.53A2.68 2.68 0 0 0 9.13 5z"/></svg>