<svg xmlns="http://www.w3.org/2000/svg" width="183" height="37" viewBox="0 0 183 37">
  <defs>
    <style>
      .cls-1 {
        fill: #fff;
        fill-rule: evenodd;
      }
    </style>
  </defs>
  <path id="Zagrava_Logo" data-name="Zagrava Logo" class="cls-1" d="M17.991,20.82H7.47L19.633,4.614a2.839,2.839,0,0,0,.5-1.736A2.345,2.345,0,0,0,17.54.272H2.594A2.345,2.345,0,0,0,0,2.878,2.346,2.346,0,0,0,2.594,5.485H12.708L0.5,21.69A2.837,2.837,0,0,0,0,23.426a2.345,2.345,0,0,0,2.594,2.606h15.4a2.345,2.345,0,0,0,2.595-2.606,2.346,2.346,0,0,0-2.594-2.607h0ZM31.985,6.164a7.6,7.6,0,0,1,7.684,0,7.37,7.37,0,0,1,2.7,2.88,8.691,8.691,0,0,1,.983,4.131,8.556,8.556,0,0,1-.982,4.106,7.4,7.4,0,0,1-2.7,2.859,7.6,7.6,0,0,1-7.684,0,7.559,7.559,0,0,1-2.721-2.863,8.4,8.4,0,0,1-1-4.1,8.531,8.531,0,0,1,1-4.127,7.533,7.533,0,0,1,2.72-2.884h0ZM47.005,6.52a12.7,12.7,0,0,0-4.641-4.709h0A12.742,12.742,0,0,0,35.827.09a12.985,12.985,0,0,0-6.58,1.719,12.424,12.424,0,0,0-4.668,4.713,13.362,13.362,0,0,0-1.687,6.652,14.118,14.118,0,0,0,1.567,6.64,11.953,11.953,0,0,0,4.324,4.7,11.711,11.711,0,0,0,14.383-1.67v0.45a2.775,2.775,0,1,0,5.549,0V13.175A13.223,13.223,0,0,0,47.005,6.52h0ZM99.894,0.781A8.5,8.5,0,0,0,95.925,0a10.61,10.61,0,0,0-4.44.949A10.23,10.23,0,0,0,88.8,2.716,2.428,2.428,0,0,0,86.081.272a2.713,2.713,0,0,0-2,.729,2.739,2.739,0,0,0-.725,2.013V23.29a2.72,2.72,0,0,0,.732,2.043,2.763,2.763,0,0,0,2,.7,2.693,2.693,0,0,0,2.033-.735,2.791,2.791,0,0,0,.7-2.007V10.045a4.305,4.305,0,0,1,1.8-3.658,8.07,8.07,0,0,1,4.955-1.4,17.392,17.392,0,0,1,2.842.308,4.1,4.1,0,0,0,.771.1,2.2,2.2,0,0,0,2.254-1.779,1.983,1.983,0,0,0,.069-0.6,2.552,2.552,0,0,0-1.6-2.233h0Zm12.327,5.382a7.6,7.6,0,0,1,7.684,0,7.371,7.371,0,0,1,2.695,2.88,8.684,8.684,0,0,1,.983,4.131,8.564,8.564,0,0,1-.981,4.106,7.412,7.412,0,0,1-2.7,2.859,7.6,7.6,0,0,1-7.684,0,7.553,7.553,0,0,1-2.721-2.863,8.4,8.4,0,0,1-1-4.1,8.529,8.529,0,0,1,1-4.127,7.529,7.529,0,0,1,2.72-2.884h0Zm15.02,0.356A12.693,12.693,0,0,0,122.6,1.811h0A12.733,12.733,0,0,0,116.063.09a12.979,12.979,0,0,0-6.579,1.719,12.432,12.432,0,0,0-4.669,4.713,13.361,13.361,0,0,0-1.686,6.652,14.129,14.129,0,0,0,1.566,6.64,11.964,11.964,0,0,0,4.325,4.7,11.708,11.708,0,0,0,14.382-1.67v0.45a2.775,2.775,0,1,0,5.55,0V13.175a13.221,13.221,0,0,0-1.711-6.655h0Zm27.73-4.971h0a2.581,2.581,0,0,0-1.085-.91,2.831,2.831,0,0,0-2.588.08,2.43,2.43,0,0,0-.987,1.054l-7.339,16.076-7.432-16.09a2.453,2.453,0,0,0-.95-1.036A2.532,2.532,0,0,0,132.151.64a2.466,2.466,0,0,0-1.525,2.284,2.273,2.273,0,0,0,.226,1.02l9.577,20.284a3.382,3.382,0,0,0,1.059,1.337,2.75,2.75,0,0,0,4.034-1.346l9.569-20.266a2.426,2.426,0,0,0,.275-1.074,2.365,2.365,0,0,0-.4-1.329h0Zm11.3,4.614a7.6,7.6,0,0,1,7.684,0,7.371,7.371,0,0,1,2.695,2.88,8.684,8.684,0,0,1,.983,4.131,8.564,8.564,0,0,1-.981,4.106,7.412,7.412,0,0,1-2.7,2.859,7.6,7.6,0,0,1-7.684,0,7.553,7.553,0,0,1-2.721-2.863,8.39,8.39,0,0,1-1-4.1,8.529,8.529,0,0,1,1-4.127,7.514,7.514,0,0,1,2.72-2.884h0Zm15.02,0.356a12.7,12.7,0,0,0-4.641-4.709h0A12.737,12.737,0,0,0,170.11.09a12.985,12.985,0,0,0-6.579,1.719,12.43,12.43,0,0,0-4.668,4.713,13.361,13.361,0,0,0-1.686,6.652,14.129,14.129,0,0,0,1.566,6.64,11.95,11.95,0,0,0,4.325,4.7,11.71,11.71,0,0,0,14.382-1.67v0.45a2.775,2.775,0,1,0,5.55,0V13.175a13.232,13.232,0,0,0-1.711-6.655h0ZM73.467,14.146L61.6,21.027a1.142,1.142,0,0,1-1.713-.994V6.272A1.142,1.142,0,0,1,61.6,5.278l11.863,6.881a1.15,1.15,0,0,1,0,1.987h0ZM77.079,6.41a12.081,12.081,0,0,0-4.6-4.647h0A13.191,13.191,0,0,0,65.853.09a13.407,13.407,0,0,0-6.689,1.672,11.868,11.868,0,0,0-4.606,4.651,13.793,13.793,0,0,0-1.64,6.762,14.522,14.522,0,0,0,1.52,6.7,11.5,11.5,0,0,0,4.283,4.656,11.777,11.777,0,0,0,6.228,1.679,10.268,10.268,0,0,0,5.437-1.475,10.713,10.713,0,0,0,2.985-2.718v0.634a10.043,10.043,0,0,1-1.029,4.7A7.231,7.231,0,0,1,69.633,30.3a7.338,7.338,0,0,1-3.779,1,9.655,9.655,0,0,1-4.005-.8,7.513,7.513,0,0,1-2.889-2.282,2.687,2.687,0,0,0-2.227-1.139,2.806,2.806,0,0,0-1.539.5A2.434,2.434,0,0,0,54.048,29.6a2.534,2.534,0,0,0,.6,1.564,13.179,13.179,0,0,0,4.869,3.833,14.79,14.79,0,0,0,6.248,1.336,12.98,12.98,0,0,0,6.719-1.767,12.3,12.3,0,0,0,4.623-4.833,14.144,14.144,0,0,0,1.637-6.757v-9.8A13.657,13.657,0,0,0,77.079,6.41h0Z"/>
</svg>
