<svg width="40" height="40" viewBox="0 0 40 40" fill="none" xmlns="http://www.w3.org/2000/svg">
<path d="M39.3333 36H38V14.6667C38 14.2985 37.7015 14 37.3333 14H33.3333V8.66667H34C34.3682 8.66667 34.6667 8.36817 34.6667 8V4.66667C34.6667 4.2985 34.3682 4 34 4H27.3333C26.9652 4 26.6667 4.2985 26.6667 4.66667V8C26.6667 8.36817 26.9652 8.66667 27.3333 8.66667H28V14H24C23.6318 14 23.3333 14.2985 23.3333 14.6667V36H21.3387L22.6613 25.416C22.707 25.0507 22.4478 24.7175 22.0825 24.6718C22.0552 24.6684 22.0276 24.6667 22 24.6667H21.3333V17.6047C21.2871 16.1117 20.151 14.8793 18.6667 14.712V6C18.6667 5.63183 18.3682 5.33333 18 5.33333H14.6667C14.2985 5.33333 14 5.63183 14 6V14.712C13.524 14.7769 13.0685 14.9473 12.6667 15.2107V14.6667C12.6647 13.0833 11.5509 11.7189 10 11.4V0.666667C10 0.2985 9.7015 0 9.33333 0H5.33333C4.96517 0 4.66667 0.2985 4.66667 0.666667V11.4C3.11575 11.7189 2.002 13.0833 2 14.6667V36H0.666667C0.2985 36 0 36.2985 0 36.6667V39.3333C0 39.7015 0.2985 40 0.666667 40H39.3333C39.7015 40 40 39.7015 40 39.3333V36.6667C40 36.2985 39.7015 36 39.3333 36ZM28 5.33333H33.3333V7.33333H28V5.33333ZM32 8.66667V14H29.3333V8.66667H32ZM24.6667 15.3333H36.6667V36H24.6667V15.3333ZM15.3333 6.66667H17.3333V8H15.3333V6.66667ZM15.3333 9.33333H17.3333V14.6667H15.3333V9.33333ZM12.6667 17.6047C12.7278 16.6642 13.5349 15.9483 14.476 16H18.1907C19.1318 15.9483 19.9389 16.6642 20 17.6047V24.6667H18V21.25C17.9978 19.456 16.544 18.0022 14.75 18H12.6667V17.6047V17.6047ZM12.6667 19.3333H14.75C15.8079 19.3348 16.6652 20.1921 16.6667 21.25V24.6667H12.6667V19.3333ZM21.2447 26L19.9947 36H12.672L11.422 26H21.2447ZM6 1.33333H8.66667V2.66667H6V1.33333ZM6 4H8.66667V11.3333H6V4ZM3.33333 16H7.33333V33.3333H3.33333V16ZM3.33333 34.6667H8C8.36817 34.6667 8.66667 34.3682 8.66667 34V15.3333C8.66667 14.9652 8.36817 14.6667 8 14.6667H3.33333C3.33333 13.5621 4.22875 12.6667 5.33333 12.6667H9.33333C10.4379 12.6667 11.3333 13.5621 11.3333 14.6667V24.6667H10.6667C10.2985 24.6668 10.0001 24.9653 10.0002 25.3335C10.0002 25.3611 10.0019 25.3886 10.0053 25.416L11.328 36H3.33333V34.6667ZM38.6667 38.6667H1.33333V37.3333H38.6667V38.6667Z" fill="#8BC958"/>
<path d="M19.3602 31.3436C19.0072 31.2389 18.6362 31.4403 18.5315 31.7933C18.5279 31.8053 18.5247 31.8174 18.5218 31.8296L18.3118 32.6209C17.9665 33.6728 16.8338 34.2456 15.7819 33.9002C15.1368 33.6885 14.6428 33.1646 14.4692 32.5083L13.4452 27.2083C13.3645 26.849 13.0079 26.6232 12.6487 26.7038C12.3049 26.781 12.0805 27.1124 12.1365 27.4603L13.1598 32.7609C13.4874 34.2836 14.8465 35.3617 16.4038 35.3342C17.8832 35.3588 19.1945 34.3859 19.5998 32.9629L19.8098 32.1723C19.9145 31.8193 19.7132 31.4483 19.3602 31.3436Z" fill="#8BC958"/>
<path d="M35.333 17.334H25.9997C25.6315 17.334 25.333 17.6325 25.333 18.0007V29.334C25.333 29.7022 25.6315 30.0007 25.9997 30.0007H35.333C35.7012 30.0007 35.9997 29.7022 35.9997 29.334V18.0007C35.9997 17.6325 35.7012 17.334 35.333 17.334ZM34.6663 28.6673H26.6663V18.6673H34.6663V28.6673Z" fill="#8BC958"/>
</svg>
