<svg width="40" height="40" viewBox="0 0 40 40" fill="none" xmlns="http://www.w3.org/2000/svg">
<path d="M31.333 0H8.66634C7.92992 0 7.33301 0.596917 7.33301 1.33333V38.6667C7.33301 39.4031 7.92992 40 8.66634 40H31.333C32.0694 40 32.6663 39.4031 32.6663 38.6667V1.33333C32.6663 0.596917 32.0694 0 31.333 0ZM31.333 38.6667H8.66634V16.6667H31.333V38.6667ZM31.333 15.3333H8.66634V12.6667H31.333V15.3333ZM31.333 11.3333H8.66634V1.33333H31.333V11.3333Z" fill="#8BC958"/>
<path d="M24 2.66602H16C14.8954 2.66602 14 3.56143 14 4.66602V7.99935C14 9.10393 14.8954 9.99935 16 9.99935H24C25.1046 9.99935 26 9.10393 26 7.99935V4.66602C26 3.56143 25.1046 2.66602 24 2.66602ZM24.6667 7.99935C24.6667 8.36752 24.3682 8.66602 24 8.66602H16C15.6318 8.66602 15.3333 8.36752 15.3333 7.99935V4.66602C15.3333 4.29785 15.6318 3.99935 16 3.99935H24C24.3682 3.99935 24.6667 4.29785 24.6667 4.66602V7.99935Z" fill="#8BC958"/>
</svg>
