<svg width="40" height="40" viewBox="0 0 40 40" fill="none" xmlns="http://www.w3.org/2000/svg">
<g clip-path="url(#clip0)">
<path d="M40 18.3576V8.52346C40 7.4372 39.1194 6.55664 38.0332 6.55664H2.63047C1.54421 6.55664 0.663654 7.4372 0.663654 8.52346V18.3576C0.663654 19.4438 1.54421 20.3244 2.63047 20.3244H7.04925C5.83106 24.8426 3.47268 28.9723 0.200141 32.3174C-0.0602985 32.569 -0.0675101 32.984 0.184078 33.2444C0.435667 33.5048 0.850665 33.512 1.1111 33.2605C1.1166 33.2552 1.12192 33.2498 1.12717 33.2444C4.66006 29.6625 7.17234 25.2022 8.40439 20.3244H32.2134C33.0555 25.2139 35.3836 29.7251 38.8809 33.2444C39.1413 33.496 39.5563 33.4888 39.8079 33.2283C40.0533 32.9743 40.0533 32.5714 39.8079 32.3174C36.5762 29.0302 34.3965 24.8551 33.5469 20.3244H38.0332C39.1194 20.3244 40 19.4438 40 18.3576ZM36.0664 19.0132H4.59729V17.7019H36.0664V19.0132ZM36.722 16.3907H3.94168C3.57962 16.3907 3.28608 16.6843 3.28608 17.0463V19.0132H2.63047C2.26841 19.0132 1.97486 18.7196 1.97486 18.3576V8.52346C1.97486 8.1614 2.26841 7.86785 2.63047 7.86785H38.0332C38.3952 7.86785 38.6888 8.1614 38.6888 8.52346V18.3576C38.6888 18.7196 38.3952 19.0132 38.0332 19.0132H37.3776V17.0463C37.3776 16.6843 37.084 16.3907 36.722 16.3907Z" fill="#8BC958"/>
<path d="M28.8548 11.8008H3.94174C3.57968 11.8008 3.28613 12.0943 3.28613 12.4564C3.28613 12.8184 3.57968 13.112 3.94174 13.112H28.8548C29.2168 13.112 29.5104 12.8184 29.5104 12.4564C29.5104 12.0943 29.2168 11.8008 28.8548 11.8008Z" fill="#8BC958"/>
<path d="M36.722 9.17773H3.94174C3.57968 9.17773 3.28613 9.47128 3.28613 9.83334C3.28613 10.1954 3.57968 10.489 3.94174 10.489H36.722C37.0841 10.489 37.3776 10.1954 37.3776 9.83334C37.3776 9.47128 37.0841 9.17773 36.722 9.17773Z" fill="#8BC958"/>
<path d="M31.9434 11.9917C31.7534 11.8084 31.4732 11.7544 31.2288 11.854C31.1485 11.8857 31.0751 11.9324 31.0124 11.9917C30.8926 12.1173 30.8247 12.2836 30.8223 12.4572C30.8206 12.6316 30.8891 12.7993 31.0124 12.9227C31.0762 12.9805 31.1494 13.0271 31.2288 13.0603C31.3875 13.1303 31.5683 13.1303 31.727 13.0603C31.8064 13.0271 31.8796 12.9805 31.9434 12.9227C32.0667 12.7993 32.1352 12.6316 32.1335 12.4572C32.1311 12.2836 32.0632 12.1173 31.9434 11.9917Z" fill="#8BC958"/>
<path d="M34.7415 12.3244C34.7344 12.2834 34.7211 12.2435 34.7022 12.2064C34.6877 12.1645 34.6679 12.1246 34.6432 12.0878L34.5645 11.9901C34.5018 11.9308 34.4284 11.8841 34.3481 11.8524C34.1887 11.7862 34.0093 11.7862 33.8499 11.8524C33.7696 11.8841 33.6962 11.9308 33.6335 11.9901C33.5137 12.1157 33.4458 12.282 33.4434 12.4556C33.4417 12.6299 33.5102 12.7977 33.6335 12.921C33.6973 12.9789 33.7705 13.0254 33.8499 13.0587C34.0086 13.1287 34.1894 13.1287 34.3481 13.0587C34.4275 13.0254 34.5007 12.9789 34.5645 12.921C34.6878 12.7977 34.7563 12.6299 34.7546 12.4556C34.7535 12.4115 34.7491 12.3678 34.7415 12.3244Z" fill="#8BC958"/>
<path d="M37.1875 11.9917C37.1248 11.9324 37.0514 11.8857 36.9712 11.854C36.7267 11.7544 36.4465 11.8084 36.2566 11.9917C36.1368 12.1173 36.0688 12.2836 36.0664 12.4572C36.0647 12.6316 36.1332 12.7993 36.2566 12.9227C36.3203 12.9805 36.3935 13.0271 36.4729 13.0603C36.6317 13.1303 36.8124 13.1303 36.9712 13.0603C37.0506 13.0271 37.1238 12.9805 37.1875 12.9227C37.3109 12.7993 37.3794 12.6316 37.3776 12.4572C37.3753 12.2836 37.3073 12.1173 37.1875 11.9917Z" fill="#8BC958"/>
<path d="M23.4783 30.4204C23.261 30.1313 22.8507 30.0727 22.5613 30.2894L20.9878 31.4695V24.9134C20.9878 24.5514 20.6943 24.2578 20.3322 24.2578C19.9701 24.2578 19.6766 24.5514 19.6766 24.9134V31.4695L18.1031 30.2894C17.8137 30.0719 17.4027 30.1302 17.1852 30.4197C16.9677 30.7091 17.0261 31.1201 17.3155 31.3376C17.3158 31.3379 17.3161 31.3381 17.3164 31.3383L19.9388 33.3051C20.1719 33.4799 20.4925 33.4799 20.7256 33.3051L23.348 31.3383C23.6374 31.1209 23.6958 30.7099 23.4783 30.4204Z" fill="#8BC958"/>
<path d="M33.3124 30.4204C33.0952 30.1313 32.6848 30.0727 32.3954 30.2894L30.8219 31.4695V24.9134C30.8219 24.5514 30.5284 24.2578 30.1663 24.2578C29.8043 24.2578 29.5107 24.5514 29.5107 24.9134V31.4695L27.9373 30.2894C27.6474 30.0724 27.2365 30.1315 27.0195 30.4213C26.8027 30.7109 26.8614 31.1211 27.1505 31.3384L29.773 33.3052C30.006 33.48 30.3266 33.48 30.5597 33.3052L33.1821 31.3384C33.4716 31.1209 33.5299 30.7099 33.3124 30.4204Z" fill="#8BC958"/>
<path d="M13.6443 30.4205C13.4271 30.1308 13.0162 30.0721 12.7265 30.2894L11.153 31.4695V24.9134C11.153 24.5514 10.8595 24.2578 10.4974 24.2578C10.1354 24.2578 9.84182 24.5514 9.84182 24.9134V31.4695L8.26836 30.2894C7.97891 30.0718 7.56793 30.1301 7.35035 30.4194C7.13277 30.7089 7.19104 31.1199 7.48041 31.3375C7.48082 31.3378 7.48123 31.338 7.48164 31.3384L10.1041 33.3052C10.3371 33.48 10.6577 33.48 10.8908 33.3052L13.5132 31.3384C13.8029 31.1211 13.8616 30.7102 13.6443 30.4205Z" fill="#8BC958"/>
</g>
<defs>
<clipPath id="clip0">
<rect width="40" height="40" fill="white"/>
</clipPath>
</defs>
</svg>
