<svg width="40" height="40" viewBox="0 0 40 40" fill="none" xmlns="http://www.w3.org/2000/svg">
<path d="M28.326 13.4812L27.898 12.0725C27.3543 10.4723 25.6164 9.61593 24.0162 10.1596C23.1161 10.4654 22.4091 11.1723 22.1033 12.0725L21.6753 13.4812C21.3151 14.6692 21.2396 15.9253 21.4546 17.1478C21.6508 18.1772 22.3043 19.0615 23.2306 19.5512L22.7513 30.2665C22.6871 30.8646 22.8811 31.4617 23.2846 31.9078C24.1524 32.857 25.6254 32.923 26.5745 32.0553C26.6259 32.0083 26.675 31.9592 26.722 31.9078C27.1165 31.4743 27.3101 30.8948 27.2553 30.3112L26.7733 19.5498C27.6984 19.0599 28.3508 18.1762 28.5466 17.1478C28.7617 15.9253 28.6861 14.6692 28.326 13.4812ZM27.2333 16.9158C27.089 17.6553 26.562 18.2621 25.85 18.5085C25.5797 18.6101 25.4056 18.8741 25.4186 19.1625L25.9253 30.4165C25.9486 30.6373 25.8758 30.8573 25.7253 31.0205C25.3239 31.4179 24.6774 31.4179 24.276 31.0205C24.118 30.8442 24.0462 30.6068 24.08 30.3725L24.5826 19.1625C24.5956 18.8741 24.4215 18.6101 24.1513 18.5085C23.4393 18.2621 22.9123 17.6553 22.768 16.9158C22.5896 15.9008 22.6525 14.8581 22.9513 13.8718L23.3793 12.4625C23.7105 11.5671 24.7048 11.1097 25.6003 11.4408C26.0737 11.6159 26.4469 11.9892 26.622 12.4625L27.05 13.8718C27.3485 14.8582 27.4113 15.9008 27.2333 16.9158Z" fill="#8BC958"/>
<path d="M17.9997 10C17.6315 10 17.333 10.2985 17.333 10.6667V16.3907L15.5283 18.1953C15.3948 18.3283 15.3238 18.5118 15.333 18.7L15.9163 30.3667C15.9303 30.6183 15.8389 30.8643 15.6643 31.046C15.2994 31.4142 14.7051 31.4168 14.3368 31.0518C14.3348 31.0499 14.3329 31.0479 14.331 31.046C14.1563 30.8643 14.0651 30.6183 14.079 30.3667L14.6663 18.7C14.6757 18.5118 14.6049 18.3285 14.4717 18.1953L12.6663 16.3907V10.6667C12.6663 10.2985 12.3678 10 11.9997 10C11.6315 10 11.333 10.2985 11.333 10.6667V16.6667C11.333 16.8435 11.4033 17.013 11.5283 17.138L13.319 18.9293L12.7503 30.302C12.6898 31.5443 13.6478 32.6004 14.8901 32.6609C16.1323 32.7214 17.1885 31.7634 17.249 30.5212C17.2526 30.4482 17.2526 30.3751 17.249 30.3021L16.6803 18.9294L18.471 17.1381C18.596 17.0131 18.6663 16.8436 18.6663 16.6668V10.6668C18.6663 10.2985 18.3678 10 17.9997 10Z" fill="#8BC958"/>
<path d="M13.9997 10C13.6315 10 13.333 10.2985 13.333 10.6667V16C13.333 16.3682 13.6315 16.6667 13.9997 16.6667C14.3678 16.6667 14.6663 16.3682 14.6663 16V10.6667C14.6663 10.2985 14.3678 10 13.9997 10Z" fill="#8BC958"/>
<path d="M15.9997 10C15.6315 10 15.333 10.2985 15.333 10.6667V16C15.333 16.3682 15.6315 16.6667 15.9997 16.6667C16.3678 16.6667 16.6663 16.3682 16.6663 16V10.6667C16.6663 10.2985 16.3678 10 15.9997 10Z" fill="#8BC958"/>
<path d="M20 0C8.95433 0 0 8.95433 0 20C0 31.0457 8.95433 40 20 40C31.0457 40 40 31.0457 40 20C39.9875 8.9595 31.0405 0.0125 20 0ZM20 38.6667C9.69067 38.6667 1.33333 30.3093 1.33333 20C1.33333 9.69067 9.69067 1.33333 20 1.33333C30.3093 1.33333 38.6667 9.69067 38.6667 20C38.6549 30.3044 30.3044 38.6549 20 38.6667Z" fill="#8BC958"/>
<path d="M22.1641 32.5141C22.1284 32.1476 21.8023 31.8796 21.4358 31.9153C21.4272 31.9161 21.4186 31.9171 21.41 31.9183L21.4127 31.9176C20.4741 32.0266 19.526 32.0266 18.5874 31.9176C18.2215 31.8747 17.8903 32.1365 17.8474 32.5023C17.8045 32.8681 18.0662 33.1994 18.432 33.2423C19.473 33.3639 20.5245 33.3639 21.5654 33.2423C21.9318 33.2066 22.1999 32.8806 22.1641 32.5141Z" fill="#8BC958"/>
<path d="M30.1999 11.4101C29.9633 11.1281 29.5428 11.0911 29.2607 11.3278C29.2598 11.3286 29.2589 11.3294 29.2579 11.3301C28.9764 11.5675 28.9406 11.988 29.1779 12.2695C33.1974 17.0411 32.8899 24.0969 28.4705 28.5008C28.2097 28.7607 28.2089 29.183 28.4689 29.4438C28.7288 29.7046 29.151 29.7054 29.4119 29.4455C34.3233 24.5527 34.6658 16.7126 30.1999 11.4101Z" fill="#8BC958"/>
<path d="M23.1448 7.0384C20.5393 6.41398 17.8068 6.58182 15.2974 7.5204C14.9527 7.64998 14.7785 8.03448 14.9081 8.37906C15.0057 8.63881 15.2541 8.81073 15.5315 8.81098C15.6112 8.81056 15.6902 8.79598 15.7647 8.76773C18.0246 7.92265 20.4853 7.77173 22.8314 8.3344C23.1893 8.4209 23.5496 8.20098 23.6361 7.84306C23.7226 7.48515 23.5027 7.1249 23.1448 7.0384Z" fill="#8BC958"/>
<path d="M11.4996 28.4657C9.25221 26.2221 7.99263 23.1747 8.00029 19.999C7.99371 17.4619 8.79738 14.9889 10.2943 12.9404C10.5155 12.646 10.4563 12.2281 10.162 12.0069C9.86763 11.7856 9.44971 11.8449 9.22846 12.1392C9.22454 12.1444 9.22071 12.1497 9.21696 12.155C5.36254 17.454 5.9297 24.7683 10.555 29.4097C10.8156 29.6705 11.2385 29.6707 11.4993 29.41C11.7601 29.1494 11.7603 28.7265 11.4996 28.4657Z" fill="#8BC958"/>
</svg>
