<svg width="40" height="40" viewBox="0 0 40 40" fill="none" xmlns="http://www.w3.org/2000/svg">
<path d="M3.99967 12C3.63151 12 3.33301 12.2985 3.33301 12.6667V14.6667C3.33301 15.0348 3.63151 15.3333 3.99967 15.3333C4.36784 15.3333 4.66634 15.0348 4.66634 14.6667V12.6667C4.66634 12.2985 4.36784 12 3.99967 12Z" fill="#8BC958"/>
<path d="M6.66667 12C6.2985 12 6 12.2985 6 12.6667V14.6667C6 15.0348 6.2985 15.3333 6.66667 15.3333C7.03483 15.3333 7.33333 15.0348 7.33333 14.6667V12.6667C7.33333 12.2985 7.03483 12 6.66667 12Z" fill="#8BC958"/>
<path d="M9.33366 12C8.96549 12 8.66699 12.2985 8.66699 12.6667V14.6667C8.66699 15.0348 8.96549 15.3333 9.33366 15.3333C9.70183 15.3333 10.0003 15.0348 10.0003 14.6667V12.6667C10.0003 12.2985 9.70183 12 9.33366 12Z" fill="#8BC958"/>
<path d="M11.9997 12C11.6315 12 11.333 12.2985 11.333 12.6667V14.6667C11.333 15.0348 11.6315 15.3333 11.9997 15.3333C12.3678 15.3333 12.6663 15.0348 12.6663 14.6667V12.6667C12.6663 12.2985 12.3678 12 11.9997 12Z" fill="#8BC958"/>
<path d="M14.6667 12C14.2985 12 14 12.2985 14 12.6667V14.6667C14 15.0348 14.2985 15.3333 14.6667 15.3333C15.0348 15.3333 15.3333 15.0348 15.3333 14.6667V12.6667C15.3333 12.2985 15.0348 12 14.6667 12Z" fill="#8BC958"/>
<path d="M17.3337 12C16.9655 12 16.667 12.2985 16.667 12.6667V14.6667C16.667 15.0348 16.9655 15.3333 17.3337 15.3333C17.7018 15.3333 18.0003 15.0348 18.0003 14.6667V12.6667C18.0003 12.2985 17.7018 12 17.3337 12Z" fill="#8BC958"/>
<path d="M19.9997 12C19.6315 12 19.333 12.2985 19.333 12.6667V14.6667C19.333 15.0348 19.6315 15.3333 19.9997 15.3333C20.3678 15.3333 20.6663 15.0348 20.6663 14.6667V12.6667C20.6663 12.2985 20.3678 12 19.9997 12Z" fill="#8BC958"/>
<path d="M22.6667 12C22.2985 12 22 12.2985 22 12.6667V14.6667C22 15.0348 22.2985 15.3333 22.6667 15.3333C23.0348 15.3333 23.3333 15.0348 23.3333 14.6667V12.6667C23.3333 12.2985 23.0348 12 22.6667 12Z" fill="#8BC958"/>
<path d="M3.99967 18C3.63151 18 3.33301 18.2985 3.33301 18.6667V20.6667C3.33301 21.0348 3.63151 21.3333 3.99967 21.3333C4.36784 21.3333 4.66634 21.0348 4.66634 20.6667V18.6667C4.66634 18.2985 4.36784 18 3.99967 18Z" fill="#8BC958"/>
<path d="M6.66667 18C6.2985 18 6 18.2985 6 18.6667V20.6667C6 21.0348 6.2985 21.3333 6.66667 21.3333C7.03483 21.3333 7.33333 21.0348 7.33333 20.6667V18.6667C7.33333 18.2985 7.03483 18 6.66667 18Z" fill="#8BC958"/>
<path d="M9.33366 18C8.96549 18 8.66699 18.2985 8.66699 18.6667V20.6667C8.66699 21.0348 8.96549 21.3333 9.33366 21.3333C9.70183 21.3333 10.0003 21.0348 10.0003 20.6667V18.6667C10.0003 18.2985 9.70183 18 9.33366 18Z" fill="#8BC958"/>
<path d="M11.9997 18C11.6315 18 11.333 18.2985 11.333 18.6667V20.6667C11.333 21.0348 11.6315 21.3333 11.9997 21.3333C12.3678 21.3333 12.6663 21.0348 12.6663 20.6667V18.6667C12.6663 18.2985 12.3678 18 11.9997 18Z" fill="#8BC958"/>
<path d="M14.6667 18C14.2985 18 14 18.2985 14 18.6667V20.6667C14 21.0348 14.2985 21.3333 14.6667 21.3333C15.0348 21.3333 15.3333 21.0348 15.3333 20.6667V18.6667C15.3333 18.2985 15.0348 18 14.6667 18Z" fill="#8BC958"/>
<path d="M17.3337 18C16.9655 18 16.667 18.2985 16.667 18.6667V20.6667C16.667 21.0348 16.9655 21.3333 17.3337 21.3333C17.7018 21.3333 18.0003 21.0348 18.0003 20.6667V18.6667C18.0003 18.2985 17.7018 18 17.3337 18Z" fill="#8BC958"/>
<path d="M19.9997 18C19.6315 18 19.333 18.2985 19.333 18.6667V20.6667C19.333 21.0348 19.6315 21.3333 19.9997 21.3333C20.3678 21.3333 20.6663 21.0348 20.6663 20.6667V18.6667C20.6663 18.2985 20.3678 18 19.9997 18Z" fill="#8BC958"/>
<path d="M22.6667 18C22.2985 18 22 18.2985 22 18.6667V20.6667C22 21.0348 22.2985 21.3333 22.6667 21.3333C23.0348 21.3333 23.3333 21.0348 23.3333 20.6667V18.6667C23.3333 18.2985 23.0348 18 22.6667 18Z" fill="#8BC958"/>
<path d="M3.99967 24C3.63151 24 3.33301 24.2985 3.33301 24.6667V26.6667C3.33301 27.0348 3.63151 27.3333 3.99967 27.3333C4.36784 27.3333 4.66634 27.0348 4.66634 26.6667V24.6667C4.66634 24.2985 4.36784 24 3.99967 24Z" fill="#8BC958"/>
<path d="M6.66667 24C6.2985 24 6 24.2985 6 24.6667V26.6667C6 27.0348 6.2985 27.3333 6.66667 27.3333C7.03483 27.3333 7.33333 27.0348 7.33333 26.6667V24.6667C7.33333 24.2985 7.03483 24 6.66667 24Z" fill="#8BC958"/>
<path d="M9.33366 24C8.96549 24 8.66699 24.2985 8.66699 24.6667V26.6667C8.66699 27.0348 8.96549 27.3333 9.33366 27.3333C9.70183 27.3333 10.0003 27.0348 10.0003 26.6667V24.6667C10.0003 24.2985 9.70183 24 9.33366 24Z" fill="#8BC958"/>
<path d="M11.9997 24C11.6315 24 11.333 24.2985 11.333 24.6667V26.6667C11.333 27.0348 11.6315 27.3333 11.9997 27.3333C12.3678 27.3333 12.6663 27.0348 12.6663 26.6667V24.6667C12.6663 24.2985 12.3678 24 11.9997 24Z" fill="#8BC958"/>
<path d="M14.6667 24C14.2985 24 14 24.2985 14 24.6667V26.6667C14 27.0348 14.2985 27.3333 14.6667 27.3333C15.0348 27.3333 15.3333 27.0348 15.3333 26.6667V24.6667C15.3333 24.2985 15.0348 24 14.6667 24Z" fill="#8BC958"/>
<path d="M17.3337 24C16.9655 24 16.667 24.2985 16.667 24.6667V26.6667C16.667 27.0348 16.9655 27.3333 17.3337 27.3333C17.7018 27.3333 18.0003 27.0348 18.0003 26.6667V24.6667C18.0003 24.2985 17.7018 24 17.3337 24Z" fill="#8BC958"/>
<path d="M19.9997 24C19.6315 24 19.333 24.2985 19.333 24.6667V26.6667C19.333 27.0348 19.6315 27.3333 19.9997 27.3333C20.3678 27.3333 20.6663 27.0348 20.6663 26.6667V24.6667C20.6663 24.2985 20.3678 24 19.9997 24Z" fill="#8BC958"/>
<path d="M22.6667 24C22.2985 24 22 24.2985 22 24.6667V26.6667C22 27.0348 22.2985 27.3333 22.6667 27.3333C23.0348 27.3333 23.3333 27.0348 23.3333 26.6667V24.6667C23.3333 24.2985 23.0348 24 22.6667 24Z" fill="#8BC958"/>
<path d="M3.99967 30C3.63151 30 3.33301 30.2985 3.33301 30.6667V32.6667C3.33301 33.0348 3.63151 33.3333 3.99967 33.3333C4.36784 33.3333 4.66634 33.0348 4.66634 32.6667V30.6667C4.66634 30.2985 4.36784 30 3.99967 30Z" fill="#8BC958"/>
<path d="M6.66667 30C6.2985 30 6 30.2985 6 30.6667V32.6667C6 33.0348 6.2985 33.3333 6.66667 33.3333C7.03483 33.3333 7.33333 33.0348 7.33333 32.6667V30.6667C7.33333 30.2985 7.03483 30 6.66667 30Z" fill="#8BC958"/>
<path d="M9.33366 30C8.96549 30 8.66699 30.2985 8.66699 30.6667V32.6667C8.66699 33.0348 8.96549 33.3333 9.33366 33.3333C9.70183 33.3333 10.0003 33.0348 10.0003 32.6667V30.6667C10.0003 30.2985 9.70183 30 9.33366 30Z" fill="#8BC958"/>
<path d="M11.9997 30C11.6315 30 11.333 30.2985 11.333 30.6667V32.6667C11.333 33.0348 11.6315 33.3333 11.9997 33.3333C12.3678 33.3333 12.6663 33.0348 12.6663 32.6667V30.6667C12.6663 30.2985 12.3678 30 11.9997 30Z" fill="#8BC958"/>
<path d="M14.6667 30C14.2985 30 14 30.2985 14 30.6667V32.6667C14 33.0348 14.2985 33.3333 14.6667 33.3333C15.0348 33.3333 15.3333 33.0348 15.3333 32.6667V30.6667C15.3333 30.2985 15.0348 30 14.6667 30Z" fill="#8BC958"/>
<path d="M17.3337 30C16.9655 30 16.667 30.2985 16.667 30.6667V32.6667C16.667 33.0348 16.9655 33.3333 17.3337 33.3333C17.7018 33.3333 18.0003 33.0348 18.0003 32.6667V30.6667C18.0003 30.2985 17.7018 30 17.3337 30Z" fill="#8BC958"/>
<path d="M19.9997 30C19.6315 30 19.333 30.2985 19.333 30.6667V32.6667C19.333 33.0348 19.6315 33.3333 19.9997 33.3333C20.3678 33.3333 20.6663 33.0348 20.6663 32.6667V30.6667C20.6663 30.2985 20.3678 30 19.9997 30Z" fill="#8BC958"/>
<path d="M22.6667 30C22.2985 30 22 30.2985 22 30.6667V32.6667C22 33.0348 22.2985 33.3333 22.6667 33.3333C23.0348 33.3333 23.3333 33.0348 23.3333 32.6667V30.6667C23.3333 30.2985 23.0348 30 22.6667 30Z" fill="#8BC958"/>
<path d="M3.99967 36C3.63151 36 3.33301 36.2985 3.33301 36.6667V38.6667C3.33301 39.0348 3.63151 39.3333 3.99967 39.3333C4.36784 39.3333 4.66634 39.0348 4.66634 38.6667V36.6667C4.66634 36.2985 4.36784 36 3.99967 36Z" fill="#8BC958"/>
<path d="M6.66667 36C6.2985 36 6 36.2985 6 36.6667V38.6667C6 39.0348 6.2985 39.3333 6.66667 39.3333C7.03483 39.3333 7.33333 39.0348 7.33333 38.6667V36.6667C7.33333 36.2985 7.03483 36 6.66667 36Z" fill="#8BC958"/>
<path d="M9.33366 36C8.96549 36 8.66699 36.2985 8.66699 36.6667V38.6667C8.66699 39.0348 8.96549 39.3333 9.33366 39.3333C9.70183 39.3333 10.0003 39.0348 10.0003 38.6667V36.6667C10.0003 36.2985 9.70183 36 9.33366 36Z" fill="#8BC958"/>
<path d="M11.9997 36C11.6315 36 11.333 36.2985 11.333 36.6667V38.6667C11.333 39.0348 11.6315 39.3333 11.9997 39.3333C12.3678 39.3333 12.6663 39.0348 12.6663 38.6667V36.6667C12.6663 36.2985 12.3678 36 11.9997 36Z" fill="#8BC958"/>
<path d="M14.6667 36C14.2985 36 14 36.2985 14 36.6667V38.6667C14 39.0348 14.2985 39.3333 14.6667 39.3333C15.0348 39.3333 15.3333 39.0348 15.3333 38.6667V36.6667C15.3333 36.2985 15.0348 36 14.6667 36Z" fill="#8BC958"/>
<path d="M17.3337 36C16.9655 36 16.667 36.2985 16.667 36.6667V38.6667C16.667 39.0348 16.9655 39.3333 17.3337 39.3333C17.7018 39.3333 18.0003 39.0348 18.0003 38.6667V36.6667C18.0003 36.2985 17.7018 36 17.3337 36Z" fill="#8BC958"/>
<path d="M19.9997 36C19.6315 36 19.333 36.2985 19.333 36.6667V38.6667C19.333 39.0348 19.6315 39.3333 19.9997 39.3333C20.3678 39.3333 20.6663 39.0348 20.6663 38.6667V36.6667C20.6663 36.2985 20.3678 36 19.9997 36Z" fill="#8BC958"/>
<path d="M22.6667 36C22.2985 36 22 36.2985 22 36.6667V38.6667C22 39.0348 22.2985 39.3333 22.6667 39.3333C23.0348 39.3333 23.3333 39.0348 23.3333 38.6667V36.6667C23.3333 36.2985 23.0348 36 22.6667 36Z" fill="#8BC958"/>
<path d="M37.3333 0C36.9652 0 36.6667 0.2985 36.6667 0.666667V14.6667H34.6667V4C34.6645 1.79175 32.8749 0.00216667 30.6667 0H16C13.7918 0.00216667 12.0022 1.79175 12 4V6H4C2.89542 6 2 6.89542 2 8V9.33333C2 9.7015 2.2985 10 2.66667 10H24C24.3682 10 24.6667 9.7015 24.6667 9.33333V8C24.6667 6.89542 23.7713 6 22.6667 6H13.3333V4C13.3333 2.52725 14.5273 1.33333 16 1.33333H30.6667C32.1394 1.33333 33.3333 2.52725 33.3333 4V34.6667H32V34.3333C32 33.0447 30.9553 32 29.6667 32C28.378 32 27.3333 33.0447 27.3333 34.3333V36.3333C27.3333 37.622 28.378 38.6667 29.6667 38.6667C30.9553 38.6667 32 37.622 32 36.3333V36H33.3333V39.3333C33.3333 39.7015 33.6318 40 34 40C34.3682 40 34.6667 39.7015 34.6667 39.3333V36H36.6667V39.3333C36.6667 39.7015 36.9652 40 37.3333 40C37.7015 40 38 39.7015 38 39.3333V0.666667C38 0.2985 37.7015 0 37.3333 0ZM22.6667 7.33333C23.0348 7.33333 23.3333 7.63183 23.3333 8V8.66667H3.33333V8C3.33333 7.63183 3.63183 7.33333 4 7.33333H22.6667ZM30.6667 36.3333C30.6667 36.8856 30.2189 37.3333 29.6667 37.3333C29.1144 37.3333 28.6667 36.8856 28.6667 36.3333V34.3333C28.6667 33.7811 29.1144 33.3333 29.6667 33.3333C30.2189 33.3333 30.6667 33.7811 30.6667 34.3333V36.3333ZM36.6667 34.6667H34.6667V16H36.6667V34.6667Z" fill="#8BC958"/>
</svg>
