<svg id="Слой_2" data-name="Слой 2" xmlns="http://www.w3.org/2000/svg" viewBox="0 0 45.58 51.5"><defs><style>.cls-1,.cls-2{fill:none;stroke:#96c93d;stroke-miterlimit:10;}.cls-1{stroke-width:1.5px;}.cls-2{stroke-width:1.31px;}.cls-3{fill:#96c93d;}</style></defs><title>dried fruit</title><path class="cls-1" d="M869.55,726.89a9.78,9.78,0,0,0-2.6,5,33.12,33.12,0,0,1-1,5,12.47,12.47,0,0,1-3,4.72,20.19,20.19,0,0,1-4.21,2.55,31.12,31.12,0,0,0-8.42,6.61,10,10,0,0,0-2.45,4.57c-1.35,7.83,3.6,14.57,10.48,17.7,4.53,2.07,9.48,2.34,14.38,2.17a20.57,20.57,0,0,0,6.41-1.07,22.63,22.63,0,0,0,8.35-5.49c2.87-2.91,5.06-6.7,3.93-10.92a17.47,17.47,0,0,0-6.64-9.65c-2.65-1.9-5.73-3-8.35-5a16.79,16.79,0,0,1-4.22-4.31,9.68,9.68,0,0,1-1.22-5.14c0-2.11-.25-6.26,2.39-7a3.26,3.26,0,0,1,1.49,0c.73.15,1.43.44,2.17.59-.27-.06-.9-.93-1.17-1.11a4.39,4.39,0,0,0-3.29-.79A5.82,5.82,0,0,0,869.55,726.89Z" transform="translate(-846.9 -724.49)"/><path class="cls-2" d="M888,761.53c-1.29,5.7-8.28,11.47-18.5,11.47s-17.4-5.73-18.5-11.47c-2.5-13,17.5-18.53,17.5-18.53S890.5,750.5,888,761.53Z" transform="translate(-846.9 -724.49)"/><circle class="cls-3" cx="10.1" cy="29.51" r="1"/><circle class="cls-3" cx="12.1" cy="25.51" r="1"/><circle class="cls-3" cx="12.1" cy="35.51" r="1"/><circle class="cls-3" cx="8.1" cy="32.51" r="1"/><circle class="cls-3" cx="10.1" cy="38.51" r="1"/><circle class="cls-3" cx="7.1" cy="36.51" r="1"/><circle class="cls-3" cx="15.1" cy="26.51" r="1"/><circle class="cls-3" cx="14.1" cy="30.51" r="1"/><circle class="cls-3" cx="12.1" cy="41.51" r="1"/><circle class="cls-3" cx="15.1" cy="36.51" r="1"/><circle class="cls-3" cx="19.1" cy="32.51" r="1"/><circle class="cls-3" cx="15.1" cy="33.51" r="1"/><circle class="cls-3" cx="20.1" cy="27.51" r="1"/><circle class="cls-3" cx="19.1" cy="23.51" r="1"/><circle class="cls-3" cx="18.1" cy="37.51" r="1"/><circle class="cls-3" cx="15.1" cy="42.51" r="1"/><circle class="cls-3" cx="25.1" cy="42.51" r="1"/><circle class="cls-3" cx="27.1" cy="37.51" r="1"/><circle class="cls-3" cx="19.1" cy="44.51" r="1"/><circle class="cls-3" cx="29.1" cy="40.51" r="1"/><circle class="cls-3" cx="28.1" cy="43.51" r="1"/><circle class="cls-3" cx="20.1" cy="41.51" r="1"/><circle class="cls-3" cx="24.1" cy="45.51" r="1"/><circle class="cls-3" cx="25.1" cy="28.51" r="1"/><circle class="cls-3" cx="24.1" cy="24.51" r="1"/><circle class="cls-3" cx="23.1" cy="35.51" r="1"/><circle class="cls-3" cx="23.1" cy="38.51" r="1"/><circle class="cls-3" cx="22.1" cy="31.51" r="1"/><circle class="cls-3" cx="32.1" cy="28.51" r="1"/><circle class="cls-3" cx="36.1" cy="31.51" r="1"/><circle class="cls-3" cx="29.1" cy="24.51" r="1"/><circle class="cls-3" cx="27.1" cy="34.51" r="1"/><circle class="cls-3" cx="28.1" cy="30.51" r="1"/><circle class="cls-3" cx="17.1" cy="29.51" r="1"/><circle class="cls-3" cx="30.1" cy="36.51" r="1"/><circle class="cls-3" cx="33.1" cy="43.51" r="1"/><circle class="cls-3" cx="33.1" cy="32.51" r="1"/><circle class="cls-3" cx="37.1" cy="35.51" r="1"/><circle class="cls-3" cx="35.1" cy="40.51" r="1"/></svg>