<svg id="Слой_1" data-name="Слой 1" xmlns="http://www.w3.org/2000/svg" viewBox="0 0 60.15 47"><defs><style>.cls-1{fill:#96c93d;}</style></defs><title>drinks</title><path class="cls-1" d="M659.75,218.47H642v-.11l-4.91-31.74h27.57l0,.15-2.15,13.89-.06,0a8,8,0,0,0-4.47,7.13,7.84,7.84,0,0,0,2.48,5.75l0,.05v.06Zm-17.51-.25h17.29l.7-4.52a8.11,8.11,0,0,1-2.51-5.89,8.24,8.24,0,0,1,4.55-7.32l2.11-13.62h-27Z" transform="translate(-631.98 -176.44)"/><path class="cls-1" d="M667,211.6H665.9a3.79,3.79,0,1,1,0-7.57h.42v.11Zm-1.05-7.32a3.54,3.54,0,1,0,0,7.07h.77l-.59-7.07Z" transform="translate(-631.98 -176.44)"/><path class="cls-1" d="M665.6,192.29h-.47l0-.13.94-6.08a.63.63,0,0,0-.15-.53h0a.65.65,0,0,0-.5-.22h-6.11l0-.14a6,6,0,0,1,4-5.11,6.2,6.2,0,0,1,6.73,1.76,6.43,6.43,0,0,1,.82,7.08v.1h0A5.84,5.84,0,0,1,665.6,192.29Zm-.18-.25h.18a5.59,5.59,0,0,0,5-3.21l0-.07a6.2,6.2,0,0,0-.8-6.77,5.93,5.93,0,0,0-6.46-1.69,5.76,5.76,0,0,0-3.82,4.76h5.83a.87.87,0,0,1,.69.31.9.9,0,0,1,.21.73Z" transform="translate(-631.98 -176.44)"/><path class="cls-1" d="M659.65,221.87H642.12v-2.08h17.53Zm-17.28-.25h17V220h-17Z" transform="translate(-631.98 -176.44)"/><path class="cls-1" d="M683.34,221.84h-9a5.85,5.85,0,0,1-5.73-5.27l-.13-1.49a.6.6,0,0,0-.6-.55h-2a6.74,6.74,0,0,1-3.94-1.28,7.09,7.09,0,0,1-1.41-1.38,6.73,6.73,0,0,1,3.24-10.43,6.85,6.85,0,0,1,2.11-.34h.73a.64.64,0,0,0,.45-.19.6.6,0,0,0,.15-.46l-.19-2.27h23.57v.13l-1.52,18.26A5.87,5.87,0,0,1,683.34,221.84ZM665.9,201.35a6.39,6.39,0,0,0-2,.33,6.33,6.33,0,0,0-1.7.86,6.49,6.49,0,0,0-2.73,5.27,6.48,6.48,0,0,0,6.46,6.47h2a.85.85,0,0,1,.85.78l.13,1.48a5.6,5.6,0,0,0,5.48,5.05h9a5.62,5.62,0,0,0,5.49-5.05l1.51-18.11h-23l.16,2a.89.89,0,0,1-.22.66.87.87,0,0,1-.63.27Zm15.76,18.3a.86.86,0,1,1,.85-.86A.86.86,0,0,1,681.66,219.65Zm0-1.47a.61.61,0,0,0-.61.61.61.61,0,1,0,.61-.61Zm2.92-1.46a.86.86,0,1,1,.86-.86A.85.85,0,0,1,684.58,216.72Zm0-1.46a.61.61,0,1,0,.61.6A.6.6,0,0,0,684.58,215.26Zm-17-2.2H665.9a5.25,5.25,0,1,1,0-10.49h1a.86.86,0,0,1,.86.78l.73,8.78a.89.89,0,0,1-.22.66A.9.9,0,0,1,667.61,213.06Zm-1.71-10.24a5,5,0,1,0,0,10h1.71a.61.61,0,0,0,.44-.19.63.63,0,0,0,.16-.47l-.73-8.78a.61.61,0,0,0-.61-.55Z" transform="translate(-631.98 -176.44)"/><path class="cls-1" d="M684.58,216.6a.74.74,0,1,0-.73-.74A.74.74,0,0,0,684.58,216.6Z" transform="translate(-631.98 -176.44)"/><path class="cls-1" d="M684.58,216.72a.86.86,0,1,1,.86-.86A.85.85,0,0,1,684.58,216.72Zm0-1.46a.61.61,0,1,0,.61.6A.6.6,0,0,0,684.58,215.26Z" transform="translate(-631.98 -176.44)"/><path class="cls-1" d="M681.66,219.52a.73.73,0,1,0,0-1.46.73.73,0,1,0,0,1.46Z" transform="translate(-631.98 -176.44)"/><path class="cls-1" d="M681.66,219.65a.86.86,0,1,1,.85-.86A.86.86,0,0,1,681.66,219.65Zm0-1.47a.61.61,0,0,0-.61.61.61.61,0,1,0,.61-.61Z" transform="translate(-631.98 -176.44)"/><path class="cls-1" d="M665.9,202.69a5.13,5.13,0,1,0,0,10.25h1.71a.74.74,0,0,0,.72-.8l-.73-8.78a.73.73,0,0,0-.73-.67Zm0,8.78a3.66,3.66,0,1,1,0-7.31h.3l.61,7.31Z" transform="translate(-631.98 -176.44)"/><path class="cls-1" d="M667.61,213.06H665.9a5.25,5.25,0,1,1,0-10.49h1a.86.86,0,0,1,.86.78l.73,8.78a.89.89,0,0,1-.22.66A.9.9,0,0,1,667.61,213.06Zm-1.71-10.24a5,5,0,1,0,0,10h1.71a.61.61,0,0,0,.44-.19.63.63,0,0,0,.16-.47l-.73-8.78a.61.61,0,0,0-.61-.55ZM667,211.6H665.9a3.79,3.79,0,1,1,0-7.57h.42v.11Zm-1.05-7.32a3.54,3.54,0,1,0,0,7.07h.77l-.59-7.07Z" transform="translate(-631.98 -176.44)"/><path class="cls-1" d="M659.64,218.34H642.13l-4.88-31.59h27.27l-2.13,13.82a8.08,8.08,0,0,1,1.69-.6l1-6.26.58,0a7.26,7.26,0,0,0,6.56-4.15,7.89,7.89,0,0,0-1-8.7,7.6,7.6,0,0,0-8.28-2.18,7.46,7.46,0,0,0-5,6.48h-14l-3.57-8.62H632.1v1.57h7.18l2.91,7.05h-5.85a.8.8,0,0,0-.6.27.78.78,0,0,0-.18.63l5.13,33.11v3.34a.78.78,0,0,0,.78.78h18.85a.78.78,0,0,0,.78-.78v-3.34l.69-4.46a8.26,8.26,0,0,1-1.43-1.08Zm3.75-38.16a6.07,6.07,0,0,1,6.59,1.73,6.3,6.3,0,0,1,.8,7h0a5.73,5.73,0,0,1-5.49,3.28l.94-6.08a.83.83,0,0,0-.18-.63.77.77,0,0,0-.6-.27h-6A5.89,5.89,0,0,1,663.39,180.18Zm-3.87,41.56H642.25v-1.83h17.27Z" transform="translate(-631.98 -176.44)"/><path class="cls-1" d="M660.32,223.44H641.47a.91.91,0,0,1-.91-.91v-3.34l-5.12-33.09a.91.91,0,0,1,.2-.73,1,1,0,0,1,.7-.31H642l-2.82-6.8H632v-1.82h8.43l0,.07,3.53,8.55h13.81a7.56,7.56,0,0,1,5.06-6.48,7.72,7.72,0,0,1,8.42,2.22,8,8,0,0,1,1,8.84,7.43,7.43,0,0,1-6.67,4.22l-.47,0-1,6.24-.09,0a7.77,7.77,0,0,0-1.66.58l-.22.11,0-.24,2.12-13.68h-27l4.85,31.35h17.29l.75-4.82.17.16a7.71,7.71,0,0,0,1.41,1.07l.07,0v.08l-.69,4.46v3.32A.91.91,0,0,1,660.32,223.44Zm-24-38.13a.7.7,0,0,0-.51.22.66.66,0,0,0-.14.53l5.12,33.11v3.36a.67.67,0,0,0,.66.66h18.85a.68.68,0,0,0,.66-.66v-3.34l.68-4.39a8.08,8.08,0,0,1-1.21-.9l-.7,4.57H642v-.11l-4.91-31.74h27.57l0,.15-2.11,13.59a8.61,8.61,0,0,1,1.43-.49l1-6.29h.11l.57,0a7.17,7.17,0,0,0,6.45-4.08,7.77,7.77,0,0,0-1-8.57,7.51,7.51,0,0,0-8.15-2.15,7.33,7.33,0,0,0-4.9,6.38v.12H643.8l0-.08-3.53-8.54h-8V178h7.13l0,.07,3,7.23Zm23.31,36.56H642.12v-2.08h17.53Zm-17.28-.25h17V220h-17Zm23.23-29.33h-.47l0-.13.94-6.08a.63.63,0,0,0-.15-.53.65.65,0,0,0-.5-.22h-6.11l0-.14a6,6,0,0,1,4-5.11h0a6.2,6.2,0,0,1,6.73,1.76,6.43,6.43,0,0,1,.82,7.08v.1h0A5.84,5.84,0,0,1,665.6,192.29Zm-.18-.25h.18a5.59,5.59,0,0,0,5-3.21l0-.07a6.2,6.2,0,0,0-.8-6.77,5.93,5.93,0,0,0-6.46-1.69h0a5.76,5.76,0,0,0-3.82,4.76h5.83a.9.9,0,0,1,.7.31.93.93,0,0,1,.2.73Z" transform="translate(-631.98 -176.44)"/><path class="cls-1" d="M691.81,197.07a.74.74,0,0,0-.54-.23H666.39a.72.72,0,0,0-.73.79l.17,2.13a8.38,8.38,0,0,0-1.75.21,8,8,0,0,0-3.72,13.68,8.26,8.26,0,0,0,1.43,1.08,8,8,0,0,0,4.11,1.13h1.28l.06.82a7.23,7.23,0,0,0,7.07,6.5h9a7.23,7.23,0,0,0,7.07-6.5L692,197.63A.81.81,0,0,0,691.81,197.07ZM689,216.56a5.74,5.74,0,0,1-5.61,5.16h-9a5.74,5.74,0,0,1-5.61-5.16l-.12-1.49a.73.73,0,0,0-.73-.67h-2a6.58,6.58,0,0,1-3.8-12,6.49,6.49,0,0,1,3.8-1.21h.73a.75.75,0,0,0,.54-.24.7.7,0,0,0,.19-.55l-.18-2.14h23.29Z" transform="translate(-631.98 -176.44)"/><path class="cls-1" d="M683.34,223.31h-9a7.35,7.35,0,0,1-7.19-6.62l-.06-.7H665.9a8.15,8.15,0,0,1-4.17-1.15,7.7,7.7,0,0,1-1.45-1.1,8.09,8.09,0,0,1-2.56-5.93,8.23,8.23,0,0,1,4.61-7.35,8.36,8.36,0,0,1,1.72-.61,9.2,9.2,0,0,1,1.65-.21l-.17-2a.82.82,0,0,1,.23-.65.84.84,0,0,1,.63-.28h24.88a.84.84,0,0,1,.63.28h0a.85.85,0,0,1,.22.65l-1.59,19.05A7.35,7.35,0,0,1,683.34,223.31Zm-17-26.35a.59.59,0,0,0-.45.2.63.63,0,0,0-.16.46l.19,2.27h-.14a7.31,7.31,0,0,0-1.73.21,7.77,7.77,0,0,0-1.66.58,8,8,0,0,0-4.47,7.13,7.84,7.84,0,0,0,2.48,5.75,7.71,7.71,0,0,0,1.41,1.07,7.94,7.94,0,0,0,4,1.11h1.39l.08.93a7.1,7.1,0,0,0,6.94,6.39h9a7.09,7.09,0,0,0,6.94-6.39l1.59-19a.56.56,0,0,0-.16-.46h0a.57.57,0,0,0-.44-.2Zm17,24.88h-9a5.85,5.85,0,0,1-5.73-5.27l-.13-1.49a.6.6,0,0,0-.6-.55h-2a6.74,6.74,0,0,1-3.94-1.28,7.09,7.09,0,0,1-1.41-1.38,6.73,6.73,0,0,1,3.24-10.43,6.85,6.85,0,0,1,2.11-.34h.73a.64.64,0,0,0,.45-.19.6.6,0,0,0,.15-.46l-.19-2.27h23.57v.13l-1.52,18.26A5.87,5.87,0,0,1,683.34,221.84ZM665.9,201.35a6.39,6.39,0,0,0-2,.33,6.33,6.33,0,0,0-1.7.86,6.49,6.49,0,0,0-2.73,5.27,6.48,6.48,0,0,0,6.46,6.47h2a.85.85,0,0,1,.85.78l.13,1.48a5.6,5.6,0,0,0,5.48,5.05h9a5.62,5.62,0,0,0,5.49-5.05l1.51-18.11h-23l.16,2a.89.89,0,0,1-.22.66.87.87,0,0,1-.63.27Z" transform="translate(-631.98 -176.44)"/><path class="cls-1" d="M674.92,192a5.58,5.58,0,0,0,.82,3,.73.73,0,0,0,1.29-.7,4.56,4.56,0,0,1,0-4.66,5.65,5.65,0,0,0,.82-3,5.55,5.55,0,0,0-.82-3,.71.71,0,0,0-.64-.38.73.73,0,0,0-.74.73.68.68,0,0,0,.1.35,4.2,4.2,0,0,1,.64,2.33,4.09,4.09,0,0,1-.65,2.33A5.65,5.65,0,0,0,674.92,192Z" transform="translate(-631.98 -176.44)"/><path class="cls-1" d="M676.39,195.5a.86.86,0,0,1-.76-.45,6.19,6.19,0,0,1,0-6.19,4,4,0,0,0,.63-2.27,4.12,4.12,0,0,0-.62-2.27.84.84,0,0,1-.11-.41.86.86,0,0,1,.86-.86.85.85,0,0,1,.75.45,6.1,6.1,0,0,1,0,6.18,4.42,4.42,0,0,0,0,4.55.85.85,0,0,1-.34,1.16A.87.87,0,0,1,676.39,195.5Zm0-12.2a.61.61,0,0,0-.61.61.73.73,0,0,0,.07.29,4.66,4.66,0,0,1,0,4.78,5.58,5.58,0,0,0-.8,3,5.51,5.51,0,0,0,.8,3,.62.62,0,0,0,.83.24.59.59,0,0,0,.29-.36.62.62,0,0,0-.05-.46,4.31,4.31,0,0,1-.66-2.39,4.26,4.26,0,0,1,.66-2.39,5.48,5.48,0,0,0,.81-3,5.41,5.41,0,0,0-.81-3A.59.59,0,0,0,676.39,183.3Z" transform="translate(-631.98 -176.44)"/><path class="cls-1" d="M679.8,192a5.58,5.58,0,0,0,.82,3,.74.74,0,0,0,.65.38.79.79,0,0,0,.35-.09.73.73,0,0,0,.29-1,4.56,4.56,0,0,1,0-4.66,6,6,0,0,0,0-6.07.74.74,0,0,0-1.38.35.79.79,0,0,0,.09.35,4.5,4.5,0,0,1,0,4.66A5.65,5.65,0,0,0,679.8,192Z" transform="translate(-631.98 -176.44)"/><path class="cls-1" d="M681.27,195.5a.86.86,0,0,1-.76-.45,6.17,6.17,0,0,1,0-6.18,4.42,4.42,0,0,0,0-4.55,1,1,0,0,1-.1-.41.86.86,0,0,1,.86-.86.85.85,0,0,1,.75.45,6.17,6.17,0,0,1,0,6.18,4.42,4.42,0,0,0,0,4.55.86.86,0,0,1-.75,1.27Zm0-12.2a.61.61,0,0,0-.61.61.59.59,0,0,0,.07.29,4.66,4.66,0,0,1,0,4.78,5.93,5.93,0,0,0,0,6,.62.62,0,0,0,.83.24.59.59,0,0,0,.29-.36.62.62,0,0,0-.05-.46,4.31,4.31,0,0,1-.66-2.39,4.26,4.26,0,0,1,.66-2.39,5.49,5.49,0,0,0,.8-3,5.42,5.42,0,0,0-.8-3A.6.6,0,0,0,681.27,183.3Z" transform="translate(-631.98 -176.44)"/></svg>