<svg id="Слой_1" data-name="Слой 1" xmlns="http://www.w3.org/2000/svg" viewBox="0 0 43.2 47.69"><defs><style>.cls-1{fill:#97c340;}</style></defs><title>fruits</title><path class="cls-1" d="M947.74,553.13a6.71,6.71,0,0,1-4.86-4.36.81.81,0,0,0-1-.52.8.8,0,0,0-.52,1,8.23,8.23,0,0,0,6,5.43l.18,0a.8.8,0,0,0,.17-1.58Zm0,0" transform="translate(-938 -516)"/><path class="cls-1" d="M968.43,559a6.72,6.72,0,0,1-4.87-4.36.8.8,0,1,0-1.52.5,8.25,8.25,0,0,0,6,5.43h.17A.79.79,0,0,0,969,560a.8.8,0,0,0-.6-1Zm0,0" transform="translate(-938 -516)"/><path class="cls-1" d="M941.78,545.75l.16,0a.8.8,0,0,0,.79-.64,7.58,7.58,0,0,1,1-2.51.8.8,0,1,0-1.36-.84,9.33,9.33,0,0,0-1.18,3,.8.8,0,0,0,.62.94Zm0,0" transform="translate(-938 -516)"/><path class="cls-1" d="M975.54,541.82c1.75-5.84-.17-11.17-4.17-17.53a7.82,7.82,0,0,0,1.69.2,9.3,9.3,0,0,0,1.87-.2,9.16,9.16,0,0,0,5.39-3.45l.47-.65-.65-.47c-3.06-2.24-7.69-1.64-10.6,1.17a8,8,0,0,0-3-3.42,9.13,9.13,0,0,0-6.25-1.37l-.79.12.12.79a7.59,7.59,0,0,0,3.56,5.21,9.33,9.33,0,0,0,5,1.47l.55,0c-.37,7-5.63,13.31-10.88,15.32a9.85,9.85,0,0,0-7.81-4.1h-1.6c-5.74,0-10.4,5.38-10.4,12a11.19,11.19,0,0,0,20.8,5.73,11.2,11.2,0,0,0,22.4-.13,12.34,12.34,0,0,0-5.66-10.67Zm2.92-21.25a7.18,7.18,0,0,1-8.05,1.7,7.15,7.15,0,0,1,8.05-1.7Zm-17.07-3a7.56,7.56,0,0,1,4.27,1.22,6.21,6.21,0,0,1,2.64,3.27,7.55,7.55,0,0,1-4.27-1.22,6.26,6.26,0,0,1-2.64-3.27Zm8.74,7.73c4.1,6.59,5.3,11.17,4,15.79a9.13,9.13,0,0,0-3.3-.63h-1.6a10.17,10.17,0,0,0-8.83,5.69,13.19,13.19,0,0,0-1.66-5.83,19.9,19.9,0,0,0,11.42-15ZM949.2,556.49a9.62,9.62,0,0,1-9.6-9.6c0-5.73,3.95-10.4,8.8-10.4H950a8.14,8.14,0,0,1,6.17,3,8.45,8.45,0,0,1-1.71.19.8.8,0,1,0,0,1.6,10.38,10.38,0,0,0,2.71-.39,11.68,11.68,0,0,1,1.63,6,9.62,9.62,0,0,1-9.6,9.6Zm20.8,5.6a9.62,9.62,0,0,1-9.6-9.6c0-5.73,4-10.4,8.8-10.4h1.6a7.5,7.5,0,0,1,2.79.55,20.17,20.17,0,0,1-1.09,2.26.8.8,0,0,0,.31,1.09.78.78,0,0,0,.39.1.81.81,0,0,0,.7-.41,20.31,20.31,0,0,0,1.1-2.33,10.81,10.81,0,0,1,4.6,9.14,9.62,9.62,0,0,1-9.6,9.6Zm0,0" transform="translate(-938 -516)"/><path class="cls-1" d="M955.6,542.09a3.2,3.2,0,0,1-3.2-3.2.8.8,0,1,0-1.6,0,4.8,4.8,0,0,0,4.8,4.8.8.8,0,0,0,0-1.6Zm0,0" transform="translate(-938 -516)"/><path class="cls-1" d="M974.8,547.69a3.2,3.2,0,0,1-3.2-3.2.8.8,0,1,0-1.6,0,4.8,4.8,0,0,0,4.8,4.8.8.8,0,0,0,0-1.6Zm0,0" transform="translate(-938 -516)"/></svg>