<svg id="Слой_1" data-name="Слой 1" xmlns="http://www.w3.org/2000/svg" viewBox="0 0 40.01 40.02"><defs><style>.cls-1{fill:#96c93d;}</style></defs><title>grocery</title><path class="cls-1" d="M963.81,527.08a.91.91,0,1,1-.9-.91.9.9,0,0,1,.9.91Zm0,0" transform="translate(-939 -520.79)"/><path class="cls-1" d="M958.37,527.08a.91.91,0,1,1-.91-.91.91.91,0,0,1,.91.91Zm0,0" transform="translate(-939 -520.79)"/><path class="cls-1" d="M961.09,525.27a.91.91,0,1,1-.91-.91.9.9,0,0,1,.91.91Zm0,0" transform="translate(-939 -520.79)"/><path class="cls-1" d="M967.11,545.26h-2a5.08,5.08,0,0,0-2.33.57,5.09,5.09,0,0,0-1.37-4.66L960,539.76a.8.8,0,0,0-1.13,0l-1.41,1.41a5.11,5.11,0,0,0-1.37,4.66,5,5,0,0,0-2.32-.57h-2a.8.8,0,0,0-.8.8v2a5.09,5.09,0,0,0,5.08,5.08h2a.8.8,0,0,0,.8-.8v-2c0-.22,0-.43,0-.64l.06.06a.8.8,0,0,0,.57.24.77.77,0,0,0,.56-.24l.08-.08c0,.21,0,.43,0,.66v2a.8.8,0,0,0,.8.8h2a5.08,5.08,0,0,0,5.07-5.08v-2a.8.8,0,0,0-.8-.8Zm-9.85,6.27h-1.19a3.48,3.48,0,0,1-3.48-3.48v-1.19h1.19a3.48,3.48,0,0,1,3.48,3.48Zm2.18-3.47-.84-.84a3.48,3.48,0,0,1,0-4.91l.84-.85.85.85a3.48,3.48,0,0,1,0,4.91Zm6.87,0a3.48,3.48,0,0,1-3.47,3.48h-1.2v-1.19a3.48,3.48,0,0,1,3.48-3.48h1.19Zm0,0" transform="translate(-939 -520.79)"/><path class="cls-1" d="M978.43,556.56l-2.25-2.25a1.7,1.7,0,0,0,0-.22L974,536.26a2,2,0,0,0,1.66-1.79v-.16c0-2.2-2.2-4.17-4.94-4.62-.88-1.54-5-8.05-12-8.89h-.19c-7,.84-11.11,7.3-12,8.87-2.81.4-5.08,2.4-5.08,4.64v.16a2.11,2.11,0,0,0,2.13,1.87l-1.73,17.8a1.21,1.21,0,0,0,0,.19l-2.23,2.23a2,2,0,0,0,1.66,3.32l4.16-.59.13,0a61.17,61.17,0,0,0,26.06.15l.82-.18.09,0,4.27.62a2,2,0,0,0,1.66-3.33ZM958.61,522.4c5.19.67,8.73,5.05,10.17,7.19H948.44c1.44-2.14,5-6.52,10.17-7.19ZM943,534.47v-.16c0-1.44,2-3.12,4.51-3.12h22c2.55,0,4.52,1.68,4.52,3.12v.15a.71.71,0,0,1-.38.23l-6.69,1a82.92,82.92,0,0,1-17.35,0l-5.94-.91v0a1,1,0,0,1-.69-.28Zm34.35,23.64a.34.34,0,0,1-.37.19l-4.62-.66-.15,0-.14.05-.83.17a59.54,59.54,0,0,1-25.42-.15l-.14,0-.17-.05-4.51.65a.36.36,0,0,1-.38-.19.35.35,0,0,1,.07-.42l2.7-2.69v-.46a1.76,1.76,0,0,1,0-.23l1.73-17.74,4.27.65.87.12h0l1,.1h0c2.05.19,4.64.27,7.23.27h1.37l1.09,0h.17l1,0h.22l.93,0h.29l.81-.05.36,0,.67,0,.48-.05.46,0,.85-.11,5.2-.76,2.15,17.79a1.77,1.77,0,0,1,0,.23V555l2.71,2.72a.35.35,0,0,1,.07.42Zm0,0" transform="translate(-939 -520.79)"/></svg>