<svg id="Слой_2" data-name="Слой 2" xmlns="http://www.w3.org/2000/svg" viewBox="0 0 58.61 51.45"><defs><style>.cls-1,.cls-2{fill:none;stroke:#96c93d;stroke-width:2px;}.cls-1{stroke-miterlimit:10;}.cls-2{stroke-linejoin:round;}.cls-3{fill:#96c93d;}</style></defs><title>mushrooms</title><ellipse class="cls-1" cx="21.12" cy="13.75" rx="20.12" ry="12.75"/><path class="cls-2" d="M942.72,795.64h15.41v14.05a10.57,10.57,0,0,1-7.57,2.86,13.13,13.13,0,0,1-7.84-2.32Z" transform="translate(-929.44 -766)"/><path class="cls-3" d="M976.38,784.16c.84.75,1.63,1.51,2.36,2.27,2.14,2.21,7.81,8.08,7.28,12.32-.51,4-4.4,6.24-7.8,6.24a7.88,7.88,0,0,1-2-.26,23.09,23.09,0,0,1-10.55-7c-.14-.19-.34-.43-.58-.71,2.83-.58,6.54-1.89,9-5.22a12.87,12.87,0,0,0,2.35-7.65m-2.51-4.71c3.68,17.18-13.65,15.69-12.88,16.19a32.18,32.18,0,0,1,3.06,3.3,24.92,24.92,0,0,0,11.64,7.72,9.81,9.81,0,0,0,2.53.33c4.6,0,9.16-3.09,9.78-8s-4.61-10.64-7.82-14a50.65,50.65,0,0,0-4.87-4.39,3.18,3.18,0,0,0-1.44-1.2Z" transform="translate(-929.44 -766)"/><path class="cls-2" d="M961.81,800.39l7.32,7.41s-1.55,13.48-12.46,6.79C956.67,814.59,965.46,810.92,961.81,800.39Z" transform="translate(-929.44 -766)"/></svg>