<svg data-name="Слой 1" xmlns="http://www.w3.org/2000/svg" width="24" height="24"><path d="M17.38 0H6.62A6.63 6.63 0 0 0 0 6.62v10.75A6.64 6.64 0 0 0 6.62 24h10.76A6.64 6.64 0 0 0 24 17.37V6.62A6.63 6.63 0 0 0 17.38 0zm4.49 17.37a4.5 4.5 0 0 1-4.49 4.5H6.62a4.5 4.5 0 0 1-4.49-4.5V6.62a4.5 4.5 0 0 1 4.49-4.5h10.76a4.5 4.5 0 0 1 4.49 4.5zm0 0"/><path d="M12 5.81A6.19 6.19 0 1 0 18.18 12 6.19 6.19 0 0 0 12 5.81zm0 10.24a4.06 4.06 0 1 1 4.06-4 4.06 4.06 0 0 1-4.06 4zm6.44-12.04a1.56 1.56 0 0 0-1.1.45 1.59 1.59 0 0 0-.46 1.11 1.57 1.57 0 0 0 3.12 0 1.59 1.59 0 0 0-.46-1.11 1.57 1.57 0 0 0-1.11-.45zm0 0"/></svg>