<svg width="38" height="35" viewBox="0 0 38 35" fill="none" xmlns="http://www.w3.org/2000/svg">
<g clip-path="url(#clip0)">
<g filter="url(#filter0_d)">
<path d="M33.6026 3.21652C32.1586 2.43898 30.548 3.93852 29.6038 4.82713C27.4379 6.9376 25.6051 9.38129 23.5501 11.6028C21.273 14.0465 19.1626 16.4902 16.8299 18.8785C15.497 20.2114 14.053 21.6554 13.1644 23.3216C11.165 21.3776 9.4433 19.2672 7.22178 17.5456C5.61117 16.3237 2.94532 15.4351 3.00085 18.3786C3.11193 22.2109 6.49978 26.3207 8.99902 28.9309C10.0542 30.0417 11.4427 31.208 13.0533 31.2636C14.9972 31.3746 16.9966 29.042 18.1629 27.7646C20.2179 25.5431 21.884 23.0438 23.7723 20.7668C26.216 17.7677 28.7152 14.8241 31.1034 11.7695C32.6029 9.88114 37.3237 5.21581 33.6026 3.21652Z" fill="#824DFF"/>
</g>
</g>
<defs>
<filter id="filter0_d" x="-2" y="-2" width="42" height="38.2674" filterUnits="userSpaceOnUse" color-interpolation-filters="sRGB">
<feFlood flood-opacity="0" result="BackgroundImageFix"/>
<feColorMatrix in="SourceAlpha" type="matrix" values="0 0 0 0 0 0 0 0 0 0 0 0 0 0 0 0 0 0 127 0"/>
<feOffset/>
<feGaussianBlur stdDeviation="2.5"/>
<feColorMatrix type="matrix" values="0 0 0 0 0 0 0 0 0 0 0 0 0 0 0 0 0 0 0.5 0"/>
<feBlend mode="normal" in2="BackgroundImageFix" result="effect1_dropShadow"/>
<feBlend mode="normal" in="SourceGraphic" in2="effect1_dropShadow" result="shape"/>
</filter>
<clipPath id="clip0">
<rect width="38" height="35" fill="white"/>
</clipPath>
</defs>
</svg>
