<svg width="24" height="19" fill="none" xmlns="http://www.w3.org/2000/svg"><path d="M21 13.153H8.51L3.26 1.462H0V0h4.24l5.252 11.692H21v1.461zm-7.5 3.655c0 1.21-1.008 2.192-2.25 2.192S9 18.018 9 16.808c0-1.21 1.007-2.193 2.25-2.193 1.242 0 2.25.982 2.25 2.193zm7.5 0C21 18.018 19.992 19 18.75 19s-2.25-.982-2.25-2.192c0-1.21 1.008-2.193 2.25-2.193s2.25.982 2.25 2.193z" fill="#fff"/><path d="M23.4 4.385l.6-1.462H7.5l.6 1.462h15.3zM9.9 8.77l.6 1.46H21l.6-1.46H9.9zm12.9-2.924H8.7l.6 1.462h12.9l.6-1.462z" fill="#fff"/></svg>