<svg width="21" height="22" fill="none" xmlns="http://www.w3.org/2000/svg"><path d="M16.103 5.67c.298 0 .382-.432.113-.563L5.737.12C5.1-.186 4.349.12 4.064.809L.394 9.64c-.284.684 0 1.49.642 1.796l2.114.982c.264.126.566-.081.566-.392v-3.75c0-1.436 1.086-2.602 2.424-2.602h9.963V5.67z" fill="#fff"/><path d="M18.845 6.895H6.135c-.709 0-1.283.616-1.283 1.377v9.64c0 .76.574 1.378 1.283 1.378H7.84a5.365 5.365 0 0 1 .017-1.747H6.483v-4.615H18.5v4.61h-1.38a5.369 5.369 0 0 1 .017 1.747h1.707c.708 0 1.283-.617 1.283-1.378V8.272c0-.76-.575-1.377-1.283-1.377zm-.344 3.192H6.483V8.642H18.5v1.445z" fill="#fff"/><path d="M12.493 14.922c-1.82 0-3.296 1.585-3.296 3.54 0 1.953 1.476 3.538 3.296 3.538 1.82 0 3.296-1.585 3.296-3.539 0-1.954-1.476-3.539-3.296-3.539zm.948 4.935a1.038 1.038 0 0 1-.55.378c-.096.027-.138.081-.134.19.005.103 0 .206 0 .314 0 .095-.046.144-.13.144-.104.005-.21.005-.314 0-.092 0-.134-.058-.134-.153v-.23c0-.166-.009-.175-.16-.202a1.875 1.875 0 0 1-.557-.17c-.139-.073-.155-.109-.114-.267.03-.117.06-.234.093-.346.037-.135.071-.149.188-.086.197.108.403.171.621.198a.707.707 0 0 0 .407-.058c.243-.113.28-.414.075-.595a.837.837 0 0 0-.23-.144c-.214-.099-.437-.175-.634-.306-.327-.207-.532-.495-.507-.923.025-.482.281-.779.692-.94.168-.068.172-.064.172-.253v-.194c.004-.143.025-.166.16-.17h.12c.286 0 .286 0 .286.306 0 .216 0 .216.201.247.151.027.298.072.44.14.08.036.11.094.084.184-.033.131-.067.266-.109.392-.037.122-.075.14-.184.086a1.304 1.304 0 0 0-.696-.149.524.524 0 0 0-.185.04c-.21.1-.247.352-.067.505.092.076.193.135.302.184.189.082.373.163.554.27.553.33.708 1.09.31 1.608z" fill="#fff"/></svg>