<svg width="30" height="30" fill="none" xmlns="http://www.w3.org/2000/svg"><path d="M11.118 22.61l1.469-1.468a11.417 11.417 0 0 0 14.071-1.639c4.456-4.455 4.456-11.706 0-16.161-4.455-4.456-11.706-4.456-16.161 0-3.813 3.812-4.352 9.667-1.639 14.07l-1.469 1.47 3.73 3.729zm1.865-16.782c3.085-3.086 8.104-3.086 11.19 0 3.085 3.084 3.085 8.104 0 11.19-3.085 3.083-8.105 3.084-11.19 0-3.086-3.086-3.086-8.106 0-11.19zM6.146 20.125l3.73 3.729L3.728 30 0 26.27l6.146-6.145z" fill="#1A1A1D"/><path d="M22.929 15.774a6.114 6.114 0 0 0 1.798-4.352 6.113 6.113 0 0 0-1.798-4.351 6.16 6.16 0 0 0-8.703 0 6.16 6.16 0 0 0 0 8.703c2.32 2.32 6.383 2.32 8.703 0zm-7.246-4.973l2.015 2.015 3.774-3.773 1.243 1.243-5.017 5.017-3.258-3.26 1.243-1.242z" fill="#1A1A1D"/></svg>