<svg width="20" height="21" fill="none" xmlns="http://www.w3.org/2000/svg"><path d="M10 7.61a3.371 3.371 0 0 0-3.373 3.372c0 1.864 1.51 3.388 3.373 3.388a3.371 3.371 0 0 0 3.373-3.373A3.365 3.365 0 0 0 10 7.609z" fill="#ED0035"/><path d="M14.482.982H5.518A5.518 5.518 0 0 0 0 6.5v8.964a5.518 5.518 0 0 0 5.518 5.518h8.964A5.518 5.518 0 0 0 20 15.464V6.5A5.518 5.518 0 0 0 14.482.982zM10 16.145a5.152 5.152 0 0 1-5.148-5.148A5.152 5.152 0 0 1 10 5.849a5.152 5.152 0 0 1 5.148 5.148c.015 2.84-2.293 5.148-5.148 5.148zm6.302-9.6a1.304 1.304 0 0 1-1.835 0 1.304 1.304 0 0 1 0-1.835 1.304 1.304 0 0 1 1.835 0c.236.237.384.577.384.917-.014.34-.148.68-.384.917z" fill="#ED0035"/></svg>