<svg width="25" height="28" fill="none" xmlns="http://www.w3.org/2000/svg"><path d="M6.05 18.126c0-.46-.347-.733-.957-.733-.298 0-.506.254-.506.553v.554c0 .24.17.44.41.44.65 0 1.052-.302 1.052-.814zm3.775-.718c-.325 0-.554.276-.554.601v2.282c0 .25.177.45.426.45 1.108.007 1.83-.556 1.83-1.748.009-1.037-.65-1.585-1.702-1.585z" fill="#fff"/><path d="M18.563 1.904A6 6 0 0 0 14.502.321h-9.71c-1.76 0-3.193 1.323-3.193 2.946v10.58c0 .172-.14.312-.312.312-.71 0-1.287.53-1.287 1.186v7.199c0 .655.576 1.186 1.287 1.186.172 0 .312.14.312.312v1.008c0 1.625 1.432 2.946 3.192 2.946h16.441c1.76 0 3.192-1.321 3.192-2.946V9.927a6 6 0 0 0-1.94-4.417l-3.922-3.606zm-15.188 16.4c0-.956.7-1.763 1.654-1.763.755 0 1.293.133 1.654.4.345.252.578.667.578 1.155 0 .489-.176.904-.497 1.186-.418.362-1.036.525-1.759.525-.222 0-.418.175-.418.397v.76a.606.606 0 0 1-1.212 0v-2.66zm17.857 7.888H4.792c-.682 0-1.237-.512-1.237-1.142 0-.729.59-1.32 1.32-1.32H18.88c.71 0 1.287-.53 1.287-1.186v-7.199c0-.655-.576-1.187-1.287-1.187H9.555a6 6 0 0 1-6-6v-4.89c0-.628.555-1.14 1.236-1.14l7.459-.007a3.855 3.855 0 0 1 3.86 3.855c0 1.127.99 2.043 2.213 2.043a4.098 4.098 0 0 1 4.11 4.087l.035 12.945c0 .63-.554 1.142-1.236 1.142zm-11.8-4.57c-.795 0-1.39-.672-1.39-1.466v-1.853c0-.953.702-1.762 1.655-1.762 1.027 0 1.694.17 2.216.533.562.386.915 1 .915 1.882 0 .955-.377 1.615-.9 2.022-.57.437-1.437.644-2.496.644zm6.914-2.977a.46.46 0 0 1 0 .918h-.512a.972.972 0 0 0-.972.972v.421a.614.614 0 0 1-1.228 0v-2.724c0-.913.74-1.654 1.654-1.654h1.191a.463.463 0 0 1 0 .926h-1.046a.57.57 0 0 0 0 1.14h.913z" fill="#fff"/></svg>