<svg width="30" height="30" fill="none" xmlns="http://www.w3.org/2000/svg"><path d="M24.242 19.77c-1-.445-.279-1.578-.087-2.278a9.54 9.54 0 0 0-.109-5.379 9.596 9.596 0 0 0-5.355-5.876 9.531 9.531 0 0 0-8.163.374 9.59 9.59 0 0 0-4.813 6.41 9.536 9.536 0 0 0 .306 5.04c.205.596.54 1.375-.262 1.71h-.001l-4.262 1.767a15.027 15.027 0 0 0 2.898 4.065A14.895 14.895 0 0 0 15 30c4.007 0 7.774-1.562 10.607-4.397a15.036 15.036 0 0 0 2.898-4.066l-4.262-1.766h-.001zM15 12.438c.12 0 .237.008.352.024l2.02-3.78a.879.879 0 1 1 1.55.829l-2.02 3.782a2.54 2.54 0 0 1 .646 1.694A2.551 2.551 0 0 1 15 17.537a2.551 2.551 0 0 1-2.547-2.55A2.551 2.551 0 0 1 15 12.437zm6.086 11.618a.88.88 0 0 1-.88.88H9.795a.88.88 0 0 1-.879-.88v-3.66a.88.88 0 0 1 .879-.88h10.413a.88.88 0 0 1 .879.88v3.66z" fill="#1A1A1D"/><path d="M10.672 21.276h8.655v1.9h-8.655v-1.9zM15 15.777a.79.79 0 1 0-.003-1.581.79.79 0 0 0 .002 1.58zm10.696 2.692l3.481 1.443A15.06 15.06 0 0 0 30 14.987c0-2.715-.716-5.32-2.056-7.598l-3.165 2.116c1.487 2.666 1.914 5.91.917 8.964zM19.349 4.605a11.13 11.13 0 0 1 4.46 3.433l3.155-2.11a15.264 15.264 0 0 0-1.357-1.557A14.884 14.884 0 0 0 15.879 0v3.776a10.95 10.95 0 0 1 3.47.83zm-5.229-.817V0a14.884 14.884 0 0 0-9.727 4.37 15.256 15.256 0 0 0-1.357 1.558L6.17 8.024c1.963-2.474 4.887-3.976 7.95-4.236zM5.191 9.485L2.057 7.389A14.932 14.932 0 0 0 0 14.987c0 1.703.282 3.362.823 4.925l3.481-1.443c-.97-2.971-.633-6.27.887-8.984z" fill="#1A1A1D"/></svg>