<svg width="23" height="26" fill="none" xmlns="http://www.w3.org/2000/svg"><path fill-rule="evenodd" clip-rule="evenodd" d="M18.65.243a.747.747 0 0 1 1.037.037l3.092 3.206a.79.79 0 0 1 .089.987c-1.777 2.724-2.099 5.859-.904 8.832.628 1.562 1.149 3.477.23 5.874-.848 2.149-2.365 3.456-4.54 3.892-2.548.53-4.28 1.355-5.597 2.694a.785.785 0 0 1-1.095.023l-.008-.008C9.631 24.426 7.9 23.6 5.326 23.071c-2.083-.42-3.57-1.65-4.427-3.658-.812-1.962-.781-3.83.122-6.103 1.21-2.979.889-6.108-.888-8.837a.793.793 0 0 1 .088-.988L3.284.292A.775.775 0 0 1 4.351.243c.015.016 1.532 1.37 3.31 1.37 1.792 0 3.308-1.4 3.324-1.416a.774.774 0 0 1 1.02-.01l.011.01c.015.015 1.532 1.416 3.31 1.416 1.792 0 3.308-1.354 3.324-1.37zM16.638 15.47a.93.93 0 0 1 .477-.133c.527 0 .954.431.96.97 0 .538-.433.97-.96.97a.965.965 0 0 1-.96-.97.123.123 0 0 0-.107-.12l-2.34-.26a.796.796 0 0 0-.828.481l-.953 2.18c-.019.05 0 .114.05.146a.966.966 0 0 1 .483.836c0 .539-.433.97-.96.97a.965.965 0 0 1-.96-.97c0-.355.195-.671.484-.836a.112.112 0 0 0 .05-.146l-.954-2.18a.808.808 0 0 0-.828-.481l-2.34.26a.118.118 0 0 0-.107.12c0 .538-.432.97-.96.97a.965.965 0 0 1-.96-.97c0-.539.434-.97.96-.97a.93.93 0 0 1 .477.133c.05.032.113.02.15-.031l1.394-1.92a.834.834 0 0 0 0-.97l-1.393-1.92a.11.11 0 0 0-.15-.031.93.93 0 0 1-.477.133.965.965 0 0 1-.96-.97c0-.538.433-.97.96-.97.533 0 .96.438.96.97 0 .057.05.108.106.114l2.34.26a.796.796 0 0 0 .828-.481l.954-2.18a.124.124 0 0 0-.05-.146.966.966 0 0 1-.483-.836c0-.539.432-.97.96-.97.533 0 .96.437.96.97a.966.966 0 0 1-.484.836.112.112 0 0 0-.05.146l.953 2.18c.138.323.477.52.829.481l2.34-.26a.116.116 0 0 0 .106-.114c0-.538.433-.97.96-.97.533 0 .96.438.96.97 0 .539-.433.97-.96.97a.93.93 0 0 1-.477-.133.109.109 0 0 0-.15.031l-1.393 1.92a.834.834 0 0 0 0 .97l1.393 1.92c.031.05.1.063.15.031z" fill="#A6A9B0"/></svg>