<svg width="38" height="26" fill="none" xmlns="http://www.w3.org/2000/svg"><path fill-rule="evenodd" clip-rule="evenodd" d="M27.525 20.08c-.016.049-.031.097-.063.16a1.42 1.42 0 0 1 .132-.208c.083-.115.171-.227.243-.348l.002-.003c.13-.218.37-.336.555-.51.051-.048.099-.096.147-.144a.444.444 0 0 1 .17-.176.868.868 0 0 1 .31-.115c.064-.011.125-.02.186-.029.093-.013.185-.026.287-.05.041-.008.103-.01.14.012.046.028.056.067.093.107.049.052.098.03.146-.069a.975.975 0 0 1 .413-.346c.062-.028.13-.039.19-.069.032-.016.063-.032.095-.032.063 0 .19 0 .317.064.092.046.084.092.073.162-.004.027-.01.058-.01.093v.128c0-.032.017-.064.032-.096.016-.032.032-.063.032-.095a.49.49 0 0 1 .03-.13c.044-.135.162-.222.291-.284a4.37 4.37 0 0 0 .522-.277c.058-.037.137-.018.161.046.028.075.116.071.162.006.101-.142.224-.3.35-.438.045-.048.108-.076.166-.105a.224.224 0 0 1 .095-.032c.167 0 .335 0 .46-.087a.198.198 0 0 1 .111-.04c.04 0 .078.017.111.04.083.06.14.028.223-.016a.212.212 0 0 1 .1-.025h.074c.063 0 .063.064.063.128 0 .058.062.096.109.06.162-.122.198-.283.145-.443-.061-.185-.122-.429.043-.618.013-.014.023-.033.015-.05a.055.055 0 0 0-.021-.024c-.018-.012-.041-.047-.058-.06-.022-.018-.027-.045-.015-.071a.216.216 0 0 0 .02-.062.337.337 0 0 0-.027-.14.406.406 0 0 1-.02-.125c0-.091.095-.182.196-.25.078-.051.165-.085.253-.114l.388-.13a.225.225 0 0 0 .13-.114l.365-.734a.174.174 0 0 1 .145-.105c.118-.011.215.084.3.169a.195.195 0 0 0 .042.033c.095.053.183-.115.274-.176.091-.062.181-.03.29-.018l.042.005c.094.01.189.019.266.062.08.045.13.133.204.186.05.035.11.062.171.05a.163.163 0 0 0 .076-.046.412.412 0 0 1 .295-.121c.079 0 .149-.073.128-.15a1.016 1.016 0 0 0-.075-.208 1.312 1.312 0 0 0-.07-.122c-.049-.08-.152-.218-.064-.252a.199.199 0 0 1 .07-.01c.127 0 .19-.127.127-.255-.042-.13-.056-.2-.003-.252.07-.069.226-.042.225-.14 0-.097-.131-.153-.197-.225a.693.693 0 0 1-.215-.533.305.305 0 0 0-.125-.254c-.077-.057-.16-.13-.256-.13.035 0 .064-.028.059-.063a1.338 1.338 0 0 0-.022-.114c-.031-.138.155-.232.163-.372a.6.6 0 0 0 .001-.023c.004-.098.104-.127.2-.134a.692.692 0 0 0 .14-.024c.064-.018.118-.06.171-.1.057-.043.113-.085.113-.128 0-.04-.024-.079-.058-.133l-.01-.018c-.031-.05-.116-.04-.122.018-.002.017-.005.013-.015.027-.117.17-.183.165-.366.042a1.365 1.365 0 0 1-.362-.236.128.128 0 0 1-.024-.053c-.015-.05.008-.108.058-.12l.06-.015c.179-.045.343-.086.52-.04.03.007.129-.08.129-.11v-.096a.32.32 0 0 1 .053-.176l.18-.274c.063-.094-.004-.259-.09-.334a.246.246 0 0 0-.037-.026.353.353 0 0 1-.17-.308c0-.128.127-.128.19-.128.064 0 .127-.064.127-.128a.105.105 0 0 0-.022-.06c-.18-.249-.593-.141-.866-.004-.206.104-.214-.32-.424-.415a.52.52 0 0 0-.21-.032h-.068a.31.31 0 0 1-.113-.025.286.286 0 0 0-.044-.013c-.11-.024-.235.054-.315-.026a.848.848 0 0 0-.108-.097c-.032-.023-.05-.027-.074-.058-.033-.046-.05-.13-.08-.176-.017-.025-.031-.033-.054-.03-.069.012-.12.068-.18.106-.065.042-.15.085-.234.127a.406.406 0 0 0-.04-.171c-.012-.03-.065-.047-.095-.035-.04.015-.08.015-.118.015-.19 0-.318-.128-.318-.256v-.038a.09.09 0 0 0-.09-.09.111.111 0 0 0-.065.025.213.213 0 0 1-.052.03c-.029.01-.058-.004-.082-.022a.198.198 0 0 0-.038-.025c-.09-.042-.237-.065-.307-.135a.33.33 0 0 0-.095-.064c-.066-.033-.148-.07-.194-.012a.124.124 0 0 0-.029.076c0 .32-.19.447-.507.32a1.205 1.205 0 0 1-.106-.064c-.096-.061-.2-.129-.338-.129h-.062c-.142-.005-.218-.133-.312-.24-.154-.178-.277-.481-.444-.647a.317.317 0 0 1-.007-.007c-.064-.064-.064-.128-.064-.192v-.038a.09.09 0 0 0-.09-.09.103.103 0 0 0-.064.026 1.331 1.331 0 0 1-.1.07 1.963 1.963 0 0 0-.07.05c-.038.027-.087.045-.12.078-.034.035-.087.039-.135.047a2.43 2.43 0 0 1-.159.02 1.887 1.887 0 0 0-.184.023c-.268.05-.42.33-.664.453-.265.107-.22-.01-.161-.162.011-.03-.023-.057-.053-.044-.109.049-.17.016-.252-.027l-.042-.022c-.099-.05-.12-.022-.156.023a.555.555 0 0 1-.02.026.1.1 0 0 1-.032.024c-.06.03-.134.005-.179-.045-.018-.021-.038-.04-.057-.06a.626.626 0 0 1-.127-.16c-.063-.128-.127-.192-.254-.192-.04 0-.087.007-.135.014-.098.013-.204.028-.288-.004a.125.125 0 0 0-.044-.01.122.122 0 0 0-.071.027c-.021.016-.043.026-.065.037-.031.016-.063.032-.095.064-.028.028-.043.069-.057.105-.028.07-.113.11-.181.08-.094-.044-.206-.142-.206-.185 0-.086 0-.202-.059-.268-.062-.07-.195-.086-.195-.179 0-.075-.022-.128-.04-.172a.23.23 0 0 1-.023-.084c0-.127 0-.191.127-.191.079 0 .109-.025.104-.059-.006-.052-.08-.06-.097-.11a.817.817 0 0 0-.066-.158c-.012-.034-.02-.07-.04-.102a.222.222 0 0 1-.008-.013c-.022-.041-.04-.088-.063-.128-.017-.03-.035-.066-.053-.101a.7.7 0 0 0-.095-.16c-.063-.064-.095-.096-.095-.127 0-.032.032-.064.095-.128.068-.068.033-.192-.063-.192-.19 0-.317-.064-.317-.32a.412.412 0 0 0-.04-.17c-.019-.046-.063-.085-.112-.085h-.03c-.044 0-.08-.034-.122-.051-.04-.016-.09.006-.133.027l-.01.004a.361.361 0 0 0-.107.066.144.144 0 0 1-.04.03c-.21.098-.327.06-.353-.077-.006-.034-.034-.063-.069-.063-.031 0-.047.016-.063.032-.034.034-.086.02-.13 0a1.138 1.138 0 0 0-.247-.078c-.202-.037-.59.016-.43-.112l.073-.058.042-.028c.033-.02.057-.036.057-.075 0-.106-.12-.15-.188-.232-.047-.059-.049-.116-.025-.204a.587.587 0 0 0 .023-.153.31.31 0 0 0-.064-.207 1.33 1.33 0 0 0-.063-.067.689.689 0 0 1-.11-.13c-.012-.019-.04-.054-.052-.073-.036-.06.005-.11.07-.135a.946.946 0 0 1 .187-.045c.2-.033.5-.174.401-.35a.314.314 0 0 0-.052-.065.661.661 0 0 1-.036-.041.362.362 0 0 0-.192-.14.322.322 0 0 1-.152-.075l-.074-.074a.62.62 0 0 1-.18-.437.805.805 0 0 0-.032-.191c-.014-.058-.029-.116-.031-.173 0-.01.008-.019.018-.019.016 0 .025-.02.014-.032a1.868 1.868 0 0 1-.162-.207 1.077 1.077 0 0 0-.22-.25.606.606 0 0 1-.059-.05.838.838 0 0 0-.165-.13c-.036-.021-.08-.012-.114.012a.307.307 0 0 1-.228.058c-.042-.005-.102.073-.1.115 0 .022-.018.037-.04.035-.115-.011-.13-.074-.143-.136a.19.19 0 0 0-.04-.094c-.012-.014-.03-.002-.03.016a.024.024 0 0 1-.025.023c-.066-.004-.131-.023-.186-.039a2.597 2.597 0 0 0-.03-.009c-.049-.013-.097.008-.144.026a.419.419 0 0 1-.113.021c-.041.003-.077.037-.106.066-.016.016-.032.032-.032.064a.034.034 0 0 0-.053-.028c-.144.096-.285.19-.395.252a.25.25 0 0 1-.127.031.543.543 0 0 1-.198-.03c-.038-.016-.07-.043-.106-.062-.104-.056-.238-.127-.375-.115-.04.003-.1-.016-.136-.002-.043.017-.086-.003-.126-.025a.147.147 0 0 0-.07-.021c-.023 0-.038.031-.029.053a.46.46 0 0 1 .029.166c0 .02-.016.036-.037.036-.016 0-.03.01-.035.026l-.156.473a.111.111 0 0 1-.106.076h-.025a.045.045 0 0 0-.036.016.359.359 0 0 0-.005.008c-.026.033-.101.06-.14.04-.037-.019-.095.01-.095.052v.02c0 .031-.026.055-.05.036a.352.352 0 0 1-.062-.065c-.031-.037-.062-.075-.098-.083-.061-.015-.17-.024-.17-.087 0-.128-.064-.128-.127-.128a.449.449 0 0 0-.107.024c-.062.018-.136.04-.21.04-.11 0-.22 0-.33-.013-.164-.018-.432-.152-.432.013 0 .115-.18.083-.258-.003a.17.17 0 0 0-.133-.061h-.25a.07.07 0 0 0-.068.056c-.041.212-.057.292-.148.317-.05.015-.095.053-.095.106v.05c0 .026-.02.046-.045.046a.045.045 0 0 0-.031.013l-.109.11c-.045.045-.076.102-.11.156a.869.869 0 0 1-.09.114c-.063.071-.122.139-.122.246 0 .031-.032.08-.064.127a1.119 1.119 0 0 0-.136.283c-.02.06-.016.136.041.164.02.01.041.021.062.036.02.014.02.043.002.06a.337.337 0 0 1-.094.063c-.016.008-.015.052-.002.065.029.029.06.067.032.096a.285.285 0 0 0-.01.011c-.026.028.016.088.05.103a.141.141 0 0 1 .09.094c.029.077.029.126.029.175v.077c0 .073-.03.146-.096.179-.065.033-.14.075-.209.05a.204.204 0 0 1-.076-.05c-.032-.032-.08-.064-.127-.096a.874.874 0 0 1-.127-.096c-.038-.038-.007-.077.023-.115.02-.025.04-.051.04-.077a.064.064 0 0 0-.063-.063h-.045a.12.12 0 0 1-.108-.078c-.098-.24-.27-.235-.444-.229a1.097 1.097 0 0 1-.176-.003c-.032-.004-.085.027-.099.057-.021.046-.058.06-.11.06h-.16c-.055 0-.11-.046-.164-.1a.09.09 0 0 1-.026-.064.09.09 0 0 0-.091-.09h-.062c-.056 0-.108.045-.133.095-.017.034-.082.055-.115.038a2.243 2.243 0 0 0-.012-.006c-.038-.019-.095.01-.095.051v.013c0 .047-.068.083-.114.074-.052-.01-.105-.01-.14-.01a.124.124 0 0 0-.044.009c-.06.023-.124.051-.158-.003-.03-.05-.068-.096-.084-.151a.395.395 0 0 1 .008-.243.382.382 0 0 0 .024-.123.413.413 0 0 0-.068-.18c-.033-.052-.094-.071-.155-.082a.392.392 0 0 1-.024-.005c-.083-.021-.17-.006-.197.075-.029.088-.116.122-.207.132-.11.012-.158.058-.302.237-.036.045-.028.108-.008.161a.159.159 0 0 1 .006.02c.004.016-.003.032-.015.044a.062.062 0 0 1-.09 0 .811.811 0 0 1-.125-.171c-.014-.026-.034-.05-.043-.077-.013-.043 0-.098.01-.146.01-.04-.02-.074-.057-.092l-.026-.012a1.008 1.008 0 0 0-.023-.012c-.038-.017-.062.018-.085.052a.153.153 0 0 1-.014.018.05.05 0 0 1-.073 0l-.013-.012a.045.045 0 0 0-.077.031.045.045 0 0 1-.013.032l-.024.024c-.05.05-.152.055-.153-.015v-.022a.141.141 0 0 0-.051-.103c-.075-.068-.057-.118-.036-.178.02-.055-.025-.103-.083-.102-.148.005-.168.03-.269.182a.111.111 0 0 1-.013.017.144.144 0 0 1-.131.031 1.085 1.085 0 0 0-.066-.01.369.369 0 0 1-.168-.052c-.069-.05-.1-.166-.184-.15a.305.305 0 0 0-.152.096.103.103 0 0 0-.031.08c.004.087.037.17.01.253a.495.495 0 0 0-.032.127c0 .02-.012.034-.028.043-.05.028-.106-.024-.13-.074-.03-.06-.017-.128-.002-.194.053-.243-.114-.352-.334-.41a.112.112 0 0 0-.029-.003.094.094 0 0 0-.08.037c-.013.02-.022.04-.032.058-.022.046-.076.03-.11-.009-.04-.047-.095-.026-.163 0-.027.01-.056.022-.087.03-.038.01-.063-.03-.043-.063a.91.91 0 0 1 .115-.145c.018-.019-.002-.044-.023-.03-.07.042-.133-.008-.133-.089v-.197a.06.06 0 0 0-.09-.053c-.075.043-.134.077-.227.077-.086 0-.143 0-.19-.02a.72.72 0 0 1-.134-.077c-.028-.02-.06-.043-.1-.047-.057-.007-.138.01-.184-.024-.031-.024-.034-.043-.06-.072a.307.307 0 0 0-.133-.087c-.138-.047-.35.129-.398-.01a.143.143 0 0 1-.007-.046c0-.192-.127-.192-.254-.128s-.317-.064-.38-.191l-.026-.05C8.148.717 7.979.82 7.852.786a.258.258 0 0 1-.111-.065C7.683.668 7.656.582 7.578.57a.4.4 0 0 0-.193.033.774.774 0 0 1-.624-.02c-.17-.078-.336-.24-.509-.169a.742.742 0 0 0-.048.022c-.35.176-.698.19-1.048.093a1.19 1.19 0 0 0-.193-.036c-.115-.012-.249-.026-.346.071-.031.032-.067.06-.103.088-.086.068-.173.135-.203.26-.013.054.028.125-.022.15-.023.012-.063.024-.083.042-.057.05-.124.09-.191.131-.08.048-.159.096-.222.16-.088.088-.12-.102-.222-.173-.046-.032-.101-.027-.159-.023a.756.756 0 0 1-.064.004h-.38c.033 0 .049.018.056.044.015.052.052.13.066.182.01.039-.009.047-.025.084-.047.11-.023.22.001.329.01.042.02.085.024.127a.134.134 0 0 1-.041.11.172.172 0 0 1-.04.03c-.097.052-.144.104-.037.156.038.019.095.031.11.071.02.057-.005.108-.023.166-.024.074-.012.122.036.17.04.042.082.083.14.107.04.017.069.079.05.117a.12.12 0 0 0 .04.145c.08.053.11.123.075.198-.023.052-.053.107-.021.155.024.036.06.073.096.109.027.026.042.053.06.084.014.024.03.05.053.083.045.06.088.13.141.184.055.055.047.162-.03.152a.315.315 0 0 1-.089-.031c-.038-.018-.087-.058-.126-.043h-.003c-.037.015-.07.05-.07.09v.032a.1.1 0 0 0 .012.045c.031.06.073.131.116.202.073.123 0 .299.026.439a.41.41 0 0 0 .017.057c.011.032.035.058.052.088.026.048.004.087-.095.087-.043 0-.057.03-.062.087a.336.336 0 0 1-.072.183.97.97 0 0 0-.145.26c-.019.05-.087.069-.134.045-.068-.034-.125-.089-.193-.124-.088-.044-.144-.04-.207.026-.057.058-.067.145-.1.219a.3.3 0 0 1-.035.06c-.039.052-.105.077-.163.107-.06.03-.128.024-.195.013-.233-.041-.295-.009-.408.274-.063.192-.19.32-.38.447a.584.584 0 0 0-.195.184.715.715 0 0 0-.088.16.45.45 0 0 1-.415.295c-.032 0-.048.016-.064.032-.033.033-.082.05-.113.086-.156.178-.24.398-.033.57.012.01.02.024.02.039a.05.05 0 0 1-.04.048c-.263.057-.332.123-.34.377a2.547 2.547 0 0 1-.01.123c-.03.304.107.483.264.688l.062.081c.254.32.254.384-.127.512-.317.063-.444.383-.317.702.02.06.04.12.061.178.09.242.324.421.366.676a.45.45 0 0 1-.093.337l-.036.044a.138.138 0 0 0-.024.046c-.033.117.17.196.17.316 0 .15.065.277.131.407.048.094.096.19.123.296.057.172.215.292.385.407.038.027.084.04.13.04.037 0 .072-.01.107-.02a.384.384 0 0 1 .393.084c.096.097.263.008.392.054a.324.324 0 0 1 .116.074.48.48 0 0 0 .253.128h.064c.177.003.328.18.503.15.047-.007.089-.044.16-.115.022-.022.038-.076.066-.091.03-.015.045.005.068.028.082.085.143.164.028.2-.101.031-.212.12-.168.217.021.046.074.063.097.108l.007.014c.028.056.094.076.146.111a.49.49 0 0 1 .172.208c.063.192.19.256.38.256s.254-.128.254-.32c0-.127.064-.191.19-.191.143 0 .22-.164.358-.196a.426.426 0 0 1 .138-.001c.025.002.05.005.076.005h.634c.043 0 .092.007.141.014.099.014.198.029.24-.014.095-.096.19-.084.286-.072.063.008.126.017.188.03.103.023.147.015.193-.062.08-.135.097-.3.17-.438a.412.412 0 0 1 .395-.237c.067.002.136.01.196-.02l.013-.006c.05-.025.104-.049.151-.078.056-.035.066-.112.115-.157.049-.046.107-.046.197-.046.168 0 .207-.348.354-.266.026.015.056.04.09.074.119.12.182.128.242.023a.19.19 0 0 1 .03-.04c.029-.03.069-.049.11-.04.053.01.094.035.129.065.042.034.084.07.135.09.204.079.306.003.306-.226 0-.027.03-.043.053-.028.057.037.094.056.129.054.04-.003.08-.035.147-.101.033-.033.082-.054.115-.02.033.033.084.014.107-.027a.67.67 0 0 0 .02-.037c.027-.055.096-.052.133-.004a.563.563 0 0 0 .102.112c.088.063.165.18.273.18.047 0 .095.072.116.135a.25.25 0 0 0 .05.097.133.133 0 0 0 .055.033l.04.012c.126.039.213.065.239.202.01.052.05.095.102.095.053 0 .1.043.124.09l.003.006.013.026c.017.036.054.067.082.038.034-.033.079-.055.118-.082.02-.014.035-.014.073-.014.063 0 .063.064.063.128v.045c0 .054.081.089.135.084.033-.003.057.026.066.058l.021.069c.016.046.09.066.12.029l.033-.041c.075-.093.2-.157.305-.102l.01.006c.084.045.19-.005.275.038.041.021.06.07.083.125a.868.868 0 0 0 .031.072c.046.14.126.28.215.419.045.07.142.056.199-.004.02-.021.049-.028.072-.044l.022-.02c.015-.015.031-.031.063-.031.04 0 .054.024.075.058.013.02.028.045.052.07a.3.3 0 0 1 .052.07l.004.006c.032.052.104.06.147.103.026.026.033.052.027.079a.283.283 0 0 1-.071.125c-.034.033-.013.082.014.12a.821.821 0 0 1 .018.026.204.204 0 0 1-.006.231c-.051.083-.03.182-.044.279a.582.582 0 0 1-.093.218 1.19 1.19 0 0 0-.048.084c-.06.09-.078.167-.066.243.028.175.292.147.355.313a.689.689 0 0 1 .03.146.207.207 0 0 0 .023.078c.02.037.052.067.076.102.065.09.095.138.133.147.047.012.108-.034.262-.128a.05.05 0 0 1 .075.043v.098a.18.18 0 0 1-.022.082c-.095.176-.039.352.02.529a.055.055 0 0 1-.052.072h-.027a.045.045 0 0 0-.046.045.04.04 0 0 0 .014.031.391.391 0 0 0 .113.052l.04.013c.06.023.085.088.056.146a.227.227 0 0 0-.032.096c0 .192.063.256.19.256.096 0 .13.119.19.194.047.061.104.061.19.061 0 0 .064 0 .128.064.127.128.127.256.127.447v.567c0 .087.036.17.107.22.045.032.098.07.152.117.038.034.093.065.075.113-.011.03-.052.052-.084.042a.273.273 0 0 0-.206.012.427.427 0 0 1-.235.023.185.185 0 0 1-.146-.14 1.757 1.757 0 0 0-.058-.173c-.016-.045-.083-.045-.1 0a2.99 2.99 0 0 1-.096.217c-.026.052-.085.084-.137.057-.117-.062-.135-.181-.153-.304a3.293 3.293 0 0 0-.008-.053c-.015-.087-.112-.088-.151-.01l-.026.053c-.031.063-.118.061-.14-.006a1.782 1.782 0 0 0-.01-.03c-.011-.033-.073-.027-.093.002-.013.018-.024.033-.024.06 0 .064 0 .128-.063.192a.21.21 0 0 1-.065.045c-.065.028-.126-.039-.126-.11v-.319c0-.032-.015-.048-.031-.064-.03-.029-.076-.064-.09-.026a.058.058 0 0 0-.003.007c-.003.013-.005.025-.011.036-.029.052-.057.08-.092.094-.094.04-.214-.02-.301.033a.27.27 0 0 0-.067.058c-.083.1-.047.245-.031.373a.7.7 0 0 0 .138.365l.015.017c.023.027.047.055.067.086.019.027.032.045.018.075-.015.03-.072.04-.1.056-.184.099-.203.163-.165.299.011.04.019.082.019.125v.085a.106.106 0 0 1-.147.099c-.3-.118-.36-.05-.36.263v.127c0 .192-.064.256-.191.256a.256.256 0 0 0-.088.014.735.735 0 0 0-.316.209c-.019.023-.014.065.003.14.012.056.034.11.057.163.033.074.052.148.02.222-.025.06-.094.08-.152.05a.224.224 0 0 0-.095-.031c-.082 0-.16.043-.242.047a.195.195 0 0 1-.11-.025.135.135 0 0 0-.066-.022.09.09 0 0 0-.09.09v.013c0 .016.004.032.01.046.022.049.035.097.048.141l.015.055c.023.07.023.164.077.216.022.02.055.018.084.03.1.04.18.096.256.148a1.273 1.273 0 0 0 .276.15c.043.02.09.04.139.064.13.061.297-.004.3-.149a.134.134 0 0 1 .029-.086c.054-.078.108-.07.162-.016.1.101.147.149.188.144.033-.004.062-.042.11-.114a.067.067 0 0 1 .055-.03c.018 0 .035.008.048.019.025.02.05.033.075.045.05.026.12.01.156-.034a.257.257 0 0 1 .184-.09.205.205 0 0 0 .124-.055.165.165 0 0 1 .026-.022c.186-.121.371-.177.557.01a.3.3 0 0 1 .052.07c.034.054.1.083.153.12l.049.033c.087.059.216.115.205.22a.641.641 0 0 1-.005.038.561.561 0 0 0-.01.093c0 .072.097.062.129-.002l.098-.198a.227.227 0 0 0 .025-.117c-.007-.092-.027-.168-.042-.226a.178.178 0 0 0-.115-.116c-.004 0-.008-.002-.011-.003-.077-.023-.12-.143-.08-.212.029-.05.026-.116-.025-.142a1.04 1.04 0 0 1-.01-.006c-.065-.032-.087-.106-.075-.177a6.5 6.5 0 0 0 .04-.3c.015-.134.03-.26.059-.385a.041.041 0 0 1 .04-.032.04.04 0 0 1 .04.03c.014.056.02.118.026.182a.775.775 0 0 0 .088.341c.034.056.106.066.166.04a1.13 1.13 0 0 0 .345-.21c.064-.064.143-.128.222-.191l.014-.011c.142-.115.253-.266.394-.383.042-.035.087-.072.132-.117.031-.032.063-.08.095-.128.059-.089.142-.155.22-.227a2.4 2.4 0 0 0 .197-.212c.08-.092.175-.17.257-.26.139-.157.233-.353.32-.532.034-.073.056-.153.082-.23l.003-.009a.994.994 0 0 0 .026-.089.246.246 0 0 1 .029-.07.36.36 0 0 0 .038-.155c.002-.025.033-.038.05-.02a.028.028 0 0 0 .034.006l.072-.041a.415.415 0 0 1 .227-.078c.074 0 .158-.02.244-.04.134-.03.274-.063.39-.024.28.056.46.014.586-.214.034-.062.016-.138-.015-.2l-.006-.013c-.017-.034.026-.058.055-.033.018.015.028 0 .045-.017l.006-.006c.038-.039.089-.005.062.042l-.035.058a1.856 1.856 0 0 0-.089.162c-.021.045.013.103.057.125.054.028.105-.008.134-.061.028-.05.058-.071.095-.072.058-.003.101.047.142.088.03.03.064.058.1.088.029.023.058.048.088.075.022.02.058.014.07-.013.04-.09.058-.126.165-.073a.984.984 0 0 0 .025.013c.057.18.193.18.292.18.063 0 .11.015.159.031a.504.504 0 0 0 .136.031c.019.02.036.042.053.069.02.033.008.076-.024.098-.15.102-.224.153-.451.153a.224.224 0 0 0-.095.032c-.039.02-.063.081-.035.114.061.073.11.087.168.055a.24.24 0 0 1 .195-.027l.053.018c.036.012.073.025.117.045a.25.25 0 0 1 .073.05.28.28 0 0 0 .072.053l.07.037c.177.097.26.39.46.39.032 0 .064.016.096.032.06.03.125.051.19.068a.4.4 0 0 0 .286-.036c.069-.035.156-.07.251-.094.165-.042.342-.076.51-.048.033.006.066.01.098.013a.157.157 0 0 1 .055.014c.079.036.129.04.151-.026.014-.04.07-.07.109-.05a.307.307 0 0 1 .095.063.09.09 0 0 0 .127 0c.035-.035.092-.035.136-.011l.023.011a.33.33 0 0 1 .095.064.33.33 0 0 0 .095.064c.068.034.13.084.205.097.142.024.32.002.27-.097-.04-.126.027-.169.078-.202.024-.015.082-.018.099.005.102.143.091.313.082.463-.004.075.027.149.098.171l.053.016c.029.008.059.017.09.028.03.01.03.05 0 .061-.09.037-.299.111-.393.133a.138.138 0 0 0-.06.03c-.036.03-.076.061-.124.061h-.036a.27.27 0 0 0-.138.046c-.146.089-.463.21-.695.298l-.153.059c-.07.028-.133.074-.201.109-.068.034-.112.103-.176.144l-.05.03a.485.485 0 0 0-.09.06c-.059.055-.116.149-.196.149a.123.123 0 0 0-.053.012 3.775 3.775 0 0 1-.073.034c-.076.034-.16.072-.237.123-.077.05-.157.1-.225.162a.28.28 0 0 0-.015.014c-.08.087-.113.249-.025.328a.359.359 0 0 0 .251.094.344.344 0 0 0 .217-.07.708.708 0 0 1 .275-.093c.198-.028.341.044.483.163.14.119.25.274.402.375.041.027.084.055.123.087.037.03.086.05.119.017.016-.016.031-.032.063-.032a.417.417 0 0 0 .162-.047c.1-.045.21.004.293.076a.83.83 0 0 1 .25.383c.005.022.012.045.019.068.02.064.038.13.045.196.012.112.025.234-.07.282-.145.096-.18.193-.161.317.013.088.04.177.024.264a.316.316 0 0 1-.019.067.541.541 0 0 1-.07.11c-.12.161-.24.366-.06.457.032.016.067.03.105.044.035.013.074.011.11.024.018.006.034.022.07.059.179.18.302.247.474.201a.277.277 0 0 1 .07-.01c.058 0 .111.029.164.054.067.032.134.021.201-.005.073-.027.135-.079.208-.104l.025-.009a.316.316 0 0 0 .127-.064c.032-.031.08-.063.127-.095l.023-.015c.04-.028.102-.005.12.04.014.035.064.035.075 0 .015-.048.026-.1.036-.153a.917.917 0 0 1 .064-.224c.031-.064.079-.127.126-.191.032-.043.064-.086.091-.128.024-.038.068-.064.1-.096.034-.035.087-.04.134-.053l.054-.015c.057-.015.111-.029.159-.05.132-.058.258-.17.402-.17h.022a.328.328 0 0 0 .203-.08.354.354 0 0 1 .03-.022c.043-.027.095-.005.13.03l.053.055c.045.045.117.043.145-.014a.332.332 0 0 1 .064-.096l.272-.275a.152.152 0 0 1 .108-.045c.032 0 .08.016.128.032.02.008.042.015.062.02.035.01.07-.017.089-.048.026-.042.056-.092.002-.165a.122.122 0 0 1-.027-.071c0-.015.003-.03.012-.043.084-.12.376-.232.496-.172.048.032.1.06.15.088.094.05.187.1.256.175a.432.432 0 0 0 .298.115c.065-.006.13-.012.189-.057.043-.034.092-.065.147-.065a.19.19 0 0 1 .074.016c.047.022.085.035.123.048a.96.96 0 0 1 .123.046.025.025 0 0 0 .036-.022c0-.014.011-.024.024-.027a.336.336 0 0 0 .071-.03c.06-.03.126-.049.19-.069.032-.01.064-.018.096-.026.1-.026.127-.14.082-.233-.105-.217-.05-.393.116-.502a.117.117 0 0 0 .056-.096c0-.07.056-.127.127-.127h.038c.049 0 .088-.04.088-.09 0-.07-.08-.109-.15-.096-.063.013-.103-.01-.138-.042a.166.166 0 0 0-.067-.04c-.079-.02-.146-.02-.208-.02-.071 0-.135 0-.198-.032-.246-.124-.433-.007-.56.233a.166.166 0 0 1-.029.04.129.129 0 0 1-.11.041.96.96 0 0 1-.27-.1.083.083 0 0 1-.046-.074v-.117c0-.032-.042-.051-.07-.034-.056.035-.062.109-.082.172-.075.23-.236.34-.482.4-.043.01-.087.014-.128.028-.042.014-.084.029-.127-.014a4.46 4.46 0 0 0-.195-.181 1.75 1.75 0 0 1-.312-.33c-.381-.511-.698-.958-.889-1.533a5.974 5.974 0 0 0-.044-.107c-.11-.264-.22-.527-.01-.791a.17.17 0 0 1 .135-.06c.03 0 .06-.008.087-.021.044-.022.086-.044.125-.066.106-.06.173-.166.244-.265l.007-.01.032-.044c.067-.097.224-.162.203-.045a.482.482 0 0 1-.006.029c-.006.024.019.066.04.078.042.024.05.075.034.12a1.854 1.854 0 0 0-.022.064zm-7.615-2.01c0 .178-.095.346-.063.521.033.186.112.397.19.437.064.032.111.064.159.095.092.062.202.024.307-.013a.148.148 0 0 1 .153.03.06.06 0 0 1 .016.04c-.002.047.017.104.064.1a.345.345 0 0 0 .167-.042c.016-.01.032-.022.05-.029.084-.031.155-.074.227-.117a1.26 1.26 0 0 1 .237-.122.079.079 0 0 1 .044-.001c.045.019.002.066-.043.087a1.26 1.26 0 0 0-.2.124c-.123.089-.25.18-.41.175-.038 0-.068.029-.04.056.015.016.03.032.03.064 0-.053.045-.062.096-.064.017 0 .032.014.032.032 0 .018-.015.032-.032.036-.028.005-.062.017-.095.028a.332.332 0 0 1-.245-.026.646.646 0 0 0-.285-.07.224.224 0 0 0-.168-.064c-.027 0-.043 0-.056-.005-.058-.02-.099-.074-.156-.097a1.68 1.68 0 0 0-.074-.026 1.063 1.063 0 0 1-.133-.051c-.04-.13.008-.27-.002-.404a.504.504 0 0 0-.023-.12.479.479 0 0 1-.02-.044c-.075-.198.179-.34.273-.53zm-.19-.192c0 .032.016.048.032.064a.521.521 0 0 0 .101.085.236.236 0 0 1 .057.043.191.191 0 0 1-.19-.192zm-.07-.068c.023.003.03-.034.014-.052-.01-.011-.001-.017.006-.03.054-.103 0-.188-.056-.276-.041-.066-.084-.134-.084-.213 0 .075.021.128.04.172a.23.23 0 0 1 .023.084v.06c0 .043-.02.083-.043.119-.053.078-.012.124.1.136zm-4.118-9.365c0-2.443 1.974-4.43 4.401-4.43 2.427 0 4.4 1.987 4.4 4.43 0 1-.696 2.646-2.069 4.895-1.004 1.644-2.022 3.031-2.032 3.045a.371.371 0 0 1-.598 0 48.374 48.374 0 0 1-2.032-3.045c-1.373-2.249-2.07-3.895-2.07-4.895zm1.884-.068a2.528 2.528 0 0 0 2.517 2.533 2.528 2.528 0 0 0 2.517-2.533 2.528 2.528 0 0 0-2.517-2.534 2.528 2.528 0 0 0-2.517 2.534z" fill="#A6A9B0"/></svg>