<svg width="92" height="36" fill="none" xmlns="http://www.w3.org/2000/svg"><path d="M28.594 17.34l-8.609-5.479a.784.784 0 0 0-1.203.66v10.957a.784.784 0 0 0 1.203.66l8.609-5.478a.784.784 0 0 0 0-1.32zm-8.247 4.713v-8.106L26.715 18l-6.368 4.053z" fill="#A6A9B0"/><path d="M44.609 0H.783A.782.782 0 0 0 0 .783v34.434c0 .433.35.783.783.783h43.826c.432 0 .782-.35.782-.783V.783A.782.782 0 0 0 44.61 0zM7.826 17.217h-6.26v-7.043h6.26v7.043zm-6.26 1.566h6.26v7.043h-6.26v-7.043zm7.825 7.826V1.565H36v32.87H9.391v-7.826zm34.435-9.392h-6.26v-7.043h6.26v7.043zm-6.26 1.566h6.26v7.043h-6.26v-7.043zm6.26-17.218V8.61h-6.26V1.565h6.26zm-42.26 0h6.26V8.61h-6.26V1.565zm0 32.87V27.39h6.26v7.044h-6.26zm42.26 0h-6.26V27.39h6.26v7.044z" fill="#A6A9B0"/><path d="M44.609 0H.783A.782.782 0 0 0 0 .783v34.434c0 .433.35.783.783.783h43.826c.432 0 .782-.35.782-.783V.783A.782.782 0 0 0 44.61 0zM7.826 17.217h-6.26v-7.043h6.26v7.043zm-6.26 1.566h6.26v7.043h-6.26v-7.043zm7.825 7.826V1.565H36v32.87H9.391v-7.826zm34.435-9.392h-6.26v-7.043h6.26v7.043zm-6.26 1.566h6.26v7.043h-6.26v-7.043zm6.26-17.218V8.61h-6.26V1.565h6.26zm-42.26 0h6.26V8.61h-6.26V1.565zm0 32.87V27.39h6.26v7.044h-6.26zm42.26 0h-6.26V27.39h6.26v7.044z" fill="#A6A9B0"/><path d="M74.594 17.34l-8.609-5.479a.784.784 0 0 0-1.203.66v10.957a.784.784 0 0 0 1.203.66l8.609-5.478a.784.784 0 0 0 0-1.32zm-8.247 4.713v-8.106L72.716 18l-6.369 4.053z" fill="#ED0035"/><path d="M90.609 0H46.783A.782.782 0 0 0 46 .783v34.434c0 .433.35.783.783.783h43.826c.432 0 .782-.35.782-.783V.783A.782.782 0 0 0 90.61 0zM53.826 17.217h-6.26v-7.043h6.26v7.043zm-6.26 1.566h6.26v7.043h-6.26v-7.043zm7.825 7.826V1.565H82v32.87H55.391v-7.826zm34.435-9.392h-6.26v-7.043h6.26v7.043zm-6.26 1.566h6.26v7.043h-6.26v-7.043zm6.26-17.218V8.61h-6.26V1.565h6.26zm-42.26 0h6.26V8.61h-6.26V1.565zm0 32.87V27.39h6.26v7.044h-6.26zm42.26 0h-6.26V27.39h6.26v7.044z" fill="#ED0035"/><path d="M90.609 0H46.783A.782.782 0 0 0 46 .783v34.434c0 .433.35.783.783.783h43.826c.432 0 .782-.35.782-.783V.783A.782.782 0 0 0 90.61 0zM53.826 17.217h-6.26v-7.043h6.26v7.043zm-6.26 1.566h6.26v7.043h-6.26v-7.043zm7.825 7.826V1.565H82v32.87H55.391v-7.826zm34.435-9.392h-6.26v-7.043h6.26v7.043zm-6.26 1.566h6.26v7.043h-6.26v-7.043zm6.26-17.218V8.61h-6.26V1.565h6.26zm-42.26 0h6.26V8.61h-6.26V1.565zm0 32.87V27.39h6.26v7.044h-6.26zm42.26 0h-6.26V27.39h6.26v7.044z" fill="#ED0035"/></svg>