<svg width="28" height="30" fill="none" xmlns="http://www.w3.org/2000/svg"><path d="M27.258 4.81a.878.878 0 0 0-.833-.07c-1.588.695-4.033.657-6.383-.098-2.55-.82-4.527-2.333-5.426-4.152a.88.88 0 0 0-1.56-.032c-.986 1.807-3.024 3.335-5.592 4.192-2.38.794-4.752.837-6.189.111A.88.88 0 0 0 0 5.546c0 4.032.475 7.65 1.412 10.75.808 2.673 1.982 5.035 3.489 7.02 2.753 3.626 6.07 5.328 8.267 6.454l.258.133a.877.877 0 0 0 .762.02c2.874-1.29 5.891-2.948 8.489-6.326 1.532-1.992 2.725-4.383 3.547-7.105.95-3.147 1.432-6.83 1.432-10.946a.879.879 0 0 0-.398-.736zm-13.43 18.55c-4.361 0-7.91-3.55-7.91-7.91 0-4.362 3.549-7.911 7.91-7.911 4.362 0 7.91 3.549 7.91 7.91 0 4.362-3.548 7.91-7.91 7.91z" fill="#1A1A1D"/><path d="M13.828 9.297a6.152 6.152 0 1 0 0 12.305 6.152 6.152 0 0 0 0-12.305zm2.844 4.957l-3.044 3.735a.879.879 0 0 1-.681.324h-.018a.879.879 0 0 1-.685-.352l-1.633-2.178a.879.879 0 0 1 1.406-1.054l.959 1.278 2.333-2.864a.879.879 0 0 1 1.363 1.11z" fill="#1A1A1D"/></svg>