<svg width="31" height="27" viewBox="0 0 31 27" fill="none" xmlns="http://www.w3.org/2000/svg">
<path d="M30.3392 0.501369C30.2028 0.368409 30.0011 0.327265 29.8237 0.396335L0.31039 11.8584C0.134975 11.9265 0.0146383 12.0896 0.00124106 12.2772C-0.0121562 12.4648 0.0837682 12.6433 0.247631 12.7357L6.36387 16.1818L8.48665 26.5577C8.49986 26.6311 8.5297 26.6994 8.57251 26.758C8.57679 26.7639 8.58031 26.7684 8.58388 26.773C8.65867 26.8665 8.76471 26.9318 8.88832 26.9516C8.9041 26.9541 8.91994 26.9559 8.93566 26.9568C8.94584 26.9575 8.95597 26.9578 8.96609 26.9578C9.05892 26.9578 9.14686 26.9313 9.22183 26.8847C9.24719 26.869 9.27131 26.8508 9.2937 26.8302C9.30066 26.8238 9.30674 26.818 9.31263 26.812L13.9167 22.1962C14.1064 22.0059 14.1061 21.6979 13.9158 21.5081C13.7254 21.3183 13.4176 21.3188 13.2278 21.509L9.61118 25.1349L10.3926 18.4426L21.4376 24.5049C21.5489 24.5656 21.6725 24.5787 21.7857 24.5513C21.7982 24.5483 21.8095 24.5451 21.8208 24.5415C21.9326 24.5052 22.0307 24.4297 22.0931 24.3213C22.0963 24.3157 22.0991 24.3107 22.1018 24.3056C22.1145 24.2816 22.1246 24.258 22.1326 24.234L30.4577 1.01398C30.5219 0.834634 30.4757 0.634211 30.3392 0.501369ZM1.62148 12.393L25.7444 3.02434L6.77858 15.2986L1.62148 12.393ZM9.68889 17.2888C9.64339 17.3253 9.6038 17.3707 9.57284 17.4238C9.56879 17.4308 9.56498 17.4378 9.56128 17.4449C9.53175 17.502 9.5146 17.5623 9.50895 17.6227L8.83414 23.4018L7.33919 16.0948L23.7199 5.49354L9.68889 17.2888ZM21.4062 23.3777L10.8502 17.5837L28.9338 2.38145L21.4062 23.3777Z" fill="#7800FF"/>
</svg>
