<svg width="169" height="95" viewBox="0 0 169 95" fill="none" xmlns="http://www.w3.org/2000/svg">
<path d="M4.04544 20.5141C1.712 18.1361 0.547363 15.3468 0.547363 12.1459C0.547363 8.85998 1.712 6.04838 4.04544 3.7131C6.37694 1.37781 9.11143 0.210449 12.2495 0.210449C15.4714 0.210449 18.228 1.37809 20.5173 3.7131C22.8067 6.0481 23.9516 8.85998 23.9516 12.1459C23.9516 15.3468 22.8067 18.1361 20.5173 20.5138C18.228 22.8937 15.4712 24.0817 12.2495 24.0817C9.11143 24.082 6.37694 22.894 4.04544 20.5141Z" fill="white"/>
<path d="M29.6813 1.28882H45.4077V6.41088H35.6944V10.3873H39.9231C41.6411 10.3873 43.1331 10.6963 44.3998 11.314C45.666 11.932 46.6407 12.7856 47.3237 13.8749C48.0061 14.9648 48.348 16.2169 48.348 17.6322C48.348 19.0475 48.0064 20.2999 47.3237 21.3894C46.6407 22.4796 45.666 23.3329 44.3998 23.9506C43.1328 24.5686 41.6411 24.8773 39.9231 24.8773H29.6813V1.28882ZM39.4278 19.755C40.3529 19.755 41.0685 19.5642 41.5752 19.1822C42.0817 18.8004 42.3352 18.2839 42.3352 17.6322C42.3352 16.9807 42.0817 16.4643 41.5752 16.0819C41.0685 15.7001 40.3529 15.5091 39.4278 15.5091H35.6946V19.755H39.4278Z" fill="#010202"/>
<path d="M51.5856 1.28809H57.5987V24.8763H51.5856V1.28809Z" fill="#010202"/>
<path d="M60.1753 24.5395V19.788L60.6377 19.5183C61.1882 19.9227 61.761 20.1249 62.3556 20.1249C62.796 20.1249 63.1703 19.962 63.479 19.6363C63.7872 19.3109 64.0571 18.6876 64.2886 17.7662C64.5198 16.8453 64.6793 15.5084 64.7674 13.756L65.4613 1.28784H83.7318V24.8761H77.7187V6.40991H70.8137L70.252 15.5081C70.0537 18.8557 69.4592 21.3098 68.468 22.8712C67.4768 24.4329 65.8465 25.2132 63.5783 25.2132C62.2569 25.2132 61.1221 24.9884 60.1753 24.5395Z" fill="#010202"/>
<path d="M93.6432 1.28809V8.36449H97.5418C99.3919 8.36449 101.027 8.6905 102.448 9.34166C103.869 9.99339 104.976 10.9371 105.768 12.1722C106.562 13.4079 106.958 14.8907 106.958 16.6205C106.958 18.3507 106.561 19.8334 105.768 21.0686C104.976 22.3042 103.869 23.248 102.448 23.8991C101.027 24.5511 99.3919 24.8763 97.5418 24.8763H87.6301V1.28809H93.6432ZM93.6432 19.7542H97.0462C98.3232 19.7542 99.2926 19.5072 99.9536 19.0127C100.614 18.5188 100.945 17.7212 100.945 16.6203C100.945 15.5198 100.614 14.722 99.9536 14.2278C99.2929 13.7339 98.3232 13.4863 97.0462 13.4863H93.6432V19.7542Z" fill="#010202"/>
<path d="M29.6813 31.0212H49.6036V54.6095H43.5905V36.1433H35.6944V54.6095H29.6813V31.0212Z" fill="#010202"/>
<path d="M53.5016 31.0212H63.4132C65.2634 31.0212 66.8988 31.347 68.3194 31.9984C69.7401 32.6501 70.847 33.5938 71.6398 34.829C72.433 36.0647 72.8293 37.5474 72.8293 39.277C72.8293 41.0071 72.433 42.4899 71.6398 43.7253C70.847 44.961 69.7401 45.9044 68.3194 46.5559C66.8988 47.2079 65.2634 47.533 63.4132 47.533H59.5147V54.6095H53.5016V31.0212ZM62.9176 42.411C64.1949 42.411 65.1644 42.1639 65.825 41.6695C66.4857 41.1756 66.8162 40.378 66.8162 39.277C66.8162 38.1766 66.4857 37.379 65.825 36.8846C65.1644 36.3907 64.1947 36.143 62.9176 36.143H59.5147V42.4107H62.9176V42.411Z" fill="#010202"/>
<path d="M80.6596 53.4131C78.831 52.3913 77.3997 50.9649 76.3645 49.1335C75.329 47.303 74.8116 45.197 74.8116 42.8151C74.8116 40.4344 75.329 38.3283 76.3645 36.4967C77.3994 34.6662 78.831 33.2397 80.6596 32.2171C82.4875 31.195 84.5468 30.6838 86.8378 30.6838C89.1283 30.6838 91.1876 31.195 93.016 32.2171C94.8441 33.2394 96.2756 34.6659 97.3111 36.4967C98.3461 38.328 98.864 40.4341 98.864 42.8151C98.864 45.1967 98.3461 47.3027 97.3111 49.1335C96.2759 50.9649 94.8441 52.3913 93.016 53.4131C91.1876 54.4358 89.1286 54.9464 86.8378 54.9464C84.5468 54.9464 82.4875 54.4358 80.6596 53.4131ZM91.1988 47.6845C92.2998 46.4377 92.8506 44.8149 92.8506 42.8151C92.8506 40.8159 92.2998 39.1925 91.1988 37.946C90.0972 36.6991 88.6433 36.0759 86.8375 36.0759C85.0315 36.0759 83.5776 36.6994 82.4766 37.946C81.375 39.1928 80.8247 40.8161 80.8247 42.8151C80.8247 44.8149 81.375 46.4377 82.4766 47.6845C83.5776 48.9314 85.0315 49.5546 86.8375 49.5546C88.6436 49.5549 90.0972 48.9314 91.1988 47.6845Z" fill="#010202"/>
<path d="M29.6813 60.7544H49.6036V84.3426H43.5905V65.8765H35.6944V84.3426H29.6813V60.7544Z" fill="#010202"/>
<path d="M53.5016 60.7544H63.4132C65.2634 60.7544 66.8988 61.0801 68.3194 61.7316C69.7401 62.3836 70.847 63.327 71.6398 64.5621C72.433 65.7978 72.8293 67.2806 72.8293 69.0102C72.8293 70.7403 72.433 72.2231 71.6398 73.4585C70.847 74.6942 69.7401 75.6376 68.3194 76.289C66.8988 76.9408 65.2634 77.2662 63.4132 77.2662H59.5147V84.3426H53.5016V60.7544ZM62.9176 72.1441C64.1949 72.1441 65.1644 71.8971 65.825 71.4026C66.4857 70.9087 66.8162 70.1109 66.8162 69.0102C66.8162 67.9097 66.4857 67.1122 65.825 66.6177C65.1644 66.1238 64.1947 65.8762 62.9176 65.8762H59.5147V72.1439H62.9176V72.1441Z" fill="#010202"/>
<path d="M80.4279 60.7544H85.7139L94.7666 84.3426H88.4894L87.2007 80.6696H78.9411L77.6527 84.3426H71.3755L80.4279 60.7544ZM85.4169 75.5475L83.5007 70.0548L83.2034 67.4602H82.939L82.6417 70.0548L80.7255 75.5475H85.4169Z" fill="#010202"/>
<path d="M97.013 60.7544H107.783C109.259 60.7544 110.569 61.0185 111.715 61.5464C112.86 62.0746 113.747 62.7932 114.375 63.7029C115.002 64.6126 115.316 65.6294 115.316 66.7527C115.316 67.9438 115.123 68.8983 114.738 69.617C114.352 70.3362 113.73 70.9765 112.871 71.5379V71.9085C115.338 72.9423 116.571 74.7394 116.571 77.3002C116.571 78.6706 116.224 79.8896 115.531 80.9563C114.837 82.0235 113.84 82.8549 112.541 83.45C111.241 84.0456 109.699 84.3429 107.916 84.3429H97.0127V60.7544H97.013ZM107.486 69.8526C108.213 69.8526 108.775 69.673 109.171 69.3133C109.568 68.9541 109.766 68.4708 109.766 67.8643C109.766 67.2577 109.568 66.775 109.171 66.4152C108.774 66.0561 108.213 65.8762 107.486 65.8762H103.026V69.8526H107.486ZM108.18 79.2206C108.862 79.2206 109.435 79.0468 109.898 78.6982C110.36 78.3502 110.591 77.8167 110.591 77.0975C110.591 76.3788 110.36 75.8456 109.898 75.497C109.435 75.149 108.862 74.9747 108.18 74.9747H103.026V79.2206H108.18Z" fill="#010202"/>
<path d="M126.747 60.7544H132.033L141.086 84.3426H134.809L133.52 80.6696H125.261L123.972 84.3426H117.695L126.747 60.7544ZM131.736 75.5475L129.82 70.0548L129.523 67.4602H129.258L128.961 70.0548L127.045 75.5475H131.736Z" fill="#010202"/>
<path d="M165.453 64.5372L165.452 64.5397C165.127 64.1125 164.772 63.6984 164.381 63.299C162.091 60.9638 159.335 59.7964 156.113 59.7964C152.975 59.7964 150.24 60.964 147.909 63.299C145.576 65.6343 144.411 68.4459 144.411 71.7319C144.411 74.9328 145.576 77.7221 147.909 80.0998C149.915 82.1478 152.221 83.3104 154.825 83.5957L154.83 83.6038C154.422 86.6126 152.273 91.8359 148.68 94.3315L148.972 94.7897C156.733 94.3337 165.342 87.5451 167.468 78.8945C169.807 69.3687 165.453 64.5372 165.453 64.5372Z" fill="white"/>
</svg>
