<svg width="23" height="19" viewBox="0 0 23 19" fill="none" xmlns="http://www.w3.org/2000/svg">
<path d="M22.9999 2.14342C22.179 2.50715 21.2982 2.75383 20.3728 2.86396C21.3177 2.29812 22.041 1.40062 22.3838 0.334467C21.4975 0.858469 20.5191 1.23896 19.4767 1.44523C18.6419 0.554687 17.4545 0 16.1375 0C13.6108 0 11.5621 2.04867 11.5621 4.57397C11.5621 4.93212 11.6025 5.28193 11.6806 5.61644C7.87871 5.42548 4.50748 3.60399 2.25116 0.836167C1.85675 1.51071 1.63237 2.2967 1.63237 3.13571C1.63237 4.72309 2.4407 6.12371 3.66712 6.94315C2.91733 6.91808 2.21213 6.71182 1.59476 6.36897V6.42611C1.59476 8.64201 3.17238 10.4914 5.26424 10.9123C4.88098 11.0154 4.47683 11.0726 4.05873 11.0726C3.76329 11.0726 3.47759 11.0433 3.19746 10.9875C3.77998 12.8063 5.46912 14.1288 7.47041 14.1651C5.90533 15.3915 3.93191 16.1204 1.78849 16.1204C1.41919 16.1204 1.05542 16.0981 0.697266 16.0577C2.72225 17.358 5.12631 18.1161 7.71013 18.1161C16.1264 18.1161 20.7269 11.145 20.7269 5.09939L20.7115 4.5071C21.6104 3.86597 22.388 3.06045 22.9999 2.14342Z" fill="#C5A26D"/>
</svg>
