<svg width="70" height="70" viewBox="0 0 70 70" fill="none" xmlns="http://www.w3.org/2000/svg">
<path d="M35.0897 64C34.9597 64 34.8397 63.98 34.7097 63.94C34.1397 63.77 33.7397 63.25 33.7397 62.65V21.93C33.7397 21.67 33.8097 21.42 33.9497 21.2C40.1697 11.53 50.5097 5.75 61.5997 5.75C62.3397 5.75 62.9497 6.35 62.9497 7.1V47.82C62.9497 48.56 62.3497 49.17 61.5997 49.17C51.4297 49.17 41.9297 54.48 36.2197 63.39C35.9797 63.78 35.5397 64 35.0897 64ZM36.4397 22.33V58.53C42.4497 51.27 51.0497 46.88 60.2597 46.49V8.48C50.7297 8.91 41.9297 14.02 36.4397 22.33Z" fill="#EE2F58"/>
<path d="M35.98 63.73L34.21 61.71C37.26 59.03 43.61 56.83 50.78 55.98C53.96 55.6 61.26 55.07 66.5 57.2V17.7C65.14 17 63.35 16.57 61.13 16.39L61.33 13.71C64.35 13.95 66.79 14.64 68.57 15.79C68.95 16.04 69.18 16.46 69.18 16.92V59.39C69.18 59.89 68.91 60.33 68.48 60.57C68.04 60.81 67.52 60.78 67.11 60.52C64.03 58.52 58.04 57.83 51.09 58.65C44.53 59.43 38.6 61.43 35.98 63.73Z" fill="#EE2F58"/>
<path d="M41.4897 26.1003C41.1197 26.1003 40.7597 25.9503 40.4997 25.6603C39.9997 25.1003 40.0397 24.2503 40.5897 23.7603C43.4597 21.1503 48.1797 18.0103 52.8497 17.0303C53.5797 16.8803 54.2897 17.3403 54.4397 18.0703C54.5897 18.8003 54.1297 19.5103 53.3997 19.6603C49.2697 20.5303 45.0097 23.3703 42.3997 25.7403C42.1397 25.9803 41.8197 26.1003 41.4897 26.1003Z" fill="#EE2F58"/>
<path d="M41.4897 32.9802C41.1197 32.9802 40.7597 32.8302 40.4997 32.5402C39.9997 31.9802 40.0397 31.1302 40.5897 30.6402C43.4597 28.0302 48.1797 24.8902 52.8497 23.9102C53.5797 23.7602 54.2897 24.2202 54.4397 24.9502C54.5897 25.6802 54.1297 26.3902 53.3997 26.5402C49.2697 27.4102 45.0097 30.2502 42.3997 32.6202C42.1397 32.8702 41.8197 32.9802 41.4897 32.9802Z" fill="#EE2F58"/>
<path d="M41.4897 39.86C41.1197 39.86 40.7597 39.71 40.4997 39.42C39.9997 38.86 40.0397 38.01 40.5897 37.52C43.4597 34.91 48.1797 31.77 52.8497 30.79C53.5797 30.64 54.2897 31.1 54.4397 31.83C54.5897 32.56 54.1297 33.27 53.3997 33.42C49.2697 34.29 45.0097 37.13 42.3997 39.5C42.1397 39.74 41.8197 39.86 41.4897 39.86Z" fill="#EE2F58"/>
<path d="M41.4897 46.7399C41.1197 46.7399 40.7597 46.5899 40.4997 46.2999C39.9997 45.7399 40.0397 44.8899 40.5897 44.3999C43.4597 41.7899 48.1797 38.6499 52.8497 37.6699C53.5797 37.5199 54.2897 37.9799 54.4397 38.7099C54.5897 39.4399 54.1297 40.1499 53.3997 40.2999C49.2697 41.1699 45.0097 44.0099 42.3997 46.3799C42.1397 46.6299 41.8197 46.7399 41.4897 46.7399Z" fill="#EE2F58"/>
<path d="M35.09 64.0002C34.64 64.0002 34.22 63.7802 33.96 63.3902C28.24 54.4802 18.75 49.1702 8.57998 49.1702C7.83998 49.1702 7.22998 48.5702 7.22998 47.8202V7.09023C7.22998 6.35023 7.82998 5.74023 8.57998 5.74023C19.67 5.74023 30.01 11.5202 36.23 21.1902C36.37 21.4002 36.44 21.6602 36.44 21.9202V62.6402C36.44 63.2402 36.05 63.7602 35.47 63.9302C35.35 63.9802 35.22 64.0002 35.09 64.0002ZM9.91998 46.5002C19.14 46.8902 27.74 51.2702 33.74 58.5402V22.3402C28.27 14.0202 19.45 8.91023 9.91998 8.48023V46.5002Z" fill="#EE2F58"/>
<path d="M34.2098 63.73C31.5898 61.43 25.6598 59.43 19.0998 58.66C12.1598 57.83 6.16977 58.54 3.07977 60.53C2.66977 60.8 2.13977 60.81 1.70977 60.58C1.26977 60.34 1.00977 59.89 1.00977 59.4V16.92C1.00977 16.46 1.24977 16.03 1.61977 15.79C3.39977 14.64 5.83977 13.94 8.85977 13.71L9.05977 16.39C6.84977 16.56 5.05977 17 3.69977 17.7V57.21C8.93977 55.08 16.2398 55.62 19.4198 55.99C26.5898 56.84 32.9398 59.03 35.9898 61.72L34.2098 63.73Z" fill="#EE2F58"/>
<path d="M28.6898 26.1C28.3698 26.1 28.0398 25.98 27.7798 25.75C25.1698 23.38 20.9098 20.53 16.7798 19.67C16.0498 19.52 15.5898 18.81 15.7398 18.08C15.8898 17.35 16.5998 16.89 17.3298 17.04C21.9798 18.02 26.7198 21.16 29.5898 23.77C30.1498 24.27 30.1798 25.12 29.6798 25.67C29.4198 25.95 29.0598 26.1 28.6898 26.1Z" fill="#EE2F58"/>
<path d="M28.6898 32.9799C28.3698 32.9799 28.0398 32.8599 27.7798 32.6299C25.1698 30.2599 20.9098 27.4099 16.7798 26.5499C16.0498 26.3999 15.5898 25.6899 15.7398 24.9599C15.8898 24.2299 16.5998 23.7699 17.3298 23.9199C21.9798 24.8999 26.7198 28.0399 29.5898 30.6499C30.1498 31.1499 30.1798 31.9999 29.6798 32.5499C29.4198 32.8299 29.0598 32.9799 28.6898 32.9799Z" fill="#EE2F58"/>
<path d="M28.6898 39.8598C28.3698 39.8598 28.0398 39.7398 27.7798 39.5098C25.1698 37.1398 20.9098 34.2898 16.7798 33.4298C16.0498 33.2798 15.5898 32.5698 15.7398 31.8398C15.8898 31.1098 16.5998 30.6498 17.3298 30.7998C21.9798 31.7798 26.7198 34.9198 29.5898 37.5298C30.1498 38.0298 30.1798 38.8798 29.6798 39.4298C29.4198 39.7198 29.0598 39.8598 28.6898 39.8598Z" fill="#EE2F58"/>
<path d="M28.6898 46.7407C28.3698 46.7407 28.0398 46.6207 27.7798 46.3907C25.1698 44.0207 20.9098 41.1707 16.7798 40.3107C16.0498 40.1607 15.5898 39.4507 15.7398 38.7207C15.8898 37.9907 16.5998 37.5307 17.3298 37.6807C21.9798 38.6607 26.7198 41.8007 29.5898 44.4107C30.1498 44.9107 30.1798 45.7607 29.6798 46.3107C29.4198 46.5907 29.0598 46.7407 28.6898 46.7407Z" fill="#EE2F58"/>
</svg>
