<svg width="14" height="18" viewBox="0 0 14 18" fill="none" xmlns="http://www.w3.org/2000/svg">
<g clip-path="url(#clip0)">
<path fill-rule="evenodd" clip-rule="evenodd" d="M13.466 18H0.534015C0.46341 17.9996 0.393576 17.9853 0.328509 17.9579C0.263441 17.9305 0.204419 17.8905 0.154819 17.8402C0.105219 17.79 0.066016 17.7305 0.0394528 17.665C0.0128896 17.5996 -0.000512059 17.5296 1.49609e-05 17.459V0.541C-0.000512059 0.470396 0.0128896 0.400381 0.0394528 0.334963C0.066016 0.269544 0.105219 0.210006 0.154819 0.159756C0.204419 0.109506 0.263441 0.0695306 0.328509 0.0421177C0.393576 0.0147047 0.46341 0.00039248 0.534015 0L8.48402 0C8.55462 0.00039248 8.62445 0.0147047 8.68952 0.0421177C8.75459 0.0695306 8.81361 0.109506 8.86321 0.159756C8.91281 0.210006 8.95201 0.269544 8.97858 0.334963C9.00514 0.400381 9.01854 0.470396 9.01801 0.541C9.01854 0.611604 9.00514 0.681619 8.97858 0.747037C8.95201 0.812456 8.91281 0.871994 8.86321 0.922244C8.81361 0.972494 8.75459 1.01247 8.68952 1.03988C8.62445 1.0673 8.55462 1.08161 8.48402 1.082H1.06801V16.918H12.932V5.552C12.932 5.41037 12.9883 5.27455 13.0884 5.17441C13.1886 5.07426 13.3244 5.018 13.466 5.018C13.6076 5.018 13.7435 5.07426 13.8436 5.17441C13.9438 5.27455 14 5.41037 14 5.552V17.459C14.0005 17.5296 13.9871 17.5996 13.9606 17.665C13.934 17.7305 13.8948 17.79 13.8452 17.8402C13.7956 17.8905 13.7366 17.9305 13.6715 17.9579C13.6065 17.9853 13.5366 17.9996 13.466 18V18ZM13.294 6.266H8.48402C8.29579 6.26468 8.11578 6.18877 7.98343 6.05493C7.85109 5.92109 7.77722 5.74022 7.77801 5.552V0.714C7.77722 0.525775 7.85109 0.344914 7.98343 0.21107C8.11578 0.0772259 8.29579 0.00132198 8.48402 0C8.55395 6.92928e-05 8.62317 0.0139775 8.68771 0.040923C8.75224 0.0678686 8.8108 0.107319 8.86001 0.157L13.842 5.168C13.9434 5.27007 14.0002 5.40814 14 5.552C14.0008 5.74022 13.9269 5.92109 13.7946 6.05493C13.6623 6.18877 13.4822 6.26468 13.294 6.266V6.266ZM8.84601 5.184H12.346L8.84601 1.667V5.184ZM10.508 12.008H3.50002C3.36502 12.008 3.23555 11.9544 3.1401 11.8589C3.04464 11.7635 2.99101 11.634 2.99101 11.499C2.99101 11.364 3.04464 11.2345 3.1401 11.1391C3.23555 11.0436 3.36502 10.99 3.50002 10.99H10.512C10.647 10.9905 10.7763 11.0447 10.8713 11.1405C10.9664 11.2363 11.0195 11.366 11.019 11.501C11.0185 11.636 10.9643 11.7653 10.8685 11.8603C10.7727 11.9554 10.643 12.0085 10.508 12.008ZM10.508 9.008H3.50002C3.36502 9.008 3.23555 8.95437 3.1401 8.85892C3.04464 8.76346 2.99101 8.63399 2.99101 8.499C2.99101 8.364 3.04464 8.23454 3.1401 8.13908C3.23555 8.04363 3.36502 7.99 3.50002 7.99H10.512C10.635 8.00599 10.7478 8.0663 10.8295 8.1596C10.9111 8.25291 10.9558 8.37279 10.9554 8.49676C10.9549 8.62073 10.9091 8.74026 10.8268 8.83292C10.7444 8.92557 10.6311 8.98498 10.508 9V9.008ZM10.508 15.013H3.50002C3.36502 15.013 3.23555 14.9594 3.1401 14.8639C3.04464 14.7685 2.99101 14.639 2.99101 14.504C2.99101 14.369 3.04464 14.2395 3.1401 14.1441C3.23555 14.0486 3.36502 13.995 3.50002 13.995H10.512C10.6398 14.0053 10.7591 14.0635 10.8458 14.158C10.9326 14.2524 10.9805 14.3761 10.98 14.5044C10.9795 14.6326 10.9306 14.7559 10.8431 14.8497C10.7556 14.9434 10.6359 15.0007 10.508 15.01V15.013Z" fill="white"/>
</g>
<defs>
<clipPath id="clip0">
<rect width="14" height="18" fill="white"/>
</clipPath>
</defs>
</svg>
