<svg width="70" height="70" viewBox="0 0 70 70" fill="none" xmlns="http://www.w3.org/2000/svg">
<path d="M18.61 68.2901H2.31002C1.46002 68.2901 0.77002 67.6001 0.77002 66.7501V54.5201C0.77002 52.6201 2.31002 51.0801 4.21002 51.0801H16.71C18.61 51.0801 20.15 52.6201 20.15 54.5201V66.7501C20.15 67.6001 19.46 68.2901 18.61 68.2901ZM3.86002 65.2001H17.07V54.5201C17.07 54.3201 16.91 54.1601 16.71 54.1601H4.21002C4.01002 54.1601 3.85002 54.3301 3.85002 54.5301V65.2001H3.86002Z" fill="#EE2F58"/>
<path d="M35.0402 68.4204H18.7402C17.8902 68.4204 17.2002 67.7304 17.2002 66.8804V38.0904C17.2002 36.1904 18.7402 34.6504 20.6402 34.6504H33.1402C35.0402 34.6504 36.5802 36.1904 36.5802 38.0904V66.8804C36.5802 67.7304 35.8902 68.4204 35.0402 68.4204ZM20.2902 65.3504H33.5002V38.0904C33.5002 37.8904 33.3402 37.7304 33.1402 37.7304H20.6402C20.4402 37.7304 20.2802 37.8904 20.2802 38.0904V65.3504H20.2902Z" fill="#EE2F58"/>
<path d="M51.35 68.4201H35.04C34.19 68.4201 33.5 67.7301 33.5 66.8801V21.5201C33.5 19.6201 35.04 18.0801 36.94 18.0801H49.44C51.34 18.0801 52.88 19.6201 52.88 21.5201V66.8801C52.89 67.7301 52.2 68.4201 51.35 68.4201ZM36.58 65.3501H49.79V21.5201C49.79 21.3201 49.63 21.1601 49.43 21.1601H36.95C36.75 21.1601 36.59 21.3201 36.59 21.5201V65.3501H36.58Z" fill="#EE2F58"/>
<path d="M67.6398 68.4203H51.3398C50.4898 68.4203 49.7998 67.7303 49.7998 66.8803V5.22027C49.7998 3.32027 51.3398 1.78027 53.2398 1.78027H65.7398C67.6398 1.78027 69.1798 3.32027 69.1798 5.22027V66.8903C69.1798 67.7303 68.4898 68.4203 67.6398 68.4203ZM52.8898 65.3503H66.0998V5.22027C66.0998 5.02027 65.9398 4.86027 65.7398 4.86027H53.2398C53.0398 4.86027 52.8798 5.02027 52.8798 5.22027V65.3503H52.8898Z" fill="#EE2F58"/>
<path d="M27.9803 18.9805C27.1303 18.9805 26.4403 18.2905 26.4403 17.4405V7.31047H16.3003C15.4503 7.31047 14.7603 6.62047 14.7603 5.77047C14.7603 4.92047 15.4503 4.23047 16.3003 4.23047H27.9903C28.8403 4.23047 29.5303 4.92047 29.5303 5.77047V17.4605C29.5203 18.3005 28.8303 18.9805 27.9803 18.9805Z" fill="#EE2F58"/>
<path d="M6.94016 28.3605C6.55016 28.3605 6.15016 28.2105 5.86016 27.9005C5.26016 27.3005 5.26016 26.3205 5.86016 25.7205L26.8902 4.68047C27.4902 4.08047 28.4702 4.08047 29.0702 4.68047C29.6702 5.28047 29.6702 6.26047 29.0702 6.86047L8.02016 27.9005C7.71016 28.2105 7.33016 28.3605 6.94016 28.3605Z" fill="#EE2F58"/>
</svg>
