<svg width="26" height="27" viewBox="0 0 26 27" fill="none" xmlns="http://www.w3.org/2000/svg">
<g clip-path="url(#clip0)">
<path fill-rule="evenodd" clip-rule="evenodd" d="M4.46567 0.763254L25.2087 21.4863C25.703 21.9807 25.9807 22.6514 25.9806 23.3506C25.9805 24.0498 25.7027 24.7204 25.2082 25.2148C24.7137 25.7091 24.043 25.9868 23.3438 25.9867C22.6446 25.9866 21.974 25.7088 21.4797 25.2143L0.735668 4.49125C0.241305 3.99663 -0.0363203 3.32587 -0.0361327 2.62655C-0.0359452 1.92722 0.24204 1.25662 0.736668 0.762254C1.2313 0.267891 1.90205 -0.00973467 2.60138 -0.00954713C3.3007 -0.00935959 3.97131 0.268625 4.46567 0.763254V0.763254ZM21.4787 0.753254L0.782668 21.4813C0.528781 21.7254 0.326102 22.0176 0.186478 22.341C0.0468533 22.6643 -0.0269143 23.0123 -0.0305131 23.3644C-0.0341119 23.7166 0.0325303 24.066 0.165518 24.3921C0.298505 24.7183 0.49517 25.0146 0.744016 25.2638C0.992862 25.5131 1.2889 25.7102 1.61481 25.8437C1.94073 25.9773 2.28999 26.0445 2.64218 26.0414C2.99437 26.0384 3.34243 25.9652 3.66599 25.8261C3.98956 25.687 4.28215 25.4848 4.52667 25.2313L25.2227 4.50025C25.4826 4.25761 25.691 3.96514 25.8356 3.64026C25.9801 3.31537 26.0578 2.96472 26.064 2.60919C26.0702 2.25366 26.0047 1.90052 25.8716 1.5708C25.7384 1.24109 25.5403 0.941541 25.289 0.690004C25.0376 0.438466 24.7382 0.240084 24.4086 0.106672C24.079 -0.0267391 23.7259 -0.0924508 23.3704 -0.086549C23.0149 -0.0806471 22.6642 -0.00325242 22.3392 0.141025C22.0142 0.285303 21.7215 0.493513 21.4787 0.753254V0.753254Z" fill="white"/>
<rect x="12.7012" y="8.97559" width="6.18983" height="5.28698" transform="rotate(45.0199 12.7012 8.97559)" fill="white"/>
</g>
<defs>
<clipPath id="clip0">
<rect width="26" height="27" fill="white"/>
</clipPath>
</defs>
</svg>
