<svg width="17" height="16" viewBox="0 0 17 16" fill="none" xmlns="http://www.w3.org/2000/svg">
<path fill-rule="evenodd" clip-rule="evenodd" d="M13.2998 0H3.2998C1.5998 0 0.299805 1.3 0.299805 3V13C0.299805 14.7 1.5998 16 3.2998 16H13.2998C14.9998 16 16.2998 14.7 16.2998 13V3C16.2998 1.3 14.8998 0 13.2998 0ZM12.7998 10.5C13.3998 11.1 13.3998 12 12.7998 12.5C12.1998 13.1 11.2998 13.1 10.7998 12.5L8.2998 10L5.7998 12.5C5.1998 13.1 4.2998 13.1 3.7998 12.5C3.1998 11.9 3.1998 11 3.7998 10.5L6.2998 8L3.7998 5.5C3.1998 4.9 3.1998 4 3.7998 3.5C4.3998 2.9 5.2998 2.9 5.7998 3.5L8.2998 6L10.7998 3.5C11.3998 2.9 12.2998 2.9 12.7998 3.5C13.2998 4.1 13.3998 5 12.7998 5.5L10.2998 8L12.7998 10.5Z" fill="white"/>
</svg>
