<svg width="23" height="23" viewBox="0 0 23 23" fill="none" xmlns="http://www.w3.org/2000/svg">
<path d="M11.5 2.89C14.3 2.89 14.64 2.9 15.74 2.95C16.76 3 17.32 3.17 17.69 3.31C18.18 3.5 18.53 3.73 18.9 4.1C19.27 4.47 19.49 4.82 19.69 5.31C19.83 5.68 20 6.24 20.05 7.26C20.1 8.37 20.11 8.7 20.11 11.5C20.11 14.3 20.1 14.64 20.05 15.74C20 16.76 19.83 17.32 19.69 17.69C19.5 18.18 19.27 18.53 18.9 18.9C18.53 19.27 18.18 19.49 17.69 19.69C17.32 19.83 16.76 20 15.74 20.05C14.63 20.1 14.3 20.11 11.5 20.11C8.7 20.11 8.36 20.1 7.26 20.05C6.23 20 5.68 19.83 5.31 19.69C4.82 19.5 4.47 19.27 4.1 18.9C3.73 18.53 3.51 18.18 3.31 17.69C3.17 17.32 3 16.77 2.95 15.74C2.9 14.64 2.89 14.3 2.89 11.5C2.89 8.7 2.9 8.36 2.95 7.26C3 6.23 3.17 5.68 3.31 5.31C3.51 4.82 3.73 4.47 4.1 4.1C4.47 3.73 4.82 3.51 5.31 3.31C5.68 3.17 6.23 3 7.26 2.95C8.36 2.9 8.7 2.89 11.5 2.89ZM11.5 1C8.65 1 8.29 1.01 7.17 1.06C6.05 1.11 5.29 1.29 4.62 1.55C3.93 1.82 3.35 2.18 2.76 2.76C2.17 3.34 1.82 3.93 1.55 4.62C1.29 5.29 1.11 6.05 1.06 7.17C1.01 8.29 1 8.65 1 11.5C1 14.35 1.01 14.71 1.06 15.83C1.11 16.95 1.29 17.71 1.55 18.38C1.82 19.07 2.18 19.66 2.76 20.24C3.34 20.82 3.93 21.18 4.62 21.45C5.29 21.71 6.05 21.89 7.17 21.94C8.29 21.99 8.65 22 11.5 22C14.35 22 14.71 21.99 15.83 21.94C16.95 21.89 17.71 21.71 18.38 21.45C19.07 21.18 19.66 20.82 20.24 20.24C20.82 19.66 21.18 19.07 21.45 18.38C21.71 17.71 21.89 16.95 21.94 15.83C21.99 14.71 22 14.35 22 11.5C22 8.65 21.99 8.29 21.94 7.17C21.89 6.05 21.71 5.29 21.45 4.62C21.18 3.93 20.82 3.34 20.24 2.76C19.66 2.18 19.07 1.82 18.38 1.55C17.71 1.29 16.95 1.11 15.83 1.06C14.71 1.01 14.35 1 11.5 1ZM11.5 6.11C8.52 6.11 6.11 8.52 6.11 11.5C6.11 14.48 8.52 16.89 11.5 16.89C14.48 16.89 16.89 14.48 16.89 11.5C16.89 8.52 14.48 6.11 11.5 6.11ZM11.5 15C9.57 15 8 13.43 8 11.5C8 9.57 9.57 8 11.5 8C13.43 8 15 9.57 15 11.5C15 13.43 13.43 15 11.5 15ZM18.36 5.9C18.36 6.6 17.8 7.16 17.1 7.16C16.4 7.16 15.84 6.6 15.84 5.9C15.84 5.2 16.4 4.64 17.1 4.64C17.8 4.64 18.36 5.2 18.36 5.9Z" fill="#0A0A08"/>
</svg>
