<svg width="23" height="23" viewBox="0 0 23 23" fill="none" xmlns="http://www.w3.org/2000/svg">
<path d="M17.63 1H5.38C2.96 1 1 2.96 1 5.38V17.63C1 20.04 2.96 22 5.38 22H17.63C20.05 22 22.01 20.04 22.01 17.62V5.38C22 2.96 20.04 1 17.63 1ZM8 17.63H5.38V8H8V17.63ZM6.69 6.89C5.84 6.89 5.16 6.2 5.16 5.35C5.16 4.5 5.84 3.8 6.69 3.8C7.54 3.8 8.22 4.49 8.22 5.34C8.22 6.19 7.53 6.89 6.69 6.89ZM18.5 17.63H15.87V12.73C15.87 9.78 12.37 10.01 12.37 12.73V17.63H9.75V8H12.38V9.54C13.6 7.28 18.51 7.11 18.51 11.71V17.63H18.5Z" fill="black"/>
</svg>
