<svg xmlns="http://www.w3.org/2000/svg" viewBox="0 0 726.77 205.57"><defs><style>.cls-1{fill:#e6264e;}</style></defs><title>Ресурс 1</title><g id="Шар_2" data-name="Шар 2"><g id="Layer_1" data-name="Layer 1"><path class="cls-1" d="M372.61,119.82a30.31,30.31,0,0,1,11.7,11.75,34.46,34.46,0,0,1,4.19,17.07v23.15A35.09,35.09,0,0,1,384.25,189,31.65,31.65,0,0,1,356,205.57a36.32,36.32,0,0,1-16.36-3.49,33.86,33.86,0,0,1-11.75-9.5,3.79,3.79,0,0,1-.94-2.37,2.59,2.59,0,0,1,1.18-2.24,3.48,3.48,0,0,1,2.13-.71,3.7,3.7,0,0,1,3.07,1.54,27.66,27.66,0,0,0,9.62,7.44A30.12,30.12,0,0,0,356,199a24.38,24.38,0,0,0,13-3.54,25,25,0,0,0,9.1-9.74,29.09,29.09,0,0,0,3.3-13.88v-5.2a25.65,25.65,0,0,1-10.21,11,30.25,30.25,0,0,1-15.65,4,34.33,34.33,0,0,1-17.07-4.19,30.21,30.21,0,0,1-11.75-11.69,34,34,0,0,1-4.25-17.07,33.4,33.4,0,0,1,4.37-17,31.32,31.32,0,0,1,11.93-11.81,33.66,33.66,0,0,1,16.77-4.25A34,34,0,0,1,372.61,119.82Zm-3.72,51.79a23.84,23.84,0,0,0,9.22-9.33,27.68,27.68,0,0,0,3.3-13.64,28,28,0,0,0-3.3-13.7,23.86,23.86,0,0,0-9.22-9.39,28.4,28.4,0,0,0-26.8,0,23.86,23.86,0,0,0-9.22,9.39,28,28,0,0,0-3.3,13.7,27.68,27.68,0,0,0,3.3,13.64,23.84,23.84,0,0,0,9.22,9.33,28.33,28.33,0,0,0,26.8,0Z"/><path class="cls-1" d="M446.25,119.88a31.25,31.25,0,0,1,11.87,11.87,33.43,33.43,0,0,1,4.31,16.89v28.7a3.56,3.56,0,0,1-.94,2.54,3.8,3.8,0,0,1-5.14,0,3.44,3.44,0,0,1-1-2.54v-9.21A27.57,27.57,0,0,1,444.66,178a31.92,31.92,0,0,1-15.18,3.6,33.43,33.43,0,0,1-16.89-4.31,31.25,31.25,0,0,1-11.87-11.87,35,35,0,0,1,0-33.66,31.32,31.32,0,0,1,11.87-11.87,35,35,0,0,1,33.66,0Zm-3.54,51.67a24.58,24.58,0,0,0,9.27-9.44,28.59,28.59,0,0,0,0-26.93,25,25,0,0,0-9.27-9.51,25.94,25.94,0,0,0-35.79,9.51,28.22,28.22,0,0,0,0,26.93,25.09,25.09,0,0,0,9.33,9.44,27.23,27.23,0,0,0,26.46,0Z"/><path class="cls-1" d="M554.67,119a23.7,23.7,0,0,1,8.62,9.86,32.38,32.38,0,0,1,3.07,14.35v34.13a3.56,3.56,0,0,1-.94,2.54,3.4,3.4,0,0,1-2.6,1,3.42,3.42,0,0,1-3.54-3.54V143.21q0-9.09-4.85-14.88a15.44,15.44,0,0,0-12.4-5.79q-8.26,0-13.34,5.43t-4.84,14.41v35a3.57,3.57,0,0,1-1,2.54,3.4,3.4,0,0,1-2.6,1,3.42,3.42,0,0,1-3.54-3.54V143.21q0-9.09-4.84-14.88a15.46,15.46,0,0,0-12.4-5.79,18,18,0,0,0-13.35,5.2Q481,132.93,481,141.2v36.14a3.56,3.56,0,0,1-.94,2.54,3.4,3.4,0,0,1-2.6,1,3.42,3.42,0,0,1-3.54-3.54V119.82a3.38,3.38,0,0,1,1-2.59,3.57,3.57,0,0,1,2.54-1,3.27,3.27,0,0,1,3.54,3.54v4.61a23,23,0,0,1,8.15-6.61,23.33,23.33,0,0,1,10.4-2.37,22.88,22.88,0,0,1,12.28,3.37,24.09,24.09,0,0,1,8.62,9.27,23.6,23.6,0,0,1,8.86-9.27A24.54,24.54,0,0,1,542,115.45,23,23,0,0,1,554.67,119Z"/><path class="cls-1" d="M622.4,119.76A28.11,28.11,0,0,1,633,131a34.84,34.84,0,0,1,3.78,16.42,3.16,3.16,0,0,1-.94,2.42,3.49,3.49,0,0,1-2.48.89H583.84a26.46,26.46,0,0,0,3.66,12.46,23.48,23.48,0,0,0,8.86,8.56,25.14,25.14,0,0,0,12.4,3.07,28.59,28.59,0,0,0,9.27-1.59,19.75,19.75,0,0,0,7.38-4.2,3.93,3.93,0,0,1,2.48-.94,3.38,3.38,0,0,1,3.43,3.19,3.18,3.18,0,0,1-1.06,2.24,29.83,29.83,0,0,1-9.87,5.67,33.45,33.45,0,0,1-11.63,2.24,32.52,32.52,0,0,1-16.59-4.19,29.88,29.88,0,0,1-11.4-11.69,34.48,34.48,0,0,1-4.13-17,37.07,37.07,0,0,1,3.83-17.07,28.73,28.73,0,0,1,10.75-11.69A29.84,29.84,0,0,1,607,115.69,29.42,29.42,0,0,1,622.4,119.76Zm-30.94,8.69q-6.32,6.13-7.5,16.18H629.9q-.82-10-7.08-16.18A21.67,21.67,0,0,0,607,122.3,21.41,21.41,0,0,0,591.46,128.45Z"/><path class="cls-1" d="M654.47,179.17a25.6,25.6,0,0,1-10.75-7.38,3.15,3.15,0,0,1,.71-4.84,3,3,0,0,1,2-.59,3.34,3.34,0,0,1,2.71,1.3q5.91,7.2,19,7.2,9.33,0,13.75-3.31a10.14,10.14,0,0,0,4.44-8.5q0-9.33-18.08-11.93-11.44-1.65-17.3-6.26t-5.84-11.1q0-8.62,6.31-13.4t16.48-4.79q14.88,0,22.56,10.63a3,3,0,0,1,.71,2,3.12,3.12,0,0,1-1.89,2.72,5.51,5.51,0,0,1-1.77.47,3.6,3.6,0,0,1-3-1.54q-6-7.67-16.89-7.67-7.2,0-11.45,3.13a9.29,9.29,0,0,0-4.25,7.73,8.79,8.79,0,0,0,4.07,7.56q4.08,2.83,13.64,4.25,12.52,1.77,18,6.68a15.32,15.32,0,0,1,5.49,11.86,14.4,14.4,0,0,1-3.48,9.57,22.42,22.42,0,0,1-9.27,6.38,34.59,34.59,0,0,1-12.64,2.24A37.78,37.78,0,0,1,654.47,179.17Z"/><path class="cls-1" d="M71.45,82.31H29.66L78,18.24a11.19,11.19,0,0,0,2-6.86c0-6.65-3.66-10.3-10.3-10.3H10.3C3.66,1.08,0,4.73,0,11.38s3.66,10.3,10.3,10.3H50.47L2,85.75a11.19,11.19,0,0,0-2,6.86c0,6.65,3.66,10.3,10.3,10.3H71.45c6.65,0,10.3-3.65,10.3-10.3S78.1,82.31,71.45,82.31Z"/><path class="cls-1" d="M186.68,25.78A50.3,50.3,0,0,0,168.24,7.16h0a50.78,50.78,0,0,0-26-6.8,51.74,51.74,0,0,0-26.13,6.79A49.31,49.31,0,0,0,97.61,25.79a52.66,52.66,0,0,0-6.69,26.29,55.58,55.58,0,0,0,6.22,26.25A47.36,47.36,0,0,0,114.31,96.9a46.68,46.68,0,0,0,57.12-6.6v1.77a11,11,0,1,0,22,0v-40A52,52,0,0,0,186.68,25.78ZM127,24.37a29.36,29.36,0,0,1,41.22,11.38,34.37,34.37,0,0,1,3.9,16.33,33.7,33.7,0,0,1-3.9,16.24,29.33,29.33,0,0,1-10.71,11.3,30.3,30.3,0,0,1-30.51,0A29.86,29.86,0,0,1,116.22,68.3a33.09,33.09,0,0,1-4-16.22,33.66,33.66,0,0,1,4-16.31A29.8,29.8,0,0,1,127,24.37Z"/><path class="cls-1" d="M396.72,3.09C392.88,1,387.57,0,381,0a42.38,42.38,0,0,0-17.64,3.75,40.67,40.67,0,0,0-10.65,7c-.42-6.25-4.22-9.66-10.81-9.66a10.78,10.78,0,0,0-8,2.88,10.81,10.81,0,0,0-2.88,8V92.07c0,3.51,1,6.23,2.91,8.08a11,11,0,0,0,7.93,2.76c3.51,0,6.22-1,8.08-2.9a11.05,11.05,0,0,0,2.76-7.94V39.71a17,17,0,0,1,7.14-14.46c4.91-3.68,11.53-5.54,19.68-5.54a68.85,68.85,0,0,1,11.29,1.22,16.84,16.84,0,0,0,3.06.39c4.56,0,7.67-2.45,8.95-7a7.69,7.69,0,0,0,.27-2.37C403.09,8.32,401,5.35,396.72,3.09Z"/><path class="cls-1" d="M505.33,25.78A50.3,50.3,0,0,0,486.89,7.16h0a50.76,50.76,0,0,0-26-6.8A51.74,51.74,0,0,0,434.8,7.15a49.38,49.38,0,0,0-18.54,18.64,52.66,52.66,0,0,0-6.69,26.29,55.58,55.58,0,0,0,6.22,26.25A47.36,47.36,0,0,0,433,96.9a46.66,46.66,0,0,0,57.12-6.6v1.77a11,11,0,1,0,22,0v-40A52.08,52.08,0,0,0,505.33,25.78Zm-59.65-1.41A29.36,29.36,0,0,1,486.9,35.75a34.26,34.26,0,0,1,3.9,16.33,33.73,33.73,0,0,1-3.9,16.24,29.33,29.33,0,0,1-10.71,11.3,30.3,30.3,0,0,1-30.51,0A29.86,29.86,0,0,1,434.87,68.3a33.09,33.09,0,0,1-4-16.22,33.66,33.66,0,0,1,4-16.31A29.87,29.87,0,0,1,445.68,24.37Z"/><path class="cls-1" d="M615.45,6.13h0a10.17,10.17,0,0,0-4.31-3.59,11.27,11.27,0,0,0-10.28.31A9.62,9.62,0,0,0,597,7L567.8,70.56,538.28,7a9.69,9.69,0,0,0-3.77-4.09,10.08,10.08,0,0,0-9.68-.33c-5,2.5-6.06,6.29-6.06,9a9,9,0,0,0,.9,4l38,80.19a13.25,13.25,0,0,0,4.21,5.28,10.57,10.57,0,0,0,6.08,1.67c3.08,0,7.32-1.21,9.94-7l38-80.13A9.57,9.57,0,0,0,617,11.38,9.31,9.31,0,0,0,615.45,6.13Z"/><path class="cls-1" d="M720,25.78A50.27,50.27,0,0,0,701.54,7.16h0a50.78,50.78,0,0,0-26-6.8,51.74,51.74,0,0,0-26.13,6.79,49.31,49.31,0,0,0-18.54,18.64,52.67,52.67,0,0,0-6.7,26.29,55.58,55.58,0,0,0,6.23,26.25A47.36,47.36,0,0,0,647.61,96.9,45.77,45.77,0,0,0,672,103.63,46,46,0,0,0,704.73,90.3v1.77a11,11,0,1,0,22,0v-40A52.09,52.09,0,0,0,720,25.78Zm-59.65-1.41a29.35,29.35,0,0,1,41.22,11.38,34.26,34.26,0,0,1,3.91,16.33,33.84,33.84,0,0,1-3.9,16.24,29.33,29.33,0,0,1-10.71,11.3,30.32,30.32,0,0,1-30.52,0,29.84,29.84,0,0,1-10.8-11.32,33,33,0,0,1-4-16.22,33.66,33.66,0,0,1,4-16.31A29.85,29.85,0,0,1,660.32,24.37Z"/><path class="cls-1" d="M306.11,25.34A47.87,47.87,0,0,0,287.83,7h0A52.55,52.55,0,0,0,261.53.36,53.35,53.35,0,0,0,235,7a47,47,0,0,0-18.3,18.38,54.37,54.37,0,0,0-6.51,26.73,57.19,57.19,0,0,0,6,26.51,45.53,45.53,0,0,0,17,18.4,46.89,46.89,0,0,0,24.73,6.64,40.94,40.94,0,0,0,21.6-5.83A42.58,42.58,0,0,0,291.4,87.05v2.51c0,7.19-1.38,13.44-4.09,18.58a28.7,28.7,0,0,1-10.77,11.64,29.26,29.26,0,0,1-15,4,38.44,38.44,0,0,1-15.9-3.15,29.78,29.78,0,0,1-11.48-9,10.68,10.68,0,0,0-8.84-4.51,11.15,11.15,0,0,0-6.11,2c-3,2.15-4.55,4.84-4.55,8a10,10,0,0,0,2.37,6.18,52.31,52.31,0,0,0,19.34,15.16,59,59,0,0,0,24.81,5.28,51.69,51.69,0,0,0,26.69-7,48.66,48.66,0,0,0,18.36-19.1,55.75,55.75,0,0,0,6.5-26.71V52.08A53.74,53.74,0,0,0,306.11,25.34ZM291.77,55.92l-47.12,27.2a4.53,4.53,0,0,1-6.8-3.92V24.79a4.54,4.54,0,0,1,6.8-3.93l47.12,27.21A4.53,4.53,0,0,1,291.77,55.92Z"/></g></g></svg>
