<svg width="183" height="37" viewBox="0 0 183 37" fill="none" xmlns="http://www.w3.org/2000/svg">
<path d="M18.84 21.15H8.41L20.47 5.07999C20.8 4.63999 20.97 4.05999 20.97 3.35999C20.97 1.68999 20.06 0.779988 18.4 0.779988H3.57C1.91 0.769988 1 1.68999 1 3.34999C1 5.01999 1.91 5.93999 3.57 5.93999H13.6L1.5 22.01C1.17 22.45 1 23.03 1 23.73C1 25.4 1.91 26.31 3.57 26.31H18.84C20.5 26.31 21.41 25.39 21.41 23.73C21.42 22.07 20.5 21.15 18.84 21.15Z" fill="#EE3358"/>
<path d="M32.72 6.60997C33.85 5.91997 35.13 5.57997 36.53 5.57997C37.93 5.57997 39.21 5.92997 40.34 6.60997C41.47 7.29997 42.37 8.25997 43.01 9.46997C43.66 10.69 43.98 12.06 43.98 13.57C43.98 15.07 43.65 16.44 43.01 17.64C42.37 18.83 41.47 19.79 40.34 20.48C39.21 21.17 37.93 21.51 36.53 21.51C35.13 21.51 33.85 21.16 32.72 20.48C31.59 19.79 30.68 18.84 30.02 17.64C29.36 16.44 29.03 15.07 29.03 13.57C29.03 12.07 29.36 10.69 30.02 9.47997C30.68 8.25997 31.59 7.29997 32.72 6.60997ZM47.62 6.96997C46.49 4.99997 44.95 3.42997 43.02 2.29997C41.09 1.16997 38.91 0.589966 36.54 0.589966C34.17 0.589966 31.97 1.15997 30.01 2.28997C28.05 3.41997 26.49 4.98997 25.38 6.95997C24.27 8.92997 23.71 11.15 23.71 13.56C23.71 15.97 24.23 18.18 25.26 20.15C26.29 22.12 27.74 23.69 29.55 24.81C31.36 25.93 33.41 26.5 35.64 26.5C37.43 26.5 39.13 26.12 40.68 25.37C41.85 24.8 42.9 24.06 43.82 23.15V23.6C43.82 24.39 44.08 25.05 44.61 25.57C45.13 26.09 45.79 26.36 46.58 26.36C47.36 26.36 48.02 26.09 48.55 25.57C49.07 25.05 49.34 24.38 49.34 23.6V13.57C49.32 11.16 48.75 8.93997 47.62 6.96997Z" fill="#EE3358"/>
<path d="M100.08 1.28001C99.1199 0.77001 97.7899 0.51001 96.1399 0.51001C94.5899 0.51001 93.1099 0.83001 91.7399 1.45001C90.7399 1.91001 89.8499 2.49001 89.0799 3.20001C88.9799 1.63001 88.0299 0.78001 86.3799 0.78001C85.5399 0.78001 84.8699 1.02001 84.3899 1.50001C83.9099 1.98001 83.6699 2.65001 83.6699 3.50001V23.6C83.6699 24.48 83.9099 25.16 84.3999 25.63C84.8799 26.09 85.5399 26.32 86.3799 26.32C87.2599 26.32 87.9299 26.07 88.3999 25.59C88.8599 25.11 89.0899 24.44 89.0899 23.6V10.46C89.0899 8.92001 89.6699 7.74001 90.8699 6.83001C92.0899 5.91001 93.7499 5.44001 95.7799 5.44001C96.4899 5.44001 97.4499 5.54001 98.5999 5.75001C98.9299 5.82001 99.1799 5.85001 99.3599 5.85001C100.5 5.85001 101.28 5.23001 101.6 4.09001C101.65 3.95001 101.67 3.76001 101.67 3.49001C101.67 2.59001 101.13 1.84001 100.08 1.28001Z" fill="#EE3358"/>
<path d="M112.3 6.60997C113.43 5.91997 114.71 5.57997 116.11 5.57997C117.51 5.57997 118.79 5.92997 119.92 6.60997C121.05 7.29997 121.95 8.25997 122.59 9.46997C123.24 10.69 123.57 12.06 123.57 13.57C123.57 15.07 123.24 16.44 122.6 17.64C121.96 18.83 121.06 19.79 119.93 20.48C118.8 21.17 117.52 21.51 116.12 21.51C114.72 21.51 113.44 21.16 112.31 20.48C111.18 19.79 110.27 18.84 109.61 17.64C108.95 16.44 108.62 15.07 108.62 13.57C108.62 12.07 108.95 10.69 109.62 9.47997C110.26 8.25997 111.17 7.29997 112.3 6.60997ZM127.2 6.96997C126.07 4.99997 124.52 3.42997 122.6 2.29997C120.67 1.16997 118.49 0.589966 116.12 0.589966C113.75 0.589966 111.55 1.15997 109.59 2.28997C107.63 3.41997 106.07 4.98997 104.96 6.95997C103.85 8.92997 103.29 11.15 103.29 13.56C103.29 15.97 103.81 18.18 104.84 20.15C105.87 22.12 107.32 23.69 109.13 24.81C110.94 25.93 112.99 26.5 115.22 26.5C117.01 26.5 118.71 26.12 120.26 25.37C121.43 24.8 122.48 24.06 123.4 23.15V23.6C123.4 24.39 123.66 25.05 124.19 25.57C124.71 26.09 125.37 26.36 126.16 26.36C126.94 26.36 127.6 26.09 128.13 25.57C128.65 25.05 128.92 24.38 128.92 23.6V13.57C128.9 11.16 128.32 8.93997 127.2 6.96997Z" fill="#EE3358"/>
<path d="M154.7 2.04005C154.44 1.65005 154.08 1.35005 153.62 1.14005C152.89 0.770053 151.87 0.760053 151.05 1.22005C150.63 1.46005 150.3 1.81005 150.07 2.27005L142.8 18.2001L135.43 2.24005C135.21 1.80005 134.89 1.45005 134.49 1.21005C133.69 0.740054 132.72 0.770053 132.07 1.13005C130.82 1.76005 130.56 2.71005 130.56 3.39005C130.56 3.76005 130.64 4.11005 130.78 4.40005L140.28 24.5201C140.59 25.1401 140.93 25.5701 141.33 25.8501C141.74 26.1301 142.25 26.2701 142.85 26.2701C143.62 26.2701 144.68 25.9601 145.33 24.5201L154.82 4.42005C155 4.06005 155.09 3.70005 155.09 3.35005C155.09 2.87005 154.96 2.43005 154.7 2.04005Z" fill="#EE3358"/>
<path d="M165.91 6.60997C167.04 5.91997 168.32 5.57997 169.72 5.57997C171.12 5.57997 172.4 5.92997 173.53 6.60997C174.66 7.29997 175.56 8.25997 176.2 9.46997C176.85 10.69 177.17 12.06 177.17 13.57C177.17 15.07 176.84 16.44 176.2 17.64C175.56 18.83 174.66 19.79 173.53 20.48C172.4 21.17 171.12 21.51 169.72 21.51C168.32 21.51 167.04 21.16 165.91 20.48C164.78 19.79 163.87 18.84 163.21 17.64C162.55 16.44 162.22 15.07 162.22 13.57C162.22 12.07 162.55 10.69 163.22 9.47997C163.87 8.25997 164.77 7.29997 165.91 6.60997ZM180.8 6.96997C179.67 4.99997 178.12 3.42997 176.2 2.29997C174.27 1.16997 172.09 0.589966 169.72 0.589966C167.35 0.589966 165.15 1.15997 163.19 2.28997C161.23 3.41997 159.67 4.98997 158.56 6.95997C157.45 8.92997 156.89 11.15 156.89 13.56C156.89 15.97 157.41 18.18 158.44 20.15C159.47 22.12 160.92 23.69 162.73 24.81C164.54 25.93 166.59 26.5 168.82 26.5C170.61 26.5 172.31 26.12 173.86 25.37C175.03 24.8 176.08 24.06 177 23.15V23.6C177 24.39 177.26 25.05 177.79 25.57C178.31 26.09 178.97 26.36 179.76 26.36C180.54 26.36 181.2 26.09 181.73 25.57C182.25 25.05 182.52 24.38 182.52 23.6V13.57C182.5 11.16 181.93 8.93997 180.8 6.96997Z" fill="#EE3358"/>
<path d="M73.86 14.53L62.1 21.35C61.34 21.79 60.4 21.24 60.4 20.36V6.71997C60.4 5.83997 61.34 5.29997 62.1 5.72997L73.87 12.55C74.62 13 74.62 14.09 73.86 14.53ZM77.45 6.85997C76.35 4.89997 74.82 3.34997 72.88 2.24997C70.95 1.14997 68.74 0.589966 66.31 0.589966C63.85 0.589966 61.62 1.14997 59.68 2.24997C57.73 3.34997 56.19 4.90997 55.11 6.85997C54.03 8.80997 53.48 11.07 53.48 13.57C53.48 16.03 53.99 18.27 54.99 20.22C56 22.18 57.42 23.73 59.24 24.84C61.05 25.95 63.13 26.51 65.42 26.51C67.41 26.51 69.22 26.02 70.81 25.05C71.95 24.35 72.95 23.45 73.77 22.35V22.98C73.77 24.78 73.43 26.35 72.75 27.64C72.08 28.92 71.17 29.9 70.06 30.56C68.94 31.22 67.68 31.55 66.31 31.55C64.83 31.55 63.5 31.28 62.34 30.76C61.19 30.24 60.23 29.48 59.47 28.5C58.9 27.75 58.16 27.37 57.26 27.37C56.75 27.37 56.24 27.53 55.73 27.86C54.98 28.4 54.59 29.07 54.59 29.86C54.59 30.39 54.79 30.91 55.18 31.41C56.48 33.05 58.1 34.33 60.01 35.21C61.91 36.09 64 36.54 66.21 36.54C68.67 36.54 70.91 35.95 72.87 34.79C74.83 33.63 76.37 32.01 77.46 30C78.54 27.99 79.08 25.73 79.08 23.3V13.58C79.1 11.07 78.54 8.80997 77.45 6.85997Z" fill="#EE3358"/>
</svg>
