<svg width="64" height="64" viewBox="0 0 64 64" fill="none" xmlns="http://www.w3.org/2000/svg">
<path d="M53.4603 58.12H10.2403C10.2103 58.12 10.1903 58.12 10.1603 58.12C6.80031 58.12 4.07031 55.39 4.07031 52.03V17.12C4.07031 16.43 4.63031 15.87 5.32031 15.87H13.7403V7.61C13.7403 6.92 14.3003 6.36 14.9903 6.36H59.0003C59.6903 6.36 60.2503 6.92 60.2503 7.61V50.99C60.2503 55.59 57.8403 58.12 53.4603 58.12ZM15.0803 55.62H53.4603C56.4303 55.62 57.7503 54.19 57.7503 50.99V8.86H16.2503V52.03C16.2403 53.37 15.8103 54.61 15.0803 55.62ZM6.57031 18.37V52.03C6.57031 54.01 8.18031 55.61 10.1503 55.61C12.1303 55.61 13.7303 54 13.7303 52.03V18.37H6.57031Z" fill="#EE2F58"/>
<path d="M33.2594 29.9H21.6094C20.9194 29.9 20.3594 29.34 20.3594 28.65V14.46C20.3594 13.77 20.9194 13.21 21.6094 13.21H33.2594C33.9494 13.21 34.5094 13.77 34.5094 14.46V28.65C34.5094 29.34 33.9494 29.9 33.2594 29.9ZM22.8594 27.39H31.9994V15.71H22.8594V27.39Z" fill="#EE2F58"/>
<path d="M53.1303 13.21H39.0703V15.72H53.1303V13.21Z" fill="#EE2F58"/>
<path d="M53.1303 20.19H39.0703V22.7H53.1303V20.19Z" fill="#EE2F58"/>
<path d="M53.1303 27.18H39.0703V29.69H53.1303V27.18Z" fill="#EE2F58"/>
<path d="M53.1395 34.16H20.2695V36.67H53.1395V34.16Z" fill="#EE2F58"/>
<path d="M53.1395 41.14H20.2695V43.65H53.1395V41.14Z" fill="#EE2F58"/>
<path d="M53.1395 48.13H20.2695V50.64H53.1395V48.13Z" fill="#EE2F58"/>
</svg>
