<svg width="70" height="70" viewBox="0 0 70 70" fill="none" xmlns="http://www.w3.org/2000/svg">
<path d="M35.2099 0.360352C16.2799 0.360352 0.859863 15.7703 0.859863 34.7104C0.859863 53.6504 16.2699 69.0603 35.2099 69.0603C54.1499 69.0603 69.5599 53.6504 69.5599 34.7104C69.5599 15.7703 54.1499 0.360352 35.2099 0.360352ZM65.5599 26.8504H50.8699C49.1699 23.4904 46.4399 20.7404 43.0599 19.0404V4.36035C54.0499 7.21035 62.7099 15.8804 65.5599 26.8504ZM66.5599 34.7104C66.5599 36.3604 66.4399 37.9804 66.1899 39.5704H52.0499C52.4999 38.0204 52.7399 36.4004 52.7399 34.7104C52.7399 33.0203 52.4899 31.4004 52.0499 29.8504H66.1799C66.4199 31.4404 66.5599 33.0604 66.5599 34.7104ZM35.2099 49.2404C27.1999 49.2404 20.6799 42.7204 20.6799 34.7104C20.6799 26.7003 27.1999 20.1804 35.2099 20.1804C43.2199 20.1804 49.7399 26.7003 49.7399 34.7104C49.7399 42.7204 43.2199 49.2404 35.2099 49.2404ZM40.0699 3.75035V17.8804C38.5199 17.4304 36.8999 17.1904 35.2099 17.1904C33.5199 17.1904 31.8999 17.4404 30.3499 17.8804V3.75035C31.9399 3.50035 33.5599 3.38035 35.2099 3.38035C36.8599 3.36035 38.4799 3.50035 40.0699 3.75035ZM27.3499 4.36035V19.0504C23.9899 20.7504 21.2399 23.4804 19.5399 26.8604H4.85986C7.70986 15.8804 16.3799 7.21035 27.3499 4.36035ZM18.3699 39.5704H4.24986C3.99986 37.9804 3.86986 36.3604 3.86986 34.7104C3.86986 33.0604 3.99986 31.4404 4.24986 29.8504H18.3799C17.9299 31.4004 17.6899 33.0203 17.6899 34.7104C17.6899 36.4004 17.9199 38.0204 18.3699 39.5704ZM4.85986 42.5704H19.5499C21.2499 45.9304 23.9799 48.6804 27.3599 50.3804V65.0704C16.3799 62.2104 7.70986 53.5504 4.85986 42.5704ZM30.3499 65.6703V51.5504C31.8999 52.0004 33.5199 52.2404 35.2099 52.2404C36.8999 52.2404 38.5199 51.9904 40.0699 51.5504V65.6804C38.4799 65.9304 36.8599 66.0504 35.2099 66.0504C33.5599 66.0604 31.9399 65.9203 30.3499 65.6703ZM43.0699 65.0603V50.3703C46.4299 48.6703 49.1799 45.9404 50.8799 42.5604H65.5699C62.7099 53.5504 54.0499 62.2103 43.0699 65.0603Z" fill="#EE2F58"/>
</svg>
