<svg width="23" height="23" viewBox="0 0 23 23" fill="none" xmlns="http://www.w3.org/2000/svg">
<path d="M22.1701 4.51043C21.3801 4.86043 20.5301 5.10043 19.6301 5.21043C20.5401 4.66043 21.2401 3.80043 21.5701 2.77043C20.7201 3.28043 19.7701 3.64043 18.7601 3.84043C17.9501 2.98043 16.8101 2.44043 15.5301 2.44043C13.0901 2.44043 11.1101 4.42043 11.1101 6.86043C11.1101 7.21043 11.1501 7.54043 11.2201 7.87043C7.57014 7.68043 4.31014 5.92043 2.13014 3.25043C1.75014 3.90043 1.53014 4.66043 1.53014 5.47043C1.53014 7.00043 2.31014 8.36043 3.50014 9.15043C2.78014 9.13043 2.10014 8.93043 1.50014 8.60043C1.50014 8.62043 1.50014 8.64043 1.50014 8.66043C1.50014 10.8004 3.02014 12.5904 5.04014 12.9904C4.67014 13.0904 4.28014 13.1404 3.88014 13.1404C3.60014 13.1404 3.32014 13.1104 3.05014 13.0604C3.61014 14.8204 5.24014 16.0904 7.18014 16.1304C5.67014 17.3204 3.76014 18.0204 1.69014 18.0204C1.33014 18.0204 0.980137 18.0004 0.640137 17.9604C2.60014 19.2104 4.92014 19.9504 7.41014 19.9504C15.5401 19.9504 19.9801 13.2204 19.9801 7.38043C19.9801 7.19043 19.9801 7.00043 19.9701 6.81043C20.8301 6.18043 21.5801 5.40043 22.1701 4.51043Z" fill="black"/>
</svg>
