<svg width="17" height="18" viewBox="0 0 17 18" fill="none" xmlns="http://www.w3.org/2000/svg">
<path d="M0.146955 8.60134C0.143281 8.60502 0.14328 8.60502 0.139606 8.60869C0.128583 8.62339 0.117562 8.63441 0.110213 8.64911C0.106539 8.65278 0.106538 8.65646 0.102865 8.66013C0.0955157 8.67483 0.0844931 8.68952 0.0771441 8.70422C0.0771441 8.7079 0.0734705 8.71157 0.0734705 8.71157C0.0661225 8.72627 0.0587734 8.74096 0.0514254 8.75933C0.0514254 8.76301 0.0514254 8.76301 0.0477509 8.76668C0.0404028 8.78138 0.0367283 8.79975 0.0293802 8.81812C0.0293802 8.8218 0.0293793 8.82547 0.0257057 8.82547C0.0220312 8.84384 0.0146832 8.85854 0.0146832 8.87691C0.0146832 8.88426 0.0146832 8.88793 0.0110086 8.89528C0.00733414 8.90998 0.00733413 8.92467 0.00365963 8.93937C-1.39289e-05 8.96142 -1.39305e-05 8.97979 -1.39324e-05 9.00183C-1.39344e-05 9.02388 -1.3936e-05 9.04225 0.00365962 9.0643C0.00365961 9.07899 0.00733412 9.09369 0.0110086 9.10839C0.0110086 9.11573 0.0110086 9.11941 0.0146831 9.12676C0.0183576 9.14513 0.0220312 9.15982 0.0257057 9.1782C0.0257057 9.18187 0.0257057 9.18554 0.0293802 9.18554C0.0330538 9.20392 0.0404028 9.21861 0.0477508 9.23698C0.0477508 9.24066 0.0477508 9.24066 0.0514253 9.24433C0.0587734 9.25903 0.0661224 9.2774 0.0734705 9.2921C0.0734705 9.29577 0.077144 9.29944 0.077144 9.29944C0.084493 9.31414 0.0918411 9.32884 0.102865 9.34354C0.106538 9.34721 0.106539 9.35088 0.110213 9.35456C0.121235 9.36926 0.128583 9.38395 0.139606 9.39498C0.14328 9.39865 0.143281 9.39865 0.146955 9.40232C0.161652 9.41702 0.172675 9.43539 0.191045 9.45009L3.82485 13.0802C4.07102 13.3264 4.47151 13.3264 4.71768 13.0802C4.96385 12.834 4.96385 12.4336 4.71768 12.1874L2.16043 9.63012L12.327 9.63013C12.676 9.63013 12.959 9.34721 12.959 9.00183C12.959 8.65278 12.676 8.36987 12.327 8.36987L2.15675 8.36987L4.69564 5.83098C4.94181 5.58481 4.94181 5.18432 4.69564 4.93815C4.57439 4.8169 4.41272 4.75444 4.25106 4.75444C4.08939 4.75444 3.92773 4.8169 3.80648 4.93815L0.19472 8.5499C0.176348 8.57195 0.161652 8.58665 0.146955 8.60134Z" fill="white"/>
<path d="M13.286 16.7397L8.58297 16.7397C8.23392 16.7397 7.951 17.0227 7.951 17.368C7.951 17.7171 8.23392 18 8.58297 18L13.286 18C15.1708 18 16.7067 16.4642 16.7067 14.5793L16.7067 3.4207C16.7067 1.53583 15.1708 3.68043e-06 13.286 3.51565e-06L8.66013 3.11125e-06C8.31108 3.08073e-06 8.02816 0.282918 8.02816 0.628295C8.02816 0.977346 8.31108 1.26026 8.66013 1.26026L13.286 1.26026C14.4764 1.26026 15.4464 2.23026 15.4464 3.4207L15.4464 14.5793C15.4427 15.7734 14.4764 16.7397 13.286 16.7397Z" fill="white"/>
</svg>
