<svg width="18" height="11" viewBox="0 0 18 11" fill="none" xmlns="http://www.w3.org/2000/svg">
<path d="M8.52558 0C5.26777 0 2.31343 1.78238 0.133417 4.67743C-0.0444722 4.91461 -0.0444722 5.24597 0.133417 5.48316C2.31343 8.3817 5.26777 10.1641 8.52558 10.1641C11.7834 10.1641 14.7377 8.3817 16.9177 5.48664C17.0956 5.24946 17.0956 4.9181 16.9177 4.68091C14.7377 1.78238 11.7834 0 8.52558 0ZM8.75927 8.66074C6.59671 8.79677 4.81084 7.0144 4.94688 4.84834C5.05849 3.06248 6.50602 1.61495 8.29188 1.50333C10.4544 1.3673 12.2403 3.14968 12.1043 5.31573C11.9892 7.09811 10.5416 8.54563 8.75927 8.66074ZM8.65114 7.00742C7.48615 7.08067 6.52346 6.12146 6.60019 4.95647C6.65949 3.99378 7.4408 3.21595 8.4035 3.15316C9.56849 3.07992 10.5312 4.03912 10.4544 5.20412C10.3917 6.1703 9.61035 6.94812 8.65114 7.00742Z" fill="#9DB2C6"/>
</svg>
