<svg width="20" height="20" viewBox="0 0 20 20" fill="none" xmlns="http://www.w3.org/2000/svg">
<path d="M18.5859 14.377C17.9956 13.7868 17.0078 13.2717 15.4506 12.4928C14.6656 12.1003 13.3591 11.4473 13.0423 11.1482C14.3687 9.51789 15.1386 7.67647 15.1386 6.06458C15.1386 4.97082 15.1386 3.60972 14.5264 2.3958C13.9745 1.30251 12.7412 0 10.0003 0C7.25876 0 6.02548 1.30251 5.47423 2.39564C4.86127 3.60972 4.86127 4.97066 4.86127 6.06442C4.86127 7.67694 5.63048 9.51789 6.95767 11.1481C6.64017 11.4477 5.33377 12.1009 4.54877 12.4926C2.99205 13.2714 2.00425 13.7865 1.41347 14.3768C0.105814 15.6854 0.00690822 17.8809 0.000189487 18.3081C-0.00652924 18.7537 0.165658 19.1845 0.479407 19.5031C0.791906 19.8205 1.2205 20 1.66612 20H18.3331C18.78 20 19.2075 19.8206 19.5206 19.5031C19.8337 19.1845 20.0065 18.7536 19.9998 18.3075C19.9931 17.8811 19.8934 15.6856 18.5859 14.377ZM18.6304 18.6256C18.5511 18.7056 18.4454 18.7501 18.3331 18.7501H1.66612C1.55565 18.7501 1.44768 18.705 1.37003 18.6256C1.29253 18.5469 1.24862 18.4383 1.24972 18.3272C1.25331 18.1178 1.31081 16.2483 2.29737 15.2614C2.75284 14.8061 3.70627 14.3123 5.10799 13.6109C6.60423 12.8632 7.43391 12.4176 7.8161 12.0563L8.65969 11.2587L7.92719 10.359C6.77345 8.94179 6.11111 7.37615 6.11111 6.06458C6.11111 5.05316 6.11111 3.90753 6.5897 2.95909C7.16282 1.82501 8.30922 1.25001 10.0003 1.25001C11.69 1.25001 12.8376 1.82501 13.4103 2.95846C13.8889 3.90753 13.8889 5.05316 13.8889 6.06458C13.8889 7.37568 13.2272 8.94116 12.072 10.359L11.3395 11.2593L12.1833 12.0565C12.5653 12.4173 13.3944 12.8628 14.8912 13.611C16.2929 14.3117 17.2464 14.8056 17.7018 15.2615C18.5047 16.0642 18.7384 17.5662 18.7493 18.3273C18.7514 18.4383 18.7079 18.5469 18.6304 18.6256Z" fill="white"/>
</svg>
