<svg width="18" height="16" viewBox="0 0 18 16" fill="none" xmlns="http://www.w3.org/2000/svg">
<path d="M9 16C8.74336 16 8.49727 15.9087 8.30391 15.7401C7.57617 15.1043 6.87656 14.5071 6.25781 13.9802L6.2543 13.9767C4.44023 12.4347 2.87578 11.0999 1.78594 9.78617C0.566016 8.31789 0 6.92689 0 5.40593C0 3.92711 0.50625 2.56422 1.42734 1.56663C2.35898 0.554994 3.63867 0 5.02734 0C6.06797 0 7.01719 0.326674 7.85391 0.976509C8.27578 1.30318 8.65898 1.70362 8.99648 2.1708C9.33398 1.70362 9.71719 1.30318 10.1391 0.976509C10.9828 0.326674 11.932 0 12.9727 0C14.3613 0 15.641 0.554994 16.5727 1.56663C17.4937 2.56422 18 3.92711 18 5.40593C18 6.92689 17.434 8.31789 16.2141 9.78617C15.1242 11.0999 13.5598 12.4347 11.7457 13.9767C11.127 14.5036 10.4238 15.1008 9.69609 15.7401C9.50273 15.9087 9.25664 16 9 16ZM5.02734 1.05379C3.9375 1.05379 2.93203 1.48935 2.2043 2.27969C1.4625 3.08408 1.05469 4.19407 1.05469 5.40593C1.05469 6.68452 1.5293 7.82964 2.59805 9.11526C3.62812 10.3587 5.16445 11.6654 6.93984 13.1759L6.94336 13.1794C7.56563 13.7098 8.26875 14.3069 9 14.9462C9.73828 14.3034 10.4414 13.7063 11.0637 13.1759C12.8391 11.6619 14.3719 10.3587 15.4055 9.11526C16.4707 7.82964 16.9488 6.68452 16.9488 5.40593C16.9488 4.19407 16.541 3.08408 15.7992 2.27969C15.068 1.48935 14.0625 1.05379 12.9727 1.05379C12.1711 1.05379 11.4363 1.3067 10.7895 1.809C10.2129 2.2551 9.80859 2.82064 9.57305 3.21405C9.45 3.41778 9.23906 3.53721 9 3.53721C8.76094 3.53721 8.55 3.41427 8.42695 3.21405C8.19141 2.81712 7.78711 2.2551 7.21055 1.809C6.56367 1.3067 5.82891 1.05379 5.02734 1.05379Z" fill="white"/>
</svg>
