<svg width="17" height="22" viewBox="0 0 17 22" fill="none" xmlns="http://www.w3.org/2000/svg">
<path d="M8.04926 8.45212C7.78113 8.18399 7.34526 8.18262 7.07576 8.45074L4.81251 10.7154L3.92426 9.82574C3.65613 9.55762 3.22026 9.55762 2.95213 9.82574C2.68401 10.0939 2.68401 10.5297 2.95213 10.7979L4.32713 12.1729C4.46051 12.3076 4.63651 12.375 4.81251 12.375C4.98851 12.375 5.16451 12.3076 5.29926 12.1742L8.04926 9.42424C8.31738 9.15612 8.31738 8.72024 8.04926 8.45212Z" fill="white"/>
<path d="M8.04926 13.9521C7.78113 13.684 7.34526 13.6826 7.07576 13.9507L4.81251 16.2154L3.92426 15.3271C3.65613 15.059 3.22026 15.059 2.95213 15.3271C2.68401 15.5952 2.68401 16.0311 2.95213 16.2992L4.32713 17.6742C4.46051 17.8076 4.63651 17.875 4.81251 17.875C4.98851 17.875 5.16451 17.8076 5.29926 17.6742L8.04926 14.9242C8.31738 14.6561 8.31738 14.2202 8.04926 13.9521Z" fill="white"/>
<path d="M13.0625 9.625H10.3125C9.933 9.625 9.625 9.933 9.625 10.3125C9.625 10.692 9.933 11 10.3125 11H13.0625C13.442 11 13.75 10.692 13.75 10.3125C13.75 9.933 13.442 9.625 13.0625 9.625Z" fill="white"/>
<path d="M13.0625 15.125H10.3125C9.933 15.125 9.625 15.433 9.625 15.8125C9.625 16.192 9.933 16.5 10.3125 16.5H13.0625C13.442 16.5 13.75 16.192 13.75 15.8125C13.75 15.433 13.442 15.125 13.0625 15.125Z" fill="white"/>
<path d="M15.125 2.75H12.375V2.0625C12.375 1.683 12.067 1.375 11.6875 1.375H10.1956C9.911 0.57475 9.1465 0 8.25 0C7.3535 0 6.589 0.57475 6.30438 1.375H4.8125C4.433 1.375 4.125 1.683 4.125 2.0625V2.75H1.375C0.617375 2.75 0 3.36737 0 4.125V20.625C0 21.3826 0.617375 22 1.375 22H15.125C15.8826 22 16.5 21.3826 16.5 20.625V4.125C16.5 3.36737 15.8826 2.75 15.125 2.75ZM5.5 2.75H6.875C7.2545 2.75 7.5625 2.442 7.5625 2.0625C7.5625 1.683 7.8705 1.375 8.25 1.375C8.6295 1.375 8.9375 1.683 8.9375 2.0625C8.9375 2.442 9.2455 2.75 9.625 2.75H11V4.125H5.5V2.75ZM15.125 20.625H1.375V4.125H4.125V4.8125C4.125 5.192 4.433 5.5 4.8125 5.5H11.6875C12.067 5.5 12.375 5.192 12.375 4.8125V4.125H15.125V20.625Z" fill="white"/>
</svg>
