<svg width="70" height="70" viewBox="0 0 70 70" fill="none" xmlns="http://www.w3.org/2000/svg">
<path d="M64.336 50.5636C64.0693 49.841 63.2675 49.4715 62.545 49.7381L48.043 55.0891C47.3204 55.3557 46.9509 56.1576 47.2175 56.8802C47.4254 57.4435 47.9585 57.7922 48.5259 57.7922C48.6861 57.7922 48.8492 57.7643 49.0085 57.7057L63.5105 52.3546C64.2331 52.088 64.6026 51.2862 64.336 50.5636Z" fill="white"/>
<path d="M45.8465 57.3861C45.5801 56.6634 44.7781 56.2939 44.0555 56.5605L43.4414 56.787C42.719 57.0536 42.3493 57.8555 42.6159 58.5779C42.8237 59.1412 43.3569 59.4901 43.9243 59.4901C44.0845 59.4901 44.2476 59.4622 44.4069 59.4035L45.021 59.177C45.7434 58.9104 46.1131 58.1087 45.8465 57.3861Z" fill="white"/>
<path d="M64.3374 44.8815C64.0707 44.1589 63.269 43.7896 62.5464 44.056L51.0859 48.2847C50.3634 48.5513 49.9938 49.3532 50.2604 50.0757C50.4684 50.639 51.0014 50.9878 51.5688 50.9878C51.7291 50.9878 51.8922 50.9599 52.0514 50.9012L63.5119 46.6725C64.2345 46.4059 64.604 45.604 64.3374 44.8815Z" fill="white"/>
<path d="M64.3374 39.2584C64.0707 38.5359 63.269 38.1666 62.5464 38.4329L51.0859 42.6616C50.3634 42.9282 49.9938 43.7301 50.2604 44.4527C50.4684 45.0159 51.0014 45.3647 51.5688 45.3647C51.7291 45.3647 51.8922 45.3368 52.0514 45.2782L63.5119 41.0495C64.2345 40.7829 64.604 39.981 64.3374 39.2584Z" fill="white"/>
<path d="M69.0884 13.744L35.4828 1.34419C35.1712 1.22935 34.8288 1.22935 34.5174 1.34419L0.911777 13.744L0.911504 13.7451C0.801445 13.7859 0.695625 13.8397 0.597188 13.9082C0.222988 14.1691 0 14.5963 0 15.0523V54.9477C0 55.5316 0.363809 56.0537 0.911641 56.2559L34.5172 68.6558C34.6739 68.7136 34.8373 68.7419 34.9999 68.7419C35.1641 68.7419 35.3274 68.7121 35.4822 68.655L35.4828 68.6558L69.0884 56.2559C69.6362 56.0537 70 55.5317 70 54.9477V15.0523C70 14.4682 69.6362 13.9462 69.0884 13.744ZM33.6056 65.3468L2.78879 53.9759V17.0532L9.06363 19.3686V36.2641C9.06363 36.848 9.42744 37.3701 9.97527 37.5723L25.035 43.1293C25.1917 43.1871 25.355 43.2154 25.5176 43.2154C25.799 43.2154 26.0779 43.1302 26.3151 42.9649C26.6891 42.7042 26.9121 42.277 26.9121 41.821V25.9544L33.6053 28.4241V65.3468H33.6056ZM24.1235 24.9253V39.8199L11.8526 35.292V20.3975L24.1235 24.9253ZM14.4863 18.3855L25.5179 14.315L36.5494 18.3855L25.5179 22.456L14.4863 18.3855ZM35 25.9659L29.5311 23.9479L41.0605 19.6936C41.6083 19.4914 41.9721 18.9694 41.9721 18.3854C41.9721 17.8013 41.6083 17.2793 41.0605 17.0771L26.0006 11.5203C25.689 11.4055 25.3468 11.4055 25.0351 11.5203L10.443 16.9048L5.42268 15.0523L35 4.13886L64.5773 15.0524L35 25.9659ZM67.2112 53.9759L36.3945 65.3466V28.4241L67.2112 17.0532V53.9759Z" fill="white"/>
</svg>
