<svg width="31" height="11" viewBox="0 0 31 11" fill="none" xmlns="http://www.w3.org/2000/svg">
<path d="M18.323 2.47351e-07L17 1.28563L21.354 5.5L17 9.71438L18.323 11L24 5.5L18.323 2.47351e-07Z" fill="#ED0035"/>
<path d="M12.677 11L14 9.71437L9.646 5.5L14 1.28562L12.677 1.45218e-08L7 5.5L12.677 11Z" fill="#ED0035"/>
<path d="M5.677 11L7 9.71437L2.646 5.5L7 1.28562L5.677 -1.16414e-07L4.96482e-07 5.5L5.677 11Z" fill="#A6A9B0"/>
<path d="M25.323 -1.45218e-08L24 1.28563L28.354 5.5L24 9.71438L25.323 11L31 5.5L25.323 -1.45218e-08Z" fill="#A6A9B0"/>
</svg>
