<svg width="80" height="80" viewBox="0 0 80 80" fill="none" xmlns="http://www.w3.org/2000/svg">
<circle cx="40" cy="40" r="39" stroke="#96C93D" stroke-width="2"/>
<path d="M38.808 28.7145L38.8077 28.7145L38.8076 28.7144L38.8075 28.7144L37.5556 28.3879V29.6822V36.8106V37.8106H38.5556H46.6541V42.4207H38.5283H37.5283V43.4207V48.461V48.4755L37.5287 48.4901C37.6623 53.0785 38.7229 55.1556 39.9348 56.2588C40.3167 56.6064 40.7649 56.878 41.0293 57.0316C40.7226 57.7158 39.9741 58.5785 38.8793 59.3163C37.681 60.1238 36.2341 60.6667 34.8752 60.6667C32.9218 60.6667 31.1519 60.0244 29.8659 58.6632C28.5781 57.3 27.666 55.0989 27.666 51.7732V21.0047H52.1421C52.1698 21.1339 52.1993 21.287 52.2265 21.4599C52.3202 22.0553 52.3842 22.8655 52.2763 23.742C52.0661 25.4505 51.2121 27.4378 48.4694 28.6515C46.6979 29.4245 44.3302 29.4745 42.2968 29.2876C41.2993 29.1959 40.4207 29.0512 39.792 28.9295C39.4782 28.8687 39.2282 28.8139 39.0584 28.7748C38.9736 28.7553 38.9089 28.7396 38.8664 28.7292L38.8197 28.7175L38.8094 28.7149L38.808 28.7145ZM41.2842 57.1868C41.284 57.1868 41.2821 57.1852 41.2787 57.1822C41.2826 57.1852 41.2843 57.1868 41.2842 57.1868Z" stroke="#96C93D" stroke-width="2"/>
</svg>
