<svg width="86" height="21" fill="none" xmlns="http://www.w3.org/2000/svg"><g clip-path="url(#clip0)" fill="#FDCD39"><path d="M18.94 16.87L16.61 12a8.64 8.64 0 0 1-5.6 3.51l2 4.11a.66.66 0 0 0 .87.33.64.64 0 0 0 .36-.38l1-2.7.2-.1 2.76 1a.66.66 0 0 0 .79-.49.59.59 0 0 0-.05-.41zm-9.43-2.53a7.23 7.23 0 0 0 7.29-7.17A7.23 7.23 0 0 0 9.51 0a7.24 7.24 0 0 0-7.3 7.17 7.25 7.25 0 0 0 7.3 7.17zM6.32 5.53l1.79-.25.81-1.6a.66.66 0 0 1 .88-.29.68.68 0 0 1 .29.29l.81 1.6 1.79.25a.65.65 0 0 1 .57.73.64.64 0 0 1-.2.38l-1.3 1.24.25 1.75a.66.66 0 0 1-.97.69l-1.53-.83-1.6.83a.67.67 0 0 1-.9-.32.61.61 0 0 1 0-.37l.31-1.75-1.37-1.24a.64.64 0 0 1 0-.92.72.72 0 0 1 .37-.19zm-.24 14.09l1.93-4.11A8.65 8.65 0 0 1 2.4 12L.07 16.87a.65.65 0 0 0 .31.87.69.69 0 0 0 .51 0l2.76-1 .2.1 1 2.7a.67.67 0 0 0 .87.36.71.71 0 0 0 .36-.28z"/></g><g clip-path="url(#clip1)" fill="#FDCD39"><path d="M43.08 14.2a2.4 2.4 0 1 0 2.41 2.4 2.41 2.41 0 0 0-2.41-2.4zm0 3.1a.7.7 0 1 1 .67-.7.67.67 0 0 1-.67.7z"/><path d="M42.88 4.2h-4.15a.63.63 0 0 0-.58.6v11.1a.63.63 0 0 0 .58.6h.58a.62.62 0 0 0 .58-.5 3.21 3.21 0 0 1 6.37 0 .55.55 0 0 0 .58.5h.58a.63.63 0 0 0 .58-.6v-5.5a.6.6 0 0 0-.1-.4l-4.53-5.5c-.2-.3-.29-.3-.49-.3zm-3.57 4.5V5.9a.63.63 0 0 1 .58-.6h2.51a.52.52 0 0 1 .39.2l2.31 2.8a.56.56 0 0 1-.38.9h-4.83c-.29.1-.58-.2-.58-.5zm-18.73 7.7H22a.62.62 0 0 0 .58-.5 3.1 3.1 0 0 1 3.18-2.8A3.11 3.11 0 0 1 29 15.9a.55.55 0 0 0 .58.5h7a.63.63 0 0 0 .58-.6V1.6a.63.63 0 0 0-.58-.6h-16a.63.63 0 0 0-.58.6v14.2a.63.63 0 0 0 .58.6z"/><path d="M25.79 14.2a2.4 2.4 0 1 0 2.42 2.4 2.55 2.55 0 0 0-2.42-2.4zm0 3.1a.7.7 0 1 1 .68-.7.67.67 0 0 1-.68.7z"/></g><g clip-path="url(#clip2)" fill="#FDCD39"><path d="M60.99 1.53v3.39h3.54l-3.54-3.39z"/><path d="M59.35 6.4V1h-9.41a.88.88 0 0 0-.94.8v16.3a.87.87 0 0 0 .84.9h14.22a.92.92 0 0 0 .94-.9V6.4h-5.65zm-8.47-3.15a.44.44 0 0 1 .43-.45H57a.44.44 0 0 1 .47.41v3.64a.44.44 0 0 1-.47.45h-5.65a.44.44 0 0 1-.47-.41V3.25zm8.47 11.25h-7.53a.9.9 0 1 1 0-1.79h7.53a.86.86 0 0 1 .94.78v.12a.92.92 0 0 1-.94.89zm2.83-3.6H51.82a.9.9 0 1 1 0-1.8h10.36a.88.88 0 0 1 .94.8v.1a.921.921 0 0 1-.94.9z"/></g><g clip-path="url(#clip3)" fill="#FDCD39"><path d="M75.96 12.8l-2.44-2.12-7.07 5.94c.272.251.63.387 1 .38h17.11c.37.01.73-.127 1-.38l-7.09-5.94-2.51 2.12z"/><path d="M85.54 3.38a1.41 1.41 0 0 0-1-.38H67.43a1.45 1.45 0 0 0-1 .38l9.53 8.02 9.58-8.02zm-19.58.85v11.63l6.9-5.75-6.9-5.88zm13.13 5.88l6.87 5.75V4.22l-6.87 5.89z"/></g><defs><clipPath id="clip0"><path fill="#fff" d="M0 0h19v20.01H0z"/></clipPath><clipPath id="clip1"><path fill="#fff" transform="translate(20 1)" d="M0 0h28v18H0z"/></clipPath><clipPath id="clip2"><path fill="#fff" transform="translate(49 1)" d="M0 0h16v18H0z"/></clipPath><clipPath id="clip3"><path fill="#fff" transform="translate(66 3)" d="M0 0h20v14H0z"/></clipPath></defs></svg>