<svg width="48" height="48" viewBox="0 0 48 48" fill="none" xmlns="http://www.w3.org/2000/svg">
<g clip-path="url(#clip0)">
<path d="M39.9747 0.800001H25.5747C22.6555 0.810938 19.9739 2.41094 18.5782 4.97539C17.5774 4.84727 16.5688 4.79414 15.5602 4.81523C14.5528 1.93047 11.8305 -0.00117135 8.77467 5.32918e-07H7.17467C3.5192 0.0121099 0.452795 2.76211 0.0442008 6.39453C-0.364784 10.0273 2.01334 13.3898 5.57467 14.2145V17.6H3.97467V19.2H5.57467V20.8H3.97467V22.4H5.57467V45.6C5.57467 46.9254 6.64928 48 7.97467 48C9.30045 48 10.3747 46.9254 10.3747 45.6V41.6H11.9747V44.8H18.3747V40H16.7747V38.4H18.3747V33.6H11.9747V36.8H10.3747V22.4H11.9747V20.8H10.3747V19.2H11.9747V17.6H10.3747V14.2137C11.5243 13.9508 12.5907 13.4082 13.4797 12.6336C14.3071 12.7414 15.1403 12.7969 15.9747 12.8C16.8446 12.7965 17.7129 12.7355 18.5747 12.6176C19.9692 15.1855 22.6528 16.7891 25.5747 16.8H39.9747C44.393 16.8 47.9747 13.2184 47.9747 8.8C47.9747 4.38164 44.393 0.800001 39.9747 0.800001ZM8.77467 36.8V45.6C8.77467 46.0418 8.41647 46.4 7.97467 46.4C7.53287 46.4 7.17467 46.0418 7.17467 45.6V22.4H8.77467V36.8ZM8.77467 20.8H7.17467V19.2H8.77467V20.8ZM8.77467 17.6H7.17467V14.4H8.77467V17.6ZM13.5747 38.4V35.2H16.7747V36.8H15.1747V41.6H16.7747V43.2H13.5747V40H10.3747V38.4H13.5747ZM14.3477 7.7457C14.3419 7.80391 14.3309 7.86094 14.3235 7.91836C14.3083 8.03984 14.2922 8.1586 14.2692 8.28008C14.2555 8.34805 14.238 8.41445 14.2219 8.48086C14.1973 8.58789 14.1715 8.69531 14.1419 8.80078C14.1212 8.87031 14.0965 8.93828 14.0731 9.00703C14.0387 9.10703 14.0036 9.20703 13.9637 9.30547C13.9356 9.37422 13.9051 9.44141 13.8739 9.50977C13.8309 9.60469 13.786 9.69844 13.7372 9.79102C13.702 9.85742 13.6653 9.92305 13.6278 9.98867C13.5743 10.0789 13.5192 10.1676 13.463 10.2551C13.4212 10.3184 13.3829 10.3816 13.3348 10.4434C13.2739 10.5289 13.209 10.6121 13.1426 10.6938C13.095 10.7527 13.0469 10.8129 12.9965 10.8703C12.9747 10.8953 12.9516 10.9176 12.9294 10.9414L12.8278 10.9246C12.7196 10.9055 12.6141 10.884 12.5075 10.8625C12.4012 10.8406 12.3126 10.8223 12.218 10.8008C12.1235 10.7793 12.0212 10.7543 11.9243 10.7297C11.8278 10.7047 11.7364 10.6824 11.6462 10.6566C11.5555 10.6313 11.4602 10.6031 11.37 10.577C11.2797 10.5504 11.1973 10.5238 11.1141 10.4969C11.0309 10.4695 10.9348 10.4336 10.8547 10.4L10.7051 10.3441C10.8731 10.2285 11.0333 10.1023 11.1852 9.96641C11.218 9.9375 11.2462 9.90469 11.2774 9.87539C11.4192 9.7418 11.5528 9.6 11.6774 9.45039C11.7219 9.39609 11.7653 9.34141 11.8075 9.28555C11.9239 9.13242 12.0309 8.97188 12.1278 8.80547C12.1508 8.76641 12.1774 8.72578 12.1989 8.68867C12.3106 8.48281 12.4067 8.26875 12.4868 8.04883C12.5075 7.99219 12.5227 7.93359 12.5419 7.87617C12.5993 7.69961 12.6458 7.51953 12.6821 7.3375C12.6958 7.26953 12.7098 7.20234 12.7204 7.13359C12.7571 6.89063 12.7755 6.6457 12.7747 6.4C12.7719 6.24141 12.7571 6.08281 12.7301 5.92656V5.91992C12.5032 4.35352 11.1575 3.19375 9.57467 3.2C9.36256 3.2 9.15905 3.28438 9.00904 3.43438L7.97467 4.46875L6.94029 3.43438C6.79029 3.28438 6.58678 3.2 6.37467 3.2C4.60748 3.2 3.17467 4.63281 3.17467 6.4C3.17779 9.04961 5.32506 11.1969 7.97467 11.2C8.19576 11.1977 8.41647 11.1785 8.63483 11.1434C8.66139 11.1391 8.686 11.1434 8.7149 11.1367C8.7317 11.1473 8.75162 11.1566 8.76842 11.168C8.88444 11.2426 9.00826 11.3129 9.13795 11.3832C9.18444 11.409 9.22584 11.4352 9.27389 11.4633C9.45319 11.5559 9.64225 11.6445 9.84108 11.7289C9.89147 11.7504 9.94772 11.7695 10.0012 11.7902C10.154 11.852 10.309 11.9129 10.4723 11.9688C10.5524 11.9969 10.6387 12.023 10.7227 12.0488C10.8645 12.0945 11.0075 12.1391 11.1563 12.1809C11.1958 12.1922 11.2317 12.2047 11.2715 12.216C10.4962 12.6027 9.64108 12.8023 8.77467 12.8H7.17467C4.08209 12.8 1.57467 10.293 1.57467 7.2C1.57467 4.10703 4.08209 1.6 7.17467 1.6H8.77467C11.3364 1.59922 13.5708 3.33984 14.1965 5.82383C14.3126 6.27344 14.3727 6.73555 14.3747 7.2C14.3747 7.3832 14.3653 7.56563 14.3477 7.7457ZM7.19967 9.09844C7.19967 9.12383 7.20748 9.14883 7.21256 9.17852C7.23287 9.29531 7.26334 9.41055 7.30279 9.52227V9.52969C7.1149 9.48945 6.93092 9.43203 6.75319 9.35859C6.70123 9.33672 6.65397 9.30703 6.60358 9.2832C6.47819 9.22539 6.3567 9.15938 6.23951 9.08555C6.17897 9.04648 6.12272 9 6.06529 8.95664C5.96803 8.88516 5.87467 8.8082 5.786 8.72656C5.73014 8.67344 5.67819 8.61758 5.62584 8.56094C5.54694 8.47461 5.47233 8.38438 5.40279 8.29024C5.35709 8.22813 5.31256 8.16484 5.27076 8.09844C5.20787 7.99649 5.15084 7.89141 5.09967 7.7832C5.06686 7.71524 5.03248 7.64883 5.00436 7.57852C4.95748 7.45469 4.91803 7.32774 4.88678 7.19922C4.87076 7.13594 4.8485 7.07539 4.83561 7.01055C4.79576 6.80938 4.77545 6.60508 4.77467 6.4C4.77467 5.63281 5.3192 4.97383 6.07233 4.82891L7.40904 6.16563C7.72154 6.47774 8.22819 6.47774 8.54029 6.16563L9.8774 4.82891C10.02 4.8582 10.1583 4.90742 10.2876 4.97539C10.3165 4.98945 10.3454 5.00391 10.3723 5.01992C10.4946 5.08984 10.6071 5.17578 10.7067 5.27539C10.7196 5.28867 10.7301 5.30469 10.7426 5.31836C10.7895 5.37617 10.8325 5.43711 10.8708 5.50078C10.8485 5.50781 10.8294 5.51602 10.8067 5.52305C10.686 5.56094 10.5774 5.60313 10.4622 5.64336C10.279 5.70703 10.0973 5.77109 9.92779 5.84063C9.8149 5.88711 9.711 5.93672 9.60748 5.98555C9.45397 6.05586 9.30436 6.12813 9.16451 6.20313C9.06529 6.25664 8.97233 6.31211 8.88131 6.36797C8.75279 6.44649 8.63092 6.52656 8.51647 6.60781C8.43639 6.66719 8.35631 6.72734 8.28053 6.78789C8.17545 6.87422 8.08053 6.96328 7.98912 7.05352C7.92584 7.1168 7.86217 7.1793 7.80592 7.24492C7.72701 7.33906 7.65397 7.43828 7.58756 7.54141C7.54537 7.60547 7.49811 7.66875 7.46217 7.73438C7.40397 7.84609 7.35475 7.9625 7.31569 8.08242C7.29576 8.13984 7.26686 8.19531 7.25162 8.25352C7.17428 8.52813 7.15748 8.81602 7.20279 9.09766L7.19967 9.09844ZM8.82428 8.5832C8.83404 8.55938 8.85084 8.53516 8.86373 8.51055C8.89303 8.4543 8.9274 8.40078 8.96608 8.35039C8.98834 8.32149 9.01412 8.29219 9.04029 8.2625C9.09069 8.20625 9.1442 8.15274 9.20045 8.10234C9.23405 8.07266 9.26686 8.04258 9.30436 8.01289C9.37545 7.95508 9.45631 7.89844 9.54459 7.84063C9.58287 7.81524 9.61725 7.78867 9.65865 7.76094C9.79069 7.68086 9.93483 7.59609 10.0965 7.51602L10.1348 7.49844C10.286 7.42461 10.4501 7.35274 10.6251 7.28242C10.686 7.25742 10.754 7.23438 10.818 7.21133C10.9036 7.1793 10.995 7.14883 11.086 7.11836C11.063 7.21836 11.0411 7.31836 11.0059 7.41445C10.9997 7.43359 10.9958 7.45352 10.9891 7.47266C10.9352 7.62188 10.8704 7.76641 10.795 7.90547C10.7747 7.94336 10.7508 7.9793 10.7294 8.0168C10.6692 8.11836 10.6036 8.2168 10.5325 8.31133C10.5036 8.34961 10.4747 8.39102 10.4446 8.42461C10.3567 8.53125 10.2622 8.63203 10.1614 8.72656C10.1469 8.73984 10.134 8.75586 10.1188 8.76953C10.0005 8.87461 9.87467 8.9707 9.74186 9.05664C9.70514 9.08086 9.66217 9.10234 9.6278 9.12578C9.52428 9.18789 9.41725 9.24414 9.30748 9.29453C9.26373 9.31445 9.22037 9.33438 9.17545 9.35274C9.14615 9.36484 9.11412 9.37109 9.08444 9.38242C9.06022 9.35742 9.03561 9.33516 9.01334 9.30781L8.98678 9.27774C8.93483 9.21406 8.8899 9.14492 8.8524 9.07188C8.84537 9.05664 8.83873 9.04141 8.83248 9.02734C8.79811 8.95625 8.77819 8.87891 8.77467 8.8C8.7774 8.72539 8.7942 8.65156 8.82428 8.5832ZM17.6547 9.83984C17.6676 9.93906 17.686 10.0375 17.7028 10.1359C17.7481 10.4008 17.8067 10.6629 17.879 10.9215C17.8958 10.9809 17.9012 11.0414 17.9188 11.1C16.8794 11.2074 15.8329 11.2281 14.7899 11.1617C14.8133 11.1266 14.8294 11.0871 14.8524 11.0512C14.9919 10.8328 15.1192 10.6066 15.234 10.3742C15.2692 10.3039 15.3044 10.2336 15.3372 10.1625C15.4653 9.88438 15.5751 9.59805 15.6661 9.30547C15.6774 9.26875 15.6844 9.23047 15.695 9.19297C15.77 8.92852 15.8297 8.66016 15.8739 8.38867C15.8876 8.30899 15.9005 8.22891 15.911 8.14414C15.9524 7.83086 15.9739 7.51563 15.9747 7.2C15.9747 6.93281 15.9587 6.66563 15.9278 6.4C16.5915 6.39961 17.2544 6.43281 17.9149 6.5C17.8973 6.55859 17.8907 6.61914 17.8747 6.67852C17.8028 6.93711 17.7442 7.19922 17.6989 7.46406C17.6821 7.5625 17.6645 7.66094 17.6508 7.76016C17.6028 8.10469 17.5774 8.45195 17.5747 8.8C17.5786 9.14805 17.6055 9.49531 17.6547 9.83984ZM39.9747 15.2H25.5747C23.4286 15.1957 21.427 14.118 20.2419 12.3289C20.2692 12.3223 20.293 12.3129 20.3219 12.3063C20.6665 12.2223 20.9954 12.1281 21.3083 12.0238C21.4219 11.9863 21.5243 11.9441 21.6333 11.9039C21.8547 11.8238 22.0692 11.7391 22.2731 11.648C22.3212 11.6266 22.3782 11.6098 22.4243 11.5871H22.4294L22.4594 11.6016C22.5922 11.6742 22.7301 11.7375 22.8715 11.7902C22.9172 11.8078 22.9645 11.8223 23.011 11.8375C23.1231 11.8742 23.2376 11.9043 23.3532 11.9281C23.4004 11.9375 23.4469 11.9488 23.495 11.9559C23.6536 11.9828 23.8137 11.9977 23.9747 12C25.7422 12 27.1747 10.5672 27.1747 8.8C27.1747 7.03281 25.7422 5.6 23.9747 5.6C23.245 5.60195 22.5383 5.85625 21.9747 6.31992C21.2192 6.92188 20.7778 7.83399 20.7747 8.8C20.777 9.01641 20.8012 9.23242 20.8477 9.44414C20.8547 9.47774 20.8594 9.51055 20.8676 9.54336C20.9161 9.74141 20.984 9.93438 21.07 10.1191C21.0868 10.1551 21.1044 10.1895 21.1219 10.2258C21.1395 10.2617 21.1645 10.3199 21.1907 10.3648C21.1055 10.3973 21.018 10.4289 20.9286 10.4602C20.7989 10.5047 20.6692 10.5496 20.5286 10.591C20.3876 10.6328 20.2462 10.6711 20.1012 10.707C19.9563 10.7434 19.8118 10.7824 19.6602 10.816C19.6133 10.8266 19.5622 10.8352 19.5141 10.8449L19.5075 10.8289C19.4114 10.5383 19.336 10.2414 19.2829 9.93985C19.27 9.86875 19.2587 9.79688 19.2485 9.72578C19.0567 8.51758 19.2286 7.28008 19.7426 6.17031C20.779 3.87852 23.0594 2.4043 25.5747 2.4H39.9747C43.5094 2.4 46.3747 5.26524 46.3747 8.8C46.3747 12.3348 43.5094 15.2 39.9747 15.2ZM22.3747 8.8C22.3762 8.66719 22.395 8.53516 22.4301 8.40703C22.4403 8.36641 22.4579 8.32734 22.4723 8.28789C22.5016 8.20273 22.538 8.12031 22.5813 8.04141C22.5907 8.02461 22.6028 8.00899 22.6133 7.99219C22.7032 8.06094 22.7883 8.13594 22.8684 8.21602C22.8868 8.23516 22.8997 8.25352 22.9165 8.27266C22.9743 8.3375 23.0258 8.4082 23.07 8.4832C23.0837 8.50703 23.0981 8.53125 23.1083 8.5543C23.1969 8.70547 23.1969 8.89297 23.1083 9.04414C23.0973 9.06719 23.0837 9.09102 23.07 9.11524C23.0258 9.19024 22.9743 9.26055 22.9165 9.32578C22.8997 9.34492 22.8868 9.36328 22.8684 9.38242C22.7883 9.4625 22.7032 9.5375 22.6133 9.60625C22.6028 9.58945 22.5907 9.57344 22.5813 9.55664C22.538 9.47774 22.5016 9.39531 22.4723 9.31055C22.4579 9.27031 22.4411 9.23047 22.4301 9.19102C22.395 9.06367 22.3762 8.93203 22.3747 8.8ZM24.7485 8.48477C24.7434 8.45117 24.7348 8.4168 24.7278 8.38242C24.7102 8.29648 24.6876 8.21133 24.6594 8.12813C24.6469 8.08789 24.6325 8.04805 24.6165 8.00703C24.5755 7.90547 24.5274 7.80664 24.4731 7.71133C24.4563 7.68086 24.4446 7.65195 24.4251 7.62149C24.3391 7.48281 24.2419 7.35156 24.134 7.22891L24.1227 7.21367C24.1532 7.21367 24.1837 7.21836 24.2133 7.22227C24.2594 7.22969 24.3059 7.23672 24.3508 7.24805C24.4051 7.26172 24.4583 7.27813 24.511 7.29766C24.554 7.31289 24.5973 7.32813 24.638 7.34727C24.688 7.37149 24.7364 7.39805 24.7837 7.42734C24.8227 7.45039 24.8637 7.47266 24.8989 7.49844C24.943 7.53125 24.9856 7.56602 25.0258 7.60313C25.0594 7.63281 25.0942 7.66094 25.1251 7.69297C25.1633 7.73399 25.1989 7.77734 25.2325 7.82227C25.2587 7.85664 25.2876 7.88945 25.3126 7.92578C25.3438 7.97734 25.3719 8.03086 25.3973 8.08555C25.4157 8.12227 25.4372 8.15664 25.4524 8.19453C25.4766 8.25742 25.4965 8.32188 25.5126 8.38711C25.5212 8.4207 25.5348 8.45273 25.5419 8.48711C25.5844 8.69414 25.5844 8.90742 25.5419 9.11445C25.5348 9.14883 25.5219 9.18086 25.5126 9.21445C25.4965 9.27969 25.4766 9.34414 25.4524 9.40703C25.4364 9.44492 25.4157 9.48008 25.3973 9.51602C25.3719 9.5707 25.3438 9.62422 25.3126 9.67617C25.2883 9.71289 25.2594 9.74492 25.2325 9.7793C25.1989 9.82422 25.1633 9.86758 25.1251 9.90899C25.0942 9.94063 25.0594 9.96875 25.0258 9.99844C24.9856 10.0355 24.943 10.0703 24.8989 10.1031C24.8622 10.1297 24.8188 10.1512 24.7837 10.1742C24.7364 10.2035 24.688 10.2301 24.638 10.2543C24.5965 10.2734 24.5532 10.2887 24.511 10.3039C24.4583 10.3234 24.4051 10.3398 24.3508 10.3535C24.3059 10.3648 24.2594 10.3719 24.2133 10.3793C24.1837 10.384 24.1532 10.3855 24.1227 10.3879L24.134 10.3727C24.2419 10.25 24.3391 10.1188 24.4251 9.98008C24.4434 9.94961 24.4563 9.9207 24.4731 9.89023C24.5274 9.79492 24.5755 9.69609 24.6165 9.59453C24.6325 9.55352 24.6462 9.51445 24.6594 9.47344C24.6876 9.39023 24.7102 9.30547 24.7278 9.21914C24.7348 9.18477 24.7426 9.15039 24.7485 9.1168C24.7837 8.9086 24.7837 8.6957 24.7485 8.48711V8.48477Z" fill="#857F77"/>
<path d="M39.9758 4H28.7758V13.6H39.9758C42.6269 13.6 44.7758 11.4508 44.7758 8.8C44.7758 6.14922 42.6269 4 39.9758 4ZM39.9758 12H30.3758V5.6H39.9758C41.7433 5.6 43.1758 7.03281 43.1758 8.8C43.1758 10.5672 41.7433 12 39.9758 12Z" fill="#857F77"/>
</g>
<defs>
<clipPath id="clip0">
<rect width="48" height="48" fill="white"/>
</clipPath>
</defs>
</svg>
