<svg width="48" height="48" viewBox="0 0 48 48" fill="none" xmlns="http://www.w3.org/2000/svg">
<path d="M35.9997 20H15.9997C15.5581 20 15.1997 20.3576 15.1997 20.8C15.1997 21.2424 15.5581 21.6 15.9997 21.6H35.9997C36.4413 21.6 36.7997 21.2424 36.7997 20.8C36.7997 20.3576 36.4413 20 35.9997 20Z" fill="#857F77"/>
<path d="M15.9997 15.1996H23.9997C24.4413 15.1996 24.7997 14.842 24.7997 14.3996C24.7997 13.9572 24.4413 13.5996 23.9997 13.5996H15.9997C15.5581 13.5996 15.1997 13.9572 15.1997 14.3996C15.1997 14.842 15.5581 15.1996 15.9997 15.1996Z" fill="#857F77"/>
<path d="M35.9997 26.4004H15.9997C15.5581 26.4004 15.1997 26.758 15.1997 27.2004C15.1997 27.6428 15.5581 28.0004 15.9997 28.0004H35.9997C36.4413 28.0004 36.7997 27.6428 36.7997 27.2004C36.7997 26.758 36.4413 26.4004 35.9997 26.4004Z" fill="#857F77"/>
<path d="M35.9997 32.7998H15.9997C15.5581 32.7998 15.1997 33.1574 15.1997 33.5998C15.1997 34.0422 15.5581 34.3998 15.9997 34.3998H35.9997C36.4413 34.3998 36.7997 34.0422 36.7997 33.5998C36.7997 33.1574 36.4413 32.7998 35.9997 32.7998Z" fill="#857F77"/>
<path d="M35.9997 39.2002H15.9997C15.5581 39.2002 15.1997 39.5578 15.1997 40.0002C15.1997 40.4426 15.5581 40.8002 15.9997 40.8002H35.9997C36.4413 40.8002 36.7997 40.4426 36.7997 40.0002C36.7997 39.5578 36.4413 39.2002 35.9997 39.2002Z" fill="#857F77"/>
<path d="M39.1998 11.6688V0H4.7998V44H8.7998V48H43.1998V15.6688L39.1998 11.6688ZM31.9998 6.7312L39.1998 13.9312L40.4686 15.2H31.9998V6.7312ZM6.3998 42.4V1.6H37.5998V10.0688L31.531 4H8.7998V42.4H6.3998ZM10.3998 46.4V44V5.6H30.3998V16.8H41.5998V46.4H10.3998Z" fill="#857F77"/>
</svg>
