<svg width="40" height="48" viewBox="0 0 40 48" fill="none" xmlns="http://www.w3.org/2000/svg">
<path d="M32.0001 20H12.0001C11.5585 20 11.2001 20.3576 11.2001 20.8C11.2001 21.2424 11.5585 21.6 12.0001 21.6H32.0001C32.4417 21.6 32.8001 21.2424 32.8001 20.8C32.8001 20.3576 32.4417 20 32.0001 20Z" fill="#C5A26D"/>
<path d="M12.0001 15.1996H20.0001C20.4417 15.1996 20.8001 14.842 20.8001 14.3996C20.8001 13.9572 20.4417 13.5996 20.0001 13.5996H12.0001C11.5585 13.5996 11.2001 13.9572 11.2001 14.3996C11.2001 14.842 11.5585 15.1996 12.0001 15.1996Z" fill="#C5A26D"/>
<path d="M32.0001 26.4004H12.0001C11.5585 26.4004 11.2001 26.758 11.2001 27.2004C11.2001 27.6428 11.5585 28.0004 12.0001 28.0004H32.0001C32.4417 28.0004 32.8001 27.6428 32.8001 27.2004C32.8001 26.758 32.4417 26.4004 32.0001 26.4004Z" fill="#C5A26D"/>
<path d="M32.0001 32.7998H12.0001C11.5585 32.7998 11.2001 33.1574 11.2001 33.5998C11.2001 34.0422 11.5585 34.3998 12.0001 34.3998H32.0001C32.4417 34.3998 32.8001 34.0422 32.8001 33.5998C32.8001 33.1574 32.4417 32.7998 32.0001 32.7998Z" fill="#C5A26D"/>
<path d="M32.0001 39.2002H12.0001C11.5585 39.2002 11.2001 39.5578 11.2001 40.0002C11.2001 40.4426 11.5585 40.8002 12.0001 40.8002H32.0001C32.4417 40.8002 32.8001 40.4426 32.8001 40.0002C32.8001 39.5578 32.4417 39.2002 32.0001 39.2002Z" fill="#C5A26D"/>
<path d="M35.2 11.6688V0H0.800049V44H4.80005V48H39.2V15.6688L35.2 11.6688ZM28 6.7312L35.2 13.9312L36.4688 15.2H28V6.7312ZM2.40005 42.4V1.6H33.6V10.0688L27.5312 4H4.80005V42.4H2.40005ZM6.40005 46.4V44V5.6H26.4V16.8H37.6V46.4H6.40005Z" fill="#C5A26D"/>
</svg>
