<svg width="48" height="48" viewBox="0 0 48 48" fill="none" xmlns="http://www.w3.org/2000/svg">
<path d="M24 0C10.7668 0 0 10.7658 0 24C0 37.2342 10.7668 48 24 48C37.2332 48 48 37.2342 48 24C48 10.7658 37.2332 0 24 0ZM24 46.1538C11.7849 46.1538 1.84615 36.2151 1.84615 24C1.84615 11.7849 11.7849 1.84615 24 1.84615C36.2151 1.84615 46.1538 11.7849 46.1538 24C46.1538 36.2151 36.2151 46.1538 24 46.1538Z" fill="#857F77"/>
<path d="M35.3097 14.1563L21.1229 30.1163L12.5761 23.2791C12.1792 22.9606 11.5967 23.0261 11.2792 23.4231C10.9607 23.8218 11.0254 24.4024 11.4232 24.7209L20.654 32.1055C20.8238 32.2412 21.0278 32.3077 21.2309 32.3077C21.4857 32.3077 21.7395 32.2024 21.9213 31.9975L36.6906 15.3821C37.0294 15.0018 36.9952 14.4175 36.614 14.0797C36.2318 13.74 35.6494 13.7741 35.3097 14.1563Z" fill="#857F77"/>
</svg>
