<svg width="48" height="48" viewBox="0 0 48 48" fill="none" xmlns="http://www.w3.org/2000/svg">
<path d="M24 0C10.7668 0 0 10.7658 0 24C0 37.2342 10.7668 48 24 48C37.2332 48 48 37.2342 48 24C48 10.7658 37.2332 0 24 0ZM24 46.1538C11.7849 46.1538 1.84615 36.2151 1.84615 24C1.84615 11.7849 11.7849 1.84615 24 1.84615C36.2151 1.84615 46.1538 11.7849 46.1538 24C46.1538 36.2151 36.2151 46.1538 24 46.1538Z" fill="#C5A26D"/>
<path d="M35.3094 14.1563L21.1226 30.1163L12.5759 23.2791C12.179 22.9606 11.5965 23.0261 11.279 23.4231C10.9605 23.8218 11.0251 24.4024 11.423 24.7209L20.6537 32.1055C20.8236 32.2412 21.0276 32.3077 21.2306 32.3077C21.4854 32.3077 21.7393 32.2024 21.9211 31.9975L36.6903 15.3821C37.0291 15.0018 36.995 14.4175 36.6137 14.0797C36.2316 13.74 35.6491 13.7741 35.3094 14.1563Z" fill="#C5A26D"/>
</svg>
