<svg width="525" height="365" viewBox="0 0 525 365" fill="none" xmlns="http://www.w3.org/2000/svg">
<path d="M110.878 338C112.956 338 114.773 336.186 114.773 334.113V304.051H137.105C139.182 304.051 141 302.496 141 300.164V277.618C141 275.285 139.182 273.471 137.105 273.471H114.773V165.146C114.773 162.814 112.956 161 110.878 161H85.9503C82.5746 161 80.7569 162.296 79.1989 164.628L2.33702 271.917C0.519337 274.508 0 276.063 0 278.914V300.164C0 302.496 1.81768 304.051 3.89503 304.051H78.9392V334.113C78.9392 336.186 80.7569 338 82.8343 338H110.878ZM78.9392 217.236V273.471H39.2099L78.9392 217.236Z" fill="#9DB2C6"/>
<path d="M494.878 338C496.956 338 498.773 336.186 498.773 334.113V304.051H521.105C523.182 304.051 525 302.496 525 300.164V277.618C525 275.285 523.182 273.471 521.105 273.471H498.773V165.146C498.773 162.814 496.956 161 494.878 161H469.95C466.575 161 464.757 162.296 463.199 164.628L386.337 271.917C384.519 274.508 384 276.063 384 278.914V300.164C384 302.496 385.818 304.051 387.895 304.051H462.939V334.113C462.939 336.186 464.757 338 466.834 338H494.878ZM462.939 217.236V273.471H423.21L462.939 217.236Z" fill="#9DB2C6"/>
<path d="M366.208 98.2597C361.926 97.7758 353.813 97.1229 349.578 96.4407C340.193 94.9654 330.755 93.2684 321.597 90.3816C319.264 89.6234 316.762 89.1394 314.452 88.2821C310.38 86.9057 306.455 85.3543 302.506 83.9021C300.867 83.3073 295.401 81.1843 293.785 80.4903L366.208 98.2597ZM293.762 80.5895C291.149 79.2422 288.711 78.0407 286.296 76.7401C281.291 73.993 276.309 71.1468 271.69 67.6531C266.195 63.4303 260.992 58.8576 257.544 52.6048C254.983 47.9211 254.225 43.1381 256.552 38.1392C258.115 35.0535 260.553 32.6969 263.493 30.8769C268.293 27.8202 273.729 26.0642 279.247 24.8507C285.208 23.5322 291.28 23.0769 297.405 22.8433C301.628 22.6856 305.857 22.9479 310.033 22.9885C310.354 22.9593 310.797 22.8543 311.066 22.6035C313.749 20.0952 316.945 18.9635 320.445 18.3217C325.671 17.4581 330.909 17.4346 336.229 17.9534C341.601 18.694 347.002 19.7553 352.065 21.3649C355.886 22.473 359.467 24.1527 363.171 25.7566C366.677 27.3138 369.844 29.4193 372.72 31.8749C374.447 33.4322 375.928 35.1412 376.897 37.2526C377.025 37.5968 377.451 38.0109 377.824 38.2033C382.076 40.1455 386.329 42.0877 390.558 44.129C395.807 46.7244 400.841 49.7923 405.485 53.1868C407.532 54.7149 409.434 56.4181 411.335 58.1212C414.911 61.16 418.172 64.6479 420.307 68.9175C421.958 72.1314 422.92 75.6019 422.355 79.3408C421.649 83.6747 419.246 86.7721 415.822 89.3155C411.518 92.4888 406.7 94.2856 401.579 95.5924C396.434 96.9984 391.132 97.7394 385.824 98.0605C381.257 98.3465 376.76 98.335 372.239 98.4228C370.238 98.4754 368.185 98.3063 366.109 98.2364L293.762 80.5895ZM332.3 85.3648C339.761 87.0151 347.233 87.7264 354.827 86.5828C357.639 86.1976 360.322 85.4684 362.696 83.8292C365.828 81.6359 366.423 78.2178 364.305 75.2081C362.765 72.8575 360.665 71.1077 358.419 69.5329C352.931 65.7301 346.817 63.2456 340.442 61.4319C334.662 59.7581 328.764 58.5801 322.634 58.3938C318.283 58.2073 313.861 58.3184 309.551 59.2927C307.235 59.7944 305.048 60.6403 303.193 62.2969C301.729 63.6269 301.111 65.3652 301.385 67.3133C301.764 69.7048 303.246 71.4138 304.85 73.0469C308.857 76.9198 313.711 79.4219 318.779 81.4515C323.248 82.9212 332.277 85.4639 332.3 85.3648ZM265.249 38.0921C266.252 37.3863 267.203 36.4588 268.182 35.8521C272.983 32.7955 278.425 31.4595 283.949 30.6659C290.581 29.6098 297.323 29.417 304.072 29.6442C307.286 29.7723 310.576 30.023 313.743 30.3495C317.75 30.6643 321.834 31.1015 325.794 31.6147C329.335 32.1336 332.951 32.7751 336.521 33.6148C342.395 34.892 348.339 35.8716 354.049 37.8429C359.264 39.6975 364.619 40.9571 369.81 42.9109C375.573 45.1038 381.167 47.5709 386.86 50.0613C391.981 52.3125 396.741 55.2113 401.209 58.46C403.082 59.8423 404.808 61.3996 406.558 62.8577C411.062 66.8472 415.075 71.1401 414.673 77.743C414.626 77.9413 414.9 78.1104 414.953 78.3321C415.098 78.1571 415.343 78.0054 415.367 77.9063C415.507 77.3113 415.647 76.7163 415.588 76.0747C415.623 73.2574 414.748 70.7493 413.406 68.4454C410.268 63.1025 405.812 58.9147 400.795 55.3277C394.507 50.9183 387.758 47.1331 380.747 44.0186C375.899 41.9365 371.052 39.8544 366.112 38.1689C361.171 36.4834 356.184 34.9963 351.051 33.6841C340.586 31.0131 329.883 28.9138 318.975 28.1269C314.151 27.7247 309.281 27.5207 304.387 27.416C301.471 27.3578 298.432 27.3754 295.544 27.6381C291.595 27.9649 287.699 28.5134 283.756 29.2602C279.072 30.042 274.645 31.5121 270.527 33.8922C268.515 34.8839 266.654 36.1205 265.249 38.0921ZM314.997 22.7958C315.073 22.9183 315.026 23.1166 315.079 23.3382C334.87 25.0638 354.154 29.3909 372.854 36.1971C372.65 35.7304 372.399 35.4621 372.172 35.0947C369.914 32.6799 367.219 30.7902 364.233 29.2505C359.876 26.865 355.279 25.0512 350.589 23.634C345.007 22.0069 339.384 20.9981 333.621 20.5842C329.317 20.1994 325.018 20.2347 320.731 21.1098C318.858 21.5065 316.916 22.2007 314.997 22.7958ZM333.372 45.2225C332.433 48.769 334.824 51.9478 337.898 52.6709C341.171 53.4407 344.478 51.3932 345.248 48.1209C346.111 44.4519 343.422 41.2031 340.523 40.6258C337.647 39.9493 333.891 41.6819 333.372 45.2225ZM381.926 73.7023C384.108 74.2155 387.555 73.3521 389.474 70.978C390.664 69.4789 390.156 66.7433 388.074 66.2534C385.175 65.6761 382.515 66.3062 380.421 68.5344C378.549 70.7102 379.249 73.0725 381.926 73.7023ZM292.88 52.7548C295.435 53.4604 297.144 51.9788 296.811 49.389C296.449 46.4784 293.247 43.6321 290.354 43.4747C288.598 43.3756 287.478 44.5773 287.577 46.3796C287.741 49.2436 290.004 52.0783 292.88 52.7548Z" fill="#2C77BB"/>
<path d="M318.925 81.2766C313.833 79.3461 308.98 76.844 304.996 72.872C303.392 71.2389 301.91 69.5299 301.531 67.1384C301.257 65.1902 301.875 63.452 303.339 62.122C305.094 60.442 307.381 59.6195 309.697 59.1177C314.007 58.1434 318.329 58.0091 322.78 58.2188C328.91 58.4052 334.807 59.5832 340.588 61.2569C346.963 63.0707 353.1 65.456 358.565 69.358C360.811 70.9328 362.888 72.7817 364.451 75.0332C366.545 78.142 365.95 81.5601 362.842 83.6543C360.468 85.2935 357.785 86.0227 354.973 86.4078C347.379 87.5514 339.93 86.741 332.446 85.1898C332.277 85.464 323.248 82.9213 318.925 81.2766Z" fill="#D8F3FF"/>
<path d="M265.249 38.0922C266.631 36.2197 268.515 34.8839 270.451 33.7697C277.952 29.4647 286.982 28.4493 295.445 27.6148C303.588 26.8094 311.777 27.5848 319.891 28.2377C328.203 28.9373 336.474 30.2551 344.506 32.1446C351.745 33.8475 358.89 35.947 365.966 38.344C370.906 40.0294 375.754 42.1116 380.601 44.1937C387.612 47.3081 394.384 50.9942 400.649 55.5028C405.666 59.0898 410.122 63.2776 413.261 68.6204C414.701 70.9477 415.477 73.4325 415.442 76.2498C415.402 76.8681 415.361 77.4863 415.221 78.0813C415.174 78.2796 414.953 78.3321 414.807 78.5071C414.731 78.3846 414.48 78.1163 414.527 77.918C414.847 72.5517 411.773 68.2705 408.116 64.6893C402.055 58.8683 395.073 54.2956 387.56 50.6446C372.382 43.0975 355.974 37.6678 339.42 34.1922C333.149 32.8218 326.885 31.8713 320.474 31.0958C314.98 30.4311 309.438 29.9648 303.85 29.6967C297.102 29.4696 290.458 29.6857 283.727 30.7185C278.18 31.6112 272.761 32.848 267.961 35.9047C267.202 36.4589 266.275 37.2872 265.249 38.0922Z" fill="#D8F3FF"/>
<path d="M314.997 22.7959C316.916 22.2008 318.759 21.4833 320.731 21.1099C324.942 20.1123 329.317 20.1995 333.621 20.5843C339.384 20.9982 345.007 22.007 350.589 23.6341C355.402 24.9754 359.876 26.8651 364.233 29.2505C367.097 30.8661 369.914 32.68 372.172 35.0948C372.423 35.3631 372.65 35.7305 372.854 36.1972C354.177 29.2919 334.87 25.0639 315.079 23.3383C315.125 23.14 315.073 22.9184 314.997 22.7959Z" fill="#D8F3FF"/>
<path d="M333.372 45.2226C333.867 41.7811 337.647 39.9494 340.523 40.6259C343.398 41.3024 346.111 44.452 345.248 48.121C344.478 51.3933 341.171 53.4408 337.898 52.671C334.824 51.9479 332.433 48.7691 333.372 45.2226Z" fill="#D8F3FF"/>
<path d="M381.903 73.8015C379.226 73.1717 378.45 70.6869 380.398 68.6336C382.492 66.4054 385.152 65.7753 388.051 66.3526C390.156 66.7433 390.641 69.5781 389.451 71.0772C387.654 73.3755 384.184 74.3381 381.903 73.8015Z" fill="#D8F3FF"/>
<path d="M292.857 52.854C290.004 52.0783 287.618 49.3195 287.455 46.4555C287.332 44.7523 288.551 43.574 290.231 43.5506C293.148 43.6088 296.327 46.5542 296.689 49.4649C297.12 52.078 295.435 53.4605 292.857 52.854Z" fill="#D8F3FF"/>
<path d="M366 78.5C366.071 113.052 368.808 149.075 366.473 183.558C364.137 217.624 362.863 252.663 355.572 286.105C351.821 303.173 350.115 324.351 334.473 335.59C323.431 343.569 308.928 344.178 295.267 342.513C256.833 337.795 218.682 326.624 186.335 305.74C177.983 300.328 169.772 294.014 165.101 285.342C142.969 291.269 166.092 256.825 175.718 244.406C199.359 213.739 301.441 63.3875 301.441 63.3875L366 78.5Z" fill="#D8F3FF"/>
<ellipse cx="251.845" cy="297.82" rx="98.9355" ry="45.2063" transform="rotate(13.5849 251.845 297.82)" fill="#C5EDFF"/>
<ellipse cx="333.199" cy="72.3897" rx="33.453" ry="13.1186" transform="rotate(13.5849 333.199 72.3897)" fill="white"/>
<g filter="url(#filter0_f)">
<path d="M338.647 212.887C351.82 170.913 342.076 143.902 311.635 134.349C281.013 124.739 257.583 141.338 244.41 183.312C231.294 225.105 241.039 252.115 271.661 261.725C302.101 271.278 325.532 254.679 338.647 212.887ZM312.582 204.707C308.248 218.516 303.232 228.12 297.294 233.642C291.949 238.551 285.876 240.038 279.131 237.922C272.205 235.748 268.07 231.057 266.489 223.974C264.771 216.05 265.959 205.245 270.293 191.435C274.513 177.989 279.826 168.079 285.946 162.615C291.291 157.705 297.364 156.218 304.108 158.335C311.035 160.508 314.987 165.142 316.568 172.225C318.286 180.149 316.858 191.079 312.582 204.707Z" fill="#9DB2C6"/>
</g>
<defs>
<filter id="filter0_f" x="209.451" y="104.534" width="164.212" height="186.95" filterUnits="userSpaceOnUse" color-interpolation-filters="sRGB">
<feFlood flood-opacity="0" result="BackgroundImageFix"/>
<feBlend mode="normal" in="SourceGraphic" in2="BackgroundImageFix" result="shape"/>
<feGaussianBlur stdDeviation="7.5" result="effect1_foregroundBlur"/>
</filter>
</defs>
</svg>
