<svg xmlns="http://www.w3.org/2000/svg" viewBox="0 0 52.26 84.99"><defs><style>.cls-1,.cls-7{fill:#3e3b3a}.cls-2{fill:#487d72}.cls-2,.cls-7{fill-rule:evenodd}</style></defs><g id="Слой_2" data-name="Слой 2"><g id="OBJECTS"><ellipse class="cls-1" cx="26.64" cy="57.58" rx="11.48" ry="16.6"/><path class="cls-2" d="M35.4 72.29l10.48-7.91c4.59 1.51 5.92 14.53 6.38 20.62h-11z"/><path d="M26 55.79h-4.84v3.06c0 1.6-7.31 3.68-8.83 4.16-4.54 7.91 8.67 12.5 12.88 18.75h2.5c4.21-6.25 16-10.5 12.22-18.75-1.51-.48-9.09-2.56-9.09-4.16v-3.06z" fill="#f5b67e" fill-rule="evenodd"/><path class="cls-2" d="M15.79 73.27c-.47-.35-9.41-8.89-9.41-8.89C1.79 65.89.47 78.91 0 85h11z"/><path d="M12.33 63c-1.47.29-2.91.57-4.06.83H6l-.06.05c.47 1 1.08 4.47 1.73 8.74C7 77.72 4.46 80.85 6.3 85H46c1.84-4.14-.71-7.27-1.37-11.63a55 55 0 0 1 1.73-8.74v-.05h-2.17c-1.15-.26-2.6-.54-4.07-.83a7.4 7.4 0 0 1 .22 1.83c0 5.67-6.27 10.27-14 10.27s-14-4.6-14-10.27a7.9 7.9 0 0 1-.01-2.58z" fill="#448a7c" fill-rule="evenodd"/><path d="M11.77 33.16c.8 3.61-.79 6.61-3.52 7.26s-5.56-1.31-6.36-4.92.76-7 3.49-7.7 5.62 1.75 6.39 5.36zm29.52 0c-.8 3.61.8 6.61 3.53 7.26s5.56-1.31 6.36-4.92-.76-7-3.49-7.7-5.59 1.75-6.4 5.36z" fill="#f6c085" fill-rule="evenodd"/><path d="M26.53 2.58h-.06l-2.85-.11v.23h-.3a19.52 19.52 0 0 0-14.7 8.09c-3.49 4.75-3.95 10.72-3.68 16.44.71 14.71 9 31.22 21.59 31.34 12.65-.12 20.89-16.63 21.59-31.34.28-5.72-.19-11.69-3.68-16.44a19.52 19.52 0 0 0-14.71-8.08h-.29v-.24l-2.84.11z" fill="#f8c997" fill-rule="evenodd"/><path class="cls-7" d="M35.52 8.28c-.17.81 0 5.13 5 11.77s5.37 7.21 5.37 7.21 0 11.51.65 10.1 2-10.1 2-10.62A30.26 30.26 0 0 0 48.16 16c-1.27-5.19-2.87-7.15-5.07-8s-7.57.28-7.57.28zM7.76 22.3c-.86 1-3.65 3.32-3.65 3.32.82 3.95 1.54 11.24 2.48 11.84.41-1.07.77-8.27 1.17-15.16z"/><path class="cls-7" d="M45.85 27.26c.23-3.79 2.17-12.45 1.22-14.81C44.32 5.64 39.28 2.88 30.83 2a26.35 26.35 0 0 0-4.76 0c4.85 8 8.93 18.65 19.78 25.26z"/><path class="cls-7" d="M37.7 10.34C36 21 13.43 17.58 6 30.44c-8.26-12.5 4.4-38.11 26.44-28.22zm-22.1 25.6a1.68 1.68 0 1 0-1.67-1.67 1.67 1.67 0 0 0 1.67 1.67z"/><circle class="cls-1" cx="37.47" cy="34.27" r="1.67"/><path d="M23.08 42.74v-.05a.34.34 0 0 1 .14-.24A36 36 0 0 0 25.87 33c.67 0-.68 7.23-1.26 8.94a12.75 12.75 0 0 1 2.08-.16c2 0 3.62.4 3.62.89s-1.62.9-3.62.9-3.51-.36-3.61-.83z" fill="#e5b17d" fill-rule="evenodd"/><path class="cls-7" d="M31.44 27.94c-1 .41.65-2.27 5.52-2.38 5.68-.12 7.41 2.61 5.18 1.83a15 15 0 0 0-10.7.55zm-9.81 0c1 .41-.66-2.27-5.53-2.38-5.68-.12-7.41 2.61-5.17 1.83a15 15 0 0 1 10.7.55z"/><path d="M41.81 29.06c2.37.25 3.25 1.31 3.13 3.75-.24 4.89-1.84 7.55-6.79 8.26-4.61.65-7.33-1.34-8.22-6.22-.3-1.62-.18-3.52 1.38-4.44 2.53-1.49 7.49-1.66 10.5-1.35zm-30.5 0c-2.38.25-3.25 1.31-3.13 3.75.24 4.89 1.82 7.55 6.82 8.26 4.61.65 7.34-1.34 8.23-6.22.29-1.62.18-3.52-1.38-4.44-2.53-1.49-7.49-1.66-10.5-1.35zm13.27 1.78a.8.8 0 0 1-.64-.42 2.87 2.87 0 0 0-1.18-1.16C20.54 28 14.05 27.8 11.52 27.8c0 0-2.28 0-3.38.09a12.86 12.86 0 0 0-2.49.32.53.53 0 0 0-.23.51c0 .75.06 1.51.15 2.26a.38.38 0 0 0 .19.31 1.63 1.63 0 0 1 .85 1.26A17.26 17.26 0 0 0 8.94 39a5.73 5.73 0 0 0 2.63 2.08c2.8 1.21 7 1.43 9.57-.58a10.79 10.79 0 0 0 2.73-4.66 22.44 22.44 0 0 0 .72-2.55 5 5 0 0 0 .09-.56c0-.27.12-.37.39-.35a18.41 18.41 0 0 0 3 0c.28 0 .37.08.4.35a5 5 0 0 0 .08.56 24.71 24.71 0 0 0 .72 2.55A11 11 0 0 0 32 40.5c2.56 2 6.78 1.79 9.58.58a5.78 5.78 0 0 0 2.6-2.08 17.43 17.43 0 0 0 2.33-6.45 1.59 1.59 0 0 1 .84-1.26.39.39 0 0 0 .2-.31c.09-.75.12-1.51.14-2.26a.52.52 0 0 0-.22-.51 13 13 0 0 0-2.5-.32c-1.1-.05-3.38-.09-3.38-.09-2.53 0-9 .18-11.24 1.46a2.93 2.93 0 0 0-1.18 1.16.8.8 0 0 1-.63.42 12.52 12.52 0 0 1-3.96 0z" fill="#5a5858" fill-rule="evenodd"/><path d="M33.68 46.57a9.63 9.63 0 0 1-7.59 3.28 9.63 9.63 0 0 1-7.58-3.28A13.07 13.07 0 0 0 26 49.29a13.62 13.62 0 0 0 7.68-2.72z" fill="#d6825b" fill-rule="evenodd"/></g></g></svg>