<svg xmlns="http://www.w3.org/2000/svg" viewBox="0 0 52.01 84.79"><defs><style>.cls-11,.cls-7{fill-rule:evenodd}.cls-7{fill:#bf9141}.cls-11{fill:#d97b5a}</style></defs><g id="Слой_2" data-name="Слой 2"><g id="OBJECTS"><path d="M16.86 72.1c-.46-.35-10.77-5.2-10.77-5.2C1.5 68.41.47 78.72 0 84.79h11zm18.28 0c.46-.35 10.77-5.2 10.77-5.2 4.59 1.51 5.62 11.82 6.09 17.89H41z" fill-rule="evenodd" fill="#9b5538"/><path d="M26 55.6h-4.84v3c0 1.9-.31 1.51-2.09 2.49a14.45 14.45 0 0 1-2.23 1.57c2.15 6.93 3.71 15.83 7.91 22.08h2.5c4.2-6.25 5.76-15.15 7.91-22.08a14.45 14.45 0 0 1-2.23-1.57c-1.78-1-2.09-.59-2.09-2.49v-3z" fill="#f5b67e" fill-rule="evenodd"/><path d="M19.07 61.17c-2.58 1.17-12 4.86-13 5.77.85 1.87 2.15 9.57 3.27 17.85H42.7c1.12-8.28 2.42-16 3.27-17.85-1-.91-10.46-4.6-13-5.77C36.23 63.73 27.79 70.86 26 73l-3.58-4c-.27-.7-6.42-5.41-3.35-7.83z" fill="#a95c40" fill-rule="evenodd"/><path fill="#934d33" fill-rule="evenodd" d="M25.22 72.63l.78.38.78-.38v12.16h-1.56V72.63z"/><path d="M39 33.49a6.1 6.1 0 0 0 5.22 7.25c3.57.65 7-1.3 7.72-4.91a6.52 6.52 0 0 0-5.21-7.7A6.69 6.69 0 0 0 39 33.49zm-25 0a6.1 6.1 0 0 1-5.2 7.25c-3.57.65-7-1.3-7.72-4.91a6.52 6.52 0 0 1 5.21-7.7A6.69 6.69 0 0 1 14 33.49z" fill="#f6c085" fill-rule="evenodd"/><path d="M44.32 10.59a19.52 19.52 0 0 0-14.71-8.08h-.3v-.24l-2.85.12-2.85-.12v.23h-.3a19.52 19.52 0 0 0-14.69 8.09C5.13 15.34 4.67 21.32 4.94 27c.71 14.7 2 31.17 21.59 31.33S47.29 41.64 48 27c.27-5.68-.19-11.66-3.68-16.41z" fill="#f8c997" fill-rule="evenodd"/><path class="cls-7" d="M47.5 34.76c0-.57 3.07-15.77 2.33-22.24s-5-6.78-5.89-6.91a4.25 4.25 0 0 1-1.38-.39s-3.78-3-11.33-4.83S13 4.17 7.16 1C4.36 3.92 6 9.64 6 9.64a4.76 4.76 0 0 0-2.67 3.68c-.55 2.9 2.15 21.56 2.15 21.56s1.16-14.39 2.91-16.41c0 0 12.45 2.28 35-6.25 4.54-1.73 2.96 17.08 4.11 22.54z"/><path d="M15.54 37.23a1.68 1.68 0 1 0-1.68-1.67 1.67 1.67 0 0 0 1.68 1.67zm21.87 0a1.68 1.68 0 1 0-1.68-1.67 1.67 1.67 0 0 0 1.68 1.67z" fill="#3e3b3a" fill-rule="evenodd"/><path class="cls-7" d="M10.22 30.37c-.54-.93 2.36-1.37 5.3-1.35 4.93 0 7.57 2.45 5.2 2.35-1.72-.08-10.34-.73-10.5-1zm32.5.21c.56-.92-2.33-1.41-5.27-1.45-4.93-.06-7.62 2.3-5.25 2.24 1.8-.04 10.35-.52 10.52-.79z"/><path d="M32.82 47c-1 5.74-10.29 5.74-11.31 0 3.07 4.06 8.24 4.06 11.31 0z" fill="#d6825b" fill-rule="evenodd"/><path d="M23.39 44a.34.34 0 0 1 .14-.25 35.56 35.56 0 0 0 2.66-9.43c.68 0-.67 7.23-1.26 8.94A12.75 12.75 0 0 1 27 43c2 0 3.62.4 3.62.9s-1.62.89-3.62.89-3.5-.34-3.61-.79z" fill="#e5b17d" fill-rule="evenodd"/><path class="cls-11" d="M16.79 66.87c3.79 4.81 9.42 6.46 9.21 6.13s-5.55-7.67-5.95-9.69a3.4 3.4 0 0 1 .82-3.14c.42-.49.29-1.58.29-2.3-5.6-.17-8.16 4.19-4.37 9z"/><path class="cls-11" d="M35.22 66.87c-3.8 4.81-9.43 6.46-9.22 6.13s5.55-7.67 6-9.69a3.42 3.42 0 0 0-.83-3.14c-.42-.49-.29-1.58-.29-2.3 5.56-.17 8.12 4.19 4.34 9z"/></g></g></svg>