<svg xmlns="http://www.w3.org/2000/svg" viewBox="0 0 52.84 84.99"><defs><style>.cls-1,.cls-2{fill:#402412;fill-rule:evenodd}.cls-2{fill:#9b5538}</style></defs><g id="Слой_2" data-name="Слой 2"><g id="OBJECTS"><path class="cls-1" d="M50.07 44.7c0 6.65 4.68 12 1.86 19.28-4.39 11.3-14.28 8.82-21.61 8.82h-9.6c-7.53 0-16.43.91-19.61-10-2.19-7.51 1.71-11.47 1.71-17.46l-.34-16.92C3.06 6 11.14 2.47 26.49 2.47c18.05-2.42 22.94 7 24 26z"/><path class="cls-2" d="M35.4 72.29l10.48-7.91c4.59 1.51 5.92 14.53 6.38 20.62h-11z"/><path d="M26 55.79h-4.84v3.06c0 1.9-.31 1.5-2.09 2.49a15.17 15.17 0 0 1-2.23 1.57C19 69.83 20.55 78.74 24.75 85h2.5c4.2-6.25 5.76-15.16 7.91-22.08a15.17 15.17 0 0 1-2.23-1.57c-1.78-1-2.09-.59-2.09-2.49v-3.07z" fill="#f5b67e" fill-rule="evenodd"/><path class="cls-2" d="M16.86 72.29L6.38 64.38C1.79 65.89.47 78.91 0 85h11z"/><path d="M23 68.17c-4.26-1.57-4.79-6.14-3.93-6.81-1.9.87-7.54 1.73-10.8 2.48H6l-.06.05c.47 1 1.08 4.47 1.73 8.74C7 77.72 4.46 80.85 6.3 85H46c1.84-4.14-.71-7.27-1.37-11.63a55 55 0 0 1 1.73-8.74v-.05h-2.17c-3.27-.75-8.91-1.61-10.81-2.48.87.67.33 5.24-3.93 6.81l-3 5-.32-.91-.13.22-3-5z" fill="#ed8322" fill-rule="evenodd"/><path d="M11.77 31.93c.8 3.61-.79 6.61-3.52 7.26s-5.56-1.31-6.36-4.92.76-7.05 3.49-7.7 5.62 1.75 6.39 5.36zm29.52 0c-.8 3.61.8 6.61 3.53 7.26s5.56-1.31 6.36-4.92-.76-7.05-3.49-7.7-5.59 1.75-6.4 5.36z" fill="#f6c085" fill-rule="evenodd"/><path d="M26.53 2.58h-.06l-2.85-.11v.23h-.3a19.52 19.52 0 0 0-14.7 8.09c-3.49 4.75-3.95 10.72-3.68 16.44.71 14.71 9 31.22 21.59 31.34 12.65-.12 20.89-16.63 21.59-31.34.28-5.72-.19-11.69-3.68-16.44a19.52 19.52 0 0 0-14.71-8.08h-.29v-.24l-2.84.11z" fill="#f8c997" fill-rule="evenodd"/><path class="cls-1" d="M35.52 8.28c-.17.81 0 5.13 5 11.77s5.37 7.21 5.37 7.21.23 11.2.86 9.87 1.55-11 1.55-11A24.64 24.64 0 0 0 48.16 16c-1.27-5.19-2.87-7.15-5.07-8s-7.57.28-7.57.28zM7.76 22.3c-.86 1-3.67 1.09-3.67 1.09.12.9 1.33 14.61 2.46 13.61z"/><path class="cls-1" d="M45.85 27.26c.23-3.79 2.17-12.45 1.22-14.81C44.32 5.64 39.28 2.88 30.83 2a26.35 26.35 0 0 0-4.76 0c4.85 8 8.93 18.65 19.78 25.26z"/><path class="cls-1" d="M37.7 10.34C36 21 13.43 17.58 6 30.44c-8.26-12.5 4.4-38.11 26.44-28.22z"/><path d="M16.6 36.45a1.67 1.67 0 1 0-1.68-1.67 1.67 1.67 0 0 0 1.68 1.67zm20.87 0a1.67 1.67 0 1 0-1.68-1.67 1.67 1.67 0 0 0 1.68 1.67z" fill="#3e3b3a" fill-rule="evenodd"/><path d="M23.83 43.31v-.05A.34.34 0 0 1 24 43a35.56 35.56 0 0 0 2.66-9.43c.68 0-.67 7.23-1.26 8.94a12.79 12.79 0 0 1 2.09-.16c2 0 3.62.4 3.62.89s-1.62.9-3.62.9-3.55-.36-3.66-.83z" fill="#e5b17d" fill-rule="evenodd"/><path class="cls-1" d="M31.48 30.75c-1 .41.65-2.28 5.53-2.38 5.68-.13 7.4 2.6 5.17 1.82a15 15 0 0 0-10.7.56zm-9.89 0c1 .41-.66-2.28-5.53-2.38-5.68-.13-7.41 2.6-5.17 1.82a15 15 0 0 1 10.7.56z"/><path d="M32.22 47.41c-1 4.52-10.29 4.52-11.31 0a7.83 7.83 0 0 0 11.31 0z" fill="#d6825b" fill-rule="evenodd"/></g></g></svg>