<svg xmlns="http://www.w3.org/2000/svg" viewBox="0 0 52.01 84.11"><defs><style>.cls-6{fill-rule:evenodd;fill:#a95c40}</style></defs><g id="Слой_2" data-name="Слой 2"><g id="OBJECTS"><path d="M16.86 71.42c-.46-.35-10.77-5.21-10.77-5.21C1.5 67.73.47 78 0 84.11h11zm18.28 0c.46-.35 10.77-5.21 10.77-5.21C50.5 67.73 51.53 78 52 84.11H41z" fill-rule="evenodd" fill="#443d47"/><path d="M26 54.92h-4.84v3c0 1.9-.31 1.51-2.09 2.49A14.45 14.45 0 0 1 16.84 62c2.16 7 3.71 15.86 7.91 22.11h2.5C31.45 77.86 33 69 35.16 62a14.45 14.45 0 0 1-2.23-1.57c-1.78-1-2.09-.59-2.09-2.49v-3z" fill="#f5b67e" fill-rule="evenodd"/><path d="M26 71.56c-8-.63-6.84-11-6.93-11.07-2.58 1.17-12 4.86-13 5.77.85 1.87 2.15 9.57 3.27 17.85H42.7c1.12-8.28 2.42-16 3.27-17.85-1-.91-10.46-4.6-13-5.77-.13.05 1.03 10.44-6.97 11.07z" fill="#4d4351" fill-rule="evenodd"/><path d="M39 33.36a6.61 6.61 0 0 0 5.22 7.92 6.42 6.42 0 0 0 7.72-5.36c.69-3.94-1.64-7.7-5.21-8.41s-7.09 1.91-7.73 5.85zm-25 0a6.61 6.61 0 0 1-5.2 7.92 6.42 6.42 0 0 1-7.72-5.36c-.69-3.92 1.64-7.7 5.21-8.41s7.04 1.91 7.71 5.85z" fill="#f6c085" fill-rule="evenodd"/><path d="M44.32 9.91a19.52 19.52 0 0 0-14.71-8.08h-.3v-.24l-2.85.12-2.85-.12v.23h-.3A19.52 19.52 0 0 0 8.62 9.91c-3.49 4.75-3.95 10.72-3.68 16.45.21 4.32 1 11.3 1.19 15.63 5.56 20.77 35.51 21.11 40.68 0 .22-4.33 1-11.31 1.19-15.63.27-5.73-.19-11.7-3.68-16.45z" fill="#f8c997" fill-rule="evenodd"/><path class="cls-6" d="M8.79 17.88c-.28.6 1.31-5.4 4.79-5.51 3.64-.11 26.28 1.27 27.44-.24 3.83 4.85 6.63 24.1 6.85 24.06.51-.1.57-2 .62-2.39a65.2 65.2 0 0 0 .51-8.61c0-5.28 1.53-15.44-8-21.77C35.13-.47 23-.86 16.23 1.34c-4.7 1.54-9.22 5.54-10.89 10.2-1.85 5.12-1.8 9.12-1.19 19.26.06 1.1.19 2.2.34 3.29.11.72.2 1.47.38 2.18.88 3.86.97-13.83 3.92-18.39z"/><path class="cls-6" d="M44.54 8.13c-.74 7.4-10.34 13.13-17.46 13.13l2.08-2c-8 2.44-12.48.78-12.47.78A25.9 25.9 0 0 0 20 18.72c-4.55.14-9.15.21-12.68-3.09l5.09-9z"/><path d="M15.54 36.59a1.68 1.68 0 1 0-1.68-1.67 1.67 1.67 0 0 0 1.68 1.67zm21.87 0a1.68 1.68 0 1 0-1.68-1.67 1.67 1.67 0 0 0 1.68 1.67z" fill="#3e3b3a" fill-rule="evenodd"/><path class="cls-6" d="M9.78 30.23c-.61-.89 2.22-1.55 5.22-1.76 4.92-.34 7.73 1.85 5.36 1.93-1.81.07-10.36.08-10.58-.17zm32.41.13c.64-.86-2.19-1.63-5.11-2-4.9-.54-7.8 1.55-5.44 1.72 1.77.17 10.36.53 10.55.28z"/><path d="M32 46.78c-1 5.75-10.29 5.75-11.31 0a33.76 33.76 0 0 0 11.31 0z" fill="#d6825b" fill-rule="evenodd"/><path d="M22.75 43.4a.34.34 0 0 1 .14-.25 35.56 35.56 0 0 0 2.66-9.43c.68 0-.67 7.23-1.26 8.94a12.75 12.75 0 0 1 2.08-.16c2 0 3.63.4 3.63.9s-1.63.89-3.63.89-3.51-.42-3.62-.89z" fill="#e5b17d" fill-rule="evenodd"/></g></g></svg>