<svg xmlns="http://www.w3.org/2000/svg" viewBox="0 0 52.33 87.65"><defs><style>.cls-7,.cls-8,.cls-9{fill-rule:evenodd}.cls-7{fill:#402412}.cls-8{fill:#756e6a}.cls-9{fill:#9f9993}</style></defs><g id="Слой_2" data-name="Слой 2"><g id="OBJECTS"><path fill-rule="evenodd" fill="#7d7873" d="M19.43 65.52l-.14-4.59h14.48l-.14 4.44-14.2.15z"/><path d="M16.86 75c-.46-.35-10.77-5.21-10.77-5.21C1.5 71.27.47 81.58 0 87.65h11zm18.28 0c.46-.35 10.77-5.21 10.77-5.21 4.59 1.52 5.62 11.83 6.09 17.9H41z" fill="#7f7a77" fill-rule="evenodd"/><path d="M26 58.45h-4.84v3.06c0 1.9-.31 1.5-2.09 2.49a14.45 14.45 0 0 1-2.23 1.57C19 72.5 20.55 81.4 24.75 87.65h2.5c4.2-6.25 5.75-15.15 7.91-22.08A14.45 14.45 0 0 1 32.93 64c-1.78-1-2.09-.59-2.09-2.49v-3.06z" fill="#f5b67e" fill-rule="evenodd"/><path d="M26.43 75.27s-1.51-2-2.2-3.12c-2.1-3.41-5.09-8.08-5.16-8.12-2.58 1.17-12 4.86-13 5.77.85 1.87 2.15 9.57 3.27 17.85H42.7c1.12-8.28 2.42-16 3.27-17.85-1-.91-10.46-4.6-13-5.77a59.33 59.33 0 0 1-4.1 8.12c-.94 1.36-2.44 3.12-2.44 3.12z" fill="#857e79" fill-rule="evenodd"/><path d="M39 36.9a6.61 6.61 0 0 0 5.22 7.92 6.42 6.42 0 0 0 7.72-5.36c.69-3.94-1.64-7.71-5.21-8.41S39.64 33 39 36.9zm-25 0a6.61 6.61 0 0 1-5.2 7.92 6.42 6.42 0 0 1-7.72-5.36c-.69-3.94 1.64-7.71 5.21-8.41S13.33 33 14 36.9z" fill="#f6c085" fill-rule="evenodd"/><path d="M44.32 13.45a19.52 19.52 0 0 0-14.71-8.08h-.3v-.24l-2.85.12-2.85-.12v.23h-.3a19.52 19.52 0 0 0-14.69 8.09C5.13 18.2 4.67 24.17 4.94 29.9c.21 4.32 1 11.3 1.19 15.63 5.55 20.77 35.51 21.11 40.68 0C47 41.2 47.79 34.22 48 29.9c.27-5.73-.19-11.7-3.68-16.45z" fill="#f8c997" fill-rule="evenodd"/><path class="cls-7" d="M8.79 21.42c-.28.6 1.31-5.4 4.79-5.51 3.64-.11 26.28 1.27 27.44-.24 3.83 4.85 6.37 24.79 6.59 24.75C48.77 40.2 49 29.86 49 28.73c0-5.28 1.53-15.44-8-21.77-5.87-3.9-18-4.28-24.77-2.08-4.7 1.54-9.22 5.54-10.89 10.2-1.92 5.12-1.87 9.12-1.26 19.26.06 1.1.19 2.2.34 3.29.11.72.2 1.46.38 2.18.95 3.86 1.04-13.81 3.99-18.39z"/><path class="cls-7" d="M7.41 16.05c.15.45.74 2.63 8.33 5.21a46.24 46.24 0 0 0 14.34 2.51 10.58 10.58 0 0 1-2.21-1.59s5.45 1.77 9.43 1.4S44.16 21 43.67 21A16.08 16.08 0 0 1 41 20a28.58 28.58 0 0 0 7.84-5.7c2.88-3.3 3.8-6.43 3.43-6.12s-2.82 1.53-2.45 1.1.67-5.33.67-5.33a16.41 16.41 0 0 1-2.75 1.59c-.62.13.67-4 .67-4s-5.88 1.1-9.25.61S33.87.61 28.91.37a17.49 17.49 0 0 0-8 1.22L21.75 0s-7 2-8.79 3.37A18.18 18.18 0 0 0 9.4 7.53 11 11 0 0 0 6.25 7a5.17 5.17 0 0 0-2 .4l3.18 1A7.19 7.19 0 0 0 4.9 9.83c-1.07.95-2 2.05-1.5 1.78a16.19 16.19 0 0 1 3.09-.52z"/><path class="cls-8" d="M21.48 68.2c.26 0 1.72.24 1.72.24l1 3.71-3.67-1.69z"/><path class="cls-9" d="M19.29 60.93l3.91 7.51s-4 4-4 3.78-1.8-7.17-1.66-7.54 1.75-3.75 1.75-3.75z"/><path class="cls-8" d="M31.57 68.2c-.26 0-1.72.23-1.72.23l-1 3.72 3.67-1.7z"/><path class="cls-9" d="M33.77 60.93l-3.92 7.5s4 4 4 3.78 1.81-7.16 1.67-7.53-1.75-3.75-1.75-3.75z"/><path d="M7.57 31.34a6.83 6.83 0 0 0-1.63 3 2.57 2.57 0 0 0-1.11.28 1.11 1.11 0 0 0 0 1.28 2.86 2.86 0 0 0 1.09.17c0 6 3.23 10.28 9.41 10.06a8.14 8.14 0 0 0 7.18-4.38A15.56 15.56 0 0 0 24.29 37c.16-1.08.28-1.61.54-1.77a6.68 6.68 0 0 1 1.64-.14 6.68 6.68 0 0 1 1.64.14c.26.16.39.69.54 1.77a15.56 15.56 0 0 0 1.81 4.8 8.14 8.14 0 0 0 7.19 4.38c6.17.22 9.4-4.06 9.4-10.06a2.84 2.84 0 0 0 1.09-.17 1.11 1.11 0 0 0 0-1.28 2.57 2.57 0 0 0-1.14-.32 6.83 6.83 0 0 0-1.63-3c-.84-.93-2.87-1.62-5.35-1.82-6.16-.49-20.44-.45-26.61-.07-2.7.17-4.94.89-5.84 1.89zM24.8 34c-.15.12-.36-.26-.38-.38-.21-1.19.07-2.9-1.6-3.21h7.3c-1.67.31-1.39 2-1.6 3.21 0 .12-.23.49-.38.38a16.21 16.21 0 0 0-3.34 0zm5.35-2.78a7.83 7.83 0 0 1 3.58-.92c2.76-.18 9.46-.32 11.43 2.1a5.17 5.17 0 0 1 1.19 3 14.48 14.48 0 0 1-.41 3.9c-1.17 4.34-4.06 6.35-8.33 6.12-5.67-.3-8.49-6.49-8.28-11.56.05-1.22.23-2.22.82-2.68zm-7.36 0c.59.46.77 1.46.82 2.68.21 5.07-2.61 11.26-8.28 11.56-4.27.23-7.16-1.78-8.33-6.12a14.48 14.48 0 0 1-.41-3.9 5.17 5.17 0 0 1 1.19-3c2-2.42 8.67-2.28 11.43-2.1a7.83 7.83 0 0 1 3.58.83z" fill="#3e3b3a" fill-rule="evenodd"/><path d="M7.65 32.25a5.28 5.28 0 0 0-1.21 3.1 14.6 14.6 0 0 0 .42 4 8.22 8.22 0 0 0 3.43 5.11 8.41 8.41 0 0 0 5.05 1.12c5.76-.31 8.64-6.61 8.42-11.77-.05-1.24-.23-2.26-.83-2.73a8.13 8.13 0 0 0-3.64-.94c-2.29-.14-7.2-.26-10 1a4.26 4.26 0 0 0-1.64 1.11zm21.58 1.56c-.23 5.12 2.65 11.38 8.38 11.69a8.51 8.51 0 0 0 5-1.12A8.23 8.23 0 0 0 46 39.31a14.84 14.84 0 0 0 .41-4 5.2 5.2 0 0 0-1.2-3.07 4.17 4.17 0 0 0-1.57-1.12c-2.82-1.27-7.72-1.15-10-1a7.88 7.88 0 0 0-3.62.93c-.55.51-.73 1.52-.79 2.76z" fill="#5a5858" fill-rule="evenodd"/><path d="M35 51.4a9.62 9.62 0 0 1-7.59 3.28 9.62 9.62 0 0 1-7.59-3.28 13.07 13.07 0 0 0 7.5 2.72A13.65 13.65 0 0 0 35 51.4z" fill="#d6825b" fill-rule="evenodd"/><path d="M23.55 49.12v-.06a.34.34 0 0 1 .14-.24 36 36 0 0 0 2.66-9.43c.68 0-.68 7.23-1.26 8.94a12.75 12.75 0 0 1 2.08-.16c2 0 3.62.4 3.62.89s-1.62.9-3.62.9-3.52-.37-3.62-.84z" fill="#e5b17d" fill-rule="evenodd"/></g></g></svg>