<svg xmlns="http://www.w3.org/2000/svg" viewBox="0 0 52.26 83.43"><defs><style>.cls-1{fill:#913e22}.cls-1,.cls-2,.cls-5,.cls-8,.cls-9{fill-rule:evenodd}.cls-2{fill:#a9bcc7}.cls-5{fill:#b5ccd8}.cls-8{fill:#abc3cf}.cls-9{fill:#c9e1ed}</style></defs><g id="Слой_2" data-name="Слой 2"><g id="OBJECTS"><path class="cls-1" d="M5.21 28.88C6.36 40.32 5.15 62.4 14 68.38c13.52 9.1 9.85 9.76 22.53.42s11-24.58 10.94-41.31z"/><path class="cls-1" d="M37.24 5.61c26.58-5.26 9.5 54.9 6.59 67.52-1.26 5.48-3.1 4.08-7.9-3.87 0 0 9.22-22.62 9.85-35.45s-3.88-17.24-6.64-22.09-1.9-6.11-1.9-6.11z"/><path class="cls-1" d="M40 6.25c.83 7.27-1.11 8.15-7 12s-8.39 3.88-7.44 3.41 5.46-8.32 5.46-8.32a56.35 56.35 0 0 1-12.22 7.4c-6.18 2.45-8.39 1.5-8.39 1.5s5.46-7.12 4.75-6.57-5.94 4-6.65 5.54-2.24 8.71-1.37 16.54c.59 5.25 11.15 21.68 11.33 29.4.1 3.89-5.64 9.62-7.32 7.68-6.85-7.9-8-55.33-7.71-57.58a20 20 0 0 1 7.72-12.87C19-1.82 39.12-1.65 40 6.25z"/><path class="cls-2" d="M35.4 70.74l10.48-7.92c4.59 1.52 5.92 14.54 6.38 20.61h-11z"/><path d="M18 64c.11-.83.73-6.46.73-6.46l14.9-.1-.2 4.63z" fill="#98c0d4" fill-rule="evenodd"/><path d="M26 54.24h-4.84v3c0 1.9-.31 1.51-2.09 2.49a14.45 14.45 0 0 1-2.23 1.57c2.15 6.93 3.71 15.83 7.91 22.08h2.5c4.2-6.25 5.76-15.15 7.91-22.08a14.45 14.45 0 0 1-2.23-1.57c-1.78-1-2.09-.59-2.09-2.49v-3z" fill="#f5b67e" fill-rule="evenodd"/><path class="cls-2" d="M16.86 70.74L6.38 62.82C1.79 64.34.47 77.36 0 83.43h11z"/><path class="cls-5" d="M23 66.61c-4.26-1.56-4.79-6.13-3.93-6.8C16.49 61 7 62.15 5.94 63.06c.86 1.87 2.24 12.1 3.36 20.37H43c1.12-8.27 2.5-18.5 3.36-20.37-1-.91-10.55-2.07-13.13-3.25.87.67.33 5.24-3.93 6.8L25.9 78 23 66.61z"/><path d="M11.77 32.84c.8 3.6-.79 6.61-3.52 7.25s-5.56-1.3-6.36-4.91.76-7.06 3.49-7.7 5.62 1.75 6.39 5.36zm29.52 0c-.8 3.6.8 6.61 3.53 7.25s5.56-1.3 6.36-4.91-.76-7.06-3.49-7.7-5.59 1.75-6.4 5.36z" fill="#f6c085" fill-rule="evenodd"/><path d="M26.53 1h-.06L23.62.92v.22h-.3a19.53 19.53 0 0 0-14.7 8.1C5.13 14 4.67 20 4.94 25.68c.71 14.7 9 31.21 21.59 31.34 12.65-.13 20.89-16.64 21.59-31.34C48.4 20 47.93 14 44.44 9.24a19.53 19.53 0 0 0-14.71-8.09h-.29V.92L26.6 1z" fill="#f8c997" fill-rule="evenodd"/><path class="cls-1" d="M35.52 6.72c-.17.81 0 5.14 5 11.77s5.37 7.22 5.37 7.22c1.42-2.46.89-3.65 2.3-.56a26.57 26.57 0 0 0 0-10.75c-1.27-5.2-2.87-7.15-5.07-8s-7.6.32-7.6.32zM7.76 20.75c-.86 1-4.17-3.6-3.56 2S6 34.88 7.63 39.2c-.8-5.41-2.25-11.72.13-18.45z"/><path class="cls-1" d="M47.12 26.23c.23-3.79.9-13 0-15.33-2.8-6.82-7.84-9.58-16.29-10.42-2.6-.26 1.34 4.12 1.34 4.12 7 9.9 3.54 17.49 14.95 21.63z"/><path class="cls-1" d="M37.7 8.78C18.21 11.63 20.85 28.37 5.36 25.92c-.9-.14-1.95-4.83-1.95-4.83s1.68-7.78 4.71-12.24 6.42-5.62 9.81-7 12.44-2.43 14-.46z"/><path class="cls-8" d="M22.21 64l2.45.92-.55 6.07-3.22-3.86L22.21 64z"/><path class="cls-9" d="M16.46 59.84l2.25-2.31 5.95 7.39-5.69 5-2.51-10.08z"/><path class="cls-8" d="M30.11 63.9l-2.45.92.39 5.9 3.38-3.69-1.32-3.13z"/><path class="cls-9" d="M35.86 59.74l-2.25-2.3-5.95 7.38 5.69 5 2.51-10.08z"/><path class="cls-5" d="M8.27 62.29a7.41 7.41 0 0 0-2.33.77C11.18 73 3.45 77 6.3 83.43H46c2.82-6.43-4.92-10.43.32-20.37a7.42 7.42 0 0 0-2.32-.77C42.49 70 34 79.73 25.8 79.73S9.76 70 8.27 62.29z"/><path d="M17.6 35.61a1.68 1.68 0 1 0-1.68-1.68 1.68 1.68 0 0 0 1.68 1.68zm18.87 0a1.68 1.68 0 1 0-1.68-1.68 1.68 1.68 0 0 0 1.68 1.68z" fill="#3e3b3a" fill-rule="evenodd"/><path d="M33 45.39c-1 5.75-10.29 5.75-11.31 0 3.07 4.1 8.24 4.1 11.31 0z" fill="#d6825b" fill-rule="evenodd"/><path d="M23.57 42.41a.34.34 0 0 1 .14-.24 36.21 36.21 0 0 0 2.66-9.43c.67 0-.68 7.23-1.26 8.94a12.75 12.75 0 0 1 2.08-.16c2 0 3.62.4 3.62.89s-1.62.9-3.62.9-3.52-.43-3.62-.9z" fill="#e5b17d" fill-rule="evenodd"/><path class="cls-1" d="M31.48 29.65c-1 .41.65-2.28 5.53-2.38 5.68-.13 7.4 2.6 5.17 1.82a15 15 0 0 0-10.7.56zm-8.89 0c1 .41-.66-2.28-5.53-2.38-5.68-.13-7.41 2.6-5.17 1.82a15 15 0 0 1 10.7.56zM45.21 21c.86 1 4.17-3.59 3.56 2S47 35.11 45.34 39.43c.8-5.43 2.26-11.72-.13-18.43z"/></g></g></svg>