<svg xmlns="http://www.w3.org/2000/svg" viewBox="0 0 52.01 94.06"><defs><style>.cls-1,.cls-6{fill:#34333c;fill-rule:evenodd}.cls-6{fill:#973823}</style></defs><g id="Слой_2" data-name="Слой 2"><g id="OBJECTS"><path class="cls-1" d="M16.86 81.36c-.46-.34-10.77-5.2-10.77-5.2C1.5 77.68.47 88 0 94.06h11zm18.28 0c.46-.34 10.77-5.2 10.77-5.2C50.5 77.68 51.53 88 52 94.06H41z"/><path d="M26 64.86h-4.84v3.06c0 1.9-.31 1.5-2.09 2.49A15.17 15.17 0 0 1 16.84 72c2.15 6.92 4.39 13.43 8.6 19.68h2.49C32.14 85.41 33 78.9 35.16 72a15.17 15.17 0 0 1-2.23-1.57c-1.78-1-2.09-.59-2.09-2.49v-3.08z" fill="#f5b67e" fill-rule="evenodd"/><path d="M26 81.5c-8-.63-6.84-11-6.93-11.07-2.58 1.18-12 4.87-13 5.78.85 1.87 2.15 9.57 3.27 17.85H42.7c1.12-8.28 2.42-16 3.27-17.85-1-.91-10.46-4.6-13-5.78-.13.06 1.03 10.44-6.97 11.07z" fill="#bed53b" fill-rule="evenodd"/><path d="M39 43.31a6.62 6.62 0 0 0 5.22 7.92 6.43 6.43 0 0 0 7.72-5.37c.69-3.93-1.64-7.7-5.21-8.4s-7.09 1.91-7.73 5.85zm-25 0a6.62 6.62 0 0 1-5.2 7.92 6.43 6.43 0 0 1-7.72-5.37c-.69-3.93 1.64-7.7 5.21-8.4s7.04 1.91 7.71 5.85z" fill="#f6c085" fill-rule="evenodd"/><path d="M44.32 19.86a19.52 19.52 0 0 0-14.71-8.08h-.3v-.23l-2.85.11-2.85-.11v.23h-.3a19.52 19.52 0 0 0-14.69 8.08C5.13 24.6 4.67 30.58 4.94 36.3c.21 4.33 1 11.31 1.19 15.63 5.55 20.78 35.51 21.11 40.68 0 .22-4.32 1-11.3 1.19-15.63.27-5.72-.19-11.7-3.68-16.44z" fill="#f8c997" fill-rule="evenodd"/><path class="cls-6" d="M8.79 27.82c-.28.6 1.31-5.4 4.79-5.5 3.64-.11 26.28 1.27 27.44-.25 3.83 4.86 6.63 24.11 6.85 24.07.51-.1.57-2 .62-2.39a65.29 65.29 0 0 0 .51-8.61c0-5.28 1.53-15.44-8-21.77-5.87-3.9-18-4.29-24.77-2.08-4.7 1.54-9.22 5.54-10.89 10.2-1.85 5.12-1.8 9.12-1.19 19.25.06 1.1.19 2.2.34 3.29.11.73.2 1.47.38 2.18.88 3.86.97-13.82 3.92-18.39z"/><path d="M15.54 46.48a1.68 1.68 0 1 0-1.68-1.67 1.67 1.67 0 0 0 1.68 1.67z" fill="#3e3b3a" fill-rule="evenodd"/><circle cx="37.41" cy="44.92" r="1.67" fill="#3e3b3a"/><path class="cls-6" d="M9.78 40.17c-.61-.88 2.22-1.54 5.22-1.75 4.92-.35 7.73 1.85 5.36 1.93-1.81.06-10.36.08-10.58-.18zm32.41.05c.64-.86-2.19-1.63-5.11-1.95-4.9-.54-7.8 1.54-5.44 1.72 1.77.13 10.36.48 10.55.23z"/><path d="M32 56.72c-1 5.75-10.29 5.75-11.31 0a33.5 33.5 0 0 0 11.31 0z" fill="#d6825b" fill-rule="evenodd"/><path d="M22.75 53.34v-.05a.34.34 0 0 1 .14-.24 35.81 35.81 0 0 0 2.66-9.43c.68 0-.67 7.23-1.26 8.94a12.75 12.75 0 0 1 2.08-.16c2 0 3.62.4 3.62.89s-1.62.9-3.62.9-3.51-.38-3.62-.85z" fill="#e5b17d" fill-rule="evenodd"/><path class="cls-6" d="M8.58 24.82c-.38-2.27-2.27-2.4-1.92-5.06s4.34-7.84 6.51-9.94A12.17 12.17 0 0 1 17.93 7s-1.46 2.35-.86 1.75S20.67 6.78 22 6s1.88-1.67 1.71-1.24-1 2-.39 1.59 2.15-.47 4.04-2.35A22.58 22.58 0 0 0 30.27.05C30.1.48 33 3.86 33.91 5.58S35 8.32 35.2 7.85s1.07-2.23 1.07-2.23a44.53 44.53 0 0 1 4.89 5c1.37 1.89 1.67 3.21 1.84 2.74s.51-1.63.51-1.63 1.84 4.59 1.33 6.9a44.82 44.82 0 0 1-1.6 5.19s-12.54 3.18-17 3.23c-2.11 0-15.64-3.71-15.9-4.76z"/><path d="M26 81.51c-8-.64-6.84-11-6.93-11.08H19l-2.15.93v.56A14.16 14.16 0 0 0 20 81.21a7.73 7.73 0 0 0 5.81 2.87c3.1 0 5.83-2.12 7.44-5.34a14.77 14.77 0 0 0 1.48-5.41q.06-.67.06-1.38v-.71c-.74-.31-1.36-.58-1.8-.78h-.07c-.08.03 1.08 10.41-6.92 11.05z" fill="#d99e67" fill-rule="evenodd"/><path class="cls-1" d="M26 81.51c-8-.64-6.84-11-6.93-11.08H19l-2.15.93v.56A14.16 14.16 0 0 0 20 81.21a7.73 7.73 0 0 0 5.81 2.87c3.1 0 5.83-2.12 7.44-5.34a14.77 14.77 0 0 0 1.48-5.41q.06-.67.06-1.38v-.71c-.74-.31-1.36-.58-1.8-.78h-.07c-.08.03 1.08 10.41-6.92 11.05z"/></g></g></svg>