<svg xmlns="http://www.w3.org/2000/svg" viewBox="0 0 53.38 85.91"><defs><style>.cls-2,.cls-6{fill-rule:evenodd}.cls-2{fill:#ceacca}.cls-6{fill:#cc5827}</style></defs><g id="Слой_2" data-name="Слой 2"><g id="OBJECTS"><path d="M49 43.3c-.23 2.42-8.78 20.49-8.78 20.49l-20.44-.41S7 54 6.11 47.11a71.5 71.5 0 0 1-.4-13.4l43.07-1.05z" fill-rule="evenodd" fill="#953d23" stroke="#231815" stroke-miterlimit="22.93" stroke-width=".57"/><path class="cls-2" d="M40.36 77.78c.47-.35 6.64-12.47 6.64-12.47 4.59 1.51 5.91 14.53 6.38 20.6h-11z"/><path d="M27.1 56.72h-4.84v3.06c0 3.62-9.63 3.95-12.9 5 .88 7.56 7.9 13.11 18.22 20.16h2.5c4.2-6.24 14.77-10.06 15-20.16-3.31-1.06-13.16-1.33-13.15-5v-3.06z" fill="#f6c085" fill-rule="evenodd"/><path class="cls-2" d="M14.44 76.39c-.46-.34-7-11.08-7-11.08-4.55 1.51-5.88 14.53-6.34 20.6h11z"/><path d="M9.36 64.77a7.42 7.42 0 0 0-2.36.77c5.24 9.95-2.5 13.94.36 20.37h39.7c2.85-6.43-4.89-10.42.36-20.37a7.41 7.41 0 0 0-2.33-.77c-1.28 6.61-8.79 11.68-17.86 11.68S10.65 71.38 9.36 64.77z" fill="#d8b3d2" fill-rule="evenodd"/><path d="M27.63 3.51h-.06l-2.85-.11v.22h-.3a19.52 19.52 0 0 0-14.7 8.1C6.23 16.46 5.76 22.44 6 28.16c.75 14.71 9 31.22 21.63 31.34 12.65-.12 20.88-16.63 21.59-31.34.27-5.72-.19-11.7-3.68-16.44a19.52 19.52 0 0 0-14.71-8.08h-.3V3.4l-2.85.11z" fill="#f8c997" fill-rule="evenodd"/><path class="cls-6" d="M42.71 30.5c1 .41-.66-2.28-5.53-2.39-5.68-.11-7.41 2.61-5.18 1.83a15 15 0 0 1 10.71.56z"/><path d="M18.25 35.79a1.68 1.68 0 1 0-1.68-1.68 1.68 1.68 0 0 0 1.68 1.68z" fill="#3e3b3a" fill-rule="evenodd"/><circle cx="37.12" cy="34.11" r="1.67" transform="rotate(-9.25 37.118 34.108)" fill="#3e3b3a"/><path d="M21 47.68a13.37 13.37 0 0 0 12.87 0c-.97 6.5-11.73 6.32-12.87 0z" fill="#d6825b" fill-rule="evenodd"/><path d="M23.85 44.12a.32.32 0 0 1 .13-.24 35.81 35.81 0 0 0 2.66-9.43c.68 0-.67 7.23-1.25 8.94a12.66 12.66 0 0 1 2.08-.16c2 0 3.62.4 3.62.89s-1.62.9-3.62.9-3.47-.43-3.62-.9z" fill="#e5b17d" fill-rule="evenodd"/><path class="cls-6" d="M12.26 30.54c-1 .41.65-2.28 5.53-2.38C23.47 28 25.2 30.77 23 30a15 15 0 0 0-10.74.54z"/><path class="cls-6" d="M12.28 8.85C20.16 13.51 44 21.31 43.34 44.52c0 0 1.68-9.29 1.73-8.86a39.76 39.76 0 0 1-.52 14.68c-1.73 8.49-8.77 18.43-8.48 18a31 31 0 0 0 12-13.92C60.64 25.62 50.64-5.44 20.77.81c-6.41 1.34-11.34 6.36-8.49 8.04z"/><path class="cls-6" d="M21 11.67c-16.56 8.74-9.93 39-3.33 49.11 3.15 4.85 6.39 8 5.26 7s-9.3-.33-18-16.83c-7-13.27-9.35-46.58 12.46-46.58z"/><path class="cls-6" d="M5.45 21.15c.93-.81 5.44-6.17 5.44-6.17-4.33 18.17 3.66 33.4 3.62 33.35-6.68-11.47-7.64-14.11-9.06-27.18z"/></g></g></svg>