<svg xmlns="http://www.w3.org/2000/svg" viewBox="0 0 52.26 84.92"><defs><style>.cls-2,.cls-3,.cls-6{fill-rule:evenodd}.cls-2{fill:#f5b67e}.cls-3{fill:#d8465e}.cls-6{fill:#cc5827}.cls-7{fill:#3e3b3a}</style></defs><g id="Слой_2" data-name="Слой 2"><g id="OBJECTS"><path d="M45.28 52.85c-.26.14-4 4.5-4 4.5s-5-3.27-15.25-3.16-14.62 3.05-14.62 3.05a12.48 12.48 0 0 1-4-6.1c-1.16-4-2.15-15.6-1.56-15.75s42.41-.52 42.41-.52z" fill-rule="evenodd" fill="#b24d26"/><path class="cls-2" d="M35.4 72.23l10.48-7.91c4.59 1.51 5.92 14.53 6.38 20.6h-11z"/><path class="cls-3" d="M40.15 68.58l5.73-4.33c4 1.34 5.55 11.59 6.17 18.16h-11.9z"/><path class="cls-2" d="M26 55.73h-4.84v3.05c0 1.9-.31 1.51-2.09 2.5a15.17 15.17 0 0 1-2.23 1.57c2.15 6.92 3.71 15.83 7.91 22.07h2.5c4.2-6.24 5.76-15.15 7.91-22.07a15.17 15.17 0 0 1-2.23-1.57c-1.78-1-2.09-.6-2.09-2.5v-3.05zm-9.14 16.5L6.38 64.32C1.79 65.83.47 78.85 0 84.92h11z"/><path class="cls-3" d="M12.11 68.64l-5.73-4.32C2.34 65.65.83 75.9.21 82.47h11.9z"/><path d="M23 68.1c-4.26-1.56-4.79-6.13-3.93-6.8-1.9.87-7.54 1.72-10.8 2.48H5.94C6.41 65.57 7 69 7.67 73.3 7 77.65 4.46 80.78 6.3 84.92H46c1.84-4.14-.71-7.27-1.37-11.62a55.17 55.17 0 0 1 1.73-8.75h-.89L45 64h-.8c-3.27-.76-8.91-1.61-10.81-2.48.87.67.33 5.24-3.93 6.8l-1.81 6-1.54 5.43L23 68.1z" fill="#e8556b" fill-rule="evenodd"/><path d="M26.53 2.52h-.06l-2.85-.11v.22h-.3a19.53 19.53 0 0 0-14.7 8.1c-3.49 4.74-3.95 10.72-3.68 16.44.71 14.7 9 31.21 21.59 31.34 12.65-.13 20.89-16.64 21.59-31.34.28-5.72-.19-11.7-3.68-16.44a19.53 19.53 0 0 0-14.71-8.09h-.29v-.23l-2.84.11z" fill="#f8c997" fill-rule="evenodd"/><path class="cls-6" d="M36.37 8.21c-.17.81 0 5.14 5 11.78s5.33 7.21 5.33 7.21-.52 10.21-.46 9.69S49 26.64 49 26.64a26.57 26.57 0 0 0 0-10.75c-1.27-5.19-2.87-7.15-5.07-8s-7.56.32-7.56.32zM5.93 23.26c-.86 1-2.88 3-2.88 3L5.3 36.54z"/><path class="cls-6" d="M46.51 31C46.74 27.22 49 15 48 12.59 43.61 1.72 25.38-4.51 21.11 6.67c-1.28 3.35 9.55 0 10.3 4.47C32.39 17 39.69 27 46.51 31z"/><path class="cls-6" d="M37.35 9.47C42.22 14 27.12 24.24 7.25 28.76-2.87 19 10.4-7.74 32.44 2.16z"/><path class="cls-6" d="M3.51 19.73c-1.26 8.88-3.28 36.46 8.6 38.58-4.46-6.19-4.76-20-4.88-30.83-.08-7.43-.46-11.87-.54-17.83-1.69 2.2-2.8 7.46-3.18 10.08zm45.25 0C50 28.61 52 56.19 40.16 58.31c7.5-10.5 5.18-34.13 5.42-48.66 1.69 2.2 2.8 7.46 3.18 10.08z"/><circle class="cls-7" cx="17.6" cy="35.13" r="1.67"/><circle class="cls-7" cx="35.47" cy="35.13" r="1.67"/><path d="M23.33 43.67v-.05a.31.31 0 0 1 .14-.24A35.81 35.81 0 0 0 26.12 34c.68 0-.67 7.22-1.26 8.94a12.79 12.79 0 0 1 2.14-.21c2 0 3.62.4 3.62.89s-1.62.89-3.62.89-3.56-.37-3.67-.84z" fill="#e5b17d" fill-rule="evenodd"/><path d="M30.48 31.1c-1 .41.65-2.27 5.53-2.38 5.68-.12 7.4 2.61 5.17 1.83a15 15 0 0 0-10.7.55zm-7.89 0c1 .41-.66-2.27-5.53-2.38-5.68-.12-7.41 2.61-5.17 1.83a15 15 0 0 1 10.7.55z" fill="#913e22" fill-rule="evenodd"/><path d="M21 47.54c2.14 1.43 9.23 1.45 11.4 0 1.45 5.95-12.95 5.95-11.4 0z" fill="#d6825b" fill-rule="evenodd"/><path d="M18.47 61.1l1.58-.49L23 68.1s-2.83 2.6-5.26 2.78S15 66 16 63.73s2.47-2.63 2.47-2.63zm15.33 0l-1.59-.49-2.95 7.49s2.83 2.6 5.26 2.78 2.8-4.84 1.76-7.15-2.48-2.63-2.48-2.63z" fill="#fff" fill-rule="evenodd"/><path class="cls-6" d="M25.77 14.91c.81.18 8 .85 8 .85s-1.77 3.75-8.43 7.87-14.13 5.63-13.94 5.42 6.26-2.51 9.41-5.25a20.23 20.23 0 0 0 4.41-5.16z"/><path class="cls-6" d="M35.72 9.07c-.78-.26-7.3-3.4-7.3-3.4s-.42 4.14 3.19 11.1 9.2 12.11 9.14 11.82-4.07-5.37-5.35-9.34a20.22 20.22 0 0 1-1.12-6.7z"/></g></g></svg>