<svg width="34" height="51" viewBox="0 0 34 51" fill="none" xmlns="http://www.w3.org/2000/svg">
<path d="M17 0C7.62639 0 0 7.62639 0 17C0 19.814 0.703541 22.6041 2.041 25.0788L16.0704 50.4521C16.2571 50.7904 16.6131 51 17 51C17.387 51 17.7429 50.7904 17.9297 50.4521L31.9642 25.0704C33.2965 22.6041 34.0001 19.8139 34.0001 16.9999C34.0001 7.62639 26.3737 0 17 0ZM17 25.5C12.3132 25.5 8.50007 21.6869 8.50007 17C8.50007 12.3132 12.3132 8.50007 17 8.50007C21.6869 8.50007 25.5 12.3132 25.5 17C25.5 21.6869 21.6869 25.5 17 25.5Z" fill="#FF4A4A"/>
</svg>
