<svg width="37" height="25" viewBox="0 0 37 25" fill="none" xmlns="http://www.w3.org/2000/svg">
<path d="M24.5269 12.6863L37.0005 20.4363V4.60901L24.5269 12.6863Z" fill="#FF4A4A"/>
<path d="M0 4.60925V20.4365L12.4736 12.6865L0 4.60925Z" fill="#FF4A4A"/>
<path d="M34.6869 0H2.31197C1.15803 0 0.242285 0.845455 0.0688477 1.93409L18.4995 13.8682L36.9301 1.93409C36.7566 0.845455 35.8409 0 34.6869 0Z" fill="#FF4A4A"/>
<path d="M22.4073 14.059L19.1352 16.1772C18.9409 16.3022 18.7212 16.3636 18.4992 16.3636C18.2772 16.3636 18.0575 16.3022 17.8633 16.1772L14.5911 14.0568L0.0732422 23.0818C0.251305 24.1613 1.16243 25 2.31174 25H34.6867C35.836 25 36.7472 24.1613 36.9252 23.0818L22.4073 14.059Z" fill="#FF4A4A"/>
</svg>
