<svg width="34" height="34" viewBox="0 0 34 34" fill="none" xmlns="http://www.w3.org/2000/svg">
<path d="M33.1084 24.9525L28.3536 20.2077C26.6555 18.5132 23.7687 19.1911 23.0894 21.3939C22.58 22.9191 20.8818 23.7664 19.3535 23.4274C15.9572 22.5801 11.3723 18.1743 10.5232 14.6157C10.0138 13.0905 11.0326 11.3959 12.561 10.8876C14.7685 10.2098 15.4478 7.32902 13.7497 5.63445L8.99488 0.889649C7.63637 -0.29655 5.5986 -0.29655 4.4099 0.889649L1.18344 4.10933C-2.04302 7.49847 1.52307 16.4797 9.50432 24.4442C17.4856 32.4086 26.4857 36.1368 29.882 32.7476L33.1084 29.5279C34.2972 28.1722 34.2972 26.1387 33.1084 24.9525Z" fill="#FF4A4A"/>
</svg>
