<svg width="18" height="18" viewBox="0 0 18 18" fill="none" xmlns="http://www.w3.org/2000/svg">
<path d="M7.45415 10.546C5.73619 8.82793 5.34828 7.10988 5.26077 6.42154C5.23631 6.23121 5.30181 6.04034 5.43796 5.90513L6.82822 4.51542C7.03273 4.31102 7.06902 3.99248 6.91573 3.74732L4.70218 0.309973C4.53259 0.0385013 4.18438 -0.0594757 3.89813 0.083734L0.344584 1.75741C0.1131 1.8714 -0.0230567 2.11736 0.00322584 2.37406C0.189421 4.14301 0.960581 8.49152 5.23377 12.7652C9.50696 17.039 13.8546 17.8098 15.6244 17.9961C15.8811 18.0223 16.127 17.8862 16.241 17.6547L17.9146 14.101C18.0573 13.8153 17.96 13.468 17.6896 13.2981L14.2525 11.085C14.0074 10.9316 13.6889 10.9676 13.4844 11.1719L12.0948 12.5623C11.9596 12.6984 11.7687 12.7639 11.5784 12.7395C10.8901 12.652 9.17211 12.264 7.45415 10.546Z" fill="#FF6868"/>
<path d="M14.2761 9.62057C13.9333 9.62057 13.6554 9.34268 13.6554 8.99989C13.6525 6.43014 11.5702 4.34767 9.00053 4.34476C8.65776 4.34476 8.37988 4.06687 8.37988 3.72408C8.37988 3.38128 8.65776 3.10339 9.00053 3.10339C12.2554 3.10699 14.8931 5.74483 14.8967 8.99989C14.8967 9.34268 14.6189 9.62057 14.2761 9.62057Z" fill="#FF6868"/>
<path d="M17.3793 9.6206C17.0366 9.6206 16.7587 9.34271 16.7587 8.99992C16.7539 4.71697 13.2833 1.24616 9.00054 1.24137C8.65776 1.24137 8.37988 0.963478 8.37988 0.620684C8.37988 0.27789 8.65776 0 9.00054 0C13.9685 0.00547315 17.9945 4.03167 18 8.99992C18 9.16453 17.9346 9.32241 17.8182 9.43881C17.7018 9.55521 17.544 9.6206 17.3793 9.6206Z" fill="#FF6868"/>
</svg>
