<svg width="46" height="62" viewBox="0 0 46 62" fill="none" xmlns="http://www.w3.org/2000/svg">
<path d="M4.84229 22.9998C4.84229 33.0123 12.9879 41.1579 23.0004 41.1579C33.0128 41.1579 41.1584 33.0123 41.1584 22.9998C41.1584 12.9873 33.0128 4.84174 23.0004 4.84174C12.9879 4.84174 4.84229 12.9873 4.84229 22.9998ZM23.0004 7.26281C31.6779 7.26281 38.7374 14.3222 38.7374 22.9998C38.7374 31.6774 31.6779 38.7368 23.0004 38.7368C14.3228 38.7368 7.26336 31.6774 7.26336 22.9998C7.26336 14.3222 14.3228 7.26281 23.0004 7.26281Z" fill="#FF4A4A"/>
<path d="M11.7902 20.8413L16.4825 25.4645L15.4029 31.9622C15.3277 32.4147 15.5145 32.8706 15.8857 33.1401C16.2564 33.4096 16.7477 33.4461 17.1549 33.2352L23.0009 30.1994L28.8465 33.2352C29.2503 33.4446 29.7416 33.412 30.1157 33.1401C30.4869 32.8706 30.6737 32.4147 30.5985 31.9622L29.5189 25.4645L34.2112 20.8413C34.5379 20.5198 34.6547 20.0412 34.5129 19.6048C34.371 19.1688 33.9951 18.8506 33.5416 18.782L27.0298 17.8017L24.0833 11.9093C23.8786 11.4994 23.4591 11.2402 23.0009 11.2402C22.5422 11.2402 22.1233 11.4994 21.9181 11.9093L18.9716 17.8017L12.4598 18.782C12.0063 18.8501 11.6304 19.1688 11.4885 19.6048C11.3467 20.0412 11.4639 20.5198 11.7902 20.8413ZM19.9538 20.1022C20.3434 20.0436 20.6801 19.7991 20.8565 19.4468L23.0009 15.1575L25.1454 19.4468C25.3218 19.7991 25.6584 20.0436 26.0481 20.1022L30.7876 20.8158L27.3721 24.1802C27.0917 24.4569 26.9631 24.8526 27.0274 25.2413L27.8133 29.9705L23.5584 27.7613C23.384 27.6705 23.1924 27.6251 23.0009 27.6251C22.8094 27.6251 22.6179 27.6705 22.4429 27.7613L18.1881 29.9705L18.974 25.2413C19.0388 24.8526 18.9102 24.4569 18.6293 24.1802L15.2142 20.8158L19.9538 20.1022Z" fill="#FF4A4A"/>
<path d="M24.2106 1.21054C24.2106 1.87917 23.6687 2.42108 23.0001 2.42108C22.3315 2.42108 21.7896 1.87917 21.7896 1.21054C21.7896 0.541905 22.3315 0 23.0001 0C23.6687 0 24.2106 0.541905 24.2106 1.21054Z" fill="#FF4A4A"/>
<path d="M17.2951 0.713803C7.11192 3.31315 0 12.4778 0 23.0005C0 29.536 2.74783 35.6941 7.57154 40.0554L0.278518 52.9084C0.0439766 53.3221 0.0732944 53.8347 0.353231 54.2187C0.633169 54.6031 1.11171 54.788 1.57748 54.6911L9.85974 52.9712L12.7707 61.1741C12.9286 61.6205 13.3329 61.933 13.8049 61.9751C14.2768 62.0172 14.7293 61.7793 14.9634 61.3675L23.0002 47.2382L31.0366 61.3675C31.2532 61.7481 31.6561 61.9794 32.0883 61.9794C32.1237 61.9794 32.1597 61.9779 32.1951 61.9751C32.667 61.933 33.0714 61.62 33.2298 61.1741L36.1403 52.9712L44.4225 54.6911C44.8878 54.7875 45.3668 54.6026 45.6468 54.2187C45.9272 53.8347 45.956 53.3221 45.7215 52.9084L38.4285 40.0554C43.2522 35.6941 46 29.536 46 23.0005C46 12.4778 38.8881 3.31315 28.7054 0.713803C28.0571 0.5483 27.3984 0.939361 27.2329 1.58719C27.0674 2.23502 27.4584 2.89419 28.1063 3.0597C37.2165 5.38525 43.5794 13.5852 43.5794 23.0005C43.5794 34.4595 34.2729 43.5796 23.0002 43.5796C11.7195 43.5796 2.42108 34.4519 2.42108 23.0005C2.42108 13.5852 8.7835 5.38525 17.8937 3.0597C18.5416 2.89419 18.9326 2.23502 18.7676 1.58719C18.6021 0.939361 17.9434 0.5483 17.2951 0.713803ZM14.1676 57.8706L11.7886 51.1668C11.5862 50.5965 10.9942 50.2631 10.4016 50.3861L3.70444 51.7768L9.47625 41.6045C12.8416 44.0511 16.8265 45.5416 20.9702 45.9104L14.1676 57.8706ZM35.5984 50.3861C35.0063 50.2631 34.4138 50.5965 34.2114 51.1668L31.8329 57.8706L25.0298 45.9104C29.174 45.5416 33.1584 44.0511 36.5242 41.6045L42.296 51.7768L35.5984 50.3861Z" fill="#FF4A4A"/>
</svg>
