<svg width="52" height="52" viewBox="0 0 52 52" fill="none" xmlns="http://www.w3.org/2000/svg">
<path d="M32.9323 5.9488H19.0661C18.8691 5.9488 18.6801 5.87053 18.5408 5.73122C18.4015 5.59191 18.3232 5.40296 18.3232 5.20594V0.742857C18.3232 0.545839 18.4015 0.35689 18.5408 0.217578C18.6801 0.078265 18.8691 0 19.0661 0H32.9323C33.1293 0 33.3182 0.078265 33.4576 0.217578C33.5969 0.35689 33.6751 0.545839 33.6751 0.742857V5.20594C33.6751 5.40296 33.5969 5.59191 33.4576 5.73122C33.3182 5.87053 33.1293 5.9488 32.9323 5.9488ZM19.809 4.46309H32.1894V1.48571H19.809V4.46309Z" fill="#FF4A4A"/>
<path d="M24.714 51.9999H22.5598C22.3627 51.9999 22.1738 51.9217 22.0345 51.7824C21.8952 51.643 21.8169 51.4541 21.8169 51.2571C21.8169 51.0601 21.8952 50.8711 22.0345 50.7318C22.1738 50.5925 22.3627 50.5142 22.5598 50.5142H24.714C24.9111 50.5142 25.1 50.5925 25.2393 50.7318C25.3786 50.8711 25.4569 51.0601 25.4569 51.2571C25.4569 51.4541 25.3786 51.643 25.2393 51.7824C25.1 51.9217 24.9111 51.9999 24.714 51.9999Z" fill="#FF4A4A"/>
<path d="M51.2571 51.9984H37.3211C37.1241 51.9984 36.9352 51.9202 36.7959 51.7808C36.6566 51.6415 36.5783 51.4526 36.5783 51.2556C36.5783 51.0585 36.6566 50.8696 36.7959 50.7303C36.9352 50.591 37.1241 50.5127 37.3211 50.5127H50.5143V48.2916H1.48571V50.5127H17.3606C17.5576 50.5127 17.7465 50.591 17.8859 50.7303C18.0252 50.8696 18.1034 51.0585 18.1034 51.2556C18.1034 51.4526 18.0252 51.6415 17.8859 51.7808C17.7465 51.9202 17.5576 51.9984 17.3606 51.9984H0.742857C0.545839 51.9984 0.356891 51.9202 0.217578 51.7808C0.078265 51.6415 0 51.4526 0 51.2556V47.5487C0 47.3517 0.078265 47.1627 0.217578 47.0234C0.356891 46.8841 0.545839 46.8058 0.742857 46.8058H51.2571C51.4542 46.8058 51.6431 46.8841 51.7824 47.0234C51.9217 47.1627 52 47.3517 52 47.5487V51.2556C52 51.4526 51.9217 51.6415 51.7824 51.7808C51.6431 51.9202 51.4542 51.9984 51.2571 51.9984Z" fill="#FF4A4A"/>
<path d="M32.121 51.9999H29.9147C29.7177 51.9999 29.5288 51.9217 29.3895 51.7824C29.2501 51.643 29.1719 51.4541 29.1719 51.2571C29.1719 51.0601 29.2501 50.8711 29.3895 50.7318C29.5288 50.5925 29.7177 50.5142 29.9147 50.5142H32.121C32.318 50.5142 32.507 50.5925 32.6463 50.7318C32.7856 50.8711 32.8639 51.0601 32.8639 51.2571C32.8639 51.4541 32.7856 51.643 32.6463 51.7824C32.507 51.9217 32.318 51.9999 32.121 51.9999Z" fill="#FF4A4A"/>
<path d="M37.1428 48.2915H14.8571C14.6601 48.2915 14.4711 48.2133 14.3318 48.0739C14.1925 47.9346 14.1143 47.7457 14.1143 47.5487V5.20581C14.1143 5.00879 14.1925 4.81984 14.3318 4.68053C14.4711 4.54122 14.6601 4.46295 14.8571 4.46295H37.1428C37.3398 4.46295 37.5288 4.54122 37.6681 4.68053C37.8074 4.81984 37.8857 5.00879 37.8857 5.20581V47.5487C37.8857 47.7457 37.8074 47.9346 37.6681 48.0739C37.5288 48.2133 37.3398 48.2915 37.1428 48.2915ZM15.6 46.8058H36.4V5.94867H15.6V46.8058Z" fill="#FF4A4A"/>
<path d="M48.2856 48.2916H37.1428C36.9457 48.2916 36.7568 48.2134 36.6175 48.074C36.4782 47.9347 36.3999 47.7458 36.3999 47.5488V20.8059C36.3999 20.6089 36.4782 20.4199 36.6175 20.2806C36.7568 20.1413 36.9457 20.063 37.1428 20.063H48.2856C48.4826 20.063 48.6716 20.1413 48.8109 20.2806C48.9502 20.4199 49.0285 20.6089 49.0285 20.8059V47.5488C49.0285 47.7458 48.9502 47.9347 48.8109 48.074C48.6716 48.2134 48.4826 48.2916 48.2856 48.2916ZM37.8856 46.8059H47.5428V21.5488H37.8856V46.8059Z" fill="#FF4A4A"/>
<path d="M14.8569 48.2915H3.71405C3.51703 48.2915 3.32808 48.2132 3.18877 48.0739C3.04946 47.9346 2.97119 47.7457 2.97119 47.5486V22.2915C2.97119 22.0945 3.04946 21.9055 3.18877 21.7662C3.32808 21.6269 3.51703 21.5486 3.71405 21.5486H14.8569C15.0539 21.5486 15.2429 21.6269 15.3822 21.7662C15.5215 21.9055 15.5998 22.0945 15.5998 22.2915V47.5486C15.5998 47.7457 15.5215 47.9346 15.3822 48.0739C15.2429 48.2132 15.0539 48.2915 14.8569 48.2915ZM4.45691 46.8058H14.114V23.0344H4.45691V46.8058Z" fill="#FF4A4A"/>
<path d="M14.8573 23.0348H6.50018C6.30316 23.0348 6.11421 22.9565 5.9749 22.8172C5.83559 22.6779 5.75732 22.489 5.75732 22.2919V18.2463C5.75732 18.0493 5.83559 17.8604 5.9749 17.7211C6.11421 17.5817 6.30316 17.5035 6.50018 17.5035H14.8573C15.0543 17.5035 15.2433 17.5817 15.3826 17.7211C15.5219 17.8604 15.6002 18.0493 15.6002 18.2463V22.2919C15.6002 22.489 15.5219 22.6779 15.3826 22.8172C15.2433 22.9565 15.0543 23.0348 14.8573 23.0348ZM7.24304 21.5491H14.1145V18.9892H7.24304V21.5491Z" fill="#FF4A4A"/>
<path d="M14.8569 38.6169H8.54266C8.34564 38.6169 8.1567 38.5387 8.01738 38.3994C7.87807 38.26 7.7998 38.0711 7.7998 37.8741C7.7998 37.6771 7.87807 37.4881 8.01738 37.3488C8.1567 37.2095 8.34564 37.1312 8.54266 37.1312H14.8569C15.054 37.1312 15.2429 37.2095 15.3822 37.3488C15.5215 37.4881 15.5998 37.6771 15.5998 37.8741C15.5998 38.0711 15.5215 38.26 15.3822 38.3994C15.2429 38.5387 15.054 38.6169 14.8569 38.6169Z" fill="#FF4A4A"/>
<path d="M14.8569 28.2286H8.54266C8.34564 28.2286 8.1567 28.1504 8.01738 28.0111C7.87807 27.8717 7.7998 27.6828 7.7998 27.4858C7.7998 27.2888 7.87807 27.0998 8.01738 26.9605C8.1567 26.8212 8.34564 26.7429 8.54266 26.7429H14.8569C15.054 26.7429 15.2429 26.8212 15.3822 26.9605C15.5215 27.0998 15.5998 27.2888 15.5998 27.4858C15.5998 27.6828 15.5215 27.8717 15.3822 28.0111C15.2429 28.1504 15.054 28.2286 14.8569 28.2286Z" fill="#FF4A4A"/>
<path d="M14.8569 33.4228H8.54266C8.34564 33.4228 8.1567 33.3445 8.01738 33.2052C7.87807 33.0659 7.7998 32.8769 7.7998 32.6799C7.7998 32.4829 7.87807 32.294 8.01738 32.1547C8.1567 32.0153 8.34564 31.9371 8.54266 31.9371H14.8569C15.054 31.9371 15.2429 32.0153 15.3822 32.1547C15.5215 32.294 15.5998 32.4829 15.5998 32.6799C15.5998 32.8769 15.5215 33.0659 15.3822 33.2052C15.2429 33.3445 15.054 33.4228 14.8569 33.4228Z" fill="#FF4A4A"/>
<path d="M14.8569 43.8112H8.54266C8.34564 43.8112 8.1567 43.7329 8.01738 43.5936C7.87807 43.4543 7.7998 43.2654 7.7998 43.0684C7.7998 42.8713 7.87807 42.6824 8.01738 42.5431C8.1567 42.4038 8.34564 42.3255 8.54266 42.3255H14.8569C15.054 42.3255 15.2429 42.4038 15.3822 42.5431C15.5215 42.6824 15.5998 42.8713 15.5998 43.0684C15.5998 43.2654 15.5215 43.4543 15.3822 43.5936C15.2429 43.7329 15.054 43.8112 14.8569 43.8112Z" fill="#FF4A4A"/>
<path d="M41.9713 28.2343H37.1428C36.9457 28.2343 36.7568 28.156 36.6175 28.0167C36.4782 27.8774 36.3999 27.6885 36.3999 27.4915C36.3999 27.2944 36.4782 27.1055 36.6175 26.9662C36.7568 26.8269 36.9457 26.7486 37.1428 26.7486H41.9713C42.1683 26.7486 42.3573 26.8269 42.4966 26.9662C42.6359 27.1055 42.7142 27.2944 42.7142 27.4915C42.7142 27.6885 42.6359 27.8774 42.4966 28.0167C42.3573 28.156 42.1683 28.2343 41.9713 28.2343Z" fill="#FF4A4A"/>
<path d="M41.9713 34.9202H37.1428C36.9457 34.9202 36.7568 34.8419 36.6175 34.7026C36.4782 34.5633 36.3999 34.3743 36.3999 34.1773C36.3999 33.9803 36.4782 33.7913 36.6175 33.652C36.7568 33.5127 36.9457 33.4344 37.1428 33.4344H41.9713C42.1683 33.4344 42.3573 33.5127 42.4966 33.652C42.6359 33.7913 42.7142 33.9803 42.7142 34.1773C42.7142 34.3743 42.6359 34.5633 42.4966 34.7026C42.3573 34.8419 42.1683 34.9202 41.9713 34.9202Z" fill="#FF4A4A"/>
<path d="M41.9713 41.6086H37.1428C36.9457 41.6086 36.7568 41.5303 36.6175 41.391C36.4782 41.2517 36.3999 41.0627 36.3999 40.8657C36.3999 40.6687 36.4782 40.4798 36.6175 40.3404C36.7568 40.2011 36.9457 40.1229 37.1428 40.1229H41.9713C42.1683 40.1229 42.3573 40.2011 42.4966 40.3404C42.6359 40.4798 42.7142 40.6687 42.7142 40.8657C42.7142 41.0627 42.6359 41.2517 42.4966 41.391C42.3573 41.5303 42.1683 41.6086 41.9713 41.6086Z" fill="#FF4A4A"/>
<path d="M32.3766 12.8201H19.6247C19.4277 12.8201 19.2387 12.7418 19.0994 12.6025C18.9601 12.4632 18.8818 12.2742 18.8818 12.0772C18.8818 11.8802 18.9601 11.6912 19.0994 11.5519C19.2387 11.4126 19.4277 11.3344 19.6247 11.3344H32.3766C32.5736 11.3344 32.7625 11.4126 32.9019 11.5519C33.0412 11.6912 33.1194 11.8802 33.1194 12.0772C33.1194 12.2742 33.0412 12.4632 32.9019 12.6025C32.7625 12.7418 32.5736 12.8201 32.3766 12.8201Z" fill="#FF4A4A"/>
<path d="M32.3766 19.5349H19.6247C19.4277 19.5349 19.2387 19.4566 19.0994 19.3173C18.9601 19.178 18.8818 18.9891 18.8818 18.7921C18.8818 18.595 18.9601 18.4061 19.0994 18.2668C19.2387 18.1275 19.4277 18.0492 19.6247 18.0492H32.3766C32.5736 18.0492 32.7625 18.1275 32.9019 18.2668C33.0412 18.4061 33.1194 18.595 33.1194 18.7921C33.1194 18.9891 33.0412 19.178 32.9019 19.3173C32.7625 19.4566 32.5736 19.5349 32.3766 19.5349Z" fill="#FF4A4A"/>
<path d="M32.3766 26.2496H19.6247C19.4277 26.2496 19.2387 26.1713 19.0994 26.032C18.9601 25.8927 18.8818 25.7037 18.8818 25.5067C18.8818 25.3097 18.9601 25.1207 19.0994 24.9814C19.2387 24.8421 19.4277 24.7639 19.6247 24.7639H32.3766C32.5736 24.7639 32.7625 24.8421 32.9019 24.9814C33.0412 25.1207 33.1194 25.3097 33.1194 25.5067C33.1194 25.7037 33.0412 25.8927 32.9019 26.032C32.7625 26.1713 32.5736 26.2496 32.3766 26.2496Z" fill="#FF4A4A"/>
<path d="M31.4472 48.2918H20.5524C20.3554 48.2918 20.1665 48.2136 20.0271 48.0742C19.8878 47.9349 19.8096 47.746 19.8096 47.549V34.9085C19.8096 34.7115 19.8878 34.5225 20.0271 34.3832C20.1665 34.2439 20.3554 34.1656 20.5524 34.1656H31.4472C31.6442 34.1656 31.8331 34.2439 31.9724 34.3832C32.1118 34.5225 32.19 34.7115 32.19 34.9085V47.549C32.19 47.746 32.1118 47.9349 31.9724 48.0742C31.8331 48.2136 31.6442 48.2918 31.4472 48.2918ZM21.2953 46.8061H30.7043V35.6514H21.2953V46.8061Z" fill="#FF4A4A"/>
</svg>
