<svg width="43" height="59" viewBox="0 0 43 59" fill="none" xmlns="http://www.w3.org/2000/svg">
<path d="M19.0207 46.0704C18.772 45.8388 18.567 45.5683 18.4117 45.2664L16.995 42.5125C16.7787 42.0923 16.263 41.927 15.8427 42.1431C15.4226 42.3593 15.2572 42.8751 15.4734 43.2953L16.8901 46.0492C17.1362 46.5277 17.4609 46.9563 17.8551 47.3231L23.3947 52.4762V57.3872C23.3947 57.8599 23.7777 58.2428 24.2503 58.2428C24.7229 58.2428 25.1058 57.8599 25.1058 57.3872V52.1037C25.1058 51.866 25.007 51.6391 24.833 51.4773L19.0207 46.0704Z" fill="#FF4A4A"/>
<path d="M15.3201 39.2588L11.521 31.8739C11.5186 31.8693 11.5161 31.8646 11.5135 31.8599C11.1987 31.2748 11.3399 30.5405 11.8493 30.1139C12.3928 29.6586 13.1939 29.6797 13.7127 30.1633L18.7319 34.8402C18.9812 35.0724 19.3442 35.1346 19.6565 34.9988C19.9687 34.863 20.1708 34.5548 20.1708 34.2143V23.2281C20.1708 22.7555 19.7877 22.3726 19.3152 22.3726C18.8427 22.3726 18.4597 22.7555 18.4597 23.2281V32.2475L14.8792 28.9113C13.7299 27.8404 11.955 27.7934 10.7507 28.802C9.62424 29.7454 9.31054 31.3679 10.0027 32.6631L13.7986 40.0415C13.9504 40.3365 14.2497 40.5059 14.5601 40.5059C14.6919 40.5059 14.8256 40.4753 14.9508 40.4109C15.3707 40.1948 15.5361 39.6789 15.3201 39.2588Z" fill="#FF4A4A"/>
<path d="M39.291 20.5486C38.1445 20.5486 37.1182 21.0715 36.4372 21.8911C35.7562 21.0715 34.7298 20.5486 33.5835 20.5486C32.4371 20.5486 31.4108 21.0715 30.7298 21.8911C30.0489 21.0715 29.0224 20.5486 27.8761 20.5486C27.1407 20.5486 26.4552 20.7646 25.878 21.1352V14.3264C25.878 12.2811 24.214 10.6171 22.1686 10.6171C20.1234 10.6171 18.4595 12.2811 18.4595 14.3264V19.581C18.4595 20.0536 18.8425 20.4365 19.315 20.4365C19.7875 20.4365 20.1706 20.0536 20.1706 19.581V14.3264C20.1706 13.2246 21.067 12.3282 22.1687 12.3282C23.2705 12.3282 24.1668 13.2245 24.1668 14.3264V29.5226C24.1668 29.9952 24.5498 30.3781 25.0224 30.3781C25.495 30.3781 25.878 29.9952 25.878 29.5226V24.2578C25.878 23.1561 26.7742 22.2597 27.8761 22.2597C28.9779 22.2597 29.8742 23.156 29.8742 24.2578V29.5178C29.8742 29.9904 30.2572 30.3733 30.7298 30.3733C31.2024 30.3733 31.5853 29.9904 31.5853 29.5178V24.2578C31.5853 23.1561 32.4816 22.2597 33.5835 22.2597C34.6853 22.2597 35.5816 23.156 35.5816 24.2578V29.5178C35.5816 29.9904 35.9645 30.3733 36.4372 30.3733C36.9098 30.3733 37.2927 29.9904 37.2927 29.5178V24.2578C37.2927 23.1561 38.1891 22.2597 39.291 22.2597C40.3928 22.2597 41.2891 23.156 41.2891 24.2578V47.1822C41.2891 47.6179 41.1732 48.0473 40.954 48.4239L39.5802 50.7848C39.5043 50.9155 39.4641 51.0639 39.4641 51.2151V57.2728C39.4641 57.7454 39.8471 58.1283 40.3197 58.1283C40.7923 58.1283 41.1752 57.7454 41.1752 57.2728V51.446L42.4329 49.2845C42.804 48.6468 43.0001 47.9199 43.0001 47.1822V24.2578C43.0002 22.2126 41.3363 20.5486 39.291 20.5486Z" fill="#FF4A4A"/>
<path d="M29.2321 12.0338C29.2321 13.6081 28.7257 15.0997 27.7673 16.3473C27.4796 16.722 27.55 17.2591 27.9248 17.547C28.0801 17.6663 28.2635 17.7241 28.4453 17.7241C28.7021 17.7241 28.9561 17.609 29.1245 17.3896C30.3144 15.8405 30.9432 13.9885 30.9432 12.0339C30.9432 10.6827 30.644 9.38488 30.0539 8.1766C29.8467 7.75191 29.3344 7.57566 28.9097 7.78328C28.4851 7.99055 28.309 8.50297 28.5164 8.92744C28.9912 9.89981 29.2321 10.945 29.2321 12.0338Z" fill="#FF4A4A"/>
<path d="M15.2197 17.4713C15.3885 17.686 15.6393 17.7979 15.8927 17.7979C16.0778 17.7979 16.2642 17.7381 16.4211 17.6148C16.7925 17.3226 16.8567 16.7849 16.5646 16.4135C15.5731 15.1528 15.049 13.6389 15.049 12.0352C15.049 8.12537 18.2299 4.94452 22.1396 4.94452C23.7126 4.94452 25.2032 5.45032 26.4503 6.40706C26.825 6.69465 27.3623 6.62381 27.6499 6.24907C27.9375 5.87422 27.8668 5.33716 27.4919 5.04946C25.9433 3.86126 24.0926 3.2334 22.1396 3.2334C17.2864 3.2334 13.3379 7.18186 13.3379 12.0352C13.3379 14.0263 13.9886 15.906 15.2197 17.4713Z" fill="#FF4A4A"/>
<path d="M13.6986 23.9126C13.8491 24.0197 14.0224 24.0713 14.1942 24.0713C14.4616 24.0713 14.7249 23.9462 14.8918 23.7119C15.166 23.327 15.0761 22.7928 14.6912 22.5188C11.3037 20.1068 9.28143 16.188 9.28143 12.0357C9.28143 7.8835 11.3039 3.96447 14.6912 1.55259C15.0762 1.27859 15.166 0.744376 14.8918 0.359375C14.6178 -0.0255123 14.0836 -0.115403 13.6987 0.158718C9.86127 2.89103 7.57031 7.33104 7.57031 12.0357C7.5702 16.7404 9.86116 21.1804 13.6986 23.9126Z" fill="#FF4A4A"/>
<path d="M29.5893 1.55259C32.9767 3.96458 34.9992 7.8835 34.9992 12.0357C34.9992 13.6937 34.6883 15.3072 34.0754 16.8313C33.899 17.2698 34.1114 17.768 34.5498 17.9443C34.6546 17.9864 34.7625 18.0064 34.8689 18.0064C35.2078 18.0064 35.5287 17.8035 35.6629 17.4699C36.3579 15.7419 36.7103 13.9135 36.7103 12.0357C36.7103 7.33104 34.4193 2.89103 30.5819 0.158718C30.1966 -0.115403 29.6625 -0.0255123 29.3886 0.359375C29.1146 0.744376 29.2044 1.27859 29.5893 1.55259Z" fill="#FF4A4A"/>
<path d="M2.50315 6.67048C2.67175 6.85152 2.90025 6.94312 3.12954 6.94312C3.33829 6.94312 3.5475 6.86715 3.71234 6.71372C4.05822 6.3918 4.07761 5.8504 3.75558 5.50453L1.89491 3.50594C1.57276 3.16007 1.03148 3.1409 0.685718 3.46271C0.339844 3.78463 0.320452 4.32602 0.642484 4.6719L2.50315 6.67048Z" fill="#FF4A4A"/>
<path d="M2.50361 15.1517L0.64294 17.1501C0.321022 17.4959 0.3403 18.0373 0.68606 18.3593C0.850898 18.5128 1.06011 18.5887 1.26887 18.5887C1.49804 18.5887 1.72665 18.4971 1.89525 18.3161L3.75592 16.3176C4.07784 15.9719 4.05856 15.4305 3.7128 15.1084C3.36704 14.7867 2.82575 14.8059 2.50361 15.1517Z" fill="#FF4A4A"/>
<path d="M3.12963 9.71179H0.855558C0.383062 9.71179 0 10.0947 0 10.5674C0 11.04 0.383062 11.4229 0.855558 11.4229H3.12975C3.60224 11.4229 3.98531 11.04 3.98531 10.5674C3.98531 10.0947 3.60213 9.71179 3.12963 9.71179Z" fill="#FF4A4A"/>
</svg>
