<svg width="51" height="51" viewBox="0 0 51 51" fill="none" xmlns="http://www.w3.org/2000/svg">
<path d="M47.7097 0H3.29032C1.47571 0 0 1.47571 0 3.29032V34.5484C0 36.363 1.47571 37.8387 3.29032 37.8387H18.9194V44.4194H17.2742C15.4596 44.4194 13.9839 45.8951 13.9839 47.7097V50.1774C13.9839 50.6315 14.3516 51 14.8065 51H36.1935C36.6484 51 37.0161 50.6315 37.0161 50.1774V47.7097C37.0161 45.8951 35.5404 44.4194 33.7258 44.4194H32.0806V37.8387H47.7097C49.5243 37.8387 51 36.363 51 34.5484V3.29032C51 1.47571 49.5243 0 47.7097 0ZM35.371 47.7097V49.3548H15.629V47.7097C15.629 46.8024 16.3669 46.0645 17.2742 46.0645H33.7258C34.6331 46.0645 35.371 46.8024 35.371 47.7097ZM30.4355 44.4194H20.5645V37.8387H30.4355V44.4194ZM49.3548 34.5484C49.3548 35.4557 48.617 36.1935 47.7097 36.1935H3.29032C2.38302 36.1935 1.64516 35.4557 1.64516 34.5484V3.29032C1.64516 2.38302 2.38302 1.64516 3.29032 1.64516H47.7097C48.617 1.64516 49.3548 2.38302 49.3548 3.29032V34.5484Z" fill="#FF4A4A"/>
<path d="M46.8878 3.29004H4.1136C3.65871 3.29004 3.29102 3.65856 3.29102 4.11262V30.4352C3.29102 30.8893 3.65871 31.2578 4.1136 31.2578H46.8878C47.3427 31.2578 47.7104 30.8893 47.7104 30.4352V4.11262C47.7104 3.65856 47.3427 3.29004 46.8878 3.29004ZM46.0652 29.6126H4.93618V4.9352H46.0652V29.6126Z" fill="#FF4A4A"/>
<path d="M46.0635 32.9032H47.7086V34.5484H46.0635V32.9032Z" fill="#FF4A4A"/>
<path d="M42.7744 32.9032H44.4196V34.5484H42.7744V32.9032Z" fill="#FF4A4A"/>
<path d="M7.40266 16.4539H15.6285C16.0834 16.4539 16.451 16.0854 16.451 15.6313V7.40553C16.451 6.95146 16.0834 6.58295 15.6285 6.58295H7.40266C6.94777 6.58295 6.58008 6.95146 6.58008 7.40553V15.6313C6.58008 16.0854 6.94777 16.4539 7.40266 16.4539ZM8.22524 14.8088V11.5184H14.8059V14.8088H8.22524ZM14.8059 8.22811V9.87327H8.22524V8.22811H14.8059Z" fill="#FF4A4A"/>
<path d="M18.9188 16.4539H27.1446C27.5995 16.4539 27.9672 16.0854 27.9672 15.6313V7.40553C27.9672 6.95146 27.5995 6.58295 27.1446 6.58295H18.9188C18.4639 6.58295 18.0962 6.95146 18.0962 7.40553V15.6313C18.0962 16.0854 18.4639 16.4539 18.9188 16.4539ZM19.7414 14.8088V11.5184H26.322V14.8088H19.7414ZM26.322 8.22811V9.87327H19.7414V8.22811H26.322Z" fill="#FF4A4A"/>
<path d="M30.4354 16.4539H35.3709V14.8088H31.258V11.5184H33.7257V9.87327H31.258V8.22811H32.9031V6.58295H30.4354C29.9805 6.58295 29.6128 6.95146 29.6128 7.40553V15.6313C29.6128 16.0854 29.9805 16.4539 30.4354 16.4539Z" fill="#FF4A4A"/>
<path d="M7.40266 27.9678H15.6285C16.0834 27.9678 16.451 27.5993 16.451 27.1452V18.9194C16.451 18.4653 16.0834 18.0968 15.6285 18.0968H7.40266C6.94777 18.0968 6.58008 18.4653 6.58008 18.9194V27.1452C6.58008 27.5993 6.94777 27.9678 7.40266 27.9678ZM8.22524 26.3226V23.0323H14.8059V26.3226H8.22524ZM14.8059 19.742V21.3871H8.22524V19.742H14.8059Z" fill="#FF4A4A"/>
<path d="M18.9188 27.9678H27.1446C27.5995 27.9678 27.9672 27.5993 27.9672 27.1452V18.9194C27.9672 18.4653 27.5995 18.0968 27.1446 18.0968H18.9188C18.4639 18.0968 18.0962 18.4653 18.0962 18.9194V27.1452C18.0962 27.5993 18.4639 27.9678 18.9188 27.9678ZM19.7414 26.3226V23.0323H26.322V26.3226H19.7414ZM26.322 19.742V21.3871H19.7414V19.742H26.322Z" fill="#FF4A4A"/>
<path d="M30.4354 27.9678H38.6612C39.1161 27.9678 39.4838 27.5993 39.4838 27.1452V18.9194C39.4838 18.4653 39.1161 18.0968 38.6612 18.0968H30.4354C29.9805 18.0968 29.6128 18.4653 29.6128 18.9194V27.1452C29.6128 27.5993 29.9805 27.9678 30.4354 27.9678ZM31.258 26.3226V23.0323H37.8386V26.3226H31.258ZM37.8386 19.742V21.3871H31.258V19.742H37.8386Z" fill="#FF4A4A"/>
<path d="M37.0511 15.8673C37.1515 16.2029 37.4525 16.4373 37.8021 16.4529C37.8153 16.4538 37.8268 16.4538 37.8392 16.4538C38.1739 16.4538 38.4775 16.2498 38.6033 15.9372L40.1177 12.1517L43.9032 10.6373C44.229 10.5073 44.4346 10.1865 44.4198 9.83693C44.405 9.48733 44.1689 9.18627 43.8341 9.08509L35.6083 6.61735C35.3179 6.53098 35.0045 6.60995 34.7907 6.82382C34.5768 7.03769 34.4978 7.35191 34.5842 7.64146L37.0511 15.8673ZM41.1048 9.98417L39.1791 10.7549C38.9694 10.8388 38.804 11.0042 38.7201 11.2131L37.9494 13.1388L36.5971 8.63267L41.1048 9.98417Z" fill="#FF4A4A"/>
</svg>
