<svg width="58" height="54" viewBox="0 0 58 54" fill="none" xmlns="http://www.w3.org/2000/svg">
<path d="M57.8282 52.5054L56.0778 50.0657V42.4286C56.0778 41.896 55.6448 41.4643 55.1107 41.4643C54.5767 41.4643 54.1437 41.896 54.1437 42.4286V47.4043L29.967 14.1557V11.5714H42.5389C43.0729 11.5714 43.5059 11.1397 43.5059 10.6071V2.89286C43.5059 2.36033 43.0729 1.92857 42.5389 1.92857H29.967V0.964286C29.967 0.431759 29.534 0 29 0C28.4659 0 28.0329 0.431759 28.0329 0.964286V14.1557L3.85629 47.4043V42.4286C3.85629 41.896 3.42329 41.4643 2.88923 41.4643C2.35517 41.4643 1.92216 41.896 1.92216 42.4286V50.0657L0.171775 52.4668C-0.025506 52.7511 -0.0550015 53.119 0.09441 53.4311C0.247206 53.7704 0.582173 53.9918 0.955098 54H57.0449C57.409 53.9989 57.7416 53.7939 57.9055 53.4696C58.0551 53.1577 58.0255 52.7897 57.8282 52.5054ZM29.967 3.85714H41.5718V9.64286H29.967V3.85714ZM16.167 52.0714L29 29.8929L41.8329 52.0714H16.167ZM16.0993 48.2914L17.3372 39.0246L25.3928 32.2746L21.1667 39.5357L16.0993 48.2914ZM36.8332 39.5357L32.6071 32.2746L40.6628 39.0246L41.9006 48.2914L36.8332 39.5357ZM44.3763 52.0714L42.5389 38.4461C42.5082 38.2101 42.3912 37.9937 42.2101 37.8386L29.6382 27.2314L29.5125 27.1639C29.4622 27.1248 29.407 27.0923 29.3481 27.0675C29.2902 27.0629 29.2319 27.0629 29.174 27.0675C29.0746 27.0288 28.9641 27.0288 28.8646 27.0675C28.8067 27.0629 28.7484 27.0629 28.6905 27.0675C28.6316 27.0923 28.5764 27.1248 28.5261 27.1639L28.4004 27.2314L15.8286 37.8386C15.6475 37.9937 15.5305 38.2101 15.4998 38.4461L13.643 52.0714H2.88923L29 16.1036L55.1107 52.0714H44.3763Z" fill="#5FB46E"/>
</svg>
