<svg width="60" height="57" viewBox="0 0 60 57" fill="none" xmlns="http://www.w3.org/2000/svg">
<path d="M58.803 53.821H57.419V23.5307L58.1472 23.8705C58.3082 23.9456 58.481 23.9827 58.6532 23.9827C58.8777 23.9827 59.1011 23.9197 59.2963 23.7954C59.6413 23.5756 59.8504 23.1948 59.8504 22.7857V17.9775C59.8504 17.5125 59.5811 17.0895 59.1596 16.8927L55.0375 14.9691V7.19381C55.0375 6.53276 54.5016 5.9968 53.8405 5.9968H46.7207C46.0597 5.9968 45.5237 6.53276 45.5237 7.19381V10.5297L23.1994 0.112314C22.8498 -0.0507781 22.4431 -0.0355162 22.1071 0.153312L0.610773 12.2272C0.233566 12.4392 0 12.8382 0 13.2709V18.0791C0 18.5042 0.225486 18.8974 0.592369 19.1123C0.959402 19.327 1.41262 19.331 1.78324 19.1229L2.43142 18.7588V53.8211H1.24683C0.585786 53.8211 0.0498254 54.3571 0.0498254 55.0182C0.0498254 55.6792 0.585786 56.2152 1.24683 56.2152H3.62843H56.2219H58.803C59.464 56.2152 60 55.6792 60 55.0182C60 54.3571 59.464 53.821 58.803 53.821ZM47.9177 11.6048V8.39082H52.6433V13.8522L47.9156 11.6459C47.9161 11.6322 47.9177 11.6187 47.9177 11.6048ZM2.39402 13.9714L22.7437 2.54149L57.4564 18.74V20.9064L23.1994 4.92054C23.0387 4.84543 22.8658 4.80817 22.6933 4.80817C22.4907 4.80817 22.2886 4.85965 22.1071 4.96154L2.39402 16.0339V13.9714ZM4.82544 53.821V17.4537C4.82544 17.4406 4.82394 17.4281 4.82349 17.4151L22.7437 7.34957L55.0249 22.4135V53.821H4.82544Z" fill="#5FB46E"/>
<path d="M27.5317 33.4805H8.42943C7.76838 33.4805 7.23242 34.0164 7.23242 34.6775V50.248C7.23242 50.909 7.76838 51.445 8.42943 51.445H27.5317C28.1928 51.445 28.7287 50.909 28.7287 50.248V34.6775C28.7287 34.0164 28.1928 33.4805 27.5317 33.4805ZM9.62644 35.8745H16.7835V49.051H9.62644V35.8745ZM26.3347 49.051H19.1777V35.8745H26.3347V49.051Z" fill="#5FB46E"/>
<path d="M51.4702 33.4805H32.3181C31.6571 33.4805 31.1211 34.0164 31.1211 34.6775V50.248C31.1211 50.909 31.6571 51.445 32.3181 51.445H51.4702C52.1313 51.445 52.6672 50.909 52.6672 50.248V34.6775C52.6672 34.0164 52.1313 33.4805 51.4702 33.4805ZM33.5151 35.8745H40.6971V49.051H33.5151V35.8745ZM50.2732 49.051H43.0912V35.8745H50.2732V49.051Z" fill="#5FB46E"/>
<path d="M51.9764 23.897L32.9111 15.0003C32.732 14.9166 32.5431 14.8812 32.3582 14.8887C31.6855 14.8659 31.1211 15.4106 31.1211 16.0851V29.9255C31.1211 30.5865 31.6571 31.1225 32.3181 31.1225H51.4702C52.1313 31.1225 52.6672 30.5865 52.6672 29.9255V24.9818C52.6672 24.5166 52.3979 24.0938 51.9764 23.897ZM33.5151 17.924L40.6971 21.2754V28.7283H33.5151V17.924ZM50.2732 28.7285H43.0912V22.3927L50.2732 25.7442V28.7285Z" fill="#5FB46E"/>
<path d="M28.7236 13.7094C28.7221 13.6918 28.7201 13.6744 28.718 13.6569C28.7154 13.6369 28.7124 13.6168 28.7088 13.5969C28.7051 13.5764 28.7009 13.5561 28.6961 13.5359C28.6922 13.5195 28.6882 13.5034 28.6835 13.4872C28.6774 13.4651 28.6707 13.4434 28.6632 13.4217C28.6583 13.4072 28.6529 13.3928 28.6473 13.3784C28.639 13.3569 28.6303 13.3358 28.6207 13.3149C28.614 13.3002 28.6069 13.2857 28.5996 13.2712C28.5899 13.252 28.58 13.2332 28.5692 13.2146C28.5601 13.1986 28.5505 13.183 28.5407 13.1675C28.5305 13.1515 28.5202 13.1358 28.5092 13.1203C28.4973 13.1033 28.4847 13.0867 28.4717 13.0702C28.4613 13.0571 28.4509 13.0442 28.4401 13.0315C28.4256 13.0144 28.4105 12.9979 28.3948 12.9816C28.3837 12.9701 28.3726 12.9589 28.3611 12.9478C28.3451 12.9324 28.3285 12.9174 28.3116 12.9028C28.2984 12.8916 28.2851 12.8806 28.2716 12.8699C28.2556 12.8573 28.2395 12.8452 28.2228 12.8334C28.2059 12.8214 28.1887 12.81 28.1712 12.7989C28.1567 12.7898 28.1422 12.7808 28.1272 12.7722C28.106 12.7599 28.0841 12.7485 28.062 12.7376C28.0538 12.7336 28.0463 12.7288 28.0381 12.7249L23.8984 10.7932C23.4863 10.6009 23.0205 10.6635 22.6791 10.9164C22.6577 10.9268 22.6361 10.9364 22.615 10.9482L7.84334 19.2451C7.44444 19.4693 7.22389 19.8876 7.23287 20.3153C7.23287 20.3182 7.23242 20.3211 7.23242 20.3241V29.9251C7.23242 30.5862 7.76838 31.1221 8.42943 31.1221H27.5317C28.1928 31.1221 28.7287 30.5862 28.7287 29.9251V13.8097C28.7287 13.8002 28.7275 13.7911 28.7274 13.7817C28.7268 13.7576 28.7257 13.7335 28.7236 13.7094ZM9.62644 20.9893L16.7835 16.9693V28.728H9.62644V20.9893ZM19.1777 28.728V15.6246L23.4492 13.2254L26.3349 14.572V28.7278H19.1777V28.728Z" fill="#5FB46E"/>
</svg>
