<svg width="57" height="57" viewBox="0 0 57 57" fill="none" xmlns="http://www.w3.org/2000/svg">
<path d="M56.05 0H0.95C0.425366 0 0 0.425366 0 0.95V16.15C0 16.6746 0.425366 17.1 0.95 17.1H5.7V24.7H2.85C2.32537 24.7 1.9 25.1254 1.9 25.65V56.05C1.9 56.5746 2.32537 57 2.85 57H54.15C54.6746 57 55.1 56.5746 55.1 56.05V25.65C55.1 25.1254 54.6746 24.7 54.15 24.7H52.25V17.1H56.05C56.5746 17.1 57 16.6746 57 16.15V0.95C57 0.425366 56.5746 0 56.05 0ZM7.6 17.1H9.5V24.7H7.6V17.1ZM46.55 17.1V24.7H11.4V17.1H46.55ZM3.8 53.2H18.05V55.1H3.8V53.2ZM19.95 52.25V41.8H27.55V55.1H19.95V52.25ZM29.45 41.8H37.05V55.1H29.45V41.8ZM53.2 55.1H38.95V53.2H53.2V55.1ZM53.2 51.3H38.95V40.85C38.95 40.3254 38.5246 39.9 38 39.9H19C18.4754 39.9 18.05 40.3254 18.05 40.85V51.3H3.8V26.6H53.2V51.3ZM50.35 24.7H48.45V17.1H50.35V24.7ZM55.1 15.2H1.9V1.9H55.1V15.2Z" fill="#5FB46E"/>
<path d="M8.55039 9.50078H10.4504V13.3008H12.3504V3.80078H10.4504V7.60078H8.55039V3.80078H6.65039V13.3008H8.55039V9.50078Z" fill="#5FB46E"/>
<path d="M15.2 13.3008H19C19.5246 13.3008 19.95 12.8754 19.95 12.3508V4.75078C19.95 4.22615 19.5246 3.80078 19 3.80078H15.2C14.6754 3.80078 14.25 4.22615 14.25 4.75078V12.3508C14.25 12.8754 14.6754 13.3008 15.2 13.3008ZM16.15 5.70078H18.05V11.4008H16.15V5.70078Z" fill="#5FB46E"/>
<path d="M27.5496 12.3508V8.55078C27.5496 8.02615 27.1242 7.60078 26.5996 7.60078H23.7496V5.70078H27.5496V3.80078H22.7996C22.275 3.80078 21.8496 4.22615 21.8496 4.75078V8.55078C21.8496 9.07542 22.275 9.50078 22.7996 9.50078H25.6496V11.4008H21.8496V13.3008H26.5996C27.1242 13.3008 27.5496 12.8754 27.5496 12.3508Z" fill="#5FB46E"/>
<path d="M31.3492 13.3008H33.2492V5.70078H35.1492V3.80078H29.4492V5.70078H31.3492V13.3008Z" fill="#5FB46E"/>
<path d="M38.0008 13.3008H42.7508V11.4008H38.9508V9.50078H42.7508V7.60078H38.9508V5.70078H42.7508V3.80078H38.0008C37.4761 3.80078 37.0508 4.22615 37.0508 4.75078V12.3508C37.0508 12.8754 37.4761 13.3008 38.0008 13.3008Z" fill="#5FB46E"/>
<path d="M45.6004 13.3008H50.3504V11.4008H46.5504V3.80078H44.6504V12.3508C44.6504 12.8754 45.0758 13.3008 45.6004 13.3008Z" fill="#5FB46E"/>
<path d="M15.2004 28.5H7.60039C7.07576 28.5 6.65039 28.9254 6.65039 29.45V37.05C6.65039 37.5746 7.07576 38 7.60039 38H15.2004C15.725 38 16.1504 37.5746 16.1504 37.05V29.45C16.1504 28.9254 15.725 28.5 15.2004 28.5ZM14.2504 36.1H8.55039V30.4H14.2504V36.1Z" fill="#5FB46E"/>
<path d="M26.6008 28.5H19.0008C18.4761 28.5 18.0508 28.9254 18.0508 29.45V37.05C18.0508 37.5746 18.4761 38 19.0008 38H26.6008C27.1254 38 27.5508 37.5746 27.5508 37.05V29.45C27.5508 28.9254 27.1254 28.5 26.6008 28.5ZM25.6508 36.1H19.9508V30.4H25.6508V36.1Z" fill="#5FB46E"/>
<path d="M37.9992 28.5H30.3992C29.8746 28.5 29.4492 28.9254 29.4492 29.45V37.05C29.4492 37.5746 29.8746 38 30.3992 38H37.9992C38.5239 38 38.9492 37.5746 38.9492 37.05V29.45C38.9492 28.9254 38.5239 28.5 37.9992 28.5ZM37.0492 36.1H31.3492V30.4H37.0492V36.1Z" fill="#5FB46E"/>
<path d="M49.3996 28.5H41.7996C41.275 28.5 40.8496 28.9254 40.8496 29.45V37.05C40.8496 37.5746 41.275 38 41.7996 38H49.3996C49.9242 38 50.3496 37.5746 50.3496 37.05V29.45C50.3496 28.9254 49.9242 28.5 49.3996 28.5ZM48.4496 36.1H42.7496V30.4H48.4496V36.1Z" fill="#5FB46E"/>
<path d="M15.2004 39.9004H7.60039C7.07576 39.9004 6.65039 40.3258 6.65039 40.8504V48.4504C6.65039 48.975 7.07576 49.4004 7.60039 49.4004H15.2004C15.725 49.4004 16.1504 48.975 16.1504 48.4504V40.8504C16.1504 40.3258 15.725 39.9004 15.2004 39.9004ZM14.2504 47.5004H8.55039V41.8004H14.2504V47.5004Z" fill="#5FB46E"/>
<path d="M49.3996 39.9004H41.7996C41.275 39.9004 40.8496 40.3258 40.8496 40.8504V48.4504C40.8496 48.975 41.275 49.4004 41.7996 49.4004H49.3996C49.9242 49.4004 50.3496 48.975 50.3496 48.4504V40.8504C50.3496 40.3258 49.9242 39.9004 49.3996 39.9004ZM48.4496 47.5004H42.7496V41.8004H48.4496V47.5004Z" fill="#5FB46E"/>
<path d="M23.75 46.5508H25.65V48.4508H23.75V46.5508Z" fill="#5FB46E"/>
<path d="M31.3496 46.5508H33.2496V48.4508H31.3496V46.5508Z" fill="#5FB46E"/>
</svg>
