<svg width="57" height="57" viewBox="0 0 57 57" fill="none" xmlns="http://www.w3.org/2000/svg">
<path d="M56.05 55.1H51.3V5.7H53.2C53.77 5.7 54.15 5.32004 54.15 4.75004V0.949963C54.15 0.379963 53.77 0 53.2 0H3.79996C3.22996 0 2.85 0.379963 2.85 0.949963V4.74993C2.85 5.31993 3.22996 5.69989 3.79996 5.69989H5.7V55.0999H0.949963C0.379963 55.0999 0 55.4798 0 56.0498C0 56.6198 0.379963 57 0.949963 57H6.64996H22.8H34.2H50.35H56.05C56.62 57 57 56.62 57 56.05C57 55.48 56.62 55.1 56.05 55.1ZM4.75004 1.90004H52.2501V3.80007H50.35H6.64996H4.75004V1.90004ZM23.75 55.1V39.9H27.5499V55.1H23.75ZM29.45 55.1V39.9H33.2499V55.1H29.45ZM35.15 55.1V38.95C35.15 38.38 34.77 38.0001 34.2 38.0001H22.8C22.23 38.0001 21.85 38.38 21.85 38.95V55.1001H7.60004V5.7H49.4001V55.1H35.15Z" fill="#5FB46E"/>
<path d="M25.6499 9.50098H18.0499H10.45C9.87996 9.50098 9.5 9.88094 9.5 10.4509V18.051C9.5 18.621 9.87996 19.0009 10.45 19.0009H18.05H25.6499C26.2199 19.0009 26.5999 18.621 26.5999 18.051V10.451C26.5999 9.88105 26.2199 9.50098 25.6499 9.50098ZM11.3999 11.401H17.0999V17.101H11.3999V11.401ZM24.7 17.101H19V11.401H24.7V17.101Z" fill="#5FB46E"/>
<path d="M19 38.001H10.45C9.87996 38.001 9.5 38.3809 9.5 38.9509V46.551C9.5 47.121 9.87996 47.5009 10.45 47.5009H19C19.57 47.5009 19.9499 47.121 19.9499 46.551V38.9509C19.9499 38.381 19.57 38.001 19 38.001ZM18.0499 45.601H11.3999V39.901H18.0499V45.601Z" fill="#5FB46E"/>
<path d="M46.5507 38.001H38.0007C37.4307 38.001 37.0508 38.3809 37.0508 38.9509V46.551C37.0508 47.121 37.4307 47.5009 38.0007 47.5009H46.5507C47.1207 47.5009 47.5007 47.121 47.5007 46.551V38.9509C47.5008 38.381 47.1207 38.001 46.5507 38.001ZM45.6008 45.601H38.9508V39.901H45.6008V45.601Z" fill="#5FB46E"/>
<path d="M46.5503 9.50098H38.9503H31.3504C30.7804 9.50098 30.4004 9.88094 30.4004 10.4509V18.051C30.4004 18.621 30.7804 19.0009 31.3504 19.0009H38.9504H46.5504C47.1204 19.0009 47.5004 18.621 47.5004 18.051V10.451C47.5004 9.88105 47.1203 9.50098 46.5503 9.50098ZM32.3003 11.401H38.0003V17.101H32.3003V11.401ZM45.6004 17.101H39.9004V11.401H45.6004V17.101Z" fill="#5FB46E"/>
<path d="M25.6499 22.7988H18.0499H10.45C9.87996 22.7988 9.5 23.1788 9.5 23.7488V31.3488C9.5 31.9188 9.87996 32.2988 10.45 32.2988H18.05H25.6499C26.2199 32.2988 26.5999 31.9188 26.5999 31.3488V23.7488C26.5999 23.1788 26.2199 22.7988 25.6499 22.7988ZM11.3999 24.6989H17.0999V30.3988H11.3999V24.6989ZM24.7 30.3988H19V24.6989H24.7V30.3988Z" fill="#5FB46E"/>
<path d="M46.5503 22.7988H38.9503H31.3504C30.7804 22.7988 30.4004 23.1788 30.4004 23.7488V31.3488C30.4004 31.9188 30.7804 32.2988 31.3504 32.2988H38.9504H46.5504C47.1204 32.2988 47.5004 31.9188 47.5004 31.3488V23.7488C47.5004 23.1788 47.1203 22.7988 46.5503 22.7988ZM32.3003 24.6989H38.0003V30.3988H32.3003V24.6989ZM45.6004 30.3988H39.9004V24.6989H45.6004V30.3988Z" fill="#5FB46E"/>
</svg>
