<svg width="70" height="70" fill="none" xmlns="http://www.w3.org/2000/svg"><path d="M64.336 50.564a1.394 1.394 0 0 0-1.791-.826L48.043 55.09a1.395 1.395 0 0 0 .965 2.617l14.502-5.351a1.394 1.394 0 0 0 .826-1.791zm-18.49 6.822a1.394 1.394 0 0 0-1.79-.826l-.615.227a1.395 1.395 0 0 0 .966 2.617l.614-.227a1.394 1.394 0 0 0 .825-1.79zm18.491-12.504a1.395 1.395 0 0 0-1.79-.826l-11.461 4.229a1.395 1.395 0 0 0 .965 2.616l11.46-4.229a1.394 1.394 0 0 0 .826-1.79zm0-5.624a1.395 1.395 0 0 0-1.79-.825l-11.461 4.229a1.395 1.395 0 0 0 .965 2.616l11.46-4.228a1.395 1.395 0 0 0 .826-1.792z" fill="#fff"/><path d="M69.088 13.744l-33.605-12.4a1.396 1.396 0 0 0-.966 0L.912 13.744v.001A1.395 1.395 0 0 0 0 15.052v39.896c0 .584.364 1.106.912 1.308l33.605 12.4a1.394 1.394 0 0 0 .965-.001l33.606-12.4c.548-.201.912-.723.912-1.307V15.052c0-.584-.364-1.106-.912-1.308zM33.606 65.347L2.789 53.976V17.053l6.275 2.316v16.895c0 .584.363 1.106.911 1.308l15.06 5.557a1.393 1.393 0 0 0 1.877-1.308V25.954l6.693 2.47v36.923zm-9.483-40.422V39.82l-12.27-4.528V20.397l12.27 4.528zm-9.637-6.54l11.032-4.07 11.031 4.07-11.031 4.071-11.032-4.07zM35 25.965l-5.469-2.017 11.53-4.254a1.394 1.394 0 0 0 0-2.617L26 11.52a1.396 1.396 0 0 0-.966 0l-14.592 5.385-5.02-1.853L35 4.14l29.577 10.913L35 25.966zm32.211 28.01L36.395 65.348V28.424l30.816-11.37v36.922z" fill="#fff"/></svg>