<svg width="16" height="16" viewBox="0 0 16 16" fill="none" xmlns="http://www.w3.org/2000/svg">
<path fill-rule="evenodd" clip-rule="evenodd" d="M15.9677 15.2607C16.0583 14.9147 15.9549 14.5468 15.6978 14.2984L9.39948 8L15.6978 1.70164C16.0728 1.31335 16.0675 0.696005 15.6858 0.314242C15.304 -0.0675212 14.6867 -0.0728369 14.2984 0.30216L8 6.60053L1.70164 0.30216C1.45325 0.0450745 1.08526 -0.0583393 0.739255 0.0322688C0.393252 0.122877 0.122877 0.393252 0.0322689 0.739255C-0.0583395 1.08526 0.0450748 1.45325 0.302161 1.70164L6.60053 8L0.302161 14.2984C-0.0728368 14.6866 -0.0675211 15.304 0.314242 15.6858C0.696005 16.0675 1.31335 16.0728 1.70164 15.6978L8 9.39948L14.2984 15.6978C14.5468 15.9549 14.9147 16.0583 15.2607 15.9677C15.6067 15.8771 15.8771 15.6067 15.9677 15.2607Z" fill="#121212"/>
</svg>
