<svg width="200" height="34" viewBox="0 0 200 34" fill="none" xmlns="http://www.w3.org/2000/svg">
<g clip-path="url(#clip0)">
<path d="M5.63549 3.62692V30.7619C5.63206 31.124 5.55576 31.4819 5.41095 31.8153C5.26989 32.1403 5.06573 32.4356 4.80974 32.6849C4.55374 32.9341 4.25134 33.1333 3.91879 33.2718C3.5703 33.4145 3.19571 33.4867 2.81778 33.4839C2.43757 33.4859 2.06078 33.4138 1.70952 33.2718C1.37764 33.1321 1.07546 32.9331 0.818573 32.6849C0.564357 32.4342 0.360446 32.1392 0.217363 31.8153C0.0748484 31.4815 0.0010116 31.1235 5.85804e-05 30.7619V7.93259C-0.00302097 7.35898 0.115349 6.79093 0.347746 6.26406C0.567547 5.7495 0.887312 5.28133 1.2894 4.88539C1.70703 4.49066 2.19897 4.17856 2.7381 3.96628C3.28529 3.73873 3.87452 3.62322 4.46929 3.62692H5.63549Z" fill="#5FB46E"/>
<path d="M18.2317 29.5317C18.3897 29.5598 18.5494 29.5787 18.7097 29.5883C18.9633 29.5883 19.2385 29.5883 19.5283 29.5883H20.325C20.4744 29.6019 20.6248 29.6019 20.7741 29.5883V30.6912C20.7806 31.1498 20.6815 31.604 20.4844 32.0204C20.2927 32.4157 20.0274 32.7729 19.7021 33.0738C19.3723 33.3827 18.9788 33.6193 18.5479 33.7681C18.117 33.9168 17.6585 33.9742 17.2031 33.9364L16.1311 33.8303C15.7689 33.795 15.4067 33.7384 15.0011 33.6677C14.636 33.6068 14.2881 33.4719 13.9797 33.2718C13.6796 33.0748 13.3939 32.8574 13.125 32.6213C12.6003 32.1056 12.1995 31.4826 11.9516 30.7973C11.792 30.3992 11.6826 29.9838 11.6256 29.56C11.5595 29.0654 11.5281 28.567 11.5314 28.0682V15.236H8.52539V13.8786C8.52649 13.5405 8.59796 13.2061 8.73545 12.8958C8.86868 12.5899 9.06044 12.3115 9.30044 12.0757C9.54056 11.8396 9.82611 11.6522 10.1407 11.5242C10.4723 11.3842 10.8297 11.312 11.191 11.3121H11.5314V4.51071H12.7483C13.3229 4.50707 13.8923 4.61773 14.4216 4.83593C14.933 5.047 15.3997 5.34908 15.7979 5.72676C16.1971 6.11255 16.514 6.57172 16.7303 7.07776C16.9466 7.5838 17.0581 8.12666 17.0582 8.67498V11.3121H20.5423V12.6413C20.547 12.9891 20.4754 13.3338 20.3323 13.6523C20.1991 13.9582 20.0073 14.2366 19.7673 14.4724C19.2709 14.9552 18.5992 15.227 17.8985 15.2289H17.0582V27.5733C17.0525 27.9258 17.0939 28.2776 17.1814 28.6197L17.348 28.9661C17.4028 29.072 17.4822 29.164 17.5798 29.2348C17.756 29.4083 17.9844 29.5222 18.2317 29.56" fill="#5FB46E"/>
<path d="M46.1637 24.4907C46.6202 25.3424 46.8447 26.2943 46.8156 27.2551C46.8285 28.1785 46.5964 29.0894 46.1419 29.8993C45.6966 30.7386 45.0567 31.4649 44.2731 32.0203C43.8535 32.3293 43.4019 32.5947 42.9258 32.8122C42.4072 33.0505 41.8723 33.2536 41.325 33.4202C40.0734 33.7613 38.7781 33.9256 37.4787 33.908C36.0618 33.9332 34.6523 33.7031 33.321 33.2293C32.7557 33.0393 32.2081 32.8028 31.6839 32.5223C31.1831 32.264 30.7222 31.9379 30.3149 31.5537C29.8547 31.1298 29.4464 30.6553 29.098 30.1397C28.7963 29.6946 28.5415 29.2208 28.3374 28.7257C28.1732 28.3303 28.0471 27.9208 27.9608 27.5025C27.8974 27.1976 27.8635 26.8875 27.8594 26.5764V23.9534H29.0618C29.7266 23.9488 30.3851 24.0788 30.9958 24.3351C31.5896 24.5808 32.1322 24.9306 32.5966 25.3674C33.0983 25.9093 33.452 26.5658 33.6252 27.2763C33.6537 27.4148 33.69 27.5517 33.7338 27.6864C33.7714 27.8081 33.8198 27.9264 33.8787 28.0399C34.0817 28.4384 34.3891 28.7774 34.7697 29.0226C35.1671 29.2718 35.5988 29.4647 36.0518 29.5953C36.5536 29.7199 37.0696 29.7816 37.5874 29.7791C38.4999 29.8426 39.4085 29.6115 40.1733 29.1216C40.4453 28.9396 40.6665 28.6943 40.817 28.4079C40.9675 28.1216 41.0425 27.8031 41.0353 27.4813C41.039 27.1905 40.9746 26.9028 40.847 26.64C40.7021 26.3424 40.4669 26.0956 40.1733 25.933C39.9784 25.7988 39.7696 25.6851 39.5504 25.5936C39.3186 25.4876 39.0578 25.3815 38.7608 25.2755C38.4283 25.1652 38.0898 25.0731 37.7467 24.9997L36.4936 24.7452C35.9069 24.625 35.3491 24.4907 34.8349 24.3351C34.3206 24.1796 33.8135 24.0241 33.321 23.8473C32.4236 23.5133 31.5758 23.064 30.8002 22.5111C30.465 22.2439 30.1547 21.9481 29.8731 21.6273C29.5936 21.3204 29.3506 20.9836 29.1487 20.6234C28.7384 19.8666 28.5362 19.0188 28.562 18.163C28.5631 17.2615 28.7658 16.3712 29.156 15.5541C29.583 14.7379 30.1772 14.016 30.9016 13.4331C31.7383 12.7683 32.6936 12.2602 33.7194 11.9342C34.9244 11.5686 36.1807 11.3896 37.4425 11.404C38.7556 11.3805 40.0648 11.5522 41.325 11.913C41.8697 12.0908 42.4 12.3082 42.9114 12.5635C43.3862 12.7931 43.8353 13.0703 44.2514 13.3907C45.0275 13.9654 45.6592 14.7053 46.0985 15.5541C46.5095 16.3815 46.7319 17.286 46.7504 18.2054V20.9981H45.49C44.7596 21.0073 44.0365 20.8551 43.3749 20.5527C42.752 20.261 42.2029 19.8385 41.7669 19.3154C41.68 19.2246 41.6069 19.1223 41.5496 19.0114C41.4648 18.863 41.3898 18.7095 41.325 18.5518L41.1294 18.0286C41.0643 17.8448 41.0136 17.6751 40.9701 17.5125C40.8955 17.2331 40.7783 16.9661 40.6224 16.7207C40.4493 16.4592 40.2253 16.2335 39.9632 16.0561C39.6461 15.8272 39.2793 15.6724 38.8912 15.6036C38.4118 15.5332 37.9273 15.5001 37.4425 15.5046C36.608 15.4613 35.7854 15.7123 35.1246 16.2116C34.8565 16.4041 34.6401 16.657 34.4938 16.9488C34.3475 17.2406 34.2757 17.5625 34.2844 17.8872C34.2763 18.1837 34.3568 18.476 34.5161 18.7286C34.6854 19.0255 34.9363 19.2704 35.2405 19.4356C35.4131 19.5566 35.5975 19.6608 35.791 19.7467C36.0274 19.8528 36.2692 19.9472 36.5153 20.0295C36.7834 20.1143 37.0731 20.1921 37.3991 20.2769C37.725 20.3618 38.0727 20.4325 38.4494 20.5032C39.5869 20.7133 40.7096 20.9943 41.8103 21.3445C42.3089 21.4952 42.7935 21.6868 43.259 21.9172C43.6812 22.1247 44.0878 22.3609 44.4759 22.6242C44.8434 22.8742 45.179 23.1661 45.4755 23.4938C45.7539 23.8143 45.9967 24.1627 46.1999 24.5331" fill="#5FB46E"/>
<path d="M109.732 32.183L108.892 32.7132C108.405 33.0576 107.85 33.2985 107.262 33.4202C106.695 33.5402 106.11 33.5546 105.538 33.4627C104.971 33.3695 104.425 33.183 103.923 32.9112C103.409 32.6264 102.956 32.2471 102.59 31.7941L97.8817 24.5968L95.7086 26.7178V29.4468V30.5286C95.7148 30.9243 95.6358 31.3169 95.4768 31.681C95.3265 32.0302 95.1074 32.3473 94.8321 32.6142C94.5592 32.8819 94.2341 33.0934 93.876 33.2364C93.1192 33.5382 92.2714 33.5382 91.5146 33.2364C91.154 33.0942 90.8263 32.8826 90.5512 32.6142C90.2784 32.3438 90.0576 32.0277 89.8993 31.681C89.7378 31.3174 89.6564 30.9248 89.6603 30.5286V2.04323H91.2683C91.8582 2.04146 92.4423 2.15693 92.985 2.3826C94.0459 2.81959 94.8922 3.64055 95.3464 4.6733C95.5743 5.20828 95.6854 5.7838 95.6724 6.36305V19.4639L96.8748 17.9863L101.706 12.4433L103.829 9.98293L104.553 10.5768C104.924 10.8823 105.244 11.2425 105.502 11.6444C105.752 12.029 105.933 12.4521 106.038 12.8958C106.143 13.3357 106.179 13.7886 106.146 14.2391C106.113 14.6913 106.005 15.1352 105.828 15.5541C105.683 15.9704 105.467 16.36 105.19 16.7066L101.728 20.5598L106.117 26.9228L107.508 28.9307L109.732 32.183Z" fill="#5FB46E"/>
<path d="M123.096 17.2085H122.995H122.437H121.901C121.369 17.2047 120.837 17.2521 120.314 17.3499C119.872 17.4377 119.449 17.5979 119.061 17.8236C118.718 18.0158 118.403 18.2538 118.127 18.5306C117.852 18.8055 117.622 19.1203 117.446 19.4639V30.7407C117.448 31.1361 117.37 31.5279 117.214 31.8931C117.064 32.2405 116.848 32.5572 116.577 32.8263C116.304 33.0912 115.982 33.3024 115.628 33.4485C115.275 33.6012 114.892 33.6784 114.505 33.6747C114.103 33.6823 113.704 33.6112 113.331 33.4654C112.957 33.3197 112.618 33.1024 112.332 32.8263C112.061 32.5572 111.845 32.2405 111.695 31.8931C111.539 31.5279 111.461 31.1361 111.463 30.7407V11.3121H112.702C113.666 11.3109 114.611 11.5783 115.425 12.0827C116.215 12.5631 116.852 13.2486 117.265 14.0624C117.676 13.2491 118.31 12.5636 119.098 12.0827C119.923 11.574 120.881 11.3065 121.857 11.3121H123.096V17.2085Z" fill="#5FB46E"/>
<path d="M143.153 33.5121C142.209 33.5279 141.28 33.2828 140.473 32.8051C139.694 32.3338 139.059 31.6673 138.633 30.875L137.626 31.8719C137.272 32.2346 136.862 32.5401 136.409 32.7769C135.379 33.2716 134.24 33.5142 133.092 33.4839C132.07 33.491 131.055 33.3334 130.086 33.0172C129.646 32.8426 129.218 32.6419 128.804 32.4163C128.408 32.2104 128.04 31.9562 127.71 31.6598C127.03 31.0932 126.477 30.395 126.088 29.6095C125.704 28.7862 125.511 27.8907 125.522 26.9865C125.505 25.9474 125.72 24.917 126.153 23.9675C126.389 23.5342 126.668 23.1245 126.986 22.7444C127.31 22.3581 127.688 22.0178 128.108 21.7334C128.562 21.4128 129.047 21.1381 129.557 20.9133C130.121 20.6667 130.708 20.4749 131.31 20.3406C131.984 20.1634 132.672 20.0427 133.367 19.98C134.164 19.9009 134.964 19.8632 135.765 19.8669H138.409V18.6014C138.456 17.7316 138.172 16.8756 137.612 16.1975C137.353 15.8751 137.007 15.6301 136.612 15.4905C136.148 15.3261 135.658 15.2424 135.164 15.2431H134.475C134.247 15.2491 134.019 15.2728 133.795 15.3138L133.302 15.4481C133.077 15.5229 132.864 15.6301 132.672 15.7663C132.431 15.9406 132.214 16.145 132.027 16.3743C131.799 16.6613 131.623 16.984 131.506 17.3287C131.134 18.0461 130.586 18.6628 129.911 19.1241C129.236 19.5853 128.455 19.8769 127.638 19.9729C127.463 20.0031 127.286 20.0196 127.109 20.0224H126.5H125.776V18.46C125.77 17.5385 125.952 16.6251 126.312 15.7733C126.671 14.9203 127.212 14.1515 127.898 13.518C128.232 13.1995 128.599 12.9152 128.992 12.6696C129.354 12.4433 129.716 12.2524 129.977 12.104C130.296 11.9514 130.625 11.8215 130.962 11.7151L131.216 11.6303L131.491 11.5525C132.746 11.1629 134.057 10.9743 135.374 10.994C136.583 10.9891 137.787 11.1485 138.952 11.4676C139.984 11.7473 140.948 12.2283 141.784 12.8817C142.586 13.527 143.228 14.3417 143.66 15.2643C143.878 15.7616 144.038 16.2809 144.138 16.8126C144.258 17.404 144.316 18.0056 144.312 18.6084V33.4556L143.153 33.5121ZM138.423 23.2181H135.989C135.3 23.2069 134.613 23.2878 133.947 23.4585C133.437 23.6054 132.96 23.8453 132.541 24.1655C132.19 24.4572 131.911 24.822 131.723 25.2331C131.535 25.6545 131.441 26.1099 131.448 26.5693C131.441 26.9035 131.507 27.2352 131.642 27.5424C131.777 27.8496 131.977 28.1252 132.23 28.351C132.822 28.8466 133.588 29.0998 134.367 29.058C134.609 29.0583 134.851 29.0441 135.091 29.0156C135.322 28.9863 135.549 28.939 135.772 28.8742C136.169 28.7595 136.55 28.6006 136.909 28.4005C137.081 28.3084 137.245 28.2044 137.402 28.0894C137.545 27.9833 137.681 27.8676 137.807 27.743C137.929 27.6157 138.043 27.4811 138.148 27.34C138.242 27.2127 138.336 27.0784 138.416 26.944L138.423 23.2181Z" fill="#5FB46E"/>
<path d="M148.042 4.48948C148.206 4.13524 148.426 3.80837 148.694 3.52088C148.85 3.39582 149.015 3.28014 149.186 3.17445C149.362 3.0667 149.549 2.97669 149.744 2.90579C150.212 2.76106 150.701 2.69181 151.193 2.70075C151.669 2.69175 152.144 2.75861 152.598 2.89872C153.003 3.02876 153.376 3.24076 153.692 3.52088C153.987 3.80437 154.219 4.1438 154.375 4.51829C154.531 4.89278 154.606 5.29441 154.597 5.69847C154.593 6.13343 154.487 6.56167 154.286 6.94987C154.22 7.13198 154.128 7.30356 154.01 7.45892C153.902 7.61002 153.776 7.74772 153.634 7.86898C153.491 8.02499 153.325 8.15855 153.141 8.2649C152.955 8.3718 152.761 8.46628 152.562 8.54771C152.109 8.6937 151.633 8.76304 151.156 8.75274C150.665 8.76484 150.175 8.69551 149.708 8.54771C149.514 8.46908 149.327 8.37447 149.15 8.2649C148.971 8.15103 148.806 8.01825 148.657 7.86898C148.371 7.61516 148.148 7.30077 148.005 6.94987C147.932 6.75645 147.874 6.55793 147.832 6.35598C147.779 6.14061 147.752 5.91993 147.752 5.69847C147.752 5.48633 147.779 5.27502 147.832 5.06923C147.875 4.87214 147.933 4.67839 148.005 4.48948H148.042ZM154.162 15.9925C154.165 15.381 154.042 14.7752 153.8 14.2108C153.315 13.0966 152.407 12.2095 151.265 11.7363C150.687 11.5013 150.066 11.3811 149.44 11.3828H148.114V30.8679C148.109 31.2659 148.188 31.6606 148.346 32.0274C148.49 32.3803 148.707 32.7004 148.983 32.9678C149.257 33.2365 149.582 33.4502 149.939 33.597C150.314 33.7486 150.715 33.8255 151.12 33.8232C151.523 33.8255 151.922 33.7486 152.294 33.597C152.843 33.3701 153.311 32.9901 153.639 32.5046C153.968 32.0191 154.142 31.4498 154.141 30.8679L154.162 15.9925Z" fill="#5FB46E"/>
<path d="M158.031 33.5122V11.3121C158.981 11.3631 159.911 11.6037 160.762 12.0191C161.806 12.6119 162.642 13.4992 163.16 14.5644C163.861 13.573 164.791 12.7567 165.876 12.1817C167.11 11.5741 168.479 11.2753 169.86 11.3121C170.376 11.3095 170.892 11.3473 171.403 11.4252C171.895 11.494 172.38 11.6076 172.851 11.7646C173.719 12.0303 174.497 12.5187 175.104 13.1786C175.78 13.9241 176.275 14.8085 176.553 15.7663C176.728 16.3391 176.852 16.9258 176.922 17.5196C177.001 18.224 177.04 18.9321 177.038 19.6407V33.5122H175.879C175.232 33.518 174.591 33.3928 173.996 33.1445C172.844 32.6664 171.93 31.7684 171.446 30.6417C171.191 30.066 171.06 29.445 171.062 28.8176V19.6265C171.063 19.2934 171.044 18.9605 171.004 18.6296C170.977 18.3602 170.918 18.0946 170.83 17.8378C170.707 17.4245 170.483 17.0462 170.179 16.7349C169.872 16.4684 169.504 16.277 169.107 16.1763C168.631 16.0729 168.145 16.0254 167.658 16.0349C166.829 16.0186 166.018 16.2668 165.347 16.7419C164.727 17.2178 164.249 17.8478 163.964 18.566V23.9393C163.964 25.5018 163.964 27.2693 163.964 29.256C163.967 29.8273 163.848 30.393 163.616 30.9174C163.39 31.4279 163.065 31.8911 162.66 32.282C162.24 32.6744 161.749 32.9862 161.211 33.2011C160.669 33.4279 160.084 33.5434 159.494 33.5404L158.031 33.5122Z" fill="#5FB46E"/>
<path d="M200 29.2277C199.913 29.3479 199.797 29.4893 199.652 29.659C199.507 29.8287 199.348 29.9913 199.182 30.161L198.674 30.6488C198.508 30.8114 198.356 30.9457 198.233 31.0518C197.95 31.2851 197.66 31.5043 197.349 31.7164C197.029 31.9372 196.693 32.1334 196.342 32.3032C195.969 32.4988 195.582 32.6666 195.183 32.8052C194.777 32.9466 194.35 33.0738 193.901 33.1869C193.436 33.297 192.964 33.3797 192.489 33.4344C191.974 33.4859 191.456 33.5119 190.938 33.5122C189.371 33.5438 187.814 33.2648 186.361 32.692C185.7 32.4316 185.067 32.1096 184.47 31.7305C183.9 31.3686 183.371 30.9492 182.891 30.4791C181.929 29.5379 181.187 28.4042 180.718 27.1562C180.217 25.85 179.972 24.464 179.994 23.0697V22.292C179.991 21.5087 180.049 20.7264 180.167 19.9518C180.285 19.2293 180.472 18.5192 180.725 17.8307C181.164 16.534 181.858 15.3333 182.768 14.2957C183.67 13.3156 184.78 12.5388 186.02 12.0191C188.734 10.948 191.764 10.9253 194.495 11.9555C195.083 12.2164 195.645 12.5288 196.175 12.8888C196.68 13.2394 197.137 13.6503 197.537 14.1119C197.963 14.5763 198.33 15.089 198.631 15.639C198.95 16.2158 199.21 16.8221 199.406 17.449C199.684 18.3709 199.861 19.3188 199.935 20.277V21.3234C199.911 21.7226 199.803 22.1127 199.616 22.4687C199.436 22.8191 199.191 23.1333 198.892 23.3949C198.596 23.6564 198.255 23.8647 197.885 24.01C197.503 24.1595 197.094 24.2363 196.683 24.2362H185.962C186.01 24.5766 186.088 24.9125 186.194 25.2402C186.284 25.5449 186.403 25.8408 186.549 26.1239C186.827 26.675 187.213 27.1675 187.686 27.5733C188.144 27.9916 188.687 28.3119 189.28 28.5136C189.938 28.7483 190.636 28.861 191.337 28.8459C192.362 28.8546 193.378 28.6573 194.321 28.2662C194.875 28.0359 195.449 27.8584 196.038 27.7359C196.48 27.6401 196.934 27.6115 197.385 27.6511C197.76 27.6876 198.125 27.7881 198.464 27.948C198.795 28.1155 199.1 28.3273 199.37 28.5773L200 29.2277ZM186.505 18.4741C186.395 18.7563 186.301 19.0443 186.223 19.3367C186.141 19.6554 186.081 19.9789 186.042 20.3053H194.241V19.8316C194.227 19.2906 194.142 18.7537 193.988 18.2337C193.827 17.7704 193.582 17.3392 193.264 16.9611C192.933 16.5947 192.515 16.313 192.047 16.141C191.79 16.0232 191.516 15.9423 191.235 15.9006C190.926 15.8549 190.614 15.8313 190.301 15.8299C189.715 15.8136 189.133 15.9272 188.599 16.1622C188.364 16.2654 188.142 16.396 187.94 16.5511C187.731 16.7035 187.537 16.8738 187.36 17.0601C186.998 17.4799 186.713 17.9585 186.52 18.4741" fill="#5FB46E"/>
<path d="M23.7438 5.20358C23.5627 5.40154 23.3816 5.51466 23.1498 5.33791C22.918 5.16116 22.9542 5.09046 22.7514 5.09753C22.7079 5.09753 22.6572 4.95612 22.592 4.85714C22.4728 4.85526 22.358 4.81241 22.268 4.73612C22.1779 4.65982 22.1182 4.55498 22.0995 4.44001C22.0995 4.38345 21.9619 4.33396 21.8822 4.29861C21.8025 4.26326 21.7301 4.18549 21.7301 4.05115C21.7365 4.02785 21.7377 4.00349 21.7337 3.97968C21.7297 3.95588 21.7205 3.93319 21.7068 3.91311C21.6931 3.89304 21.6752 3.87605 21.6542 3.86328C21.6332 3.85051 21.6097 3.84225 21.5852 3.83905C21.5362 3.83117 21.4907 3.80899 21.4548 3.77542C21.4114 3.77542 21.3534 3.68351 21.3534 3.63402C21.3534 3.58453 21.4331 3.55625 21.4838 3.5209L21.6214 3.45727H21.5852C21.2085 3.45727 21.1868 3.45727 21.0492 3.20274C21.0207 3.14725 20.981 3.09796 20.9324 3.05786C20.8839 3.01776 20.8275 2.98768 20.7667 2.96943C20.7087 2.96943 20.6291 2.88459 20.6291 2.84924C20.6381 2.77214 20.6769 2.70131 20.7377 2.65128C20.8197 2.58244 20.9097 2.52312 21.0057 2.47453C20.9483 2.38499 20.8638 2.31511 20.7638 2.27458C20.6639 2.23404 20.5535 2.22485 20.448 2.24828C20.1164 2.28847 19.7825 2.30736 19.4484 2.30485C19.2166 2.30485 18.9775 2.30485 18.724 2.30485C18.6074 2.30722 18.4918 2.28436 18.3853 2.23791C18.2789 2.19146 18.1843 2.12256 18.1083 2.03618L19.8105 1.74631V1.68975L18.9196 1.61905C18.7693 1.6229 18.6198 1.59666 18.4802 1.54194C18.3407 1.48722 18.2141 1.40519 18.1083 1.30089L17.9707 1.12414L20.0206 1.16656C19.7019 1.11707 19.3904 1.06051 19.0645 1.02516C18.8735 1.00401 18.6894 0.943231 18.5245 0.846896C18.3596 0.750561 18.2177 0.620902 18.1083 0.466625L19.6439 0.664587L18.7458 0.120191C18.744 0.0966554 18.744 0.0730264 18.7458 0.0494905C19.5857 0.175394 20.4158 0.357284 21.2303 0.593886C20.883 0.499459 20.5806 0.289341 20.3755 0L20.7305 0.0777708C21.6494 0.366232 22.5452 0.720705 23.4106 1.13828C23.6462 1.23809 23.8882 1.3231 24.1349 1.39281C24.4465 1.53659 24.6919 1.78871 24.823 2.09981C25.0428 2.4534 25.2847 2.7934 25.5474 3.1179C25.7285 3.34415 25.8371 3.33708 26.0907 3.1886C26.307 3.06472 26.5321 2.95603 26.7643 2.86338C26.9227 2.84109 27.0824 2.82928 27.2424 2.82803C27.3974 2.79639 27.5499 2.75386 27.6987 2.70077C27.7922 2.66465 27.8957 2.66186 27.9911 2.6929C28.0865 2.72393 28.1676 2.7868 28.2202 2.87045C28.1278 2.95584 28.0285 3.03386 27.9233 3.10376C27.5733 3.33455 27.2891 3.64839 27.0975 4.0158C27.0701 4.05973 27.0524 4.10878 27.0456 4.1598C27.0388 4.21081 27.043 4.26265 27.058 4.31196C27.0731 4.36128 27.0985 4.40696 27.1328 4.44607C27.167 4.48518 27.2093 4.51683 27.2569 4.53899C27.6042 4.69936 27.9624 4.83637 28.3289 4.94905C28.7431 5.03524 29.117 5.25125 29.3937 5.56415C29.5241 5.7409 29.6472 5.91765 29.7703 6.10148C30.3988 6.88828 30.938 7.73931 31.3784 8.63963C31.3784 8.69619 31.4219 8.75276 31.4581 8.83053C31.1683 8.83053 31.1466 8.54772 30.9148 8.45581C31.1756 9.07091 31.4291 9.65773 31.7044 10.294C31.2625 10.2516 31.2118 9.89104 30.98 9.65065C31.1321 10.089 31.2697 10.4779 31.4074 10.8879C31.3294 10.9165 31.2431 10.9148 31.1663 10.8833C31.0896 10.8517 31.0281 10.7927 30.9945 10.7182C30.8496 10.4072 30.7192 10.089 30.5744 9.77792C30.53 9.66093 30.4637 9.55303 30.3788 9.45976L30.7482 11.1778C30.6376 11.1909 30.5259 11.1635 30.4349 11.1008C30.3439 11.0381 30.28 10.9446 30.2557 10.8384C30.1325 10.5273 30.0456 10.2021 29.9369 9.88397C29.9264 9.83347 29.9118 9.78383 29.8935 9.7355C29.8935 10.2658 29.8935 10.7748 29.8573 11.2768C29.5748 11.1566 29.5096 11.0293 29.3937 10.3647C29.3502 10.4849 29.3212 10.5698 29.2923 10.6617C29.152 10.586 29.0347 10.4755 28.952 10.3415C28.8694 10.2074 28.8243 10.0545 28.8214 9.89811C28.8214 9.58702 28.8214 9.27594 28.8214 8.94365L28.5969 9.16989L28.2492 8.80932C28.1478 8.70327 28.0609 8.56893 27.8653 8.67498C27.8146 8.67498 27.706 8.63256 27.6263 8.60428C27.5466 8.576 27.5249 8.48409 27.4524 8.48409C27.112 8.48409 27.0758 8.42753 26.9164 8.11645C26.6774 8.24371 26.576 8.11645 26.4311 7.91849C26.2533 7.76502 26.0561 7.63435 25.8444 7.52963C25.7911 7.50318 25.7403 7.47244 25.6923 7.43772L25.2794 7.07008C25.3591 6.89333 25.1925 6.86505 25.0476 6.80848C24.9027 6.75192 24.8013 6.86505 24.7579 6.96403C24.642 7.2539 24.555 7.55791 24.4391 7.84779C24.3058 8.19023 24.1485 8.52331 23.9683 8.84467C23.9376 8.898 23.895 8.94395 23.8437 8.97914C23.7925 9.01433 23.7338 9.03787 23.6719 9.04804C23.6101 9.05821 23.5468 9.05475 23.4865 9.03791C23.4262 9.02107 23.3706 8.99127 23.3236 8.95072C23.0843 8.99491 22.8386 8.99491 22.5993 8.95072C22.3603 8.82054 22.141 8.65876 21.9474 8.46995C21.9151 8.15353 21.7976 7.85107 21.6069 7.59326C21.6069 7.59326 21.6504 7.43065 21.7083 7.38823C22.0271 7.14785 22.3458 6.90746 22.679 6.68122C23.0122 6.45498 23.1788 6.36307 23.454 6.15804C23.6125 6.06008 23.7291 5.90938 23.7824 5.73388C23.8357 5.55837 23.8219 5.36996 23.7438 5.20358Z" fill="#5FB46E"/>
<path d="M84.938 3.58449V23.0696C84.9569 24.6164 84.6461 26.15 84.0253 27.5733C83.4851 28.8226 82.666 29.9385 81.6277 30.8396C81.1047 31.2783 80.5395 31.6666 79.94 31.9991C79.3041 32.3411 78.6373 32.6251 77.948 32.8475C77.2211 33.0688 76.4776 33.2343 75.7243 33.3424C74.9227 33.4515 74.1143 33.5059 73.305 33.5051C71.725 33.5154 70.1525 33.2938 68.6401 32.8475C67.3099 32.4161 66.0793 31.7339 65.0184 30.8396C64.5025 30.4034 64.0407 29.9099 63.6421 29.3691C63.2299 28.8109 62.8847 28.2084 62.6136 27.5733C62.0188 26.1414 61.7256 24.6074 61.7516 23.0625V3.58449H62.5339C63.2631 3.58059 63.9854 3.72255 64.6562 4.00162C65.3033 4.27449 65.8909 4.66566 66.3874 5.15404C66.8857 5.63738 67.2819 6.21148 67.5536 6.84379C67.8357 7.49204 67.9787 8.18984 67.9737 8.89411V23.0696C67.9737 25.0163 68.4566 26.4303 69.4224 27.3117C70.5464 28.1729 71.934 28.641 73.3629 28.641C74.7918 28.641 76.1794 28.1729 77.3034 27.3117C78.2209 26.435 78.682 25.021 78.6869 23.0696V8.89411C78.6833 8.18854 78.8314 7.49008 79.1215 6.84379C79.3958 6.21285 79.7917 5.63921 80.2877 5.15404C80.7858 4.65287 81.3828 4.2554 82.0426 3.98564C82.7024 3.71588 83.4114 3.57941 84.1267 3.58449H84.938Z" fill="#5FB46E"/>
</g>
<defs>
<clipPath id="clip0">
<rect width="200" height="34" fill="white"/>
</clipPath>
</defs>
</svg>
