<svg width="24" height="24" viewBox="0 0 24 24" fill="none" xmlns="http://www.w3.org/2000/svg">
<g clip-path="url(#clip0)">
<path d="M11.9999 11.7376C14.6682 11.7376 16.8316 9.11006 16.8316 5.86882C16.8316 2.62752 16.1213 0 11.9999 0C7.87837 0 7.16797 2.62752 7.16797 5.86882C7.16797 9.11006 9.33133 11.7376 11.9999 11.7376Z" fill="#5FB46E"/>
<path d="M2.87351 20.6985C2.87269 20.5009 2.87186 20.6428 2.87351 20.6985V20.6985Z" fill="#5FB46E"/>
<path d="M21.1255 20.8529C21.1281 20.7987 21.1264 20.4775 21.1255 20.8529V20.8529Z" fill="#5FB46E"/>
<path d="M21.1154 20.4616C21.0259 14.8153 20.2885 13.2064 14.6455 12.188C14.6455 12.188 13.8512 13.2002 11.9998 13.2002C10.1483 13.2002 9.35388 12.188 9.35388 12.188C3.77251 13.1953 2.99024 14.7803 2.88739 20.2782C2.87895 20.7271 2.87504 20.7507 2.87354 20.6986C2.87388 20.7962 2.87429 20.9769 2.87429 21.2918C2.87429 21.2918 4.21774 24.0001 11.9998 24.0001C19.7817 24.0001 21.1253 21.2918 21.1253 21.2918C21.1253 21.0895 21.1254 20.9487 21.1256 20.853C21.1241 20.8852 21.1211 20.8228 21.1154 20.4616Z" fill="#5FB46E"/>
</g>
<defs>
<clipPath id="clip0">
<rect width="24" height="24" fill="white"/>
</clipPath>
</defs>
</svg>
