<svg width="18" height="18" viewBox="0 0 18 18" fill="none" xmlns="http://www.w3.org/2000/svg">
<path d="M9.00013 8.80318C11.0014 8.80318 12.6239 6.83254 12.6239 4.40162C12.6239 1.97064 12.0912 0 9.00013 0C5.90902 0 5.37622 1.97064 5.37622 4.40162C5.37622 6.83254 6.99874 8.80318 9.00013 8.80318Z" fill="white"/>
<path d="M2.1555 15.5237C2.15488 15.3755 2.15426 15.4819 2.1555 15.5237V15.5237Z" fill="white"/>
<path d="M15.8445 15.6398C15.8464 15.5992 15.8452 15.3582 15.8445 15.6398V15.6398Z" fill="white"/>
<path d="M15.8369 15.3461C15.7698 11.1114 15.2167 9.90469 10.9845 9.14087C10.9845 9.14087 10.3888 9.90001 9.0002 9.90001C7.61163 9.90001 7.01577 9.14087 7.01577 9.14087C2.82975 9.89635 2.24305 11.0851 2.16591 15.2085C2.15958 15.5452 2.15665 15.5629 2.15552 15.5238C2.15577 15.5971 2.15608 15.7325 2.15608 15.9687C2.15608 15.9687 3.16367 18 9.0002 18C14.8366 18 15.8443 15.9687 15.8443 15.9687C15.8443 15.817 15.8444 15.7114 15.8446 15.6396C15.8434 15.6638 15.8412 15.617 15.8369 15.3461Z" fill="white"/>
</svg>
