<svg width="50" height="50" viewBox="0 0 50 50" fill="none" xmlns="http://www.w3.org/2000/svg">
<rect x="50" y="50" width="50" height="50" rx="25" transform="rotate(180 50 50)" fill="#8BC958"/>
<path d="M24.9064 26.0095C24.9332 26.0095 24.9599 26.0095 24.9921 26.0095C25.0028 26.0095 25.0135 26.0095 25.0242 26.0095C25.0403 26.0095 25.0617 26.0095 25.0778 26.0095C26.6471 25.9826 27.9165 25.428 28.8537 24.3674C30.9158 22.0306 30.573 18.0249 30.5355 17.6426C30.4016 14.7728 29.0519 13.3999 27.9379 12.7592C27.1077 12.28 26.1383 12.0215 25.0564 12H25.0189C25.0135 12 25.0028 12 24.9974 12H24.9653C24.3708 12 23.2032 12.0969 22.0838 12.7376C20.959 13.3783 19.5879 14.7513 19.454 17.6426C19.4165 18.0249 19.0737 22.0306 21.1358 24.3674C22.0677 25.428 23.3371 25.9826 24.9064 26.0095ZM20.884 17.7772C20.884 17.761 20.8894 17.7449 20.8894 17.7341C21.0661 13.8737 23.7923 13.4591 24.9599 13.4591H24.9814C24.9921 13.4591 25.0081 13.4591 25.0242 13.4591C26.4703 13.4914 28.9287 14.0837 29.0948 17.7341C29.0948 17.7503 29.0948 17.7664 29.1001 17.7772C29.1055 17.8149 29.4804 21.4761 27.7772 23.4036C27.1023 24.1682 26.2025 24.545 25.0189 24.5558C25.0081 24.5558 25.0028 24.5558 24.9921 24.5558C24.9814 24.5558 24.976 24.5558 24.9653 24.5558C23.787 24.545 22.8818 24.1682 22.2123 23.4036C20.5145 21.4869 20.8787 17.8095 20.884 17.7772Z" fill="white"/>
<path d="M35.9985 32.6535C35.9985 32.6481 35.9985 32.6427 35.9985 32.6374C35.9985 32.5943 35.9931 32.5512 35.9931 32.5027C35.961 31.4367 35.8914 28.9438 33.5669 28.147C33.5508 28.1416 33.5294 28.1362 33.5133 28.1308C31.0978 27.5116 29.0893 26.1118 29.0679 26.0956C28.7411 25.8641 28.2912 25.9449 28.0609 26.2733C27.8306 26.6017 27.911 27.054 28.2377 27.2855C28.3287 27.3501 30.4604 28.8415 33.1277 29.5307C34.3756 29.9776 34.5149 31.3182 34.5524 32.5458C34.5524 32.5943 34.5524 32.6374 34.5577 32.6804C34.5631 33.165 34.531 33.9134 34.4453 34.3441C33.5776 34.8395 30.1765 36.5516 25.0027 36.5516C19.8502 36.5516 16.4277 34.8341 15.5547 34.3387C15.469 33.908 15.4315 33.1596 15.4422 32.675C15.4422 32.632 15.4476 32.5889 15.4476 32.5404C15.4851 31.3129 15.6243 29.9722 16.8723 29.5253C19.5395 28.8361 21.6712 27.3394 21.7623 27.2801C22.089 27.0486 22.1693 26.5963 21.939 26.2679C21.7087 25.9395 21.2588 25.8587 20.9321 26.0902C20.9107 26.1064 18.9129 27.5063 16.4866 28.1254C16.4652 28.1308 16.4491 28.1362 16.4331 28.1416C14.1086 28.9438 14.0389 31.4367 14.0068 32.4974C14.0068 32.5458 14.0068 32.5889 14.0015 32.632C14.0015 32.6374 14.0015 32.6427 14.0015 32.6481C13.9961 32.9281 13.9907 34.3657 14.2746 35.0871C14.3282 35.2271 14.4246 35.3456 14.5531 35.4263C14.7138 35.534 18.5648 38 25.008 38C31.4513 38 35.3022 35.5286 35.4629 35.4263C35.5861 35.3456 35.6879 35.2271 35.7414 35.0871C36.0092 34.371 36.0039 32.9335 35.9985 32.6535Z" fill="white"/>
</svg>
