<svg id="Слой_1" data-name="Слой 1" xmlns="http://www.w3.org/2000/svg" width="168" height="74" viewBox="0 0 168 74"><defs><style>.cls-1{fill:#2a3592;}</style></defs><title>new logo</title><path class="cls-1" d="M158.61,1.48a7.81,7.81,0,0,1,7.84,7.77v55.5a7.81,7.81,0,0,1-7.84,7.77H9.28a7.82,7.82,0,0,1-7.84-7.77V9.25A7.82,7.82,0,0,1,9.28,1.48H158.61m0-1.48H9.28A9.29,9.29,0,0,0,0,9.25v55.5A9.29,9.29,0,0,0,9.28,74H158.61A9.29,9.29,0,0,0,168,64.75V9.25A9.29,9.29,0,0,0,158.61,0Z" transform="translate(0.05)"/><path class="cls-1" d="M84,22.68c.39,0,.55.14.55.53V31.9h.82c.39,0,.53.14.53.52v3.14c0,.39-.14.53-.53.53h-.87c-.39,0-.53-.14-.53-.53V33.71H76.83v1.85c0,.39-.15.53-.54.53h-.84c-.4,0-.54-.14-.54-.53V32.42c0-.38.14-.52.54-.52h.36a2.65,2.65,0,0,0,1-1.39,12.77,12.77,0,0,0,.47-4.08V23.21c0-.39.14-.53.53-.53ZM79.15,24.5v1.91c0,2.56-.35,4.4-1.05,5.49h4.5V24.5Z" transform="translate(0.05)"/><path class="cls-1" d="M88.71,26.5c0-2.53,1.62-4.05,4.49-4.05S97.66,24,97.66,26.5v3.39C97.66,32.42,96,34,93.2,34s-4.49-1.53-4.49-4.06Zm7,0c0-1.43-.89-2.22-2.5-2.22s-2.51.77-2.51,2.22v3.42c0,1.44.89,2.22,2.51,2.22s2.5-.79,2.5-2.22Z" transform="translate(0.05)"/><path class="cls-1" d="M111.32,22.68c.39,0,.53.14.53.53v10c0,.38-.14.52-.53.52h-.8c-.39,0-.53-.14-.53-.52V28.45a14.47,14.47,0,0,1,.37-3.1h-.1A17.11,17.11,0,0,1,109,28.2l-1.54,2.69a.71.71,0,0,1-.61.37h-.5a.55.55,0,0,1-.61-.37l-1.57-2.71a12.49,12.49,0,0,1-1.21-2.83h-.11a15.31,15.31,0,0,1,.33,3.11v4.73c0,.38-.14.52-.53.52h-.75c-.4,0-.55-.14-.55-.52v-10c0-.39.15-.53.55-.53h.69c.44,0,.58.08.75.4l3.26,5.79,3.26-5.77c.19-.36.3-.42.72-.42Z" transform="translate(0.05)"/><path class="cls-1" d="M115.52,26.5c0-2.53,1.62-4.05,4.49-4.05s4.47,1.52,4.47,4.05v3.39c0,2.53-1.63,4.06-4.47,4.06s-4.49-1.53-4.49-4.06Zm7,0c0-1.43-.9-2.22-2.51-2.22s-2.51.77-2.51,2.22v3.42c0,1.44.89,2.22,2.51,2.22s2.51-.79,2.51-2.22Z" transform="translate(0.05)"/><path class="cls-1" d="M133,22.68c2,0,3.22,1,3.22,2.91a2.48,2.48,0,0,1-1.2,2.34V28a2.5,2.5,0,0,1,1.6,2.68c0,1.92-1.41,3-3.52,3h-4.44c-.39,0-.55-.14-.55-.52v-10c0-.39.16-.53.55-.53Zm-.23,4.55c1,0,1.44-.45,1.44-1.36s-.49-1.37-1.44-1.37h-2.68v2.73Zm.28,1.78h-3V31.9h3a1.3,1.3,0,0,0,1.49-1.43A1.3,1.3,0,0,0,133.07,29Z" transform="translate(0.05)"/><path class="cls-1" d="M149.16,33.2q.18.51-.36.51H148c-.64,0-.85-.09-1-.46l-.72-2H142l-.74,2c-.12.37-.33.46-1,.46h-.72c-.36,0-.49-.17-.36-.51l3.92-10.1c.14-.36.28-.43.66-.43h.83a.58.58,0,0,1,.66.41Zm-4.61-6.84a8.91,8.91,0,0,1-.36-1.63l0-.26h-.11a5.76,5.76,0,0,1-.34,1.88l-1.21,3.29h3.23Z" transform="translate(0.05)"/><path class="cls-1" d="M75.38,43.14c0-2.5,1.62-4,4.49-4,2.22,0,3.65.87,4.26,2.59a.47.47,0,0,1-.33.69l-.86.29c-.38.13-.53,0-.67-.32a2.27,2.27,0,0,0-2.4-1.43c-1.62,0-2.51.77-2.51,2.2v3.44c0,1.43.89,2.22,2.51,2.22a2.27,2.27,0,0,0,2.4-1.45c.17-.38.31-.46.69-.32l.84.29a.49.49,0,0,1,.35.69q-.91,2.61-4.28,2.61c-2.87,0-4.49-1.53-4.49-4.06Z" transform="translate(0.05)"/><path class="cls-1" d="M95.75,39.33c.39,0,.53.14.53.53v10c0,.38-.14.52-.53.52h-.91c-.39,0-.53-.14-.53-.52V41.15H91v2a15.83,15.83,0,0,1-.59,4.75,4.22,4.22,0,0,1-.68,1.28A3.93,3.93,0,0,1,88,50.5c-.36.18-.56.11-.7-.24l-.41-.78a.47.47,0,0,1,.25-.72,2.07,2.07,0,0,0,1-.84,2.91,2.91,0,0,0,.47-.93,14.58,14.58,0,0,0,.41-3.82V39.86c0-.39.15-.53.54-.53Z" transform="translate(0.05)"/><path class="cls-1" d="M108.48,39.33c.33,0,.41.17.27.53l-4.67,10c-.18.39-.32.46-.88.46h-1.07c-.36,0-.44-.17-.26-.52l1.36-2.71-3.79-7.27c-.19-.36-.1-.53.26-.53h.93c.7,0,.73,0,1,.47L104.25,45l2.37-5.16c.19-.44.28-.47.95-.47Z" transform="translate(0.05)"/><path class="cls-1" d="M124.62,39.33c.37,0,.47.25.26.51l-3.13,4.63A4.08,4.08,0,0,1,123.08,46l2,3.8c.19.29.11.52-.27.52h-.91c-.67,0-.88-.09-1.07-.46l-1.56-3.16a1.69,1.69,0,0,0-1.88-1.08H119v4.18c0,.38-.14.52-.54.52h-.89c-.39,0-.53-.14-.53-.52V45.66h-.41a1.69,1.69,0,0,0-1.88,1.08l-1.57,3.16c-.19.37-.39.46-1.07.46h-.91c-.37,0-.45-.23-.26-.52l2-3.8a3.74,3.74,0,0,1,1.32-1.57l-3.14-4.63c-.19-.26-.09-.51.27-.51h1c.64,0,.82.06,1.07.44l2.65,4.13a4,4,0,0,1,.53,0H117v-4c0-.39.14-.53.53-.53h.89c.4,0,.54.14.54.53v4h.41a3.72,3.72,0,0,1,.53,0l2.65-4.13c.25-.38.41-.44,1.08-.44Z" transform="translate(0.05)"/><path class="cls-1" d="M135.37,39.33c.4,0,.54.14.54.53v.76c0,.39-.14.53-.54.53h-5.12v2.47h3a3.37,3.37,0,1,1,0,6.74H128.8c-.37,0-.53-.12-.53-.49v-10c0-.39.16-.53.55-.53ZM134.62,47a1.52,1.52,0,0,0-.42-1.13,1.61,1.61,0,0,0-1.18-.42h-2.77v3.11H133a1.61,1.61,0,0,0,1.18-.42A1.54,1.54,0,0,0,134.62,47Z" transform="translate(0.05)"/><path class="cls-1" d="M149.16,49.85q.18.51-.36.51H148c-.64,0-.85-.09-1-.46l-.72-2H142l-.74,2c-.12.37-.33.46-1,.46h-.72c-.36,0-.49-.17-.36-.51l3.92-10.1c.14-.36.28-.43.66-.43h.83a.58.58,0,0,1,.66.41ZM144.55,43a8.91,8.91,0,0,1-.36-1.63l0-.26h-.11a5.76,5.76,0,0,1-.34,1.88l-1.21,3.29h3.23Z" transform="translate(0.05)"/><path class="cls-1" d="M51.28,32.72a.75.75,0,0,1-.75-.74V21.72H47.14v2.11a.75.75,0,0,1-1.49,0V20.24H52V32A.75.75,0,0,1,51.28,32.72Z" transform="translate(0.05)"/><path class="cls-1" d="M52,56.24H22.53V40.86a.75.75,0,0,1,1.5,0v13.9h26.5V40.86a.75.75,0,0,1,1.5,0Z" transform="translate(0.05)"/><path class="cls-1" d="M50.71,41.49a3.52,3.52,0,0,1-2.45-1L36.76,29.36a.73.73,0,0,1,0-1.05.74.74,0,0,1,1,0L49.3,39.45a2,2,0,0,0,2.82,0L55,36.7,37.28,19.51,19.61,36.7l2.83,2.75a2,2,0,0,0,2.82,0l5.41-5.24a.74.74,0,0,1,1,0,.72.72,0,0,1,0,1l-5.4,5.25a3.56,3.56,0,0,1-4.91,0L18,37.23a.75.75,0,0,1-.22-.53.73.73,0,0,1,.22-.52L36.73,18a.72.72,0,0,1,.55-.21.76.76,0,0,1,.55.21L56.54,36.18a.7.7,0,0,1,.23.52.76.76,0,0,1-.23.53l-3.38,3.28A3.52,3.52,0,0,1,50.71,41.49Z" transform="translate(0.05)"/><path class="cls-1" d="M46.61,56.1a.74.74,0,0,1-.74-.74V44.51h-5V52.4a.75.75,0,0,1-1.5,0V43h8V55.36A.75.75,0,0,1,46.61,56.1Z" transform="translate(0.05)"/><path class="cls-1" d="M34.88,51h-8V43h8Zm-6.54-1.48h5v-5h-5Z" transform="translate(0.05)"/></svg>