<svg width="35" height="35" viewBox="0 0 35 35" fill="none" xmlns="http://www.w3.org/2000/svg">
<g clip-path="url(#clip0)">
<path d="M34.0816 27.0007L26.9975 22.2764C26.0985 21.6817 24.8934 21.8773 24.2288 22.726L22.1652 25.3792C21.9 25.7289 21.418 25.8303 21.0343 25.6172L20.6418 25.4008C19.3406 24.6916 17.7215 23.8086 14.4594 20.5453C11.1973 17.282 10.3125 15.6617 9.60325 14.3629L9.38802 13.9704C9.17197 13.5868 9.27148 13.1027 9.6213 12.8354L12.2727 10.7724C13.1211 10.1077 13.317 8.90302 12.723 8.00375L7.99868 0.919626C7.3899 0.00388306 6.1685 -0.271018 5.22603 0.295529L2.26371 2.075C1.33292 2.62221 0.650048 3.50842 0.358265 4.54795C-0.708462 8.43469 0.0940261 15.1426 9.97541 25.0252C17.8358 32.885 23.6876 34.9987 27.7097 34.9987C28.6353 35.0027 29.5573 34.8822 30.4509 34.6406C31.4907 34.3492 32.377 33.6662 32.9239 32.7352L34.7051 29.7746C35.2725 28.8319 34.9977 27.6098 34.0816 27.0007ZM33.7001 29.1762L31.923 32.1385C31.5303 32.8105 30.8928 33.3046 30.144 33.5173C26.5559 34.5024 20.2872 33.6865 10.8007 24.1999C1.31413 14.7134 0.498244 8.44522 1.48336 4.85654C1.69634 4.10689 2.19105 3.46857 2.86388 3.07529L5.8262 1.29814C6.23514 1.05209 6.76525 1.17136 7.02942 1.56874L9.59573 5.42165L11.7497 8.65225C12.0076 9.04232 11.9229 9.56512 11.5549 9.85376L8.90288 11.9167C8.09581 12.5338 7.86534 13.6504 8.36223 14.5366L8.57282 14.9193C9.31824 16.2864 10.245 17.9871 13.6284 21.37C17.0118 24.7528 18.712 25.6796 20.0785 26.425L20.4617 26.6361C21.3478 27.1329 22.4645 26.9025 23.0817 26.0955L25.1446 23.4434C25.4333 23.0756 25.9559 22.991 26.3461 23.2486L33.4296 27.9729C33.8273 28.2369 33.9465 28.7673 33.7001 29.1762Z" fill="#0E9CB2"/>
<path d="M19.8322 5.83637C25.3057 5.84245 29.7413 10.2781 29.7475 15.7516C29.7475 16.0737 30.0086 16.3348 30.3307 16.3348C30.6528 16.3348 30.9139 16.0737 30.9139 15.7516C30.9071 9.63413 25.9497 4.67662 19.8322 4.66992C19.5101 4.66992 19.249 4.93102 19.249 5.25315C19.249 5.57528 19.5101 5.83637 19.8322 5.83637Z" fill="#0E9CB2"/>
<path d="M19.8322 9.33582C23.3738 9.33999 26.2438 12.21 26.248 15.7516C26.248 16.0737 26.5091 16.3348 26.8312 16.3348C27.1533 16.3348 27.4144 16.0737 27.4144 15.7516C27.4096 11.566 24.0178 8.17416 19.8322 8.16937C19.5101 8.16937 19.249 8.43047 19.249 8.7526C19.249 9.07473 19.5101 9.33582 19.8322 9.33582Z" fill="#0E9CB2"/>
<path d="M19.8322 12.8353C21.442 12.8372 22.7465 14.1418 22.7485 15.7516C22.7485 16.0737 23.0097 16.3348 23.3317 16.3348C23.6538 16.3348 23.915 16.0737 23.915 15.7516C23.9124 13.4978 22.086 11.6714 19.8322 11.6689C19.5101 11.6689 19.249 11.93 19.249 12.2521C19.249 12.5742 19.5101 12.8353 19.8322 12.8353Z" fill="#0E9CB2"/>
</g>
<defs>
<clipPath id="clip0">
<rect width="35" height="35" fill="white"/>
</clipPath>
</defs>
</svg>
