<svg width="35" height="35" viewBox="0 0 35 35" fill="none" xmlns="http://www.w3.org/2000/svg">
<path d="M34.3194 27.8306L30.4393 25.2437L26.99 22.9446C26.3243 22.5017 25.4297 22.6469 24.9383 23.2777L22.8039 26.0215C22.3454 26.6169 21.5207 26.788 20.8632 26.424C19.415 25.6184 17.7024 24.8599 13.9237 21.0763C10.1449 17.2927 9.38157 15.585 8.57596 14.1368C8.21195 13.4793 8.38305 12.6545 8.97846 12.1961L11.7223 10.0618C12.353 9.5704 12.4983 8.6758 12.0554 8.01005L9.82692 4.66698L7.16935 0.680579C6.71702 0.00205217 5.81154 -0.201656 5.11223 0.217723L2.04731 2.05643C1.21901 2.54444 0.610135 3.33248 0.346818 4.25717C-0.491326 7.313 -0.660309 14.054 10.1431 24.8574C20.9465 35.6608 27.6869 35.4913 30.7427 34.6531C31.6674 34.3898 32.4555 33.781 32.9435 32.9526L34.7822 29.8877C35.2016 29.1884 34.9979 28.2829 34.3194 27.8306Z" fill="#0D49B2"/>
<path d="M19.913 5.43087C25.5759 5.43716 30.1652 10.0263 30.1715 15.6894C30.1715 16.0226 30.4416 16.2928 30.7749 16.2928C31.1082 16.2928 31.3784 16.0227 31.3784 15.6894C31.3714 9.36012 26.2423 4.23097 19.913 4.224C19.5798 4.224 19.3096 4.49415 19.3096 4.82747C19.3095 5.16065 19.5797 5.43087 19.913 5.43087Z" fill="#0D49B2"/>
<path d="M19.913 9.05148C23.5773 9.05579 26.5466 12.0252 26.5509 15.6893C26.5509 16.0226 26.821 16.2928 27.1543 16.2928C27.4876 16.2928 27.7578 16.0226 27.7578 15.6893C27.7528 11.3589 24.2436 7.84953 19.913 7.84454C19.5798 7.84454 19.3096 8.1147 19.3096 8.44801C19.3096 8.78133 19.5797 9.05148 19.913 9.05148Z" fill="#0D49B2"/>
<path d="M19.913 12.6722C21.5785 12.6742 22.9282 14.0239 22.9302 15.6894C22.9302 16.0227 23.2003 16.2929 23.5337 16.2929C23.8669 16.2929 24.1371 16.0227 24.1371 15.6894C24.1345 13.3576 22.2448 11.468 19.913 11.4653C19.5798 11.4653 19.3096 11.7355 19.3096 12.0688C19.3095 12.402 19.5797 12.6722 19.913 12.6722Z" fill="#0D49B2"/>
</svg>
