<svg width="35" height="35" viewBox="0 0 35 35" fill="none" xmlns="http://www.w3.org/2000/svg">
<g clip-path="url(#clip0)">
<path d="M34.3199 27.8306L30.4398 25.2437L26.9905 22.9446C26.3248 22.5017 25.4302 22.6469 24.9388 23.2777L22.8044 26.0215C22.3459 26.6169 21.5212 26.788 20.8637 26.424C19.4155 25.6184 17.7029 24.8599 13.9241 21.0763C10.1454 17.2927 9.38205 15.585 8.57645 14.1368C8.21244 13.4793 8.38354 12.6545 8.97894 12.1961L11.7228 10.0618C12.3535 9.5704 12.4988 8.6758 12.0559 8.01005L9.82741 4.66698L7.16983 0.680579C6.71751 0.00205217 5.81203 -0.201656 5.11272 0.217723L2.04779 2.05643C1.21949 2.54444 0.610624 3.33248 0.347306 4.25717C-0.490838 7.313 -0.65982 14.054 10.1436 24.8574C20.947 35.6608 27.6874 35.4913 30.7432 34.6531C31.6679 34.3898 32.4559 33.781 32.944 32.9526L34.7827 29.8877C35.2021 29.1884 34.9984 28.2829 34.3199 27.8306Z" fill="#0E9CB2"/>
<path d="M19.9135 5.43087C25.5764 5.43716 30.1657 10.0263 30.172 15.6894C30.172 16.0226 30.4421 16.2928 30.7754 16.2928C31.1087 16.2928 31.3789 16.0227 31.3789 15.6894C31.3719 9.36012 26.2428 4.23097 19.9135 4.224C19.5803 4.224 19.3101 4.49415 19.3101 4.82747C19.31 5.16065 19.5801 5.43087 19.9135 5.43087Z" fill="#0E9CB2"/>
<path d="M19.9135 9.05148C23.5778 9.05579 26.547 12.0252 26.5514 15.6893C26.5514 16.0226 26.8215 16.2928 27.1548 16.2928C27.4881 16.2928 27.7583 16.0226 27.7583 15.6893C27.7533 11.3589 24.244 7.84953 19.9135 7.84454C19.5803 7.84454 19.3101 8.1147 19.3101 8.44801C19.3101 8.78133 19.5802 9.05148 19.9135 9.05148Z" fill="#0E9CB2"/>
<path d="M19.9135 12.6722C21.579 12.6742 22.9287 14.0239 22.9307 15.6894C22.9307 16.0227 23.2008 16.2929 23.5341 16.2929C23.8674 16.2929 24.1376 16.0227 24.1376 15.6894C24.1349 13.3576 22.2453 11.468 19.9135 11.4653C19.5803 11.4653 19.3101 11.7355 19.3101 12.0688C19.31 12.402 19.5801 12.6722 19.9135 12.6722Z" fill="#0E9CB2"/>
</g>
<defs>
<clipPath id="clip0">
<rect width="35" height="35" fill="white"/>
</clipPath>
</defs>
</svg>
