<?xml version="1.0" encoding="utf-8"?>
<!-- Generator: Adobe Illustrator 22.1.0, SVG Export Plug-In . SVG Version: 6.00 Build 0)  -->
<svg version="1.1" id="Capa_1" xmlns="http://www.w3.org/2000/svg" xmlns:xlink="http://www.w3.org/1999/xlink" x="0px" y="0px"
	 viewBox="0 0 60 60" style="enable-background:new 0 0 60 60;" xml:space="preserve">
<style type="text/css">
	.st0{fill:#0D49B2;}
</style>
<g>
	<path class="st0" d="M8.8,38.9c0,0.3-0.1,0.5-0.3,0.7C8.1,40,7.4,40,7,39.6l-0.1-0.1c-0.2-0.2-0.3-0.5-0.3-0.7
		c0-0.3,0.1-0.5,0.3-0.7c0.2-0.2,0.5-0.3,0.7-0.3c0.3,0,0.6,0.1,0.7,0.3l0.1,0.1C8.7,38.3,8.8,38.6,8.8,38.9z"/>
</g>
<g>
	<path class="st0" d="M58.5,51.9l-16-16l0.1-0.1c5.9-9.1,4.7-21.3-3-28.9c-9-9-23.7-9-32.7,0c-3.7,3.7-6.1,8.7-6.6,13.9
		C-0.3,26,0.9,31.2,3.7,35.6C3.9,35.8,4.1,36,4.4,36c0.3,0.1,0.6,0,0.8-0.1c0.2-0.2,0.4-0.4,0.5-0.7s0-0.6-0.1-0.8
		c-5.2-8.2-4-19.2,2.9-26.1c4-4,9.2-6.1,14.8-6.1s10.9,2.2,14.9,6.1c8.2,8.2,8.2,21.5,0,29.7c-7.1,7.1-18.2,8.2-26.5,2.6
		c-0.5-0.3-1.1-0.2-1.4,0.3c-0.3,0.5-0.2,1.1,0.3,1.5c3.8,2.5,8.2,3.9,12.8,3.9c4.5,0,8.9-1.3,12.6-3.7l0.1-0.1l3.9,3.9h0.1v0.1
		l12.1,12.1c0.9,0.9,2.1,1.4,3.3,1.4s2.4-0.5,3.3-1.4c0.9-0.9,1.4-2,1.4-3.3C59.9,54,59.4,52.8,58.5,51.9z M37.6,41.2L37.6,41.2
		c0.7-0.6,1.3-1.2,1.9-1.7c0.6-0.6,1.1-1.2,1.6-1.8l0.1-0.1l3,3l-3.6,3.6L37.6,41.2z M57,57c-0.5,0.5-1.1,0.8-1.8,0.8
		s-1.3-0.3-1.8-0.8L42.1,45.7l3.6-3.6l0.1,0.1L57,53.4c0.5,0.5,0.8,1.1,0.8,1.8S57.5,56.5,57,57z"/>
</g>
<g>
	<path class="st0" d="M39.1,19c0,0.6-0.5,1-1.1,1s-1-0.5-1-1c0-3.9-2.3-7.4-5.9-8.9c-0.5-0.2-0.8-0.8-0.6-1.4
		c0.2-0.5,0.8-0.8,1.4-0.6C36.3,10,39.1,14.3,39.1,19z"/>
</g>
<g>
	<path class="st0" d="M28.6,8.4c0,0.6-0.5,1-1.1,1h-0.1c-0.6,0-1-0.5-1-1c0-0.6,0.5-1.1,1-1.1h0.2c0.3,0,0.5,0.1,0.7,0.3
		C28.5,7.8,28.6,8.1,28.6,8.4z"/>
</g>
</svg>
