<svg width="200" height="65" fill="none" xmlns="http://www.w3.org/2000/svg"><path d="M199.932 18.452c-.169.524-.304 1.065-.49 1.588-.591 1.64-1.436 2.231-3.159 2.248h-6.928c.659 1.876.794 3.717.608 5.576-.186 1.893-.642 3.718-1.741 5.323-2.129 3.143-6.522 3.177-8.719.084a43.25 43.25 0 0 0-.574-.845c-.135.305-.237.524-.321.744-.592 1.369-1.623 2.01-3.126 1.994-1.775-.034-3.549 0-5.323 0-1.622 0-2.535-.794-2.45-2.416.101-1.724.456-3.448.726-5.171.288-1.74.609-3.481.913-5.306-.659-.034-1.268-.068-1.977-.101.101-.626.203-1.2.338-1.994-.237.32-.338.456-.44.608-.642 1.065-1.588 1.555-2.805 1.555-1.301 0-2.585.033-3.886-.017-.608-.017-.879.203-1.098.743-1.521 3.785-3.093 7.537-4.597 11.322-.236.591-.523.81-1.166.794-1.402-.05-2.805-.017-4.258-.017-.034-.693-.067-1.284-.101-2.095-.186.236-.27.337-.321.439-.541 1.098-1.453 1.622-2.636 1.639-1.436.034-2.873.017-4.309 0-1.284 0-2.062-.625-2.332-2.01-.372.49-.659.928-.98 1.3-1.521 1.758-3.532 1.589-4.562-.49a8.767 8.767 0 0 1-.896-3.041c-.321-3.025-.084-6.016 1.166-8.855.879-1.977 2.197-3.565 4.478-3.97.828-.153 1.69-.085 2.518-.085 1.774-.017 3.531 0 5.441 0-.778 4.326-1.538 8.567-2.298 12.893h4.697c-.135-4.225-.253-8.432-.389-12.707h4.749V29.08c.084.017.152.05.236.067.102-.236.203-.456.288-.692a933.078 933.078 0 0 0 3.666-9.615c.22-.575.507-.76 1.099-.744 2.534.034 5.069-.084 7.604.051 1.96.101 3.362-.777 4.342-2.247.879-1.318 1.453-2.84 2.045-4.31.388-.962.574-1.993.912-2.973.085-.237.423-.49.676-.507.625-.068 1.284-.017 2.079-.017-.575 3.346-1.149 6.59-1.724 9.919h3.025c.135 2.18-1.318 3.937-3.363 4.241-.186.034-.473.237-.507.406-.49 2.737-.963 5.474-1.436 8.263h5.694c-.084-1.268-.236-2.501-.219-3.718.05-2.332.473-4.58 1.74-6.607.963-1.537 2.366-2.433 4.191-2.45 5.187-.034 10.358-.017 15.546-.017.135 0 .287.017.422.034-.068.068-.068.169-.068.287zm-16.39 3.87c-.152.828-.304 1.605-.423 2.365-.253 1.555-.574 3.093-.743 4.647-.135 1.166.507 1.876 1.537 2.028.474.068.643-.068.71-.524.304-1.876.659-3.751.98-5.627.169-.946.321-1.892.507-2.89h-2.568zm-44.593-.102c-.203 1.42-.422 2.771-.608 4.14-.119.963-.288 1.944-.271 2.924.034 1.149.727 1.639 1.876 1.47.49-2.805.98-5.644 1.487-8.534h-2.484zM24.197.034c1.335.574 2.096 1.639 2.518 2.974.828 2.534.76 5.035-.473 7.452-.49.963-1.183 1.74-2.383 1.757-1.216.017-1.892-.76-2.433-1.69-.862-1.487-1.047-3.126-.997-4.799V4.9c-1.115-.304-2.027.27-2.146 1.572-.101 1.216-.101 2.484.085 3.683.49 3.11 1.183 6.185 1.639 9.294.524 3.532.574 7.046-.727 10.477-2.518 6.657-10.307 8.448-15.782 4.393C1.57 32.883.625 30.839.186 28.523c-.034-.22-.118-.422-.186-.625v-3.549c.068-.236.152-.473.186-.71.49-3.024 2.332-5.187 4.934-5.474 2.197-.237 4.427-.203 6.64-.287a73.686 73.686 0 0 1 .963 4.275H9.126c-1.606 0-2.856.743-3.33 2.247-.354 1.115-.438 2.366-.37 3.549.151 2.162 1.993 3.903 4.257 4.292 1.673.287 3.397-.828 4.377-2.805.693-1.42.912-2.94.946-4.512.068-3.329-.777-6.523-1.386-9.75-.557-2.974-.912-5.948-.405-8.973.54-3.278 2.568-5.424 5.593-5.964.389-.068.76-.153 1.132-.237 1.436.034 2.856.034 4.258.034zm81.987 30.872c.322-1.791.659-3.549.981-5.323.084-.49.168-.997.27-1.487.22-1.03.304-1.893-.473-2.906-1.453-1.893-1.082-5.948.405-7.824.609-.76 1.369-1.284 2.332-1.369.811-.067 1.622-.017 2.569-.017-.338 1.994-.659 3.938-.997 6h6.809c-.743 4.342-1.487 8.566-2.23 12.909h5.018c.423 2.163-1.233 4.224-3.295 4.241h-3.633c-1.503-.017-2.298-.558-2.348-2.044-.051-1.724.186-3.464.405-5.171.237-1.859.625-3.7.947-5.644h-2.383c-.406 2.095-.811 4.208-1.234 6.32-.016.05-.016.118-.016.169-.372 2.196-.575 2.365-2.822 2.365-.102 0-.22.017-.288.017-.321.811-.574 1.622-.946 2.366-.49.963-1.301 1.588-2.416 1.605-2.366.017-4.732.017-7.097-.017-2.028-.033-3.735-.743-4.884-2.653-.152.338-.27.575-.388.828-.558 1.217-1.487 1.876-2.856 1.876-1.91 0-3.836.017-5.745 0-1.42-.017-1.927-.558-2.315-2.366-.118.203-.237.338-.304.49-.66 1.318-1.724 1.927-3.21 1.893-1.319-.034-2.654.017-3.972-.017-1.504-.034-2.18-.642-2.061-2.13.152-1.892.49-3.75.76-5.61a.934.934 0 0 0-.067-.624c-.558.93-1.099 1.858-1.673 2.788-.778 1.267-1.538 2.551-2.332 3.819-.963 1.571-2.433 1.96-4.157 1.723-.22-.034-.422-.236-.558-.304-.777.118-1.503.27-2.247.321-.946.05-1.91-.017-2.873.017-1.267.034-2.484.034-2.923-1.707-.862 1.521-2.061 1.808-3.447 1.724-1.03-.068-2.078 0-3.126-.017-1.352-.017-1.91-.507-2.23-1.825-.39-1.588.016-3.126.27-4.68.338-2.062.71-4.107 1.047-6.151.017-.051-.017-.102-.033-.22H44.12c-.39 2.028-.811 4.072-1.183 6.1-.456 2.484-.44 2.484-3.245 2.856-.185.642-.304 1.318-.557 1.926-.524 1.352-1.521 2.028-3.008 2.01-1.859-.033-3.718 0-5.576 0-1.47 0-1.859-.303-2.214-1.773-.236-.964-.236-1.758.777-2.4.558-.355 1.014-.997 1.302-1.605.81-1.707.98-3.515.506-5.357-.253-.996-.642-1.419-1.57-1.825-1.285 7.435-2.57 14.837-3.87 22.271h-4.715c.389-2.23.744-4.393 1.115-6.539l4.157-24.113c.304-1.808.287-1.808 2.146-1.808h2.907c-.355 2.045-.676 3.954-1.031 5.982h1.369c2.145 0 3.565 1.014 4.055 3.092.794 3.363.321 6.54-1.758 9.378a1.598 1.598 0 0 0-.168.288c-.017.017.017.05.033.135h6.134c.338-1.808.676-3.684 1.014-5.56.068-.388.118-.777.203-1.165.22-1.048.372-1.927-.456-2.991-1.454-1.876-1.099-5.762.32-7.689 1.268-1.723 3.06-1.639 5.002-1.487-.338 1.994-.659 3.938-1.014 5.999h6.827c-.743 4.343-1.487 8.567-2.247 12.927 1.436 0 2.77.017 4.123-.034.152 0 .372-.372.422-.592.693-3.818 1.386-7.637 2.045-11.456.101-.608.304-.862.963-.828 1.014.05 2.028.017 3.041.017.27 0 .541.034.88.05-.761 4.31-1.505 8.5-2.265 12.843 1.369 0 2.619.017 3.87-.034.168 0 .405-.406.439-.66a843.074 843.074 0 0 0 2.01-11.388c.102-.625.288-.862.947-.845 1.233.05 2.467.017 3.886.017l-1.183 6.945c.034.017.085.034.119.067.135-.185.27-.371.388-.574 1.15-1.842 2.265-3.7 3.464-5.509.558-.861 1.285-1.554 2.468-1.554.726 0 1.3.287 1.385.963.135 1.183.254 2.416.085 3.582-.406 2.805-.964 5.593-1.454 8.398-.033.152-.033.321-.067.54h4.866c.507-2.855.997-5.71 1.521-8.684h-2.01c.27-1.37.49-2.637.777-3.887.05-.203.287-.405.49-.507 1.605-.828 2.703-2.112 3.345-3.768.66-1.723 1.234-3.498 1.775-5.272.169-.524.371-.744.912-.71.575.051 1.166.017 1.91.017-.575 3.346-1.15 6.573-1.724 9.902h3.041c.068 2.23-1.334 3.937-3.396 4.241-.186.034-.456.186-.49.338-.507 2.755-.963 5.526-1.453 8.348h5.44c0-1.656-.084-3.295.018-4.9.169-2.468.895-4.749 2.771-6.523 1.014-.963 2.23-1.487 3.667-1.47.81.017 1.639-.017 2.433.085 1.707.236 2.822 1.267 3.363 2.838.676 1.994.523 3.988-.474 5.88-.236.474-.557.71-1.132.677-1.166-.051-2.348-.017-3.65-.017.44-1.808.862-3.498 1.302-5.272-.693 0-1.318-.034-1.927.016-.186.017-.44.305-.49.507-.355 1.91-.726 3.82-.98 5.729-.203 1.554.237 2.517 2.146 2.484 3.059-.068 6.1-.017 9.192-.017z" fill="#ED0035"/><path d="M62.707 8.33c-.068 1.335-.287 2.89-1.15 4.276-1.25 1.977-3.159 1.977-4.46.033-1.555-2.332-1.555-6.843 0-9.192 1.301-1.977 3.278-1.926 4.512.101.675 1.116 1.098 2.873 1.098 4.783zm68.79 12.167c-.372 2.163-.743 4.241-1.098 6.353h-8.567c.371-2.129.726-4.224 1.098-6.353h8.567z" fill="#ED0035"/><path d="M.854 49.66h2.8c1.073 0 1.895.22 2.464.658.57.439.854 1.19.854 2.254 0 .69-.14 1.232-.42 1.624-.28.383-.686.616-1.218.7 1.307.252 1.96 1.185 1.96 2.8 0 1.092-.266 1.918-.798 2.478-.532.55-1.32.826-2.366.826H.854V49.66zm2.772 4.634c.597 0 1.003-.13 1.218-.392.224-.27.336-.705.336-1.302 0-.579-.145-.97-.434-1.176-.28-.215-.751-.322-1.414-.322h-.42v3.192h.714zm.084 5.25c.607 0 1.027-.145 1.26-.434.233-.29.35-.765.35-1.428 0-.681-.13-1.176-.392-1.484-.252-.317-.681-.476-1.288-.476h-.728v3.822h.798zm8.339 1.582c-.345 0-.653-.093-.924-.28a1.98 1.98 0 0 1-.616-.714 2.154 2.154 0 0 1-.21-.924c0-.625.145-1.139.434-1.54.299-.41.663-.728 1.092-.952a17.495 17.495 0 0 1 1.736-.742v-.7c0-.373-.047-.644-.14-.812-.084-.177-.252-.266-.504-.266-.43 0-.653.299-.672.896l-.028.49-1.806-.07c.028-.933.257-1.62.686-2.058.439-.448 1.097-.672 1.974-.672.793 0 1.381.22 1.764.658.383.43.574 1.04.574 1.834v3.738c0 .579.047 1.241.14 1.988h-1.708a27.381 27.381 0 0 1-.196-1.162 2.071 2.071 0 0 1-.574.924c-.261.243-.602.364-1.022.364zm.7-1.414a.705.705 0 0 0 .448-.168c.15-.112.27-.233.364-.364v-2.268c-.495.29-.863.57-1.106.84-.243.261-.364.593-.364.994 0 .299.056.537.168.714a.574.574 0 0 0 .49.252zm6.022-6.804h1.904v3.262h1.638v-3.262h1.904V61h-1.904v-3.486h-1.638V61h-1.904v-8.092zm9.816 1.344h-1.484v-1.344h4.886v1.344h-1.498V61h-1.904v-6.748zm7.84 6.874c-.345 0-.653-.093-.924-.28a1.98 1.98 0 0 1-.616-.714 2.154 2.154 0 0 1-.21-.924c0-.625.145-1.139.434-1.54a3.13 3.13 0 0 1 1.092-.952 17.505 17.505 0 0 1 1.736-.742v-.7c0-.373-.047-.644-.14-.812-.084-.177-.252-.266-.504-.266-.43 0-.653.299-.672.896l-.028.49-1.806-.07c.028-.933.257-1.62.686-2.058.439-.448 1.097-.672 1.974-.672.793 0 1.381.22 1.764.658.383.43.574 1.04.574 1.834v3.738c0 .579.047 1.241.14 1.988h-1.708a27.546 27.546 0 0 1-.196-1.162 2.07 2.07 0 0 1-.574.924c-.261.243-.602.364-1.022.364zm.7-1.414a.705.705 0 0 0 .448-.168c.15-.112.27-.233.364-.364v-2.268c-.495.29-.863.57-1.106.84-.243.261-.364.593-.364.994 0 .299.056.537.168.714a.574.574 0 0 0 .49.252zm7.184-2.814l-1.708-3.99h1.722l1.498 3.864h.14v-3.864h1.582v3.864h.126l1.54-3.864h1.722l-1.75 3.99L51.031 61h-1.638l-1.722-3.948h-.126V61h-1.582v-3.948h-.154L44.143 61h-1.638l1.806-4.102zm9.493-3.99h1.904v3.262h1.638v-3.262h1.904V61h-1.904v-3.486h-1.638V61h-1.904v-8.092zm8.92-2.87h1.905v1.582h-1.904v-1.582zm0 2.87h1.905V61h-1.904v-8.092zm12.31 8.218c-.346 0-.654-.093-.924-.28a1.98 1.98 0 0 1-.616-.714 2.154 2.154 0 0 1-.21-.924c0-.625.144-1.139.434-1.54.298-.41.662-.728 1.092-.952a17.495 17.495 0 0 1 1.736-.742v-.7c0-.373-.047-.644-.14-.812-.084-.177-.252-.266-.504-.266-.43 0-.654.299-.672.896l-.028.49-1.806-.07c.028-.933.256-1.62.686-2.058.438-.448 1.096-.672 1.974-.672.793 0 1.381.22 1.764.658.382.43.574 1.04.574 1.834v3.738c0 .579.046 1.241.14 1.988h-1.708a27.381 27.381 0 0 1-.196-1.162 2.071 2.071 0 0 1-.574.924c-.262.243-.602.364-1.022.364zm.7-1.414a.705.705 0 0 0 .448-.168c.149-.112.27-.233.364-.364v-2.268c-.495.29-.864.57-1.106.84-.243.261-.364.593-.364.994 0 .299.056.537.168.714a.574.574 0 0 0 .49.252zm6.022-6.804h2.576c.97 0 1.638.177 2.002.532.364.355.546.854.546 1.498 0 .448-.094.807-.28 1.078-.187.27-.48.467-.882.588.504.112.854.345 1.05.7.205.345.308.793.308 1.344 0 .793-.206 1.386-.616 1.778-.41.383-1.125.574-2.142.574h-2.562v-8.092zm2.534 3.22c.28 0 .485-.084.616-.252.14-.168.21-.434.21-.798 0-.355-.08-.616-.238-.784-.15-.168-.397-.252-.742-.252h-.49v2.086h.644zm-.196 3.668c.373 0 .653-.075.84-.224.186-.159.28-.485.28-.98 0-.392-.047-.681-.14-.868-.084-.187-.2-.303-.35-.35-.14-.056-.336-.084-.588-.084h-.49v2.506h.448zm7.027-5.544h-1.484v-1.344h4.886v1.344h-1.498V61H91.12v-6.748zm8.626 6.874c-.868 0-1.517-.238-1.946-.714-.43-.485-.644-1.185-.644-2.1v-2.716c0-.915.215-1.61.644-2.086.43-.485 1.078-.728 1.946-.728.868 0 1.516.243 1.946.728.438.476.658 1.171.658 2.086v2.716c0 .915-.22 1.615-.658 2.1-.43.476-1.078.714-1.946.714zm.014-1.316c.289 0 .48-.112.574-.336.093-.233.14-.574.14-1.022V55.47c0-.448-.047-.789-.14-1.022-.094-.233-.285-.35-.574-.35-.299 0-.495.117-.588.35-.094.233-.14.574-.14 1.022v2.982c0 .448.046.789.14 1.022.093.224.29.336.588.336zm10.755 0c.616-.383 1.083-.952 1.4-1.708.327-.765.509-1.871.546-3.318l.14-1.876h4.074v6.86h1.078v3.36h-1.372l-.14-2.128h-4.214l-.14 2.128h-1.372V59.81zm4.382-.042v-5.642h-.854l-.112 1.078c-.028 1.372-.168 2.394-.42 3.066-.242.672-.583 1.171-1.022 1.498h2.408zm5.275-.07c.392 0 .681-.093.868-.28.196-.187.336-.5.42-.938.084-.439.158-1.13.224-2.072l.224-3.5h4.704V61h-1.904v-6.748h-1.162l-.168 2.394c-.075 1.232-.201 2.156-.378 2.772-.178.607-.458 1.036-.84 1.288-.383.243-.952.364-1.708.364h-.28v-1.372zm10.714-2.086a1.654 1.654 0 0 1-.798-.812c-.168-.383-.252-.85-.252-1.4 0-.83.238-1.451.714-1.862.476-.42 1.26-.63 2.352-.63h2.324V61h-1.904v-3.038c-.326 0-.555-.005-.686-.014L131.517 61h-2.016l1.386-3.388zm2.436-.756v-2.87h-.112c-.588.01-1.012.126-1.274.35-.252.215-.378.565-.378 1.05 0 .495.126.863.378 1.106.262.233.682.355 1.26.364h.126zm13.213 4.27c-.915 0-1.573-.247-1.974-.742-.402-.504-.602-1.265-.602-2.282v-4.634c0-1.045.135-1.815.406-2.31.28-.504.718-.868 1.316-1.092.261-.103.681-.224 1.26-.364.401-.093.728-.177.98-.252.252-.084.499-.205.742-.364l.196 1.554c-.224.121-.462.22-.714.294-.243.065-.537.13-.882.196-.542.112-.934.22-1.176.322a1.22 1.22 0 0 0-.574.574c-.122.261-.182.616-.182 1.064v.952c.186-.196.448-.36.784-.49s.69-.196 1.064-.196c.653 0 1.143.229 1.47.686.336.448.504 1.2.504 2.254v1.764c0 .803-.108 1.428-.322 1.876-.215.448-.514.76-.896.938-.374.168-.84.252-1.4.252zm.056-1.288c.196 0 .345-.047.448-.14.102-.103.172-.27.21-.504.046-.243.07-.588.07-1.036v-2.296c0-.485-.047-.826-.14-1.022-.094-.205-.262-.308-.504-.308-.336 0-.621.233-.854.7v2.856c0 .467.018.821.056 1.064.046.243.126.42.238.532.112.103.27.154.476.154zm5.893-9.8h1.904v1.582h-1.904v-1.582zm0 2.87h1.904V61h-1.904v-8.092zm7.547 8.232c-.887 0-1.508-.233-1.862-.7-.346-.467-.518-1.143-.518-2.03h1.554c0 .495.07.854.21 1.078.14.224.359.336.658.336.317 0 .527-.107.63-.322.112-.224.168-.546.168-.966 0-.308-.052-.541-.154-.7-.094-.168-.252-.285-.476-.35-.224-.065-.542-.098-.952-.098v-1.134c.401 0 .709-.037.924-.112.214-.075.364-.191.448-.35.084-.159.126-.378.126-.658 0-.672-.266-1.008-.798-1.008-.299 0-.518.089-.658.266-.131.177-.196.495-.196.952h-1.54c0-.85.196-1.489.588-1.918.392-.43 1.022-.644 1.89-.644.802 0 1.404.21 1.806.63.401.41.602.938.602 1.582 0 .56-.122.985-.364 1.274a1.6 1.6 0 0 1-.91.532c.27.084.494.187.672.308.186.112.336.303.448.574.121.27.182.64.182 1.106 0 .747-.206 1.325-.616 1.736-.411.41-1.032.616-1.862.616zm5.586-8.232h1.904v3.262h1.638v-3.262h1.904V61h-1.904v-3.486h-1.638V61h-1.904v-8.092zm11.315 8.218c-.896 0-1.554-.247-1.974-.742-.42-.504-.63-1.246-.63-2.226V55.75c0-.99.21-1.731.63-2.226.429-.495 1.087-.742 1.974-.742.914 0 1.558.257 1.932.77.382.513.574 1.288.574 2.324v1.162h-3.22v1.596c0 .392.056.677.168.854.121.177.308.266.56.266.242 0 .415-.084.518-.252.112-.177.168-.443.168-.798v-.686h1.792v.56c0 .83-.21 1.465-.63 1.904-.42.43-1.041.644-1.862.644zm.7-5.026v-.77c0-.42-.052-.719-.154-.896-.103-.187-.285-.28-.546-.28-.271 0-.458.098-.56.294-.103.196-.154.56-.154 1.092v.56h1.414zm7.494 5.026c-.906 0-1.564-.252-1.974-.756-.411-.513-.616-1.246-.616-2.198v-2.436c0-.961.205-1.694.616-2.198.41-.504 1.068-.756 1.974-.756.858 0 1.484.205 1.876.616.401.41.602 1.036.602 1.876v.672h-1.792v-.714c0-.42-.052-.71-.154-.868-.094-.159-.266-.238-.518-.238-.271 0-.458.098-.56.294-.094.196-.14.555-.14 1.078v2.968c0 .504.051.85.154 1.036.112.187.294.28.546.28.261 0 .438-.084.532-.252.093-.177.14-.457.14-.84v-.868h1.792v.77c0 .83-.201 1.46-.602 1.89-.402.43-1.027.644-1.876.644zm5.76.7c.504 0 .858-.047 1.064-.14.214-.084.322-.252.322-.504 0-.168-.098-.644-.294-1.428l-1.778-6.846h1.848l1.05 5.348.91-5.348h1.834l-1.89 8.414c-.159.681-.462 1.162-.91 1.442-.439.29-1.036.434-1.792.434h-.364v-1.372z" fill="#DADADA"/></svg>