<svg width="200" height="34" fill="none" xmlns="http://www.w3.org/2000/svg"><path d="M37.919 29.381h-4.946V11.804h17.755V29.38h-4.946V15.14h-7.863v14.24zm19.53-6.415c0-3.592 2.156-4.234 3.55-4.234 1.396 0 3.552.77 3.552 4.234 0 2.181-.888 4.362-3.551 4.362-2.663 0-3.551-2.18-3.551-4.362zm-4.312-6.415V34h4.565v-6.03c1.522 1.668 4.059 1.796 4.566 1.796 4.312 0 6.975-2.823 6.975-6.8 0-4.234-2.663-6.928-6.848-6.928-1.015 0-3.17.128-4.946 2.053h-.127v-1.54h-4.185zm27.396 11.29c-1.65 1.54-3.298 2.053-5.073 2.053-4.947 0-5.073-3.72-5.073-5.26v-7.955h4.565v7.442c0 2.566.888 3.336 2.537 3.336 2.917 0 3.044-2.567 3.044-3.465v-7.184h4.565v12.83h-4.565V27.84zm11.033-8.724h2.41c1.267 0 2.409.256 2.409 1.283 0 1.155-1.776 1.155-2.537 1.155h-2.41v-2.438h.128zM87 16.55v12.83h9.004c3.298 0 5.581-.641 5.581-3.336 0-2.053-1.142-2.95-3.678-3.336v-.128c1.648-.256 3.044-1.283 3.044-2.95 0-3.08-3.551-3.08-4.947-3.08H87zm4.566 7.441h2.79c2.156 0 2.536.642 2.536 1.54 0 .513-.253 1.283-2.536 1.283h-2.79v-2.823zm21.054.129c0 2.567-2.156 3.208-3.297 3.208-.888 0-2.283-.256-2.283-1.54 0-1.41 1.649-1.667 2.663-1.796 1.776-.256 1.649-.128 3.044-.641v.77h-.127zm-5.327-3.463c0-1.925 2.03-2.053 2.791-2.053.507 0 2.409 0 2.409 1.668v.385c-.127 1.283-1.268 1.026-4.692 1.41-2.79.386-5.707 1.027-5.707 3.978 0 1.027.507 3.721 5.326 3.721 1.903 0 3.932-.513 5.073-1.796h.127l.381 1.283h4.946v-.257c-.888-.128-.888-1.026-.888-2.438l.127-5.901c0-1.54-.127-4.748-6.976-4.748-1.648 0-6.975.129-7.102 4.62h4.185v.128zm10.273-1.54V16.55h14.585v2.566h-4.946V29.38h-4.566V19.117h-5.073zm20.415 2.566h4.059c1.141 0 3.551.128 3.551 2.181 0 1.668-1.776 2.053-3.678 2.053h-4.059v-4.234h.127zm0-6.543h11.288v-3.336h-16.234V29.38h10.019c4.819 0 7.99-1.668 7.99-5.26 0-5.646-6.214-5.774-7.99-5.774h-5.073V15.14zm24.225 8.98c0 2.567-2.156 3.208-3.297 3.208-.888 0-2.283-.256-2.283-1.54 0-1.41 1.648-1.667 2.663-1.796 1.776-.256 1.649-.128 3.044-.641v.77h-.127zm-5.327-3.463c0-1.925 2.03-2.053 2.791-2.053.507 0 2.409 0 2.409 1.668v.385c-.127 1.283-1.268 1.026-4.692 1.41-2.79.386-5.707 1.027-5.707 3.978 0 1.027.507 3.721 5.326 3.721 1.903 0 3.932-.513 5.073-1.796h.127l.38 1.283h4.82v-.257c-.888-.128-.888-1.026-.888-2.438l.127-5.901c0-1.54-.127-4.748-6.975-4.748-1.649 0-6.976.129-7.103 4.62h4.312v.128zm16.234 8.724h-4.566v-12.83h4.566v4.875h5.453v-4.875h4.566v12.83h-4.566v-5.389h-5.453v5.39zm21.559-12.831h4.946l-6.214 6.031 6.594 6.8h-5.326l-4.946-5.645v5.645h-4.566v-12.83h4.566v5.132l4.946-5.132z" fill="#62B22F"/><path d="M0 29.381h11.414V17.962H0v11.42z" fill="#000"/><path d="M0 0v14.37h3.044c7.863 0 11.921 4.106 11.921 12.06v3.08H29.17V0H0zm23.082 6.03v17.32h-2.283C19.784 14.756 14.458 9.495 6.088 8.469v-2.31c3.804-.128 13.19-.128 16.994-.128z" fill="#62B22F"/></svg>