<svg width="200" height="59" fill="none" xmlns="http://www.w3.org/2000/svg"><path d="M18.988 0C23 0 24.292 2.886 25.362 5.771c.446 1.199 10.92 29.789 11.233 30.632.089.222.044.622-.357.755-.401.133-5.794 2.264-6.107 2.353a.616.616 0 0 1-.757-.355c-.134-.311-2.363-6.526-2.63-7.192H11.233c-.268.71-2.541 6.925-2.63 7.192-.09.266-.446.488-.758.355s-5.795-2.22-6.107-2.353a.631.631 0 0 1-.356-.755c.4-1.065 10.697-29.167 11.232-30.632C13.64 2.93 14.977 0 18.988 0zM.58 51.098c-.312 0-.579.266-.579.621v6.66c0 .355.267.621.58.621h36.817c.312 0 .58-.266.58-.621v-6.66c0-.355-.268-.621-.58-.621H.579zM18.99 9.323l-5.26 15.671h10.563l-5.26-15.671h-.044zm136.973 22.996c0 1.776-.981 2.93-2.808 2.93-.714 0-1.293 0-2.229-.266V29.61c.401-.089 1.293-.178 2.229-.178 1.872.134 2.808.977 2.808 2.886zm3.744-.222c0-3.285-1.917-5.55-6.018-5.55-.98 0-1.693.09-2.763.356v-4.75a25.457 25.457 0 0 1 3.075-.178c1.204 0 2.719.089 4.057.222l.089-2.752c-1.516-.355-3.7-.533-5.394-.533-1.693 0-4.279.4-5.527.755v17.491a16.386 16.386 0 0 0 5.75 1.021c4.413 0 6.731-2.353 6.731-6.082zm-42.3-.977c0 2.442-.981 4.04-2.585 4.04-.669 0-1.026-.044-1.783-.266v-7.325c.847-.4 1.292-.4 1.961-.4 1.605-.044 2.407 1.288 2.407 3.951zm-12.258.09c0-2.665.803-4.085 2.407-4.085.669 0 1.114 0 1.961.4v7.325c-.757.266-1.114.266-1.783.266-1.827.044-2.585-1.465-2.585-3.907zm7.89 10.965V37.38c.445.266 1.337.666 2.808.666 2.986 0 5.17-2.442 5.17-6.97 0-4.839-2.184-6.925-5.75-6.925-.891 0-1.515.088-2.228.443v-5.638h-3.477v5.683c-.713-.355-1.337-.444-2.229-.444-3.566 0-5.75 2.175-5.75 6.97 0 4.484 1.962 6.88 5.171 6.88 1.515 0 2.407-.399 2.853-.665v4.795h3.432zm-26.521-4.351V25.038c-1.917-.577-3.388-.799-5.35-.799-1.96 0-3.387.267-5.303.8v6.57c0 1.776-.045 2.308-.223 2.885-.178.489-.446 1.11-1.16 1.599l.937 2.042c2.808-.8 3.878-1.998 3.878-5.905v-4.839c.936-.133 1.114-.177 1.872-.177s.891.044 1.827.177v10.433h3.522zm43.146-2.797a5.14 5.14 0 0 1-1.872.31c-1.248 0-1.961-.488-1.961-1.775 0-1.332.892-1.776 2.63-1.776.401 0 .847.045 1.025.133v.977c0 1.021.045 1.687.178 2.131zm4.458 1.554c-.936-1.42-1.159-2.22-1.159-3.996V28.99c0-1.909-.223-2.619-.758-3.373-.713-.977-1.872-1.421-4.101-1.421-1.56 0-3.075.177-4.501.533l.534 2.574c.981-.133 2.006-.266 2.764-.266 2.318 0 2.585.355 2.585 2.087v.666a7.246 7.246 0 0 0-1.783-.222c-3.521 0-5.349 1.687-5.349 4.528 0 2.62 1.962 4.084 4.369 4.084.891 0 1.827-.178 2.585-.488.446-.178.624-.311 1.203-.71.357.532 1.07 1.02 1.338 1.11l2.273-1.51zm34.187-1.554a5.14 5.14 0 0 1-1.872.31c-1.248 0-1.961-.488-1.961-1.775 0-1.332.892-1.776 2.63-1.776.446 0 .847.045 1.025.133v.977c0 1.021.089 1.687.178 2.131zm4.458 1.554c-.936-1.42-1.159-2.22-1.159-3.996V28.99c0-1.909-.223-2.619-.713-3.373-.713-.977-1.917-1.421-4.101-1.421-1.56 0-3.076.177-4.502.533l.535 2.574c.981-.133 2.006-.266 2.763-.266 2.318 0 2.586.355 2.586 2.087v.666a6.984 6.984 0 0 0-1.783-.222c-3.521 0-5.349 1.687-5.349 4.528 0 2.62 1.961 4.084 4.368 4.084.892 0 1.828-.178 2.585-.488.446-.178.624-.311 1.204-.71.357.532 1.07 1.02 1.337 1.11l2.229-1.51zm-76.31-3.33c0 1.288-.445 2.22-2.14 2.22-.579 0-.801 0-1.515-.222v-3.818c.936-.177.981-.222 1.516-.222 1.605 0 2.14.8 2.14 2.042zm-7.176-8.834v12.697c1.65.71 3.477 1.02 5.126 1.02 3.744 0 5.705-1.908 5.705-5.06 0-2.841-1.782-4.617-5.08-4.617-.848 0-1.338.088-2.23.31v-4.35h-3.52zm96.323 13.407V24.55h-3.521v5.017h-3.967V24.55h-3.522v13.274h3.522v-5.416h3.967v5.416h3.521zm14.397 0s-1.917-4.084-2.362-4.972c-.535-1.021-1.026-1.776-2.095-2.042v-.045c.713-.133 1.292-.577 1.916-1.909.58-1.287.758-1.598 1.115-1.864.356-.311.802-.178.802-.178l.178-2.397c-.49-.089-1.069-.089-1.649-.045-.936.045-1.426.311-1.917.8-.356.355-.624.887-.936 1.509a72.21 72.21 0 0 1-.936 1.909c-.356.71-.49 1.021-1.426 1.021h-.579V24.55h-3.522v13.274h3.522v-5.416h.49c.98 0 1.159.266 1.694 1.287.624 1.243 1.783 4.129 1.783 4.129H200zm-130.644 0h4.056l-6.106-18.557c-.624-.222-1.427-.355-2.274-.355-.936 0-1.248.133-1.96.355l-6.464 18.557h3.878s.535-1.643 1.159-3.64h6.686c.535 2.042 1.025 3.64 1.025 3.64zm-6.82-6.748s1.115-3.73 1.293-4.306c.446-1.51 1.114-3.907 1.114-3.907h.09s.623 2.486 1.025 3.862c.178.533 1.248 4.307 1.248 4.307h-4.77v.044zm77.558-2.13a2.23 2.23 0 0 0-2.229 2.219c0 1.243.981 2.22 2.229 2.22a2.202 2.202 0 0 0 2.228-2.22c0-1.199-1.025-2.22-2.228-2.22z" fill="#EE3524"/></svg>