<svg width="16" height="14" viewBox="0 0 16 14" fill="none" xmlns="http://www.w3.org/2000/svg">
<path d="M13.4378 0H2.56223C1.42514 0 0.5 0.924957 0.5 2.06223V8.71783C0.5 9.85254 1.42111 10.776 2.5549 10.7801V13.8003L6.89532 10.7801H13.4378C14.5749 10.7801 15.5 9.85492 15.5 8.71783V2.06223C15.5 0.924957 14.5749 0 13.4378 0V0ZM14.6211 8.71783C14.6211 9.37024 14.0903 9.90115 13.4378 9.90115H6.61957L3.43381 12.118V9.90115H2.56223C1.90973 9.90115 1.37891 9.37024 1.37891 8.71783V2.06223C1.37891 1.40964 1.90973 0.878906 2.56223 0.878906H13.4378C14.0903 0.878906 14.6211 1.40964 14.6211 2.06223V8.71783Z" fill="white" fill-opacity="0.75"/>
<path d="M4.51367 3.10547H11.4843V3.98437H4.51367V3.10547Z" fill="white" fill-opacity="0.75"/>
<path d="M4.51367 4.98047H11.4843V5.85937H4.51367V4.98047Z" fill="white" fill-opacity="0.75"/>
<path d="M4.51367 6.85547H11.4843V7.73437H4.51367V6.85547Z" fill="white" fill-opacity="0.75"/>
</svg>
