<svg width="16" height="10" viewBox="0 0 16 10" fill="none" xmlns="http://www.w3.org/2000/svg">
<path d="M15.7926 4.0528C15.6521 3.88708 12.2935 0 8.00011 0C3.70652 0 0.348111 3.88708 0.20725 4.05296C-0.0691105 4.3779 -0.0691105 4.84939 0.207413 5.17465C0.348111 5.34037 3.70652 9.22729 8.00011 9.22729C12.2935 9.22729 15.6521 5.34005 15.7928 5.17433C16.0692 4.84939 16.0692 4.3779 15.7926 4.0528ZM9.31156 2.33501C9.60027 2.17742 10.0029 2.35825 10.2107 2.73875C10.4185 3.11941 10.3528 3.55581 10.0641 3.7134C9.77557 3.87116 9.37281 3.69017 9.16485 3.30967C8.95721 2.929 9.02269 2.49261 9.31156 2.33501ZM8.00011 7.81901C5.00092 7.81901 2.47695 5.51568 1.60335 4.61365C2.19328 4.00439 3.53642 2.75678 5.2698 2.01072C4.9317 2.5251 4.73349 3.13972 4.73349 3.8013C4.73349 5.60536 6.19588 7.06775 7.99994 7.06775C9.80401 7.06775 11.2666 5.60536 11.2666 3.8013C11.2666 3.13972 11.0685 2.5251 10.7304 2.01072C12.4638 2.75695 13.8068 4.00439 14.3967 4.61365C13.5231 5.51617 10.9991 7.81901 8.00011 7.81901Z" fill="white" fill-opacity="0.75"/>
</svg>
