<svg width="21" height="18" viewBox="0 0 21 18" fill="none" xmlns="http://www.w3.org/2000/svg">
<path d="M20.3971 9.85351C21.4609 8.82723 21.1322 6.75131 19.2896 6.75131L14.4413 6.75446C14.6254 5.75953 14.8921 4.11024 14.8816 3.95452C14.7798 2.47971 13.8097 0.6848 13.7677 0.611335C13.5907 0.292024 12.6974 -0.140895 11.7984 0.044604C10.636 0.285727 10.5173 1.00424 10.522 1.20234C10.522 1.20234 10.5721 3.16792 10.577 3.69241C10.0213 4.8752 8.10515 7.98356 7.52438 8.22311C7.38548 8.14164 7.2279 8.09782 7.06396 8.09782H0.938703C0.41845 8.09782 0 8.50555 0 9.00735L0.000812261 17.2109C0.0372286 17.6531 0.424948 18 0.882928 18H6.38464C6.87254 18 7.26919 17.6156 7.26919 17.1428V16.8705C7.26919 16.8705 7.47361 16.8556 7.56648 16.9135C7.92022 17.1311 8.35735 17.4051 8.92756 17.4051H17.1378C20.2073 17.4051 19.8778 14.7648 19.5974 14.4047C20.116 13.8575 20.4368 12.8923 19.9989 12.1299C20.3349 11.7847 20.9263 10.836 20.3971 9.85351ZM6.19565 17.1412H0.881303V8.95408H6.19565V17.1412ZM18.9649 9.78306L18.9148 9.98574C20.3293 10.3755 19.5764 11.9553 18.5618 12.0577L18.5117 12.2604C19.8679 12.5947 19.2209 14.2213 18.1586 14.3324L18.1085 14.5343C19.2161 14.7105 18.9479 16.5421 17.27 16.5421L8.91917 16.5453C8.32946 16.5453 7.79229 15.894 7.35854 15.894H6.98003V9.59205C7.45182 9.30868 8.03177 8.94083 8.3541 8.67544C8.96316 8.17207 11.456 4.26845 11.456 3.77991C11.456 3.29137 11.401 1.17793 11.401 1.17793C11.401 1.17793 11.8897 0.567387 12.981 1.01277C12.981 1.01277 13.8994 2.68161 13.9931 4.01159C13.9931 4.01159 13.5795 6.75131 13.3574 7.61085H19.1467C20.5692 7.61243 20.2977 9.58037 18.9649 9.78306Z" fill="#999999"/>
</svg>
