<svg width="21" height="18" viewBox="0 0 21 18" fill="none" xmlns="http://www.w3.org/2000/svg">
<path d="M0.60291 8.1465C-0.460881 9.17278 -0.132186 11.2487 1.71043 11.2487L6.55868 11.2455C6.37457 12.2405 6.10787 13.8898 6.11843 14.0455C6.22024 15.5203 7.19035 17.3152 7.23231 17.3887C7.40925 17.708 8.3026 18.1409 9.20164 17.9554C10.364 17.7143 10.4827 16.9958 10.478 16.7977C10.478 16.7977 10.4279 14.8321 10.423 14.3076C10.9787 13.1248 12.8949 10.0164 13.4756 9.7769C13.6145 9.85836 13.7721 9.90218 13.936 9.90218L20.0613 9.90218C20.5815 9.90218 21 9.49445 21 8.99265L20.9992 0.789093C20.9628 0.346861 20.5751 3.71501e-08 20.1171 7.7188e-08L14.6154 5.58163e-07C14.1275 6.00816e-07 13.7308 0.384381 13.7308 0.85718L13.7308 1.12953C13.7308 1.12953 13.5264 1.14435 13.4335 1.0865C13.0798 0.868857 12.6426 0.594937 12.0724 0.594937L3.86224 0.594938C0.792708 0.594938 1.12222 3.23522 1.40258 3.59533C0.883954 4.14252 0.563245 5.10766 1.00105 5.87013C0.665049 6.21528 0.0737219 7.16403 0.60291 8.1465ZM14.8043 0.858756L20.1187 0.858755L20.1187 9.04592L14.8043 9.04592L14.8043 0.858756ZM2.03506 8.21694L2.08515 8.01426C0.670733 7.6245 1.42356 6.04474 2.43821 5.94228L2.4883 5.7396C1.1321 5.40533 1.77906 3.77873 2.84136 3.66762L2.89145 3.46572C1.78394 3.28953 2.05212 1.45789 3.72998 1.45789L12.0808 1.45474C12.6705 1.45474 13.2077 2.10596 13.6415 2.10596L14.02 2.10596L14.02 8.40795C13.5482 8.69132 12.9682 9.05917 12.6459 9.32456C12.0368 9.82793 9.54401 13.7315 9.54401 14.2201C9.54401 14.7086 9.59897 16.8221 9.59897 16.8221C9.59897 16.8221 9.11026 17.4326 8.01899 16.9872C8.01899 16.9872 7.10059 15.3184 7.00691 13.9884C7.00691 13.9884 7.42049 11.2487 7.64264 10.3891L1.85325 10.3891C0.430847 10.3876 0.702277 8.41963 2.03506 8.21694Z" fill="#E62E3D"/>
</svg>
