<svg width="42" height="30" viewBox="0 0 42 30" fill="none" xmlns="http://www.w3.org/2000/svg">
<path d="M0 5C0 2.23858 2.23858 0 5 0H37C39.7614 0 42 2.23858 42 5V25C42 27.7614 39.7614 30 37 30H5C2.23858 30 0 27.7614 0 25V5Z" fill="#5FB46E"/>
<path d="M23.8589 14.6697L19.6865 11.9305C19.5697 11.8542 19.4218 11.8491 19.3 11.9176C19.179 11.9865 19.1035 12.118 19.1035 12.2608V17.739C19.1035 17.8819 19.179 18.0134 19.3004 18.0822C19.3573 18.1143 19.4199 18.1304 19.4828 18.1304C19.5538 18.1304 19.6247 18.1096 19.6865 18.0693L23.8589 15.3302C23.9682 15.2582 24.0346 15.1337 24.0346 14.9999C24.0346 14.8661 23.9682 14.7417 23.8589 14.6697ZM19.8621 17.0265V12.9734L22.9486 14.9999L19.8621 17.0265Z" fill="white"/>
<path d="M31.6207 6H27.8276H14.1724H10.3793C10.1699 6 10 6.17491 10 6.3913V10.6957V15V19.3043V23.6087C10 23.8251 10.1699 24 10.3793 24H14.1724H27.8276H31.6207C31.8301 24 32 23.8251 32 23.6087V19.3043V15V10.6957V6.3913C32 6.17491 31.8301 6 31.6207 6ZM13.7931 14.6087H10.7586V11.087H13.7931V14.6087ZM10.7586 15.3913H13.7931V18.913H10.7586V15.3913ZM14.5517 19.3043V15V10.6957V6.78261H27.4483V10.6957V15V19.3043V23.2174H14.5517V19.3043ZM31.2414 14.6087H28.2069V11.087H31.2414V14.6087ZM28.2069 15.3913H31.2414V18.913H28.2069V15.3913ZM31.2414 6.78261V10.3043H28.2069V6.78261H31.2414ZM10.7586 6.78261H13.7931V10.3043H10.7586V6.78261ZM10.7586 23.2174V19.6957H13.7931V23.2174H10.7586ZM31.2414 23.2174H28.2069V19.6957H31.2414V23.2174Z" fill="white"/>
</svg>
