<svg width="48" height="48" viewBox="0 0 48 48" fill="none" xmlns="http://www.w3.org/2000/svg">
<path d="M40.8 11.2H40V8.8C40 8.3582 39.6418 8 39.2 8H31.2C30.7582 8 30.4 8.3582 30.4 8.8V11.2H13.6V2.8C13.6 1.25352 12.3465 0 10.8 0C9.25352 0 8 1.25352 8 2.8V11.2H7.2C3.22539 11.2043 0.00429688 14.4254 0 18.4V40.8C0.00429688 44.7746 3.22539 47.9957 7.2 48H40.8C44.7746 47.9957 47.9957 44.7746 48 40.8V18.4C47.9957 14.4254 44.7746 11.2043 40.8 11.2ZM32 9.6H38.4V11.2H32V9.6ZM10.8 1.6C11.4629 1.6 12 2.13711 12 2.8V8H9.6V2.8C9.6 2.13711 10.1371 1.6 10.8 1.6ZM9.6 9.6H12V11.2H9.6V9.6ZM46.4 40.8C46.3965 43.8914 43.8914 46.3965 40.8 46.4H7.2C4.10859 46.3965 1.60352 43.8914 1.6 40.8V18.4C1.60352 15.3086 4.10859 12.8035 7.2 12.8H40.8C43.8914 12.8035 46.3965 15.3086 46.4 18.4V40.8Z" fill="#5FB46E"/>
<path d="M41.5999 18.3997C39.8327 18.3997 38.3999 19.8325 38.3999 21.5997C38.3999 23.3668 39.8327 24.7997 41.5999 24.7997C43.3671 24.7997 44.7999 23.3668 44.7999 21.5997C44.7999 19.8325 43.3671 18.3997 41.5999 18.3997ZM41.5999 23.1997C40.7163 23.1997 39.9999 22.4833 39.9999 21.5997C39.9999 20.7161 40.7163 19.9997 41.5999 19.9997C42.4835 19.9997 43.1999 20.7161 43.1999 21.5997C43.1999 22.4833 42.4835 23.1997 41.5999 23.1997Z" fill="#5FB46E"/>
<path d="M39.1999 27.9997H39.9999C40.4417 27.9997 40.7999 27.6415 40.7999 27.1997C40.7999 26.7579 40.4417 26.3997 39.9999 26.3997H39.1999C38.7581 26.3997 38.3999 26.7579 38.3999 27.1997C38.3999 27.6415 38.7581 27.9997 39.1999 27.9997Z" fill="#5FB46E"/>
<path d="M43.9999 26.3997H43.1999C42.7581 26.3997 42.3999 26.7579 42.3999 27.1997C42.3999 27.6415 42.7581 27.9997 43.1999 27.9997H43.9999C44.4417 27.9997 44.7999 27.6415 44.7999 27.1997C44.7999 26.7579 44.4417 26.3997 43.9999 26.3997Z" fill="#5FB46E"/>
<path d="M43.9999 29.6003H39.1999C38.7581 29.6003 38.3999 29.9585 38.3999 30.4003C38.3999 30.8421 38.7581 31.2003 39.1999 31.2003H43.9999C44.4417 31.2003 44.7999 30.8421 44.7999 30.4003C44.7999 29.9585 44.4417 29.6003 43.9999 29.6003Z" fill="#5FB46E"/>
<path d="M43.9999 32.7996H39.1999C38.7581 32.7996 38.3999 33.1578 38.3999 33.5996C38.3999 34.0414 38.7581 34.3996 39.1999 34.3996H43.9999C44.4417 34.3996 44.7999 34.0414 44.7999 33.5996C44.7999 33.1578 44.4417 32.7996 43.9999 32.7996Z" fill="#5FB46E"/>
<path d="M43.9999 36H39.1999C38.7581 36 38.3999 36.3582 38.3999 36.8C38.3999 37.2418 38.7581 37.6 39.1999 37.6H43.9999C44.4417 37.6 44.7999 37.2418 44.7999 36.8C44.7999 36.3582 44.4417 36 43.9999 36Z" fill="#5FB46E"/>
<path d="M43.9999 39.2004H39.1999C38.7581 39.2004 38.3999 39.5586 38.3999 40.0004C38.3999 40.4422 38.7581 40.8004 39.1999 40.8004H43.9999C44.4417 40.8004 44.7999 40.4422 44.7999 40.0004C44.7999 39.5586 44.4417 39.2004 43.9999 39.2004Z" fill="#5FB46E"/>
<path d="M35.9998 16.7996H5.5998C5.15801 16.7996 4.7998 17.1578 4.7998 17.5996V41.5996C4.7998 42.0414 5.15801 42.3996 5.5998 42.3996H35.9998C36.4416 42.3996 36.7998 42.0414 36.7998 41.5996V17.5996C36.7998 17.1578 36.4416 16.7996 35.9998 16.7996ZM35.1998 18.3996V25.5996H34.3998V23.9996C34.3998 23.7222 34.2564 23.4648 34.0205 23.3187C33.785 23.173 33.4904 23.1597 33.2424 23.2835L30.56 24.6261L29.7166 23.7835L30.3564 21.8523C30.4377 21.6089 30.3971 21.341 30.2471 21.1328C30.0975 20.9242 29.8564 20.8003 29.5998 20.7996H27.9998C28.2779 20.8011 28.5365 20.6582 28.6834 20.4222C28.8303 20.1859 28.8439 19.8906 28.7197 19.6421L28.0951 18.3996H35.1998ZM6.3998 40.7996V30.2242L8.3709 29.7316L8.88379 30.757C9.01934 31.0285 9.29668 31.1996 9.5998 31.1996H11.5053L11.9357 32.0613L11.2412 34.1468C11.1494 34.4234 11.2154 34.7285 11.4135 34.9425C11.6115 35.1566 11.9104 35.246 12.1936 35.1757L14.8471 34.5125L16.1342 36.4437C16.2775 36.6586 16.5158 36.7914 16.774 36.7996C17.0338 36.8082 17.2811 36.6882 17.4357 36.4796L19.1572 34.1843L21.7303 38.0437C21.8795 38.2671 22.1311 38.4011 22.3998 38.3996H23.1998V40.7996H6.3998ZM24.7998 40.7996V37.5996C24.7998 37.1578 24.4416 36.7996 23.9998 36.7996H22.8287L19.8686 32.3554C19.7252 32.1406 19.4869 32.0078 19.2287 31.9996C18.9678 31.9855 18.7178 32.1062 18.567 32.3195L16.8455 34.6148L15.8725 33.1554C15.685 32.8746 15.3412 32.7418 15.0135 32.8234L13.2264 33.2699L13.5654 32.2523C13.6326 32.0511 13.6174 31.8316 13.5229 31.6421L12.7229 30.0421C12.5861 29.7683 12.3057 29.5968 11.9998 29.5996H10.0951L9.51973 28.4421C9.35215 28.1066 8.97402 27.9328 8.61035 28.0234L6.3998 28.575V18.3996H26.3998C26.3998 18.5238 26.4283 18.646 26.4838 18.757L26.7053 19.1996H26.3998C25.958 19.1996 25.5998 19.5578 25.5998 19.9996V21.5996C25.5998 22.0414 25.958 22.3996 26.3998 22.3996H28.4893L28.0412 23.7468C27.9455 24.0339 28.0201 24.3507 28.2342 24.5652L29.8342 26.1652C30.0775 26.4085 30.4494 26.4695 30.7572 26.3156L32.7998 25.2941V26.3996C32.7998 26.8414 33.158 27.1996 33.5998 27.1996H35.1998V40.7996H24.7998Z" fill="#5FB46E"/>
<path d="M26.4 24.8H25.5199C25.1965 23.2301 23.9699 22.0035 22.4 21.6801V20.8C22.4 20.3582 22.0418 20 21.6 20C21.1582 20 20.8 20.3582 20.8 20.8V21.6801C19.2301 22.0035 18.0035 23.2301 17.6801 24.8H16.8C16.3582 24.8 16 25.1582 16 25.6C16 26.0418 16.3582 26.4 16.8 26.4H17.6801C18.0035 27.9699 19.2301 29.1965 20.8 29.5199V30.4C20.8 30.8418 21.1582 31.2 21.6 31.2C22.0418 31.2 22.4 30.8418 22.4 30.4V29.5199C23.9699 29.1965 25.1965 27.9699 25.5199 26.4H26.4C26.8418 26.4 27.2 26.0418 27.2 25.6C27.2 25.1582 26.8418 24.8 26.4 24.8ZM21.6 28C20.2746 28 19.2 26.9254 19.2 25.6C19.2 24.2746 20.2746 23.2 21.6 23.2C22.9254 23.2 24 24.2746 24 25.6C24 26.9254 22.9254 28 21.6 28Z" fill="#5FB46E"/>
</svg>
