<svg width="80" height="80" viewBox="0 0 80 80" fill="none" xmlns="http://www.w3.org/2000/svg">
<rect width="80" height="80" rx="40" fill="black" fill-opacity="0.5"/>
<path fill-rule="evenodd" clip-rule="evenodd" d="M40.004 38.6599L26.4647 25.2499C26.1283 24.9167 25.5887 24.9167 25.2523 25.2499C24.9159 25.5831 24.9159 26.1175 25.2523 26.4507L38.9315 39.9992L25.2523 53.5477C24.9159 53.8809 24.9159 54.4153 25.2523 54.7485C25.4174 54.912 25.6395 55 25.8553 55C26.0712 55 26.2933 54.9183 26.4584 54.7485L39.9961 41.3401L53.5353 54.7501C53.8718 55.0833 54.4113 55.0833 54.7477 54.7501C55.0842 54.4169 55.0842 53.8825 54.7477 53.5493L41.0686 40.0008L54.7477 26.4523C55.0842 26.1191 55.0842 25.5847 54.7477 25.2515C54.5827 25.088 54.3605 25 54.1447 25C53.9289 25 53.7067 25.0817 53.5417 25.2515L40.004 38.6599Z" fill="#C5A26D"/>
</svg>
