<svg width="32" height="32" fill="none" xmlns="http://www.w3.org/2000/svg"><path d="M20.254 23.975c-1.215 0-2.379-.593-3.463-1.764-.876-.947-1.841-1.44-2.87-1.466-1.89-.058-3.48 1.476-3.495 1.492a.77.77 0 0 1-1.08-1.098c.081-.081 2.046-1.974 4.6-1.934 1.464.032 2.803.692 3.976 1.959.842.91 1.7 1.332 2.53 1.26 1.602-.14 2.81-1.99 2.822-2.009a.77.77 0 0 1 1.298.83c-.065.101-1.616 2.5-3.976 2.714-.115.01-.228.016-.342.016zm2.859-12.169a1.842 1.842 0 1 1-3.684.002 1.842 1.842 0 0 1 3.684-.002zm-10.59 0a1.842 1.842 0 1 1-3.684.001 1.842 1.842 0 0 1 3.684-.001z" fill="#C5A26D"/><path d="M16.001 32C7.181 32 .004 24.822.004 16S7.18 0 16.001 0c8.82 0 15.996 7.178 15.996 16s-7.175 16-15.996 16zm0-30.459c-7.971 0-14.456 6.487-14.456 14.46 0 7.972 6.485 14.458 14.456 14.458 7.97 0 14.455-6.486 14.455-14.459 0-7.972-6.484-14.459-14.455-14.459z" fill="#C5A26D"/></svg>