<svg width="32" height="32" fill="none" xmlns="http://www.w3.org/2000/svg"><path d="M23.118 11.803a1.843 1.843 0 1 1-3.686.001 1.843 1.843 0 0 1 3.686 0zm-10.598 0a1.844 1.844 0 1 1-3.687 0 1.844 1.844 0 0 1 3.687 0zM9.73 25.582a.76.76 0 0 1-.76-.76c0-3.278 2.638-5.946 5.88-5.946h2.56c3.242 0 5.879 2.653 5.879 5.913a.76.76 0 1 1-1.519 0c0-2.422-1.956-4.393-4.36-4.393h-2.56c-2.405 0-4.36 1.985-4.36 4.426 0 .42-.34.76-.76.76z" fill="#E0DFDD"/><path d="M16 32C7.178 32 .002 24.822.002 16S7.179 0 15.999 0s15.996 7.178 15.996 16-7.176 16-15.996 16zm0-30.48C8.015 1.52 1.521 8.015 1.521 16S8.016 30.48 16 30.48c7.982 0 14.477-6.495 14.477-14.48S23.982 1.52 15.999 1.52z" fill="#E0DFDD"/></svg>