<svg width="32" height="32" fill="none" xmlns="http://www.w3.org/2000/svg"><path d="M17.643 26.593h-3.094c-3.835 0-6.957-2.88-6.957-6.42a.77.77 0 0 1 .77-.772H23.83a.77.77 0 0 1 .77.771c.001 3.54-3.12 6.421-6.956 6.421zM9.2 20.943c.412 2.326 2.653 4.11 5.35 4.11h3.092c2.696 0 4.938-1.784 5.35-4.11H9.2zm13.914-9.137a1.842 1.842 0 1 1-3.684 0 1.842 1.842 0 0 1 3.684 0zm-10.592 0a1.841 1.841 0 1 1-3.683.001 1.841 1.841 0 0 1 3.683-.001z" fill="#E0DFDD"/><path d="M16 32C7.18 32 .004 24.822.004 16S7.18 0 16 0s15.997 7.178 15.997 16S24.82 32 16 32zm0-30.459c-7.97 0-14.455 6.486-14.455 14.46 0 7.972 6.484 14.458 14.455 14.458S30.456 23.973 30.456 16 23.97 1.541 16 1.541z" fill="#E0DFDD"/></svg>