<svg width="32" height="32" fill="none" xmlns="http://www.w3.org/2000/svg"><path d="M23.119 11.803a1.843 1.843 0 1 1-3.687.001 1.843 1.843 0 0 1 3.687 0zm-10.599 0a1.844 1.844 0 1 1-3.687 0 1.844 1.844 0 0 1 3.687 0zm4.89 13.657h-2.56c-3.242 0-5.88-2.605-5.88-5.809a.76.76 0 0 1 1.52 0c0 2.406 1.914 4.29 4.36 4.29h2.56c2.445 0 4.36-1.853 4.36-4.219a.76.76 0 0 1 1.519 0c0 3.218-2.583 5.739-5.88 5.739z" fill="#857F77"/><path d="M16.001 32C7.181 32 .005 24.822.005 16S7.18 0 16 0s15.996 7.178 15.996 16S24.82 32 16 32zm0-30.48C8.018 1.52 1.524 8.015 1.524 16s6.494 14.48 14.477 14.48c7.982 0 14.477-6.495 14.477-14.48S23.983 1.52 16 1.52z" fill="#857F77"/></svg>