<svg width="32" height="32" fill="none" xmlns="http://www.w3.org/2000/svg"><path d="M23.514 22.484H9.134a.77.77 0 0 1 0-1.542h14.38a.77.77 0 0 1 0 1.542zm-.4-10.678a1.842 1.842 0 1 1-3.685 0 1.842 1.842 0 0 1 3.685 0zm-10.592 0a1.842 1.842 0 1 1-3.684.001 1.842 1.842 0 0 1 3.684-.001z" fill="#C5A26D"/><path d="M16 32C7.18 32 .004 24.822.004 16S7.18 0 16 0s15.997 7.178 15.997 16S24.82 32 16 32zm0-30.459c-7.97 0-14.455 6.487-14.455 14.46 0 7.972 6.485 14.458 14.455 14.458 7.972 0 14.456-6.486 14.456-14.459 0-7.972-6.484-14.459-14.456-14.459z" fill="#C5A26D"/></svg>