<svg width="12" height="23" fill="none" xmlns="http://www.w3.org/2000/svg"><path d="M.383 12.251h2.605V22.63c0 .204.172.371.383.371h4.414c.21 0 .383-.167.383-.371V12.298h2.997c.192 0 .354-.14.383-.325l.45-3.821a.355.355 0 0 0-.095-.287.404.404 0 0 0-.288-.121H8.168V5.342c0-.723.402-1.085 1.197-1.085h2.25c.21 0 .383-.167.383-.371V.37a.378.378 0 0 0-.383-.37H8.36c-.537 0-2.414.102-3.888 1.419-1.638 1.465-1.408 3.209-1.36 3.515v2.8H.383A.378.378 0 0 0 0 8.107v3.774c0 .204.172.371.383.371z" fill="#9DB2C6"/></svg>