<svg width="21" height="23" fill="none" xmlns="http://www.w3.org/2000/svg"><path d="M16.28.544a30.976 30.976 0 0 0-11.56 0c-1.68.371-3.798 2.38-4.205 4a21.938 21.938 0 0 0 0 9.45C.93 15.613 3.04 17.63 4.719 18a.154.154 0 0 1 .127.152v4.59c0 .228.28.346.441.177l2.195-2.236 2.06-2.1a.168.168 0 0 1 .119-.051 31.182 31.182 0 0 0 6.62-.532c1.678-.371 3.789-2.388 4.204-4.008.687-3.13.687-6.31 0-9.45C20.07 2.924 17.96.916 16.281.545zm.06 13.686c-.339.708-.822 1.3-1.526 1.679-.194.11-.432.143-.66.21-.255-.075-.5-.126-.73-.227-2.365-.979-4.543-2.236-6.272-4.168-.983-1.097-1.746-2.337-2.399-3.654a29.679 29.679 0 0 1-.83-1.915c-.246-.59.11-1.198.482-1.637a3.793 3.793 0 0 1 1.289-.962c.381-.185.754-.076 1.034.245.602.7 1.153 1.426 1.602 2.236.28.498.204 1.105-.297 1.443-.118.084-.228.177-.347.27-.102.084-.195.16-.263.27-.127.202-.127.439-.05.658.618 1.687 1.652 2.995 3.356 3.704.271.11.542.245.864.21.526-.058.696-.632 1.069-.936.364-.295.822-.295 1.212-.05.39.244.762.506 1.135.776.365.261.73.515 1.068.81.331.27.441.65.263 1.038zm-3.06-5.493h-.034c-.237-.008-.364-.143-.39-.371a3.094 3.094 0 0 0-.076-.49 1.374 1.374 0 0 0-.517-.801 1.356 1.356 0 0 0-.415-.203c-.187-.05-.39-.042-.577-.084-.203-.05-.322-.22-.288-.405a.364.364 0 0 1 .39-.295c1.204.084 2.06.7 2.179 2.109.008.101.016.203 0 .295a.313.313 0 0 1-.263.253c.025-.008.017-.008-.009-.008zm-.746-3.215a4.269 4.269 0 0 0-1.17-.354 11.59 11.59 0 0 0-.533-.068c-.212-.033-.331-.168-.322-.38.008-.193.152-.337.372-.328.712.042 1.399.194 2.026.523 1.28.675 2.018 1.746 2.23 3.172.008.068.025.127.033.194.009.16.017.321.034.532-.008.042-.008.127-.034.21-.084.313-.55.347-.66.035-.035-.093-.035-.194-.035-.296 0-.65-.144-1.308-.474-1.873a3.467 3.467 0 0 0-1.467-1.367zm3.967 4.405c-.246 0-.356-.203-.373-.422-.034-.439-.05-.878-.118-1.317-.323-2.295-2.162-4.193-4.45-4.598-.348-.059-.696-.076-1.052-.118-.22-.025-.508-.034-.559-.312-.042-.228.153-.414.373-.422h.178c2.975.084.178.008.008 0 3.094.093 5.629 2.135 6.171 5.18.094.524.127 1.047.17 1.578.025.22-.102.43-.348.43z" fill="#9DB2C6"/></svg>