<svg width="20" height="18" viewBox="0 0 20 18" fill="none" xmlns="http://www.w3.org/2000/svg">
<path d="M0.740105 1.46734H2.86029L5.88166 12.2993C5.96873 12.6186 6.26477 12.8387 6.59564 12.8387H15.8818C16.1778 12.8387 16.439 12.6661 16.5609 12.3985L19.9393 4.69534C20.0394 4.4623 20.0133 4.20769 19.8784 3.99622C19.7434 3.78476 19.5083 3.66393 19.2601 3.66393H9.00316C8.59393 3.66393 8.26306 3.99623 8.26306 4.39757C8.26306 4.79891 8.59393 5.1312 9.00316 5.1312H18.1326L15.3942 11.3671H7.1529L4.13153 0.535184C4.04446 0.220152 3.74842 6.10352e-05 3.41754 6.10352e-05H0.740105C0.330871 6.10352e-05 0 0.32804 0 0.733698C0 1.13936 0.335224 1.46734 0.740105 1.46734Z" fill="white"/>
<path d="M5.89475 18C6.82206 18 7.57087 17.2534 7.57087 16.3385C7.57087 15.4236 6.82206 14.6727 5.89475 14.6727C4.96744 14.6727 4.21863 15.4193 4.21863 16.3342C4.21863 17.2491 4.97179 18 5.89475 18Z" fill="white"/>
<path d="M16.3825 18C16.4216 18 16.4695 18 16.5044 18C16.9484 17.9612 17.3533 17.767 17.6537 17.426C17.9497 17.0981 18.0847 16.6665 18.0629 16.2177C18.002 15.3114 17.2009 14.6166 16.2736 14.6771C15.3463 14.7375 14.6584 15.5445 14.7194 16.4507C14.776 17.3138 15.503 18 16.3825 18Z" fill="white"/>
</svg>
