<svg width="20" height="17" viewBox="0 0 20 17" fill="none" xmlns="http://www.w3.org/2000/svg">
<path d="M10.0047 16.5252L10 16.9999L10.0012 16.5223L10.0047 16.5252ZM9.70798 16.2724L9.97437 16.4994C9.81587 16.4932 9.66508 16.436 9.54555 16.3384C9.14427 16.0001 8.74964 15.6744 8.37221 15.3628L8.36281 15.3551C7.98088 15.0399 7.61732 14.7397 7.27829 14.4525L7.26828 14.444L7.25784 14.4361C5.50331 13.1014 3.86218 11.6307 2.35043 10.0384L2.35046 10.0383L2.34599 10.0338C1.20915 8.86665 0.553612 7.33461 0.500763 5.72983C0.477337 4.35603 0.994618 3.02363 1.94954 2.00765C2.4149 1.52766 2.97727 1.14562 3.60199 0.885993C4.22782 0.625904 4.90235 0.494452 5.58329 0.500179L5.58329 0.500233L5.59064 0.500187C6.61814 0.493735 7.61705 0.822584 8.42879 1.43251L8.42877 1.43254L8.43382 1.43623C8.88488 1.76642 9.28518 2.1572 9.62289 2.59667L10.0194 3.1126L10.4158 2.59667C10.7535 2.1572 11.1538 1.76642 11.6049 1.43623L11.6049 1.43626L11.6099 1.43252C12.4122 0.82975 13.3975 0.501322 14.4131 0.50021L14.4167 0.500179C15.0976 0.494452 15.7722 0.625904 16.398 0.885993C17.0227 1.14562 17.5851 1.52766 18.0505 2.00765C19.0055 3.02379 19.5228 4.35644 19.4992 5.73047C19.4511 7.33882 18.7975 8.87571 17.66 10.0469L17.6599 10.0468L17.656 10.051C16.1443 11.6433 14.5031 13.114 12.7486 14.4487L12.7423 14.4535L12.7362 14.4585C12.0481 15.017 11.2657 15.6544 10.4565 16.3492C10.3509 16.4312 10.2225 16.4824 10.0869 16.4962L10.3516 16.2766C11.167 15.5997 11.9443 14.9602 12.6325 14.3953C14.3723 13.0711 16.002 11.6144 17.5061 10.0387C18.6445 8.89027 19.3056 7.36671 19.357 5.76466L19.3571 5.76467L19.3572 5.7569C19.3797 4.39897 18.8683 3.08636 17.9316 2.08836L17.9317 2.08833L17.9265 2.08299C17.4753 1.61632 16.9308 1.24655 16.3275 0.996284C15.7256 0.746564 15.0777 0.62103 14.4245 0.627202C13.4398 0.621657 12.4801 0.937946 11.6986 1.52772L11.6967 1.52922C11.1073 1.97852 10.6066 2.52984 10.2197 3.15629L10.2197 3.15626L10.2159 3.16255C10.1976 3.19319 10.1701 3.21999 10.1352 3.23876C10.1001 3.25757 10.0596 3.26716 10.0181 3.26565L10.0038 3.26514L9.98956 3.26543C9.94588 3.26635 9.90332 3.25595 9.86633 3.2361C9.82987 3.21653 9.80075 3.18884 9.78071 3.15695C9.39812 2.52858 8.89878 1.97641 8.30898 1.52861L8.30887 1.52853C7.53 0.937509 6.57272 0.618769 5.58935 0.620914C4.93578 0.614617 4.28762 0.740152 3.68539 0.989988C3.08212 1.24025 2.53757 1.61002 2.08638 2.07669L2.08634 2.07666L2.08126 2.08207C1.14462 3.08007 0.633238 4.39268 0.655707 5.7506L0.655662 5.75061L0.655863 5.75731C0.703919 7.36094 1.36599 8.88643 2.50786 10.0335C4.02852 11.6137 5.67584 13.0727 7.43409 14.3969C7.4846 14.4379 7.5356 14.4793 7.58705 14.521C8.23824 15.0495 8.96228 15.637 9.70798 16.2724Z" fill="white" stroke="#2C77BB"/>
</svg>
