<svg width="16" height="16" viewBox="0 0 16 16" fill="none" xmlns="http://www.w3.org/2000/svg">
<path fill-rule="evenodd" clip-rule="evenodd" d="M12.5 1.5H14.667C15.4035 1.5 16 2.0965 16 2.833V6V7V14.6665C16 15.403 15.4035 16 14.667 16H1.3335C0.597 16 0 15.403 0 14.6665V7V6V2.833C0 2.0965 0.597 1.5 1.3335 1.5H3.5V0.5C3.5 0.2235 3.724 0 4 0C4.276 0 4.5 0.2235 4.5 0.5V1.5H7.5V0.5C7.5 0.2235 7.724 0 8 0C8.276 0 8.5 0.2235 8.5 0.5V1.5H11.5V0.5C11.5 0.2235 11.7235 0 12 0C12.2765 0 12.5 0.2235 12.5 0.5V1.5ZM1 7V14.6665C1 14.8505 1.1495 15 1.3335 15H14.667C14.8505 15 15 14.8505 15 14.6665V7H1ZM15 6H1V2.833C1 2.6495 1.1495 2.5 1.3335 2.5H3.5V3.5C3.5 3.7765 3.724 4 4 4C4.276 4 4.5 3.7765 4.5 3.5V2.5H7.5V3.5C7.5 3.7765 7.724 4 8 4C8.276 4 8.5 3.7765 8.5 3.5V2.5H11.5V3.5C11.5 3.7765 11.7235 4 12 4C12.2765 4 12.5 3.7765 12.5 3.5V2.5H14.667C14.8505 2.5 15 2.6495 15 2.833V6Z" fill="#9DB2C6"/>
</svg>
