<svg width="20" height="17" viewBox="0 0 20 17" fill="none" xmlns="http://www.w3.org/2000/svg">
<path d="M10.005 16.4999L10.0013 16.4999C9.83302 16.4995 9.67185 16.4415 9.54556 16.3384C9.14414 15.9999 8.74938 15.6741 8.37183 15.3625L8.36282 15.3551C7.98089 15.0398 7.61733 14.7397 7.27831 14.4525L7.26829 14.444L7.25785 14.4361C5.50332 13.1014 3.8622 11.6307 2.35044 10.0384L2.35047 10.0383L2.346 10.0337C1.20916 8.86664 0.553623 7.3346 0.500774 5.72981C0.477349 4.35601 0.994629 3.02361 1.94955 2.00763C2.41491 1.52764 2.97728 1.1456 3.602 0.885978C4.22783 0.625888 4.90236 0.494436 5.5833 0.500163L5.5833 0.500217L5.59065 0.500171C6.61815 0.493719 7.61707 0.822568 8.42881 1.43249L8.42878 1.43252L8.43383 1.43622C8.8849 1.7664 9.28519 2.15719 9.6229 2.59666L10.0194 3.11259L10.4158 2.59666C10.7535 2.15719 11.1538 1.7664 11.6049 1.43622L11.6049 1.43625L11.6099 1.4325C12.4122 0.829734 13.3976 0.501306 14.4131 0.500194L14.4167 0.500163C15.0977 0.494436 15.7722 0.625889 16.398 0.885978C17.0227 1.1456 17.5851 1.52765 18.0505 2.00764C19.0056 3.02382 19.5229 4.35653 19.4992 5.7306C19.4511 7.3389 18.7975 8.87573 17.66 10.0468L17.66 10.0468L17.656 10.0509C16.1443 11.6433 14.5032 13.114 12.7486 14.4487L12.7423 14.4535L12.7362 14.4584C12.0481 15.017 11.2658 15.6544 10.4565 16.3492C10.3298 16.4475 10.1704 16.5016 10.005 16.4999Z" fill="#2C77BB" stroke="#2C77BB"/>
</svg>
