<svg width="20" height="20" viewBox="0 0 20 20" fill="none" xmlns="http://www.w3.org/2000/svg">
<g clip-path="url(#clip0)">
<path d="M18.4129 2.83871C17.8987 2.29561 17.2782 1.86413 16.59 1.57111C15.9019 1.2781 15.1608 1.12981 14.4129 1.13549C13.2902 1.13676 12.1993 1.5087 11.3097 2.19355C10.8206 2.56035 10.3862 2.99481 10.0194 3.48387C9.65256 2.99481 9.2181 2.56035 8.72903 2.19355C7.82658 1.50494 6.72227 1.13306 5.5871 1.13549C4.83919 1.12981 4.09811 1.2781 3.40997 1.57111C2.72183 1.86413 2.10134 2.29561 1.5871 2.83871C0.540858 3.97676 -0.0274285 5.47371 2.75171e-06 7.01936C0.0566661 8.7944 0.763884 10.4867 1.9871 11.7742C3.51838 13.425 5.17962 14.9503 6.95484 16.3355C7.63871 16.929 8.41936 17.5742 9.22581 18.271C9.44308 18.4526 9.7168 18.553 10 18.5548C10.2818 18.5577 10.5557 18.4618 10.7742 18.2839C11.5806 17.5742 12.3613 16.9226 13.0516 16.3484C14.8268 14.9632 16.4881 13.4379 18.0194 11.7871C19.2447 10.4963 19.95 8.79842 20 7.01936C20.0274 5.47371 19.4591 3.97676 18.4129 2.83871V2.83871Z" fill="white"/>
</g>
<defs>
<clipPath id="clip0">
<rect width="20" height="20" fill="white"/>
</clipPath>
</defs>
</svg>
