<svg width="29" height="37" viewBox="0 0 29 37" fill="none" xmlns="http://www.w3.org/2000/svg">
<path d="M14.0158 0C6.27553 0.00793481 0.0039674 6.28275 0 14.023C0 21.5538 12.9265 36.1467 13.4747 36.7598C13.7405 37.0566 14.1965 37.0818 14.4934 36.8161C14.5131 36.7984 14.5319 36.7796 14.5496 36.7598C15.0979 36.1394 28.0244 21.5538 28.0244 14.023C28.0203 6.28554 21.7531 0.0119022 14.0158 0ZM14.0158 35.1801C11.5488 32.2947 1.44269 20.1833 1.44269 14.0158C1.44269 7.07181 7.07181 1.44269 14.0158 1.44269C20.9597 1.44269 26.5888 7.07181 26.5888 14.0158C26.5888 20.1833 16.4828 32.3091 14.0158 35.1801Z" fill="#2C77BB"/>
<path d="M14.2683 7.03311C10.0733 7.03708 6.67572 10.4411 6.67969 14.6361C6.68366 18.8311 10.0877 22.2286 14.2827 22.2247C18.4749 22.2207 21.8712 18.8211 21.8712 14.6289C21.8633 10.4343 18.4628 7.03708 14.2683 7.03311ZM14.2683 20.7892C10.87 20.7892 8.11517 18.0344 8.11517 14.6361C8.11517 11.2378 10.87 8.48302 14.2683 8.48302C17.6665 8.48302 20.4213 11.2378 20.4213 14.6361C20.4174 18.0327 17.6648 20.7852 14.2683 20.7892Z" fill="#2C77BB"/>
</svg>
