<svg id="Слой_1" data-name="Слой 1" xmlns="http://www.w3.org/2000/svg" width="17" height="12" viewBox="0 0 17 12"><defs><style>.cls-1{fill:#2c77bb;}</style></defs><title>email</title><path class="cls-1" d="M8.52,8.4,6.41,6.58l-6,5.09a1.2,1.2,0,0,0,.84.33H15.8a1.19,1.19,0,0,0,.83-.33l-6-5.09Zm0,0"/><path class="cls-1" d="M16.63.33A1.17,1.17,0,0,0,15.8,0H1.24A1.21,1.21,0,0,0,.4.33L8.52,7.2Zm0,0"/><path class="cls-1" d="M0,1.05V11L5.89,6.09Zm0,0"/><path class="cls-1" d="M11.15,6.09,17,11v-10Zm0,0"/></svg>