<svg width="36" height="57" viewBox="0 0 36 57" fill="none" xmlns="http://www.w3.org/2000/svg">
<path d="M17.6897 0C7.93597 0 0 7.93597 0 17.6897V17.8173C0 22.5425 1.83979 26.9846 5.18108 30.3268L6.70224 31.8485C11.9217 37.0675 15.274 43.6819 16.3964 50.9777C16.4958 51.6203 17.039 52.0872 17.6887 52.0872C18.3384 52.0872 18.8826 51.6203 18.981 50.9777C20.1043 43.6819 23.4566 37.0675 28.6751 31.8485L30.1963 30.3268C33.5376 26.9856 35.3774 22.5425 35.3774 17.8173V17.6897C35.3793 7.93597 27.4433 0 17.6897 0ZM14.7414 35.3793H12.7759V33.4138H14.7414V35.3793ZM18.6724 35.3793H16.7069V33.4138H18.6724V35.3793ZM22.6034 35.3793H20.6379V33.4138H22.6034V35.3793ZM17.6897 31.4483C10.1025 31.4483 3.93103 25.2768 3.93103 17.6897C3.93103 10.1025 10.1025 3.93103 17.6897 3.93103C25.2768 3.93103 31.4483 10.1025 31.4483 17.6897C31.4483 25.2768 25.2768 31.4483 17.6897 31.4483Z" fill="#364859"/>
<path d="M31 17.4999C31 24.9558 24.9559 30.9999 17.5 30.9999C10.0441 30.9999 4 24.9558 4 17.4999C4 10.044 10.0441 3.99988 17.5 3.99988C24.9559 3.99988 31 10.044 31 17.4999Z" fill="#364859" stroke="white" stroke-width="2"/>
<path d="M22.2907 45.7462C22.08 46.3677 21.8962 46.9987 21.7235 47.6345C24.5422 48.3241 26.5341 49.7128 26.5341 51.1034C26.5341 52.9629 22.902 55.0345 17.6893 55.0345C12.4765 55.0345 8.84442 52.9629 8.84442 51.1034C8.84442 49.7128 10.8363 48.3231 13.656 47.6355C13.4833 46.9996 13.2995 46.3686 13.0878 45.7462C9.31421 46.6839 6.87891 48.7329 6.87891 51.1034C6.87891 54.4092 11.6276 57 17.6893 57C23.7509 57 28.4996 54.4092 28.4996 51.1034C28.4996 48.7339 26.0643 46.6849 22.2907 45.7462Z" fill="#364859"/>
<path d="M9.23535 13.8879H26.4411C26.4117 13.7703 26.4117 13.6675 26.3823 13.6087C25.5448 12.1687 24.7073 10.7288 23.8404 9.31827C23.7375 9.14195 23.3996 9.00971 23.1792 9.00971C19.6234 8.99502 16.0824 8.99502 12.5119 9.02441C12.2475 9.02441 11.8801 9.23011 11.7332 9.4652C11.0279 10.5966 10.3961 11.7426 9.73492 12.8887C9.5733 13.1826 9.42636 13.5058 9.23535 13.8879Z" fill="white"/>
<path d="M11.2041 17.4142C11.7919 17.2526 12.2914 17.1204 12.8939 16.9588C12.8939 18.1783 12.8939 19.3684 12.8939 20.5586C12.8939 21.3961 13.0408 21.5577 13.8783 21.5577C16.5231 21.5577 19.1532 21.5577 21.7979 21.5577C22.6208 21.5577 22.7677 21.4255 22.7677 20.5586C22.7677 19.3684 22.7677 18.1636 22.7677 16.9147C23.3407 17.0763 23.855 17.2232 24.4721 17.4142C24.4721 18.575 24.4721 19.7652 24.4721 20.9553C24.4721 21.6165 24.4721 22.2777 24.4721 22.9389C24.4721 23.8939 24.2664 24.1143 23.3113 24.1143C20.7253 24.1143 18.1246 24.1143 15.5386 24.1143C14.4366 24.1143 13.3347 24.129 12.2327 24.1143C11.4245 24.0996 11.1895 23.8646 11.1895 23.0564C11.1895 21.161 11.2041 19.2803 11.2041 17.4142Z" fill="white"/>
<path d="M26.6759 14.6078C26.5731 15.651 25.9706 16.2975 24.9862 16.5032C23.9136 16.7236 23.032 16.2681 22.2973 15.0633C21.7978 15.9596 21.1219 16.562 20.064 16.5473C19.0355 16.5326 18.3449 15.9743 17.8894 15.0633C16.7874 17.0616 14.4512 17.0028 13.4373 15.0633C12.8643 16.1653 12.0121 16.7383 10.7632 16.4739C9.71997 16.2535 9.10285 15.5776 9 14.6078C14.8773 14.6078 20.7399 14.6078 26.6759 14.6078Z" fill="white"/>
<path d="M19.1526 20.6761C19.0939 20.632 18.9469 20.5733 18.9176 20.4851C18.8882 20.3969 18.9323 20.2206 18.991 20.1765C19.9461 19.5447 20.9158 18.9276 21.8856 18.3105C21.9444 18.2664 22.1794 18.3399 22.1941 18.3987C22.2382 18.5162 22.2382 18.7366 22.1648 18.7954C21.2391 19.4272 20.284 20.0296 19.3437 20.632C19.2996 20.6467 19.2408 20.6467 19.1526 20.6761Z" fill="white"/>
<path d="M20.2848 21.1463C20.1525 21.0141 20.035 20.9406 20.0203 20.8377C20.0056 20.7349 20.035 20.5733 20.1084 20.5292C20.6374 20.1619 21.1663 19.8239 21.71 19.5007C21.7982 19.4419 21.9745 19.5154 22.092 19.5594C22.1361 19.5888 22.1655 19.7798 22.1361 19.8092C21.5337 20.25 20.9166 20.6908 20.2848 21.1463Z" fill="white"/>
</svg>
