<svg width="36" height="57" viewBox="0 0 36 57" fill="none" xmlns="http://www.w3.org/2000/svg">
<path d="M17.6897 0.00012207C7.93597 0.00012207 0 7.93609 0 17.6898V17.8174C0 22.5426 1.83979 26.9847 5.18108 30.327L6.70224 31.8486C11.9217 37.0676 15.274 43.682 16.3964 50.9778C16.4958 51.6204 17.039 52.0873 17.6887 52.0873C18.3384 52.0873 18.8826 51.6204 18.981 50.9778C20.1043 43.682 23.4566 37.0676 28.6751 31.8486L30.1963 30.327C33.5376 26.9857 35.3774 22.5426 35.3774 17.8174V17.6898C35.3793 7.93609 27.4433 0.00012207 17.6897 0.00012207ZM14.7414 35.3794H12.7759V33.4139H14.7414V35.3794ZM18.6724 35.3794H16.7069V33.4139H18.6724V35.3794ZM22.6034 35.3794H20.6379V33.4139H22.6034V35.3794ZM17.6897 31.4484C10.1025 31.4484 3.93103 25.2769 3.93103 17.6898C3.93103 10.1027 10.1025 3.93116 17.6897 3.93116C25.2768 3.93116 31.4483 10.1027 31.4483 17.6898C31.4483 25.2769 25.2768 31.4484 17.6897 31.4484Z" fill="#364859"/>
<path d="M31 17.5C31 24.9559 24.9559 31 17.5 31C10.0441 31 4 24.9559 4 17.5C4 10.0441 10.0441 4 17.5 4C24.9559 4 31 10.0441 31 17.5Z" fill="#364859" stroke="white" stroke-width="2"/>
<path d="M22.2907 45.7464C22.08 46.3678 21.8962 46.9988 21.7235 47.6346C24.5422 48.3242 26.5341 49.7129 26.5341 51.1036C26.5341 52.963 22.902 55.0346 17.6893 55.0346C12.4765 55.0346 8.84442 52.963 8.84442 51.1036C8.84442 49.7129 10.8363 48.3232 13.656 47.6356C13.4833 46.9998 13.2995 46.3688 13.0878 45.7464C9.31421 46.684 6.87891 48.733 6.87891 51.1036C6.87891 54.4093 11.6276 57.0001 17.6893 57.0001C23.7509 57.0001 28.4996 54.4093 28.4996 51.1036C28.4996 48.734 26.0643 46.685 22.2907 45.7464Z" fill="#364859"/>
<path d="M25.0821 17.9841C25.0821 19.739 25.0821 21.4857 25.0821 23.2405C25.0821 23.8066 25.0255 23.8551 24.4514 23.8551C24.0066 23.8551 23.5618 23.8551 23.1171 23.8551C22.5672 23.8551 22.5025 23.7985 22.5025 23.2648C22.5025 21.324 22.5025 19.3832 22.5025 17.4423C22.5025 16.6256 22.5106 15.8088 22.5025 14.984C22.5025 14.5392 22.3892 14.426 21.9526 14.426C19.0171 14.426 16.0816 14.426 13.1461 14.426C12.677 14.426 12.58 14.5392 12.58 15.0486C12.58 17.7658 12.58 20.483 12.58 23.2082C12.58 23.8066 12.5315 23.8551 11.9411 23.8551C11.4802 23.8551 11.0273 23.8551 10.5664 23.8551C10.0731 23.8551 10.0003 23.7824 10.0003 23.2972C10.0003 20.8549 10.0003 18.4208 10.0003 15.9786C10.0084 14.895 10.0165 13.8195 10.0003 12.7439C9.99223 12.3315 10.1378 12.0727 10.5017 11.8625C12.669 10.6414 14.8362 9.41217 16.9954 8.1668C17.3755 7.94846 17.6989 7.94037 18.0871 8.1668C20.2543 9.42025 22.4297 10.6575 24.6131 11.8867C24.9447 12.0727 25.0902 12.3153 25.0902 12.6954C25.0741 14.4583 25.0821 16.2212 25.0821 17.9841Z" fill="white"/>
<path d="M17.5287 21.2108C17.27 21.2108 17.0193 21.2108 16.7605 21.2108C16.4694 21.2108 16.3076 21.0814 16.3157 20.7741C16.3238 20.2889 16.3238 19.8037 16.3157 19.3265C16.3157 19.0435 16.4532 18.8979 16.7281 18.8979C17.2538 18.8899 17.7794 18.8979 18.297 18.8979C18.5719 18.8979 18.7256 19.0273 18.7256 19.3104C18.7256 19.8037 18.7256 20.305 18.7256 20.7983C18.7256 21.0895 18.5638 21.2108 18.297 21.2108C18.0382 21.2108 17.7875 21.2108 17.5287 21.2108Z" fill="white"/>
<path d="M17.5456 21.5828C18.8718 21.5908 18.7182 21.4291 18.7263 22.7634C18.7344 24.0007 18.8314 23.8875 17.6022 23.8875C17.3192 23.8875 17.0361 23.8875 16.7531 23.8875C16.4781 23.8875 16.3245 23.7662 16.3164 23.4831C16.3164 22.9898 16.3164 22.4885 16.3164 21.9952C16.3164 21.7121 16.4539 21.5747 16.745 21.5828C17.0119 21.5828 17.2787 21.5828 17.5456 21.5828Z" fill="white"/>
<path d="M15.8715 20.0544C15.8715 20.2565 15.8715 20.4587 15.8715 20.6609C15.8635 21.1299 15.7988 21.2108 15.3459 21.2108C14.8769 21.2189 14.4078 21.2108 13.9388 21.2108C13.6315 21.2108 13.4698 21.0814 13.4779 20.7498C13.494 20.2808 13.494 19.8118 13.4779 19.3427C13.4698 19.0354 13.6153 18.8979 13.9065 18.8979C14.4159 18.8979 14.9254 18.8979 15.4349 18.8979C15.726 18.8979 15.8877 19.0273 15.8715 19.3346C15.8635 19.5692 15.8715 19.8118 15.8715 20.0544Z" fill="white"/>
<path d="M14.6341 16.1808C15.8309 16.0595 15.8713 16.0918 15.8713 17.2725C15.8713 17.5394 15.8713 17.8143 15.8713 18.0812C15.8713 18.34 15.75 18.4774 15.4751 18.4774C14.9333 18.4774 14.3996 18.4774 13.8577 18.4774C13.5828 18.4774 13.4777 18.3319 13.4696 18.0731C13.4696 17.5717 13.4534 17.0784 13.4453 16.577C13.4453 16.3021 13.5504 16.1484 13.8577 16.1727C14.1246 16.197 14.3834 16.1808 14.6341 16.1808Z" fill="white"/>
<path d="M14.6584 23.8956C13.316 23.8875 13.4778 24.0169 13.4778 22.7068C13.4778 21.4453 13.3484 21.5908 14.5938 21.5827C14.893 21.5827 15.1841 21.5827 15.4833 21.5827C15.7421 21.5827 15.8795 21.7121 15.8795 21.979C15.8795 22.4723 15.8795 22.9737 15.8795 23.467C15.8795 23.7743 15.7178 23.8956 15.4267 23.8956C15.1679 23.8875 14.9091 23.8956 14.6584 23.8956Z" fill="white"/>
<path d="M20.3758 21.5827C20.6426 21.5827 20.9095 21.5827 21.1844 21.5827C21.4917 21.5746 21.6211 21.7283 21.613 22.0275C21.6049 22.5127 21.613 22.9898 21.613 23.475C21.613 23.7581 21.4675 23.8956 21.1925 23.8956C20.6669 23.8956 20.1493 23.8956 19.6237 23.8956C19.3326 23.8956 19.2113 23.7419 19.2113 23.467C19.2113 22.9817 19.2193 22.4965 19.2113 22.0194C19.2032 21.7121 19.3487 21.5746 19.6479 21.5827C19.8986 21.5908 20.1331 21.5827 20.3758 21.5827Z" fill="white"/>
</svg>
