<svg id="Capa_1" data-name="Capa 1" xmlns="http://www.w3.org/2000/svg" width="17" height="17" viewBox="0 0 17 17"><defs><style>.cls-1{fill:#2c77bb;}</style></defs><title>telephone</title><g id="call"><path class="cls-1" d="M3.45,7.42a14.74,14.74,0,0,0,6.23,6.23l2.07-2.07a.77.77,0,0,1,.95-.2,9.55,9.55,0,0,0,3.4.56.91.91,0,0,1,.95,1V16.1a.91.91,0,0,1-.95.95A16.06,16.06,0,0,1,.05,1,.91.91,0,0,1,1,.05H4.3a.9.9,0,0,1,.94,1A11.21,11.21,0,0,0,5.8,4.4a1.19,1.19,0,0,1-.19.95Z" transform="translate(-0.05 -0.05)"/></g></svg>