<svg width="14" height="14" viewBox="0 0 14 14" fill="none" xmlns="http://www.w3.org/2000/svg">
<path d="M7.36287 3.30038C8.31782 3.30038 9.09196 2.56157 9.09196 1.65019C9.09196 0.738815 8.31782 0 7.36287 0C6.40793 0 5.63379 0.738815 5.63379 1.65019C5.63379 2.56157 6.40793 3.30038 7.36287 3.30038Z" fill="#0090FF"/>
<path d="M7.36238 14C7.91687 14 8.36637 13.571 8.36637 13.0418C8.36637 12.5126 7.91687 12.0836 7.36238 12.0836C6.8079 12.0836 6.3584 12.5126 6.3584 13.0418C6.3584 13.571 6.8079 14 7.36238 14Z" fill="#0090FF"/>
<path d="M3.12328 4.79089C3.98581 4.79089 4.68503 4.12358 4.68503 3.3004C4.68503 2.47722 3.98581 1.80991 3.12328 1.80991C2.26074 1.80991 1.56152 2.47722 1.56152 3.3004C1.56152 4.12358 2.26074 4.79089 3.12328 4.79089Z" fill="#0090FF"/>
<path d="M11.5456 12.1901C12.0077 12.1901 12.3823 11.8326 12.3823 11.3916C12.3823 10.9507 12.0077 10.5932 11.5456 10.5932C11.0836 10.5932 10.709 10.9507 10.709 11.3916C10.709 11.8326 11.0836 12.1901 11.5456 12.1901Z" fill="#0090FF"/>
<path d="M1.39442 8.67682C2.16454 8.67682 2.78884 8.08101 2.78884 7.34603C2.78884 6.61105 2.16454 6.01523 1.39442 6.01523C0.624304 6.01523 0 6.61105 0 7.34603C0 8.08101 0.624304 8.67682 1.39442 8.67682Z" fill="#0090FF"/>
<path d="M13.3305 7.98478C13.7001 7.98478 13.9998 7.69879 13.9998 7.346C13.9998 6.99321 13.7001 6.70721 13.3305 6.70721C12.9608 6.70721 12.6611 6.99321 12.6611 7.346C12.6611 7.69879 12.9608 7.98478 13.3305 7.98478Z" fill="#0090FF"/>
<path d="M2.28681 10.5399C1.84059 10.9658 1.84059 11.711 2.28681 12.1369C2.73303 12.5627 3.5139 12.5627 3.96012 12.1369C4.40633 11.711 4.40633 10.9658 3.96012 10.5399C3.5139 10.1141 2.73303 10.1141 2.28681 10.5399Z" fill="#0090FF"/>
<path d="M11.5459 3.77946C11.8232 3.77946 12.0479 3.56497 12.0479 3.30038C12.0479 3.03578 11.8232 2.82129 11.5459 2.82129C11.2687 2.82129 11.0439 3.03578 11.0439 3.30038C11.0439 3.56497 11.2687 3.77946 11.5459 3.77946Z" fill="#0090FF"/>
</svg>
