<svg width="100" height="100" viewBox="0 0 100 100" fill="none" xmlns="http://www.w3.org/2000/svg">
<path d="M50 100C77.6142 100 100 77.6142 100 50C100 22.3858 77.6142 0 50 0C22.3858 0 0 22.3858 0 50C0 77.6142 22.3858 100 50 100Z" fill="#D8F3FF"/>
<path d="M50 100C22.3857 100 0 77.6143 0 50C0 22.3857 22.3857 0 50 0C77.6143 0 100 22.3857 100 50C99.9691 77.6014 77.6014 99.9691 50 100ZM50 3.84609C24.51 3.84609 3.84609 24.51 3.84609 50C3.84609 75.49 24.51 96.1539 50 96.1539C75.49 96.1539 96.1539 75.49 96.1539 50C96.1246 24.5221 75.4779 3.87539 50 3.84609Z" fill="#2C77BB"/>
<path d="M44.2301 67.3076C43.794 67.3078 43.3707 67.1594 43.0301 66.8869L23.7992 51.5023C22.9731 50.8381 22.8402 49.6305 23.5022 48.8023C24.1641 47.9742 25.3713 47.8379 26.2012 48.4975L44.0065 62.7422L73.5625 29.4922C74.2678 28.6982 75.4832 28.6263 76.2772 29.3316C77.0711 30.0369 77.143 31.2523 76.4377 32.0463L45.6686 66.6617C45.3035 67.073 44.7799 67.3082 44.2301 67.3076Z" fill="#2C77BB"/>
</svg>
