<svg width="28" height="28" viewBox="0 0 28 28" fill="none" xmlns="http://www.w3.org/2000/svg">
<path d="M26.8824 8.55017C25.4062 5.10851 22.8976 2.60548 19.4272 1.12537C17.6927 0.385614 15.8755 0.00775146 13.977 0.00775146C12.0788 0.00775146 10.275 0.382046 8.54242 1.12537C5.10076 2.60155 2.58108 5.10297 1.10225 8.55017C0.361209 10.2772 0 12.0865 0 13.9847C0 15.8832 0.361209 17.7075 1.10225 19.4349C2.58108 22.8821 5.10108 25.3986 8.54242 26.8751C10.2754 27.6184 12.0788 27.9924 13.977 27.9924C15.8752 27.9924 17.6927 27.6145 19.4269 26.8751C22.8973 25.395 25.4059 22.8763 26.8824 19.4349C27.6257 17.702 28 15.8832 28 13.9847C28 12.0865 27.626 10.2831 26.8824 8.55017ZM24.6475 20.1698C23.5485 22.0545 22.0429 23.5497 20.1467 24.6552C18.2619 25.7542 16.1969 26.3085 13.9773 26.3085C12.3087 26.3085 10.7166 25.9871 9.20084 25.3287C7.68513 24.6706 6.37645 23.8055 5.28171 22.711C4.18696 21.6163 3.31562 20.2948 2.66407 18.7765C2.01444 17.2638 1.69963 15.6536 1.69963 13.9847C1.69963 11.7649 2.24503 9.71025 3.33786 7.83073C4.43457 5.94434 5.94048 4.44753 7.8233 3.34524C9.7058 2.24299 11.7575 1.69169 13.977 1.69169C16.1969 1.69169 18.2616 2.24624 20.1464 3.34524C22.0426 4.45078 23.5449 5.94755 24.6472 7.83068C25.7494 9.7135 26.3004 11.7649 26.3004 13.9847C26.3004 16.2046 25.753 18.2732 24.6475 20.1698Z" fill="#2C77BB"/>
<path d="M14.8648 13.8622V5.93209C14.8648 5.45756 14.4513 5.0748 13.9767 5.0748C13.5329 5.0748 13.1348 5.45756 13.1348 5.93209V13.9846C13.1348 14 13.1655 14.0614 13.1655 14.1071C13.1348 14.3827 13.2115 14.6124 13.3951 14.7963L17.9727 19.3735C18.279 19.6798 18.8453 19.6798 19.1514 19.3735C19.5034 19.0215 19.4802 18.5106 19.1514 18.1795L14.8648 13.8622Z" fill="#2C77BB"/>
</svg>
