<svg width="40" height="40" viewBox="0 0 40 40" fill="none" xmlns="http://www.w3.org/2000/svg">
<path d="M20 40C31.0457 40 40 31.0457 40 20C40 8.9543 31.0457 0 20 0C8.9543 0 0 8.9543 0 20C0 31.0457 8.9543 40 20 40Z" fill="#0F61A7"/>
<path d="M15.897 23.103C15.897 25.388 17.75 27.241 20.034 27.241C22.319 27.241 24.172 25.388 24.172 23.103C24.172 20.819 22.319 18.966 20.034 18.966C17.75 18.97 15.901 20.819 15.897 23.103ZM20.034 20.345C21.556 20.345 22.793 21.582 22.793 23.103C22.793 24.625 21.556 25.862 20.034 25.862C18.513 25.862 17.276 24.625 17.276 23.103C17.276 21.582 18.513 20.345 20.034 20.345Z" fill="white"/>
<path d="M28.31 17.586H25.552V18.966H28.31V17.586Z" fill="white"/>
<path d="M31.069 20.345H29.69V21.724H31.069V20.345Z" fill="white"/>
<path d="M31.069 23.103H29.69V24.483H31.069V23.103Z" fill="white"/>
<path d="M24.711 14.828L24.022 12.069H20.034V13.448H22.944L23.634 16.207H29.69V18.966H31.069V14.828H24.711Z" fill="white"/>
<path d="M29.69 28.621H10.379V19.655H9V30H31.069V25.862H29.69V28.621Z" fill="white"/>
<path d="M11.759 19.655H15.897V16.897H18.655V12.759H15.897V10H11.759V12.759H9V16.897H11.759V19.655ZM10.379 15.517V14.138H13.138V11.379H14.517V14.138H17.276V15.517H14.517V18.276H13.138V15.517H10.379Z" fill="white"/>
</svg>
