<svg width="40" height="40" viewBox="0 0 40 40" fill="none" xmlns="http://www.w3.org/2000/svg">
<path d="M20 40C31.0457 40 40 31.0457 40 20C40 8.9543 31.0457 0 20 0C8.9543 0 0 8.9543 0 20C0 31.0457 8.9543 40 20 40Z" fill="#DC0000"/>
<path d="M27.447 11.591H24.406V9.68201C24.406 9.29801 24.085 9 23.688 9C23.65 9 23.624 9.011 23.612 9.026C23.6 9.011 23.574 9 23.559 9H16.412H16.362H16.309C15.912 9 15.603 9.29801 15.603 9.68201V11.591H12.553C11.679 11.591 11 12.248 11 13.091V14.182V15.546H12.347V29.514C12.347 30.358 13.015 31 13.885 31H26.112C26.985 31 27.665 30.355 27.665 29.514V15.543H29V14.18V13.091C29 12.248 28.321 11.591 27.447 11.591ZM17.018 10.364H22.982V11.591H17.018V10.364ZM26.241 29.511C26.241 29.599 26.203 29.636 26.112 29.636H13.885C13.794 29.636 13.756 29.599 13.756 29.511V15.543H26.238V29.511H26.241ZM27.576 14.18H12.424V13.091C12.424 13.003 12.462 12.955 12.553 12.955H27.447C27.538 12.955 27.576 13.003 27.576 13.091V14.18Z" fill="white"/>
<path d="M24.009 17.143H22.585V28.42H24.009V17.143Z" fill="white"/>
<path d="M20.724 17.143H19.3V28.42H20.724V17.143Z" fill="white"/>
<path d="M17.441 17.143H16.018V28.42H17.441V17.143Z" fill="white"/>
</svg>
