<svg width="570" height="427" viewBox="0 0 570 427" fill="none" xmlns="http://www.w3.org/2000/svg">
<path d="M193.599 426.67C220.695 426.67 242.66 424.616 242.66 422.083C242.66 419.549 220.695 417.496 193.599 417.496C166.504 417.496 144.539 419.549 144.539 422.083C144.539 424.616 166.504 426.67 193.599 426.67Z" fill="#F2E6FF"/>
<path d="M445.628 426.67C472.723 426.67 494.688 424.616 494.688 422.083C494.688 419.549 472.723 417.496 445.628 417.496C418.532 417.496 396.567 419.549 396.567 422.083C396.567 424.616 418.532 426.67 445.628 426.67Z" fill="#F2E6FF"/>
<path d="M549.283 99.1103C549.143 98.259 548.99 97.4204 548.825 96.569" stroke="#C8DBFB" stroke-linecap="round" stroke-linejoin="round"/>
<path d="M547.62 91.6262C538.861 61.7915 510.961 64.6758 485.739 64.7267L38.2819 65.6542C-3.94929 65.7305 0.201478 126.772 33.2045 126.709C52.2447 126.709 59.4546 162.414 26.5785 162.477C6.85286 162.477 6.26896 187.547 19.4829 192.566" stroke="#C8DBFB" stroke-linecap="round" stroke-linejoin="round" stroke-dasharray="3.99 3.99"/>
<path d="M21.9199 193.214C22.7583 193.359 23.6077 193.432 24.4586 193.43" stroke="#C8DBFB" stroke-linecap="round" stroke-linejoin="round"/>
<path d="M29.6371 192.274C29.8383 193.46 29.6835 194.68 29.1925 195.778C28.7014 196.877 27.896 197.805 26.8782 198.445C25.8603 199.086 24.6757 199.41 23.4739 199.376C22.2722 199.343 21.1073 198.954 20.1265 198.258C19.1457 197.562 18.393 196.59 17.9636 195.466C17.5342 194.342 17.4473 193.116 17.7139 191.943C17.9805 190.769 18.5887 189.701 19.4615 188.873C20.3343 188.046 21.4326 187.496 22.6176 187.293C24.208 187.024 25.84 187.398 27.1558 188.331C28.4716 189.265 29.364 190.683 29.6371 192.274V192.274Z" fill="#7800FF"/>
<path d="M555.261 101.791C555.046 102.976 554.484 104.07 553.647 104.935C552.811 105.8 551.736 106.397 550.561 106.65C549.385 106.904 548.16 106.803 547.042 106.36C545.924 105.917 544.962 105.152 544.278 104.161C543.594 103.171 543.219 102 543.2 100.796C543.181 99.5921 543.519 98.4097 544.172 97.3983C544.825 96.387 545.762 95.5921 546.866 95.1143C547.97 94.6364 549.191 94.4971 550.374 94.7139C551.958 95.0075 553.361 95.9168 554.277 97.2431C555.192 98.5693 555.546 100.205 555.261 101.791V101.791Z" fill="#7800FF"/>
<path d="M91.6071 147.827C90.7119 152.754 89.4691 157.612 87.888 162.363C84.3172 172.614 80.0769 182.618 75.1945 192.312C72.7446 197.395 62.8057 209.237 57.4236 211.486C58.2156 197.368 57.9228 183.209 56.5478 169.136C55.0627 156.175 59.7212 146.353 54.6438 134.333C53.9964 132.795 53.3744 131.258 52.6509 129.72C50.1122 124.002 47.5735 118.284 46.8373 112.096C45.8218 104.282 48.2463 95.3746 54.9992 91.3085C59.8608 88.3861 66.1948 88.5385 71.3864 90.8384C76.5265 93.3301 80.8633 97.2179 83.9022 102.058C92.7876 115.222 94.387 132.223 91.6071 147.827Z" fill="#7800FF"/>
<path d="M67.9844 104.65C77.936 118.704 78.7865 135.07 79.6497 152.274C80.482 169.572 76.4069 186.752 67.8955 201.829" stroke="#0B43A4" stroke-linecap="round" stroke-linejoin="round"/>
<path d="M67.5785 363.836C60.6098 357.674 53.6157 351.422 48.4114 343.671C43.9306 336.924 41.0365 329.262 37.1269 322.159C34.5882 317.572 31.6052 313.15 30.1455 308.106C28.6857 303.061 29.0285 297.115 32.5953 293.278C36.1622 289.44 42.7501 288.665 47.8275 290.736C52.9049 292.807 56.7129 297.089 59.7213 301.664C63.6487 307.802 66.2434 314.698 67.3373 321.905C68.3274 328.411 68.0863 335.056 69.089 341.562C70.1181 347.603 71.9852 353.471 74.6361 358.995C76.959 364.078 82.8488 372.972 84.3593 378.182C80.1831 380.253 70.5488 366.467 67.5785 363.836Z" fill="#76B82A"/>
<g style="mix-blend-mode:multiply">
<path d="M43.1943 299.936C49.8203 302.833 52.4479 310.749 53.8315 317.852C55.4054 325.933 55.1008 334.688 58.7565 341.994C65.7379 355.857 74.8138 371.626 81.6048 376.301" stroke="#474747" stroke-linecap="round" stroke-linejoin="round"/>
</g>
<path d="M33.2928 344.878C27.5046 342.604 19.787 341.664 16.0805 346.657C12.9833 350.838 14.5826 356.759 16.7278 361.511C18.543 365.514 20.8405 369.592 24.6613 371.765C27.3573 373.098 30.2916 373.88 33.2928 374.065C41.6087 375.049 49.976 375.533 58.3497 375.514C68.9611 375.783 79.2419 379.265 87.8366 385.501C77.5295 366.34 52.7519 352.579 33.2928 344.878Z" fill="#7800FF"/>
<path d="M23.1514 357.343C30.5136 357.661 37.9393 358.169 44.9968 360.266C52.0544 362.363 80.0054 375.171 84.3466 380.596" stroke="#21330C" stroke-linecap="round" stroke-linejoin="round"/>
<path d="M96.3542 305.552C92.5392 299.66 87.5054 294.657 81.5929 290.88C75.6803 287.103 69.0268 284.641 62.0819 283.659C51.8509 282.286 41.328 284.205 31.224 282.07C25.9007 280.946 20.8681 278.728 16.4442 275.558C12.0203 272.388 8.30125 268.334 5.5219 263.652C2.74256 258.97 0.963329 253.762 0.296593 248.357C-0.370143 242.951 0.0901044 237.467 1.64826 232.248C4.02194 224.345 9.44205 216.861 17.2866 214.32C21.6296 213.06 26.2337 213.012 30.6021 214.18C34.5891 215.171 38.385 216.815 41.8358 219.046C49.7311 224.053 56.1159 231.753 60.876 239.936C65.2298 247.369 75.9685 258.996 83.2799 266.467C87.5576 270.876 90.6802 273.875 90.6802 273.875C95.7322 280.114 93.3839 298.119 96.3542 305.552Z" fill="#76B82A"/>
<path d="M15.002 237.179C39.5892 248.284 66.4105 262.846 83.8386 283.455" stroke="#474747" stroke-linecap="round" stroke-linejoin="round"/>
<g style="mix-blend-mode:multiply" opacity="0.2">
<path d="M86.1996 280.685C86.1996 280.685 49.5409 250.952 41.8359 219.046C49.7313 224.053 56.1161 231.753 60.8761 239.936C65.23 247.369 75.9687 258.996 83.2801 266.467C84.1813 270.469 85.0826 275.145 86.1996 280.685Z" fill="#5275A0"/>
</g>
<g style="mix-blend-mode:multiply" opacity="0.2">
<path d="M87.8874 162.363C84.3167 172.614 80.0764 182.618 75.194 192.312C72.7441 197.395 62.8052 209.237 57.4231 211.486C58.2151 197.368 57.9223 183.209 56.5473 169.136C55.0621 156.175 59.7206 146.353 54.6433 134.333C53.9959 132.795 53.3739 131.258 52.6504 129.72C53.12 129.873 53.577 130.038 54.0213 130.228C62.3736 133.812 66.2324 142.655 66.9432 151.245C67.5398 158.335 66.2578 165.438 65.3058 172.49C64.7014 175.716 64.6671 179.023 65.2042 182.261C65.2099 182.295 65.2099 182.329 65.2042 182.363C65.4143 183.169 65.8929 183.879 66.5609 184.376C67.2289 184.873 68.0464 185.127 68.8781 185.096C69.7098 185.065 70.5061 184.751 71.1352 184.205C71.7643 183.66 72.1886 182.916 72.338 182.096L74.6228 170.266C75.2828 166.734 76.0064 163.036 78.9005 160.571C80.0335 159.566 81.4993 159.018 83.0132 159.034C84.0536 159.084 85.0599 159.421 85.9203 160.009C86.7808 160.597 87.4617 161.411 87.8874 162.363Z" fill="#5275A0"/>
</g>
<path d="M86.1997 273.189C80.4115 242.935 77.3777 238.271 79.9164 230.698C83.166 221.029 81.3381 211.308 84.3972 201.588C87.4564 191.867 89.5381 181.448 87.0756 171.537C86.2886 168.411 84.7146 165.006 80.9573 164.866C79.4367 164.864 77.9701 165.431 76.8446 166.454C73.9505 168.92 73.2143 172.617 72.5542 176.149L70.3456 187.954C70.1962 188.773 69.7719 189.517 69.1428 190.063C68.5137 190.609 67.7174 190.923 66.8857 190.954C66.054 190.985 65.2365 190.731 64.5685 190.234C63.9005 189.737 63.4219 189.027 63.2118 188.221V188.119C62.6702 184.882 62.7003 181.575 63.3007 178.348C64.2527 171.296 65.5347 164.193 64.9508 157.103C64.24 148.513 60.3812 139.669 52.0162 136.086C49.0442 134.807 45.7342 134.544 42.5976 135.336C33.8772 137.573 31.6178 146.111 32.8998 153.392C33.7884 158.475 36.2001 163.24 38.3707 167.967C43.6766 179.517 39.7797 190.114 40.5159 202.808C42.5215 237.801 86.1997 273.189 86.1997 273.189Z" fill="#76B82A"/>
<path d="M47.2812 144.46C51.5843 165.984 55.9382 187.662 64.2905 207.992C66.7403 213.951 67.9462 221.778 82.1248 237.979" stroke="#474747" stroke-linecap="round" stroke-linejoin="round"/>
<path d="M215.152 149.936C210.697 144.854 206.584 139.657 202.256 134.688C199.451 131.448 196.557 128.335 193.37 125.286C191.809 123.786 190.197 122.338 188.496 120.927C178.432 112.596 167.229 105.75 155.227 100.597C147.991 97.4966 140.35 94.9426 134.206 89.9998C128.063 85.057 123.683 76.963 125.702 69.3518C127.187 63.8626 131.845 59.5933 137.126 57.6365C142.558 55.8701 148.376 55.6632 153.919 57.0393C169.405 60.381 182.34 71.5246 191.136 84.7012L191.606 85.4128C198.054 95.2603 202.561 106.213 206.483 117.369C207.752 120.953 208.933 124.561 210.113 128.157C212.017 133.532 217.437 144.65 215.152 149.936Z" fill="#7800FF"/>
<path d="M144.311 69.9744C161.206 73.2019 173.163 84.3962 185.691 96.1878C198.278 108.081 207.246 123.297 211.561 140.076" stroke="#474747" stroke-linecap="round" stroke-linejoin="round"/>
<g style="mix-blend-mode:multiply" opacity="0.2">
<path d="M202.256 134.688C202.102 136.453 202.183 138.231 202.497 139.974C198.27 139.009 195.338 132.439 193.408 125.286C191.876 119.401 190.831 113.4 190.286 107.344C189.718 100.003 190.197 92.6187 191.708 85.4128C198.156 95.2602 202.662 106.213 206.584 117.369C205.239 121.368 204.088 125.417 203.132 129.517C202.712 131.217 202.419 132.945 202.256 134.688V134.688Z" fill="#5275A0"/>
</g>
<path d="M231.565 73.6974C230.143 80.0506 226.31 85.5144 222.946 91.0798C221.156 94.0023 219.506 97.0137 217.957 100.063C212.985 109.831 209.209 120.164 206.711 130.838C205.765 134.245 205.553 137.814 206.089 141.308C197.762 139.415 194.449 115.718 193.878 108.666C192.852 95.899 195.034 83.0784 200.225 71.3721C202.509 66.2895 205.442 61.207 209.973 58.0049C214.505 54.8029 220.89 53.5958 225.675 56.4421C228.501 58.1989 230.524 60.9959 231.311 64.2311C232.175 67.3172 232.262 70.5694 231.565 73.6974V73.6974Z" fill="#76B82A"/>
<path d="M202.904 134.269C197.725 121.245 200.86 93.6846 209.174 76.3658C211.713 71.1561 215.242 66.2006 220.23 63.3416" stroke="#474747" stroke-linecap="round" stroke-linejoin="round"/>
<g style="mix-blend-mode:multiply" opacity="0.2">
<path d="M231.566 73.6974C230.144 80.0506 226.31 85.5144 222.947 91.0798C221.157 94.0023 219.507 97.0137 217.958 100.063C215.635 96.2652 214.178 92 213.693 87.5728C212.995 80.1904 215.813 72.3251 221.804 67.9287C224.646 65.96 227.912 64.6929 231.337 64.2311C232.193 67.3193 232.271 70.5715 231.566 73.6974Z" fill="#5275A0"/>
</g>
<path d="M279.61 128.793C279.215 131.218 278.488 133.578 277.452 135.807C273.758 143.812 266.028 150.686 254.388 156.264C254.388 156.264 253.741 143.557 253.614 140.228C253.042 125.718 237.315 117.687 227.364 107.115C222.286 101.715 218.478 94.8918 217.742 87.522C217.006 80.1523 219.849 72.2743 225.853 67.8779C230.93 64.2565 237.455 63.456 243.624 63.9262C253.601 64.7267 263.667 68.9071 269.861 76.7088C270.125 76.9986 270.371 77.3041 270.598 77.6237C274.406 82.8206 276.348 89.1484 277.782 95.4127C280.283 106.366 281.4 117.725 279.61 128.793Z" fill="#76B82A"/>
<g style="mix-blend-mode:multiply">
<path d="M230.131 75.6669C241.009 81.2959 251.926 88.1192 258.26 98.6148C267.145 113.265 265.178 132.325 258.361 148.017" stroke="#474747" stroke-linecap="round" stroke-linejoin="round"/>
</g>
<path d="M461.761 222.363C468.704 210.927 465.15 196.226 467.575 183.062C469.488 172.849 474.996 163.661 483.099 157.166C488.176 153.151 495.234 150.279 500.946 153.354C502.215 154.002 503.65 154.93 504.843 154.193C505.168 153.933 505.438 153.609 505.637 153.243C505.835 152.876 505.958 152.473 505.998 152.058C507.445 144.942 504.03 137.179 506.823 130.457C508.321 126.861 511.431 124.104 514.718 122.071C521.104 118.008 528.446 115.703 536.005 115.387C538.004 115.179 540.022 115.485 541.87 116.277C545.094 117.89 546.566 121.918 546.135 125.502C545.488 129.075 543.897 132.409 541.527 135.159C534.241 144.701 523.566 152.948 522.157 164.866C521.885 166.367 522.067 167.916 522.677 169.313C523.337 170.584 524.581 171.537 525.279 172.833C527.526 176.963 523.185 181.639 518.933 183.672C515.052 185.526 510.875 186.683 506.594 187.09C503.65 187.369 500.337 187.433 498.331 189.631C494.65 193.646 498.89 200.063 498.115 205.463C497.633 208.83 495.183 211.55 492.733 213.913C488.178 218.296 483.204 222.22 477.882 225.628C473.566 228.398 468.996 230.838 465.188 234.256C461.38 237.674 458.283 242.274 458.029 247.395" fill="#76B82A"/>
<path d="M470.964 211.257C472.106 205.717 474.683 200.584 477.222 195.54C481.207 187.649 485.282 179.644 491.299 173.176C495.868 168.259 501.454 164.371 506.087 159.529C509.407 156.074 512.219 152.164 514.439 147.916C515.509 145.551 516.805 143.295 518.31 141.181C520.227 138.78 522.867 137.064 525.165 135.006C528.267 132.216 530.742 128.799 532.426 124.981" stroke="#474747" stroke-linecap="round" stroke-linejoin="round"/>
<path d="M561.418 230.317C559.857 236.34 557.534 242.299 553.548 247.077C550.746 250.324 547.384 253.04 543.622 255.095C541.681 256.192 539.676 257.172 537.618 258.03C529.653 261.375 521.153 263.26 512.523 263.595C499.982 264.065 487.136 261.295 475.052 264.866C469.52 266.528 464.455 269.466 460.264 273.443C457.645 275.896 455.407 278.726 453.625 281.842L455.262 271.422C458.296 260.215 461.393 248.805 467.588 238.983C471.721 232.691 476.668 226.974 482.3 221.982C491.043 213.715 500.952 206.779 511.71 201.397C520.443 197.153 530.141 194.167 539.788 195.349C549.435 196.531 558.828 202.617 561.9 211.867C563.83 217.801 562.992 224.282 561.418 230.317Z" fill="#7800FF"/>
<path d="M463.462 263.506C472.796 249.766 486.36 239.455 502.088 234.142C511.811 230.902 522.106 229.656 531.956 226.81C541.806 223.964 551.643 219.186 557.419 210.648" stroke="#474747" stroke-linecap="round" stroke-linejoin="round"/>
<path d="M469.53 363.595C470.076 349.618 477.311 336.645 486.107 325.717C493.432 316.607 502.279 308.271 513.208 304.116C516.623 302.845 520.38 301.931 523.934 302.845C527.488 303.76 530.712 306.772 530.776 310.469C530.839 313.557 528.758 316.263 526.574 318.449C519.402 325.654 510.073 330.266 501.416 335.526C486.463 344.573 472.221 356.657 466.318 373.099" fill="#76B82A"/>
<path d="M475.063 351.333C484.203 330.927 507.851 312.68 523.464 310.406" stroke="#474747" stroke-linecap="round" stroke-linejoin="round"/>
<path d="M463.817 374.739C463.69 372.388 471.344 366.251 473.071 364.675C482.556 356.103 493.779 349.684 505.972 345.857C510.821 344.332 515.974 343.227 520.836 344.396C525.698 345.565 530.14 349.554 530.623 354.802C531.105 360.05 527.678 364.853 523.324 367.318C518.97 369.783 513.893 370.152 509.044 369.859C501.555 369.415 494.192 367.559 486.665 367.61C479.138 367.661 468.59 368.487 463.817 374.739Z" fill="#76B82A"/>
<g style="mix-blend-mode:multiply">
<path d="M471.611 367.598C486.983 359.262 510.225 353.836 527.107 355.882" stroke="#474747" stroke-linecap="round" stroke-linejoin="round"/>
</g>
<g style="mix-blend-mode:multiply" opacity="0.2">
<path d="M279.61 128.793C279.215 131.218 278.489 133.578 277.452 135.807C270.889 121.745 267.059 106.562 266.168 91.0671C265.915 86.0133 267.213 81.0031 269.887 76.7088C270.15 76.9986 270.396 77.3041 270.623 77.6237C274.431 82.8206 276.373 89.1484 277.808 95.4127C280.283 106.366 281.4 117.725 279.61 128.793Z" fill="#5275A0"/>
</g>
<path d="M332.783 128.157C344.271 124.066 356.19 120.813 366.624 114.523C369.85 112.722 372.713 110.335 375.065 107.484C377.419 104.589 378.537 100.881 378.175 97.1662C377.667 93.4559 375.294 89.8981 376.093 86.226C376.626 83.8118 378.429 81.9312 379.812 79.8728C381.449 77.4201 382.53 74.6388 382.979 71.724C383.429 68.8091 383.236 65.8311 382.415 62.9986C380.612 56.9503 376.068 52.1092 373.529 46.3404C371.413 41.6008 370.67 36.3616 371.384 31.2198C361.75 31.3468 352.953 36.6073 343.458 38.3735C336.21 39.7077 328.671 38.9834 321.499 40.6352C314.954 42.2589 309.025 45.759 304.439 50.7065C299.853 55.654 296.809 61.8337 295.68 68.4878C292.628 67.9891 289.5 68.2421 286.568 69.2251C283.635 70.2081 280.986 71.8914 278.849 74.1294C276.596 76.5558 274.852 79.4091 273.718 82.521C272.584 85.6329 272.085 88.9405 272.248 92.2488C275.206 139.809 302.408 164.676 302.408 164.676C302.408 164.676 328.404 129.707 332.783 128.157Z" fill="#76B82A"/>
<path d="M307.104 127.814C305.91 116.086 310.01 104.498 314.72 93.6847C319.302 83.1383 324.57 72.808 331.653 63.7737C338.736 54.7394 347.735 46.963 358.309 42.6047" stroke="#474747" stroke-linecap="round" stroke-linejoin="round"/>
<path d="M317.373 49.7966C316.192 60.925 316.991 72.1748 319.734 83.0239" stroke="#474747" stroke-linecap="round" stroke-linejoin="round"/>
<path d="M321.638 79.2882C333.57 71.6644 351.924 66.9757 366.065 67.7762" stroke="#474747" stroke-linecap="round" stroke-linejoin="round"/>
<path d="M292.456 81.245C306.825 87.306 307.422 108.45 307.802 114.46" stroke="#474747" stroke-linecap="round" stroke-linejoin="round"/>
<path d="M311.712 101.016C322.704 93.1256 338.597 90.7495 350.287 93.6847" stroke="#00AD9F" stroke-linecap="round" stroke-linejoin="round"/>
<path d="M341.706 44.3709C338.91 47.8317 337.547 52.234 337.898 56.6708" stroke="#474747" stroke-linecap="round" stroke-linejoin="round"/>
<path d="M341.033 53.6848C346.111 51.1435 352.876 50.4954 360.073 52.3125" stroke="#474747" stroke-linecap="round" stroke-linejoin="round"/>
<path d="M58.4268 76.6834C59.785 76.6072 68.9877 69.7838 72.5292 67.4839C73.5682 66.8963 74.4892 66.1208 75.2456 65.1968C75.6169 64.7289 75.8591 64.1718 75.9482 63.581C76.0373 62.9902 75.9701 62.3863 75.7533 61.8296C75.4198 60.9795 74.8205 60.2603 74.0449 59.7793C73.2693 59.2984 72.3591 59.0815 71.4503 59.1612C66.8552 59.1612 65.2685 60.686 63.0345 62.9731C55.6342 70.6351 58.4268 76.6834 58.4268 76.6834Z" fill="#7800FF"/>
<path d="M99.6924 104.193C103.691 105.997 107.981 107.802 112.386 107.242C114.087 107.026 115.927 106.251 116.486 104.701C116.67 103.996 116.649 103.252 116.424 102.558C116.199 101.864 115.78 101.25 115.217 100.788C114.064 99.8828 112.709 99.2722 111.269 99.0086C105.938 97.738 98.4484 98.4242 93.1553 99.9235C95.2087 101.531 97.3957 102.959 99.6924 104.193Z" fill="#7800FF"/>
<path d="M126.095 44.9427C124.305 43.8118 122.287 42.2998 122.287 40.1778C122.287 38.0558 124.496 36.4421 126.616 36.4294C128.755 36.562 130.775 37.4646 132.302 38.9707C139.042 44.8919 138.205 51.6771 138.205 51.6771C138.205 51.6771 128.088 46.2006 126.095 44.9427Z" fill="#7800FF"/>
<path d="M131.414 26.8614C129.784 26.3106 128.353 25.2894 127.301 23.9263C127.066 23.5928 126.907 23.2118 126.834 22.8101C126.762 22.4084 126.778 21.9957 126.882 21.601C127.339 20.3303 128.152 19.0597 131.465 19.7077C141.937 21.6137 144.158 28.7928 144.158 28.7928C144.158 28.7928 134.194 28.0558 131.414 26.8614Z" fill="#7800FF"/>
<path d="M162.094 42.7318C166.43 42.3723 170.45 40.3127 173.277 37.0012C174.339 35.8059 175.109 34.3788 175.523 32.8335C175.719 32.0557 175.705 31.2399 175.482 30.4696C175.259 29.6993 174.835 29.0022 174.254 28.4498C173.463 27.8791 172.513 27.572 171.538 27.572C170.563 27.572 169.612 27.8791 168.821 28.4498C167.287 29.648 166.096 31.2303 165.369 33.0368C164.252 35.3494 162.094 42.7318 162.094 42.7318Z" fill="#7800FF"/>
<path d="M87.0886 196.06L56.6243 169.136C51.2041 164.345 45.6698 159.428 42.2426 153.062C34.8169 139.377 39.0692 121.601 49.0336 109.669C58.9979 97.738 73.6589 90.6986 88.2691 85.5779C102.879 80.4572 118.2 76.8613 132.176 70.0761C140.934 65.8321 149.82 59.4916 152.168 50.0507C152.893 47.1968 152.979 44.2178 152.421 41.3266C151.862 38.4354 150.673 35.7033 148.938 33.3254C147.203 30.9476 144.964 28.9826 142.383 27.5709C139.801 26.1591 136.94 25.3355 134.004 25.1588" stroke="#0B43A4" stroke-linecap="round" stroke-linejoin="round"/>
<path d="M169.202 33.0368C166.422 41.5882 155.595 46.7852 150.657 54.1803" stroke="#0B43A4" stroke-linecap="round" stroke-linejoin="round"/>
<path d="M130.335 42.808C132.467 45.0571 135.019 46.9122 136.885 49.4027C140.807 54.6504 141.137 63.1637 135.323 68.4623" stroke="#0B43A4" stroke-linecap="round" stroke-linejoin="round"/>
<path d="M75.5625 90.6224C84.8123 97.7548 95.9951 101.931 107.652 102.605" stroke="#0B43A4" stroke-linecap="round" stroke-linejoin="round"/>
<path d="M55.0247 103.227C53.069 97.0684 53.041 90.4583 54.9445 84.2832C56.848 78.1081 60.592 72.6631 65.6745 68.6783" stroke="#0B43A4" stroke-linecap="round" stroke-linejoin="round"/>
<path d="M383.036 51.7025C382.739 50.9614 382.643 50.1545 382.759 49.3642C382.875 48.5739 383.198 47.8286 383.696 47.2045C384.145 46.7489 384.715 46.4323 385.339 46.2926C385.962 46.1529 386.613 46.196 387.212 46.4167C396.098 50.3556 395.171 64.2819 395.171 64.2819C395.171 64.2819 386.705 63.0621 383.036 51.7025Z" fill="#7800FF"/>
<path d="M382.82 77.8016C377.032 88.2463 397.57 87.4458 404.958 81.3213C404.958 81.3213 387.796 68.8181 382.82 77.8016Z" fill="#7800FF"/>
<path d="M408.766 52.4903C407.369 50.5844 406.874 47.7381 408.385 45.9211C408.994 45.2806 409.759 44.8101 410.605 44.556C411.45 44.302 412.348 44.2732 413.208 44.4726C415.296 45.0268 417.178 46.1742 418.628 47.7762C425.381 56.1879 422.208 64.4217 422.208 64.4217C422.208 64.4217 411.038 55.6288 408.766 52.4903Z" fill="#7800FF"/>
<path d="M490.233 78.348C489.928 77.5518 489.849 76.687 490.004 75.8487C490.158 75.0103 490.541 74.2308 491.109 73.5958C491.526 73.2547 492.007 73.0003 492.523 72.8476C493.04 72.6949 493.582 72.6468 494.117 72.7063C495.187 72.8275 496.227 73.1372 497.189 73.6212C499.265 74.5857 500.936 76.2498 501.911 78.3226C504.45 83.5576 502.723 90.0252 502.723 90.0252C502.723 90.0252 491.477 82.4013 490.233 78.348Z" fill="#7800FF"/>
<path d="M464.617 97.5093C462.772 95.9166 460.523 94.8667 458.119 94.4764C455.715 94.0861 453.249 94.3707 450.997 95.2984C449.858 95.7681 448.864 96.5309 448.115 97.5093C446.503 99.7456 447.062 103.037 448.75 105.235C450.584 107.319 452.897 108.923 455.49 109.911C460.06 111.982 467.143 112.452 471.992 113.634C471.979 113.634 471.966 103.977 464.617 97.5093Z" fill="#7800FF"/>
<path d="M389.434 53.9389C392.455 63.8372 400.997 71.2959 410.505 75.3365C420.012 79.3772 430.484 80.4191 440.804 81.1053C451.124 81.7914 461.532 82.0964 471.51 84.8155C481.22 87.4458 490.892 92.9477 495.069 102.122C500.146 113.291 495.652 126.632 488.519 136.62C481.385 146.607 471.801 154.637 464.909 164.777C461.748 169.428 459.108 174.879 459.743 180.482C460.593 187.941 466.876 193.43 472.703 198.157" stroke="#0B43A4" stroke-linecap="round" stroke-linejoin="round"/>
<path d="M413.196 50.3175C420.398 58.6873 425.116 68.9075 426.816 79.8219" stroke="#0B43A4" stroke-linecap="round" stroke-linejoin="round"/>
<path d="M390.221 79.5297C394.084 80.7356 398.085 81.4402 402.127 81.6262C406.488 81.3884 410.616 79.5837 413.754 76.5436" stroke="#0B43A4" stroke-linecap="round" stroke-linejoin="round"/>
<path d="M496.922 78.9706C500.606 82.5648 502.777 87.4339 502.989 92.5792C503.18 97.6618 500.362 103.837 496.973 107.636" stroke="#0B43A4" stroke-linecap="round" stroke-linejoin="round"/>
<path d="M458.626 102.058C465.47 108.522 472.752 114.504 480.421 119.962C484.14 122.579 491.502 125.921 494.764 125.044" stroke="#0B43A4" stroke-linecap="round" stroke-linejoin="round"/>
<g style="mix-blend-mode:multiply" opacity="0.2">
<path d="M543.621 255.095C541.68 256.192 539.675 257.172 537.617 258.03C529.652 261.375 521.152 263.26 512.522 263.595C499.981 264.065 487.135 261.295 475.051 264.866C469.519 266.528 464.454 269.466 460.263 273.443C459.844 273.646 459.425 273.875 458.993 274.116C457.991 265.616 479.163 254.536 485.65 251.651C497.331 246.404 510.139 244.168 522.905 245.146C528.465 245.59 534.164 246.683 538.746 249.847C540.726 251.229 542.387 253.018 543.621 255.095V255.095Z" fill="#5275A0"/>
</g>
<path d="M522.854 250.241C528.414 250.686 534.113 251.778 538.708 254.942C543.303 258.106 546.527 263.76 545.449 269.237C544.179 275.59 537.617 279.758 531.168 280.546C524.72 281.333 518.285 279.542 511.925 278.271C497.828 275.37 483.363 274.705 469.059 276.302C465.535 276.559 462.105 277.56 458.993 279.237C457.991 270.736 479.176 259.656 485.65 256.772C497.313 251.524 510.103 249.278 522.854 250.241V250.241Z" fill="#76B82A"/>
<path d="M464.503 273.849C475.026 264.599 502.012 258.322 521.103 260.342C526.853 260.952 532.654 262.668 537.071 266.403" stroke="#474747" stroke-linecap="round" stroke-linejoin="round"/>
<path d="M444.866 169.911L547.531 169.695C550.397 169.688 553.237 170.247 555.888 171.339C558.539 172.431 560.948 174.036 562.979 176.061C565.01 178.086 566.623 180.491 567.725 183.14C568.827 185.789 569.397 188.629 569.402 191.499C569.412 197.29 567.124 202.847 563.042 206.951C558.96 211.054 553.417 213.366 547.632 213.379L477.4 213.519" stroke="#7800FF" stroke-linecap="round" stroke-linejoin="round" stroke-dasharray="4 4"/>
<path d="M134.206 245.374L62.3989 245.527C60.7766 245.53 59.171 245.854 57.6743 246.481C56.1775 247.107 54.8192 248.023 53.6774 249.177C52.5356 250.331 51.6328 251.699 51.0209 253.203C50.4089 254.707 50.0999 256.317 50.1116 257.941V257.941C50.115 259.559 50.4368 261.162 51.0586 262.656C51.6805 264.15 52.5902 265.507 53.7359 266.649C54.8816 267.791 56.2408 268.696 57.7359 269.312C59.231 269.929 60.8328 270.244 62.4497 270.241H83.3812" stroke="#0B43A4" stroke-linecap="round" stroke-linejoin="round" stroke-dasharray="4 4"/>
<path d="M19.5969 301.041C-5.04112 301.143 -5.51078 337.814 25.7786 337.75L487.034 336.797C506.404 336.797 508.448 306.518 484.495 306.569C436.869 306.67 435.282 283.926 461.723 283.875" stroke="#C8DBFB" stroke-linecap="round" stroke-linejoin="round" stroke-dasharray="4 4"/>
<path d="M25.3476 300.012C25.5517 301.199 25.3995 302.42 24.9101 303.52C24.4206 304.621 23.616 305.551 22.5982 306.193C21.5803 306.836 20.3949 307.161 19.1921 307.129C17.9892 307.097 16.823 306.708 15.8411 306.011C14.8592 305.315 14.1058 304.343 13.6761 303.218C13.2465 302.093 13.1601 300.865 13.4277 299.691C13.6953 298.517 14.3051 297.448 15.1796 296.621C16.0542 295.794 17.1544 295.245 18.3408 295.044C19.9278 294.775 21.5565 295.147 22.87 296.078C24.1835 297.009 25.0744 298.424 25.3476 300.012V300.012Z" fill="#7800FF"/>
<path d="M473.502 284.04C473.704 285.226 473.549 286.446 473.058 287.544C472.567 288.643 471.761 289.571 470.743 290.211C469.726 290.852 468.541 291.176 467.339 291.142C466.137 291.109 464.973 290.72 463.992 290.024C463.011 289.328 462.258 288.356 461.829 287.232C461.399 286.108 461.313 284.882 461.579 283.709C461.846 282.535 462.454 281.467 463.327 280.639C464.2 279.812 465.298 279.262 466.483 279.059C467.271 278.922 468.078 278.943 468.858 279.12C469.638 279.296 470.375 279.626 471.027 280.089C471.679 280.551 472.234 281.139 472.659 281.817C473.084 282.495 473.37 283.251 473.502 284.04V284.04Z" fill="#0B43A4"/>
<g style="mix-blend-mode:multiply" opacity="0.2">
<path d="M480.154 390.228L98.2203 391.016C95.775 391.019 93.4284 390.051 91.6958 388.323C89.9631 386.596 88.9862 384.251 88.9794 381.803L88.459 128.526C88.4557 127.313 88.6911 126.111 89.1517 124.989C89.6124 123.867 90.2894 122.846 91.1439 121.986C91.9985 121.126 93.0139 120.443 94.1322 119.976C95.2506 119.508 96.4499 119.266 97.6618 119.263L479.595 118.475C480.807 118.472 482.007 118.707 483.127 119.169C484.247 119.63 485.265 120.308 486.124 121.163C486.982 122.019 487.663 123.036 488.129 124.155C488.594 125.274 488.835 126.475 488.836 127.687L489.369 380.977C489.369 383.426 488.399 385.775 486.672 387.509C484.944 389.243 482.6 390.221 480.154 390.228V390.228Z" fill="#5275A0"/>
</g>
<path d="M472.677 385.387L90.7437 386.174C88.2985 386.178 85.9518 385.21 84.2192 383.482C82.4866 381.755 81.5096 379.41 81.5029 376.962L80.9825 123.685C80.9757 121.239 81.938 118.891 83.6584 117.154C85.3787 115.418 87.7168 114.435 90.1598 114.422L472.094 113.634C473.305 113.632 474.506 113.869 475.626 114.332C476.746 114.795 477.764 115.474 478.623 116.33C479.481 117.187 480.162 118.204 480.627 119.325C481.092 120.445 481.333 121.646 481.334 122.859L481.88 376.111C481.885 377.325 481.651 378.528 481.191 379.652C480.731 380.775 480.055 381.797 479.2 382.659C478.345 383.52 477.329 384.204 476.21 384.673C475.091 385.141 473.89 385.383 472.677 385.387V385.387Z" fill="white"/>
<path d="M471.497 113.634L91.2008 114.422C89.8795 114.425 88.5718 114.689 87.3525 115.199C86.1333 115.708 85.0263 116.453 84.095 117.392C83.1636 118.33 82.4262 119.443 81.9248 120.666C81.4234 121.89 81.1679 123.201 81.1729 124.523V133.265L481.55 132.439V123.672C481.543 121.007 480.481 118.454 478.597 116.572C476.712 114.691 474.159 113.634 471.497 113.634Z" fill="#7800FF"/>
<path d="M91.6576 386.174L149.121 386.06L148.55 133.1L81.0459 133.24L81.5917 376.111C81.59 377.434 81.8494 378.744 82.3548 379.967C82.8602 381.189 83.6018 382.3 84.537 383.235C85.4722 384.17 86.5826 384.911 87.8046 385.415C89.0265 385.92 90.3359 386.178 91.6576 386.174Z" fill="#F2E6FF"/>
<path d="M472.233 116.175C474.004 116.178 475.702 116.883 476.955 118.136C478.209 119.388 478.916 121.086 478.923 122.859L479.443 376.111C479.445 376.99 479.273 377.861 478.939 378.674C478.604 379.488 478.113 380.227 477.493 380.85C476.873 381.473 476.136 381.967 475.325 382.305C474.514 382.643 473.645 382.818 472.766 382.82L90.8199 383.608C89.0501 383.608 87.3525 382.906 86.0987 381.655C84.8449 380.405 84.1372 378.708 84.1305 376.937L83.61 123.672C83.6133 121.898 84.317 120.197 85.5677 118.941C86.8184 117.684 88.5147 116.973 90.2868 116.963L472.233 116.175ZM472.233 113.634L90.2995 114.422C89.0876 114.425 87.8883 114.667 86.7699 115.134C85.6516 115.602 84.6362 116.285 83.7816 117.145C82.9271 118.005 82.2501 119.026 81.7894 120.148C81.3288 121.27 81.0934 122.471 81.0967 123.685L81.6171 376.962C81.6239 379.408 82.5991 381.751 84.329 383.478C86.0589 385.205 88.4022 386.174 90.8453 386.174V386.174L472.779 385.387C473.991 385.387 475.192 385.147 476.311 384.682C477.431 384.217 478.448 383.535 479.304 382.676C480.16 381.816 480.839 380.796 481.3 379.674C481.762 378.552 481.998 377.35 481.994 376.136L481.474 122.859C481.472 121.646 481.232 120.445 480.767 119.325C480.301 118.204 479.62 117.187 478.762 116.33C477.904 115.474 476.886 114.795 475.766 114.332C474.645 113.869 473.445 113.632 472.233 113.634V113.634Z" fill="#7800FF"/>
<path d="M139.413 359.312L95.1381 359.405C93.1823 359.409 91.6 361 91.6041 362.958L91.605 363.39C91.6091 365.347 93.198 366.931 95.1539 366.927L139.429 366.834C141.384 366.83 142.967 365.24 142.963 363.282L142.962 362.85C142.958 360.892 141.369 359.308 139.413 359.312Z" fill="white"/>
<path d="M133.988 144.509L96.3008 144.588C92.7185 144.595 89.8205 147.508 89.828 151.094L89.907 188.82C89.9145 192.406 92.8246 195.307 96.4069 195.299L134.094 195.22C137.676 195.213 140.574 192.299 140.566 188.713L140.488 150.988C140.48 147.402 137.57 144.501 133.988 144.509Z" fill="white"/>
<path d="M295.492 298.439L164.14 298.714C161.588 298.72 159.524 300.795 159.529 303.349L159.53 303.921C159.536 306.475 161.609 308.542 164.16 308.536L295.512 308.261C298.064 308.256 300.128 306.181 300.123 303.626L300.122 303.054C300.116 300.5 298.043 298.434 295.492 298.439Z" fill="#F2E6FF"/>
<path d="M287.568 149.237H183.774C181.222 149.237 179.153 151.308 179.153 153.862V154.434C179.153 156.989 181.222 159.059 183.774 159.059H287.568C290.12 159.059 292.189 156.989 292.189 154.434V153.862C292.189 151.308 290.12 149.237 287.568 149.237Z" fill="#F2E6FF"/>
<path d="M451.984 253.715L313.587 254.005C311.035 254.01 308.971 256.085 308.976 258.64L308.978 259.211C308.983 261.766 311.056 263.832 313.608 263.827L452.004 263.537C454.556 263.531 456.62 261.456 456.615 258.902L456.614 258.33C456.608 255.776 454.536 253.709 451.984 253.715Z" fill="#F2E6FF"/>
<path d="M295.521 318.756L164.169 319.032C161.617 319.037 159.553 321.112 159.559 323.667L159.56 324.238C159.565 326.793 161.638 328.859 164.19 328.854L295.541 328.578C298.093 328.573 300.158 326.498 300.152 323.944L300.151 323.372C300.146 320.817 298.073 318.751 295.521 318.756Z" fill="#F2E6FF"/>
<path d="M295.577 339.061L164.225 339.337C161.673 339.342 159.609 341.417 159.614 343.971L159.615 344.543C159.621 347.098 161.694 349.164 164.245 349.159L295.597 348.883C298.149 348.878 300.213 346.803 300.208 344.248L300.207 343.677C300.201 341.122 298.128 339.056 295.577 339.061Z" fill="#F2E6FF"/>
<path d="M449.052 289.934L316.672 290.211C312.458 290.22 309.05 293.646 309.059 297.864L309.178 354.776C309.187 358.994 312.61 362.405 316.823 362.397L449.203 362.119C453.416 362.11 456.824 358.684 456.815 354.467L456.696 297.554C456.687 293.337 453.265 289.925 449.052 289.934Z" fill="#F2E6FF"/>
<path d="M103.133 123.634C103.135 124.275 102.948 124.903 102.594 125.437C102.239 125.972 101.735 126.389 101.143 126.636C100.552 126.883 99.9011 126.949 99.2723 126.826C98.6436 126.702 98.0657 126.395 97.6117 125.942C97.1578 125.489 96.8482 124.912 96.7223 124.283C96.5964 123.654 96.6597 123.002 96.9043 122.409C97.149 121.817 97.5638 121.31 98.0964 120.953C98.629 120.597 99.2553 120.406 99.896 120.406C100.321 120.403 100.742 120.484 101.136 120.645C101.529 120.806 101.887 121.043 102.188 121.343C102.489 121.644 102.727 122.001 102.89 122.394C103.052 122.787 103.135 123.208 103.133 123.634V123.634Z" fill="#F2E6FF"/>
<path d="M113.605 126.848C115.393 126.848 116.842 125.398 116.842 123.608C116.842 121.819 115.393 120.368 113.605 120.368C111.817 120.368 110.368 121.819 110.368 123.608C110.368 125.398 111.817 126.848 113.605 126.848Z" fill="#F2E6FF"/>
<path d="M130.538 123.57C130.541 124.211 130.353 124.838 130 125.372C129.646 125.907 129.142 126.324 128.552 126.572C127.961 126.819 127.311 126.886 126.682 126.763C126.054 126.641 125.476 126.334 125.021 125.883C124.567 125.432 124.257 124.856 124.129 124.227C124.002 123.599 124.063 122.948 124.306 122.355C124.549 121.762 124.962 121.254 125.492 120.896C126.023 120.538 126.648 120.345 127.289 120.343C128.146 120.343 128.969 120.682 129.577 121.287C130.186 121.891 130.531 122.712 130.538 123.57V123.57Z" fill="#F2E6FF"/>
<path d="M174.394 154.748C174.909 149.601 171.159 145.012 166.018 144.496C160.877 143.981 156.292 147.735 155.777 152.881C155.262 158.027 159.012 162.617 164.153 163.132C169.294 163.648 173.879 159.894 174.394 154.748Z" fill="#F2E6FF"/>
<path d="M136.3 199.72H94.8562C93.8958 199.72 93.1172 200.499 93.1172 201.461V201.689C93.1172 202.651 93.8958 203.43 94.8562 203.43H136.3C137.261 203.43 138.039 202.651 138.039 201.689V201.461C138.039 200.499 137.261 199.72 136.3 199.72Z" fill="white"/>
<path d="M136.747 207.362L95.3025 207.449C94.3421 207.451 93.5651 208.232 93.5671 209.193L93.5676 209.422C93.5696 210.383 94.3498 211.161 95.3102 211.159L136.754 211.072C137.715 211.07 138.492 210.289 138.49 209.328L138.489 209.099C138.487 208.137 137.707 207.36 136.747 207.362Z" fill="white"/>
<path d="M184.193 227.814L172.477 227.928L172.566 277.077H162.411C161.563 277.078 160.722 276.913 159.938 276.589C159.153 276.266 158.44 275.791 157.839 275.191C157.238 274.592 156.76 273.88 156.434 273.096C156.108 272.312 155.939 271.471 155.937 270.622L155.747 179.733C155.747 177.999 156.434 176.337 157.657 175.11C158.88 173.883 160.54 173.192 162.272 173.189H184.028L184.193 227.814Z" fill="#F2E6FF"/>
<path d="M260.252 173.011V174.282C261.936 174.282 263.55 174.951 264.74 176.142C265.93 177.334 266.599 178.95 266.599 180.635L266.789 269.25C266.789 270.935 266.121 272.551 264.931 273.742C263.74 274.934 262.126 275.603 260.443 275.603L163.63 275.806C161.946 275.806 160.332 275.137 159.142 273.945C157.952 272.754 157.283 271.138 157.283 269.453L157.093 180.838C157.093 179.153 157.761 177.537 158.951 176.346C160.142 175.154 161.756 174.485 163.439 174.485L260.227 174.282V173.011H260.252ZM260.227 173.011L163.427 173.214C161.407 173.214 159.47 174.018 158.041 175.447C156.613 176.877 155.811 178.816 155.811 180.838L156.001 269.453C156.001 271.475 156.803 273.414 158.232 274.844C159.66 276.274 161.597 277.077 163.617 277.077L260.417 276.874C262.437 276.874 264.374 276.07 265.803 274.641C267.231 273.211 268.033 271.272 268.033 269.25L267.868 180.635C267.868 178.613 267.066 176.674 265.638 175.244C264.209 173.814 262.272 173.011 260.252 173.011H260.227Z" fill="#C8DBFB"/>
<path d="M439.723 166.737L310.602 137.514C306.493 136.584 302.408 139.165 301.479 143.279L286.948 207.614C286.019 211.728 288.597 215.817 292.706 216.747L421.827 245.97C425.937 246.9 430.022 244.319 430.951 240.205L445.482 175.87C446.411 171.756 443.833 167.668 439.723 166.737Z" fill="#F2E6FF"/>
<path d="M171.969 420.914L153.907 420.952L149.477 397.902L176.298 397.852L171.969 420.914Z" fill="#7800FF"/>
<path d="M154.478 397.902C154.478 399.783 154.123 402.985 155.379 402.985C156.636 402.985 156.115 399.986 157.537 400.063C158.451 400.063 157.106 410.075 160.546 410.317C162.919 410.482 162.488 405.437 162.729 402.273C162.72 401.903 162.851 401.543 163.095 401.265C163.34 400.987 163.68 400.811 164.048 400.773C164.416 400.734 164.785 400.836 165.082 401.058C165.378 401.279 165.58 401.604 165.648 401.969C165.648 403.557 165.572 404.611 165.648 406.416C165.775 409.414 170.396 408.627 170.231 404.599C170.066 400.571 170.231 397.864 170.231 397.864L154.478 397.902Z" fill="#C8DBFB"/>
<path d="M150.162 411.816C149.799 411.818 149.437 411.779 149.083 411.702C148.49 411.598 147.93 411.355 147.449 410.993C146.968 410.631 146.58 410.159 146.316 409.618C144.475 405.717 149.324 398.385 149.514 398.068L149.756 399.338C149.756 399.415 145.503 405.692 147.217 409.224C147.419 409.643 147.72 410.006 148.094 410.283C148.467 410.56 148.903 410.741 149.362 410.812C149.662 410.881 149.969 410.911 150.276 410.901C156.775 410.901 167.895 398.754 168.047 398.614C168.504 398.068 169.316 398.614 169.05 399.046C168.453 399.669 157.156 411.803 150.162 411.816Z" fill="#0C2340"/>
<g style="mix-blend-mode:multiply" opacity="0.2">
<path d="M340.006 96.7215C314.327 95.7431 278.976 114.752 291.517 161.232C291.25 165.158 293.598 167.967 296.099 167.191C298.6 166.416 296.391 158.983 296.391 158.983C300.669 124.422 308.666 118.449 322.248 118.564H354.095C361.965 119.733 376.271 125.235 378.416 152.871L386.35 154.345C386.959 134.32 382.11 98.3352 340.006 96.7215Z" fill="#5275A0"/>
</g>
<path d="M340.006 92.6808C314.327 91.6897 278.976 110.699 291.517 157.179L296.391 154.93C300.669 120.381 308.666 114.396 322.248 114.523H354.095C361.965 115.679 376.652 122.668 378.797 150.33H386.35C386.959 130.279 382.11 94.2945 340.006 92.6808Z" fill="#EF832B"/>
<path d="M334.75 93.4305L330.942 101.829C330.942 101.829 331.399 106.544 336.02 106.455C340.64 106.366 341.288 104.193 341.288 104.193L341.884 94.5614L334.75 93.4305Z" fill="#FFB9A3"/>
<path d="M354.362 86.4038C350.008 94.1039 348.091 96.4928 342.404 97.649C335.042 99.1484 326.779 94.1802 330.625 81.9312C333.747 71.9439 338.482 73.4814 343.128 73.8626C347.774 74.2438 359.058 78.1192 354.362 86.4038Z" fill="#FFB9A3"/>
<path d="M337.073 80.3683C336.47 80.1205 335.804 80.0694 335.171 80.2222C334.537 80.3751 333.968 80.7241 333.544 81.2196C333.068 81.6963 332.727 82.2909 332.555 82.9427C332.383 83.5945 332.387 84.2802 332.567 84.9299C331.678 84.9824 330.845 85.3844 330.251 86.0484C329.656 86.7124 329.348 87.5846 329.393 88.475C328.124 85.6415 328.835 82.6809 328.594 79.7711C328.352 76.8613 328.67 73.7101 330.548 71.4865C331.341 70.5896 332.298 69.8522 333.366 69.3137C335.384 68.2624 337.619 67.6978 339.894 67.6647C342.168 67.6316 344.419 68.131 346.466 69.1231C348.223 70.2258 350.34 70.5995 352.368 70.165C357.966 68.8054 361.254 72.6046 357.877 76.1624C359.014 76.4095 360.008 77.0941 360.645 78.0684C360.716 78.199 360.753 78.3454 360.753 78.4941C360.753 78.6428 360.716 78.7892 360.645 78.9197C360.506 79.0747 360.325 79.1852 360.124 79.2374C359.176 79.5538 358.165 79.6323 357.179 79.4661C357.547 79.7965 359.629 79.9108 360.264 81.1307C361.939 84.3581 355.313 82.719 354.298 82.4013C355.453 82.6173 358.474 85.0316 357.509 86.6961C357.319 87.0265 353.232 89.4026 348.941 84.4089C348.007 83.1971 346.742 82.2832 345.298 81.7787C344.106 81.5998 342.888 81.7904 341.807 82.3251C340.982 82.63 338.888 83.9134 338.291 83.151C337.695 82.3886 338.418 81.029 337.073 80.3683Z" fill="#0C2340"/>
<path d="M379.571 150.279C378.441 154.205 377.286 154.587 378.67 155.209C380.053 155.832 381.208 153.646 381.208 153.646L387.555 154.917C387.555 154.917 386.121 150.775 385.118 150.279C384.115 149.784 379.571 150.279 379.571 150.279Z" fill="#FFB9A3"/>
<path d="M296.391 154.93C297.229 157.001 297.457 157.014 298.612 159.504C300.834 164.256 295.642 171.766 292.418 163.57C291.827 161.504 291.523 159.366 291.517 157.217L296.391 154.93Z" fill="#FFB9A3"/>
<path d="M346.149 69.7965C350.503 70.0252 355.86 66.9503 359.274 70.902C359.579 71.2705 360.214 70.7876 359.934 70.3937C356.685 65.705 350.63 69.1866 346.149 69.1231C345.68 69.1231 345.692 69.8219 346.149 69.8473V69.7965Z" fill="#0C2340"/>
<path d="M347.9 67.3442C344.917 67.8524 342.049 66.4547 339.015 66.9249C336.643 67.3868 334.445 68.4998 332.668 70.1396C332.199 70.5462 332.808 71.3467 333.328 71.0036C335.867 69.3137 338.406 67.8524 341.566 68.0939C343.877 68.259 345.857 68.9452 348.167 68.259C348.288 68.2253 348.391 68.1448 348.453 68.0352C348.515 67.9256 348.531 67.7959 348.497 67.6745C348.463 67.5532 348.383 67.4503 348.273 67.3883C348.164 67.3264 348.034 67.3105 347.913 67.3442H347.9Z" fill="#0C2340"/>
<path d="M330.968 71.4611C329.964 72.0214 329.114 72.8216 328.494 73.7904C327.873 74.7593 327.502 75.8666 327.413 77.0138C327.236 78.8054 327.185 82.9477 329 83.9642C329.092 84.0082 329.195 84.0195 329.294 83.9962C329.393 83.9729 329.481 83.9165 329.543 83.8363C329.605 83.7561 329.638 83.657 329.637 83.5555C329.635 83.4539 329.598 83.356 329.533 83.2781C328.365 82.0964 328.264 78.907 328.353 77.395C328.385 76.3273 328.665 75.2817 329.169 74.3403C329.674 73.3989 330.389 72.5874 331.26 71.9693C331.564 71.7406 331.259 71.2451 330.968 71.4611V71.4611Z" fill="#0C2340"/>
<path d="M363.171 78.6148C362.092 76.747 359.363 75.0824 357.218 76.2768C357.151 76.3211 357.1 76.3853 357.071 76.4605C357.043 76.5356 357.039 76.6178 357.06 76.6953C357.081 76.7728 357.126 76.8416 357.189 76.8919C357.251 76.9423 357.328 76.9716 357.408 76.9757C358.305 76.9074 359.207 76.9673 360.087 77.1536C361.11 77.4471 362.005 78.0785 362.625 78.9452C362.867 79.2883 363.412 78.9452 363.197 78.6148H363.171Z" fill="#0C2340"/>
<path d="M221.918 272.452C235.386 277.394 247.076 292.858 244.385 304.091C241.364 316.797 232.619 322.261 232.619 322.261L229.851 317.178C229.851 317.178 236.845 306.238 236.198 301.067C235.233 292.782 224.774 287.255 224.774 287.255L221.918 272.452Z" fill="#0B43A4"/>
<path d="M188.776 415.679C188.776 415.679 180.512 419.021 178.443 420.901H194.818V415.691L188.776 415.679Z" fill="#0C2340"/>
<path d="M224.965 415.361C226.303 416.936 227.255 418.803 227.744 420.812H216.574C216.846 418.861 217.558 416.997 218.656 415.361H224.965Z" fill="#0C2340"/>
<path d="M225.65 415.603H218.034C218.187 406.606 216.333 375.946 214.544 353.023C213.49 339.58 212.449 328.779 211.84 326.594L215.927 325.692L231.35 322.261C233.977 334.345 227.884 389.77 225.65 415.603Z" fill="#047F76"/>
<path d="M197.61 326.124C191.657 335.501 190.121 403.303 187.62 415.869L194.855 416.276C201.354 385.424 210.059 355.079 220.902 325.476L197.61 326.124Z" fill="#009790"/>
<g style="mix-blend-mode:multiply" opacity="0.2">
<path d="M223.924 325.476C220.433 334.967 217.298 344.256 214.531 353.036C213.477 339.593 212.436 328.792 211.827 326.607L215.914 325.704L223.924 325.476Z" fill="#5275A0"/>
</g>
<path d="M197.61 326.124C191.657 335.501 190.121 403.303 187.62 415.869L194.855 416.276C201.354 385.424 210.059 355.079 220.902 325.476L197.61 326.124Z" fill="#009790"/>
<path d="M202.154 250.431C202.154 250.431 197.521 268.106 209.085 268.106L208.399 272.617L217.196 273.583L215.292 267.293C215.292 267.293 217.094 256.149 217.094 254.129C217.361 250.406 206.94 243.799 202.154 250.431Z" fill="#FFB9A3"/>
<path d="M173.529 230.631L170.114 230.638L170.142 245.06L173.556 245.053L173.529 230.631Z" fill="#0C2340"/>
<path d="M181.603 225.139L162.017 225.177C160.65 225.18 159.544 226.291 159.547 227.659L159.548 228.18C159.55 229.549 160.661 230.656 162.028 230.653L181.614 230.616C182.981 230.613 184.087 229.502 184.084 228.133L184.083 227.612C184.081 226.244 182.97 225.137 181.603 225.139Z" fill="#7800FF"/>
<path d="M169.215 248.818C169.113 245.539 166.422 246.403 167.945 241.067C168.859 237.763 175.676 241.588 174.825 243.875C173.975 246.162 172.997 249.783 172.997 249.783L169.215 248.818Z" fill="#FFB9A3"/>
<path d="M209.173 271.55C191.872 272.693 190.73 278.538 182.987 277.623C171.563 276.264 173.53 254.968 174.952 247.331H168.11C168.11 247.331 155.772 295.857 194.766 286.886C193.268 295.387 202.954 309.262 193.56 326.111C208.361 330.139 222.159 331.13 233.976 326.035C231.907 323.252 238.216 295.044 225.865 274.752C223.441 270.8 210.443 271.461 209.173 271.55Z" fill="#0056EC"/>
<path d="M209.173 271.55C191.872 272.693 190.73 278.538 182.987 277.623C171.563 276.264 173.53 254.968 174.952 247.331H168.11C168.11 247.331 155.772 295.857 194.766 286.886C193.268 295.387 202.954 309.262 193.56 326.111C208.361 330.139 222.159 331.13 233.976 326.035C231.907 323.252 238.216 295.044 225.865 274.752C223.441 270.8 210.443 271.461 209.173 271.55Z" fill="#7800FF"/>
<path d="M206.788 253.811C207.918 254.104 209.238 254.32 209.834 255.285C210.16 255.942 210.275 256.683 210.164 257.407C210.278 257.013 210.525 256.67 210.863 256.439C211.201 256.207 211.609 256.1 212.018 256.137C212.415 256.188 212.783 256.376 213.058 256.668C213.333 256.959 213.499 257.337 213.528 257.738C213.513 258.111 213.427 258.477 213.274 258.818C212.937 259.677 212.512 260.499 212.005 261.27C213.414 261.791 214.544 265.921 215.305 267.217C217.679 266.619 222.921 264.574 223.429 256.149C223.645 252.223 222.452 247.522 218.199 244.904C215.191 243.062 210.202 243.036 206.775 243.913C203.995 244.625 199.54 247.42 201.622 250.673C202.916 252.301 204.748 253.414 206.788 253.811Z" fill="#EF832B"/>
<path d="M221.613 248.449C222.403 248.138 223.269 248.076 224.094 248.272C224.92 248.467 225.667 248.91 226.234 249.542C226.801 250.69 227.116 251.947 227.16 253.227C227.238 253.847 227.52 254.423 227.96 254.866C228.578 255.317 229.328 255.55 230.093 255.527C231.956 255.477 233.821 255.537 235.678 255.705C236.595 255.782 237.475 256.108 238.222 256.647C238.968 257.187 239.555 257.92 239.917 258.767C240.209 259.72 240.057 260.762 240.4 261.702C240.92 263.1 242.405 263.888 243.7 264.701C246.445 266.417 248.766 268.732 250.491 271.473C251.621 273.15 252.323 275.078 252.535 277.09C252.662 279.084 254.096 281.727 253.715 283.684C253.334 285.641 251.176 288.678 247.102 290.037C239.994 292.337 237.734 293.328 230.918 289.275C230.105 288.779 228.493 287.115 227.757 286.53C227.19 286.049 226.782 285.407 226.589 284.688C226.378 283.686 226.369 282.653 226.56 281.647C226.752 280.641 227.142 279.684 227.706 278.83C228.722 277.051 230.105 275.476 231.146 273.748C231.831 272.72 232.202 271.514 232.212 270.279C232.223 270.046 232.187 269.814 232.106 269.596C232.026 269.378 231.902 269.178 231.743 269.008C231.438 268.736 231.057 268.563 230.651 268.513C229.153 268.208 227.503 268.513 226.145 267.852C225.5 267.527 224.985 266.99 224.687 266.331C224.389 265.672 224.326 264.931 224.508 264.231C224.774 263.316 225.472 262.541 225.663 261.613C225.748 260.924 225.631 260.224 225.324 259.601C225.017 258.978 224.535 258.458 223.936 258.106C222.705 257.401 221.338 256.967 219.925 256.835C219.226 256.775 218.549 256.558 217.945 256.2C217.618 255.937 217.358 255.602 217.184 255.22C217.009 254.838 216.927 254.421 216.942 254.002C216.98 251.245 219.126 249.275 221.613 248.449Z" fill="#EF832B"/>
<path d="M220.332 255.552C228.9 257.407 218.085 265.527 222.616 269.415C223.886 270.52 225.409 270.165 226.919 270.381C232.733 271.181 229.56 275.133 229.154 278.233C229.154 278.703 229.877 278.792 229.979 278.347C230.474 276.2 232.428 273.595 231.413 271.308C230.524 269.313 228.316 269.542 226.513 269.491C224.241 269.415 221.741 269.491 222.591 264.968C222.956 263.938 223.419 262.947 223.975 262.007C224.484 260.963 224.657 259.786 224.47 258.64C224.249 257.708 223.744 256.867 223.026 256.234C222.307 255.602 221.41 255.208 220.458 255.107C220.167 255.107 220.04 255.489 220.332 255.552V255.552Z" fill="#EF832B"/>
<path d="M202.7 245.069C209.301 241.715 215.876 242.376 221.448 247.306C221.523 247.38 221.623 247.421 221.728 247.421C221.832 247.421 221.933 247.38 222.007 247.306C222.081 247.232 222.123 247.131 222.123 247.026C222.123 246.921 222.081 246.821 222.007 246.747C219.579 244.059 216.242 242.368 212.641 242C209.04 241.631 205.431 242.612 202.51 244.752C202.479 244.782 202.46 244.821 202.455 244.863C202.449 244.906 202.458 244.949 202.48 244.985C202.502 245.022 202.536 245.05 202.576 245.065C202.616 245.081 202.659 245.082 202.7 245.069V245.069Z" fill="#EF832B"/>
<path d="M424.404 265.793L421.535 271.55L428.529 274.408L429.278 267.788L424.404 265.793Z" fill="#FFB9A3"/>
<path d="M428.618 247.051C412.764 253.964 419.263 270.698 428.91 268.741C433.62 267.776 435.993 252.642 435.993 252.642L428.618 247.051Z" fill="#FFB9A3"/>
<path d="M433.886 244.663C433.447 243.651 432.813 242.735 432.02 241.969C431.61 241.597 431.083 241.379 430.53 241.351C429.977 241.323 429.432 241.488 428.986 241.816C427.92 242.808 428.542 244.663 429.634 245.628C428.694 245.743 427.59 245.095 426.905 245.73C426.219 246.365 426.574 247.077 426.905 247.725C427.606 249.254 428.735 250.547 430.154 251.448C429.354 251.905 428.415 252.795 428.885 253.583C429.024 253.799 429.24 253.951 429.38 254.18C429.684 254.688 429.38 255.336 429.075 255.857C428.58 256.683 428.034 257.483 427.463 258.259C427.623 258.098 427.819 257.979 428.034 257.91C428.25 257.842 428.478 257.826 428.701 257.865C428.924 257.903 429.134 257.995 429.314 258.132C429.494 258.269 429.639 258.448 429.735 258.652C429.891 259.087 429.92 259.556 429.819 260.006C429.718 260.456 429.491 260.868 429.164 261.194C428.833 261.587 428.39 261.871 427.895 262.007C427.45 262.109 425.534 268.055 427.031 269.224C428.885 270.66 435.181 269.415 436.095 267.788C436.517 268.314 437.066 268.725 437.689 268.983C438.313 269.241 438.991 269.337 439.661 269.262C439.986 269.202 440.293 269.069 440.559 268.873C440.825 268.678 441.044 268.425 441.199 268.133C441.353 267.841 441.441 267.518 441.454 267.188C441.467 266.858 441.405 266.529 441.273 266.226C441.993 266.494 442.777 266.533 443.519 266.336C444.261 266.139 444.924 265.717 445.416 265.127C445.908 264.537 446.204 263.809 446.265 263.043C446.326 262.277 446.147 261.511 445.754 260.851C446.529 260.622 446.681 259.58 446.49 258.78C446.276 257.982 445.861 257.253 445.286 256.662C444.71 256.07 443.993 255.636 443.203 255.4C443.604 255.368 443.978 255.188 444.253 254.894C444.528 254.6 444.683 254.214 444.688 253.811C444.667 252.999 444.351 252.222 443.799 251.626C443.124 250.831 442.289 250.189 441.348 249.74C440.408 249.291 439.383 249.046 438.341 249.021C436.095 248.767 434.876 246.505 433.886 244.663Z" fill="#4A49CA"/>
<path d="M419.035 414.573C419.035 414.573 409.756 419.033 408.512 420.418C408.512 420.418 426.765 421.244 428.187 420.418C429.608 419.592 425.267 414.599 425.267 414.599L419.035 414.573Z" fill="#0C2340"/>
<path d="M453.548 409.529C453.548 409.529 445.387 415.819 444.46 417.432C444.46 417.432 463.703 414.573 463.703 413.315C463.703 412.057 459.641 408.233 459.641 408.233L453.548 409.529Z" fill="#0C2340"/>
<path d="M427.997 328.474C427.654 330.368 414.961 380.571 451.302 410.647L461.825 408.233C461.825 408.233 449.576 396.797 443.8 376.035C438.342 356.454 442.683 354.535 445.958 343.748C449.576 331.816 446.885 323.15 446.885 323.15L427.997 328.474Z" fill="#D8742A"/>
<path d="M410.631 328.322C404.869 342.108 394.98 389.071 416.534 415.526H427.298C427.298 415.526 418.819 406.225 417.879 384.637C416.94 363.049 422.411 353.582 426.282 346.454C430.154 339.326 433.721 327.229 433.721 327.229L410.631 328.322Z" fill="#EF832B"/>
<path d="M403.041 242.871C400.173 252.96 399.233 271.613 413.564 279.123L423.148 276.785C423.148 276.785 405.859 267.712 409.566 244.79L403.041 242.871Z" fill="#0B43A4"/>
<path d="M376.626 237.7L384.065 236.785C384.065 236.785 383.163 268.106 419.263 270.647C446.821 272.668 448.979 324.421 448.979 324.421C440.093 330.406 425.191 332.223 406.088 330.851C406.088 330.851 407.357 293.926 404.273 283.837C404.273 283.875 374.278 274.459 376.626 237.7Z" fill="#7800FF"/>
<path d="M367.525 232.02C366.255 233.481 371.523 235.336 376.626 237.7L383.15 236.899C383.195 236.01 383.195 235.12 383.15 234.231C383.061 232.871 382.388 232.083 381.614 233.252C380.84 234.421 377.527 234.828 375.978 233.761C374.43 232.693 368.781 230.559 367.525 232.02Z" fill="#FFB9A3"/>
<path d="M403.042 242.871C400.642 240.508 401.277 240.66 401.277 240.66L408.576 242.312C408.576 242.312 410.188 238.741 411.546 238.64C412.904 238.538 410.518 241.105 411.064 242.045C411.61 242.985 409.566 244.79 409.566 244.79L403.042 242.871Z" fill="#FFB9A3"/>
<path d="M437.961 248.106C439.481 248.303 440.938 248.837 442.226 249.669C442.859 250.134 443.3 250.814 443.466 251.582C443.632 252.35 443.512 253.152 443.127 253.837C442.708 254.497 443.698 255.018 444.143 254.434C444.647 253.697 444.89 252.812 444.833 251.92C444.775 251.029 444.42 250.182 443.825 249.517C443.095 248.738 442.191 248.144 441.187 247.784C440.183 247.424 439.108 247.308 438.05 247.445C437.694 247.445 437.567 248.005 437.961 248.106Z" fill="#4A49CA"/>
<path d="M444.587 261.664C445.114 261.877 445.546 262.273 445.805 262.779C446.064 263.286 446.132 263.869 445.995 264.421C445.602 265.552 444.447 266.226 443.52 266.874C443.44 266.939 443.386 267.03 443.367 267.132C443.349 267.234 443.367 267.339 443.42 267.428C443.472 267.517 443.554 267.584 443.652 267.618C443.75 267.651 443.856 267.649 443.952 267.611C444.694 267.329 445.357 266.872 445.885 266.279C446.413 265.686 446.79 264.975 446.986 264.205C447.029 263.527 446.86 262.852 446.503 262.274C446.146 261.695 445.618 261.243 444.993 260.978C444.536 260.736 444.142 261.41 444.587 261.664Z" fill="#4A49CA"/>
<path d="M427.92 269.237C429.608 270.29 431.599 270.745 433.576 270.531C435.553 270.317 437.401 269.445 438.824 268.055C439.167 267.687 438.697 267.001 438.265 267.331C436.884 268.478 435.212 269.22 433.435 269.473C431.658 269.727 429.846 269.482 428.2 268.767C427.882 268.64 427.616 269.046 427.92 269.237V269.237Z" fill="#4A49CA"/>
<path d="M445.031 250.317C446.961 252.159 445.031 254.675 443.762 256.251C443.495 256.607 443.927 257.077 444.257 256.759C445.491 255.828 446.334 254.468 446.618 252.947C446.695 252.376 446.6 251.795 446.344 251.279C446.089 250.762 445.684 250.334 445.183 250.05C445.044 249.974 444.879 250.152 445.006 250.266L445.031 250.317Z" fill="#4A49CA"/>
<path d="M230.308 18.1956L227.338 10.9148L256.063 0L230.308 18.1956Z" fill="#0B43A4"/>
<path d="M231.756 13.7103L256.064 0L239.143 17.2045L231.756 13.7103Z" fill="#7800FF"/>
<path d="M220.763 7.95424L256.063 0L227.338 10.9148L220.763 7.95424Z" fill="#7800FF"/>
<path d="M231.756 13.7103L230.309 18.1956L234.701 15.0953L231.756 13.7103Z" fill="#7800FF"/>
<path d="M226.932 17.2173C219.443 15.9466 209.263 23.5705 213.642 31.4485C215.127 34.1422 222.819 32.9733 222.248 29.9999C221.969 28.5768 220.23 27.9669 218.783 28.1321C210.405 29.0978 210.075 36.1245 210.443 37.9161C212.36 47.1664 226.526 44.0406 231.286 42.7318" stroke="#C8DBFB" stroke-linecap="round" stroke-linejoin="round" stroke-dasharray="4 4"/>
</svg>
