<?xml version="1.0" encoding="UTF-8"?>
<svg width="20px" height="22px" viewBox="0 0 20 22" version="1.1" xmlns="http://www.w3.org/2000/svg" xmlns:xlink="http://www.w3.org/1999/xlink">
    <title>bell</title>
    <g id="Landing-page" stroke="none" stroke-width="1" fill="none" fill-rule="evenodd">
        <g id="10_Landing-page-1" transform="translate(-1464.000000, -984.000000)" fill="#40AC60" fill-rule="nonzero">
            <g id="sidebar" transform="translate(1313.000000, 140.000000)">
                <g id="Satisfied-customers" transform="translate(0.000000, 530.000000)">
                    <g id="Samples" transform="translate(0.000000, 63.000000)">
                        <g id="Group-Copy-2" transform="translate(119.000000, 251.000000)">
                            <g id="bell" transform="translate(32.000000, 0.000000)">
                                <path d="M12.1063289,19.35125 C12.4646236,19.5590907 12.5865907,20.0180342 12.37875,20.3763289 C11.8867781,21.2244349 10.9804693,21.7464563 10,21.7464563 C9.01953067,21.7464563 8.11322192,21.2244349 7.62125,20.3763289 C7.41340929,20.0180342 7.53537637,19.5590907 7.8936711,19.35125 C8.22210794,19.1607293 8.63511766,19.2473389 8.86176208,19.539075 L8.91875,19.6236711 C9.1423736,20.0091738 9.55433212,20.2464563 10,20.2464563 C10.3961492,20.2464563 10.7656639,20.0589738 10.9999455,19.7465602 L11.08125,19.6236711 C11.2890907,19.2653764 11.7480342,19.1434093 12.1063289,19.35125 Z M10,0.25 C13.7279221,0.25 16.75,3.27207794 16.75,7 C16.75,9.94044042 17.2828489,12.1606441 18.1584217,13.7658609 C18.4551452,14.309854 18.7682717,14.7377935 19.0757145,15.0623165 L19.2293955,15.216878 L19.3444871,15.3205793 C19.3601774,15.3337657 19.3740531,15.3449389 19.3860106,15.3541517 L19.4160251,15.3759623 C20.0040517,15.76798 19.7677472,16.65959 19.1028928,16.7436163 L19,16.75 L1,16.75 C0.293280029,16.75 -0.00467903098,15.8770575 0.501903879,15.4383485 L0.583974853,15.3759623 C0.632081494,15.3438912 0.752964441,15.2431554 0.924285487,15.0623165 C1.23172834,14.7377935 1.54485483,14.309854 1.84157832,13.7658609 C2.67337247,12.240905 3.1958583,10.1609233 3.2460274,7.43567744 L3.25,7 C3.25,3.27207794 6.27207794,0.25 10,0.25 Z M10,1.75 C7.17299244,1.75 4.86786837,3.98444888 4.75437905,6.78359538 L4.75,7 C4.75,10.1845596 4.15784889,12.6518559 3.15842168,14.4841391 C3.02493632,14.7288623 2.89035331,14.9524965 2.75662201,15.1559429 L2.692,15.25 L17.307,15.25 L17.243378,15.1559429 C17.1542238,15.020312 17.0646911,14.8757087 16.9753574,14.721866 L16.8415783,14.4841391 C15.8897429,12.7391075 15.3073189,10.4181002 15.2540083,7.45006662 L15.25,7 L15.245621,6.78359538 C15.1321316,3.98444888 12.8270076,1.75 10,1.75 Z" id="Shape"></path>
                            </g>
                        </g>
                    </g>
                </g>
            </g>
        </g>
    </g>
</svg>