<?xml version="1.0" encoding="UTF-8"?>
<svg width="28px" height="20px" viewBox="0 0 28 20" version="1.1" xmlns="http://www.w3.org/2000/svg" xmlns:xlink="http://www.w3.org/1999/xlink">
    <title>eye </title>
    <g id="Home-page" stroke="none" stroke-width="1" fill="none" fill-rule="evenodd">
        <g id="1_Home-page" transform="translate(-562.000000, -1822.000000)" fill="#40AC60" fill-rule="nonzero">
            <g id="Samples" transform="translate(0.000000, 1583.000000)">
                <g transform="translate(289.000000, 220.000000)" id="1">
                    <g id="eye-" transform="translate(273.000000, 19.000000)">
                        <path d="M0.0465016072,9.75144964 C2.98112264,2.18321641 11.4953682,-1.57306842 19.0636014,1.36155261 C22.9149646,2.85493834 25.9601126,5.90008642 27.4534985,9.75144964 C27.5155005,9.9113499 27.5155005,10.0886501 27.4534985,10.2485504 C24.5188774,17.8167836 16.0046318,21.5730684 8.43639858,18.6384474 C4.5850354,17.1450617 1.53988732,14.0999135 0.0465016072,10.2485504 C-0.0155005391,10.0886501 -0.0155005391,9.9113499 0.0465016072,9.75144964 Z M8.93349938,17.3564506 C15.7103214,19.9841978 23.323935,16.6935301 26.072273,10.0000653 C24.6857689,6.62665039 21.9743121,3.9649457 18.5665006,2.64354941 C11.7896786,0.0158021225 4.17606503,3.30646987 1.42772702,9.99993469 C2.81423105,13.3733496 5.52568792,16.0350543 8.93349938,17.3564506 Z M13.75,15.5 C10.7124339,15.5 8.25,13.0375661 8.25,10 C8.25,6.96243387 10.7124339,4.5 13.75,4.5 C16.7875661,4.5 19.25,6.96243387 19.25,10 C19.25,13.0375661 16.7875661,15.5 13.75,15.5 Z M13.75,14.125 C16.0281745,14.125 17.875,12.2781745 17.875,10 C17.875,7.72182547 16.0281745,5.875 13.75,5.875 C11.4718255,5.875 9.625,7.72182547 9.625,10 C9.625,12.2781745 11.4718255,14.125 13.75,14.125 Z" id="Shape"></path>
                    </g>
                </g>
            </g>
        </g>
    </g>
</svg>