<?xml version="1.0" encoding="UTF-8"?>
<svg width="18px" height="18px" viewBox="0 0 18 18" version="1.1" xmlns="http://www.w3.org/2000/svg" xmlns:xlink="http://www.w3.org/1999/xlink">
    <title>phone-fill</title>
    <g id="Symbols" stroke="none" stroke-width="1" fill="none" fill-rule="evenodd">
        <g id="Header/logged-in-notif" transform="translate(-1723.000000, -31.000000)">
            <g id="Buttons" transform="translate(1586.000000, 20.000000)">
                <g id="Group-3-Copy" transform="translate(132.000000, 0.000000)">
                    <g id="phone-fill" transform="translate(5.000000, 11.000000)">
                        <polygon id="Path" points="0 0 18 0 18 18 0 18"></polygon>
                        <path d="M8.99981028,15 C8.18281161,15 7.52009106,14.1131249 7.52009106,13.017974 L10.4793019,13.017974 C10.4794536,14.1131249 9.81680895,15 8.99981028,15 Z M14,11.5475671 L13.9996206,11.5475671 L13.9996206,11.5474919 C13.9996206,12.0897195 13.5562132,12.1254418 13.0094479,12.1254418 L4.99002087,12.1254418 C4.44302789,12.1254418 4,12.0897195 4,11.5474919 L4,11.4540874 C4,11.0641498 4.2310757,10.7302399 4.56308101,10.5718583 L4.87740467,7.88305633 C4.87740467,5.9146424 6.28207171,4.27171542 8.1520774,3.8841092 L8.1520774,2.84026472 C8.1520774,2.37625028 8.53173971,2 9.00018972,2 C9.46841207,2 9.84807437,2.37625028 9.84807437,2.84026472 L9.84807437,3.8841844 C11.7180801,4.27171542 13.1227471,5.91449199 13.1227471,7.88313153 L13.4370708,10.5723095 C13.7690761,10.7309167 14,11.064225 14,11.4541626 L14,11.5475671 Z" id="Shape" fill="#EA7778"></path>
                    </g>
                </g>
            </g>
        </g>
    </g>
</svg>