<?xml version="1.0" encoding="UTF-8"?>
<svg width="20px" height="20px" viewBox="0 0 20 20" version="1.1" xmlns="http://www.w3.org/2000/svg" xmlns:xlink="http://www.w3.org/1999/xlink">
    <title>phone-fill</title>
    <g id="Contact-us" stroke="none" stroke-width="1" fill="none" fill-rule="evenodd">
        <g id="25_Contact-us" transform="translate(-1313.000000, -201.000000)" fill="#4FC371" fill-rule="nonzero">
            <g id="contacts" transform="translate(1313.000000, 199.000000)">
                <g id="phone-fill" transform="translate(0.000000, 2.000000)">
                    <path d="M19.2857143,14.3785717 L19.2857143,18.1671431 C19.2859692,18.7299585 18.8507206,19.1970318 18.2892857,19.2364289 C17.8210714,19.2685717 17.4385714,19.2857146 17.1428571,19.2857146 C7.67464286,19.2857146 0,11.6110717 0,2.14285742 C0,1.84714314 0.0160714286,1.46464314 0.0492857143,0.996428851 C0.0886827394,0.434993968 0.555756017,-0.000254676953 1.11857143,0 L4.90714286,0 C5.18247218,-0.000278494954 5.41318148,0.208193767 5.44071429,0.482143136 C5.46535714,0.728571708 5.48785714,0.924643136 5.50928571,1.07357171 C5.72221525,2.55956085 6.15857444,4.00482004 6.80357143,5.36035742 C6.90535714,5.57464314 6.83892857,5.83071456 6.64607143,5.96785742 L4.33392857,7.62000028 C5.74762858,10.9140553 8.37273067,13.5391574 11.6667857,14.9528574 L13.3167857,12.6450003 C13.4559648,12.4504242 13.7143811,12.383227 13.9307143,12.4853574 C15.2860945,13.129142 16.730978,13.5644131 18.2164286,13.7764289 C18.3653571,13.7978574 18.5614286,13.8214289 18.8057143,13.8450003 C19.0792391,13.8730459 19.2871199,14.103613 19.2867861,14.3785717 L19.2857143,14.3785717 Z" id="Path"></path>
                </g>
            </g>
        </g>
    </g>
</svg>