<?xml version="1.0" encoding="UTF-8"?>
<svg width="50px" height="30px" viewBox="0 0 50 30" version="1.1" xmlns="http://www.w3.org/2000/svg" xmlns:xlink="http://www.w3.org/1999/xlink">
    <title>Visa</title>
    <g id="Symbols" stroke="none" stroke-width="1" fill="none" fill-rule="evenodd">
        <g id="Footer" transform="translate(-1393.000000, -1136.000000)">
            <g id="Line" transform="translate(0.000000, 1116.000000)">
                <g id="we-accept" transform="translate(1333.000000, 20.000000)">
                    <g id="Visa" transform="translate(60.000000, 0.000000)">
                        <rect id="rect" x="0" y="0" width="50" height="30" rx="3"></rect>
                        <g id="icon" transform="translate(8.000000, 10.000000)" fill-rule="nonzero">
                            <g id="Group" transform="translate(2.857143, 0.000000)" fill="#293688">
                                <polygon id="Shape" points="8.70383929 9.77205357 10.3228571 0.211875 12.9440179 0.211875 11.3250893 9.77205357"></polygon>
                                <path d="M20.6564286,0.459017857 C20.1369643,0.265267857 19.323125,0.0577678571 18.3067857,0.0577678571 C15.71625,0.0577678571 13.8915179,1.35473214 13.8758036,3.21285714 C13.8614286,4.58625 15.1783929,5.35232143 16.1733036,5.81 C17.1935714,6.27767857 17.5366964,6.57776786 17.5316964,6.99571429 C17.5253571,7.63651786 16.7165179,7.92946429 15.9628571,7.92946429 C14.9138393,7.92910714 14.35625,7.78446429 13.4952679,7.42767857 L13.1575,7.27535714 L12.789375,9.41553571 C13.4017857,9.6825 14.5342857,9.91401786 15.7099107,9.92571429 C18.4650893,9.92508929 20.2544643,8.64419643 20.2745536,6.659375 C20.2845536,5.57196429 19.5859821,4.744375 18.0735714,4.061875 C17.1571429,3.62017857 16.5958929,3.32517857 16.6019643,2.876875 C16.6019643,2.47964286 17.0773214,2.05473214 18.1033036,2.05473214 C18.9605357,2.04133929 19.5816071,2.22714286 20.0657143,2.42089286 L20.3002679,2.53116071 L20.6564286,0.459017857 L20.6564286,0.459017857 Z" id="Shape"></path>
                                <path d="M25.1254464,0.211875 C24.4974107,0.211875 24.0436607,0.403660714 23.7676786,1.02607143 L19.8829464,9.77241071 L22.6582143,9.77241071 L23.1977679,8.30741071 L26.5135714,8.30741071 L26.8216071,9.77241071 L29.2888393,9.77241071 L27.1303571,0.212142857 L25.1255357,0.212142857 L25.1255357,0.211875 L25.1254464,0.211875 Z M23.9341071,6.39446429 C24.150625,5.84392857 24.978125,3.72241071 24.978125,3.72241071 C24.963125,3.7475 25.1935714,3.16919643 25.3258929,2.81035714 L25.5033036,3.63419643 C25.5033036,3.63419643 26.0047321,5.91633929 26.11,6.39473214 L23.9341071,6.39473214 L23.9341071,6.39446429 Z" id="Shape"></path>
                                <path d="M3.92375,6.76526786 L3.69285714,5.45464286 C3.21446429,3.926875 1.72973214,2.27383929 0.0659821429,1.445625 L2.381875,9.77205357 L5.15776786,9.77205357 L9.32080357,0.211875 L6.54553571,0.211875 L3.92375,6.76526786 Z" id="Shape"></path>
                            </g>
                            <g id="Group" transform="translate(0.000000, 0.178571)" fill="#F7981D">
                                <path d="M0.0734821429,0.0333035714 L0.0734821429,0.187678571 C3.36258929,0.97875 5.64607143,2.97866071 6.55008929,5.27616071 L5.59964286,0.849196429 C5.44098214,0.244196429 4.96017857,0.054375 4.39125,0.0333928571 L0.0734821429,0.0333035714 L0.0734821429,0.0333035714 Z" id="Shape"></path>
                            </g>
                        </g>
                    </g>
                </g>
            </g>
        </g>
    </g>
</svg>