<svg width="17" height="17" fill="none" xmlns="http://www.w3.org/2000/svg"><path d="M5.354 5.64l-3.94-3.936L2.941.177a.594.594 0 0 1 .846 0l3.07 3.066a.606.606 0 0 1 0 .858L5.593 5.363a1.97 1.97 0 0 0-.202.252l-.038.026zM8.6 12.05c-.657-.555-1.263-1.148-1.87-1.74a17.799 17.799 0 0 1-1.679-1.868 1.917 1.917 0 0 1-.303-1.918l-4.105-4C-.304 3.496-.178 5.893.845 8c.478.873 1.04 1.697 1.68 2.46a22.546 22.546 0 0 0 1.857 2.158 21.27 21.27 0 0 0 2.197 1.931 15.158 15.158 0 0 0 2.526 1.602c2.11 1.035 4.51 1.149 5.47.202l-4.042-4.037a1.92 1.92 0 0 1-1.92-.303l-.013.038zm8.273 1.2l-3.069-3.067a.606.606 0 0 0-.859 0l-.67.669-.63.618a1.261 1.261 0 0 1-.279.215l3.941 3.936 1.516-1.526a.591.591 0 0 0 0-.846h.05z" fill="#96C93D"/></svg>