<svg width="23" height="15" fill="none" xmlns="http://www.w3.org/2000/svg"><path d="M11.53 8.976a.901.901 0 0 0 .487-.14l.035-.024h.03l.436-.355L22.974.05a.117.117 0 0 0-.097-.05H.123a.13.13 0 0 0-.077.025L10.989 8.82a.879.879 0 0 0 .542.175v-.02zM0 1.192v12.467L7.839 7.48 0 1.192zm15.171 6.343l7.84 6.133V1.232l-7.84 6.303zm-2.49 1.995a1.819 1.819 0 0 1-1.15.389 1.84 1.84 0 0 1-1.15-.384L8.584 8.088 0 14.86c0 .032.013.063.036.085a.125.125 0 0 0 .087.035h22.754a.125.125 0 0 0 .087-.035.118.118 0 0 0 .036-.085l-8.58-6.722-1.74 1.392z" fill="#96C93D"/></svg>