<svg width="21" height="21" fill="none" xmlns="http://www.w3.org/2000/svg"><g clip-path="url(#clip0)" fill="#96C93D"><path d="M8.548 8.716a.866.866 0 0 1-.15.489.893.893 0 0 1-.403.323.914.914 0 0 1-.977-.19.862.862 0 0 1-.194-.957.883.883 0 0 1 .33-.395.91.91 0 0 1 1.132.11.869.869 0 0 1 .262.62zm5.692 3.564a.866.866 0 0 1-.15.488.894.894 0 0 1-.403.323.914.914 0 0 1-.977-.19.863.863 0 0 1-.195-.957.882.882 0 0 1 .33-.394.91.91 0 0 1 1.132.109.87.87 0 0 1 .263.62z"/><path d="M20.73 11.66l-.325-.435a1.352 1.352 0 0 1-.013-1.597l.316-.438a1.355 1.355 0 0 0 .217-1.105 1.357 1.357 0 0 0-.252-.52 1.39 1.39 0 0 0-.448-.372l-.483-.254a1.377 1.377 0 0 1-.594-.603 1.34 1.34 0 0 1-.122-.83l.092-.53a1.341 1.341 0 0 0-.292-1.087 1.417 1.417 0 0 0-1.026-.505l-.549-.02a1.418 1.418 0 0 1-.802-.292 1.372 1.372 0 0 1-.48-.694l-.153-.517a1.354 1.354 0 0 0-.278-.507 1.415 1.415 0 0 0-1.615-.366l-.505.21a1.417 1.417 0 0 1-1.592-.344l-.362-.4A1.392 1.392 0 0 0 10.414 0a1.417 1.417 0 0 0-1.041.472l-.36.405a1.402 1.402 0 0 1-.732.432 1.423 1.423 0 0 1-.853-.067l-.512-.207a1.424 1.424 0 0 0-1.608.394 1.36 1.36 0 0 0-.272.51l-.144.52c-.076.277-.24.522-.466.702-.226.18-.505.285-.797.301l-.549.03a1.416 1.416 0 0 0-1.017.521 1.355 1.355 0 0 0-.274 1.093l.101.53c.054.28.015.57-.11.83a1.375 1.375 0 0 1-.584.61l-.479.264a1.386 1.386 0 0 0-.441.378A1.353 1.353 0 0 0 .03 8.816c.041.19.123.368.24.525l.325.434a1.352 1.352 0 0 1 .012 1.599l-.315.439a1.355 1.355 0 0 0-.218 1.105c.046.188.132.366.252.52.121.153.274.28.448.371l.483.254c.258.135.465.347.593.604.128.257.17.547.121.83l-.092.529a1.34 1.34 0 0 0 .292 1.087 1.418 1.418 0 0 0 1.025.505l.55.021c.291.013.572.114.802.291.23.177.398.42.48.695l.153.516c.055.186.15.36.278.507a1.39 1.39 0 0 0 1.04.48c.197.002.393-.036.575-.114l.505-.21a1.417 1.417 0 0 1 1.592.344l.365.4a1.392 1.392 0 0 0 1.049.454 1.414 1.414 0 0 0 1.04-.471l.362-.405a1.4 1.4 0 0 1 .732-.432c.284-.066.582-.043.852.067l.51.206a1.424 1.424 0 0 0 1.148-.037c.177-.086.334-.207.46-.356.127-.15.219-.324.271-.51l.146-.521a1.36 1.36 0 0 1 .465-.702 1.4 1.4 0 0 1 .797-.3l.55-.031a1.415 1.415 0 0 0 1.022-.52 1.355 1.355 0 0 0 .273-1.098l-.101-.53a1.34 1.34 0 0 1 .11-.83c.124-.258.328-.472.584-.61l.479-.263c.173-.094.324-.223.442-.378a1.35 1.35 0 0 0 .246-1.098 1.35 1.35 0 0 0-.24-.525l-.003.002zM5.49 8.715c0-.419.127-.828.365-1.176s.575-.62.97-.779c.396-.16.83-.201 1.25-.12.419.083.803.285 1.105.582a2.095 2.095 0 0 1 .466 2.308 2.127 2.127 0 0 1-.797.95 2.193 2.193 0 0 1-2.729-.267 2.08 2.08 0 0 1-.63-1.498zm2.58 5.46a.53.53 0 0 1-.743.07.513.513 0 0 1-.07-.728l5.665-6.69a.53.53 0 0 1 .742-.07.51.51 0 0 1 .07.727L8.07 14.178zm5.278.22c-.427 0-.845-.124-1.2-.357a2.127 2.127 0 0 1-.796-.95 2.078 2.078 0 0 1-.123-1.223c.083-.41.289-.788.591-1.084a2.174 2.174 0 0 1 1.106-.58c.42-.081.854-.04 1.249.121.395.16.732.432.97.78a2.087 2.087 0 0 1-.269 2.674 2.185 2.185 0 0 1-1.528.619z"/></g><defs><clipPath id="clip0"><path fill="#fff" d="M0 0h21v21H0z"/></clipPath></defs></svg>