<svg width="17" height="16" fill="none" xmlns="http://www.w3.org/2000/svg"><path d="M8.5 8.477c2.105 0 3.812-1.898 3.812-4.239C12.312.992 10.605 0 8.5 0 6.395 0 4.688.992 4.688 4.238c0 2.341 1.707 4.24 3.812 4.24zm8.417 6.239L14.995 10.6a.936.936 0 0 0-.434-.44l-2.986-1.476a.2.2 0 0 0-.205.016 4.87 4.87 0 0 1-2.87.928A4.87 4.87 0 0 1 5.63 8.7a.2.2 0 0 0-.207-.016L2.44 10.161a.937.937 0 0 0-.435.44l-1.92 4.114a.873.873 0 0 0 .073.867.945.945 0 0 0 .347.305c.141.072.298.11.458.11h15.075c.16 0 .317-.038.458-.11a.945.945 0 0 0 .347-.305.884.884 0 0 0 .074-.867z" fill="#96C93D"/></svg>