<svg width="24" height="24" viewBox="0 0 24 24" fill="none" xmlns="http://www.w3.org/2000/svg">
<g clip-path="url(#clip0)">
<path d="M21.6747 11.9032C21.3538 11.9032 21.0936 12.1635 21.0936 12.4844V22.8379H14.8576V16.3386C14.8576 16.0177 14.5973 15.7575 14.2764 15.7575H9.72416C9.40327 15.7575 9.14302 16.0177 9.14302 16.3386V21.492C9.14302 21.8129 9.40327 22.0732 9.72416 22.0732C10.045 22.0732 10.3053 21.8129 10.3053 21.492V16.9197H13.6953V22.8379H2.90691V8.61341L12.0002 1.32602L21.3112 8.78785C21.5617 8.98863 21.9274 8.94815 22.1281 8.69777C22.3288 8.4473 22.2885 8.08167 22.038 7.88088L12.3636 0.127705C12.1513 -0.0425685 11.8491 -0.0425685 11.6368 0.127705L1.96236 7.88088C1.82473 7.9912 1.74463 8.15789 1.74463 8.33437V23.4189C1.74463 23.7398 2.00479 24.0001 2.32577 24.0001H21.6747C21.9957 24.0001 22.2559 23.7398 22.2559 23.4189V12.4844C22.2559 12.1634 21.9957 11.9032 21.6747 11.9032Z" fill="#999999"/>
</g>
<defs>
<clipPath id="clip0">
<rect width="24" height="24" fill="white"/>
</clipPath>
</defs>
</svg>
