<svg width="24" height="24" viewBox="0 0 24 24" fill="none" xmlns="http://www.w3.org/2000/svg">
<path d="M12.0001 0C7.71688 0 4.23218 3.4847 4.23218 7.76793C4.23218 11.5983 6.88905 16.6191 9.11792 20.1565C9.26167 20.3847 9.56318 20.4532 9.7915 20.3094C10.0197 20.1656 10.0881 19.864 9.94429 19.6359C6.03053 13.4241 5.20905 9.75342 5.20905 7.76793C5.20905 4.02332 8.2555 0.976791 12.0002 0.976791C15.7449 0.976791 18.7913 4.02324 18.7913 7.76793C18.7913 13.8491 11.6855 23.1202 11.6137 23.213C11.4489 23.4265 11.4882 23.7333 11.7017 23.8981C11.7906 23.9668 11.8957 24 11.9999 24C12.146 24 12.2905 23.9347 12.3868 23.8102C12.6882 23.4201 19.7682 14.1825 19.7682 7.76785C19.768 3.4847 16.2834 0 12.0001 0Z" fill="#999999"/>
<path d="M12.0002 5.291C12.2698 5.291 12.4886 5.07228 12.4886 4.8026C12.4886 4.53293 12.2698 4.31421 12.0002 4.31421C10.0957 4.31421 8.54639 5.86356 8.54639 7.76798C8.54639 9.6724 10.0957 11.2218 12.0002 11.2218C13.9046 11.2218 15.4539 9.6724 15.4539 7.76798C15.4539 7.00739 15.2114 6.28586 14.7525 5.68131C14.5895 5.4665 14.2831 5.42458 14.0682 5.58762C13.8534 5.75066 13.8114 6.05705 13.9745 6.27194C14.3034 6.70507 14.4771 7.22244 14.4771 7.76798C14.4771 9.13378 13.366 10.245 12.0002 10.245C10.6344 10.245 9.52318 9.13378 9.52318 7.76798C9.52318 6.40218 10.6344 5.291 12.0002 5.291Z" fill="#999999"/>
</svg>
