<svg width="24" height="24" viewBox="0 0 24 24" fill="none" xmlns="http://www.w3.org/2000/svg">
<path d="M12.0002 0C7.717 0 4.2323 3.4847 4.2323 7.76793C4.2323 11.5983 6.88917 16.6191 9.11805 20.1565C9.2618 20.3847 9.5633 20.4532 9.79162 20.3094C10.0198 20.1656 10.0882 19.864 9.94441 19.6359C6.03065 13.4241 5.20917 9.75342 5.20917 7.76793C5.20917 4.02332 8.25562 0.976791 12.0003 0.976791C15.745 0.976791 18.7915 4.02324 18.7915 7.76793C18.7915 13.8491 11.6856 23.1202 11.6138 23.213C11.449 23.4265 11.4883 23.7333 11.7018 23.8981C11.7907 23.9668 11.8958 24 12.0001 24C12.1461 24 12.2907 23.9347 12.3869 23.8102C12.6883 23.4201 19.7683 14.1825 19.7683 7.76785C19.7682 3.4847 16.2835 0 12.0002 0Z" fill="#5FB46E"/>
<path d="M12.0003 5.291C12.27 5.291 12.4887 5.07228 12.4887 4.8026C12.4887 4.53293 12.27 4.31421 12.0003 4.31421C10.0959 4.31421 8.54651 5.86356 8.54651 7.76798C8.54651 9.6724 10.0959 11.2218 12.0003 11.2218C13.9047 11.2218 15.4541 9.6724 15.4541 7.76798C15.4541 7.00739 15.2116 6.28586 14.7526 5.68131C14.5896 5.4665 14.2832 5.42458 14.0683 5.58762C13.8535 5.75066 13.8115 6.05705 13.9746 6.27194C14.3035 6.70507 14.4773 7.22244 14.4773 7.76798C14.4773 9.13378 13.3661 10.245 12.0003 10.245C10.6345 10.245 9.5233 9.13378 9.5233 7.76798C9.5233 6.40218 10.6346 5.291 12.0003 5.291Z" fill="#5FB46E"/>
</svg>
