<svg width="100" height="100" viewBox="0 0 100 100" fill="none" xmlns="http://www.w3.org/2000/svg">
<path d="M68.474 49.6975V47.9919C68.474 46.0697 68.1779 44.1812 67.5949 42.369L74.1481 37.0757C74.8438 36.5138 75.1013 35.6047 74.8044 34.7598C74.5075 33.9149 73.7383 33.369 72.8451 33.369H70.0235L74.3682 25.6855C74.8052 24.9129 74.7998 23.9933 74.3541 23.2257C73.9083 22.4583 73.1135 22 72.2278 22H64.1995C63.2647 22 62.3964 22.5447 61.9872 23.3877L58.0718 31.4552C56.6762 30.7866 55.2032 30.2997 53.6814 30.0065C52.5479 29.7874 51.3811 29.6764 50.2136 29.6764C45.8568 29.6764 41.6381 31.2409 38.3349 34.0819C37.986 34.382 37.9457 34.9089 38.2448 35.2588C38.4094 35.4514 38.6424 35.5502 38.8769 35.5502C39.0687 35.5502 39.2613 35.4841 39.4182 35.3491C42.42 32.7674 46.2538 31.3456 50.2135 31.3456C51.2756 31.3456 52.3365 31.4466 53.3668 31.6457C54.7451 31.9114 56.0783 32.3531 57.3425 32.9575L55.9521 35.8224C55.6415 36.4623 55.6807 37.2045 56.0568 37.8078C56.4331 38.4112 57.0812 38.7715 57.7907 38.7715H60.4556L58.0238 45.2448C57.6975 46.1132 57.9818 47.0623 58.7312 47.6065C59.0912 47.8679 59.506 47.9979 59.92 47.9979C60.3679 47.9979 60.8146 47.8457 61.1891 47.5433L66.1961 43.4988C66.6029 44.9553 66.8093 46.4616 66.8093 47.992V49.731C61.1082 49.6559 53.2532 48.8515 46.6457 45.6273C42.5145 43.6114 40.8112 41.5741 40.7963 41.5559C40.5741 41.2818 40.2038 41.1776 39.872 41.2958C39.54 41.414 39.3183 41.7291 39.3183 42.0823C39.3183 43.5411 38.5998 45.1509 37.295 46.6152C36.282 47.7522 34.9828 48.7099 33.6184 49.3447V47.9919C33.6184 44.31 34.7924 40.8208 37.0134 37.9019C37.2922 37.5355 37.2221 37.0116 36.8567 36.732C36.4915 36.4523 35.9692 36.5228 35.6903 36.8892C33.2461 40.1017 31.9541 43.9409 31.9541 47.992V49.7025C31.8146 49.6977 31.6921 49.6944 31.6199 49.6944C28.0119 49.6944 25.0767 52.638 25.0767 56.2562C25.0767 59.8751 28.0119 62.8192 31.6199 62.8192C31.8081 62.8192 31.9961 62.8092 32.1834 62.7931C33.5722 71.5198 41.1278 78.2102 50.2133 78.2102C51.3809 78.2102 52.5478 78.099 53.6807 77.8801C58.5222 76.9466 62.8455 74.0203 65.5424 69.8518C65.7926 69.4651 65.6829 68.9483 65.2973 68.6973C64.9118 68.4463 64.3964 68.5565 64.1462 68.9431C61.6946 72.7327 57.7657 75.3925 53.3662 76.2409C52.3363 76.44 51.2755 76.5409 50.2133 76.5409C41.0629 76.5409 33.6185 69.074 33.6185 59.896V51.1586C35.4557 50.4465 37.1843 49.2451 38.5361 47.7278C39.6321 46.4977 40.3861 45.1546 40.7444 43.8223C41.7399 44.6758 43.3744 45.8736 45.7914 47.0665C49.6845 48.988 56.4621 51.2707 66.8094 51.4003V59.896C66.8094 62.0878 66.3915 64.2175 65.5673 66.226C65.3924 66.6524 65.5951 67.1401 66.0202 67.3156C66.1238 67.3583 66.2311 67.3786 66.3366 67.3786C66.6638 67.3786 66.9743 67.1837 67.1064 66.8614C67.6424 65.5553 68.021 64.2025 68.2422 62.8173C68.2779 62.8179 68.3136 62.8193 68.3493 62.8193C71.9566 62.8193 74.8914 59.8752 74.8914 56.2563C74.8916 52.6798 72.0239 49.7646 68.474 49.6975ZM60.1454 46.2429C59.9585 46.3939 59.7906 46.3147 59.7073 46.2543C59.624 46.1938 59.4967 46.0585 59.5813 45.8335L62.4372 38.2313C62.5335 37.9748 62.4982 37.6874 62.3429 37.462C62.1875 37.2367 61.9317 37.1022 61.6585 37.1022H57.7907C57.6072 37.1022 57.5097 36.9898 57.468 36.9228C57.4262 36.8558 57.3682 36.7188 57.4485 36.5533L63.4837 24.1185C63.616 23.8457 63.8971 23.6694 64.1996 23.6694H72.2279C72.641 23.6694 72.8466 23.9467 72.9159 24.0661C72.9851 24.1854 73.1243 24.5017 72.9204 24.8619L67.8709 33.7919C67.7248 34.0503 67.7267 34.367 67.8757 34.6238C68.0248 34.8805 68.2987 35.0384 68.5948 35.0384H72.8451C73.1089 35.0384 73.2055 35.2318 73.2347 35.3149C73.2639 35.3981 73.3097 35.6094 73.1042 35.7755L60.1454 46.2429ZM31.6202 61.1498C28.93 61.1498 26.7414 58.9545 26.7414 56.2562C26.7414 53.5585 28.93 51.3638 31.6202 51.3638C31.6802 51.3638 31.8043 51.3675 31.9544 51.3729V54.172C30.8171 54.1474 29.3924 54.5403 28.7182 56.0955C28.5349 56.5182 28.7281 57.01 29.1496 57.1938C29.2577 57.241 29.3702 57.2632 29.4809 57.2632C29.8023 57.2632 30.1083 57.0755 30.2445 56.7611C30.6014 55.9377 31.3921 55.8118 31.9544 55.8386V59.8959C31.9544 60.3119 31.9696 60.7244 31.997 61.1337C31.8717 61.1434 31.7461 61.1498 31.6202 61.1498ZM68.4314 61.1477C68.4591 60.7327 68.474 60.3153 68.474 59.8959V55.8386C69.0362 55.812 69.826 55.9383 70.1828 56.7611C70.319 57.0755 70.625 57.2632 70.9464 57.2632C71.0571 57.2632 71.1697 57.2409 71.2777 57.1938C71.6992 57.01 71.8924 56.5182 71.7091 56.0955C71.0352 54.5409 69.6112 54.1478 68.474 54.172V51.3669C71.1061 51.4336 73.2272 53.6003 73.2272 56.2562C73.2272 58.9269 71.0832 61.1035 68.4314 61.1477Z" fill="#FF5312"/>
<path d="M46.0047 67.4055C48.3256 65.0776 52.1017 65.0777 54.4225 67.4055C54.585 67.5684 54.798 67.65 55.0109 67.65C55.2239 67.65 55.4369 67.5686 55.5993 67.4055C55.9243 67.0795 55.9243 66.551 55.5993 66.2251C52.6295 63.2464 47.7975 63.2465 44.8277 66.2251C44.5027 66.5511 44.5027 67.0796 44.8277 67.4055C45.1527 67.7315 45.6797 67.7315 46.0047 67.4055Z" fill="#FF5312"/>
<path d="M40.393 59.7582C40.503 60.1172 40.8324 60.3477 41.1881 60.3477C41.2691 60.3477 41.3516 60.3357 41.4331 60.3106L45.8317 58.953C46.1106 58.8669 46.3242 58.6405 46.3946 58.3564C46.4649 58.0723 46.3817 57.772 46.1753 57.565L43.2147 54.5954C42.8897 54.2695 42.3628 54.2695 42.0379 54.5954C41.7129 54.9214 41.7129 55.4499 42.0379 55.7758L44.0212 57.7651L40.9437 58.7149C40.5044 58.8505 40.2578 59.3176 40.393 59.7582Z" fill="#FF5312"/>
<path d="M59.121 60.3477C59.4768 60.3477 59.8061 60.1171 59.9162 59.7583C60.0513 59.3177 59.8048 58.8506 59.3655 58.715L56.2881 57.7653L58.2713 55.776C58.5963 55.45 58.5963 54.9215 58.2713 54.5956C57.9463 54.2695 57.4194 54.2696 57.0945 54.5956L54.1339 57.5651C53.9276 57.7722 53.8443 58.0724 53.9147 58.3566C53.985 58.6407 54.1986 58.8671 54.4776 58.9532L58.8762 60.3108C58.9576 60.3358 59.04 60.3477 59.121 60.3477Z" fill="#FF5312"/>
<path d="M30.1784 32.162L26.9602 32.9069C26.6939 32.9686 26.4747 33.1575 26.3739 33.4122C26.273 33.667 26.3033 33.9552 26.4549 34.1832L29.8385 39.2739C29.9988 39.5152 30.2627 39.6458 30.5316 39.6458C30.6903 39.6458 30.8506 39.6003 30.9924 39.5054C31.3749 39.2498 31.4782 38.7315 31.2232 38.348L28.5075 34.2622L31.733 33.5156C32.0001 33.4537 32.2198 33.264 32.3202 33.0081C32.4206 32.7522 32.389 32.4632 32.2356 32.2353L27.5538 25.278C27.2967 24.8958 26.7793 24.795 26.3985 25.0531C26.0174 25.3109 25.9171 25.8298 26.1742 26.2118L30.1784 32.162Z" fill="#FF5312"/>
<path d="M36.4865 32.2838C36.622 32.5997 36.9289 32.7889 37.2513 32.7889C37.3611 32.7889 37.4726 32.767 37.5798 32.7208C38.002 32.5386 38.197 32.0477 38.0154 31.6241L36.6734 28.4949L38.8715 28.3955C39.1454 28.3832 39.3957 28.2363 39.5405 28.0029C39.6854 27.7694 39.7064 27.4794 39.5967 27.2275L37.8788 23.2841C37.6947 22.8617 37.2039 22.6687 36.7831 22.8534C36.3619 23.0381 36.1697 23.5301 36.3537 23.9525L37.5865 26.7824L35.3958 26.8815C35.1227 26.8938 34.8732 27.0397 34.7281 27.2721C34.5829 27.5044 34.5608 27.7934 34.6688 28.0452L36.4865 32.2838Z" fill="#FF5312"/>
<path d="M94.3656 50C94.3656 74.5781 74.5015 94.5 50.0012 94.5C25.5008 94.5 5.63672 74.5781 5.63672 50C5.63672 25.4219 25.5008 5.5 50.0012 5.5C74.5015 5.5 94.3656 25.4219 94.3656 50Z" stroke="#FF5312"/>
<path d="M98.8506 50C98.8506 77.0648 76.9771 99 50.0012 99C23.0253 99 1.15186 77.0648 1.15186 50C1.15186 22.9352 23.0253 1 50.0012 1C76.9771 1 98.8506 22.9352 98.8506 50Z" stroke="#FF5312" stroke-width="2"/>
</svg>
