<svg width="101" height="100" viewBox="0 0 101 100" fill="none" xmlns="http://www.w3.org/2000/svg">
<path d="M77.5692 76.7891L74.9149 61.5605C74.6289 59.9197 73.4412 58.6017 71.8149 58.1209L64.6557 56.004C64.5075 54.289 63.7899 52.6709 62.5958 51.3902C61.6406 50.3658 60.4392 49.6199 59.1149 49.2083C59.3415 48.9618 59.5516 48.7162 59.7444 48.4759C61.4469 46.3539 62.3584 44.0162 62.5904 42.4209H63.1427C64.5792 42.4209 65.7479 41.2757 65.7479 39.8678V38.559C65.7479 37.6195 65.2086 36.7682 64.3976 36.3264V33.1792C64.3976 32.7036 64.0042 32.3181 63.5189 32.3181C63.0336 32.3181 62.6403 32.7035 62.6403 33.1792V36.7122C62.2982 36.7705 61.8899 36.8711 61.4722 37.0434C61.4294 37.0587 61.3878 37.0764 61.3485 37.0976C61.2541 37.1398 61.1597 37.1842 61.0656 37.2343V30.2952C61.0656 28.3781 59.4742 26.8186 57.518 26.8186H55.0928C54.2563 26.8186 53.4391 27.1042 52.7916 27.623L52.5535 27.8137C52.1164 28.164 51.5647 28.3569 51 28.3569C50.4353 28.3569 49.8834 28.164 49.4463 27.8137L49.2084 27.623C48.5609 27.1043 47.7437 26.8186 46.9072 26.8186H44.4818C42.5256 26.8186 40.9342 28.3781 40.9342 30.2952V37.2343C40.8401 37.1842 40.7456 37.1398 40.6513 37.0976C40.6119 37.0764 40.5704 37.0587 40.5276 37.0434C40.11 36.8711 39.7016 36.7705 39.3595 36.7122V27.7787C39.3595 24.9905 41.6742 22.7221 44.5193 22.7221H57.4803C60.3255 22.7221 62.6401 24.9905 62.6401 27.7787V29.1322C62.6401 29.6078 63.0335 29.9933 63.5187 29.9933C64.0038 29.9933 64.3973 29.6079 64.3973 29.1322V27.7787C64.3973 24.0409 61.2943 21 57.4803 21H44.5193C40.7052 21 37.6023 24.0409 37.6023 27.7787V36.3265C36.7912 36.7683 36.2519 37.6195 36.2519 38.5591V39.8679C36.2519 41.2758 37.4207 42.421 38.8571 42.421H39.4094C39.6414 44.0163 40.553 46.3541 42.2555 48.476C42.448 48.716 42.658 48.9615 42.8844 49.2077C39.8399 50.1554 37.6196 52.8379 37.3441 56.004L30.1847 58.1209C28.5585 58.6017 27.3707 59.9197 27.0847 61.5605L26.0068 67.7447C25.9252 68.2135 26.2467 68.6583 26.725 68.7384C27.2031 68.8186 27.6572 68.5034 27.739 68.0346L28.8169 61.8504C28.9898 60.8577 29.7084 60.0604 30.6922 59.7696L37.3139 57.8117V59.5149C35.7961 59.7887 34.5046 60.8105 33.9727 62.2262C33.8314 62.6019 33.7437 62.9954 33.7118 63.3955L33.0718 71.4455C33.0235 72.0518 33.2377 72.6557 33.6589 73.1019C34.0802 73.5481 34.6778 73.8042 35.2983 73.8042H36.3937C36.879 73.8042 37.2724 73.4188 37.2724 72.9431C37.2724 72.4675 36.879 72.0822 36.3937 72.0822H35.2983C35.166 72.0822 35.0387 72.0277 34.9488 71.9324C34.8591 71.8373 34.8135 71.7087 34.8238 71.5795L35.4637 63.5294C35.4831 63.287 35.5362 63.0487 35.6217 62.8212C35.9918 61.8364 36.9912 61.1695 38.1088 61.1618L38.2535 61.1607C38.2603 61.1606 38.267 61.1606 38.2737 61.1606C39.3599 61.1606 40.3214 61.7642 40.727 62.7026C40.8408 62.9657 40.9099 63.2439 40.9326 63.5294L41.5728 71.5796C41.583 71.7087 41.5375 71.8373 41.4477 71.9325C41.3579 72.0276 41.2305 72.0822 41.0982 72.0822H40.0028C39.5175 72.0822 39.1241 72.4676 39.1241 72.9431C39.1241 73.4187 39.5175 73.8042 40.0028 73.8042H41.0982C41.7187 73.8042 42.3164 73.5482 42.7376 73.1019C43.159 72.6555 43.3731 72.0517 43.3248 71.4456L42.6846 63.3955C42.6471 62.9244 42.5328 62.4651 42.345 62.0307C41.7662 60.692 40.5286 59.7611 39.071 59.5093V57.2921L42.0914 56.399C42.3662 56.9662 42.9108 58.1919 43.9895 60.8341C45.0766 63.5001 46.4279 66.9173 47.7239 70.2393C47.7332 70.2672 47.7438 70.2944 47.7558 70.321C48.6206 72.5388 49.4596 74.7109 50.1771 76.5847C50.3058 76.9208 50.6335 77.1433 50.9998 77.1433C51.366 77.1433 51.6937 76.9208 51.8224 76.5847C52.5398 74.7109 53.3788 72.5388 54.2437 70.321C54.2558 70.2944 54.2664 70.267 54.2756 70.2393C55.5707 66.9192 56.9212 63.5042 58.0079 60.8391C59.088 58.1934 59.6331 56.9666 59.908 56.399L62.9284 57.2921V62.378C60.8357 62.7764 59.2505 64.5852 59.2505 66.7509C59.2505 69.2075 61.2899 71.2062 63.7967 71.2062C66.3036 71.2062 68.343 69.2076 68.343 66.7509C68.343 64.5923 66.7683 62.7878 64.6856 62.3816V57.8118L71.3074 59.7698C72.2912 60.0605 73.0097 60.8578 73.1828 61.8505L75.8371 77.0791C75.8811 77.3317 75.8126 77.5786 75.6439 77.7744C75.4754 77.9701 75.2386 78.078 74.9771 78.078H27.0224C26.7609 78.078 26.5242 77.9702 26.3556 77.7744C26.1871 77.5786 26.1184 77.3318 26.1625 77.0791L27.0384 72.0533C27.1201 71.5845 26.7985 71.1397 26.3203 71.0597C25.8422 70.9793 25.3881 71.2948 25.3063 71.7635L24.4303 76.7893C24.2996 77.5394 24.5119 78.3032 25.0125 78.8849C25.5134 79.4665 26.2459 79.8 27.0224 79.8H74.9771C75.7536 79.8 76.4863 79.4665 76.987 78.8848C77.4876 78.3031 77.6999 77.5393 77.5692 76.7891ZM62.6507 38.4665C63.1188 38.3521 63.4946 38.3542 63.4989 38.3543C63.6503 38.3562 63.7974 38.3215 63.9282 38.2544C63.9674 38.3498 63.9905 38.4523 63.9905 38.5591V39.8679C63.9905 40.3261 63.6101 40.6989 63.1425 40.6989H62.6507V38.4665ZM39.3489 40.6989H38.857C38.3894 40.6989 38.0091 40.3261 38.0091 39.8679V38.5591C38.0091 38.4523 38.0323 38.3498 38.0713 38.2545C38.2019 38.3217 38.3491 38.3563 38.5007 38.3543C38.5073 38.3554 38.8821 38.3534 39.3489 38.4669V40.6989ZM41.1061 41.6644V39.4022C41.3723 39.4804 41.6635 39.4697 41.9324 39.3598C42.3935 39.1713 42.6914 38.7334 42.6914 38.244V30.2952C42.6914 29.3278 43.4946 28.5406 44.4818 28.5406H46.907C47.3392 28.5406 47.7614 28.6882 48.096 28.9563L48.3339 29.1469C49.084 29.748 50.0307 30.0789 50.9998 30.0789C51.9688 30.0789 52.9155 29.7479 53.6657 29.1469L53.9035 28.9563C54.238 28.6882 54.6603 28.5406 55.0925 28.5406H57.5177C58.5049 28.5406 59.3081 29.3278 59.3081 30.2952V38.2441C59.3081 38.7334 59.606 39.1714 60.0671 39.36C60.2211 39.4229 60.3824 39.4534 60.5422 39.4534C60.6614 39.4534 60.7796 39.4363 60.8934 39.403V41.6644C60.8934 42.9216 60.0066 45.363 58.3629 47.4115C57.8184 48.0901 57.1186 48.8192 56.2569 49.4563C56.2296 49.4742 56.2035 49.4937 56.1785 49.5143C54.8436 50.4815 53.1272 51.2225 50.9998 51.2225C48.8723 51.2225 47.1559 50.4815 45.8209 49.5142C45.7959 49.4937 45.7699 49.4742 45.7427 49.4564C44.881 48.8192 44.1812 48.0901 43.6366 47.4115C41.9931 45.3631 41.1061 42.9216 41.1061 41.6644ZM56.756 55.576L50.9998 59.7924L45.2435 55.576C45.8143 54.865 46.1341 53.9523 46.1341 53.1379V51.7499C47.4878 52.4633 49.103 52.9447 50.9998 52.9447C52.8966 52.9447 54.5119 52.4633 55.8654 51.7499V53.1379C55.8654 53.9523 56.1852 54.865 56.756 55.576ZM43.7771 54.6149C43.3079 54.4397 42.7877 54.411 42.2957 54.5418C42.2741 54.5468 42.253 54.5524 42.2325 54.5584L39.197 55.456C39.7104 52.982 41.7602 51.0129 44.3769 50.6315V53.1379C44.3769 53.6781 44.1308 54.2366 43.7771 54.6149ZM46.1618 61.5271C46.1601 61.5231 46.1585 61.5191 46.157 61.5152C46.1125 61.4048 46.0685 61.2959 46.0249 61.1883C46.0171 61.1688 46.0092 61.1494 46.0014 61.1301C45.9587 61.0248 45.9164 60.9203 45.8747 60.8175C45.8718 60.8102 45.8688 60.8031 45.8659 60.7958C45.7357 60.475 45.6102 60.1673 45.4895 59.8725C45.4807 59.8512 45.4719 59.8295 45.4631 59.8082C45.4284 59.7237 45.3943 59.6404 45.3605 59.5582C45.348 59.528 45.3357 59.4982 45.3234 59.4683C45.2906 59.3886 45.258 59.3093 45.2259 59.2318C45.2163 59.2086 45.2069 59.1861 45.1975 59.163C45.1392 59.0222 45.0823 58.885 45.0267 58.7512C45.0117 58.715 44.9964 58.6782 44.9815 58.6424C44.9597 58.5903 44.9385 58.5395 44.9171 58.4884C44.8942 58.4333 44.8712 58.3787 44.8487 58.3249C44.8403 58.3048 44.8315 58.2836 44.823 58.2636C44.8162 58.2475 44.81 58.2327 44.8034 58.2167C44.7019 57.9751 44.6054 57.7474 44.5139 57.5332C44.5132 57.5315 44.5124 57.5297 44.5117 57.528C44.4629 57.414 44.4152 57.3026 44.3694 57.1965C44.3456 57.1414 44.3222 57.0874 44.2992 57.0343L49.2498 60.6604L47.1812 61.5216C47.1776 61.5231 47.1738 61.5246 47.1702 61.5262L46.3065 61.8858C46.2575 61.7644 46.2096 61.6454 46.1618 61.5271ZM48.2583 66.7993C48.0847 66.358 47.9099 65.9141 47.7347 65.4707C47.4607 64.7772 47.199 64.1177 46.9486 63.4895L47.2765 63.353L48.6162 64.8792L48.2583 66.7993ZM51.0167 73.7977C50.9916 73.7465 50.9616 73.6981 50.9269 73.6531C50.5298 72.6247 50.0259 71.3234 49.4682 69.8916L50.2885 65.4902H51.711L52.5313 69.8916C51.9469 71.3916 51.422 72.7479 51.0167 73.7977ZM52.0405 63.7683H49.959L48.9741 62.6462L50.9998 61.8029L53.0255 62.6462L52.0405 63.7683ZM54.2648 65.4707C54.0896 65.9141 53.9148 66.358 53.7412 66.7993L53.3834 64.879L54.723 63.3529L55.0509 63.4894C54.8005 64.1176 54.5388 64.7772 54.2648 65.4707ZM57.6302 57.1965C57.5867 57.2971 57.5415 57.4026 57.4955 57.5103C57.4895 57.5243 57.4834 57.5385 57.4774 57.5526C57.4318 57.6594 57.3854 57.7685 57.3374 57.8821C57.3342 57.8895 57.3309 57.8975 57.3278 57.905C57.2863 58.003 57.2437 58.1041 57.2005 58.2071C57.1924 58.2264 57.1848 58.2442 57.1767 58.2636C57.1671 58.2867 57.1568 58.3111 57.1471 58.3344C57.1278 58.3804 57.1083 58.4272 57.0886 58.4741C57.0644 58.5319 57.0404 58.5894 57.0157 58.6485C57.0078 58.6674 56.9998 58.687 56.9918 58.706C56.9306 58.8528 56.8678 59.0042 56.8036 59.1597C56.7935 59.1841 56.7835 59.2079 56.7735 59.2326C56.7417 59.3095 56.7094 59.3879 56.6769 59.4668C56.6642 59.4977 56.6515 59.5285 56.6387 59.5597C56.6052 59.6411 56.5713 59.7236 56.5371 59.8072C56.5275 59.8305 56.5178 59.8544 56.5082 59.8778C56.389 60.1686 56.2653 60.4719 56.137 60.788C56.1328 60.7984 56.1286 60.8086 56.1244 60.8192C56.0829 60.9213 56.0409 61.0251 55.9985 61.1297C55.9907 61.1493 55.9827 61.1688 55.9747 61.1884C55.9309 61.2966 55.8867 61.4059 55.8419 61.517C55.8411 61.5191 55.8403 61.5211 55.8395 61.5231C55.7912 61.6427 55.7427 61.7631 55.6932 61.886L54.8287 61.5261C54.8257 61.5248 54.8226 61.5235 54.8197 61.5223L52.75 60.6606L57.7005 57.0345C57.6773 57.0873 57.6539 57.1413 57.6302 57.1965ZM59.767 54.5585C59.7669 54.5585 59.7667 54.5584 59.7666 54.5584C59.7658 54.5581 59.765 54.558 59.7643 54.5577C59.2546 54.4078 58.7108 54.4326 58.2225 54.6149C57.8687 54.2366 57.6227 53.6781 57.6227 53.1379V50.6303C60.2558 51.0106 62.2994 52.9612 62.8062 55.457L59.767 54.5585ZM66.5858 66.7509C66.5858 68.2581 65.3346 69.4842 63.7967 69.4842C62.2589 69.4842 61.0077 68.2581 61.0077 66.7509C61.0077 65.2437 62.2589 64.0176 63.7967 64.0176C65.3346 64.0176 66.5858 65.2437 66.5858 66.7509Z" fill="#FF5312"/>
<path d="M48.3086 45.0455C49.8712 43.5141 52.4137 43.5141 53.9763 45.0455C54.0856 45.1526 54.2291 45.2063 54.3724 45.2063C54.5158 45.2063 54.6592 45.1527 54.7686 45.0455C54.9874 44.831 54.9874 44.4833 54.7686 44.269C52.7691 42.3094 49.5157 42.3095 47.5162 44.269C47.2973 44.4834 47.2973 44.8311 47.5162 45.0455C47.735 45.2599 48.0898 45.2599 48.3086 45.0455Z" fill="#FF5312"/>
<path d="M44.5303 40.0149C44.6044 40.251 44.8261 40.4026 45.0656 40.4026C45.1202 40.4026 45.1758 40.3948 45.2306 40.3782L48.1922 39.4852C48.38 39.4285 48.5238 39.2796 48.5711 39.0927C48.6185 38.9058 48.5625 38.7082 48.4235 38.5721L46.4302 36.6186C46.2114 36.4042 45.8566 36.4042 45.6378 36.6186C45.419 36.833 45.419 37.1807 45.6378 37.3951L46.9732 38.7037L44.9011 39.3285C44.6053 39.4178 44.4393 39.725 44.5303 40.0149Z" fill="#FF5312"/>
<path d="M57.1396 40.4026C57.3791 40.4026 57.6009 40.2509 57.675 40.0148C57.766 39.725 57.6 39.4177 57.3042 39.3285L55.2322 38.7037L56.5675 37.3951C56.7863 37.1807 56.7863 36.833 56.5675 36.6186C56.3487 36.4041 55.9939 36.4042 55.7752 36.6186L53.7818 38.5721C53.6429 38.7083 53.5868 38.9058 53.6342 39.0927C53.6816 39.2796 53.8254 39.4285 54.0132 39.4852L56.9748 40.3783C57.0296 40.3947 57.0851 40.4026 57.1396 40.4026Z" fill="#FF5312"/>
<path d="M94.9761 50C94.9761 74.5769 75.063 94.5 50.4995 94.5C25.936 94.5 6.02295 74.5769 6.02295 50C6.02295 25.4231 25.936 5.5 50.4995 5.5C75.063 5.5 94.9761 25.4231 94.9761 50Z" stroke="#FF5312"/>
<path d="M99.4734 50C99.4734 77.0624 77.5465 99 50.4994 99C23.4523 99 1.52539 77.0624 1.52539 50C1.52539 22.9376 23.4523 1 50.4994 1C77.5465 1 99.4734 22.9376 99.4734 50Z" stroke="#FF5312" stroke-width="2"/>
</svg>
