<svg width="50" height="30" xmlns="http://www.w3.org/2000/svg"><g fill="none" fill-rule="evenodd"><rect width="50" height="30" rx="3"/><g transform="translate(5 9)" fill-rule="nonzero"><circle fill="#F26E21" cx="21.132" cy="3.314" r="3.305"/><path d="M3.33 4.896c-.39.35-.893.5-1.69.5h-.332v-4.15h.331c.798 0 1.281.142 1.69.508a2.1 2.1 0 01.682 1.561c0 .603-.255 1.206-.682 1.581zM1.886.184H.073v6.274h1.805c.957 0 1.65-.224 2.257-.724a3.145 3.145 0 001.148-2.41c0-1.853-1.396-3.14-3.396-3.14zm3.966 6.274h1.232V.184H5.852v6.274m4.251-3.868c-.741-.272-.96-.451-.96-.788 0-.396.389-.697.92-.697.37 0 .674.15.998.507l.644-.836a2.777 2.777 0 00-1.86-.697c-1.118 0-1.973.772-1.973 1.796 0 .867.398 1.309 1.556 1.724.484.168.73.28.854.357.246.16.37.385.37.648 0 .51-.408.885-.959.885-.588 0-1.062-.291-1.347-.837l-.796.763c.568.826 1.252 1.195 2.192 1.195 1.28 0 2.18-.848 2.18-2.061.001-.998-.415-1.45-1.82-1.958m2.21.733c0 1.846 1.461 3.276 3.34 3.276.531 0 .986-.105 1.546-.366V4.793c-.493.49-.93.687-1.49.687-1.243 0-2.125-.894-2.125-2.165 0-1.204.91-2.155 2.069-2.155.587 0 1.034.207 1.546.706V.426c-.54-.272-.987-.384-1.518-.384-1.869 0-3.368 1.459-3.368 3.282m14.885 1.074L25.507.184h-1.346l2.686 6.435h.663L30.243.184h-1.338l-1.708 4.214m3.606 2.06h3.5V5.396h-2.267V3.701h2.18V2.639h-2.18V1.246h2.267V.184h-3.5v6.274m5.909-3.386h-.36V1.17h.379c.77 0 1.188.322 1.188.932 0 .63-.418.97-1.207.97zm2.476-1.037c0-1.175-.816-1.851-2.24-1.851h-1.83v6.274h1.234V3.937h.162l1.706 2.521h1.518l-1.993-2.643c.931-.188 1.443-.82 1.443-1.78z" fill="#0B161F"/><path fill="#000" d="M9.075 12.29V8.76l2.41 2.521V8.984h.5v3.507l-2.41-2.516v2.314h-.5zM14.6 9.453h-1.325v.794h1.287v.47h-1.287v1.104H14.6v.469h-1.824V8.985H14.6v.468zm1.567 0v2.836h-.499V9.453h-.76v-.469h2.017v.47zm1.563-.468l.86 2.209.9-2.37.86 2.37.914-2.21h.542L20.33 12.5l-.85-2.342-.886 2.344-1.405-3.517zm4.172 1.638c0-.466.17-.866.511-1.2.34-.333.749-.5 1.225-.5.471 0 .875.168 1.212.505.338.337.507.741.507 1.214 0 .475-.17.878-.51 1.21a1.706 1.706 0 01-1.234.498c-.427 0-.81-.148-1.15-.443-.374-.327-.561-.755-.561-1.284zm.503.005c0 .365.123.665.368.9.244.236.526.353.846.353.347 0 .64-.12.878-.359.238-.242.357-.537.357-.885a1.21 1.21 0 00-.353-.886 1.166 1.166 0 00-.87-.359c-.343 0-.634.12-.87.36a1.187 1.187 0 00-.356.876zm4.699.253l1.023 1.409h-.61l-.944-1.353h-.09v1.353h-.5V8.985h.585c.437 0 .752.082.947.246a.903.903 0 01.321.724.936.936 0 01-.202.603.897.897 0 01-.53.323zm-.62-.379h.157c.472 0 .709-.18.709-.541 0-.339-.23-.508-.69-.508h-.177v1.05zm2.638-.199l1.287-1.318h.666L29.58 10.48l1.503 1.809h-.668l-1.19-1.47-.103.102v1.368h-.5V8.985h.5v1.318z"/></g></g></svg>