<svg width="28" height="20" xmlns="http://www.w3.org/2000/svg"><path d="M.047 9.751C2.98 2.183 11.495-1.573 19.064 1.361a14.698 14.698 0 018.39 8.39.688.688 0 010 .498c-2.935 7.568-11.45 11.324-19.018 8.39a14.698 14.698 0 01-8.39-8.39.687.687 0 010-.498zm8.886 7.605c6.777 2.628 14.39-.662 17.14-7.356a13.323 13.323 0 00-7.506-7.356C11.79.016 4.177 3.306 1.427 10a13.323 13.323 0 007.506 7.356zM13.75 15.5a5.5 5.5 0 110-11 5.5 5.5 0 010 11zm0-1.375a4.125 4.125 0 100-8.25 4.125 4.125 0 000 8.25z" fill="#40AC60"/></svg>