<svg width="113" height="36" xmlns="http://www.w3.org/2000/svg"><g fill="none" fill-rule="evenodd"><path d="M49.066 9.46V7.486h5.215v4.854c-1.184 1.235-3.002 1.972-4.769 1.972-3.413 0-6.312-2.796-6.312-6.106s2.899-6.09 6.312-6.09c1.767 0 3.585.738 4.769 1.973l-1.836 1.647c-.703-.806-1.852-1.32-2.933-1.32-2.007 0-3.705 1.749-3.705 3.79 0 2.058 1.698 3.808 3.705 3.808.806 0 1.63-.275 2.299-.755v-1.8h-2.745zm17.308 4.648h-2.882l-2.693-3.826h-1.87v3.826h-2.521V2.323h5.3c2.556 0 4.443 1.647 4.443 3.98 0 1.75-1.064 3.122-2.676 3.688l2.899 4.117zm-7.445-9.469v3.328h2.505c1.252 0 2.11-.652 2.11-1.664s-.858-1.664-2.11-1.664h-2.505zm17.754 9.469l-.755-1.853h-5.249l-.755 1.853h-2.83l4.803-11.785h2.83l4.803 11.785h-2.847zm-5.13-3.997h3.5l-1.75-4.305-1.75 4.305zm9.47 3.997V2.323h5.968c2.11 0 3.568 1.235 3.568 2.95 0 1.201-.6 2.076-1.646 2.625 1.372.618 2.16 1.715 2.16 3.02 0 1.886-1.612 3.19-3.859 3.19h-6.192zm2.52-7.033h2.814c.943 0 1.612-.549 1.612-1.304 0-.737-.669-1.286-1.612-1.286h-2.813v2.59zm0 4.871h3.208c1.012 0 1.733-.6 1.733-1.44 0-.841-.72-1.441-1.733-1.441h-3.207v2.881zm-29.141 9.76h-8.068v2.901h7.306v2.817h-7.306v3.197h8.068v2.817H43.2V18.889h11.202v2.817zm7.878 11.986c-2.52 0-4.765-.847-6.459-2.414l1.8-2.14c1.377 1.187 2.944 1.907 4.786 1.907 1.567 0 2.372-.72 2.372-1.63 0-1.039-.847-1.356-3.07-1.864-3.071-.7-5.253-1.567-5.253-4.384 0-2.69 2.203-4.532 5.38-4.532 2.371 0 4.213.741 5.696 2.012l-1.63 2.245c-1.293-1.038-2.754-1.61-4.151-1.61-1.335 0-2.14.7-2.14 1.567 0 1.06.869 1.398 3.114 1.906 3.134.7 5.21 1.63 5.21 4.32 0 2.774-2.097 4.617-5.655 4.617zm13.405 0c-2.52 0-4.765-.847-6.46-2.414l1.8-2.14c1.377 1.187 2.944 1.907 4.787 1.907 1.567 0 2.372-.72 2.372-1.63 0-1.039-.848-1.356-3.071-1.864-3.07-.7-5.252-1.567-5.252-4.384 0-2.69 2.203-4.532 5.379-4.532 2.372 0 4.214.741 5.696 2.012l-1.63 2.245c-1.292-1.038-2.753-1.61-4.15-1.61-1.335 0-2.14.7-2.14 1.567 0 1.06.869 1.398 3.113 1.906 3.135.7 5.21 1.63 5.21 4.32 0 2.774-2.097 4.617-5.654 4.617zm18.571-.254l-.931-2.287h-6.48l-.932 2.287h-3.494l5.93-14.549h3.493l5.93 14.549h-3.516zm-6.331-4.934h4.32l-2.16-5.316-2.16 5.316zm15.162 4.934v-5.252l-5.696-9.297h3.642l3.621 6.375 3.77-6.375h3.494l-5.676 9.297v5.252h-3.155z" fill="#000615"/><path d="M101.452 7.412c1.372 0 2.427 1.054 2.427 2.54v4.194H102.1V10.27c0-.763-.483-1.296-1.169-1.296-.737 0-1.27.495-1.27 1.194v3.977h-1.78V10.27c0-.763-.482-1.296-1.155-1.296-.75 0-1.27.495-1.27 1.194v3.964H93.6V7.564h1.855v.864c.318-.622.966-1.016 1.779-1.016.902 0 1.677.457 2.084 1.194.343-.724 1.156-1.194 2.134-1.194zm5.49 9.008c-.547 0-1.208-.165-1.653-.406l.394-1.27c.318.177.648.291.864.291.356 0 .636-.114.775-.355l.23-.483-2.733-6.633h1.919l1.728 4.612 1.639-4.612h1.893l-2.694 6.9c-.495 1.283-1.334 1.956-2.363 1.956z" fill="#40AC60" fill-rule="nonzero"/><g fill="#40AC60" fill-rule="nonzero"><path d="M35 0a1 1 0 011 1v34a1 1 0 01-1 1H1a1 1 0 01-1-1V19.39a.4.4 0 01.658-.305l3.223 2.723a1 1 0 01.354.764v8.193a1 1 0 001 1h25.53a1 1 0 001-1V6.138a1 1 0 00-1-1h-.47a.4.4 0 01-.306-.657L33.456.357A1 1 0 0134.22 0H35zm-8.47 20.118a1 1 0 011 1v2.235a1 1 0 01-1 1H13.888a.4.4 0 01-.305-.66l2.74-3.223a1 1 0 01.762-.352h9.443zm0-8.47a1 1 0 011 1v2.234a1 1 0 01-1 1h-5.44a.4.4 0 01-.306-.659L23.524 12a1 1 0 01.761-.353h2.244z"/><path d="M10.38 17.682L25.325.347A1 1 0 0126.082 0h3.97a.4.4 0 01.304.66L10.814 23.59a1 1 0 01-1.41.113L.35 15.97a1 1 0 01-.35-.76v-3.984a.4.4 0 01.655-.309L8.986 17.8a1 1 0 001.395-.118z"/></g></g></svg>