<svg width="20" height="20" xmlns="http://www.w3.org/2000/svg"><path d="M19.286 14.379v3.788c0 .563-.435 1.03-.997 1.07-.468.032-.85.049-1.146.049C7.675 19.286 0 11.61 0 2.143c0-.296.016-.678.05-1.147A1.07 1.07 0 011.118 0h3.788c.275 0 .506.208.534.482.024.247.047.443.068.592.213 1.486.65 2.93 1.295 4.286a.488.488 0 01-.158.608L4.334 7.62a13.979 13.979 0 007.333 7.333l1.65-2.308a.495.495 0 01.614-.16c1.355.644 2.8 1.08 4.285 1.291.15.022.345.045.59.069a.536.536 0 01.48.534z" fill="#4FC371"/></svg>