<svg width="34" height="24" xmlns="http://www.w3.org/2000/svg"><path d="M0 6.253c0-1.778.623-3.264 1.87-4.46C3.116.598 4.699 0 6.616 0c2.174 0 3.948.705 5.322 2.115C13.313 3.525 14 5.425 14 7.816c0 3.678-1.295 7.065-3.884 10.161C7.527 21.073 4.22 23.08.192 24l-.096-.184c1.918-.92 3.5-2.314 4.746-4.184 1.247-1.87 1.87-3.847 1.87-5.93 0-.675-.415-1.104-1.246-1.288-1.662-.307-2.989-.996-3.98-2.07C.496 9.273 0 7.909 0 6.254zm20 0c0-1.778.623-3.264 1.87-4.46C23.116.598 24.699 0 26.616 0c2.174 0 3.948.705 5.322 2.115C33.313 3.525 34 5.425 34 7.816c0 3.678-1.295 7.065-3.884 10.161-2.589 3.096-5.897 5.103-9.924 6.023l-.096-.184c1.918-.92 3.5-2.314 4.746-4.184 1.247-1.87 1.87-3.847 1.87-5.93 0-.675-.415-1.104-1.246-1.288-1.662-.307-2.989-.996-3.98-2.07C20.496 9.273 20 7.909 20 6.254z"/></svg>