<svg width="13" height="10" xmlns="http://www.w3.org/2000/svg"><path d="M12.656 1.188a5.28 5.28 0 01-1.265 1.304 7.169 7.169 0 01-.29 2.355A7.327 7.327 0 0110.2 6.79a7.632 7.632 0 01-1.441 1.645c-.557.476-1.23.856-2.016 1.14A7.377 7.377 0 014.22 10 7.007 7.007 0 01.344 8.867a5.4 5.4 0 00.61.031A4.94 4.94 0 004.085 7.82a2.46 2.46 0 01-1.469-.504 2.468 2.468 0 01-.89-1.246 2.626 2.626 0 001.14-.047 2.483 2.483 0 01-1.449-.87 2.438 2.438 0 01-.574-1.606v-.031c.354.198.734.304 1.14.32A2.52 2.52 0 01.86 1.734c0-.458.115-.882.344-1.273a7.153 7.153 0 002.3 1.863 7.031 7.031 0 002.903.778 2.803 2.803 0 01-.062-.579c0-.697.246-1.293.738-1.785A2.432 2.432 0 018.867 0c.73 0 1.344.266 1.844.797a4.948 4.948 0 001.601-.61 2.45 2.45 0 01-1.109 1.391 5.028 5.028 0 001.453-.39z" fill="#000615" fill-rule="evenodd"/></svg>