<svg width="67" height="30" viewBox="0 0 67 30" fill="none" xmlns="http://www.w3.org/2000/svg">
<path d="M1.80354 19.556C2.72723 19.556 3.62453 19.556 4.52183 19.556C5.22119 19.556 5.93375 19.5012 6.62651 19.5902C7.01578 19.6381 7.37206 19.9326 7.73494 20.1243C7.80091 20.1585 7.86029 20.2133 7.92627 20.2544C8.22318 20.4461 8.51348 20.7611 8.83017 20.7885C9.13367 20.8159 9.46355 20.542 9.78685 20.4187C11.5287 19.7614 13.1913 19.912 14.7814 20.9117C14.8869 20.9802 15.0255 21.035 15.1442 21.035C17.7635 21.0418 20.3763 21.0418 22.9956 21.0418C23.0616 21.0418 23.1209 21.0281 23.2199 21.0076C23.2199 20.1654 23.2199 19.3368 23.2199 18.5083C23.2199 16.6253 23.2133 14.7423 23.2133 12.8593C23.2133 12.1403 23.2199 12.1608 22.5271 12.243C21.1416 12.4074 19.8286 12.8319 18.5223 13.318C17.592 13.6673 16.6419 13.8384 15.6457 13.8179C14.656 13.7974 13.6663 13.8111 12.6767 13.8111C12.5579 13.8111 12.4325 13.8179 12.3138 13.7974C11.9113 13.7426 11.5616 13.5988 11.4099 13.1674C11.2581 12.736 11.3571 12.3457 11.6408 12.0239C12.0829 11.5035 12.5447 10.9968 13.0131 10.4969C14.4317 8.96999 15.8502 7.44304 17.2687 5.91609C18.2188 4.88899 19.3734 4.30012 20.7391 4.24534C22.0785 4.19056 23.4112 4.21795 24.7506 4.2111C24.8166 4.2111 24.8825 4.2248 24.9881 4.23165C24.9881 9.81906 24.9881 15.3996 24.9881 21.0281C25.1464 21.0281 25.2652 21.0281 25.3774 21.0281C34.1722 21.0281 42.9736 21.0281 51.7684 21.0213C51.9664 21.0213 52.1841 20.9665 52.3556 20.8638C54.3218 19.6929 56.2813 19.7271 58.2409 20.8843C58.3596 20.9528 58.4982 21.0213 58.6301 21.0213C61.0185 21.0281 63.4003 21.0281 65.7887 21.0281C65.8415 21.0281 65.8943 21.0213 65.9668 21.0076C65.9734 20.9117 65.9866 20.8227 65.9866 20.7337C65.98 17.1868 66.0064 13.633 65.9602 10.0861C65.9338 7.6827 65.8283 5.26559 65.2345 2.92381C65.0102 2.0542 64.6275 1.19828 64.3108 0.321824C64.225 0.0890152 64.0799 0 63.8094 0C58.6631 0.0136946 53.5169 0.0136946 48.3706 0.0136946C41.5287 0.0136946 34.6934 0 27.8515 0.0136946C26.2351 0.020542 24.6186 0.0821679 23.0154 0.212267C20.9239 0.376603 19.0699 1.21882 17.526 2.691C16.1207 4.03307 14.7748 5.44362 13.4354 6.85417C12.0433 8.32635 10.6907 9.8396 9.31181 11.3323C9.13367 11.524 8.92254 11.7021 8.69821 11.839C7.23351 12.7429 5.7754 13.6536 4.2909 14.5163C2.39735 15.6187 1.72437 17.3511 1.80354 19.556ZM27.8119 4.23849C31.289 4.23849 34.7396 4.23849 38.1902 4.23849C38.2034 4.27958 38.2232 4.31381 38.2232 4.3412C38.2364 6.84732 38.243 9.35344 38.243 11.8596C38.243 11.9349 38.0913 12.0787 38.0055 12.0855C37.6426 12.1129 37.2797 12.0924 36.9169 12.0924C34.4889 12.0924 32.0609 12.0855 29.6329 12.0855C29.0325 12.0855 28.4321 12.0855 27.8119 12.0855C27.8119 9.45615 27.8119 6.86102 27.8119 4.23849ZM62.536 4.23849C62.536 6.86787 62.536 9.46985 62.536 12.0924C61.6915 12.0924 60.88 12.0924 60.0684 12.0924C57.5547 12.0924 55.0343 12.0787 52.5206 12.0992C52.1775 12.0992 52.1181 11.9897 52.1247 11.6815C52.1379 9.37399 52.1379 7.07329 52.1379 4.76574C52.1379 4.59455 52.1379 4.43022 52.1379 4.23849C55.6347 4.23849 59.0854 4.23849 62.536 4.23849ZM41.0603 4.24534C43.8247 4.24534 46.5496 4.24534 49.3009 4.24534C49.3009 6.86787 49.3009 9.463 49.3009 12.0718C46.543 12.0718 43.8049 12.0718 41.0603 12.0718C41.0603 9.44931 41.0603 6.86787 41.0603 4.24534ZM64.2118 14.1534C64.2118 15.9063 64.2118 17.6456 64.2118 19.3916C63.6906 19.3916 63.2024 19.3916 62.6943 19.3916C62.6943 18.1796 62.6943 16.9951 62.6943 15.8105C62.6943 15.6393 62.6943 15.4681 62.7141 15.2969C62.8065 14.441 63.2684 14.0781 64.2118 14.1534ZM3.64432 17.9605C3.7103 17.2689 3.96102 16.7486 4.48884 16.3925C5.01666 16.0364 5.56427 15.6941 6.09869 15.3517C6.54734 16.009 6.89043 17.2895 6.81785 17.9605C5.76881 17.9605 4.71976 17.9605 3.64432 17.9605Z" fill="white"/>
<path d="M16.6475 22.918C17.261 24.0615 17.5052 25.2255 17.3864 26.4854C28.154 26.4854 38.9017 26.4854 49.6297 26.4854C49.6825 25.8692 49.6825 25.2529 49.8013 24.664C49.92 24.0683 50.1641 23.5068 50.3555 22.918C39.1656 22.918 27.9362 22.918 16.6475 22.918Z" fill="white"/>
<path d="M11.7852 21.706C9.47601 21.7677 7.74741 23.6507 7.80678 26.0198C7.85957 28.2521 9.74651 30.0666 11.9502 29.9981C14.1076 29.9297 15.8626 28.0261 15.8032 25.8076C15.7372 23.4863 13.9361 21.6513 11.7852 21.706ZM13.6788 25.8624C13.659 26.9579 12.8211 27.8138 11.7852 27.8001C10.7494 27.7864 9.89826 26.8826 9.91806 25.8213C9.94445 24.7394 10.789 23.8903 11.838 23.8972C12.8672 23.9177 13.6985 24.8079 13.6788 25.8624Z" fill="white"/>
<path d="M55.2805 21.7061C53.0636 21.7129 51.2757 23.5617 51.2757 25.8555C51.2757 28.1357 53.0834 30.005 55.2871 29.9982C57.4842 29.9913 59.2656 28.1425 59.2656 25.8624C59.2787 23.5617 57.4908 21.7061 55.2805 21.7061ZM55.2937 23.904C56.3361 23.9109 57.1609 24.7805 57.1609 25.8761C57.1543 26.9648 56.3032 27.8207 55.2211 27.8139C54.2446 27.807 53.3869 26.8689 53.4001 25.8213C53.4067 24.76 54.2644 23.8972 55.2937 23.904Z" fill="white"/>
<path d="M0.931574 21.4594C0.964563 22.5961 0.793019 23.7328 1.07013 24.8557C1.32084 25.8417 2.09938 26.4511 3.18141 26.4922C4.17108 26.5265 5.15415 26.4991 6.20979 26.4991C6.09763 24.8831 6.4803 23.4246 7.47656 22.151C7.12688 21.9251 6.79039 21.6991 6.45391 21.4937C6.38133 21.4526 6.28896 21.432 6.20319 21.432C4.50097 21.4252 2.79874 21.432 1.09652 21.432C1.05693 21.4184 1.01734 21.4389 0.931574 21.4594Z" fill="white"/>
<path d="M60.8669 26.4717C62.2722 26.4717 63.6248 26.5402 64.9641 26.4512C66.1847 26.3759 66.7917 25.6569 66.8907 24.397C66.9303 23.9108 66.8973 23.4247 66.8973 22.918C64.6408 22.918 62.4042 22.918 60.1214 22.918C60.7218 24.0341 60.9725 25.205 60.8669 26.4717Z" fill="white"/>
</svg>
