<svg width="44" height="35" viewBox="0 0 44 35" fill="none" xmlns="http://www.w3.org/2000/svg">
<path d="M37.6904 24.2301H15.2741L5.84982 2.6924H0V0H7.61154L17.036 21.5382H37.6904V24.2301Z" fill="white"/>
<path d="M24.2294 30.9614C24.2294 33.1906 22.4205 35 20.1909 35C17.9614 35 16.1523 33.1906 16.1523 30.9614C16.1523 28.7316 17.9613 26.923 20.1909 26.923C22.4205 26.9229 24.2294 28.7315 24.2294 30.9614Z" fill="white"/>
<path d="M37.6899 30.9614C37.6899 33.1906 35.8813 35 33.6518 35C31.4223 35 29.6133 33.1906 29.6133 30.9614C29.6133 28.7316 31.4223 26.923 33.6518 26.923C35.8813 26.923 37.6899 28.7315 37.6899 30.9614Z" fill="white"/>
<path d="M41.9967 8.07695L43.0747 5.38464H13.4609L14.5376 8.07695H41.9967Z" fill="white"/>
<path d="M17.7656 16.1538L18.8423 18.8462H37.688L38.7662 16.1538H17.7656Z" fill="white"/>
<path d="M40.9204 10.7693H15.6133L16.69 13.4614H39.8424L40.9204 10.7693Z" fill="white"/>
</svg>
