<svg width="22" height="25" viewBox="0 0 22 25" fill="none" xmlns="http://www.w3.org/2000/svg">
<path d="M20 3H0V4H20V3Z" fill="white"/>
<path d="M18.5 7C20.433 7 22 5.433 22 3.5C22 1.567 20.433 0 18.5 0C16.567 0 15 1.567 15 3.5C15 5.433 16.567 7 18.5 7Z" fill="white"/>
<path d="M20 12H0V13H20V12Z" fill="white"/>
<path d="M7.5 16C9.433 16 11 14.433 11 12.5C11 10.567 9.433 9 7.5 9C5.567 9 4 10.567 4 12.5C4 14.433 5.567 16 7.5 16Z" fill="white"/>
<path d="M20 21H0V22H20V21Z" fill="white"/>
<path d="M12.5 25C14.433 25 16 23.433 16 21.5C16 19.567 14.433 18 12.5 18C10.567 18 9 19.567 9 21.5C9 23.433 10.567 25 12.5 25Z" fill="white"/>
</svg>
