<svg width="25" height="35" viewBox="0 0 25 35" fill="none" xmlns="http://www.w3.org/2000/svg">
<path d="M21.9575 17.119L19.9724 16.2009C19.8622 16.1506 19.7691 16.0683 19.7046 15.9642L17.9966 13.1857C17.722 12.7396 17.2401 12.4712 16.7241 12.4769H10.5884C10.1213 12.4744 9.67954 12.6939 9.39343 13.0708L7.19513 16.0064C7.11265 16.1166 6.99698 16.1961 6.86589 16.2325L3.18773 17.2577C2.76489 17.3759 2.47099 17.767 2.46875 18.2145V19.5847C2.47145 20.1359 2.90718 20.5828 3.44714 20.5883H3.55247C3.79028 19.0503 5.20463 18.0002 6.71157 18.2428C7.89482 18.4334 8.82291 19.3806 9.00964 20.5883H15.7249C15.9627 19.0503 17.3771 18.0002 18.884 18.2428C20.0673 18.4334 20.9953 19.3806 21.1821 20.5883H21.5524C22.0923 20.5825 22.5277 20.1359 22.5305 19.5849V18.021C22.5287 17.6319 22.3048 17.2795 21.9575 17.119Z" fill="white"/>
<path d="M6.28168 19.4579C5.43793 19.4579 4.75391 20.156 4.75391 21.0172C4.75391 21.8783 5.43793 22.5764 6.28168 22.5764C7.12543 22.5764 7.80945 21.8783 7.80945 21.0172C7.80829 20.1565 7.12496 19.459 6.28168 19.4579Z" fill="white"/>
<path d="M18.4536 19.4579C17.6098 19.4579 16.9258 20.156 16.9258 21.0172C16.9258 21.8783 17.6098 22.5764 18.4536 22.5764C19.2973 22.5764 19.9813 21.8783 19.9813 21.0172C19.9803 20.1565 19.2968 19.459 18.4536 19.4579Z" fill="white"/>
<path d="M23.2142 5.31042H19.4444V7.3834C19.4407 7.72124 19.1694 7.99207 18.8384 7.98829C18.8336 7.98821 18.8286 7.98813 18.8238 7.98798H6.13596C5.82346 7.99648 5.56343 7.74479 5.5551 7.42593C5.55471 7.41175 5.55486 7.39758 5.55548 7.3834V5.31042H1.78581C0.793601 5.31042 5.10162e-06 6.16519 5.10162e-06 7.17786V33.2001C-0.00230971 34.1917 0.783415 34.9975 1.75502 34.9999C1.76528 34.9999 1.77554 34.9999 1.78581 34.9997H23.2142C24.1857 35.0146 24.9851 34.2229 24.9998 33.2315C24.9999 33.221 25 33.2105 25 33.2V7.17786C25 6.16519 24.2064 5.31042 23.2142 5.31042ZM20.6363 31.2197H4.36366C4.02277 31.2197 3.74638 30.9376 3.74638 30.5897C3.74638 30.2417 4.02277 29.9596 4.36366 29.9596H20.6363C20.9772 29.9596 21.2536 30.2417 21.2536 30.5897C21.2536 30.9376 20.9772 31.2197 20.6363 31.2197ZM3.74638 27.2821C3.74638 26.9342 4.02277 26.6521 4.36366 26.6521H13.3861C13.727 26.6521 14.0034 26.9342 14.0034 27.2821C14.0034 27.63 13.727 27.9121 13.3861 27.9121H4.36366C4.02277 27.9121 3.74638 27.63 3.74638 27.2821ZM23.7654 19.5848C23.7619 20.8315 22.7739 21.8419 21.5525 21.8482H21.0972C20.6542 23.3382 19.1116 24.1794 17.6517 23.7272C16.7691 23.4539 16.0785 22.749 15.8106 21.8482H8.92477C8.48172 23.3382 6.93912 24.1794 5.47925 23.7272C4.59669 23.4539 3.90602 22.749 3.6382 21.8482H3.44754C2.22609 21.8419 1.2382 20.8315 1.23457 19.5848V18.2146C1.23781 17.2001 1.90386 16.3125 2.86266 16.0449L6.34074 15.0784L8.41204 12.3076C8.9321 11.6185 9.73658 11.2154 10.5888 11.2168H16.7245C17.6664 11.2099 18.5444 11.7021 19.0441 12.517L20.6544 15.1296L22.4691 15.9705C23.2566 16.3367 23.763 17.1376 23.7654 18.0209V19.5848Z" fill="white"/>
<path d="M6.78945 6.72798H18.2092V3.47806C18.206 2.92105 17.761 2.47217 17.2153 2.4754C17.2142 2.4754 17.2131 2.4754 17.212 2.4754H15.4397C15.146 2.47343 14.8938 2.26182 14.835 1.96808C14.5972 0.822087 13.6068 0.00165378 12.459 0C11.3087 0 10.3526 0.799013 10.0793 1.98383C10.0143 2.26962 9.76591 2.47288 9.47841 2.4754H7.74624C7.21915 2.47374 6.79061 2.90853 6.78906 3.44648C6.78906 3.45704 6.78914 3.46759 6.78945 3.47806V6.72798V6.72798Z" fill="white"/>
</svg>
