<svg width="46" height="35" viewBox="0 0 46 35" fill="none" xmlns="http://www.w3.org/2000/svg">
<path d="M17.7891 23.3619C17.6717 23.4256 17.5495 23.4828 17.4235 23.5327C17.3874 23.5474 17.3552 23.5677 17.3184 23.5818C17.2079 23.618 17.0949 23.6488 16.9799 23.6736C17.1296 24.654 16.9998 25.6515 16.6016 26.578C17.7077 26.5 18.7714 26.1725 19.688 25.6278C19.3512 24.7144 18.6855 23.9197 17.7891 23.3619V23.3619Z" fill="white"/>
<path d="M18.7812 19.5047C18.8547 19.6072 18.92 19.7134 18.9773 19.8232C18.9945 19.8549 19.0175 19.8827 19.0336 19.915C19.0755 20.0113 19.1105 20.1097 19.139 20.2096C20.2644 20.0792 21.4097 20.1926 22.473 20.5395C22.3834 19.5758 22.0078 18.6493 21.3826 17.8507C20.3338 18.1441 19.4215 18.724 18.7812 19.5047Z" fill="white"/>
<path d="M19.2057 21.6132C19.1961 21.6503 19.1782 21.6832 19.1669 21.7218C19.1329 21.8456 19.0896 21.9676 19.0368 22.0864C19.0206 22.1187 18.9976 22.1468 18.9804 22.1782C18.9526 22.2308 18.918 22.2796 18.8867 22.3307C19.7879 22.9325 20.5055 23.7182 20.9758 24.6184C21.6961 23.8815 22.1833 22.9941 22.3903 22.043C21.4095 21.6046 20.2926 21.4538 19.2057 21.6132V21.6132Z" fill="white"/>
<path d="M14.356 18.6396C14.4672 18.5797 14.5829 18.5259 14.7024 18.4786C14.7449 18.4604 14.7827 18.4359 14.8277 18.42C14.9379 18.3835 15.0505 18.353 15.1652 18.3282C15.0155 17.3478 15.1453 16.35 15.5435 15.4238C14.4377 15.5015 13.3737 15.829 12.457 16.3737C12.7938 17.2874 13.4595 18.0818 14.356 18.6396Z" fill="white"/>
<path d="M16.8982 18.3062C17.0407 18.3359 17.1804 18.3738 17.317 18.4199C17.3538 18.4337 17.3861 18.454 17.4221 18.4687C17.4825 18.4932 17.5388 18.5228 17.5975 18.5506C18.288 17.7655 19.1899 17.1404 20.2236 16.7307C19.3777 16.1032 18.3587 15.6788 17.2673 15.4984C16.7643 16.352 16.5913 17.324 16.7739 18.2701C16.8165 18.2811 16.8556 18.2967 16.8982 18.3062Z" fill="white"/>
<path d="M15.3849 19.7406C15.0512 19.8794 14.7823 20.1135 14.623 20.4043C14.6134 20.4231 14.599 20.4398 14.5901 20.459C14.5678 20.5098 14.5492 20.5622 14.5338 20.6151C14.5217 20.6513 14.5049 20.6851 14.496 20.7243C14.4871 20.7635 14.4905 20.7844 14.4857 20.8137C14.4579 20.9378 14.4579 21.0655 14.4857 21.1897C14.4905 21.219 14.4857 21.2498 14.496 21.2785C14.5063 21.3072 14.5224 21.3485 14.5345 21.3885C14.5492 21.4412 14.5678 21.4932 14.5901 21.5441C14.599 21.5629 14.6134 21.5803 14.6237 21.5991C14.7106 21.7588 14.8314 21.9024 14.9797 22.0226C15.6025 22.5038 16.5395 22.5038 17.1622 22.0226C17.3106 21.9024 17.4314 21.7588 17.5183 21.5991C17.5286 21.5803 17.5433 21.5629 17.5519 21.5441C17.5742 21.4932 17.5928 21.4412 17.6075 21.3885C17.6196 21.3515 17.6371 21.3186 17.646 21.2785C17.6549 21.2387 17.6515 21.219 17.6566 21.1897C17.6844 21.0655 17.6844 20.9378 17.6566 20.8137C17.6515 20.7844 17.6566 20.7536 17.646 20.7243C17.6357 20.6947 17.6202 20.6543 17.6082 20.6151C17.5928 20.5622 17.5742 20.5098 17.5519 20.459C17.5433 20.4398 17.5286 20.4231 17.519 20.4043C17.36 20.1129 17.0908 19.8785 16.7564 19.74C16.7348 19.7316 16.7156 19.719 16.694 19.7107C16.6349 19.6918 16.5752 19.6757 16.5147 19.6622C16.4729 19.6517 16.4344 19.6371 16.3891 19.6293C16.3441 19.6215 16.3201 19.6245 16.2864 19.6203C16.144 19.5961 15.9974 19.5961 15.8549 19.6203C15.8212 19.6245 15.7859 19.6203 15.7529 19.6293C15.7199 19.6383 15.6684 19.6523 15.6266 19.6628C15.5661 19.676 15.5067 19.6918 15.4484 19.7107C15.4281 19.7181 15.4065 19.7307 15.3849 19.7406Z" fill="white"/>
<path d="M15.2431 23.6952C15.1006 23.6656 14.9608 23.6276 14.8242 23.5818C14.7875 23.5677 14.7552 23.5474 14.7191 23.5328C14.6587 23.5082 14.6024 23.4789 14.544 23.4508C13.8533 24.2362 12.9514 24.8613 11.918 25.2711C12.7639 25.8982 13.7826 26.3229 14.874 26.503C15.3769 25.6497 15.55 24.6777 15.3677 23.7316C15.3251 23.7203 15.2856 23.705 15.2431 23.6952V23.6952Z" fill="white"/>
<path d="M18.5742 4.56692L18.8619 5.36637L24.6162 4.95902L23.9372 3.09125L18.5742 4.56692Z" fill="white"/>
<path d="M24.4995 0L16.0703 2.31909L16.5547 3.6548L17.319 3.44424L17.3238 3.44215L24.2183 1.54506L24.2231 1.54417L24.9842 1.33511L24.4995 0Z" fill="white"/>
<path d="M13.3626 22.4967C13.2895 22.3944 13.2239 22.2879 13.1666 22.1782C13.1497 22.1468 13.1264 22.1186 13.1103 22.0863C13.0694 21.9906 13.0344 21.8928 13.0049 21.7938C12.6969 21.8252 12.3869 21.842 12.0769 21.8435C11.2549 21.8501 10.4389 21.7214 9.67188 21.4642C9.7608 22.427 10.1364 23.353 10.7612 24.1509C11.8101 23.8575 12.7223 23.2773 13.3626 22.4967Z" fill="white"/>
<path d="M38.5703 4.20023V14.0006C38.5703 14.7737 39.2896 15.4006 40.1774 15.4006H41.7845V2.79993H40.1774C39.2896 2.79993 38.5703 3.4268 38.5703 4.20023V4.20023Z" fill="white"/>
<path d="M34.5547 7.7002H36.9652V9.10052H34.5547V7.7002Z" fill="white"/>
<path d="M34.5547 10.5005H36.9652V11.9005H34.5547V10.5005Z" fill="white"/>
<path d="M12.9382 20.3882C12.9478 20.3511 12.9657 20.3182 12.977 20.2796C13.011 20.1558 13.0543 20.034 13.1071 19.915C13.1233 19.8827 13.1466 19.8549 13.1634 19.8232C13.1916 19.7708 13.2259 19.7218 13.2575 19.6707C12.356 19.0692 11.6384 18.2835 11.1681 17.3829C10.4481 18.1199 9.96059 19.0076 9.75391 19.9584C10.7344 20.3965 11.8513 20.5473 12.9382 20.3882V20.3882Z" fill="white"/>
<path d="M34.5547 14.0006C34.5547 14.3871 34.9145 14.7005 35.3581 14.7005H36.1618C36.6057 14.7005 36.9652 14.3871 36.9652 14.0006V13.3005H34.5547V14.0006Z" fill="white"/>
<path d="M43.3945 2.79993V15.4006C44.282 15.4006 45.0016 14.7737 45.0016 14.0006V4.20023C45.0016 3.4268 44.282 2.79993 43.3945 2.79993V2.79993Z" fill="white"/>
<path d="M36.1618 4.90021H35.3581C34.9145 4.90021 34.5547 5.21365 34.5547 5.60037V6.30024H36.9652V5.60037C36.9652 5.21365 36.6057 4.90021 36.1618 4.90021Z" fill="white"/>
<path d="M15.2556 7.02131H15.2041C14.9123 7.03387 14.5903 7.05271 14.2703 7.09129C14.2336 7.09608 14.1965 7.09847 14.1594 7.09817C5.59364 7.99273 -0.633446 14.6192 0.0514723 22.1109C0.73639 29.6029 8.08922 35.287 16.7096 34.9888C25.3299 34.6906 32.142 28.5164 32.1431 21.0007C32.1479 19.0731 31.6909 17.1656 30.801 15.4007H28.1252C27.6816 15.4007 27.3218 15.0873 27.3218 14.7006C27.3218 14.3138 27.6816 14.0007 28.1252 14.0007H32.9468V5.77533L15.3181 7.01921L15.2556 7.02131ZM27.3218 21.0007C27.3218 26.4132 22.285 30.8011 16.072 30.8011C9.85867 30.8011 4.82221 26.4132 4.82221 21.0007C4.82221 15.5882 9.85867 11.2004 16.072 11.2004C22.2823 11.2064 27.315 15.5906 27.3218 21.0007Z" fill="white"/>
<path d="M16.0724 29.4011C21.398 29.4011 25.7148 25.6401 25.7148 21.0007C25.7148 16.3614 21.398 12.6004 16.0724 12.6004C10.7469 12.6004 6.42969 16.3614 6.42969 21.0007C6.43552 25.638 10.7493 29.396 16.0724 29.4011V29.4011ZM11.1273 15.4952C12.8003 14.3476 14.9299 13.8287 17.0437 14.053C19.1575 14.2777 21.0814 15.2272 22.3891 16.6915L22.3939 16.6978C23.7105 18.1559 24.3055 20.0114 24.047 21.8528C23.7881 23.6943 22.6974 25.37 21.0158 26.5086C17.5247 28.8875 12.481 28.3504 9.75025 25.309C7.01951 22.2679 7.6361 17.8738 11.1273 15.4952Z" fill="white"/>
</svg>
