<svg width="40" height="40" viewBox="0 0 40 40" fill="none" xmlns="http://www.w3.org/2000/svg">
<path d="M10.5068 0H29.4932C31.3534 0 32.8668 1.51341 32.8668 3.37363V36.6263C32.8668 38.4866 31.3534 40 29.4932 40H10.5069C8.6466 40 7.13319 38.4866 7.13319 36.6264V3.37363C7.13319 1.51341 8.6466 0 10.5068 0ZM29.4932 1.3544H10.5069C9.39342 1.3544 8.48759 2.26023 8.48759 3.37363V6.13995H31.5124V3.37363C31.5124 2.26023 30.6066 1.3544 29.4932 1.3544ZM8.48759 7.49436V32.5056H31.5124V7.49436H8.48759ZM10.5068 38.6456H29.4932C30.6066 38.6456 31.5124 37.7398 31.5124 36.6264V33.86H8.48759V36.6264C8.48759 37.7398 9.39342 38.6456 10.5068 38.6456Z" fill="#FDBF00"/>
<path d="M20 25.1471C17.1617 25.1471 14.8527 22.838 14.8527 19.9998C14.8527 17.1616 17.1617 14.8525 20 14.8525C22.8383 14.8525 25.1473 17.1616 25.1473 19.9998C25.1473 22.838 22.8383 25.1471 20 25.1471ZM20 16.2069C17.9086 16.2069 16.2071 17.9084 16.2071 19.9998C16.2071 22.0912 17.9086 23.7927 20 23.7927C22.0914 23.7927 23.7929 22.0912 23.7929 19.9998C23.7929 17.9084 22.0914 16.2069 20 16.2069Z" fill="#FDBF00"/>
<path d="M20 22.3741C18.6909 22.3741 17.6259 21.3091 17.6259 20.0001C17.6259 18.691 18.6909 17.626 20 17.626C21.309 17.626 22.3741 18.691 22.3741 20.0001C22.3741 21.3091 21.309 22.3741 20 22.3741ZM20 18.9804C19.4377 18.9804 18.9803 19.4378 18.9803 20.0001C18.9803 20.5623 19.4377 21.0197 20 21.0197C20.5623 21.0197 21.0197 20.5623 21.0197 20.0001C21.0197 19.4378 20.5623 18.9804 20 18.9804Z" fill="#FDBF00"/>
<path d="M29.1133 22.0756C29.043 22.3837 28.769 22.6023 28.4529 22.6023H27.6037C27.4947 22.9209 27.3652 23.2328 27.2164 23.536L27.8163 24.1358C28.0398 24.3592 28.0788 24.7076 27.9106 24.9751C27.1696 26.1534 26.1548 27.1685 24.9757 27.9109C24.7082 28.0793 24.3598 28.0402 24.136 27.8167L23.5357 27.2163C23.2329 27.365 22.921 27.4944 22.6026 27.6035V28.4526C22.6026 28.7686 22.384 29.0426 22.076 29.1129C21.4007 29.2669 20.7021 29.345 20 29.345C19.2979 29.345 18.5994 29.2669 17.9241 29.1129C17.616 29.0427 17.3974 28.7686 17.3974 28.4526V27.6034C17.0789 27.4942 16.767 27.3648 16.4638 27.216L15.8632 27.8166C15.6394 28.0402 15.2909 28.0794 15.0231 27.9106C13.845 27.1678 12.8304 26.1528 12.0889 24.9753C11.9204 24.7078 11.9595 24.3592 12.1831 24.1356L12.7834 23.5352C12.6347 23.2323 12.5053 22.9205 12.3962 22.6021H11.5471C11.2311 22.6021 10.9571 22.3835 10.8868 22.0755C10.7328 21.4 10.6547 20.7015 10.6547 19.9995C10.6547 19.2976 10.7328 18.5991 10.8868 17.9236C10.957 17.6155 11.2311 17.3969 11.5471 17.3969H12.3962C12.5053 17.0785 12.6347 16.7667 12.7834 16.4638L12.1831 15.8634C11.9595 15.6399 11.9204 15.2913 12.0889 15.0237C12.8304 13.8462 13.845 12.8312 15.0231 12.0885C15.2909 11.9197 15.6394 11.9589 15.8632 12.1825L16.4638 12.7831C16.7669 12.6342 17.0789 12.5048 17.3974 12.3956V11.5465C17.3974 11.2305 17.616 10.9565 17.9241 10.8862C19.275 10.5783 20.7251 10.5783 22.076 10.8862C22.384 10.9564 22.6026 11.2305 22.6026 11.5465V12.3956C22.921 12.5047 23.2328 12.6341 23.5357 12.7828L24.136 12.1825C24.3597 11.959 24.7081 11.9197 24.9757 12.0883C26.1548 12.8306 27.1696 13.8457 27.9106 15.024C28.0788 15.2915 28.0398 15.6399 27.8163 15.8634L27.2164 16.4632C27.3652 16.7663 27.4947 17.0783 27.6038 17.3968H28.4529C28.769 17.3968 29.0429 17.6154 29.1133 17.9235C29.2672 18.5987 29.3452 19.2972 29.3452 19.9994C29.3452 20.702 29.2672 21.4004 29.1133 22.0756ZM27.8939 18.7515H27.1032C26.7972 18.7515 26.5294 18.5463 26.4495 18.251C26.3012 17.7023 26.0814 17.1725 25.7962 16.6763C25.6437 16.411 25.6881 16.0764 25.9044 15.8599L26.4631 15.3012C25.972 14.6269 25.3729 14.0277 24.6982 13.5359L24.1393 14.0949C23.9229 14.3113 23.5881 14.3555 23.3229 14.2031C22.827 13.9182 22.2974 13.6984 21.7486 13.5499C21.4532 13.47 21.2482 13.2021 21.2482 12.8962V12.1056C20.4272 11.9768 19.5726 11.9768 18.7517 12.1056V12.8962C18.7517 13.2021 18.5467 13.47 18.2513 13.5499C17.7025 13.6984 17.1728 13.9182 16.6766 14.2034C16.4114 14.3558 16.0768 14.3116 15.8603 14.0951L15.3012 13.536C14.6268 14.028 14.0277 14.6272 13.5363 15.3013L14.0953 15.8603C14.3116 16.0766 14.3561 16.4113 14.2035 16.6765C13.9185 17.1726 13.6987 17.7024 13.5505 18.2509C13.4705 18.5462 13.2026 18.7513 12.8967 18.7513H12.1061C12.0417 19.1618 12.0091 19.5797 12.0091 19.9995C12.0091 20.4193 12.0417 20.8373 12.1061 21.2477H12.8967C13.2026 21.2477 13.4705 21.4529 13.5505 21.7481C13.6988 22.2967 13.9185 22.8264 14.2035 23.3225C14.356 23.5878 14.3115 23.9224 14.0953 24.1388L13.5363 24.6978C14.0277 25.3719 14.6268 25.9711 15.3012 26.4631L15.8603 25.9039C16.0767 25.6876 16.4113 25.643 16.6766 25.7956C17.1728 26.0808 17.7025 26.3006 18.2513 26.4491C18.5467 26.529 18.7517 26.7969 18.7517 27.1028V27.8934C19.5727 28.0223 20.4273 28.0223 21.2482 27.8934V27.1028C21.2482 26.7969 21.4532 26.529 21.7486 26.4491C22.2973 26.3006 22.8269 26.081 23.3229 25.796C23.5882 25.6436 23.9228 25.6878 24.1393 25.9043L24.6982 26.4633C25.3729 25.9714 25.9719 25.3722 26.4631 24.6979L25.9044 24.1392C25.6881 23.9228 25.6436 23.5881 25.7962 23.3229C26.0814 22.8267 26.3012 22.2969 26.4495 21.7481C26.5294 21.4528 26.7973 21.2476 27.1032 21.2476H27.8939C27.9583 20.8373 27.9908 20.4193 27.9908 19.9994C27.9908 19.5796 27.9583 19.1619 27.8939 18.7515Z" fill="#FDBF00"/>
<path d="M22.8894 4.42471H17.1107C16.7366 4.42471 16.4335 4.12151 16.4335 3.74751C16.4335 3.37352 16.7366 3.07031 17.1107 3.07031H22.8894C23.2635 3.07031 23.5667 3.37352 23.5667 3.74751C23.5667 4.12151 23.2635 4.42471 22.8894 4.42471Z" fill="#FDBF00"/>
<path d="M20 34.1855C21.1202 34.1855 22.0316 35.097 22.0316 36.2171C22.0316 37.3373 21.1202 38.2488 20 38.2488C18.8798 38.2488 17.9684 37.3373 17.9684 36.2171C17.9684 35.097 18.8798 34.1855 20 34.1855ZM20 36.8944C20.3735 36.8944 20.6772 36.5905 20.6772 36.2171C20.6772 35.8438 20.3735 35.5399 20 35.5399C19.6266 35.5399 19.3228 35.8438 19.3228 36.2171C19.3228 36.5905 19.6266 36.8944 20 36.8944Z" fill="#FDBF00"/>
</svg>
