<svg width="15" height="16" viewBox="0 0 15 16" fill="none" xmlns="http://www.w3.org/2000/svg">
<path d="M13.5078 2H12.0078V1.16986C12.0078 0.559217 11.5772 0 10.9666 0C10.356 0 10.0078 0.559217 10.0078 1.16986V2H4.00784V1.16986C4.00784 0.559217 3.61639 0 3.00575 0C2.3951 0 2.00784 0.559217 2.00784 1.16986V2H0.507841C-0.102801 2 0.00782531 2.38936 0.00782531 3V14.8528C0.00782531 15.4636 0.073186 16 0.683828 16H13.3327C13.9434 16 14.0078 15.6107 14.0078 15V3.14717C14.0078 2.53652 14.1184 2 13.5078 2ZM12.0078 14H2.00781V5H12.0078V14Z" fill="#777777"/>
<path d="M3.16316 9H4.85247C4.93826 9 5.00781 8.93044 5.00781 8.84465V7.15535C5.00781 7.06956 4.93826 7 4.85247 7H3.16316C3.07737 7 3.00781 7.06956 3.00781 7.15535V8.84465C3.00781 8.93044 3.07737 9 3.16316 9Z" fill="#777777"/>
<path d="M6.16316 9H7.85247C7.93826 9 8.00781 8.93044 8.00781 8.84465V7.15535C8.00781 7.06956 7.93826 7 7.85247 7H6.16316C6.07737 7 6.00781 7.06956 6.00781 7.15535V8.84465C6.00781 8.93044 6.07737 9 6.16316 9Z" fill="#777777"/>
<path d="M9.16316 9H10.8525C10.9383 9 11.0078 8.93044 11.0078 8.84465V7.15535C11.0078 7.06956 10.9383 7 10.8525 7H9.16316C9.07737 7 9.00781 7.06956 9.00781 7.15535V8.84465C9.00781 8.93044 9.07737 9 9.16316 9Z" fill="#777777"/>
<path d="M3.16316 12H4.85247C4.93826 12 5.00781 11.9304 5.00781 11.8447V10.1553C5.00781 10.0696 4.93826 10 4.85247 10H3.16316C3.07737 10 3.00781 10.0696 3.00781 10.1553V11.8447C3.00781 11.9304 3.07737 12 3.16316 12Z" fill="#777777"/>
<path d="M6.16316 12H7.85247C7.93826 12 8.00781 11.9304 8.00781 11.8447V10.1553C8.00781 10.0696 7.93826 10 7.85247 10H6.16316C6.07737 10 6.00781 10.0696 6.00781 10.1553V11.8447C6.00781 11.9304 6.07737 12 6.16316 12Z" fill="#777777"/>
<path d="M9.16316 12H10.8525C10.9383 12 11.0078 11.9304 11.0078 11.8447V10.1553C11.0078 10.0696 10.9383 10 10.8525 10H9.16316C9.07737 10 9.00781 10.0696 9.00781 10.1553V11.8447C9.00781 11.9304 9.07737 12 9.16316 12Z" fill="#777777"/>
</svg>
