<svg width="12" height="24" viewBox="0 0 12 24" fill="none" xmlns="http://www.w3.org/2000/svg">
<path d="M0.383081 12.7839H2.98803V23.6129C2.98803 23.8258 3.16041 24 3.37111 24H7.78611C7.99681 24 8.16919 23.8258 8.16919 23.6129V12.8323H11.1668C11.3583 12.8323 11.5211 12.6871 11.5499 12.4935L12 8.50645C12.0096 8.4 11.9808 8.28387 11.9042 8.20645C11.8276 8.12903 11.7318 8.08064 11.6169 8.08064H8.16919V5.57419C8.16919 4.81935 8.57143 4.44194 9.36632 4.44194H11.6169C11.8276 4.44194 12 4.26774 12 4.05484V0.387097C12 0.174194 11.8276 0 11.6169 0H8.50439C8.48524 0 8.43735 0 8.36073 0C7.82442 0 5.94733 0.106452 4.47247 1.48065C2.8348 3.00968 3.06464 4.82903 3.11253 5.14839V8.07097H0.383081C0.172386 8.07097 0 8.24516 0 8.45806V12.3968C0 12.6097 0.172386 12.7839 0.383081 12.7839Z" fill="black"/>
</svg>
