<svg width="20" height="20" viewBox="0 0 20 20" fill="none" xmlns="http://www.w3.org/2000/svg">
<path d="M11.737 0.00854492L14.4905 2.7621L0 17.6398L2.35227 19.9917L16.9404 5.21194L20 8.27159V0.00854492H11.737Z" fill="white"/>
<path d="M14.6953 11.1427C12.3599 11.1427 10.4603 13.0427 10.4603 15.3777C10.4603 17.7127 12.3599 19.6127 14.6953 19.6127C17.0303 19.6127 18.9303 17.7127 18.9303 15.3777C18.9303 13.0427 17.0304 11.1427 14.6953 11.1427ZM14.6953 17.2612C13.6568 17.2612 12.8118 16.4163 12.8118 15.3777C12.8118 14.3391 13.6568 13.4942 14.6953 13.4942C15.7339 13.4942 16.5788 14.3391 16.5788 15.3777C16.5789 16.4163 15.7339 17.2612 14.6953 17.2612Z" fill="white"/>
<path d="M4.89528 0.369873C2.55989 0.369873 0.660278 2.26987 0.660278 4.60487C0.660278 6.93987 2.55989 8.83987 4.89528 8.83987C7.23028 8.83987 9.12989 6.93987 9.12989 4.60487C9.12989 2.26987 7.23028 0.369873 4.89528 0.369873ZM4.89528 6.48839C3.85672 6.48839 3.01176 5.64343 3.01176 4.60487C3.01176 3.56632 3.85672 2.72136 4.89528 2.72136C5.93383 2.72136 6.7784 3.56632 6.7784 4.60487C6.7784 5.64343 5.93383 6.48839 4.89528 6.48839Z" fill="white"/>
</svg>
