<svg width="30" height="30" viewBox="0 0 30 30" fill="none" xmlns="http://www.w3.org/2000/svg">
<path d="M15.0007 18.3074C16.8243 18.3074 18.308 16.8237 18.308 15.0001C18.308 13.1764 16.8243 11.6927 15.0007 11.6927C13.177 11.6927 11.6934 13.1764 11.6934 15.0001C11.6934 16.8237 13.177 18.3074 15.0007 18.3074ZM15.0007 13.0003C16.1035 13.0003 17.0005 13.8973 17.0005 15.0001C17.0005 16.1028 16.1035 16.9999 15.0007 16.9999C13.8979 16.9999 13.0009 16.1028 13.0009 15.0001C13.0009 13.8973 13.8979 13.0003 15.0007 13.0003Z" fill="#01009A"/>
<path d="M29.3462 14.3462H26.7558C26.4272 8.37336 21.6266 3.57275 15.6538 3.24424V0.653751C15.6538 0.292772 15.361 0 15 0C14.639 0 14.3462 0.292772 14.3462 0.653751V3.87947C14.3462 4.24045 14.639 4.53322 15 4.53322C20.7714 4.53322 25.4668 9.22857 25.4668 15C25.4668 20.7714 20.7714 25.4668 15 25.4668C9.22857 25.4668 4.53322 20.7714 4.53322 15C4.53322 10.9922 6.8706 7.28388 10.4879 5.55286C10.8136 5.39694 10.9513 5.00665 10.7954 4.68097C10.6396 4.3554 10.249 4.21768 9.92351 4.37349C7.94798 5.31881 6.27634 6.79422 5.08945 8.64009C3.98788 10.3534 3.35734 12.314 3.24544 14.3462H0.653751C0.292772 14.3462 0 14.639 0 15C0 15.361 0.292772 15.6538 0.653751 15.6538H3.24424C3.57275 21.6266 8.37336 26.4272 14.3462 26.7558V29.3462C14.3462 29.7072 14.639 30 15 30C15.361 30 15.6538 29.7072 15.6538 29.3462V26.7558C21.6266 26.4272 26.4272 21.6266 26.7558 15.6538H29.3462C29.7072 15.6538 30 15.361 30 15C30 14.639 29.7072 14.3462 29.3462 14.3462Z" fill="#01009A"/>
</svg>
