<svg width="145" height="70" viewBox="0 0 145 70" fill="none" xmlns="http://www.w3.org/2000/svg">
<path d="M93.7126 45.1037C89.7588 45.1037 85.9118 45.1037 81.9936 45.1037C81.9936 42.9235 81.9936 38.5633 81.9936 38.5633H74.8696V35.2395H81.3881H81.9224C81.9224 35.2395 81.9224 13.8313 81.9224 3.07363C81.7799 3.18085 81.673 3.28807 81.6018 3.39528C78.396 6.61187 75.1902 9.82846 71.9844 13.045C71.735 13.2952 71.6282 13.5454 71.6282 13.9028C71.6282 24.0887 71.6282 44.4604 71.6282 44.4604V45.1037H69.1348V44.6391C69.1348 44.6391 69.1348 23.3381 69.1348 12.6876C69.1348 12.4017 69.206 12.223 69.4197 12.0086C73.3379 8.11294 77.2205 4.18156 81.1031 0.285919C81.1744 0.214439 81.2812 0.10722 81.4237 0C81.5662 0.10722 81.673 0.214439 81.7799 0.321659C85.6625 4.2173 89.5451 8.11294 93.4277 12.0086C93.6414 12.223 93.7482 12.4732 93.7482 12.7949C93.7482 23.3739 93.7482 33.9886 93.7482 44.5676C93.7482 44.7463 93.7483 44.925 93.7126 45.1037Z" fill="#01009A"/>
<path d="M68.3496 45.1037C62.8997 45.1037 57.4855 45.1037 52.0356 45.1037C52.0356 44.925 52 44.7463 52 44.5676C52 39.707 52 34.8106 52 29.95C52 29.6283 52.1069 29.4139 52.3206 29.1994C53.7454 27.7699 55.1702 26.3403 56.595 24.9464C56.7019 24.8392 56.8087 24.7677 56.9868 24.6962C56.9868 30.3789 56.9868 36.0615 56.9868 41.7799C59.9789 41.7799 62.8997 41.7799 65.8918 41.7799C65.8918 41.6012 65.9275 41.3867 65.9275 41.208C65.9275 32.8449 65.9275 24.4818 65.9275 16.1187C65.9275 15.7255 66.0343 15.4396 66.3193 15.1894C66.9961 14.5461 67.6372 13.8671 68.314 13.188C68.4209 13.4739 68.4921 44.2459 68.3496 45.1037Z" fill="#01009A"/>
<path d="M10.3906 52.3994H12.1904V60.2573C12.1904 61.6242 12.0358 62.7096 11.7266 63.5137C11.4173 64.3177 10.8576 64.9733 10.0474 65.4805C9.24333 65.9814 8.18571 66.2319 6.87451 66.2319C5.60042 66.2319 4.55827 66.0124 3.74805 65.5732C2.93783 65.1341 2.35954 64.5002 2.01318 63.6714C1.66683 62.8364 1.49365 61.6984 1.49365 60.2573V52.3994H3.29346V60.248C3.29346 61.4294 3.40169 62.3014 3.61816 62.8643C3.84082 63.4209 4.2181 63.8507 4.75 64.1538C5.28809 64.4569 5.94368 64.6084 6.7168 64.6084C8.04036 64.6084 8.98356 64.3084 9.54639 63.7085C10.1092 63.1086 10.3906 61.9551 10.3906 60.248V52.3994ZM13.7026 66L18.9258 52.3994H20.8647L26.4312 66H24.3809L22.7944 61.8809H17.1074L15.6138 66H13.7026ZM17.627 60.415H22.2378L20.8184 56.6484C20.3854 55.5042 20.0638 54.5641 19.8535 53.8281C19.6803 54.7002 19.436 55.5661 19.1206 56.4258L17.627 60.415ZM27.0063 61.918V60.2388H32.1367V61.918H27.0063ZM34.1963 66V52.3994H38.8813C39.939 52.3994 40.7461 52.4644 41.3027 52.5942C42.082 52.7736 42.7469 53.0983 43.2974 53.5684C44.0148 54.1745 44.5498 54.9507 44.9023 55.897C45.2611 56.8371 45.4404 57.9132 45.4404 59.1255C45.4404 60.1584 45.3198 61.0737 45.0786 61.8716C44.8374 62.6694 44.5282 63.3312 44.1509 63.8569C43.7736 64.3765 43.3592 64.7878 42.9077 65.0908C42.4624 65.3877 41.9212 65.6134 41.2842 65.7681C40.6533 65.9227 39.9266 66 39.104 66H34.1963ZM35.9961 64.395H38.8999C39.7967 64.395 40.4987 64.3115 41.0059 64.1445C41.5192 63.9775 41.9274 63.7425 42.2305 63.4395C42.6572 63.0127 42.9881 62.4406 43.2231 61.7231C43.4644 60.9995 43.585 60.1243 43.585 59.0977C43.585 57.6751 43.3499 56.5835 42.8799 55.8228C42.416 55.0558 41.8501 54.5425 41.1821 54.2827C40.6997 54.0972 39.9235 54.0044 38.8535 54.0044H35.9961V64.395ZM54.458 62.8271L56.1836 63.0405C55.9115 64.0487 55.4074 64.8311 54.6714 65.3877C53.9354 65.9443 52.9953 66.2227 51.8511 66.2227C50.41 66.2227 49.2658 65.7804 48.4185 64.896C47.5773 64.0054 47.1567 62.7591 47.1567 61.1572C47.1567 59.4997 47.5835 58.2132 48.437 57.2979C49.2905 56.3825 50.3976 55.9248 51.7583 55.9248C53.0757 55.9248 54.1519 56.3732 54.9868 57.27C55.8218 58.1668 56.2393 59.4285 56.2393 61.0552C56.2393 61.1541 56.2362 61.3026 56.23 61.5005H48.8823C48.9442 62.5828 49.2503 63.4116 49.8008 63.9868C50.3512 64.562 51.0378 64.8496 51.8604 64.8496C52.4727 64.8496 52.9953 64.6888 53.4282 64.3672C53.8612 64.0456 54.2044 63.5322 54.458 62.8271ZM48.9751 60.1274H54.4766C54.4023 59.2987 54.1921 58.6771 53.8457 58.2627C53.3138 57.6195 52.6242 57.2979 51.7769 57.2979C51.0099 57.2979 50.3636 57.5545 49.8379 58.0679C49.3184 58.5812 49.0308 59.2677 48.9751 60.1274ZM61.0264 66L57.2783 56.1475H59.041L61.1562 62.0479C61.3851 62.6849 61.5954 63.3467 61.7871 64.0332C61.9355 63.5137 62.1427 62.889 62.4087 62.1592L64.5981 56.1475H66.3145L62.585 66H61.0264ZM74.5342 62.8271L76.2598 63.0405C75.9876 64.0487 75.4836 64.8311 74.7476 65.3877C74.0116 65.9443 73.0715 66.2227 71.9272 66.2227C70.4862 66.2227 69.342 65.7804 68.4946 64.896C67.6535 64.0054 67.2329 62.7591 67.2329 61.1572C67.2329 59.4997 67.6597 58.2132 68.5132 57.2979C69.3667 56.3825 70.4738 55.9248 71.8345 55.9248C73.1519 55.9248 74.228 56.3732 75.063 57.27C75.8979 58.1668 76.3154 59.4285 76.3154 61.0552C76.3154 61.1541 76.3123 61.3026 76.3062 61.5005H68.9585C69.0203 62.5828 69.3265 63.4116 69.877 63.9868C70.4274 64.562 71.1139 64.8496 71.9365 64.8496C72.5488 64.8496 73.0715 64.6888 73.5044 64.3672C73.9373 64.0456 74.2806 63.5322 74.5342 62.8271ZM69.0513 60.1274H74.5527C74.4785 59.2987 74.2682 58.6771 73.9219 58.2627C73.39 57.6195 72.7004 57.2979 71.853 57.2979C71.0861 57.2979 70.4398 57.5545 69.9141 58.0679C69.3945 58.5812 69.1069 59.2677 69.0513 60.1274ZM78.3286 66V52.3994H79.9985V66H78.3286ZM81.9746 61.0737C81.9746 59.2492 82.4818 57.8978 83.4961 57.0195C84.3434 56.2897 85.3763 55.9248 86.5947 55.9248C87.9492 55.9248 89.0563 56.3701 89.916 57.2607C90.7757 58.1452 91.2056 59.3698 91.2056 60.9346C91.2056 62.2025 91.0138 63.2013 90.6304 63.9312C90.2531 64.6548 89.6995 65.2176 88.9697 65.6196C88.2461 66.0216 87.4544 66.2227 86.5947 66.2227C85.2155 66.2227 84.0991 65.7804 83.2456 64.896C82.3983 64.0116 81.9746 62.7375 81.9746 61.0737ZM83.6909 61.0737C83.6909 62.3354 83.9661 63.2817 84.5166 63.9126C85.0671 64.5373 85.7598 64.8496 86.5947 64.8496C87.4235 64.8496 88.1131 64.5342 88.6636 63.9033C89.214 63.2725 89.4893 62.3107 89.4893 61.0181C89.4893 59.7996 89.2109 58.8781 88.6543 58.2534C88.1038 57.6226 87.4173 57.3071 86.5947 57.3071C85.7598 57.3071 85.0671 57.6195 84.5166 58.2441C83.9661 58.8688 83.6909 59.812 83.6909 61.0737ZM93.1724 69.7759V56.1475H94.6938V57.4277C95.0526 56.9268 95.4577 56.5526 95.9092 56.3052C96.3607 56.0516 96.908 55.9248 97.5513 55.9248C98.3924 55.9248 99.1346 56.1413 99.7778 56.5742C100.421 57.0072 100.907 57.6195 101.234 58.4111C101.562 59.1966 101.726 60.0594 101.726 60.9995C101.726 62.0076 101.544 62.9168 101.179 63.7271C100.82 64.5311 100.294 65.1496 99.6016 65.5825C98.915 66.0093 98.1914 66.2227 97.4307 66.2227C96.874 66.2227 96.373 66.1051 95.9277 65.8701C95.4886 65.6351 95.1268 65.3382 94.8423 64.9795V69.7759H93.1724ZM94.6846 61.1294C94.6846 62.3973 94.9412 63.3343 95.4546 63.9404C95.9679 64.5465 96.5895 64.8496 97.3193 64.8496C98.0615 64.8496 98.6955 64.5373 99.2212 63.9126C99.7531 63.2817 100.019 62.3076 100.019 60.9902C100.019 59.7347 99.7593 58.7946 99.2397 58.1699C98.7264 57.5452 98.111 57.2329 97.3936 57.2329C96.6823 57.2329 96.0514 57.5669 95.501 58.2349C94.9567 58.8966 94.6846 59.8615 94.6846 61.1294ZM103.749 66V56.1475H105.242V57.5298C105.551 57.0474 105.963 56.6608 106.476 56.3701C106.989 56.0732 107.574 55.9248 108.229 55.9248C108.959 55.9248 109.556 56.0763 110.02 56.3794C110.49 56.6825 110.821 57.1061 111.013 57.6504C111.792 56.5 112.806 55.9248 114.056 55.9248C115.033 55.9248 115.784 56.1969 116.31 56.7412C116.836 57.2793 117.099 58.1112 117.099 59.2368V66H115.438V59.7935C115.438 59.1255 115.382 58.6462 115.271 58.3555C115.166 58.0586 114.971 57.8205 114.687 57.6411C114.402 57.4618 114.068 57.3721 113.685 57.3721C112.992 57.3721 112.417 57.604 111.959 58.0679C111.501 58.5256 111.272 59.2616 111.272 60.2759V66H109.603V59.5986C109.603 58.8564 109.466 58.2998 109.194 57.9287C108.922 57.5576 108.477 57.3721 107.858 57.3721C107.388 57.3721 106.952 57.4958 106.55 57.7432C106.154 57.9906 105.867 58.3524 105.688 58.8286C105.508 59.3049 105.418 59.9914 105.418 60.8882V66H103.749ZM126.32 62.8271L128.046 63.0405C127.774 64.0487 127.27 64.8311 126.534 65.3877C125.798 65.9443 124.858 66.2227 123.713 66.2227C122.272 66.2227 121.128 65.7804 120.281 64.896C119.44 64.0054 119.019 62.7591 119.019 61.1572C119.019 59.4997 119.446 58.2132 120.299 57.2979C121.153 56.3825 122.26 55.9248 123.621 55.9248C124.938 55.9248 126.014 56.3732 126.849 57.27C127.684 58.1668 128.102 59.4285 128.102 61.0552C128.102 61.1541 128.098 61.3026 128.092 61.5005H120.745C120.806 62.5828 121.113 63.4116 121.663 63.9868C122.214 64.562 122.9 64.8496 123.723 64.8496C124.335 64.8496 124.858 64.6888 125.291 64.3672C125.723 64.0456 126.067 63.5322 126.32 62.8271ZM120.837 60.1274H126.339C126.265 59.2987 126.054 58.6771 125.708 58.2627C125.176 57.6195 124.486 57.2979 123.639 57.2979C122.872 57.2979 122.226 57.5545 121.7 58.0679C121.181 58.5812 120.893 59.2677 120.837 60.1274ZM130.152 66V56.1475H131.655V57.5483C132.378 56.466 133.424 55.9248 134.791 55.9248C135.384 55.9248 135.929 56.033 136.423 56.2495C136.924 56.4598 137.299 56.7381 137.546 57.0845C137.793 57.4308 137.966 57.8421 138.065 58.3184C138.127 58.6276 138.158 59.1688 138.158 59.9419V66H136.488V60.0068C136.488 59.3265 136.423 58.8193 136.293 58.4854C136.164 58.1452 135.932 57.8761 135.598 57.6782C135.27 57.4741 134.883 57.3721 134.438 57.3721C133.727 57.3721 133.111 57.5978 132.592 58.0493C132.078 58.5008 131.822 59.3574 131.822 60.6191V66H130.152ZM144.374 64.5063L144.615 65.9814C144.145 66.0804 143.725 66.1299 143.354 66.1299C142.747 66.1299 142.277 66.034 141.943 65.8423C141.609 65.6506 141.374 65.4001 141.238 65.0908C141.102 64.7754 141.034 64.1167 141.034 63.1147V57.4463H139.81V56.1475H141.034V53.7075L142.695 52.7056V56.1475H144.374V57.4463H142.695V63.2075C142.695 63.6838 142.723 63.9899 142.778 64.126C142.84 64.262 142.936 64.3703 143.066 64.4507C143.202 64.5311 143.394 64.5713 143.641 64.5713C143.827 64.5713 144.071 64.5496 144.374 64.5063Z" fill="#01009A"/>
</svg>
