<svg width="144" height="70" viewBox="0 0 144 70" fill="none" xmlns="http://www.w3.org/2000/svg">
<g clip-path="url(#clip0)">
<path d="M92.2 45.1C88.2 45.1 84.4 45.1 80.5 45.1C80.5 42.9 80.5 38.6 80.5 38.6H73.4V35.3H79.9H80.4C80.4 35.3 80.4 13.9 80.4 3.09999C80.3 3.19999 80.2 3.29999 80.1 3.39999C76.9 6.59999 73.7 9.79999 70.5 13C70.3 13.3 70.1 13.5 70.1 13.9C70.1 24.1 70.1 44.5 70.1 44.5V45.1H67.6V44.6C67.6 44.6 67.6 23.3 67.6 12.6C67.6 12.3 67.7 12.1 67.9 11.9C71.8 7.99999 75.7 4.09999 79.6 0.199994C79.7 0.0999939 79.8 -6.10203e-06 79.9 -0.100006C80 -6.10203e-06 80.1 0.0999939 80.3 0.199994C84.2 4.09999 88.1 7.99999 91.9 11.9C92.1 12.1 92.2 12.4 92.2 12.7C92.2 23.3 92.2 33.9 92.2 44.5C92.3 44.7 92.3 44.9 92.2 45.1Z" fill="#777777"/>
<path d="M66.9 45.1C61.5 45.1 56 45.1 50.6 45.1C50.6 44.9 50.6 44.7 50.6 44.6C50.6 39.7 50.6 34.8 50.6 30C50.6 29.7 50.7 29.5 50.9 29.2C52.3 27.8 53.7 26.3 55.2 24.9C55.3 24.8 55.4 24.7 55.6 24.6C55.6 30.3 55.6 36 55.6 41.7C58.6 41.7 61.5 41.7 64.5 41.7C64.5 41.5 64.5 41.3 64.5 41.1C64.5 32.7 64.5 24.4 64.5 16C64.5 15.6 64.6 15.3 64.9 15.1C65.6 14.5 66.2 13.8 66.9 13.1C66.9 13.5 67 44.2 66.9 45.1Z" fill="#777777"/>
<path d="M8.9 52.4H10.7V60.3C10.7 61.7 10.5 62.8 10.2 63.6C9.9 64.4 9.3 65.1 8.5 65.6C7.7 66.1 6.6 66.4 5.3 66.4C4 66.4 3 66.2 2.2 65.7C1.4 65.3 0.8 64.6 0.5 63.8C0.2 63 0 61.8 0 60.4V52.5H1.8V60.3C1.8 61.5 1.9 62.4 2.1 62.9C2.3 63.5 2.7 63.9 3.2 64.2C3.7 64.5 4.4 64.7 5.2 64.7C6.5 64.7 7.5 64.4 8 63.8C8.6 63.2 8.8 62 8.8 60.3V52.4H8.9ZM12.2 66L17.4 52.4H19.3L24.9 66H22.8L21.2 61.9H15.5L14.1 66H12.2ZM16.1 60.4H20.7L19.3 56.6C18.9 55.5 18.5 54.5 18.3 53.8C18.1 54.7 17.9 55.5 17.6 56.4L16.1 60.4ZM25.5 61.9V60.2H30.6V61.9H25.5ZM32.7 66V52.4H37.4C38.5 52.4 39.3 52.5 39.8 52.6C40.6 52.8 41.2 53.1 41.8 53.6C42.5 54.2 43.1 55 43.4 55.9C43.8 56.8 43.9 57.9 43.9 59.1C43.9 60.1 43.8 61 43.5 61.8C43.3 62.6 42.9 63.3 42.6 63.8C42.2 64.3 41.8 64.7 41.4 65C41 65.3 40.4 65.5 39.8 65.7C39.2 65.9 38.4 65.9 37.6 65.9H32.7V66ZM34.5 64.4H37.4C38.3 64.4 39 64.3 39.5 64.1C40 63.9 40.4 63.7 40.7 63.4C41.1 63 41.5 62.4 41.7 61.7C41.9 61 42.1 60.1 42.1 59.1C42.1 57.7 41.9 56.6 41.4 55.8C40.9 55 40.4 54.5 39.7 54.3C39.2 54.1 38.4 54 37.4 54H34.5V64.4ZM53 62.8L54.7 63C54.4 64 53.9 64.8 53.2 65.3C52.5 65.9 51.5 66.1 50.4 66.1C49 66.1 47.8 65.7 47 64.8C46.2 63.9 45.7 62.7 45.7 61.1C45.7 59.4 46.1 58.2 47 57.2C47.9 56.3 49 55.8 50.3 55.8C51.6 55.8 52.7 56.2 53.5 57.1C54.3 58 54.8 59.3 54.8 60.9C54.8 61 54.8 61.1 54.8 61.3H47.5C47.6 62.4 47.9 63.2 48.4 63.8C49 64.4 49.6 64.7 50.5 64.7C51.1 64.7 51.6 64.5 52.1 64.2C52.4 64 52.7 63.5 53 62.8ZM47.5 60.1H53C52.9 59.3 52.7 58.6 52.4 58.2C51.9 57.6 51.2 57.2 50.3 57.2C49.5 57.2 48.9 57.5 48.4 58C47.8 58.6 47.5 59.3 47.5 60.1ZM59.5 66L55.8 56.1H57.6L59.7 62C59.9 62.6 60.1 63.3 60.3 64C60.4 63.5 60.7 62.9 60.9 62.1L63.1 56.1H64.8L61.1 66H59.5ZM73 62.8L74.7 63C74.4 64 73.9 64.8 73.2 65.3C72.5 65.9 71.5 66.1 70.4 66.1C69 66.1 67.8 65.7 67 64.8C66.2 63.9 65.7 62.7 65.7 61.1C65.7 59.4 66.1 58.2 67 57.2C67.9 56.3 69 55.8 70.3 55.8C71.6 55.8 72.7 56.2 73.5 57.1C74.3 58 74.8 59.3 74.8 60.9C74.8 61 74.8 61.1 74.8 61.3H67.5C67.6 62.4 67.9 63.2 68.4 63.8C69 64.4 69.6 64.7 70.5 64.7C71.1 64.7 71.6 64.5 72.1 64.2C72.4 64 72.8 63.5 73 62.8ZM67.6 60.1H73.1C73 59.3 72.8 58.6 72.5 58.2C72 57.6 71.3 57.2 70.4 57.2C69.6 57.2 69 57.5 68.5 58C67.9 58.6 67.6 59.3 67.6 60.1ZM76.8 66V52.4H78.5V66H76.8ZM80.5 61.1C80.5 59.3 81 57.9 82 57C82.8 56.3 83.9 55.9 85.1 55.9C86.5 55.9 87.6 56.3 88.4 57.2C89.3 58.1 89.7 59.3 89.7 60.9C89.7 62.2 89.5 63.2 89.1 63.9C88.7 64.6 88.2 65.2 87.4 65.6C86.7 66 85.9 66.2 85 66.2C83.6 66.2 82.5 65.8 81.7 64.9C80.9 64 80.5 62.7 80.5 61.1ZM82.2 61.1C82.2 62.4 82.5 63.3 83 63.9C83.6 64.5 84.2 64.8 85.1 64.8C85.9 64.8 86.6 64.5 87.2 63.9C87.8 63.3 88 62.3 88 61C88 59.8 87.7 58.9 87.2 58.2C86.6 57.6 86 57.3 85.1 57.3C84.3 57.3 83.6 57.6 83 58.2C82.5 58.9 82.2 59.8 82.2 61.1ZM91.7 69.8V56.1H93.2V57.4C93.6 56.9 94 56.5 94.4 56.3C94.9 56 95.4 55.9 96 55.9C96.8 55.9 97.6 56.1 98.2 56.5C98.8 56.9 99.3 57.5 99.7 58.3C100 59.1 100.2 59.9 100.2 60.9C100.2 61.9 100 62.8 99.7 63.6C99.3 64.4 98.8 65 98.1 65.5C97.4 65.9 96.7 66.1 95.9 66.1C95.3 66.1 94.8 66 94.4 65.7C94 65.5 93.6 65.2 93.3 64.8V69.6H91.7V69.8ZM93.2 61.1C93.2 62.4 93.5 63.3 94 63.9C94.5 64.5 95.1 64.8 95.9 64.8C96.6 64.8 97.3 64.5 97.8 63.9C98.3 63.3 98.6 62.3 98.6 61C98.6 59.7 98.3 58.8 97.8 58.2C97.3 57.6 96.7 57.3 96 57.3C95.3 57.3 94.7 57.6 94.1 58.3C93.5 58.9 93.2 59.9 93.2 61.1ZM102.3 66V56.1H103.8V57.5C104.1 57 104.5 56.6 105 56.3C105.5 56 106.1 55.9 106.8 55.9C107.5 55.9 108.1 56.1 108.6 56.4C109.1 56.7 109.4 57.1 109.6 57.7C110.4 56.5 111.4 56 112.6 56C113.6 56 114.3 56.3 114.9 56.8C115.4 57.3 115.7 58.2 115.7 59.3V66H114V59.8C114 59.1 113.9 58.7 113.8 58.4C113.7 58.1 113.5 57.9 113.2 57.7C112.9 57.5 112.6 57.4 112.2 57.4C111.5 57.4 110.9 57.6 110.5 58.1C110 58.6 109.8 59.3 109.8 60.3V66H108.1V59.6C108.1 58.9 108 58.3 107.7 57.9C107.4 57.5 107 57.3 106.4 57.3C105.9 57.3 105.5 57.4 105.1 57.7C104.7 57.9 104.4 58.3 104.2 58.8C104 59.3 103.9 60 103.9 60.9V66H102.3ZM124.8 62.8L126.5 63C126.2 64 125.7 64.8 125 65.3C124.3 65.9 123.3 66.1 122.2 66.1C120.8 66.1 119.6 65.7 118.8 64.8C118 63.9 117.5 62.7 117.5 61.1C117.5 59.4 117.9 58.2 118.8 57.2C119.7 56.3 120.8 55.8 122.1 55.8C123.4 55.8 124.5 56.2 125.3 57.1C126.1 58 126.6 59.3 126.6 60.9C126.6 61 126.6 61.1 126.6 61.3H119.3C119.4 62.4 119.7 63.2 120.2 63.8C120.8 64.4 121.4 64.7 122.3 64.7C122.9 64.7 123.4 64.5 123.9 64.2C124.2 64 124.6 63.5 124.8 62.8ZM119.3 60.1H124.8C124.7 59.3 124.5 58.6 124.2 58.2C123.7 57.6 123 57.2 122.1 57.2C121.3 57.2 120.7 57.5 120.2 58C119.7 58.6 119.4 59.3 119.3 60.1ZM128.7 66V56.1H130.2V57.5C130.9 56.4 132 55.9 133.3 55.9C133.9 55.9 134.4 56 134.9 56.2C135.4 56.4 135.8 56.7 136 57C136.2 57.3 136.4 57.8 136.5 58.2C136.6 58.5 136.6 59.1 136.6 59.8V66H135V60C135 59.3 134.9 58.8 134.8 58.5C134.7 58.2 134.4 57.9 134.1 57.7C133.8 57.5 133.4 57.4 132.9 57.4C132.2 57.4 131.6 57.6 131.1 58.1C130.6 58.6 130.3 59.4 130.3 60.7V66H128.7ZM142.9 64.5L143.1 66C142.6 66.1 142.2 66.1 141.8 66.1C141.2 66.1 140.7 66 140.4 65.8C140.1 65.6 139.8 65.4 139.7 65C139.6 64.7 139.5 64 139.5 63V57.3H138.3V56H139.5V53.6L141.2 52.6V56H142.9V57.3H141.2V63.1C141.2 63.6 141.2 63.9 141.3 64C141.4 64.1 141.5 64.2 141.6 64.3C141.7 64.4 141.9 64.4 142.2 64.4C142.3 64.6 142.6 64.5 142.9 64.5Z" fill="#777777"/>
</g>
<defs>
<clipPath id="clip0">
<rect width="143.1" height="69.8" fill="white"/>
</clipPath>
</defs>
</svg>
