<svg width="108" height="69" viewBox="0 0 108 69" fill="none" xmlns="http://www.w3.org/2000/svg">
<path d="M65.6482 45.1037C61.6943 45.1037 57.8474 45.1037 53.9292 45.1037C53.9292 42.9235 53.9292 38.5633 53.9292 38.5633H46.8051V35.2395H53.3236H53.8579C53.8579 35.2395 53.8579 13.8313 53.8579 3.07363C53.7154 3.18085 53.6086 3.28807 53.5373 3.39528C50.3315 6.61187 47.1257 9.82846 43.9199 13.045C43.6706 13.2952 43.5637 13.5454 43.5637 13.9028C43.5637 24.0887 43.5637 44.4604 43.5637 44.4604V45.1037H41.0703V44.6391C41.0703 44.6391 41.0703 23.3381 41.0703 12.6876C41.0703 12.4017 41.1416 12.223 41.3553 12.0086C45.2735 8.11294 49.1561 4.18156 53.0387 0.285919C53.1099 0.214439 53.2168 0.10722 53.3592 0C53.5017 0.10722 53.6086 0.214439 53.7154 0.321659C57.598 4.2173 61.4806 8.11294 65.3632 12.0086C65.5769 12.223 65.6838 12.4732 65.6838 12.7949C65.6838 23.3739 65.6838 33.9886 65.6838 44.5676C65.6838 44.7463 65.6838 44.925 65.6482 45.1037Z" fill="#01009A"/>
<path d="M40.2859 45.1037C34.836 45.1037 29.4218 45.1037 23.9719 45.1037C23.9719 44.925 23.9363 44.7463 23.9363 44.5676C23.9363 39.7069 23.9363 34.8106 23.9363 29.95C23.9363 29.6283 24.0431 29.4139 24.2569 29.1994C25.6817 27.7698 27.1065 26.3402 28.5313 24.9464C28.6381 24.8392 28.745 24.7677 28.9231 24.6962C28.9231 30.3788 28.9231 36.0615 28.9231 41.7799C31.9152 41.7799 34.836 41.7799 37.8281 41.7799C37.8281 41.6012 37.8637 41.3867 37.8637 41.208C37.8637 32.8449 37.8637 24.4818 37.8637 16.1187C37.8637 15.7255 37.9706 15.4396 38.2556 15.1894C38.9323 14.5461 39.5735 13.867 40.2503 13.188C40.3571 13.4739 40.4284 44.2459 40.2859 45.1037Z" fill="#01009A"/>
<path d="M0 51.5369C0.1781 51.5369 0.320581 51.5011 0.498681 51.5011C2.10159 51.5011 3.70449 51.4654 5.27177 51.5011C6.26914 51.5011 7.2665 51.6083 8.157 52.1444C9.4037 52.8592 10.1517 54.0029 10.5435 55.361C11.1491 57.4697 11.0778 59.5783 10.2586 61.6512C9.54618 63.4382 8.19262 64.4032 6.34038 64.6891C5.73483 64.7606 5.12929 64.8321 4.52375 64.8321C3.20581 64.8678 1.88786 64.8321 0.534301 64.8321C0.356201 64.8321 0.213721 64.8321 0 64.8321C0 60.4003 0 56.0043 0 51.5369ZM1.781 63.1166C1.88786 63.1166 1.95911 63.1523 2.03035 63.1523C3.06333 63.1523 4.09631 63.188 5.12929 63.1523C5.69921 63.1166 6.26914 63.0093 6.80344 62.8306C7.90766 62.4375 8.47758 61.5083 8.76254 60.4361C9.18998 58.935 9.18998 57.3982 8.79816 55.8971C8.40634 54.396 7.33774 53.1809 5.52111 53.1451C4.34565 53.1094 3.20581 53.1094 2.03035 53.1094C1.95911 53.1094 1.85224 53.1451 1.781 53.1451C1.781 56.5047 1.781 59.7928 1.781 63.1166Z" fill="#01009A"/>
<path d="M68.0342 55.218C68.4972 55.218 68.9603 55.218 69.459 55.218C69.459 55.6112 69.459 55.9686 69.459 56.3617C69.4946 56.3617 69.4946 56.3975 69.5302 56.3975C70.207 55.3967 71.2044 54.9321 72.3798 54.9321C73.5553 54.9321 74.517 55.3253 75.087 56.5404C75.2294 56.3617 75.3363 56.2188 75.4788 56.1115C76.5474 54.8249 78.4709 54.682 79.7176 55.3253C80.3944 55.6827 80.7506 56.2545 80.893 56.9693C80.9643 57.291 81.0355 57.6484 81.0355 57.97C81.0355 60.1144 81.0355 62.2588 81.0355 64.4032C81.0355 64.5104 81.0355 64.6176 80.9999 64.7606C80.4656 64.7606 79.9669 64.7606 79.397 64.7606C79.397 64.5819 79.3614 64.4032 79.3614 64.2602C79.3614 62.4732 79.3614 60.6505 79.3614 58.8635C79.3614 58.5061 79.3614 58.1487 79.2901 57.7913C79.1477 56.7906 78.5065 56.326 77.5447 56.3617C76.3337 56.4689 75.5144 57.291 75.3719 58.5061C75.3363 58.792 75.3363 59.0422 75.3363 59.3281C75.3363 61.0079 75.3363 62.6877 75.3363 64.3317C75.3363 64.7963 75.3363 64.7963 74.8732 64.7963C74.4814 64.7963 74.0896 64.7963 73.6622 64.7963C73.6622 64.5461 73.6622 64.4032 73.6622 64.2245C73.6622 62.2588 73.6622 60.2931 73.6622 58.3632C73.6622 58.113 73.6265 57.8628 73.5909 57.6484C73.4484 56.7906 72.8429 56.2902 71.8099 56.3975C70.6344 56.5404 70.0289 57.1123 69.8152 58.2917C69.7083 58.8278 69.6727 59.3639 69.6727 59.9C69.6371 61.3296 69.6727 62.7949 69.6727 64.2245C69.6727 64.4032 69.6727 64.5819 69.6727 64.7606C69.1028 64.7606 68.6041 64.7606 68.0698 64.7606C68.0342 61.5797 68.0342 58.3989 68.0342 55.218Z" fill="#01009A"/>
<path d="M59.3787 64.0101C59.3787 65.4754 59.3787 66.9407 59.3787 68.4418C58.8088 68.4418 58.2745 68.4418 57.7046 68.4418C57.7046 64.0458 57.7046 59.6498 57.7046 55.2181C58.2033 55.2181 58.6663 55.2181 59.2006 55.2181C59.2006 55.5755 59.2006 55.8971 59.2006 56.326C59.3431 56.183 59.4144 56.1116 59.4856 56.0401C60.198 55.1823 61.1597 54.9321 62.264 54.9679C64.3299 55.1108 65.4342 56.5047 65.8616 58.1845C66.2178 59.5783 66.1822 60.9722 65.6835 62.3303C65.1136 63.7599 64.1162 64.7606 62.5845 65.0108C61.4091 65.2252 60.3405 64.9393 59.5212 64.0101C59.45 63.9743 59.4144 63.9743 59.3787 64.0101ZM59.2006 60.0787C59.165 60.8649 59.2719 61.6155 59.6637 62.3303C60.198 63.3667 61.2666 63.8671 62.3352 63.5454C63.2969 63.2595 63.8312 62.5805 64.0806 61.6512C64.4012 60.5075 64.4012 59.3639 64.0806 58.2202C64.0093 58.0058 63.9381 57.7913 63.8312 57.5769C62.9407 55.8614 60.8748 55.7899 59.8418 57.3982C59.3431 58.2559 59.165 59.1494 59.2006 60.0787Z" fill="#01009A"/>
<path d="M91.8642 60.436C89.442 60.436 87.0911 60.436 84.7401 60.436C84.7045 62.6876 86.5211 64.153 88.4803 63.5096C89.1927 63.2595 89.6557 62.7234 89.9407 62.0443C90.0475 61.7227 90.2256 61.6869 90.5106 61.7227C90.9024 61.7941 91.3299 61.8299 91.7929 61.9014C91.6504 62.6162 91.3299 63.2237 90.8668 63.7598C90.4037 64.2602 89.8338 64.6176 89.1927 64.832C88.0884 65.1537 86.9842 65.1537 85.9156 64.832C84.6333 64.4389 83.7784 63.5811 83.351 62.3302C82.781 60.6147 82.8167 58.935 83.6003 57.2909C84.2771 55.9328 85.3813 55.1823 86.913 55.0393C88.1241 54.9321 89.2283 55.1465 90.2256 55.8971C91.2942 56.7191 91.7217 57.8985 91.8285 59.2209C91.8285 59.5425 91.8285 59.9714 91.8642 60.436ZM90.0832 59.0064C90.1544 57.4339 88.9433 56.3617 87.4829 56.3259C86.0581 56.2902 84.7401 57.6483 84.847 59.0064C86.5924 59.0064 88.3378 59.0064 90.0832 59.0064Z" fill="#01009A"/>
<path d="M21.5148 60.436C20.2324 60.436 19.0926 60.436 17.9171 60.436C16.7417 60.436 15.6018 60.436 14.3195 60.436C14.4264 60.8649 14.462 61.258 14.5688 61.6512C15.0319 63.1523 16.3498 63.9028 17.8459 63.6169C18.7008 63.4382 19.1995 62.9021 19.5557 62.1515C19.7694 61.7227 19.7694 61.7227 20.2681 61.7941C20.6599 61.8656 21.0161 61.9014 21.4435 61.9371C21.1942 62.9736 20.6599 63.7956 19.805 64.4031C18.2733 65.4753 15.21 65.4039 13.8208 63.7598C13.429 63.2952 13.1084 62.7949 12.9303 62.223C12.4673 60.6147 12.4673 59.0422 13.144 57.5054C13.7852 56.04 14.925 55.218 16.5279 55.0751C17.8103 54.9321 18.9857 55.218 19.9475 56.04C20.9092 56.862 21.301 57.97 21.4079 59.2209C21.4791 59.5425 21.4791 59.9357 21.5148 60.436ZM14.462 58.9707C16.2074 58.9707 17.9528 58.9707 19.7338 58.9707C19.7338 57.3624 18.5939 56.3617 17.1335 56.3259C15.7443 56.2545 14.462 57.5411 14.462 58.9707Z" fill="#01009A"/>
<path d="M41.2124 60.436C38.7546 60.436 36.4036 60.436 34.0883 60.436C33.9102 61.6512 34.8007 63.0808 35.9406 63.4739C36.6886 63.7241 37.401 63.7241 38.1134 63.3667C38.8258 63.0093 39.1464 62.366 39.4314 61.6512C40.0013 61.7227 40.5356 61.7941 41.1411 61.8656C40.8918 62.7591 40.4643 63.5097 39.7876 64.0815C38.2203 65.4396 34.6583 65.4039 33.2335 63.3667C32.7348 62.6519 32.4498 61.8656 32.343 61.0436C32.1649 59.6855 32.2717 58.3274 32.9485 57.0765C33.6609 55.7899 34.7295 55.0751 36.1899 54.9321C36.8311 54.8606 37.4723 54.8964 38.0778 55.0751C39.7163 55.5754 40.6424 56.7191 40.963 58.3631C41.1055 59.0422 41.1411 59.7212 41.2124 60.436ZM39.3957 59.0064C39.3957 57.3267 38.2203 56.3617 36.7955 56.326C35.3707 56.2902 34.1596 57.5411 34.1596 59.0064C35.8693 59.0064 37.6147 59.0064 39.3957 59.0064Z" fill="#01009A"/>
<path d="M51.1856 65.0465C49.2265 65.0107 47.588 63.9028 47.018 62.1873C46.6975 61.1508 46.6262 60.1144 46.7687 59.0422C46.8043 58.649 46.9112 58.2202 47.018 57.827C47.3386 56.7191 48.051 55.8971 49.0484 55.4325C50.5444 54.7177 52.0761 54.7177 53.5721 55.5397C54.6764 56.1472 55.3175 57.148 55.6025 58.3631C55.8518 59.5425 55.8162 60.722 55.4956 61.8656C55.0682 63.6169 53.8215 64.5104 52.1473 64.9035C51.8624 65.0107 51.5062 65.0107 51.1856 65.0465ZM48.4428 60.1501C48.4428 60.8292 48.5497 61.6869 49.0484 62.4375C50.0101 63.9743 52.3611 64.1172 53.3228 62.6162C54.3202 61.0436 54.3914 59.3638 53.5721 57.7198C52.6816 55.9328 50.2238 55.8256 49.1196 57.4696C48.5497 58.2202 48.4428 59.0779 48.4428 60.1501Z" fill="#01009A"/>
<path d="M101.695 64.7963C101.161 64.7963 100.627 64.7963 100.057 64.7963C100.057 64.6176 100.057 64.4389 100.057 64.2602C100.057 62.6519 100.057 61.0437 100.057 59.4711C100.057 58.935 100.021 58.3989 99.9143 57.8628C99.7362 56.7549 98.9526 56.3975 97.9908 56.3975C97.5634 56.3975 97.1359 56.5762 96.7441 56.7549C95.8536 57.1838 95.6043 58.0058 95.5686 58.935C95.533 60.722 95.533 62.4732 95.533 64.2602C95.533 64.4389 95.533 64.5819 95.533 64.7963C94.9631 64.7963 94.4288 64.7963 93.8589 64.7963C93.8589 61.6155 93.8589 58.4346 93.8589 55.2181C94.3576 55.2181 94.8206 55.2181 95.3549 55.2181C95.3549 55.6112 95.3549 55.9686 95.3549 56.326C95.8536 55.9686 96.2811 55.5397 96.7797 55.3253C98.0264 54.7534 99.2731 54.8607 100.449 55.5397C101.125 55.9329 101.482 56.5762 101.588 57.3625C101.66 57.7913 101.695 58.2559 101.695 58.6848C101.695 60.6148 101.695 62.509 101.695 64.4389C101.695 64.5104 101.695 64.6534 101.695 64.7963Z" fill="#01009A"/>
<path d="M26.8932 62.6519C27.3563 61.3295 27.8194 60.0786 28.2824 58.8277C28.6742 57.7556 29.0661 56.6476 29.4579 55.5754C29.5647 55.2895 29.6716 55.1465 29.9922 55.1823C30.384 55.218 30.8114 55.1823 31.2745 55.1823C31.2033 55.361 31.2033 55.5039 31.132 55.6112C30.0278 58.5418 28.9236 61.4725 27.8194 64.4389C27.7125 64.7248 27.57 64.8678 27.2494 64.832C26.8932 64.7963 26.4302 64.9035 26.1808 64.7248C25.9315 64.5461 25.8603 64.1172 25.7534 63.7956C24.7204 61.0794 23.6874 58.3631 22.6544 55.6469C22.6188 55.5039 22.5832 55.3967 22.512 55.1823C23.0819 55.1823 23.5806 55.1823 24.0792 55.1823C24.3286 55.1823 24.3286 55.361 24.3998 55.5397C24.7204 56.4689 25.0766 57.4339 25.3972 58.3631C25.8603 59.757 26.3589 61.1866 26.8932 62.6519Z" fill="#01009A"/>
<path d="M104.438 56.469C104.082 56.469 103.726 56.469 103.37 56.469C103.37 56.0401 103.37 55.647 103.37 55.1824C103.726 55.1824 104.046 55.1466 104.474 55.1109C104.474 54.6463 104.509 54.1459 104.474 53.717C104.367 53.0022 104.616 52.5376 105.293 52.2517C105.578 52.1445 105.792 51.9658 106.148 51.7513C106.148 52.895 106.148 54.003 106.148 55.1109C106.718 55.1109 107.217 55.1109 107.751 55.1109C107.751 55.5398 107.751 55.9329 107.751 56.3975C107.252 56.3975 106.754 56.3975 106.184 56.3975C106.184 56.612 106.148 56.7549 106.148 56.8979C106.148 58.6491 106.148 60.4004 106.148 62.1516C106.148 63.1881 106.397 63.3668 107.395 63.2596C107.502 63.2596 107.608 63.2596 107.751 63.2596C107.822 63.7242 107.893 64.1888 108 64.6892C107.074 64.9393 106.219 64.9751 105.4 64.6177C104.866 64.4032 104.616 63.9029 104.545 63.3668C104.509 62.9737 104.474 62.5805 104.474 62.1874C104.474 60.4361 104.474 58.6849 104.474 56.9694C104.438 56.8621 104.438 56.6834 104.438 56.469Z" fill="#01009A"/>
<path d="M43.1357 51.5369C43.67 51.5369 44.2043 51.5369 44.7386 51.5369C44.7386 55.9686 44.7386 60.3289 44.7386 64.7963C44.2043 64.7963 43.67 64.7963 43.1357 64.7963C43.1357 60.3646 43.1357 55.9686 43.1357 51.5369Z" fill="#01009A"/>
</svg>
