<svg width="30" height="22" viewBox="0 0 30 22" fill="none" xmlns="http://www.w3.org/2000/svg">
<path d="M29.3182 0.0909424H0.681818C0.304773 0.0909424 0 0.395715 0 0.772761V21.2273C0 21.6044 0.304773 21.9091 0.681818 21.9091H29.3182C29.6945 21.9091 30 21.6044 30 21.2273V0.772761C30 0.395715 29.6945 0.0909424 29.3182 0.0909424ZM28.6364 18.8962L20.19 10.4505L19.2259 11.4146L28.3568 20.5455H1.64318L10.7741 11.4146L9.81 10.4505L1.36364 18.8962V1.45458H28.6364V18.8962Z" fill="#01009A"/>
<path d="M27.2581 1.45459L14.9996 13.713L2.74124 1.45459H1.36328V2.00482L14.5176 15.1591C14.7842 15.4257 15.2151 15.4257 15.4817 15.1591L28.636 2.00482V1.45459H27.2581Z" fill="#01009A"/>
</svg>
