<svg width="30" height="32" viewBox="0 0 30 32" fill="none" xmlns="http://www.w3.org/2000/svg">
<path d="M29.8289 8.61562L21.718 0.187662C21.6026 0.0677774 21.4433 0 21.2769 0H9.18825C7.83537 0 6.73471 1.10023 6.73471 2.45255V11.0204H1.83565C0.823464 11.0204 0 11.8436 0 12.8556V22.0424C0 23.0543 0.823464 23.8775 1.83565 23.8775H6.73471V29.3885C6.73471 30.7384 7.83537 31.8367 9.18825 31.8367H27.5465C28.8993 31.8367 30 30.739 30 29.3898V9.0402C30 8.88188 29.9386 8.72973 29.8289 8.61562ZM21.4286 1.65284L28.0869 8.57141H21.4286V1.65284ZM1.83565 22.6531C1.49863 22.6531 1.22453 22.3792 1.22453 22.0424V12.8556C1.22453 12.5189 1.49869 12.2449 1.83565 12.2449H18.3685C18.7055 12.2449 18.9796 12.5189 18.9796 12.8556V22.0424C18.9796 22.3792 18.7054 22.6531 18.3685 22.6531H1.83565ZM28.7755 29.3898C28.7755 30.0639 28.2241 30.6122 27.5464 30.6122H9.18825C8.51054 30.6122 7.95918 30.0633 7.95918 29.3885V23.8775H18.3685C19.3807 23.8775 20.2041 23.0543 20.2041 22.0424V12.8556C20.2041 11.8436 19.3807 11.0204 18.3685 11.0204H7.95918V2.45255C7.95918 1.77533 8.51054 1.22447 9.18825 1.22447H20.2041V9.18365C20.2041 9.52179 20.4782 9.79588 20.8163 9.79588H28.7755V29.3898Z" fill="#777777"/>
<path d="M7.31941 15.5388C7.11614 15.2745 6.86381 15.1029 6.56248 15.024C6.36636 14.9714 5.94546 14.9451 5.29971 14.9451H3.5957V20.2041H4.65757V18.2203H5.34995C5.83067 18.2203 6.19779 18.1952 6.4513 18.145C6.63784 18.1043 6.8214 18.0212 7.00197 17.8956C7.18255 17.7701 7.33141 17.5973 7.44862 17.3773C7.56583 17.1573 7.6244 16.8858 7.6244 16.563C7.62434 16.1444 7.52268 15.803 7.31941 15.5388ZM6.41001 16.9863C6.32992 17.1035 6.2193 17.1895 6.07815 17.2446C5.937 17.2996 5.65725 17.3271 5.23871 17.3271H4.65757V15.8348H5.17056C5.55322 15.8348 5.80791 15.8467 5.93464 15.8706C6.10682 15.9017 6.24915 15.9794 6.36151 16.1038C6.47393 16.2282 6.53014 16.386 6.53014 16.5773C6.53021 16.7328 6.4901 16.8691 6.41001 16.9863Z" fill="#777777"/>
<path d="M12.7289 16.3818C12.6141 16.0458 12.4467 15.7618 12.2267 15.5298C12.0067 15.2978 11.7423 15.1364 11.4339 15.0455C11.2043 14.9785 10.8706 14.9451 10.433 14.9451H8.49219V20.2041H10.4904C10.8826 20.2041 11.1959 20.1671 11.4302 20.0929C11.7436 19.9925 11.9923 19.8526 12.1764 19.6732C12.4204 19.4364 12.6081 19.1267 12.7397 18.7441C12.8473 18.4307 12.9011 18.0577 12.9011 17.6248C12.9011 17.1322 12.8437 16.7178 12.7289 16.3818ZM11.6957 18.5414C11.6239 18.777 11.5313 18.9462 11.4177 19.049C11.3041 19.1518 11.1612 19.2248 10.989 19.2678C10.8575 19.3013 10.6434 19.3181 10.3469 19.3181H9.55405V15.8348H10.0312C10.464 15.8348 10.7546 15.8515 10.9029 15.885C11.1014 15.928 11.2652 16.0105 11.3944 16.1325C11.5235 16.2545 11.6239 16.4243 11.6957 16.6419C11.7675 16.8596 11.8033 17.1716 11.8033 17.5782C11.8033 17.9848 11.7675 18.3058 11.6957 18.5414Z" fill="#777777"/>
<path d="M17.4139 15.8348V14.9451H13.8086V20.2041H14.8705V17.9692H17.0659V17.0795H14.8705V15.8348H17.4139Z" fill="#777777"/>
</svg>
