<svg width="18" height="20" viewBox="0 0 18 20" fill="none" xmlns="http://www.w3.org/2000/svg">
<path d="M8.40873 9.54412C8.40873 9.7956 8.61256 9.99815 8.86319 9.99815C9.11382 9.99815 9.31765 9.79432 9.31765 9.54412C9.31807 9.01221 9.50701 8.4952 9.84998 8.0884C10.6129 7.18374 11.1848 6.20291 11.547 5.17315C11.5959 5.034 11.5746 4.87996 11.4895 4.75954C11.404 4.63911 11.2661 4.56763 11.1185 4.56763H6.60749C6.45984 4.56763 6.32154 4.63911 6.23601 4.75954C6.15091 4.87996 6.12963 5.034 6.17857 5.17315C6.54154 6.20291 7.11259 7.18374 7.87555 8.0884C8.21895 8.4952 8.40831 9.01264 8.40873 9.54412Z" fill="white"/>
<path d="M9.31765 11.3658C9.31765 11.1147 9.11382 10.9117 8.86319 10.9117C8.61256 10.9117 8.40873 11.1156 8.40873 11.3658C8.40831 12.0219 8.0164 12.6709 7.30535 13.1972C5.78453 14.3202 4.64626 15.5402 3.92202 16.8227C3.84245 16.964 3.84372 17.1359 3.92585 17.2746C4.0067 17.4146 4.15648 17.5001 4.31818 17.5001H13.4091C13.5703 17.5001 13.7197 17.4146 13.8014 17.2746C13.8827 17.1359 13.8839 16.964 13.8048 16.8227C13.081 15.5402 11.9423 14.3202 10.4219 13.1972C9.70998 12.6709 9.31807 12.0219 9.31765 11.3658Z" fill="white"/>
<path d="M16.8171 18.1822H16.5452C16.2328 14.6448 14.1614 11.9291 12.5512 10.0002C14.1618 8.07174 16.2324 5.35563 16.546 1.81826H16.8179C17.3201 1.81826 17.7269 1.41103 17.7269 0.908917C17.7269 0.4068 17.3201 0 16.8179 0H0.908917C0.4068 0 0 0.407225 0 0.908917C0 1.41103 0.4068 1.81826 0.908917 1.81826H1.18083C1.49359 5.35606 3.56418 8.07217 5.17478 10.0002C3.5646 11.9287 1.49359 14.6444 1.1804 18.1822H0.908917C0.4068 18.1822 0 18.5885 0 19.0907C0 19.5932 0.4068 20.0004 0.908917 20.0004H2.04549H15.6809H16.8179C17.3201 20.0004 17.7269 19.5932 17.7269 19.0907C17.7269 18.5885 17.3196 18.1822 16.8171 18.1822ZM3.00291 18.1822C3.34461 14.9861 5.42244 12.5248 6.97517 10.6857L7.05815 10.5874C7.3441 10.2491 7.3441 9.75384 7.05815 9.41512L6.97559 9.31725C5.42329 7.47771 3.34461 5.01649 3.00291 1.81996H14.7235C14.3818 5.01649 12.3031 7.47771 10.7508 9.31725L10.6687 9.41512C10.3828 9.75341 10.3828 10.2487 10.6687 10.5874L10.7517 10.6857C12.304 12.5248 14.3818 14.9861 14.7235 18.1822H3.00291Z" fill="white"/>
</svg>
