<svg width="50" height="50" viewBox="0 0 50 50" fill="none" xmlns="http://www.w3.org/2000/svg">
<path d="M14.0625 32.0312C14.9242 32.0312 15.625 32.732 15.625 33.5938H17.1875C17.1875 32.1422 16.1875 30.9289 14.8438 30.5797V28.9062H13.2812V30.4688H10.9375V33.5938C10.9375 35.3172 12.3391 36.7188 14.0625 36.7188C14.9242 36.7188 15.625 37.4195 15.625 38.2812V39.8438H14.0625C13.2008 39.8438 12.5 39.143 12.5 38.2812H10.9375C10.9375 39.7328 11.9375 40.9461 13.2812 41.2953V42.9688H14.8438V41.4062H17.1875V38.2812C17.1875 36.5578 15.7859 35.1562 14.0625 35.1562C13.2008 35.1562 12.5 34.4555 12.5 33.5938V32.0312H14.0625Z" fill="white"/>
<path d="M14.0625 22.6562C6.73906 22.6562 0.78125 28.6141 0.78125 35.9375C0.78125 43.2609 6.73906 49.2188 14.0625 49.2188C21.3859 49.2188 27.3438 43.2609 27.3438 35.9375C27.3438 28.6141 21.3859 22.6562 14.0625 22.6562ZM14.0625 47.6562C7.60078 47.6562 2.34375 42.3992 2.34375 35.9375C2.34375 29.4758 7.60078 24.2188 14.0625 24.2188C20.5242 24.2188 25.7812 29.4758 25.7812 35.9375C25.7812 42.3992 20.5242 47.6562 14.0625 47.6562Z" fill="white"/>
<path d="M14.0625 25.7812C8.4625 25.7812 3.90625 30.3375 3.90625 35.9375C3.90625 41.5375 8.4625 46.0938 14.0625 46.0938C19.6625 46.0938 24.2188 41.5375 24.2188 35.9375C24.2188 30.3375 19.6625 25.7812 14.0625 25.7812ZM14.0625 44.5312C9.32422 44.5312 5.46875 40.6758 5.46875 35.9375C5.46875 31.1992 9.32422 27.3438 14.0625 27.3438C18.8008 27.3438 22.6562 31.1992 22.6562 35.9375C22.6562 40.6758 18.8008 44.5312 14.0625 44.5312Z" fill="white"/>
<path d="M19.5312 35.1562H21.0938V36.7188H19.5312V35.1562Z" fill="white"/>
<path d="M7.03125 35.1562H8.59375V36.7188H7.03125V35.1562Z" fill="white"/>
<path d="M20.542 22.1039L21.6467 23.2086L37.0428 7.81254L34.4506 5.22035L46.7178 3.28285L44.7803 15.55L42.1881 12.9578L31.4795 23.6664L32.5842 24.7711L42.1881 15.1672L45.8459 18.825L48.5959 1.40472L31.1756 4.15472L34.8334 7.81254L20.542 22.1039Z" fill="white"/>
<path d="M29.1294 26.0107L30.6914 24.4486L31.7961 25.5533L30.2341 27.1153L29.1294 26.0107Z" fill="white"/>
<path d="M26.7856 28.3537L28.3477 26.7917L29.4524 27.8964L27.8903 29.4584L26.7856 28.3537Z" fill="white"/>
<path d="M49.3873 38.4507L47.3959 26.4991L44.1404 29.7546L41.367 26.9811C39.235 24.8491 35.7654 24.8491 33.6334 26.9811L29.917 30.6975L31.0217 31.8022L34.7381 28.0858C36.2607 26.5632 38.7396 26.5632 40.2623 28.0858L44.1404 31.9639L46.3537 29.7507L47.4873 36.5499L40.6881 35.4163L42.9014 33.203L39.1568 29.4585C38.2428 28.5444 36.7568 28.5444 35.8428 29.4585L32.26 33.0413L33.3646 34.146L36.9475 30.5632C37.2428 30.2686 37.7568 30.2686 38.0521 30.5632L40.692 33.203L37.4365 36.4585L49.3873 38.4507Z" fill="white"/>
<path d="M16.7965 9.30786L19.4363 11.9477C19.5832 12.0954 19.6645 12.2915 19.6645 12.5C19.6645 12.7086 19.5832 12.9047 19.4363 13.0524L15.8535 16.6352L16.9582 17.7399L20.541 14.1571C21.4551 13.2438 21.4551 11.7563 20.541 10.843L16.7965 7.09849L14.5832 9.31177L13.4496 2.51255L20.2488 3.64614L18.0355 5.85942L21.9137 9.73755C23.4363 11.261 23.4363 13.7391 21.9137 15.2618L18.1973 18.9782L19.302 20.0829L23.0184 16.3665C25.1504 14.2344 25.1504 10.7649 23.0184 8.63286L20.2449 5.85942L23.5004 2.60396L11.5488 0.612549L13.541 12.5633L16.7965 9.30786Z" fill="white"/>
<path d="M29.9097 35.3849L31.4717 33.8229L32.5764 34.9276L31.0144 36.4896L29.9097 35.3849Z" fill="white"/>
<path d="M13.5061 18.9787L15.0681 17.4167L16.1728 18.5214L14.6108 20.0834L13.5061 18.9787Z" fill="white"/>
<path d="M28.8629 17.686L29.9124 16.6366L31.0171 17.7413L29.9676 18.7907L28.8629 17.686Z" fill="white"/>
<path d="M26.6526 19.8945L27.7573 18.7898L28.862 19.8945L27.7573 20.9992L26.6526 19.8945Z" fill="white"/>
<path d="M24.4419 22.1041L25.5466 20.9994L26.6513 22.1041L25.5466 23.2088L24.4419 22.1041Z" fill="white"/>
<path d="M33.8169 17.4182L34.9216 16.3135L36.0263 17.4182L34.9216 18.5229L33.8169 17.4182Z" fill="white"/>
<path d="M36.0276 15.2087L37.1323 14.104L38.237 15.2087L37.1323 16.3134L36.0276 15.2087Z" fill="white"/>
<path d="M38.2367 13.0001L39.2862 11.9506L40.3909 13.0553L39.3414 14.1048L38.2367 13.0001Z" fill="white"/>
</svg>
