<svg width="50" height="50" viewBox="0 0 50 50" fill="none" xmlns="http://www.w3.org/2000/svg">
<path d="M1.60563 27.421V45.0829H28.9013V41.8716H31.1337L32.3379 37.0548H30.8158L28.5587 32.2379H33.0294C33.156 32.7267 33.3955 33.1673 33.7181 33.5366V45.0829C32.3904 45.0829 31.3097 46.1632 31.3097 47.4913V49.8998H40.9435V47.4913C40.9435 46.1632 39.8627 45.0829 38.535 45.0829V33.5366C38.8576 33.1673 39.0971 32.7267 39.2238 32.2379H43.6945L41.4374 37.0548H39.9152L41.1195 41.8716H48.7956L49.9998 37.0548H48.4777L46.2205 32.2379H47.366V30.6323H39.2238C39.0971 30.1434 38.8576 29.7024 38.535 29.3332V25.483L36.1266 23.0745L33.7181 25.483V29.3332C33.3955 29.7024 33.156 30.1434 33.0294 30.6323H28.9013V27.421C29.7868 27.421 30.5069 26.7009 30.5069 25.8154V24.2098C30.5069 23.3242 29.7868 22.6041 28.9013 22.6041H24.8872V21.6183C24.8872 19.9538 23.8402 18.4439 22.2828 17.8594L18.4647 16.4278V15.7481C19.0723 15.2028 19.5403 14.5078 19.8093 13.7183C21.322 13.4592 22.4788 12.1464 22.4788 10.5619V7.35068C22.4788 3.36719 19.2377 0.125366 15.2534 0.125366C11.2692 0.125366 8.02813 3.36719 8.02813 7.35068V10.5619C8.02813 12.1464 9.18492 13.4592 10.6976 13.7183C10.9666 14.507 11.4346 15.202 12.0422 15.7481V16.4278L8.22491 17.8602C6.66672 18.4439 5.61969 19.9538 5.61969 21.6183V22.6041H1.60563C0.720101 22.6041 0 23.3242 0 24.2098V25.8154C0 26.7009 0.720101 27.421 1.60563 27.421ZM29.8801 40.266H24.7112L24.3098 38.6604H30.2815L29.8801 40.266ZM25.5481 37.0548L27.2956 33.3265L29.0432 37.0548H25.5481ZM36.1266 29.8294C37.0121 29.8294 37.7322 30.5496 37.7322 31.4351C37.7322 32.3206 37.0121 33.0407 36.1266 33.0407C35.2411 33.0407 34.521 32.3206 34.521 31.4351C34.521 30.5496 35.2411 29.8294 36.1266 29.8294ZM39.3378 47.4913V48.2942H32.9153V47.4913C32.9153 47.048 33.2752 46.6885 33.7181 46.6885H38.535C38.978 46.6885 39.3378 47.048 39.3378 47.4913ZM35.3238 45.0829V34.5323C35.5821 34.5997 35.8479 34.6463 36.1266 34.6463C36.4053 34.6463 36.6711 34.5997 36.9294 34.5323V45.0829H35.3238ZM47.542 40.266H42.3731L41.9717 38.6604H47.9434L47.542 40.266ZM43.21 37.0548L44.9575 33.3265L46.7051 37.0548H43.21ZM36.1266 25.345L36.9294 26.1478V28.3379C36.6711 28.2705 36.4053 28.2238 36.1266 28.2238C35.8479 28.2238 35.5821 28.2705 35.3238 28.3379V26.1478L36.1266 25.345ZM27.2956 30.6323H24.8872V32.2379H26.0326L23.7755 37.0548H22.2534L23.4576 41.8716H27.2956V43.4773H8.02813V32.2379H20.8731V30.6323H6.4225V43.4773H3.21125V27.421H27.2956V30.6323ZM15.2534 15.3788C13.4824 15.3788 12.0422 13.9386 12.0422 12.1676V8.89908C13.431 8.77168 14.7693 8.33578 15.9528 7.57922L15.959 7.58588C16.6392 8.26561 17.5239 8.71523 18.4647 8.88144V12.1676C18.4647 13.9386 17.0245 15.3788 15.2534 15.3788ZM20.0703 11.9441V9.18014C20.5482 9.45885 20.8731 9.9708 20.8731 10.5627C20.8731 11.1542 20.5482 11.6658 20.0703 11.9441ZM15.2534 1.73099C18.3514 1.73099 20.8731 4.25154 20.8731 7.35068V7.79678C20.3988 7.52081 19.8551 7.35068 19.2675 7.35068C18.4584 7.35068 17.6666 7.02219 17.0943 6.45065L16.1582 5.51456L15.206 6.1496C14.0277 6.93477 12.6557 7.35068 11.2394 7.35068C10.6518 7.35068 10.1081 7.52081 9.63376 7.79678V7.35068C9.63376 4.25154 12.1555 1.73099 15.2534 1.73099ZM9.63376 10.5619C9.63376 9.97002 9.95872 9.45807 10.4366 9.17936V11.9433C9.95872 11.6658 9.63376 11.1535 9.63376 10.5619ZM15.2534 16.9844C15.8171 16.9844 16.3557 16.8817 16.8591 16.7034V16.9844C16.8591 17.87 16.139 18.5901 15.2534 18.5901C14.3679 18.5901 13.6478 17.87 13.6478 16.9844V16.7034C14.1511 16.8817 14.6898 16.9844 15.2534 16.9844ZM7.22532 21.6183C7.22532 20.6194 7.8533 19.7139 8.78821 19.3631L12.2429 18.0671C12.6902 19.3043 13.8646 20.1957 15.2534 20.1957C16.6423 20.1957 17.8167 19.3043 18.2632 18.0671L21.7187 19.3631C22.6536 19.7139 23.2816 20.6194 23.2816 21.6183V22.6041H7.22532V21.6183ZM1.60563 24.2098H28.9013L28.9028 25.8154H1.60563V24.2098ZM9.63376 33.8435H20.8731V35.4491H9.63376V33.8435ZM9.63376 37.0548H20.8731V38.6604H9.63376V37.0548ZM9.63376 40.266H20.8731V41.8716H9.63376V40.266Z" fill="#01009A"/>
</svg>
