<svg width="50" height="50" viewBox="0 0 50 50" fill="none" xmlns="http://www.w3.org/2000/svg">
<g clip-path="url(#clip0)">
<path d="M49.1257 41.3773C48.7183 41.3773 48.3883 41.7076 48.3883 42.115V48.2788C48.3883 48.4142 48.278 48.5249 48.1422 48.5249H46.9872V35.2512C46.9872 34.5734 46.4355 34.0218 45.7577 34.0218H30.1437C29.4659 34.0218 28.9143 34.5734 28.9143 35.2512V48.5249H27.5131V29.3209C27.5131 29.3182 27.5127 29.3159 27.5127 29.3133V26.3783C27.5127 26.3756 27.5131 26.3729 27.5131 26.3706V1.72119C27.5131 1.58577 27.6234 1.47514 27.7592 1.47514H42.8722C43.28 1.47514 43.61 1.14517 43.61 0.737763C43.61 0.330353 43.28 0 42.8722 0H27.7592C26.8101 0 26.038 0.772095 26.038 1.72119V10.6468H5.09224C4.17862 10.6468 3.43513 11.3903 3.43513 12.3039V28.8448H2.09465C1.04713 28.8448 0.195312 29.6967 0.195312 30.7442V45.6837C0.195312 47.876 1.90201 49.9149 4.57001 49.9149H23.2826C24.3343 49.9149 25.2972 49.5281 26.038 48.8903V49.2622C26.038 49.6696 26.368 50 26.7754 50H48.1422C49.0913 50 49.8634 49.2279 49.8634 48.2788V42.115C49.8634 41.7076 49.5331 41.3773 49.1257 41.3773ZM26.0376 45.6837C26.0376 47.2034 24.8024 48.4398 23.2826 48.4398C2.67982 48.4398 4.09737 48.5126 3.43513 48.2548C2.40326 47.8565 1.67084 46.854 1.67084 45.6837V37.9276C2.1656 38.4705 2.76451 38.9183 3.43513 39.2357C3.75175 39.3864 4.0844 39.5081 4.43039 39.5988V40.8939C4.43039 41.6096 5.01137 42.205 5.7415 42.205H7.25708C7.97997 42.205 8.56819 41.6168 8.56819 40.8939V39.7797H19.1402V40.8939C19.1402 41.6168 19.7281 42.205 20.451 42.205H21.9666C22.6898 42.205 23.2777 41.6168 23.2777 40.8939V39.5988C24.3557 39.3185 25.3098 38.7272 26.0376 37.9276V45.6837ZM7.09305 39.7797V40.7299H5.90591V39.7797H7.09305ZM5.90553 38.3045V37.3199H7.09267V38.3045H5.90553ZM21.8025 39.7797V40.7299H20.6154V39.7797H21.8025ZM20.6154 38.3045V37.3199H21.8025V38.3045H20.6154ZM26.0376 34.1213C26.0376 35.9283 24.8859 37.4714 23.2777 38.0554V37.1555C23.2777 36.4326 22.6898 35.8444 21.9666 35.8444H20.451C19.7281 35.8444 19.1402 36.4326 19.1402 37.1555V38.3045H8.56819V37.1555C8.56819 36.4326 7.97997 35.8444 7.25708 35.8444H5.7415C5.02014 35.8444 4.43039 36.4319 4.43039 37.1555V38.0554C4.07333 37.9257 3.73917 37.7487 3.43513 37.5324C2.36816 36.7729 1.67084 35.527 1.67084 34.1213V30.7442C1.67084 30.5099 1.86043 30.32 2.09465 30.32H25.6138C25.8476 30.32 26.0376 30.5099 26.0376 30.7442V34.1213ZM7.93571 28.8448V27.4944C7.93571 26.6487 8.62312 25.9613 9.46922 25.9613H18.24C19.0849 25.9613 19.7735 26.6487 19.7735 27.4944V28.8448H7.93571ZM26.0376 28.8929C25.9018 28.8616 25.7591 28.8448 25.6138 28.8448H21.2486V27.4944C21.2486 25.8354 19.8982 24.4858 18.24 24.4858H9.46922C7.80983 24.4858 6.46057 25.8354 6.46057 27.4944V28.8448H4.91028V12.3039C4.91028 12.2036 4.99191 12.122 5.09224 12.122H26.0376V28.8929ZM37.2131 48.5249H30.3894V39.1033H37.2131V48.5249ZM37.2131 37.6282H30.3894V35.4969H37.2131V37.6282ZM45.5116 48.5249H38.6883V39.1033H45.5116V48.5249ZM45.5116 37.6282H38.6883V35.4969H45.5116V37.6282Z" fill="#01009A"/>
<path d="M48.1423 0H45.823C45.4156 0 45.0852 0.330353 45.0852 0.737763C45.0852 1.14517 45.4156 1.47514 45.823 1.47514H48.1423C48.2781 1.47514 48.3884 1.58577 48.3884 1.72119V39.1644C48.3884 39.5718 48.7183 39.9021 49.1257 39.9021C49.5335 39.9021 49.8635 39.5718 49.8635 39.1644V1.72119C49.8635 0.772095 49.0914 0 48.1423 0Z" fill="#01009A"/>
<path d="M33.5206 7.33261C33.928 7.33261 34.2583 7.00226 34.2583 6.59485V4.18205C34.2583 3.50418 33.7067 2.95258 33.0288 2.95258H30.1438C29.4659 2.95258 28.9143 3.50418 28.9143 4.18205V31.0547C28.9143 31.7329 29.4659 32.2842 30.1438 32.2842H33.0288C33.7067 32.2842 34.2583 31.7329 34.2583 31.0547V9.54552C34.2583 9.13811 33.928 8.80775 33.5206 8.80775C33.1131 8.80775 32.7828 9.13811 32.7828 9.54552V30.809H30.3898V4.4281H32.7828V6.59485C32.7828 7.00226 33.1131 7.33261 33.5206 7.33261Z" fill="#01009A"/>
<path d="M36.5082 2.95258C35.8303 2.95258 35.2787 3.50418 35.2787 4.18205V31.0547C35.2787 31.7329 35.8303 32.2842 36.5082 32.2842H39.3932C40.0711 32.2842 40.6227 31.7329 40.6227 31.0547V4.18205C40.6227 3.50418 40.0711 2.95258 39.3932 2.95258H36.5082ZM39.1472 30.809H36.7538V4.4281H39.1472V30.809Z" fill="#01009A"/>
<path d="M41.6432 4.18205V31.0547C41.6432 31.7329 42.1944 32.2842 42.8727 32.2842H45.7577C46.4356 32.2842 46.9868 31.7329 46.9868 31.0547V4.18205C46.9868 3.50418 46.4356 2.95258 45.7577 2.95258H42.8727C42.1948 2.95258 41.6432 3.50418 41.6432 4.18205ZM43.1183 4.4281H45.5117V30.809H43.1183V4.4281Z" fill="#01009A"/>
<path d="M7.26891 22.9584H10.5751C11.1267 22.9584 11.5753 22.5098 11.5753 21.9582V15.2863C11.5753 14.7346 11.1267 14.2857 10.5751 14.2857H7.26891C6.7173 14.2857 6.26831 14.7346 6.26831 15.2863V21.9582C6.26831 22.5098 6.7173 22.9584 7.26891 22.9584ZM7.74384 15.7612H10.1002V21.4832H7.74384V15.7612Z" fill="#01009A"/>
<path d="M13.821 22.9584H17.1272C17.6788 22.9584 18.1274 22.5098 18.1274 21.9582V15.2863C18.1274 14.7346 17.6788 14.2857 17.1272 14.2857H13.821C13.2694 14.2857 12.8208 14.7346 12.8208 15.2863V21.9582C12.8204 22.5098 13.2694 22.9584 13.821 22.9584ZM14.2959 15.7612H16.6523V21.4832H14.2959V15.7612Z" fill="#01009A"/>
<path d="M20.3732 22.9584H23.6794C24.231 22.9584 24.6796 22.5098 24.6796 21.9582V15.2863C24.6796 14.7346 24.231 14.2857 23.6794 14.2857H20.3732C19.8215 14.2857 19.3726 14.7346 19.3726 15.2863V21.9582C19.3726 22.5098 19.8215 22.9584 20.3732 22.9584ZM20.8481 15.7612H23.2044V21.4832H20.8481V15.7612Z" fill="#01009A"/>
</g>
<defs>
<clipPath id="clip0">
<rect width="50" height="50" fill="white"/>
</clipPath>
</defs>
</svg>
