<svg width="50" height="50" viewBox="0 0 50 50" fill="none" xmlns="http://www.w3.org/2000/svg">
<g clip-path="url(#clip0)">
<path d="M36.6277 13.8604C36.4462 13.6788 36.1942 13.5743 35.9374 13.5743C35.6805 13.5743 35.4286 13.6788 35.2469 13.8604C35.0653 14.0421 34.9608 14.2931 34.9608 14.5509C34.9608 14.8077 35.0652 15.0597 35.2469 15.2413C35.4287 15.4229 35.6805 15.5274 35.9374 15.5274C36.1942 15.5274 36.4462 15.4229 36.6277 15.2413C36.8093 15.0597 36.9139 14.8077 36.9139 14.5509C36.9139 14.294 36.8094 14.0421 36.6277 13.8604Z" fill="#01009A"/>
<path d="M14.6484 27.5391H6.83594C6.29668 27.5391 5.85938 27.9763 5.85938 28.5157V36.3282C5.85938 36.8675 6.29668 37.3047 6.83594 37.3047H14.6484C15.1877 37.3047 15.625 36.8675 15.625 36.3282V28.5157C15.625 27.9763 15.1878 27.5391 14.6484 27.5391ZM13.6719 35.3516H7.8125V29.4923H13.6719V35.3516Z" fill="#01009A"/>
<path d="M49.3972 20.4845C49.0323 20.3332 48.6122 20.417 48.333 20.6961L38.382 30.6471C38.3819 30.6473 38.3817 30.6474 38.3815 30.6476C38.3813 30.6478 38.3812 30.6479 38.3811 30.6481L26.7811 42.2481C26.781 42.2483 26.7809 42.2484 26.7807 42.2485C26.7805 42.2487 26.7804 42.2488 26.7802 42.249L20.6963 48.3329C20.4171 48.6122 20.3335 49.0323 20.4846 49.3972C20.6358 49.7621 20.9918 50 21.3868 50H49.0235C49.5627 50 50 49.5628 50 49.0234V21.3867C50 20.9918 49.7622 20.6357 49.3972 20.4845ZM48.0469 48.0469H23.7445L27.4712 44.3202L28.4034 45.2524C28.5941 45.4432 28.844 45.5385 29.0939 45.5385C29.3438 45.5385 29.5937 45.4432 29.7845 45.2524C30.1658 44.8711 30.1658 44.2527 29.7845 43.8713L28.8522 42.9391L31.3382 40.4531L32.2703 41.3853C32.461 41.576 32.7109 41.6713 32.9608 41.6713C33.2107 41.6713 33.4606 41.5759 33.6513 41.3853C34.0327 41.0039 34.0327 40.3856 33.6513 40.0042L32.7191 39.072L35.2051 36.5861L36.1373 37.5183C36.328 37.709 36.5779 37.8043 36.8278 37.8043C37.0777 37.8043 37.3276 37.709 37.5183 37.5183C37.8997 37.1369 37.8997 36.5186 37.5183 36.1371L36.5861 35.2049L39.0719 32.7191L40.0042 33.6513C40.1949 33.842 40.4448 33.9373 40.6947 33.9373C40.9446 33.9373 41.1945 33.842 41.3852 33.6513C41.7666 33.2699 41.7666 32.6516 41.3852 32.2701L40.453 31.3379L42.9389 28.852L43.8711 29.7841C44.0618 29.9748 44.3117 30.0701 44.5616 30.0701C44.8115 30.0701 45.0614 29.9747 45.2521 29.7841C45.6335 29.4028 45.6335 28.7844 45.2521 28.403L44.3199 27.4708L48.0469 23.7444V48.0469Z" fill="#01009A"/>
<path d="M44.514 32.2727C44.1491 32.1215 43.729 32.2052 43.4498 32.4844L32.4841 43.4502C32.2049 43.7295 32.1212 44.1495 32.2723 44.5144C32.4235 44.8794 32.7796 45.1173 33.1746 45.1173H44.1403C44.6795 45.1173 45.1169 44.68 45.1169 44.1407V33.175C45.1169 32.7801 44.879 32.4239 44.514 32.2727ZM43.1637 43.1641H35.5323L43.1637 35.5326V43.1641Z" fill="#01009A"/>
<path d="M45.2207 14.5765C44.9519 14.3077 44.5517 14.2192 44.1944 14.35L37.5263 16.7919C37.393 16.8407 37.272 16.918 37.1715 17.0184L35.2966 18.8932L23.0539 6.6504C22.8707 6.4673 22.6223 6.36437 22.3633 6.36437C22.1044 6.36437 21.8559 6.4673 21.6728 6.6504L6.93623 21.387H3.33438L22.3633 2.35793L32.8056 12.8002C33.1871 13.1815 33.8052 13.1815 34.1868 12.8002C34.5681 12.4188 34.5681 11.8005 34.1868 11.419L23.054 0.286254C22.6725 -0.0950926 22.0544 -0.0950926 21.6728 0.286254L0.286142 21.6729C0.00694351 21.9522 -0.0766501 22.3722 0.0744239 22.7372C0.225595 23.1022 0.581649 23.3401 0.976668 23.3401H1.95323V49.0237C1.95323 49.563 2.39053 50.0002 2.92979 50.0002H18.4557C18.995 50.0002 19.4323 49.563 19.4323 49.0237C19.4323 48.4843 18.995 48.0471 18.4557 48.0471H3.90635V23.3401H7.34072C7.5997 23.3401 7.84804 23.2372 8.03125 23.0541L22.3633 8.72198L33.9155 20.2742L19.4337 34.7561V25.9768H26.2696C26.8088 25.9768 27.2462 25.5396 27.2462 25.0003C27.2462 24.4609 26.8088 24.0237 26.2696 24.0237H18.4571C17.9178 24.0237 17.4805 24.4609 17.4805 25.0003V36.3284C17.4805 36.4423 17.5011 36.5511 17.5369 36.6528L16.662 37.5277C15.1161 39.0736 15.1161 41.589 16.662 43.1349C17.435 43.908 18.4502 44.2945 19.4656 44.2944C20.4808 44.2944 21.4964 43.9079 22.2692 43.135L30.5047 34.8995C30.8861 34.5181 30.8861 33.8998 30.5047 33.5184C30.1234 33.1371 29.5052 33.1371 29.1236 33.5184L22.8841 39.7579L20.0391 36.9128L37.8816 19.0704L40.7266 21.9154L33.9087 28.7334C33.5274 29.1147 33.5274 29.7331 33.9087 30.1144C34.2902 30.4958 34.9083 30.4958 35.2899 30.1144L42.7787 22.6256C42.879 22.5252 42.9564 22.4041 43.0051 22.2709L45.4471 15.6028C45.5779 15.2458 45.4896 14.8453 45.2207 14.5765ZM21.5032 41.1388L20.8882 41.7539C20.5082 42.1338 20.0031 42.3431 19.4657 42.3431C18.9283 42.3431 18.4231 42.1338 18.0432 41.7539C17.6632 41.3739 17.454 40.8687 17.454 40.3314C17.454 39.7941 17.6631 39.2888 18.0431 38.9088L18.6582 38.2938L21.5032 41.1388ZM41.7076 20.1341L39.6629 18.0893L42.8893 16.9078L41.7076 20.1341Z" fill="#01009A"/>
<path d="M32.8797 31.1426C32.6981 30.961 32.4462 30.8565 32.1893 30.8565C31.9325 30.8565 31.6805 30.961 31.4989 31.1426C31.3173 31.3252 31.2128 31.5762 31.2128 31.833C31.2128 32.0909 31.3172 32.3418 31.4989 32.5244C31.6805 32.7061 31.9315 32.8096 32.1893 32.8096C32.4462 32.8096 32.6981 32.7061 32.8797 32.5244C33.0613 32.3418 33.1659 32.0899 33.1659 31.833C33.1659 31.5762 33.0614 31.3252 32.8797 31.1426Z" fill="#01009A"/>
<path d="M22.3633 14.7462C20.3171 14.7462 18.6523 16.4109 18.6523 18.4571C18.6523 20.5033 20.3171 22.1681 22.3633 22.1681C24.4095 22.1681 26.0742 20.5033 26.0742 18.4571C26.0742 16.4109 24.4095 14.7462 22.3633 14.7462ZM22.3633 20.2149C21.394 20.2149 20.6055 19.4265 20.6055 18.4571C20.6055 17.4879 21.394 16.6993 22.3633 16.6993C23.3325 16.6993 24.1211 17.4879 24.1211 18.4571C24.1211 19.4264 23.3325 20.2149 22.3633 20.2149Z" fill="#01009A"/>
</g>
<defs>
<clipPath id="clip0">
<rect width="50" height="50" fill="white"/>
</clipPath>
</defs>
</svg>
