<svg width="20" height="19" fill="none" xmlns="http://www.w3.org/2000/svg"><path d="M19.287 17.652H.713a.689.689 0 0 0-.696.674c0 .362.323.674.696.674h18.59a.689.689 0 0 0 .697-.674c0-.361-.323-.674-.713-.674zM.017 11.686L0 14.891a.683.683 0 0 0 .696.69l3.294-.016a.693.693 0 0 0 .492-.197L15.857 4.356a.68.68 0 0 0 0-.97L12.597.197a.734.734 0 0 0-1.001 0L9.32 2.416l-9.1 8.793a.722.722 0 0 0-.204.477zM12.105 1.644l2.292 2.218-1.29 1.25-2.292-2.219 1.29-1.249zM1.426 11.982l8.387-8.12 2.292 2.219-8.387 8.103-2.309.017.017-2.219z" fill="#0F61A7"/></svg>