<svg width="46" height="14" fill="none" xmlns="http://www.w3.org/2000/svg"><path d="M45.294 4.847h-.254V3.753c0-2.025-1.743-3.716-3.92-3.753h-.238c-2.176.037-3.919 1.728-3.919 3.753v1.094h-.254c-.391 0-.709.37-.709.831v5.489c0 .458.318.833.709.833h8.582c.391 0 .709-.375.709-.833V5.678c.003-.461-.316-.83-.706-.83zm-3.489 3.571v1.659c0 .19-.171.35-.38.35h-.85c-.206 0-.38-.16-.38-.35V8.418a.95.95 0 0 1-.315-.711c0-.525.441-.978 1.002-.998.059-.003.179-.003.238 0 .562.02 1.003.473 1.003.998a.957.957 0 0 1-.318.711zm1.564-3.57h-4.735V3.752c0-1.206 1.061-2.202 2.366-2.202 1.305 0 2.366.996 2.366 2.202l.003 1.094zM34.059 0H27.94c-.51 0-.941.44-.941.96v12.12c0 .48.431.92.941.92h6.118c.51 0 .941-.44.941-.96V.96c-.04-.52-.431-.96-.941-.96zm-4.04.68h1.961c.079 0 .118.04.118.12 0 .08-.04.12-.118.12h-1.96c-.079 0-.118-.08-.118-.12 0-.08.04-.12.118-.12zM31 13.52c-.274 0-.47-.2-.47-.48 0-.28.195-.48.47-.48.274 0 .47.2.47.48 0 .28-.235.48-.47.48zm3.333-1.28h-6.666V1.48h6.666v10.76zM12.44 4.007c.19.149.762.585 1.715 1.316.953.731 1.686 1.29 2.193 1.685.056.042.173.136.355.281.181.146.331.262.451.353.12.09.264.19.434.3.17.11.331.194.481.249.15.055.29.084.42.084h.017c.129 0 .267-.029.42-.084.149-.055.31-.139.48-.249.17-.11.317-.21.434-.3.12-.091.27-.207.451-.353.182-.145.3-.239.355-.281.513-.395 1.821-1.394 3.917-3.001a4.191 4.191 0 0 0 1.02-1.135c.273-.443.411-.91.411-1.394 0-.408-.132-.754-.399-1.045A1.216 1.216 0 0 0 24.66 0H12.34c-.431 0-.762.159-.994.479-.232.32-.346.72-.346 1.203 0 .388.152.808.46 1.26.308.45.634.806.98 1.065z" fill="#FDCD39"/><path d="M25.164 4.996a183.748 183.748 0 0 0-4.169 3.186 18.7 18.7 0 0 1-.774.604 4.6 4.6 0 0 1-.792.443 2.204 2.204 0 0 1-.92.227h-.018c-.284 0-.592-.075-.92-.227a4.718 4.718 0 0 1-.792-.443 18.7 18.7 0 0 1-.774-.604c-.754-.608-2.14-1.672-4.16-3.186A4.778 4.778 0 0 1 11 4.191v7.331c0 .408.132.754.393 1.045.26.287.577.433.947.433h12.323c.37 0 .683-.146.947-.433.261-.288.393-.637.393-1.045V4.191a5.132 5.132 0 0 1-.839.805zM5.002 6.848c1.46 0 2.647-1.532 2.647-3.424S7.26 0 5.002 0C2.745 0 2.354 1.532 2.354 3.424s1.187 3.424 2.648 3.424zm4.99 5.088c-.048-3.292-.454-4.232-3.544-4.828 0 0-.436.592-1.45.592s-1.45-.592-1.45-.592C.493 7.696.065 8.62.009 11.828c-.004.26-.008.276-.008.244v.348S.736 14 4.998 14s4.998-1.58 4.998-1.58v-.256c.004.02 0-.016-.004-.228z" fill="#FDCD39"/></svg>