<svg width="42" height="13" fill="none" xmlns="http://www.w3.org/2000/svg"><path d="M14.78.219a.752.752 0 0 0-1.06 0L4.734 9.192 1.28 5.743A.75.75 0 0 0 .22 6.802l3.984 3.979a.751.751 0 0 0 1.06 0l9.516-9.503a.748.748 0 0 0 0-1.059z" fill="#3BD14E"/><path d="M23.05 6l4.725-4.725c.3-.3.3-.775 0-1.05-.3-.3-.775-.3-1.05 0L22 4.925l-4.725-4.7c-.3-.3-.775-.3-1.05 0-.3.3-.3.775 0 1.05L20.925 6l-4.7 4.7c-.3.3-.3.775 0 1.05a.66.66 0 0 0 .525.25.72.72 0 0 0 .525-.225L22 7.05l4.725 4.725c.15.15.35.225.525.225a.762.762 0 0 0 .525-.225c.3-.3.3-.775 0-1.05L23.05 6z" fill="#DC0000"/><path d="M35.837 3.065c.886 0 1.605-.686 1.605-1.533C37.442.686 36.723 0 35.837 0c-.887 0-1.606.686-1.606 1.532 0 .847.719 1.533 1.606 1.533zm0 9.935c.514 0 .932-.398.932-.89 0-.491-.417-.889-.932-.889-.515 0-.933.398-.933.889 0 .492.418.89.933.89zM31.9 4.449c.801 0 1.45-.62 1.45-1.384 0-.765-.649-1.384-1.45-1.384-.8 0-1.45.619-1.45 1.384 0 .764.65 1.384 1.45 1.384zm7.821 6.87c.43 0 .777-.332.777-.741 0-.41-.348-.741-.777-.741-.429 0-.777.331-.777.741 0 .409.348.741.777.741zm-9.426-3.262c.715 0 1.295-.553 1.295-1.236 0-.682-.58-1.235-1.295-1.235S29 6.139 29 6.821c0 .683.58 1.236 1.295 1.236zm11.084-.643A.607.607 0 0 0 42 6.821a.608.608 0 0 0-.621-.593c-.344 0-.622.266-.622.593 0 .328.278.593.622.593zM31.123 9.787a1.04 1.04 0 0 0 0 1.483c.415.395 1.14.395 1.554 0a1.04 1.04 0 0 0 0-1.483c-.414-.395-1.14-.395-1.553 0zm8.598-6.278a.456.456 0 0 0 .466-.444.456.456 0 0 0-.466-.445.456.456 0 0 0-.466.445c0 .245.209.444.466.444z" fill="#57A5FE"/></svg>