<svg width="113" height="35" fill="none" xmlns="http://www.w3.org/2000/svg"><path d="M109.577 4.407h3.419L108.891 0v3.779c0 .375.343.628.686.628z" fill="#999"/><path d="M108.208 3.779V0h-6.838c-.755 0-1.37.566-1.37 1.26v14.48c0 .69.615 1.26 1.37 1.26h10.26c.751 0 1.37-.566 1.37-1.26V5.035h-3.419c-.758 0-1.373-.566-1.373-1.257zm-6.155-1.261h4.789v.629h-4.789v-.63zm0 1.89h4.789v.628h-4.789v-.629zm8.891 10.07h-8.891v-.628h8.891v.629zm0-1.889h-8.891v-.628h8.891v.628zm0-1.889h-8.891v-.628h8.891v.628zm0-1.886h-8.891v-.628h8.891v.628zm0-1.889h-8.891v-.629h8.891v.63z" fill="#999"/><path d="M108.208 3.779V0h-6.838c-.755 0-1.37.566-1.37 1.26v14.48c0 .69.615 1.26 1.37 1.26h10.26c.751 0 1.37-.566 1.37-1.26V5.035h-3.419c-.758 0-1.373-.566-1.373-1.257zm-6.155-1.261h4.789v.629h-4.789v-.63zm0 1.89h4.789v.628h-4.789v-.629zm8.891 10.07h-8.891v-.628h8.891v.629zm0-1.889h-8.891v-.628h8.891v.628zm0-1.889h-8.891v-.628h8.891v.628zm0-1.886h-8.891v-.628h8.891v.628zm0-1.889h-8.891v-.629h8.891v.63z" fill="#999"/><path d="M108.208 3.779V0h-6.838c-.755 0-1.37.566-1.37 1.26v14.48c0 .69.615 1.26 1.37 1.26h10.26c.751 0 1.37-.566 1.37-1.26V5.035h-3.419c-.758 0-1.373-.566-1.373-1.257zm-6.155-1.261h4.789v.629h-4.789v-.63zm0 1.89h4.789v.628h-4.789v-.629zm8.891 10.07h-8.891v-.628h8.891v.629zm0-1.889h-8.891v-.628h8.891v.628zm0-1.889h-8.891v-.628h8.891v.628zm0-1.886h-8.891v-.628h8.891v.628zm0-1.889h-8.891v-.629h8.891v.63z" fill="#999"/><path d="M109.577 22.407h3.419L108.891 18v3.779c0 .375.343.628.686.628z" fill="#FDCD39"/><path d="M108.208 21.779V18h-6.838c-.755 0-1.37.566-1.37 1.26v14.48c0 .69.615 1.26 1.37 1.26h10.26c.751 0 1.37-.566 1.37-1.26V23.035h-3.419c-.758 0-1.373-.566-1.373-1.258zm-6.155-1.261h4.789v.629h-4.789v-.63zm0 1.89h4.789v.628h-4.789v-.629zm8.891 10.07h-8.891v-.628h8.891v.629zm0-1.889h-8.891v-.628h8.891v.629zm0-1.889h-8.891v-.628h8.891v.628zm0-1.886h-8.891v-.628h8.891v.628zm0-1.889h-8.891v-.629h8.891v.63z" fill="#FDCD39"/><path d="M108.208 21.779V18h-6.838c-.755 0-1.37.566-1.37 1.26v14.48c0 .69.615 1.26 1.37 1.26h10.26c.751 0 1.37-.566 1.37-1.26V23.035h-3.419c-.758 0-1.373-.566-1.373-1.258zm-6.155-1.261h4.789v.629h-4.789v-.63zm0 1.89h4.789v.628h-4.789v-.629zm8.891 10.07h-8.891v-.628h8.891v.629zm0-1.889h-8.891v-.628h8.891v.629zm0-1.889h-8.891v-.628h8.891v.628zm0-1.886h-8.891v-.628h8.891v.628zm0-1.889h-8.891v-.629h8.891v.63z" fill="#FDCD39"/><path d="M108.208 21.779V18h-6.838c-.755 0-1.37.566-1.37 1.26v14.48c0 .69.615 1.26 1.37 1.26h10.26c.751 0 1.37-.566 1.37-1.26V23.035h-3.419c-.758 0-1.373-.566-1.373-1.258zm-6.155-1.261h4.789v.629h-4.789v-.63zm0 1.89h4.789v.628h-4.789v-.629zm8.891 10.07h-8.891v-.628h8.891v.629zm0-1.889h-8.891v-.628h8.891v.629zm0-1.889h-8.891v-.628h8.891v.628zm0-1.886h-8.891v-.628h8.891v.628zm0-1.889h-8.891v-.629h8.891v.63zM89 21c-3.821 0-7.286 2.104-9.844 5.522a.803.803 0 0 0 0 .952C81.714 30.896 85.179 33 89 33c3.821 0 7.286-2.104 9.844-5.522a.803.803 0 0 0 0-.952C96.286 23.104 92.821 21 89 21zm.274 10.225c-2.536.16-4.631-1.944-4.472-4.5.131-2.11 1.829-3.818 3.924-3.95 2.536-.16 4.631 1.944 4.472 4.5-.135 2.105-1.833 3.814-3.924 3.95zm-.127-1.952a2.269 2.269 0 0 1-2.405-2.421 2.282 2.282 0 0 1 2.115-2.13 2.269 2.269 0 0 1 2.405 2.422 2.282 2.282 0 0 1-2.115 2.13z" fill="#FDCD39"/><path d="M89 2c-3.821 0-7.286 2.104-9.844 5.522a.803.803 0 0 0 0 .952C81.714 11.896 85.179 14 89 14c3.821 0 7.286-2.104 9.844-5.522a.803.803 0 0 0 0-.952C96.286 4.104 92.821 2 89 2zm.274 10.225c-2.536.16-4.631-1.944-4.472-4.5.131-2.11 1.829-3.818 3.924-3.95 2.536-.16 4.631 1.944 4.472 4.5-.135 2.105-1.833 3.814-3.924 3.95zm-.127-1.952a2.269 2.269 0 0 1-2.405-2.421 2.282 2.282 0 0 1 2.115-2.13 2.269 2.269 0 0 1 2.405 2.422 2.282 2.282 0 0 1-2.115 2.13z" fill="#999"/><path d="M71.03 29.18c1.026-.484 1.837-1.149 2.432-1.985.594-.84.89-1.75.89-2.739 0-.989-.296-1.9-.89-2.74-.595-.839-1.406-1.5-2.432-1.985-1.027-.488-2.143-.731-3.352-.731-1.21 0-2.326.243-3.352.732-1.027.485-1.838 1.149-2.432 1.985-.598.84-.894 1.75-.894 2.74 0 .842.226 1.641.674 2.388.449.746 1.067 1.373 1.851 1.884-.063.172-.13.329-.196.47a2.95 2.95 0 0 1-.236.411c-.093.13-.163.235-.213.31a3.824 3.824 0 0 1-.245.313l-.22.265c0-.007-.013.008-.036.049-.027.037-.04.056-.043.052-.004-.004-.017.015-.037.052a.65.65 0 0 0-.033.06l-.023.052a.222.222 0 0 0-.02.064c-.004.022-.004.044-.004.07 0 .027.004.049.01.071a.37.37 0 0 0 .11.224c.06.056.126.086.196.086h.03a7.19 7.19 0 0 0 .817-.171 7.635 7.635 0 0 0 2.638-1.363 8.636 8.636 0 0 0 1.668.172 7.79 7.79 0 0 0 3.342-.735z" fill="#FDCD39"/><path d="M77.326 29.576A4.547 4.547 0 0 0 78 27.184c0-.873-.236-1.69-.711-2.452-.475-.761-1.12-1.392-1.934-1.895.147.533.22 1.07.22 1.62 0 .95-.213 1.854-.635 2.705a6.94 6.94 0 0 1-1.82 2.258 8.016 8.016 0 0 1-2.505 1.373 8.98 8.98 0 0 1-2.931.478c-.189 0-.468-.015-.834-.041 1.273.936 2.765 1.407 4.479 1.407.545 0 1.1-.056 1.671-.172a7.563 7.563 0 0 0 2.638 1.362c.229.064.498.12.817.172a.266.266 0 0 0 .209-.075.403.403 0 0 0 .123-.235c-.003-.041 0-.067.01-.07.01-.005.007-.027-.003-.072l-.02-.063-.023-.053a.616.616 0 0 0-.033-.06c-.017-.025-.03-.04-.037-.052-.01-.01-.023-.03-.043-.052-.02-.026-.033-.04-.037-.048-.033-.041-.103-.13-.219-.265a4.04 4.04 0 0 1-.246-.314l-.212-.31a2.584 2.584 0 0 1-.236-.41 6.952 6.952 0 0 1-.196-.47 5.915 5.915 0 0 0 1.834-1.874z" fill="#FDCD39"/><path d="M71.03 11.18c1.026-.484 1.837-1.149 2.432-1.985.594-.84.89-1.75.89-2.739 0-.989-.296-1.9-.89-2.74-.595-.839-1.406-1.5-2.432-1.985C70.003 1.244 68.887 1 67.678 1c-1.21 0-2.326.243-3.352.732-1.027.485-1.838 1.149-2.432 1.985-.598.84-.894 1.75-.894 2.74 0 .843.226 1.641.674 2.388.449.746 1.067 1.373 1.851 1.884-.063.172-.13.329-.196.47a2.95 2.95 0 0 1-.236.411c-.093.13-.163.235-.213.31a3.824 3.824 0 0 1-.245.313l-.22.265c0-.007-.013.008-.036.049-.027.037-.04.056-.043.052-.004-.004-.017.015-.037.052a.521.521 0 0 0-.033.06l-.023.052a.222.222 0 0 0-.02.064c-.004.022-.004.044-.004.07 0 .027.004.049.01.071a.37.37 0 0 0 .11.224c.06.056.126.086.196.086h.03a7.19 7.19 0 0 0 .817-.171 7.635 7.635 0 0 0 2.638-1.363 8.636 8.636 0 0 0 1.668.172 7.79 7.79 0 0 0 3.342-.735z" fill="#999"/><path d="M77.326 11.576A4.547 4.547 0 0 0 78 9.184c0-.873-.236-1.69-.711-2.452-.475-.761-1.12-1.392-1.934-1.896a6.06 6.06 0 0 1 .22 1.62c0 .952-.213 1.855-.635 2.706a6.94 6.94 0 0 1-1.82 2.258 8.016 8.016 0 0 1-2.505 1.373 8.98 8.98 0 0 1-2.931.478c-.189 0-.468-.015-.834-.041 1.273.936 2.765 1.407 4.479 1.407.545 0 1.1-.056 1.671-.172a7.563 7.563 0 0 0 2.638 1.362c.229.063.498.12.817.172a.266.266 0 0 0 .209-.075.403.403 0 0 0 .123-.235c-.003-.041 0-.067.01-.07.01-.005.007-.027-.003-.072l-.02-.063-.023-.053a.616.616 0 0 0-.033-.06c-.017-.025-.03-.04-.037-.052-.01-.01-.023-.03-.043-.052-.02-.026-.033-.04-.037-.048-.033-.041-.103-.13-.219-.265a4.04 4.04 0 0 1-.246-.314l-.212-.31a2.584 2.584 0 0 1-.236-.41 6.952 6.952 0 0 1-.196-.47 5.915 5.915 0 0 0 1.834-1.874z" fill="#999"/><path d="M46.439 24.007c.191.148.762.585 1.715 1.316.953.73 1.686 1.29 2.193 1.685.056.042.173.136.355.281.181.146.331.262.451.352.12.091.264.191.434.301.17.11.331.194.481.25.149.054.29.083.419.083h.017c.129 0 .267-.029.42-.084.149-.055.31-.139.48-.249.17-.11.317-.21.434-.3.12-.091.27-.207.452-.353.181-.146.299-.24.354-.281.513-.395 1.821-1.394 3.917-3.001a4.205 4.205 0 0 0 1.02-1.135 2.63 2.63 0 0 0 .41-1.394 1.49 1.49 0 0 0-.398-1.045 1.217 1.217 0 0 0-.936-.433H46.34c-.431 0-.763.159-.994.479-.232.32-.346.72-.346 1.203 0 .388.152.808.46 1.26.308.45.633.806.979 1.065z" fill="#FDCD39"/><path d="M59.162 24.996a184.397 184.397 0 0 0-4.169 3.186 17.86 17.86 0 0 1-.774.604 4.59 4.59 0 0 1-.791.443 2.204 2.204 0 0 1-.921.227h-.017c-.285 0-.592-.075-.921-.227a4.736 4.736 0 0 1-.791-.443 18.5 18.5 0 0 1-.774-.604c-.753-.608-2.14-1.672-4.16-3.186a4.786 4.786 0 0 1-.844-.805v7.331c0 .408.132.754.393 1.045.261.288.577.433.947.433h12.32c.37 0 .683-.145.947-.433.261-.288.393-.637.393-1.045v-7.331a5.14 5.14 0 0 1-.838.805z" fill="#FDCD39"/><path d="M46.439 6.007c.191.149.762.585 1.715 1.316.953.73 1.686 1.29 2.193 1.685.056.042.173.136.355.281.181.146.331.262.451.353.12.09.264.19.434.3.17.11.331.194.481.25.149.054.29.083.419.083h.017c.129 0 .267-.029.42-.084.149-.055.31-.139.48-.249.17-.11.317-.21.434-.3.12-.091.27-.207.452-.353.181-.146.299-.24.354-.281.513-.395 1.821-1.394 3.917-3.001a4.205 4.205 0 0 0 1.02-1.135 2.63 2.63 0 0 0 .41-1.394 1.49 1.49 0 0 0-.398-1.045A1.217 1.217 0 0 0 58.657 2H46.34c-.431 0-.763.159-.994.479-.232.32-.346.72-.346 1.203 0 .388.152.808.46 1.26.308.45.633.806.979 1.065z" fill="#999"/><path d="M59.162 6.996a184.325 184.325 0 0 0-4.169 3.186 17.86 17.86 0 0 1-.774.604 4.59 4.59 0 0 1-.791.443 2.204 2.204 0 0 1-.921.227h-.017c-.285 0-.592-.075-.921-.227a4.736 4.736 0 0 1-.791-.443 18.5 18.5 0 0 1-.774-.604c-.753-.608-2.14-1.672-4.16-3.186A4.786 4.786 0 0 1 45 6.191v7.331c0 .408.132.754.393 1.045.261.287.577.433.947.433h12.32c.37 0 .683-.146.947-.433.261-.288.393-.637.393-1.045V6.191a5.14 5.14 0 0 1-.838.805z" fill="#999"/><path d="M32.503 26.946l.68 2.882h9.062l.675-2.882H32.503zM43.3 25.327l.7-2.983H33.17l-.562-2.333L29.563 19 29 20.58l2.141.708.976 4.04h11.182zm-6.685 7.029c0 .91-.76 1.644-1.703 1.644-.943 0-1.702-.733-1.702-1.644 0-.91.76-1.643 1.702-1.643.937 0 1.703.733 1.703 1.643zm5.605 0c0 .91-.76 1.644-1.703 1.644-.943 0-1.703-.733-1.703-1.644 0-.91.76-1.643 1.703-1.643.936 0 1.702.733 1.702 1.643z" fill="#FDCD39"/><path d="M32.503 26.946l.68 2.882h9.062l.675-2.882H32.503zM43.3 25.327l.7-2.983H33.17l-.562-2.333L29.563 19 29 20.58l2.141.708.976 4.04h11.182zm-6.685 7.029c0 .91-.76 1.644-1.703 1.644-.943 0-1.702-.733-1.702-1.644 0-.91.76-1.643 1.702-1.643.937 0 1.703.733 1.703 1.643zm5.605 0c0 .91-.76 1.644-1.703 1.644-.943 0-1.703-.733-1.703-1.644 0-.91.76-1.643 1.703-1.643.936 0 1.702.733 1.702 1.643z" fill="#FDCD39"/><path d="M32.503 8.946l.68 2.882h9.062l.675-2.882H32.503zM43.3 7.327l.7-2.983H33.17l-.562-2.333L29.563 1 29 2.58l2.141.708.976 4.04h11.182zm-6.685 7.03c0 .91-.76 1.643-1.703 1.643-.943 0-1.702-.733-1.702-1.643s.76-1.644 1.702-1.644c.937 0 1.703.733 1.703 1.644zm5.605 0c0 .91-.76 1.643-1.703 1.643-.943 0-1.703-.733-1.703-1.643s.76-1.644 1.703-1.644c.936 0 1.702.733 1.702 1.644z" fill="#999"/><path d="M28 19h-4v15h4V19zm-5 3h-4v12h4V22zm-5 3h-4v9h4v-9z" fill="#FDCD39"/><path d="M28 1h-4v15h4V1zm-5 3h-4v12h4V4zm-5 3h-4v9h4V7zm-11.497.955c1.98 0 3.586-1.557 3.586-3.477C10.09 2.557 8.484 1 6.503 1c-1.98 0-3.586 1.557-3.586 3.478 0 1.92 1.605 3.477 3.586 3.477zm0 1.739C2.911 9.694 0 12.517 0 16h13c0-3.483-2.91-6.306-6.497-6.306z" fill="#999"/><path d="M6.503 25.955c1.98 0 3.586-1.557 3.586-3.477C10.09 20.557 8.484 19 6.503 19c-1.98 0-3.586 1.557-3.586 3.478 0 1.92 1.605 3.477 3.586 3.477zm0 2C2.911 27.955 0 30.778 0 34.261h13c0-3.483-2.91-6.306-6.497-6.306z" fill="#FDCD39"/></svg>