<svg width="20" height="18" fill="none" xmlns="http://www.w3.org/2000/svg"><path d="M.74 1.467h2.12L5.882 12.3a.74.74 0 0 0 .714.54h9.286a.744.744 0 0 0 .679-.44l3.378-7.704a.74.74 0 0 0-.679-1.031H9.003a.74.74 0 0 0-.74.734c0 .4.33.733.74.733h9.13l-2.739 6.236H7.153L4.132.535A.74.74 0 0 0 3.418 0H.74C.33 0 0 .328 0 .734a.74.74 0 0 0 .74.733zM5.895 18a1.67 1.67 0 0 0 1.676-1.662c0-.914-.749-1.665-1.676-1.665a1.67 1.67 0 0 0-1.676 1.661c0 .915.753 1.666 1.676 1.666zm10.488 0h.121a1.707 1.707 0 0 0 1.15-.574 1.66 1.66 0 0 0 .409-1.208c-.061-.907-.862-1.601-1.79-1.54a1.669 1.669 0 0 0-1.554 1.773A1.668 1.668 0 0 0 16.383 18z" fill="#fff"/></svg>