<svg width="20" height="17" fill="none" xmlns="http://www.w3.org/2000/svg"><path d="M10.005 16.525L10 17l.001-.478.004.003zm-.297-.253l.266.227a.723.723 0 0 1-.428-.16 125.51 125.51 0 0 0-1.174-.976l-.01-.008c-.381-.315-.745-.615-1.084-.902l-.01-.009-.01-.008a40.97 40.97 0 0 1-4.908-4.398h0l-.004-.004A6.473 6.473 0 0 1 .501 5.73 5.301 5.301 0 0 1 1.95 2.008 4.942 4.942 0 0 1 3.602.886 5.05 5.05 0 0 1 5.583.5h.008a4.678 4.678 0 0 1 2.838.933h0l.005.003c.45.33.851.721 1.189 1.16l.396.517.397-.516c.338-.44.738-.83 1.189-1.16h0l.005-.004A4.678 4.678 0 0 1 14.413.5h.004a5.054 5.054 0 0 1 1.981.386 4.94 4.94 0 0 1 1.652 1.122A5.301 5.301 0 0 1 19.5 5.73a6.473 6.473 0 0 1-1.84 4.317h0l-.004.004a40.968 40.968 0 0 1-4.907 4.398l-.007.005-.006.005a105.65 105.65 0 0 0-2.28 1.89.722.722 0 0 1-.37.147l.266-.22a517.25 517.25 0 0 1 2.28-1.88 41.4 41.4 0 0 0 4.874-4.357 6.36 6.36 0 0 0 1.851-4.274h0v-.008a5.232 5.232 0 0 0-1.425-3.669h0l-.005-.005a4.76 4.76 0 0 0-1.6-1.087 4.848 4.848 0 0 0-1.903-.369 4.485 4.485 0 0 0-2.725.9l-.002.002c-.59.45-1.09 1-1.477 1.627h0l-.004.007a.209.209 0 0 1-.08.076.23.23 0 0 1-.118.027H9.99a.25.25 0 0 1-.124-.03.228.228 0 0 1-.085-.08A5.895 5.895 0 0 0 8.309 1.53h0a4.485 4.485 0 0 0-2.72-.91 4.849 4.849 0 0 0-1.904.37 4.76 4.76 0 0 0-1.599 1.087h0l-.005.005A5.233 5.233 0 0 0 .656 5.751h0v.006a6.33 6.33 0 0 0 1.852 4.277 41.408 41.408 0 0 0 4.926 4.363l.153.124c.651.528 1.375 1.116 2.121 1.751z" fill="#fff" stroke="#2C77BB"/></svg>