<svg width="16" height="16" fill="none" xmlns="http://www.w3.org/2000/svg"><path fill-rule="evenodd" clip-rule="evenodd" d="M12.5 1.5h2.167c.736 0 1.333.596 1.333 1.333v11.833c0 .737-.597 1.334-1.333 1.334H1.333A1.333 1.333 0 0 1 0 14.666V2.833C0 2.096.597 1.5 1.333 1.5H3.5v-1a.5.5 0 1 1 1 0v1h3v-1a.5.5 0 1 1 1 0v1h3v-1a.5.5 0 1 1 1 0v1zM1 7v7.666c0 .184.15.334.333.334h13.334c.184 0 .333-.15.333-.334V7H1zm14-1H1V2.833c0-.183.15-.333.333-.333H3.5v1a.5.5 0 1 0 1 0v-1h3v1a.5.5 0 1 0 1 0v-1h3v1a.5.5 0 1 0 1 0v-1h2.167c.184 0 .333.15.333.333V6z" fill="#9DB2C6"/></svg>