<svg width="20" height="20" viewBox="0 0 31 27" fill="none" xmlns="http://www.w3.org/2000/svg"><g clip-path="url(#clip0)"><path d="M15.5 26.76a1.87 1.87 0 0 1-1.2-.44c-1.25-1.08-2.46-2.08-3.52-3a64.837 64.837 0 0 1-7.7-7.07A11.21 11.21 0 0 1 0 8.88 9.34 9.34 0 0 1 2.46 2.4a8.43 8.43 0 0 1 6.2-2.64 7.9 7.9 0 0 1 4.87 1.64 9.998 9.998 0 0 1 2 2 9.998 9.998 0 0 1 2-2 7.9 7.9 0 0 1 4.81-1.64 8.43 8.43 0 0 1 6.2 2.64A9.34 9.34 0 0 1 31 8.88a11.21 11.21 0 0 1-3.07 7.39 64.834 64.834 0 0 1-7.7 7.07c-1.07.89-2.28 1.9-3.53 3a1.87 1.87 0 0 1-1.2.42zM8.66 1.54a6.6 6.6 0 0 0-4.87 2.07 7.62 7.62 0 0 0-2 5.27 9.37 9.37 0 0 0 2.65 6.26A63.938 63.938 0 0 0 12 22c1.07.89 2.29 1.9 3.55 3 1.27-1.08 2.48-2.1 3.55-3a63.94 63.94 0 0 0 7.48-6.85 9.42 9.42 0 0 0 2.65-6.26 7.62 7.62 0 0 0-2-5.27 6.6 6.6 0 0 0-4.87-2.07 6.08 6.08 0 0 0-3.76 1.27 8.72 8.72 0 0 0-2.1 2.37 1.11 1.11 0 0 1-1 .55 1.14 1.14 0 0 1-1-.55 8.5 8.5 0 0 0-2.09-2.37 6.08 6.08 0 0 0-3.75-1.28z" fill="#F2F2F2"/></g><defs><clipPath id="clip0"><path fill="#fff" d="M0 0h31v27H0z"/></clipPath></defs></svg>