<svg width="20" height="20" fill="none" xmlns="http://www.w3.org/2000/svg"><g clip-path="url(#clip0)"><path d="M18.413 2.839a5.45 5.45 0 0 0-4-1.704 5.097 5.097 0 0 0-3.103 1.059 6.45 6.45 0 0 0-1.29 1.29 6.453 6.453 0 0 0-1.291-1.29 5.161 5.161 0 0 0-3.142-1.059 5.452 5.452 0 0 0-4 1.704A6.02 6.02 0 0 0 0 7.019a7.239 7.239 0 0 0 1.987 4.755 42.11 42.11 0 0 0 4.968 4.562c.684.593 1.464 1.238 2.27 1.935a1.22 1.22 0 0 0 1.55.013c.806-.71 1.586-1.361 2.277-1.936a42.113 42.113 0 0 0 4.967-4.56A7.22 7.22 0 0 0 20 7.018a6.02 6.02 0 0 0-1.587-4.18z" fill="#fff"/></g><defs><clipPath id="clip0"><path fill="#fff" d="M0 0h20v20H0z"/></clipPath></defs></svg>