<svg width="20" height="17" fill="none" xmlns="http://www.w3.org/2000/svg"><path d="M10.005 16.5h-.004a.724.724 0 0 1-.455-.162c-.402-.338-.797-.664-1.174-.976l-.01-.007c-.381-.315-.745-.615-1.084-.902l-.01-.009-.01-.008a40.97 40.97 0 0 1-4.908-4.398h0l-.004-.004A6.473 6.473 0 0 1 .501 5.73 5.301 5.301 0 0 1 1.95 2.008 4.942 4.942 0 0 1 3.602.886 5.05 5.05 0 0 1 5.583.5h.008a4.678 4.678 0 0 1 2.838.932h0l.005.004c.45.33.851.721 1.189 1.16l.396.517.397-.516c.338-.44.738-.83 1.189-1.16h0l.005-.004A4.678 4.678 0 0 1 14.413.5h.004a5.054 5.054 0 0 1 1.981.386 4.94 4.94 0 0 1 1.652 1.122A5.3 5.3 0 0 1 19.5 5.73a6.472 6.472 0 0 1-1.84 4.316h0l-.004.004a40.952 40.952 0 0 1-4.907 4.398l-.007.005-.006.004a108.92 108.92 0 0 0-2.28 1.891.725.725 0 0 1-.451.15z" fill="#2C77BB" stroke="#2C77BB"/></svg>