<svg width="29" height="37" fill="none" xmlns="http://www.w3.org/2000/svg"><path d="M14.016 0C6.276.008.004 6.283 0 14.023c0 7.53 12.927 22.124 13.475 22.737a.722.722 0 0 0 1.075 0c.548-.62 13.474-15.206 13.474-22.737C28.02 6.286 21.754.012 14.016 0zm0 35.18C11.549 32.295 1.443 20.183 1.443 14.016c0-6.944 5.629-12.573 12.573-12.573 6.944 0 12.573 5.629 12.573 12.573 0 6.167-10.106 18.293-12.573 21.164z" fill="#2C77BB"/><path d="M14.268 7.033a7.596 7.596 0 1 0 7.603 7.596 7.61 7.61 0 0 0-7.603-7.596zm0 13.756a6.153 6.153 0 1 1 6.153-6.153 6.16 6.16 0 0 1-6.153 6.153z" fill="#2C77BB"/></svg>