<svg width="36" height="57" fill="none" xmlns="http://www.w3.org/2000/svg"><path d="M17.69 0C7.936 0 0 7.936 0 17.69v.127c0 4.726 1.84 9.168 5.181 12.51l1.521 1.521a34.236 34.236 0 0 1 9.694 19.13c.1.642.643 1.11 1.293 1.11a1.3 1.3 0 0 0 1.292-1.11 34.247 34.247 0 0 1 9.694-19.13l1.521-1.521a17.575 17.575 0 0 0 5.181-12.51v-.127C35.38 7.936 27.443 0 17.69 0zm-2.95 35.38h-1.965v-1.966h1.965v1.965zm3.931 0h-1.965v-1.966h1.965v1.965zm3.931 0h-1.965v-1.966h1.965v1.965zm-4.913-3.932c-7.588 0-13.759-6.171-13.759-13.758 0-7.588 6.171-13.759 13.759-13.759 7.587 0 13.758 6.171 13.758 13.759 0 7.587-6.171 13.758-13.758 13.758z" fill="#364859"/><path d="M31 17.5C31 24.956 24.956 31 17.5 31S4 24.956 4 17.5 10.044 4 17.5 4 31 10.044 31 17.5z" fill="#364859" stroke="#fff" stroke-width="2"/><path d="M22.29 45.746c-.21.622-.394 1.253-.566 1.889 2.818.69 4.81 2.078 4.81 3.468 0 1.86-3.632 3.931-8.845 3.931-5.213 0-8.845-2.071-8.845-3.93 0-1.391 1.992-2.78 4.812-3.468a31.472 31.472 0 0 0-.568-1.89c-3.774.938-6.21 2.987-6.21 5.357C6.879 54.41 11.629 57 17.69 57c6.062 0 10.81-2.59 10.81-5.897 0-2.37-2.435-4.418-6.208-5.357z" fill="#364859"/><path d="M9.235 13.888h17.206c-.03-.118-.03-.22-.059-.28-.837-1.44-1.675-2.88-2.542-4.29-.102-.176-.44-.308-.66-.308a860.896 860.896 0 0 0-10.668.014c-.264 0-.632.206-.779.441-.705 1.132-1.337 2.278-1.998 3.424-.162.294-.309.617-.5.999zm1.969 3.526c.588-.161 1.087-.294 1.69-.455v3.6c0 .837.147.999.984.999h7.92c.823 0 .97-.133.97-1v-3.643c.573.161 1.087.308 1.704.5v5.524c0 .955-.206 1.175-1.16 1.175h-7.773c-1.102 0-2.204.015-3.306 0-.809-.014-1.043-.25-1.043-1.058 0-1.895.014-3.776.014-5.642z" fill="#fff"/><path d="M26.676 14.608c-.103 1.043-.705 1.69-1.69 1.895-1.072.22-1.954-.235-2.689-1.44-.5.897-1.175 1.499-2.233 1.484-1.029-.014-1.72-.573-2.175-1.484-1.102 1.999-3.438 1.94-4.452 0-.573 1.102-1.425 1.675-2.674 1.41-1.043-.22-1.66-.895-1.763-1.865h17.676zm-7.523 6.068c-.06-.044-.206-.103-.235-.19-.03-.09.014-.265.073-.31.955-.631 1.925-1.248 2.895-1.865.058-.045.293.029.308.088.044.117.044.338-.03.396-.925.632-1.88 1.235-2.82 1.837-.044.015-.103.015-.191.044zm1.132.47c-.133-.132-.25-.205-.265-.308-.014-.103.015-.265.088-.309a26.814 26.814 0 0 1 1.602-1.028c.088-.06.264.014.382.058.044.03.074.22.044.25-.602.441-1.22.882-1.851 1.337z" fill="#fff"/></svg>