<svg width="36" height="57" fill="none" xmlns="http://www.w3.org/2000/svg"><path d="M17.69 0C7.936 0 0 7.936 0 17.69v.127c0 4.726 1.84 9.168 5.181 12.51l1.521 1.522a34.236 34.236 0 0 1 9.694 19.129c.1.642.643 1.11 1.293 1.11a1.3 1.3 0 0 0 1.292-1.11 34.247 34.247 0 0 1 9.694-19.13l1.521-1.521a17.576 17.576 0 0 0 5.181-12.51v-.127C35.38 7.936 27.443 0 17.69 0zm-2.95 35.38h-1.965v-1.966h1.965v1.965zm3.931 0h-1.965v-1.966h1.965v1.965zm3.931 0h-1.965v-1.966h1.965v1.965zm-4.913-3.932c-7.588 0-13.759-6.171-13.759-13.758 0-7.587 6.171-13.759 13.759-13.759 7.587 0 13.758 6.172 13.758 13.759 0 7.587-6.171 13.758-13.758 13.758z" fill="#364859"/><path d="M31 17.5C31 24.956 24.956 31 17.5 31S4 24.956 4 17.5 10.044 4 17.5 4 31 10.044 31 17.5z" fill="#364859" stroke="#fff" stroke-width="2"/><path d="M22.29 45.746a31.97 31.97 0 0 0-.566 1.889c2.818.69 4.81 2.078 4.81 3.469 0 1.859-3.632 3.93-8.845 3.93-5.213 0-8.845-2.071-8.845-3.93 0-1.391 1.992-2.78 4.812-3.468a31.49 31.49 0 0 0-.568-1.89c-3.774.938-6.21 2.987-6.21 5.358 0 3.305 4.75 5.896 10.811 5.896 6.062 0 10.81-2.59 10.81-5.896 0-2.37-2.435-4.419-6.208-5.358z" fill="#364859"/><path d="M25.082 17.984v5.256c0 .567-.056.615-.63.615h-1.335c-.55 0-.614-.056-.614-.59v-5.823c0-.816.008-1.633 0-2.458 0-.445-.114-.558-.55-.558h-8.807c-.469 0-.566.113-.566.623v8.16c0 .598-.049.646-.639.646h-1.375c-.493 0-.566-.073-.566-.558V15.98c.008-1.084.017-2.16 0-3.235-.008-.412.138-.671.502-.881a741.4 741.4 0 0 0 6.493-3.696c.38-.219.704-.227 1.092 0a646.574 646.574 0 0 0 6.526 3.72c.332.186.477.428.477.808-.016 1.763-.008 3.526-.008 5.29z" fill="#fff"/><path d="M17.529 21.21h-.768c-.292 0-.453-.129-.445-.436.008-.485.008-.97 0-1.448 0-.282.137-.428.412-.428.526-.008 1.051 0 1.569 0 .275 0 .429.13.429.412v1.488c0 .292-.162.413-.429.413h-.768zm.017.373c1.326.008 1.172-.154 1.18 1.18.008 1.238.105 1.124-1.124 1.124h-.849c-.275 0-.428-.12-.437-.404v-1.488c0-.283.138-.42.429-.412h.8zm-1.675-1.529v.607c-.008.469-.072.55-.525.55-.47.008-.938 0-1.407 0-.307 0-.47-.13-.461-.461.016-.47.016-.938 0-1.407-.008-.308.137-.445.428-.445h1.529c.291 0 .453.13.436.437-.008.234 0 .477 0 .72zm-1.237-3.874c1.197-.12 1.237-.088 1.237 1.093v.808c0 .259-.121.396-.396.396h-1.617c-.275 0-.38-.145-.388-.404 0-.501-.017-.995-.025-1.496 0-.275.105-.429.413-.404.267.024.525.008.776.008zm.024 7.716c-1.342-.009-1.18.12-1.18-1.19 0-1.26-.13-1.115 1.116-1.123h.89c.258 0 .396.13.396.396v1.488c0 .307-.162.429-.453.429-.26-.009-.518 0-.769 0zm5.718-2.313h.808c.308-.008.437.145.429.445-.008.485 0 .962 0 1.447 0 .283-.145.42-.42.42h-1.57c-.29 0-.412-.153-.412-.428 0-.485.008-.97 0-1.448-.008-.307.138-.444.437-.436.25.008.485 0 .728 0z" fill="#fff"/></svg>