<svg width="14" height="14" fill="none" xmlns="http://www.w3.org/2000/svg"><path d="M7.363 3.3c.955 0 1.729-.738 1.729-1.65C9.092.74 8.318 0 7.362 0c-.954 0-1.728.739-1.728 1.65 0 .912.774 1.65 1.729 1.65zM7.362 14c.555 0 1.004-.429 1.004-.958 0-.53-.45-.958-1.004-.958s-1.004.429-1.004.958c0 .529.45.958 1.004.958zM3.123 4.79c.863 0 1.562-.666 1.562-1.49 0-.823-.7-1.49-1.562-1.49-.862 0-1.561.667-1.561 1.49 0 .824.699 1.49 1.561 1.49zm8.423 7.4c.462 0 .836-.357.836-.798 0-.441-.374-.799-.836-.799-.462 0-.837.358-.837.799 0 .44.375.798.837.798zM1.394 8.677c.77 0 1.395-.596 1.395-1.331s-.624-1.33-1.395-1.33C.624 6.015 0 6.61 0 7.345s.624 1.33 1.394 1.33zm11.936-.692c.37 0 .67-.286.67-.639 0-.353-.3-.639-.67-.639-.37 0-.669.286-.669.639 0 .353.3.639.67.639zM2.287 10.54a1.12 1.12 0 0 0 0 1.597c.446.426 1.227.426 1.673 0a1.12 1.12 0 0 0 0-1.597c-.446-.426-1.227-.426-1.673 0zm9.259-6.76a.49.49 0 0 0 .502-.48.49.49 0 0 0-.502-.479.491.491 0 0 0-.502.48.49.49 0 0 0 .502.478z" fill="#0090FF"/></svg>