<svg width="100" height="100" fill="none" xmlns="http://www.w3.org/2000/svg"><path d="M50 100c27.614 0 50-22.386 50-50S77.614 0 50 0 0 22.386 0 50s22.386 50 50 50z" fill="#D8F3FF"/><path d="M50 100C22.386 100 0 77.614 0 50S22.386 0 50 0s50 22.386 50 50c-.03 27.601-22.399 49.97-50 50zm0-96.154C24.51 3.846 3.846 24.51 3.846 50 3.846 75.49 24.51 96.154 50 96.154c25.49 0 46.154-20.664 46.154-46.154C96.124 24.522 75.478 3.875 50 3.846z" fill="#2C77BB"/><path d="M44.23 67.308a1.92 1.92 0 0 1-1.2-.421L23.8 51.502a1.923 1.923 0 0 1 2.401-3.005l17.806 14.245 29.556-33.25a1.923 1.923 0 1 1 2.875 2.554l-30.77 34.616a1.92 1.92 0 0 1-1.438.646z" fill="#2C77BB"/></svg>