<svg width="28" height="28" fill="none" xmlns="http://www.w3.org/2000/svg"><path d="M26.882 8.55c-1.476-3.441-3.984-5.945-7.455-7.425a13.76 13.76 0 0 0-5.45-1.117c-1.898 0-3.702.374-5.435 1.117-3.441 1.477-5.96 3.978-7.44 7.425A13.624 13.624 0 0 0 0 13.985a13.7 13.7 0 0 0 1.102 5.45c1.48 3.447 4 5.964 7.44 7.44a13.62 13.62 0 0 0 5.435 1.117c1.898 0 3.716-.378 5.45-1.117 3.47-1.48 5.979-3.999 7.455-7.44A13.694 13.694 0 0 0 28 13.985c0-1.899-.374-3.702-1.118-5.435zm-2.235 11.62a12.283 12.283 0 0 1-4.5 4.485c-1.885 1.1-3.95 1.653-6.17 1.653-1.668 0-3.26-.32-4.776-.98-1.516-.657-2.825-1.523-3.92-2.617-1.094-1.095-1.965-2.416-2.617-3.934a12.053 12.053 0 0 1-.964-4.792c0-2.22.545-4.275 1.638-6.154a12.289 12.289 0 0 1 4.485-4.486c1.883-1.102 3.934-1.653 6.154-1.653 2.22 0 4.285.554 6.17 1.653a12.32 12.32 0 0 1 4.5 4.486c1.102 1.882 1.653 3.934 1.653 6.154 0 2.22-.547 4.288-1.652 6.185z" fill="#2C77BB"/><path d="M14.865 13.862v-7.93c0-.474-.414-.857-.888-.857a.863.863 0 0 0-.842.857v8.053c0 .015.03.076.03.122a.8.8 0 0 0 .23.69l4.578 4.576c.306.307.872.307 1.178 0a.826.826 0 0 0 0-1.194l-4.286-4.317z" fill="#2C77BB"/></svg>