<svg width="52" height="52" viewBox="0 0 52 52" fill="none" xmlns="http://www.w3.org/2000/svg">
<path d="M26 0C11.7 0 0 11.7 0 26C0 40.3 11.7 52 26 52C40.3 52 52 40.3 52 26C52 11.7 40.3 0 26 0ZM26 50C12.8 50 2 39.2 2 26C2 12.8 12.8 2 26 2C39.2 2 50 12.8 50 26C50 39.2 39.2 50 26 50Z" fill="#ED0035"/>
<path d="M38.3001 15.3L22.9001 32.6L13.6001 25.2C13.2001 24.9 12.5001 24.9 12.2001 25.4C11.9001 25.8 11.9001 26.5 12.4001 26.8L22.4001 34.8C22.6001 34.9 22.8001 35 23.0001 35C23.3001 35 23.6001 34.9 23.7001 34.7L39.7001 16.7C40.1001 16.3 40.0001 15.7 39.6001 15.3C39.3001 14.9 38.6001 14.9 38.3001 15.3Z" fill="#ED0035"/>
</svg>
