<svg width="30" height="30" viewBox="0 0 30 30" fill="none" xmlns="http://www.w3.org/2000/svg">
<path d="M23.5373 15.2288C23.3342 15.2288 23.1375 15.3113 22.998 15.4509C22.8584 15.5906 22.7759 15.7874 22.7759 15.9905C22.7759 16.1937 22.8584 16.3905 22.998 16.5301C23.1375 16.6698 23.3342 16.7523 23.5373 16.7523C23.7403 16.7523 23.937 16.6698 24.0766 16.5301C24.2162 16.3905 24.2987 16.1937 24.2987 15.9905C24.2987 15.7874 24.2162 15.5906 24.0766 15.4509C23.9307 15.3049 23.734 15.2288 23.5373 15.2288Z" fill="#01009A"/>
<path d="M16.408 6.35239C16.3191 6.76502 16.5856 7.16494 16.998 7.25382C17.0488 7.26651 17.1059 7.27286 17.1567 7.27286C17.512 7.27286 17.8229 7.02529 17.899 6.6698C17.9878 6.25717 17.7214 5.85725 17.3089 5.76837C16.8965 5.6795 16.4968 5.93977 16.408 6.35239Z" fill="#01009A"/>
<path d="M21.8441 9.32171C21.4951 9.55659 21.4063 10.0327 21.6411 10.3818C21.787 10.5977 22.0281 10.7183 22.2756 10.7183C22.4215 10.7183 22.5674 10.6739 22.7007 10.585C23.0496 10.3501 23.1385 9.874 22.9037 9.52485C22.6626 9.18206 22.1931 9.08684 21.8441 9.32171Z" fill="#01009A"/>
<path d="M19.415 7.30408C19.1802 7.65322 19.2691 8.12933 19.618 8.3642C19.7513 8.45308 19.8972 8.49117 20.0431 8.49117C20.2906 8.49117 20.5254 8.3769 20.6776 8.15472C20.9124 7.80558 20.8236 7.32947 20.4746 7.09459C20.1256 6.86606 19.6498 6.95494 19.415 7.30408Z" fill="#01009A"/>
<path d="M22.7445 13.0021C22.8206 13.364 23.1379 13.6052 23.4869 13.6052C23.5376 13.6052 23.5884 13.5989 23.6455 13.5862C24.0579 13.4973 24.3244 13.0974 24.2356 12.6847C24.1467 12.2721 23.747 12.0055 23.3346 12.0944C22.9222 12.1896 22.6557 12.5895 22.7445 13.0021Z" fill="#01009A"/>
<path d="M14.012 5.69861C13.809 5.69861 13.6123 5.78113 13.4727 5.92079C13.3331 6.06045 13.2506 6.25724 13.2506 6.46037C13.2506 6.66351 13.3331 6.8603 13.4727 6.99996C13.6123 7.13962 13.809 7.22214 14.012 7.22214C14.215 7.22214 14.4117 7.13962 14.5513 6.99996C14.6909 6.8603 14.7734 6.66351 14.7734 6.46037C14.7734 6.25724 14.6909 6.06045 14.5513 5.92079C14.4117 5.78113 14.215 5.69861 14.012 5.69861Z" fill="#01009A"/>
<path d="M29.042 15.4128C28.839 15.4128 28.6423 15.4954 28.5027 15.635C28.3631 15.7747 28.2806 15.9715 28.2806 16.1746C28.2806 16.3777 28.3631 16.5745 28.5027 16.7142C28.6423 16.8539 28.839 16.9364 29.042 16.9364C29.2451 16.9364 29.4418 16.8539 29.5813 16.7142C29.7209 16.5745 29.8034 16.3777 29.8034 16.1746C29.8034 15.9715 29.7209 15.7747 29.5813 15.635C29.4354 15.489 29.2387 15.4128 29.042 15.4128Z" fill="#01009A"/>
<path d="M28.5408 7.64669C28.3505 7.27216 27.8936 7.1198 27.5193 7.3039C27.1449 7.49434 26.9927 7.9514 27.1767 8.32593C27.3099 8.59255 27.5764 8.74491 27.8556 8.74491C27.9698 8.74491 28.084 8.71951 28.1982 8.66238C28.5789 8.47829 28.7312 8.02123 28.5408 7.64669Z" fill="#01009A"/>
<path d="M21.6794 2.81864C21.7872 2.87578 21.9078 2.90117 22.022 2.90117C22.3012 2.90117 22.5676 2.74882 22.7009 2.4822C22.8912 2.10766 22.739 1.6506 22.3583 1.46016C21.9839 1.26972 21.5271 1.42207 21.3367 1.80296C21.1527 2.17114 21.2987 2.6282 21.6794 2.81864Z" fill="#01009A"/>
<path d="M16.5994 1.52432C16.6121 1.52432 16.6184 1.52432 16.6248 1.52432C17.0309 1.52432 17.3735 1.20057 17.3862 0.787943C17.3989 0.368971 17.0753 0.0134805 16.6502 0.000784441C16.2314 -0.0182597 15.8761 0.311839 15.8634 0.73081C15.8507 1.14978 16.1806 1.50527 16.5994 1.52432Z" fill="#01009A"/>
<path d="M19.2058 1.89862C19.2692 1.91766 19.3327 1.92401 19.3961 1.92401C19.7387 1.92401 20.0433 1.69548 20.1321 1.35269C20.2336 0.946412 19.9925 0.52744 19.5801 0.425872C19.174 0.324303 18.7553 0.565529 18.6538 0.978152C18.5522 1.37808 18.7997 1.7907 19.2058 1.89862Z" fill="#01009A"/>
<path d="M26.9432 5.15309C26.6767 4.82299 26.2009 4.77221 25.8709 5.03882C25.5473 5.30544 25.4902 5.78155 25.7567 6.11164C25.909 6.29574 26.1247 6.39731 26.3468 6.39731C26.5181 6.39731 26.6831 6.34017 26.8227 6.22591C27.1526 5.95929 27.2033 5.48319 26.9432 5.15309Z" fill="#01009A"/>
<path d="M28.4769 13.4081C28.4895 13.8207 28.8322 14.1445 29.2382 14.1445C29.2446 14.1445 29.2573 14.1445 29.2636 14.1445C29.6824 14.1318 30.0123 13.7763 29.9996 13.3573C29.9869 12.9384 29.6316 12.6083 29.2129 12.621C28.7878 12.6337 28.4578 12.9828 28.4769 13.4081Z" fill="#01009A"/>
<path d="M28.8393 11.3718C28.9028 11.3718 28.9662 11.3654 29.0297 11.3464C29.4358 11.2448 29.6832 10.8258 29.5817 10.4195C29.4802 10.0133 29.0614 9.7657 28.6553 9.86727C28.2493 9.96884 28.0018 10.3878 28.1033 10.7941C28.1858 11.1432 28.4967 11.3718 28.8393 11.3718Z" fill="#01009A"/>
<path d="M23.8925 4.2463C24.0321 4.36056 24.2034 4.41769 24.3684 4.41769C24.5905 4.41769 24.8125 4.32247 24.9585 4.13203C25.225 3.80193 25.1742 3.32583 24.8443 3.05921C24.5143 2.79259 24.0385 2.84338 23.772 3.17347C23.5118 3.50357 23.5626 3.97968 23.8925 4.2463Z" fill="#01009A"/>
<path d="M13.8346 1.71469C14.0377 1.71469 14.2344 1.63217 14.3739 1.49251C14.5135 1.35286 14.596 1.15607 14.596 0.952928C14.596 0.749791 14.5135 0.553001 14.3739 0.413344C14.2344 0.273687 14.0377 0.191162 13.8346 0.191162C13.6316 0.191162 13.4349 0.273687 13.2953 0.413344C13.1557 0.553001 13.0732 0.749791 13.0732 0.952928C13.0732 1.15607 13.1557 1.35286 13.2953 1.49251C13.4349 1.63852 13.6316 1.71469 13.8346 1.71469Z" fill="#01009A"/>
<path d="M21.6217 19.6386C21.051 19.0739 20.3724 18.7694 19.6684 18.7694C18.9645 18.7694 18.2922 19.0676 17.7215 19.6323L17.5693 19.7782C17.0112 20.3302 16.4404 20.8949 15.8823 21.4723C15.7745 21.4152 15.6731 21.3645 15.5652 21.3137C15.3052 21.1868 15.0642 21.0662 14.8423 20.9267C13.149 19.8607 11.5889 18.4394 10.0795 16.5867C9.35655 15.6984 8.8492 14.9052 8.49406 14.1121C8.98872 13.6362 9.47071 13.1413 9.94635 12.6655L10.3142 12.2974C11.5128 11.0919 11.5064 9.53737 10.3078 8.32547C9.94635 7.9638 9.57852 7.59579 9.22337 7.24047C9.06483 7.08185 8.90628 6.92322 8.75408 6.77094C8.58919 6.60597 8.41796 6.43466 8.25307 6.26969C7.89158 5.90802 7.52375 5.53367 7.14958 5.16566C6.57881 4.60095 5.90024 4.30273 5.19629 4.30273C4.49234 4.30273 3.8201 4.60095 3.24933 5.16566C2.97663 5.43215 2.71028 5.70498 2.44392 5.97147C2.06341 6.35852 1.67021 6.75825 1.27067 7.13261C0.522331 7.84325 0.103768 8.74424 0.0213236 9.80386C-0.105514 11.4663 0.357443 12.97 0.776006 14.0931C1.72094 16.6311 3.16055 19.0358 5.17726 21.4406C7.69498 24.4355 10.7264 26.8085 14.1891 28.4963C16.098 29.4226 17.7342 29.8985 19.3323 29.9873C19.4528 29.9937 19.567 30 19.6811 30C21.0383 30 22.1544 29.5241 22.9979 28.5787C23.3594 28.179 23.7399 27.8047 24.1521 27.4049C24.3551 27.2019 24.5707 26.9988 24.78 26.7894C25.9722 25.5839 25.9786 24.0294 24.7927 22.8365C23.7336 21.7388 22.6618 20.6665 21.6217 19.6386ZM23.7145 25.6981C23.5179 25.9011 23.3087 26.0978 23.1057 26.2945C22.6998 26.6943 22.2749 27.1004 21.8817 27.5445C21.2729 28.2234 20.5056 28.5089 19.4401 28.4518C18.0513 28.3757 16.599 27.9506 14.8803 27.113C11.6079 25.5204 8.74773 23.2807 6.36953 20.4508C4.46063 18.1793 3.10981 15.9268 2.22829 13.5538C1.68924 12.1008 1.48629 10.9777 1.5624 9.91172C1.61313 9.22012 1.86047 8.68714 2.34245 8.23029C2.75467 7.8369 3.15421 7.43082 3.5474 7.03743C3.80742 6.77729 4.07378 6.50445 4.33379 6.25065C4.53039 6.0603 4.84114 5.82554 5.21531 5.82554C5.58948 5.82554 5.90024 6.05396 6.10318 6.25065C6.471 6.61232 6.83883 6.98033 7.19398 7.34199C7.36521 7.51331 7.5301 7.67828 7.70133 7.8496C7.85987 8.00822 8.01842 8.16685 8.17697 8.31913C8.53211 8.67445 8.89994 9.03611 9.25508 9.39778C9.8639 10.0132 9.87024 10.6097 9.26142 11.2251L8.8936 11.5995C8.3799 12.1198 7.84719 12.6528 7.31447 13.1667C7.04177 13.4332 6.76907 13.8837 7.04177 14.5309C7.45399 15.5271 8.05647 16.4852 8.92531 17.5575C10.5425 19.5434 12.2231 21.0726 14.0622 22.2274C14.3476 22.405 14.6393 22.551 14.9247 22.6906C15.0896 22.7731 15.2481 22.8492 15.4004 22.9317C15.597 23.0395 15.7935 23.0903 15.9901 23.0903C16.3072 23.0903 16.599 22.9571 16.8526 22.6906C17.4488 22.0751 18.0639 21.466 18.6664 20.8696L18.8186 20.7236C19.0152 20.5269 19.326 20.2985 19.6938 20.2985C20.0616 20.2985 20.3787 20.5333 20.5753 20.7236C21.609 21.7515 22.6808 22.8175 23.7526 23.8961C24.317 24.4862 24.317 25.0953 23.7145 25.6981Z" fill="#01009A"/>
</svg>
