<svg width="19" height="19" fill="none" xmlns="http://www.w3.org/2000/svg"><path d="M16.723 0H2.275A1.81 1.81 0 0 0 .47 1.806v14.448c0 .993.813 1.806 1.806 1.806h14.448c.993 0 1.806-.813 1.806-1.806V1.806A1.813 1.813 0 0 0 16.723 0zM9.499 5.418a3.622 3.622 0 0 1 3.612 3.612 3.623 3.623 0 0 1-3.612 3.612A3.623 3.623 0 0 1 5.887 9.03 3.623 3.623 0 0 1 9.5 5.418zM2.727 16.254c-.271 0-.452-.181-.452-.452V8.127h1.896c-.09.27-.09.632-.09.903 0 2.98 2.438 5.418 5.418 5.418s5.418-2.438 5.418-5.418c0-.271 0-.632-.09-.903h1.896v7.675c0 .271-.18.452-.452.452H2.727zm13.996-12.19c0 .27-.18.45-.452.45h-1.806c-.27 0-.451-.18-.451-.45V2.256c0-.27.18-.451.451-.451h1.806c.271 0 .452.18.452.451v1.806z" fill="#C5A26D"/></svg>