<svg width="23" height="19" fill="none" xmlns="http://www.w3.org/2000/svg"><path d="M23 2.143a9.161 9.161 0 0 1-2.627.721 4.594 4.594 0 0 0 2.01-2.53 9.223 9.223 0 0 1-2.906 1.111 4.575 4.575 0 0 0-7.796 4.171A12.99 12.99 0 0 1 2.25.836a4.54 4.54 0 0 0-.619 2.3c0 1.587.809 2.988 2.035 3.807a4.576 4.576 0 0 1-2.072-.574v.057a4.58 4.58 0 0 0 3.67 4.486c-.384.103-.788.16-1.206.16a4.46 4.46 0 0 1-.862-.084 4.578 4.578 0 0 0 4.273 3.177 9.18 9.18 0 0 1-5.682 1.955 9.79 9.79 0 0 1-1.09-.062 12.932 12.932 0 0 0 7.012 2.058c8.416 0 13.017-6.971 13.017-13.017l-.015-.592A9.137 9.137 0 0 0 23 2.143z" fill="#C5A26D"/></svg>