<svg width="24" height="24" viewBox="0 0 24 24" fill="none" xmlns="http://www.w3.org/2000/svg">
<g clip-path="url(#clip0)">
<path d="M23.6893 11.1588C23.4785 10.9102 18.4407 5.07959 12.0005 5.07959C5.56016 5.07959 0.522542 10.9102 0.31125 11.159C-0.103291 11.6464 -0.103291 12.3537 0.311494 12.8416C0.522542 13.0901 5.56016 18.9205 12.0005 18.9205C18.4407 18.9205 23.4785 13.0897 23.6896 12.8411C24.1041 12.3537 24.1041 11.6464 23.6893 11.1588ZM13.9677 8.58211C14.4008 8.34571 15.0047 8.61696 15.3164 9.18771C15.6281 9.75871 15.5296 10.4133 15.0966 10.6497C14.6637 10.8863 14.0596 10.6148 13.7476 10.0441C13.4362 9.47309 13.5344 8.8185 13.9677 8.58211ZM12.0005 16.8081C7.50175 16.8081 3.7158 13.3531 2.4054 12.0001C3.29029 11.0862 5.305 9.21476 7.90508 8.09567C7.39793 8.86724 7.10061 9.78918 7.10061 10.7815C7.10061 13.4876 9.2942 15.6812 12.0003 15.6812C14.7064 15.6812 16.9002 13.4876 16.9002 10.7815C16.9002 9.78918 16.6031 8.86724 16.096 8.09567C18.6961 9.21501 20.7105 11.0862 21.5954 12.0001C20.285 13.3538 16.4991 16.8081 12.0005 16.8081Z" fill="white" fill-opacity="0.75"/>
</g>
<defs>
<clipPath id="clip0">
<rect width="24" height="24" fill="white"/>
</clipPath>
</defs>
</svg>
