<svg width="18" height="15" viewBox="0 0 18 15" fill="none" xmlns="http://www.w3.org/2000/svg">
<path d="M16.5966 1.47348C15.6487 0.523324 14.3809 3.4442e-05 13.0266 3.4442e-05C11.6931 3.4442e-05 10.4393 0.509126 9.49616 1.43368L9.00939 1.91114L8.52216 1.43354C7.57905 0.509092 6.32552 0 4.99243 0C3.65892 0 2.40518 0.509092 1.46215 1.43354C0.519258 2.35775 0 3.58659 0 4.89373C0 6.20087 0.519258 7.42972 1.46215 8.35393L7.70175 14.4701C8.06221 14.8234 8.53555 15 9.009 15C9.48234 15 9.95579 14.8234 10.3161 14.4701L16.5156 8.39387C18.4627 6.48518 18.499 3.38076 16.5966 1.47348ZM15.8619 7.75317L9.66252 13.8295C9.30213 14.1827 8.71573 14.1827 8.35537 13.8295L2.11574 7.71319C1.34743 6.96012 0.924328 5.95882 0.924328 4.8937C0.924328 3.82858 1.34743 2.82728 2.11574 2.07417C2.88418 1.32089 3.90582 0.906048 4.99243 0.906048C6.07862 0.906048 7.10005 1.32089 7.86853 2.07417L8.35601 2.55201L7.60953 3.28427C7.42911 3.46126 7.42925 3.74808 7.60978 3.92493C7.70003 4.01333 7.81822 4.0575 7.93645 4.0575C8.05482 4.0575 8.17312 4.01319 8.26337 3.92469L10.1498 2.07414C10.9183 1.32085 11.9399 0.906013 13.0265 0.906013C14.13 0.906013 15.1631 1.3325 15.9356 2.10687C17.4858 3.66096 17.4527 6.19384 15.8619 7.75317Z" fill="white"/>
</svg>
