<svg width="30" height="25" viewBox="0 0 30 25" fill="none" xmlns="http://www.w3.org/2000/svg">
<path d="M27.6609 2.45574C26.0812 0.872146 23.9682 -3.63175e-06 21.711 -3.63175e-06C19.4885 -3.63175e-06 17.3989 0.848483 15.8269 2.38941L15.0156 3.18517L14.2036 2.38918C12.6318 0.848426 10.5425 -6.10352e-05 8.32072 -6.10352e-05C6.0982 -6.10352e-05 4.00863 0.848426 2.43691 2.38918C0.86543 3.92952 0 5.9776 0 8.15616C0 10.3347 0.86543 12.3828 2.43691 13.9231L12.8363 24.1168C13.437 24.7055 14.2259 24.9999 15.015 24.9999C15.8039 24.9999 16.593 24.7055 17.1936 24.1168L27.5259 13.9897C30.7712 10.8086 30.8317 5.63454 27.6609 2.45574Z" fill="#5FB46E"/>
</svg>
