<svg width="18" height="18" viewBox="0 0 18 18" fill="none" xmlns="http://www.w3.org/2000/svg">
<g clip-path="url(#clip0)">
<path d="M16.2562 8.92742C16.0155 8.92742 15.8203 9.12261 15.8203 9.36328V17.1284H11.1433V12.2539C11.1433 12.0133 10.9481 11.8181 10.7074 11.8181H7.29324C7.05258 11.8181 6.85739 12.0133 6.85739 12.2539V16.119C6.85739 16.3597 7.05258 16.5549 7.29324 16.5549C7.53391 16.5549 7.7291 16.3597 7.7291 16.119V12.6898H10.2716V17.1284H2.1803V6.46005L9.00027 0.99451L15.9835 6.59088C16.1714 6.74147 16.4457 6.7111 16.5962 6.52332C16.7467 6.33547 16.7165 6.06124 16.5286 5.91066L9.27282 0.095779C9.11359 -0.0319263 8.88694 -0.0319263 8.72771 0.095779L1.47189 5.91066C1.36867 5.9934 1.30859 6.11841 1.30859 6.25077V17.5642C1.30859 17.8048 1.50371 18 1.74445 18H16.2562C16.4969 18 16.692 17.8048 16.692 17.5642V9.36328C16.692 9.12254 16.4969 8.92742 16.2562 8.92742Z" fill="#5FB46E"/>
</g>
<defs>
<clipPath id="clip0">
<rect width="18" height="18" fill="white" transform="matrix(1 0 0 -1 0 18)"/>
</clipPath>
</defs>
</svg>
