<svg width="30" height="22" viewBox="0 0 30 22" fill="none" xmlns="http://www.w3.org/2000/svg">
<rect x="8.7002" y="3.93311" width="15.3" height="13.312" fill="white"/>
<path fill-rule="evenodd" clip-rule="evenodd" d="M29.3077 3.37455C28.9615 1.78424 27.6538 0.581818 26.0769 0.426667C22.3846 0 18.6154 0 14.9231 0C11.1923 0 7.46154 0 3.76923 0.426667C2.19231 0.581818 0.884615 1.78424 0.538462 3.37455C0 5.66303 0 8.14545 0 10.4727C0 12.8 0 15.3212 0.538462 17.5709C0.884615 19.1612 2.19231 20.3636 3.76923 20.5188C7.46154 20.9455 11.1923 20.9455 14.9231 20.9455C18.6538 20.9455 22.3846 20.9455 26.0769 20.5188C27.6538 20.3248 28.9231 19.1612 29.3077 17.5709C29.8462 15.2824 29.8462 12.8 29.8462 10.4727C29.8077 8.14545 29.8077 5.66303 29.3077 3.37455ZM11.0385 15.1273V5.19758C14.1923 6.86545 17.3462 8.49455 20.5 10.2012C17.3462 11.8303 14.2308 13.4982 11.0385 15.1273Z" fill="#F00000"/>
</svg>
