<svg width="18" height="35" viewBox="0 0 18 35" fill="none" xmlns="http://www.w3.org/2000/svg">
<path d="M0.564516 18.6431H4.40323V34.4355C4.40323 34.746 4.65726 35 4.96774 35H11.4738C11.7843 35 12.0383 34.746 12.0383 34.4355V18.7137H16.4556C16.7379 18.7137 16.9778 18.502 17.0202 18.2198L17.6835 12.4052C17.6976 12.25 17.6552 12.0806 17.5423 11.9677C17.4294 11.8548 17.2883 11.7843 17.1189 11.7843H12.0383V8.12903C12.0383 7.02823 12.631 6.47782 13.8024 6.47782H17.1189C17.4294 6.47782 17.6835 6.22379 17.6835 5.91331V0.564516C17.6835 0.254032 17.4294 0 17.1189 0H12.5323C12.504 0 12.4335 0 12.3206 0C11.5302 0 8.76411 0.155242 6.59073 2.15927C4.17742 4.38911 4.51613 7.04234 4.58669 7.50806V11.7702H0.564516C0.254032 11.7702 0 12.0242 0 12.3347V18.0786C0 18.3891 0.254032 18.6431 0.564516 18.6431Z" fill="#C6C6C6"/>
</svg>
