<svg width="35" height="35" viewBox="0 0 35 35" fill="none" xmlns="http://www.w3.org/2000/svg">
<path d="M17.4869 11.5891C14.2274 11.5891 11.5889 14.2276 11.5889 17.4871C11.5889 20.7465 14.2274 23.4109 17.4869 23.4109C20.7463 23.4109 23.3849 20.7723 23.3849 17.5129C23.4107 14.2276 20.7463 11.5891 17.4869 11.5891Z" fill="#96C93D"/>
<path d="M25.3252 0H9.64893C4.32003 0 0 4.32003 0 9.64893V25.3252C0 30.6541 4.32003 34.9741 9.64893 34.9741H25.3252C30.6541 34.9741 34.9741 30.6541 34.9741 25.3252V9.64893C34.9741 4.32003 30.6541 0 25.3252 0ZM17.4871 26.5152C12.5203 26.5152 8.48485 22.4797 8.48485 17.5129C8.48485 12.5462 12.5203 8.51072 17.4871 8.51072C22.4538 8.51072 26.4893 12.5462 26.4893 17.5129C26.5152 22.4797 22.4797 26.5152 17.4871 26.5152ZM28.507 9.72653C27.6275 10.6061 26.1789 10.6061 25.2993 9.72653C24.4198 8.84701 24.4198 7.39837 25.2993 6.51885C26.1789 5.63932 27.6275 5.63932 28.507 6.51885C28.9209 6.93274 29.1796 7.52772 29.1796 8.12269C29.1537 8.71766 28.9209 9.31264 28.507 9.72653Z" fill="#96C93D"/>
</svg>
