<svg width="34" height="35" viewBox="0 0 34 35" fill="none" xmlns="http://www.w3.org/2000/svg">
<path d="M9.60621 35C9.41419 35 9.2206 34.9615 9.03761 34.8823C8.51685 34.6572 8.18005 34.1462 8.18005 33.5814C8.18005 32.9504 8.12043 31.7537 8.06768 30.6979C8.03684 30.0798 8.00875 29.5158 7.99235 29.0751C5.81882 28.3021 4.11351 26.9992 2.91924 25.1975C1.86081 23.6008 1.21786 21.7422 0.953543 19.5155C0.471671 15.4534 0.633736 11.8696 1.44926 8.55924C2.32756 4.99432 4.52034 2.55777 7.96671 1.31757C10.4987 0.406434 13.2207 0 16.7927 0C17.6029 0 18.4894 0.0200242 19.5829 0.0630021C21.7781 0.149251 23.5876 0.411416 25.2776 0.887786C27.3047 1.4592 29.4158 2.17048 30.9908 4.00388C31.9823 5.15803 32.6917 6.57464 33.1592 8.33448C33.9256 11.2198 34.1167 14.4006 33.761 18.3449C33.6175 19.9338 33.4248 21.6227 32.7941 23.2688C31.5956 26.3963 29.2376 28.4225 25.7859 29.2908C22.8922 30.019 19.8657 30.3881 16.7903 30.3882C16.3438 30.3882 15.8893 30.3804 15.4371 30.365C15.4203 30.3823 15.4 30.4038 15.3756 30.4306C15.3536 30.4547 15.3308 30.4779 15.3072 30.5005C13.8579 31.8843 11.691 33.692 10.8753 34.3723C10.7158 34.5054 10.6066 34.5962 10.564 34.6332C10.2963 34.8739 9.95372 35 9.60621 35ZM16.7923 2.83713C13.5664 2.83713 11.1438 3.1912 8.93713 3.98532C6.40883 4.89518 4.86588 6.61224 4.21988 9.23418C3.48696 12.2093 3.34532 15.4635 3.78653 19.1828C3.99751 20.9601 4.49274 22.4169 5.3009 23.6359C6.21072 25.0082 7.50252 25.9464 9.25036 26.5038C10.554 26.9196 10.8291 27.7971 10.8301 28.4601C10.8308 28.8317 10.8727 29.6699 10.9169 30.5574C10.9178 30.5756 10.9187 30.5941 10.9197 30.6124C11.7195 29.9249 12.5981 29.1517 13.2965 28.4869C13.5958 28.1608 14.2577 27.4834 15.4094 27.5251C15.8702 27.5423 16.3347 27.5511 16.7899 27.5511C19.6295 27.5511 22.4205 27.211 25.0857 26.5403C27.6537 25.8942 29.2557 24.5336 30.1277 22.2584C30.6294 20.9494 30.7883 19.5403 30.9191 18.0912C31.2489 14.4362 31.0888 11.6505 30.4006 9.05905C30.0448 7.72039 29.5283 6.66958 28.8213 5.84665C27.7628 4.61446 26.1728 4.08905 24.4992 3.61737C23.0319 3.20371 21.4338 2.97514 19.4697 2.89788C18.4149 2.85637 17.564 2.83713 16.7923 2.83713Z" fill="#96C93D"/>
<path d="M24.7344 21.1995C24.6105 22.2997 24.0033 22.9141 23.3973 23.5008C22.7129 24.1636 21.8984 24.5572 20.9241 24.1694C20.1758 23.8715 19.442 23.5319 18.7216 23.1716C16.4595 22.0406 14.4747 20.529 12.7629 18.6833C10.7352 16.4967 9.1494 14.0315 8.2166 11.1804C7.97271 10.4352 8.1005 9.77066 8.691 9.25971C9.23387 8.78989 9.81033 8.34702 10.4196 7.96784C10.8591 7.69434 11.3918 7.7214 11.7921 8.07646C12.907 9.06495 13.819 10.2205 14.4103 11.5921C14.6107 12.0572 14.5665 12.5475 14.1086 12.9078C13.8844 13.084 13.6733 13.2763 13.4531 13.4576C12.8472 13.9565 12.7529 14.3034 12.9954 15.0413C13.5467 16.7192 14.7315 17.8809 16.1615 18.8171C16.644 19.133 17.2078 19.3377 17.7535 19.5432C18.2183 19.7183 18.6059 19.5257 18.9048 19.1481C19.0607 18.9512 19.2119 18.7507 19.3718 18.5573C19.8279 18.006 20.6289 17.8237 21.2247 18.2201C22.2711 18.9161 23.3001 19.642 24.2933 20.4101C24.5436 20.6036 24.631 21.0047 24.7344 21.1995Z" fill="#96C93D"/>
<path d="M26.234 16.4672C25.8401 16.4672 25.5208 16.1496 25.5208 15.7579C25.5208 10.844 21.5008 6.84652 16.56 6.84652C16.1661 6.84652 15.8467 6.52887 15.8467 6.13719C15.8467 5.7455 16.1661 5.42786 16.56 5.42786C22.2875 5.42786 26.9473 10.0619 26.9473 15.7578C26.9473 16.1496 26.6281 16.4672 26.234 16.4672Z" fill="#96C93D"/>
<path d="M23.5956 16.4672C23.2017 16.4672 22.8823 16.1495 22.8823 15.7579C22.8823 12.291 20.0461 9.4703 16.56 9.4703C16.1661 9.4703 15.8467 9.15265 15.8467 8.76097C15.8467 8.36928 16.1661 8.05164 16.56 8.05164C20.8327 8.05164 24.3089 11.5085 24.3089 15.7578C24.3089 16.1495 23.9897 16.4672 23.5956 16.4672Z" fill="#96C93D"/>
<path d="M20.9574 16.4672C20.5634 16.4672 20.2441 16.1495 20.2441 15.7578C20.2441 13.7377 18.5914 12.0941 16.56 12.0941C16.1661 12.0941 15.8467 11.7764 15.8467 11.3847C15.8467 10.9931 16.1661 10.6754 16.56 10.6754C19.3779 10.6754 21.6706 12.9554 21.6706 15.7577C21.6706 16.1495 21.3514 16.4672 20.9574 16.4672Z" fill="#96C93D"/>
</svg>
