<svg width="36" height="25" viewBox="0 0 36 25" fill="none" xmlns="http://www.w3.org/2000/svg">
<g clip-path="url(#clip0)">
<path fill-rule="evenodd" clip-rule="evenodd" d="M35.1259 3.90385C34.7221 2.0641 33.1964 0.673077 31.3567 0.49359C27.049 0 22.6515 0 18.3439 0C13.9913 0 9.63872 0 5.33103 0.49359C3.49129 0.673077 1.96565 2.0641 1.5618 3.90385C0.933594 6.55128 0.933594 9.42308 0.933594 12.1154C0.933594 14.8077 0.933594 17.7244 1.5618 20.3269C1.96565 22.1667 3.49129 23.5577 5.33103 23.7372C9.63872 24.2308 13.9913 24.2308 18.3439 24.2308C22.6964 24.2308 27.049 24.2308 31.3567 23.7372C33.1964 23.5128 34.6772 22.1667 35.1259 20.3269C35.7541 17.6795 35.7541 14.8077 35.7541 12.1154C35.7092 9.42308 35.7092 6.55128 35.1259 3.90385ZM13.8118 17.5V6.01282C17.4913 7.94231 21.1708 9.82692 24.8503 11.8013C21.1708 13.6859 17.5362 15.6154 13.8118 17.5Z" fill="#96C93D"/>
</g>
<defs>
<clipPath id="clip0">
<rect width="35" height="24.6795" fill="white" transform="translate(0.933594)"/>
</clipPath>
</defs>
</svg>
