<svg width="40" height="53" viewBox="0 0 40 53" fill="none" xmlns="http://www.w3.org/2000/svg">
<path d="M20.0055 0.0410156C8.9585 0.0410156 0 8.84714 0 19.7062C0 24.1255 1.48392 28.2098 3.99011 31.4945L20.0055 52.4672L36.0099 31.4837C38.5161 28.199 40 24.1255 40 19.6954C40 8.84714 31.0415 0.0410156 20.0055 0.0410156ZM20.0055 32.8128C12.6408 32.8128 6.67216 26.9456 6.67216 19.7062C6.67216 12.4668 12.6408 6.59969 20.0055 6.59969C27.3702 6.59969 33.3388 12.4668 33.3388 19.7062C33.3388 26.9348 27.3592 32.8128 20.0055 32.8128Z" fill="#ED0035"/>
<path d="M24.5374 12.0158C25.1738 12.2835 25.5364 12.7797 25.7378 13.402C26.1326 14.5834 26.1004 15.7491 25.5122 16.8754C25.2786 17.3243 24.9483 17.6867 24.3762 17.6945C23.7961 17.7024 23.4739 17.3401 23.216 16.9069C22.8051 16.2138 22.7165 15.4498 22.7407 14.67C22.7407 14.544 22.7407 14.4101 22.7407 14.2841C22.2089 14.1423 21.7739 14.4101 21.7175 15.0166C21.6691 15.5837 21.6691 16.1744 21.7578 16.7336C21.9914 18.1829 22.3217 19.6163 22.5393 21.0656C22.789 22.7117 22.8132 24.35 22.1928 25.9488C20.9924 29.0521 17.2782 29.887 14.6678 27.9967C13.7493 27.3272 13.2981 26.3742 13.0886 25.2951C13.0725 25.1927 13.0322 25.0982 13 25.0037C13 24.4524 13 23.901 13 23.3497C13.0322 23.2394 13.0725 23.1291 13.0886 23.0189C13.3223 21.609 14.2005 20.6009 15.4412 20.467C16.4886 20.3567 17.5521 20.3725 18.6075 20.3331C18.7042 20.7111 18.7848 21.0341 18.8573 21.3491C18.9298 21.6563 18.9943 21.9713 19.0668 22.3258C18.4464 22.3258 17.8985 22.3258 17.3507 22.3258C16.5853 22.3258 15.9891 22.6723 15.7635 23.3733C15.5943 23.8931 15.554 24.476 15.5862 25.0273C15.6587 26.0355 16.5369 26.8467 17.6166 27.0279C18.4142 27.1618 19.236 26.642 19.7033 25.7204C20.0336 25.0588 20.1383 24.35 20.1544 23.6175C20.1867 22.0658 19.7838 20.5772 19.4938 19.0729C19.2279 17.6867 19.0587 16.3004 19.3004 14.8906C19.5582 13.3626 20.5251 12.3623 21.9672 12.1103C22.1525 12.0788 22.3298 12.0394 22.507 12C23.1919 12.0158 23.8686 12.0158 24.5374 12.0158Z" fill="#ED0035"/>
</svg>
