<svg width="18" height="18" viewBox="0 0 18 18" fill="none" xmlns="http://www.w3.org/2000/svg">
<path d="M3.40092 7.37116C4.79386 10.0344 6.96766 12.2082 9.63092 13.6012L11.7009 11.5312C11.8122 11.3938 11.9674 11.299 12.1404 11.2626C12.3134 11.2262 12.4937 11.2504 12.6509 11.3312C13.7409 11.7224 14.893 11.9122 16.0509 11.8912C16.1817 11.8847 16.3123 11.9066 16.4339 11.9553C16.5554 12.004 16.6651 12.0784 16.7552 12.1733C16.8454 12.2682 16.9141 12.3815 16.9565 12.5054C16.9989 12.6293 17.014 12.7609 17.0009 12.8912V16.0512C17.0066 16.1774 16.9859 16.3035 16.9402 16.4213C16.8945 16.5392 16.8247 16.6462 16.7353 16.7355C16.6459 16.8249 16.5389 16.8947 16.4211 16.9404C16.3033 16.9862 16.1772 17.0068 16.0509 17.0012C11.795 16.9985 7.71417 15.3067 4.70478 12.2973C1.6954 9.28791 0.00356975 5.20707 0.000920566 0.951161C-0.00476313 0.824894 0.0159196 0.698827 0.0616505 0.580994C0.107382 0.463162 0.177158 0.356149 0.266533 0.266774C0.355908 0.177399 0.462921 0.107622 0.580754 0.0618912C0.698586 0.0161602 0.824653 -0.00452243 0.950921 0.00116127H4.25092C4.38133 -0.00546977 4.51162 0.0163565 4.63275 0.0651252C4.75389 0.113894 4.86295 0.188437 4.95239 0.283581C5.04182 0.378725 5.10948 0.492191 5.15067 0.616104C5.19186 0.740017 5.2056 0.871409 5.19092 1.00116C5.20635 2.13979 5.39519 3.26942 5.75092 4.35116C5.78765 4.51398 5.78971 4.6827 5.75697 4.84637C5.72424 5.01004 5.65744 5.16499 5.56092 5.30116L3.40092 7.37116Z" fill="#1A1A1D"/>
</svg>
