<svg width="48" height="74" fill="none" xmlns="http://www.w3.org/2000/svg"><path d="M7.358 22.383c-.27 0-.49-.513-.49-1.147V.973c0-.634.22-.973.49-.973s.49.339.49.973v20.263c0 .633-.22 1.147-.49 1.147zm8.811 0c-.271 0-.49-.513-.49-1.147V.973c0-.634.219-.973.49-.973.27 0 .489.339.489.973v20.263c0 .633-.219 1.147-.49 1.147z" fill="#C5A26D"/><path d="M15.679.974H7.848c-.677 0-.98-.218-.98-.487 0-.27.303-.487.98-.487h7.83c.678 0 .98.218.98.487 0 .27-.302.487-.98.487zM.506 72.015c-.271 0-.49-.52-.49-1.162V31.33c0-.642.219-1.162.49-1.162.27 0 .489.52.489 1.162v39.522c0 .643-.219 1.162-.49 1.162zm22.514-.001c-.27 0-.489-.52-.489-1.162V31.33c0-.642.219-1.162.49-1.162.27 0 .49.52.49 1.162v39.522c0 .643-.22 1.162-.49 1.162z" fill="#C5A26D"/><path d="M.506 33.627c-.645 0-.49-1.304-.49-1.945 0-4.902 2.448-8.327 6.853-10.273.609-.213.277-.605.49-.002.215.604.605.763 0 .975C3.641 23.69.994 27.758.994 31.68c0 .642.155 1.947-.49 1.947zm22.514-.054c.645 0 .49-1.252.49-1.893 0-4.903-2.613-8.325-7.018-10.272-.61-.213-.813-.486-.813 0 0 .487-.078.832.324.974 3.716 1.306 6.528 5.375 6.528 9.298 0 .642-.155 1.893.49 1.893zM3.512 74C1.484 73.96.016 72.987.016 70.524c0-.943 0-.943.49-.943.489 0 .489.819.489 1.46 0 .639 1.315 1.946 1.958 1.946.644 0 1.958.102 1.958.487 0 .384-.754.526-1.4.526zm16.503-.001c2.027-.04 3.495-1.013 3.495-3.475 0-.944 0-.944-.489-.944-.49 0-.49.819-.49 1.46 0 .639-1.314 1.946-1.957 1.946-.645 0-1.958.103-1.958.487s.754.526 1.399.526z" fill="#C5A26D"/><path d="M19.411 73.96H3.137c-.644 0-1.163-.217-1.163-.487s.52-.487 1.163-.487H19.41c.643 0 1.162.218 1.162.487 0 .27-.519.487-1.162.487zM15.434 6.812H8.093c-.677 0-1.223-.218-1.223-.487 0-.27.546-.487 1.223-.487h7.342c.677 0 1.224.217 1.224.487 0 .269-.547.487-1.224.487zm0 11.679H8.093c-.677 0-1.223-.217-1.223-.487 0-.269.546-.486 1.223-.486h7.342c.677 0 1.224.217 1.224.486 0 .27-.547.487-1.224.487zm3.182 45.739H4.91c-.645 0-.98-.333-.98-.974V36.981c0-.64.335-.973.98-.973h13.705c.644 0 .979.332.979.973v26.275c0 .641-.335.974-.98.974zM4.91 63.256h13.705V36.981H4.91v26.275z" fill="#C5A26D"/><ellipse cx="11.763" cy="49.632" rx="2.937" ry="2.919" fill="#fff"/><path d="M14.7 49.632a2.928 2.928 0 0 1-2.937 2.92 2.928 2.928 0 0 1-2.936-2.92 2.928 2.928 0 0 1 2.936-2.92 2.928 2.928 0 0 1 2.937 2.92zm-4.85 0c0 1.05.857 1.902 1.913 1.902a1.907 1.907 0 0 0 1.913-1.902c0-1.05-.856-1.901-1.913-1.901a1.907 1.907 0 0 0-1.912 1.901z" fill="#C5A26D"/><ellipse cx="8.827" cy="45.738" rx="2.937" ry="2.919" fill="#fff"/><path d="M11.763 45.738a2.928 2.928 0 0 1-2.936 2.92 2.928 2.928 0 0 1-2.937-2.92 2.928 2.928 0 0 1 2.937-2.92 2.928 2.928 0 0 1 2.936 2.92zm-4.85 0c0 1.05.857 1.901 1.914 1.901a1.907 1.907 0 0 0 1.912-1.901c0-1.05-.856-1.902-1.912-1.902a1.907 1.907 0 0 0-1.913 1.902z" fill="#C5A26D"/><ellipse cx="14.7" cy="45.738" rx="2.937" ry="2.919" fill="#fff"/><path d="M17.637 45.738a2.928 2.928 0 0 1-2.937 2.92 2.928 2.928 0 0 1-2.937-2.92 2.928 2.928 0 0 1 2.937-2.92 2.928 2.928 0 0 1 2.937 2.92zm-4.85 0c0 1.05.857 1.901 1.913 1.901a1.907 1.907 0 0 0 1.913-1.901c0-1.05-.857-1.902-1.913-1.902a1.907 1.907 0 0 0-1.913 1.902z" fill="#C5A26D"/><path d="M11.763 47.594c.271 0 .49-.475.49-1.062v-3.715c0-.973 0-1.946-.49-1.946s-.49.973-.49 1.946v3.715c0 .587.22 1.062.49 1.062zm3.671 7.878H8.093c-.677 0-1.223 0-1.223-.487s.546-.487 1.223-.487h7.342c.677 0 1.224 0 1.224.487s-.547.487-1.224.487zm-2.692 2.918h-1.957c-.542 0-.98 0-.98-.487s.438-.487.98-.487h1.957c.54 0 .979 0 .979.487s-.438.487-.98.487zm25.941.001c-5.783 0-10.278-3.983-10.278-9.731 0-.64.101-1.297.745-1.297.645 0 .234.656.234 1.297 0 4.47 2.937 8.758 9.3 8.758 6.362 0 8.32-4.288 8.32-8.758 0-.64.144-1.297.788-1.297.191.81.191.656.191 1.297 0 5.748-3.518 9.731-9.3 9.731z" fill="#C5A26D"/><path d="M29.384 49.632c.059.009-.06 0 0 0-.637-.097-1.077-.34-.98-.973l1.959-14.598c.098-.632.654-1.828 1.291-1.736.636.098-.215 1.104-.313 1.736L29.384 48.66c-.09.572 0 .486 0 .973zm18.599-.973c-.06.009.06 0 0 0 .098.632-.49.486 0 0L46.572 34.06c-.099-.632-.889-2.038-1.526-1.945-.636.097.45 1.313.547 1.945l1.411 14.598c.922 0 .564-.04.979 0z" fill="#C5A26D"/><path d="M45.047 33.088H31.342c-.658 0-.98 1.242-.98.974 0-.27.322-1.947.98-1.947h13.733c.657 0 1.44 1.677 1.44 1.947 0 .269-.811-.974-1.468-.974zM38.684 73.96c-.271 0-.49-.493-.49-1.104V58.52c0-.61.219-1.104.49-1.104.27 0 .489.494.489 1.104v14.336c0 .61-.219 1.104-.49 1.104z" fill="#C5A26D"/><path d="M46.82 73.96H30.547c-.643 0-1.162-.217-1.162-.487s.52-.487 1.162-.487h16.275c.642 0 1.162.218 1.162.487 0 .27-.52.487-1.162.487zm1-25.3H29.547c-.632 0-1.142-.218-1.142-.488 0-.269.51-.486 1.142-.486H47.82c-.326.486.163.704.163.973 0 .27-.49-.974-.163 0z" fill="#C5A26D"/></svg>