<svg width="98" height="58" fill="none" xmlns="http://www.w3.org/2000/svg"><path fill-rule="evenodd" clip-rule="evenodd" d="M48.867 9.305c-.67 0-1.572-.257-2.532-.754a9.793 9.793 0 0 1-2.569-1.92c-.717-.763-1.13-1.51-1.22-2.126-.08-.53.059-1.047.707-1.555 3.314-2.596 7.795-2.607 11.24.01.677.514.816 1.033.742 1.55-.086.61-.497 1.353-1.222 2.118-.709.748-1.64 1.43-2.596 1.921-.97.498-1.88.756-2.55.756zm-2.695.281c-3.224-1.538-6.385-5.192-3.536-7.423 3.682-2.884 8.665-2.884 12.461 0 2.929 2.224-.252 5.862-3.492 7.41 9.842.604 19.155 4.62 26.17 11.347 7.386 7.08 11.64 16.603 11.906 26.588l.008.314H96a2 2 0 0 1 2 2V56a2 2 0 0 1-2 2H2a2 2 0 0 1-2-2v-6.178a2 2 0 0 1 2-2h6.311l.007-.314C8.585 37.523 12.838 28 20.224 20.92c6.963-6.676 16.188-10.682 25.948-11.334zm42.509 37.922c-.266-9.707-4.404-18.97-11.598-25.867C69.643 14.507 59.541 10.492 49 10.492c-10.541 0-20.642 4.015-28.084 11.15-7.193 6.896-11.33 16.16-11.597 25.866H88.68zM96 48.822H2a1 1 0 0 0-1 1V56a1 1 0 0 0 1 1h94a1 1 0 0 0 1-1v-6.178a1 1 0 0 0-1-1z" fill="#C5A26D"/></svg>