<svg width="24" height="24" viewBox="0 0 24 24" fill="none" xmlns="http://www.w3.org/2000/svg">
<path d="M22.64 19.8C22.5427 19.8051 22.4511 19.8474 22.3841 19.9181C22.3171 19.9888 22.2799 20.0826 22.28 20.18V23.26H13.39V12.69C13.3901 12.5952 13.3539 12.504 13.2888 12.4352C13.2237 12.3663 13.1346 12.3251 13.04 12.32H10.23V4.32001C10.2313 4.2719 10.223 4.22401 10.2055 4.17917C10.188 4.13433 10.1617 4.09346 10.1282 4.05896C10.0946 4.02446 10.0544 3.99705 10.0101 3.97833C9.96575 3.95962 9.91811 3.94999 9.86998 3.95001H7.05998V0.75H13.23C13.3164 0.735644 13.395 0.691077 13.4516 0.624237C13.5083 0.557397 13.5394 0.47263 13.5394 0.38501C13.5394 0.297389 13.5083 0.212592 13.4516 0.145752C13.395 0.0789116 13.3164 0.034345 13.23 0.019989H0.359972C0.264494 0.019989 0.172938 0.0579142 0.105425 0.125427C0.0379115 0.19294 -1.36093e-05 0.284527 -1.36093e-05 0.380005V23.63C-0.00135054 23.6781 0.00696932 23.726 0.0244615 23.7708C0.0419537 23.8157 0.0682604 23.8566 0.101824 23.8911C0.135387 23.9255 0.175524 23.953 0.219866 23.9717C0.264208 23.9904 0.311842 24 0.359972 24H22.64C22.6881 24 22.7358 23.9904 22.7801 23.9717C22.8244 23.953 22.8646 23.9255 22.8981 23.8911C22.9317 23.8566 22.958 23.8157 22.9755 23.7708C22.993 23.726 23.0013 23.6781 23 23.63V23.63V20.2C23.0041 20.1527 22.9988 20.105 22.9844 20.0598C22.97 20.0145 22.9468 19.9726 22.9162 19.9363C22.8855 19.9001 22.8479 19.8703 22.8057 19.8486C22.7634 19.8269 22.7173 19.8138 22.67 19.81L22.64 19.8ZM3.14998 23.26H0.749986V13.06H3.2L3.14998 23.26ZM3.14998 12.32H0.749986V0.75H3.2L3.14998 12.32ZM6.31999 23.26H3.87999V9.42001H6.31999V23.26ZM6.31999 8.67999H3.87999V0.75H6.31999V8.67999ZM9.48998 23.26H7.05998V16.41H9.49999L9.48998 23.26ZM9.48998 15.67H7.05998V4.67001H9.49999L9.48998 15.67ZM12.66 23.26H10.21V13.06H12.66V23.26Z" fill="#5B748B"/>
<path d="M22.64 0H15.15C15.0519 0 14.9578 0.0389795 14.8884 0.108368C14.819 0.177756 14.78 0.271865 14.78 0.369995C14.78 0.468125 14.819 0.562234 14.8884 0.631622C14.9578 0.701011 15.0519 0.73999 15.15 0.73999H22.28V18.2C22.28 18.2955 22.3179 18.387 22.3854 18.4546C22.453 18.5221 22.5445 18.56 22.64 18.56V18.56C22.6868 18.5613 22.7334 18.5533 22.777 18.5363C22.8206 18.5193 22.8604 18.4937 22.894 18.4611C22.9275 18.4285 22.9542 18.3894 22.9724 18.3463C22.9907 18.3032 23 18.2568 23 18.21V0.380005C23.0013 0.331894 22.993 0.284004 22.9755 0.239166C22.958 0.194328 22.9317 0.153453 22.8982 0.118958C22.8646 0.084462 22.8245 0.0570439 22.7801 0.0383301C22.7358 0.0196163 22.6881 0.00999119 22.64 0.0100098V0Z" fill="#5B748B"/>
<path d="M17.66 3C15.32 3.06 14.14 5.31001 14.14 9.89001C14.2567 11.7889 14.5923 13.668 15.14 15.49C15.1618 15.563 15.2067 15.6269 15.2681 15.672C15.3295 15.7171 15.4039 15.741 15.48 15.74H19.9C19.9761 15.741 20.0505 15.7171 20.1119 15.672C20.1733 15.6269 20.2182 15.563 20.24 15.49C20.7877 13.668 21.1233 11.7889 21.24 9.89001C21.18 5.35001 20.02 3.1 17.66 3ZM19.58 15H15.69C15.202 13.3223 14.9068 11.5945 14.81 9.85001C14.6866 8.13628 14.9889 6.41863 15.69 4.85001C15.8244 4.59056 16.0095 4.36079 16.2345 4.17432C16.4594 3.98785 16.7195 3.84848 16.9994 3.76453C17.2792 3.68057 17.5731 3.65371 17.8635 3.68558C18.154 3.71744 18.435 3.80738 18.69 3.95001C19.0603 4.16035 19.3623 4.47277 19.56 4.85001C20.2627 6.41814 20.5651 8.13619 20.44 9.85001C20.3609 11.6212 20.0723 13.3767 19.58 15.08V15Z" fill="#5B748B"/>
<path d="M19.95 16.46H15.34C15.2472 16.46 15.1581 16.4969 15.0925 16.5625C15.0269 16.6281 14.99 16.7172 14.99 16.81C14.99 16.81 14.99 16.81 14.99 16.81V19.12C14.9847 19.4549 15.0454 19.7875 15.1687 20.0989C15.292 20.4103 15.4754 20.6944 15.7085 20.9349C15.9416 21.1754 16.2198 21.3677 16.5272 21.5007C16.8346 21.6337 17.1651 21.7048 17.5 21.71H17.75C18.4272 21.6995 19.0727 21.421 19.545 20.9355C20.0173 20.4501 20.278 19.7973 20.27 19.12V16.8C20.2658 16.7145 20.2313 16.6334 20.1726 16.5711C20.114 16.5088 20.0351 16.4694 19.95 16.46V16.46ZM19.59 19.14C19.5954 19.3841 19.5516 19.6267 19.4613 19.8535C19.371 20.0802 19.236 20.2865 19.0643 20.4601C18.8926 20.6336 18.6878 20.7708 18.462 20.8636C18.2363 20.9563 17.9941 21.0027 17.75 21H17.46C16.9764 20.9921 16.5156 20.7931 16.1783 20.4464C15.841 20.0997 15.6547 19.6336 15.66 19.15V17.2H19.56L19.59 19.14Z" fill="#5B748B"/>
</svg>
