<svg width="30" height="25" viewBox="0 0 30 25" fill="none" xmlns="http://www.w3.org/2000/svg">
<path d="M28.85 19.45H24.93V15.39C24.93 15.2697 24.8829 15.1542 24.7988 15.0682C24.7147 14.9822 24.6003 14.9326 24.48 14.93H20.55V10.93C20.55 10.8124 20.504 10.6994 20.4217 10.6153C20.3395 10.5312 20.2276 10.4826 20.11 10.48H16.18V6.48001C16.184 6.42009 16.1761 6.35995 16.1565 6.30316C16.137 6.24637 16.1063 6.19409 16.0662 6.14935C16.0261 6.10462 15.9775 6.06834 15.9232 6.04269C15.8689 6.01705 15.81 6.00253 15.75 6H10.57V1.32001C10.57 1.20066 10.5226 1.08619 10.4382 1.0018C10.3538 0.917409 10.2393 0.869995 10.12 0.869995H0.749992C0.691359 0.86998 0.633322 0.881684 0.579276 0.904419C0.525231 0.927154 0.476255 0.960458 0.435264 1.00238C0.394273 1.0443 0.362082 1.09402 0.340568 1.14856C0.319053 1.2031 0.308657 1.26139 0.309989 1.32001V24.42C0.308657 24.4786 0.319053 24.5369 0.340568 24.5914C0.362082 24.646 0.394273 24.6957 0.435264 24.7376C0.476255 24.7795 0.525231 24.8128 0.579276 24.8356C0.633322 24.8583 0.691359 24.87 0.749992 24.87H28.85C28.9091 24.87 28.9676 24.8584 29.0222 24.8358C29.0768 24.8131 29.1264 24.78 29.1682 24.7382C29.21 24.6964 29.2431 24.6468 29.2657 24.5922C29.2884 24.5376 29.3 24.4791 29.3 24.42V19.9C29.2974 19.7814 29.2492 19.6685 29.1654 19.5846C29.0815 19.5008 28.9685 19.4526 28.85 19.45V19.45ZM24.03 15.88V19.45H14.3V15.88H24.03ZM19.66 11.4V15H10.56V11.4H19.66ZM13.41 15.88V19.45H4.92998V15.88H13.41ZM15.29 6.88V10.45H7.42998V6.88H15.29ZM1.18999 1.76001H9.66V6H1.18999V1.76001ZM1.18999 6.88H6.54V10.45H1.18999V6.88ZM1.18999 11.37H9.66V15H1.18999V11.37ZM1.18999 15.85H4.04V19.42H1.18999V15.85ZM7.79 23.9H1.18999V20.35H7.74999L7.79 23.9ZM19.03 23.9H8.67998V20.35H19.03V23.9ZM28.41 23.9H19.93V20.35H28.42L28.41 23.9Z" fill="#5B748B"/>
</svg>
