<svg width="25" height="25" viewBox="0 0 25 25" fill="none" xmlns="http://www.w3.org/2000/svg">
<path d="M20.12 5.11999V7.39001H19.75V1.39001H23.75C23.8086 1.39003 23.8667 1.37832 23.9207 1.35559C23.9748 1.33285 24.0237 1.29952 24.0647 1.2576C24.1057 1.21567 24.1379 1.16599 24.1594 1.11145C24.1809 1.0569 24.1913 0.998617 24.19 0.939999C24.1914 0.881844 24.1809 0.824019 24.1593 0.770017C24.1377 0.716014 24.1053 0.666955 24.0642 0.625821C24.023 0.584687 23.974 0.552325 23.92 0.530698C23.866 0.50907 23.8082 0.498628 23.75 0.499997H19.14H19.07H19.02L1.78 14.68C1.73434 14.7165 1.69661 14.7619 1.6691 14.8135C1.64159 14.8651 1.62487 14.9218 1.62 14.98C1.60805 15.0943 1.64025 15.2087 1.70999 15.3C1.78897 15.3911 1.89996 15.4484 2.01999 15.46C2.13723 15.4706 2.25439 15.4387 2.35001 15.37L3.04001 14.79V20.27H1.17999C0.914776 20.27 0.660437 20.3754 0.4729 20.5629C0.285364 20.7504 0.179993 21.0048 0.179993 21.27V24.43H24.18V4.14001H21.02C20.7759 4.16452 20.5493 4.27789 20.3834 4.45858C20.2174 4.63928 20.1237 4.87468 20.12 5.11999ZM15.74 4.48999L18.9 1.89001V7.39001H17.03C16.7648 7.39001 16.5104 7.49535 16.3229 7.68289C16.1354 7.87043 16.03 8.1248 16.03 8.39001V10.66H15.75L15.74 4.48999ZM12.09 7.48999L14.85 5.22V10.63H13.38C13.1148 10.63 12.8604 10.7353 12.6729 10.9229C12.4853 11.1104 12.38 11.3648 12.38 11.63V13.9H12.08L12.09 7.48999ZM8.09 10.83L11.25 8.22V13.88H9.37C9.10478 13.88 8.85044 13.9853 8.6629 14.1729C8.47537 14.3604 8.37 14.6148 8.37 14.88V17.15H8.07001L8.09 10.83ZM4.01999 14.16L7.19 11.56V17.12H5.32001C5.05479 17.12 4.80042 17.2254 4.61288 17.4129C4.42535 17.6004 4.32001 17.8548 4.32001 18.12V20.4H4L4.01999 14.16ZM23.41 23.61H1.14001V23.55V21.26H4.20001C4.46523 21.26 4.71957 21.1546 4.9071 20.9671C5.09464 20.7796 5.20001 20.5252 5.20001 20.26V18H8.26999C8.53521 18 8.78958 17.8946 8.97711 17.7071C9.16465 17.5196 9.26999 17.2652 9.26999 17V14.73H12.34C12.6052 14.73 12.8596 14.6246 13.0471 14.4371C13.2347 14.2496 13.34 13.9952 13.34 13.73V11.46H16.98V8.22H20.05C20.3152 8.22 20.5696 8.11463 20.7571 7.92709C20.9446 7.73955 21.05 7.48521 21.05 7.22V5H23.39L23.41 23.61Z" fill="#5B748B"/>
</svg>
