<svg width="25" height="24" viewBox="0 0 25 24" fill="none" xmlns="http://www.w3.org/2000/svg">
<path d="M24.33 0H16.6C16.4894 0.00254334 16.3841 0.0476032 16.3058 0.125824C16.2276 0.204045 16.1825 0.309422 16.18 0.420013V7.70999H8.90002C8.78333 7.70999 8.67138 7.75635 8.58887 7.83887C8.50635 7.92138 8.46002 8.0333 8.46002 8.14999V15.44H1.16998C1.05859 15.44 0.951751 15.4843 0.872986 15.563C0.794221 15.6418 0.75 15.7486 0.75 15.86V23.58C0.754888 23.6898 0.800687 23.7938 0.878418 23.8716C0.956149 23.9493 1.06016 23.9951 1.16998 24H8.90002C9.01062 23.9975 9.11593 23.9524 9.19415 23.8742C9.27237 23.796 9.31746 23.6906 9.32001 23.58V16.29H12.32V19.71C12.3187 19.766 12.3286 19.8217 12.3491 19.8738C12.3696 19.9259 12.4003 19.9734 12.4395 20.0135C12.4786 20.0535 12.5253 20.0854 12.5769 20.1071C12.6285 20.1288 12.684 20.14 12.74 20.14H20.45C20.565 20.14 20.6754 20.095 20.7576 20.0147C20.8399 19.9343 20.8874 19.8249 20.89 19.71V12C20.8887 11.9435 20.8763 11.8879 20.8535 11.8362C20.8306 11.7845 20.7979 11.7379 20.757 11.6989C20.7162 11.6598 20.668 11.6293 20.6154 11.6089C20.5627 11.5885 20.5065 11.5787 20.45 11.58H17.03V8.57999H24.32C24.4306 8.57744 24.536 8.53238 24.6142 8.45416C24.6924 8.37594 24.7374 8.2706 24.74 8.16V0.429993C24.7377 0.320048 24.6944 0.214933 24.6185 0.135345C24.5426 0.0557579 24.4397 0.00747486 24.33 0V0ZM8.46002 23.14H1.60999V16.29H8.46002V23.14ZM16.18 19.29H13.18V16.29H16.18V19.29ZM16.18 15.43H9.31V8.57001H16.18V15.43ZM20.03 19.29H17.03V16.29H20.03V19.29ZM20.03 12.42V15.42H17.03V12.42H20.03ZM23.88 7.70999H17.03V0.859985H23.88V7.70999Z" fill="#5B748B"/>
</svg>
