<svg width="25" height="24" viewBox="0 0 25 24" fill="none" xmlns="http://www.w3.org/2000/svg">
<path d="M24.38 6.82001C22.76 4.58667 21.1367 2.36001 19.51 0.140015L19.44 0H13.87L13.75 0.149994L0.609985 13.29L0.460022 13.41V24H11.05L11.17 23.85L24.31 10.71L24.46 10.59V6.94L24.38 6.82001ZM1.95001 13.14L2.08002 13.01L3.75 11.3L13.98 1.09C14.0577 1.00963 14.151 0.946007 14.2542 0.903015C14.3573 0.860024 14.4682 0.838573 14.58 0.839996H17.99L17.69 1.17001L17.56 1.31L14.32 4.56L5.57001 13.29C5.49663 13.3664 5.40788 13.4264 5.30963 13.4661C5.21138 13.5057 5.10586 13.5241 5 13.52H1.95001L1.84998 13.25L1.95001 13.14ZM10.12 23.14H1.34998V14.36H5.20001C5.29344 14.3565 5.38614 14.3778 5.46869 14.4217C5.55123 14.4656 5.62065 14.5306 5.66998 14.61L8.37 18.33L10 20.57C10.0686 20.656 10.1103 20.7604 10.12 20.87V23.14ZM23.62 10C23.6237 10.0749 23.6124 10.1498 23.5866 10.2202C23.5608 10.2906 23.5212 10.3552 23.47 10.41C23.09 10.8 22.7 11.22 22.31 11.57L22.03 11.85L21.94 11.93L21.62 12.18V9.17999C21.6208 9.06552 21.5858 8.95365 21.52 8.85999L19.75 6.48999L19.26 5.82001C19.08 5.56001 18.88 5.51001 18.69 5.64001C18.5845 5.70519 18.509 5.8094 18.48 5.92999C18.474 6.00042 18.4825 6.07134 18.5048 6.1384C18.5272 6.20545 18.5629 6.26725 18.61 6.32001L19.2 7.13C19.68 7.78 20.2 8.44 20.62 9.13C20.7104 9.25522 20.7594 9.40557 20.76 9.56V12.89C20.7706 13.0073 20.7386 13.1244 20.67 13.22C20.32 13.59 19.95 13.96 19.59 14.32L19.16 14.75L18.96 14.66L18.9 14.53V12.53C18.9357 12.015 18.7708 11.5062 18.44 11.11C17.97 10.51 17.53 9.89001 17.11 9.29001L16.56 8.53C16.47 8.41 16.25 8.15001 15.98 8.35001C15.9241 8.38031 15.8761 8.42319 15.8397 8.47525C15.8032 8.52731 15.7794 8.58713 15.77 8.64999C15.7662 8.71719 15.7757 8.78449 15.798 8.84799C15.8203 8.9115 15.855 8.96995 15.9 9.01999L16.35 9.64999C16.86 10.36 17.35 11.07 17.88 11.78C17.9802 11.9211 18.0391 12.0873 18.05 12.26V15.57C18.0358 15.7363 17.9693 15.8938 17.86 16.02C17.54 16.36 17.21 16.69 16.86 17.02L16.44 17.45L16.23 17.39L16.16 17.26V14.59C16.1607 14.4925 16.1291 14.3976 16.07 14.32C15.46 13.47 14.85 12.61 14.24 11.77L13.83 11.22C13.75 11.1 13.53 10.85 13.27 11.04C13.2145 11.0719 13.1662 11.1151 13.1283 11.1668C13.0904 11.2184 13.0637 11.2774 13.05 11.34C13.0445 11.405 13.0523 11.4705 13.0729 11.5323C13.0936 11.5942 13.1266 11.6513 13.17 11.7L13.84 12.63L15.18 14.49C15.271 14.6268 15.3229 14.7859 15.33 14.95V18.27C15.3377 18.4118 15.2912 18.5512 15.2 18.66L14.2 19.72L13.9 20.02L13.82 20.07L13.54 20.26V17.26C13.5413 17.1761 13.5206 17.0934 13.48 17.02C12.74 16.02 11.99 14.95 11.24 13.92V13.87C11.2025 13.8067 11.1502 13.7536 11.0874 13.7152C11.0246 13.6769 10.9534 13.6545 10.88 13.65V13.65C10.8054 13.6591 10.7344 13.6868 10.6732 13.7305C10.6121 13.7741 10.5629 13.8324 10.53 13.9C10.44 14.05 10.46 14.18 10.6 14.38L10.73 14.56C11.35 15.37 11.98 16.27 12.58 17.13C12.6881 17.2821 12.7474 17.4634 12.75 17.65V21C12.7451 21.1618 12.6852 21.317 12.58 21.44C12.29 21.74 11.99 22.03 11.68 22.34L11.11 22.91V22.46V20.67C11.1022 20.5555 11.0643 20.4451 11 20.35L6.59003 14.26C6.5161 14.1836 6.47473 14.0814 6.47473 13.975C6.47473 13.8687 6.5161 13.7665 6.59003 13.69V13.69L17.03 3.28L18.92 1.39001L19.06 1.26001L19.26 1.07999L20.56 2.87C21.58 4.27 22.58 5.67001 23.56 7.07001C23.6571 7.21191 23.7125 7.37818 23.72 7.54999C23.6099 8.39532 23.5632 9.24771 23.58 10.1L23.62 10Z" fill="#5B748B"/>
</svg>
