<svg width="28" height="25" viewBox="0 0 28 25" fill="none" xmlns="http://www.w3.org/2000/svg">
<path d="M19.63 8.5H7.49999C7.39565 8.50261 7.29643 8.5459 7.22356 8.62064C7.1507 8.69537 7.10994 8.79562 7.10998 8.89999V23.66C7.11005 23.7312 7.12913 23.801 7.16521 23.8624C7.20129 23.9237 7.25308 23.9743 7.31524 24.009C7.3774 24.0436 7.4477 24.061 7.51885 24.0594C7.59 24.0579 7.65939 24.0374 7.71996 24L10.59 22C10.6449 21.9673 10.6896 21.9201 10.7196 21.8637C10.7496 21.8073 10.7636 21.7438 10.76 21.68L10.92 12.08C10.9202 12.021 10.9373 11.9634 10.9692 11.9138C11.0011 11.8642 11.0464 11.8247 11.1 11.8C11.2408 11.728 11.3968 11.6905 11.555 11.6905C11.7132 11.6905 11.8691 11.728 12.01 11.8C12.0583 11.8267 12.0986 11.8658 12.1267 11.9133C12.1548 11.9607 12.1697 12.0148 12.17 12.07V20.51C12.1679 20.5809 12.1852 20.651 12.22 20.7129C12.2548 20.7747 12.3058 20.8258 12.3675 20.8608C12.4293 20.8958 12.4993 20.9132 12.5702 20.9113C12.6412 20.9094 12.7103 20.8882 12.77 20.85L15.77 18.74C15.8244 18.7012 15.8689 18.6503 15.9001 18.5912C15.9314 18.5322 15.9485 18.4668 15.95 18.4V12.07C15.95 11.54 17.19 11.54 17.19 12.07V17.34C17.1887 17.3925 17.1977 17.4448 17.2166 17.4939C17.2355 17.5429 17.2638 17.5877 17.3 17.6258C17.3363 17.6639 17.3796 17.6944 17.4277 17.7158C17.4757 17.7371 17.5275 17.7487 17.58 17.75V17.75C17.6431 17.7474 17.7046 17.7303 17.76 17.7L19.76 16.65C19.824 16.6142 19.8772 16.562 19.9142 16.4987C19.9511 16.4354 19.9703 16.3633 19.97 16.29V8.89999C19.9713 8.84877 19.9625 8.7978 19.9441 8.74997C19.9258 8.70214 19.8981 8.65842 19.8628 8.62128C19.8276 8.58413 19.7853 8.55428 19.7385 8.53348C19.6917 8.51267 19.6412 8.5013 19.59 8.5H19.63ZM19.24 16.03L18 16.67V12.06C17.9697 11.8729 17.9026 11.6937 17.8025 11.5328C17.7024 11.3719 17.5713 11.2325 17.4169 11.1227C17.2624 11.0129 17.0876 10.935 16.9028 10.8933C16.7179 10.8516 16.5266 10.8471 16.34 10.88C16.0531 10.9386 15.7905 11.0826 15.587 11.2932C15.3835 11.5039 15.2486 11.7712 15.2 12.06V18.17L12.95 19.74V12.06C12.9607 11.8598 12.9159 11.6605 12.8206 11.484C12.7253 11.3076 12.5832 11.1609 12.41 11.06C12.1476 10.9173 11.8537 10.8426 11.555 10.8426C11.2563 10.8426 10.9624 10.9173 10.7 11.06C10.5256 11.1604 10.3821 11.3068 10.2851 11.4831C10.1882 11.6594 10.1415 11.859 10.15 12.06L9.98998 21.44L7.92998 22.86V9.29999H19.28L19.24 16.03ZM25.7 0.0299988H1.43999C1.33565 0.0326082 1.23643 0.0759012 1.16356 0.150635C1.0907 0.225368 1.04995 0.325616 1.04998 0.429993V1.48001C1.05173 1.58354 1.09078 1.68297 1.15996 1.76001L3.15996 3.87C3.1962 3.90776 3.23967 3.93785 3.28777 3.95847C3.33587 3.97908 3.38766 3.9898 3.43999 3.98999H23.64C23.6909 3.99023 23.7414 3.97967 23.7879 3.95898C23.8344 3.9383 23.876 3.90796 23.91 3.87L25.91 1.76001C25.9482 1.72414 25.9786 1.68073 25.9993 1.63254C26.0199 1.58435 26.0304 1.53244 26.03 1.48001V0.420013C26.0278 0.32066 25.9887 0.22566 25.9203 0.153564C25.8519 0.0814693 25.7591 0.0374276 25.66 0.0299988H25.7ZM25.31 1.32001L23.54 3.17001H3.65001L1.85998 1.29001V0.809998H25.34L25.31 1.32001ZM3.37999 5.32001C2.89907 5.35973 2.43103 5.49571 2.00371 5.71991C1.5764 5.94411 1.19855 6.25194 0.892568 6.62509C0.586586 6.99824 0.358738 7.4291 0.222585 7.89206C0.0864324 8.35501 0.0447101 8.84062 0.0999655 9.32001C0.179372 10.216 0.606551 11.0452 1.28997 11.63C1.58686 11.8911 1.93501 12.0874 2.31212 12.2062C2.68924 12.325 3.08701 12.3638 3.47997 12.32C4.21661 12.2159 4.88195 11.8239 5.33001 11.23C5.76578 10.6602 5.95975 9.94173 5.86999 9.23001C5.83157 8.9019 5.72874 8.58459 5.56743 8.2963C5.40613 8.008 5.18951 7.75438 4.92998 7.54999C4.71475 7.37461 4.46535 7.24599 4.19768 7.17227C3.93001 7.09855 3.64997 7.08138 3.3753 7.12183C3.10062 7.16227 2.83734 7.25945 2.60228 7.4072C2.36723 7.55495 2.16554 7.75004 2.01 7.98001C1.87593 8.18262 1.78307 8.40964 1.73675 8.64813C1.69042 8.88663 1.69151 9.13192 1.73998 9.37C1.80669 9.76954 2.02524 10.1278 2.34997 10.37C2.51042 10.4953 2.69888 10.5799 2.89916 10.6164C3.09944 10.653 3.3056 10.6405 3.49999 10.58C3.76917 10.4888 3.99411 10.2996 4.12999 10.05C4.21776 9.89797 4.26397 9.72552 4.26397 9.54999C4.26397 9.37445 4.21776 9.20201 4.12999 9.04999C4.08072 8.95644 4.00758 8.87761 3.91802 8.82141C3.82846 8.76522 3.72565 8.73369 3.61999 8.73001C3.55062 8.71157 3.47808 8.70826 3.40734 8.72034C3.33659 8.73242 3.26932 8.75958 3.21001 8.79999C3.14027 8.85887 3.08435 8.93244 3.04632 9.01541C3.00829 9.09839 2.98906 9.18873 2.98998 9.28C2.99197 9.38648 3.03083 9.48899 3.09997 9.57001L3.40996 9.89001L2.97997 9.76999L2.78997 9.67001C2.63745 9.54954 2.53144 9.37989 2.48998 9.19C2.46599 9.06061 2.46777 8.92774 2.49523 8.79904C2.52269 8.67034 2.57531 8.54834 2.65001 8.44C2.73574 8.30299 2.84958 8.18575 2.98406 8.0961C3.11854 8.00645 3.27054 7.94644 3.42998 7.92001C3.60627 7.89468 3.78588 7.90554 3.95781 7.95197C4.12975 7.99839 4.29041 8.07939 4.42998 8.19C4.77662 8.47237 5.00204 8.87669 5.05999 9.32001C5.0909 9.566 5.07234 9.81568 5.00536 10.0544C4.93839 10.2931 4.82434 10.516 4.66997 10.71C4.50921 10.9316 4.30468 11.1178 4.06902 11.2571C3.83337 11.3965 3.57161 11.4859 3.29998 11.52C2.73485 11.5586 2.17747 11.3716 1.74999 11C1.23812 10.5525 0.916217 9.92664 0.849965 9.25C0.796125 8.52726 1.02162 7.8114 1.47997 7.25C1.73057 6.95925 2.03643 6.72116 2.37975 6.5495C2.72307 6.37784 3.09701 6.27603 3.47997 6.25H23.76C24.1431 6.27548 24.5173 6.37704 24.8606 6.54874C25.204 6.72043 25.5098 6.95883 25.76 7.25C26.2183 7.8114 26.4438 8.52726 26.39 9.25C26.3298 9.92842 26.0068 10.5564 25.49 11C25.2695 11.1923 25.0122 11.3377 24.7336 11.4271C24.4551 11.5165 24.1612 11.5481 23.87 11.52C23.5984 11.4859 23.3366 11.3965 23.1009 11.2571C22.8653 11.1178 22.6608 10.9316 22.5 10.71C22.3456 10.516 22.2316 10.2931 22.1646 10.0544C22.0976 9.81568 22.0791 9.566 22.11 9.32001C22.1699 8.87734 22.3949 8.47368 22.74 8.19C22.8798 8.0799 23.0405 7.99922 23.2124 7.95282C23.3842 7.90642 23.5637 7.89527 23.74 7.92001C23.8986 7.9488 24.0497 8.00978 24.1838 8.09921C24.318 8.18865 24.4324 8.30464 24.52 8.44C24.5962 8.54752 24.6489 8.66984 24.6747 8.79904C24.7006 8.92825 24.6989 9.06146 24.67 9.19C24.6285 9.37989 24.5225 9.54954 24.37 9.67001C24.3123 9.71306 24.2481 9.74677 24.18 9.76999L23.76 9.89001L24.07 9.57001C24.1391 9.48899 24.178 9.38648 24.18 9.28C24.1777 9.18829 24.156 9.09811 24.1164 9.01538C24.0767 8.93265 24.02 8.85924 23.95 8.79999C23.8928 8.75916 23.8271 8.73169 23.7579 8.71957C23.6887 8.70746 23.6176 8.71103 23.55 8.73001C23.4425 8.73134 23.3376 8.76302 23.2474 8.82141C23.1571 8.8798 23.0852 8.9625 23.04 9.06C22.9612 9.20593 22.92 9.36917 22.92 9.535C22.92 9.70084 22.9612 9.86408 23.04 10.01C23.1788 10.2572 23.4027 10.4455 23.67 10.54C23.8659 10.6014 24.0738 10.6143 24.2758 10.5778C24.4778 10.5412 24.668 10.4561 24.83 10.33C25.1481 10.0819 25.3649 9.72637 25.44 9.32999C25.5295 8.84788 25.4292 8.34985 25.16 7.94C25.0044 7.71154 24.8032 7.51781 24.569 7.37103C24.3348 7.22425 24.0727 7.12759 23.7992 7.08719C23.5258 7.04678 23.247 7.06349 22.9803 7.13626C22.7137 7.20903 22.465 7.33631 22.25 7.51001C21.9778 7.70725 21.7487 7.95798 21.5767 8.24686C21.4048 8.53573 21.2936 8.85666 21.25 9.19C21.1641 9.90298 21.3616 10.6212 21.8 11.19C22.0324 11.4986 22.3264 11.7556 22.6633 11.9446C23.0002 12.1337 23.3726 12.2508 23.7571 12.2884C24.1416 12.326 24.5298 12.2833 24.8969 12.1631C25.264 12.0429 25.6022 11.8477 25.89 11.59C26.5734 11.0052 27.0006 10.176 27.08 9.28C27.163 8.33922 26.884 7.40222 26.3 6.66C25.994 6.28169 25.615 5.96893 25.1854 5.74042C24.7559 5.5119 24.2847 5.37229 23.8 5.32999H3.37999" fill="#5B748B"/>
</svg>
