<svg width="39" height="44" fill="none" xmlns="http://www.w3.org/2000/svg"><path fill-rule="evenodd" clip-rule="evenodd" d="M31.577.825a1.257 1.257 0 0 1 1.736.061l5.175 5.311a1.3 1.3 0 0 1 .147 1.633c-2.974 4.513-3.512 9.705-1.512 14.63 1.05 2.587 1.923 5.759.384 9.73-1.418 3.558-3.956 5.724-7.597 6.447-4.264.876-7.161 2.243-9.366 4.46a1.32 1.32 0 0 1-1.832.04l-.014-.014c-2.213-2.243-5.11-3.61-9.417-4.486-3.487-.697-5.974-2.734-7.41-6.06-1.358-3.25-1.307-6.344.206-10.108C4.102 17.534 3.564 12.351.59 7.83a1.304 1.304 0 0 1 .145-1.635L5.863.907A1.304 1.304 0 0 1 7.648.825c.026.026 2.564 2.27 5.538 2.27 3 0 5.538-2.321 5.563-2.347A1.303 1.303 0 0 1 20.456.73l.02.017c.025.026 2.563 2.346 5.537 2.346 3 0 5.538-2.243 5.564-2.269zm-3.366 25.22c.23-.136.504-.22.798-.22.881 0 1.595.713 1.606 1.606a1.606 1.606 0 0 1-3.213 0 .204.204 0 0 0-.178-.2l-3.916-.43a1.334 1.334 0 0 0-1.386.798l-1.596 3.61a.205.205 0 0 0 .084.241c.483.273.809.798.809 1.386a1.606 1.606 0 0 1-3.213 0c0-.588.326-1.113.809-1.386a.185.185 0 0 0 .084-.241l-1.596-3.61a1.354 1.354 0 0 0-1.386-.798l-3.916.43a.196.196 0 0 0-.178.2 1.606 1.606 0 1 1-1.606-1.606c.294 0 .566.084.797.22a.186.186 0 0 0 .252-.052l2.331-3.18a1.37 1.37 0 0 0 0-1.606l-2.33-3.18a.184.184 0 0 0-.252-.053c-.232.136-.504.22-.798.22a1.606 1.606 0 1 1 1.606-1.605c0 .094.084.178.178.189l3.916.43a1.334 1.334 0 0 0 1.386-.798l1.596-3.61a.205.205 0 0 0-.084-.242 1.597 1.597 0 0 1-.809-1.385 1.606 1.606 0 0 1 3.213 0c0 .588-.326 1.113-.809 1.385a.185.185 0 0 0-.084.242l1.596 3.61c.231.535.798.86 1.386.798l3.916-.43a.193.193 0 0 0 .178-.19 1.606 1.606 0 1 1 1.607 1.607c-.294 0-.567-.085-.798-.22a.186.186 0 0 0-.252.052l-2.331 3.18a1.37 1.37 0 0 0 0 1.605l2.33 3.18a.184.184 0 0 0 .253.053z" fill="#ED0035"/></svg>