<svg width="50" height="34" viewBox="0 0 61 41" fill="none" xmlns="http://www.w3.org/2000/svg"><path fill-rule="evenodd" clip-rule="evenodd" d="M43.9 31.45c-.025.075-.05.15-.1.25.062-.124.124-.209.209-.327.13-.18.269-.354.383-.545l.002-.004c.032-.052.063-.105.097-.155.155-.23.431-.34.642-.521l.087-.077c.191-.174.327-.405.544-.543a1.38 1.38 0 0 1 .493-.183c.1-.018.197-.031.293-.045.146-.021.293-.042.454-.078.064-.014.161-.016.217.018.074.044.09.106.15.168.076.08.153.045.229-.108.167-.25.403-.431.651-.542.097-.043.204-.06.299-.108.05-.025.1-.05.15-.05.1 0 .3 0 .5.1.144.072.132.144.115.254-.007.042-.015.09-.015.146v.2c0-.05.025-.1.05-.15.025-.05.05-.1.05-.15 0-.042.017-.118.045-.2.071-.214.258-.351.46-.447.271-.128.562-.264.824-.434.091-.06.214-.03.253.072.045.117.183.112.255.01.16-.223.353-.471.552-.686.07-.075.17-.12.261-.165.05-.025.1-.05.15-.05.264 0 .527 0 .723-.136a.315.315 0 0 1 .177-.064.31.31 0 0 1 .176.065c.13.092.22.043.35-.026a.335.335 0 0 1 .158-.039h.116c.1 0 .1.1.1.2 0 .092.097.151.17.096.257-.193.314-.444.23-.696-.096-.289-.193-.67.068-.966.02-.022.035-.052.023-.08a.084.084 0 0 0-.033-.037c-.029-.018-.065-.072-.09-.093a.089.089 0 0 1-.025-.112.338.338 0 0 0 .03-.097.525.525 0 0 0-.042-.22.637.637 0 0 1-.031-.195c0-.142.151-.284.31-.39a1.7 1.7 0 0 1 .398-.18l.612-.203a.352.352 0 0 0 .205-.178L56.4 22.6a.274.274 0 0 1 .228-.164c.187-.017.34.131.472.264a.31.31 0 0 0 .066.052c.15.084.29-.181.434-.277.143-.096.284-.045.455-.026l.067.006c.148.015.297.03.419.098.127.07.204.208.323.291.08.056.173.097.269.079a.258.258 0 0 0 .119-.072.651.651 0 0 1 .466-.19c.124 0 .233-.115.2-.234a1.579 1.579 0 0 0-.227-.518c-.078-.126-.24-.34-.101-.393a.318.318 0 0 1 .11-.016c.134 0 .223-.09.237-.208.016-.131-.067-.253-.09-.383-.016-.09-.005-.153.048-.205.11-.106.355-.063.355-.216 0-.154-.207-.241-.312-.353-.208-.223-.338-.432-.338-.835a.475.475 0 0 0-.197-.398c-.12-.09-.253-.202-.403-.202.055 0 .1-.045.093-.1a2.169 2.169 0 0 0-.036-.179c-.048-.215.245-.36.258-.58l.002-.038c.006-.153.163-.197.315-.209.073-.005.147-.016.22-.037.102-.029.186-.094.27-.157.09-.067.178-.133.178-.2 0-.062-.038-.124-.091-.209a3.82 3.82 0 0 1-.017-.028c-.048-.078-.182-.064-.191.028-.003.026-.009.021-.024.043-.185.266-.289.258-.577.066-.19-.095-.38-.19-.57-.371-.02-.018-.03-.057-.039-.083-.023-.076.014-.168.092-.187l.095-.023c.282-.07.542-.135.822-.064.046.012.2-.125.2-.172v-.15c0-.098.03-.194.084-.276l.284-.426c.1-.149-.007-.407-.142-.524a.367.367 0 0 0-.058-.041.552.552 0 0 1-.268-.483c0-.2.2-.2.3-.2.1 0 .2-.1.2-.2a.163.163 0 0 0-.035-.095c-.284-.39-.934-.22-1.365-.005-.324.162-.338-.504-.67-.651A.83.83 0 0 0 58 13.1h-.107a.49.49 0 0 1-.178-.038.455.455 0 0 0-.07-.022c-.173-.037-.37.086-.495-.04a1.34 1.34 0 0 0-.17-.152c-.05-.036-.08-.042-.116-.091-.053-.072-.078-.202-.128-.276-.016-.024-.031-.038-.048-.043-.032-.01-.071.004-.14.038a.457.457 0 0 0-.088.06c-.056.045-.13.09-.213.137-.112.061-.26-.024-.31-.142-.02-.046-.103-.073-.15-.055-.063.024-.125.024-.187.024-.3 0-.5-.2-.5-.4v-.059a.141.141 0 0 0-.142-.141.175.175 0 0 0-.102.038.339.339 0 0 1-.084.046c-.044.017-.09-.004-.128-.034a.31.31 0 0 0-.062-.039c-.142-.064-.371-.1-.482-.211-.05-.05-.1-.075-.15-.1-.104-.052-.233-.108-.305-.018a.193.193 0 0 0-.045.118c0 .5-.3.7-.8.5-.055-.027-.11-.063-.167-.099-.15-.096-.316-.201-.533-.201l-.098-.001c-.224-.008-.343-.208-.49-.377-.243-.277-.436-.752-.7-1.01L50.8 10.5c-.1-.1-.1-.2-.1-.3v-.059a.142.142 0 0 0-.142-.141.163.163 0 0 0-.102.039c-.045.037-.1.074-.156.111a3.11 3.11 0 0 0-.111.076c-.06.044-.137.072-.189.124-.054.054-.138.06-.213.073a3.286 3.286 0 0 1-.25.03 1.91 1.91 0 0 0-.5.095c-.265.102-.422.372-.651.54a1.26 1.26 0 0 1-.186.112c-.418.167-.347-.015-.254-.254.018-.047-.035-.09-.082-.07-.173.078-.269.027-.398-.042L47.4 10.8c-.156-.078-.19-.034-.245.036a.565.565 0 0 1-.034.041.159.159 0 0 1-.049.037c-.095.047-.211.008-.282-.071a2.387 2.387 0 0 0-.09-.093.979.979 0 0 1-.2-.25c-.1-.2-.2-.3-.4-.3-.063 0-.137.01-.214.02-.153.021-.32.044-.453-.006a.199.199 0 0 0-.07-.014.192.192 0 0 0-.111.041c-.034.025-.068.042-.102.059-.05.025-.1.05-.15.1a.447.447 0 0 0-.09.164c-.044.11-.177.173-.285.124-.148-.067-.325-.222-.325-.288 0-.136 0-.317-.093-.42-.099-.108-.307-.134-.307-.28a.65.65 0 0 0-.063-.269.359.359 0 0 1-.037-.131c0-.2 0-.3.2-.3.125 0 .172-.04.165-.093-.01-.08-.127-.092-.152-.17a1.343 1.343 0 0 0-.105-.248c-.02-.054-.032-.111-.063-.16a.413.413 0 0 1-.013-.02c-.035-.065-.062-.138-.099-.201-.028-.047-.055-.103-.083-.158-.05-.1-.1-.2-.15-.25-.1-.1-.15-.15-.15-.2 0-.05.05-.1.15-.2.057-.058.082-.082.092-.111.02-.054-.013-.114-.056-.151a.144.144 0 0 0-.047-.03C43.467 7 43.443 7 43.4 7c-.3 0-.5-.1-.5-.5a.65.65 0 0 0-.063-.269c-.029-.07-.099-.131-.175-.131h-.047c-.07 0-.128-.054-.193-.08-.064-.026-.141.01-.21.042l-.016.007a.568.568 0 0 0-.168.103.227.227 0 0 1-.064.045c-.33.155-.514.095-.555-.117-.01-.055-.054-.1-.109-.1-.05 0-.075.025-.1.05-.054.054-.135.031-.205.001a1.8 1.8 0 0 0-.39-.124c-.318-.057-.93.026-.676-.175l.114-.09a.755.755 0 0 1 .066-.044c.053-.033.091-.056.091-.118 0-.166-.19-.234-.296-.363-.075-.092-.078-.182-.04-.32a.92.92 0 0 0 .036-.24.483.483 0 0 0-.1-.323 2.454 2.454 0 0 0-.1-.104 1.15 1.15 0 0 1-.174-.204c-.019-.03-.062-.085-.08-.115-.059-.093.007-.172.11-.21a1.43 1.43 0 0 1 .294-.071c.314-.052.789-.273.63-.55a.495.495 0 0 0-.08-.1.949.949 0 0 1-.057-.064c-.069-.081-.152-.18-.303-.22a.507.507 0 0 1-.24-.116l-.117-.117A.966.966 0 0 1 39.4 1.7c0-.1-.025-.2-.05-.3a1.398 1.398 0 0 1-.05-.27.03.03 0 0 1 .03-.03c.025 0 .039-.032.02-.05a3.187 3.187 0 0 1-.254-.324c-.105-.146-.202-.281-.347-.39a.96.96 0 0 1-.092-.079 1.313 1.313 0 0 0-.26-.204c-.057-.034-.127-.02-.18.019a.486.486 0 0 1-.36.09c-.066-.008-.16.115-.158.18.002.035-.027.058-.061.055-.183-.017-.204-.115-.226-.213a.301.301 0 0 0-.062-.148c-.02-.02-.05-.003-.05.026a.037.037 0 0 1-.038.037 1.342 1.342 0 0 1-.293-.062L36.92.023c-.076-.021-.152.013-.226.04a.666.666 0 0 1-.18.034c-.063.004-.12.058-.165.103-.025.025-.05.05-.05.1a.054.054 0 0 0-.083-.045c-.228.152-.45.299-.624.395a.394.394 0 0 1-.199.05.862.862 0 0 1-.313-.047c-.06-.025-.11-.068-.167-.098-.164-.087-.375-.199-.592-.18-.061.005-.156-.024-.213-.002-.068.026-.136-.005-.2-.04A.233.233 0 0 0 33.8.3c-.037 0-.06.05-.045.083a.715.715 0 0 1 .044.259.057.057 0 0 1-.057.058.058.058 0 0 0-.055.04l-.247.74a.176.176 0 0 1-.167.12h-.04a.071.071 0 0 0-.055.025.595.595 0 0 0-.009.01c-.04.054-.16.095-.219.065-.06-.03-.15.014-.15.081v.031c0 .049-.042.086-.08.057a.684.684 0 0 1-.098-.102c-.049-.06-.098-.118-.154-.131-.098-.022-.268-.036-.268-.136 0-.2-.1-.2-.2-.2-.041 0-.1.017-.169.037a1.201 1.201 0 0 1-.331.063c-.174 0-.348 0-.521-.02-.257-.028-.679-.238-.679.02 0 .181-.285.13-.407-.004a.267.267 0 0 0-.209-.096h-.394a.11.11 0 0 0-.107.088c-.066.332-.091.458-.234.497-.08.022-.149.082-.149.165v.08a.07.07 0 0 1-.07.07.07.07 0 0 0-.05.02l-.171.171c-.072.072-.121.162-.175.248a1.36 1.36 0 0 1-.14.176c-.1.112-.194.217-.194.385 0 .05-.05.125-.1.2a1.74 1.74 0 0 0-.2.4l-.014.042c-.033.095-.026.213.064.258a.713.713 0 0 1 .097.055c.031.022.031.067.003.094a.534.534 0 0 1-.147.099c-.025.013-.023.082-.003.102.045.045.095.105.05.15a.459.459 0 0 0-.017.017c-.039.044.027.138.08.162a.221.221 0 0 1 .142.146A.69.69 0 0 1 28 5.2v.119c0 .116-.046.23-.15.281-.104.052-.22.118-.329.079A.32.32 0 0 1 27.4 5.6c-.05-.05-.125-.1-.2-.15-.075-.05-.15-.1-.2-.15-.06-.06-.012-.12.036-.18.032-.04.064-.08.064-.12a.1.1 0 0 0-.1-.1h-.071a.189.189 0 0 1-.17-.122c-.155-.376-.425-.367-.7-.358a1.734 1.734 0 0 1-.278-.005c-.05-.006-.133.042-.155.089-.034.073-.091.096-.172.096H25.2c-.086 0-.172-.074-.258-.159a.14.14 0 0 1-.042-.1.141.141 0 0 0-.141-.141h-.1c-.088 0-.17.071-.209.15-.026.053-.128.086-.18.06l-.02-.01c-.06-.03-.15.014-.15.081V4.5c0 .074-.106.13-.179.116-.081-.016-.166-.016-.221-.016a.196.196 0 0 0-.069.014c-.095.036-.196.08-.25-.005-.047-.077-.106-.15-.131-.236a.616.616 0 0 1 .011-.381.591.591 0 0 0 .039-.192.644.644 0 0 0-.107-.28c-.052-.082-.149-.113-.245-.13a.634.634 0 0 1-.038-.009c-.13-.032-.267-.009-.31.119-.046.137-.182.191-.326.206-.173.019-.25.091-.476.372-.056.07-.044.169-.012.252l.009.029c.006.026-.006.052-.024.07a.098.098 0 0 1-.141 0 1.268 1.268 0 0 1-.197-.267c-.023-.04-.055-.077-.069-.122-.02-.067 0-.153.017-.227.014-.062-.033-.117-.09-.143a1.556 1.556 0 0 1-.041-.02c-.021-.01-.042-.021-.064-.03-.045-.019-.077.022-.094.069a.157.157 0 0 1-.034.052.08.08 0 0 1-.117 0l-.02-.02a.07.07 0 0 0-.121.05.07.07 0 0 1-.02.05l-.077.076c-.057.057-.169.067-.195-.008-.008-.022-.008-.047-.008-.089a.22.22 0 0 0-.08-.16c-.118-.107-.09-.186-.056-.279.031-.086-.039-.162-.13-.16-.235.007-.266.046-.424.285a.177.177 0 0 1-.022.026c-.053.053-.133.065-.206.05a1.688 1.688 0 0 0-.104-.018.576.576 0 0 1-.263-.08c-.11-.077-.16-.26-.293-.236a.484.484 0 0 0-.238.15.16.16 0 0 0-.05.127c.007.136.059.266.016.395a.773.773 0 0 0-.05.2c0 .03-.02.052-.045.067-.077.043-.166-.038-.205-.117-.047-.094-.025-.2-.002-.302.084-.382-.18-.552-.526-.642a.178.178 0 0 0-.045-.006.15.15 0 0 0-.126.06.82.82 0 0 0-.051.09c-.036.071-.12.045-.173-.015-.064-.073-.15-.04-.257 0a1.239 1.239 0 0 1-.138.047c-.06.015-.1-.047-.067-.099.051-.081.108-.149.18-.226.029-.03-.002-.07-.036-.048-.108.067-.209-.012-.209-.14v-.306a.095.095 0 0 0-.143-.085c-.118.068-.21.122-.357.122-.135 0-.224 0-.3-.03a1.134 1.134 0 0 1-.21-.122.349.349 0 0 0-.16-.075c-.088-.01-.216.016-.287-.037-.05-.037-.054-.067-.095-.113a.485.485 0 0 0-.21-.136c-.218-.072-.55.203-.627-.013A.222.222 0 0 1 14.5 1.9c0-.3-.2-.3-.4-.2-.2.1-.5-.1-.6-.3a3.855 3.855 0 0 0-.041-.08c-.097-.181-.36-.02-.56-.07a.405.405 0 0 1-.176-.102c-.092-.085-.135-.221-.26-.24a.63.63 0 0 0-.3.053 1.228 1.228 0 0 1-.984-.032c-.269-.121-.53-.377-.804-.264L10.3.7c-.55.275-1.1.298-1.65.146a1.888 1.888 0 0 0-.306-.057C8.164.769 7.953.747 7.8.9c-.05.05-.106.094-.163.137-.136.106-.272.212-.32.406-.02.085.044.197-.034.236-.038.019-.1.038-.13.065-.092.08-.197.143-.303.206-.125.075-.25.15-.35.25-.139.138-.187-.16-.35-.27-.073-.05-.16-.043-.25-.036a1.075 1.075 0 0 1-.1.006h-.6c.053 0 .078.028.09.069.023.081.08.203.102.285.017.06-.013.073-.038.13-.075.172-.037.344.002.516.014.066.029.132.037.199a.21.21 0 0 1-.065.173.269.269 0 0 1-.063.046c-.153.082-.226.164-.058.245.06.029.15.047.172.11.033.09-.007.17-.035.26-.038.117-.019.192.056.267.065.065.13.13.223.168.062.025.107.122.077.182a.188.188 0 0 0 .064.227c.125.082.172.193.118.31-.037.082-.084.168-.034.243.038.056.095.113.152.17a.594.594 0 0 1 .094.131c.022.038.047.08.084.13.071.095.138.205.222.289.086.086.073.252-.047.238a.497.497 0 0 1-.14-.05c-.06-.028-.137-.09-.2-.067l-.004.002c-.058.022-.109.078-.109.14v.049c0 .025.006.05.017.072.05.094.116.205.183.316.115.19 0 .467.042.686.006.03.014.06.026.09.018.05.056.09.082.137.04.075.007.137-.15.137-.067 0-.089.045-.096.134a.532.532 0 0 1-.115.29c-.097.12-.166.249-.228.405-.03.078-.137.108-.211.071-.108-.054-.198-.14-.305-.194-.137-.069-.225-.063-.326.04-.089.09-.105.228-.157.344a.47.47 0 0 1-.055.092c-.061.082-.166.122-.257.168-.095.047-.202.038-.307.02-.367-.063-.466-.013-.643.43-.1.3-.3.5-.6.7-.14.07-.23.188-.306.287a1.119 1.119 0 0 0-.14.252c-.128.307-.391.461-.654.461-.05 0-.075.025-.1.05-.052.052-.13.079-.18.134-.244.28-.376.623-.05.892a.077.077 0 0 1-.031.136c-.415.09-.524.193-.538.59-.002.065-.007.13-.014.194-.048.475.169.756.416 1.076l.097.128c.4.5.4.6-.2.8-.5.1-.7.6-.5 1.1.051.153.102.306.166.446.119.258.345.456.455.717.097.23.084.446-.095.7-.017.025-.038.047-.056.07a.216.216 0 0 0-.037.072c-.054.182.267.305.267.495 0 .233.102.432.207.637.075.147.151.296.193.463.09.269.34.457.607.637.06.041.132.063.205.063a.547.547 0 0 0 .169-.033.608.608 0 0 1 .619.133c.152.152.415.012.617.085A.507.507 0 0 1 4.1 21c.1.1.3.2.4.2h.1c.28.004.517.284.793.237.073-.013.14-.07.25-.181.037-.036.062-.12.107-.143.045-.023.07.007.106.043.13.134.225.259.043.314-.16.048-.333.189-.264.34.034.072.117.097.154.168L5.8 22c.044.088.148.12.23.174a.697.697 0 0 1 .204.21c.049.074.076.16.118.239.11.205.293.277.548.277.3 0 .4-.2.4-.5 0-.2.1-.3.3-.3.224 0 .345-.257.563-.306a.633.633 0 0 1 .217-.002c.04.004.08.008.12.008h1c.067 0 .144.011.222.022.156.022.311.045.378-.022.15-.15.3-.131.45-.113.1.013.199.027.297.048.16.035.23.024.302-.095.129-.212.154-.473.272-.69.129-.239.336-.378.62-.369.107.003.214.016.309-.031l.02-.01c.079-.039.165-.076.239-.122.088-.055.105-.176.18-.247.078-.071.17-.071.311-.071.265 0 .327-.545.559-.416a.697.697 0 0 1 .141.116c.188.188.287.2.381.035a.3.3 0 0 1 .047-.063c.046-.046.11-.075.173-.063a.452.452 0 0 1 .204.102c.066.055.133.111.214.142.32.123.481.005.481-.353 0-.043.047-.068.083-.045.09.058.148.088.204.084.064-.005.126-.054.231-.158.053-.051.13-.083.182-.031.052.052.133.022.17-.042l.03-.058c.043-.086.15-.08.21-.005a.87.87 0 0 0 .162.176c.138.097.26.279.428.279.075 0 .15.113.183.212a.39.39 0 0 0 .08.152.21.21 0 0 0 .086.052l.064.02c.197.059.335.1.375.314.015.082.08.15.162.15.083 0 .159.067.196.141a.345.345 0 0 0 .004.009l.02.04c.026.057.085.105.13.06.052-.052.124-.086.185-.128a.112.112 0 0 1 .026-.014c.022-.008.047-.008.089-.008.1 0 .1.1.1.2v.069c0 .085.127.14.212.134.053-.005.09.04.105.091.009.033.02.07.033.106.024.072.14.105.188.046l.053-.064c.117-.145.313-.246.479-.16l.017.01c.133.07.3-.008.433.06.065.032.095.108.13.195l.032.076a3.186 3.186 0 0 0 .356.692c.071.11.224.089.314-.006.03-.033.077-.043.114-.07.013-.008.023-.018.034-.029.025-.025.05-.05.1-.05.062 0 .085.038.118.091.02.033.044.07.082.109a.556.556 0 0 1 .082.109l.007.011c.05.08.163.093.23.16.042.041.054.083.043.124a.444.444 0 0 1-.112.196c-.052.052-.02.129.023.189l.028.04a.319.319 0 0 1 .002.343l-.012.019c-.08.13-.047.285-.068.437-.018.128-.085.237-.148.34a2.287 2.287 0 0 0-.075.132c-.141.211-.133.373-.046.555.073.152.27.12.421.195a.11.11 0 0 1 .041.04c.084.124.052.283.118.419.028.06.086.117.125.171.102.142.149.216.21.231.073.018.169-.053.412-.2a.078.078 0 0 1 .119.067v.152a.27.27 0 0 1-.036.13c-.148.275-.06.551.031.827a.086.086 0 0 1-.082.113h-.042a.07.07 0 0 0-.071.07.06.06 0 0 0 .022.05c.049.037.113.058.178.08l.062.021a.16.16 0 0 1 .088.229c-.025.05-.05.1-.05.15 0 .3.1.4.3.4.15 0 .206.187.299.305.075.095.165.095.3.095h.001s.1 0 .2.1c.2.2.2.4.2.7v.886c0 .137.057.266.169.345.071.051.154.11.24.184.06.052.147.101.118.176-.019.048-.082.082-.132.066a.433.433 0 0 0-.325.019.673.673 0 0 1-.37.037.293.293 0 0 1-.23-.221 3.24 3.24 0 0 0-.092-.27c-.026-.071-.13-.071-.158-.001-.05.128-.101.237-.151.34-.04.082-.134.132-.215.09-.186-.097-.213-.284-.242-.476l-.013-.083c-.023-.137-.176-.138-.238-.014l-.04.08c-.05.1-.186.097-.221-.008l-.016-.047c-.018-.052-.115-.042-.147.003-.02.028-.037.053-.037.094 0 .1 0 .2-.1.3a.33.33 0 0 1-.104.072c-.101.043-.196-.062-.196-.172v-.5c0-.05-.025-.075-.05-.1-.045-.045-.119-.102-.143-.042a.1.1 0 0 0-.003.012c-.005.02-.008.04-.018.057-.045.081-.09.124-.147.147-.147.06-.333-.031-.47.05a.423.423 0 0 0-.108.092c-.13.155-.074.383-.049.584.025.2.086.417.218.57l.023.028c.037.041.074.085.107.134.029.043.05.071.027.118-.023.047-.111.062-.158.086-.288.156-.32.256-.259.468.018.064.03.13.03.196v.132a.168.168 0 0 1-.168.168.175.175 0 0 1-.062-.012c-.474-.184-.57-.078-.57.412v.2c0 .3-.1.4-.3.4a.409.409 0 0 0-.137.02c-.181.065-.38.178-.5.329-.029.037-.022.102.004.218.02.089.056.173.092.257.05.115.08.23.032.346-.04.094-.15.126-.241.08-.05-.025-.1-.05-.15-.05-.128 0-.253.067-.381.074a.31.31 0 0 1-.173-.038.212.212 0 0 0-.105-.036.141.141 0 0 0-.141.141v.02c0 .026.006.05.016.073.034.076.055.152.075.22l.024.085c.036.112.036.26.122.34.035.032.086.028.13.046.157.063.287.151.404.232.08.055.154.106.229.143.06.03.13.06.206.094.07.03.144.062.222.099.205.097.466-.007.471-.233a.211.211 0 0 1 .046-.137c.085-.12.17-.108.255-.023.158.158.232.232.297.224.051-.006.096-.065.172-.177a.106.106 0 0 1 .087-.047c.028 0 .055.012.076.03.04.03.079.05.118.07.08.04.188.015.246-.053a.406.406 0 0 1 .29-.141.324.324 0 0 0 .195-.087.252.252 0 0 1 .042-.034c.292-.19.585-.277.877.015a.556.556 0 0 1 .082.109c.053.086.158.131.241.19l.077.051c.138.092.34.18.323.345l-.008.059c-.007.042-.015.09-.015.146 0 .112.152.096.202-.004l.154-.309a.357.357 0 0 0 .04-.184c-.01-.145-.042-.263-.066-.353a.278.278 0 0 0-.18-.182l-.019-.005c-.12-.035-.188-.224-.125-.332.045-.077.04-.182-.039-.222l-.017-.009c-.101-.05-.136-.167-.118-.278a9.89 9.89 0 0 0 .063-.47c.025-.21.048-.406.093-.602a.066.066 0 0 1 .064-.05c.029 0 .054.018.062.046.023.09.032.186.042.285.017.179.035.366.138.535.053.087.168.104.262.062.18-.08.391-.175.544-.328.1-.1.225-.2.35-.3l.021-.017c.225-.18.399-.417.62-.6.067-.054.138-.112.209-.183.05-.05.1-.125.15-.2.092-.139.223-.243.346-.355a3.8 3.8 0 0 0 .31-.331c.126-.146.277-.266.406-.409.22-.244.368-.55.503-.832.055-.114.09-.24.13-.36l.005-.013c.016-.049.032-.097.042-.139a.39.39 0 0 1 .045-.11.56.56 0 0 0 .06-.242c.003-.04.051-.06.08-.032a.044.044 0 0 0 .052.008c.042-.022.079-.043.114-.064.118-.067.21-.121.357-.121.117 0 .25-.03.385-.062.212-.048.432-.099.615-.038.44.088.725.021.923-.336.053-.096.026-.216-.023-.314l-.009-.018c-.027-.053.04-.09.086-.053.028.024.044 0 .07-.026l.01-.01c.06-.06.14-.007.097.067l-.054.09c-.05.082-.098.163-.14.252-.034.071.02.163.09.198.085.043.165-.014.212-.097.043-.078.09-.11.148-.113.091-.003.16.075.225.14.047.046.1.09.157.136.044.037.091.075.139.118a.07.07 0 0 0 .11-.02c.064-.14.09-.198.259-.114l.04.02c.09.28.305.28.46.28.1 0 .175.025.25.05a.799.799 0 0 0 .215.049c.03.03.057.065.083.107a.114.114 0 0 1-.037.154c-.236.16-.353.24-.711.24-.05 0-.1.025-.15.05-.061.03-.1.127-.055.178.097.114.174.136.265.086.095-.052.204-.08.306-.043l.084.029c.058.02.116.039.186.07.043.019.08.047.114.08a.46.46 0 0 0 .113.082l.112.058c.277.15.41.61.725.61.05 0 .1.025.15.05.094.047.197.08.299.106.15.038.3.02.451-.056.108-.054.245-.108.396-.146.26-.067.54-.12.804-.076.051.008.103.017.155.02.03.002.059.01.086.022.123.056.203.062.238-.04.021-.064.111-.11.171-.08.05.025.1.05.15.1a.141.141 0 0 0 .2 0c.055-.055.145-.055.215-.018l.035.018c.05.025.1.05.15.1.05.05.1.075.15.1.107.054.205.131.323.152.11.018.232.02.32-.002.142-.035.038-.237.113-.363a.334.334 0 0 1 .116-.103c.037-.024.13-.029.155.007.16.225.145.491.13.726-.007.117.042.232.154.267.026.009.055.017.084.025.045.013.093.026.141.043.048.017.048.078.001.097a5.59 5.59 0 0 1-.619.207.218.218 0 0 0-.095.047c-.057.049-.12.097-.195.097h-.058a.429.429 0 0 0-.217.07c-.23.14-.73.33-1.095.468l-.241.092c-.112.044-.21.116-.317.17-.107.054-.176.161-.277.226a1.699 1.699 0 0 1-.078.046.745.745 0 0 0-.142.094c-.093.085-.183.234-.31.234a.194.194 0 0 0-.082.019 5.386 5.386 0 0 1-.117.053c-.12.054-.253.114-.374.193-.121.078-.246.155-.352.252a.46.46 0 0 0-.023.022c-.129.136-.18.392-.04.515a.69.69 0 0 0 .112.077.578.578 0 0 0 .283.069.544.544 0 0 0 .281-.072l.06-.037c.13-.08.282-.124.433-.145.313-.044.538.069.76.255.221.185.394.429.635.586.065.043.132.087.194.136.058.047.135.08.187.027.025-.025.05-.05.1-.05.088 0 .175-.039.255-.073.159-.07.33.006.462.12.046.04.09.083.13.13.118.135.214.295.262.468l.032.107c.032.1.06.203.07.307.02.175.04.365-.111.441-.226.15-.282.302-.253.496.021.138.064.277.039.414a.489.489 0 0 1-.03.104.849.849 0 0 1-.11.174c-.19.251-.377.573-.095.714.04.02.082.038.128.055.08.03.176.018.244.07.019.015.042.038.077.073.282.282.475.387.746.316a.434.434 0 0 1 .11-.016c.092 0 .177.045.26.084.105.05.21.034.317-.007.114-.044.212-.124.328-.164L40 40.5a.503.503 0 0 0 .2-.1c.05-.05.125-.1.2-.15l.036-.024c.063-.043.16-.007.19.065.022.054.1.054.118-.002.023-.075.04-.157.056-.239.025-.125.05-.25.1-.35.05-.1.125-.2.2-.3.05-.067.1-.133.142-.2.039-.06.108-.1.158-.15.054-.054.137-.063.21-.083l.087-.023c.089-.023.174-.045.248-.078.21-.09.408-.266.636-.266h.034a.518.518 0 0 0 .32-.126.53.53 0 0 1 .049-.035c.067-.042.148-.007.204.049l.084.084c.07.07.183.067.228-.022.025-.05.05-.1.1-.15l.43-.43a.241.241 0 0 1 .17-.07c.05 0 .125.025.2.05.034.011.068.023.1.032.054.015.109-.027.138-.076.04-.067.088-.145.004-.258a.19.19 0 0 1-.042-.112c0-.024.005-.047.019-.067.132-.189.591-.364.781-.269.075.05.156.094.238.137.145.08.292.158.401.273a.684.684 0 0 0 .47.181c.102-.009.206-.018.298-.089.068-.053.145-.102.232-.102.04 0 .08.01.116.026.074.034.134.054.195.074.06.02.12.04.194.073a.04.04 0 0 0 .056-.035c0-.02.017-.038.038-.042a.509.509 0 0 0 .112-.046c.094-.047.198-.077.298-.109.05-.016.101-.028.152-.041.158-.04.2-.219.128-.366-.164-.34-.075-.614.185-.784a.182.182 0 0 0 .087-.15c0-.11.09-.2.2-.2h.06a.14.14 0 0 0 .14-.14c0-.11-.125-.172-.235-.15-.1.02-.164-.017-.22-.066a.26.26 0 0 0-.106-.062c-.123-.032-.23-.032-.327-.032-.112 0-.212 0-.312-.05-.388-.194-.682-.012-.882.365a.264.264 0 0 1-.046.063.204.204 0 0 1-.173.064 1.527 1.527 0 0 1-.426-.156.131.131 0 0 1-.073-.118v-.181c0-.05-.066-.082-.11-.055-.088.055-.097.171-.13.27-.118.36-.371.531-.76.626-.066.016-.135.023-.2.044-.067.022-.133.045-.2-.022a6.462 6.462 0 0 0-.308-.284c-.188-.167-.361-.32-.492-.516-.6-.8-1.1-1.5-1.4-2.4a9.798 9.798 0 0 0-.07-.167c-.174-.413-.348-.825-.015-1.238a.27.27 0 0 1 .212-.095.306.306 0 0 0 .138-.033c.067-.034.134-.068.195-.102.168-.093.275-.26.387-.416l.01-.014.05-.07c.106-.152.352-.253.32-.07a.71.71 0 0 1-.01.044c-.009.038.03.104.064.123.066.038.08.118.053.19a2.855 2.855 0 0 0-.034.098zm-12-3.15c0 .28-.15.542-.1.817.052.29.176.621.3.683.1.05.175.1.25.15.145.097.319.037.483-.02a.228.228 0 0 1 .197.015c.05.028.081.09.062.144-.018.05 0 .111.054.11.125-.004.24-.019.318-.07a.392.392 0 0 1 .08-.045c.13-.049.243-.116.356-.184.118-.07.236-.141.374-.191a.125.125 0 0 1 .07-.001c.07.03.003.104-.068.136-.108.049-.21.121-.314.195-.196.138-.397.28-.647.274-.06-.002-.107.045-.065.087.025.025.05.05.05.1 0-.083.07-.097.15-.1a.05.05 0 0 1 .05.05c0 .028-.023.05-.05.056a1.38 1.38 0 0 0-.15.044.526.526 0 0 1-.386-.04 1.023 1.023 0 0 0-.45-.111.353.353 0 0 0-.264-.099c-.156 0-.27-.14-.417-.19l-.033-.01c-.064-.022-.129-.043-.21-.08-.063-.203.013-.422-.003-.633a1.067 1.067 0 0 0-.004-.04c-.013-.1-.062-.19-.086-.288a.566.566 0 0 1-.005-.024c-.05-.262.275-.417.41-.646a1.58 1.58 0 0 0 .048-.089zm-.3-.3c0 .05.025.075.05.1a.816.816 0 0 0 .16.133c.052.029.09.067.09.067a.3.3 0 0 1-.3-.3zm-.111-.106c.037.005.047-.053.023-.081-.016-.018-.002-.027.009-.048.085-.16 0-.293-.088-.432-.065-.103-.133-.21-.133-.333 0 .117.034.2.063.269.02.048.037.09.037.131v.094c0 .068-.03.13-.069.187-.082.123-.017.194.158.213zM25 13.235A6.943 6.943 0 0 1 31.935 6.3a6.943 6.943 0 0 1 6.935 6.935c0 1.564-1.097 4.142-3.261 7.662a75.668 75.668 0 0 1-3.203 4.767.586.586 0 0 1-.942 0 75.643 75.643 0 0 1-3.203-4.767C26.097 17.377 25 14.799 25 13.235zm2.97-.107a3.97 3.97 0 0 0 3.965 3.965 3.97 3.97 0 0 0 3.966-3.966 3.97 3.97 0 0 0-3.966-3.965 3.97 3.97 0 0 0-3.966 3.965z" fill="#ED0035"/></svg>