<svg width="40" height="40" fill="none" xmlns="http://www.w3.org/2000/svg"><path d="M0 27.886c0 .647.525 1.172 1.172 1.172h37.651c.647 0 1.171-.525 1.171-1.172a3.515 3.515 0 0 0-3.515-3.515H3.515A3.515 3.515 0 0 0 0 27.886zm12.732-13.591a1.173 1.173 0 0 0 0 2.344 1.173 1.173 0 0 0 0-2.344zm14.093 0c-.646 0-1.172.526-1.172 1.172 0 .646.526 1.172 1.172 1.172.646 0 1.172-.526 1.172-1.172 0-.646-.526-1.172-1.172-1.172zm-6.138-8.552a1.21 1.21 0 0 0-.856-.355h-7.286a1.21 1.21 0 0 0-.857.355c-.762.763-.222 2.067.857 2.067h7.286c1.079 0 1.619-1.304.856-2.067zm6.809 4.41H10a1.953 1.953 0 0 0-1.953 1.953v1.066c0 .49.397.887.887.887.352 0 .663-.214.856-.51a3.514 3.514 0 0 1 3.189-1.589c2.32.16 4.476 2.099 6.8 2.099 2.325 0 4.482-1.938 6.802-2.099a3.512 3.512 0 0 1 3.13 1.502c.238.342.603.597 1.02.597.63 0 1.125-.561.885-1.144a4.46 4.46 0 0 0-4.119-2.762z" fill="#ED0035"/><path d="M38.828 0H1.178C.53 0 .005.525.005 1.172L.002 15.786a6 6 0 0 0 6 6.002h27.994a6 6 0 0 0 6-5.998L40 1.172C40 .525 39.475 0 38.828 0zm-4.536 15.23c0 .648-.525 1.172-1.172 1.172-1.718 0-3.165 1.406-4.692 2.192a3.49 3.49 0 0 1-2.508.27c-2.089-.557-3.98-2.462-6.141-2.462-2.162 0-4.053 1.905-6.142 2.462a3.506 3.506 0 0 1-2.883-.494c-1.205-.824-2.42-1.968-3.88-1.968a1.172 1.172 0 0 1-1.172-1.171V8.98c0-.353.174-.74.361-.927l4.666-4.666c.22-.22.518-.343.829-.343h9.26c.31 0 .607.123.827.342l.001.001c.02.02 2.098 2.1 3.394 3.4a3.512 3.512 0 0 0 2.456 1.022 6.804 6.804 0 0 1 6.796 6.796v.625zm-6.447 18.008c-.42-.126-.74-.495-.74-.934a.903.903 0 0 0-.902-.903H13.796a.908.908 0 0 0-.908.909c0 .439-.317.808-.736.937a6.31 6.31 0 0 0-2.754 1.727c-1.043 1.111-1.666 2.55-1.666 3.848 0 .647.525 1.172 1.172 1.172H31.09c.648 0 1.172-.525 1.172-1.172 0-2.321-1.711-4.777-4.416-5.584z" fill="#ED0035"/></svg>