<svg width="41" height="42" fill="none" xmlns="http://www.w3.org/2000/svg"><path d="M40.53 16.601c-.195-1.722-3.768-.824-5.467-.296-.546.17-.923.655-.986 1.224l-.217 1.946c-.018.164-.197.254-.344.182a.24.24 0 0 1-.13-.16l-1.514-6.604c-.564-3.197-2.977-5.552-6.494-5.431h-8.6a.539.539 0 0 0-.515.433c-.072.333.171.66.511.66h9.214c2.053 0 3.934 1.321 4.448 3.502l1.578 6.327c.038.152-.08.29-.237.29H15.845a3.231 3.231 0 1 0 0 6.463h7.922a.722.722 0 1 1 0 1.445H12.829a.211.211 0 0 0 0 .422h10.816a.724.724 0 1 1 0 1.448h-8.31a2.715 2.715 0 1 0 0 5.43h6.525c1.9 0 3.44 1.54 3.44 3.439 0 1.397 1.728 2.532 3.86 2.532 2.13 0 3.856-1.134 3.856-2.532 0-2.31 1.865-4.211 2.785-6.33.197-.453.304-.942.304-1.451v-6.153c0-1.3.797-3.515 2.094-3.585l2.331-.126s.256-.814 0-3.075zm-7.31 10.087c0 .915-.742 1.656-1.657 1.656H27.91a1.656 1.656 0 1 1 0-3.312h3.654c.915 0 1.656.741 1.656 1.656z" fill="#ED0035"/><path d="M12.618 28.362v-1.27a.089.089 0 0 0-.177 0v1.27a.088.088 0 1 0 .177 0zm-.001-1.807v-1.39a.027.027 0 1 0-.055 0v1.39a.027.027 0 1 0 .055 0z" fill="#ED0035"/><path d="M14.97 6.488a7.479 7.479 0 0 0-.747-3.253c-.871-1.8-3.018-.743-3.018 1.256 0 .93-.496 1.788-1.3 2.253l-.56.322a3.719 3.719 0 0 1-3.721-.002l-.568-.328A2.597 2.597 0 0 1 3.76 4.488c0-1.997-2.145-3.051-3.015-1.254A7.456 7.456 0 0 0 0 6.488a7.49 7.49 0 0 0 4.075 6.661.053.053 0 0 1 .029.047v24.649a3.524 3.524 0 0 0 3.532 3.533 3.538 3.538 0 0 0 3.531-3.532l-.013-21.328c-.001-2.168 1.345-4.073 2.552-5.874a7.454 7.454 0 0 0 1.264-4.156zM8.414 39.409a1.351 1.351 0 0 1-1.912-.001A1.35 1.35 0 0 1 8.411 37.5c.529.529.53 1.382.003 1.909z" fill="#ED0035"/></svg>