<svg width="37" height="42" fill="none" xmlns="http://www.w3.org/2000/svg"><path fill-rule="evenodd" clip-rule="evenodd" d="M30.001.385a1.215 1.215 0 0 1 1.67.06L36.645 5.5a1.23 1.23 0 0 1 .14 1.554c-2.858 4.296-3.376 9.239-1.453 13.927 1.01 2.463 1.848 5.483.37 9.264-1.364 3.387-3.804 5.45-7.304 6.137-4.1.835-6.884 2.136-9.004 4.247a1.275 1.275 0 0 1-1.76.037l-.014-.012c-2.128-2.136-4.913-3.437-9.053-4.272-3.352-.663-5.743-2.602-7.123-5.769-1.306-3.093-1.257-6.04.197-9.623C3.59 16.294 3.072 11.359.213 7.055a1.233 1.233 0 0 1 .139-1.556L5.282.464A1.26 1.26 0 0 1 6.998.385c.024.025 2.464 2.16 5.323 2.16 2.884 0 5.324-2.209 5.348-2.233a1.26 1.26 0 0 1 1.64-.016l.02.016c.024.024 2.464 2.234 5.323 2.234 2.884 0 5.324-2.136 5.348-2.16zm-3.238 24.01c.222-.13.485-.21.767-.21.848 0 1.534.68 1.544 1.53 0 .849-.696 1.528-1.544 1.528a1.536 1.536 0 0 1-1.544-1.528c0-.1-.08-.18-.171-.19l-3.765-.41c-.565-.07-1.1.24-1.332.76l-1.534 3.437c-.03.08 0 .18.08.23.465.26.778.759.778 1.319 0 .849-.696 1.528-1.544 1.528-.858 0-1.544-.69-1.544-1.528 0-.56.313-1.06.777-1.32.08-.04.121-.14.08-.23l-1.533-3.436a1.304 1.304 0 0 0-1.332-.76l-3.765.41c-.1.01-.171.09-.171.19 0 .849-.697 1.528-1.545 1.528a1.536 1.536 0 0 1-1.544-1.528 1.536 1.536 0 0 1 2.311-1.32.18.18 0 0 0 .243-.05l2.24-3.027a1.295 1.295 0 0 0 0-1.529l-2.24-3.027c-.05-.08-.162-.1-.242-.05a1.536 1.536 0 0 1-2.311-1.319c0-.85.696-1.529 1.543-1.529.858 0 1.545.69 1.545 1.529 0 .09.08.17.171.18l3.764.41c.566.07 1.1-.24 1.333-.76l1.534-3.437c.03-.08 0-.18-.081-.23a1.518 1.518 0 0 1-.777-1.32c0-.848.696-1.528 1.544-1.528.858 0 1.544.69 1.544 1.529 0 .56-.313 1.059-.777 1.319a.176.176 0 0 0-.08.23l1.533 3.437c.222.51.767.82 1.332.76l3.765-.41a.185.185 0 0 0 .171-.18c0-.85.697-1.529 1.544-1.529.858 0 1.544.69 1.544 1.529a1.537 1.537 0 0 1-2.31 1.319.18.18 0 0 0-.243.05l-2.24 3.027a1.295 1.295 0 0 0 0 1.53l2.24 3.027c.05.08.162.1.242.05z" fill="#ED0035"/></svg>