<svg version="1.1" id="Слой_1" xmlns="http://www.w3.org/2000/svg" x="0" y="0" viewBox="0 0 360 360" xml:space="preserve"><style>.st1{fill:#fdbf00}.st2{fill:#2a2a29}</style><path d="M93.8 316c-13.5 0-24.4-11-24.5-24.5v-132h-30v162c0 13.5 11 24.4 24.5 24.5h232.5c13.5 0 24.4-11 24.5-24.5V316h-227zM47.1 125.6V84.2h-5.5c-13.5 0-24.4 11-24.5 24.5v36.9h117v-20h-87z" fill="#fcebb1"/><path class="st1" d="M180.3 84.2c-2.8 0-5.4-1.7-6.5-4.3-1.1-2.6-.5-5.6 1.5-7.6l61.6-61.6c14.2-14.2 37.3-14.2 51.5 0s14.2 37.3 0 51.5L269.2 82c-2.7 2.7-7.1 2.8-9.9.1-2.8-2.7-2.8-7.1-.2-9.9l19.3-19.8c8.8-8.8 8.8-23 .1-31.8s-23-8.8-31.7-.1l-61.6 61.6c-1.3 1.4-3 2.1-4.9 2.1z"/><path class="st1" d="M97.8 83.8c-1.9 0-3.6-.7-4.9-2l-5.1-5.1c-14.2-14.2-14.1-37.3.1-51.5s37.2-14.2 51.4-.1l46.6 46.6c2.7 2.7 2.7 7.2 0 9.9s-7.2 2.7-9.9 0L129.4 35c-8.8-8.8-23-8.8-31.7 0s-8.8 23 0 31.7l5.1 5.1c2 2 2.6 5 1.5 7.6-1.1 2.7-3.7 4.4-6.5 4.4z"/><path class="st2" d="M155.9 243.8c11.5 0 20.7-9.3 20.7-20.7s-9.3-20.7-20.7-20.7c-11.5 0-20.7 9.3-20.7 20.7 0 11.4 9.2 20.7 20.7 20.7zm0-27.5a6.7 6.7 0 1 1-6.7 6.7c-.1-3.7 3-6.7 6.7-6.7zm26.5 61.7c0 11.5 9.3 20.7 20.7 20.7 11.5 0 20.7-9.3 20.7-20.7s-9.3-20.7-20.7-20.7c-11.4 0-20.7 9.3-20.7 20.7zm27.5 0a6.7 6.7 0 1 1-13.4 0 6.7 6.7 0 0 1 13.4 0z"/><path class="st1" d="M10.1 159.5h15.2v162c0 21.2 17.2 38.4 38.5 38.5h232.5c21.2 0 38.4-17.2 38.5-38.5v-162H350c3.9 0 7-3.1 7-7v-43.9c0-21.2-17.2-38.4-38.5-38.5h-277C20.3 70.1 3.1 87.3 3 108.6v43.9c.1 3.9 3.3 7 7.1 7zm310.7 162c0 13.5-11 24.4-24.5 24.5H63.8c-13.5 0-24.4-11-24.5-24.5v-162h281.4v162zM228 84.2h90.5c13.5 0 24.4 11 24.5 24.5v36.9H228V84.2zm-79.9 0h66v61.4h-66V84.2zm-131 24.5c0-13.5 11-24.4 24.5-24.5h92.5v61.4h-117v-36.9z"/><path class="st2" d="M155.3 287.9c3.2 2.1 7.6 1.2 9.7-2l44-67.5c1.4-2.1 1.6-4.8.4-7-1.1-2.2-3.4-3.7-5.9-3.8-2.5-.1-4.9 1.1-6.3 3.2l-44 67.5c-2 3.2-1.1 7.5 2.1 9.6z"/></svg>