<svg data-name="Слой 1" xmlns="http://www.w3.org/2000/svg" viewBox="0 0 393 363.6"><path d="M119.09 13.97H89.16a8.78 8.78 0 0 0-7.43 4.07l-62 97.3h29.91l62-97.3a8.77 8.77 0 0 1 7.45-4.07zm-66.4 305.74a8.82 8.82 0 0 1-8.81-8.81V129.3H14v211.52a8.82 8.82 0 0 0 8.81 8.81h347.41a8.8 8.8 0 0 0 8.81-8.81v-21.11z" fill="#fcebb1"/><path d="M106.73 323.7H46.88a7 7 0 0 1-7-7v-33.9a7 7 0 0 1 7-7h59.85a7 7 0 0 1 7 7v33.92a7 7 0 0 1-7 6.98zm-52.87-14h45.88v-19.92H53.86zm177.55-19.92h-90.77a7 7 0 1 1 0-14h90.77a7 7 0 0 1 0 14zm-44.89 25.94h-45.88a7 7 0 0 1 0-14h45.88a7 7 0 1 1 0 14z" fill="#2a2a29"/><path d="M89.16.04A22.68 22.68 0 0 0 70 10.53l-68.87 108a.41.41 0 0 1-.05.09 7.73 7.73 0 0 0-.37.69c0 .05-.05.09-.07.14a7.79 7.79 0 0 0-.31.85v.11a6.85 6.85 0 0 0-.16.76v.22a6.54 6.54 0 0 0-.06.89v218.5a22.8 22.8 0 0 0 22.77 22.78h347.34A22.79 22.79 0 0 0 393 340.82v-218.5a6.8 6.8 0 0 0-.06-.9v-.21a6 6 0 0 0-.16-.76v-.12a6.66 6.66 0 0 0-.31-.85l-.07-.13a5.7 5.7 0 0 0-.37-.69.53.53 0 0 0-.06-.1L323 10.53A22.69 22.69 0 0 0 303.83.04zm-7.43 18a8.78 8.78 0 0 1 7.43-4.07h100.36v101.37H19.71zm65.64 111.26h98.25v85.74l-6.62-7.09a7 7 0 0 0-10.19 0l-13.6 14.51-13.61-14.51a7 7 0 0 0-10.19 0l-13.61 14.51-13.61-14.51a7 7 0 0 0-10.19 0l-6.63 7.09zm222.85 220.33H22.77a8.82 8.82 0 0 1-8.77-8.81V129.3h119.4v103.37a7 7 0 0 0 12.08 4.78l13.61-14.52 13.62 14.52a7 7 0 0 0 10.19 0l13.61-14.52 13.61 14.52a7 7 0 0 0 10.18 0l13.6-14.52 13.61 14.52a7 7 0 0 0 12.08-4.78V129.3H379v211.52a8.8 8.8 0 0 1-8.81 8.81zM311.27 18.04l62 97.3H203.48V13.97h100.35a8.79 8.79 0 0 1 7.44 4.07z" fill="#fdbf00"/></svg>