<svg id="Слой_1" data-name="Слой 1" xmlns="http://www.w3.org/2000/svg" viewBox="0 0 484 334"><defs><style>.cls-2{fill:#2a2a29}</style></defs><path d="M417 365H77a33 33 0 0 1-33-33V132c0-1 .1-1.9.1-2.9A33.05 33.05 0 0 0 14 162v200a33 33 0 0 0 33 33h340a33.05 33.05 0 0 0 32.9-30.1c-1 0-1.9.1-2.9.1z" transform="translate(0 -75)" fill="#fcebb1"/><path class="cls-2" d="M477 151.5h-54a7 7 0 0 1 0-14h54a7 7 0 0 1 0 14zm0 43h-50a7 7 0 0 1 0-14h50a7 7 0 0 1 0 14z" transform="translate(0 -75)"/><path class="cls-2" d="M7 191.5h420a7 7 0 0 0 0-14H7a7 7 0 0 0 0 14zm420 29H7a7 7 0 0 0 0 14h420a7 7 0 0 0 0-14zm-81.8 53.9a45.22 45.22 0 0 0-21 5.1 45.8 45.8 0 1 0 0 81.4 45.8 45.8 0 1 0 42-81.4 45.22 45.22 0 0 0-21-5.1zm-73.8 45.8a31.8 31.8 0 1 1 31.8 31.8 31.82 31.82 0 0 1-31.8-31.8zm73.8 31.7a32.24 32.24 0 0 1-8.1-1.1 45.69 45.69 0 0 0 0-61.4 31.75 31.75 0 0 1 16.2 61.4 28.24 28.24 0 0 1-8.1 1.1z" transform="translate(0 -75)"/><path d="M437 75H97a47.09 47.09 0 0 0-46.5 40H47a47.07 47.07 0 0 0-47 47v200a47.07 47.07 0 0 0 47 47h340a47.09 47.09 0 0 0 46.5-40h3.5a47.07 47.07 0 0 0 47-47V122a47.07 47.07 0 0 0-47-47zm-17 287a33 33 0 0 1-33 33H47a33 33 0 0 1-33-33V162a33 33 0 0 1 33-33h340a33 33 0 0 1 33 33zm50-40a33 33 0 0 1-33 33h-3V162a47.07 47.07 0 0 0-47-47H64.8A33 33 0 0 1 97 89h340a33 33 0 0 1 33 33z" transform="translate(0 -75)" fill="#fdbf00"/></svg>