<svg xmlns="http://www.w3.org/2000/svg" viewBox="0 0 354 354"><defs><style>.cls-2{fill:#2a2a29}</style></defs><g id="Слой_1" data-name="Слой 1"><path d="M207 324c-97.6 0-177-79.4-177-177A176.08 176.08 0 0 1 67.8 37.8 176.78 176.78 0 0 0 0 177c0 97.6 79.4 177 177 177a176.78 176.78 0 0 0 139.2-67.8A176.14 176.14 0 0 1 207 324z" fill="#fcebb1"/><path class="cls-2" d="M336.51 23.36a7 7 0 0 0-9.9-.22l-52.48 50.12-27.74-27.74a7 7 0 0 0-9.9 9.91L269.07 88a7 7 0 0 0 9.78.11l57.43-54.85a7 7 0 0 0 .23-9.9z"/><path d="M331.22 105.05a7 7 0 0 0-3.76 9.16A161.94 161.94 0 0 1 340 177c0 89.88-73.12 163-163 163S14 266.88 14 177 87.12 14 177 14a162.54 162.54 0 0 1 53.66 9 7 7 0 1 0 4.61-13.22A176.75 176.75 0 0 0 177 0C79.4 0 0 79.4 0 177s79.4 177 177 177 177-79.4 177-177a176 176 0 0 0-13.62-68.19 7 7 0 0 0-9.16-3.76z" fill="#fdbf00"/><path class="cls-2" d="M207.89 113v-9.55h-11.46V113h-38.86v-9.55h-11.46V113H95.79v137.56h162.42V113zm38.85 30.57v95.53H107.26V124.45h38.85V134h11.46v-9.56h38.86v7.65h11.46v-7.65h38.85z"/></g><path class="cls-2" d="M173.76 185.86a8.93 8.93 0 0 0-2.46-2.19 9.33 9.33 0 0 0-3.21-1.21 9.68 9.68 0 0 0 5.09-2.72 7.27 7.27 0 0 0 1.92-5.19 8.64 8.64 0 0 0-1-4.15 10.21 10.21 0 0 0-2.8-3.29 13.82 13.82 0 0 0-4.28-2.19 17.33 17.33 0 0 0-5.38-.81 21 21 0 0 0-3.77.35 21.42 21.42 0 0 0-3.64 1 15.55 15.55 0 0 0-3.21 1.61 10.17 10.17 0 0 0-2.44 2.19l5.46 6.31a7.24 7.24 0 0 1 1-1.33 8.43 8.43 0 0 1 1.61-1.29 9 9 0 0 1 2.17-1 9.69 9.69 0 0 1 2.83-.38 7 7 0 0 1 1.34.16 4.79 4.79 0 0 1 1.39.54 3.5 3.5 0 0 1 1.1 1 3.11 3.11 0 0 1-.3 3.64 5.48 5.48 0 0 1-2 1.36 12 12 0 0 1-3 .78 26.6 26.6 0 0 1-3.69.24h-1.76v7.12h1.76a21.69 21.69 0 0 1 7.73 1.07 3.67 3.67 0 0 1 2.71 3.53 3.34 3.34 0 0 1-.49 1.79 3.74 3.74 0 0 1-1.31 1.28 6.65 6.65 0 0 1-1.9.78 9.1 9.1 0 0 1-2.24.27 8.53 8.53 0 0 1-3.32-.59 8.7 8.7 0 0 1-2.3-1.37 7 7 0 0 1-1.42-1.57 6.71 6.71 0 0 1-.67-1.29l-4.44 5.83a10.93 10.93 0 0 0 4.68 5.11 15.51 15.51 0 0 0 7.63 1.74 23 23 0 0 0 5.29-.61 14.79 14.79 0 0 0 4.71-2 11.11 11.11 0 0 0 3.4-3.39 9 9 0 0 0 1.31-4.9 11 11 0 0 0-.53-3.4 9.88 9.88 0 0 0-1.57-2.83zm25.47-21.59h-8.72a8.34 8.34 0 0 1-.88.91 19.42 19.42 0 0 1-2.12 1.74 18.92 18.92 0 0 1-2.81 1.71 6.46 6.46 0 0 1-3 .78v7.86a7.19 7.19 0 0 0 2.41-.48 17.1 17.1 0 0 0 2.62-1.2 18.31 18.31 0 0 0 2.3-1.5 6.52 6.52 0 0 0 1.45-1.42v22.21H183v7.7h23v-7.7h-6.79z" id="Слой_2" data-name="Слой 2"/></svg>