<svg width="48" height="48" fill="none" xmlns="http://www.w3.org/2000/svg"><g clip-path="url(#clip0)" fill="#857F77"><path d="M39.975.8h-14.4a8 8 0 0 0-6.997 4.175c-1-.128-2.01-.18-3.018-.16A7.184 7.184 0 0 0 8.775 0h-1.6a7.2 7.2 0 0 0-1.6 14.215V17.6h-1.6v1.6h1.6v1.6h-1.6v1.6h1.6v23.2a2.4 2.4 0 0 0 4.8 0v-4h1.6v3.2h6.4V40h-1.6v-1.6h1.6v-4.8h-6.4v3.2h-1.6V22.4h1.6v-1.6h-1.6v-1.6h1.6v-1.6h-1.6v-3.386a7.153 7.153 0 0 0 3.105-1.58c.827.107 1.66.163 2.495.166a20.01 20.01 0 0 0 2.6-.182 8 8 0 0 0 7 4.182h14.4a8 8 0 1 0 0-16zm-31.2 36v8.8a.8.8 0 0 1-1.6 0V22.4h1.6v14.4zm0-16h-1.6v-1.6h1.6v1.6zm0-3.2h-1.6v-3.2h1.6v3.2zm4.8 20.8v-3.2h3.2v1.6h-1.6v4.8h1.6v1.6h-3.2V40h-3.2v-1.6h3.2zm.773-30.654c-.006.058-.017.115-.025.172-.015.122-.03.24-.054.362-.014.068-.031.134-.047.2-.025.108-.05.215-.08.32-.02.07-.045.138-.069.207-.034.1-.07.2-.11.298a5.544 5.544 0 0 1-.09.205 5.225 5.225 0 0 1-.41.745c-.042.063-.08.127-.128.188-.061.086-.126.17-.192.25-.048.06-.096.12-.147.177-.021.025-.044.048-.067.071l-.101-.016a14.252 14.252 0 0 1-.903-.195c-.097-.025-.189-.048-.279-.073l-.276-.08a9.953 9.953 0 0 1-.256-.08 3.71 3.71 0 0 1-.26-.097l-.149-.056c.168-.115.328-.242.48-.378.033-.028.061-.061.092-.09a4.835 4.835 0 0 0 .53-.59 4.71 4.71 0 0 0 .32-.48l.072-.117a4.75 4.75 0 0 0 .288-.64c.02-.057.036-.115.055-.173.057-.176.104-.356.14-.538a4.804 4.804 0 0 0 .093-.938 3.105 3.105 0 0 0-.045-.473V5.92A3.175 3.175 0 0 0 9.575 3.2a.8.8 0 0 0-.566.234L7.975 4.47 6.94 3.434a.8.8 0 0 0-.565-.234 3.2 3.2 0 0 0-3.2 3.2 4.806 4.806 0 0 0 4.8 4.8c.22-.002.441-.021.66-.057.026-.004.051 0 .08-.006.017.01.037.02.053.031.116.075.24.145.37.215l.136.08c.18.093.368.182.567.266.05.021.107.04.16.061.153.062.308.123.471.179.08.028.167.054.25.08.143.046.286.09.434.132.04.011.076.024.115.035a5.56 5.56 0 0 1-2.496.584h-1.6a5.6 5.6 0 0 1 0-11.2h1.6a5.59 5.59 0 0 1 5.421 4.224 5.6 5.6 0 0 1 .179 1.376c0 .183-.01.366-.027.546zM7.2 9.098c0 .026.007.05.013.08.02.117.05.233.09.344v.008a3.188 3.188 0 0 1-.55-.171c-.052-.022-.099-.052-.15-.076a3.183 3.183 0 0 1-.363-.197c-.061-.04-.117-.086-.175-.13a3.283 3.283 0 0 1-.279-.23 3.56 3.56 0 0 1-.515-.628 3.23 3.23 0 0 1-.171-.315c-.033-.068-.068-.134-.096-.204a3.224 3.224 0 0 1-.117-.38c-.016-.063-.038-.124-.051-.188a3.203 3.203 0 0 1-.061-.611 1.6 1.6 0 0 1 1.297-1.571L7.41 6.166a.8.8 0 0 0 1.131 0l1.337-1.337c.143.03.281.078.41.146a1.586 1.586 0 0 1 .42.3c.013.014.023.03.036.043.046.058.09.12.128.183l-.064.022c-.121.038-.23.08-.345.12-.183.064-.365.128-.534.198-.113.046-.217.096-.32.145a5.814 5.814 0 0 0-.726.382c-.13.078-.251.159-.366.24-.08.06-.16.12-.235.18-.106.086-.2.175-.292.266-.063.063-.127.125-.183.19a2.938 2.938 0 0 0-.218.297c-.043.064-.09.128-.126.193a2.286 2.286 0 0 0-.146.348c-.02.058-.05.113-.064.172a1.963 1.963 0 0 0-.05.844H7.2zm1.624-.515c.01-.024.027-.048.04-.072a1.09 1.09 0 0 1 .176-.248c.05-.057.104-.11.16-.16.034-.03.067-.06.104-.09.071-.058.152-.115.24-.172l.115-.08a5.79 5.79 0 0 1 .438-.245l.038-.018c.151-.073.315-.145.49-.216.061-.025.129-.048.193-.07.086-.033.177-.063.268-.094-.023.1-.045.2-.08.296-.006.02-.01.04-.017.059a3.22 3.22 0 0 1-.194.432c-.02.038-.044.074-.066.112-.06.101-.125.2-.196.294-.03.039-.058.08-.088.114a3.232 3.232 0 0 1-.284.302l-.042.043a3.12 3.12 0 0 1-.377.287c-.037.024-.08.045-.114.069-.104.062-.21.118-.32.169-.044.02-.088.04-.133.058-.029.012-.06.018-.09.03-.025-.026-.05-.048-.072-.075l-.026-.03a1.173 1.173 0 0 1-.135-.206l-.02-.045a.582.582 0 0 1-.057-.227.593.593 0 0 1 .05-.217zm8.83 1.257c.014.1.032.197.049.296.045.265.104.527.176.786.017.059.022.12.04.178-1.04.107-2.086.128-3.13.062.024-.035.04-.075.063-.11.14-.22.267-.445.382-.678.035-.07.07-.14.103-.212.128-.278.238-.564.33-.857.01-.036.017-.075.028-.112a7.169 7.169 0 0 0 .216-1.049 6.925 6.925 0 0 0 .017-1.744c.664 0 1.326.033 1.987.1-.018.059-.024.12-.04.179a7.91 7.91 0 0 0-.176.785c-.017.098-.035.197-.048.296a7.984 7.984 0 0 0-.076 1.04c.004.348.03.695.08 1.04zm22.32 5.36h-14.4a6.412 6.412 0 0 1-5.332-2.871c.027-.007.051-.016.08-.023.345-.084.673-.178.986-.282.114-.038.216-.08.325-.12.222-.08.436-.165.64-.256.048-.021.105-.038.151-.06h.005l.03.014c.133.072.271.136.413.188.045.018.093.032.139.048.112.036.227.066.342.09.047.01.094.02.142.028.159.027.319.042.48.044a3.2 3.2 0 1 0 0-6.4 3.161 3.161 0 0 0-2 .72 3.184 3.184 0 0 0-1.2 2.48c.002.216.026.432.073.644.007.034.011.067.02.1.048.197.116.39.202.575l.052.107c.018.036.043.094.069.139-.085.032-.173.064-.262.095-.13.045-.26.09-.4.131-.141.042-.283.08-.428.116-.145.036-.29.075-.44.109l-.147.029-.006-.016a6.325 6.325 0 0 1-.26-1.103 6.16 6.16 0 0 1 .495-3.556 6.413 6.413 0 0 1 5.832-3.77h14.4a6.4 6.4 0 1 1 0 12.8zm-17.6-6.4a1.58 1.58 0 0 1 .056-.393c.01-.04.028-.08.042-.12.03-.084.066-.167.11-.246l.031-.049c.09.069.175.144.255.224.019.02.032.038.049.057.057.065.109.135.153.21.014.024.028.048.038.071a.485.485 0 0 1 0 .49 1.355 1.355 0 0 1-.192.282c-.016.019-.03.037-.048.056-.08.08-.165.155-.255.224l-.032-.05a1.594 1.594 0 0 1-.109-.245c-.014-.04-.03-.08-.042-.12a1.539 1.539 0 0 1-.055-.391zm2.375-.315l-.021-.103a2.113 2.113 0 0 0-.112-.375 2.37 2.37 0 0 0-.143-.296c-.017-.03-.028-.06-.048-.09a2.939 2.939 0 0 0-.291-.392l-.011-.015c.03 0 .06.004.09.008.046.008.093.015.138.026.054.014.107.03.16.05a1.154 1.154 0 0 1 .273.13c.039.022.08.045.115.07.044.033.087.068.127.105.033.03.068.058.1.09.037.041.073.084.107.13.026.034.055.066.08.103.03.051.059.105.084.16.019.036.04.07.055.109.025.062.044.127.06.192.01.034.023.066.03.1.042.207.042.42 0 .627-.007.035-.02.067-.03.1a1.61 1.61 0 0 1-.06.193c-.016.038-.036.073-.055.109a1.71 1.71 0 0 1-.084.16c-.025.037-.054.069-.08.103-.034.045-.07.089-.108.13-.03.032-.066.06-.1.09-.04.037-.082.071-.126.104-.037.027-.08.048-.115.071-.048.03-.096.056-.146.08-.042.02-.085.035-.127.05a1.56 1.56 0 0 1-.16.05 2.095 2.095 0 0 1-.228.034l.011-.015a2.94 2.94 0 0 0 .291-.393c.018-.03.031-.06.048-.09a2.453 2.453 0 0 0 .186-.417c.029-.083.051-.168.069-.254.007-.034.015-.069.02-.102a1.89 1.89 0 0 0 0-.63v-.002z"/><path d="M39.976 4h-11.2v9.6h11.2a4.8 4.8 0 0 0 0-9.6zm0 8h-9.6V5.6h9.6a3.2 3.2 0 1 1 0 6.4z"/></g><defs><clipPath id="clip0"><path fill="#fff" d="M0 0h48v48H0z"/></clipPath></defs></svg>