<svg width="48" height="48" fill="none" xmlns="http://www.w3.org/2000/svg"><path d="M36 20H16a.8.8 0 1 0 0 1.6h20a.8.8 0 1 0 0-1.6zm-20-4.8h8a.8.8 0 1 0 0-1.6h-8a.8.8 0 1 0 0 1.6zm20 11.2H16a.8.8 0 1 0 0 1.6h20a.8.8 0 1 0 0-1.6zm0 6.4H16a.8.8 0 1 0 0 1.6h20a.8.8 0 1 0 0-1.6zm0 6.4H16a.8.8 0 1 0 0 1.6h20a.8.8 0 1 0 0-1.6z" fill="#857F77"/><path d="M39.2 11.669V0H4.8v44h4v4h34.4V15.669l-4-4zM32 6.73l7.2 7.2 1.269 1.269h-8.47V6.731zM6.4 42.4V1.6h31.2v8.469L31.53 4H8.8v38.4H6.4zm4 4V5.6h20v11.2h11.2v29.6H10.4z" fill="#857F77"/></svg>