<svg width="40" height="48" fill="none" xmlns="http://www.w3.org/2000/svg"><path d="M32 20H12a.8.8 0 1 0 0 1.6h20a.8.8 0 1 0 0-1.6zm-20-4.8h8a.8.8 0 1 0 0-1.6h-8a.8.8 0 1 0 0 1.6zm20 11.2H12a.8.8 0 1 0 0 1.6h20a.8.8 0 1 0 0-1.6zm0 6.4H12a.8.8 0 1 0 0 1.6h20a.8.8 0 1 0 0-1.6zm0 6.4H12a.8.8 0 1 0 0 1.6h20a.8.8 0 1 0 0-1.6z" fill="#C5A26D"/><path d="M35.2 11.669V0H.8v44h4v4h34.4V15.669l-4-4zM28 6.73l7.2 7.2 1.269 1.269H28V6.731zM2.4 42.4V1.6h31.2v8.469L27.531 4H4.801v38.4H2.399zm4 4V5.6h20v11.2h11.2v29.6H6.4z" fill="#C5A26D"/></svg>