<svg width="170" height="34" viewBox="0 0 170 34" fill="none" xmlns="http://www.w3.org/2000/svg">
<path d="M94.0331 20.9363H70.7277V17.4701H94.0331V7.07935H67.2736V10.5378H90.5867V14.004H67.2736V24.4025H94.0331V20.9363Z" fill="#F5F4F4"/>
<path d="M139.786 24.4025V7.07935H113.027V10.5378H136.332V14.004H113.027V17.4701H136.332V20.9363H113.027V24.4025H139.786Z" fill="#F5F4F4"/>
<path d="M63.8195 24.4035V7.08032H37.0599V10.5387H60.3731V14.0049H37.0599V17.4711H60.3731V20.9373H37.0599V24.4035H63.8195Z" fill="#F5F4F4"/>
<path d="M143.24 7.07935V10.5378H166.546V14.004H143.24V24.4025H170V20.9363H146.695V17.4701H170V7.07935H143.24Z" fill="#F5F4F4"/>
<path d="M106.119 11.4062L103.53 14.2986L100.941 11.4062H98.3527L102.239 15.7409L98.3527 20.0678H100.941L103.53 17.1832L106.119 20.0678H108.715L104.828 15.7409L108.715 11.4062H106.119Z" fill="#F5F4F4"/>
<path d="M30.1827 10.4918V6.99463L15.0914 15.7415L0 6.99463V10.4918L12.07 17.4862V20.9834L0 13.989V24.4806L15.0914 33.2275V33.212V33.2275L30.1827 24.4806V20.9834L18.1127 27.9778V24.4806L30.1827 17.4862V13.989L18.1127 20.9834V17.4862L30.1827 10.4918ZM3.02136 22.7359V19.2387L15.0991 26.2331V29.7303L3.02136 22.7359Z" fill="#F5F4F4"/>
<path d="M21.1264 1.74472L18.1128 0L6.03503 6.9944L9.0564 8.74688L21.1264 1.74472Z" fill="#F5F4F4"/>
<path d="M15.0913 12.2437L27.1613 5.2493L24.1477 3.49683L12.0699 10.4912L15.0913 12.2437Z" fill="#F5F4F4"/>
</svg>
