<svg width="37" height="37" fill="none" xmlns="http://www.w3.org/2000/svg"><path d="M25.256 19.712a.616.616 0 0 0-.616.616V35.11c0 .34-.276.616-.616.616H1.848a.616.616 0 0 1-.616-.616V1.848c0-.34.276-.616.616-.616h22.176c.34 0 .616.276.616.616v3.696a.616.616 0 1 0 1.231 0V1.848C25.871.828 25.044 0 24.023 0H1.848C.828 0 0 .827 0 1.848V35.11c0 1.021.827 1.848 1.848 1.848h22.176c1.02 0 1.848-.827 1.848-1.848V20.328a.616.616 0 0 0-.616-.616z" fill="#C5A26D"/><path d="M36.098 2.093a3.08 3.08 0 0 0-4.346-.01h.001l-4.056 4.055L6.49 27.347c-.006.005-.008.013-.014.019a.612.612 0 0 0-.117.174l-.005.01-2.608 6.087a.616.616 0 0 0 .809.81l6.086-2.61.01-.004a.597.597 0 0 0 .174-.117c.006-.006.014-.008.02-.014l21.207-21.207 4.055-4.055a3.08 3.08 0 0 0-.01-4.347zM5.482 32.71l1.649-3.847 2.198 2.198-3.847 1.649zm4.928-2.315l-2.613-2.613L28.134 7.446l2.613 2.613L10.41 30.396zM31.617 9.188l-2.613-2.613 1.006-1.007 2.614 2.614-1.007 1.006zm3.62-3.617h-.003l-1.742 1.742-2.61-2.616 1.742-1.74a1.848 1.848 0 0 1 2.614 2.614zm-14.909-.027H5.544a.616.616 0 1 0 0 1.232h14.784a.616.616 0 0 0 0-1.232zm.616 4.313a.616.616 0 0 0-.616-.616H5.544a.616.616 0 1 0 0 1.232h14.784c.34 0 .616-.276.616-.616zm-15.4 3.08a.616.616 0 1 0 0 1.231h11.088a.616.616 0 1 0 0-1.231H5.544z" fill="#C5A26D"/></svg>