<svg width="19" height="25" viewBox="0 0 19 25" fill="none" xmlns="http://www.w3.org/2000/svg">
<path d="M18.6138 25H0.386145C0.280444 25 0.179371 24.9576 0.106846 24.8826C0.0343213 24.8076 -0.00425583 24.7068 0.00037343 24.6031L0.868359 6.70533C0.878389 6.50306 1.04736 6.34473 1.25413 6.34473H17.7459C17.9519 6.34473 18.1216 6.50306 18.1316 6.70533L18.9996 24.6031C19.0042 24.7068 18.9664 24.8076 18.8931 24.8826C18.8199 24.9576 18.7188 25 18.6138 25ZM0.790433 24.2424H18.2088L17.3778 7.1023H1.62139L0.790433 24.2424Z" fill="#5FB46E"/>
<path d="M13.67 8.61742C13.4571 8.61742 13.2842 8.44773 13.2842 8.23864V4.47348C13.2842 2.425 11.5868 0.757576 9.49981 0.757576C7.41278 0.757576 5.71539 2.425 5.71539 4.47348V8.23864C5.71539 8.44773 5.54256 8.61742 5.32962 8.61742C5.11667 8.61742 4.94385 8.44773 4.94385 8.23864V4.47348C4.94385 2.00682 6.98766 0 9.49981 0C12.012 0 14.0558 2.00682 14.0558 4.47348V8.23864C14.0558 8.44773 13.8837 8.61742 13.67 8.61742Z" fill="#5FB46E"/>
</svg>
