<svg width="8" height="12" viewBox="0 0 8 12" fill="none" xmlns="http://www.w3.org/2000/svg">
<path d="M4 0C1.79439 0 0 1.94958 0 4.34593C0 7.31987 3.57961 11.6858 3.73201 11.8702C3.87516 12.0434 4.1251 12.0431 4.26799 11.8702C4.42039 11.6858 8 7.31987 8 4.34593C7.99996 1.94958 6.20559 0 4 0ZM4 6.53248C2.8903 6.53248 1.98752 5.5516 1.98752 4.34593C1.98752 3.14025 2.89032 2.15939 4 2.15939C5.10968 2.15939 6.01246 3.14028 6.01246 4.34595C6.01246 5.55162 5.10968 6.53248 4 6.53248Z" fill="white"/>
</svg>
