<svg width="30" height="25" viewBox="0 0 30 25" fill="none" xmlns="http://www.w3.org/2000/svg">
<path d="M27.6609 2.45574C26.0812 0.872146 23.9682 -3.63175e-06 21.711 -3.63175e-06C19.4885 -3.63175e-06 17.3989 0.848483 15.8269 2.38941L15.0156 3.18517L14.2036 2.38918C12.6318 0.848426 10.5425 -6.10352e-05 8.32072 -6.10352e-05C6.0982 -6.10352e-05 4.00863 0.848426 2.43691 2.38918C0.86543 3.92952 0 5.9776 0 8.15616C0 10.3347 0.86543 12.3828 2.43691 13.9231L12.8363 24.1168C13.437 24.7055 14.2259 24.9999 15.015 24.9999C15.8039 24.9999 16.593 24.7055 17.1936 24.1168L27.5259 13.9897C30.7712 10.8086 30.8317 5.63454 27.6609 2.45574ZM26.4365 12.9219L16.1042 23.0491C15.5036 23.6378 14.5262 23.6378 13.9256 23.049L3.52623 12.8553C2.24572 11.6001 1.54055 9.9313 1.54055 8.15611C1.54055 6.38091 2.24572 4.71208 3.52623 3.45689C4.80697 2.20142 6.50971 1.51002 8.32072 1.51002C10.131 1.51002 11.8334 2.20142 13.1142 3.45689L13.9267 4.25328L12.6826 5.47372C12.3819 5.76871 12.3821 6.24674 12.683 6.54149C12.8334 6.68881 13.0304 6.76245 13.2274 6.76245C13.4247 6.76245 13.6219 6.68858 13.7723 6.54109L16.9163 3.45683C18.1971 2.20136 19.8998 1.50996 21.7108 1.50996C23.55 1.50996 25.2718 2.22078 26.5593 3.5114C29.143 6.10154 29.0879 10.323 26.4365 12.9219Z" fill="#5FB46E"/>
</svg>
