<svg width="18" height="15" viewBox="0 0 18 15" fill="none" xmlns="http://www.w3.org/2000/svg">
<path d="M16.5966 1.47348C15.6487 0.523324 14.3809 3.4442e-05 13.0266 3.4442e-05C11.6931 3.4442e-05 10.4393 0.509126 9.49616 1.43368L9.00939 1.91114L8.52216 1.43354C7.57905 0.509092 6.32552 0 4.99243 0C3.65892 0 2.40518 0.509092 1.46215 1.43354C0.519258 2.35775 0 3.58659 0 4.89373C0 6.20087 0.519258 7.42972 1.46215 8.35393L7.70175 14.4701C8.06221 14.8234 8.53555 15 9.009 15C9.48234 15 9.95579 14.8234 10.3161 14.4701L16.5156 8.39387C18.4627 6.48518 18.499 3.38076 16.5966 1.47348Z" fill="white"/>
</svg>
