<svg width="15" height="15" viewBox="0 0 15 15" fill="none" xmlns="http://www.w3.org/2000/svg">
<g clip-path="url(#clip0)">
<path d="M8.00857 9.99555C7.75417 9.7718 7.34039 9.80551 7.11664 10.0599L4.75656 12.7204V2.08772C4.75656 1.73831 4.46844 1.4502 4.11903 1.4502C3.76961 1.4502 3.4815 1.73831 3.4815 2.08772V12.7204L1.12141 10.0599C0.867012 9.80551 0.483882 9.7718 0.229483 9.99555C-0.0249161 10.2499 -0.0586316 10.6331 0.165117 10.8875L3.64088 14.777C3.90141 15.0988 4.36116 15.0498 4.56652 14.777L8.07294 10.8875C8.29668 10.6361 8.26603 10.2193 8.00857 9.99555Z" fill="black"/>
<path d="M14.8347 4.12867L11.3895 0.239123C11.083 -0.0704464 10.6999 -0.0888366 10.4332 0.239123L6.92684 4.12867C6.70309 4.38307 6.7368 4.79685 6.9912 5.0206C7.38353 5.33323 7.77892 5.11868 7.88313 4.95623L10.2432 2.29577V12.8978C10.2432 13.2472 10.5313 13.5353 10.8807 13.5353C11.2302 13.5353 11.5183 13.2809 11.5183 12.9284V2.29883L13.8784 4.95929C14.1328 5.21369 14.5159 5.24741 14.7703 5.02366C15.0247 4.7662 15.0584 4.38307 14.8347 4.12867Z" fill="black"/>
</g>
<defs>
<clipPath id="clip0">
<rect width="15" height="15" fill="white"/>
</clipPath>
</defs>
</svg>
