<svg width="12" height="12" viewBox="0 0 12 12" fill="none" xmlns="http://www.w3.org/2000/svg">
<path d="M6.18646 11.7934C6.30757 11.9288 6.47331 12 6.63267 12C6.79203 12 6.95777 11.9288 7.07889 11.7934L11.8151 6.49963C11.9363 6.36426 12 6.18614 12 6.00089C12 5.81564 11.9363 5.63752 11.8151 5.50215L7.07888 0.208401C6.83028 -0.0694672 6.43506 -0.0694672 6.18645 0.208401C5.93785 0.48627 5.93785 0.928009 6.18645 1.20588L10.4765 6.00089L6.18646 10.7959C5.94422 11.0738 5.94422 11.5226 6.18646 11.7934Z" fill="white"/>
<path d="M5.81355 0.206619C5.69243 0.0712474 5.52669 1.98763e-07 5.36733 2.04177e-07C5.20797 2.09592e-07 5.04223 0.0712474 4.92112 0.206619L0.184862 5.50037C0.0637466 5.63574 1.63258e-07 5.81386 1.69552e-07 5.99911C1.75846e-07 6.18435 0.0637466 6.36248 0.184862 6.49785L4.92112 11.7916C5.16972 12.0695 5.56494 12.0695 5.81355 11.7916C6.06215 11.5137 6.06215 11.072 5.81355 10.7941L1.52351 5.99911L5.81355 1.2041C6.05578 0.926228 6.05578 0.477363 5.81355 0.206619Z" fill="white"/>
</svg>
