<svg width="34" height="16" viewBox="0 0 34 16" fill="none" xmlns="http://www.w3.org/2000/svg">
<g clip-path="url(#clip0)">
<rect width="34" height="16" fill="white"/>
<g filter="url(#filter0_d)">
<path d="M70 -4.99999C70 -2.23857 67.7742 6.20215e-06 65.0127 6.79674e-06C54.7911 8.99765e-06 32.3857 1.38125e-05 32 1.38125e-05C31.5 1.38125e-05 17.5 10 17 10C16.5 10 2.5 4.63309e-06 2 1.64352e-05C1.61597 2.54999e-05 -20.0051 2.59238e-05 -30.014 2.56328e-05C-32.7754 2.55525e-05 -35 -2.23855 -35 -4.99997L-35 -39C-35 -41.7614 -32.7614 -44 -30 -44L65 -44C67.7614 -44 70 -41.7614 70 -39L70 -4.99999Z" fill="white"/>
</g>
</g>
<defs>
<filter id="filter0_d" x="-50" y="-59" width="135" height="84" filterUnits="userSpaceOnUse" color-interpolation-filters="sRGB">
<feFlood flood-opacity="0" result="BackgroundImageFix"/>
<feColorMatrix in="SourceAlpha" type="matrix" values="0 0 0 0 0 0 0 0 0 0 0 0 0 0 0 0 0 0 127 0"/>
<feOffset/>
<feGaussianBlur stdDeviation="7.5"/>
<feColorMatrix type="matrix" values="0 0 0 0 0.489083 0 0 0 0 0.489083 0 0 0 0 0.489083 0 0 0 0.2 0"/>
<feBlend mode="normal" in2="BackgroundImageFix" result="effect1_dropShadow"/>
<feBlend mode="normal" in="SourceGraphic" in2="effect1_dropShadow" result="shape"/>
</filter>
<clipPath id="clip0">
<rect width="34" height="16" fill="white"/>
</clipPath>
</defs>
</svg>
