<svg width="26" height="26" viewBox="0 0 26 26" fill="none" xmlns="http://www.w3.org/2000/svg">
<path d="M26 14.5826C26 13.6856 25.269 12.9516 24.375 12.9516H23.837V2.0745C23.837 0.92766 22.907 0 21.76 0C21.206 0 20.688 0.21408 20.297 0.60655L18.962 1.94707L18.804 1.78906C18.677 1.66163 18.51 1.60557 18.332 1.63615L15.625 2.0796C15.427 2.1102 15.265 2.2529 15.199 2.4466C15.133 2.6403 15.184 2.8492 15.326 2.9971L18.576 6.356C18.677 6.463 18.82 6.5191 18.962 6.5191C19.012 6.5191 19.063 6.514 19.119 6.4987C19.312 6.4427 19.459 6.2847 19.495 6.0859L20.038 3.3691C20.074 3.1907 20.018 3.0073 19.891 2.8798L19.734 2.7218L21.069 1.3813C21.252 1.19271 21.501 1.09077 21.77 1.09077C22.313 1.09077 22.755 1.53421 22.755 2.0796V12.9516H1.625C0.7312 12.9516 0 13.6856 0 14.5826C0 15.337 0.507799 15.969 1.2035 16.1576L2.6 21.0661C3.057 22.6665 4.5145 23.793 6.1648 23.8236L5.4742 25.2151C5.3422 25.4852 5.4488 25.8114 5.718 25.9439C5.7992 25.9847 5.8805 26 5.9617 26C6.1598 26 6.3527 25.8879 6.4441 25.6993L7.3785 23.8236H18.627L19.561 25.6993C19.657 25.8879 19.845 26 20.043 26C20.125 26 20.206 25.9796 20.287 25.9439C20.556 25.8114 20.663 25.4852 20.531 25.2151L19.84 23.8236C21.491 23.7879 22.953 22.6665 23.41 21.0661L24.807 16.1576C25.492 15.969 26 15.3319 26 14.5826ZM18.627 4.8626L16.819 2.992L18.23 2.7626L18.911 3.4456L18.627 4.8626ZM1.625 14.0372H23.288H24.375C24.675 14.0372 24.918 14.2819 24.918 14.5826C24.918 14.8834 24.675 15.128 24.375 15.128H1.625C1.3254 15.128 1.0816 14.8834 1.0816 14.5826C1.0816 14.2819 1.3254 14.0372 1.625 14.0372ZM22.364 20.7653C22.034 21.9275 20.963 22.7379 19.759 22.7379H6.241C5.0375 22.7379 3.966 21.9275 3.6359 20.7653L2.341 16.2137H23.654L22.364 20.7653Z" fill="#2C77BB"/>
</svg>
