<svg width="26" height="26" viewBox="0 0 26 26" fill="none" xmlns="http://www.w3.org/2000/svg">
<path d="M4.522 16.3913V25.4348C4.522 25.7457 4.776 26 5.087 26H20.913C21.061 26 21.21 25.9435 21.316 25.8375C21.422 25.7315 21.478 25.5902 21.478 25.4348V22.0435V16.3913C24.135 15.2821 26 12.6609 26 9.6087C26 5.5603 22.701 2.26087 18.652 2.26087C18.532 2.26087 18.419 2.26793 18.306 2.275C16.964 0.87609 15.084 0 13 0C10.916 0 9.036 0.87609 7.694 2.275C7.581 2.26793 7.461 2.26087 7.348 2.26087C3.299 2.26087 0 5.5603 0 9.6087C0 12.6609 1.872 15.2821 4.522 16.3913ZM5.652 24.8696V22.6087H20.348V24.8696H5.652ZM6.804 3.4196C6.076 4.5571 5.652 5.8995 5.652 7.3478C5.652 11.3962 8.952 14.6957 13 14.6957C13.311 14.6957 13.565 14.4413 13.565 14.1304C13.565 13.8196 13.311 13.5652 13 13.5652C9.573 13.5652 6.783 10.7745 6.783 7.3478C6.783 3.9212 9.573 1.13043 13 1.13043C16.427 1.13043 19.217 3.9212 19.217 7.3478C19.217 7.6587 19.472 7.913 19.783 7.913C20.093 7.913 20.348 7.6587 20.348 7.3478C20.348 5.8995 19.924 4.5571 19.196 3.4196C22.368 3.6951 24.87 6.3658 24.87 9.6087C24.87 13.0353 22.079 15.8261 18.652 15.8261C18.341 15.8261 18.087 16.0804 18.087 16.3913C18.087 16.7022 18.341 16.9565 18.652 16.9565C19.239 16.9565 19.804 16.8788 20.348 16.7516V21.4783H5.652V16.7516C6.196 16.8788 6.761 16.9565 7.348 16.9565C7.659 16.9565 7.913 16.7022 7.913 16.3913C7.913 16.0804 7.659 15.8261 7.348 15.8261C3.921 15.8261 1.13 13.0353 1.13 9.6087C1.13 6.3658 3.632 3.6951 6.804 3.4196Z" fill="#2C77BB"/>
</svg>
