<svg width="26" height="22" viewBox="0 0 26 22" fill="none" xmlns="http://www.w3.org/2000/svg">
<path d="M25.492 0H0.507996C0.228996 0 0 0.2319 0 0.5152V3.0913C0 3.6941 0.304993 4.23 0.761993 4.5443V21.4848C0.761993 21.7681 0.990004 22 1.27 22H24.73C25.01 22 25.238 21.7681 25.238 21.4848V4.5443C25.7 4.23 26 3.6941 26 3.0913V0.5152C26 0.2319 25.771 0 25.492 0ZM1.01601 1.0304H24.984V3.0913C24.984 3.4881 24.664 3.8126 24.273 3.8126H20.602C20.323 3.8126 20.094 4.0445 20.094 4.3279C20.094 4.6112 20.323 4.8431 20.602 4.8431H21.531V6.5948H4.46899V4.8431H14.732C15.011 4.8431 15.239 4.6112 15.239 4.3279C15.239 4.0445 15.011 3.8126 14.732 3.8126H1.72701C1.33601 3.8126 1.01601 3.4881 1.01601 3.0913V1.0304ZM3.453 18.8726V20.9696H1.77699V4.8431H3.453V14.756C3.453 15.0393 3.682 15.2712 3.961 15.2712C4.24 15.2712 4.46899 15.0393 4.46899 14.756V7.6304H21.531V18.3574H19.373V17.1981C19.373 16.4304 18.759 15.8122 18.007 15.8122H15.661C16.164 15.06 16.413 14.3129 16.413 13.571C16.413 11.0412 13.396 9.0988 13.269 9.0164C13.107 8.9133 12.893 8.9133 12.731 9.0164C12.604 9.0988 9.588 11.0412 9.588 13.571C9.588 14.3129 9.841 15.0651 10.339 15.8122H7.993C7.236 15.8122 6.627 16.4356 6.627 17.1981V18.3574H3.961C3.682 18.3574 3.453 18.5841 3.453 18.8726ZM12.111 15.704C12.111 15.1939 12.629 14.6632 13 14.3593C13.371 14.6632 13.889 15.1939 13.889 15.704C13.889 15.74 13.889 15.771 13.884 15.807H12.121C12.111 15.771 12.111 15.74 12.111 15.704ZM14.838 15.1991C14.549 14.1222 13.416 13.3803 13.269 13.2876C13.107 13.1845 12.893 13.1845 12.731 13.2876C12.584 13.3803 11.456 14.1274 11.162 15.1991C10.847 14.7148 10.598 14.1532 10.598 13.5658C10.598 11.9841 12.325 10.5672 13 10.0726C13.858 10.6909 15.397 12.1077 15.397 13.5658C15.397 14.1532 15.153 14.7199 14.838 15.1991ZM18.007 16.8375C18.2 16.8375 18.357 16.9972 18.357 17.193V18.3522H7.64301V17.193C7.64301 16.9972 7.8 16.8375 7.993 16.8375H18.007ZM4.46899 19.3878H21.531V20.9696H4.46899V19.3878ZM24.223 20.9696H22.547V4.8431H24.223V20.9696Z" fill="#2C77BB"/>
</svg>
