<svg width="24" height="26" viewBox="0 0 24 26" fill="none" xmlns="http://www.w3.org/2000/svg">
<path d="M22.313 16.5774H22.428C23.31 16.4992 24 15.7564 24 14.8571C24 13.8797 23.233 13.0977 22.275 13.0977C22.083 13.0977 21.853 13.1368 21.661 13.215C21.316 13.215 21.048 13.4887 21.048 13.8406C21.048 14.1925 21.316 14.4662 21.661 14.4662C21.853 14.4662 22.006 14.388 22.121 14.2316C22.466 14.1534 22.812 14.4271 22.812 14.7789C22.812 15.0917 22.543 15.3654 22.236 15.3654H18.709V2.38496C18.709 0.89925 18.096 0.11729 16.907 0.0781998C14.875 -0.0391001 12.767 1.52737e-07 10.735 0.0391002C9.738 0.0391002 8.665 0.0781998 7.629 0.0781998C6.134 0.0781998 5.329 0.70376 5.291 1.91579C5.252 2.73684 5.252 3.5579 5.291 4.3789C5.291 4.7699 5.291 5.2 5.291 5.591V15.4045H1.72501C1.41901 15.4045 1.14999 15.1308 1.14999 14.818C1.14999 14.5053 1.41901 14.2316 1.72501 14.2316C1.76401 14.2316 1.84 14.2316 1.879 14.2707C1.994 14.4271 2.185 14.5053 2.377 14.5053C2.722 14.5053 2.99001 14.2316 2.99001 13.8797C2.99001 13.5278 2.72199 13.2541 2.41499 13.2541C2.18499 13.1759 1.95501 13.0977 1.72501 13.0977C0.767006 13.0977 0 13.8797 0 14.8571C0 15.8346 0.767006 16.6165 1.72501 16.6165H3.642V24.8271H1.72501C1.34201 24.8271 1.14999 25.1398 1.14999 25.4135C1.14999 25.6872 1.34201 26 1.72501 26H22.351C22.735 26 22.927 25.6872 22.927 25.4135C22.927 25.1398 22.735 24.8271 22.351 24.8271H20.396V16.6165L22.313 16.5774ZM15.297 16.5774V24.788H12.537V16.5774H15.297ZM11.425 16.5774V24.788H8.66499V16.5774H11.425ZM19.208 16.5774V24.788H16.447V16.5774H19.208ZM6.44099 2.73684C6.40299 1.95489 6.403 1.29023 7.246 1.21203C8.166 1.17293 9.086 1.17293 10.006 1.21203C10.466 1.21203 10.927 1.25113 11.387 1.25113H16.217C16.294 1.25113 16.409 1.25113 16.486 1.25113C16.677 1.25113 16.869 1.21203 17.022 1.25113C17.636 1.36842 17.636 1.7594 17.597 2.26767V15.4045H6.479V3.0887C6.441 2.97143 6.44099 2.85414 6.44099 2.73684ZM7.51401 16.5774V24.788H4.754V16.5774H7.51401Z" fill="#2C77BB"/>
</svg>
