<svg width="30" height="21" viewBox="0 0 30 21" fill="none" xmlns="http://www.w3.org/2000/svg">
<path d="M29.468 0H15.443C12.894 0 10.83 2.0243 10.83 4.5254V13.0929L4.241 4.6821C3.768 3.1541 2.337 2.1092 0.712997 2.0962C0.419997 2.0962 0.181 2.3313 0.181 2.6186V10.8596C0.181 11.1469 0.419997 11.382 0.712997 11.382C1.904 11.3755 3.023 10.8008 3.702 9.8474L9.71201 18.7937C10.551 20.1128 12.028 20.9095 13.613 20.9029H21.127C23.677 20.9029 25.74 18.8786 25.74 16.3776V9.8997C28.163 9.6319 29.993 7.6207 30 5.2306V0.5224C30 0.2351 29.76 0 29.468 0ZM24.675 16.371C24.675 18.2909 23.084 19.8516 21.127 19.8516H13.613C12.388 19.8516 11.25 19.2378 10.604 18.2191L4.108 8.5349C4.008 8.3912 3.841 8.2998 3.662 8.2998C3.642 8.2998 3.628 8.2998 3.608 8.2998C3.409 8.3194 3.24201 8.4435 3.16901 8.6263C2.85001 9.4556 2.131 10.0695 1.246 10.2654V3.1867C2.217 3.4022 2.98299 4.127 3.24899 5.0674C3.26899 5.1262 3.296 5.1849 3.336 5.2372L10.937 14.9409C11.117 15.1695 11.449 15.2152 11.682 15.0389C11.815 14.9409 11.889 14.7842 11.889 14.6275V4.5254C11.889 2.6055 13.479 1.0448 15.436 1.0448H24.668V16.371H24.675ZM25.74 3.1345H26.805V5.2241C26.805 5.8902 26.379 6.4779 25.74 6.6999V3.1345ZM28.935 5.2241C28.935 7.0395 27.571 8.5806 25.74 8.8418V7.7839C26.978 7.5358 27.87 6.4648 27.87 5.2241V2.6121C27.87 2.3247 27.63 2.0896 27.338 2.0896H25.74V1.0448H28.935V5.2241Z" fill="#2C77BB"/>
</svg>
