<svg width="25" height="25" viewBox="0 0 25 25" fill="none" xmlns="http://www.w3.org/2000/svg">
<path d="M20.554 4.8319V7.1429H20.344V1.05042H24.455C24.748 1.05042 25 0.79832 25 0.5042C25 0.21008 24.706 0 24.455 0H19.841C19.799 0 19.799 0 19.757 0C19.715 0 19.673 -1.56462e-07 19.631 0.0420198C19.589 0.0420198 19.547 0.0840302 19.547 0.0840302C19.547 0.0840302 19.505 0.08403 19.505 0.12605L1.67799 14.8319C1.55199 14.916 1.50999 15.042 1.50999 15.1681C1.50999 15.2941 1.552 15.4622 1.636 15.5462C1.804 15.7563 2.13901 15.7983 2.39101 15.6303L2.936 15.1261V20.5882H1.049C0.460996 20.5882 0 21.0504 0 21.6387V25H24.958V3.7815H21.602C21.015 3.7815 20.554 4.2437 20.554 4.8319ZM16.149 10.5042V4.2437L19.295 1.63866V7.1429H17.408C16.82 7.1429 16.359 7.605 16.359 8.1933V10.5042H16.149ZM5.24301 20.5882V18.2773H8.38901C8.97701 18.2773 9.43799 17.8151 9.43799 17.2269V14.916H12.584C13.171 14.916 13.633 14.4538 13.633 13.8655V11.5546H17.408V8.1933H20.554C21.141 8.1933 21.602 7.7311 21.602 7.1429V4.8319H23.909V23.9496H1.049V21.6387H4.19501C4.78201 21.6387 5.24301 21.1765 5.24301 20.5882ZM15.101 10.5042H13.633C13.045 10.5042 12.584 10.9664 12.584 11.5546V13.8655H12.374V7.3529L15.101 5.1261V10.5042ZM11.326 13.8655H9.43799C8.85099 13.8655 8.38901 14.3277 8.38901 14.916V17.2269H8.17999V10.7983L11.326 8.1933V13.8655ZM7.13101 17.2269H5.24301C4.65601 17.2269 4.19501 17.6891 4.19501 18.2773V20.5882H3.98499V14.2437L7.13101 11.6387V17.2269Z" fill="#2C77BB"/>
</svg>
