<svg width="20" height="34" viewBox="0 0 20 34" fill="none" xmlns="http://www.w3.org/2000/svg">
<path d="M20 15.3548V0H0V15.3548H7.36842V22.2771C7.36842 22.4696 7.26737 22.65 7.10421 22.7482C6.14211 23.3295 5.35 24.2003 4.84526 25.2258H4.73684V24.129H3.68421V25.2258H2.63158V30.7097H3.68421V31.8065H4.73684V30.7097H4.84474C5.82947 32.7201 7.81632 34 10 34C12.1837 34 14.1705 32.7201 15.1553 30.7097H15.2632V31.8065H16.3158V30.7097H17.3684V25.2258H16.3158V24.129H15.2632V25.2258H15.1547C14.65 24.2003 13.8579 23.3295 12.8958 22.7482C12.7326 22.65 12.6316 22.4696 12.6316 22.2771V15.3548H20ZM14.34 25.9941L14.4779 26.3231H16.3158V29.6135H14.4779L14.34 29.9425C13.5853 31.7406 11.8816 32.9032 10 32.9032C8.11842 32.9032 6.41474 31.7406 5.66 29.9419L5.52211 29.6129H3.68421V26.3226H5.52211L5.66 25.9935C6.06105 25.0383 6.76105 24.2228 7.63158 23.6969C8.11895 23.403 8.42105 22.859 8.42105 22.2766V15.3548H11.5789V22.2771C11.5789 22.8595 11.8811 23.4035 12.3684 23.6975C13.2389 24.2228 13.9389 25.0388 14.34 25.9941ZM1.05263 14.2581V5.48387H3.15789V10.098L6.0979 13.1613H13.9021L16.8421 10.098V5.48387V4.93548V4.3871H1.05263V3.29032H16.8421V2.19355H1.05263V1.09677H18.9474V2.19355H17.8947V3.29032H18.9474V4.3871H17.8947V5.48387H18.9474V14.2581H1.05263ZM13.1579 8.77419C13.1579 10.5888 11.7416 12.0645 10 12.0645C8.25842 12.0645 6.84211 10.5888 6.84211 8.77419C6.84211 6.95958 8.25842 5.48387 10 5.48387C11.7416 5.48387 13.1579 6.95958 13.1579 8.77419ZM12.7758 5.48387H15.7895V9.64394L13.4663 12.0645H12.7758C13.6532 11.26 14.2105 10.0848 14.2105 8.77419C14.2105 7.46355 13.6532 6.28835 12.7758 5.48387ZM5.78947 8.77419C5.78947 10.0848 6.34684 11.26 7.22421 12.0645H6.53368L4.21053 9.64394V5.48387H7.22421C6.34684 6.28835 5.78947 7.46355 5.78947 8.77419Z" fill="#ED0035"/>
<path d="M6.31445 27.9677C6.31445 30.0845 7.96761 31.8064 9.99866 31.8064C12.0297 31.8064 13.6829 30.0845 13.6829 27.9677C13.6829 25.851 12.0297 24.129 9.99866 24.129C7.96761 24.129 6.31445 25.851 6.31445 27.9677ZM12.6302 27.9677C12.6302 29.4796 11.4497 30.7097 9.99866 30.7097C8.54761 30.7097 7.36708 29.4796 7.36708 27.9677C7.36708 26.4558 8.54761 25.2258 9.99866 25.2258C11.4497 25.2258 12.6302 26.4558 12.6302 27.9677Z" fill="#ED0035"/>
</svg>
