<svg width="34" height="34" viewBox="0 0 34 34" fill="none" xmlns="http://www.w3.org/2000/svg">
<path d="M32.9032 11.0001V3.83871C32.9032 2.32681 31.6732 1.09677 30.1613 1.09677H22.9999C21.1332 0.389903 19.1118 0 17 0C14.8882 0 12.8668 0.389903 11.0001 1.09677H3.83871C2.32681 1.09677 1.09677 2.32681 1.09677 3.83871V11.0001C0.389903 12.8668 0 14.8882 0 17C0 19.1118 0.389903 21.1332 1.09677 22.9999V30.1613C1.09677 31.6732 2.32681 32.9032 3.83871 32.9032H11.0001C12.8674 33.6101 14.8887 34 17 34C19.1113 34 21.1332 33.6101 22.9999 32.9032H30.1613C31.6732 32.9032 32.9032 31.6732 32.9032 30.1613V22.9999C33.6101 21.1332 34 19.1118 34 17C34 14.8882 33.6101 12.8668 32.9032 11.0001ZM30.1613 2.19355C31.0683 2.19355 31.8065 2.93168 31.8065 3.83871V8.66232C30.2797 5.96206 28.0379 3.72026 25.3377 2.19355H30.1613ZM2.19355 3.83871C2.19355 2.93168 2.93168 2.19355 3.83871 2.19355H8.66232C5.96206 3.72026 3.72026 5.96206 2.19355 8.66232V3.83871ZM3.83871 31.8065C2.93168 31.8065 2.19355 31.0683 2.19355 30.1613V25.3377C3.72026 28.0379 5.96206 30.2797 8.66232 31.8065H3.83871ZM31.8065 30.1613C31.8065 31.0683 31.0683 31.8065 30.1613 31.8065H25.3377C28.0379 30.2797 30.2803 28.0379 31.8065 25.3377V30.1613ZM17 32.9032C8.23074 32.9032 1.09677 25.7687 1.09677 17C1.09677 8.23129 8.23074 1.09677 17 1.09677C25.7693 1.09677 32.9032 8.23129 32.9032 17C32.9032 25.7687 25.7693 32.9032 17 32.9032Z" fill="#ED0035"/>
<path d="M20.0161 19.3674L23.9283 21.1063C24.3489 21.2922 24.7947 21.3871 25.2537 21.3871C27.053 21.3871 28.5166 19.9235 28.5166 18.1248V12.6294C28.5166 11.4103 27.5251 10.4194 26.3061 10.4194C25.4336 10.4194 24.6406 10.9343 24.2864 11.7322L23.6672 13.1257C23.0925 14.4182 21.9804 15.3856 20.6418 15.793C20.4016 15.0713 19.9536 14.4451 19.3679 13.9844L21.1063 10.0722C21.2933 9.65218 21.3876 9.20579 21.3876 8.74624C21.3876 6.94753 19.924 5.48389 18.1247 5.48389H12.6299C11.4113 5.48389 10.4199 6.47537 10.4199 7.69389C10.4199 8.56692 10.9348 9.35934 11.7327 9.71414L13.1261 10.3333C14.4187 10.9074 15.3861 12.0196 15.7941 13.3587C15.0724 13.5989 14.4461 14.047 13.9855 14.6332L10.0733 12.8942C9.65212 12.7078 9.20628 12.6129 8.74728 12.6129C6.94802 12.6129 5.48438 14.0766 5.48438 15.8753V21.3707C5.48438 22.5897 6.47586 23.5807 7.69492 23.5807C8.56741 23.5807 9.36037 23.0657 9.71463 22.2678L10.3338 20.8744C10.9085 19.5818 12.0206 18.6145 13.3592 18.207C13.5994 18.9287 14.0474 19.555 14.6331 20.0156L12.8947 23.9278C12.7077 24.3479 12.6134 24.7942 12.6134 25.2538C12.6134 27.0525 14.0771 28.5161 15.8763 28.5161H21.3711C22.5897 28.5161 23.5811 27.5247 23.5811 26.3061C23.5811 25.4331 23.0662 24.6407 22.2683 24.2859L20.8749 23.6668C19.5823 23.0926 18.615 21.9805 18.207 20.6413C18.9292 20.4011 19.5554 19.9531 20.0161 19.3674ZM20.8392 17C20.8392 16.9578 20.8343 16.9167 20.8326 16.8744C22.5304 16.399 23.9475 15.1958 24.6691 13.571L25.2888 12.1775C25.4671 11.7761 25.8663 11.5161 26.3061 11.5161C26.9203 11.5161 27.4199 12.0157 27.4199 12.6294V18.1248C27.4199 19.3191 26.4481 20.2903 25.2537 20.2903C24.9488 20.2903 24.6527 20.2278 24.3741 20.1033L20.5667 18.411C20.7405 17.974 20.8392 17.4985 20.8392 17ZM13.1618 17C13.1618 17.0422 13.1667 17.0834 13.1684 17.1256C11.4706 17.601 10.0535 18.8042 9.33186 20.4291L8.71218 21.8225C8.53396 22.2239 8.13473 22.4839 7.69492 22.4839C7.08073 22.4839 6.58115 21.9843 6.58115 21.3707V15.8753C6.58115 14.6809 7.55289 13.7097 8.74728 13.7097C9.05218 13.7097 9.34831 13.7722 9.62689 13.8967L13.4343 15.589C13.2605 16.0261 13.1618 16.5015 13.1618 17ZM13.5714 9.33082L12.178 8.71169C11.776 8.53347 11.5166 8.13369 11.5166 7.69389C11.5166 7.08024 12.0162 6.58066 12.6304 6.58066H18.1252C19.3196 6.58066 20.2914 7.55185 20.2914 8.74624C20.2914 9.05169 20.2283 9.34727 20.1049 9.62585L18.4126 13.4333C17.9744 13.26 17.499 13.1613 17.0005 13.1613C16.9583 13.1613 16.9171 13.1662 16.8749 13.1679C16.3995 11.4701 15.1958 10.053 13.5714 9.33082ZM20.4296 24.6692L21.823 25.2883C22.225 25.4666 22.4844 25.8663 22.4844 26.3061C22.4844 26.9198 21.9848 27.4194 21.3706 27.4194H15.8763C14.6819 27.4194 13.7102 26.4482 13.7102 25.2538C13.7102 24.9483 13.7732 24.6528 13.8966 24.3742L15.589 20.5667C16.0266 20.74 16.502 20.8387 17.0005 20.8387C17.0427 20.8387 17.0839 20.8338 17.1261 20.8321C17.6015 22.5299 18.8052 23.947 20.4296 24.6692ZM17.0005 19.742C15.4886 19.742 14.2586 18.5119 14.2586 17C14.2586 15.4881 15.4886 14.2581 17.0005 14.2581C18.5124 14.2581 19.7424 15.4881 19.7424 17C19.7424 18.5119 18.5124 19.742 17.0005 19.742Z" fill="#ED0035"/>
<path d="M16.9998 2.1936C8.83542 2.1936 2.19336 8.83567 2.19336 17.0001C2.19336 25.1644 8.83542 31.8065 16.9998 31.8065C20.2221 31.8065 23.2854 30.7898 25.859 28.865L25.202 27.9864C22.8198 29.7682 19.9836 30.7097 16.9998 30.7097C9.4403 30.7097 3.29013 24.5596 3.29013 17.0001C3.29013 9.44054 9.4403 3.29038 16.9998 3.29038C24.5593 3.29038 30.7095 9.44054 30.7095 17.0001C30.7095 20.8963 29.0424 24.6221 26.1359 27.2225L26.8669 28.0396C30.0059 25.2319 31.8063 21.2084 31.8063 17.0001C31.8063 8.83567 25.1642 2.1936 16.9998 2.1936Z" fill="#ED0035"/>
<path d="M4.38681 3.29028H3.29004V4.38706H4.38681V3.29028Z" fill="#ED0035"/>
<path d="M30.7101 3.29028H29.6133V4.38706H30.7101V3.29028Z" fill="#ED0035"/>
<path d="M4.38681 29.6129H3.29004V30.7097H4.38681V29.6129Z" fill="#ED0035"/>
<path d="M30.7101 29.6129H29.6133V30.7097H30.7101V29.6129Z" fill="#ED0035"/>
</svg>
