<svg width="34" height="27" viewBox="0 0 34 27" fill="none" xmlns="http://www.w3.org/2000/svg">
<path d="M31.2581 0H2.74194C1.23012 0 0 1.23603 0 2.7551V15.9796C0 17.4987 1.23012 18.7347 2.74194 18.7347H4.81767C5.07687 19.0627 5.41318 19.3067 5.71254 19.5233C6.26709 19.9239 6.58065 20.1739 6.58065 20.66C6.58065 21.1465 6.26709 21.3967 5.71201 21.7973C5.12185 22.2243 4.3871 22.7549 4.3871 23.83C4.3871 24.9052 5.12185 25.4363 5.71201 25.8627C6.26709 26.2633 6.58065 26.5136 6.58065 27H7.67742C7.67742 25.9249 6.94267 25.3943 6.35251 24.9678C5.79743 24.5667 5.48387 24.3159 5.48387 23.83C5.48387 23.3441 5.79743 23.0933 6.35251 22.6927C6.94267 22.2657 7.67742 21.7344 7.67742 20.66C7.67742 19.5854 6.94267 19.0549 6.35251 18.6284C5.79743 18.2278 5.48387 17.9776 5.48387 17.4917C5.48387 17.0066 5.79743 16.7566 6.35197 16.3565C6.94267 15.9306 7.67742 15.4006 7.67742 14.3265H6.58065C6.58065 14.7971 6.28021 15.0489 5.75646 15.4286H3.29032V13.2245H13.1613V15.4286H11.7317C11.9285 15.1353 12.0645 14.7818 12.0645 14.3265H10.9677C10.9677 14.8114 10.6542 15.0616 10.0996 15.4617C9.50895 15.8876 8.77419 16.4176 8.77419 17.4917C8.77419 18.566 9.50895 19.0968 10.0996 19.5233C10.6542 19.9239 10.9677 20.1739 10.9677 20.66C10.9677 21.1465 10.6542 21.3967 10.0991 21.7973C9.50895 22.2243 8.77419 22.7549 8.77419 23.83C8.77419 24.9052 9.50895 25.4363 10.0991 25.8627C10.6542 26.2633 10.9677 26.5136 10.9677 27H12.0645C12.0645 25.9249 11.3298 25.3943 10.7396 24.9678C10.1845 24.5667 9.87097 24.3159 9.87097 23.83C9.87097 23.3441 10.1845 23.0933 10.7396 22.6927C11.3298 22.2657 12.0645 21.7344 12.0645 20.66C12.0645 19.6715 11.4438 19.1447 10.885 18.7347H22.3661C22.6253 19.0627 22.9616 19.3067 23.2609 19.5233C23.8155 19.9239 24.129 20.1739 24.129 20.66C24.129 21.1465 23.8155 21.3967 23.2604 21.7973C22.6702 22.2243 21.9355 22.7549 21.9355 23.83C21.9355 24.9052 22.6702 25.4363 23.2604 25.8627C23.8155 26.2633 24.129 26.5136 24.129 27H25.2258C25.2258 25.9249 24.4911 25.3943 23.9009 24.9678C23.3458 24.5667 23.0323 24.3159 23.0323 23.83C23.0323 23.3441 23.3458 23.0933 23.9009 22.6927C24.4911 22.2657 25.2258 21.7344 25.2258 20.66C25.2258 19.5854 24.4911 19.0549 23.9009 18.6284C23.3458 18.2278 23.0323 17.9776 23.0323 17.4917C23.0323 17.0066 23.3458 16.7566 23.9004 16.3565C24.4911 15.9306 25.2258 15.4006 25.2258 14.3265H24.129C24.129 14.7971 23.8286 15.0489 23.3048 15.4286H20.8387V13.2245H30.7097V15.4286H29.2801C29.4769 15.1353 29.6129 14.7818 29.6129 14.3265H28.5161C28.5161 14.8114 28.2026 15.0616 27.648 15.4617C27.0573 15.8876 26.3226 16.4176 26.3226 17.4917C26.3226 18.566 27.0573 19.0968 27.648 19.5233C28.2026 19.9239 28.5161 20.1739 28.5161 20.66C28.5161 21.1465 28.2026 21.3967 27.6475 21.7973C27.0573 22.2243 26.3226 22.7549 26.3226 23.83C26.3226 24.9052 27.0573 25.4363 27.6475 25.8627C28.2026 26.2633 28.5161 26.5136 28.5161 27H29.6129C29.6129 25.9249 28.8782 25.3943 28.288 24.9678C27.7329 24.5667 27.4194 24.3159 27.4194 23.83C27.4194 23.3441 27.7329 23.0933 28.288 22.6927C28.8782 22.2657 29.6129 21.7344 29.6129 20.66C29.6129 19.6715 28.9922 19.1447 28.4334 18.7347H31.2581C32.7699 18.7347 34 17.4987 34 15.9796V2.7551C34 1.23603 32.7699 0 31.2581 0ZM13.1613 5.5102H9.87097V4.40816H5.48387V5.5102H3.29032V3.30612H13.1613V5.5102ZM8.77419 5.5102V6.61224H6.58065V5.5102H8.77419ZM3.29032 6.61224H5.48387V7.71429H9.87097V6.61224H13.1613V8.81633H3.29032V6.61224ZM3.29032 12.1224V9.91837H13.1613V12.1224H3.29032ZM9.8956 17.6327C9.88864 17.5853 9.87097 17.5439 9.87097 17.4917C9.87097 17.0827 10.105 16.8365 10.5077 16.5306H22.1794C22.0319 16.7956 21.9355 17.1075 21.9355 17.4917C21.9355 17.5417 21.9449 17.5848 21.9475 17.6327H9.8956ZM14.2581 15.4286V3.64674L15.7739 4.40816H18.2266L19.7419 3.64674V15.4286H14.2581ZM30.7097 8.81633H27.4194V7.71429H23.0323V8.81633H20.8387V6.61224H30.7097V8.81633ZM26.3226 8.81633V9.91837H24.129V8.81633H26.3226ZM30.7097 5.5102H20.8387V3.30612H30.7097V5.5102ZM20.8387 12.1224V9.91837H23.0323V11.0204H27.4194V9.91837H30.7097V12.1224H20.8387ZM32.9032 15.9796C32.9032 16.8909 32.165 17.6327 31.2581 17.6327H27.444C27.437 17.5853 27.4194 17.5439 27.4194 17.4917C27.4194 17.0827 27.6534 16.8365 28.0561 16.5306H30.7097C31.3146 16.5306 31.8065 16.0364 31.8065 15.4286V3.30612C31.8065 2.69833 31.3146 2.20408 30.7097 2.20408H20.161L17.9674 3.30612H16.0331L13.8395 2.20408H3.29032C2.68544 2.20408 2.19355 2.69833 2.19355 3.30612V15.4286C2.19355 16.0364 2.68544 16.5306 3.29032 16.5306H4.63103C4.48349 16.7956 4.3871 17.1075 4.3871 17.4917C4.3871 17.5417 4.39647 17.5848 4.39915 17.6327H2.74194C1.83501 17.6327 1.09677 16.8909 1.09677 15.9796V2.7551C1.09677 1.84382 1.83501 1.10204 2.74194 1.10204H31.2581C32.165 1.10204 32.9032 1.84382 32.9032 2.7551V15.9796Z" fill="#ED0035"/>
<path d="M16.9993 5.93127L14.4668 11.0204H19.5319L16.9993 5.93127ZM16.9993 8.39526L17.7571 9.91837H16.2416L16.9993 8.39526Z" fill="#ED0035"/>
</svg>
