<svg width="33" height="34" viewBox="0 0 33 34" fill="none" xmlns="http://www.w3.org/2000/svg">
<g clip-path="url(#clip0)">
<path d="M32.804 32.8048L31.5855 31.4232L31.9051 31.2065C32.8106 30.5835 33.1901 29.4932 32.8639 28.4299C32.5443 27.3667 31.6321 26.6759 30.5468 26.6759H28.1366C27.7504 26.6759 27.4375 26.9942 27.4375 27.387V33.2721C27.4375 33.4955 27.5041 33.6716 27.6439 33.8003C27.7704 33.9087 27.9435 33.9764 28.1299 33.9764C28.3896 33.9764 28.829 33.8274 28.829 33.2788V31.6332H29.8944L31.7586 33.7529C32.1248 34.166 32.5509 33.9764 32.744 33.7935C32.9837 33.5768 33.1435 33.1908 32.804 32.8048ZM31.3192 29.8724C31.1328 30.0891 30.8531 30.211 30.5402 30.211H28.829V28.0981H30.5402C31.2193 28.0981 31.5722 28.6331 31.5722 29.1545C31.5789 29.4254 31.4856 29.6828 31.3192 29.8724Z" fill="#ED0035"/>
<path d="M5.66669 32.7505C5.66669 33.0147 5.52021 33.4616 4.9809 33.4616H0.713039C0.253628 33.4616 0.0472256 33.0214 0.00727679 32.6083C-0.0925952 31.5044 0.819569 29.6624 3.73583 29.1138C4.08206 29.0529 4.30177 28.7414 4.27514 28.3824C4.24185 28.0235 3.96887 27.7662 3.62264 27.7662H0.713039C0.167072 27.7662 0.0272512 27.3192 0.0272512 27.0551C0.0272512 26.791 0.17373 26.344 0.713039 26.344H3.62264C4.90766 26.344 5.56682 27.2989 5.65338 28.247C5.73993 29.1951 5.25389 30.2651 3.98884 30.4954C3.87565 30.5157 3.76912 30.536 3.66259 30.5563C2.93686 30.6782 2.31099 30.7866 1.80497 31.4977L1.42546 32.0327H4.9809C5.52021 32.0462 5.66669 32.4932 5.66669 32.7505Z" fill="#ED0035"/>
<path d="M3.54251 0.711085V6.43363C3.54251 6.98895 3.10307 7.13117 2.8434 7.13117C2.65697 7.13117 2.48386 7.07022 2.35736 6.95509C2.21754 6.83319 2.15095 6.65711 2.15095 6.42686V1.4154H1.2854C0.746088 1.4154 0.599609 0.96843 0.599609 0.704313C0.599609 0.521462 0.659533 0.338612 0.772721 0.209939C0.892567 0.0744946 1.06568 0 1.2854 0H2.83674C3.22957 0 3.54251 0.318295 3.54251 0.711085Z" fill="#ED0035"/>
<path d="M19.1162 5.95957C18.75 6.6842 18.0509 7.11085 17.2586 7.11085H14.3889C13.8429 7.11085 13.7031 6.66388 13.7031 6.39977C13.7031 6.13565 13.8496 5.68868 14.3889 5.68868H17.2586C17.6581 5.68868 17.9577 5.38393 17.9577 4.9776C17.9577 4.57126 17.6581 4.25974 17.2586 4.25974H15.5141C14.9682 4.25974 14.8283 3.81277 14.8283 3.54865C14.8283 3.28454 14.9682 2.84434 15.5141 2.84434H17.2586C17.6581 2.84434 17.9577 2.53959 17.9577 2.13326C17.9577 1.72692 17.6581 1.4154 17.2586 1.4154H14.3889C13.8429 1.4154 13.7031 0.96843 13.7031 0.704313C13.7031 0.446968 13.8496 0 14.3956 0H17.2652C18.0642 0 18.7567 0.433423 19.1228 1.15128C19.489 1.87591 19.4358 2.70212 18.9764 3.35903L18.8432 3.55543L18.9764 3.75182C19.4291 4.40873 19.489 5.23494 19.1162 5.95957Z" fill="#ED0035"/>
<path d="M19.696 30.3329C19.696 30.597 19.5495 31.0439 19.0102 31.0439H18.0847V32.9537C18.0847 33.509 17.6453 33.6513 17.3856 33.6513C17.1259 33.6513 16.6865 33.5023 16.6865 32.9537V31.0439H13.9833C13.5971 31.0439 13.2842 30.7257 13.2842 30.3329V27.2515C13.2842 26.6962 13.7236 26.554 13.9833 26.554C14.243 26.554 14.6824 26.7029 14.6824 27.2515V29.6218H16.6865V27.2515C16.6865 26.6962 17.1259 26.554 17.3856 26.554C17.6453 26.554 18.0847 26.7029 18.0847 27.2515V29.6218H19.0102C19.5495 29.6218 19.696 30.0687 19.696 30.3329Z" fill="#ED0035"/>
<path d="M32.7655 4.9776C32.7655 5.53969 32.579 6.06793 32.2461 6.45394C31.8733 6.88737 31.334 7.11085 30.6815 7.11085H28.3378C27.7918 7.11085 27.652 6.66388 27.652 6.39977C27.652 6.13565 27.7985 5.68868 28.3378 5.68868H30.6815C31.081 5.68868 31.3872 5.38393 31.3872 4.9776C31.3872 4.57126 31.081 4.25974 30.6815 4.25974H28.3378C28.1381 4.25974 27.9516 4.1717 27.8185 4.02271C27.6853 3.86695 27.6254 3.67055 27.6454 3.46739L27.9783 0.623046C28.0116 0.27089 28.3112 0 28.6641 0H32.0863C32.6323 0 32.7721 0.446968 32.7721 0.711085C32.7721 0.900708 32.7122 1.08356 32.599 1.20546C32.4792 1.34768 32.3061 1.4154 32.0863 1.4154H29.2833L29.1168 2.84434H30.6748C32.113 2.84434 32.7655 3.95499 32.7655 4.9776Z" fill="#ED0035"/>
<path d="M30.181 9.3999C29.9214 9.3999 29.4819 9.54889 29.4819 10.0974V16.2805H20.1938L20.1273 16.0299C19.7877 14.6958 18.7557 13.6461 17.444 13.3007L17.1977 13.233V10.0974C17.1977 9.54212 16.7582 9.3999 16.4986 9.3999C16.179 9.3999 15.7995 9.58275 15.7995 10.0974V13.233L15.5531 13.3007C14.2415 13.6461 13.2095 14.6958 12.8699 16.0299L12.8033 16.2805H3.50856V10.0974C3.50856 9.54212 3.06912 9.3999 2.80946 9.3999C2.54979 9.3999 2.11035 9.54889 2.11035 10.0974V23.8857C2.11035 24.441 2.54979 24.5833 2.80946 24.5833C3.06912 24.5833 3.50856 24.4343 3.50856 23.8857V17.7027H12.8033L12.8699 17.9532C13.2095 19.2874 14.2415 20.3371 15.5531 20.6825L15.7995 20.7502V23.8857C15.7995 24.441 16.2389 24.5833 16.4986 24.5833C16.8182 24.5833 17.191 24.4004 17.191 23.8857V20.7502L17.4374 20.6825C18.749 20.3371 19.781 19.2874 20.1206 17.9532L20.1872 17.7027H29.4819V23.8857C29.4819 24.441 29.9214 24.5833 30.181 24.5833C30.4407 24.5833 30.8802 24.4343 30.8802 23.8857V10.0974C30.8802 9.54889 30.4407 9.3999 30.181 9.3999ZM16.4986 19.389C15.2002 19.389 14.1416 18.3122 14.1416 16.9916C14.1416 15.671 15.2002 14.5942 16.4986 14.5942C17.7969 14.5942 18.8556 15.671 18.8556 16.9916C18.8556 18.3189 17.7969 19.389 16.4986 19.389Z" fill="#ED0035"/>
</g>
<defs>
<clipPath id="clip0">
<rect width="33" height="34" fill="white"/>
</clipPath>
</defs>
</svg>
