<svg width="34" height="34" viewBox="0 0 34 34" fill="none" xmlns="http://www.w3.org/2000/svg">
<path d="M34 16.105L33.8141 14.3403L32.2589 13.7568L33.4428 12.5904L32.8945 10.903L31.2509 10.6552L32.1662 9.26884L31.2789 7.73171L29.62 7.83152L30.2271 6.28452L29.0398 4.96565L27.438 5.40819L27.7105 3.76961L26.2749 2.72603L24.7997 3.49213L24.7251 1.83161L23.1041 1.10994L21.8203 2.16394L21.4025 0.555516L19.6668 0.186452L18.6304 1.48558L17.8873 0H16.1127L15.3696 1.48613L14.3332 0.187L12.5975 0.556065L12.1797 2.16394L10.8959 1.10829L9.27487 1.82997L9.20029 3.49048L7.72513 2.72439L6.29 3.76852L6.56255 5.4071L4.96071 4.96455L3.7729 6.28397L4.37997 7.83097L2.7211 7.73116L1.83381 9.26829L2.74906 10.6546L1.10555 10.9025L0.557161 12.5899L1.74113 13.7563L0.185903 14.3403L0 16.105L1.40113 17L0 17.895L0.185903 19.6597L1.74113 20.2432L0.557161 21.4096L1.10555 23.097L2.74906 23.3448L1.83381 24.7312L2.7211 26.2683L4.37997 26.1685L3.7729 27.716L4.96016 29.0349L6.562 28.5924L6.28945 30.2309L7.72513 31.2745L9.20029 30.5084L9.27487 32.1689L10.8959 32.8906L12.1797 31.835L12.5975 33.4434L14.3332 33.8125L15.3696 32.5133L16.1127 34H17.8873L18.6304 32.5139L19.6668 33.813L21.4025 33.4439L21.8203 31.8355L23.1041 32.8912L24.7251 32.1695L24.7997 30.509L26.2749 31.2751L27.7105 30.2315L27.438 28.5929L29.0398 29.0355L30.2271 27.7166L29.62 26.1696L31.2789 26.2694L32.1662 24.7323L31.2509 23.3459L32.8945 23.0981L33.4428 21.4107L32.2589 20.2443L33.8141 19.6608L34 17.895L32.5989 17L34 16.105ZM32.7941 15.1289L32.838 15.5462L31.7856 16.2185C31.7587 15.702 31.7045 15.1925 31.6255 14.6907L32.7941 15.1289ZM32.0598 11.8863L32.1892 12.2855L31.2986 13.1624C31.1648 12.6639 31.0047 12.1764 30.8215 11.6998L32.0598 11.8863ZM30.668 8.86687L30.8775 9.2299L30.1854 10.2773C29.9502 9.81777 29.6924 9.37248 29.4122 8.942L30.668 8.86687ZM28.6785 6.20281L28.9587 6.51429L28.4986 7.68565C28.1739 7.28587 27.8306 6.90145 27.4671 6.53732L28.6785 6.20281ZM26.1778 4.0109L26.5167 4.25713L26.3105 5.49868C25.9113 5.17458 25.494 4.87242 25.0618 4.59055L26.1778 4.0109ZM23.2768 2.38658L23.6596 2.55713L23.7155 3.81129C23.2598 3.57823 22.7904 3.36765 22.3089 3.18229L23.2768 2.38658ZM20.1017 1.40058L20.5113 1.48777L20.8261 2.69752C20.3342 2.5659 19.8335 2.45787 19.323 2.37726L20.1017 1.40058ZM16.7905 1.09677H17.2095L17.7677 2.21329C17.5133 2.20013 17.2577 2.19355 17 2.19355C16.7423 2.19355 16.4867 2.20013 16.2323 2.21329L16.7905 1.09677ZM13.4887 1.48777L13.8983 1.40058L14.677 2.37726C14.167 2.45787 13.6658 2.5659 13.1739 2.69752L13.4887 1.48777ZM10.3398 2.55713L10.7232 2.38658L11.6905 3.18229C11.209 3.36819 10.7402 3.57823 10.2839 3.81129L10.3398 2.55713ZM7.82165 4.0109L8.93761 4.59055C8.50548 4.87242 8.08816 5.17458 7.68894 5.49868L7.48274 4.25713L7.82165 4.0109ZM5.32155 6.20336L6.53294 6.53787C6.16881 6.902 5.82606 7.28642 5.50142 7.68619L5.04132 6.51484L5.32155 6.20336ZM3.332 8.86687L4.58781 8.94255C4.30758 9.37248 4.04984 9.81832 3.81458 10.2779L3.12252 9.23045L3.332 8.86687ZM1.94019 11.8863L3.17845 11.6998C2.99529 12.1764 2.83516 12.6639 2.70135 13.1624L1.81077 12.2855L1.94019 11.8863ZM1.16203 15.5462L1.2059 15.1289L2.37506 14.6902C2.2961 15.192 2.24181 15.7014 2.21494 16.218L1.16203 15.5462ZM1.2059 18.8711L1.16203 18.4538L2.21439 17.7815C2.24126 18.298 2.29555 18.8075 2.37452 19.3093L1.2059 18.8711ZM1.94019 22.1137L1.81077 21.7145L2.70135 20.8376C2.83516 21.3361 2.99529 21.8236 3.17845 22.3002L1.94019 22.1137ZM3.332 25.1331L3.12252 24.7701L3.81458 23.7227C4.04984 24.1822 4.30758 24.6275 4.58781 25.058L3.332 25.1331ZM5.32155 27.7972L5.04132 27.4857L5.50142 26.3144C5.82606 26.7141 6.16935 27.0985 6.53294 27.4627L5.32155 27.7972ZM7.82219 29.9891L7.48329 29.7429L7.68948 28.5013C8.08871 28.8254 8.50603 29.1276 8.93816 29.4095L7.82219 29.9891ZM10.7232 31.6134L10.3404 31.4429L10.2845 30.1887C10.7402 30.4218 11.2096 30.6324 11.6911 30.8177L10.7232 31.6134ZM13.8983 32.5994L13.4887 32.5122L13.1739 31.3025C13.6658 31.4341 14.1665 31.5421 14.677 31.6227L13.8983 32.5994ZM17.2095 32.9032H16.7905L16.2323 31.7867C16.4867 31.7999 16.7423 31.8065 17 31.8065C17.2577 31.8065 17.5133 31.7999 17.7677 31.7867L17.2095 32.9032ZM20.5113 32.5122L20.1017 32.5994L19.323 31.6227C19.833 31.5421 20.3342 31.4341 20.8261 31.3025L20.5113 32.5122ZM23.6602 31.4429L23.2768 31.6134L22.3095 30.8177C22.791 30.6318 23.2598 30.4218 23.7161 30.1887L23.6602 31.4429ZM26.1784 29.9891L25.0624 29.4095C25.4945 29.1276 25.9118 28.8254 26.3111 28.5013L26.5173 29.7429L26.1784 29.9891ZM28.6785 27.7966L27.4671 27.4621C27.8312 27.098 28.1739 26.7136 28.4986 26.3138L28.9587 27.4852L28.6785 27.7966ZM17 30.7097C9.44048 30.7097 3.29032 24.5595 3.29032 17C3.29032 9.44048 9.44048 3.29032 17 3.29032C24.5595 3.29032 30.7097 9.44048 30.7097 17C30.7097 24.5595 24.5595 30.7097 17 30.7097ZM30.668 25.1331L29.4122 25.0575C29.6924 24.6275 29.9502 24.1817 30.1854 23.7221L30.8775 24.7695L30.668 25.1331ZM32.0598 22.1137L30.8215 22.3002C31.0047 21.8236 31.1648 21.3361 31.2986 20.8376L32.1892 21.7145L32.0598 22.1137ZM32.838 18.4538L32.7941 18.8711L31.6249 19.3098C31.7039 18.808 31.7582 18.2986 31.7851 17.782L32.838 18.4538Z" fill="#ED0035"/>
<path d="M17.0003 7.67737C11.8597 7.67737 7.67773 11.8594 7.67773 16.9999C7.67773 22.1405 11.8597 26.3225 17.0003 26.3225C19.6145 26.3225 22.125 25.2142 23.8881 23.2823L23.0775 22.543C21.5223 24.248 19.3068 25.2258 17.0003 25.2258C12.4646 25.2258 8.77451 21.5357 8.77451 16.9999C8.77451 12.4642 12.4646 8.77414 17.0003 8.77414C21.536 8.77414 25.2261 12.4642 25.2261 16.9999C25.2261 18.6616 24.7331 20.2623 23.8009 21.6289L24.7068 22.2469C25.7641 20.6972 26.3229 18.8831 26.3229 16.9999C26.3229 11.8594 22.1409 7.67737 17.0003 7.67737Z" fill="#ED0035"/>
<path d="M19.7417 17C19.7417 15.4881 18.5117 14.2581 16.9997 14.2581C15.4878 14.2581 14.2578 15.4881 14.2578 17C14.2578 18.5119 15.4878 19.7419 16.9997 19.7419C18.5117 19.7419 19.7417 18.5119 19.7417 17ZM15.3546 17C15.3546 16.093 16.0927 15.3548 16.9997 15.3548C17.9068 15.3548 18.6449 16.093 18.6449 17C18.6449 17.907 17.9068 18.6452 16.9997 18.6452C16.0927 18.6452 15.3546 17.907 15.3546 17Z" fill="#ED0035"/>
<path d="M18.6448 11.5161C18.6448 10.6091 17.9067 9.87097 16.9997 9.87097C16.0926 9.87097 15.3545 10.6091 15.3545 11.5161C15.3545 12.4232 16.0926 13.1613 16.9997 13.1613C17.9067 13.1613 18.6448 12.4232 18.6448 11.5161ZM16.4513 11.5161C16.4513 11.2134 16.6975 10.9677 16.9997 10.9677C17.3018 10.9677 17.548 11.2134 17.548 11.5161C17.548 11.8188 17.3018 12.0645 16.9997 12.0645C16.6975 12.0645 16.4513 11.8188 16.4513 11.5161Z" fill="#ED0035"/>
<path d="M13.3498 15.8138C13.4858 15.396 13.4507 14.9501 13.2511 14.5586C13.0515 14.167 12.7115 13.8769 12.2936 13.7409C11.8752 13.6049 11.4299 13.64 11.0378 13.8396C10.6463 14.0392 10.3556 14.3792 10.2202 14.7977C10.0842 15.2155 10.1193 15.6614 10.3189 16.0529C10.5185 16.4445 10.8585 16.7346 11.2764 16.87C11.4442 16.9243 11.6158 16.9512 11.7869 16.9512C12.043 16.9512 12.2969 16.8909 12.5316 16.7713C12.9232 16.5717 13.2138 16.2322 13.3498 15.8138ZM12.3062 15.4749C12.2607 15.6142 12.1642 15.7277 12.0337 15.7941C11.9043 15.8599 11.7551 15.873 11.6153 15.827C11.476 15.782 11.363 15.685 11.2961 15.555C11.2292 15.4245 11.2177 15.2759 11.2632 15.136C11.3087 14.9967 11.4052 14.8832 11.5357 14.8169C11.6142 14.7774 11.6986 14.7571 11.7842 14.7571C11.8412 14.7571 11.8982 14.7664 11.9542 14.7845H11.9547C12.094 14.8295 12.207 14.9265 12.2739 15.057C12.3402 15.187 12.3517 15.3356 12.3062 15.4749Z" fill="#ED0035"/>
<path d="M12.8103 22.7674C13.0943 22.9742 13.4288 23.0822 13.7738 23.0822C13.8604 23.0822 13.9476 23.0751 14.0348 23.0614C14.4691 22.9928 14.8503 22.7592 15.1085 22.4039C15.3668 22.0485 15.4716 21.6136 15.4025 21.1799C15.3339 20.7455 15.1003 20.3644 14.7444 20.1056C14.0101 19.5725 12.9786 19.7371 12.4467 20.4702C11.9131 21.204 12.0765 22.2344 12.8103 22.7674ZM13.3334 21.1146C13.4409 20.9665 13.6082 20.8887 13.7782 20.8887C13.89 20.8887 14.0024 20.9227 14.0995 20.9923C14.3441 21.17 14.3984 21.5138 14.2207 21.7584C14.0425 22.003 13.6986 22.0573 13.4552 21.8796C13.21 21.7025 13.1557 21.3586 13.3334 21.1146Z" fill="#ED0035"/>
<path d="M19.9664 23.0613C20.0535 23.075 20.1402 23.0821 20.2274 23.0821C20.5718 23.0821 20.9068 22.9741 21.1909 22.7673C21.9246 22.2343 22.0881 21.2039 21.555 20.4701C21.022 19.7364 19.991 19.5719 19.2567 20.106C18.9014 20.3643 18.6678 20.7454 18.5987 21.1798C18.5301 21.6135 18.6343 22.0484 18.8926 22.4038C19.1509 22.7591 19.532 22.9927 19.9664 23.0613ZM19.9011 20.9928C19.9982 20.922 20.1111 20.8886 20.2224 20.8886C20.3924 20.8886 20.5603 20.967 20.6672 21.1145C20.8449 21.3585 20.7906 21.7024 20.5454 21.8801C20.3009 22.0561 19.9576 22.0034 19.7799 21.7583C19.6022 21.5132 19.6565 21.1699 19.9011 20.9928Z" fill="#ED0035"/>
<path d="M22.7243 16.87C23.1422 16.734 23.4822 16.4439 23.6818 16.0529C23.8814 15.6613 23.9165 15.2155 23.7805 14.7976C23.6445 14.3792 23.3544 14.0392 22.9628 13.8396C22.5718 13.6405 22.126 13.6049 21.7076 13.7409C21.2897 13.8763 20.9492 14.167 20.7495 14.5585C20.5499 14.9501 20.5148 15.3959 20.6508 15.8143C20.7868 16.2322 21.0769 16.5717 21.4685 16.7713C21.7032 16.8908 21.9576 16.9511 22.2132 16.9511C22.3848 16.9511 22.5565 16.9237 22.7243 16.87ZM21.6944 15.4754C21.6489 15.3356 21.6604 15.1875 21.7273 15.0565C21.7937 14.9259 21.9072 14.8289 22.047 14.7839C22.103 14.7658 22.16 14.7565 22.217 14.7565C22.3026 14.7565 22.387 14.7768 22.4654 14.8163C22.596 14.8826 22.693 14.9961 22.738 15.1354C22.7835 15.2753 22.772 15.4233 22.7051 15.5544C22.6387 15.6844 22.5252 15.7814 22.3859 15.8264H22.3854C22.2461 15.8719 22.0975 15.8609 21.967 15.794C21.8364 15.7277 21.7394 15.6142 21.6944 15.4754Z" fill="#ED0035"/>
</svg>
