<svg width="23" height="34" viewBox="0 0 23 34" fill="none" xmlns="http://www.w3.org/2000/svg">
<g clip-path="url(#clip0)">
<path d="M9.85714 4.3871H8.21428V0H2.73809V4.3871H1.09524V6.58065H0V12.0645H1.09524V13.2551C0.457809 13.4815 0 14.0914 0 14.8065V22.4839C0 23.199 0.457809 23.8088 1.09524 24.0353V27.4194H2.19048V30.7097H3.28571V34H7.66667V30.7097H8.7619V27.4194H9.85714V24.0353C10.4946 23.8088 10.9524 23.199 10.9524 22.4839V14.8065C10.9524 14.0914 10.4946 13.4815 9.85714 13.2551V12.0645H10.9524V6.58065H9.85714V4.3871ZM3.83333 1.09677H7.11905V2.19355H3.83333V1.09677ZM6.57143 32.9032H4.38095V30.7097H6.57143V32.9032ZM7.66667 29.6129H3.28571V27.4194H7.66667V29.6129ZM9.85714 22.4839C9.85714 22.7866 9.61181 23.0323 9.30952 23.0323H8.7619V26.3226H2.19048V23.0323H1.64286C1.34057 23.0323 1.09524 22.7866 1.09524 22.4839V20.8387H9.85714V22.4839ZM9.85714 17.5484H8.7619V18.6452H9.85714V19.7419H1.09524V18.6452H7.66667V17.5484H1.09524V16.4516H9.85714V17.5484ZM9.85714 10.9677H8.7619V14.2581H9.30952C9.61181 14.2581 9.85714 14.5037 9.85714 14.8065V15.3548H1.09524V14.8065C1.09524 14.5037 1.34057 14.2581 1.64286 14.2581H2.19048V10.9677H1.09524V7.67742H2.19048V5.48387H3.83333V3.29032H7.11905V5.48387H8.7619V7.67742H9.85714V10.9677Z" fill="#ED0035"/>
<path d="M3.28613 10.9678H7.66709V7.67749H3.28613V10.9678ZM4.38137 8.77426H6.57185V9.87104H4.38137V8.77426Z" fill="#ED0035"/>
<path d="M21.9049 7.67742V5.48387H20.8097V0H16.4288V5.48387H15.3335V7.67742H14.2383V11.855L15.3335 12.4034V26.871C15.3335 27.585 15.793 28.1882 16.4288 28.4152V34H20.8097V28.4152C21.4455 28.1882 21.9049 27.585 21.9049 26.871V12.4034L23.0002 11.855V7.67742H21.9049ZM17.524 1.09677H19.7145V5.48387H17.524V1.09677ZM16.4288 6.58065H20.8097V7.67742H16.4288V6.58065ZM19.7145 32.9032H17.524V28.5161H19.7145V32.9032ZM20.8097 26.871C20.8097 27.1737 20.5644 27.4194 20.2621 27.4194H16.9764C16.6741 27.4194 16.4288 27.1737 16.4288 26.871V19.7419H20.8097V26.871ZM20.8097 16.4516H19.7145V17.5484H20.8097V18.6452H16.4288V17.5484H18.6192V16.4516H16.4288V15.3548H20.8097V16.4516ZM21.9049 11.1772L20.8097 11.7256V14.2581H16.4288V11.7256L15.3335 11.1772V8.77419H21.9049V11.1772Z" fill="#ED0035"/>
</g>
<defs>
<clipPath id="clip0">
<rect width="23" height="34" fill="white"/>
</clipPath>
</defs>
</svg>
