<svg width="38" height="34" viewBox="0 0 38 34" fill="none" xmlns="http://www.w3.org/2000/svg">
<path d="M36.1613 0H20.7579C16.7812 0 12.9628 1.86649 10.5439 4.99262L2.65631 15.1827C0.943296 17.3964 0 20.151 0 22.941V32.1786C0 33.1827 0.825085 34 1.83871 34H36.1613C37.1749 34 38 33.1827 38 32.1786V1.82143C38 0.81733 37.1749 0 36.1613 0ZM3.62894 15.9218L11.5165 5.73139C13.705 2.90261 17.1601 1.21429 20.7579 1.21429H36.1613C36.4989 1.21429 36.7742 1.48703 36.7742 1.82143V26.7143H1.22581V22.941C1.22581 20.417 2.07962 17.9241 3.62894 15.9218ZM36.1613 32.7857H1.83871C1.50113 32.7857 1.22581 32.513 1.22581 32.1786V30.3571H3.67742V29.1429H1.22581V27.9286H36.7742V29.1429H4.29032V30.3571H36.7742V32.1786C36.7742 32.513 36.4989 32.7857 36.1613 32.7857Z" fill="#ED0035"/>
<path d="M34.3214 20.6428H29.4182C28.7421 20.6428 28.1924 21.1874 28.1924 21.8571V23.0714C28.1924 23.7411 28.7421 24.2857 29.4182 24.2857H34.3214C34.9975 24.2857 35.5472 23.7411 35.5472 23.0714V21.8571C35.5472 21.1874 34.9975 20.6428 34.3214 20.6428ZM29.4182 21.8571H31.8698V23.0714H29.4182V21.8571ZM34.3214 23.0714H33.0956V21.8571H34.3214V23.0714Z" fill="#ED0035"/>
<path d="M7.35531 19.4286H35.5489V2.42859H20.7883C17.549 2.42859 14.4465 3.95445 12.489 6.5105L7.23321 13.3693C6.27734 13.4331 5.5166 14.2157 5.5166 15.1786V17.6072C5.5166 18.6113 6.34169 19.4286 7.35531 19.4286ZM13.4646 7.24452C15.1926 4.98879 17.9303 3.64287 20.7883 3.64287H34.3231V18.2143H13.4685C13.8575 17.7056 14.0972 17.0789 14.0972 16.3929V13.3572H8.78163L13.4646 7.24452ZM6.74241 15.1786C6.74241 14.8442 7.01774 14.5714 7.35531 14.5714H12.8714V16.3929C12.8714 17.397 12.0464 18.2143 11.0327 18.2143H7.35531C7.01774 18.2143 6.74241 17.9416 6.74241 17.6072V15.1786Z" fill="#ED0035"/>
</svg>
