<svg width="29" height="34" viewBox="0 0 29 34" fill="none" xmlns="http://www.w3.org/2000/svg">
<path d="M29 9.87097V0H23.6296V3.29032H18.7877C18.7442 2.71616 18.4171 2.20945 17.9059 1.94842L16.2379 1.09677H12.7621L11.0941 1.94842C10.5834 2.20945 10.2563 2.71616 10.2123 3.29032H5.37037V0H0V9.87097H5.37037V6.58065H8.05556V13.0319L6.44444 16.3222V27.4194H5.37037V24.129H0V34H5.37037V30.7097H11.7122C12.2836 31.7198 13.3427 32.3548 14.5 32.3548C15.6573 32.3548 16.7164 31.7198 17.2878 30.7097H23.6296V34H29V24.129H23.6296V27.4194H22.5556V16.3222L20.9444 13.0319V6.58065H23.6296V9.87097H29ZM24.7037 7.67742H25.7778V6.58065H24.7037V5.48387H25.7778V4.3871H24.7037V3.29032H25.7778V2.19355H24.7037V1.09677H27.9259V2.19355H26.8519V3.29032H27.9259V4.3871H26.8519V5.48387H27.9259V6.58065H26.8519V7.67742H27.9259V8.77419H24.7037V7.67742ZM4.2963 2.19355H3.22222V3.29032H4.2963V4.3871H3.22222V5.48387H4.2963V6.58065H3.22222V7.67742H4.2963V8.77419H1.07407V7.67742H2.14815V6.58065H1.07407V5.48387H2.14815V4.3871H1.07407V3.29032H2.14815V2.19355H1.07407V1.09677H4.2963V2.19355ZM4.2963 26.3226H3.22222V27.4194H4.2963V28.5161H3.22222V29.6129H4.2963V30.7097H3.22222V31.8065H4.2963V32.9032H1.07407V31.8065H2.14815V30.7097H1.07407V29.6129H2.14815V28.5161H1.07407V27.4194H2.14815V26.3226H1.07407V25.2258H4.2963V26.3226ZM24.7037 31.8065H25.7778V30.7097H24.7037V29.6129H25.7778V28.5161H24.7037V27.4194H25.7778V26.3226H24.7037V25.2258H27.9259V26.3226H26.8519V27.4194H27.9259V28.5161H26.8519V29.6129H27.9259V30.7097H26.8519V31.8065H27.9259V32.9032H24.7037V31.8065ZM13.4259 2.19355H15.5741V4.3871H13.4259V2.19355ZM11.2778 3.41974C11.2778 3.21081 11.3916 3.02271 11.5748 2.92948L12.3519 2.53245V5.48387H16.6481V2.53245L17.4252 2.92948C17.6084 3.02271 17.7222 3.21081 17.7222 3.41974V8.22581C17.7222 8.52797 17.4811 8.77419 17.1852 8.77419H11.8148C11.5189 8.77419 11.2778 8.52797 11.2778 8.22581V3.41974ZM5.37037 5.48387V4.3871H10.2037V5.48387H5.37037ZM7.51852 16.581L9.12963 13.2907V6.58065H10.2037V8.22581C10.2037 9.13284 10.9266 9.87097 11.8148 9.87097H12.8889V26.2167C12.4066 26.5019 11.9979 26.9137 11.7122 27.4194H7.51852V16.581ZM23.6296 28.5161V29.6129H16.6073L16.4666 29.9414C16.1235 30.7415 15.3517 31.2581 14.5 31.2581C13.6483 31.2581 12.8765 30.7415 12.5334 29.9414L12.3927 29.6129H5.37037V28.5161H12.3927L12.5334 28.1876C12.8765 27.3876 13.6483 26.871 14.5 26.871C15.3517 26.871 16.1235 27.3876 16.4666 28.1876L16.6073 28.5161H23.6296ZM21.4815 16.581V27.4194H17.2878C17.0015 26.9132 16.5928 26.5019 16.1111 26.2167V24.129H15.037V25.8257C14.8609 25.795 14.6826 25.7742 14.5 25.7742C14.3174 25.7742 14.1391 25.795 13.963 25.8257V9.87097H15.037V23.0323H16.1111V9.87097H17.1852C18.0734 9.87097 18.7963 9.13284 18.7963 8.22581V6.58065H19.8704V13.2907L21.4815 16.581ZM18.7963 5.48387V4.3871H23.6296V5.48387H18.7963Z" fill="#ED0035"/>
</svg>
