<svg width="34" height="34" viewBox="0 0 34 34" fill="none" xmlns="http://www.w3.org/2000/svg">
<path d="M32.3548 15.3548C33.2619 15.3548 34 14.6167 34 13.7097V10.4194C34 9.51232 33.2619 8.77419 32.3548 8.77419H31.8065V7.12903C31.8065 6.222 31.0683 5.48387 30.1613 5.48387H24.6774V1.64516H22.4148C22.1702 0.699742 21.3103 0 20.2903 0C19.2703 0 18.4105 0.699742 18.1659 1.64516H15.9032V5.48387H14.7686C14.4972 3.32323 12.6524 1.64516 10.4194 1.64516C8.18632 1.64516 6.34155 3.32323 6.0701 5.48387H4.3871H3.29032H3.09784L0 7.96258V27.1649L3.48884 29.4906L7.99877 34H29.2915L34 29.2915V20.4433L30.7097 19.3465V15.3548H32.3548ZM3.29032 28.0401L1.09677 26.5776V8.48903L3.29032 6.73419V28.0401ZM32.3548 9.87097C32.657 9.87097 32.9032 10.1166 32.9032 10.4194V13.7097C32.9032 14.0124 32.657 14.2581 32.3548 14.2581H30.7097V9.87097H31.2581H32.3548ZM17 2.74194H19.1935V2.19355C19.1935 1.58868 19.6855 1.09677 20.2903 1.09677C20.8952 1.09677 21.3871 1.58868 21.3871 2.19355V2.74194H23.5806V5.48387H17V2.74194ZM10.4194 2.74194C12.234 2.74194 13.7097 4.21765 13.7097 6.03226C13.7097 7.84687 12.234 9.32258 10.4194 9.32258C8.60474 9.32258 7.12903 7.84687 7.12903 6.03226C7.12903 4.21765 8.60474 2.74194 10.4194 2.74194ZM13.1613 9.87097V28.5161H10.9677V10.3815C11.5309 10.3108 12.0623 10.1353 12.5383 9.87097H13.1613ZM4.3871 6.58065H6.0701C6.17374 7.40432 6.50442 8.15726 6.99961 8.77419H4.3871V6.58065ZM4.3871 9.87097H6.58065V10.9677H7.67742V9.87097H8.30039C8.77694 10.1353 9.30777 10.3108 9.87097 10.3815V28.5161H7.67742V12.0645H6.58065V28.5161H4.3871V9.87097ZM8.45284 32.9032L5.16252 29.6129H13.2052C13.1794 29.7928 13.1613 29.9748 13.1613 30.1613C13.1613 31.235 13.6055 32.2057 14.3189 32.9032H8.45284ZM17 32.9032C15.4881 32.9032 14.2581 31.6732 14.2581 30.1613C14.2581 28.6494 15.4881 27.4194 17 27.4194C18.5119 27.4194 19.7419 28.6494 19.7419 30.1613C19.7419 31.6732 18.5119 32.9032 17 32.9032ZM14.2581 27.4802V9.87097H16.4516V26.3665C15.5978 26.4893 14.8344 26.8913 14.2581 27.4802ZM17.5484 26.3665V9.87097H19.7419V27.4802C19.1656 26.8913 18.4022 26.4898 17.5484 26.3665ZM19.6811 32.9032C19.9163 32.6729 20.1198 32.4119 20.2903 32.1284C20.4609 32.4119 20.6643 32.6735 20.8996 32.9032H19.6811ZM24.129 32.8478V30.1613H23.0323V32.8478C21.7825 32.5928 20.8387 31.4856 20.8387 30.1613C20.8387 28.6494 22.0687 27.4194 23.5806 27.4194C25.0925 27.4194 26.3226 28.6494 26.3226 30.1613C26.3226 31.4851 25.3788 32.5928 24.129 32.8478ZM20.8387 27.4802V9.87097H23.0323V26.3665C22.1784 26.4893 21.4151 26.8913 20.8387 27.4802ZM24.129 26.3665V9.87097H26.3226V27.4802C25.7462 26.8907 24.9829 26.4893 24.129 26.3665ZM28.8375 32.9032H26.2623C26.9752 32.2057 27.4194 31.235 27.4194 30.1613C27.4194 29.9748 27.4013 29.7928 27.3755 29.6129H32.1278L28.8375 32.9032ZM32.9032 21.2341V28.5161H30.7097V27.4194H29.6129V28.5161H27.4194V9.87097H29.6129V14.2581V20.1373V26.3226H30.7097V20.5026L32.9032 21.2341ZM13.8385 8.77419C14.3343 8.15726 14.665 7.40432 14.7681 6.58065H15.9032H24.6774H30.1613C30.4635 6.58065 30.7097 6.82632 30.7097 7.12903V8.77419H13.8385Z" fill="#ED0035"/>
<path d="M10.4191 8.22583C11.6289 8.22583 12.6127 7.24204 12.6127 6.03229C12.6127 4.82255 11.6289 3.83875 10.4191 3.83875C9.20939 3.83875 8.22559 4.82255 8.22559 6.03229C8.22559 7.24204 9.20939 8.22583 10.4191 8.22583ZM10.4191 4.93552C11.024 4.93552 11.5159 5.42742 11.5159 6.03229C11.5159 6.63716 11.024 7.12907 10.4191 7.12907C9.81426 7.12907 9.32236 6.63716 9.32236 6.03229C9.32236 5.42742 9.81426 4.93552 10.4191 4.93552Z" fill="#ED0035"/>
<path d="M16.9997 28.5161C16.0926 28.5161 15.3545 29.2542 15.3545 30.1613C15.3545 31.0683 16.0926 31.8064 16.9997 31.8064C17.9067 31.8064 18.6448 31.0683 18.6448 30.1613C18.6448 29.2542 17.9067 28.5161 16.9997 28.5161ZM16.9997 30.7097C16.6975 30.7097 16.4513 30.464 16.4513 30.1613C16.4513 29.8586 16.6975 29.6129 16.9997 29.6129C17.3018 29.6129 17.548 29.8586 17.548 30.1613C17.548 30.464 17.3018 30.7097 16.9997 30.7097Z" fill="#ED0035"/>
</svg>
