<svg width="34" height="34" viewBox="0 0 34 34" fill="none" xmlns="http://www.w3.org/2000/svg">
<path d="M17 0C7.62642 0 0 7.62642 0 17C0 26.3736 7.62642 34 17 34C26.3736 34 34 26.3736 34 17C34 7.62642 26.3736 0 17 0ZM17 32.9032C8.23074 32.9032 1.09677 25.7693 1.09677 17C1.09677 8.23074 8.23074 1.09677 17 1.09677C25.7693 1.09677 32.9032 8.23074 32.9032 17C32.9032 25.7693 25.7693 32.9032 17 32.9032Z" fill="#ED0035"/>
<path d="M19.7417 17C19.7417 15.4881 18.5117 14.2581 16.9997 14.2581C15.4878 14.2581 14.2578 15.4881 14.2578 17C14.2578 18.5119 15.4878 19.7419 16.9997 19.7419C18.5117 19.7419 19.7417 18.5119 19.7417 17ZM15.3546 17C15.3546 16.093 16.0927 15.3548 16.9997 15.3548C17.9068 15.3548 18.6449 16.093 18.6449 17C18.6449 17.907 17.9068 18.6452 16.9997 18.6452C16.0927 18.6452 15.3546 17.907 15.3546 17Z" fill="#ED0035"/>
<path d="M17.0002 24.129C13.0694 24.129 9.87119 20.9308 9.87119 17C9.87119 13.0691 13.0694 9.87094 17.0002 9.87094C20.9311 9.87094 24.1293 13.0691 24.1293 17C24.1293 18.3123 23.7701 19.5939 23.0906 20.7076L24.0267 21.279C24.8114 19.9931 25.226 18.5141 25.226 17C25.226 12.4643 21.5359 8.77417 17.0002 8.77417C12.4645 8.77417 8.77441 12.4643 8.77441 17C8.77441 21.5357 12.4645 25.2258 17.0002 25.2258C19.4641 25.2258 21.7772 24.135 23.3478 22.2327L22.5016 21.5346C21.1405 23.183 19.1356 24.129 17.0002 24.129Z" fill="#ED0035"/>
<path d="M18.6448 12.0645C18.6448 11.1574 17.9067 10.4193 16.9997 10.4193C16.0926 10.4193 15.3545 11.1574 15.3545 12.0645C15.3545 12.9715 16.0926 13.7096 16.9997 13.7096C17.9067 13.7096 18.6448 12.9715 18.6448 12.0645ZM16.4513 12.0645C16.4513 11.7623 16.6975 11.5161 16.9997 11.5161C17.3018 11.5161 17.548 11.7623 17.548 12.0645C17.548 12.3666 17.3018 12.6129 16.9997 12.6129C16.6975 12.6129 16.4513 12.3666 16.4513 12.0645Z" fill="#ED0035"/>
<path d="M13.8718 15.9833C14.1521 15.1207 13.6783 14.1906 12.8156 13.9104C11.9514 13.6302 11.023 14.1045 10.7427 14.9666C10.4625 15.8298 10.9363 16.7598 11.7989 17.0401C11.9673 17.0949 12.1384 17.1207 12.3062 17.1207C12.9994 17.1201 13.6459 16.6776 13.8718 15.9833ZM12.8288 15.6444C12.7356 15.9318 12.4263 16.0902 12.1378 15.9965C11.8505 15.9032 11.6925 15.5929 11.7858 15.3055C11.8609 15.0741 12.0764 14.9266 12.3078 14.9266C12.3638 14.9266 12.4208 14.9353 12.4767 14.9534C12.7641 15.0467 12.922 15.3565 12.8288 15.6444Z" fill="#ED0035"/>
<path d="M13.1318 22.3238C13.423 22.5354 13.7608 22.6369 14.0964 22.6369C14.6059 22.6369 15.1082 22.4016 15.4301 21.9591C15.9631 21.2253 15.7997 20.1944 15.066 19.6613C14.3317 19.1289 13.3013 19.2917 12.7677 20.0255C12.2347 20.7598 12.3975 21.7907 13.1318 22.3238ZM13.655 20.6704C13.8327 20.4258 14.1765 20.371 14.4211 20.5492C14.6657 20.7269 14.7199 21.0707 14.5423 21.3147C14.3646 21.5593 14.0202 21.6136 13.7762 21.4365C13.5316 21.2588 13.4773 20.9155 13.655 20.6704Z" fill="#ED0035"/>
<path d="M19.9037 22.6375C20.2388 22.6375 20.5771 22.5355 20.8683 22.3243C21.6021 21.7907 21.7655 20.7598 21.2324 20.026C20.6989 19.2929 19.6679 19.1294 18.9342 19.6619C18.2004 20.1949 18.0375 21.2259 18.57 21.9597C18.8919 22.4027 19.3948 22.6375 19.9037 22.6375ZM19.5791 20.5492C19.8242 20.371 20.168 20.4264 20.3452 20.6704C20.5228 20.9155 20.4685 21.2588 20.224 21.4365C19.9788 21.6136 19.635 21.5593 19.4579 21.3147C19.2802 21.0702 19.3345 20.7269 19.5791 20.5492Z" fill="#ED0035"/>
<path d="M22.2024 17.0395C23.065 16.7593 23.5388 15.8292 23.2585 14.9661C22.9778 14.104 22.0483 13.6291 21.1856 13.9099C20.323 14.1901 19.8492 15.1202 20.1295 15.9828C20.3554 16.6771 21.0019 17.1196 21.6956 17.1196C21.8629 17.1202 22.034 17.0944 22.2024 17.0395ZM21.1719 15.6444C21.0787 15.3571 21.2366 15.0472 21.524 14.9535C21.5799 14.9354 21.637 14.9266 21.6929 14.9266C21.9243 14.9266 22.1393 15.0741 22.215 15.3055C22.3082 15.5929 22.1508 15.9033 21.8629 15.9965C21.5761 16.0903 21.2657 15.9318 21.1719 15.6444Z" fill="#ED0035"/>
<path d="M14.2579 2.1936H13.1611V3.29038H14.2579V2.1936Z" fill="#ED0035"/>
<path d="M15.9034 3.83875H14.8066V4.93552H15.9034V3.83875Z" fill="#ED0035"/>
<path d="M17.5479 5.48389H16.4512V6.58066H17.5479V5.48389Z" fill="#ED0035"/>
<path d="M19.1935 7.12903H18.0967V8.2258H19.1935V7.12903Z" fill="#ED0035"/>
<path d="M3.81626 9.24473L4.5918 10.0203L5.36733 9.24473L4.5918 8.46921L3.81626 9.24473Z" fill="#ED0035"/>
<path d="M6.91812 8.46924L6.14258 9.24476L6.91812 10.0203L7.69366 9.24476L6.91812 8.46924Z" fill="#ED0035"/>
<path d="M10.0207 9.24451L9.24512 8.46899L8.46958 9.24451L9.24512 10.02L10.0207 9.24451Z" fill="#ED0035"/>
<path d="M12.3468 9.24488L11.5713 8.46936L10.7957 9.24488L11.5713 10.0204L12.3468 9.24488Z" fill="#ED0035"/>
<path d="M3.29013 19.7419H2.19336V20.8387H3.29013V19.7419Z" fill="#ED0035"/>
<path d="M4.93564 18.0968H3.83887V19.1936H4.93564V18.0968Z" fill="#ED0035"/>
<path d="M6.58115 16.4517H5.48438V17.5484H6.58115V16.4517Z" fill="#ED0035"/>
<path d="M8.22568 14.8064H7.12891V15.9032H8.22568V14.8064Z" fill="#ED0035"/>
<path d="M8.4686 29.4092L9.24414 30.1847L10.0197 29.4092L9.24414 28.6337L8.4686 29.4092Z" fill="#ED0035"/>
<path d="M10.0187 27.0799L9.24316 26.3043L8.46765 27.0799L9.24316 27.8554L10.0187 27.0799Z" fill="#ED0035"/>
<path d="M10.0187 24.7531L9.24316 23.9775L8.46765 24.7531L9.24316 25.5286L10.0187 24.7531Z" fill="#ED0035"/>
<path d="M8.46958 22.4287L9.24512 23.2042L10.0207 22.4287L9.24512 21.6532L8.46958 22.4287Z" fill="#ED0035"/>
<path d="M20.839 30.7097H19.7422V31.8065H20.839V30.7097Z" fill="#ED0035"/>
<path d="M19.1935 29.0645H18.0967V30.1612H19.1935V29.0645Z" fill="#ED0035"/>
<path d="M17.5479 27.4193H16.4512V28.5161H17.5479V27.4193Z" fill="#ED0035"/>
<path d="M15.9034 25.7742H14.8066V26.8709H15.9034V25.7742Z" fill="#ED0035"/>
<path d="M28.6317 24.7535L29.4072 25.5291L30.1827 24.7535L29.4072 23.978L28.6317 24.7535Z" fill="#ED0035"/>
<path d="M26.3026 24.7556L27.0781 25.5311L27.8537 24.7556L27.0781 23.9801L26.3026 24.7556Z" fill="#ED0035"/>
<path d="M23.9793 24.7545L24.7549 25.53L25.5304 24.7545L24.7549 23.979L23.9793 24.7545Z" fill="#ED0035"/>
<path d="M21.6522 24.7534L22.4277 25.5289L23.2033 24.7534L22.4277 23.9779L21.6522 24.7534Z" fill="#ED0035"/>
<path d="M31.8067 13.1613H30.71V14.258H31.8067V13.1613Z" fill="#ED0035"/>
<path d="M30.1612 14.8064H29.0645V15.9032H30.1612V14.8064Z" fill="#ED0035"/>
<path d="M28.5157 16.4517H27.4189V17.5484H28.5157V16.4517Z" fill="#ED0035"/>
<path d="M26.8712 18.0968H25.7744V19.1936H26.8712V18.0968Z" fill="#ED0035"/>
<path d="M25.5304 4.59097L24.7549 3.81543L23.9794 4.59097L24.7549 5.36651L25.5304 4.59097Z" fill="#ED0035"/>
<path d="M25.5304 6.91858L24.7549 6.14307L23.9793 6.91858L24.7549 7.6941L25.5304 6.91858Z" fill="#ED0035"/>
<path d="M23.9784 9.24594L24.7539 10.0215L25.5294 9.24594L24.7539 8.4704L23.9784 9.24594Z" fill="#ED0035"/>
<path d="M25.5284 11.5714L24.7529 10.7959L23.9774 11.5714L24.7529 12.347L25.5284 11.5714Z" fill="#ED0035"/>
</svg>
