<svg width="25" height="34" viewBox="0 0 25 34" fill="none" xmlns="http://www.w3.org/2000/svg">
<path d="M25 8.77419V4.3871H19.5652V0H5.43478V4.3871H0V8.77419H1.08696V29.6129H0V34H25V29.6129H23.913V8.77419H25ZM6.52174 3.29032H16.3043V2.19355H6.52174V1.09677H18.4783V2.19355H17.3913V3.29032H18.4783V4.3871H6.52174V3.29032ZM23.913 32.9032H1.08696V30.7097H23.913V32.9032ZM2.17391 29.6129V8.77419H3.26087V29.6129H2.17391ZM6.52174 24.6774V8.77419H7.6087V29.6129H6.52174V25.7742H5.43478V29.6129H4.34783V8.77419H5.43478V24.6774H6.52174ZM8.69565 29.6129V8.77419H9.78261V29.6129H8.69565ZM10.8696 29.6129V8.77419H11.9565V29.6129H10.8696ZM13.0435 29.6129V8.77419H14.1304V29.6129H13.0435ZM15.2174 29.6129V8.77419H16.3043V29.6129H15.2174ZM17.3913 29.6129V8.77419H18.4783V29.6129H17.3913ZM21.7391 9.87097V8.77419H22.8261V29.6129H21.7391V10.9677H20.6522V29.6129H19.5652V8.77419H20.6522V9.87097H21.7391ZM1.08696 7.67742V5.48387H23.913V7.67742H1.08696Z" fill="#ED0035"/>
</svg>
