<svg width="34" height="34" fill="none" xmlns="http://www.w3.org/2000/svg"><path d="M30.016 2.656h-1.594V0h-2.656v2.656H8.234V0H5.578v2.656H3.984A3.989 3.989 0 0 0 0 6.641v23.375A3.989 3.989 0 0 0 3.984 34h26.032A3.989 3.989 0 0 0 34 30.016V6.64a3.989 3.989 0 0 0-3.984-3.985zm1.328 27.36a1.33 1.33 0 0 1-1.328 1.328H3.984a1.33 1.33 0 0 1-1.328-1.328V12.484h28.688v17.532zm0-20.188H2.656V6.641a1.33 1.33 0 0 1 1.328-1.329h1.594V7.97h2.656V5.312h17.532V7.97h2.656V5.312h1.594a1.33 1.33 0 0 1 1.328 1.329v3.187z" fill="#C5A26D"/><path d="M7.703 15.273H5.047v2.657h2.656v-2.657zm5.313 0h-2.657v2.657h2.657v-2.657zm5.312 0h-2.656v2.657h2.656v-2.657zm5.312 0h-2.656v2.657h2.657v-2.657zm5.313 0h-2.656v2.657h2.656v-2.657zm-21.25 5.313H5.047v2.656h2.656v-2.656zm5.313 0h-2.657v2.656h2.657v-2.656zm5.312 0h-2.656v2.656h2.656v-2.656zm5.312 0h-2.656v2.656h2.657v-2.656zM7.703 25.898H5.047v2.657h2.656v-2.657zm5.313 0h-2.657v2.657h2.657v-2.657zm5.312 0h-2.656v2.657h2.656v-2.657zm5.312 0h-2.656v2.657h2.657v-2.657zm5.313-5.312h-2.656v2.656h2.656v-2.656z" fill="#C5A26D"/></svg>