<svg width="33" height="39" fill="none" xmlns="http://www.w3.org/2000/svg"><path d="M16.36 21.014h.256c2.354-.04 4.258-.872 5.664-2.463 3.093-3.505 2.58-9.514 2.523-10.087-.2-4.305-2.225-6.364-3.896-7.325C19.66.42 18.207.032 16.584 0h-.136c-.892 0-2.643.145-4.323 1.106-1.687.961-3.743 3.02-3.944 7.358-.056.573-.57 6.582 2.522 10.087 1.398 1.59 3.302 2.423 5.656 2.463zM10.325 8.666c0-.025.008-.049.008-.065.265-5.79 4.354-6.412 6.106-6.412h.096c2.17.048 5.857.936 6.106 6.412 0 .024 0 .049.008.065.008.056.57 5.548-1.984 8.44-1.013 1.146-2.362 1.711-4.138 1.728h-.08c-1.768-.017-3.126-.582-4.13-1.729-2.547-2.875-2-8.39-1.992-8.44z" fill="#C5A26D"/><path d="M32.998 30.98v-.024c0-.064-.008-.129-.008-.201-.049-1.6-.153-5.339-3.64-6.534l-.08-.024c-3.623-.93-6.636-3.029-6.668-3.053a1.08 1.08 0 0 0-1.51.266 1.093 1.093 0 0 0 .265 1.519c.136.097 3.334 2.334 7.335 3.368 1.872.67 2.08 2.68 2.137 4.522 0 .073 0 .137.008.202.008.727-.04 1.85-.17 2.496-1.3.743-6.402 3.31-14.163 3.31-7.729 0-12.862-2.575-14.172-3.319-.128-.646-.185-1.768-.169-2.495 0-.065.008-.13.008-.202.057-1.841.265-3.852 2.137-4.523 4.001-1.033 7.199-3.279 7.335-3.367.49-.348.611-1.026.265-1.519a1.08 1.08 0 0 0-1.51-.266c-.032.024-3.029 2.124-6.668 3.053-.032.008-.056.016-.08.024C.163 25.416.058 29.155.01 30.747c0 .072 0 .137-.008.201v.025c-.008.42-.016 2.576.41 3.658.08.21.225.388.418.509.24.16 6.017 3.86 15.682 3.86s15.441-3.707 15.682-3.86a1.08 1.08 0 0 0 .418-.509c.402-1.074.394-3.23.386-3.65z" fill="#C5A26D"/></svg>