<svg width="29" height="39" fill="none" xmlns="http://www.w3.org/2000/svg"><path d="M23.012 30.589a.765.765 0 0 1-.745-.611.752.752 0 0 1 .045-.438.683.683 0 0 1 .163-.247.76.76 0 0 1 1.167.115.76.76 0 0 1-.63 1.18z" fill="#C5A26D"/><path d="M27.387 34.08h-.58V.76c0-.42-.34-.759-.76-.759H2.098A.758.758 0 0 0 1.34.76v33.322H.76c-.42 0-.759.34-.759.759v3.263c0 .42.34.759.759.759h26.628c.419 0 .758-.34.758-.76V34.84c0-.42-.339-.76-.758-.76zM2.857 1.519h22.432v32.563H5.893V4.554h16.36V18.15a2.62 2.62 0 0 0-3.717 2.375 2.62 2.62 0 0 0 3.717 2.376v2.907a.759.759 0 1 0 1.518 0V3.795a.76.76 0 0 0-.759-.759H5.134a.76.76 0 0 0-.76.76V34.08H2.858V1.518zm19.396 19.007a1.1 1.1 0 0 1-2.2 0 1.1 1.1 0 0 1 2.2 0zm4.375 16.819H1.518V35.6h25.11v1.745z" fill="#C5A26D"/><path d="M10.57 6.966a.48.48 0 0 0-.258.065l-.91.551a.526.526 0 0 0-.256.464c0 .26.173.541.452.541a.418.418 0 0 0 .233-.072l.026-.017v3.307c0 .262.268.445.652.445s.652-.183.652-.445V7.418c0-.28-.306-.452-.59-.452zm2.898 3.518c.613-.42 1.452-.994 1.452-1.963 0-1.001-.887-1.542-1.721-1.542-.811 0-1.673.505-1.673 1.438 0 .556.324.673.597.673.441 0 .68-.261.68-.507 0-.268.135-.403.403-.403.39 0 .41.313.41.376 0 .357-.463.697-.954 1.057-.599.44-1.219.895-1.219 1.522v.67c0 .275.34.445.583.445h2.456c.238 0 .438-.27.438-.59 0-.313-.2-.576-.438-.576h-1.685c.051-.176.353-.383.67-.6zm4.525-1.029c.257-.224.41-.629.41-1.113 0-.622-.286-1.363-1.652-1.363-1.165 0-1.686.678-1.686 1.349 0 .425.15.548.672.548.416 0 .618-.165.618-.507 0-.134.029-.238.396-.238.29 0 .397.104.397.383 0 .48-.206.48-.424.48-.262 0-.425.202-.425.527 0 .326.163.528.425.528.41 0 .548.11.548.438v.131c0 .389-.122.507-.52.507-.5 0-.5-.208-.5-.286 0-.394-.255-.473-.666-.473-.386 0-.625.085-.625.508 0 .682.55 1.417 1.756 1.417 1.181 0 1.859-.61 1.859-1.673v-.13c0-.47-.2-.823-.583-1.033zm-.05 5.042h-7.74a.759.759 0 1 1 0-1.518h7.74a.759.759 0 1 1 0 1.518z" fill="#C5A26D"/></svg>