<svg width="22" height="37" fill="none" xmlns="http://www.w3.org/2000/svg"><path d="M19.442 0H2.558C1.15 0 0 1.124 0 2.5v32C0 35.875 1.151 37 2.558 37h16.884C20.85 37 22 35.877 22 34.5v-32C22 1.123 20.849 0 19.442 0zM8.3 1.801h5.402c.17 0 .31.136.31.304a.306.306 0 0 1-.31.302H8.299a.306.306 0 0 1-.31-.302c0-.168.14-.304.31-.304zm2.7 33.95c-.707 0-1.279-.56-1.279-1.251 0-.691.572-1.25 1.279-1.25s1.279.559 1.279 1.25-.572 1.25-1.279 1.25zm9.22-3.376H1.78V3.963h18.44v28.412z" fill="#C5A26D"/></svg>