<svg width="10" height="10" viewBox="0 0 10 10" fill="none" xmlns="http://www.w3.org/2000/svg">
<path d="M5.87498 5L9.81299 1.0625C10.063 0.8125 10.063 0.4167 9.81299 0.1875C9.56299 -0.0625 9.16699 -0.0625 8.93799 0.1875L4.99998 4.1042L1.06299 0.1875C0.812988 -0.0625 0.416988 -0.0625 0.187988 0.1875C-0.0620117 0.4375 -0.0620117 0.8333 0.187988 1.0625L4.10398 5L0.187988 8.917C-0.0620117 9.167 -0.0620117 9.562 0.187988 9.792C0.312988 9.938 0.457985 10 0.624985 10C0.791985 10 0.937988 9.937 1.06299 9.812L4.99998 5.875L8.93799 9.812C9.06299 9.937 9.22898 10 9.37498 10C9.52098 10 9.68799 9.937 9.81299 9.812C10.063 9.562 10.063 9.167 9.81299 8.938L5.87498 5Z" fill="#DC0000"/>
</svg>
