<svg width="20" height="19" viewBox="0 0 20 19" fill="none" xmlns="http://www.w3.org/2000/svg">
<path d="M19.2869 17.652H0.713099C0.322599 17.652 0.0169983 17.965 0.0169983 18.326C0.0169983 18.688 0.339599 19 0.713099 19H19.3039C19.6944 19 20 18.688 20 18.326C20 17.965 19.6774 17.652 19.2869 17.652Z" fill="#0F61A7"/>
<path d="M0.0170002 11.686L0 14.891C0 15.072 0.0679001 15.253 0.2037 15.384C0.3396 15.516 0.5093 15.581 0.6961 15.581L3.9898 15.565C4.1766 15.565 4.3463 15.499 4.4822 15.368L15.8574 4.356C16.129 4.093 16.129 3.665 15.8574 3.386L12.5976 0.197006C12.326 -0.0659941 11.8845 -0.0659941 11.5959 0.197006L9.3209 2.416L0.2207 11.209C0.1019 11.341 0.0170002 11.505 0.0170002 11.686ZM12.1053 1.644L14.3973 3.862L13.107 5.112L10.8149 2.893L12.1053 1.644ZM1.4261 11.982L9.8132 3.862L12.1053 6.08099L3.7182 14.184L1.4092 14.201L1.4261 11.982Z" fill="#0F61A7"/>
</svg>
