<svg width="46" height="14" viewBox="0 0 46 14" fill="none" xmlns="http://www.w3.org/2000/svg">
<path d="M45.294 4.8473H45.04V3.7526C45.04 1.7284 43.297 0.037 41.12 0C41.061 0 40.941 0 40.882 0C38.706 0.037 36.963 1.7284 36.963 3.7526V4.8473H36.709C36.318 4.8473 36 5.217 36 5.678V11.167C36 11.625 36.318 12 36.709 12H45.291C45.682 12 46 11.625 46 11.167V5.678C46.003 5.217 45.684 4.8473 45.294 4.8473ZM41.805 8.418V10.077C41.805 10.267 41.634 10.427 41.425 10.427H40.575C40.369 10.427 40.195 10.267 40.195 10.077V8.418C39.995 8.235 39.88 7.986 39.88 7.707C39.88 7.182 40.321 6.729 40.882 6.709C40.941 6.706 41.061 6.706 41.12 6.709C41.682 6.729 42.123 7.182 42.123 7.707C42.123 7.984 42.005 8.235 41.805 8.418ZM43.369 4.8473H41.12H40.882H38.634V3.7526C38.634 2.5469 39.695 1.5509 41 1.5509C42.305 1.5509 43.366 2.5469 43.366 3.7526L43.369 4.8473Z" fill="#FDCD39"/>
<path d="M34.0588 0H27.9412C27.4314 0 27 0.439999 27 0.959999V13.08C27 13.56 27.4314 14 27.9412 14H34.0588C34.5686 14 35 13.56 35 13.04V0.959999C34.9608 0.439999 34.5686 0 34.0588 0ZM30.0196 0.68H31.9804C32.0588 0.68 32.098 0.720003 32.098 0.800003C32.098 0.880003 32.0588 0.919998 31.9804 0.919998H30.0196C29.9412 0.919998 29.902 0.840003 29.902 0.800003C29.902 0.720003 29.9412 0.68 30.0196 0.68ZM31 13.52C30.7255 13.52 30.5294 13.32 30.5294 13.04C30.5294 12.76 30.7255 12.56 31 12.56C31.2745 12.56 31.4706 12.76 31.4706 13.04C31.4706 13.32 31.2353 13.52 31 13.52ZM34.3333 12.24H27.6667V1.48H34.3333V12.24Z" fill="#FDCD39"/>
<path d="M12.4396 4.0067C12.6302 4.1555 13.2019 4.592 14.1548 5.3229C15.1077 6.054 15.8407 6.613 16.3479 7.008C16.4036 7.05 16.5209 7.144 16.7027 7.289C16.8845 7.435 17.034 7.551 17.1542 7.642C17.2744 7.732 17.4181 7.832 17.5882 7.942C17.7582 8.052 17.9195 8.136 18.069 8.191C18.2185 8.246 18.3593 8.275 18.4883 8.275H18.4971H18.5059C18.6349 8.275 18.7727 8.246 18.9251 8.191C19.0747 8.136 19.2359 8.052 19.406 7.942C19.576 7.832 19.7226 7.732 19.8399 7.642C19.9601 7.551 20.1097 7.435 20.2914 7.289C20.4732 7.144 20.5905 7.05 20.6462 7.008C21.1593 6.613 22.467 5.6139 24.5633 4.0067C24.9709 3.693 25.311 3.3147 25.5837 2.8716C25.8563 2.4286 25.9941 1.9629 25.9941 1.4779C25.9941 1.0704 25.8622 0.724396 25.5954 0.433296C25.3374 0.145496 25.0237 0 24.6601 0H12.3399C11.9089 0 11.5776 0.1585 11.346 0.4786C11.1143 0.7988 11 1.1997 11 1.6816C11 2.0696 11.1525 2.49 11.4603 2.9428C11.7682 3.3923 12.0936 3.748 12.4396 4.0067Z" fill="#FDCD39"/>
<path d="M25.1644 4.99631C23.3348 6.36401 21.9451 7.42501 20.9951 8.18201C20.6785 8.44001 20.4204 8.64101 20.2211 8.78601C20.0217 8.93201 19.7608 9.077 19.4294 9.229C19.1011 9.381 18.7932 9.45601 18.5088 9.45601H18.5H18.4912C18.2068 9.45601 17.8989 9.381 17.5706 9.229C17.2422 9.077 16.9783 8.93201 16.7789 8.78601C16.5796 8.64101 16.3215 8.44001 16.0049 8.18201C15.2514 7.57401 13.8645 6.51001 11.8444 4.99631C11.5278 4.76021 11.2463 4.49181 11 4.19101V11.522C11 11.93 11.1319 12.276 11.3929 12.567C11.6538 12.854 11.9705 13 12.3399 13H24.663C25.0324 13 25.3462 12.854 25.61 12.567C25.871 12.279 26.0029 11.93 26.0029 11.522V4.19101C25.7596 4.48531 25.481 4.75371 25.1644 4.99631Z" fill="#FDCD39"/>
<path d="M5.00189 6.848C6.46259 6.848 7.64929 5.316 7.64929 3.424C7.64929 1.532 7.25869 0 5.00189 0C2.74499 0 2.35449 1.532 2.35449 3.424C2.35449 5.316 3.54109 6.848 5.00189 6.848Z" fill="#FDCD39"/>
<path d="M9.9925 11.936C9.9437 8.644 9.5381 7.704 6.4476 7.108C6.4476 7.108 6.012 7.7 4.9981 7.7C3.9842 7.7 3.5486 7.108 3.5486 7.108C0.491899 7.696 0.0637997 8.62 0.00749969 11.828C0.00379969 12.088 0 12.104 0 12.072C0 12.128 0 12.236 0 12.42C0 12.42 0.736 14 4.9981 14C9.2602 14 9.9962 12.42 9.9962 12.42C9.9962 12.3 9.9962 12.22 9.9962 12.164C10 12.184 9.9962 12.148 9.9925 11.936Z" fill="#FDCD39"/>
</svg>
