<svg width="42" height="13" viewBox="0 0 42 13" fill="none" xmlns="http://www.w3.org/2000/svg">
<path d="M14.7803 0.219C14.4873 -0.073 14.0127 -0.073 13.7197 0.219L4.73438 9.19201L1.28028 5.743C0.987275 5.45 0.512675 5.45 0.219675 5.743C-0.073225 6.035 -0.073225 6.50901 0.219675 6.80201L4.20407 10.781C4.49707 11.073 4.97168 11.073 5.26458 10.781L14.7803 1.27801C15.0732 0.986006 15.0732 0.512 14.7803 0.219Z" fill="#3BD14E"/>
<path d="M23.05 5.99999L27.775 1.27499C28.075 0.974988 28.075 0.5 27.775 0.225C27.475 -0.075 27 -0.075 26.725 0.225L22 4.925L17.275 0.225C16.975 -0.075 16.5 -0.075 16.225 0.225C15.925 0.525 15.925 0.999988 16.225 1.27499L20.925 5.99999L16.225 10.7C15.925 11 15.925 11.475 16.225 11.75C16.375 11.925 16.55 12 16.75 12C16.95 12 17.125 11.925 17.275 11.775L22 7.05L26.725 11.775C26.875 11.925 27.075 12 27.25 12C27.425 12 27.625 11.925 27.775 11.775C28.075 11.475 28.075 11 27.775 10.725L23.05 5.99999Z" fill="#DC0000"/>
<path d="M35.8367 3.065C36.7234 3.065 37.4422 2.379 37.4422 1.532C37.4422 0.685998 36.7234 0 35.8367 0C34.9499 0 34.2311 0.685998 34.2311 1.532C34.2311 2.379 34.9499 3.065 35.8367 3.065Z" fill="#57A5FE"/>
<path d="M35.8366 13C36.3515 13 36.7689 12.602 36.7689 12.11C36.7689 11.619 36.3515 11.221 35.8366 11.221C35.3218 11.221 34.9044 11.619 34.9044 12.11C34.9044 12.602 35.3218 13 35.8366 13Z" fill="#57A5FE"/>
<path d="M31.9004 4.44901C32.7013 4.44901 33.3506 3.829 33.3506 3.065C33.3506 2.3 32.7013 1.681 31.9004 1.681C31.0995 1.681 30.4502 2.3 30.4502 3.065C30.4502 3.829 31.0995 4.44901 31.9004 4.44901Z" fill="#57A5FE"/>
<path d="M39.7211 11.319C40.1502 11.319 40.498 10.987 40.498 10.578C40.498 10.168 40.1502 9.83701 39.7211 9.83701C39.292 9.83701 38.9442 10.168 38.9442 10.578C38.9442 10.987 39.292 11.319 39.7211 11.319Z" fill="#57A5FE"/>
<path d="M30.2948 8.05701C31.0099 8.05701 31.5896 7.504 31.5896 6.821C31.5896 6.139 31.0099 5.586 30.2948 5.586C29.5797 5.586 29 6.139 29 6.821C29 7.504 29.5797 8.05701 30.2948 8.05701Z" fill="#57A5FE"/>
<path d="M41.3785 7.414C41.7217 7.414 42 7.149 42 6.821C42 6.494 41.7217 6.228 41.3785 6.228C41.0352 6.228 40.757 6.494 40.757 6.821C40.757 7.149 41.0352 7.414 41.3785 7.414Z" fill="#57A5FE"/>
<path d="M31.1235 9.787C30.7092 10.183 30.7092 10.875 31.1235 11.27C31.5378 11.665 32.2629 11.665 32.6773 11.27C33.0916 10.875 33.0916 10.183 32.6773 9.787C32.2629 9.392 31.5378 9.392 31.1235 9.787Z" fill="#57A5FE"/>
<path d="M39.7211 3.509C39.9786 3.509 40.1872 3.31 40.1872 3.065C40.1872 2.819 39.9786 2.62 39.7211 2.62C39.4637 2.62 39.255 2.819 39.255 3.065C39.255 3.31 39.4637 3.509 39.7211 3.509Z" fill="#57A5FE"/>
</svg>
