<svg width="113" height="35" viewBox="0 0 113 35" fill="none" xmlns="http://www.w3.org/2000/svg">
<path d="M109.577 4.4072H112.996L108.891 0V3.7785C108.891 4.1537 109.234 4.4072 109.577 4.4072Z" fill="#999999"/>
<path d="M108.208 3.7785V0H101.37C100.615 0 100 0.566099 100 1.2606V15.7394C100 16.4306 100.615 17 101.37 17H111.63C112.381 17 113 16.4339 113 15.7394V5.0358H109.581C108.823 5.0358 108.208 4.4697 108.208 3.7785ZM102.053 2.5179H106.842V3.1466H102.053V2.5179ZM102.053 4.4072H106.842V5.0358H102.053V4.4072ZM110.944 14.4788H102.053V13.8501H110.944V14.4788ZM110.944 12.5895H102.053V11.9609H110.944V12.5895ZM110.944 10.7003H102.053V10.0716H110.944V10.7003ZM110.944 8.8143H102.053V8.1857H110.944V8.8143ZM110.944 6.9251H102.053V6.2964H110.944V6.9251Z" fill="#999999"/>
<path d="M108.208 3.7785V0H101.37C100.615 0 100 0.566099 100 1.2606V15.7394C100 16.4306 100.615 17 101.37 17H111.63C112.381 17 113 16.4339 113 15.7394V5.0358H109.581C108.823 5.0358 108.208 4.4697 108.208 3.7785ZM102.053 2.5179H106.842V3.1466H102.053V2.5179ZM102.053 4.4072H106.842V5.0358H102.053V4.4072ZM110.944 14.4788H102.053V13.8501H110.944V14.4788ZM110.944 12.5895H102.053V11.9609H110.944V12.5895ZM110.944 10.7003H102.053V10.0716H110.944V10.7003ZM110.944 8.8143H102.053V8.1857H110.944V8.8143ZM110.944 6.9251H102.053V6.2964H110.944V6.9251Z" fill="#999999"/>
<path d="M108.208 3.7785V0H101.37C100.615 0 100 0.566099 100 1.2606V15.7394C100 16.4306 100.615 17 101.37 17H111.63C112.381 17 113 16.4339 113 15.7394V5.0358H109.581C108.823 5.0358 108.208 4.4697 108.208 3.7785ZM102.053 2.5179H106.842V3.1466H102.053V2.5179ZM102.053 4.4072H106.842V5.0358H102.053V4.4072ZM110.944 14.4788H102.053V13.8501H110.944V14.4788ZM110.944 12.5895H102.053V11.9609H110.944V12.5895ZM110.944 10.7003H102.053V10.0716H110.944V10.7003ZM110.944 8.8143H102.053V8.1857H110.944V8.8143ZM110.944 6.9251H102.053V6.2964H110.944V6.9251Z" fill="#999999"/>
<path d="M109.577 22.4072H112.996L108.891 18V21.7785C108.891 22.1537 109.234 22.4072 109.577 22.4072Z" fill="#FDCD39"/>
<path d="M108.208 21.7785V18H101.37C100.615 18 100 18.5661 100 19.2606V33.7394C100 34.4306 100.615 35 101.37 35H111.63C112.381 35 113 34.4339 113 33.7394V23.0358H109.581C108.823 23.0358 108.208 22.4697 108.208 21.7785ZM102.053 20.5179H106.842V21.1466H102.053V20.5179ZM102.053 22.4072H106.842V23.0358H102.053V22.4072ZM110.944 32.4788H102.053V31.8501H110.944V32.4788ZM110.944 30.5895H102.053V29.9609H110.944V30.5895ZM110.944 28.7003H102.053V28.0716H110.944V28.7003ZM110.944 26.8143H102.053V26.1857H110.944V26.8143ZM110.944 24.9251H102.053V24.2964H110.944V24.9251Z" fill="#FDCD39"/>
<path d="M108.208 21.7785V18H101.37C100.615 18 100 18.5661 100 19.2606V33.7394C100 34.4306 100.615 35 101.37 35H111.63C112.381 35 113 34.4339 113 33.7394V23.0358H109.581C108.823 23.0358 108.208 22.4697 108.208 21.7785ZM102.053 20.5179H106.842V21.1466H102.053V20.5179ZM102.053 22.4072H106.842V23.0358H102.053V22.4072ZM110.944 32.4788H102.053V31.8501H110.944V32.4788ZM110.944 30.5895H102.053V29.9609H110.944V30.5895ZM110.944 28.7003H102.053V28.0716H110.944V28.7003ZM110.944 26.8143H102.053V26.1857H110.944V26.8143ZM110.944 24.9251H102.053V24.2964H110.944V24.9251Z" fill="#FDCD39"/>
<path d="M108.208 21.7785V18H101.37C100.615 18 100 18.5661 100 19.2606V33.7394C100 34.4306 100.615 35 101.37 35H111.63C112.381 35 113 34.4339 113 33.7394V23.0358H109.581C108.823 23.0358 108.208 22.4697 108.208 21.7785ZM102.053 20.5179H106.842V21.1466H102.053V20.5179ZM102.053 22.4072H106.842V23.0358H102.053V22.4072ZM110.944 32.4788H102.053V31.8501H110.944V32.4788ZM110.944 30.5895H102.053V29.9609H110.944V30.5895ZM110.944 28.7003H102.053V28.0716H110.944V28.7003ZM110.944 26.8143H102.053V26.1857H110.944V26.8143ZM110.944 24.9251H102.053V24.2964H110.944V24.9251Z" fill="#FDCD39"/>
<path d="M89 21C85.179 21 81.714 23.1043 79.156 26.5223C78.948 26.8023 78.948 27.1935 79.156 27.4736C81.714 30.8957 85.179 33 89 33C92.821 33 96.286 30.8957 98.844 27.4777C99.052 27.1977 99.052 26.8065 98.844 26.5264C96.286 23.1043 92.821 21 89 21ZM89.274 31.2251C86.738 31.3857 84.643 29.2814 84.802 26.7241C84.933 24.6156 86.631 22.9067 88.726 22.7749C91.262 22.6143 93.357 24.7186 93.198 27.2759C93.063 29.3802 91.365 31.0892 89.274 31.2251ZM89.147 29.2732C87.781 29.3596 86.652 28.2272 86.742 26.8518C86.811 25.7152 87.728 24.7968 88.857 24.7227C90.223 24.6362 91.352 25.7687 91.262 27.1441C91.189 28.2848 90.272 29.2032 89.147 29.2732Z" fill="#FDCD39"/>
<path d="M89 2C85.179 2 81.714 4.1043 79.156 7.5223C78.948 7.8023 78.948 8.1935 79.156 8.4736C81.714 11.8957 85.179 14 89 14C92.821 14 96.286 11.8957 98.844 8.4777C99.052 8.1977 99.052 7.8065 98.844 7.5264C96.286 4.1043 92.821 2 89 2ZM89.274 12.2251C86.738 12.3857 84.643 10.2814 84.802 7.7241C84.933 5.6156 86.631 3.9067 88.726 3.7749C91.262 3.6143 93.357 5.7186 93.198 8.2759C93.063 10.3802 91.365 12.0892 89.274 12.2251ZM89.147 10.2732C87.781 10.3596 86.652 9.2272 86.742 7.8518C86.811 6.7152 87.728 5.7968 88.857 5.7227C90.223 5.6362 91.352 6.7687 91.262 8.1441C91.189 9.2848 90.272 10.2032 89.147 10.2732Z" fill="#999999"/>
<path d="M71.03 29.1808C72.056 28.6956 72.867 28.0313 73.462 27.1954C74.056 26.3557 74.352 25.4451 74.352 24.4561C74.352 23.4672 74.056 22.5566 73.462 21.7169C72.867 20.8772 72.056 20.2166 71.03 19.7315C70.003 19.2426 68.887 19 67.678 19C66.468 19 65.352 19.2426 64.326 19.7315C63.299 20.2166 62.488 20.8809 61.894 21.7169C61.296 22.5566 61 23.4672 61 24.4561C61 25.2995 61.226 26.0982 61.674 26.8446C62.123 27.591 62.741 28.2179 63.525 28.7292C63.462 28.9009 63.395 29.0576 63.329 29.1994C63.262 29.3413 63.183 29.4793 63.093 29.61C63 29.7406 62.93 29.8451 62.88 29.9197C62.831 29.9944 62.748 30.0989 62.635 30.2332C62.522 30.3676 62.449 30.4571 62.415 30.4982C62.415 30.4907 62.402 30.5056 62.379 30.5467C62.352 30.584 62.339 30.6027 62.336 30.5989C62.332 30.5952 62.319 30.6139 62.299 30.6512C62.276 30.6885 62.266 30.7109 62.266 30.7109L62.243 30.7631C62.233 30.7855 62.226 30.8042 62.223 30.8266C62.219 30.849 62.219 30.8714 62.219 30.8975C62.219 30.9236 62.223 30.946 62.229 30.9684C62.243 31.0617 62.279 31.1363 62.339 31.1923C62.399 31.2483 62.465 31.2782 62.535 31.2782H62.565C62.88 31.2296 63.153 31.1699 63.382 31.1065C64.355 30.8229 65.236 30.3676 66.02 29.7443C66.588 29.8563 67.146 29.916 67.688 29.916C68.887 29.9123 70.003 29.6659 71.03 29.1808Z" fill="#FDCD39"/>
<path d="M77.326 29.5764C77.774 28.8337 78 28.0388 78 27.1842C78 26.3109 77.764 25.4936 77.289 24.7323C76.814 23.971 76.169 23.3403 75.355 22.8365C75.502 23.3701 75.575 23.9075 75.575 24.4561C75.575 25.4078 75.362 26.3109 74.94 27.1618C74.515 28.0127 73.91 28.7665 73.12 29.4196C72.385 30.0167 71.551 30.4758 70.615 30.793C69.678 31.1139 68.701 31.2707 67.684 31.2707C67.495 31.2707 67.216 31.2558 66.85 31.2296C68.123 32.1664 69.615 32.6366 71.329 32.6366C71.874 32.6366 72.429 32.5806 73 32.4649C73.784 33.0919 74.664 33.5435 75.638 33.8271C75.867 33.8905 76.136 33.9465 76.455 33.9987C76.532 34.0062 76.601 33.9801 76.664 33.9241C76.728 33.8681 76.767 33.7898 76.787 33.689C76.784 33.6479 76.787 33.6218 76.797 33.6181C76.807 33.6144 76.804 33.592 76.794 33.5472C76.781 33.5061 76.774 33.4837 76.774 33.4837L76.751 33.4315C76.744 33.4166 76.734 33.3979 76.718 33.3718C76.701 33.3457 76.688 33.3307 76.681 33.3195C76.671 33.3083 76.658 33.2897 76.638 33.2673C76.618 33.2412 76.605 33.2262 76.601 33.2188C76.568 33.1777 76.498 33.0882 76.382 32.9538C76.269 32.8195 76.186 32.715 76.136 32.6403C76.086 32.5657 76.013 32.4612 75.924 32.3306C75.831 32.1999 75.754 32.0619 75.688 31.92C75.621 31.7782 75.558 31.6215 75.492 31.4498C76.259 30.946 76.874 30.319 77.326 29.5764Z" fill="#FDCD39"/>
<path d="M71.03 11.1808C72.056 10.6956 72.867 10.0313 73.462 9.1954C74.056 8.3557 74.352 7.4451 74.352 6.4561C74.352 5.4672 74.056 4.5566 73.462 3.7169C72.867 2.8772 72.056 2.2166 71.03 1.7315C70.003 1.2426 68.887 1 67.678 1C66.468 1 65.352 1.2426 64.326 1.7315C63.299 2.2166 62.488 2.8809 61.894 3.7169C61.296 4.5566 61 5.4672 61 6.4561C61 7.2995 61.226 8.0982 61.674 8.8446C62.123 9.591 62.741 10.2179 63.525 10.7292C63.462 10.9009 63.395 11.0576 63.329 11.1994C63.262 11.3413 63.183 11.4793 63.093 11.61C63 11.7406 62.93 11.8451 62.88 11.9197C62.831 11.9944 62.748 12.0989 62.635 12.2332C62.522 12.3676 62.449 12.4571 62.415 12.4982C62.415 12.4907 62.402 12.5056 62.379 12.5467C62.352 12.584 62.339 12.6027 62.336 12.5989C62.332 12.5952 62.319 12.6139 62.299 12.6512C62.276 12.6885 62.266 12.7109 62.266 12.7109L62.243 12.7631C62.233 12.7855 62.226 12.8042 62.223 12.8266C62.219 12.849 62.219 12.8714 62.219 12.8975C62.219 12.9236 62.223 12.946 62.229 12.9684C62.243 13.0617 62.279 13.1363 62.339 13.1923C62.399 13.2483 62.465 13.2782 62.535 13.2782H62.565C62.88 13.2296 63.153 13.1699 63.382 13.1065C64.355 12.8229 65.236 12.3676 66.02 11.7443C66.588 11.8563 67.146 11.916 67.688 11.916C68.887 11.9123 70.003 11.6659 71.03 11.1808Z" fill="#999999"/>
<path d="M77.326 11.5764C77.774 10.8337 78 10.0388 78 9.18419C78 8.31089 77.764 7.49359 77.289 6.73229C76.814 5.97099 76.169 5.34029 75.355 4.83649C75.502 5.37009 75.575 5.90749 75.575 6.45609C75.575 7.40779 75.362 8.31089 74.94 9.16179C74.515 10.0127 73.91 10.7665 73.12 11.4196C72.385 12.0167 71.551 12.4758 70.615 12.793C69.678 13.1139 68.701 13.2707 67.684 13.2707C67.495 13.2707 67.216 13.2558 66.85 13.2296C68.123 14.1664 69.615 14.6366 71.329 14.6366C71.874 14.6366 72.429 14.5806 73 14.4649C73.784 15.0919 74.664 15.5435 75.638 15.8271C75.867 15.8905 76.136 15.9465 76.455 15.9987C76.532 16.0062 76.601 15.9801 76.664 15.9241C76.728 15.8681 76.767 15.7898 76.787 15.689C76.784 15.6479 76.787 15.6218 76.797 15.6181C76.807 15.6144 76.804 15.592 76.794 15.5472C76.781 15.5061 76.774 15.4837 76.774 15.4837L76.751 15.4315C76.744 15.4166 76.734 15.3979 76.718 15.3718C76.701 15.3457 76.688 15.3307 76.681 15.3195C76.671 15.3083 76.658 15.2897 76.638 15.2673C76.618 15.2412 76.605 15.2262 76.601 15.2188C76.568 15.1777 76.498 15.0882 76.382 14.9538C76.269 14.8195 76.186 14.715 76.136 14.6403C76.086 14.5657 76.013 14.4612 75.924 14.3306C75.831 14.1999 75.754 14.0619 75.688 13.92C75.621 13.7782 75.558 13.6215 75.492 13.4498C76.259 12.946 76.874 12.319 77.326 11.5764Z" fill="#999999"/>
<path d="M46.439 24.0067C46.63 24.1555 47.201 24.592 48.154 25.3229C49.107 26.0537 49.84 26.6132 50.347 27.0077C50.403 27.0498 50.52 27.1435 50.702 27.2891C50.883 27.4346 51.033 27.551 51.153 27.6415C51.273 27.7321 51.417 27.8323 51.587 27.9423C51.757 28.0522 51.918 28.1363 52.068 28.1913C52.217 28.2463 52.358 28.2754 52.487 28.2754H52.496H52.504C52.633 28.2754 52.771 28.2463 52.924 28.1913C53.073 28.1363 53.234 28.0522 53.404 27.9423C53.574 27.8323 53.721 27.7321 53.838 27.6415C53.958 27.551 54.108 27.4346 54.29 27.2891C54.471 27.1435 54.589 27.0498 54.644 27.0077C55.157 26.6132 56.465 25.6139 58.561 24.0067C58.968 23.693 59.308 23.3147 59.581 22.8716C59.853 22.4286 59.991 21.9629 59.991 21.4779C59.991 21.0704 59.859 20.7244 59.593 20.4333C59.335 20.1455 59.021 20 58.657 20H46.34C45.909 20 45.577 20.1585 45.346 20.4786C45.114 20.7988 45 21.1998 45 21.6816C45 22.0697 45.152 22.49 45.46 22.9428C45.768 23.3923 46.093 23.748 46.439 24.0067Z" fill="#FDCD39"/>
<path d="M59.162 24.9963C57.332 26.3642 55.943 27.4249 54.993 28.1816C54.677 28.4403 54.419 28.6408 54.219 28.7863C54.02 28.9318 53.759 29.0774 53.428 29.2293C53.099 29.3813 52.792 29.4557 52.507 29.4557H52.499H52.49C52.205 29.4557 51.898 29.3813 51.569 29.2293C51.241 29.0774 50.977 28.9318 50.778 28.7863C50.578 28.6408 50.321 28.4403 50.004 28.1816C49.251 27.5736 47.864 26.5097 45.844 24.9963C45.528 24.7602 45.246 24.4918 45 24.191V31.5221C45 31.9296 45.132 32.2756 45.393 32.5667C45.654 32.8545 45.97 33 46.34 33H58.66C59.03 33 59.343 32.8545 59.607 32.5667C59.868 32.2789 60 31.9296 60 31.5221V24.191C59.757 24.4853 59.478 24.7537 59.162 24.9963Z" fill="#FDCD39"/>
<path d="M46.439 6.0067C46.63 6.1555 47.201 6.592 48.154 7.3229C49.107 8.0537 49.84 8.6132 50.347 9.0077C50.403 9.0498 50.52 9.1435 50.702 9.2891C50.883 9.4346 51.033 9.551 51.153 9.6415C51.273 9.7321 51.417 9.8323 51.587 9.9423C51.757 10.0522 51.918 10.1363 52.068 10.1913C52.217 10.2463 52.358 10.2754 52.487 10.2754H52.496H52.504C52.633 10.2754 52.771 10.2463 52.924 10.1913C53.073 10.1363 53.234 10.0522 53.404 9.9423C53.574 9.8323 53.721 9.7321 53.838 9.6415C53.958 9.551 54.108 9.4346 54.29 9.2891C54.471 9.1435 54.589 9.0498 54.644 9.0077C55.157 8.6132 56.465 7.6139 58.561 6.0067C58.968 5.693 59.308 5.3147 59.581 4.8716C59.853 4.4286 59.991 3.9629 59.991 3.4779C59.991 3.0704 59.859 2.7244 59.593 2.4333C59.335 2.1455 59.021 2 58.657 2H46.34C45.909 2 45.577 2.1585 45.346 2.4786C45.114 2.7988 45 3.1998 45 3.6816C45 4.0697 45.152 4.49 45.46 4.9428C45.768 5.3923 46.093 5.748 46.439 6.0067Z" fill="#999999"/>
<path d="M59.162 6.99628C57.332 8.36418 55.943 9.42488 54.993 10.1816C54.677 10.4403 54.419 10.6408 54.219 10.7863C54.02 10.9318 53.759 11.0774 53.428 11.2293C53.099 11.3813 52.792 11.4557 52.507 11.4557H52.499H52.49C52.205 11.4557 51.898 11.3813 51.569 11.2293C51.241 11.0774 50.977 10.9318 50.778 10.7863C50.578 10.6408 50.321 10.4403 50.004 10.1816C49.251 9.57358 47.864 8.50968 45.844 6.99628C45.528 6.76018 45.246 6.49178 45 6.19098V13.5221C45 13.9296 45.132 14.2756 45.393 14.5667C45.654 14.8545 45.97 15 46.34 15H58.66C59.03 15 59.343 14.8545 59.607 14.5667C59.868 14.2789 60 13.9296 60 13.5221V6.19098C59.757 6.48528 59.478 6.75368 59.162 6.99628Z" fill="#999999"/>
<path d="M32.5028 26.9456L33.1838 29.8281H42.2453L42.9197 26.9456H32.5028Z" fill="#FDCD39"/>
<path d="M43.2994 25.3274L44 22.3439H33.1707L32.6076 20.0114L29.5631 19L29 20.5803L31.141 21.2882L32.1165 25.3274H43.2994Z" fill="#FDCD39"/>
<path d="M36.6146 32.3565C36.6146 33.2668 35.8551 34 34.9123 34C33.9694 34 33.2099 33.2668 33.2099 32.3565C33.2099 31.4463 33.9694 30.713 34.9123 30.713C35.8485 30.713 36.6146 31.4463 36.6146 32.3565Z" fill="#FDCD39"/>
<path d="M42.2191 32.3565C42.2191 33.2668 41.4596 34 40.5168 34C39.574 34 38.8145 33.2668 38.8145 32.3565C38.8145 31.4463 39.574 30.713 40.5168 30.713C41.4531 30.713 42.2191 31.4463 42.2191 32.3565Z" fill="#FDCD39"/>
<path d="M32.5028 26.9456L33.1838 29.8281H42.2453L42.9197 26.9456H32.5028Z" fill="#FDCD39"/>
<path d="M43.2994 25.3274L44 22.3439H33.1707L32.6076 20.0114L29.5631 19L29 20.5803L31.141 21.2882L32.1165 25.3274H43.2994Z" fill="#FDCD39"/>
<path d="M36.6146 32.3565C36.6146 33.2668 35.8551 34 34.9123 34C33.9694 34 33.2099 33.2668 33.2099 32.3565C33.2099 31.4463 33.9694 30.713 34.9123 30.713C35.8485 30.713 36.6146 31.4463 36.6146 32.3565Z" fill="#FDCD39"/>
<path d="M42.2191 32.3565C42.2191 33.2668 41.4596 34 40.5168 34C39.574 34 38.8145 33.2668 38.8145 32.3565C38.8145 31.4463 39.574 30.713 40.5168 30.713C41.4531 30.713 42.2191 31.4463 42.2191 32.3565Z" fill="#FDCD39"/>
<path d="M32.5028 8.94562L33.1838 11.8281H42.2453L42.9197 8.94562H32.5028Z" fill="#999999"/>
<path d="M43.2994 7.3274L44 4.3439H33.1707L32.6076 2.0114L29.5631 1L29 2.5803L31.141 3.2882L32.1165 7.3274H43.2994Z" fill="#999999"/>
<path d="M36.6146 14.3565C36.6146 15.2668 35.8551 16 34.9123 16C33.9694 16 33.2099 15.2668 33.2099 14.3565C33.2099 13.4463 33.9694 12.713 34.9123 12.713C35.8485 12.713 36.6146 13.4463 36.6146 14.3565Z" fill="#999999"/>
<path d="M42.2191 14.3565C42.2191 15.2668 41.4596 16 40.5168 16C39.574 16 38.8145 15.2668 38.8145 14.3565C38.8145 13.4463 39.574 12.713 40.5168 12.713C41.4531 12.713 42.2191 13.4463 42.2191 14.3565Z" fill="#999999"/>
<path d="M28 19H24V34H28V19Z" fill="#FDCD39"/>
<path d="M23 22H19V34H23V22Z" fill="#FDCD39"/>
<path d="M18 25H14V34H18V25Z" fill="#FDCD39"/>
<path d="M28 1H24V16H28V1Z" fill="#999999"/>
<path d="M23 4H19V16H23V4Z" fill="#999999"/>
<path d="M18 7H14V16H18V7Z" fill="#999999"/>
<path d="M6.50301 7.9552C8.48361 7.9552 10.0892 6.3982 10.0892 4.4776C10.0892 2.557 8.48361 1 6.50301 1C4.52241 1 2.91681 2.557 2.91681 4.4776C2.91681 6.3982 4.52241 7.9552 6.50301 7.9552Z" fill="#999999"/>
<path d="M6.503 9.694C2.9108 9.694 0 12.5166 0 16H13C13 12.5166 10.0892 9.694 6.503 9.694Z" fill="#999999"/>
<path d="M6.50301 25.9552C8.48361 25.9552 10.0892 24.3982 10.0892 22.4776C10.0892 20.557 8.48361 19 6.50301 19C4.52241 19 2.91681 20.557 2.91681 22.4776C2.91681 24.3982 4.52241 25.9552 6.50301 25.9552Z" fill="#FDCD39"/>
<path d="M6.503 27.9552C2.9108 27.9552 0 30.7778 0 34.2612H13C13 30.7778 10.0892 27.9552 6.503 27.9552Z" fill="#FDCD39"/>
</svg>
