<svg width="16" height="12" viewBox="0 0 16 12" fill="none" xmlns="http://www.w3.org/2000/svg">
<path d="M12.9544 9.09764C12.8909 9.09764 12.8275 9.07443 12.7779 9.02748L9.80928 6.24249C9.70558 6.1455 9.70042 5.98195 9.79793 5.87825C9.89544 5.77351 10.058 5.76887 10.1627 5.8669L13.1314 8.65188C13.2351 8.74888 13.2402 8.91243 13.1427 9.01613C13.0916 9.0703 13.0235 9.09764 12.9544 9.09764Z" fill="#999999"/>
<path d="M3.04484 9.09819C2.97622 9.09819 2.9076 9.07084 2.85653 9.01667C2.75902 8.91297 2.76418 8.74942 2.86788 8.65242L5.83757 5.86744C5.94179 5.77044 6.10533 5.77457 6.20233 5.87879C6.29984 5.98249 6.29468 6.14604 6.19098 6.24303L3.22129 9.02802C3.17176 9.07497 3.1083 9.09819 3.04484 9.09819Z" fill="#999999"/>
<path d="M14.7102 11.6871H1.28982C0.578873 11.6871 0 11.1087 0 10.3973V1.60223C0 0.890765 0.578873 0.312408 1.28982 0.312408H14.7102C15.4211 0.312408 16 0.890765 16 1.60223V10.3973C16 11.1087 15.4211 11.6871 14.7102 11.6871ZM1.28982 0.828338C0.86315 0.828338 0.515929 1.17556 0.515929 1.60223V10.3973C0.515929 10.824 0.86315 11.1712 1.28982 11.1712H14.7102C15.1369 11.1712 15.4841 10.824 15.4841 10.3973V1.60223C15.4841 1.17556 15.1369 0.828338 14.7102 0.828338H1.28982Z" fill="#999999"/>
<path d="M8.00015 7.29601C7.65706 7.29601 7.31396 7.18199 7.0529 6.95447L0.428371 1.17554C0.321058 1.08216 0.309707 0.919127 0.403091 0.811297C0.497506 0.703984 0.660023 0.694182 0.767337 0.786533L7.39187 6.56494C7.72155 6.85231 8.27875 6.85231 8.60791 6.56494L15.2242 0.79582C15.331 0.702436 15.4935 0.712755 15.5884 0.820584C15.6818 0.928413 15.671 1.09093 15.5637 1.18483L8.9474 6.95395C8.68582 7.18199 8.34324 7.29601 8.00015 7.29601Z" fill="#999999"/>
</svg>
