<svg width="12" height="16" viewBox="0 0 12 16" fill="none" xmlns="http://www.w3.org/2000/svg">
<path d="M11.0846 6.7338H10.3051V4.26534C10.3051 1.91343 8.39172 0 6.03981 0H5.9602C3.6083 0 1.69487 1.91343 1.69487 4.26534V6.7338H0.915442C0.735657 6.7338 0.589844 6.87962 0.589844 7.0594V15.6744C0.589844 15.8542 0.735657 16 0.915442 16C1.09528 16 1.24104 15.8542 1.24104 15.6744V7.385H2.02052H9.97961H10.7591V15.3488H4.75186C4.57207 15.3488 4.42626 15.4946 4.42626 15.6744C4.42626 15.8542 4.57207 16 4.75186 16H11.0846C11.2644 16 11.4102 15.8542 11.4102 15.6744V7.0594C11.4102 6.87956 11.2645 6.7338 11.0846 6.7338ZM2.34607 6.7338V4.26534C2.34607 2.27251 3.96733 0.651196 5.9602 0.651196H6.03981C8.03269 0.651196 9.65395 2.27251 9.65395 4.26534V6.7338H2.34607Z" fill="#999999"/>
<path d="M5.9999 9.73533C6.17968 9.73533 6.3255 9.58952 6.3255 9.40973C6.3255 9.22995 6.17968 9.08414 5.9999 9.08414C5.22644 9.08414 4.59717 9.71341 4.59717 10.4869C4.59717 11.2603 5.22644 11.8896 5.9999 11.8896C6.77336 11.8896 7.40263 11.2603 7.40263 10.4869C7.40263 10.3071 7.25682 10.1613 7.07703 10.1613C6.89725 10.1613 6.75143 10.3071 6.75143 10.4869C6.75143 10.9012 6.41433 11.2384 5.9999 11.2384C5.58547 11.2384 5.24836 10.9012 5.24836 10.4869C5.24836 10.0725 5.58552 9.73533 5.9999 9.73533Z" fill="#999999"/>
</svg>
