<svg width="16" height="16" viewBox="0 0 16 16" fill="none" xmlns="http://www.w3.org/2000/svg">
<g clip-path="url(#clip0)">
<path d="M13.6577 2.34347C10.5382 -0.776072 5.46236 -0.776072 2.34287 2.34347C1.24837 3.43797 0.49969 4.81301 0.177695 6.31997C-0.13578 7.78732 -0.0330972 9.30758 0.474616 10.7163C0.535618 10.8855 0.722259 10.9732 0.89137 10.9122C1.06059 10.8512 1.14829 10.6647 1.08729 10.4955C0.620825 9.20116 0.5265 7.80436 0.814575 6.45598C1.11019 5.07226 1.79793 3.80936 2.80337 2.80392C5.66898 -0.0616915 10.3316 -0.0616915 13.1972 2.80392C14.5619 4.16864 15.3258 5.98267 15.3483 7.91198C15.3707 9.83777 14.653 11.6663 13.3275 13.0606C13.3118 13.0771 13.2963 13.0938 13.2808 13.1104C13.2533 13.1397 13.2259 13.1691 13.1972 13.1978C10.3316 16.0634 5.66898 16.0634 2.80337 13.1978C2.78812 13.1825 2.77325 13.167 2.75854 13.1515C2.75778 13.1214 2.75713 13.0918 2.75713 13.0626C2.75713 12.997 2.75838 12.9317 2.76076 12.8667C2.76158 12.8449 2.76321 12.8234 2.76429 12.8017C2.76641 12.7584 2.76842 12.7152 2.77156 12.6721C2.77346 12.6464 2.77623 12.621 2.77851 12.5955C2.78193 12.5567 2.78513 12.5179 2.78937 12.4793C2.79235 12.452 2.79626 12.425 2.79968 12.3979C2.80429 12.3612 2.80869 12.3245 2.81411 12.288C2.81824 12.2602 2.82312 12.2327 2.82768 12.2051C2.83349 12.1696 2.83913 12.134 2.8457 12.0987C2.85086 12.0707 2.85677 12.043 2.86242 12.0153C2.86942 11.9806 2.87631 11.9458 2.88402 11.9114C2.89026 11.8834 2.8972 11.8556 2.90388 11.8279C2.91202 11.7939 2.92011 11.76 2.9289 11.7264C2.93623 11.6985 2.94415 11.6708 2.95186 11.6431C2.96114 11.6098 2.97036 11.5766 2.98029 11.5436C2.9886 11.5159 2.9975 11.4884 3.00629 11.461C3.01671 11.4284 3.02713 11.3957 3.03815 11.3633C3.04748 11.336 3.05725 11.3089 3.06702 11.2818C3.07858 11.2496 3.09019 11.2175 3.10235 11.1856C3.11266 11.1586 3.12336 11.1319 3.1341 11.1052C3.14675 11.0736 3.1595 11.0421 3.17274 11.0109C3.18403 10.9843 3.19565 10.9579 3.20737 10.9315C3.2211 10.9005 3.23499 10.8696 3.24932 10.839C3.26153 10.8129 3.27401 10.7869 3.28666 10.761C3.30153 10.7306 3.31656 10.7002 3.33198 10.6701C3.34506 10.6446 3.35835 10.6192 3.37187 10.5939C3.38782 10.5639 3.40405 10.5341 3.4206 10.5044C3.43455 10.4794 3.44866 10.4546 3.46299 10.4299C3.48003 10.4005 3.49734 10.3713 3.51498 10.3422C3.5298 10.3178 3.54478 10.2935 3.55997 10.2693C3.5781 10.2405 3.5965 10.2119 3.61517 10.1835C3.6308 10.1597 3.64654 10.136 3.66255 10.1124C3.6817 10.0842 3.7013 10.0563 3.72105 10.0285C3.7375 10.0053 3.75394 9.98218 3.77076 9.95933C3.79101 9.93176 3.81169 9.90447 3.83247 9.87733C3.84968 9.85486 3.86683 9.83239 3.88441 9.8102C3.90574 9.78322 3.92756 9.75657 3.94943 9.73004C3.96728 9.70833 3.98514 9.68662 4.00337 9.66518C4.02584 9.63881 4.0488 9.61281 4.07181 9.58687C4.09037 9.56592 4.10882 9.54491 4.12771 9.52429C4.15126 9.49857 4.17531 9.47333 4.1994 9.44809C4.21862 9.42791 4.23772 9.40766 4.25726 9.38774C4.28195 9.36267 4.30719 9.33814 4.33237 9.3135C4.35212 9.29423 4.37172 9.27475 4.3918 9.25575C4.41774 9.23122 4.44428 9.20729 4.47071 9.1833C4.4909 9.16501 4.51082 9.1465 4.53128 9.12849C4.55857 9.10444 4.58658 9.08111 4.61442 9.05761C4.63483 9.0404 4.65502 9.02293 4.67569 9.00599C4.70451 8.98244 4.73404 8.95959 4.76345 8.93658C4.78397 8.92057 4.80415 8.90418 4.82489 8.88844C4.85588 8.86494 4.88752 8.84226 4.9191 8.81946C4.93902 8.80503 4.95856 8.79026 4.97875 8.7761C5.01359 8.75162 5.04925 8.72801 5.08479 8.7043C5.10232 8.69263 5.11947 8.68053 5.13711 8.66902C5.18346 8.6389 5.23062 8.60976 5.27811 8.58099C5.28549 8.57654 5.29266 8.57177 5.30009 8.56732C5.35501 8.53443 5.4107 8.50251 5.46703 8.47147C5.4863 8.46089 5.50611 8.45096 5.52559 8.44059C5.56298 8.42062 5.60027 8.40048 5.63831 8.38138C5.66268 8.36911 5.68765 8.35761 5.71223 8.34572C5.74328 8.33069 5.77421 8.31549 5.80563 8.301C6.39584 8.86478 7.18316 9.18395 8.00039 9.18395C8.81761 9.18395 9.60499 8.86473 10.1952 8.3009C11.3473 8.83412 12.2903 9.79087 12.8023 10.9544C12.8747 11.1189 13.0667 11.1937 13.2314 11.1213C13.396 11.0488 13.4708 10.8567 13.3983 10.6921C12.8383 9.41944 11.8635 8.40244 10.6295 7.78851C10.9875 7.26333 11.1812 6.64316 11.1812 6.00319C11.1812 4.24928 9.75429 2.82237 8.00039 2.82237C7.82058 2.82237 7.67476 2.9682 7.67476 3.148C7.67476 3.3278 7.82058 3.47363 8.00039 3.47363C9.39523 3.47363 10.5299 4.6084 10.5299 6.00319C10.5299 6.62688 10.2982 7.22745 9.87733 7.69414C9.87727 7.69419 9.87722 7.69424 9.87716 7.6943C9.39664 8.22714 8.7126 8.53274 8.00033 8.53274C7.28807 8.53274 6.60397 8.22714 6.1235 7.6943C6.12345 7.69419 6.12334 7.69414 6.12323 7.69408C5.70246 7.22724 5.47072 6.62683 5.47072 6.00324C5.47072 5.32246 5.73725 4.68378 6.22125 4.205C6.34911 4.07849 6.3502 3.87231 6.22369 3.7445C6.09724 3.61658 5.89106 3.61561 5.76319 3.74201C5.15464 4.34388 4.81946 5.14694 4.81946 6.00303C4.81946 6.64235 5.01267 7.26208 5.3701 7.78699C5.3669 7.78857 5.36381 7.79031 5.36066 7.79193C5.33526 7.80463 5.31046 7.81809 5.28527 7.83106C5.24669 7.85104 5.20799 7.8709 5.16995 7.89169C5.14303 7.90634 5.11671 7.92175 5.09006 7.93679C5.05451 7.95692 5.01891 7.97695 4.98385 7.99773C4.95666 8.01391 4.9299 8.03062 4.90298 8.04717C4.86934 8.06791 4.83569 8.08858 4.80253 8.10991C4.77544 8.12733 4.74885 8.14524 4.7221 8.16304C4.68991 8.18448 4.65778 8.20603 4.62609 8.22806C4.59944 8.24662 4.57312 8.26556 4.5468 8.2845C4.51586 8.30681 4.48504 8.32922 4.45459 8.35207C4.42848 8.37167 4.40271 8.39153 4.37698 8.4115C4.34713 8.43468 4.3175 8.45801 4.28819 8.48173C4.26279 8.50224 4.23761 8.52303 4.21254 8.54392C4.18372 8.56802 4.15512 8.59239 4.12679 8.61703C4.1022 8.63836 4.07778 8.65985 4.05358 8.68161C4.02563 8.70674 3.99805 8.73214 3.97065 8.75776C3.94699 8.77984 3.92338 8.80199 3.90004 8.82451C3.87296 8.85067 3.84631 8.87721 3.81972 8.90386C3.79703 8.9266 3.77435 8.94928 3.75209 8.97235C3.72577 8.99965 3.69994 9.02743 3.67416 9.05522C3.65261 9.07845 3.63091 9.10157 3.60974 9.12518C3.58396 9.15383 3.55889 9.18308 3.5337 9.21223C3.51346 9.23567 3.49305 9.2589 3.47319 9.28262C3.44763 9.31317 3.42288 9.34433 3.39797 9.37537C3.37946 9.39849 3.36058 9.42128 3.3424 9.44467C3.31624 9.47832 3.29095 9.51262 3.26555 9.54681C3.24959 9.56831 3.2332 9.58942 3.21757 9.61113C3.18544 9.65563 3.15434 9.70078 3.12352 9.74615C3.11543 9.75809 3.10686 9.76971 3.09882 9.7817C3.06045 9.83901 3.02317 9.89698 2.98686 9.95559C2.97432 9.97583 2.96255 9.99651 2.95028 10.0169C2.92678 10.0559 2.90317 10.0949 2.88054 10.1344C2.86643 10.1591 2.85308 10.1842 2.83935 10.2091C2.81954 10.245 2.79962 10.2807 2.78063 10.3169C2.76652 10.3438 2.75317 10.371 2.73944 10.3981C2.72174 10.433 2.704 10.4679 2.68701 10.5032C2.6735 10.5314 2.66063 10.5598 2.64755 10.5881C2.63149 10.623 2.61537 10.6578 2.59996 10.693C2.58726 10.7221 2.5751 10.7514 2.56289 10.7806C2.54818 10.8157 2.53358 10.8509 2.51958 10.8862C2.5078 10.916 2.49651 10.9459 2.48523 10.9758C2.47188 11.0113 2.45869 11.0468 2.44599 11.0826C2.43524 11.1129 2.42482 11.1434 2.41451 11.174C2.40241 11.2099 2.39063 11.2458 2.37923 11.282C2.36952 11.3128 2.36013 11.3437 2.3509 11.3746C2.34005 11.4112 2.32957 11.4478 2.31943 11.4846C2.31085 11.5156 2.30244 11.5467 2.29435 11.578C2.28475 11.6152 2.27563 11.6525 2.26673 11.69C2.25929 11.7212 2.25191 11.7524 2.24502 11.7838C2.23666 11.8217 2.2289 11.8599 2.2213 11.8981C2.21506 11.9293 2.20871 11.9606 2.20296 11.992C2.19585 12.031 2.18944 12.0702 2.18309 12.1094C2.1781 12.1404 2.17284 12.1712 2.16833 12.2023C2.16242 12.2428 2.15742 12.2835 2.15232 12.3242C2.14858 12.3544 2.14445 12.3845 2.14114 12.4148C2.13648 12.4574 2.13289 12.5003 2.12915 12.5433C2.12665 12.5719 2.12367 12.6004 2.1216 12.6291C2.11813 12.6771 2.11585 12.7252 2.11352 12.7734C2.11238 12.7973 2.11059 12.8211 2.10972 12.8451C2.10711 12.9174 2.10565 12.9899 2.10565 13.0628C2.10565 13.1414 2.10831 13.2158 2.11151 13.2979C2.11227 13.3169 2.11493 13.3353 2.11873 13.3533C2.11905 13.3547 2.11922 13.3562 2.11954 13.3576C2.12356 13.3753 2.1292 13.3924 2.13599 13.4089C2.13664 13.4105 2.13724 13.4121 2.13794 13.4137C2.14494 13.43 2.1533 13.4455 2.16274 13.4603C2.16394 13.4621 2.16508 13.464 2.16627 13.4658C2.17599 13.4803 2.18679 13.4939 2.19856 13.5066C2.19943 13.5075 2.20003 13.5087 2.2009 13.5096L2.24388 13.5553C2.27633 13.5901 2.30879 13.6247 2.34265 13.6585C3.90243 15.2183 5.95125 15.9982 8.00012 15.9982C10.049 15.9982 12.0978 15.2183 13.6576 13.6585C13.6914 13.6247 13.7239 13.59 13.7564 13.5553L13.7993 13.5096C15.2424 11.9915 16.0237 10.0011 15.9993 7.90466C15.975 5.80406 15.1434 3.82911 13.6577 2.34347Z" fill="#999999"/>
</g>
<defs>
<clipPath id="clip0">
<rect width="16" height="16" fill="white"/>
</clipPath>
</defs>
</svg>
