<svg width="17" height="17" viewBox="0 0 17 17" fill="none" xmlns="http://www.w3.org/2000/svg">
<path d="M5.35417 5.64068L1.41343 1.70386L2.94173 0.177082C2.99697 0.121001 3.06283 0.0764613 3.13548 0.0460592C3.20812 0.0156571 3.28609 0 3.36485 0C3.44361 0 3.52159 0.0156571 3.59423 0.0460592C3.66687 0.0764613 3.73274 0.121001 3.78798 0.177082L6.85721 3.24326C6.91373 3.29952 6.95858 3.36639 6.98918 3.44001C7.01978 3.51362 7.03553 3.59255 7.03553 3.67227C7.03553 3.75198 7.01978 3.83091 6.98918 3.90453C6.95858 3.97815 6.91373 4.04501 6.85721 4.10128L5.59415 5.36308C5.51998 5.44152 5.45239 5.52593 5.39206 5.61544L5.35417 5.64068ZM8.60023 12.0506C7.94344 11.4954 7.33717 10.9024 6.7309 10.3093C6.12464 9.71629 5.54363 9.08539 5.05104 8.44187C4.83424 8.17805 4.69186 7.86121 4.63857 7.52406C4.58528 7.1869 4.62302 6.84165 4.7479 6.52394L0.642963 2.52403C-0.304331 3.49562 -0.178025 5.89304 0.845052 8.00024C1.3232 8.87327 1.88584 9.69738 2.52492 10.4608C3.09771 11.2183 3.71784 11.939 4.38162 12.6184C5.06898 13.3116 5.80329 13.9566 6.57934 14.549C7.3664 15.1651 8.21257 15.7019 9.10545 16.1515C11.2148 17.1861 13.6146 17.2997 14.5745 16.3534L10.5327 12.3156C10.2147 12.4404 9.86908 12.4781 9.53159 12.4248C9.1941 12.3716 8.87695 12.2293 8.61286 12.0128L8.60023 12.0506ZM16.8733 13.2493L13.804 10.1832C13.7477 10.1267 13.6808 10.0819 13.6071 10.0513C13.5334 10.0208 13.4544 10.005 13.3746 10.005C13.2948 10.005 13.2158 10.0208 13.1421 10.0513C13.0684 10.0819 13.0015 10.1267 12.9452 10.1832L12.2757 10.8519L11.6442 11.4702C11.562 11.5543 11.4685 11.6265 11.3663 11.6847L15.3071 15.6215L16.8227 14.0947C16.8789 14.0395 16.9235 13.9738 16.9539 13.9012C16.9843 13.8286 17 13.7507 17 13.672C17 13.5934 16.9843 13.5155 16.9539 13.4429C16.9235 13.3703 16.8789 13.3045 16.8227 13.2493H16.8733Z" fill="#96C93D"/>
</svg>
