<svg width="23" height="15" viewBox="0 0 23 15" fill="none" xmlns="http://www.w3.org/2000/svg">
<path d="M11.5307 8.97606C11.7031 8.97668 11.8719 8.92815 12.0165 8.83644L12.0522 8.8115H12.0829L12.5176 8.45745L22.9744 0.0498671C22.9636 0.0344755 22.9491 0.021889 22.9322 0.0131992C22.9153 0.00450941 22.8964 -2.12789e-05 22.8773 7.5135e-08H0.122721C0.0950616 7.5135e-08 0.0681481 0.00874898 0.0460205 0.0249336L10.9887 8.82148C11.1438 8.93785 11.335 8.99938 11.5307 8.99601V8.97606ZM0 1.19182V13.6586L7.83882 7.48005L0 1.19182ZM15.1714 7.53491L23.0102 13.6685V1.23172L15.1714 7.53491ZM12.6812 9.52959C12.3561 9.7864 11.949 9.92403 11.5307 9.91855C11.1132 9.92377 10.7068 9.78812 10.3802 9.53457L8.58537 8.08843L0 14.8604C0 14.8921 0.0129295 14.9226 0.0359442 14.945C0.0589589 14.9674 0.0901735 14.9801 0.122721 14.9801H22.8773C22.9098 14.9801 22.941 14.9674 22.9641 14.945C22.9871 14.9226 23 14.8921 23 14.8604L14.4197 8.1383L12.6812 9.52959Z" fill="#96C93D"/>
</svg>
