<svg width="21" height="21" viewBox="0 0 21 21" fill="none" xmlns="http://www.w3.org/2000/svg">
<g clip-path="url(#clip0)">
<path d="M8.54826 8.71645C8.54837 8.89022 8.49587 9.06012 8.39741 9.20465C8.29895 9.34918 8.15895 9.46185 7.99512 9.5284C7.8313 9.59494 7.65101 9.61238 7.47706 9.57851C7.30312 9.54463 7.14334 9.46097 7.01793 9.33809C6.89253 9.21522 6.80714 9.05866 6.77257 8.88822C6.738 8.71778 6.7558 8.54113 6.82371 8.38061C6.89163 8.22008 7.00662 8.08291 7.15412 7.98643C7.30162 7.88995 7.47502 7.83852 7.65236 7.83862C7.88997 7.83862 8.11785 7.93111 8.28586 8.09573C8.45387 8.26036 8.54826 8.48364 8.54826 8.71645Z" fill="#96C93D"/>
<path d="M14.2399 12.2794C14.24 12.4531 14.1875 12.623 14.0891 12.7675C13.9906 12.912 13.8507 13.0247 13.6869 13.0913C13.5231 13.1578 13.3428 13.1753 13.1689 13.1415C12.995 13.1076 12.8352 13.024 12.7098 12.9012C12.5844 12.7784 12.4989 12.6219 12.4643 12.4515C12.4297 12.2811 12.4474 12.1044 12.5152 11.9439C12.583 11.7834 12.6979 11.6462 12.8454 11.5496C12.9928 11.4531 13.1661 11.4016 13.3434 11.4016C13.5811 11.4016 13.809 11.494 13.9771 11.6586C14.1452 11.8232 14.2397 12.0465 14.2399 12.2794Z" fill="#96C93D"/>
<path d="M20.7302 11.6595L20.4052 11.2249C20.233 10.9935 20.1392 10.7151 20.1368 10.4287C20.1344 10.1424 20.2237 9.86249 20.3921 9.62843L20.7077 9.18951C20.8218 9.03095 20.9002 8.85044 20.9377 8.65995C20.9752 8.46945 20.971 8.27332 20.9253 8.08454C20.8797 7.89577 20.7936 7.71865 20.6728 7.56493C20.552 7.41122 20.3992 7.2844 20.2246 7.1929L19.7421 6.93901C19.4843 6.80409 19.2764 6.59308 19.1478 6.33589C19.0192 6.07871 18.9765 5.78839 19.0257 5.5061L19.118 4.97682C19.1508 4.78563 19.1418 4.58978 19.0915 4.40227C19.0412 4.21476 18.9507 4.0399 18.8261 3.8893C18.7015 3.7387 18.5455 3.61582 18.3687 3.52881C18.1919 3.44181 17.9982 3.39268 17.8005 3.38469L17.2515 3.36317C16.9596 3.35057 16.679 3.24878 16.449 3.07207C16.2191 2.89537 16.0513 2.65259 15.9692 2.37777L15.8155 1.86141C15.7608 1.67492 15.6662 1.50202 15.5378 1.35426C15.4095 1.2065 15.2505 1.08729 15.0713 1.0046C14.8922 0.921905 14.6971 0.877638 14.4991 0.874756C14.3012 0.871874 14.1048 0.910444 13.9233 0.987886L13.4177 1.19874C13.1491 1.31285 12.8507 1.341 12.5648 1.27919C12.279 1.21738 12.0203 1.06876 11.8257 0.854491L11.464 0.454845C11.332 0.310397 11.1702 0.195151 10.9892 0.116784C10.8083 0.038416 10.6124 -0.0012752 10.4145 0.000353335C10.2167 0.00198187 10.0215 0.0448928 9.84191 0.126228C9.66232 0.207564 9.50248 0.325457 9.37304 0.472057L9.01348 0.876544C8.82148 1.09235 8.56525 1.24371 8.28085 1.30933C7.99645 1.37494 7.6982 1.3515 7.42811 1.2423L6.91649 1.03522C6.73341 0.961496 6.53644 0.926689 6.3386 0.9331C6.14076 0.93951 5.94657 0.986992 5.76885 1.07241C5.59114 1.15782 5.43395 1.27922 5.30768 1.42859C5.1814 1.57795 5.08892 1.75187 5.03635 1.93886L4.89198 2.45953C4.81587 2.73552 4.65289 2.98097 4.42622 3.16097C4.19954 3.34097 3.92072 3.44636 3.6294 3.46214L3.08045 3.49227C2.88281 3.50336 2.68984 3.55556 2.51439 3.6454C2.33893 3.73524 2.18502 3.86066 2.06287 4.01331C1.94073 4.16596 1.85316 4.34235 1.806 4.53074C1.75883 4.71913 1.75315 4.9152 1.78932 5.10591L1.89033 5.63519C1.94359 5.91641 1.90525 6.20693 1.78072 6.46563C1.6562 6.72433 1.45181 6.93811 1.19646 7.07671L0.717227 7.33974C0.544411 7.43385 0.393997 7.56289 0.275966 7.71831C0.157936 7.87373 0.0749872 8.05196 0.0326253 8.24119C-0.00973668 8.43042 -0.0105434 8.62631 0.0302588 8.81587C0.0710609 9.00543 0.152539 9.18431 0.269286 9.34066L0.594812 9.77527C0.767427 10.0069 0.861498 10.2858 0.863763 10.5726C0.866028 10.8594 0.776374 11.1396 0.607437 11.3739L0.291793 11.8128C0.177684 11.9713 0.0992524 12.1518 0.0616922 12.3422C0.024132 12.5327 0.0283005 12.7288 0.0739215 12.9176C0.119542 13.1064 0.205575 13.2835 0.326321 13.4372C0.447066 13.591 0.59977 13.7178 0.774318 13.8094L1.25739 14.0633C1.51481 14.1985 1.72226 14.4096 1.85035 14.6668C1.97844 14.924 2.02066 15.2142 1.97102 15.4962L1.8788 16.0255C1.8461 16.2166 1.85525 16.4124 1.90564 16.5998C1.95604 16.7873 2.04653 16.9621 2.17112 17.1126C2.29571 17.2632 2.45154 17.3861 2.62828 17.4731C2.80502 17.5602 2.99863 17.6094 3.19628 17.6176L3.74522 17.6391C4.03727 17.6516 4.31801 17.7533 4.54808 17.9301C4.77814 18.1068 4.946 18.3496 5.02811 18.6245L5.18127 19.1409C5.23607 19.3273 5.33083 19.5002 5.45923 19.6479C5.58763 19.7956 5.74671 19.9148 5.92585 19.9975C6.105 20.0801 6.30008 20.1244 6.49808 20.1273C6.69608 20.1302 6.89244 20.0917 7.07404 20.0144L7.57907 19.8035C7.84766 19.6896 8.14608 19.6615 8.43188 19.7233C8.71769 19.7851 8.97633 19.9337 9.17102 20.1478L9.53607 20.548C9.66792 20.6924 9.82966 20.8076 10.0105 20.886C10.1914 20.9643 10.3872 21.004 10.585 21.0024C10.7827 21.0008 10.9778 20.9579 11.1573 20.8765C11.3368 20.7952 11.4966 20.6773 11.6259 20.5308L11.9866 20.1263C12.1785 19.9105 12.4346 19.7592 12.7189 19.6936C13.0032 19.6279 13.3014 19.6514 13.5714 19.7605L14.0814 19.9671C14.2644 20.0408 14.4613 20.0756 14.659 20.0692C14.8568 20.0627 15.0509 20.0153 15.2285 19.9298C15.4062 19.8444 15.5633 19.723 15.6894 19.5736C15.8156 19.4243 15.908 19.2504 15.9604 19.0634L16.1059 18.5427C16.1818 18.2667 16.3448 18.0211 16.5715 17.8411C16.7982 17.6611 17.0771 17.5558 17.3685 17.5401L17.9174 17.51C18.1159 17.4997 18.3099 17.4479 18.4862 17.3581C18.6626 17.2682 18.8174 17.1425 18.9401 16.9892C19.0628 16.836 19.1506 16.6588 19.1977 16.4696C19.2447 16.2803 19.2499 16.0834 19.2129 15.8921L19.1119 15.3628C19.0587 15.0816 19.0971 14.7911 19.2216 14.5324C19.3462 14.2737 19.5505 14.0599 19.8058 13.9213L20.285 13.6588C20.4581 13.5649 20.6088 13.436 20.727 13.2806C20.8453 13.1252 20.9283 12.9469 20.9707 12.7576C21.0131 12.5682 21.0138 12.3722 20.9728 12.1826C20.9318 11.993 20.8501 11.8141 20.733 11.6579L20.7302 11.6595ZM5.48923 8.71618C5.48967 8.29733 5.61686 7.88801 5.85472 7.53999C6.09258 7.19197 6.43043 6.92088 6.82554 6.76101C7.22064 6.60114 7.65526 6.55967 8.07442 6.64184C8.49359 6.72401 8.87847 6.92613 9.18039 7.22264C9.48231 7.51916 9.68771 7.89674 9.77061 8.30764C9.85351 8.71854 9.81019 9.1443 9.64613 9.53108C9.48207 9.91785 9.20464 10.2483 8.84891 10.4805C8.49319 10.7128 8.07516 10.8365 7.64769 10.836C7.36386 10.8358 7.08285 10.7809 6.82071 10.6742C6.55858 10.5676 6.32047 10.4114 6.12 10.2145C5.91954 10.0176 5.76064 9.78395 5.65241 9.52685C5.54418 9.26976 5.48873 8.99428 5.48923 8.71618ZM8.06929 14.1768C7.98018 14.2823 7.85193 14.3489 7.71275 14.3618C7.57356 14.3747 7.43484 14.3329 7.32711 14.2456C7.21937 14.1583 7.15144 14.0326 7.13827 13.8963C7.12509 13.7599 7.16774 13.624 7.25684 13.5184L12.922 6.82714C13.0111 6.72157 13.1393 6.65501 13.2785 6.6421C13.4177 6.62919 13.5564 6.67098 13.6642 6.75829C13.7719 6.84559 13.8398 6.97126 13.853 7.10764C13.8662 7.24402 13.8235 7.37994 13.7344 7.4855L8.06929 14.1768ZM13.348 14.3962C12.9206 14.3962 12.5029 14.272 12.1476 14.0394C11.7923 13.8068 11.5153 13.4761 11.3518 13.0893C11.1882 12.7024 11.1455 12.2768 11.2288 11.8661C11.3122 11.4554 11.518 11.0782 11.8202 10.7821C12.1223 10.486 12.5073 10.2844 12.9264 10.2027C13.3456 10.121 13.78 10.1629 14.1748 10.3232C14.5696 10.4834 14.9071 10.7548 15.1445 11.1029C15.3819 11.4511 15.5086 11.8604 15.5086 12.2791C15.5088 12.5572 15.4531 12.8326 15.3446 13.0895C15.2361 13.3465 15.0769 13.58 14.8763 13.7766C14.6756 13.9732 14.4373 14.1292 14.1751 14.2355C13.9128 14.3418 13.6318 14.3964 13.348 14.3962Z" fill="#96C93D"/>
</g>
<defs>
<clipPath id="clip0">
<rect width="21" height="21" fill="white"/>
</clipPath>
</defs>
</svg>
