<svg width="24" height="24" viewBox="0 0 24 24" fill="none" xmlns="http://www.w3.org/2000/svg">
<path d="M11.9911 7.94678C9.75609 7.94678 7.94678 9.75609 7.94678 11.9911C7.94678 14.2262 9.75609 16.0532 11.9911 16.0532C14.2262 16.0532 16.0355 14.2439 16.0355 12.0089C16.0532 9.75609 14.2262 7.94678 11.9911 7.94678Z" fill="black"/>
<path d="M17.3659 0H6.61641C2.96231 0 0 2.96231 0 6.61641V17.3659C0 21.02 2.96231 23.9823 6.61641 23.9823H17.3659C21.02 23.9823 23.9823 21.02 23.9823 17.3659V6.61641C23.9823 2.96231 21.02 0 17.3659 0ZM11.9911 18.1818C8.58537 18.1818 5.81818 15.4146 5.81818 12.0089C5.81818 8.6031 8.58537 5.83592 11.9911 5.83592C15.3969 5.83592 18.1641 8.6031 18.1641 12.0089C18.1818 15.4146 15.4146 18.1818 11.9911 18.1818ZM19.5477 6.66962C18.9446 7.27273 17.9512 7.27273 17.3481 6.66962C16.745 6.06652 16.745 5.07317 17.3481 4.47007C17.9512 3.86696 18.9446 3.86696 19.5477 4.47007C19.8315 4.75388 20.0089 5.16186 20.0089 5.56984C19.9911 5.97783 19.8315 6.38581 19.5477 6.66962Z" fill="black"/>
</svg>
