<svg width="16" height="16" viewBox="0 0 16 16" fill="none" xmlns="http://www.w3.org/2000/svg">
<path d="M3.19983 6.93671C4.51041 9.443 6.55568 11.4887 9.06147 12.7995L11.0091 10.8515C11.1138 10.7223 11.2598 10.6331 11.4226 10.5988C11.5854 10.5645 11.755 10.5873 11.9029 10.6633C12.9285 11.0315 14.0124 11.2101 15.1019 11.1903C15.2249 11.1843 15.3478 11.2049 15.4622 11.2507C15.5766 11.2965 15.6797 11.3665 15.7645 11.4558C15.8494 11.5452 15.914 11.6518 15.9539 11.7684C15.9938 11.8849 16.008 12.0088 15.9957 12.1314V15.1051C16.001 15.224 15.9816 15.3426 15.9386 15.4535C15.8955 15.5644 15.8299 15.6651 15.7458 15.7492C15.6617 15.8333 15.561 15.8989 15.4502 15.942C15.3393 15.985 15.2207 16.0045 15.1019 15.9991C11.0976 15.9966 7.25805 14.4045 4.4266 11.5725C1.59515 8.7405 0.00335868 4.90017 0.000866135 0.895101C-0.0044815 0.776276 0.0149783 0.657639 0.0580053 0.546751C0.101032 0.435864 0.166683 0.335158 0.250773 0.25105C0.334864 0.166943 0.43555 0.101279 0.546415 0.0582434C0.657281 0.0152078 0.775893 -0.00425588 0.894695 0.00109282H3.99957C4.12227 -0.00514739 4.24486 0.0153924 4.35883 0.0612868C4.4728 0.107181 4.57542 0.177331 4.65957 0.266867C4.74371 0.356403 4.80737 0.463182 4.84613 0.579792C4.88488 0.696401 4.8978 0.820049 4.88399 0.942154C4.89852 2.01367 5.07618 3.07672 5.41088 4.09471C5.44544 4.24793 5.44738 4.40671 5.41658 4.56073C5.38578 4.71475 5.32293 4.86057 5.23212 4.98872L3.19983 6.93671Z" fill="#2A6AF0"/>
</svg>
