<svg width="124" height="80" fill="none" xmlns="http://www.w3.org/2000/svg"><path d="M39.886 24.79l-7.11-11.94 6.61-1.83a.731.731 0 0 0 .5-1 .78.78 0 0 0-1-.51l-18.09 5.1V.81a.81.81 0 0 0-1.62 0V15L.566 20.2a.67.67 0 0 0-.51.93c.1.41.61.71.92.51L6.766 20 .156 31.13a.63.63 0 0 0-.1.41 8.455 8.455 0 0 0 16.91-.01.63.63 0 0 0-.1-.41l-7.16-11.94 20.12-5.61-6.6 11.12a.63.63 0 0 0-.1.41 8.43 8.43 0 0 0 8.43 8.47 8.81 8.81 0 0 0 6-2.45 8.45 8.45 0 0 0 2.41-5.99.37.37 0 0 0-.08-.34zm-24.59 8.06a6.81 6.81 0 0 1-13.41 0l-.1-.51h13.72l-.21.51zm-.4-2h-12.6l6.3-10.51 6.3 10.51zm16.66-16.98l6.3 10.51h-12.6l6.3-10.51zm6.71 12.56a6.81 6.81 0 0 1-13.41 0l-.11-.51h13.72l-.2.51z" fill="#2A2A29"/><path d="M39.886 64.79l-7.11-11.94 6.61-1.83a.731.731 0 0 0 .5-1 .78.78 0 0 0-1-.51l-18.09 5.1v-13.8a.81.81 0 0 0-1.62 0V55L.566 60.2a.67.67 0 0 0-.51.93c.1.41.61.71.92.51L6.766 60 .156 71.13a.63.63 0 0 0-.1.41 8.455 8.455 0 0 0 16.91-.01.63.63 0 0 0-.1-.41l-7.16-11.94 20.12-5.61-6.6 11.12a.63.63 0 0 0-.1.41 8.43 8.43 0 0 0 8.43 8.47 8.81 8.81 0 0 0 6-2.45 8.45 8.45 0 0 0 2.41-5.99.37.37 0 0 0-.08-.34zm-24.59 8.06a6.81 6.81 0 0 1-13.41 0l-.1-.51h13.72l-.21.51zm-.4-2h-12.6l6.3-10.51 6.3 10.51zm16.66-16.98l6.3 10.51h-12.6l6.3-10.51zm6.71 12.56a6.81 6.81 0 0 1-13.41 0l-.11-.51h13.72l-.2.51z" fill="#0F61A7"/><g clip-path="url(#clip0)"><path d="M82.93 11.63C82.32 4.89 77.54 0 71.56 0a11.33 11.33 0 0 0-9.68 5.57A10.88 10.88 0 0 0 52.44 0c-5.98 0-10.76 4.89-11.37 11.63a11.52 11.52 0 0 0 .35 4.37 18.94 18.94 0 0 0 5.82 9.69L61.88 39l14.87-13.26A19 19 0 0 0 82.58 16c.376-1.424.494-2.904.35-4.37zm-1.92 4a17.39 17.39 0 0 1-5.34 8.86L61.88 36.82 48.33 24.54A17.2 17.2 0 0 1 43 15.68a10.319 10.319 0 0 1-.34-3.79v-.08c.54-5.91 4.65-10.2 9.78-10.2a9.47 9.47 0 0 1 8.69 6.05l.75 1.78.75-1.77a9.75 9.75 0 0 1 8.93-6c5.13 0 9.24 4.29 9.78 10.27a10.84 10.84 0 0 1-.33 3.8v-.11z" fill="#2A2A29"/></g><g clip-path="url(#clip1)"><path d="M82.93 51.63C82.32 44.89 77.54 40 71.56 40a11.33 11.33 0 0 0-9.68 5.57A10.88 10.88 0 0 0 52.44 40c-5.98 0-10.76 4.89-11.37 11.63a11.52 11.52 0 0 0 .35 4.37 18.94 18.94 0 0 0 5.82 9.69L61.88 79l14.87-13.26A19 19 0 0 0 82.58 56c.376-1.424.494-2.904.35-4.37zm-1.92 4a17.39 17.39 0 0 1-5.34 8.86L61.88 76.82 48.33 64.54A17.2 17.2 0 0 1 43 55.68a10.319 10.319 0 0 1-.34-3.79v-.08c.54-5.91 4.65-10.2 9.78-10.2a9.47 9.47 0 0 1 8.69 6.05l.75 1.78.75-1.77a9.75 9.75 0 0 1 8.93-6c5.13 0 9.24 4.29 9.78 10.27a10.84 10.84 0 0 1-.33 3.8v-.11z" fill="#0F61A7"/></g><g clip-path="url(#clip2)" fill="#2A2A29"><path d="M110.75 33.19a3.363 3.363 0 0 0-3.33 3.38 3.33 3.33 0 1 0 3.33-3.38zm0 5.1a1.63 1.63 0 0 1-1.62-1.65 1.62 1.62 0 0 1 2.822-1.009c.289.319.439.74.418 1.169a1.623 1.623 0 0 1-1.62 1.49zm-18.15-5.1a3.35 3.35 0 0 0-3.34 3.37A3.39 3.39 0 0 0 92.59 40a3.35 3.35 0 0 0 3.33-3.37 3.41 3.41 0 0 0-3.33-3.41l.01-.03zm0 5.1a1.619 1.619 0 0 1-1.62-1.63.172.172 0 0 1 0-.07 1.68 1.68 0 0 1 1.61-1.71 1.639 1.639 0 0 1 1.67 1.61v.1a1.68 1.68 0 0 1-1.63 1.7h-.03zM118.75 0l-1.34 5.19H84l6.17 18.26a4.24 4.24 0 0 0-3.61 4.3 4.3 4.3 0 0 0 4.19 4.42h23.21v-1.61H90.82a2.61 2.61 0 0 1-2.56-2.67v-.06a2.65 2.65 0 0 1 2.56-2.73h23.23l6-23.4h3.4V0h-4.7zm-6 23.4H91.93L86.39 6.89h30.56l-4.2 16.51z"/><path d="M96.52 10.89h-1.71v9.62h1.71v-9.62zm6.05 0h-1.71v9.62h1.71v-9.62zm6.04 0h-1.71v9.62h1.71v-9.62z"/></g><g clip-path="url(#clip3)" fill="#0F61A7"><path d="M110.75 73.19a3.363 3.363 0 0 0-3.33 3.38 3.33 3.33 0 1 0 3.33-3.38zm0 5.1a1.63 1.63 0 0 1-1.62-1.65 1.62 1.62 0 0 1 2.822-1.009c.289.319.439.74.418 1.169a1.623 1.623 0 0 1-1.62 1.49zm-18.15-5.1a3.35 3.35 0 0 0-3.34 3.37A3.39 3.39 0 0 0 92.59 80a3.35 3.35 0 0 0 3.33-3.37 3.41 3.41 0 0 0-3.33-3.41l.01-.03zm0 5.1a1.619 1.619 0 0 1-1.62-1.63.172.172 0 0 1 0-.07 1.68 1.68 0 0 1 1.61-1.71 1.639 1.639 0 0 1 1.67 1.61v.1a1.68 1.68 0 0 1-1.63 1.7h-.03zM118.75 40l-1.34 5.19H84l6.17 18.26a4.24 4.24 0 0 0-3.61 4.3 4.3 4.3 0 0 0 4.19 4.42h23.21v-1.61H90.82a2.61 2.61 0 0 1-2.56-2.67v-.06a2.65 2.65 0 0 1 2.56-2.73h23.23l6-23.4h3.4V40h-4.7zm-6 23.4H91.93l-5.54-16.51h30.56l-4.2 16.51z"/><path d="M96.52 50.89h-1.71v9.62h1.71v-9.62zm6.05 0h-1.71v9.62h1.71v-9.62zm6.04 0h-1.71v9.62h1.71v-9.62z"/></g><defs><clipPath id="clip0"><path fill="#fff" transform="translate(41)" d="M0 0h42v39H0z"/></clipPath><clipPath id="clip1"><path fill="#fff" transform="translate(41 40)" d="M0 0h42v39H0z"/></clipPath><clipPath id="clip2"><path fill="#fff" transform="translate(84)" d="M0 0h39.45v40H0z"/></clipPath><clipPath id="clip3"><path fill="#fff" transform="translate(84 40)" d="M0 0h39.45v40H0z"/></clipPath></defs></svg>