<svg id="Слой_1" data-name="Слой 1" xmlns="http://www.w3.org/2000/svg" width="29" height="29"><defs><style>.cls-1{fill:#2a2a29}</style></defs><path class="cls-1" d="M20.79 11.32a.45.45 0 1 1-.82.35 5.73 5.73 0 0 0-.46-.84 4.42 4.42 0 0 0-.62-.74 4.65 4.65 0 0 0-.73-.67 6.13 6.13 0 0 0-.84-.42.46.46 0 0 1-.25-.59.47.47 0 0 1 .64-.14 6.53 6.53 0 0 1 1 .54 6.73 6.73 0 0 1 .87.73 7.56 7.56 0 0 1 .72.87 5.31 5.31 0 0 1 .53 1zm2.89.06a.43.43 0 0 1-.29.54.47.47 0 0 1-.56-.32A7.4 7.4 0 0 0 22 9.77a7.69 7.69 0 0 0-1.18-1.6A8 8 0 0 0 19.26 7a7.4 7.4 0 0 0-1.84-.77.45.45 0 0 1-.33-.55.46.46 0 0 1 .55-.33 8.54 8.54 0 0 1 2.07.86 9.4 9.4 0 0 1 1.75 1.33 7.87 7.87 0 0 1 1.35 1.79 8 8 0 0 1 .87 2.05z" transform="translate(0 -.03)"/><path class="cls-1" d="M26.46 11.4a.45.45 0 0 1-.88.18 10.48 10.48 0 0 0-1-2.87 10.26 10.26 0 0 0-1.81-2.43 10.49 10.49 0 0 0-2.45-1.84 10.36 10.36 0 0 0-2.88-1 .47.47 0 0 1-.36-.53.46.46 0 0 1 .53-.37 11.67 11.67 0 0 1 3.09 1.14 11.54 11.54 0 0 1 2.67 2 11.66 11.66 0 0 1 2 2.57 10.72 10.72 0 0 1 1.12 3.11zm2.35 12.32a.46.46 0 0 1 .11.63.44.44 0 0 1-.61.11l-7.11-5.19-1.2 1.18c-1.75 1.76-4.36 1.34-6.77-.13a13.16 13.16 0 0 1-2.55-2 13.53 13.53 0 0 1-2-2.56C7.2 13.36 6.78 10.7 8.51 9l1.18-1.22-4.83-6.64-2.19 2.15C.94 5 .48 7.32 1.37 10.1s3.26 6.31 7.08 10.15l.16.16.63.64c3.7 3.55 7 5.81 9.79 6.66a6.15 6.15 0 0 0 6.59-1.29v-.06l.58-.59a.45.45 0 1 1 .65.63l-.58.6-.05.06c-1.93 1.93-4.46 2.45-7.49 1.51s-6.33-3.16-10.15-6.86l-.65-.65-.15-.16C3.86 17 1.45 13.42.48 10.39S0 4.69 2 2.67L4.58.11h.06a.44.44 0 0 1 .62.11l5.37 7.29a.48.48 0 0 1 0 .62L9.17 9.61c-1.38 1.38-1 3.55.28 5.65a12.67 12.67 0 0 0 1.9 2.37 13.1 13.1 0 0 0 2.36 1.9c2.07 1.26 4.26 1.66 5.64.26l1.47-1.47a.45.45 0 0 1 .58 0z" transform="translate(0 -.03)"/><path class="cls-1" d="M26.84 25.7a.46.46 0 1 1-.53.74l-1.84-1.36-3.7-2.71a.45.45 0 0 1-.1-.63.42.42 0 0 1 .6-.1L23.16 23zM2.57 2.65A.46.46 0 0 1 2.68 2a.45.45 0 0 1 .62.1L4.65 4 6 5.87l1.37 1.79a.47.47 0 0 1-.1.64.46.46 0 0 1-.64-.06L3.93 4.5z" transform="translate(0 -.03)"/></svg>