<svg width="207" height="49" viewBox="0 0 207 49" fill="none" xmlns="http://www.w3.org/2000/svg">
<rect width="64.5424" height="48.4068" rx="3" fill="white"/>
<path d="M9.08691 13.9927V9.61671H14.005V13.9927H9.08691ZM9.08691 37.1118V17.3618H14.005V37.1118H9.08691Z" fill="#8BC958"/>
<path d="M20.228 29.8701V21.5441H17.6722V17.6329H20.3442V11.979H25.1462V17.6329H29.6383V21.5441H25.1462V29.2505C25.1462 30.6704 25.5463 31.6515 26.3467 32.1936C27.1728 32.71 28.0764 32.9681 29.0574 32.9681C29.3931 32.9681 29.69 32.9423 29.9481 32.8907V37.1892C29.1736 37.2667 28.6702 37.3054 28.4378 37.3054C27.7666 37.3054 27.1212 37.2538 26.5016 37.1505C25.882 37.073 25.172 36.8794 24.3717 36.5696C23.5713 36.2598 22.8743 35.8596 22.2805 35.3691C21.7125 34.8528 21.222 34.1299 20.8089 33.2005C20.4217 32.2453 20.228 31.1351 20.228 29.8701Z" fill="#8BC958"/>
<path d="M33.745 17.2069V9.11328H37.4627V17.2069H33.745Z" fill="#8BC958"/>
<path d="M41.2326 34.6721L43.44 31.4191C45.0148 32.8649 46.8866 33.5878 49.0552 33.5878C49.933 33.5878 50.6042 33.4199 51.0689 33.0843C51.5594 32.7229 51.8047 32.2324 51.8047 31.6128C51.8047 31.0448 51.4691 30.5543 50.7978 30.1412C50.1266 29.7281 49.3134 29.3538 48.3581 29.0182C47.4029 28.6825 46.4348 28.2953 45.4537 27.8564C44.4985 27.3917 43.6853 26.7334 43.014 25.8814C42.3428 25.0294 42.0072 24.0097 42.0072 22.8221C42.0072 20.9633 42.7171 19.5175 44.1371 18.4848C45.5828 17.4263 47.39 16.8971 49.5586 16.8971C52.2952 16.8971 54.5155 17.6458 56.2194 19.1432L54.3993 22.5897C53.8313 22.0992 53.0697 21.699 52.1145 21.3892C51.1851 21.0536 50.2815 20.8858 49.4037 20.8858C47.5707 20.8858 46.6542 21.5183 46.6542 22.7834C46.6542 23.3513 46.9898 23.8419 47.6611 24.2549C48.3323 24.668 49.1455 25.0423 50.1008 25.378C51.0818 25.7136 52.0499 26.1008 53.0052 26.5397C53.9604 26.9528 54.7736 27.5853 55.4449 28.4373C56.1161 29.2892 56.4517 30.309 56.4517 31.4966C56.4517 33.2521 55.7676 34.7108 54.3993 35.8726C53.031 37.0085 51.2238 37.5765 48.9777 37.5765C45.8281 37.5765 43.2464 36.6083 41.2326 34.6721Z" fill="#8BC958"/>
<path d="M73.666 28.5387V10.8799H77.4998V28.5C77.4998 30.5911 78.1194 32.2305 79.3587 33.4181C80.6237 34.5798 82.3147 35.1607 84.4317 35.1607C86.5487 35.1607 88.2268 34.5798 89.466 33.4181C90.7052 32.2305 91.3248 30.5782 91.3248 28.4612V10.8799H95.1586V28.5387C95.1586 31.5851 94.1776 34.0377 92.2155 35.8965C90.2534 37.7553 87.6717 38.6847 84.4704 38.6847C81.2433 38.6847 78.6358 37.7553 76.6479 35.8965C74.66 34.0377 73.666 31.5851 73.666 28.5387Z" fill="white"/>
<path d="M101.188 38.22V10.8799H104.945V25.8279H107.733L113.038 18.625H117.298L110.792 27.2607V27.3382L118.034 38.22H113.658L107.81 29.0421H104.945V38.22H101.188Z" fill="white"/>
<path d="M121.421 38.22V18.625H125.061V22.149L124.945 23.5818H125.022C125.513 22.0844 126.313 20.8452 127.423 19.8642C128.533 18.8831 129.811 18.3926 131.257 18.3926C131.515 18.3926 131.851 18.4184 132.264 18.4701V22.1877C132.057 22.1361 131.696 22.1103 131.18 22.1103C129.218 22.1103 127.72 22.9106 126.687 24.5112C125.681 26.0861 125.177 27.9449 125.177 30.0877V38.22H121.421Z" fill="white"/>
<path d="M134.127 32.8759C134.127 31.4302 134.527 30.2168 135.328 29.2357C136.128 28.2547 137.187 27.5576 138.503 27.1446C139.846 26.7057 141.085 26.4088 142.221 26.2539C143.357 26.099 144.557 26.0215 145.822 26.0215H146.829V25.6343C146.829 22.7686 145.396 21.3357 142.531 21.3357C140.646 21.3357 138.813 21.9683 137.032 23.2333L135.521 20.4838C136.322 19.8125 137.406 19.2575 138.774 18.8186C140.143 18.3797 141.498 18.1603 142.841 18.1603C145.319 18.1603 147.229 18.8186 148.572 20.1353C149.914 21.4519 150.586 23.3495 150.586 25.8279V38.22H147.062V36.245L147.178 34.696H147.1C146.507 35.8578 145.629 36.813 144.467 37.5617C143.331 38.3104 142.066 38.6847 140.672 38.6847C138.891 38.6847 137.354 38.1555 136.064 37.097C134.773 36.0385 134.127 34.6315 134.127 32.8759ZM137.884 32.5661C137.884 33.4181 138.206 34.1539 138.852 34.7735C139.497 35.3931 140.401 35.7029 141.563 35.7029C143.112 35.7029 144.377 35.0575 145.358 33.7666C146.339 32.4758 146.829 31.0429 146.829 29.4681V28.7323H145.861C140.543 28.7323 137.884 30.0102 137.884 32.5661Z" fill="white"/>
<path d="M156.098 14.675V10.8799H159.97V14.675H156.098ZM156.175 38.22V18.625H159.932V38.22H156.175Z" fill="white"/>
<path d="M165.705 38.22V18.625H169.346V21.297L169.229 22.7686H169.307C169.797 21.6585 170.675 20.6129 171.94 19.6318C173.231 18.6508 174.832 18.1603 176.742 18.1603C181.209 18.1603 183.442 20.6645 183.442 25.673V38.22H179.685V26.525C179.685 24.9501 179.427 23.7367 178.911 22.8848C178.42 22.0328 177.452 21.6068 176.006 21.6068C174.122 21.6068 172.56 22.3039 171.321 23.698C170.081 25.0663 169.462 26.7702 169.462 28.8098V38.22H165.705Z" fill="white"/>
<path d="M187.761 28.4225C187.761 25.3503 188.691 22.8719 190.549 20.9872C192.408 19.1026 194.758 18.1603 197.597 18.1603C200.257 18.1603 202.335 19.038 203.832 20.7936C205.33 22.5233 206.078 24.7049 206.078 27.3382C206.078 27.6738 206.027 28.2031 205.923 28.9259H191.672C191.776 30.9655 192.46 32.5661 193.725 33.7279C195.016 34.8638 196.578 35.4318 198.411 35.4318C200.553 35.4318 202.477 34.6702 204.181 33.147L205.768 35.8965C204.839 36.7485 203.677 37.4326 202.283 37.949C200.915 38.4395 199.547 38.6847 198.178 38.6847C195.132 38.6847 192.628 37.7166 190.666 35.7803C188.729 33.8182 187.761 31.3656 187.761 28.4225ZM191.789 26.2152H202.283C202.232 24.5887 201.754 23.3237 200.85 22.4201C199.973 21.5165 198.862 21.0647 197.52 21.0647C196.048 21.0647 194.783 21.5294 193.725 22.4588C192.692 23.3624 192.047 24.6145 191.789 26.2152Z" fill="white"/>
</svg>
