<svg id="Слой_1" data-name="Слой 1" xmlns="http://www.w3.org/2000/svg" width="14" height="28" viewBox="0 0 14 28"><title>facebook</title><path d="M.46,14.91h3V27.55A.45.45,0,0,0,4,28H9.1a.45.45,0,0,0,.44-.45V15H13a.45.45,0,0,0,.44-.4L14,9.92a.48.48,0,0,0-.11-.35.43.43,0,0,0-.33-.15h-4V6.5c0-.88.47-1.32,1.4-1.32h2.63A.45.45,0,0,0,14,4.72V.46A.45.45,0,0,0,13.57,0H9.78A6.89,6.89,0,0,0,5.23,1.73,4.86,4.86,0,0,0,3.65,6V9.42H.46A.45.45,0,0,0,0,9.87v4.59a.45.45,0,0,0,.45.45Zm0,0" transform="translate(-0.01)"/></svg>