<svg id="Слой_1" data-name="Слой 1" xmlns="http://www.w3.org/2000/svg" width="24" height="24" viewBox="0 0 24 24"><title>instagram</title><path d="M17.38.13H6.62A6.63,6.63,0,0,0,0,6.75V17.5a6.64,6.64,0,0,0,6.62,6.63H17.38A6.64,6.64,0,0,0,24,17.5V6.75A6.63,6.63,0,0,0,17.38.13ZM21.87,17.5A4.5,4.5,0,0,1,17.38,22H6.62a4.5,4.5,0,0,1-4.49-4.5V6.75a4.5,4.5,0,0,1,4.49-4.5H17.38a4.5,4.5,0,0,1,4.49,4.5Zm0,0" transform="translate(0 -0.13)"/><path d="M12,5.94a6.19,6.19,0,1,0,6.18,6.19A6.19,6.19,0,0,0,12,5.94Zm0,10.24a4.06,4.06,0,1,1,4.06-4,4.06,4.06,0,0,1-4.06,4Zm0,0" transform="translate(0 -0.13)"/><path d="M18.44,4.14a1.56,1.56,0,0,0-1.1.45,1.59,1.59,0,0,0-.46,1.11A1.57,1.57,0,0,0,20,5.7a1.59,1.59,0,0,0-.46-1.11,1.57,1.57,0,0,0-1.11-.45Zm0,0" transform="translate(0 -0.13)"/></svg>