<svg width="37" height="37" viewBox="0 0 37 37" fill="none" xmlns="http://www.w3.org/2000/svg">
<path d="M25.2555 19.7116C24.9153 19.7116 24.6396 19.9874 24.6396 20.3276V35.1114C24.6396 35.4516 24.3638 35.7273 24.0236 35.7273H1.84794C1.50771 35.7273 1.23199 35.4515 1.23199 35.1114V1.84794C1.23199 1.50771 1.50778 1.23199 1.84794 1.23199H24.0236C24.3638 1.23199 24.6395 1.50778 24.6395 1.84794V5.5439C24.6395 5.88414 24.9153 6.15986 25.2555 6.15986C25.5956 6.15986 25.8714 5.88406 25.8714 5.5439V1.84794C25.8714 0.827318 25.044 0 24.0235 0H1.84794C0.827391 0 0 0.827391 0 1.84794V35.1114C0 36.132 0.827391 36.9593 1.84794 36.9593H24.0236C25.0442 36.9593 25.8715 36.1319 25.8715 35.1114V20.3277C25.8716 19.9874 25.5958 19.7116 25.2555 19.7116Z" fill="#C5A26D"/>
<path d="M36.0979 2.09348C34.8988 0.894444 32.9561 0.890187 31.7518 2.08394L31.753 2.08335L27.6974 6.1384L6.49001 27.347C6.48384 27.3525 6.48201 27.3605 6.47643 27.366C6.4277 27.4168 6.38814 27.4755 6.35938 27.5398L6.35446 27.5502L3.74576 33.6374C3.66415 33.8277 3.68367 34.0463 3.79765 34.2192C3.91162 34.3921 4.10478 34.4961 4.31189 34.4962C4.39533 34.4963 4.47797 34.4794 4.55459 34.4463L10.6412 31.8376L10.6517 31.8327C10.7161 31.8042 10.7748 31.7646 10.8254 31.7156C10.831 31.71 10.839 31.7082 10.8445 31.702L32.0524 10.4954L36.1074 6.43974C37.3012 5.23535 37.2969 3.29259 36.0979 2.09348ZM5.4823 32.7097L7.1307 28.8635L9.32856 31.0613L5.4823 32.7097ZM10.4102 30.3955L7.79656 27.7819L28.1335 7.44561L30.7465 10.0586L10.4102 30.3955ZM31.6175 9.18758L29.0045 6.57456L30.0104 5.56802L32.624 8.18164L31.6175 9.18758ZM35.2376 5.5711L35.2345 5.57052L33.4919 7.31315L30.8814 4.69704L32.624 2.95749C33.0909 2.49059 33.7714 2.30829 34.4091 2.47914C35.0469 2.65006 35.5451 3.14816 35.716 3.78598C35.8868 4.42374 35.7045 5.1042 35.2376 5.5711Z" fill="#C5A26D"/>
<path d="M20.3277 5.54443H5.54393C5.2037 5.54443 4.92798 5.82023 4.92798 6.16039C4.92798 6.50055 5.20378 6.77635 5.54393 6.77635H20.3277C20.6679 6.77635 20.9437 6.50055 20.9437 6.16039C20.9437 5.82023 20.6679 5.54443 20.3277 5.54443Z" fill="#C5A26D"/>
<path d="M20.9437 9.85668C20.9437 9.51645 20.6679 9.24072 20.3277 9.24072H5.54393C5.2037 9.24072 4.92798 9.51652 4.92798 9.85668C4.92798 10.1968 5.20378 10.4726 5.54393 10.4726H20.3277C20.6679 10.4727 20.9437 10.1969 20.9437 9.85668Z" fill="#C5A26D"/>
<path d="M5.54393 12.9365C5.2037 12.9365 4.92798 13.2123 4.92798 13.5525C4.92798 13.8926 5.20378 14.1684 5.54393 14.1684H16.6317C16.972 14.1684 17.2477 13.8926 17.2477 13.5525C17.2477 13.2123 16.9719 12.9365 16.6317 12.9365H5.54393Z" fill="#C5A26D"/>
</svg>
