<svg id="Слой_1" data-name="Слой 1" xmlns="http://www.w3.org/2000/svg" width="168" height="74"><defs><style>.cls-1{fill:#2a3592}</style></defs><path class="cls-1" d="M158.61 1.48a7.81 7.81 0 0 1 7.84 7.77v55.5a7.81 7.81 0 0 1-7.84 7.77H9.28a7.82 7.82 0 0 1-7.84-7.77V9.25a7.82 7.82 0 0 1 7.84-7.77h149.33m0-1.48H9.28A9.29 9.29 0 0 0 0 9.25v55.5A9.29 9.29 0 0 0 9.28 74h149.33a9.29 9.29 0 0 0 9.39-9.25V9.25A9.29 9.29 0 0 0 158.61 0z" transform="translate(.05)"/><path class="cls-1" d="M84 22.68c.39 0 .55.14.55.53v8.69h.82c.39 0 .53.14.53.52v3.14c0 .39-.14.53-.53.53h-.87c-.39 0-.53-.14-.53-.53v-1.85h-7.14v1.85c0 .39-.15.53-.54.53h-.84c-.4 0-.54-.14-.54-.53v-3.14c0-.38.14-.52.54-.52h.36a2.65 2.65 0 0 0 1-1.39 12.77 12.77 0 0 0 .47-4.08v-3.22c0-.39.14-.53.53-.53zm-4.85 1.82v1.91c0 2.56-.35 4.4-1.05 5.49h4.5v-7.4zm9.56 2c0-2.53 1.62-4.05 4.49-4.05s4.46 1.55 4.46 4.05v3.39C97.66 32.42 96 34 93.2 34s-4.49-1.53-4.49-4.06zm7 0c0-1.43-.89-2.22-2.5-2.22s-2.51.77-2.51 2.22v3.42c0 1.44.89 2.22 2.51 2.22s2.5-.79 2.5-2.22zm15.61-3.82c.39 0 .53.14.53.53v10c0 .38-.14.52-.53.52h-.8c-.39 0-.53-.14-.53-.52v-4.76a14.47 14.47 0 0 1 .37-3.1h-.1A17.11 17.11 0 0 1 109 28.2l-1.54 2.69a.71.71 0 0 1-.61.37h-.5a.55.55 0 0 1-.61-.37l-1.57-2.71a12.49 12.49 0 0 1-1.21-2.83h-.11a15.31 15.31 0 0 1 .33 3.11v4.73c0 .38-.14.52-.53.52h-.75c-.4 0-.55-.14-.55-.52v-10c0-.39.15-.53.55-.53h.69c.44 0 .58.08.75.4l3.26 5.79 3.26-5.77c.19-.36.3-.42.72-.42zm4.2 3.82c0-2.53 1.62-4.05 4.49-4.05s4.47 1.52 4.47 4.05v3.39c0 2.53-1.63 4.06-4.47 4.06s-4.49-1.53-4.49-4.06zm7 0c0-1.43-.9-2.22-2.51-2.22s-2.51.77-2.51 2.22v3.42c0 1.44.89 2.22 2.51 2.22s2.51-.79 2.51-2.22zM133 22.68c2 0 3.22 1 3.22 2.91a2.48 2.48 0 0 1-1.2 2.34V28a2.5 2.5 0 0 1 1.6 2.68c0 1.92-1.41 3-3.52 3h-4.44c-.39 0-.55-.14-.55-.52v-10c0-.39.16-.53.55-.53zm-.23 4.55c1 0 1.44-.45 1.44-1.36s-.49-1.37-1.44-1.37h-2.68v2.73zm.28 1.78h-3v2.89h3a1.3 1.3 0 0 0 1.49-1.43 1.3 1.3 0 0 0-1.47-1.47zm16.11 4.19q.18.51-.36.51h-.8c-.64 0-.85-.09-1-.46l-.72-2H142l-.74 2c-.12.37-.33.46-1 .46h-.72c-.36 0-.49-.17-.36-.51l3.92-10.1c.14-.36.28-.43.66-.43h.83a.58.58 0 0 1 .66.41zm-4.61-6.84a8.91 8.91 0 0 1-.36-1.63v-.26h-.11a5.76 5.76 0 0 1-.34 1.88l-1.21 3.29h3.23zM75.38 43.14c0-2.5 1.62-4 4.49-4 2.22 0 3.65.87 4.26 2.59a.47.47 0 0 1-.33.69l-.86.29c-.38.13-.53 0-.67-.32a2.27 2.27 0 0 0-2.4-1.43c-1.62 0-2.51.77-2.51 2.2v3.44c0 1.43.89 2.22 2.51 2.22a2.27 2.27 0 0 0 2.4-1.45c.17-.38.31-.46.69-.32l.84.29a.49.49 0 0 1 .35.69q-.91 2.61-4.28 2.61c-2.87 0-4.49-1.53-4.49-4.06zm20.37-3.81c.39 0 .53.14.53.53v10c0 .38-.14.52-.53.52h-.91c-.39 0-.53-.14-.53-.52v-8.71H91v2a15.83 15.83 0 0 1-.59 4.75 4.22 4.22 0 0 1-.68 1.28A3.93 3.93 0 0 1 88 50.5c-.36.18-.56.11-.7-.24l-.41-.78a.47.47 0 0 1 .25-.72 2.07 2.07 0 0 0 1-.84 2.91 2.91 0 0 0 .47-.93 14.58 14.58 0 0 0 .41-3.82v-3.31c0-.39.15-.53.54-.53zm12.73 0c.33 0 .41.17.27.53l-4.67 10c-.18.39-.32.46-.88.46h-1.07c-.36 0-.44-.17-.26-.52l1.36-2.71-3.79-7.27c-.19-.36-.1-.53.26-.53h.93c.7 0 .73 0 1 .47l2.62 5.24 2.37-5.16c.19-.44.28-.47.95-.47zm16.14 0c.37 0 .47.25.26.51l-3.13 4.63a4.08 4.08 0 0 1 1.33 1.53l2 3.8c.19.29.11.52-.27.52h-.91c-.67 0-.88-.09-1.07-.46l-1.56-3.16a1.69 1.69 0 0 0-1.88-1.08H119v4.18c0 .38-.14.52-.54.52h-.89c-.39 0-.53-.14-.53-.52v-4.14h-.41a1.69 1.69 0 0 0-1.88 1.08l-1.57 3.16c-.19.37-.39.46-1.07.46h-.91c-.37 0-.45-.23-.26-.52l2-3.8a3.74 3.74 0 0 1 1.32-1.57l-3.14-4.63c-.19-.26-.09-.51.27-.51h1c.64 0 .82.06 1.07.44l2.65 4.13a4 4 0 0 1 .53 0h.36v-4c0-.39.14-.53.53-.53h.89c.4 0 .54.14.54.53v4h.41a3.72 3.72 0 0 1 .53 0l2.65-4.13c.25-.38.41-.44 1.08-.44zm10.75 0c.4 0 .54.14.54.53v.76c0 .39-.14.53-.54.53h-5.12v2.47h3a3.37 3.37 0 1 1 0 6.74h-4.45c-.37 0-.53-.12-.53-.49v-10c0-.39.16-.53.55-.53zm-.75 7.67a1.52 1.52 0 0 0-.42-1.13 1.61 1.61 0 0 0-1.18-.42h-2.77v3.11H133a1.61 1.61 0 0 0 1.18-.42 1.54 1.54 0 0 0 .44-1.14zm14.54 2.85q.18.51-.36.51h-.8c-.64 0-.85-.09-1-.46l-.72-2H142l-.74 2c-.12.37-.33.46-1 .46h-.72c-.36 0-.49-.17-.36-.51l3.92-10.1c.14-.36.28-.43.66-.43h.83a.58.58 0 0 1 .66.41zM144.55 43a8.91 8.91 0 0 1-.36-1.63v-.26h-.11a5.76 5.76 0 0 1-.34 1.88l-1.21 3.29h3.23zM51.28 32.72a.75.75 0 0 1-.75-.74V21.72h-3.39v2.11a.75.75 0 0 1-1.49 0v-3.59H52V32a.75.75 0 0 1-.72.72zM52 56.24H22.53V40.86a.75.75 0 0 1 1.5 0v13.9h26.5v-13.9a.75.75 0 0 1 1.5 0z" transform="translate(.05)"/><path class="cls-1" d="M50.71 41.49a3.52 3.52 0 0 1-2.45-1l-11.5-11.13a.73.73 0 0 1 0-1.05.74.74 0 0 1 1 0L49.3 39.45a2 2 0 0 0 2.82 0L55 36.7 37.28 19.51 19.61 36.7l2.83 2.75a2 2 0 0 0 2.82 0l5.41-5.24a.74.74 0 0 1 1 0 .72.72 0 0 1 0 1l-5.4 5.25a3.56 3.56 0 0 1-4.91 0L18 37.23a.75.75 0 0 1-.22-.53.73.73 0 0 1 .22-.52L36.73 18a.72.72 0 0 1 .55-.21.76.76 0 0 1 .55.21l18.71 18.18a.7.7 0 0 1 .23.52.76.76 0 0 1-.23.53l-3.38 3.28a3.52 3.52 0 0 1-2.45.98zm-4.1 14.61a.74.74 0 0 1-.74-.74V44.51h-5v7.89a.75.75 0 0 1-1.5 0V43h8v12.36a.75.75 0 0 1-.76.74zM34.88 51h-8v-8h8zm-6.54-1.48h5v-5h-5z" transform="translate(.05)"/></svg>