<svg width="35" height="35" fill="none" xmlns="http://www.w3.org/2000/svg"><g clip-path="url(#clip0)" fill="#0E9CB2"><path d="M34.082 27l-7.085-4.724a2.068 2.068 0 0 0-2.768.45l-2.064 2.653a.882.882 0 0 1-1.13.238l-.393-.216c-1.301-.71-2.92-1.592-6.183-4.856-3.262-3.263-4.146-4.883-4.856-6.182l-.215-.393a.883.883 0 0 1 .233-1.135l2.652-2.063a2.069 2.069 0 0 0 .45-2.768L7.999.92A2.057 2.057 0 0 0 5.226.296L2.264 2.075A4.179 4.179 0 0 0 .358 4.548C-.708 8.435.094 15.143 9.975 25.025 17.835 32.885 23.688 35 27.71 35c.925.004 1.847-.117 2.74-.358a4.175 4.175 0 0 0 2.474-1.906l1.781-2.96A2.057 2.057 0 0 0 34.082 27zm-.382 2.176l-1.777 2.963a3.015 3.015 0 0 1-1.779 1.378c-3.588.985-9.857.17-19.343-9.317C1.314 14.713.498 8.445 1.483 4.857a3.019 3.019 0 0 1 1.38-1.782l2.963-1.777a.892.892 0 0 1 1.203.27l2.567 3.854 2.154 3.23a.898.898 0 0 1-.195 1.202l-2.652 2.063a2.041 2.041 0 0 0-.54 2.62l.21.382c.745 1.367 1.672 3.068 5.055 6.451 3.384 3.383 5.084 4.31 6.45 5.055l.384.211a2.042 2.042 0 0 0 2.62-.54l2.063-2.653a.898.898 0 0 1 1.201-.194l7.084 4.724a.892.892 0 0 1 .27 1.203zM19.832 5.836c5.474.006 9.91 4.442 9.915 9.916a.583.583 0 1 0 1.167 0C30.907 9.634 25.95 4.677 19.832 4.67a.583.583 0 1 0 0 1.166z"/><path d="M19.832 9.336a6.423 6.423 0 0 1 6.416 6.416.583.583 0 1 0 1.166 0 7.59 7.59 0 0 0-7.582-7.583.583.583 0 1 0 0 1.167z"/><path d="M19.832 12.835a2.92 2.92 0 0 1 2.916 2.917.583.583 0 0 0 1.167 0 4.087 4.087 0 0 0-4.083-4.083.583.583 0 1 0 0 1.166z"/></g><defs><clipPath id="clip0"><path fill="#fff" d="M0 0h35v35H0z"/></clipPath></defs></svg>