<svg width="35" height="35" fill="none" xmlns="http://www.w3.org/2000/svg"><path d="M34.32 27.83l-3.88-2.586-3.45-2.3a1.528 1.528 0 0 0-2.052.334l-2.134 2.744a1.52 1.52 0 0 1-1.94.402c-1.449-.806-3.162-1.564-6.94-5.348-3.78-3.783-4.542-5.491-5.348-6.94a1.52 1.52 0 0 1 .402-1.94l2.744-2.134a1.528 1.528 0 0 0 .333-2.052L9.827 4.667 7.169.681A1.528 1.528 0 0 0 5.112.218L2.047 2.056a3.745 3.745 0 0 0-1.7 2.201c-.838 3.056-1.007 9.797 9.796 20.6 10.803 10.804 17.544 10.634 20.6 9.796a3.744 3.744 0 0 0 2.2-1.7l1.84-3.065c.419-.7.215-1.605-.464-2.057zM19.913 5.43c5.663.007 10.252 4.596 10.259 10.26a.603.603 0 1 0 1.206 0c-.007-6.33-5.136-11.46-11.465-11.467a.603.603 0 0 0 0 1.207z" fill="#0D49B2"/><path d="M19.913 9.051a6.646 6.646 0 0 1 6.638 6.638.603.603 0 1 0 1.207 0 7.854 7.854 0 0 0-7.845-7.844.603.603 0 0 0 0 1.206z" fill="#0D49B2"/><path d="M19.913 12.672a3.02 3.02 0 0 1 3.017 3.017.603.603 0 1 0 1.207 0 4.229 4.229 0 0 0-4.224-4.224.603.603 0 0 0 0 1.207z" fill="#0D49B2"/></svg>