<svg version="1.1" id="Capa_1" xmlns="http://www.w3.org/2000/svg" x="0" y="0" viewBox="0 0 60 60" xml:space="preserve"><style>.st0{fill:#fff}</style><path class="st0" d="M8.8 38.9c0 .3-.1.5-.3.7-.4.4-1.1.4-1.5 0l-.1-.1c-.2-.2-.3-.5-.3-.7 0-.3.1-.5.3-.7.2-.2.5-.3.7-.3.3 0 .6.1.7.3l.1.1c.3.1.4.4.4.7z"/><path class="st0" d="M58.5 51.9l-16-16 .1-.1c5.9-9.1 4.7-21.3-3-28.9-9-9-23.7-9-32.7 0C3.2 10.6.8 15.6.3 20.8c-.6 5.2.6 10.4 3.4 14.8.2.2.4.4.7.4.3.1.6 0 .8-.1.2-.2.4-.4.5-.7s0-.6-.1-.8c-5.2-8.2-4-19.2 2.9-26.1 4-4 9.2-6.1 14.8-6.1s10.9 2.2 14.9 6.1c8.2 8.2 8.2 21.5 0 29.7-7.1 7.1-18.2 8.2-26.5 2.6-.5-.3-1.1-.2-1.4.3-.3.5-.2 1.1.3 1.5 3.8 2.5 8.2 3.9 12.8 3.9 4.5 0 8.9-1.3 12.6-3.7l.1-.1 3.9 3.9h.1v.1l12.1 12.1c.9.9 2.1 1.4 3.3 1.4s2.4-.5 3.3-1.4c.9-.9 1.4-2 1.4-3.3-.3-1.3-.8-2.5-1.7-3.4zM37.6 41.2c.7-.6 1.3-1.2 1.9-1.7.6-.6 1.1-1.2 1.6-1.8l.1-.1 3 3-3.6 3.6-3-3zM57 57c-.5.5-1.1.8-1.8.8s-1.3-.3-1.8-.8L42.1 45.7l3.6-3.6.1.1L57 53.4c.5.5.8 1.1.8 1.8s-.3 1.3-.8 1.8z"/><path class="st0" d="M39.1 19c0 .6-.5 1-1.1 1s-1-.5-1-1c0-3.9-2.3-7.4-5.9-8.9-.5-.2-.8-.8-.6-1.4.2-.5.8-.8 1.4-.6 4.4 1.9 7.2 6.2 7.2 10.9zM28.6 8.4c0 .6-.5 1-1.1 1h-.1c-.6 0-1-.5-1-1 0-.6.5-1.1 1-1.1h.2c.3 0 .5.1.7.3.2.2.3.5.3.8z"/></svg>