<?xml version="1.0" encoding="utf-8"?>
<!-- Generator: Adobe Illustrator 23.0.2, SVG Export Plug-In . SVG Version: 6.00 Build 0)  -->
<svg version="1.1" id="Layer_1" xmlns="http://www.w3.org/2000/svg" xmlns:xlink="http://www.w3.org/1999/xlink" x="0px" y="0px"
	 viewBox="0 0 289.13 107.72" style="enable-background:new 0 0 289.13 107.72;" xml:space="preserve">
<style type="text/css">
	<!-- .st0{fill:#00AEEF;} -->
</style>
<g><animate attributeName="fill" values="#009fe3;#f39200;#e6007e;#009640;#009fe3" dur="7s" repeatCount="indefinite" />
	<polygon class="st0" points="8.47,97.91 4.02,97.91 4.02,94.06 2.83,94.06 2.83,103.26 4.02,103.26 4.02,98.95 8.47,98.95 
		8.47,103.26 9.67,103.26 9.67,94.06 8.47,94.06 	"/>
	<path class="st0" d="M24.82,94.06l-3.13,9.2h1.23l0.95-2.89h3.26l0.98,2.89h1.27l-3.14-9.2H24.82z M24.12,99.44l0.9-2.66
		c0.18-0.56,0.33-1.12,0.46-1.67h0.03c0.14,0.53,0.27,1.08,0.48,1.68l0.9,2.65H24.12z"/>
	<path class="st0" d="M45.3,98.33v-0.03c0.97-0.35,1.56-1.13,1.56-2.02c0-0.72-0.29-1.27-0.77-1.63c-0.57-0.46-1.34-0.67-2.53-0.67
		c-0.83,0-1.65,0.08-2.17,0.19v9.05c0.4,0.05,1.02,0.11,1.84,0.11c1.5,0,2.54-0.27,3.18-0.86c0.46-0.45,0.78-1.05,0.78-1.84
		C47.19,99.28,46.17,98.55,45.3,98.33z M42.58,94.99c0.19-0.04,0.5-0.08,1.05-0.08c1.2,0,2.02,0.42,2.02,1.5
		c0,0.89-0.74,1.54-1.99,1.54h-1.08V94.99z M43.58,102.42c-0.42,0-0.76-0.01-1-0.05v-3.51h0.98c1.3,0,2.38,0.52,2.38,1.77
		C45.94,101.97,44.8,102.42,43.58,102.42z"/>
	<path class="st0" d="M64.04,98.43c-0.48,0.3-1.17,0.52-1.82,0.52c-1.3,0-1.95-0.71-1.95-1.97v-2.92h-1.19v3.1
		c0,2.25,1.5,2.77,2.72,2.77c0.81,0,1.57-0.2,2.21-0.57h0.03v3.91h1.2v-9.2h-1.2V98.43z"/>
	<path class="st0" d="M80.39,94.06l-3.13,9.2h1.23l0.96-2.89h3.26l0.98,2.89h1.27l-3.14-9.2H80.39z M79.69,99.44l0.9-2.66
		c0.18-0.56,0.33-1.12,0.46-1.67h0.03c0.14,0.53,0.27,1.08,0.48,1.68l0.9,2.65H79.69z"/>
	<path class="st0" d="M98.07,97.94c0,1.47-0.07,3.26-0.81,3.99c-0.22,0.2-0.6,0.42-0.97,0.49l0.15,0.96c0.53,0,1.06-0.22,1.41-0.44
		c1.3-0.87,1.38-3.1,1.38-5.09v-2.79h3.05v8.21h1.2v-9.2h-5.41V97.94z"/>
	<path class="st0" d="M118.51,97.43c-0.31,0-0.86,0.03-1.13,0.07v-3.44h-1.19v9.18c0.4,0.05,1.02,0.11,1.86,0.11
		c1.27,0,2.55-0.29,3.3-1.08c0.44-0.48,0.71-1.11,0.71-1.97C122.06,98.26,120.39,97.43,118.51,97.43z M118.36,102.42
		c-0.41,0-0.71-0.01-0.98-0.07v-3.91c0.3-0.04,0.67-0.07,0.97-0.07c1.31,0,2.47,0.55,2.47,1.99
		C120.81,101.77,119.68,102.42,118.36,102.42z"/>
	<polygon class="st0" points="139.87,97.91 135.42,97.91 135.42,94.06 134.24,94.06 134.24,103.26 135.42,103.26 135.42,98.95 
		139.87,98.95 139.87,103.26 141.08,103.26 141.08,94.06 139.87,94.06 	"/>
	<path class="st0" d="M156.53,98.8c-0.67,1.09-1.24,2.09-1.71,3.04l-0.03-0.01c0.08-1.23,0.11-2.43,0.11-3.89v-3.88h-1.12v9.2h1.27
		l2.88-4.57c0.63-1.02,1.26-2.09,1.71-3.1l0.04,0.01c-0.1,1.16-0.11,2.25-0.11,3.74v3.92h1.12v-9.2h-1.19L156.53,98.8z"/>
	<path class="st0" d="M178.62,92.13h-0.91c-0.05,0.45-0.2,0.85-0.83,0.85c-0.64,0-0.78-0.42-0.83-0.85h-0.91
		c0.07,0.9,0.6,1.46,1.72,1.46C178.01,93.6,178.55,93.04,178.62,92.13z"/>
	<path class="st0" d="M176.17,98.8c-0.67,1.09-1.24,2.09-1.71,3.04l-0.03-0.01c0.08-1.23,0.11-2.43,0.11-3.89v-3.88h-1.12v9.2h1.27
		l2.88-4.57c0.63-1.02,1.26-2.09,1.71-3.1l0.04,0.01c-0.1,1.16-0.11,2.25-0.11,3.74v3.92h1.12v-9.2h-1.19L176.17,98.8z"/>
	<polygon class="st0" points="213.21,94.06 212.01,94.06 212.01,102.27 207.79,102.27 207.79,94.06 206.6,94.06 206.6,103.26 
		212.91,103.26 212.99,105.47 213.93,105.47 214.01,102.32 213.21,102.29 	"/>
	<polygon class="st0" points="227.34,98.95 230.92,98.95 230.92,97.96 227.34,97.96 227.34,95.06 231.12,95.06 231.12,94.06 
		226.15,94.06 226.15,103.26 231.32,103.26 231.32,102.27 227.34,102.27 	"/>
	<polygon class="st0" points="249.16,97.91 244.7,97.91 244.7,94.06 243.52,94.06 243.52,103.26 244.7,103.26 244.7,98.95 
		249.16,98.95 249.16,103.26 250.36,103.26 250.36,94.06 249.16,94.06 	"/>
	<polygon class="st0" points="262.02,95.07 264.82,95.07 264.82,103.26 266.02,103.26 266.02,95.07 268.83,95.07 268.83,94.06 
		262.02,94.06 	"/>
	<path class="st0" d="M282.78,93.99c-0.96,0-1.71,0.08-2.28,0.18v9.09h1.19v-3.69c0.27,0.07,0.6,0.08,0.96,0.08
		c1.16,0,2.18-0.34,2.81-1.01c0.46-0.48,0.71-1.13,0.71-1.97c0-0.82-0.3-1.49-0.81-1.93C284.82,94.26,283.96,93.99,282.78,93.99z
		 M282.68,98.7c-0.4,0-0.72-0.03-0.98-0.1v-3.58c0.21-0.05,0.6-0.1,1.12-0.1c1.31,0,2.17,0.59,2.17,1.8
		C284.98,98.01,284.11,98.7,282.68,98.7z"/>
	<g>
		<polygon class="st0" points="112.6,63.81 107.38,81.61 141.99,81.61 138.19,69.74 		"/>
		<path class="st0" d="M79.12,28.05c-0.45-0.85-1.04-1.56-1.78-2.11c-0.37-0.27-0.77-0.51-1.22-0.7c-0.88-0.38-1.91-0.58-3.08-0.58
			h-7.16v16.21h6.92c1.23,0,2.3-0.21,3.22-0.61c2.75-1.19,4.11-4.01,4.11-7.58c0-1.19-0.15-2.29-0.45-3.26
			C79.53,28.93,79.34,28.47,79.12,28.05z"/>
		<path class="st0" d="M3.16,2.24v79.37h83.18l27.22-79.37H3.16z M48.3,24.62H27.12v47.1H13.04v-59.6H48.3V24.62z M91.47,44.52
			c-0.96,1.65-2.13,3.1-3.5,4.34c-0.45,0.41-0.93,0.8-1.42,1.16c-0.99,0.72-2.06,1.34-3.2,1.84c-0.57,0.25-1.16,0.47-1.77,0.66
			c-1.36,0.43-2.81,0.71-4.34,0.82c-0.51,0.04-1.03,0.06-1.55,0.06h-9.82v18.32H51.79v-59.6H75.7c2.45,0,4.72,0.41,6.78,1.17
			c2.06,0.76,3.91,1.88,5.49,3.3c0.91,0.81,1.73,1.72,2.47,2.72c2.57,3.5,4.01,8.09,4.01,13.36c0,2.26-0.27,4.39-0.77,6.38
			C93.18,41.04,92.44,42.88,91.47,44.52z"/>
		<path class="st0" d="M120.66,25.75c0.03,10,0.07,19.93,0.1,29.92c1.86-1.61,3.67-3.18,5.51-4.77c0.89,2.78,1.77,5.53,2.65,8.3
			c1.8-0.58,3.57-1.16,5.36-1.74c-0.88-2.77-1.76-5.51-2.65-8.29c2.47,0.22,4.9,0.44,7.38,0.66
			C132.89,41.79,126.8,33.8,120.66,25.75z"/>
		<path class="st0" d="M243.42,27.78c-0.07,0.43-0.15,0.93-0.24,1.48c-0.18,1.1-0.39,2.41-0.62,3.88c-0.12,0.73-0.24,1.51-0.37,2.31
			c-0.2,1.21-0.4,2.49-0.62,3.81c-0.36,2.21-0.74,4.54-1.13,6.88c-0.2,1.17-0.39,2.35-0.59,3.51c-0.39,2.33-0.78,4.61-1.15,6.72
			c-0.18,1.06-0.36,2.08-0.54,3.04h17.79l0.21-35.17h-12.2C243.96,24.25,243.63,26.48,243.42,27.78z"/>
		<path class="st0" d="M117.9,2.24l19.33,4.02l25.86,75.35H286.3V2.24H117.9z M213.84,71.72h-14.09V48.59h-20.93v23.13h-14.09v-59.6
			h14.09v24.16h20.93V12.12h14.09V71.72z M276.48,71.72H264h-33.25h-12.96v-12.3h5.96c0.26-1.33,0.54-2.82,0.83-4.42
			c0.1-0.53,0.19-1.08,0.29-1.64c0.49-2.78,1-5.84,1.51-8.99c0.31-1.89,0.61-3.81,0.92-5.72c0.2-1.27,0.4-2.54,0.59-3.8
			c0.1-0.63,0.19-1.25,0.29-1.87c0.38-2.47,0.95-6.33,1.28-8.53c0.25-1.65,0.48-3.2,0.69-4.6c0.69-4.68,1.14-7.76,1.14-7.76h38.96
			l-0.21,47.31h6.44V71.72z"/>
	</g>
</g>
</svg>
