<svg width="18" height="35" fill="none" xmlns="http://www.w3.org/2000/svg"><g clip-path="url(#clip0)"><path d="M.565 18.643h3.838v15.792c0 .311.254.565.565.565h6.506c.31 0 .564-.254.564-.565V18.714h4.418a.576.576 0 0 0 .564-.494l.663-5.815a.551.551 0 0 0-.14-.437.587.587 0 0 0-.424-.184h-5.08V8.13c0-1.1.592-1.651 1.763-1.651h3.317c.31 0 .564-.254.564-.565V.565A.566.566 0 0 0 17.12 0h-4.798c-.79 0-3.557.155-5.73 2.16-2.414 2.23-2.075 4.882-2.004 5.348v4.262H.565a.566.566 0 0 0-.565.565v5.744c0 .31.254.564.565.564z" fill="#96C93D"/></g><defs><clipPath id="clip0"><path fill="#fff" d="M0 0h17.683v35H0z"/></clipPath></defs></svg>