<svg width="35" height="35" fill="none" xmlns="http://www.w3.org/2000/svg"><path d="M17.487 11.59a5.895 5.895 0 0 0-5.898 5.897c0 3.26 2.638 5.924 5.898 5.924a5.895 5.895 0 0 0 5.898-5.898c.026-3.285-2.639-5.924-5.898-5.924z" fill="#96C93D"/><path d="M25.325 0H9.65C4.32 0 0 4.32 0 9.649v15.676c0 5.33 4.32 9.65 9.649 9.65h15.676a9.65 9.65 0 0 0 9.65-9.65V9.65c0-5.329-4.32-9.649-9.65-9.649zm-7.838 26.515c-4.967 0-9.002-4.035-9.002-9.002 0-4.967 4.035-9.002 9.002-9.002 4.967 0 9.002 4.035 9.002 9.002.026 4.967-4.01 9.002-9.002 9.002zm11.02-16.788a2.28 2.28 0 0 1-3.208 0 2.28 2.28 0 0 1 0-3.208 2.28 2.28 0 0 1 3.208 0c.414.414.673 1.009.673 1.604-.026.595-.26 1.19-.673 1.604z" fill="#96C93D"/></svg>