<svg width="34" height="35" fill="none" xmlns="http://www.w3.org/2000/svg"><path d="M9.606 35a1.418 1.418 0 0 1-1.426-1.419c0-.63-.06-1.827-.112-2.883a140.97 140.97 0 0 1-.076-1.623C5.82 28.302 4.114 27 2.92 25.198 1.861 23.6 1.218 21.742.954 19.515c-.482-4.062-.32-7.645.495-10.956.879-3.565 3.071-6.001 6.518-7.241C10.499.406 13.22 0 16.793 0c.81 0 1.696.02 2.79.063 2.195.086 4.005.348 5.695.825 2.027.571 4.138 1.282 5.713 3.116.991 1.154 1.7 2.57 2.168 4.33.767 2.886.958 6.067.602 10.01-.144 1.59-.336 3.279-.967 4.925-1.198 3.127-3.556 5.154-7.008 6.022a36.895 36.895 0 0 1-8.996 1.097c-.446 0-.9-.008-1.353-.023a2.8 2.8 0 0 0-.061.066 1.454 1.454 0 0 1-.069.07c-1.45 1.383-3.616 3.191-4.432 3.871l-.311.261c-.268.24-.61.367-.958.367zm7.186-32.163c-3.226 0-5.648.354-7.855 1.148-2.528.91-4.071 2.627-4.717 5.25-.733 2.974-.875 6.229-.433 9.948.21 1.777.706 3.234 1.514 4.453.91 1.372 2.202 2.31 3.95 2.868 1.303.416 1.578 1.293 1.58 1.956 0 .372.042 1.21.086 2.097 0 .019.002.037.003.055a66.86 66.86 0 0 0 2.377-2.125c.299-.326.96-1.004 2.112-.962.461.017.926.026 1.38.026 2.84 0 5.631-.34 8.297-1.01 2.568-.647 4.17-2.007 5.042-4.283.501-1.309.66-2.718.791-4.167.33-3.655.17-6.44-.518-9.032-.356-1.339-.873-2.39-1.58-3.212-1.058-1.233-2.648-1.758-4.322-2.23-1.467-.413-3.065-.642-5.03-.72a67.731 67.731 0 0 0-2.677-.06z" fill="#C6C6C6"/><path d="M24.734 21.2c-.124 1.1-.73 1.714-1.337 2.3-.684.664-1.499 1.057-2.473.67a28.525 28.525 0 0 1-2.202-.998 20.736 20.736 0 0 1-5.96-4.489c-2.027-2.186-3.613-4.652-4.545-7.503-.244-.745-.117-1.41.474-1.92.543-.47 1.12-.913 1.729-1.292.44-.274.972-.247 1.372.108 1.115.989 2.027 2.144 2.618 3.516.2.465.156.955-.301 1.316-.225.176-.436.368-.656.55-.606.498-.7.845-.458 1.583.552 1.678 1.737 2.84 3.167 3.776.482.316 1.046.52 1.591.726.465.175.853-.017 1.152-.395.156-.197.307-.397.467-.59.456-.552 1.257-.734 1.853-.338a52.895 52.895 0 0 1 3.068 2.19c.25.194.338.595.441.79zm1.5-4.733a.711.711 0 0 1-.713-.71c0-4.913-4.02-8.91-8.961-8.91a.711.711 0 0 1-.713-.71c0-.391.32-.71.713-.71 5.728 0 10.387 4.635 10.387 10.33a.71.71 0 0 1-.713.71z" fill="#C6C6C6"/><path d="M23.596 16.467a.711.711 0 0 1-.714-.71c0-3.466-2.836-6.287-6.322-6.287a.711.711 0 0 1-.713-.709c0-.392.32-.71.713-.71 4.273 0 7.749 3.457 7.749 7.707 0 .392-.32.71-.713.71z" fill="#C6C6C6"/><path d="M20.957 16.467a.711.711 0 0 1-.713-.71c0-2.02-1.653-3.663-3.684-3.663a.711.711 0 0 1-.713-.71c0-.39.32-.709.713-.709 2.818 0 5.11 2.28 5.11 5.083 0 .392-.319.71-.713.71z" fill="#C6C6C6"/></svg>