<svg width="36" height="25" fill="none" xmlns="http://www.w3.org/2000/svg"><g clip-path="url(#clip0)"><path fill-rule="evenodd" clip-rule="evenodd" d="M35.126 3.904c-.404-1.84-1.93-3.23-3.77-3.41C27.05 0 22.652 0 18.345 0 13.99 0 9.639 0 5.33.494c-1.84.18-3.365 1.57-3.77 3.41C.935 6.55.935 9.424.935 12.115c0 2.693 0 5.61.628 8.212.404 1.84 1.93 3.23 3.769 3.41 4.308.494 8.66.494 13.013.494 4.352 0 8.705 0 13.013-.494 1.84-.224 3.32-1.57 3.769-3.41.628-2.648.628-5.52.628-8.212-.045-2.692-.045-5.564-.628-8.211zM13.812 17.5V6.013c3.68 1.93 7.359 3.814 11.038 5.788-3.68 1.885-7.314 3.814-11.038 5.699z" fill="#96C93D"/></g><defs><clipPath id="clip0"><path fill="#fff" transform="translate(.934)" d="M0 0h35v24.68H0z"/></clipPath></defs></svg>