<svg width="28" height="37" fill="none" xmlns="http://www.w3.org/2000/svg"><path d="M24.197.034c1.335.574 2.096 1.639 2.518 2.974.828 2.534.76 5.035-.473 7.452-.49.963-1.183 1.74-2.383 1.757-1.216.017-1.892-.76-2.433-1.69-.862-1.487-1.047-3.126-.997-4.799V4.9c-1.115-.304-2.027.27-2.146 1.572-.101 1.216-.101 2.484.085 3.683.49 3.11 1.183 6.185 1.639 9.294.524 3.532.574 7.046-.727 10.477-2.518 6.657-10.307 8.448-15.782 4.393C1.57 32.883.625 30.839.186 28.523c-.034-.22-.118-.422-.186-.625v-3.549c.068-.236.152-.473.186-.71.49-3.024 2.332-5.187 4.934-5.474 2.197-.237 4.427-.203 6.64-.287a73.686 73.686 0 0 1 .963 4.275H9.126c-1.606 0-2.856.743-3.33 2.247-.354 1.115-.438 2.366-.37 3.549.151 2.162 1.993 3.903 4.257 4.292 1.673.287 3.397-.828 4.377-2.805.693-1.42.912-2.94.946-4.512.068-3.329-.777-6.523-1.386-9.75-.557-2.974-.912-5.948-.405-8.973.54-3.278 2.568-5.424 5.593-5.964.389-.068.76-.153 1.132-.237 1.436.034 2.856.034 4.258.034z" fill="#ED0035"/></svg>