<svg width="40" height="40" fill="none" xmlns="http://www.w3.org/2000/svg"><path d="M20 40c11.046 0 20-8.954 20-20S31.046 0 20 0 0 8.954 0 20s8.954 20 20 20z" fill="#0F61A7"/><path d="M15.897 23.103a4.138 4.138 0 1 0 4.137-4.137 4.143 4.143 0 0 0-4.137 4.137zm4.137-2.758a2.761 2.761 0 0 1 2.759 2.758 2.761 2.761 0 0 1-2.759 2.759 2.761 2.761 0 0 1-2.758-2.759 2.76 2.76 0 0 1 2.758-2.758zm8.276-2.759h-2.758v1.38h2.758v-1.38zm2.759 2.759H29.69v1.379h1.379v-1.379zm0 2.758H29.69v1.38h1.379v-1.38z" fill="#fff"/><path d="M24.711 14.828l-.689-2.759h-3.988v1.379h2.91l.69 2.759h6.056v2.759h1.379v-4.138h-6.358zm4.979 13.793H10.379v-8.966H9V30h22.069v-4.138H29.69v2.759zm-17.931-8.966h4.138v-2.758h2.758v-4.138h-2.758V10h-4.138v2.759H9v4.138h2.759v2.758zm-1.38-4.138v-1.379h2.759v-2.759h1.379v2.759h2.759v1.379h-2.759v2.759h-1.379v-2.759h-2.759z" fill="#fff"/></svg>