<svg width="40" height="40" fill="none" xmlns="http://www.w3.org/2000/svg"><path d="M20 40c11.046 0 20-8.954 20-20S31.046 0 20 0 0 8.954 0 20s8.954 20 20 20z" fill="#DC0000"/><path d="M27.447 11.591h-3.041V9.682c0-.384-.321-.682-.718-.682-.038 0-.064.011-.076.026A.081.081 0 0 0 23.559 9h-7.25c-.397 0-.706.298-.706.682v1.909h-3.05c-.874 0-1.553.657-1.553 1.5v2.455h1.347v13.968c0 .844.668 1.486 1.538 1.486h12.227c.873 0 1.553-.645 1.553-1.486V15.543H29v-2.452c0-.843-.679-1.5-1.553-1.5zm-10.429-1.227h5.964v1.227h-5.964v-1.227zm9.223 19.147c0 .088-.038.125-.129.125H13.885c-.091 0-.129-.037-.129-.125V15.543h12.482v13.968h.003zm1.335-15.331H12.424v-1.089c0-.088.038-.136.129-.136h14.894c.091 0 .129.048.129.136v1.089z" fill="#fff"/><path d="M24.009 17.143h-1.424V28.42h1.424V17.143zm-3.285 0H19.3V28.42h1.424V17.143zm-3.283 0h-1.423V28.42h1.423V17.143z" fill="#fff"/></svg>