<svg width="19" height="22" fill="none" xmlns="http://www.w3.org/2000/svg"><g clip-path="url(#clip0)" fill="#534746"><path d="M9.42 11.854h.148c1.355-.023 2.451-.492 3.26-1.39 1.782-1.977 1.486-5.366 1.454-5.69-.115-2.428-1.28-3.587-2.243-4.132C11.322.237 10.485.016 9.553 0h-.079c-.513 0-1.522.082-2.486.626-.965.545-2.162 1.702-2.277 4.148-.033.324-.329 3.713 1.452 5.69.805.898 1.901 1.367 3.257 1.39zM5.946 4.888c0-.013.004-.027.004-.036.153-3.267 2.508-3.617 3.516-3.617h.058c1.249.027 3.372.528 3.515 3.617a.087.087 0 0 0 .005.036c.005.032.328 3.133-1.143 4.761-.582.647-1.36.968-2.382.975h-.046c-1.018-.009-1.8-.328-2.378-.975C5.63 8.027 5.943 4.916 5.948 4.89h-.002z"/><path d="M18.999 17.476v-.014c0-.036-.005-.072-.005-.113-.027-.903-.088-3.012-2.095-3.686l-.046-.014c-2.087-.524-3.821-1.708-3.84-1.722a.632.632 0 0 0-.858.158.607.607 0 0 0 .141.849c.079.057 1.92 1.317 4.221 1.9 1.078.378 1.198 1.512 1.23 2.55 0 .039.001.077.005.115.005.41-.023 1.043-.097 1.408-.752.419-3.687 1.867-8.153 1.867-4.452 0-7.405-1.453-8.16-1.872-.073-.364-.106-.998-.096-1.408 0-.036.004-.073.004-.114.033-1.038.153-2.173 1.23-2.55 2.304-.584 4.145-1.85 4.222-1.9a.62.62 0 0 0 .266-.399.606.606 0 0 0-.282-.633.63.63 0 0 0-.701.024c-.019.014-1.744 1.196-3.84 1.723a.587.587 0 0 0-.046.013c-2.005.68-2.065 2.788-2.093 3.686a.9.9 0 0 1-.005.114v.014c-.004.236-.009 1.453.236 2.063a.586.586 0 0 0 .24.285c.14.091 3.465 2.178 9.03 2.178 5.565 0 8.89-2.091 9.03-2.178a.612.612 0 0 0 .24-.285c.231-.606.227-1.822.222-2.059z"/></g><defs><clipPath id="clip0"><path fill="#fff" d="M0 0h19v22H0z"/></clipPath></defs></svg>