<svg width="72" height="32" fill="none" xmlns="http://www.w3.org/2000/svg"><g clip-path="url(#clip0)"><path d="M71.503 22.795s.06-.364 0-.246c-.56-4.484-2.34-4.976-4.799-6.264a47.375 47.375 0 0 0-4.67-2.124h-.738s-1.898-1.81-8.664-8.202C45.866-.433 43.968 0 43.968 0H5.133C1.76 0 1.27 4.484.531 13.58A101.605 101.605 0 0 0 .04 26.425l8.536 1.908v-.65a5.999 5.999 0 0 1 11.988 0v.59h34.34a5.805 5.805 0 0 1 0-.59 5.989 5.989 0 1 1 11.978 0 6.874 6.874 0 0 1-.098 1.112l.226.216a20.125 20.125 0 0 1 2.272-1.357c.746-.39 1.522-.719 2.32-.983l.247-3.835-.345-.04z" fill="#E5E5E5"/><path d="M14.476 32.01a4.356 4.356 0 1 0 0-8.713 4.356 4.356 0 0 0 0 8.713z" fill="#E5E5E5"/><path d="M14.476 30.613a2.96 2.96 0 1 0 0-5.92 2.96 2.96 0 0 0 0 5.92z" fill="#E5E5E5" stroke="#fff" stroke-width=".25" stroke-miterlimit="10"/><path d="M14.476 29.915a2.262 2.262 0 1 0 0-4.523 2.262 2.262 0 0 0 0 4.523z" fill="#E5E5E5" stroke="#fff" stroke-width=".25" stroke-miterlimit="10"/><path d="M60.676 32.01a4.356 4.356 0 1 0 0-8.713 4.356 4.356 0 0 0 0 8.713z" fill="#E5E5E5"/><path d="M60.676 30.613a2.96 2.96 0 1 0 0-5.92 2.96 2.96 0 0 0 0 5.92z" fill="#E5E5E5" stroke="#fff" stroke-width=".25" stroke-miterlimit="10"/><path d="M60.676 29.915a2.262 2.262 0 1 0 0-4.524 2.262 2.262 0 0 0 0 4.524z" fill="#E5E5E5" stroke="#fff" stroke-width=".25" stroke-miterlimit="10"/><path d="M0 22.402h11.683m5.753 0l39.877.442M19.875 24.91l35.432.472m16.481-2.577l-7.434.03M24.192 0v28.273M43.112 0v28.273" stroke="#fff" stroke-width=".25" stroke-miterlimit="10"/><path d="M4.052.197S2.989 4.13 2.744 12.686c-.246 8.555-.168 11.339-.168 11.339a.659.659 0 0 0 .738.658h6.068" fill="#E5E5E5"/><path d="M4.052.197S2.989 4.13 2.744 12.686c-.246 8.555-.168 11.339-.168 11.339a.659.659 0 0 0 .738.658h6.068M.433 14.85h2.134" stroke="#fff" stroke-width=".25" stroke-miterlimit="10"/><path d="M2.635 16.738s22.619.226 51.413 2.871z" fill="#E5E5E5"/><path d="M2.635 16.738s22.619.226 51.413 2.871" stroke="#fff" stroke-width=".25" stroke-miterlimit="10"/><path d="M45.954 28.273a12.243 12.243 0 0 1-.816-4.042 187.085 187.085 0 0 1-.314-5.409h-.384l-.57-13.57s6.795-.178 8.359 1.19c1.563 1.366 7.454 7.867 7.454 7.867l1.613-.158" fill="#E5E5E5"/><path d="M45.954 28.273a12.243 12.243 0 0 1-.816-4.042 187.085 187.085 0 0 1-.314-5.409h-.384l-.57-13.57s6.795-.178 8.359 1.19c1.563 1.366 7.454 7.867 7.454 7.867l1.613-.158" stroke="#fff" stroke-width=".25" stroke-miterlimit="10"/><path d="M53.714 28.273s.413-5.9 4.582-7.602a6.087 6.087 0 0 1 7.75 2.154" fill="#E5E5E5"/><path d="M53.714 28.273s.413-5.9 4.582-7.602a6.087 6.087 0 0 1 7.75 2.154m3.451-1.682v1.672" stroke="#fff" stroke-width=".25" stroke-miterlimit="10"/><path d="M69.763 18.173a10.165 10.165 0 0 0-2.793 0c0 .286.777 2.44 4.465 3.934" fill="#E5E5E5"/><path d="M69.763 18.173a10.165 10.165 0 0 0-2.793 0c0 .286.777 2.44 4.465 3.934M3.6 24.683v2.528m54.116-6.245v-5.35" stroke="#fff" stroke-width=".25" stroke-miterlimit="10"/><path d="M60.676 16.128l-11.85-1.967s-3.196-.305-3.442-3.098a116.382 116.382 0 0 1-.334-5.035s4.68-.206 6.215.502c.57.335 1.084.756 1.524 1.249l7.887 8.349z" fill="#E5E5E5" stroke="#fff" stroke-width=".25" stroke-miterlimit="10"/><path d="M51.59 6.687l1.268 8.133m6.284-.315l-1.426 1.111" stroke="#fff" stroke-width=".25" stroke-miterlimit="10"/><path d="M54.648 15.115V11.85l1.091-.964" fill="#E5E5E5"/><path d="M54.648 15.115V11.85l1.091-.964m4.937 5.252l6.304 2.035" stroke="#fff" stroke-width=".25" stroke-miterlimit="10"/><path d="M5.97 5.468h35.323s.708 0 .54 1.2c-.294 1.966-.983 7.464-.983 7.464s-.127 1.21-1.76 1.21H4.051s-.983 0-.776-1.555c.206-1.554.816-5.9.816-5.9s.324-2.42 1.878-2.42z" fill="#E5E5E5" stroke="#fff" stroke-width=".25" stroke-miterlimit="10"/><path d="M3.255 14.367h20.937m15.105 2.292h2.95m2.803 0H48" stroke="#fff" stroke-width=".5" stroke-miterlimit="10"/><path d="M13.394 10.945c-.243.09-.476.202-.698.335a4.37 4.37 0 0 1 .659-.374" fill="#E5E5E5"/><path d="M15.36 10.08c.01.137.01.275 0 .413a5.105 5.105 0 0 0-1.966.452c-.243.09-.476.202-.698.335a3.103 3.103 0 0 0-.423-.374 5.488 5.488 0 0 1 2.95-.826h.138z" fill="#E5E5E5"/></g><path d="M8.83 9.765h.384a2.803 2.803 0 0 1 .817-1.71l.088-.09v-.117c.005-.232.069-.46.187-.66l.108-.117a3.383 3.383 0 0 0-1.77 2.684h.177m4.956-2.301a.755.755 0 0 0 .099.177.76.76 0 0 1 .128.453c.46.459.745 1.064.806 1.71h.55a3.382 3.382 0 0 0-1.878-2.743c.111.124.204.263.276.413m-3.481 1.524V8.92a.753.753 0 0 0-.08-.108.846.846 0 0 1-.137-.246c-.282.365-.455.8-.501 1.26.185.018.369.048.55.088.03-.25.1-.492.207-.718a.811.811 0 0 1 0-.207m4.17.835a2.488 2.488 0 0 0-.59-1.377c-.052.092-.108.18-.168.266a1.766 1.766 0 0 0-.147.236c.208.288.33.629.354.983a5.38 5.38 0 0 1 .55-.088m-1.278.266l.325-.109a1.395 1.395 0 0 0-.158-.6l-.078.06-.187.127c.063.146.097.303.098.462v.06m-2.301-.492a.423.423 0 0 1-.256-.089 1.328 1.328 0 0 0-.108.492l.325.108v-.069a.984.984 0 0 1 .088-.432m1.455-.217c.168 0 .217.079.404 0 .187-.078.452-.275.452-.344 0-.452.679-.777.384-1.24a2.824 2.824 0 0 0-.364-.57c-.108-.088-.246-.049-.354-.137-.108-.089-.207-.187-.325-.266-.305-.206-1.249-.186-1.475.148-.226.334-.373.236-.511.423s-.098.59-.187.855c-.089.266.05.276.167.531.118.256 0 .276.089.374.088.098.187.069.265.128.079.059.207-.079.305 0a.374.374 0 0 0 .443.088c0-.255.717-.255.708 0" fill="#fff"/><path d="M12.588 8.044l-.226.108c-.07-.216-.197-.373-.335-.373s-.275.147-.344.373a3.74 3.74 0 0 0-.531-.236s.177.158.246.236a.98.98 0 0 1 .216.512c0 .246 0 .501.05.757v1.072l.363.216.374-.226a6.253 6.253 0 0 1 0-.747V9.41c0-.246 0-.501.059-.747a.983.983 0 0 1 .226-.512c.069-.078.256-.226.246-.236-.11.03-.215.074-.315.128m2.606 3.099c.043-.122.076-.247.098-.374a4.71 4.71 0 0 0-2.4.757c.124.142.236.293.335.453l.118-.079a4.613 4.613 0 0 1 1.849-.757zm-.118.305a3.536 3.536 0 0 1-.423.718 3.413 3.413 0 0 0-1.062.61 2.85 2.85 0 0 0-.226-.541 4.474 4.474 0 0 1 1.711-.787m-1.711 1.701c-.17.082-.348.148-.531.197a3.324 3.324 0 0 0-2.262-2.4 4.976 4.976 0 0 0-1.967-.452v-.413h.187a5.35 5.35 0 0 1 3.275 1.062c.402.325.736.726.983 1.18.143.267.248.551.315.846" fill="#fff"/><path d="M12.47 13.424a2.28 2.28 0 0 1-.453 0h-.098c0-.06-.05-.128-.079-.197a2.734 2.734 0 0 0-1.18-1.347 4.572 4.572 0 0 0-1.839-.768c0-.117-.069-.245-.098-.373a4.59 4.59 0 0 1 2.606.914 3.038 3.038 0 0 1 1.15 1.741" fill="#fff"/><path d="M10.65 12.243a4.318 4.318 0 0 0-1.72-.786c.113.253.258.491.432.708.591.21 1.11.586 1.495 1.082.243.093.498.155.757.186a3.333 3.333 0 0 0-.984-1.19m7.878-4.081a.492.492 0 0 1-.285.62 1.438 1.438 0 0 1-.708 0v.472h.6v.393h-.61v.325c0 .59.285.462.245.57a.58.58 0 0 1-.491.295c-.305 0-.57-.187-.57-.649V8.123h1.76l.059.04z" fill="#fff"/><path d="M20.022 9.274a.443.443 0 0 1-.462.472.285.285 0 0 1-.187-.07V9.54c0-.079 0-.157-.079-.157-.078 0-.118.187-.118.413v.983h-.747V9.687c0-.59-.256-.473-.216-.57a.511.511 0 0 1 .983.147.58.58 0 0 1 .462-.413.393.393 0 0 1 .364.422zm1.839 1.012a.984.984 0 0 1-.895.59 1.014 1.014 0 0 1 .05-2.025c.609 0 .875.383.875.649 0 .58-.679.649-1.16.57.127.374.619.413 1.071.157h.05s.019.02.009.06zm-1.16-.54c.324 0 .491-.099.491-.296a.176.176 0 0 0-.196-.176h-.089a.53.53 0 0 0-.206.491v-.02zm3.049.531c0 .452-.542.61-.984.61-.443 0-.866-.119-.866-.483a.345.345 0 0 1 .354-.344c.1-.005.2.019.286.07v.147a.206.206 0 0 0 .216.226c.138 0 .197-.07.197-.167 0-.099-.256-.217-.531-.305a.648.648 0 0 1-.502-.56c0-.384.452-.61.836-.61.384 0 .875.157.875.481a.325.325 0 0 1-.364.325c-.127 0-.255 0-.265-.069-.01-.069 0-.069 0-.147 0-.08-.069-.217-.197-.207a.167.167 0 0 0-.167.167c0 .187.216.236.472.305s.64.226.64.56zm2.232.333a.54.54 0 0 1-.984-.304v-.718c0-.373-.373-.246-.383.197v.983h-.718V8.133h.757v1.12a.718.718 0 0 1 .62-.412.55.55 0 0 1 .51.61v.58c-.048.6.227.472.198.58zm2.163-2.438h.708v2.606h-.708v-1.19l.069-.374c0 .08-.58 1.102-.58 1.102h-.207l-.61-1.111.07.344v1.23H26.1V8.751c0-.423-.256-.344-.217-.432a.668.668 0 0 1 .56-.276c.355 0 .512.266.69.56.176.296.363.709.363.709l.65-1.14zm3.137 2.438a.511.511 0 0 1-.983-.156.679.679 0 0 1-.58.422c-.473 0-.728-.52-.728-.983 0-.462.255-.983.747-.983a.62.62 0 0 1 .55.354v-.256h.807v1.101c0 .531.217.404.187.502zm-.983-.746c0-.276-.099-.502-.276-.502-.177 0-.285.226-.285.502 0 .275.099.501.285.501.187 0 .315-.226.315-.501h-.04z" fill="#fff"/><path d="M32.944 9.274a.443.443 0 0 1-.462.472.285.285 0 0 1-.187-.07V9.54c0-.079 0-.157-.078-.157-.08 0-.119.187-.119.413v.983h-.747V9.687c0-.59-.256-.473-.216-.57a.511.511 0 0 1 .983.147.58.58 0 0 1 .462-.413.393.393 0 0 1 .364.422zm1.396 1.189c-.137 0-.373.07-.413-.236-.039-.304 0-.56 0-.983h.443v-.315h-.452v-.57l-.708.295v.275h-.197v.345h.197v1.042a.541.541 0 0 0 .245.492.668.668 0 0 0 .335.088.737.737 0 0 0 .639-.334c-.01-.05-.02-.099-.089-.099z" fill="#fff"/><defs><clipPath id="clip0"><path fill="#fff" d="M0 0h71.789v32H0z"/></clipPath></defs></svg>