<svg width="24" height="24" fill="none" xmlns="http://www.w3.org/2000/svg"><path d="M17.751 1.862A2.073 2.073 0 0 0 15.724.207a.413.413 0 1 0 0 .828 1.241 1.241 0 0 1 .001 2.482.413.413 0 1 0 0 .828c.998 0 1.834-.712 2.026-1.655h5.421v3.724H.828V2.69h7.034a.413.413 0 1 0 0-.828h-.751a1.24 1.24 0 0 1 2.406.414c0 .684-.557 1.241-1.241 1.241a.413.413 0 1 0 0 .828c1.14 0 2.069-.928 2.069-2.07 0-1.14-.928-2.068-2.07-2.068-.998 0-1.834.712-2.026 1.655H0v21.931h24V1.862h-6.249zm5.421 21.104H.828V7.24h22.344v15.724z" fill="#96C93D"/><path d="M10.758 1.034a1.243 1.243 0 0 1 0 2.483.413.413 0 1 0 0 .828c1.141 0 2.07-.928 2.07-2.07 0-1.14-.929-2.068-2.07-2.068a.413.413 0 1 0 0 .828z" fill="#96C93D"/><path d="M13.241 1.034a1.243 1.243 0 0 1 0 2.483.413.413 0 1 0 0 .828c1.141 0 2.07-.928 2.07-2.07 0-1.14-.929-2.068-2.07-2.068a.413.413 0 1 0 0 .828zm-4.138 9.518a.414.414 0 1 0 0-.828.414.414 0 0 0 0 .828zm2.897 0a.414.414 0 1 0 0-.828.414.414 0 0 0 0 .828zm2.896 0a.414.414 0 1 0 0-.828.414.414 0 0 0 0 .828zm2.897 0a.414.414 0 1 0 0-.828.414.414 0 0 0 0 .828zm2.897 0a.414.414 0 1 0 0-.828.414.414 0 0 0 0 .828zm-17.38 3.31a.414.414 0 1 0 0-.828.414.414 0 0 0 0 .828zm2.897 0a.414.414 0 1 0 0-.828.414.414 0 0 0 0 .828zm2.896 0a.414.414 0 1 0 0-.828.414.414 0 0 0 0 .828zm2.897 0a.414.414 0 1 0 0-.828.414.414 0 0 0 0 .828zm2.896 0a.414.414 0 1 0 0-.828.414.414 0 0 0 0 .828zm2.897 0a.414.414 0 1 0 0-.828.414.414 0 0 0 0 .828zm2.897 0a.414.414 0 1 0 0-.828.414.414 0 0 0 0 .828zM3.31 16.759a.414.414 0 1 0 0-.828.414.414 0 0 0 0 .828zm2.897 0a.414.414 0 1 0 0-.828.414.414 0 0 0 0 .828zm2.896 0a.414.414 0 1 0 0-.828.414.414 0 0 0 0 .828zm2.897 0a.414.414 0 1 0 0-.828.414.414 0 0 0 0 .828zm2.896 0a.414.414 0 1 0 0-.828.414.414 0 0 0 0 .828zm2.897 0a.414.414 0 1 0 0-.828.414.414 0 0 0 0 .828zm2.897 0a.414.414 0 1 0 0-.828.414.414 0 0 0 0 .828zm-17.38 3.31a.414.414 0 1 0 0-.828.414.414 0 0 0 0 .828zm2.897 0a.414.414 0 1 0 0-.828.414.414 0 0 0 0 .828zm2.896 0a.414.414 0 1 0 0-.828.414.414 0 0 0 0 .828zm2.897 0a.414.414 0 1 0 0-.828.414.414 0 0 0 0 .828zm2.896 0a.414.414 0 1 0 0-.828.414.414 0 0 0 0 .828z" fill="#96C93D"/></svg>