<svg width="22" height="22" fill="none" xmlns="http://www.w3.org/2000/svg"><g clip-path="url(#clip0)" fill="#534746"><path d="M10.927 21.515a5.627 5.627 0 0 1-2.242-.463l-3.392-1.475a12.863 12.863 0 0 0-3.856-1.005l-1.114-.111A.358.358 0 0 1 0 18.104V14.61c0-.077.025-.153.072-.215.083-.111 2.08-2.72 5.129-2.04a12.952 12.952 0 0 1 3.952 1.625 3.99 3.99 0 0 0 2.108.59h3.392c.585 0 1.099.309 1.386.773l2.921-3.366a3.099 3.099 0 0 1 2.463-1.22h.219a.358.358 0 0 1 .328.503l-2.642 6.005a4.707 4.707 0 0 1-3.146 2.653l-.465.117-2.704 1.081a5.623 5.623 0 0 1-2.086.399zM.717 17.78l.791.079a13.57 13.57 0 0 1 4.071 1.06l3.392 1.475a4.932 4.932 0 0 0 3.776.056l2.726-1.09a.377.377 0 0 1 .046-.015l.489-.122a3.985 3.985 0 0 0 2.663-2.247l2.41-5.477a2.397 2.397 0 0 0-1.563.928l-3.236 3.73v.041c0 .899-.73 1.63-1.629 1.63H9.921c-.615 0-1.223.098-1.807.293l-.132-.334-.111-.341.018-.006a6.416 6.416 0 0 1 2.032-.33h4.732a.913.913 0 0 0 0-1.824h-3.392c-.89 0-1.75-.24-2.485-.697a12.232 12.232 0 0 0-3.73-1.535c-2.31-.512-3.971 1.26-4.329 1.683v3.043zm13.402-7.103c-.551 0-1.17-.17-1.85-.511a.36.36 0 0 1-.178-.2c-.027-.078-.668-1.92.35-3.283.74-.99 2.131-1.437 4.137-1.325.184.01.33.157.338.34.008.142.155 3.503-1.558 4.621a2.216 2.216 0 0 1-1.239.358zM12.726 9.59c.942.441 1.694.485 2.24.128 1.016-.663 1.236-2.633 1.241-3.659-1.572-.038-2.642.316-3.191 1.052-.654.875-.4 2.08-.29 2.479zM8.637 5.98c-.636 0-1.37-.137-2.01-.606C5.543 4.58 5.044 3.064 5.146.873a.359.359 0 0 1 .337-.341c.155-.01 3.825-.205 5.06 1.649.576.863.529 1.993-.14 3.36a.358.358 0 0 1-.197.18 4.95 4.95 0 0 1-1.568.258zm1.444-.596h.003-.003zM5.85 1.237c-.032 1.755.372 2.952 1.2 3.559.992.727 2.347.418 2.773.294.487-1.058.528-1.902.122-2.512-.755-1.133-2.969-1.354-4.096-1.34z"/><path d="M11.436 15.16c-.011 0-.023 0-.034-.002a.359.359 0 0 1-.324-.374c.02-.422.057-.822.106-1.201.149-2.537.072-8.446-3.663-10.08a.359.359 0 1 1 .287-.657c2.201.963 3.586 3.36 4.004 6.934.038.32.066.636.087.944.983-2.487 2.489-3.365 2.578-3.415a.359.359 0 0 1 .352.624c-.037.022-2.345 1.407-2.925 5.679a17.41 17.41 0 0 1-.113 1.239.358.358 0 0 1-.355.31z"/></g><defs><clipPath id="clip0"><path fill="#fff" d="M0 0h22v22H0z"/></clipPath></defs></svg>