<svg width="24" height="24" fill="none" xmlns="http://www.w3.org/2000/svg"><g clip-path="url(#clip0)" fill="#96C93D"><path d="M22.151 15.077a.598.598 0 0 0-.598.597v5.308a1.795 1.795 0 0 1-1.793 1.793H2.99a1.797 1.797 0 0 1-1.794-1.793V5.405A1.795 1.795 0 0 1 2.99 3.612h5.307a.598.598 0 1 0 0-1.195H2.989A2.992 2.992 0 0 0 0 5.405v15.577a2.992 2.992 0 0 0 2.989 2.988H19.76a2.992 2.992 0 0 0 2.989-2.988v-5.308a.598.598 0 0 0-.598-.597z"/><path d="M22.512.879a2.69 2.69 0 0 0-3.804 0L8.044 11.543a.597.597 0 0 0-.153.263l-1.402 5.062a.598.598 0 0 0 .735.736l5.063-1.402a.59.59 0 0 0 .263-.154L23.213 5.384a2.693 2.693 0 0 0 0-3.804l-.7-.701zM9.347 11.93l8.727-8.728 2.815 2.815-8.728 8.728-2.814-2.815zm-.563 1.128l2.25 2.25-3.111.861.861-3.11zm13.584-8.52l-.634.634-2.815-2.815.635-.634a1.494 1.494 0 0 1 2.113 0l.701.701c.583.585.583 1.53 0 2.114z"/></g><defs><clipPath id="clip0"><path fill="#fff" d="M0 0h24v24H0z"/></clipPath></defs></svg>