<svg width="17" height="20" fill="none" xmlns="http://www.w3.org/2000/svg"><path d="M10.382 19.216H1.694c-.454 0-.866-.377-.866-.808V1.538c0-.429.412-.754.866-.754h8.688a.42.42 0 0 0 .292-.114.382.382 0 0 0 .121-.278.382.382 0 0 0-.12-.277.425.425 0 0 0-.293-.115H1.694C.783 0 0 .675 0 1.539v16.87C0 19.271.783 20 1.694 20h8.688a.42.42 0 0 0 .292-.115.382.382 0 0 0 .121-.277.382.382 0 0 0-.12-.277.425.425 0 0 0-.293-.115z" fill="#96C93D"/><path d="M16.894 9.515l-3.722-3.922a.412.412 0 0 0-.286-.13.433.433 0 0 0-.299.101.396.396 0 0 0-.03.567l3.1 3.282h-9.41a.425.425 0 0 0-.293.115.382.382 0 0 0-.121.277c0 .104.044.204.121.277a.425.425 0 0 0 .293.115h9.34l-3.015 2.846a.383.383 0 0 0-.121.273.365.365 0 0 0 .12.274.414.414 0 0 0 .293.112.432.432 0 0 0 .292-.118l3.723-3.53a.384.384 0 0 0 .12-.267.382.382 0 0 0-.105-.272z" fill="#96C93D"/></svg>