<svg width="22" height="22" fill="none" xmlns="http://www.w3.org/2000/svg"><path d="M21.963 6.872C21.643 3.337 19.142.773 16.01.773c-2.086 0-3.996 1.122-5.07 2.922C9.873 1.872 8.042.773 5.99.773 2.86.773.357 3.337.037 6.872c-.026.156-.13.977.187 2.317.456 1.933 1.51 3.691 3.046 5.083l7.664 6.955 7.796-6.954c1.537-1.393 2.59-3.15 3.046-5.084.317-1.34.212-2.16.188-2.317zm-1.01 2.124c-.417 1.765-1.382 3.373-2.789 4.647L10.94 20.09l-7.1-6.444c-1.41-1.277-2.375-2.885-2.791-4.65C.748 7.727.87 7.011.87 7.006l.007-.043C1.153 3.867 3.303 1.62 5.99 1.62c1.983 0 3.729 1.218 4.557 3.18l.39.923.39-.924c.815-1.93 2.653-3.179 4.683-3.179 2.687 0 4.837 2.248 5.118 5.385 0 .007.124.724-.176 1.992z" fill="#534746"/></svg>