<svg width="84" height="11" fill="none" xmlns="http://www.w3.org/2000/svg"><path d="M69 6.519l-2.438-2.445V.407h-1.624v2.037L62.5 0 56 6.519v.407h1.625V11h4.063V8.556h1.624V11h4.063V6.926H69v-.407zM15.341 3.391c.18.12.707.491 1.605 1.114.886.623 1.569 1.09 2.048 1.426.048.036.168.12.335.24.168.12.312.216.42.3.107.072.25.155.407.251.155.096.311.168.443.216.143.048.275.072.395.072h.012c.12 0 .252-.024.395-.072.144-.048.288-.12.443-.216.156-.096.3-.18.407-.251.108-.072.252-.18.42-.3.167-.12.275-.204.335-.24.48-.335 1.7-1.174 3.653-2.54a3.62 3.62 0 0 0 .946-.958c.251-.372.383-.767.383-1.175a1.2 1.2 0 0 0-.371-.887c-.252-.24-.54-.371-.875-.371H15.245c-.395 0-.706.132-.922.407-.215.264-.323.611-.323 1.019 0 .324.144.683.431 1.066.288.384.587.683.91.9z" fill="#96C93D"/><path d="M27.21 4.23a161.99 161.99 0 0 0-3.893 2.684c-.299.216-.538.395-.718.515-.18.12-.431.252-.743.372a2.211 2.211 0 0 1-.862.191h-.012c-.264 0-.55-.06-.862-.191-.3-.12-.551-.252-.73-.372a10.27 10.27 0 0 1-.72-.515c-.706-.515-2-1.414-3.88-2.696a3.98 3.98 0 0 1-.79-.683v6.207c0 .347.12.635.371.886.24.24.54.372.886.372h11.486c.347 0 .634-.12.886-.371.24-.24.371-.54.371-.887V3.547c-.24.252-.491.48-.79.683zm26.547 4.475L52.06 6.999c-.34-.341-.898-.317-1.238.024l-.849.853c-.048-.024-.121-.073-.17-.097-.533-.293-1.286-.707-2.062-1.487-.776-.78-1.189-1.536-1.48-2.072-.024-.049-.073-.122-.097-.17l.582-.585.291-.293c.34-.341.364-.926.025-1.243l-1.7-1.706c-.364-.317-.922-.292-1.286.049l-.485.487.024.025a2.38 2.38 0 0 0-.388.682 2.82 2.82 0 0 0-.194.707c-.218 1.877.63 3.583 2.936 5.874 3.178 3.192 5.75 2.949 5.871 2.949.243-.025.461-.098.704-.17.243-.098.485-.245.704-.39l.485-.488c.34-.341.364-.902.024-1.243z" fill="#96C93D"/><path d="M36.333 0h-7.666A.677.677 0 0 0 28 .688v5.156c0 .38.298.688.667.688h.667v1.375L32 6.532h4.333A.677.677 0 0 0 37 5.844V.688A.68.68 0 0 0 36.333 0z" fill="#96C93D"/><path d="M41.33 3.093h-3.332V5.84c0 .947-.747 1.72-1.668 1.72H33v1.376c0 .38.298.687.667.687H38L40.666 11V9.624h.667A.677.677 0 0 0 42 8.937V3.78a.681.681 0 0 0-.67-.687zM70.154.148A.508.508 0 0 1 70.518 0h8.296a.51.51 0 0 1 .365.148.472.472 0 0 1 .154.352V2h1.297c.145 0 .303.034.474.102.17.067.306.15.409.25l1.604 1.546c.07.068.13.146.182.235.051.088.09.168.114.238.024.07.042.167.052.29a3.512 3.512 0 0 1 .02.566l-.004.273V8c.141 0 .262.05.365.149A.472.472 0 0 1 84 8.5a.59.59 0 0 1-.033.207.296.296 0 0 1-.109.145 2.882 2.882 0 0 1-.133.09.464.464 0 0 1-.19.046l-.183.016a2.718 2.718 0 0 1-.207 0A13.54 13.54 0 0 0 82.963 9h-.519a1.89 1.89 0 0 1-.608 1.414c-.404.39-.893.586-1.466.586a2.036 2.036 0 0 1-1.466-.586A1.893 1.893 0 0 1 78.296 9h-3.111c0 .552-.203 1.023-.608 1.414-.404.39-.893.586-1.466.586a2.037 2.037 0 0 1-1.467-.586A1.893 1.893 0 0 1 71.037 9l-.182.004a2.686 2.686 0 0 1-.206 0 29.981 29.981 0 0 1-.183-.016.464.464 0 0 1-.19-.047 2.867 2.867 0 0 1-.134-.09.295.295 0 0 1-.11-.144A.59.59 0 0 1 70 8.5v-8c0-.135.051-.252.154-.352zm9.487 9.555c.206.198.448.297.73.297.28 0 .524-.099.728-.297A.944.944 0 0 0 81.407 9a.945.945 0 0 0-.308-.703A1.014 1.014 0 0 0 80.37 8c-.28 0-.523.1-.729.297a.945.945 0 0 0-.308.703c0 .271.103.505.308.703zM79.333 5h3.111v-.234a.23.23 0 0 0-.073-.172L80.792 3.07a.247.247 0 0 0-.178-.07h-1.28v2zm-6.951 4.703c.205.198.448.297.729.297.28 0 .524-.099.73-.297A.944.944 0 0 0 74.149 9a.945.945 0 0 0-.308-.703A1.018 1.018 0 0 0 73.11 8c-.281 0-.524.1-.73.297a.945.945 0 0 0-.307.703c0 .271.103.505.308.703zM7.504 5.38c1.314 0 2.383-1.205 2.383-2.69 0-1.484-.35-2.69-2.383-2.69-2.032.004-2.383 1.21-2.383 2.694S6.191 5.38 7.504 5.38zm4.492 3.998c-.043-2.588-.406-3.322-3.19-3.79 0 0-.393.464-1.306.464s-1.306-.464-1.306-.464c-2.75.464-3.135 1.186-3.186 3.708-.004.204-.004.216-.008.192v.271S3.663 11 7.5 11c3.837 0 4.5-1.241 4.5-1.241v-.2l-.004-.18z" fill="#96C93D"/></svg>