<svg width="32" height="32" fill="none" xmlns="http://www.w3.org/2000/svg"><g clip-path="url(#clip0)" fill="#96C93D"><path d="M21.569 9.65l-8.093-2.79a3.134 3.134 0 0 0-2.36.144l-.406.197a2.29 2.29 0 0 1-1.776.098l-.694-.25c-.033-.019-.066-.038-.099-.052L4 5.587a.4.4 0 0 0-.302.02.388.388 0 0 0-.196.223L.022 15.98a.393.393 0 0 0 .242.499L4.413 17.9c.045.02.085.026.13.026a.388.388 0 0 0 .367-.262L8.26 7.9l.419.15a3.11 3.11 0 0 0 2.385-.137l.406-.197a2.302 2.302 0 0 1 1.756-.111l7.792 2.687c-.059.34-.223.904-.649 1.199-.38.262-.93.275-1.625.033l-3.4-1.16a.405.405 0 0 0-.315.026.416.416 0 0 0-.197.249c-.007.02-.511 1.88-2.084 2.72-.996.537-2.228.556-3.663.065a.393.393 0 0 0-.256.74c.767.263 1.494.394 2.17.394.773 0 1.48-.17 2.123-.518 1.402-.754 2.077-2.13 2.333-2.811l3.02 1.035c.95.328 1.73.282 2.333-.131.97-.668 1.016-2.045 1.023-2.104a.39.39 0 0 0-.262-.38zM4.3 17.03L.894 15.862l3.224-9.404 3.316 1.134.078.04.013.006-3.224 9.39z"/><path d="M31.962 15.463L27.231 5.85a.388.388 0 0 0-.525-.177l-3.938 1.926a.395.395 0 0 0-.183.525l4.587 9.37-1.54 1.41a18.431 18.431 0 0 1-4.371 2.981l-7.543 3.69a.847.847 0 0 1-.668.039.89.89 0 0 1-.505-.446.847.847 0 0 1-.04-.668.89.89 0 0 1 .446-.505l4.214-2.064a.395.395 0 0 0 .184-.524.397.397 0 0 0-.525-.184l-4.122 2.019-2.077 1.015a.88.88 0 0 1-1.173-.4.882.882 0 0 1 .4-1.172l6.055-2.962a.395.395 0 0 0 .183-.525.397.397 0 0 0-.524-.183l-4.482 2.195-1.573.767-.74.36a.88.88 0 0 1-1.173-.4.88.88 0 0 1 .4-1.172l.746-.367 5.42-2.654a.395.395 0 0 0 .183-.525.397.397 0 0 0-.524-.183l-3.48 1.704-1.94.95a.847.847 0 0 1-.668.04.89.89 0 0 1-.504-.447.847.847 0 0 1-.04-.668.89.89 0 0 1 .446-.505l2.877-1.408a.395.395 0 0 0 .183-.525.397.397 0 0 0-.524-.183l-2.877 1.409a1.666 1.666 0 0 0-.767 2.228c.151.314.4.563.702.727a1.66 1.66 0 0 0 1.166 2.844c.072 0 .144-.006.216-.013a1.659 1.659 0 0 0 2.366 1.763l.714-.354c-.032.308.02.616.164.898a1.666 1.666 0 0 0 2.228.767l7.543-3.69a19.147 19.147 0 0 0 4.554-3.113l1.71-1.572 3.887-1.9a.395.395 0 0 0 .183-.525zm-4.128 1.599L23.463 8.13 26.7 6.55l4.364 8.933-3.23 1.579z"/></g><defs><clipPath id="clip0"><path fill="#fff" d="M0 0h32v32H0z"/></clipPath></defs></svg>