<svg width="32" height="32" fill="none" xmlns="http://www.w3.org/2000/svg"><path d="M31.337 17.66l-2.9-5.707c-.26-.513-.76-.832-1.302-.832H4.865c-.542 0-1.041.319-1.302.832l-2.9 5.707a.985.985 0 0 0 .038.956.871.871 0 0 0 .743.426h2.361v11.48c0 .815.614 1.478 1.368 1.478h21.654c.755 0 1.369-.663 1.369-1.478v-4.928a.469.469 0 1 0-.938 0v4.928c0 .293-.197.54-.43.54h-10.36V13.547l2.445 4.812a1.21 1.21 0 0 0 1.072.683h7.272v4.364a.469.469 0 1 0 .938 0v-4.364h2.36c.302 0 .58-.16.744-.426a.986.986 0 0 0 .037-.956zm-29.842.444c0-.006 0-.012.004-.019l2.9-5.707c.1-.197.279-.32.466-.32h10.371l-2.985 5.876c-.054.105-.144.17-.237.17H1.494zM15.53 31.062H5.173c-.233 0-.43-.247-.43-.54v-11.48h7.271a1.21 1.21 0 0 0 1.072-.683l2.445-4.812v17.515zm4.455-12.958c-.092 0-.183-.065-.236-.17l-2.986-5.876h10.371c.188 0 .366.123.467.32l2.9 5.707a.042.042 0 0 1 .004.02h-10.52zM16 1.458a3.085 3.085 0 0 0-4.801-.546 3.065 3.065 0 0 0-.904 2.183c.003 2.38 1.597 4.685 4.373 6.322a.466.466 0 0 0 .642-.165.469.469 0 0 0-.165-.642c-1.175-.693-3.91-2.618-3.912-5.516A2.149 2.149 0 0 1 13.668.963c1.16.156 1.563 1.068 1.652 1.162.414.432.979.433 1.369-.013.104-.12.606-1.173 1.929-1.175 1.184 0 2.148.963 2.15 2.147.002 2.76-2.452 4.646-3.915 5.524a.469.469 0 0 0 .482.804c2.82-1.694 4.373-3.941 4.37-6.329C21.702.066 17.735-1.219 16 1.458z" fill="#E5E5E5"/></svg>