<svg width="22" height="22" fill="none" xmlns="http://www.w3.org/2000/svg"><path d="M14.269 0H2.384v22h17.233V5.348L14.27 0zm.215 1.252l3.881 3.881h-3.881V1.252zM3.117 21.267V.733h10.634v5.134h5.133v15.4H3.117z" fill="#96C93D"/><path d="M15.584 7.7H9.717a.367.367 0 1 0 0 .733h5.867a.367.367 0 1 0 0-.733zM8.388 6.68L6.81 7.942l-.501-.501a.366.366 0 1 0-.519.518l.733.734a.366.366 0 0 0 .488.027l1.834-1.467a.367.367 0 0 0-.458-.573zm7.196 5.053H9.717a.367.367 0 1 0 0 .734h5.867a.367.367 0 1 0 0-.734zm-7.196-1.019L6.81 11.975l-.501-.5a.366.366 0 1 0-.519.518l.733.733a.366.366 0 0 0 .488.027l1.834-1.467a.367.367 0 0 0-.458-.572zm7.196 5.053H9.717a.367.367 0 1 0 0 .733h5.867a.367.367 0 1 0 0-.733zm-7.196-1.02L6.81 16.009l-.501-.502a.366.366 0 1 0-.519.519l.733.733a.366.366 0 0 0 .488.027l1.834-1.466a.367.367 0 0 0-.458-.573z" fill="#96C93D"/></svg>