<svg width="27" height="23" fill="none" xmlns="http://www.w3.org/2000/svg"><path d="M26.477 3.306c-1.81-.8-3.523-1.8-5.108-2.982a.347.347 0 0 0-.417 0 26.392 26.392 0 0 1-5.108 2.982.883.883 0 0 0-.523.807v2.459H2.66A2.663 2.663 0 0 0 .022 8.898a.347.347 0 0 0-.017.177A2.764 2.764 0 0 0 0 9.231v10.837c0 .624.22 1.228.622 1.706.026.054.068.1.119.133a2.65 2.65 0 0 0 1.919.82h16.188a2.65 2.65 0 0 0 1.917-.819.325.325 0 0 0 .12-.133 2.646 2.646 0 0 0 .622-1.707v-6.562a10.812 10.812 0 0 0 2.552-1.32C25.983 10.827 27 9.02 27 6.964v-2.85a.883.883 0 0 0-.523-.807zM2.66 7.266h12.67c.078 1.65.802 3.129 2.115 4.33l-5.567 4.831a1.729 1.729 0 0 1-2.242.001L.726 8.884A1.969 1.969 0 0 1 2.66 7.266zm18.154 12.802c0 .355-.096.704-.28 1.008l-4.917-5.003a.347.347 0 1 0-.495.487l4.955 5.04a1.957 1.957 0 0 1-1.229.434H2.66c-.449 0-.883-.154-1.232-.435l4.928-5.04a.347.347 0 0 0-.496-.485l-4.889 5a1.954 1.954 0 0 1-.277-1.006V9.766l8.493 7.192c.907.771 2.239.77 3.143-.004l5.653-4.905a10.242 10.242 0 0 0 2.83 1.52v6.499zm5.492-13.105c0 1.4-.512 2.639-1.524 3.698v-.02a.347.347 0 0 0-.694 0v.336c0 .09.035.175.097.24a9.237 9.237 0 0 1-.51.392c-.783.547-1.638.982-2.542 1.291a.344.344 0 0 0-.081.016 9.654 9.654 0 0 1-2.497-1.305 8.025 8.025 0 0 1-.456-.36.346.346 0 0 0 .134-.274v-.336a.347.347 0 0 0-.694 0v.079c-1.012-1.071-1.524-2.33-1.524-3.757v-2.85a.19.19 0 0 1 .111-.174 27.183 27.183 0 0 0 5.035-2.905 27.181 27.181 0 0 0 5.034 2.905.19.19 0 0 1 .111.174v2.85z" fill="#534746"/></svg>