<svg width="26" height="24" fill="none" xmlns="http://www.w3.org/2000/svg"><g clip-path="url(#clip0)" fill="#534746"><path d="M23.23 17.241l-5.386 1.904a.524.524 0 0 0-.302.256.48.48 0 0 0 .09.553.517.517 0 0 0 .368.157.539.539 0 0 0 .203-.036l5.386-1.903a.523.523 0 0 0 .291-.258.479.479 0 0 0-.09-.544.519.519 0 0 0-.36-.159.539.539 0 0 0-.2.03zm-6.866 2.427l-.228.08a.524.524 0 0 0-.3.257.48.48 0 0 0 .09.551.517.517 0 0 0 .367.157.539.539 0 0 0 .202-.034l.228-.08a.51.51 0 0 0 .29-.258.477.477 0 0 0 .016-.38.505.505 0 0 0-.269-.278.54.54 0 0 0-.396-.015zm6.866-4.449l-4.256 1.507a.524.524 0 0 0-.302.256.48.48 0 0 0 .09.554.519.519 0 0 0 .368.156.539.539 0 0 0 .203-.036l4.256-1.504a.511.511 0 0 0 .292-.258.478.478 0 0 0 .016-.38.506.506 0 0 0-.27-.28.541.541 0 0 0-.396-.015zm.001-1.999l-4.257 1.505a.513.513 0 0 0-.27.219.478.478 0 0 0 .117.626.532.532 0 0 0 .512.085l4.257-1.503a.521.521 0 0 0 .29-.258.48.48 0 0 0-.09-.544.517.517 0 0 0-.36-.16.54.54 0 0 0-.199.03z"/><path d="M25.661 4.44L13.18.03a.54.54 0 0 0-.358 0L.339 4.44a.516.516 0 0 0-.246.182.481.481 0 0 0-.093.284v14.188c0 .101.032.2.093.283.06.084.146.147.246.182l12.482 4.412a.536.536 0 0 0 .358 0l12.482-4.41a.516.516 0 0 0 .246-.183.481.481 0 0 0 .093-.284V4.906a.48.48 0 0 0-.093-.284.515.515 0 0 0-.246-.182zM4.402 6.807l4.558 1.61v5.297l-4.558-1.61V6.807zm5.078.732L5.383 6.091l4.095-1.448 4.097 1.448L9.48 7.54zM13 1.024l10.986 3.882L13 8.786l-2.031-.715 4.282-1.513a.515.515 0 0 0 .246-.182.481.481 0 0 0 0-.567.515.515 0 0 0-.246-.181L9.658 3.649a.541.541 0 0 0-.36 0l-5.42 1.916-1.864-.66L13 1.026zM1.036 5.617l2.33.824v6.006c0 .102.033.202.094.285a.517.517 0 0 0 .247.182l5.594 1.977a.539.539 0 0 0 .475-.058.504.504 0 0 0 .163-.178.479.479 0 0 0 .059-.23v-5.64l2.488.878v13.129l-11.45-4.044V5.617zm12.482 17.175V9.66l11.446-4.044v13.131l-11.446 4.044z"/></g><defs><clipPath id="clip0"><path fill="#fff" d="M0 0h26v24H0z"/></clipPath></defs></svg>