<svg width="15" height="23" fill="none" xmlns="http://www.w3.org/2000/svg"><path d="M6.812 4.86h0l-.624-.16v5.08h5.118v2.65H6.173v3.294c.075 2.529.67 3.66 1.336 4.255.233.207.505.361.646.441-.167.396-.604.898-1.246 1.322-.682.45-1.509.757-2.291.757-1.116 0-2.13-.36-2.867-1.126C1.015 20.61.5 19.382.5 17.54V.503h13.882a4.555 4.555 0 0 1 .086 1.568c-.12.953-.607 2.07-2.175 2.75-1.013.435-2.36.46-3.507.357a14.815 14.815 0 0 1-1.94-.31l-.027-.006-.006-.002h-.001zm1.454 15.63a.02.02 0 0 1 0 0z" stroke="#534746"/></svg>