<svg width="22" height="22" fill="none" xmlns="http://www.w3.org/2000/svg"><path d="M18.78 3.223a10.782 10.782 0 0 0-2.803-2.036.448.448 0 1 0-.4.801 9.888 9.888 0 0 1 2.57 1.868c3.94 3.94 3.94 10.353 0 14.293-3.941 3.941-10.353 3.941-14.294 0-3.94-3.94-3.94-10.352 0-14.293A10.04 10.04 0 0 1 11 .896.448.448 0 0 0 11 0a10.93 10.93 0 0 0-7.78 3.223c-4.29 4.29-4.29 11.27 0 15.56A10.969 10.969 0 0 0 11 22c2.817 0 5.635-1.073 7.78-3.217 4.29-4.29 4.29-11.27 0-15.56z" fill="#534746"/><path d="M11 3.88c-.247 0-.448.2-.448.448v13.349a.448.448 0 0 0 .896 0V4.328c0-.247-.2-.448-.448-.448zm1.791 7.57h4.883a.448.448 0 0 0 0-.895h-4.883a.448.448 0 0 0 0 .895zm-8.466-.895a.448.448 0 0 0 0 .895H9.06a.448.448 0 0 0 0-.895H4.325z" fill="#534746"/></svg>