<svg width="24" height="28" viewBox="0 0 24 28" fill="none" xmlns="http://www.w3.org/2000/svg">
<g clip-path="url(#clip0)">
<path d="M11.9 15.09H12.09C12.8618 15.1059 13.628 14.9561 14.337 14.6508C15.046 14.3454 15.6812 13.8916 16.2 13.32C18.45 10.8 18.08 6.48999 18 6.07999C17.89 2.99999 16.42 1.50999 15.21 0.81999C14.2465 0.283923 13.1625 0.00174253 12.06 -9.88215e-06H12C10.89 -0.0121101 9.7953 0.259837 8.81999 0.78999C7.58999 1.47999 6.09999 2.99999 5.99999 6.07999C5.99999 6.48999 5.58999 10.8 7.82999 13.32C8.34508 13.8855 8.97404 14.3356 9.67552 14.6407C10.377 14.9457 11.1351 15.0989 11.9 15.09V15.09ZM7.50999 6.21999C7.70999 1.99999 10.68 1.56999 12 1.56999C13.57 1.56999 16.26 2.23999 16.44 6.17999C16.44 6.17999 16.86 10.18 15 12.24C14.62 12.6521 14.1548 12.9765 13.6367 13.1907C13.1186 13.4048 12.5601 13.5035 12 13.48V13.48C11.4397 13.5049 10.8808 13.4068 10.3625 13.1926C9.84423 12.9784 9.37916 12.6532 8.99999 12.24C7.10999 10.22 7.49999 6.25999 7.50999 6.21999Z" fill="#2C77BB"/>
<path d="M24 22.24C24 22.24 24 22.15 24 22.1C24 20.95 23.89 18.27 21.36 17.41H21.3C19.5774 16.9418 17.9403 16.2026 16.45 15.22C16.278 15.1021 16.0668 15.0559 15.8614 15.0914C15.6559 15.1269 15.4724 15.2412 15.35 15.41C15.2906 15.4939 15.2484 15.5888 15.2258 15.6891C15.2032 15.7894 15.2006 15.8932 15.2183 15.9945C15.2359 16.0958 15.2735 16.1926 15.3287 16.2794C15.3839 16.3661 15.4557 16.4411 15.54 16.5C17.1779 17.5893 18.9812 18.4065 20.88 18.92C22.24 19.4 22.39 20.84 22.43 22.17C22.425 22.2165 22.425 22.2635 22.43 22.31C22.4387 22.9093 22.3952 23.5082 22.3 24.1C19.1149 25.7251 15.5746 26.5295 12 26.44C8.42326 26.505 4.88564 25.6875 1.7 24.06C1.60021 23.4688 1.55668 22.8694 1.57 22.27C1.57 22.22 1.57 22.17 1.57 22.12C1.57 20.8 1.76 19.35 3.12 18.87C5.01585 18.353 6.81808 17.5396 8.46 16.46C8.62166 16.3357 8.72901 16.1537 8.75958 15.9521C8.79016 15.7505 8.7416 15.5449 8.62406 15.3783C8.50652 15.2117 8.3291 15.0969 8.12892 15.0581C7.92874 15.0193 7.7213 15.0594 7.55 15.17C6.06269 16.1603 4.42483 16.9033 2.7 17.37H2.65C0.119995 18.25 -4.71389e-06 20.93 -4.71389e-06 22.07C0.00529179 22.1199 0.00529179 22.1701 -4.71389e-06 22.22V22.22C-0.0291903 23.1033 0.0718946 23.9861 0.299995 24.84C0.358968 24.9916 0.463861 25.121 0.599995 25.21C4.0836 27.1389 8.0193 28.1021 12 28C15.9794 28.1131 19.9162 27.1565 23.4 25.23C23.539 25.1415 23.6472 25.0123 23.71 24.86C23.9272 24.0042 24.0248 23.1225 24 22.24V22.24Z" fill="#2C77BB"/>
</g>
<defs>
<clipPath id="clip0">
<rect width="24" height="28" fill="white"/>
</clipPath>
</defs>
</svg>
