<svg width="31" height="27" viewBox="0 0 31 27" fill="none" xmlns="http://www.w3.org/2000/svg">
<g clip-path="url(#clip0)">
<path d="M15.5 26.76C15.0607 26.7588 14.6359 26.6031 14.3 26.32C13.05 25.24 11.84 24.24 10.78 23.32C8.02723 21.1744 5.4522 18.8101 3.08 16.25C1.18322 14.2549 0.0868969 11.6315 -1.8063e-06 8.88C-0.0414908 6.48443 0.839214 4.16453 2.46 2.4C3.25632 1.55723 4.21794 0.887801 5.28474 0.433553C6.35153 -0.0206947 7.50056 -0.24999 8.66 -0.239998C10.4207 -0.251326 12.1348 0.325892 13.53 1.4C14.2881 1.96854 14.9615 2.64195 15.53 3.4C16.0985 2.64195 16.7719 1.96854 17.53 1.4C18.9089 0.338486 20.5998 -0.238022 22.34 -0.239998C23.4994 -0.24999 24.6485 -0.0206947 25.7153 0.433553C26.7821 0.887801 27.7437 1.55723 28.54 2.4C30.1608 4.16453 31.0415 6.48443 31 8.88C30.9207 11.6371 29.8277 14.2683 27.93 16.27C25.5578 18.8301 22.9828 21.1944 20.23 23.34C19.16 24.23 17.95 25.24 16.7 26.34C16.3613 26.6159 15.9368 26.7644 15.5 26.76V26.76ZM8.66 1.54C7.74936 1.53038 6.84658 1.70932 6.00846 2.06556C5.17034 2.42181 4.41501 2.94765 3.79 3.61C2.47422 5.04645 1.75854 6.93227 1.79 8.88C1.85858 11.2248 2.8042 13.4586 4.44 15.14C6.77314 17.6245 9.30119 19.9185 12 22V22C13.07 22.89 14.29 23.9 15.55 25C16.82 23.92 18.03 22.9 19.1 22C21.7708 19.9183 24.272 17.6278 26.58 15.15C28.2117 13.4659 29.1566 11.2338 29.23 8.89C29.2615 6.94227 28.5458 5.05645 27.23 3.62C26.605 2.95765 25.8497 2.43181 25.0115 2.07556C24.1734 1.71932 23.2706 1.54038 22.36 1.55C20.9999 1.54085 19.676 1.98802 18.6 2.82C17.7612 3.47522 17.0495 4.27846 16.5 5.19C16.3987 5.36363 16.2522 5.5065 16.0761 5.60337C15.9 5.70023 15.7009 5.74746 15.5 5.74C15.2997 5.74429 15.1018 5.69571 14.9262 5.59915C14.7507 5.50259 14.6036 5.36147 14.5 5.19C13.9576 4.27631 13.2487 3.47243 12.41 2.82C11.338 1.98656 10.0179 1.53595 8.66 1.54V1.54Z" fill="#2C77BB"/>
</g>
<defs>
<clipPath id="clip0">
<rect width="31" height="27" fill="white"/>
</clipPath>
</defs>
</svg>
