<svg width="20" height="33" viewBox="0 0 20 33" fill="none" xmlns="http://www.w3.org/2000/svg">
<g clip-path="url(#clip0)">
<path d="M10 27C9.63894 27.0039 9.28712 27.1146 8.98882 27.3181C8.69052 27.5216 8.45908 27.8087 8.32363 28.1434C8.18818 28.4782 8.15478 28.8455 8.22764 29.1991C8.30049 29.5528 8.47634 29.877 8.73305 30.1309C8.98976 30.3848 9.31585 30.5572 9.67028 30.6262C10.0247 30.6952 10.3916 30.6578 10.7249 30.5187C11.0581 30.3796 11.3427 30.1451 11.5429 29.8446C11.7431 29.5441 11.85 29.1911 11.85 28.83C11.8487 28.5884 11.7998 28.3494 11.7061 28.1266C11.6124 27.9039 11.4758 27.7018 11.304 27.5318C11.1322 27.3619 10.9286 27.2275 10.7049 27.1362C10.4812 27.045 10.2416 26.9987 10 27V27ZM10 29.39C9.88969 29.388 9.78242 29.3535 9.69166 29.2908C9.60089 29.2281 9.53067 29.1399 9.48981 29.0375C9.44896 28.935 9.43929 28.8227 9.46201 28.7147C9.48473 28.6068 9.53884 28.5079 9.61754 28.4306C9.69624 28.3533 9.79603 28.3009 9.90438 28.2801C10.0127 28.2593 10.1248 28.271 10.2266 28.3136C10.3283 28.3563 10.4152 28.4281 10.4763 28.5199C10.5374 28.6118 10.57 28.7197 10.57 28.83C10.5551 28.9705 10.4886 29.1006 10.3832 29.1948C10.2779 29.289 10.1413 29.3408 10 29.34V29.39Z" fill="#2C77BB"/>
<path d="M13 2.61H9.74999C9.57229 2.61 9.40187 2.68059 9.27623 2.80624C9.15058 2.93189 9.07999 3.10231 9.07999 3.28C9.07998 3.36752 9.09737 3.45417 9.13117 3.5349C9.16496 3.61564 9.21447 3.68884 9.27682 3.75026C9.33917 3.81168 9.41311 3.86009 9.49434 3.89266C9.57558 3.92523 9.66248 3.94133 9.74999 3.94H13C13.0875 3.94133 13.1744 3.92523 13.2556 3.89266C13.3369 3.86009 13.4108 3.81168 13.4732 3.75026C13.5355 3.68884 13.585 3.61564 13.6188 3.5349C13.6526 3.45417 13.67 3.36752 13.67 3.28C13.67 3.10231 13.5994 2.93189 13.4737 2.80624C13.3481 2.68059 13.1777 2.61 13 2.61V2.61Z" fill="#2C77BB"/>
<path d="M7.68 3.99C8.07212 3.99 8.39 3.6766 8.39 3.29C8.39 2.9034 8.07212 2.59 7.68 2.59C7.28788 2.59 6.97 2.9034 6.97 3.29C6.97 3.6766 7.28788 3.99 7.68 3.99Z" fill="#2C77BB"/>
<path d="M17.87 2.07264e-09H2.13C1.56854 -2.47494e-05 1.02977 0.221638 0.63089 0.616775C0.232007 1.01191 0.00527195 1.54856 0 2.11L0 30.89C0.00527195 31.4514 0.232007 31.9881 0.63089 32.3832C1.02977 32.7784 1.56854 33 2.13 33H17.87C18.4315 33 18.9702 32.7784 19.3691 32.3832C19.768 31.9881 19.9947 31.4514 20 30.89V2.11C19.9947 1.54856 19.768 1.01191 19.3691 0.616775C18.9702 0.221638 18.4315 -2.47494e-05 17.87 2.07264e-09V2.07264e-09ZM18.58 30.89C18.5774 31.0766 18.5014 31.2546 18.3685 31.3856C18.2357 31.5166 18.0566 31.59 17.87 31.59H2.13C1.94342 31.59 1.76432 31.5166 1.63146 31.3856C1.49859 31.2546 1.42263 31.0766 1.42 30.89V2.11C1.41999 2.01723 1.43842 1.92538 1.47422 1.83979C1.51003 1.75421 1.56248 1.67659 1.62855 1.61146C1.69461 1.54632 1.77296 1.49497 1.85905 1.46039C1.94514 1.4258 2.03724 1.40867 2.13 1.41H17.87C17.9628 1.40867 18.0549 1.4258 18.141 1.46039C18.227 1.49497 18.3054 1.54632 18.3715 1.61146C18.4375 1.67659 18.49 1.75421 18.5258 1.83979C18.5616 1.92538 18.58 2.01723 18.58 2.11V30.89Z" fill="#2C77BB"/>
<path d="M11.2 13.23C11.067 13.0981 10.8873 13.0241 10.7 13.0241C10.5127 13.0241 10.333 13.0981 10.2 13.23L6.77999 16.61C6.71347 16.6752 6.66062 16.753 6.62454 16.8388C6.58847 16.9247 6.56989 17.0169 6.56989 17.11C6.56989 17.2031 6.58847 17.2953 6.62454 17.3812C6.66062 17.467 6.71347 17.5448 6.77999 17.61C6.91562 17.7371 7.09412 17.8085 7.27999 17.81C7.46894 17.809 7.65076 17.7377 7.78999 17.61L11.2 14.22C11.3289 14.0875 11.401 13.9099 11.401 13.725C11.401 13.5401 11.3289 13.3625 11.2 13.23V13.23Z" fill="#2C77BB"/>
<path d="M13.22 15.19C13.087 15.0581 12.9073 14.9841 12.72 14.9841C12.5327 14.9841 12.353 15.0581 12.22 15.19L10.86 16.53C10.7281 16.663 10.6541 16.8427 10.6541 17.03C10.6541 17.2173 10.7281 17.397 10.86 17.53C10.9248 17.597 11.0026 17.6501 11.0885 17.6862C11.1744 17.7223 11.2668 17.7406 11.36 17.74C11.4531 17.74 11.5453 17.7214 11.6312 17.6854C11.717 17.6493 11.7948 17.5965 11.86 17.53L13.22 16.18C13.2862 16.1157 13.3389 16.0387 13.3748 15.9537C13.4108 15.8687 13.4293 15.7773 13.4293 15.685C13.4293 15.5927 13.4108 15.5013 13.3748 15.4163C13.3389 15.3313 13.2862 15.2543 13.22 15.19V15.19Z" fill="#2C77BB"/>
<path d="M16.46 5.21001H3.53999C3.37026 5.21001 3.20747 5.27744 3.08745 5.39746C2.96742 5.51748 2.89999 5.68027 2.89999 5.85001V25.27C2.90262 25.438 2.9712 25.5982 3.09094 25.7161C3.21068 25.834 3.37197 25.9 3.53999 25.9H16.46C16.628 25.9 16.7893 25.834 16.909 25.7161C17.0288 25.5982 17.0974 25.438 17.1 25.27V5.85001C17.1 5.68027 17.0326 5.51748 16.9125 5.39746C16.7925 5.27744 16.6297 5.21001 16.46 5.21001ZM15.82 24.63H4.17999V6.48001H15.82V24.63Z" fill="#2C77BB"/>
</g>
<defs>
<clipPath id="clip0">
<rect width="20" height="33" fill="white"/>
</clipPath>
</defs>
</svg>
