<svg width="30" height="27" viewBox="0 0 30 27" fill="none" xmlns="http://www.w3.org/2000/svg">
<g clip-path="url(#clip0)">
<path d="M1.11 2.2H4.29L8.82 18.45C8.88743 18.6841 9.02935 18.8898 9.22425 19.036C9.41914 19.1822 9.65638 19.2608 9.9 19.26H23.82C24.0324 19.2572 24.2394 19.1935 24.4167 19.0765C24.594 18.9595 24.7339 18.7941 24.82 18.6L29.91 7C29.9754 6.83813 30.0014 6.66302 29.9858 6.48913C29.9701 6.31524 29.9133 6.14758 29.82 6C29.7174 5.84723 29.5791 5.72183 29.417 5.63469C29.2549 5.54756 29.074 5.50132 28.89 5.5H13.5C13.2083 5.5 12.9285 5.61589 12.7222 5.82218C12.5159 6.02847 12.4 6.30826 12.4 6.6C12.4 6.89174 12.5159 7.17153 12.7222 7.37782C12.9285 7.58411 13.2083 7.7 13.5 7.7H27.19L23.08 17.06H10.73L6.2 0.81C6.13257 0.575898 5.99065 0.370165 5.79575 0.223993C5.60086 0.0778218 5.36362 -0.00081704 5.12 -3.237e-07H1.12C0.974231 -0.00131947 0.82963 0.0260871 0.694453 0.0806544C0.559277 0.135222 0.436172 0.215881 0.332169 0.318027C0.228167 0.420172 0.145302 0.541804 0.0883086 0.675975C0.0313147 0.810147 0.00130732 0.954231 0 1.1C0.00263663 1.39265 0.120746 1.67242 0.328626 1.87843C0.536506 2.08444 0.817334 2.20001 1.11 2.2Z" fill="white"/>
<path d="M8.84001 27C9.33445 26.998 9.81721 26.8495 10.2272 26.5731C10.6372 26.2968 10.9561 25.905 11.1435 25.4475C11.3309 24.9899 11.3784 24.487 11.28 24.0025C11.1816 23.5179 10.9417 23.0734 10.5907 22.7252C10.2396 22.377 9.79324 22.1406 9.30791 22.0461C8.82257 21.9516 8.32011 22.0031 7.86406 22.1942C7.408 22.3852 7.01884 22.7072 6.74578 23.1194C6.47272 23.5316 6.32803 24.0155 6.33001 24.51C6.33528 25.1722 6.60206 25.8055 7.0722 26.2719C7.54235 26.7383 8.17776 27 8.84001 27Z" fill="white"/>
<path d="M24.56 27H24.75C25.4136 26.9488 26.0309 26.6401 26.47 26.14C26.8464 25.7085 27.0639 25.1613 27.0865 24.5892C27.1091 24.0171 26.9355 23.4544 26.5943 22.9946C26.2532 22.5347 25.765 22.2053 25.2109 22.0611C24.6568 21.9168 24.0701 21.9663 23.548 22.2014C23.0259 22.4364 22.5999 22.843 22.3406 23.3535C22.0813 23.864 22.0044 24.4478 22.1225 25.008C22.2407 25.5683 22.5468 26.0713 22.9902 26.4336C23.4335 26.7959 23.9874 26.9958 24.56 27Z" fill="white"/>
</g>
<defs>
<clipPath id="clip0">
<rect width="30" height="27" fill="white"/>
</clipPath>
</defs>
</svg>
