<svg width="80" height="80" fill="none" xmlns="http://www.w3.org/2000/svg"><circle cx="40" cy="40" r="39" stroke="#96C93D" stroke-width="2"/><path d="M38.808 28.715h0l-1.252-.327v9.423h9.098v4.61h-9.126v6.069c.134 4.588 1.195 6.666 2.407 7.769.382.347.83.619 1.094.773-.306.684-1.055 1.547-2.15 2.284-1.198.808-2.645 1.35-4.004 1.35-1.953 0-3.723-.642-5.01-2.003-1.287-1.363-2.199-3.564-2.199-6.89V21.005h24.476a8.333 8.333 0 0 1 .134 2.737c-.21 1.709-1.064 3.696-3.807 4.91-1.771.772-4.139.822-6.172.636a25.777 25.777 0 0 1-3.239-.513 13.72 13.72 0 0 1-.192-.046l-.046-.011-.01-.003h-.002zm2.476 28.472a.055.055 0 0 1 0 0z" stroke="#96C93D" stroke-width="2"/></svg>