<svg width="60" height="60" viewBox="0 0 60 60" fill="none" xmlns="http://www.w3.org/2000/svg">
<path d="M28.4754 30.1148C28.345 29.9617 28.2778 29.7646 28.2875 29.5637C28.2972 29.3627 28.383 29.173 28.5275 29.0331L28.9729 28.5938H18.2202C17.7671 28.5938 17.3438 28.2169 17.3438 27.7637V22.8011C17.3438 22.348 17.7671 22.0312 18.2202 22.0312H30.6759C31.129 22.0312 31.5234 22.3477 31.5234 22.8011V26.0655L31.793 25.782C31.9346 25.6375 32.1255 25.5519 32.3276 25.5422C32.5297 25.5324 32.7279 25.5993 32.8828 25.7295L35.0559 27.5282C36.1068 26.8982 37.2413 26.4195 38.4258 26.1062L38.6996 23.2663C38.7183 23.0608 38.8116 22.8693 38.962 22.7281C39.1124 22.5869 39.3094 22.5057 39.5156 22.5H44.1211C44.3279 22.5053 44.5256 22.5862 44.6767 22.7274C44.8279 22.8686 44.922 23.0603 44.9414 23.2663L45.2187 26.119C45.3394 26.151 45.469 26.1859 45.5862 26.2216V21.5459C45.5841 21.024 45.4758 20.508 45.2679 20.0293C45.06 19.5507 44.7567 19.1194 44.3767 18.7617C44.365 18.75 44.346 18.7454 44.3344 18.7331L43.3493 17.6953H6.08625L4.69547 18.9643C4.68645 18.9728 4.66664 18.9666 4.65703 18.9746C4.2293 19.3336 3.88471 19.7812 3.64716 20.2865C3.4096 20.7918 3.28474 21.3427 3.28125 21.9011V31.875H29.9531L28.4754 30.1148ZM10.3541 28.5938H9.59367C8.70789 28.5938 7.85839 28.2419 7.23205 27.6155C6.6057 26.9892 6.25383 26.1397 6.25383 25.2539C6.25383 24.3681 6.6057 23.5186 7.23205 22.8923C7.85839 22.2659 8.70789 21.9141 9.59367 21.9141H10.3541C11.2399 21.9141 12.0894 22.2659 12.7157 22.8923C13.3421 23.5186 13.6939 24.3681 13.6939 25.2539C13.6939 26.1397 13.3421 26.9892 12.7157 27.6155C12.0894 28.2419 11.2399 28.5938 10.3541 28.5938Z" fill="#1A1A1D"/>
<path d="M10.4297 33.5156H3.28125V37.9688H10.4297V33.5156Z" fill="#1A1A1D"/>
<path d="M10.3542 23.5547H9.59375C9.14309 23.5547 8.71089 23.7337 8.39222 24.0524C8.07356 24.371 7.89453 24.8032 7.89453 25.2539C7.89453 25.7046 8.07356 26.1368 8.39222 26.4554C8.71089 26.7741 9.14309 26.9531 9.59375 26.9531H10.3542C10.8048 26.9531 11.237 26.7741 11.5557 26.4554C11.8744 26.1368 12.0534 25.7046 12.0534 25.2539C12.0534 24.8032 11.8744 24.371 11.5557 24.0524C11.237 23.7337 10.8048 23.5547 10.3542 23.5547Z" fill="#1A1A1D"/>
<path d="M39.4384 7.58883C39.2754 7.15151 38.983 6.77421 38.6002 6.50713C38.2174 6.24006 37.7624 6.09587 37.2957 6.09375H12.2196C11.753 6.09592 11.298 6.24013 10.9152 6.5072C10.5325 6.77427 10.2402 7.15154 10.0771 7.58883L6.94141 16.0547H42.5738L39.4384 7.58883Z" fill="#1A1A1D"/>
<path d="M29.8828 23.6719H18.9844V26.9531H29.8828V23.6719Z" fill="#1A1A1D"/>
<path d="M41.8022 35.8242C41.1627 35.8255 40.538 36.0163 40.007 36.3724C39.4759 36.7286 39.0624 37.2342 38.8186 37.8253C38.5748 38.4164 38.5116 39.0665 38.6372 39.6935C38.7627 40.3205 39.0712 40.8962 39.5238 41.3479C39.9764 41.7996 40.5527 42.107 41.18 42.2313C41.8072 42.3556 42.4572 42.2911 43.0478 42.0461C43.6385 41.8011 44.1432 41.3866 44.4983 40.8548C44.8534 40.3231 45.043 39.698 45.043 39.0586C45.0411 38.2002 44.6988 37.3777 44.0913 36.7714C43.4837 36.165 42.6605 35.8244 41.8022 35.8242Z" fill="#1A1A1D"/>
<path d="M41.7997 30.9645C40.1993 30.9672 38.6356 31.4442 37.3062 32.3354C35.9769 33.2265 34.9415 34.4917 34.3309 35.971C33.7204 37.4504 33.5621 39.0775 33.876 40.6468C34.1899 42.2161 34.962 43.6572 36.0946 44.7878C37.2273 45.9185 38.6696 46.688 40.2395 46.9992C41.8094 47.3104 43.4362 47.1492 44.9145 46.5361C46.3928 45.923 47.6562 44.8854 48.545 43.5545C49.4337 42.2235 49.9081 40.659 49.908 39.0586C49.9036 36.9108 49.0475 34.8524 47.5274 33.335C46.0074 31.8176 43.9475 30.9651 41.7997 30.9645ZM41.7997 43.9346C40.8357 43.9333 39.8938 43.6463 39.093 43.1098C38.2922 42.5734 37.6683 41.8116 37.3003 40.9207C36.9323 40.0298 36.8367 39.0498 37.0256 38.1045C37.2144 37.1593 37.6792 36.2913 38.3612 35.6101C39.0433 34.929 39.9119 34.4653 40.8574 34.2778C41.8029 34.0902 42.7827 34.1871 43.6732 34.5563C44.5636 34.9254 45.3246 35.5503 45.86 36.3518C46.3953 37.1534 46.6811 38.0957 46.6811 39.0596C46.6787 40.3529 46.1634 41.5924 45.2483 42.5063C44.3332 43.4203 43.093 43.9339 41.7997 43.9346Z" fill="#1A1A1D"/>
<path d="M53.2788 36.6034C52.9773 35.2082 52.4168 33.8818 51.6265 32.6931C51.5288 32.5462 51.481 32.3717 51.4903 32.1956C51.4996 32.0194 51.5654 31.8509 51.678 31.7152L53.3844 29.6568L51.2238 27.4734L49.1719 29.1727C49.0375 29.2834 48.8713 29.3484 48.6974 29.3584C48.5236 29.3684 48.3511 29.3228 48.2048 29.2282C47.0078 28.4427 45.6783 27.8808 44.2808 27.5696C44.1095 27.5306 43.9548 27.4384 43.8389 27.3063C43.723 27.1742 43.6517 27.0089 43.6352 26.8339L43.3767 24.1406H40.2595L40.0009 26.8345C39.9847 27.0108 39.9139 27.1776 39.7984 27.3117C39.6828 27.4458 39.5283 27.5404 39.3564 27.5824C37.9595 27.8815 36.6311 28.4401 35.4403 29.2291C35.2935 29.3262 35.1193 29.3735 34.9436 29.364C34.7678 29.3545 34.5998 29.2888 34.4643 29.1764L32.4089 27.472L30.216 29.6611L31.9219 31.7155C32.0339 31.85 32.0999 32.0169 32.1104 32.1916C32.1208 32.3664 32.075 32.5399 31.9798 32.6868C31.1972 33.8833 30.6371 35.2113 30.3261 36.6068C30.2904 36.7752 30.202 36.9279 30.0737 37.0427C29.9454 37.1575 29.7839 37.2285 29.6126 37.2454L26.9531 37.5041V40.614L29.612 40.8728C29.7829 40.8899 29.9439 40.9616 30.071 41.0772C30.1981 41.1927 30.2848 41.3461 30.3182 41.5146C30.6197 42.9098 31.1801 44.2361 31.9705 45.4247C32.0682 45.5715 32.1159 45.746 32.1066 45.9221C32.0973 46.0982 32.0315 46.2666 31.9189 46.4024L30.2159 48.457L32.4094 50.6457L34.465 48.9407C34.5989 48.8293 34.7648 48.7635 34.9387 48.7527C35.1126 48.7419 35.2853 48.7868 35.432 48.8808C36.6293 49.6636 37.9588 50.2225 39.3558 50.5304C39.5259 50.5656 39.6803 50.6542 39.7964 50.7834C39.9126 50.9126 39.9844 51.0755 40.0014 51.2483L40.26 53.9062H43.3772L43.6357 51.248C43.6529 51.0759 43.7247 50.9139 43.8407 50.7858C43.9567 50.6576 44.1108 50.5699 44.2802 50.5357C45.6771 50.2365 47.0055 49.6779 48.1964 48.889C48.3433 48.7918 48.5175 48.7445 48.6933 48.754C48.8692 48.7635 49.0373 48.8293 49.1728 48.9417L51.2286 50.6461L53.4227 48.457L51.7207 46.4026C51.6094 46.2676 51.5442 46.1005 51.5346 45.9257C51.525 45.751 51.5716 45.5778 51.6675 45.4314C52.4528 44.2352 53.0161 42.9072 53.3304 41.5112C53.3701 41.3416 53.4621 41.1888 53.5933 41.0743C53.7245 40.9597 53.8884 40.8893 54.0618 40.8728L56.7188 40.6148V37.5041L54.0225 37.2454C53.8471 37.2292 53.6811 37.1586 53.5478 37.0435C53.4145 36.9284 53.3204 36.7746 53.2788 36.6034ZM41.8018 48.7942C39.877 48.7915 37.9961 48.2182 36.397 47.1469C34.7979 46.0755 33.5522 44.5541 32.8175 42.7751C32.0827 40.996 31.8919 39.039 32.269 37.1514C32.6462 35.2639 33.5744 33.5305 34.9364 32.1704C36.2984 30.8102 38.0331 29.8844 39.9211 29.5098C41.8092 29.1353 43.7659 29.3288 45.544 30.066C47.3221 30.8032 48.8417 32.0509 49.9109 33.6515C50.98 35.2521 51.5507 37.1337 51.5508 39.0586C51.5462 41.6415 50.5172 44.1172 48.6895 45.9424C46.8619 47.7675 44.3848 48.7932 41.8018 48.7942Z" fill="#1A1A1D"/>
</svg>
