<svg width="60" height="60" viewBox="0 0 60 60" fill="none" xmlns="http://www.w3.org/2000/svg">
<path d="M21.2527 59.3541C25.269 59.3541 28.5249 56.0982 28.5249 52.0819C28.5249 48.0656 25.269 44.8097 21.2527 44.8097C17.2363 44.8097 13.9805 48.0656 13.9805 52.0819C13.9805 56.0982 17.2363 59.3541 21.2527 59.3541Z" fill="#1A1A1D"/>
<path d="M44.5507 44.7391C40.5149 44.3419 36.9213 47.2916 36.5241 51.3274C36.127 55.3633 39.0766 58.9569 43.1125 59.3541C43.5907 59.4011 44.0725 59.4011 44.5507 59.3541C48.5866 58.9569 51.5363 55.3633 51.1391 51.3274C50.796 47.8407 48.0374 45.0822 44.5507 44.7391Z" fill="#1A1A1D"/>
<path d="M59.519 17.0624C59.1577 16.5214 58.5456 16.202 57.8951 16.2151H49.8463V16.0739C49.8468 7.53432 42.9246 0.611147 34.385 0.610596C25.8455 0.610044 18.9224 7.53225 18.9218 16.0719C18.9218 16.0726 18.9218 16.0732 18.9218 16.0739V16.2151H12.9205L10.873 6.89544C10.6456 5.94739 9.80042 5.27707 8.82548 5.27155H0V9.50778H7.13098L13.6971 39.6556C13.8705 40.6468 14.7385 41.3651 15.7446 41.3501H52.6704C53.6454 41.3445 54.4904 40.6743 54.7179 39.7262L59.9426 18.8275C60.0958 18.2052 59.9379 17.5472 59.519 17.0624ZM34.3841 27.2999C28.1842 27.2999 23.158 22.2738 23.158 16.0739C23.158 9.87404 28.1842 4.84793 34.3841 4.84793C40.584 4.84793 45.6101 9.87404 45.6101 16.0739C45.5716 22.2578 40.568 27.2613 34.3841 27.2999Z" fill="#1A1A1D"/>
<path d="M32.6907 16.2858L28.8074 12.332L25.7715 15.2973L31.1374 20.7338C31.5285 21.1329 32.0613 21.3613 32.6201 21.3693C33.1715 21.3963 33.709 21.1915 34.1027 20.8044L42.9988 12.4026L40.1041 9.29602L32.6907 16.2858Z" fill="#1A1A1D"/>
</svg>
