<svg width="60" height="60" viewBox="0 0 60 60" fill="none" xmlns="http://www.w3.org/2000/svg">
<path d="M49.5004 38.7996C46.6882 38.7996 44.4004 41.088 44.4004 43.8996C44.4004 46.7117 46.6882 48.9996 49.5004 48.9996C52.312 48.9996 54.6004 46.7117 54.6004 43.8996C54.6004 41.088 52.312 38.7996 49.5004 38.7996ZM49.5004 45.3996C48.673 45.3996 48.0004 44.7269 48.0004 43.8996C48.0004 43.0722 48.673 42.3996 49.5004 42.3996C50.3277 42.3996 51.0004 43.0722 51.0004 43.8996C51.0004 44.7269 50.3277 45.3996 49.5004 45.3996Z" fill="#1A1A1D"/>
<path d="M49.0116 17.5997H40.2C39.537 17.5997 39 18.1374 39 18.7997V42.1997C39 42.8621 39.537 43.3997 40.2 43.3997H41.4726C42.0667 43.3997 42.5928 42.9719 42.6696 42.3828C43.1406 38.7743 46.0188 36.5364 49.5006 36.5364C52.9824 36.5364 55.8606 38.7744 56.3316 42.3828C56.4083 42.972 56.9339 43.3997 57.5285 43.3997H58.7999C59.4623 43.3997 59.9999 42.8621 59.9999 42.1997V30.4997C59.9999 30.2178 59.9009 29.9453 59.7203 29.7299L49.9319 18.0299C49.704 17.7576 49.3668 17.5997 49.0116 17.5997ZM41.4 27.1997V21.1997C41.4 20.5374 41.937 19.9997 42.6 19.9997H47.886C48.2418 19.9997 48.5796 20.1582 48.8076 20.4317L53.8074 26.4317C54.4583 27.2135 53.9027 28.3997 52.8852 28.3997H42.6C41.937 28.3997 41.4 27.8628 41.4 27.1997Z" fill="#1A1A1D"/>
<path d="M1.2 43.4004H4.27265C4.86667 43.4004 5.39284 42.9725 5.46961 42.3834C5.94059 38.775 8.81882 36.537 12.3006 36.537C15.7824 36.537 18.6606 38.7751 19.1316 42.3834C19.2083 42.9726 19.7339 43.4004 20.3285 43.4004H35.4C36.0625 43.4004 36.6 42.8627 36.6 42.2004V12.2004C36.6 11.538 36.0624 11.0004 35.4 11.0004H1.2C0.536961 11.0004 0 11.538 0 12.2004V42.2004C0 42.8628 0.536961 43.4004 1.2 43.4004Z" fill="#1A1A1D"/>
<path d="M12.2992 38.7996C9.48706 38.7996 7.19922 41.088 7.19922 43.8996C7.19922 46.7117 9.48706 48.9996 12.2992 48.9996C15.1108 48.9996 17.3992 46.7117 17.3992 43.8996C17.3992 41.088 15.1108 38.7996 12.2992 38.7996ZM12.2992 45.3996C11.4719 45.3996 10.7992 44.7269 10.7992 43.8996C10.7992 43.0722 11.4719 42.3996 12.2992 42.3996C13.1266 42.3996 13.7992 43.0722 13.7992 43.8996C13.7992 44.7269 13.1266 45.3996 12.2992 45.3996Z" fill="#1A1A1D"/>
</svg>
