<svg width="36" height="50" viewBox="0 0 36 50" fill="none" xmlns="http://www.w3.org/2000/svg">
<path d="M18 11.7188C14.7685 11.7188 12.1406 14.3466 12.1406 17.5781C12.1406 20.8251 14.7638 23.4375 18 23.4375C21.2942 23.4375 23.8594 20.7759 23.8594 17.5781C23.8594 14.3466 21.2315 11.7188 18 11.7188Z" fill="#01009A"/>
<path d="M18 0C8.30684 0 0.421875 7.88496 0.421875 17.5781C0.421875 20.8525 1.32881 24.0483 3.04404 26.8207L16.9987 49.3069C17.5773 50.2414 18.9416 50.2271 19.5021 49.2869L33.1006 26.5832C34.7198 23.8695 35.5781 20.7553 35.5781 17.5781C35.5781 7.88496 27.6932 0 18 0ZM18 26.3867C13.0835 26.3867 9.19141 22.3849 9.19141 17.5781C9.19141 12.7315 13.1534 8.76953 18 8.76953C22.8466 8.76953 26.8086 12.7315 26.8086 17.5781C26.8086 22.3425 22.9688 26.3867 18 26.3867Z" fill="#01009A"/>
</svg>
