<svg width="19" height="22" viewBox="0 0 19 22" fill="none" xmlns="http://www.w3.org/2000/svg">
<g clip-path="url(#clip0)">
<path d="M9.41965 11.8542H9.56767C10.923 11.8314 12.0193 11.3622 12.8288 10.4647C14.6097 8.48747 14.3136 5.09795 14.2824 4.77449C14.1668 2.34624 13.0011 1.18679 12.0389 0.642369C11.322 0.236902 10.4847 0.0159453 9.55264 0H9.474C8.96055 0 7.95215 0.0820045 6.9877 0.626424C6.02324 1.17084 4.82635 2.32802 4.71071 4.77449C4.67833 5.09795 4.38228 8.48747 6.16317 10.4647C6.96804 11.3622 8.06433 11.8314 9.41965 11.8542ZM5.94576 4.88838C5.94576 4.87472 5.95039 4.86105 5.95039 4.85194C6.10304 1.58542 8.45751 1.23462 9.46591 1.23462H9.52373C10.7727 1.26196 12.8959 1.7631 13.0393 4.85194C13.0382 4.86427 13.0398 4.87668 13.0439 4.88838C13.0485 4.92027 13.3723 8.0205 11.9013 9.6492C11.3185 10.2961 10.5414 10.6173 9.5191 10.6241H9.47285C8.4552 10.615 7.67346 10.2961 7.09525 9.6492C5.6289 8.02733 5.94345 4.91572 5.94808 4.88838H5.94576Z" fill="#534746"/>
<path d="M18.9989 17.4761V17.4624C18.9989 17.4259 18.9943 17.3895 18.9943 17.3485C18.9666 16.4464 18.9064 14.3371 16.8989 13.6628L16.8526 13.6492C14.7664 13.1253 13.0318 11.9408 13.0133 11.9271C12.8776 11.8376 12.7118 11.804 12.5513 11.8335C12.3908 11.8631 12.2484 11.9533 12.1546 12.085C12.0608 12.2166 12.0232 12.3792 12.0497 12.5379C12.0762 12.6966 12.1647 12.8388 12.2963 12.9339C12.375 12.9909 14.216 14.2505 16.5173 14.8337C17.5951 15.2118 17.7153 16.3462 17.7477 17.3849C17.7468 17.423 17.7484 17.461 17.7523 17.4988C17.7569 17.9089 17.7292 18.5421 17.6552 18.9066C16.9035 19.3257 13.9685 20.7745 9.50241 20.7745C5.05019 20.7745 2.09669 19.3212 1.34271 18.902C1.2687 18.5376 1.23632 17.9043 1.24557 17.4943C1.24557 17.4578 1.25019 17.4214 1.25019 17.3804C1.28257 16.3417 1.40284 15.2073 2.48063 14.8291C4.78422 14.246 6.62524 12.9795 6.70156 12.9294C6.77065 12.8838 6.8298 12.8251 6.87555 12.7567C6.92129 12.6884 6.95272 12.6117 6.96798 12.5312C6.98323 12.4507 6.98202 12.368 6.9644 12.288C6.94678 12.208 6.91311 12.1322 6.86537 12.0652C6.81763 11.9981 6.75678 11.9411 6.68638 11.8976C6.61599 11.854 6.53747 11.8247 6.45543 11.8114C6.37339 11.7981 6.28948 11.8011 6.20863 11.8202C6.12777 11.8393 6.0516 11.8741 5.98458 11.9225C5.96608 11.9362 4.2407 13.1184 2.14526 13.6446C2.12676 13.6492 2.11288 13.6537 2.09901 13.6583C0.0937726 14.3371 0.0336387 16.4464 0.00588464 17.3439C0.00674721 17.382 0.00520232 17.42 0.00125895 17.4578V17.4715C-0.00336673 17.7084 -0.0079924 18.9248 0.237169 19.5353C0.283871 19.6534 0.368293 19.7533 0.477704 19.82C0.616475 19.9111 3.94234 21.9977 9.50704 21.9977C15.0717 21.9977 18.3976 19.9066 18.5364 19.82C18.6446 19.752 18.7286 19.6525 18.7769 19.5353C19.0082 18.9294 19.0036 17.713 18.9989 17.4761Z" fill="#534746"/>
</g>
<defs>
<clipPath id="clip0">
<rect width="19" height="22" fill="white"/>
</clipPath>
</defs>
</svg>
