<svg width="72" height="32" viewBox="0 0 72 32" fill="none" xmlns="http://www.w3.org/2000/svg">
<g clip-path="url(#clip0)">
<path d="M71.5034 22.7954C71.5034 22.7954 71.5624 22.4315 71.5034 22.5495C70.9429 18.0652 69.1629 17.5735 66.7044 16.2852C65.1868 15.4933 63.6275 14.7842 62.0332 14.1611H61.2957C61.2957 14.1611 59.3977 12.3516 52.6319 5.95948C45.866 -0.432652 43.9681 4.8881e-05 43.9681 4.8881e-05H5.13341C1.76033 4.8881e-05 1.26864 4.48437 0.531082 13.5809C0.0963038 17.8473 -0.0679255 22.137 0.0393796 26.4241L8.57533 28.3319C8.57533 28.1156 8.57533 27.8992 8.57533 27.6829C8.63803 26.1352 9.29693 24.6718 10.4141 23.5989C11.5313 22.5261 13.0203 21.927 14.5692 21.927C16.1181 21.927 17.607 22.5261 18.7242 23.5989C19.8414 24.6718 20.5003 26.1352 20.563 27.6829C20.563 27.8796 20.563 28.0763 20.563 28.2729H54.9035C54.8935 28.0764 54.8935 27.8794 54.9035 27.6829C54.9035 26.0945 55.5345 24.5712 56.6576 23.4481C57.7808 22.3249 59.3041 21.694 60.8925 21.694C62.4808 21.694 64.0042 22.3249 65.1273 23.4481C66.2504 24.5712 66.8814 26.0945 66.8814 27.6829C66.8788 28.0554 66.8459 28.427 66.7831 28.7941L67.0092 29.0105C67.7359 28.5088 68.4947 28.0554 69.2809 27.6534C70.0266 27.2632 70.8028 26.9343 71.6018 26.67L71.8476 22.8347L71.5034 22.7954Z" fill="#E5E5E5"/>
<path d="M14.4756 32.0098C16.8816 32.0098 18.8321 30.0594 18.8321 27.6534C18.8321 25.2473 16.8816 23.2969 14.4756 23.2969C12.0696 23.2969 10.1191 25.2473 10.1191 27.6534C10.1191 30.0594 12.0696 32.0098 14.4756 32.0098Z" fill="#E5E5E5"/>
<path d="M14.4757 30.6134C16.1105 30.6134 17.4357 29.2881 17.4357 27.6533C17.4357 26.0186 16.1105 24.6933 14.4757 24.6933C12.8409 24.6933 11.5156 26.0186 11.5156 27.6533C11.5156 29.2881 12.8409 30.6134 14.4757 30.6134Z" fill="#E5E5E5" stroke="white" stroke-width="0.25" stroke-miterlimit="10"/>
<path d="M14.4757 29.9152C15.7249 29.9152 16.7375 28.9025 16.7375 27.6534C16.7375 26.4042 15.7249 25.3915 14.4757 25.3915C13.2265 25.3915 12.2139 26.4042 12.2139 27.6534C12.2139 28.9025 13.2265 29.9152 14.4757 29.9152Z" fill="#E5E5E5" stroke="white" stroke-width="0.25" stroke-miterlimit="10"/>
<path d="M60.6761 32.0098C63.0821 32.0098 65.0326 30.0594 65.0326 27.6534C65.0326 25.2473 63.0821 23.2969 60.6761 23.2969C58.27 23.2969 56.3196 25.2473 56.3196 27.6534C56.3196 30.0594 58.27 32.0098 60.6761 32.0098Z" fill="#E5E5E5"/>
<path d="M60.6761 30.6134C62.3109 30.6134 63.6362 29.2881 63.6362 27.6533C63.6362 26.0186 62.3109 24.6933 60.6761 24.6933C59.0413 24.6933 57.7161 26.0186 57.7161 27.6533C57.7161 29.2881 59.0413 30.6134 60.6761 30.6134Z" fill="#E5E5E5" stroke="white" stroke-width="0.25" stroke-miterlimit="10"/>
<path d="M60.6761 29.9152C61.9253 29.9152 62.938 28.9025 62.938 27.6534C62.938 26.4042 61.9253 25.3915 60.6761 25.3915C59.427 25.3915 58.4143 26.4042 58.4143 27.6534C58.4143 28.9025 59.427 29.9152 60.6761 29.9152Z" fill="#E5E5E5" stroke="white" stroke-width="0.25" stroke-miterlimit="10"/>
<path d="M0 22.402H11.6829" stroke="white" stroke-width="0.25" stroke-miterlimit="10"/>
<path d="M17.4358 22.402L57.3129 22.8445" stroke="white" stroke-width="0.25" stroke-miterlimit="10"/>
<path d="M19.8745 24.9096L55.3066 25.3816" stroke="white" stroke-width="0.25" stroke-miterlimit="10"/>
<path d="M71.7885 22.8052L64.354 22.8347" stroke="white" stroke-width="0.25" stroke-miterlimit="10"/>
<path d="M24.1917 0V28.2729" stroke="white" stroke-width="0.25" stroke-miterlimit="10"/>
<path d="M43.1125 0V28.2729" stroke="white" stroke-width="0.25" stroke-miterlimit="10"/>
<path d="M4.05154 0.196655C4.05154 0.196655 2.98947 4.13027 2.74362 12.6859C2.49777 21.2415 2.57643 24.0246 2.57643 24.0246C2.57576 24.1181 2.59502 24.2108 2.63294 24.2963C2.67086 24.3818 2.72657 24.4583 2.79635 24.5206C2.86613 24.583 2.94836 24.6297 3.03761 24.6578C3.12687 24.6859 3.22109 24.6946 3.31398 24.6834H9.38161" fill="#E5E5E5"/>
<path d="M4.05154 0.196655C4.05154 0.196655 2.98947 4.13027 2.74362 12.6859C2.49777 21.2415 2.57643 24.0246 2.57643 24.0246C2.57576 24.1181 2.59502 24.2108 2.63294 24.2963C2.67086 24.3818 2.72657 24.4583 2.79635 24.5206C2.86613 24.583 2.94836 24.6297 3.03761 24.6578C3.12687 24.6859 3.22109 24.6946 3.31398 24.6834H9.38161" stroke="white" stroke-width="0.25" stroke-miterlimit="10"/>
<path d="M0.432617 14.8494H2.56661" stroke="white" stroke-width="0.25" stroke-miterlimit="10"/>
<path d="M2.6355 16.7375C2.6355 16.7375 25.2538 16.9637 54.0479 19.6091Z" fill="#E5E5E5"/>
<path d="M2.6355 16.7375C2.6355 16.7375 25.2538 16.9637 54.0479 19.6091" stroke="white" stroke-width="0.25" stroke-miterlimit="10"/>
<path d="M45.9544 28.2729C45.4558 26.9815 45.1798 25.6148 45.1382 24.2311C44.9317 21.4481 44.8235 18.8224 44.8235 18.8224H44.44L43.8696 5.25139C43.8696 5.25139 50.665 5.07437 52.2286 6.4413C53.7922 7.80823 59.6828 14.3085 59.6828 14.3085L61.2956 14.1512" fill="#E5E5E5"/>
<path d="M45.9544 28.2729C45.4558 26.9815 45.1798 25.6148 45.1382 24.2311C44.9317 21.4481 44.8235 18.8224 44.8235 18.8224H44.44L43.8696 5.25139C43.8696 5.25139 50.665 5.07437 52.2286 6.4413C53.7922 7.80823 59.6828 14.3085 59.6828 14.3085L61.2956 14.1512" stroke="white" stroke-width="0.25" stroke-miterlimit="10"/>
<path d="M53.7136 28.2729C53.7136 28.2729 54.1267 22.3725 58.2963 20.6712C59.629 20.0264 61.1509 19.8895 62.5773 20.2859C64.0036 20.6823 65.2366 21.5849 66.0455 22.8248" fill="#E5E5E5"/>
<path d="M53.7136 28.2729C53.7136 28.2729 54.1267 22.3725 58.2963 20.6712C59.629 20.0264 61.1509 19.8895 62.5773 20.2859C64.0036 20.6823 65.2366 21.5849 66.0455 22.8248" stroke="white" stroke-width="0.25" stroke-miterlimit="10"/>
<path d="M69.4973 21.1432V22.815" stroke="white" stroke-width="0.25" stroke-miterlimit="10"/>
<path d="M69.7628 18.1733C68.8363 18.0448 67.8965 18.0448 66.97 18.1733C66.97 18.4585 67.7468 20.6122 71.4346 22.107" fill="#E5E5E5"/>
<path d="M69.7628 18.1733C68.8363 18.0448 67.8965 18.0448 66.97 18.1733C66.97 18.4585 67.7468 20.6122 71.4346 22.107" stroke="white" stroke-width="0.25" stroke-miterlimit="10"/>
<path d="M3.59937 24.6835V27.2108" stroke="white" stroke-width="0.25" stroke-miterlimit="10"/>
<path d="M57.7161 20.9662V15.6165" stroke="white" stroke-width="0.25" stroke-miterlimit="10"/>
<path d="M60.6761 16.1278L48.8261 14.161C48.8261 14.161 45.63 13.8562 45.3842 11.0633C45.1383 8.27045 45.0498 6.02827 45.0498 6.02827C45.0498 6.02827 49.7308 5.82177 51.2649 6.52982C51.8347 6.86457 52.3489 7.28591 52.7892 7.77873L60.6761 16.1278Z" fill="#E5E5E5" stroke="white" stroke-width="0.25" stroke-miterlimit="10"/>
<path d="M51.5894 6.68713L52.8579 14.8199" stroke="white" stroke-width="0.25" stroke-miterlimit="10"/>
<path d="M59.142 14.5052L57.7161 15.6165" stroke="white" stroke-width="0.25" stroke-miterlimit="10"/>
<path d="M54.6477 15.1149V11.85L55.7393 10.8863" fill="#E5E5E5"/>
<path d="M54.6477 15.1149V11.85L55.7393 10.8863" stroke="white" stroke-width="0.25" stroke-miterlimit="10"/>
<path d="M60.676 16.1377L66.9797 18.1733" stroke="white" stroke-width="0.25" stroke-miterlimit="10"/>
<path d="M5.96915 5.46771H41.293C41.293 5.46771 42.0011 5.46771 41.8339 6.66747C41.5389 8.63428 40.8505 14.1315 40.8505 14.1315C40.8505 14.1315 40.7227 15.3411 39.0902 15.3411H4.05149C4.05149 15.3411 3.06808 15.3411 3.2746 13.7873C3.48111 12.2335 4.09084 7.88688 4.09084 7.88688C4.09084 7.88688 4.41537 5.46771 5.96915 5.46771Z" fill="#E5E5E5" stroke="white" stroke-width="0.25" stroke-miterlimit="10"/>
<path d="M3.25513 14.3675H24.1918" stroke="white" stroke-width="0.5" stroke-miterlimit="10"/>
<path d="M39.2969 16.6589H42.2471" stroke="white" stroke-width="0.5" stroke-miterlimit="10"/>
<path d="M45.0498 16.6589H48" stroke="white" stroke-width="0.5" stroke-miterlimit="10"/>
<path d="M13.394 10.9453C13.1514 11.0347 12.9176 11.1467 12.6958 11.2796V11.2796C12.9042 11.1362 13.1246 11.0112 13.3547 10.9059" fill="#E5E5E5"/>
<path d="M15.3609 10.0799C15.3705 10.2174 15.3705 10.3554 15.3609 10.4929C14.6817 10.5113 14.013 10.6651 13.394 10.9453C13.1514 11.0348 12.9176 11.1467 12.6958 11.2797C12.5665 11.1425 12.4249 11.0175 12.2729 10.906V10.906C13.158 10.3561 14.1813 10.0696 15.2232 10.0799H15.3609Z" fill="#E5E5E5"/>
</g>
<path d="M8.83086 9.76521H9.2144C9.27945 9.11734 9.56804 8.51233 10.0306 8.05408L10.1192 7.96558C10.1192 7.96558 10.1192 7.89675 10.1192 7.84758C10.1236 7.61552 10.188 7.38856 10.306 7.1887L10.4142 7.07068C9.91952 7.33616 9.49872 7.72058 9.18971 8.18925C8.88069 8.65793 8.69317 9.19615 8.64404 9.75539H8.82105" fill="white"/>
<path d="M13.7775 7.45427C13.8022 7.51741 13.8352 7.57696 13.8758 7.63129C13.9653 7.7647 14.0101 7.92312 14.0036 8.08365C14.4633 8.54286 14.7485 9.14797 14.81 9.79478H15.3607C15.3104 9.21443 15.111 8.65692 14.7819 8.17623C14.4529 7.69555 14.0052 7.308 13.4824 7.05109C13.593 7.17523 13.6857 7.31425 13.7578 7.46411" fill="white"/>
<path d="M10.2765 8.9883C10.2765 8.9883 10.2765 8.93912 10.2765 8.91946C10.2535 8.88112 10.2272 8.84492 10.1978 8.81128C10.1385 8.73761 10.0919 8.6545 10.0601 8.56543C9.77832 8.92975 9.60456 9.3659 9.55859 9.82419C9.74369 9.84324 9.92755 9.87279 10.1093 9.91269C10.1388 9.66378 10.2085 9.42132 10.3158 9.19481C10.307 9.12625 10.307 9.05686 10.3158 8.9883" fill="white"/>
<path d="M14.4855 9.82415C14.4349 9.31551 14.2289 8.8348 13.8955 8.44739C13.8443 8.53864 13.7884 8.62724 13.7283 8.7129C13.673 8.78755 13.6237 8.86648 13.5808 8.94892C13.789 9.23688 13.9117 9.57774 13.9348 9.93232C14.1167 9.89325 14.3005 9.86371 14.4855 9.84382" fill="white"/>
<path d="M13.2072 10.1094L13.5318 10.0012C13.525 9.79202 13.4712 9.58701 13.3744 9.40137L13.2957 9.46037L13.1089 9.58822C13.1725 9.73408 13.206 9.89128 13.2072 10.0504V10.1094" fill="white"/>
<path d="M10.9058 9.61775C10.8132 9.61705 10.7234 9.58594 10.6502 9.52924V9.52924C10.5831 9.68474 10.5464 9.85164 10.542 10.0209L10.8665 10.1291V10.0603C10.8628 9.91121 10.8931 9.76324 10.955 9.62758" fill="white"/>
<path d="M12.4106 9.41121C12.5778 9.41121 12.627 9.48988 12.8138 9.41121C13.0007 9.33254 13.2662 9.13585 13.2662 9.06701C13.2662 8.61465 13.9447 8.29013 13.6497 7.82793C13.5517 7.6239 13.4296 7.4324 13.2859 7.25755C13.1777 7.16905 13.04 7.20838 12.9318 7.11988C12.8236 7.03137 12.7253 6.93302 12.6073 6.85435C12.3024 6.64784 11.3584 6.66751 11.1322 7.00187C10.906 7.33623 10.7585 7.23788 10.6208 7.42473C10.4831 7.61158 10.5225 8.01478 10.434 8.2803C10.3454 8.54582 10.4831 8.55565 10.6011 8.81133C10.7192 9.06702 10.6011 9.08669 10.6896 9.18503C10.7782 9.28337 10.8765 9.25386 10.9552 9.31286C11.0338 9.37187 11.1617 9.23419 11.26 9.31286C11.314 9.37384 11.3865 9.41549 11.4664 9.43147C11.5463 9.44745 11.6292 9.43689 11.7026 9.40138C11.7026 9.1457 12.4204 9.1457 12.4106 9.40138" fill="white"/>
<path d="M12.5876 8.04427L12.3615 8.15245C12.2926 7.9361 12.1647 7.77875 12.0271 7.77875C11.8894 7.77875 11.7517 7.92626 11.6829 8.15245C11.5123 8.06011 11.3347 7.98119 11.1519 7.91642C11.1519 7.91642 11.3289 8.07377 11.3977 8.15245C11.5174 8.29858 11.5926 8.47612 11.6141 8.66382C11.6141 8.90967 11.614 9.16535 11.6632 9.42103C11.6632 9.52921 11.6632 9.63739 11.6632 9.7554C11.6632 9.87341 11.6632 10.2471 11.6632 10.493L12.0271 10.7093L12.4008 10.4831C12.3859 10.2342 12.3859 9.98464 12.4008 9.73573V9.4112C12.4008 9.16535 12.4008 8.90967 12.4598 8.66382C12.4841 8.47507 12.5627 8.29743 12.686 8.15245C12.7548 8.07377 12.9417 7.92626 12.9318 7.91642C12.8223 7.94678 12.7167 7.98968 12.6171 8.04427" fill="white"/>
<path d="M15.223 11.142C15.2662 11.0204 15.2991 10.8954 15.3214 10.7683C14.4677 10.7985 13.6383 11.0602 12.9219 11.5255C13.0451 11.6673 13.1568 11.8185 13.2562 11.9779V11.9779L13.3743 11.8992C13.9278 11.5148 14.5589 11.2563 15.223 11.142Z" fill="white"/>
<path d="M15.1052 11.4469C14.993 11.702 14.8511 11.943 14.6823 12.1648V12.1648C14.2944 12.3023 13.9346 12.5089 13.6202 12.7745C13.5636 12.5869 13.4878 12.4057 13.394 12.2336C13.9021 11.8529 14.4854 11.5848 15.1052 11.4469" fill="white"/>
<path d="M13.394 13.1481C13.2233 13.2297 13.0455 13.2956 12.8629 13.3448C12.7272 12.7827 12.4472 12.2656 12.0505 11.8448C11.6539 11.424 11.1543 11.114 10.6011 10.9453C9.98327 10.6618 9.3139 10.5078 8.63428 10.493C8.63428 10.3553 8.63428 10.2176 8.63428 10.0799H8.82113C9.99991 10.0635 11.1511 10.4368 12.0959 11.142C12.498 11.4669 12.8322 11.8679 13.0793 12.3221C13.2215 12.5887 13.3273 12.8731 13.394 13.1678" fill="white"/>
<path d="M12.4697 13.4235C12.3193 13.4385 12.1677 13.4385 12.0173 13.4235H11.919C11.919 13.3645 11.8698 13.2957 11.8403 13.2268C11.6094 12.658 11.1937 12.1834 10.6602 11.8796C10.1111 11.4918 9.48317 11.2299 8.82125 11.1125V11.1125C8.82125 10.9945 8.7524 10.8667 8.7229 10.7388C9.66496 10.7684 10.575 11.0878 11.3289 11.6534C11.9059 12.0796 12.3135 12.6962 12.4795 13.394" fill="white"/>
<path d="M10.6502 12.2435C10.1417 11.8572 9.55397 11.5885 8.9292 11.4567V11.4567C9.04263 11.7102 9.18805 11.9482 9.3619 12.1648C9.95303 12.3756 10.4716 12.7509 10.8567 13.2465C11.1004 13.3398 11.3548 13.4025 11.6139 13.4334C11.3837 12.9652 11.0469 12.5577 10.6305 12.2435" fill="white"/>
<path d="M18.5078 8.16225C18.5496 8.28236 18.5432 8.41399 18.49 8.52952C18.4369 8.64504 18.341 8.73546 18.2226 8.7818C17.9903 8.84091 17.7468 8.84091 17.5145 8.7818V9.25383H18.1144V9.64721H17.5047V9.97173C17.5047 10.5618 17.7899 10.4339 17.7505 10.5421C17.7012 10.6296 17.6299 10.7029 17.5437 10.7546C17.4575 10.8063 17.3593 10.8347 17.2588 10.8371C16.954 10.8371 16.6885 10.6503 16.6885 10.1881C16.6885 9.72587 16.6885 8.12292 16.6885 8.12292H18.4488L18.5078 8.16225Z" fill="white"/>
<path d="M20.0221 9.2735C20.0263 9.33574 20.0173 9.39817 19.9957 9.4567C19.9741 9.51522 19.9404 9.56851 19.8967 9.61309C19.8531 9.65766 19.8005 9.69251 19.7425 9.71533C19.6844 9.73816 19.6222 9.74844 19.5599 9.74553C19.4913 9.74577 19.425 9.72135 19.373 9.6767C19.373 9.6767 19.373 9.61769 19.373 9.53902C19.373 9.46035 19.373 9.38167 19.2944 9.38167C19.2157 9.38167 19.1764 9.56852 19.1764 9.7947V10.7781H18.429C18.429 10.7781 18.429 9.94221 18.429 9.68652C18.429 9.09648 18.1733 9.21449 18.2126 9.11615C18.2557 9.00971 18.3334 8.92089 18.4331 8.86398C18.5329 8.80706 18.6489 8.78538 18.7624 8.80241C18.876 8.81945 18.9805 8.87421 19.0592 8.95788C19.1378 9.04156 19.186 9.14927 19.196 9.26367C19.2261 9.15817 19.2855 9.06336 19.3673 8.99025C19.4492 8.91715 19.55 8.86874 19.6582 8.85064C19.7099 8.85437 19.7604 8.86827 19.8067 8.89157C19.853 8.91488 19.8943 8.94711 19.9281 8.98641C19.9619 9.02571 19.9876 9.0713 20.0037 9.12057C20.0199 9.16984 20.0261 9.22181 20.0221 9.2735V9.2735Z" fill="white"/>
<path d="M21.861 10.2864C21.7849 10.4608 21.6599 10.6093 21.5011 10.7141C21.3422 10.8188 21.1564 10.8752 20.9662 10.8765C20.8331 10.8732 20.7021 10.8438 20.5804 10.7899C20.4587 10.736 20.3489 10.6587 20.2571 10.5624C20.1653 10.466 20.0934 10.3526 20.0455 10.2285C19.9976 10.1043 19.9746 9.97197 19.9778 9.83895C19.9811 9.70594 20.0104 9.57486 20.0643 9.4532C20.1182 9.33155 20.1955 9.2217 20.2919 9.12992C20.3882 9.03815 20.5017 8.96625 20.6258 8.91833C20.75 8.87041 20.8823 8.84741 21.0153 8.85064C21.625 8.85064 21.8906 9.23416 21.8906 9.49968C21.8906 10.0799 21.212 10.1487 20.7301 10.0701C20.858 10.4437 21.3497 10.4831 21.802 10.2274H21.8512C21.8512 10.2274 21.8709 10.2471 21.861 10.2864ZM20.7006 9.74553C21.0251 9.74553 21.1923 9.64718 21.1923 9.4505C21.1925 9.42551 21.1874 9.40077 21.1773 9.37791C21.1672 9.35504 21.1523 9.33456 21.1337 9.31784C21.1152 9.30112 21.0933 9.28852 21.0695 9.28088C21.0457 9.27324 21.0205 9.27072 20.9957 9.2735H20.9072C20.8324 9.32996 20.774 9.40519 20.7377 9.49154C20.7014 9.5779 20.6886 9.67231 20.7006 9.7652V9.74553Z" fill="white"/>
<path d="M23.7492 10.2766C23.7492 10.7289 23.2083 10.8863 22.7658 10.8863C22.3233 10.8863 21.9004 10.7683 21.9004 10.4044C21.9004 10.3584 21.9096 10.3128 21.9275 10.2704C21.9454 10.228 21.9716 10.1896 22.0046 10.1575C22.0377 10.1254 22.0768 10.1003 22.1197 10.0835C22.1626 10.0668 22.2084 10.0589 22.2544 10.0602C22.3542 10.0548 22.4533 10.0788 22.5396 10.1291C22.5396 10.1291 22.5396 10.2077 22.5396 10.2766C22.5367 10.3062 22.5403 10.336 22.55 10.3641C22.5597 10.3922 22.5754 10.4178 22.5959 10.4393C22.6165 10.4607 22.6414 10.4775 22.669 10.4885C22.6966 10.4994 22.7263 10.5043 22.7559 10.5028C22.8936 10.5028 22.9526 10.4339 22.9526 10.3356C22.9526 10.2372 22.6969 10.1192 22.4216 10.0307C22.2901 10.0009 22.1712 9.93096 22.0814 9.83051C21.9915 9.73006 21.9351 9.60412 21.9201 9.47018C21.9201 9.08665 22.3724 8.86047 22.7559 8.86047C23.1395 8.86047 23.6312 9.01782 23.6312 9.34235C23.6315 9.38849 23.622 9.43416 23.6033 9.47633C23.5846 9.51851 23.5571 9.55621 23.5227 9.58692C23.4882 9.61764 23.4477 9.64065 23.4036 9.65443C23.3596 9.66822 23.3131 9.67245 23.2673 9.66686C23.1395 9.66686 23.0116 9.66687 23.0018 9.59803C22.992 9.52919 23.0018 9.52918 23.0018 9.45051C23.0018 9.37184 22.933 9.23417 22.8051 9.244C22.7608 9.244 22.7183 9.26161 22.6869 9.29296C22.6556 9.32432 22.6379 9.36684 22.6379 9.41118C22.6379 9.59803 22.8543 9.64719 23.11 9.71603C23.3657 9.78487 23.7492 9.94222 23.7492 10.2766Z" fill="white"/>
<path d="M25.9815 10.6109C25.9158 10.7046 25.822 10.7749 25.7137 10.8119C25.6054 10.8488 25.4881 10.8505 25.3788 10.8166C25.2695 10.7827 25.1738 10.7151 25.1054 10.6233C25.037 10.5316 24.9994 10.4205 24.9981 10.3061V9.5882C24.9981 9.21451 24.6245 9.34235 24.6146 9.78488V10.7683H23.8967C23.8967 10.7683 23.8967 8.53595 23.8967 8.13275H24.654V9.25383C24.7096 9.13492 24.7968 9.03354 24.906 8.96071C25.0152 8.88789 25.1423 8.84642 25.2735 8.8408C25.3477 8.84567 25.4202 8.86551 25.4865 8.89913C25.5528 8.93275 25.6116 8.97947 25.6594 9.03645C25.7072 9.09342 25.7429 9.15948 25.7645 9.23065C25.7861 9.30181 25.793 9.3766 25.7849 9.45051V10.0307C25.7357 10.6306 26.011 10.5028 25.9815 10.6109Z" fill="white"/>
<path d="M28.1451 8.17208H28.8531V10.7781H28.1451V9.58818L28.2139 9.21449C28.2139 9.29316 27.6337 10.3159 27.6337 10.3159H27.4272L26.8175 9.20464L26.8863 9.54884V10.7781H26.0996V8.75228C26.0996 8.32942 25.8439 8.40809 25.8833 8.31958C25.9472 8.23154 26.0317 8.16043 26.1294 8.11245C26.2271 8.06446 26.335 8.04105 26.4438 8.04423C26.7978 8.04423 26.9552 8.30976 27.1322 8.60478C27.3092 8.8998 27.496 9.31282 27.496 9.31282L28.1451 8.17208Z" fill="white"/>
<path d="M31.2821 10.6109C31.2384 10.7177 31.1599 10.8066 31.0593 10.8631C30.9587 10.9197 30.8419 10.9405 30.7279 10.9223C30.614 10.904 30.5096 10.8478 30.4316 10.7627C30.3537 10.6776 30.3068 10.5687 30.2987 10.4535C30.2512 10.5712 30.1716 10.6733 30.0691 10.748C29.9665 10.8227 29.845 10.8672 29.7185 10.8764C29.2464 10.8764 28.9907 10.3552 28.9907 9.89301C28.9907 9.43081 29.2464 8.90961 29.7381 8.90961C29.8538 8.9113 29.9667 8.94537 30.0641 9.00794C30.1614 9.07051 30.2392 9.15908 30.2888 9.26363V9.00794H31.0952C31.0952 9.00794 31.0952 9.85368 31.0952 10.1094C31.0952 10.6404 31.3116 10.5126 31.2821 10.6109ZM30.2987 9.86351C30.2987 9.58816 30.2003 9.36197 30.0233 9.36197C29.8463 9.36197 29.7381 9.58816 29.7381 9.86351C29.7381 10.1389 29.8365 10.365 30.0233 10.365C30.2102 10.365 30.338 10.1389 30.338 9.86351H30.2987Z" fill="white"/>
<path d="M32.9442 9.2735C32.9484 9.33574 32.9394 9.39817 32.9178 9.4567C32.8962 9.51522 32.8625 9.56851 32.8189 9.61309C32.7752 9.65766 32.7226 9.69251 32.6646 9.71533C32.6065 9.73816 32.5443 9.74844 32.482 9.74553C32.4135 9.74577 32.3471 9.72135 32.2951 9.6767C32.2951 9.6767 32.2951 9.61769 32.2951 9.53902C32.2951 9.46035 32.2952 9.38167 32.2165 9.38167C32.1378 9.38167 32.0984 9.56852 32.0984 9.7947V10.7781H31.3511C31.3511 10.7781 31.3511 9.94221 31.3511 9.68652C31.3511 9.09648 31.0954 9.21449 31.1347 9.11615C31.1778 9.00971 31.2555 8.92089 31.3553 8.86398C31.455 8.80706 31.571 8.78538 31.6846 8.80241C31.7981 8.81945 31.9026 8.87421 31.9813 8.95788C32.0599 9.04156 32.1082 9.14927 32.1181 9.26367C32.1482 9.15817 32.2076 9.06336 32.2894 8.99025C32.3712 8.91715 32.4721 8.86874 32.5803 8.85064C32.632 8.85437 32.6825 8.86827 32.7288 8.89157C32.7751 8.91488 32.8164 8.94711 32.8502 8.98641C32.884 9.02571 32.9097 9.0713 32.9259 9.12057C32.942 9.16984 32.9482 9.22181 32.9442 9.2735V9.2735Z" fill="white"/>
<path d="M34.3405 10.4634C34.2028 10.4634 33.9668 10.5323 33.9275 10.2274C33.8882 9.92256 33.9275 9.66687 33.9275 9.24401H34.37V8.92931H33.9177C33.9177 8.61462 33.9177 8.35895 33.9177 8.35895L33.2096 8.65396V8.92931H33.0129V9.27351H33.2096V10.3159C33.2029 10.4124 33.2222 10.5089 33.2654 10.5953C33.3086 10.6818 33.3743 10.7551 33.4555 10.8076C33.557 10.8664 33.6725 10.8969 33.7898 10.8961C33.9161 10.8998 34.0412 10.871 34.1531 10.8124C34.265 10.7539 34.36 10.6676 34.429 10.5618C34.4192 10.5126 34.4093 10.4634 34.3405 10.4634Z" fill="white"/>
<defs>
<clipPath id="clip0">
<rect width="71.7886" height="32" fill="white"/>
</clipPath>
</defs>
</svg>
