<svg width="72" height="32" viewBox="0 0 72 32" fill="none" xmlns="http://www.w3.org/2000/svg">
<g clip-path="url(#clip0)">
<path d="M71.5032 22.7954C71.5032 22.7954 71.5622 22.4315 71.5032 22.5495C70.9426 18.0652 69.1627 17.5735 66.7041 16.2852C65.1866 15.4933 63.6273 14.7842 62.033 14.1611H61.2954C61.2954 14.1611 59.3974 12.3516 52.6316 5.95948C45.8658 -0.432652 43.9678 4.8881e-05 43.9678 4.8881e-05H5.13317C1.76009 4.8881e-05 1.26839 4.48437 0.530838 13.5809C0.0960597 17.8473 -0.0681696 22.137 0.0391355 26.4241L8.57508 28.3319C8.57508 28.1156 8.57508 27.8992 8.57508 27.6829C8.63778 26.1352 9.29669 24.6718 10.4139 23.5989C11.5311 22.5261 13.02 21.927 14.5689 21.927C16.1179 21.927 17.6067 22.5261 18.724 23.5989C19.8412 24.6718 20.5001 26.1352 20.5628 27.6829C20.5628 27.8796 20.5628 28.0763 20.5628 28.2729H54.9033C54.8932 28.0764 54.8932 27.8794 54.9033 27.6829C54.9033 26.0945 55.5343 24.5712 56.6574 23.4481C57.7805 22.3249 59.3038 21.694 60.8922 21.694C62.4806 21.694 64.0039 22.3249 65.1271 23.4481C66.2502 24.5712 66.8812 26.0945 66.8812 27.6829C66.8785 28.0554 66.8456 28.427 66.7828 28.7941L67.009 29.0105C67.7356 28.5088 68.4945 28.0554 69.2807 27.6534C70.0263 27.2632 70.8025 26.9343 71.6015 26.67L71.8474 22.8347L71.5032 22.7954Z" fill="#96C93D"/>
<path d="M14.4756 32.0098C16.8816 32.0098 18.8321 30.0594 18.8321 27.6534C18.8321 25.2473 16.8816 23.2969 14.4756 23.2969C12.0696 23.2969 10.1191 25.2473 10.1191 27.6534C10.1191 30.0594 12.0696 32.0098 14.4756 32.0098Z" fill="#96C93D"/>
<path d="M14.4757 30.6134C16.1105 30.6134 17.4357 29.2881 17.4357 27.6533C17.4357 26.0186 16.1105 24.6933 14.4757 24.6933C12.8409 24.6933 11.5156 26.0186 11.5156 27.6533C11.5156 29.2881 12.8409 30.6134 14.4757 30.6134Z" stroke="white" stroke-width="0.25" stroke-miterlimit="10"/>
<path d="M14.4757 29.9152C15.7249 29.9152 16.7375 28.9025 16.7375 27.6534C16.7375 26.4042 15.7249 25.3915 14.4757 25.3915C13.2265 25.3915 12.2139 26.4042 12.2139 27.6534C12.2139 28.9025 13.2265 29.9152 14.4757 29.9152Z" stroke="white" stroke-width="0.25" stroke-miterlimit="10"/>
<path d="M60.6763 32.0098C63.0823 32.0098 65.0328 30.0594 65.0328 27.6534C65.0328 25.2473 63.0823 23.2969 60.6763 23.2969C58.2703 23.2969 56.3198 25.2473 56.3198 27.6534C56.3198 30.0594 58.2703 32.0098 60.6763 32.0098Z" fill="#96C93D"/>
<path d="M60.6759 30.6134C62.3107 30.6134 63.6359 29.2881 63.6359 27.6533C63.6359 26.0186 62.3107 24.6933 60.6759 24.6933C59.0411 24.6933 57.7158 26.0186 57.7158 27.6533C57.7158 29.2881 59.0411 30.6134 60.6759 30.6134Z" stroke="white" stroke-width="0.25" stroke-miterlimit="10"/>
<path d="M60.6759 29.9152C61.9251 29.9152 62.9377 28.9025 62.9377 27.6534C62.9377 26.4042 61.9251 25.3915 60.6759 25.3915C59.4267 25.3915 58.4141 26.4042 58.4141 27.6534C58.4141 28.9025 59.4267 29.9152 60.6759 29.9152Z" stroke="white" stroke-width="0.25" stroke-miterlimit="10"/>
<path d="M0 22.402H11.6829" stroke="white" stroke-width="0.25" stroke-miterlimit="10"/>
<path d="M17.4355 22.402L57.3126 22.8445" stroke="white" stroke-width="0.25" stroke-miterlimit="10"/>
<path d="M19.8745 24.9096L55.3066 25.3816" stroke="white" stroke-width="0.25" stroke-miterlimit="10"/>
<path d="M71.7885 22.8052L64.354 22.8347" stroke="white" stroke-width="0.25" stroke-miterlimit="10"/>
<path d="M24.1919 0V28.2729" stroke="white" stroke-width="0.25" stroke-miterlimit="10"/>
<path d="M43.1123 0V28.2729" stroke="white" stroke-width="0.25" stroke-miterlimit="10"/>
<path d="M4.05154 0.196655C4.05154 0.196655 2.98947 4.13027 2.74362 12.6859C2.49777 21.2415 2.57643 24.0246 2.57643 24.0246C2.57576 24.1181 2.59502 24.2108 2.63294 24.2963C2.67086 24.3818 2.72657 24.4583 2.79635 24.5206C2.86613 24.583 2.94836 24.6297 3.03761 24.6578C3.12687 24.6859 3.22109 24.6946 3.31398 24.6834H9.38161" stroke="white" stroke-width="0.25" stroke-miterlimit="10"/>
<path d="M0.432617 14.8494H2.56661" stroke="white" stroke-width="0.25" stroke-miterlimit="10"/>
<path d="M2.63574 16.7375C2.63574 16.7375 25.2541 16.9637 54.0482 19.6091" stroke="white" stroke-width="0.25" stroke-miterlimit="10"/>
<path d="M45.9544 28.2729C45.4558 26.9815 45.1798 25.6148 45.1382 24.2311C44.9317 21.4481 44.8235 18.8224 44.8235 18.8224H44.44L43.8696 5.25139C43.8696 5.25139 50.665 5.07437 52.2286 6.4413C53.7922 7.80823 59.6828 14.3085 59.6828 14.3085L61.2956 14.1512" stroke="white" stroke-width="0.25" stroke-miterlimit="10"/>
<path d="M53.7134 28.2729C53.7134 28.2729 54.1264 22.3725 58.2961 20.6712C59.6287 20.0264 61.1507 19.8895 62.577 20.2859C64.0034 20.6823 65.2364 21.5849 66.0453 22.8248" stroke="white" stroke-width="0.25" stroke-miterlimit="10"/>
<path d="M69.4971 21.1432V22.815" stroke="white" stroke-width="0.25" stroke-miterlimit="10"/>
<path d="M69.7626 18.1733C68.8361 18.0448 67.8962 18.0448 66.9697 18.1733C66.9697 18.4585 67.7466 20.6122 71.4344 22.107" stroke="white" stroke-width="0.25" stroke-miterlimit="10"/>
<path d="M3.59912 24.6835V27.2108" stroke="white" stroke-width="0.25" stroke-miterlimit="10"/>
<path d="M57.7158 20.9662V15.6165" stroke="white" stroke-width="0.25" stroke-miterlimit="10"/>
<path d="M60.6761 16.1278L48.8261 14.161C48.8261 14.161 45.63 13.8562 45.3842 11.0633C45.1383 8.27045 45.0498 6.02827 45.0498 6.02827C45.0498 6.02827 49.7308 5.82177 51.2649 6.52982C51.8347 6.86457 52.3489 7.28591 52.7892 7.77873L60.6761 16.1278Z" stroke="white" stroke-width="0.25" stroke-miterlimit="10"/>
<path d="M51.5894 6.68713L52.8579 14.8199" stroke="white" stroke-width="0.25" stroke-miterlimit="10"/>
<path d="M59.1418 14.5052L57.7158 15.6165" stroke="white" stroke-width="0.25" stroke-miterlimit="10"/>
<path d="M54.6479 15.1149V11.85L55.7395 10.8863" stroke="white" stroke-width="0.25" stroke-miterlimit="10"/>
<path d="M60.6763 16.1377L66.9799 18.1733" stroke="white" stroke-width="0.25" stroke-miterlimit="10"/>
<path d="M5.96915 5.46771H41.293C41.293 5.46771 42.0011 5.46771 41.8339 6.66747C41.5389 8.63428 40.8505 14.1315 40.8505 14.1315C40.8505 14.1315 40.7227 15.3411 39.0902 15.3411H4.05149C4.05149 15.3411 3.06808 15.3411 3.2746 13.7873C3.48111 12.2335 4.09084 7.88688 4.09084 7.88688C4.09084 7.88688 4.41537 5.46771 5.96915 5.46771Z" stroke="white" stroke-width="0.25" stroke-miterlimit="10"/>
<path d="M3.25488 14.3675H24.1916" stroke="white" stroke-width="0.5" stroke-miterlimit="10"/>
<path d="M39.2969 16.6589H42.2471" stroke="white" stroke-width="0.5" stroke-miterlimit="10"/>
<path d="M45.0498 16.6589H48" stroke="white" stroke-width="0.5" stroke-miterlimit="10"/>
<path d="M8.83086 9.76521H9.2144C9.27945 9.11734 9.56804 8.51233 10.0306 8.05408L10.1192 7.96558C10.1192 7.96558 10.1192 7.89675 10.1192 7.84758C10.1236 7.61552 10.188 7.38856 10.306 7.1887L10.4142 7.07068C9.91952 7.33616 9.49872 7.72058 9.18971 8.18925C8.88069 8.65793 8.69317 9.19615 8.64404 9.75539H8.82105" fill="white"/>
<path d="M13.7775 7.45427C13.8022 7.51741 13.8352 7.57696 13.8758 7.63129C13.9653 7.7647 14.0101 7.92312 14.0036 8.08365C14.4633 8.54286 14.7485 9.14797 14.81 9.79478H15.3607C15.3104 9.21443 15.111 8.65692 14.7819 8.17623C14.4529 7.69555 14.0052 7.308 13.4824 7.05109C13.593 7.17523 13.6857 7.31425 13.7578 7.46411" fill="white"/>
<path d="M10.2765 8.9883C10.2765 8.9883 10.2765 8.93912 10.2765 8.91946C10.2535 8.88112 10.2272 8.84492 10.1978 8.81128C10.1385 8.73761 10.0919 8.6545 10.0601 8.56543C9.77832 8.92975 9.60456 9.3659 9.55859 9.82419C9.74369 9.84324 9.92755 9.87279 10.1093 9.91269C10.1388 9.66378 10.2085 9.42132 10.3158 9.19481C10.307 9.12625 10.307 9.05686 10.3158 8.9883" fill="white"/>
<path d="M14.4858 9.82415C14.4352 9.31551 14.2292 8.8348 13.8958 8.44739C13.8445 8.53864 13.7887 8.62724 13.7286 8.7129C13.6732 8.78755 13.6239 8.86648 13.5811 8.94892C13.7892 9.23688 13.9119 9.57774 13.9351 9.93232C14.117 9.89325 14.3008 9.86371 14.4858 9.84382" fill="white"/>
<path d="M13.2072 10.1094L13.5318 10.0012C13.525 9.79202 13.4712 9.58701 13.3744 9.40137L13.2957 9.46037L13.1089 9.58822C13.1725 9.73408 13.206 9.89128 13.2072 10.0504V10.1094" fill="white"/>
<path d="M10.9058 9.61775C10.8132 9.61705 10.7234 9.58594 10.6502 9.52924V9.52924C10.5831 9.68474 10.5464 9.85164 10.542 10.0209L10.8665 10.1291V10.0603C10.8628 9.91121 10.8931 9.76324 10.955 9.62758" fill="white"/>
<path d="M12.4106 9.41121C12.5778 9.41121 12.627 9.48988 12.8138 9.41121C13.0007 9.33254 13.2662 9.13585 13.2662 9.06701C13.2662 8.61465 13.9447 8.29013 13.6497 7.82793C13.5517 7.6239 13.4296 7.4324 13.2859 7.25755C13.1777 7.16905 13.04 7.20838 12.9318 7.11988C12.8236 7.03137 12.7253 6.93302 12.6073 6.85435C12.3024 6.64784 11.3584 6.66751 11.1322 7.00187C10.906 7.33623 10.7585 7.23788 10.6208 7.42473C10.4831 7.61158 10.5225 8.01478 10.434 8.2803C10.3454 8.54582 10.4831 8.55565 10.6011 8.81133C10.7192 9.06702 10.6011 9.08669 10.6896 9.18503C10.7782 9.28337 10.8765 9.25386 10.9552 9.31286C11.0338 9.37187 11.1617 9.23419 11.26 9.31286C11.314 9.37384 11.3865 9.41549 11.4664 9.43147C11.5463 9.44745 11.6292 9.43689 11.7026 9.40138C11.7026 9.1457 12.4204 9.1457 12.4106 9.40138" fill="white"/>
<path d="M12.5876 8.04427L12.3615 8.15245C12.2926 7.9361 12.1647 7.77875 12.0271 7.77875C11.8894 7.77875 11.7517 7.92626 11.6829 8.15245C11.5123 8.06011 11.3347 7.98119 11.1519 7.91642C11.1519 7.91642 11.3289 8.07377 11.3977 8.15245C11.5174 8.29858 11.5926 8.47612 11.6141 8.66382C11.6141 8.90967 11.614 9.16535 11.6632 9.42103C11.6632 9.52921 11.6632 9.63739 11.6632 9.7554C11.6632 9.87341 11.6632 10.2471 11.6632 10.493L12.0271 10.7093L12.4008 10.4831C12.3859 10.2342 12.3859 9.98464 12.4008 9.73573V9.4112C12.4008 9.16535 12.4008 8.90967 12.4598 8.66382C12.4841 8.47507 12.5627 8.29743 12.686 8.15245C12.7548 8.07377 12.9417 7.92626 12.9318 7.91642C12.8223 7.94678 12.7167 7.98968 12.6171 8.04427" fill="white"/>
<path d="M13.394 10.9453C13.1514 11.0347 12.9176 11.1467 12.6958 11.2796V11.2796C12.9042 11.1362 13.1246 11.0112 13.3547 10.9059" fill="white"/>
<path d="M15.3609 10.0799C15.3705 10.2174 15.3705 10.3554 15.3609 10.4929C14.6817 10.5113 14.013 10.6651 13.394 10.9453C13.1514 11.0348 12.9176 11.1467 12.6958 11.2797C12.5665 11.1425 12.4249 11.0175 12.2729 10.906V10.906C13.158 10.3561 14.1813 10.0696 15.2232 10.0799H15.3609Z" fill="white"/>
<path d="M15.223 11.142C15.2662 11.0204 15.2991 10.8954 15.3214 10.7683C14.4677 10.7985 13.6383 11.0602 12.9219 11.5255C13.0451 11.6673 13.1568 11.8185 13.2562 11.9779V11.9779L13.3743 11.8992C13.9278 11.5148 14.5589 11.2563 15.223 11.142Z" fill="white"/>
<path d="M15.1052 11.4469C14.993 11.702 14.8511 11.943 14.6823 12.1648V12.1648C14.2944 12.3023 13.9346 12.5089 13.6202 12.7745C13.5636 12.5869 13.4878 12.4057 13.394 12.2336C13.9021 11.8529 14.4854 11.5848 15.1052 11.4469" fill="white"/>
<path d="M13.394 13.1481C13.2233 13.2297 13.0455 13.2956 12.8629 13.3448C12.7272 12.7827 12.4472 12.2656 12.0505 11.8448C11.6539 11.424 11.1543 11.114 10.6011 10.9453C9.98327 10.6618 9.3139 10.5078 8.63428 10.493C8.63428 10.3553 8.63428 10.2176 8.63428 10.0799H8.82113C9.99991 10.0635 11.1511 10.4368 12.0959 11.142C12.498 11.4669 12.8322 11.8679 13.0793 12.3221C13.2215 12.5887 13.3273 12.8731 13.394 13.1678" fill="white"/>
<path d="M12.4694 13.4235C12.319 13.4385 12.1675 13.4385 12.0171 13.4235H11.9187C11.9187 13.3645 11.8696 13.2957 11.8401 13.2268C11.6091 12.658 11.1934 12.1834 10.66 11.8796C10.1108 11.4918 9.48292 11.2299 8.821 11.1125V11.1125C8.821 10.9945 8.75216 10.8667 8.72266 10.7388C9.66471 10.7684 10.5747 11.0878 11.3287 11.6534C11.9056 12.0796 12.3132 12.6962 12.4793 13.394" fill="white"/>
<path d="M10.6502 12.2435C10.1417 11.8572 9.55397 11.5885 8.9292 11.4567V11.4567C9.04263 11.7102 9.18805 11.9482 9.3619 12.1648C9.95303 12.3756 10.4716 12.7509 10.8567 13.2465C11.1004 13.3398 11.3548 13.4025 11.6139 13.4334C11.3837 12.9652 11.0469 12.5577 10.6305 12.2435" fill="white"/>
<path d="M18.5078 8.16225C18.5496 8.28236 18.5432 8.41399 18.49 8.52952C18.4369 8.64504 18.341 8.73546 18.2226 8.7818C17.9903 8.84091 17.7468 8.84091 17.5145 8.7818V9.25383H18.1144V9.64721H17.5047V9.97173C17.5047 10.5618 17.7899 10.4339 17.7505 10.5421C17.7012 10.6296 17.6299 10.7029 17.5437 10.7546C17.4575 10.8063 17.3593 10.8347 17.2588 10.8371C16.954 10.8371 16.6885 10.6503 16.6885 10.1881C16.6885 9.72587 16.6885 8.12292 16.6885 8.12292H18.4488L18.5078 8.16225Z" fill="white"/>
<path d="M20.0221 9.2735C20.0263 9.33574 20.0173 9.39817 19.9957 9.4567C19.9741 9.51522 19.9404 9.56851 19.8967 9.61309C19.8531 9.65766 19.8005 9.69251 19.7425 9.71533C19.6844 9.73816 19.6222 9.74844 19.5599 9.74553C19.4913 9.74577 19.425 9.72135 19.373 9.6767C19.373 9.6767 19.373 9.61769 19.373 9.53902C19.373 9.46035 19.373 9.38167 19.2944 9.38167C19.2157 9.38167 19.1764 9.56852 19.1764 9.7947V10.7781H18.429C18.429 10.7781 18.429 9.94221 18.429 9.68652C18.429 9.09648 18.1733 9.21449 18.2126 9.11615C18.2557 9.00971 18.3334 8.92089 18.4331 8.86398C18.5329 8.80706 18.6489 8.78538 18.7624 8.80241C18.876 8.81945 18.9805 8.87421 19.0592 8.95788C19.1378 9.04156 19.186 9.14927 19.196 9.26367C19.2261 9.15817 19.2855 9.06336 19.3673 8.99025C19.4492 8.91715 19.55 8.86874 19.6582 8.85064C19.7099 8.85437 19.7604 8.86827 19.8067 8.89157C19.853 8.91488 19.8943 8.94711 19.9281 8.98641C19.9619 9.02571 19.9876 9.0713 20.0037 9.12057C20.0199 9.16984 20.0261 9.22181 20.0221 9.2735V9.2735Z" fill="white"/>
<path d="M21.861 10.2864C21.7849 10.4608 21.6599 10.6093 21.5011 10.7141C21.3422 10.8188 21.1564 10.8752 20.9662 10.8765C20.8331 10.8732 20.7021 10.8438 20.5804 10.7899C20.4587 10.736 20.3489 10.6587 20.2571 10.5624C20.1653 10.466 20.0934 10.3526 20.0455 10.2285C19.9976 10.1043 19.9746 9.97197 19.9778 9.83895C19.9811 9.70594 20.0104 9.57486 20.0643 9.4532C20.1182 9.33155 20.1955 9.2217 20.2919 9.12992C20.3882 9.03815 20.5017 8.96625 20.6258 8.91833C20.75 8.87041 20.8823 8.84741 21.0153 8.85064C21.625 8.85064 21.8906 9.23416 21.8906 9.49968C21.8906 10.0799 21.212 10.1487 20.7301 10.0701C20.858 10.4437 21.3497 10.4831 21.802 10.2274H21.8512C21.8512 10.2274 21.8709 10.2471 21.861 10.2864ZM20.7006 9.74553C21.0251 9.74553 21.1923 9.64718 21.1923 9.4505C21.1925 9.42551 21.1874 9.40077 21.1773 9.37791C21.1672 9.35504 21.1523 9.33456 21.1337 9.31784C21.1152 9.30112 21.0933 9.28852 21.0695 9.28088C21.0457 9.27324 21.0205 9.27072 20.9957 9.2735H20.9072C20.8324 9.32996 20.774 9.40519 20.7377 9.49154C20.7014 9.5779 20.6886 9.67231 20.7006 9.7652V9.74553Z" fill="white"/>
<path d="M23.7492 10.2766C23.7492 10.7289 23.2083 10.8863 22.7658 10.8863C22.3233 10.8863 21.9004 10.7683 21.9004 10.4044C21.9004 10.3584 21.9096 10.3128 21.9275 10.2704C21.9454 10.228 21.9716 10.1896 22.0046 10.1575C22.0377 10.1254 22.0768 10.1003 22.1197 10.0835C22.1626 10.0668 22.2084 10.0589 22.2544 10.0602C22.3542 10.0548 22.4533 10.0788 22.5396 10.1291C22.5396 10.1291 22.5396 10.2077 22.5396 10.2766C22.5367 10.3062 22.5403 10.336 22.55 10.3641C22.5597 10.3922 22.5754 10.4178 22.5959 10.4393C22.6165 10.4607 22.6414 10.4775 22.669 10.4885C22.6966 10.4994 22.7263 10.5043 22.7559 10.5028C22.8936 10.5028 22.9526 10.4339 22.9526 10.3356C22.9526 10.2372 22.6969 10.1192 22.4216 10.0307C22.2901 10.0009 22.1712 9.93096 22.0814 9.83051C21.9915 9.73006 21.9351 9.60412 21.9201 9.47018C21.9201 9.08665 22.3724 8.86047 22.7559 8.86047C23.1395 8.86047 23.6312 9.01782 23.6312 9.34235C23.6315 9.38849 23.622 9.43416 23.6033 9.47633C23.5846 9.51851 23.5571 9.55621 23.5227 9.58692C23.4882 9.61764 23.4477 9.64065 23.4036 9.65443C23.3596 9.66822 23.3131 9.67245 23.2673 9.66686C23.1395 9.66686 23.0116 9.66687 23.0018 9.59803C22.992 9.52919 23.0018 9.52918 23.0018 9.45051C23.0018 9.37184 22.933 9.23417 22.8051 9.244C22.7608 9.244 22.7183 9.26161 22.6869 9.29296C22.6556 9.32432 22.6379 9.36684 22.6379 9.41118C22.6379 9.59803 22.8543 9.64719 23.11 9.71603C23.3657 9.78487 23.7492 9.94222 23.7492 10.2766Z" fill="white"/>
<path d="M25.9818 10.6109C25.916 10.7046 25.8222 10.7749 25.7139 10.8119C25.6056 10.8488 25.4884 10.8505 25.3791 10.8166C25.2698 10.7827 25.174 10.7151 25.1056 10.6233C25.0372 10.5316 24.9997 10.4205 24.9984 10.3061V9.5882C24.9984 9.21451 24.6247 9.34235 24.6149 9.78488V10.7683H23.897C23.897 10.7683 23.897 8.53595 23.897 8.13275H24.6542V9.25383C24.7098 9.13492 24.797 9.03354 24.9062 8.96071C25.0155 8.88789 25.1426 8.84642 25.2737 8.8408C25.3479 8.84567 25.4204 8.86551 25.4867 8.89913C25.553 8.93275 25.6119 8.97947 25.6596 9.03645C25.7074 9.09342 25.7432 9.15948 25.7647 9.23065C25.7863 9.30181 25.7933 9.3766 25.7851 9.45051V10.0307C25.736 10.6306 26.0113 10.5028 25.9818 10.6109Z" fill="white"/>
<path d="M28.1448 8.17208H28.8529V10.7781H28.1448V9.58818L28.2137 9.21449C28.2137 9.29316 27.6335 10.3159 27.6335 10.3159H27.4269L26.8172 9.20464L26.8861 9.54884V10.7781H26.0994V8.75228C26.0994 8.32942 25.8437 8.40809 25.883 8.31958C25.947 8.23154 26.0315 8.16043 26.1292 8.11245C26.2269 8.06446 26.3348 8.04105 26.4435 8.04423C26.7976 8.04423 26.9549 8.30976 27.1319 8.60478C27.3089 8.8998 27.4958 9.31282 27.4958 9.31282L28.1448 8.17208Z" fill="white"/>
<path d="M31.2821 10.6109C31.2384 10.7177 31.1599 10.8066 31.0593 10.8631C30.9587 10.9197 30.8419 10.9405 30.7279 10.9223C30.614 10.904 30.5096 10.8478 30.4316 10.7627C30.3537 10.6776 30.3068 10.5687 30.2987 10.4535C30.2512 10.5712 30.1716 10.6733 30.0691 10.748C29.9665 10.8227 29.845 10.8672 29.7185 10.8764C29.2464 10.8764 28.9907 10.3552 28.9907 9.89301C28.9907 9.43081 29.2464 8.90961 29.7381 8.90961C29.8538 8.9113 29.9667 8.94537 30.0641 9.00794C30.1614 9.07051 30.2392 9.15908 30.2888 9.26363V9.00794H31.0952C31.0952 9.00794 31.0952 9.85368 31.0952 10.1094C31.0952 10.6404 31.3116 10.5126 31.2821 10.6109ZM30.2987 9.86351C30.2987 9.58816 30.2003 9.36197 30.0233 9.36197C29.8463 9.36197 29.7381 9.58816 29.7381 9.86351C29.7381 10.1389 29.8365 10.365 30.0233 10.365C30.2102 10.365 30.338 10.1389 30.338 9.86351H30.2987Z" fill="white"/>
<path d="M32.9439 9.2735C32.9482 9.33574 32.9392 9.39817 32.9176 9.4567C32.896 9.51522 32.8623 9.56851 32.8186 9.61309C32.775 9.65766 32.7224 9.69251 32.6643 9.71533C32.6063 9.73816 32.5441 9.74844 32.4817 9.74553C32.4132 9.74577 32.3469 9.72135 32.2949 9.6767C32.2949 9.6767 32.2949 9.61769 32.2949 9.53902C32.2949 9.46035 32.2949 9.38167 32.2162 9.38167C32.1376 9.38167 32.0982 9.56852 32.0982 9.7947V10.7781H31.3508C31.3508 10.7781 31.3508 9.94221 31.3508 9.68652C31.3508 9.09648 31.0951 9.21449 31.1345 9.11615C31.1776 9.00971 31.2553 8.92089 31.355 8.86398C31.4547 8.80706 31.5708 8.78538 31.6843 8.80241C31.7979 8.81945 31.9024 8.87421 31.981 8.95788C32.0597 9.04156 32.1079 9.14927 32.1179 9.26367C32.148 9.15817 32.2074 9.06336 32.2892 8.99025C32.371 8.91715 32.4719 8.86874 32.5801 8.85064C32.6318 8.85437 32.6822 8.86827 32.7286 8.89157C32.7749 8.91488 32.8161 8.94711 32.85 8.98641C32.8838 9.02571 32.9095 9.0713 32.9256 9.12057C32.9417 9.16984 32.948 9.22181 32.9439 9.2735V9.2735Z" fill="white"/>
<path d="M34.3403 10.4634C34.2026 10.4634 33.9666 10.5323 33.9273 10.2274C33.8879 9.92256 33.9273 9.66687 33.9273 9.24401H34.3698V8.92931H33.9174C33.9174 8.61462 33.9174 8.35895 33.9174 8.35895L33.2094 8.65396V8.92931H33.0127V9.27351H33.2094V10.3159C33.2026 10.4124 33.2219 10.5089 33.2651 10.5953C33.3084 10.6818 33.374 10.7551 33.4552 10.8076C33.5568 10.8664 33.6722 10.8969 33.7896 10.8961C33.9158 10.8998 34.0409 10.871 34.1528 10.8124C34.2648 10.7539 34.3598 10.6676 34.4288 10.5618C34.419 10.5126 34.4091 10.4634 34.3403 10.4634Z" fill="white"/>
</g>
<defs>
<clipPath id="clip0">
<rect width="71.7886" height="32" fill="white"/>
</clipPath>
</defs>
</svg>
