<svg width="24" height="24" viewBox="0 0 24 24" fill="none" xmlns="http://www.w3.org/2000/svg">
<path d="M17.7513 1.86208C17.5589 0.919047 16.7234 0.206909 15.7241 0.206909C15.4953 0.206909 15.3103 0.391875 15.3103 0.620702C15.3103 0.84953 15.4953 1.0345 15.7241 1.0345C16.4086 1.0345 16.9655 1.59146 16.9655 2.27587C16.9655 2.96029 16.4086 3.51725 15.7241 3.51725C15.4953 3.51725 15.3103 3.70222 15.3103 3.93105C15.3103 4.15987 15.4953 4.34484 15.7241 4.34484C16.723 4.34484 17.5589 3.6327 17.7513 2.68967H23.1724V6.41381H0.827586V2.68967H6.62069H7.86207C8.0909 2.68967 8.27586 2.5047 8.27586 2.27587C8.27586 2.04705 8.0909 1.86208 7.86207 1.86208H7.11062C7.28193 1.38125 7.7371 1.0345 8.27586 1.0345C8.96028 1.0345 9.51724 1.59146 9.51724 2.27587C9.51724 2.96029 8.96028 3.51725 8.27586 3.51725C8.04703 3.51725 7.86207 3.70222 7.86207 3.93105C7.86207 4.15987 8.04703 4.34484 8.27586 4.34484C9.41669 4.34484 10.3448 3.4167 10.3448 2.27587C10.3448 1.13505 9.41669 0.206909 8.27586 0.206909C7.27697 0.206909 6.4411 0.919047 6.24869 1.86208H0V7.24139V23.7931H24V7.24139V1.86208H17.7513ZM23.1724 22.9655H0.827586V7.24139H23.1724V22.9655Z" fill="#96C93D"/>
<path d="M10.7585 1.0345C11.4429 1.0345 11.9999 1.59146 11.9999 2.27587C11.9999 2.96029 11.4429 3.51725 10.7585 3.51725C10.5297 3.51725 10.3447 3.70222 10.3447 3.93105C10.3447 4.15987 10.5297 4.34484 10.7585 4.34484C11.8993 4.34484 12.8275 3.4167 12.8275 2.27587C12.8275 1.13505 11.8993 0.206909 10.7585 0.206909C10.5297 0.206909 10.3447 0.391875 10.3447 0.620702C10.3447 0.84953 10.5297 1.0345 10.7585 1.0345Z" fill="#96C93D"/>
<path d="M13.2414 1.0345C13.9258 1.0345 14.4828 1.59146 14.4828 2.27587C14.4828 2.96029 13.9258 3.51725 13.2414 3.51725C13.0126 3.51725 12.8276 3.70222 12.8276 3.93105C12.8276 4.15987 13.0126 4.34484 13.2414 4.34484C14.3823 4.34484 15.3104 3.4167 15.3104 2.27587C15.3104 1.13505 14.3823 0.206909 13.2414 0.206909C13.0126 0.206909 12.8276 0.391875 12.8276 0.620702C12.8276 0.84953 13.0126 1.0345 13.2414 1.0345Z" fill="#96C93D"/>
<path d="M9.10349 10.5517C9.33202 10.5517 9.51728 10.3664 9.51728 10.1379C9.51728 9.90938 9.33202 9.72412 9.10349 9.72412C8.87496 9.72412 8.6897 9.90938 8.6897 10.1379C8.6897 10.3664 8.87496 10.5517 9.10349 10.5517Z" fill="#96C93D"/>
<path d="M12 10.5517C12.2285 10.5517 12.4138 10.3664 12.4138 10.1379C12.4138 9.90938 12.2285 9.72412 12 9.72412C11.7714 9.72412 11.5862 9.90938 11.5862 10.1379C11.5862 10.3664 11.7714 10.5517 12 10.5517Z" fill="#96C93D"/>
<path d="M14.8965 10.5517C15.125 10.5517 15.3103 10.3664 15.3103 10.1379C15.3103 9.90938 15.125 9.72412 14.8965 9.72412C14.6679 9.72412 14.4827 9.90938 14.4827 10.1379C14.4827 10.3664 14.6679 10.5517 14.8965 10.5517Z" fill="#96C93D"/>
<path d="M17.7932 10.5517C18.0217 10.5517 18.207 10.3664 18.207 10.1379C18.207 9.90938 18.0217 9.72412 17.7932 9.72412C17.5647 9.72412 17.3794 9.90938 17.3794 10.1379C17.3794 10.3664 17.5647 10.5517 17.7932 10.5517Z" fill="#96C93D"/>
<path d="M20.6897 10.5517C20.9182 10.5517 21.1035 10.3664 21.1035 10.1379C21.1035 9.90938 20.9182 9.72412 20.6897 9.72412C20.4611 9.72412 20.2759 9.90938 20.2759 10.1379C20.2759 10.3664 20.4611 10.5517 20.6897 10.5517Z" fill="#96C93D"/>
<path d="M3.31028 13.8621C3.53881 13.8621 3.72407 13.6768 3.72407 13.4483C3.72407 13.2197 3.53881 13.0345 3.31028 13.0345C3.08175 13.0345 2.89648 13.2197 2.89648 13.4483C2.89648 13.6768 3.08175 13.8621 3.31028 13.8621Z" fill="#96C93D"/>
<path d="M6.20701 13.8621C6.43554 13.8621 6.6208 13.6768 6.6208 13.4483C6.6208 13.2197 6.43554 13.0345 6.20701 13.0345C5.97847 13.0345 5.79321 13.2197 5.79321 13.4483C5.79321 13.6768 5.97847 13.8621 6.20701 13.8621Z" fill="#96C93D"/>
<path d="M9.10349 13.8621C9.33202 13.8621 9.51728 13.6768 9.51728 13.4483C9.51728 13.2197 9.33202 13.0345 9.10349 13.0345C8.87496 13.0345 8.6897 13.2197 8.6897 13.4483C8.6897 13.6768 8.87496 13.8621 9.10349 13.8621Z" fill="#96C93D"/>
<path d="M12 13.8621C12.2285 13.8621 12.4138 13.6768 12.4138 13.4483C12.4138 13.2197 12.2285 13.0345 12 13.0345C11.7714 13.0345 11.5862 13.2197 11.5862 13.4483C11.5862 13.6768 11.7714 13.8621 12 13.8621Z" fill="#96C93D"/>
<path d="M14.8965 13.8621C15.125 13.8621 15.3103 13.6768 15.3103 13.4483C15.3103 13.2197 15.125 13.0345 14.8965 13.0345C14.6679 13.0345 14.4827 13.2197 14.4827 13.4483C14.4827 13.6768 14.6679 13.8621 14.8965 13.8621Z" fill="#96C93D"/>
<path d="M17.7932 13.8621C18.0217 13.8621 18.207 13.6768 18.207 13.4483C18.207 13.2197 18.0217 13.0345 17.7932 13.0345C17.5647 13.0345 17.3794 13.2197 17.3794 13.4483C17.3794 13.6768 17.5647 13.8621 17.7932 13.8621Z" fill="#96C93D"/>
<path d="M20.6897 13.8621C20.9182 13.8621 21.1035 13.6768 21.1035 13.4483C21.1035 13.2197 20.9182 13.0345 20.6897 13.0345C20.4611 13.0345 20.2759 13.2197 20.2759 13.4483C20.2759 13.6768 20.4611 13.8621 20.6897 13.8621Z" fill="#96C93D"/>
<path d="M3.31028 16.7586C3.53881 16.7586 3.72407 16.5734 3.72407 16.3448C3.72407 16.1163 3.53881 15.931 3.31028 15.931C3.08175 15.931 2.89648 16.1163 2.89648 16.3448C2.89648 16.5734 3.08175 16.7586 3.31028 16.7586Z" fill="#96C93D"/>
<path d="M6.20701 16.7586C6.43554 16.7586 6.6208 16.5734 6.6208 16.3448C6.6208 16.1163 6.43554 15.931 6.20701 15.931C5.97847 15.931 5.79321 16.1163 5.79321 16.3448C5.79321 16.5734 5.97847 16.7586 6.20701 16.7586Z" fill="#96C93D"/>
<path d="M9.10349 16.7586C9.33202 16.7586 9.51728 16.5734 9.51728 16.3448C9.51728 16.1163 9.33202 15.931 9.10349 15.931C8.87496 15.931 8.6897 16.1163 8.6897 16.3448C8.6897 16.5734 8.87496 16.7586 9.10349 16.7586Z" fill="#96C93D"/>
<path d="M12 16.7586C12.2285 16.7586 12.4138 16.5734 12.4138 16.3448C12.4138 16.1163 12.2285 15.931 12 15.931C11.7714 15.931 11.5862 16.1163 11.5862 16.3448C11.5862 16.5734 11.7714 16.7586 12 16.7586Z" fill="#96C93D"/>
<path d="M14.8965 16.7586C15.125 16.7586 15.3103 16.5734 15.3103 16.3448C15.3103 16.1163 15.125 15.931 14.8965 15.931C14.6679 15.931 14.4827 16.1163 14.4827 16.3448C14.4827 16.5734 14.6679 16.7586 14.8965 16.7586Z" fill="#96C93D"/>
<path d="M17.7932 16.7586C18.0217 16.7586 18.207 16.5734 18.207 16.3448C18.207 16.1163 18.0217 15.931 17.7932 15.931C17.5647 15.931 17.3794 16.1163 17.3794 16.3448C17.3794 16.5734 17.5647 16.7586 17.7932 16.7586Z" fill="#96C93D"/>
<path d="M20.6897 16.7586C20.9182 16.7586 21.1035 16.5734 21.1035 16.3448C21.1035 16.1163 20.9182 15.931 20.6897 15.931C20.4611 15.931 20.2759 16.1163 20.2759 16.3448C20.2759 16.5734 20.4611 16.7586 20.6897 16.7586Z" fill="#96C93D"/>
<path d="M3.31028 20.069C3.53881 20.069 3.72407 19.8837 3.72407 19.6552C3.72407 19.4267 3.53881 19.2414 3.31028 19.2414C3.08175 19.2414 2.89648 19.4267 2.89648 19.6552C2.89648 19.8837 3.08175 20.069 3.31028 20.069Z" fill="#96C93D"/>
<path d="M6.20701 20.069C6.43554 20.069 6.6208 19.8837 6.6208 19.6552C6.6208 19.4267 6.43554 19.2414 6.20701 19.2414C5.97847 19.2414 5.79321 19.4267 5.79321 19.6552C5.79321 19.8837 5.97847 20.069 6.20701 20.069Z" fill="#96C93D"/>
<path d="M9.10349 20.069C9.33202 20.069 9.51728 19.8837 9.51728 19.6552C9.51728 19.4267 9.33202 19.2414 9.10349 19.2414C8.87496 19.2414 8.6897 19.4267 8.6897 19.6552C8.6897 19.8837 8.87496 20.069 9.10349 20.069Z" fill="#96C93D"/>
<path d="M12 20.069C12.2285 20.069 12.4138 19.8837 12.4138 19.6552C12.4138 19.4267 12.2285 19.2414 12 19.2414C11.7714 19.2414 11.5862 19.4267 11.5862 19.6552C11.5862 19.8837 11.7714 20.069 12 20.069Z" fill="#96C93D"/>
<path d="M14.8965 20.069C15.125 20.069 15.3103 19.8837 15.3103 19.6552C15.3103 19.4267 15.125 19.2414 14.8965 19.2414C14.6679 19.2414 14.4827 19.4267 14.4827 19.6552C14.4827 19.8837 14.6679 20.069 14.8965 20.069Z" fill="#96C93D"/>
</svg>
