<svg width="22" height="22" viewBox="0 0 22 22" fill="none" xmlns="http://www.w3.org/2000/svg">
<g clip-path="url(#clip0)">
<path d="M10.9266 21.5148C10.1602 21.5148 9.39428 21.3603 8.68493 21.0518L5.29305 19.5773C4.06594 19.0435 2.76848 18.7055 1.43675 18.5723L0.32288 18.4609C0.139491 18.4427 0 18.2884 0 18.1042V14.6102C0 14.5326 0.0252314 14.4572 0.0717966 14.3952C0.155081 14.2838 2.15144 11.6757 5.20095 12.3543C6.91606 12.7355 8.29702 13.4487 9.15345 13.98C9.77521 14.3657 10.504 14.5694 11.2612 14.5694H14.6531C15.2377 14.5694 15.7516 14.8787 16.039 15.3427L18.9603 11.9771C19.5266 11.2208 20.4532 10.7576 21.4233 10.7576H21.6416C21.7628 10.7576 21.8756 10.8187 21.9417 10.92C22.0079 11.0214 22.0184 11.1496 21.9698 11.2604L19.3276 17.265C18.75 18.5783 17.5738 19.5703 16.1815 19.9184L15.7167 20.0345L13.0126 21.1162C12.3472 21.3823 11.6368 21.5148 10.9266 21.5148ZM0.717146 17.7797L1.50814 17.8589C2.91392 17.9994 4.28359 18.3565 5.57921 18.9198L8.97088 20.3943C10.1635 20.9129 11.5389 20.9332 12.7466 20.4501L15.4728 19.3596C15.488 19.3537 15.5033 19.3488 15.5191 19.3449L16.0076 19.2226C17.1865 18.9278 18.1824 18.088 18.6712 16.9762L21.0811 11.4993C20.4641 11.5902 19.8963 11.9227 19.518 12.4269L16.2818 16.1567C16.2822 16.1706 16.2824 16.1844 16.2824 16.1985C16.2824 17.0968 15.5516 17.8277 14.6533 17.8277H9.92086C9.30566 17.8277 8.69765 17.9264 8.11404 18.1208L7.98235 17.7865L7.87096 17.4457L7.88922 17.4398C8.54421 17.2215 9.22833 17.1106 9.92086 17.1106H14.6533C15.1561 17.1106 15.5655 16.7013 15.5655 16.1983C15.5655 15.6953 15.1563 15.2861 14.6533 15.2861H11.2614C10.3705 15.2861 9.511 15.0451 8.7758 14.5891C7.96676 14.0871 6.66252 13.4136 5.04587 13.054C2.73648 12.5418 1.07469 14.3142 0.717351 14.737V17.7797H0.717146Z" fill="#534746"/>
<path d="M14.119 10.6766C13.5676 10.6766 12.9493 10.5063 12.2687 10.166C12.1862 10.1246 12.1226 10.0528 12.0914 9.96599C12.0637 9.88824 11.4231 8.04553 12.4412 6.68283C13.1811 5.69225 14.5723 5.24608 16.5785 5.35788C16.7615 5.36793 16.9073 5.5146 16.9164 5.69799C16.9235 5.84035 17.0714 9.20064 15.358 10.3194C14.9936 10.5576 14.5797 10.6766 14.119 10.6766ZM12.7259 9.5906C13.6677 10.0322 14.4205 10.0755 14.9662 9.71921C15.9822 9.05561 16.2019 7.08572 16.2072 6.06046C14.6353 6.0221 13.5651 6.37636 13.0156 7.11177C12.3616 7.98748 12.6157 9.19202 12.7259 9.5906Z" fill="#534746"/>
<path d="M8.63686 5.97919C8.00116 5.97919 7.2678 5.84298 6.62779 5.37425C5.54222 4.57875 5.04334 3.06425 5.14468 0.873018C5.15329 0.689834 5.29853 0.542548 5.48171 0.531676C5.63679 0.522855 9.30744 0.326953 10.5426 2.18095C11.1177 3.04394 11.0706 4.17423 10.4029 5.54103C10.3622 5.62411 10.2913 5.68831 10.2045 5.72011C10.1563 5.73796 9.48324 5.97919 8.63686 5.97919ZM10.0808 5.38369H10.0843H10.0808ZM5.85033 1.23713C5.81936 2.99225 6.22286 4.18859 7.05139 4.79578C8.04341 5.52257 9.39791 5.21364 9.82376 5.08953C10.311 4.03227 10.3522 3.18815 9.94602 2.57849C9.19113 1.44534 6.97734 1.2238 5.85033 1.23713Z" fill="#534746"/>
<path d="M11.436 15.1601C11.4247 15.1601 11.4134 15.1595 11.402 15.1585C11.211 15.1404 11.068 14.9753 11.0776 14.7835C11.0988 14.3617 11.1349 13.9617 11.1839 13.5826C11.333 11.0456 11.2561 5.13731 7.52063 3.50281C7.33929 3.42342 7.25642 3.21214 7.3358 3.03059C7.41498 2.84946 7.62689 2.76679 7.80802 2.84597C10.0093 3.80907 11.3942 6.20687 11.812 9.78009C11.8496 10.1003 11.8777 10.416 11.8986 10.7235C12.8824 8.23749 14.3875 7.35911 14.4771 7.30885C14.6494 7.21141 14.8681 7.27336 14.9653 7.44547C15.062 7.61778 15.0012 7.83584 14.8295 7.93307C14.7916 7.95522 12.4836 9.34028 11.9043 13.6116C11.8602 14.3422 11.7966 14.8081 11.7907 14.8508C11.7659 15.0296 11.613 15.1601 11.436 15.1601Z" fill="#534746"/>
</g>
<defs>
<clipPath id="clip0">
<rect width="22" height="22" fill="white"/>
</clipPath>
</defs>
</svg>
