<svg width="17" height="20" viewBox="0 0 17 20" fill="none" xmlns="http://www.w3.org/2000/svg">
<path d="M10.3817 19.2156H1.69361C1.24045 19.2156 0.828475 18.8387 0.828475 18.4082V1.53867C0.828475 1.10898 1.24045 0.784375 1.69361 0.784375H10.3817C10.4914 0.784375 10.5966 0.743055 10.6742 0.669506C10.7517 0.595957 10.7953 0.496202 10.7953 0.392188C10.7953 0.288173 10.7517 0.188418 10.6742 0.114869C10.5966 0.0413196 10.4914 0 10.3817 0L1.69361 0C0.782746 0 0 0.675391 0 1.53867V18.4082C0 19.2715 0.782746 20 1.69361 20H10.3817C10.4914 20 10.5966 19.9587 10.6742 19.8851C10.7517 19.8116 10.7953 19.7118 10.7953 19.6078C10.7953 19.5038 10.7517 19.404 10.6742 19.3305C10.5966 19.2569 10.4914 19.2156 10.3817 19.2156Z" fill="#96C93D"/>
<path d="M16.8936 9.51524L13.1715 5.59337C13.1352 5.55492 13.0913 5.52365 13.0423 5.50137C12.9932 5.47909 12.94 5.46623 12.8857 5.46354C12.8314 5.46086 12.7771 5.46839 12.7259 5.48571C12.6746 5.50303 12.6275 5.5298 12.5873 5.56447C12.5056 5.63675 12.4567 5.73631 12.4509 5.84214C12.4451 5.94796 12.483 6.05177 12.5564 6.13165L15.6577 9.4129H6.24663C6.13693 9.4129 6.03172 9.45422 5.95415 9.52777C5.87659 9.60132 5.83301 9.70107 5.83301 9.80509C5.83301 9.9091 5.87659 10.0089 5.95415 10.0824C6.03172 10.156 6.13693 10.1973 6.24663 10.1973H15.5877L12.5716 13.043C12.5334 13.0787 12.5031 13.1213 12.4824 13.1682C12.4616 13.2152 12.451 13.2655 12.451 13.3164C12.451 13.3673 12.4616 13.4177 12.4824 13.4646C12.5031 13.5116 12.5334 13.5541 12.5716 13.5899C12.6102 13.6259 12.6559 13.6543 12.7061 13.6735C12.7563 13.6927 12.81 13.7022 12.8641 13.7016C12.9186 13.7013 12.9724 13.6908 13.0225 13.6707C13.0727 13.6506 13.1181 13.6212 13.1562 13.5844L16.8788 10.0539C16.9531 9.98278 16.996 9.88745 16.9988 9.78737C17.0015 9.68728 16.9639 9.58996 16.8936 9.51524Z" fill="#96C93D"/>
</svg>
