<svg width="84" height="11" viewBox="0 0 84 11" fill="none" xmlns="http://www.w3.org/2000/svg">
<path d="M69 6.51852L66.5625 4.07406V0.407424H64.9375V2.44445L62.5 0L56 6.51852V6.92594H57.625V11H61.6875V8.55555H63.3125V11H67.375V6.92594H69V6.51852Z" fill="#96C93D"/>
<path d="M15.3413 3.3911C15.521 3.5109 16.0479 3.8824 16.9461 4.5054C17.8323 5.1285 18.5149 5.5959 18.994 5.9314C19.0419 5.9673 19.1617 6.0512 19.3293 6.171C19.497 6.2908 19.6407 6.3867 19.7485 6.4706C19.8563 6.5425 19.9999 6.6264 20.1557 6.7222C20.3114 6.8181 20.4671 6.89 20.5988 6.9379C20.7425 6.9858 20.8742 7.0098 20.994 7.0098H21.006C21.1257 7.0098 21.2575 6.9858 21.4012 6.9379C21.5449 6.89 21.6886 6.8181 21.8443 6.7222C21.9999 6.6264 22.1437 6.5425 22.2515 6.4706C22.3592 6.3987 22.503 6.2908 22.6707 6.171C22.8383 6.0512 22.9461 5.9673 23.006 5.9314C23.4851 5.5959 24.7066 4.7571 26.6586 3.3911C27.0419 3.1275 27.3533 2.8039 27.6047 2.4325C27.8563 2.061 27.988 1.6656 27.988 1.2582C27.988 0.9107 27.8682 0.6231 27.6167 0.3715C27.3652 0.1318 27.0778 0 26.7425 0H15.2455C14.8503 0 14.5389 0.1318 14.3233 0.4074C14.1078 0.671 14 1.0185 14 1.4259C14 1.7495 14.1437 2.1089 14.4311 2.4924C14.7186 2.8758 15.0179 3.1754 15.3413 3.3911Z" fill="#96C93D"/>
<path d="M27.2096 4.22981C25.4969 5.38021 24.2035 6.27891 23.3173 6.91391C23.018 7.12961 22.7785 7.30941 22.5988 7.42921C22.4192 7.54901 22.1677 7.68081 21.8563 7.80061C21.5449 7.93251 21.2575 7.99241 20.994 7.99241H20.982C20.7185 7.99241 20.4311 7.93251 20.1197 7.80061C19.8203 7.68081 19.5688 7.54901 19.3892 7.42921C19.2095 7.30941 18.958 7.14161 18.6707 6.91391C17.9641 6.39871 16.6706 5.50001 14.7904 4.21791C14.491 4.01421 14.2275 3.79851 14 3.53491V9.74181C14 10.0893 14.1198 10.3769 14.3713 10.6285C14.6108 10.8682 14.9102 11 15.2575 11H26.7425C27.0898 11 27.3772 10.8802 27.6287 10.6285C27.8682 10.3889 28 10.0893 28 9.74181V3.54681C27.7605 3.79851 27.5089 4.02611 27.2096 4.22981Z" fill="#96C93D"/>
<path d="M53.7571 8.70477L52.0587 6.99865C51.719 6.65751 51.161 6.68185 50.8213 7.02308L49.9721 7.8761C49.9236 7.85175 49.8508 7.80298 49.8023 7.77864C49.2685 7.4861 48.5164 7.07176 47.74 6.29186C46.9636 5.51195 46.5511 4.75639 46.26 4.22025C46.2357 4.17148 46.1872 4.09836 46.1629 4.0496L46.7452 3.46469L47.0364 3.17223C47.3761 2.83101 47.4003 2.2461 47.0606 1.92922L45.3623 0.223175C44.9983 -0.0937044 44.4403 -0.0692793 44.0763 0.271865L43.5912 0.759316L43.6154 0.783741C43.4455 0.978658 43.3242 1.22242 43.2272 1.46611C43.1302 1.70987 43.0574 1.95356 43.0331 2.17298C42.8148 4.04959 43.6639 5.75572 45.9688 8.04667C49.1472 11.2395 51.719 10.9957 51.8403 10.9957C52.083 10.9714 52.3013 10.8983 52.544 10.8252C52.7866 10.7277 53.0292 10.5815 53.2476 10.4352L53.7328 9.94771C54.0725 9.60656 54.0967 9.046 53.7571 8.70477Z" fill="#96C93D"/>
<path d="M36.333 0H28.667C28.298 0 28 0.307301 28 0.687901V5.8439C28 6.2245 28.298 6.5318 28.667 6.5318H29.334V7.9075L32 6.5318H36.333C36.702 6.5318 37 6.2245 37 5.8439V0.687901C36.997 0.307301 36.699 0 36.333 0Z" fill="#96C93D"/>
<path d="M41.33 3.09253H37.998V5.84113C37.998 6.78833 37.251 7.56083 36.33 7.56083H33V8.93653C33 9.31703 33.298 9.62433 33.667 9.62433H38L40.666 11V9.62433H41.333C41.702 9.62433 42 9.31703 42 8.93653V3.78043C41.997 3.39983 41.699 3.09253 41.33 3.09253Z" fill="#96C93D"/>
<path d="M70.154 0.148415C70.2567 0.0495844 70.378 0 70.518 0H78.8144C78.9553 0 79.0767 0.0495844 79.1793 0.148415C79.282 0.247415 79.3333 0.364607 79.3333 0.500077V2.00005H80.6297C80.7753 2.00005 80.9331 2.0339 81.1039 2.10159C81.2737 2.16937 81.41 2.25255 81.5127 2.35155L83.117 3.89848C83.187 3.96618 83.2477 4.04419 83.299 4.13278C83.3504 4.22121 83.3886 4.30083 83.4129 4.37098C83.4372 4.44138 83.4549 4.53767 83.4652 4.66011C83.4764 4.78255 83.4829 4.87241 83.4857 4.92978C83.4885 4.98698 83.4885 5.08598 83.4857 5.22661C83.4829 5.36732 83.481 5.45837 83.481 5.50017V8.00005C83.622 8.00005 83.7433 8.04955 83.846 8.14863C83.9486 8.24738 84 8.36465 84 8.50004C84 8.57805 83.9897 8.64719 83.9673 8.70701C83.9458 8.76692 83.9095 8.81506 83.8581 8.85162C83.8068 8.88809 83.762 8.91795 83.7246 8.94148C83.6864 8.96483 83.6229 8.9804 83.5343 8.98827C83.4447 8.99614 83.384 9.00139 83.3522 9.00401C83.3196 9.00646 83.2505 9.00646 83.145 9.00401C83.0396 9.00139 82.9789 9.00012 82.9631 9.00012H82.4441C82.4441 9.55198 82.2416 10.0234 81.8365 10.414C81.4315 10.8046 80.9433 11 80.3702 11C79.7981 11 79.309 10.8046 78.904 10.414C78.4989 10.0235 78.2964 9.55198 78.2964 9.00012H75.1847C75.1847 9.55198 74.9821 10.0234 74.5771 10.414C74.1729 10.8046 73.6839 11 73.1108 11C72.5387 11 72.0496 10.8046 71.6445 10.414C71.2395 10.0235 71.0369 9.55198 71.0369 9.00012C71.0211 9.00012 70.9604 9.00139 70.8549 9.00401C70.7495 9.00646 70.6804 9.00646 70.6487 9.00401C70.616 9.00139 70.5553 8.99614 70.4657 8.98827C70.3771 8.9804 70.3136 8.96492 70.2753 8.94148C70.238 8.91804 70.1932 8.88809 70.1419 8.85162C70.0905 8.81506 70.0541 8.76692 70.0327 8.70701C70.0103 8.64719 70 8.57805 70 8.50004V0.500162C70 0.364693 70.0513 0.247584 70.154 0.148415ZM79.6413 9.70319C79.8467 9.90102 80.0893 10.0002 80.3702 10.0002C80.6512 10.0002 80.8948 9.9011 81.0992 9.70319C81.3045 9.50544 81.4072 9.27097 81.4072 9.00012C81.4072 8.72935 81.3045 8.49471 81.0992 8.29688C80.8948 8.09913 80.6512 8.00005 80.3702 8.00005C80.0893 8.00005 79.8467 8.09905 79.6413 8.29688C79.436 8.49471 79.3333 8.72935 79.3333 9.00012C79.3333 9.27097 79.436 9.50544 79.6413 9.70319ZM79.3333 5.00001H82.4441V4.76579C82.4441 4.69802 82.4199 4.64073 82.3713 4.59385L80.7921 3.07044C80.7436 3.02356 80.6838 3.00021 80.6138 3.00021H79.3333V5.00001ZM72.3819 9.70319C72.5872 9.90102 72.8299 10.0002 73.1108 10.0002C73.3917 10.0002 73.6353 9.9011 73.8407 9.70319C74.046 9.50544 74.1487 9.27097 74.1487 9.00012C74.1487 8.72935 74.046 8.49471 73.8407 8.29688C73.6353 8.09913 73.3917 8.00005 73.1108 8.00005C72.8299 8.00005 72.5872 8.09905 72.3819 8.29688C72.1765 8.49488 72.0739 8.72935 72.0739 9.00012C72.0739 9.27097 72.1765 9.50544 72.3819 9.70319Z" fill="#96C93D"/>
<path d="M7.50418 5.38015C8.81834 5.38015 9.88729 4.17455 9.88729 2.69007C9.88729 1.20559 9.53662 0 7.50418 0C5.47181 0.00389228 5.12114 1.20957 5.12114 2.69405C5.12114 4.17845 6.19009 5.38015 7.50418 5.38015Z" fill="#96C93D"/>
<path d="M11.9958 9.37811C11.9535 6.79008 11.5902 6.05571 8.80566 5.58838C8.80566 5.58838 8.41269 6.05181 7.50001 6.05181C6.58733 6.05181 6.19435 5.58838 6.19435 5.58838C3.44371 6.05181 3.05916 6.77442 3.00843 9.29561C3.00426 9.49987 3.00426 9.51163 3.00001 9.48802C3.00001 9.53126 3.00001 9.61765 3.00001 9.75904C3.00001 9.75904 3.66339 11 7.50001 11C11.3366 11 12 9.75904 12 9.75904C12 9.66478 12 9.60191 12 9.55876C12 9.57441 12 9.54302 11.9958 9.37811Z" fill="#96C93D"/>
</svg>
