<svg width="32" height="32" viewBox="0 0 32 32" fill="none" xmlns="http://www.w3.org/2000/svg">
<g clip-path="url(#clip0)">
<path d="M21.5686 9.65042L13.4755 6.8588C12.7088 6.59667 11.8503 6.6491 11.1164 7.00297L10.7101 7.19956C10.1596 7.46824 9.51089 7.50755 8.93422 7.29785L8.23959 7.04884C8.20682 7.02918 8.17406 7.00952 8.14129 6.99641L3.99973 5.58749C3.90143 5.55473 3.79003 5.56128 3.69828 5.60715C3.60654 5.65303 3.53446 5.73166 3.50169 5.82996L0.0219913 15.9807C-0.0500928 16.1839 0.0613099 16.4067 0.264456 16.4788L4.41257 17.9008C4.45844 17.9204 4.49776 17.927 4.54363 17.927C4.60261 17.927 4.66159 17.9139 4.71402 17.8877C4.80576 17.8418 4.87784 17.7632 4.91061 17.6649L8.25925 7.90074L8.67864 8.05146C9.45191 8.32669 10.3235 8.27427 11.064 7.91385L11.4703 7.71725C12.0142 7.44858 12.6564 7.40926 13.2265 7.60585L21.0181 10.2926C20.9592 10.6334 20.7953 11.197 20.3694 11.4918C19.9893 11.754 19.4388 11.7671 18.7442 11.5246L15.3432 10.3647C15.2383 10.3319 15.1269 10.3385 15.0286 10.3909C14.9303 10.4433 14.8648 10.5351 14.832 10.6399C14.8255 10.6596 14.3209 12.5207 12.7481 13.3595C11.7521 13.8968 10.5201 13.9165 9.08494 13.425C8.88179 13.3529 8.65898 13.4643 8.5869 13.6675C8.51482 13.8706 8.62622 14.0934 8.82937 14.1655C9.59608 14.4276 10.3235 14.5587 10.9984 14.5587C11.7717 14.5587 12.4794 14.3883 13.1216 14.041C14.524 13.2874 15.199 11.9112 15.4546 11.2297L18.4755 12.2651C19.4257 12.5928 20.2056 12.5469 20.8084 12.134C21.7783 11.4656 21.8242 10.0895 21.8307 10.0305C21.8373 9.86012 21.7259 9.70284 21.5686 9.65042ZM4.30117 17.0292L0.893554 15.8628L4.11768 6.45906L7.43355 7.59274C7.45977 7.60585 7.48598 7.61896 7.51219 7.63206L7.5253 7.63862L4.30117 17.0292Z" fill="#E5E5E5"/>
<path d="M31.9621 15.463L27.2308 5.84964C27.1849 5.7579 27.1063 5.68581 27.008 5.65305C26.9097 5.62028 26.7983 5.62683 26.7065 5.67271L22.7681 7.59932C22.5715 7.69762 22.4929 7.92697 22.5846 8.12357L27.1718 17.4945L25.6318 18.9034C24.3277 20.1026 22.8533 21.1053 21.2609 21.8851L13.7183 25.5745C13.5086 25.6793 13.2727 25.6924 13.0498 25.6138C12.827 25.5352 12.6501 25.3779 12.5453 25.1682C12.4404 24.9585 12.4273 24.7226 12.5059 24.4998C12.5846 24.277 12.7419 24.1 12.9515 23.9952L17.1652 21.931C17.3618 21.8327 17.4404 21.6033 17.3487 21.4067C17.2504 21.2101 17.0145 21.1315 16.8244 21.2232L12.7025 23.2416L10.6252 24.2573C10.1927 24.467 9.66189 24.2901 9.45219 23.8576C9.24249 23.4251 9.41942 22.9008 9.85193 22.6846L15.907 19.7226C16.1036 19.6243 16.1822 19.3949 16.0905 19.1983C15.9922 19.0017 15.7563 18.9231 15.5662 19.0148L11.0839 21.2101L9.51117 21.9768L8.77067 22.3373C8.33816 22.547 7.80736 22.37 7.59766 21.9375C7.38796 21.505 7.5649 20.9742 7.9974 20.7645L8.74445 20.3975L14.1639 17.7435C14.3605 17.6452 14.4391 17.4159 14.3474 17.2193C14.2491 17.0227 14.0132 16.944 13.8231 17.0358L10.3434 18.7396L8.40369 19.6898C8.19399 19.7946 7.95808 19.8078 7.73528 19.7291C7.51247 19.6505 7.33554 19.4932 7.23069 19.2835C7.12584 19.0738 7.11273 18.8379 7.19137 18.6151C7.27001 18.3923 7.42728 18.2154 7.63698 18.1105L10.5138 16.7016C10.7104 16.6033 10.789 16.3739 10.6973 16.1773C10.599 15.9807 10.3631 15.9021 10.173 15.9938L7.29622 17.4028C6.89648 17.5994 6.59503 17.9401 6.45087 18.3595C6.3067 18.7789 6.33291 19.2311 6.5295 19.6308C6.68023 19.9454 6.92924 20.1944 7.23069 20.3582C6.73265 20.8497 6.58193 21.6164 6.90303 22.2717C7.19137 22.8615 7.78115 23.2023 8.39714 23.2023C8.46922 23.2023 8.54131 23.1957 8.61339 23.1892C8.56097 23.5168 8.60029 23.8641 8.75756 24.1918C9.0459 24.7816 9.63568 25.1223 10.2517 25.1223C10.4941 25.1223 10.7432 25.0699 10.9791 24.9519L11.6934 24.5981C11.6606 24.9061 11.713 25.2141 11.8572 25.4959C12.0538 25.8956 12.3945 26.197 12.8139 26.3412C12.9909 26.4002 13.1744 26.4329 13.3578 26.4329C13.6069 26.4329 13.8559 26.374 14.0852 26.2626L21.6279 22.5732C23.2924 21.7606 24.8192 20.7121 26.1823 19.4604L27.8926 17.8877L31.7786 15.9873C31.9752 15.889 32.0539 15.6596 31.9621 15.463ZM27.8337 17.062L23.4627 8.13012L26.7 6.55082L31.0643 15.4827L27.8337 17.062Z" fill="#E5E5E5"/>
</g>
<defs>
<clipPath id="clip0">
<rect width="32" height="32" fill="white"/>
</clipPath>
</defs>
</svg>
