<svg width="32" height="32" viewBox="0 0 32 32" fill="none" xmlns="http://www.w3.org/2000/svg">
<path d="M31.3371 17.6604L28.4375 11.9534C28.1764 11.4395 27.6773 11.1205 27.135 11.1205C26.1573 11.1205 5.84135 11.1205 4.86535 11.1205C4.32297 11.1205 3.82397 11.4395 3.56291 11.9534L0.663282 17.6604C0.50997 17.9622 0.524345 18.3284 0.700845 18.616C0.86447 18.8827 1.14234 19.0418 1.44409 19.0418H3.80503V30.5222C3.80503 31.337 4.41885 32 5.17341 32C5.48297 32 26.5177 32 26.8272 32C27.5817 32 28.1956 31.337 28.1956 30.5222V25.5938C28.1956 25.3349 27.9858 25.125 27.7268 25.125C27.4678 25.125 27.258 25.3348 27.258 25.5938V30.5222C27.258 30.815 27.0607 31.0625 26.8272 31.0625H16.469V13.5469L18.914 18.359C19.128 18.7802 19.5388 19.0419 19.9862 19.0419H27.2578V23.4062C27.2578 23.6652 27.4677 23.875 27.7267 23.875C27.9857 23.875 28.1955 23.6652 28.1955 23.4062V19.0419H30.5564C30.8582 19.0419 31.136 18.8827 31.2997 18.6161C31.476 18.3284 31.4905 17.9622 31.3371 17.6604ZM1.49466 18.1044C1.49466 18.0984 1.49584 18.0918 1.49916 18.0852L4.39878 12.3781C4.49903 12.1807 4.67784 12.0581 4.86541 12.0581H15.2362C14.8779 12.7634 12.7342 16.9824 12.2506 17.9344V17.9344C12.1973 18.0392 12.1068 18.1044 12.0143 18.1044C11.7498 18.1044 1.78016 18.1044 1.49466 18.1044ZM15.5314 31.0624H5.17335C4.93985 31.0625 4.74259 30.8151 4.74259 30.5222V19.0419H12.0143C12.4632 19.0419 12.8732 18.7787 13.0864 18.359L15.5314 13.5468V31.0624ZM19.9862 18.1043C19.8937 18.1043 19.8032 18.0392 19.7499 17.9343L16.7643 12.058H27.1351C27.3226 12.058 27.5013 12.1807 27.6017 12.378L30.5013 18.0851C30.5047 18.0917 30.5058 18.0984 30.5058 18.1043C30.2198 18.1043 20.2507 18.1043 19.9862 18.1043Z" fill="#96C93D"/>
<path d="M16 1.45756C14.9552 -0.218876 12.6105 -0.502001 11.1986 0.911874C10.6153 1.49594 10.2946 2.27125 10.2954 3.09506C10.2978 5.47556 11.8917 7.78 14.6683 9.41744C14.743 9.46156 14.825 9.4825 14.906 9.4825C15.0664 9.4825 15.2227 9.40006 15.3102 9.25181C15.4417 9.02887 15.3675 8.74137 15.1445 8.60987C13.9695 7.91681 11.2359 5.99206 11.2329 3.09412C11.2316 1.803 12.369 0.787999 13.6679 0.962874C14.8287 1.11931 15.2307 2.03144 15.32 2.12456C15.734 2.5565 16.299 2.558 16.6886 2.11162C16.7927 1.99131 17.2952 0.938624 18.6179 0.937249C19.8019 0.937249 20.7663 1.90044 20.7676 3.08437C20.7704 5.8435 18.316 7.72962 16.8527 8.60837C16.6308 8.74169 16.5589 9.02962 16.6922 9.25162C16.8256 9.47362 17.1135 9.54531 17.3355 9.41212C20.1557 7.71844 21.7077 5.47081 21.7052 3.08337C21.7019 0.065624 17.7359 -1.21894 16 1.45756Z" fill="#96C93D"/>
</svg>
