<svg width="22" height="22" viewBox="0 0 22 22" fill="none" xmlns="http://www.w3.org/2000/svg">
<path d="M21.4656 6.91725L21.4671 6.93418L21.4698 6.95096C21.4856 7.04961 21.5894 7.80494 21.2895 9.07437L21.2894 9.07452C20.8578 10.904 19.8599 12.5732 18.3959 13.9007C18.3954 13.9011 18.3949 13.9016 18.3944 13.902L10.937 20.5548L3.60564 13.9018L3.60535 13.9015C2.1406 12.5743 1.14214 10.9042 0.710353 9.0745L0.710332 9.07441C0.410331 7.80421 0.514392 7.04923 0.530228 6.95184L0.533066 6.93438L0.534664 6.91677C0.83683 3.58657 3.16843 1.27258 5.99017 1.27258C7.85404 1.27258 9.52656 2.26826 10.5075 3.9468L10.9345 4.67741L11.3684 3.95094C12.3564 2.29706 14.1065 1.27301 16.0096 1.27301C18.8318 1.27301 21.163 3.58698 21.4656 6.91725Z" stroke="#96C93D"/>
</svg>
