<svg width="22" height="22" viewBox="0 0 22 22" fill="none" xmlns="http://www.w3.org/2000/svg">
<path d="M14.2689 0H2.38379V22H19.6171V5.3482L14.2689 0ZM14.4838 1.2518L18.3653 5.13333H14.4838V1.2518ZM3.11712 21.2667V0.733333H13.7505V5.86667H18.8838V21.2667H3.11712Z" fill="#96C93D"/>
<path d="M15.5839 7.70001H9.71725C9.51485 7.70001 9.35059 7.86391 9.35059 8.06668C9.35059 8.26945 9.51485 8.43335 9.71725 8.43335H15.5839C15.7863 8.43335 15.9506 8.26945 15.9506 8.06668C15.9506 7.86391 15.7863 7.70001 15.5839 7.70001Z" fill="#96C93D"/>
<path d="M8.38785 6.68032L6.81082 7.94202L6.30959 7.44079C6.16622 7.29742 5.93449 7.29742 5.79112 7.44079C5.64775 7.58416 5.64775 7.81589 5.79112 7.95926L6.52445 8.69259C6.59558 8.76372 6.68945 8.80002 6.78369 8.80002C6.86435 8.80002 6.94539 8.77362 7.01249 8.71972L8.84582 7.25306C9.00422 7.12619 9.02952 6.89556 8.90302 6.73752C8.77688 6.57912 8.54588 6.55382 8.38785 6.68032Z" fill="#96C93D"/>
<path d="M15.5839 11.7333H9.71725C9.51485 11.7333 9.35059 11.8972 9.35059 12.1C9.35059 12.3028 9.51485 12.4667 9.71725 12.4667H15.5839C15.7863 12.4667 15.9506 12.3028 15.9506 12.1C15.9506 11.8972 15.7863 11.7333 15.5839 11.7333Z" fill="#96C93D"/>
<path d="M8.38785 10.7136L6.81082 11.9753L6.30959 11.4741C6.16622 11.3307 5.93449 11.3307 5.79112 11.4741C5.64775 11.6175 5.64775 11.8492 5.79112 11.9926L6.52445 12.7259C6.59558 12.797 6.68945 12.8333 6.78369 12.8333C6.86435 12.8333 6.94539 12.8069 7.01249 12.753L8.84582 11.2864C9.00422 11.1595 9.02952 10.9289 8.90302 10.7708C8.77688 10.6124 8.54588 10.5871 8.38785 10.7136Z" fill="#96C93D"/>
<path d="M15.5839 15.7667H9.71725C9.51485 15.7667 9.35059 15.9306 9.35059 16.1333C9.35059 16.3361 9.51485 16.5 9.71725 16.5H15.5839C15.7863 16.5 15.9506 16.3361 15.9506 16.1333C15.9506 15.9306 15.7863 15.7667 15.5839 15.7667Z" fill="#96C93D"/>
<path d="M8.38785 14.747L6.81082 16.0087L6.30959 15.5074C6.16622 15.3641 5.93449 15.3641 5.79112 15.5074C5.64775 15.6508 5.64775 15.8825 5.79112 16.0259L6.52445 16.7592C6.59558 16.8304 6.68945 16.8667 6.78369 16.8667C6.86435 16.8667 6.94539 16.8403 7.01249 16.7864L8.84582 15.3197C9.00422 15.1928 9.02952 14.9622 8.90302 14.8042C8.77688 14.6458 8.54588 14.6205 8.38785 14.747Z" fill="#96C93D"/>
</svg>
