<svg width="27" height="23" viewBox="0 0 27 23" fill="none" xmlns="http://www.w3.org/2000/svg">
<path d="M26.4769 3.30552C24.6679 2.50626 22.9545 1.50622 21.3688 0.32416C21.2453 0.23179 21.0759 0.23179 20.9524 0.32416C19.3667 1.50622 17.6533 2.50626 15.8442 3.30552C15.5258 3.4478 15.321 3.76398 15.3212 4.11268V6.57189H2.65953C1.32073 6.57392 0.19129 7.56943 0.0216816 8.89762C0.000678226 8.9543 -0.00496785 9.01551 0.00496924 9.07513C0.00203328 9.12707 6.93521e-07 9.17902 6.93521e-07 9.23141V20.0678C-0.000450993 20.6921 0.219746 21.2964 0.621521 21.7741C0.648396 21.8285 0.689726 21.8743 0.740992 21.9066C1.24146 22.431 1.9348 22.7276 2.65953 22.7273H18.848C19.572 22.7276 20.2647 22.4317 20.7651 21.9082C20.8166 21.8759 20.858 21.8298 20.8846 21.7752C21.2873 21.2975 21.5079 20.6927 21.5075 20.0678V13.5057C22.4131 13.1814 23.2713 12.7379 24.0595 12.1866C25.9832 10.8265 27 9.02025 27 6.96305V4.11268C27.0002 3.76398 26.7954 3.4478 26.4769 3.30552ZM2.65953 7.26568H15.3291C15.4079 8.91591 16.1322 10.3945 17.4455 11.5969L11.8784 16.4272C11.2325 16.9783 10.282 16.9787 9.6356 16.4281L0.725409 8.88362C0.894791 7.94795 1.70873 7.26703 2.65953 7.26568ZM20.8137 20.0678C20.8142 20.4233 20.7175 20.772 20.5346 21.0764L15.6168 16.0733C15.4827 15.9367 15.2629 15.9347 15.1263 16.069C14.9897 16.2034 14.9879 16.4229 15.1222 16.5596L20.077 21.6006C19.729 21.8811 19.2951 22.034 18.8482 22.0336H2.65953C2.21146 22.034 1.77693 21.8804 1.42846 21.5988L6.3559 16.5589C6.48825 16.4216 6.48486 16.2034 6.34868 16.0702C6.21227 15.9369 5.9941 15.9387 5.85995 16.074L0.971352 21.0737C0.789322 20.7697 0.693339 20.4219 0.693791 20.0678V9.76576L9.1873 16.958C10.0936 17.729 11.4259 17.7274 12.3301 16.9541L17.9832 12.0493C18.0419 12.0944 18.1013 12.1391 18.1618 12.1834C18.9733 12.7726 19.8667 13.2395 20.8137 13.569V20.0678ZM26.3062 6.96305C26.3062 8.36327 25.7942 9.60202 24.7822 10.6605V10.6411C24.7822 10.4496 24.6268 10.2942 24.4353 10.2942C24.2438 10.2942 24.0884 10.4496 24.0884 10.6411V10.977C24.0884 11.0662 24.1228 11.152 24.1846 11.2163C24.0236 11.3505 23.8538 11.481 23.6749 11.6086C22.8924 12.1561 22.0366 12.5911 21.1328 12.9C21.1053 12.902 21.0779 12.9077 21.0515 12.9163C20.1601 12.6057 19.3191 12.1658 18.5553 11.6111C18.3956 11.4937 18.2436 11.3735 18.0991 11.2502C18.1833 11.1847 18.2328 11.0838 18.2328 10.977V10.6411C18.2328 10.4496 18.0774 10.2942 17.8859 10.2942C17.6944 10.2942 17.539 10.4496 17.539 10.6411V10.7195C16.5272 9.64855 16.015 8.38947 16.015 6.96282V4.11245C16.0145 4.0377 16.0581 3.96972 16.1263 3.93901C17.9035 3.1533 19.5912 2.17924 21.1606 1.03376C22.73 2.17946 24.4177 3.15352 26.1951 3.93946C26.2631 3.97017 26.3067 4.03815 26.3062 4.1129V6.96305Z" fill="#534746"/>
</svg>
