<svg width="26" height="24" viewBox="0 0 26 24" fill="none" xmlns="http://www.w3.org/2000/svg">
<g clip-path="url(#clip0)">
<path d="M23.2306 17.2415L17.8442 19.1446C17.7785 19.1657 17.7179 19.1993 17.666 19.2432C17.6141 19.2872 17.5719 19.3407 17.542 19.4005C17.5121 19.4604 17.495 19.5254 17.4918 19.5917C17.4885 19.658 17.4993 19.7242 17.5232 19.7864C17.5472 19.8487 17.584 19.9057 17.6315 19.9541C17.6789 20.0025 17.736 20.0413 17.7993 20.0681C17.8627 20.095 17.931 20.1095 18.0003 20.1106C18.0696 20.1117 18.1384 20.0995 18.2027 20.0747L23.5891 18.1722C23.6529 18.1496 23.7115 18.1153 23.7614 18.0711C23.8114 18.0268 23.8517 17.9736 23.8802 17.9145C23.9087 17.8554 23.9247 17.7914 23.9274 17.7263C23.9301 17.6613 23.9193 17.5963 23.8958 17.5352C23.8723 17.4741 23.8364 17.418 23.7902 17.3702C23.744 17.3224 23.6885 17.2837 23.6267 17.2564C23.5649 17.2292 23.4982 17.2138 23.4302 17.2113C23.3622 17.2087 23.2944 17.219 23.2306 17.2415Z" fill="#534746"/>
<path d="M16.3642 19.6677L16.1357 19.7484C16.0704 19.7699 16.0103 19.8037 15.9589 19.8477C15.9074 19.8918 15.8657 19.9452 15.8361 20.0049C15.8065 20.0646 15.7897 20.1294 15.7866 20.1954C15.7836 20.2614 15.7943 20.3274 15.8183 20.3894C15.8422 20.4514 15.8788 20.5081 15.926 20.5564C15.9731 20.6046 16.0299 20.6434 16.0929 20.6703C16.1559 20.6972 16.224 20.7119 16.293 20.7133C16.362 20.7147 16.4306 20.7029 16.4947 20.6786L16.7227 20.5984C16.8516 20.5528 16.9564 20.4602 17.0139 20.3407C17.0714 20.2213 17.077 20.0848 17.0295 19.9614C16.9819 19.838 16.8851 19.7377 16.7604 19.6827C16.6356 19.6276 16.4931 19.6222 16.3642 19.6677Z" fill="#534746"/>
<path d="M23.2306 15.2188L18.9741 16.7261C18.9084 16.7472 18.8478 16.7808 18.7959 16.8247C18.744 16.8687 18.7018 16.9222 18.6719 16.982C18.642 17.0419 18.6249 17.1069 18.6217 17.1732C18.6184 17.2394 18.6291 17.3057 18.6531 17.3679C18.6771 17.4302 18.7139 17.4872 18.7613 17.5356C18.8088 17.584 18.8658 17.6227 18.9292 17.6496C18.9926 17.6765 19.0609 17.691 19.1302 17.6921C19.1995 17.6932 19.2683 17.681 19.3326 17.6562L23.5891 16.1523C23.7184 16.1068 23.8235 16.014 23.8813 15.8943C23.9391 15.7745 23.9449 15.6377 23.8973 15.5139C23.8498 15.3901 23.7528 15.2895 23.6278 15.2341C23.5027 15.1788 23.3599 15.1733 23.2306 15.2188Z" fill="#534746"/>
<path d="M23.231 13.2209L18.9745 14.7248C18.8604 14.7651 18.7648 14.8425 18.7043 14.9435C18.6439 15.0445 18.6224 15.1627 18.6438 15.2773C18.6652 15.3919 18.728 15.4956 18.8212 15.5704C18.9144 15.6451 19.0322 15.686 19.1538 15.686C19.2149 15.6858 19.2755 15.6754 19.333 15.6554L23.5895 14.1515C23.6533 14.129 23.7119 14.0946 23.7618 14.0504C23.8118 14.0062 23.8521 13.953 23.8806 13.8939C23.9091 13.8347 23.9251 13.7708 23.9278 13.7057C23.9305 13.6406 23.9198 13.5757 23.8962 13.5146C23.8727 13.4535 23.8368 13.3974 23.7906 13.3496C23.7444 13.3017 23.6889 13.2631 23.6271 13.2358C23.5653 13.2085 23.4986 13.1932 23.4306 13.1906C23.3626 13.1881 23.2948 13.1984 23.231 13.2209Z" fill="#534746"/>
<path d="M25.6613 4.44039L13.1793 0.0303416C13.0636 -0.0105208 12.9364 -0.0105208 12.8207 0.0303416L0.338711 4.44039C0.239338 4.47549 0.153591 4.53891 0.0930281 4.62211C0.032465 4.70531 -3.14651e-06 4.80429 2.28709e-10 4.90571L2.28709e-10 19.0937C-3.14651e-06 19.1951 0.032465 19.2941 0.0930281 19.3773C0.153591 19.4605 0.239338 19.5239 0.338711 19.559L12.8207 23.9705C12.9364 24.0117 13.0636 24.0117 13.1793 23.9705L25.6613 19.5605C25.7609 19.5253 25.8468 19.4617 25.9074 19.3782C25.968 19.2947 26.0003 19.1954 26 19.0937V4.90571C26.0001 4.80427 25.9676 4.70526 25.9071 4.62205C25.8465 4.53884 25.7607 4.47543 25.6613 4.44039ZM4.40223 6.80684L8.96035 8.41721V13.7136L4.40223 12.1038V6.80684ZM9.48035 7.53909L5.38281 6.09112L9.47832 4.64315L13.5754 6.09112L9.48035 7.53909ZM13 1.02418L23.986 4.90571L13 8.78674L10.9688 8.07102L15.2511 6.55789C15.3506 6.52292 15.4364 6.45957 15.497 6.3764C15.5576 6.29323 15.5902 6.19425 15.5902 6.09282C15.5902 5.99139 15.5576 5.89241 15.497 5.80924C15.4364 5.72607 15.3506 5.66272 15.2511 5.62775L9.65758 3.6493C9.54171 3.60845 9.41443 3.60845 9.29855 3.6493L3.87867 5.56454L2.01398 4.90571L13 1.02418ZM1.03594 5.61705L3.36629 6.44071V12.447C3.36609 12.549 3.3987 12.6485 3.45966 12.7321C3.52062 12.8157 3.60699 12.8793 3.70703 12.9143L9.30059 14.8908C9.37889 14.9186 9.46304 14.9278 9.54587 14.9177C9.6287 14.9075 9.70774 14.8784 9.77625 14.8327C9.84475 14.7869 9.90068 14.726 9.93926 14.6551C9.97784 14.5842 9.99793 14.5054 9.99781 14.4255V8.78528L12.4861 9.6634V22.7919L1.03594 18.748V5.61705ZM13.518 22.7919V9.66097L24.9641 5.61705V18.748L13.518 22.7919Z" fill="#534746"/>
</g>
<defs>
<clipPath id="clip0">
<rect width="26" height="24" fill="white"/>
</clipPath>
</defs>
</svg>
