<svg width="15" height="23" viewBox="0 0 15 23" fill="none" xmlns="http://www.w3.org/2000/svg">
<path d="M6.8119 4.86017L6.81176 4.86014L6.81174 4.86013L6.81167 4.86011L6.1879 4.70044V5.34455V9.27946V9.77946H6.6879H11.3058V12.4282H6.67252H6.17252V12.9282V15.7105V15.7179L6.17274 15.7253C6.24776 18.254 6.84349 19.3848 7.50923 19.9795C7.74205 20.1875 8.01368 20.3415 8.15466 20.4212C7.98825 20.8168 7.55059 21.3187 6.9085 21.7433C6.2271 22.1939 5.40002 22.5 4.61765 22.5C3.50211 22.5 2.48785 22.1395 1.75128 21.3744C1.01488 20.6094 0.5 19.3815 0.5 17.5388V0.502609H14.3821C14.4006 0.582878 14.4211 0.683012 14.4397 0.799208C14.4929 1.13062 14.5293 1.58195 14.468 2.07081C14.3484 3.02427 13.8608 4.14099 12.2927 4.82184C11.2796 5.25571 9.93277 5.28191 8.78575 5.17846C8.22176 5.12759 7.72512 5.04733 7.36978 4.97979C7.19239 4.94607 7.05092 4.91566 6.9547 4.89391C6.90661 4.88304 6.86988 4.87434 6.84568 4.86849L6.81894 4.86194L6.8129 4.86042L6.8119 4.86017ZM8.26621 20.4901C8.26618 20.4901 8.26559 20.4896 8.26454 20.4886C8.26572 20.4896 8.26624 20.4901 8.26621 20.4901Z" stroke="#534746"/>
</svg>
