<svg width="17" height="16" viewBox="0 0 17 16" fill="none" xmlns="http://www.w3.org/2000/svg">
<path d="M8.50029 8.47738C10.6052 8.47738 12.3118 6.57921 12.3118 4.23844C12.3118 0.99226 10.6052 0 8.50029 0C6.39535 0 4.68823 0.99226 4.68823 4.23844C4.68823 6.57921 6.39483 8.47738 8.50029 8.47738Z" fill="#96C93D"/>
<path d="M16.9169 14.7157L14.9953 10.6001C14.9069 10.4111 14.7536 10.2561 14.5606 10.1605L11.5748 8.68416C11.5426 8.66821 11.5062 8.66128 11.47 8.66416C11.4338 8.66704 11.3992 8.67962 11.3702 8.70044C10.5473 9.30165 9.53831 9.62761 8.50023 9.62761C7.46215 9.62761 6.45318 9.30165 5.63028 8.70044C5.60092 8.67914 5.56574 8.66629 5.52892 8.6634C5.4921 8.66052 5.45518 8.66772 5.42254 8.68416L2.44093 10.1605C2.24796 10.2562 2.09476 10.4111 2.00624 10.6001L0.0846269 14.7157C0.0200227 14.8547 -0.00706816 15.0068 0.00580649 15.1583C0.0186811 15.3098 0.0711148 15.4558 0.158361 15.5832C0.245607 15.7106 0.364911 15.8152 0.505474 15.8878C0.646036 15.9603 0.803418 15.9984 0.963373 15.9986H16.0381C16.1981 15.9984 16.3555 15.9603 16.496 15.8878C16.6366 15.8152 16.7559 15.7106 16.8431 15.5832C16.9304 15.4558 16.9828 15.3098 16.9957 15.1583C17.0086 15.0068 16.9815 14.8547 16.9169 14.7157Z" fill="#96C93D"/>
</svg>
