<svg width="22" height="22" viewBox="0 0 22 22" fill="none" xmlns="http://www.w3.org/2000/svg">
<path d="M18.7799 3.2226C17.9369 2.37961 16.9938 1.6947 15.9769 1.1869C15.7556 1.07629 15.4867 1.16622 15.3763 1.38744C15.2658 1.60872 15.3556 1.87763 15.5768 1.98809C16.5073 2.45275 17.3719 3.08117 18.1466 3.85586C22.0873 7.79658 22.0873 14.2086 18.1466 18.1493C14.2059 22.09 7.79389 22.09 3.85317 18.1493C-0.0875478 14.2086 -0.0875478 7.79658 3.85317 3.85586C5.76207 1.94689 8.30021 0.895601 10.9998 0.895601C11.247 0.895601 11.4476 0.695061 11.4476 0.447801C11.4476 0.20054 11.247 0 10.9998 0C8.06093 0 5.298 1.14443 3.21983 3.2226C-1.07002 7.51245 -1.07002 14.4927 3.21983 18.7826C5.3648 20.9275 8.18229 22 10.9998 22C13.8174 22 16.6349 20.9275 18.7799 18.7826C23.0697 14.4927 23.0697 7.51245 18.7799 3.2226Z" fill="#534746"/>
<path d="M11 3.88031C10.7528 3.88031 10.5522 4.08085 10.5522 4.32811V17.677C10.5522 17.9243 10.7528 18.1248 11 18.1248C11.2473 18.1248 11.4478 17.9243 11.4478 17.677V4.32811C11.4478 4.08078 11.2473 3.88031 11 3.88031Z" fill="#534746"/>
<path d="M12.7911 11.4503H17.6743C17.9216 11.4503 18.1221 11.2498 18.1221 11.0025C18.1221 10.7553 17.9216 10.5547 17.6743 10.5547H12.7911C12.5438 10.5547 12.3433 10.7553 12.3433 11.0025C12.3433 11.2498 12.5437 11.4503 12.7911 11.4503Z" fill="#534746"/>
<path d="M4.32524 10.5547C4.07798 10.5547 3.87744 10.7553 3.87744 11.0025C3.87744 11.2498 4.07798 11.4503 4.32524 11.4503H9.05924C9.3065 11.4503 9.50704 11.2498 9.50704 11.0025C9.50704 10.7553 9.3065 10.5547 9.05924 10.5547H4.32524Z" fill="#534746"/>
</svg>
