<svg width="60" height="60" fill="none" xmlns="http://www.w3.org/2000/svg"><path d="M28.475 30.115a.791.791 0 0 1 .052-1.082l.446-.44H18.22c-.453 0-.876-.376-.876-.83v-4.962c0-.453.423-.77.876-.77h12.456c.453 0 .847.317.847.77v3.265l.27-.284a.802.802 0 0 1 1.09-.052l2.173 1.798a13.038 13.038 0 0 1 3.37-1.422l.274-2.84a.843.843 0 0 1 .816-.766h4.605a.845.845 0 0 1 .82.766l.278 2.853c.12.032.25.067.367.103v-4.676a3.846 3.846 0 0 0-1.21-2.784c-.011-.012-.03-.017-.042-.029l-.985-1.038H6.086l-1.39 1.27c-.01.008-.03.002-.039.01A3.853 3.853 0 0 0 3.281 21.9v9.974h26.672l-1.478-1.76zm-18.12-1.521h-.761a3.34 3.34 0 0 1 0-6.68h.76a3.34 3.34 0 1 1 0 6.68zm.075 4.922H3.28v4.453h7.149v-4.453z" fill="#1A1A1D"/><path d="M10.354 23.555h-.76a1.7 1.7 0 1 0 0 3.398h.76a1.7 1.7 0 0 0 0-3.398zM39.438 7.589a2.297 2.297 0 0 0-2.142-1.495H12.22a2.298 2.298 0 0 0-2.143 1.495l-3.136 8.466h35.633l-3.136-8.466zm-9.555 16.083H18.984v3.281h10.899v-3.281zm11.919 12.152a3.235 3.235 0 1 0 3.241 3.235 3.242 3.242 0 0 0-3.24-3.235z" fill="#1A1A1D"/><path d="M41.8 30.965a8.094 8.094 0 1 0 8.108 8.094 8.11 8.11 0 0 0-8.108-8.094zm0 12.97a4.875 4.875 0 1 1 4.881-4.875 4.884 4.884 0 0 1-4.881 4.875z" fill="#1A1A1D"/><path d="M53.279 36.603a11.42 11.42 0 0 0-1.653-3.91.82.82 0 0 1 .052-.978l1.706-2.058-2.16-2.184-2.052 1.7a.82.82 0 0 1-.967.055 11.845 11.845 0 0 0-3.924-1.658.834.834 0 0 1-.646-.736l-.258-2.693H40.26L40 26.835a.85.85 0 0 1-.644.747c-1.397.3-2.725.858-3.916 1.647a.82.82 0 0 1-.976-.053l-2.055-1.704-2.193 2.19 1.706 2.053a.821.821 0 0 1 .058.972 11.884 11.884 0 0 0-1.654 3.92.81.81 0 0 1-.713.638l-2.66.26v3.109l2.659.259a.8.8 0 0 1 .706.642 11.416 11.416 0 0 0 1.652 3.91.82.82 0 0 1-.051.977l-1.703 2.055 2.193 2.189 2.056-1.705a.82.82 0 0 1 .967-.06 11.819 11.819 0 0 0 3.924 1.65.814.814 0 0 1 .645.717l.259 2.658h3.117l.259-2.658a.808.808 0 0 1 .644-.712c1.397-.3 2.725-.858 3.916-1.647a.82.82 0 0 1 .977.053l2.056 1.704 2.194-2.189-1.702-2.054a.82.82 0 0 1-.053-.972 11.91 11.91 0 0 0 1.662-3.92.831.831 0 0 1 .732-.638l2.657-.258v-3.11l-2.697-.26a.845.845 0 0 1-.743-.642zM41.802 48.794a9.735 9.735 0 1 1 9.749-9.735 9.753 9.753 0 0 1-9.75 9.735z" fill="#1A1A1D"/></svg>