<svg width="60" height="60" fill="none" xmlns="http://www.w3.org/2000/svg"><path d="M21.253 59.354a7.272 7.272 0 1 0 0-14.544 7.272 7.272 0 0 0 0 14.544zM44.55 44.74a7.343 7.343 0 1 0-1.438 14.614 7.343 7.343 0 0 0 1.439-14.615zm14.969-27.678a1.906 1.906 0 0 0-1.624-.847h-8.049v-.141C49.846 7.534 42.925.61 34.385.61S18.922 7.532 18.922 16.07v.144H12.92l-2.047-9.32a2.118 2.118 0 0 0-2.048-1.623H0v4.236h7.131l6.566 30.148a2.048 2.048 0 0 0 2.048 1.694H52.67a2.118 2.118 0 0 0 2.048-1.624l5.225-20.898a1.977 1.977 0 0 0-.424-1.766zM34.384 27.3c-6.2 0-11.226-5.026-11.226-11.226 0-6.2 5.026-11.226 11.226-11.226 6.2 0 11.226 5.026 11.226 11.226-.038 6.184-5.042 11.187-11.226 11.226z" fill="#1A1A1D"/><path d="M32.69 16.286l-3.883-3.954-3.035 2.965 5.365 5.437a2.12 2.12 0 0 0 1.483.635 1.977 1.977 0 0 0 1.483-.565l8.896-8.401-2.895-3.107-7.413 6.99z" fill="#1A1A1D"/></svg>