<svg width="60" height="60" fill="none" xmlns="http://www.w3.org/2000/svg"><path d="M49.5 38.8a5.106 5.106 0 0 0-5.1 5.1c0 2.812 2.288 5.1 5.1 5.1s5.1-2.288 5.1-5.1-2.288-5.1-5.1-5.1zm0 6.6a1.501 1.501 0 1 1 1.5-1.5c0 .827-.672 1.5-1.5 1.5z" fill="#1A1A1D"/><path d="M49.012 17.6H40.2a1.2 1.2 0 0 0-1.2 1.2v23.4a1.2 1.2 0 0 0 1.2 1.2h1.273c.594 0 1.12-.428 1.197-1.017.47-3.609 3.349-5.847 6.83-5.847 3.482 0 6.36 2.238 6.832 5.847.076.589.602 1.017 1.197 1.017h1.27a1.2 1.2 0 0 0 1.2-1.2V30.5c0-.282-.098-.555-.279-.77l-9.788-11.7a1.2 1.2 0 0 0-.92-.43zM41.4 27.2v-6a1.2 1.2 0 0 1 1.2-1.2h5.286a1.2 1.2 0 0 1 .922.432l5 6c.65.782.095 1.968-.923 1.968H42.6a1.2 1.2 0 0 1-1.2-1.2zM1.2 43.4h3.073c.594 0 1.12-.428 1.197-1.017.47-3.608 3.349-5.846 6.83-5.846 3.482 0 6.36 2.238 6.832 5.846.076.59.602 1.017 1.196 1.017H35.4a1.2 1.2 0 0 0 1.2-1.2v-30a1.2 1.2 0 0 0-1.2-1.2H1.2A1.2 1.2 0 0 0 0 12.2v30a1.2 1.2 0 0 0 1.2 1.2z" fill="#1A1A1D"/><path d="M12.3 38.8a5.106 5.106 0 0 0-5.1 5.1c0 2.812 2.287 5.1 5.1 5.1 2.81 0 5.1-2.288 5.1-5.1s-2.29-5.1-5.1-5.1zm0 6.6a1.501 1.501 0 0 1 0-3 1.501 1.501 0 0 1 0 3z" fill="#1A1A1D"/></svg>