<svg width="200" height="34" viewBox="0 0 200 34" fill="none" xmlns="http://www.w3.org/2000/svg">
<g clip-path="url(#clip0)">
<path d="M5.63543 3.62692V30.7619C5.632 31.124 5.5557 31.4819 5.41088 31.8153C5.26983 32.1403 5.06567 32.4356 4.80968 32.6849C4.55368 32.9341 4.25128 33.1333 3.91873 33.2718C3.57024 33.4145 3.19565 33.4867 2.81772 33.4839C2.43751 33.4859 2.06072 33.4138 1.70946 33.2718C1.37758 33.1321 1.0754 32.9331 0.818512 32.6849C0.564296 32.4342 0.360385 32.1392 0.217302 31.8153C0.0747874 31.4815 0.000950566 31.1235 -2.45478e-06 30.7619V7.93259C-0.003082 7.35898 0.115288 6.79093 0.347685 6.26406C0.567486 5.7495 0.887251 5.28133 1.28934 4.88539C1.70696 4.49066 2.19891 4.17856 2.73804 3.96628C3.28523 3.73873 3.87445 3.62322 4.46923 3.62692H5.63543Z" fill="white"/>
<path d="M18.2319 29.5317C18.3899 29.5598 18.5496 29.5787 18.7099 29.5883C18.9634 29.5883 19.2387 29.5883 19.5284 29.5883H20.3252C20.4746 29.6019 20.6249 29.6019 20.7743 29.5883V30.6912C20.7807 31.1498 20.6817 31.604 20.4846 32.0204C20.2928 32.4157 20.0276 32.7729 19.7023 33.0738C19.3725 33.3827 18.979 33.6193 18.5481 33.7681C18.1171 33.9168 17.6587 33.9742 17.2033 33.9364L16.1312 33.8303C15.7691 33.795 15.4069 33.7384 15.0013 33.6677C14.6362 33.6068 14.2883 33.4719 13.9799 33.2718C13.6797 33.0748 13.3941 32.8574 13.1252 32.6213C12.6005 32.1056 12.1997 31.4826 11.9517 30.7973C11.7922 30.3992 11.6827 29.9838 11.6258 29.56C11.5597 29.0654 11.5282 28.567 11.5316 28.0682V15.236H8.52557V13.8786C8.52667 13.5405 8.59814 13.2061 8.73563 12.8958C8.86887 12.5899 9.06062 12.3115 9.30063 12.0757C9.54074 11.8396 9.8263 11.6522 10.1409 11.5242C10.4725 11.3842 10.8299 11.312 11.1912 11.3121H11.5316V4.51071H12.7485C13.3231 4.50707 13.8924 4.61773 14.4218 4.83593C14.9332 5.047 15.3999 5.34908 15.798 5.72676C16.1972 6.11255 16.5142 6.57172 16.7305 7.07776C16.9468 7.5838 17.0583 8.12666 17.0584 8.67498V11.3121H20.5425V12.6413C20.5472 12.9891 20.4755 13.3338 20.3325 13.6523C20.1992 13.9582 20.0075 14.2366 19.7675 14.4724C19.271 14.9552 18.5994 15.227 17.8987 15.2289H17.0584V27.5733C17.0527 27.9258 17.0941 28.2776 17.1815 28.6197L17.3481 28.9661C17.403 29.072 17.4823 29.164 17.5799 29.2348C17.7561 29.4083 17.9846 29.5222 18.2319 29.56" fill="white"/>
<path d="M46.1628 24.4907C46.6193 25.3424 46.8437 26.2943 46.8147 27.2551C46.8276 28.1785 46.5955 29.0894 46.141 29.8993C45.6957 30.7386 45.0558 31.4649 44.2722 32.0203C43.8526 32.3293 43.401 32.5947 42.9249 32.8122C42.4062 33.0505 41.8714 33.2536 41.3241 33.4202C40.0725 33.7613 38.7772 33.9256 37.4778 33.908C36.0609 33.9332 34.6514 33.7031 33.3201 33.2293C32.7548 33.0393 32.2072 32.8028 31.683 32.5223C31.1822 32.264 30.7213 31.9379 30.314 31.5537C29.8538 31.1298 29.4455 30.6553 29.0971 30.1397C28.7954 29.6946 28.5406 29.2208 28.3365 28.7257C28.1723 28.3303 28.0462 27.9208 27.9599 27.5025C27.8965 27.1976 27.8626 26.8875 27.8585 26.5764V23.9534H29.0609C29.7257 23.9488 30.3842 24.0788 30.9949 24.3351C31.5887 24.5808 32.1313 24.9306 32.5957 25.3674C33.0974 25.9093 33.4511 26.5658 33.6243 27.2763C33.6528 27.4148 33.6891 27.5517 33.7329 27.6864C33.7704 27.8081 33.8189 27.9264 33.8778 28.0399C34.0808 28.4384 34.3882 28.7774 34.7688 29.0226C35.1662 29.2718 35.5978 29.4647 36.0508 29.5953C36.5527 29.7199 37.0687 29.7816 37.5865 29.7791C38.499 29.8426 39.4076 29.6115 40.1724 29.1216C40.4444 28.9396 40.6656 28.6943 40.8161 28.4079C40.9666 28.1216 41.0416 27.8031 41.0344 27.4813C41.0381 27.1905 40.9737 26.9028 40.846 26.64C40.7012 26.3424 40.466 26.0956 40.1724 25.933C39.9775 25.7988 39.7687 25.6851 39.5495 25.5936C39.3177 25.4876 39.0569 25.3815 38.7599 25.2755C38.4274 25.1652 38.0889 25.0731 37.7458 24.9997L36.4927 24.7452C35.906 24.625 35.3482 24.4907 34.8339 24.3351C34.3197 24.1796 33.8126 24.0241 33.3201 23.8473C32.4226 23.5133 31.5749 23.064 30.7993 22.5111C30.4641 22.2439 30.1538 21.9481 29.8722 21.6273C29.5926 21.3204 29.3496 20.9836 29.1478 20.6234C28.7375 19.8666 28.5353 19.0188 28.5611 18.163C28.5622 17.2615 28.7649 16.3712 29.155 15.5541C29.5821 14.7379 30.1762 14.016 30.9007 13.4331C31.7374 12.7683 32.6926 12.2602 33.7184 11.9342C34.9235 11.5686 36.1798 11.3896 37.4416 11.404C38.7547 11.3805 40.0639 11.5522 41.3241 11.913C41.8688 12.0908 42.3991 12.3082 42.9104 12.5635C43.3853 12.7931 43.8344 13.0703 44.2505 13.3907C45.0266 13.9654 45.6583 14.7053 46.0976 15.5541C46.5086 16.3815 46.731 17.286 46.7495 18.2054V20.9981H45.4891C44.7587 21.0073 44.0356 20.8551 43.374 20.5527C42.7511 20.261 42.202 19.8385 41.766 19.3154C41.6791 19.2246 41.6059 19.1223 41.5487 19.0114C41.4639 18.863 41.3889 18.7095 41.3241 18.5518L41.1285 18.0286C41.0633 17.8448 41.0126 17.6751 40.9692 17.5125C40.8945 17.2331 40.7773 16.9661 40.6215 16.7207C40.4484 16.4592 40.2244 16.2335 39.9623 16.0561C39.6451 15.8272 39.2784 15.6724 38.8903 15.6036C38.4108 15.5332 37.9264 15.5001 37.4416 15.5046C36.6071 15.4613 35.7844 15.7123 35.1237 16.2116C34.8556 16.4041 34.6392 16.657 34.4929 16.9488C34.3466 17.2406 34.2747 17.5625 34.2834 17.8872C34.2754 18.1837 34.3559 18.476 34.5152 18.7286C34.6845 19.0255 34.9354 19.2704 35.2396 19.4356C35.4122 19.5566 35.5966 19.6608 35.7901 19.7467C36.0265 19.8528 36.2682 19.9472 36.5144 20.0295C36.7824 20.1143 37.0722 20.1921 37.3981 20.2769C37.7241 20.3618 38.0718 20.4325 38.4484 20.5032C39.586 20.7133 40.7086 20.9943 41.8094 21.3445C42.308 21.4952 42.7926 21.6868 43.2581 21.9172C43.6803 22.1247 44.0869 22.3609 44.475 22.6242C44.8425 22.8742 45.1781 23.1661 45.4746 23.4938C45.7529 23.8143 45.9957 24.1627 46.199 24.5331" fill="white"/>
<path d="M109.732 32.183L108.891 32.7132C108.405 33.0576 107.85 33.2985 107.262 33.4202C106.695 33.5402 106.11 33.5546 105.538 33.4627C104.971 33.3695 104.425 33.183 103.922 32.9112C103.408 32.6264 102.956 32.2471 102.59 31.7941L97.8813 24.5968L95.7082 26.7178V29.4468V30.5286C95.7144 30.9243 95.6355 31.3169 95.4764 31.681C95.3261 32.0302 95.1071 32.3473 94.8318 32.6142C94.5588 32.8819 94.2337 33.0934 93.8756 33.2364C93.1189 33.5382 92.271 33.5382 91.5143 33.2364C91.1536 33.0942 90.826 32.8826 90.5509 32.6142C90.278 32.3438 90.0572 32.0277 89.899 31.681C89.7374 31.3174 89.656 30.9248 89.6599 30.5286V2.04323H91.268C91.8579 2.04146 92.442 2.15693 92.9847 2.3826C94.0455 2.81959 94.8918 3.64055 95.3461 4.6733C95.574 5.20828 95.685 5.7838 95.672 6.36305V19.4639L96.8744 17.9863L101.706 12.4433L103.828 9.98293L104.553 10.5768C104.924 10.8823 105.244 11.2425 105.501 11.6444C105.751 12.029 105.933 12.4521 106.037 12.8958C106.142 13.3357 106.179 13.7886 106.146 14.2391C106.113 14.6913 106.005 15.1352 105.827 15.5541C105.683 15.9704 105.467 16.36 105.19 16.7066L101.728 20.5598L106.117 26.9228L107.508 28.9307L109.732 32.183Z" fill="white"/>
<path d="M123.096 17.2085H122.994H122.437H121.901C121.368 17.2047 120.837 17.2521 120.314 17.3499C119.872 17.4377 119.449 17.5979 119.061 17.8236C118.718 18.0158 118.403 18.2538 118.127 18.5306C117.852 18.8055 117.622 19.1203 117.446 19.4639V30.7407C117.448 31.1361 117.369 31.5279 117.214 31.8931C117.064 32.2405 116.847 32.5572 116.577 32.8263C116.304 33.0912 115.982 33.3024 115.628 33.4485C115.274 33.6012 114.892 33.6784 114.505 33.6747C114.103 33.6823 113.704 33.6112 113.33 33.4654C112.957 33.3197 112.618 33.1024 112.332 32.8263C112.061 32.5572 111.845 32.2405 111.695 31.8931C111.539 31.5279 111.461 31.1361 111.463 30.7407V11.3121H112.701C113.666 11.3109 114.611 11.5783 115.425 12.0827C116.215 12.5631 116.852 13.2486 117.265 14.0624C117.675 13.2491 118.31 12.5636 119.097 12.0827C119.923 11.574 120.881 11.3065 121.857 11.3121H123.096V17.2085Z" fill="white"/>
<path d="M143.153 33.5121C142.209 33.5279 141.28 33.2828 140.473 32.8051C139.694 32.3338 139.059 31.6673 138.633 30.875L137.626 31.8719C137.272 32.2346 136.862 32.5401 136.409 32.7769C135.379 33.2716 134.24 33.5142 133.092 33.4839C132.07 33.491 131.055 33.3334 130.086 33.0172C129.646 32.8426 129.218 32.6419 128.804 32.4163C128.408 32.2104 128.04 31.9562 127.71 31.6598C127.03 31.0932 126.477 30.395 126.087 29.6095C125.704 28.7862 125.511 27.8907 125.522 26.9865C125.505 25.9474 125.72 24.917 126.153 23.9675C126.389 23.5342 126.668 23.1245 126.986 22.7444C127.31 22.3581 127.688 22.0178 128.108 21.7334C128.562 21.4128 129.047 21.1381 129.557 20.9133C130.121 20.6667 130.708 20.4749 131.31 20.3406C131.984 20.1634 132.672 20.0427 133.367 19.98C134.164 19.9009 134.964 19.8632 135.765 19.8669H138.409V18.6014C138.455 17.7316 138.172 16.8756 137.612 16.1975C137.353 15.8751 137.007 15.6301 136.612 15.4905C136.148 15.3261 135.658 15.2424 135.164 15.2431H134.475C134.247 15.2491 134.019 15.2728 133.795 15.3138L133.302 15.4481C133.077 15.5229 132.864 15.6301 132.672 15.7663C132.431 15.9406 132.214 16.145 132.027 16.3743C131.799 16.6613 131.623 16.984 131.506 17.3287C131.134 18.0461 130.586 18.6628 129.911 19.1241C129.236 19.5853 128.455 19.8769 127.638 19.9729C127.463 20.0031 127.286 20.0196 127.109 20.0224H126.5H125.776V18.46C125.77 17.5385 125.952 16.6251 126.312 15.7733C126.671 14.9203 127.212 14.1515 127.898 13.518C128.232 13.1995 128.599 12.9152 128.992 12.6696C129.354 12.4433 129.716 12.2524 129.977 12.104C130.296 11.9514 130.625 11.8215 130.962 11.7151L131.216 11.6303L131.491 11.5525C132.746 11.1629 134.057 10.9743 135.374 10.994C136.583 10.9891 137.787 11.1485 138.952 11.4676C139.984 11.7473 140.948 12.2283 141.784 12.8817C142.586 13.527 143.228 14.3417 143.66 15.2643C143.878 15.7616 144.038 16.2809 144.138 16.8126C144.258 17.404 144.316 18.0056 144.312 18.6084V33.4556L143.153 33.5121ZM138.423 23.2181H135.989C135.3 23.2069 134.613 23.2878 133.947 23.4585C133.437 23.6054 132.96 23.8453 132.541 24.1655C132.19 24.4572 131.911 24.822 131.723 25.2331C131.535 25.6545 131.441 26.1099 131.448 26.5693C131.441 26.9035 131.507 27.2352 131.642 27.5424C131.777 27.8496 131.977 28.1252 132.23 28.351C132.822 28.8466 133.588 29.0998 134.367 29.058C134.609 29.0583 134.851 29.0441 135.091 29.0156C135.322 28.9863 135.549 28.939 135.772 28.8742C136.168 28.7595 136.55 28.6006 136.909 28.4005C137.081 28.3084 137.245 28.2044 137.402 28.0894C137.545 27.9833 137.681 27.8676 137.807 27.743C137.929 27.6157 138.043 27.4811 138.148 27.34C138.242 27.2127 138.336 27.0784 138.416 26.944L138.423 23.2181Z" fill="white"/>
<path d="M148.042 4.48948C148.206 4.13524 148.426 3.80837 148.694 3.52088C148.851 3.39582 149.016 3.28014 149.187 3.17445C149.363 3.0667 149.55 2.97669 149.745 2.90579C150.213 2.76106 150.702 2.69181 151.193 2.70075C151.67 2.69175 152.144 2.75861 152.599 2.89872C153.004 3.02876 153.377 3.24076 153.692 3.52088C153.987 3.80437 154.22 4.1438 154.376 4.51829C154.531 4.89278 154.607 5.29441 154.598 5.69847C154.594 6.13343 154.487 6.56167 154.286 6.94987C154.221 7.13198 154.128 7.30356 154.011 7.45892C153.903 7.61002 153.777 7.74772 153.634 7.86898C153.492 8.02499 153.326 8.15855 153.142 8.2649C152.955 8.3718 152.762 8.46628 152.562 8.54771C152.109 8.6937 151.634 8.76304 151.157 8.75274C150.666 8.76484 150.176 8.69551 149.708 8.54771C149.515 8.46908 149.328 8.37447 149.151 8.2649C148.972 8.15103 148.807 8.01825 148.658 7.86898C148.372 7.61516 148.149 7.30077 148.006 6.94987C147.933 6.75645 147.875 6.55793 147.832 6.35598C147.78 6.14061 147.753 5.91993 147.753 5.69847C147.753 5.48633 147.78 5.27502 147.832 5.06923C147.876 4.87214 147.934 4.67839 148.006 4.48948H148.042ZM154.163 15.9925C154.165 15.381 154.042 14.7752 153.801 14.2108C153.316 13.0966 152.407 12.2095 151.266 11.7363C150.687 11.5013 150.067 11.3811 149.44 11.3828H148.115V30.8679C148.11 31.2659 148.189 31.6606 148.347 32.0274C148.491 32.3803 148.708 32.7004 148.984 32.9678C149.258 33.2365 149.582 33.4502 149.94 33.597C150.314 33.7486 150.716 33.8255 151.121 33.8232C151.524 33.8255 151.923 33.7486 152.294 33.597C152.843 33.3701 153.311 32.9901 153.64 32.5046C153.969 32.0191 154.143 31.4498 154.141 30.8679L154.163 15.9925Z" fill="white"/>
<path d="M158.031 33.5122V11.3121C158.981 11.3631 159.911 11.6037 160.762 12.0191C161.806 12.6119 162.642 13.4992 163.16 14.5644C163.861 13.573 164.791 12.7567 165.876 12.1817C167.11 11.5741 168.479 11.2753 169.86 11.3121C170.376 11.3095 170.892 11.3473 171.403 11.4252C171.895 11.494 172.38 11.6076 172.851 11.7646C173.719 12.0303 174.497 12.5187 175.104 13.1786C175.78 13.9241 176.275 14.8085 176.553 15.7663C176.728 16.3391 176.852 16.9258 176.922 17.5196C177.001 18.224 177.04 18.9321 177.038 19.6407V33.5122H175.879C175.232 33.518 174.591 33.3928 173.996 33.1445C172.844 32.6664 171.93 31.7684 171.446 30.6417C171.191 30.066 171.06 29.445 171.062 28.8176V19.6265C171.063 19.2934 171.044 18.9605 171.004 18.6296C170.977 18.3602 170.918 18.0946 170.83 17.8378C170.707 17.4245 170.483 17.0462 170.179 16.7349C169.872 16.4684 169.504 16.277 169.107 16.1763C168.631 16.0729 168.145 16.0254 167.658 16.0349C166.829 16.0186 166.018 16.2668 165.347 16.7419C164.727 17.2178 164.249 17.8478 163.964 18.566V23.9393C163.964 25.5018 163.964 27.2693 163.964 29.256C163.967 29.8273 163.848 30.393 163.616 30.9174C163.39 31.4279 163.065 31.8911 162.66 32.282C162.24 32.6744 161.749 32.9862 161.211 33.2011C160.669 33.4279 160.084 33.5434 159.494 33.5404L158.031 33.5122Z" fill="white"/>
<path d="M200 29.2277C199.913 29.3479 199.797 29.4893 199.652 29.659C199.507 29.8287 199.348 29.9913 199.182 30.161L198.674 30.6488C198.508 30.8114 198.356 30.9457 198.233 31.0518C197.95 31.2851 197.66 31.5043 197.349 31.7164C197.029 31.9372 196.693 32.1334 196.342 32.3032C195.969 32.4988 195.582 32.6666 195.183 32.8052C194.777 32.9466 194.35 33.0738 193.901 33.1869C193.436 33.297 192.964 33.3797 192.489 33.4344C191.974 33.4859 191.456 33.5119 190.938 33.5122C189.371 33.5438 187.814 33.2648 186.361 32.692C185.7 32.4316 185.067 32.1096 184.47 31.7305C183.9 31.3686 183.371 30.9492 182.891 30.4791C181.929 29.5379 181.187 28.4042 180.718 27.1562C180.217 25.85 179.972 24.464 179.994 23.0697V22.292C179.991 21.5087 180.049 20.7264 180.167 19.9518C180.285 19.2293 180.472 18.5192 180.725 17.8307C181.164 16.534 181.858 15.3333 182.768 14.2957C183.67 13.3156 184.78 12.5388 186.02 12.0191C188.734 10.948 191.764 10.9253 194.495 11.9555C195.083 12.2164 195.645 12.5288 196.175 12.8888C196.68 13.2394 197.137 13.6503 197.537 14.1119C197.963 14.5763 198.33 15.089 198.631 15.639C198.95 16.2158 199.21 16.8221 199.406 17.449C199.684 18.3709 199.861 19.3188 199.935 20.277V21.3234C199.911 21.7226 199.803 22.1127 199.616 22.4687C199.436 22.8191 199.191 23.1333 198.892 23.3949C198.596 23.6564 198.255 23.8647 197.885 24.01C197.503 24.1595 197.094 24.2363 196.683 24.2362H185.962C186.01 24.5766 186.088 24.9125 186.194 25.2402C186.284 25.5449 186.403 25.8408 186.549 26.1239C186.827 26.675 187.213 27.1675 187.686 27.5733C188.144 27.9916 188.687 28.3119 189.28 28.5136C189.938 28.7483 190.636 28.861 191.337 28.8459C192.362 28.8546 193.378 28.6573 194.321 28.2662C194.875 28.0359 195.449 27.8584 196.038 27.7359C196.48 27.6401 196.934 27.6115 197.385 27.6511C197.76 27.6876 198.125 27.7881 198.464 27.948C198.795 28.1155 199.1 28.3273 199.37 28.5773L200 29.2277ZM186.505 18.4741C186.395 18.7563 186.301 19.0443 186.223 19.3367C186.141 19.6554 186.081 19.9789 186.042 20.3053H194.241V19.8316C194.227 19.2906 194.142 18.7537 193.988 18.2337C193.827 17.7704 193.582 17.3392 193.264 16.9611C192.933 16.5947 192.515 16.313 192.047 16.141C191.79 16.0232 191.516 15.9423 191.235 15.9006C190.926 15.8549 190.614 15.8313 190.301 15.8299C189.715 15.8136 189.133 15.9272 188.599 16.1622C188.364 16.2654 188.142 16.396 187.94 16.5511C187.731 16.7035 187.537 16.8738 187.36 17.0601C186.998 17.4799 186.713 17.9585 186.52 18.4741" fill="white"/>
<path d="M23.7442 5.20358C23.5631 5.40154 23.382 5.51466 23.1502 5.33791C22.9184 5.16116 22.9547 5.09046 22.7518 5.09753C22.7084 5.09753 22.6577 4.95612 22.5925 4.85714C22.4732 4.85526 22.3585 4.81241 22.2684 4.73612C22.1783 4.65982 22.1186 4.55498 22.0999 4.44001C22.0999 4.38345 21.9623 4.33396 21.8826 4.29861C21.8029 4.26326 21.7305 4.18549 21.7305 4.05115C21.7369 4.02785 21.7381 4.00349 21.7341 3.97968C21.7301 3.95588 21.7209 3.93319 21.7072 3.91311C21.6935 3.89304 21.6756 3.87605 21.6546 3.86328C21.6336 3.85051 21.6101 3.84225 21.5856 3.83905C21.5366 3.83117 21.4911 3.80899 21.4552 3.77542C21.4118 3.77542 21.3538 3.68351 21.3538 3.63402C21.3538 3.58453 21.4335 3.55625 21.4842 3.5209L21.6218 3.45727H21.5856C21.209 3.45727 21.1872 3.45727 21.0496 3.20274C21.0211 3.14725 20.9814 3.09796 20.9328 3.05786C20.8843 3.01776 20.8279 2.98768 20.7671 2.96943C20.7092 2.96943 20.6295 2.88459 20.6295 2.84924C20.6385 2.77214 20.6774 2.70131 20.7381 2.65128C20.8202 2.58244 20.9101 2.52312 21.0062 2.47453C20.9487 2.38499 20.8642 2.31511 20.7642 2.27458C20.6643 2.23404 20.5539 2.22485 20.4484 2.24828C20.1168 2.28847 19.7829 2.30736 19.4488 2.30485C19.217 2.30485 18.978 2.30485 18.7245 2.30485C18.6079 2.30722 18.4922 2.28436 18.3857 2.23791C18.2793 2.19146 18.1847 2.12256 18.1088 2.03618L19.811 1.74631V1.68975L18.92 1.61905C18.7697 1.6229 18.6202 1.59666 18.4807 1.54194C18.3411 1.48722 18.2146 1.40519 18.1088 1.30089L17.9711 1.12414L20.021 1.16656C19.7023 1.11707 19.3909 1.06051 19.0649 1.02516C18.8739 1.00401 18.6898 0.943231 18.5249 0.846896C18.36 0.750561 18.2181 0.620902 18.1088 0.466625L19.6444 0.664587L18.7462 0.120191C18.7444 0.0966554 18.7444 0.0730264 18.7462 0.0494905C19.5861 0.175394 20.4162 0.357284 21.2307 0.593886C20.8835 0.499459 20.5811 0.289341 20.376 0L20.7309 0.0777708C21.6499 0.366232 22.5457 0.720705 23.411 1.13828C23.6466 1.23809 23.8886 1.3231 24.1353 1.39281C24.4469 1.53659 24.6923 1.78871 24.8235 2.09981C25.0432 2.4534 25.2851 2.7934 25.5478 3.1179C25.7289 3.34415 25.8376 3.33708 26.0911 3.1886C26.3074 3.06472 26.5325 2.95603 26.7647 2.86338C26.9231 2.84109 27.0828 2.82928 27.2428 2.82803C27.3979 2.79639 27.5504 2.75386 27.6991 2.70077C27.7926 2.66465 27.8962 2.66186 27.9916 2.6929C28.087 2.72393 28.1681 2.7868 28.2207 2.87045C28.1282 2.95584 28.0289 3.03386 27.9237 3.10376C27.5737 3.33455 27.2895 3.64839 27.0979 4.0158C27.0705 4.05973 27.0528 4.10878 27.046 4.1598C27.0392 4.21081 27.0435 4.26265 27.0585 4.31196C27.0735 4.36128 27.099 4.40696 27.1332 4.44607C27.1674 4.48518 27.2097 4.51683 27.2573 4.53899C27.6046 4.69936 27.9628 4.83637 28.3293 4.94905C28.7435 5.03524 29.1174 5.25125 29.3941 5.56415C29.5245 5.7409 29.6476 5.91765 29.7708 6.10148C30.3993 6.88828 30.9384 7.73931 31.3788 8.63963C31.3788 8.69619 31.4223 8.75276 31.4585 8.83053C31.1688 8.83053 31.147 8.54772 30.9152 8.45581C31.176 9.07091 31.4295 9.65773 31.7048 10.294C31.2629 10.2516 31.2122 9.89104 30.9804 9.65065C31.1325 10.089 31.2702 10.4779 31.4078 10.8879C31.3298 10.9165 31.2435 10.9148 31.1668 10.8833C31.09 10.8517 31.0285 10.7927 30.9949 10.7182C30.8501 10.4072 30.7197 10.089 30.5748 9.77792C30.5304 9.66093 30.4641 9.55303 30.3792 9.45976L30.7486 11.1778C30.638 11.1909 30.5264 11.1635 30.4353 11.1008C30.3443 11.0381 30.2804 10.9446 30.2561 10.8384C30.1329 10.5273 30.046 10.2021 29.9374 9.88397C29.9268 9.83347 29.9123 9.78383 29.8939 9.7355C29.8939 10.2658 29.8939 10.7748 29.8577 11.2768C29.5752 11.1566 29.51 11.0293 29.3941 10.3647C29.3507 10.4849 29.3217 10.5698 29.2927 10.6617C29.1524 10.586 29.0351 10.4755 28.9524 10.3415C28.8698 10.2074 28.8248 10.0545 28.8219 9.89811C28.8219 9.58702 28.8219 9.27594 28.8219 8.94365L28.5973 9.16989L28.2496 8.80932C28.1482 8.70327 28.0613 8.56893 27.8657 8.67498C27.815 8.67498 27.7064 8.63256 27.6267 8.60428C27.547 8.576 27.5253 8.48409 27.4529 8.48409C27.1124 8.48409 27.0762 8.42753 26.9168 8.11645C26.6778 8.24371 26.5764 8.11645 26.4315 7.91849C26.2537 7.76502 26.0565 7.63435 25.8448 7.52963C25.7916 7.50318 25.7407 7.47244 25.6927 7.43772L25.2798 7.07008C25.3595 6.89333 25.1929 6.86505 25.048 6.80848C24.9032 6.75192 24.8017 6.86505 24.7583 6.96403C24.6424 7.2539 24.5555 7.55791 24.4396 7.84779C24.3062 8.19023 24.1489 8.52331 23.9687 8.84467C23.938 8.898 23.8954 8.94395 23.8442 8.97914C23.7929 9.01433 23.7342 9.03787 23.6724 9.04804C23.6105 9.05821 23.5472 9.05475 23.4869 9.03791C23.4266 9.02107 23.371 8.99127 23.3241 8.95072C23.0847 8.99491 22.839 8.99491 22.5997 8.95072C22.3608 8.82054 22.1414 8.65876 21.9478 8.46995C21.9155 8.15353 21.7981 7.85107 21.6074 7.59326C21.6074 7.59326 21.6508 7.43065 21.7088 7.38823C22.0275 7.14785 22.3462 6.90746 22.6794 6.68122C23.0126 6.45498 23.1792 6.36307 23.4545 6.15804C23.6129 6.06008 23.7295 5.90938 23.7828 5.73388C23.8361 5.55837 23.8224 5.36996 23.7442 5.20358Z" fill="white"/>
<path d="M84.9372 3.58449V23.0696C84.9561 24.6164 84.6453 26.15 84.0245 27.5733C83.4842 28.8226 82.6651 29.9385 81.6269 30.8396C81.1039 31.2783 80.5387 31.6666 79.9391 31.9991C79.3033 32.3411 78.6365 32.6251 77.9472 32.8475C77.2203 33.0688 76.4768 33.2343 75.7234 33.3424C74.9218 33.4515 74.1134 33.5059 73.3041 33.5051C71.7242 33.5154 70.1517 33.2938 68.6393 32.8475C67.309 32.4161 66.0785 31.7339 65.0175 30.8396C64.5017 30.4034 64.0398 29.9099 63.6413 29.3691C63.229 28.8109 62.8839 28.2084 62.6127 27.5733C62.0179 26.1414 61.7248 24.6074 61.7507 23.0625V3.58449H62.533C63.2622 3.58059 63.9845 3.72255 64.6554 4.00162C65.3024 4.27449 65.8901 4.66566 66.3866 5.15404C66.8848 5.63738 67.2811 6.21148 67.5528 6.84379C67.8349 7.49204 67.9778 8.18984 67.9729 8.89411V23.0696C67.9729 25.0163 68.4558 26.4303 69.4216 27.3117C70.5456 28.1729 71.9331 28.641 73.362 28.641C74.791 28.641 76.1785 28.1729 77.3025 27.3117C78.22 26.435 78.6812 25.021 78.686 23.0696V8.89411C78.6825 8.18854 78.8305 7.49008 79.1206 6.84379C79.3949 6.21285 79.7908 5.63921 80.2868 5.15404C80.7849 4.65287 81.3819 4.2554 82.0417 3.98564C82.7015 3.71588 83.4105 3.57941 84.1259 3.58449H84.9372Z" fill="white"/>
</g>
<defs>
<clipPath id="clip0">
<rect width="200" height="34" fill="white"/>
</clipPath>
</defs>
</svg>
