<svg width="21" height="24" viewBox="0 0 21 24" fill="none" xmlns="http://www.w3.org/2000/svg">
<path d="M14.2853 14.0805L14.2232 14.0527C14.0751 13.9861 13.9259 13.9232 13.7737 13.8643C13.6078 13.7986 13.4394 13.7378 13.2686 13.6808C13.1337 13.637 12.9978 13.5961 12.8605 13.5562C12.6513 13.4963 12.44 13.4423 12.2225 13.3945C12.1486 13.3795 12.0733 13.3648 11.9985 13.3516L11.9473 13.3419C11.8188 13.317 11.6898 13.2951 11.5594 13.2761L11.522 13.2703L11.5181 13.2693L11.4807 13.2645C11.3724 13.2484 11.2646 13.2333 11.1523 13.2207L10.7703 13.1895C10.3007 13.1589 9.81668 13.1598 9.35247 13.1934L9.21711 13.2046L9.15407 13.2095L8.99604 13.2236C8.8508 13.2386 8.70656 13.2586 8.56231 13.2815L8.51995 13.2873C8.42152 13.3034 8.32301 13.3214 8.22603 13.3395C8.11825 13.3585 8.01185 13.3794 7.90553 13.4023C7.69977 13.448 7.4954 13.5001 7.29753 13.5571C7.13996 13.6019 6.98446 13.651 6.83822 13.7007L6.7368 13.7368C6.42664 13.8453 6.11847 13.9699 5.8201 14.1067L5.74036 14.1442L5.7389 14.1462C2.24989 15.7976 0 19.3161 0 23.1339C0 23.2216 0.00589844 23.3077 0.0113372 23.3944L0.0374586 24H20.1216L20.1487 23.4012C20.1546 23.3125 20.16 23.2244 20.16 23.1339C20.16 19.2552 17.8555 15.7056 14.2853 14.0805ZM0.746667 23.2727C0.789028 19.8449 3.07681 16.4539 6.20051 15.0055L6.30093 14.9665L6.31273 14.9553C6.5574 14.8448 6.80996 14.7441 7.06596 14.655L7.14716 14.6263C7.2865 14.5785 7.4253 14.5347 7.56955 14.4943C7.74926 14.4422 7.93241 14.3954 8.11603 14.3546C8.21102 14.3347 8.30608 14.3157 8.40405 14.2976C8.4818 14.2836 8.5591 14.2689 8.63739 14.2567L8.67576 14.2499C8.81656 14.228 8.95789 14.208 9.09869 14.193L9.42064 14.1652C9.84203 14.1346 10.2453 14.1302 10.7336 14.1652L11.0467 14.1911C11.124 14.1998 11.2013 14.2101 11.2953 14.2232L11.4081 14.2392C11.5258 14.2563 11.6434 14.2762 11.7615 14.2982L11.8167 14.3084C11.8832 14.3206 11.9491 14.3332 12.0116 14.3464C12.2056 14.3882 12.3961 14.4379 12.5852 14.4919C12.7102 14.528 12.8343 14.565 12.9554 14.6049C13.109 14.6555 13.2606 14.7106 13.4108 14.7694C13.555 14.8254 13.6973 14.8853 13.8381 14.9491L13.8627 14.9603C17.0573 16.4097 19.371 19.8118 19.4133 23.2727H1.49333H0.746667ZM7.64646 11.9383C7.7203 11.969 7.7966 11.9958 7.87289 12.0226L8.03291 12.08C8.09443 12.1033 8.15648 12.1263 8.21952 12.1457C8.80637 12.3283 9.42026 12.4222 10.0445 12.4272L10.0942 12.4282C10.3084 12.4282 10.523 12.4169 10.7288 12.396C10.7996 12.3892 10.8686 12.378 10.938 12.3663L11.0921 12.3435C11.1787 12.3323 11.2654 12.3196 11.356 12.3021C11.4181 12.2895 11.4781 12.2734 11.5382 12.2573L11.7065 12.215C11.7897 12.1951 11.8729 12.1751 11.9552 12.1498C12.0064 12.1337 12.0566 12.1152 12.1063 12.0967L12.2417 12.0485C12.3382 12.0154 12.4356 11.9813 12.5332 11.9409C12.5711 11.9249 12.608 11.9074 12.6444 11.8898L12.6882 11.8683C12.8216 11.8094 12.9545 11.749 13.0865 11.679L13.1721 11.6284C13.3198 11.5456 13.467 11.4599 13.6162 11.3591C13.6935 11.3075 13.7673 11.2496 13.8401 11.1922L14.0922 10.9984C15.5416 9.81197 16.3746 8.07096 16.3746 6.26525L16.3776 6.21366C16.3776 2.78723 13.5586 0 10.0938 0C6.78644 0 4.03488 2.5574 3.82959 5.82225L3.82415 5.90308C3.81626 6.0058 3.8099 6.10852 3.8099 6.21366C3.8089 8.71636 5.31491 10.9632 7.64646 11.9383ZM4.80581 5.97057L4.81171 5.88293C4.98498 3.12978 7.30473 0.973569 10.0932 0.973569C13.0156 0.973569 15.3924 3.32409 15.3949 6.16919L15.392 6.22033C15.39 7.77923 14.687 9.24709 13.4587 10.2553L13.2248 10.4316C13.1726 10.4735 13.1199 10.5153 13.0544 10.5602C12.9363 10.6396 12.8112 10.7111 12.6842 10.7822L12.6138 10.8246C12.5075 10.8811 12.3957 10.9311 12.2795 10.9823L12.1491 11.0446C12.0742 11.0753 11.9955 11.102 11.9177 11.1288L11.7552 11.1868C11.7237 11.1985 11.6917 11.2111 11.6607 11.2204C11.6001 11.2388 11.5381 11.253 11.4765 11.2681L11.2801 11.3178C11.2377 11.329 11.1959 11.3407 11.1585 11.3485C11.093 11.3611 11.0261 11.3699 10.9597 11.3791L10.7726 11.4069C10.7273 11.4147 10.682 11.4225 10.6313 11.4273C10.4673 11.4444 10.3024 11.4536 10.135 11.455L10.0888 11.4546H10.0878C9.54872 11.4541 9.01948 11.3747 8.51337 11.218C8.46955 11.2044 8.42673 11.1873 8.38391 11.1713L8.19884 11.1046C8.14123 11.0846 8.08416 11.0651 8.02901 11.0423C6.0637 10.2203 4.79347 8.32442 4.79347 6.21396C4.79347 6.1317 4.79991 6.05087 4.80581 5.97057Z" fill="white"/>
</svg>
