<svg width="24" height="24" viewBox="0 0 24 24" fill="none" xmlns="http://www.w3.org/2000/svg">
<path d="M23.7905 22.7761L17.9581 16.9437C19.5226 15.145 20.4699 12.7982 20.4699 10.2333C20.4699 4.58714 15.8774 0 10.2366 0C4.5905 0 0.00335693 4.59246 0.00335693 10.2333C0.00335693 15.8741 4.59582 20.4665 10.2366 20.4665C12.8016 20.4665 15.1484 19.5193 16.947 17.9548L22.7794 23.7871C22.9178 23.9255 23.104 24 23.285 24C23.4659 24 23.6521 23.9308 23.7905 23.7871C24.0672 23.5104 24.0672 23.0528 23.7905 22.7761ZM1.43484 10.2333C1.43484 5.38004 5.3834 1.43681 10.2313 1.43681C15.0845 1.43681 19.0277 5.38537 19.0277 10.2333C19.0277 15.0812 15.0845 19.035 10.2313 19.035C5.3834 19.035 1.43484 15.0865 1.43484 10.2333Z" fill="white"/>
</svg>
