<svg width="16" height="24" fill="none" xmlns="http://www.w3.org/2000/svg"><path d="M15.62.372C15.394.167 15.197 0 15.197 0L8.014 6.551.817 0 .408.372 0 .744l7.592 6.91.422.346s.282-.244.394-.346L16 .744s-.155-.167-.38-.372zm0 8A18.825 18.825 0 0 0 15.197 8l-7.183 6.551L.817 8l-.409.372L0 8.744l7.592 6.91.422.346s.282-.244.394-.346L16 8.744s-.155-.167-.38-.372zm0 8a18.825 18.825 0 0 0-.423-.372l-7.183 6.551L.817 16l-.409.372-.408.372 7.592 6.91.422.346s.282-.244.394-.346L16 16.744s-.155-.167-.38-.372z" fill="#fff"/></svg>