<svg data-name="Режим изоляции" xmlns="http://www.w3.org/2000/svg" width="538.43" height="167.67"><path d="M531.71 123.21q-4.12 4.29-11.45 4.28t-11.47-4.28q-4.12-4.28-4.12-11.2V74.13a13.1 13.1 0 0 0-2.38-8.2 7.71 7.71 0 0 0-6.42-3.1q-8.07 0-11 7.2T481.98 90v22a15.46 15.46 0 0 1-4.14 11.2q-4.12 4.29-11.46 4.28t-11.46-4.28q-4.12-4.28-4.12-11.2V53.54a15.07 15.07 0 0 1 4.21-11q4.23-4.28 11.37-4.28 10.1 0 14.13 8.19 9-10 23.28-10 16.86 0 24.48 10t7.61 29.15V112q0 6.93-4.13 11.2M399.78 61.92q-12.84 0-12.85 21a32.49 32.49 0 0 0 3.12 14.85 10.28 10.28 0 0 0 9.73 6.1q12.83 0 12.83-21t-12.83-21m32.91 54.64q-12 12.75-32.91 12.75t-32.92-12.75q-12-12.73-12-33.69t12-33.7q12-12.74 32.92-12.74t32.91 12.83q12 12.86 12 33.61 0 20.94-12 33.69m-69-96.71q-2.75 10.93-16.32 7.29a46.59 46.59 0 0 0-10.63-1.64c-4.65 0-7 2.42-7 7.29v5.46h10.08q14.68 0 14.67 12.75T339.82 63.7h-10.08v86.51q0 6.91-3.94 11.2t-11.28 4.28q-7.34 0-11.28-4.28t-3.94-11.2V39.71q0-19.12 7.52-28.42a28 28 0 0 1 11.55-8.28 41.08 41.08 0 0 1 15.77-3q14.13 0 22.37 4.56 9.72 5.46 7.15 15.29m-90.77 18.4q7.35 0 11.47 4.37a15.27 15.27 0 0 1 4.12 10.92V112a15.73 15.73 0 0 1-4 11.11q-4 4.38-11.56 4.37-7.32 0-11.45-4.37a15.54 15.54 0 0 1-4.18-11.11V53.54a15.28 15.28 0 0 1 4.13-10.92q4.13-4.36 11.45-4.37m11.83-12.84q-4.49 3.72-11.83 3.73-7.5 0-11.92-3.73t-4.4-10.84q0-6.92 4.4-10.75T272.87 0q7.35 0 11.83 3.92t4.49 10.65q0 7.11-4.49 10.84m-35.21 91.06a18.56 18.56 0 0 1-8 8.29q-7.87 4.56-22 4.55t-22.92-8q-8.8-8-8.8-24.77V31.69a15.31 15.31 0 0 1 4.12-10.93c2.75-2.91 6.58-4.37 11.46-4.37s8.71 1.46 11.46 4.37a15.28 15.28 0 0 1 4.17 10.93v6.56h7.88q14.67 0 14.67 12.75t-14.67 12.75h-7.88v31q0 7.29 7 7.29 2.56 0 9.35-1.83 11-3.27 14.48 5.83a13.2 13.2 0 0 1-.27 10.47M147.81 89.79a57.53 57.53 0 0 0-9.91-.91q-12.64 0-12.65 10a7.11 7.11 0 0 0 2.38 5.46 9.14 9.14 0 0 0 6.42 2.19 14.63 14.63 0 0 0 9.54-3.47 11 11 0 0 0 4.22-8.92zm25.57 33.33q-3.75 4.38-11.27 4.37-9.9 0-13.94-8.2-8.43 10-24 10-14.11 0-21.64-7.19t-7.55-19.38q0-15.48 10.63-22.58T133.5 73c2.2 0 4.49.1 6.88.28a55.16 55.16 0 0 1 5.6.72l1.84.36v-4.74c0-2.91-.89-5.07-2.66-6.46s-5.11-2.1-10-2.1a34.54 34.54 0 0 0-6 .55q-3.12.54-7.15 1.37t-7.15 1.37q-10.08 1.63-12.47-6.56-3.12-10.93 9.9-16.76 10.1-4.54 27.32-4.55 18.52 0 28.06 9.56t9.54 26V112a16.42 16.42 0 0 1-3.77 11.11M56.57 33.06q-4.5-3.91-12.75-3.92a83.2 83.2 0 0 0-10.81.55V60.1a77.83 77.83 0 0 0 10.26.55q8.07 0 12.94-4.09t4.85-12.3q0-7.29-4.49-11.2m25 44.53Q67.28 88.88 44.89 88.88A77.15 77.15 0 0 1 32.98 88v22.95a16.86 16.86 0 0 1-4.31 11.93q-4.32 4.65-12.2 4.64t-12.19-4.64a16.86 16.86 0 0 1-4.3-11.96V21.67q0-15.12 14.67-18.21Q26.93.91 44.54.91q23.29 0 37.32 10.84t14 32.51q0 22-14.31 33.33" fill="#2a2a29"/><path d="M530.63 167.67h-6a7.8 7.8 0 0 1-7.81-7.8V154a7.8 7.8 0 0 1 7.81-7.8h6a7.8 7.8 0 0 1 7.8 7.8v5.85a7.8 7.8 0 0 1-7.8 7.8m-32.31 0H362.88a7.8 7.8 0 0 1-7.81-7.8V154a7.8 7.8 0 0 1 7.81-7.8h135.44a7.81 7.81 0 0 1 7.81 7.8v5.85a7.81 7.81 0 0 1-7.81 7.8" fill="#fff"/></svg>