<svg width="70" height="70" fill="none" xmlns="http://www.w3.org/2000/svg"><path d="M17 47h15.64v-1.793H19.7l7.714-7.841c2.523-2.532 4.656-5.24 4.656-8.299 0-4.57-3.59-7.067-7.393-7.067-3.235 0-6.043 1.547-7.536 4.571l1.6.95c1.173-2.462 3.234-3.728 5.936-3.728 3.02 0 5.473 1.899 5.473 5.274 0 2.427-1.848 4.747-4.016 6.962L17 45.313V47zm36-6.927h-3.199v-7.735h-1.884v7.735H36.614l9.42-17.686h-2.062l-9.455 17.686v1.758h13.4V47h1.884v-5.169H53v-1.758z" fill="#C5A26D"/><circle cx="35" cy="35" r="34.5" stroke="#C5A26D"/></svg>