<svg width="66" height="65" fill="none" xmlns="http://www.w3.org/2000/svg"><path d="M53 5c-2.721-.003-6.762.452-9 2-2.167-4.29-6.194-7.006-11-7-4.806.006-8.844 3.704-11 8-4.353-3.01-10.48-3.753-15-1C2.48 9.754.322 13.751 1 19c.678 5.249 4.929 10.486 10 12v33c0 .755.246 1 1 1h43c.755 0 1-.245 1-1V31c6.379-1.905 9.963-8.413 9-15-.963-6.587-5.343-11-12-11zM12 64V54h43.032L55 64H12zm44-34c-.629.136-1 .356-1 1l.032 22H12V31c0-.643-.372-.864-1-1 .007.001 0-1 0 0-5.344-1.14-8.573-7.567-8-13 .573-5.434 5.537-10 11-10 2.616 0 5.924.151 8 2 .344.305.5 1 1 1s.854-.564 1-1c1.295-3.964 4.834-6.824 9-7 4.166-.176 8.377 3.16 10 7-1.588 1.682-2.953 2.252-3.5 4.5-.18.733-.233 2.321.5 2.5.733.18 1.82-.267 2-1 1.255-5.13 5.741-8.473 11-8 5.26.474 9.68 4.729 10 10 .319 5.27-1.836 11.895-7 13z" fill="#C5A26D"/><path d="M33 29c-.552 0-1 .605-1 1.351V47.65c0 .746.448 1.351 1 1.351s1-.605 1-1.351v-17.3c0-.746-.448-1.351-1-1.351zm5 3c-.552 0-1 .594-1 1.328v14.344c0 .734.448 1.328 1 1.328s1-.594 1-1.328V33.328c0-.734-.448-1.328-1-1.328zm-11 0c-.552 0-1 .594-1 1.328v14.344c0 .734.448 1.328 1 1.328s1-.594 1-1.328V33.328c0-.734-.448-1.328-1-1.328zm-5 2c-.552 0-1 .622-1 1.389V47.61c0 .767.448 1.389 1 1.389s1-.622 1-1.389V35.39c0-.767-.448-1.389-1-1.389zm22 0c-.552 0-1 .622-1 1.389V47.61c0 .767.448 1.389 1 1.389s1-.622 1-1.389V35.39c0-.767-.448-1.389-1-1.389z" fill="#C5A26D"/></svg>