<svg width="79" height="71" fill="none" xmlns="http://www.w3.org/2000/svg"><mask id="a" fill="#fff"><path d="M74.76 29.529h-1.145V13.874c0-4-3.254-7.255-7.254-7.255H34.902L13.68.555l-.02-.004-.018-.006-.038-.007-.06-.012-.053-.007a1.08 1.08 0 0 0-.062-.006l-.05-.001h-.064l-.047.004a1.033 1.033 0 0 0-.065.007l-.044.007a1.079 1.079 0 0 0-.066.014l-.04.01a1.28 1.28 0 0 0-.17.063l-.033.017c-.022.01-.043.022-.064.034l-.031.02a1.1 1.1 0 0 0-.06.04l-.03.023a1.12 1.12 0 0 0-.056.045l-.03.027a1.243 1.243 0 0 0-.049.049l-.029.032a1.148 1.148 0 0 0-.042.051l-.029.04a1.104 1.104 0 0 0-.034.05.565.565 0 0 0-.027.047c-.01.017-.02.034-.028.051a.976.976 0 0 0-.046.104l-.02.058-.012.036-.004.019-.006.018-1.31 5.24H7.255C3.263 6.619.015 9.86.001 13.85L0 13.873l.002 43.805.998-.514 1.291-.664V19.157a7.226 7.226 0 0 0 4.964 1.971h59.11a4.97 4.97 0 0 1 4.96 4.964v8.019H58.72a1.127 1.127 0 0 0-.206.02l-.016.002a1.13 1.13 0 0 0-.089.022l-.02.005a1.171 1.171 0 0 0-.076.027l-.029.011-.061.029a.299.299 0 0 0-.04.02l-.047.026-.05.031-.032.024a.872.872 0 0 0-.058.043l-.024.021a.741.741 0 0 0-.058.054c-.012.01-.022.023-.032.035l-.044.049a1.12 1.12 0 0 0-.067.09l-.001.001-6.109 9.164a1.127 1.127 0 0 0-.107.202.758.758 0 0 0-.028.08l-.009.023a1.179 1.179 0 0 0-.021.085l-.006.023a1.067 1.067 0 0 0-.011.077l-.005.033c-.002.021-.002.042-.003.064l-.002.048.002.048.003.065.005.032a.7.7 0 0 0 .012.078l.005.021c.006.03.013.058.021.087l.009.024a1.143 1.143 0 0 0 .136.282l6.108 9.162h.001c.025.037.051.072.08.106l.029.031a1.168 1.168 0 0 0 .166.15l.032.023c.035.024.07.045.107.065l.028.014c.03.014.06.028.09.04l.036.013c.03.01.059.02.09.028l.036.01c.031.007.063.012.095.017l.034.005c.04.004.08.007.12.007h12.611v8.02a4.97 4.97 0 0 1-4.964 4.964H7.256a4.97 4.97 0 0 1-4.964-4.964V56.5l-2.29 1.178L0 62.748l.002.035c.02 3.984 3.266 7.22 7.254 7.22H66.36c4 0 7.254-3.254 7.255-7.254v-8.02h1.144a3.44 3.44 0 0 0 3.436-3.436V32.964a3.44 3.44 0 0 0-3.436-3.435zM14.188 3.083L34.4 8.858h.003l13.546 3.871H11.777l2.411-9.646zm57.136 17.725a7.226 7.226 0 0 0-4.963-1.971H7.255a4.97 4.97 0 0 1-4.963-4.963A4.97 4.97 0 0 1 7.255 8.91h3.116l-.955 3.82h-2.16a1.146 1.146 0 0 0 0 2.29h57.576a1.145 1.145 0 1 0 0-2.29h-8.544L42.92 8.91h23.44a4.97 4.97 0 0 1 4.964 4.964v6.934zm4.58 30.484c0 .631-.513 1.145-1.144 1.145H59.336L53.99 44.42l5.346-8.019H74.76l.048-.002a3.421 3.421 0 0 0 1.097-.196v15.09zM74.76 34.11l-.024.002h-1.12V31.82h1.144c.631 0 1.145.513 1.145 1.144 0 .632-.514 1.145-1.145 1.145z"/></mask><path d="M74.76 29.529h-1.145V13.874c0-4-3.254-7.255-7.254-7.255H34.902L13.68.555l-.02-.004-.018-.006-.038-.007-.06-.012-.053-.007a1.08 1.08 0 0 0-.062-.006l-.05-.001h-.064l-.047.004a1.033 1.033 0 0 0-.065.007l-.044.007a1.079 1.079 0 0 0-.066.014l-.04.01a1.28 1.28 0 0 0-.17.063l-.033.017c-.022.01-.043.022-.064.034l-.031.02a1.1 1.1 0 0 0-.06.04l-.03.023a1.12 1.12 0 0 0-.056.045l-.03.027a1.243 1.243 0 0 0-.049.049l-.029.032a1.148 1.148 0 0 0-.042.051l-.029.04a1.104 1.104 0 0 0-.034.05.565.565 0 0 0-.027.047c-.01.017-.02.034-.028.051a.976.976 0 0 0-.046.104l-.02.058-.012.036-.004.019-.006.018-1.31 5.24H7.255C3.263 6.619.015 9.86.001 13.85L0 13.873l.002 43.805.998-.514 1.291-.664V19.157a7.226 7.226 0 0 0 4.964 1.971h59.11a4.97 4.97 0 0 1 4.96 4.964v8.019H58.72a1.127 1.127 0 0 0-.206.02l-.016.002a1.13 1.13 0 0 0-.089.022l-.02.005a1.171 1.171 0 0 0-.076.027l-.029.011-.061.029a.299.299 0 0 0-.04.02l-.047.026-.05.031-.032.024a.872.872 0 0 0-.058.043l-.024.021a.741.741 0 0 0-.058.054c-.012.01-.022.023-.032.035l-.044.049a1.12 1.12 0 0 0-.067.09l-.001.001-6.109 9.164a1.127 1.127 0 0 0-.107.202.758.758 0 0 0-.028.08l-.009.023a1.179 1.179 0 0 0-.021.085l-.006.023a1.067 1.067 0 0 0-.011.077l-.005.033c-.002.021-.002.042-.003.064l-.002.048.002.048.003.065.005.032a.7.7 0 0 0 .012.078l.005.021c.006.03.013.058.021.087l.009.024a1.143 1.143 0 0 0 .136.282l6.108 9.162h.001c.025.037.051.072.08.106l.029.031a1.168 1.168 0 0 0 .166.15l.032.023c.035.024.07.045.107.065l.028.014c.03.014.06.028.09.04l.036.013c.03.01.059.02.09.028l.036.01c.031.007.063.012.095.017l.034.005c.04.004.08.007.12.007h12.611v8.02a4.97 4.97 0 0 1-4.964 4.964H7.256a4.97 4.97 0 0 1-4.964-4.964V56.5l-2.29 1.178L0 62.748l.002.035c.02 3.984 3.266 7.22 7.254 7.22H66.36c4 0 7.254-3.254 7.255-7.254v-8.02h1.144a3.44 3.44 0 0 0 3.436-3.436V32.964a3.44 3.44 0 0 0-3.436-3.435zM14.188 3.083L34.4 8.858h.003l13.546 3.871H11.777l2.411-9.646zm57.136 17.725a7.226 7.226 0 0 0-4.963-1.971H7.255a4.97 4.97 0 0 1-4.963-4.963A4.97 4.97 0 0 1 7.255 8.91h3.116l-.955 3.82h-2.16a1.146 1.146 0 0 0 0 2.29h57.576a1.145 1.145 0 1 0 0-2.29h-8.544L42.92 8.91h23.44a4.97 4.97 0 0 1 4.964 4.964v6.934zm4.58 30.484c0 .631-.513 1.145-1.144 1.145H59.336L53.99 44.42l5.346-8.019H74.76l.048-.002a3.421 3.421 0 0 0 1.097-.196v15.09zM74.76 34.11l-.024.002h-1.12V31.82h1.144c.631 0 1.145.513 1.145 1.144 0 .632-.514 1.145-1.145 1.145z" fill="#C5A26D"/><path d="M73.615 29.529h-.25v.25h.25v-.25zM34.902 6.619l-.069.24.034.01h.035v-.25zM13.68.555l.069-.24-.003-.001-.066.241zm-.02-.004l.067-.241h-.002l-.065.24zm-.018-.006l-.06.243.06-.243zm-.038-.007l.053-.245h-.002l-.051.245zm-.06-.012l.04-.247-.04.247zm-.053-.007l.03-.248-.03.248zM13.43.513l.015-.25h-.001l-.014.25zm-.05-.001l.005-.25h-.001l-.004.25zm-.064 0l.01.25h.001l-.01-.25zm-.047.004l-.02-.25.02.25zm-.065.007l.036.247-.036-.247zM13.16.53l.044.246L13.16.53zm-.066.014L13.033.3l.06.243zm-.04.01l-.069-.24.069.24zm-.067.021L12.904.34l-.002.001.085.235zM12.95.59l.09.233h.001L12.95.59zm-.066.027L12.779.39l.105.227zm-.034.017L12.738.41l.112.224zm-.064.034l.126.217.002-.002-.128-.215zm-.031.02l.132.212-.133-.212zm-.06.04l.145.203h.001l-.147-.203zm-.03.023l.152.198-.153-.198zm-.056.045l.165.188-.165-.188zm-.03.027l-.17-.182h-.001l.171.182zm-.049.049L12.348.7l.182.172zm-.029.032L12.313.74l.188.164zm-.042.051L12.26.802l.198.153zm-.029.04l-.203-.147V.85l.203.145zm-.034.05l.21.134h.001l-.211-.133zm-.027.047l.217.123-.217-.123zm-.028.051l.223.112-.223-.112zm-.024.053l-.229-.102.229.102zm-.022.052l-.234-.089.234.089zm-.02.057l-.237-.078v.001l.237.077zm-.016.055l-.241-.067v.002l.24.065zm-.006.018l.242.06-.242-.06zm-1.31 5.24v.25h.195l.048-.189-.243-.06zM.001 13.85l.25.005v-.004h-.25zM0 13.873h-.25H0zm1 43.291l-.114-.222.114.222zm1.291-.664h.25-.25zm0-37.343l.171-.183-.421-.396v.579h.25zm64.07 1.971v.25h.01l-.01-.25zm.004 0v-.25h-.01l.01.25zm4.96 12.983v.25h.25v-.25h-.25zm-12.603 0v-.25h-.018l.018.25zm-.002 0v.25h.019l-.019-.25zm-.099.005l.022.249-.022-.25zm-.108.015l.043.246h.003l-.045-.246zm-.015.002l.048.245-.048-.245zm-.089.022l-.068-.24.068.24zm-.02.005l.074.24.002-.001-.075-.239zm-.076.027l.09.234-.09-.234zm-.029.011l-.095-.231.096.231zm-.061.029l.108.226.002-.002-.11-.224zm-.04.02l-.116-.222h-.001l.117.221zm-.047.026l.128.215h.001l-.129-.215zm-.05.031l.137.209h.002l-.14-.209zm-.032.024l.146.203.001-.001-.147-.202zm-.058.043l-.16-.193.16.193zm-.024.021l.165.189v-.001l-.165-.188zm-.058.054l.176.177-.176-.177zm-.032.035l.183.17.002-.002-.185-.168zm-.044.049l-.194-.16v.001l.194.159zm-.067.09l.202.147.006-.009-.208-.139zm-.001.001l-.203-.147-.005.008.208.14zm-6.109 9.164l.208.139-.208-.14zm-.107.202l.23.095.002-.001-.232-.094zm-.028.08l-.238-.078.238.077zm-.009.023l.24.073-.24-.073zm-.021.085l.244.055-.244-.054zm-.006.023l-.245-.05v.002l.245.048zm-.011.077l.248.031-.248-.03zm-.005.033l.249.025-.249-.025zm-.003.064l.25.011v-.002l-.25-.01zm0 .096l.25-.01-.25.01zm.003.065l-.248.024v.001l.248-.025zm.005.032l.248-.032-.248.032zm.012.078l.245-.047v-.002l-.245.05zm.005.021l.244-.053v-.003l-.244.056zm.021.087l-.24.071h.001l.24-.072zm.009.024l-.239.075.001.002.238-.077zm.028.08l.231-.095v-.001l-.231.095zm.107.201l.209-.138-.209.138zm6.11 9.163l-.21.139.01.01.2-.15zm0 0l.208-.139-.008-.01-.2.15zm.08.106l.19-.162-.19.162zm.029.031l.184-.168v-.002l-.184.17zm.06.062l-.171.182.171-.182zm.037.033l-.163.19.163-.19zm.07.055l-.149.201h.001l.147-.201zm.031.023l.14-.206-.14.206zm.107.065l-.117.22v.001l.117-.221zm.028.014l.112-.224h-.002l-.11.224zm.09.04l.093-.233h-.001l-.092.233zm.036.013l.084-.235-.084.235zm.09.028l-.066.241h.002l.063-.241zm.036.01l-.059.242h.003l.056-.243zm.095.017l.035-.248-.035.248zm.034.005l-.03.248h.002l.028-.248zm.12.007l-.002.25h.002v-.25zm.01 0v.25h.018l-.018-.25zm.002 0v-.25h-.009l-.009.001.018.25zm12.599 0h.25v-.25h-.25v.25zM2.29 62.73h-.25v.007l.25-.007zM0 62.748h-.25H0zm.001.035h.25v-.01l-.25.01zm73.614-.034h.25-.25zm0-8.02v-.25h-.25v.25h.25zm4.58-21.765h.25-.25zM14.188 3.084l.069-.241-.248-.071-.063.25.242.061zM34.4 8.857l-.069.24.005.002.064-.242zm.003 0l.069-.24h-.005l-.064.24zm13.546 3.871v.25l.069-.49-.069.24zm-36.172 0l-.242-.06-.078.31h.32v-.25zm59.547 8.08l-.171.181.421.397v-.579h-.25zm-4.963-1.972v-.25h-.02l.02.25zM10.37 8.91l.242.06.078-.31h-.32v.25zm-.955 3.82v.25h.195l.048-.19-.243-.06zm.89 2.29l.016-.25h-.016v.25zm.005 0l-.015.25.018.001.019-.001-.022-.25zm.004 0v-.25h-.011l-.01.001.02.25zm45.809 0l.018-.25h-.017v.25zm.004 0l-.018.25.02.001.019-.001-.02-.25zm.004 0v-.25h-.01l-.01.001.02.25zm.156-2.29l-.069.24.034.01h.035v-.25zM42.92 8.91v-.25l-.069.49.07-.24zm16.416 43.527l-.208.139.074.111h.134v-.25zM53.99 44.42l-.208-.139-.092.139.092.139.208-.14zm5.346-8.019v-.25h-.134l-.074.112.208.138zm15.472-.002l-.004-.25h-.006l.01.25zm1.097-.196h.25v-.354l-.334.119.084.235zm-1.169-2.093v.25h.005l-.005-.25zm-1.12 0h-.25v.25h.25v-.25zm0-2.29v-.25h-.25v.25h.25zm1.144-2.541h-1.145v.5h1.145v-.5zm-.895.25v-3.437h-.5v3.437h.5zm0-3.437V13.874h-.5v12.218h.5zm0-12.218c0-4.139-3.366-7.505-7.504-7.505v.5a7.013 7.013 0 0 1 7.004 7.005h.5zm-7.504-7.505H34.902v.5h31.459v-.5zm-31.39.01L13.748.315l-.138.48L34.834 6.86l.137-.48zM13.745.314a.317.317 0 0 0-.024-.006c-.002 0-.002 0 0 0l.006.002-.133.482a.35.35 0 0 0 .016.004l.008.002h.001l-.006-.002.132-.482zm-.02-.005l.007.002h-.002a.435.435 0 0 0-.03-.009l-.118.486a.162.162 0 0 1-.01-.003c-.001 0-.002 0 0 0l.007.003.016.004.13-.483zm-.022-.006a.523.523 0 0 0-.037-.008l-.008-.001h-.001l-.106.488a.56.56 0 0 0 .017.003l.011.002h.002l.122-.484zm-.048-.01a.954.954 0 0 0-.07-.014l-.08.494.047.01.103-.49zm-.07-.014L13.52.271l-.06.496.043.006.08-.494zM13.52.271a1.325 1.325 0 0 0-.076-.007l-.03.499c.014 0 .03.002.048.004l.059-.496zm-.077-.007c-.023-.002-.046-.002-.06-.002l-.008.5.04.001.028-.5zm-.06-.002h-.079l.022.5h.05l.007-.5zm-.077 0c-.023.001-.048.004-.057.005l.039.498.037-.003-.02-.5zm-.059.005a1.27 1.27 0 0 0-.08.009l.073.494a.791.791 0 0 1 .049-.005l-.042-.498zm-.08.008l-.052.01.088.491.036-.006-.072-.495zm-.052.01a1.31 1.31 0 0 0-.081.016l.119.486a.793.793 0 0 1 .05-.01l-.088-.493zM13.033.3l-.048.013.136.481.032-.008-.12-.486zm-.05.014a1.53 1.53 0 0 0-.079.024l.165.473c.015-.006.032-.01.053-.017l-.138-.48zm-.08.025a1.42 1.42 0 0 0-.045.017l.183.465.03-.011-.169-.47zm-.043.016a1.38 1.38 0 0 0-.08.034l.209.454a.908.908 0 0 1 .05-.021l-.18-.467zm-.082.034l-.04.02.224.447.028-.013-.212-.454zm-.04.02a1.29 1.29 0 0 0-.08.043l.256.43a.755.755 0 0 1 .048-.026L12.738.41zm-.077.042l-.04.024.267.423.024-.014-.25-.433zm-.04.024c-.022.014-.048.03-.074.05l.294.404a.818.818 0 0 1 .046-.03l-.265-.424zm-.072.049l-.038.028.306.396.023-.018-.291-.406zm-.038.028c-.02.016-.044.034-.067.055l.33.376a.89.89 0 0 1 .043-.035L12.51.553zm-.067.055l-.036.033.342.365.024-.022-.33-.376zm-.036.034a1.439 1.439 0 0 0-.06.058l.364.344a.983.983 0 0 1 .04-.039l-.344-.363zm-.06.059c-.014.014-.029.032-.035.039l.376.33.023-.027L12.348.7zm-.035.04a1.34 1.34 0 0 0-.052.061l.395.306a.9.9 0 0 1 .034-.04L12.313.74zm-.052.062l-.034.045.406.292.024-.032-.396-.305zm-.034.046l-.043.064.423.265a.772.772 0 0 1 .027-.039l-.407-.29zm-.043.063l-.033.057.435.246.02-.036-.422-.267zm-.033.056l-.034.064.448.222a.937.937 0 0 1 .021-.039l-.435-.247zm-.034.064c-.012.023-.022.047-.029.062l.457.203.02-.042-.448-.223zm-.029.062c-.008.018-.018.04-.027.065l.468.177a.707.707 0 0 1 .016-.04l-.457-.202zm-.027.066a.778.778 0 0 0-.023.067l.475.155.016-.046-.468-.176zm-.024.068v.002l-.003.008-.011.033.48.14.001-.003.004-.01.006-.017-.477-.153zm-.014.043l-.005.019-.002.01V1.3l.002-.008.482.133a.363.363 0 0 0 .004-.017l.002-.008c0-.002 0 0 0 0l-.003.01-.48-.14zm-.006.024l.002-.006v.001l-.004.01a.326.326 0 0 0-.005.019l.486.118a.117.117 0 0 1-.003.01c0 .001 0 .002 0 0l.002-.007.005-.015-.483-.13zm-.007.023l-1.31 5.24.486.121 1.31-5.24-.486-.121zm-1.067 5.05H7.255v.5h3.688v-.5zm-3.688 0c-4.13 0-7.49 3.353-7.504 7.48l.5.002c.013-3.852 3.15-6.981 7.004-6.981v-.5zm-7.504 7.476a.102.102 0 0 1 0-.003v.002l-.001.03h.5v.007s0 .001 0 0v-.01l.001-.016-.5-.01zm-.001.03l.002 43.804h.5L.25 13.873h-.5zM.116 57.9l.998-.513-.228-.445-.999.514.229.444zm.998-.513l1.292-.665-.229-.444-1.291.664.228.445zm1.427-.887V19.157h-.5V56.5h.5zM2.12 19.339a7.476 7.476 0 0 0 5.135 2.04v-.5a6.976 6.976 0 0 1-4.793-1.905l-.342.365zm5.135 2.04h59.106v-.5H7.255v.5zm59.115 0l.004-.001-.019-.5h-.004l.02.5zm-.005 0a4.72 4.72 0 0 1 4.71 4.713h.5a5.22 5.22 0 0 0-5.21-5.214v.5zm4.71 4.713v8.019h.5v-8.02h-.5zm.25 7.769H58.721v.5h12.602v-.5zm-12.62 0h-.003l.037.5.002-.001-.037-.499zm.015 0c-.042 0-.083.002-.12.006l.044.498a.88.88 0 0 1 .076-.004v-.5zm-.12.006c-.046.004-.09.01-.132.018l.091.492a.87.87 0 0 1 .084-.012l-.043-.498zm-.129.017a.34.34 0 0 0-.022.004l.098.49-.007.002.005-.001.01-.002-.084-.493zm-.022.004c-.04.008-.078.018-.108.027l.136.48a.89.89 0 0 1 .07-.017l-.098-.49zm-.108.027h.002v-.001h-.003c-.003.002-.014.004-.026.008l.151.477a.27.27 0 0 1-.006.002c-.001 0-.002 0 0 0l.006-.002a.467.467 0 0 0 .013-.003l-.138-.481zm-.024.006a1.41 1.41 0 0 0-.093.033l.179.467a.963.963 0 0 1 .06-.022l-.146-.478zm-.093.033l-.008.003a.584.584 0 0 0-.027.01l.19.462h.004l.007-.004c.004 0 .008-.002.013-.004l-.178-.467zm-.035.013c-.03.012-.06.027-.076.035l.22.45.047-.023-.19-.462zm-.074.034l-.048.024.232.443.032-.016-.216-.45zm-.05.024l-.057.034.257.429c.024-.015.027-.017.035-.02l-.234-.443zm-.056.033c-.011.007-.038.022-.062.038l.277.416.04-.024-.255-.43zm-.06.037l-.03.021c-.008.007-.01.007-.012.01l.294.404.012-.009.004-.003.003-.003.003-.002-.274-.418zm-.041.03a.896.896 0 0 0-.072.053l.32.386c.01-.01.021-.017.044-.033l-.292-.406zm-.072.054a.474.474 0 0 0-.022.02l-.005.004-.002.001.33.376.01-.01a.432.432 0 0 1 .007-.005l.002-.002-.32-.384zm-.028.024c-.018.016-.045.04-.071.066l.353.354.047-.042-.329-.378zm-.071.066a.634.634 0 0 0-.027.028l-.013.016.37.336a.924.924 0 0 0 .01-.012l.008-.008.004-.005.001-.002-.353-.353zm-.039.042a.853.853 0 0 0-.053.06l.386.317.034-.038-.367-.339zm-.054.06a1.431 1.431 0 0 0-.08.11l.415.277a.897.897 0 0 1 .052-.07l-.387-.317zm-.075.101l-.001.002.404.294.001-.002-.404-.294zm-.007.01l-6.109 9.164.416.277 6.109-9.163-.416-.278zm-6.109 9.164a1.38 1.38 0 0 0-.13.247l.462.188a.88.88 0 0 1 .084-.157l-.416-.278zm-.13.245a1.399 1.399 0 0 0-.035.098l.475.155a.93.93 0 0 1 .022-.062l-.462-.19zm-.035.099v-.002l-.001.004-.01.026.48.145-.002.004v-.002a.286.286 0 0 0 .009-.022l-.476-.153zm-.01.028a1.4 1.4 0 0 0-.026.104l.488.107a.875.875 0 0 1 .017-.066l-.48-.145zm-.026.103l-.001.004-.005.023.49.1c-.001.002-.001.003 0 0l.001-.007.003-.01-.488-.11zm-.007.029a1.304 1.304 0 0 0-.014.094l.496.062a.846.846 0 0 1 .009-.06l-.49-.096zm-.014.094v.002l-.002.008-.004.03.498.048v-.003l.002-.009.002-.014-.496-.062zm-.006.04c-.003.03-.003.063-.004.079l.5.018c0-.027 0-.037.002-.048l-.498-.05zm-.004.076l-.002.06h.5l.002-.037-.5-.023zm-.002.06v.037l.002.02.5-.019-.002-.038h-.5zm.002.056c0 .019.001.05.005.081l.497-.049c-.001-.012-.002-.024-.002-.05l-.5.019zm.005.082a.577.577 0 0 0 .003.028l.002.01.496-.064-.002-.013-.002-.008v-.003l-.497.05zm.005.038c.003.025.007.06.014.096l.49-.098a.937.937 0 0 1-.008-.061l-.496.063zm.014.094l.006.026v.003l.001.002c0 .001 0 .001 0 0l.487-.113a.298.298 0 0 0-.002-.011l-.001-.004v-.002c-.002-.002 0 0 0 .005l-.49.094zm.007.028a1.4 1.4 0 0 0 .026.104l.479-.143a.914.914 0 0 1-.017-.068l-.488.107zm.026.105l.009.026.001.004v-.003l.476-.15-.005-.015-.003-.009v-.002.004l-.478.145zm.01.03c.008.024.02.06.035.097l.462-.191a.9.9 0 0 1-.022-.062l-.475.155zm.035.096c.035.086.079.168.13.246l.416-.278a.896.896 0 0 1-.084-.157l-.462.189zm.13.246l6.11 9.162.415-.277-6.108-9.162-.416.277zm6.117 9.174h.001l.4-.3-.4.3zm-.006-.01c.03.046.063.088.096.127l.382-.323a.93.93 0 0 1-.064-.083l-.414.28zm.096.127l.036.04.367-.34-.021-.023-.382.323zm.035.039c.024.026.048.05.074.075l.343-.364a.892.892 0 0 1-.048-.048l-.369.337zm.074.075l.045.04.327-.378-.03-.027-.342.365zm.046.041c.028.025.056.046.083.066l.296-.403a.967.967 0 0 1-.054-.043l-.325.38zm.084.067l.011.008a.592.592 0 0 0 .028.02l.28-.414-.004-.003-.003-.002-.005-.004a.857.857 0 0 0-.012-.01l-.295.405zm.039.028c.041.029.085.055.13.079l.234-.442a.888.888 0 0 1-.083-.05l-.281.413zm.13.08l.025.011.01.005.22-.449a.45.45 0 0 0-.018-.009l-.004-.002-.232.443zm.033.015c.035.017.072.034.11.05l.184-.466a.848.848 0 0 1-.07-.031l-.224.447zm.11.05l.044.016.168-.471a.945.945 0 0 1-.028-.01l-.184.464zm.044.016l.108.033.13-.483a.949.949 0 0 1-.07-.021l-.168.47zm.11.034l.041.01.118-.486-.033-.008-.126.484zm.044.01c.04.01.078.017.115.022l.071-.495a.86.86 0 0 1-.073-.013l-.113.487zm.115.022l.012.002.029.004.059-.496-.006-.001-.023-.004-.071.495zm.042.006c.048.006.097.009.146.01l.004-.5a.91.91 0 0 1-.094-.007l-.056.497zm.148.01l-.015-.001h-.003.028v-.5a.22.22 0 0 1 .015.001h-.025v.5zm.028 0l.002-.001-.036-.499h-.002l.036.5zm-.016 0h12.599v-.5H58.726v.5zm12.349-.25v8.019h.5v-8.02h-.5zm0 8.019a4.72 4.72 0 0 1-4.714 4.714v.5a5.22 5.22 0 0 0 5.214-5.214h-.5zm-4.714 4.714H7.256v.5H66.36v-.5zm-59.105 0a4.72 4.72 0 0 1-4.714-4.714h-.5a5.22 5.22 0 0 0 5.214 5.214v-.5zm-4.714-4.714v-.029.005l-.5.013a.397.397 0 0 0 0 .02c0 .001 0 0 0 0v-.009h.5zm0-.018V56.5h-.5v6.23h.5zm-.365-6.452l-2.29 1.178.229.444 2.29-1.178-.229-.444zm-2.425 1.4l-.002 5.07h.5l.002-5.07h-.5zm-.002 5.07a.5.5 0 0 0 .002.035v.01l.5-.02v-.015l-.001-.006v-.004h-.5zm.002.037c.02 4.121 3.378 7.468 7.504 7.468v-.5c-3.85 0-6.985-3.124-7.004-6.97l-.5.002zm7.504 7.468H66.36v-.5H7.256v.5zm59.105 0c4.138 0 7.504-3.366 7.505-7.504h-.5a7.013 7.013 0 0 1-7.005 7.004v.5zm7.505-7.504v-8.02h-.5v8.02h.5zm-.25-7.77h1.144v-.5h-1.144v.5zm1.144 0a3.69 3.69 0 0 0 3.686-3.686h-.5a3.19 3.19 0 0 1-3.186 3.186v.5zm3.686-3.686V32.964h-.5v18.329h.5zm0-18.329a3.69 3.69 0 0 0-3.686-3.685v.5a3.19 3.19 0 0 1 3.186 3.186h.5zM14.12 3.324l20.21 5.774.138-.481-20.212-5.775-.137.48zM34.336 9.1h.003l.128-.483h-.003l-.128.483zm-.002 0l13.546 3.87.138-.481-13.546-3.87-.138.48zm13.615 3.38H11.777v.5H47.95v-.5zm-35.93.31l2.412-9.646-.485-.122-2.411 9.647.485.121zm59.476 7.836a7.476 7.476 0 0 0-5.134-2.039v.5c1.852 0 3.538.724 4.792 1.903l.342-.364zm-5.134-1.789l-.02-.25h.015v.5a.322.322 0 0 0 .023 0h.002l-.02-.25zm-.006-.25h-59.1v.5h59.1v-.5zm-59.1 0a4.72 4.72 0 0 1-4.713-4.713h-.5a5.22 5.22 0 0 0 5.213 5.213v-.5zm-4.713-4.713A4.72 4.72 0 0 1 7.255 9.16v-.5a5.22 5.22 0 0 0-5.213 5.214h.5zM7.255 9.16h3.116v-.5H7.255v.5zm2.873-.31l-.954 3.819.485.121.954-3.82-.485-.12zm-.712 3.63h-2.16v.5h2.16v-.5zm-2.16 0c-.771 0-1.396.624-1.396 1.395h.5c0-.495.401-.896.896-.896v-.5zM5.86 13.874c0 .77.625 1.395 1.396 1.395v-.5a.895.895 0 0 1-.896-.895h-.5zm1.396 1.395h3.05v-.5h-3.05v.5zm3.035 0h.005l.03-.499h-.004l-.031.499zm.042 0h.003l-.043-.499h-.003l.043.499zm-.018 0h45.809v-.5h-45.81v.5zm45.791 0h.004l.036-.499h-.004l-.036.499zm.043 0h.004l-.042-.499h-.004l.042.499zm-.017 0h8.7v-.5h-8.7v.5zm8.7 0c.77 0 1.396-.624 1.396-1.395h-.5a.896.896 0 0 1-.896.895v.5zm1.396-1.395c0-.77-.625-1.396-1.396-1.396v.5c.495 0 .896.401.896.896h.5zm-1.396-1.396h-8.544v.5h8.544v-.5zm-8.475.01l-13.368-3.82-.138.481 13.368 3.82.138-.481zM42.92 9.159h23.44v-.5H42.92v.5zm23.44 0a4.72 4.72 0 0 1 4.714 4.715h.5a5.22 5.22 0 0 0-5.213-5.214v.5zm4.714 4.715v6.934h.5v-6.934h-.5zm4.58 37.418a.896.896 0 0 1-.894.895v.5c.77 0 1.395-.625 1.395-1.395h-.5zm-.894.895H59.336v.5H74.76v-.5zm-15.216.111l-5.346-8.017-.416.278 5.346 8.017.416-.278zm-5.346-7.74l5.346-8.018-.416-.277-5.346 8.018.416.278zm5.138-7.907H74.76v-.5H59.336v.5zm15.424 0a.592.592 0 0 0 .04-.001l.017-.001-.019-.5-.019.001-.012.001h-.007v.5zm.051-.002a3.7 3.7 0 0 0 1.177-.21l-.166-.471c-.32.112-.661.176-1.018.181l.007.5zm.844-.446v15.09h.5v-15.09h-.5zm-.895-2.344l-.03.002h-.003.005l.01.5.016-.001a.21.21 0 0 1 .008 0h-.006v-.5zm-.024.002h-1.12v.5h1.12v-.5zm-.87.25V31.82h-.5v2.29h.5zm-.25-2.041h1.144v-.5h-1.145v.5zm1.144 0c.493 0 .895.401.895.894h.5c0-.769-.626-1.394-1.395-1.394v.5zm.895.894a.896.896 0 0 1-.895.895v.5c.77 0 1.395-.625 1.395-1.395h-.5z" fill="#F2F2F2" mask="url(#a)"/></svg>