<svg width="19" height="36" viewBox="0 0 19 36" fill="none" xmlns="http://www.w3.org/2000/svg">
<path d="M11.2486 16.7073C11.4101 16.8991 11.6311 17 11.8436 17C12.056 17 12.277 16.8991 12.4385 16.7073L18.7535 9.20781C18.915 9.01603 19 8.76369 19 8.50126C19 8.23883 18.915 7.98649 18.7535 7.79472L12.4385 0.295235C12.107 -0.0984117 11.5801 -0.0984117 11.2486 0.295235C10.9171 0.688882 10.9171 1.31468 11.2486 1.70833L16.9687 8.50126L11.2486 15.2942C10.9256 15.6878 10.9256 16.3237 11.2486 16.7073Z" fill="#999999"/>
<path d="M7.75139 0.292711C7.58991 0.100935 7.36892 2.56015e-07 7.15644 2.74591e-07C6.94396 2.93167e-07 6.72297 0.100935 6.56149 0.292712L0.246483 7.79219C0.0849961 7.98397 6.76328e-07 8.23631 6.94101e-07 8.49874C7.11873e-07 8.76117 0.0849961 9.01351 0.246483 9.20528L6.56149 16.7048C6.89296 17.0984 7.41992 17.0984 7.75139 16.7048C8.08287 16.3111 8.08287 15.6853 7.75139 15.2917L2.03134 8.49874L7.75139 1.7058C8.07437 1.31216 8.07437 0.676265 7.75139 0.292711Z" fill="#999999"/>
<path d="M7.75139 19.2927C7.58991 19.1009 7.36892 19 7.15644 19C6.94396 19 6.72297 19.1009 6.56149 19.2927L0.246483 26.7922C0.0849961 26.984 6.76328e-07 27.2363 6.94101e-07 27.4987C7.11873e-07 27.7612 0.0849961 28.0135 0.246483 28.2053L6.56149 35.7048C6.89296 36.0984 7.41992 36.0984 7.75139 35.7048C8.08287 35.3111 8.08287 34.6853 7.75139 34.2917L2.03134 27.4987L7.75139 20.7058C8.07437 20.3122 8.07437 19.6763 7.75139 19.2927Z" fill="#5FB46E"/>
<path d="M11.2486 35.7073C11.4101 35.8991 11.6311 36 11.8436 36C12.056 36 12.277 35.8991 12.4385 35.7073L18.7535 28.2078C18.915 28.016 19 27.7637 19 27.5013C19 27.2388 18.915 26.9865 18.7535 26.7947L12.4385 19.2952C12.107 18.9016 11.5801 18.9016 11.2486 19.2952C10.9171 19.6889 10.9171 20.3147 11.2486 20.7083L16.9687 27.5013L11.2486 34.2942C10.9256 34.6878 10.9256 35.3237 11.2486 35.7073Z" fill="#5FB46E"/>
</svg>
