<svg xmlns="http://www.w3.org/2000/svg" viewBox="0 0 1920 1080"><defs><style>.cls-1{fill:#f8f8f8;}.cls-2{fill:#d9d9d9;}.cls-3,.cls-4{fill:#c9c9c9;}.cls-4{font-size:134.25px;font-family:MyriadPro-Regular, Myriad Pro;}.cls-5{letter-spacing:-0.01em;}.cls-6{letter-spacing:-0.01em;}.cls-7{letter-spacing:0em;}</style></defs><title>no-image</title><g id="Слой_1" data-name="Слой 1"><rect class="cls-1" x="0.5" y="0.5" width="1919" height="1079"/><path class="cls-2" d="M1919,1V1079H1V1H1919m1-1H0V1080H1920V0Z"/></g><g id="Слой_2" data-name="Слой 2"><path class="cls-3" d="M1181.69,284.82H738.34a4.93,4.93,0,0,0-4.92,4.93V638.07a4.93,4.93,0,0,0,4.92,4.93h443.35a4.92,4.92,0,0,0,4.89-4.93V289.75A4.92,4.92,0,0,0,1181.69,284.82Zm-4.93,348.33H743.27V294.67h433.49Z"/><path class="cls-3" d="M857.09,371.91A41.09,41.09,0,1,0,898.16,413,41.14,41.14,0,0,0,857.09,371.91Zm0,72.32A31.26,31.26,0,1,1,888.34,413,31.27,31.27,0,0,1,857.09,444.23Z"/><path class="cls-3" d="M1145.4,507.76l-95-87.07a5.07,5.07,0,0,0-3.59-1.27,4.82,4.82,0,0,0-3.33,1.56L963.8,508.23,924,468.48a4.87,4.87,0,0,0-3.47-1.44,4.92,4.92,0,0,0-3.25,1.23L782.57,586.87a4.93,4.93,0,0,0,6.52,7.39L920.35,478.73l83.55,83.51a4.9,4.9,0,0,0,6.93-6.93L970.77,515.2l76.63-83.93L1138.76,515a4.92,4.92,0,1,0,6.64-7.26Z"/><text class="cls-4" transform="translate(669.56 794.23)">NO I<tspan class="cls-5" x="241.37" y="0">M</tspan><tspan class="cls-6" x="347.96" y="0">A</tspan><tspan class="cls-7" x="428.11" y="0">GE</tspan></text></g></svg>