<svg width="20" height="34" fill="none" xmlns="http://www.w3.org/2000/svg"><path d="M20 15.355V0H0v15.355h7.368v6.922a.551.551 0 0 1-.264.471 6 6 0 0 0-2.259 2.478h-.108v-1.097H3.684v1.097H2.632v5.484h1.052v1.096h1.053V30.71h.108C5.829 32.72 7.816 34 10 34s4.17-1.28 5.155-3.29h.108v1.096h1.053V30.71h1.052v-5.484h-1.052v-1.097h-1.053v1.097h-.108a6 6 0 0 0-2.26-2.478.551.551 0 0 1-.263-.47v-6.923H20zm-5.66 10.64l.138.328h1.838v3.29h-1.838l-.138.33c-.755 1.798-2.458 2.96-4.34 2.96-1.882 0-3.585-1.162-4.34-2.961l-.138-.33H3.684v-3.29h1.838l.138-.328a4.922 4.922 0 0 1 1.972-2.297 1.66 1.66 0 0 0 .789-1.42v-6.922h3.158v6.922c0 .582.302 1.127.79 1.42a4.919 4.919 0 0 1 1.971 2.297zM1.053 14.257V5.484h2.105v4.614l2.94 3.063h7.804l2.94-3.063V4.387H1.052V3.29h15.79V2.194H1.052V1.097h17.895v1.097h-1.052V3.29h1.052v1.097h-1.052v1.097h1.052v8.774H1.053zm12.105-5.484c0 1.815-1.416 3.29-3.158 3.29s-3.158-1.475-3.158-3.29c0-1.814 1.416-3.29 3.158-3.29s3.158 1.476 3.158 3.29zm-.382-3.29h3.014v4.16l-2.324 2.42h-.69a4.453 4.453 0 0 0 1.434-3.29c0-1.31-.557-2.486-1.434-3.29zm-6.987 3.29c0 1.31.558 2.486 1.435 3.29h-.69L4.21 9.645v-4.16h3.013a4.453 4.453 0 0 0-1.435 3.29z" fill="#ED0035"/><path d="M6.314 27.968c0 2.116 1.654 3.838 3.685 3.838 2.03 0 3.684-1.722 3.684-3.838 0-2.117-1.653-3.839-3.684-3.839s-3.685 1.722-3.685 3.839zm6.316 0c0 1.512-1.18 2.742-2.631 2.742-1.451 0-2.632-1.23-2.632-2.742s1.18-2.742 2.632-2.742c1.45 0 2.631 1.23 2.631 2.742z" fill="#ED0035"/></svg>