<svg width="34" height="34" fill="none" xmlns="http://www.w3.org/2000/svg"><path d="M32.903 11V3.84a2.745 2.745 0 0 0-2.742-2.742H23A16.906 16.906 0 0 0 17 0c-2.112 0-4.133.39-6 1.097H3.84a2.745 2.745 0 0 0-2.742 2.742V11A16.906 16.906 0 0 0 0 17c0 2.112.39 4.133 1.097 6v7.161a2.745 2.745 0 0 0 2.742 2.742H11A16.91 16.91 0 0 0 17 34c2.111 0 4.133-.39 6-1.097h7.161a2.745 2.745 0 0 0 2.742-2.742V23A16.905 16.905 0 0 0 34 17c0-2.112-.39-4.133-1.097-6zm-2.742-8.806c.907 0 1.645.738 1.645 1.645v4.823a17.121 17.121 0 0 0-6.468-6.468h4.823zM2.194 3.839c0-.907.738-1.645 1.645-1.645h4.823a17.12 17.12 0 0 0-6.468 6.468V3.84zm1.645 27.968a1.647 1.647 0 0 1-1.645-1.646v-4.823a17.121 17.121 0 0 0 6.468 6.468H3.84zm27.968-1.646c0 .907-.739 1.645-1.646 1.645h-4.823a17.118 17.118 0 0 0 6.468-6.468v4.823zM17 32.903C8.23 32.903 1.097 25.77 1.097 17S8.23 1.097 17 1.097 32.903 8.231 32.903 17 25.77 32.903 17 32.903z" fill="#ED0035"/><path d="M20.016 19.367l3.912 1.74a3.266 3.266 0 0 0 4.588-2.982v-5.496a2.211 2.211 0 1 0-4.23-.897l-.619 1.394a4.857 4.857 0 0 1-3.025 2.667 3.85 3.85 0 0 0-1.274-1.809l1.738-3.912a3.266 3.266 0 0 0-2.982-4.588H12.63c-1.219 0-2.21.991-2.21 2.21 0 .873.515 1.665 1.313 2.02l1.393.62a4.857 4.857 0 0 1 2.668 3.025 3.848 3.848 0 0 0-1.809 1.274l-3.912-1.739a3.266 3.266 0 0 0-4.589 2.981v5.496a2.211 2.211 0 1 0 4.23.897l.62-1.394a4.858 4.858 0 0 1 3.025-2.667 3.85 3.85 0 0 0 1.274 1.809l-1.738 3.912a3.266 3.266 0 0 0 2.982 4.588h5.494c1.219 0 2.21-.991 2.21-2.21 0-.873-.515-1.665-1.313-2.02l-1.393-.62a4.857 4.857 0 0 1-2.668-3.025 3.85 3.85 0 0 0 1.81-1.274zM20.84 17c0-.042-.005-.083-.006-.126a5.948 5.948 0 0 0 3.836-3.303l.62-1.393a1.114 1.114 0 0 1 2.13.451v5.496a2.168 2.168 0 0 1-3.045 1.978l-3.807-1.692A3.81 3.81 0 0 0 20.839 17zm-7.677 0c0 .042.005.083.006.126a5.948 5.948 0 0 0-3.836 3.303l-.62 1.394a1.114 1.114 0 0 1-2.13-.452v-5.496a2.168 2.168 0 0 1 3.045-1.978l3.807 1.692A3.81 3.81 0 0 0 13.162 17zm.41-7.67l-1.394-.618a1.114 1.114 0 0 1 .452-2.131h5.495a2.168 2.168 0 0 1 1.98 3.045l-1.692 3.807A3.83 3.83 0 0 0 17 13.161c-.042 0-.083.005-.125.007A5.952 5.952 0 0 0 13.57 9.33zm6.858 15.34l1.393.618a1.114 1.114 0 0 1-.452 2.131h-5.495a2.168 2.168 0 0 1-1.98-3.045l1.693-3.807c.438.173.913.272 1.411.272.043 0 .084-.005.126-.007a5.952 5.952 0 0 0 3.304 3.837zM17 19.741A2.745 2.745 0 0 1 14.26 17 2.745 2.745 0 0 1 17 14.258 2.745 2.745 0 0 1 19.742 17 2.745 2.745 0 0 1 17 19.742z" fill="#ED0035"/><path d="M17 2.194C8.835 2.194 2.193 8.836 2.193 17c0 8.164 6.642 14.806 14.807 14.806a14.68 14.68 0 0 0 8.859-2.941l-.657-.879A13.592 13.592 0 0 1 17 30.71C9.44 30.71 3.29 24.56 3.29 17 3.29 9.44 9.44 3.29 17 3.29c7.56 0 13.71 6.15 13.71 13.71 0 3.896-1.668 7.622-4.574 10.223l.73.817A14.829 14.829 0 0 0 31.807 17c0-8.164-6.642-14.806-14.806-14.806zM4.387 3.29H3.29v1.097h1.097V3.29zm26.323 0h-1.097v1.097h1.097V3.29zM4.387 29.613H3.29v1.097h1.097v-1.097zm26.323 0h-1.097v1.097h1.097v-1.097z" fill="#ED0035"/></svg>