<svg width="34" height="27" fill="none" xmlns="http://www.w3.org/2000/svg"><path d="M31.258 0H2.742A2.752 2.752 0 0 0 0 2.755V15.98a2.752 2.752 0 0 0 2.742 2.755h2.076c.259.328.595.572.895.788.554.4.868.65.868 1.137 0 .486-.314.737-.869 1.137-.59.427-1.325.958-1.325 2.033s.735 1.606 1.325 2.033c.555.4.869.65.869 1.137h1.096c0-1.075-.734-1.606-1.324-2.032-.556-.401-.87-.652-.87-1.138 0-.486.314-.737.87-1.137.59-.427 1.324-.959 1.324-2.033 0-1.075-.734-1.605-1.324-2.032-.556-.4-.87-.65-.87-1.136 0-.485.314-.735.869-1.136.59-.425 1.325-.955 1.325-2.03H6.581c0 .471-.3.723-.825 1.103H3.29v-2.204h9.871v2.204h-1.43c.197-.294.334-.647.334-1.103h-1.097c0 .485-.314.736-.868 1.136-.591.426-1.326.956-1.326 2.03 0 1.074.735 1.605 1.326 2.031.554.4.868.65.868 1.137 0 .486-.314.737-.869 1.137-.59.427-1.325.958-1.325 2.033s.735 1.606 1.325 2.033c.555.4.869.65.869 1.137h1.097c0-1.075-.735-1.606-1.325-2.032-.556-.401-.869-.652-.869-1.138 0-.486.313-.737.869-1.137.59-.427 1.325-.959 1.325-2.033 0-.988-.621-1.515-1.18-1.925h11.481c.26.328.596.572.895.788.555.4.868.65.868 1.137 0 .486-.314.737-.869 1.137-.59.427-1.325.958-1.325 2.033s.735 1.606 1.325 2.033c.555.4.869.65.869 1.137h1.097c0-1.075-.735-1.606-1.325-2.032-.555-.401-.869-.652-.869-1.138 0-.486.314-.737.869-1.137.59-.427 1.325-.959 1.325-2.033 0-1.075-.735-1.605-1.325-2.032-.555-.4-.869-.65-.869-1.136 0-.485.314-.735.868-1.136.591-.425 1.326-.955 1.326-2.03h-1.097c0 .471-.3.723-.824 1.103h-2.466v-2.204h9.87v2.204H29.28c.197-.294.333-.647.333-1.103h-1.097c0 .485-.313.736-.868 1.136-.59.426-1.325.956-1.325 2.03 0 1.074.734 1.605 1.325 2.031.555.4.868.65.868 1.137 0 .486-.313.737-.868 1.137-.59.427-1.325.958-1.325 2.033s.734 1.606 1.325 2.033c.555.4.868.65.868 1.137h1.097c0-1.075-.735-1.606-1.325-2.032-.555-.401-.869-.652-.869-1.138 0-.486.314-.737.869-1.137.59-.427 1.325-.959 1.325-2.033 0-.988-.62-1.515-1.18-1.925h2.825A2.752 2.752 0 0 0 34 15.98V2.755A2.752 2.752 0 0 0 31.258 0zM13.161 5.51h-3.29V4.408H5.484V5.51H3.29V3.306h9.871V5.51zm-4.387 0v1.102H6.581V5.51h2.193zM3.29 6.612h2.194v1.102H9.87V6.612h3.29v2.204H3.29V6.612zm0 5.51V9.918h9.871v2.204h-9.87zm6.606 5.51c-.007-.047-.025-.088-.025-.14 0-.41.234-.655.637-.961h11.671a1.928 1.928 0 0 0-.243.96c0 .05.009.094.012.142H9.896zm4.362-2.203V3.647l1.516.761h2.453l1.515-.761v11.782h-5.484zM30.71 8.816h-3.29V7.714h-4.388v1.102H20.84V6.612h9.87v2.204zm-4.387 0v1.102h-2.194V8.816h2.194zM30.71 5.51h-9.871V3.306h9.87V5.51zm-9.871 6.612V9.918h2.193v1.102h4.387V9.918h3.29v2.204h-9.87zm12.064 3.858c0 .91-.738 1.653-1.645 1.653h-3.814c-.007-.048-.025-.09-.025-.141 0-.41.234-.655.637-.961h2.654a1.1 1.1 0 0 0 1.096-1.102V3.306a1.1 1.1 0 0 0-1.096-1.102H20.16l-2.194 1.102h-1.934L13.84 2.204H3.29a1.1 1.1 0 0 0-1.096 1.102V15.43a1.1 1.1 0 0 0 1.096 1.1h1.341a1.928 1.928 0 0 0-.244.96c0 .05.01.094.012.142H2.742a1.651 1.651 0 0 1-1.645-1.653V2.755c0-.911.738-1.653 1.645-1.653h28.516c.907 0 1.645.742 1.645 1.653V15.98z" fill="#ED0035"/><path d="M17 5.931l-2.533 5.09h5.065l-2.533-5.09zm0 2.464l.757 1.523h-1.515l.757-1.523z" fill="#ED0035"/></svg>