<svg width="33" height="34" fill="none" xmlns="http://www.w3.org/2000/svg"><g clip-path="url(#clip0)" fill="#ED0035"><path d="M32.804 32.805l-1.219-1.382.32-.216c.906-.623 1.285-1.714.959-2.777-.32-1.063-1.232-1.754-2.317-1.754h-2.41c-.387 0-.7.318-.7.711v5.885c0 .224.067.4.207.528a.75.75 0 0 0 .486.176c.26 0 .699-.149.699-.697v-1.646h1.065l1.865 2.12c.366.413.792.223.985.04.24-.216.4-.602.06-.988zm-1.485-2.933a1.011 1.011 0 0 1-.779.339h-1.71v-2.113h1.711c.68 0 1.032.535 1.032 1.056a1.05 1.05 0 0 1-.253.718zM5.667 32.75c0 .265-.147.712-.686.712H.713c-.46 0-.666-.44-.706-.854-.1-1.104.813-2.946 3.729-3.494.346-.061.566-.373.54-.732-.034-.359-.307-.616-.653-.616H.713c-.546 0-.686-.447-.686-.71 0-.265.147-.712.686-.712h2.91c1.285 0 1.944.955 2.03 1.903.087.948-.4 2.018-1.664 2.248-.113.02-.22.041-.326.061-.726.122-1.352.23-1.858.942l-.38.535h3.556c.54.013.686.46.686.718zM3.543.711v5.723c0 .555-.44.697-.7.697a.716.716 0 0 1-.486-.176c-.14-.122-.206-.298-.206-.528V1.415h-.866C.746 1.415.6.968.6.705.6.52.66.338.773.21A.656.656 0 0 1 1.285 0h1.552c.393 0 .706.318.706.711zM19.116 5.96a2.052 2.052 0 0 1-1.857 1.15h-2.87c-.546 0-.686-.446-.686-.71 0-.264.147-.711.686-.711h2.87c.4 0 .699-.305.699-.711 0-.407-.3-.718-.7-.718h-1.744c-.546 0-.686-.447-.686-.711 0-.264.14-.705.686-.705h1.745c.4 0 .699-.304.699-.71 0-.407-.3-.719-.7-.719h-2.87c-.545 0-.685-.447-.685-.71 0-.258.147-.705.693-.705h2.87c.798 0 1.49.433 1.857 1.151a2.125 2.125 0 0 1-.147 2.208l-.133.196.133.197c.453.657.513 1.483.14 2.208zm.58 24.373c0 .264-.147.71-.686.71h-.925v1.91c0 .556-.44.698-.7.698-.26 0-.699-.149-.699-.697v-1.91h-2.703a.705.705 0 0 1-.699-.711v-3.081c0-.556.44-.698.7-.698.259 0 .698.149.698.698v2.37h2.004v-2.37c0-.556.44-.698.7-.698.26 0 .699.149.699.698v2.37h.925c.54 0 .686.447.686.71zm13.07-25.355c0 .562-.187 1.09-.52 1.476-.373.433-.912.657-1.565.657h-2.343c-.546 0-.686-.447-.686-.711 0-.264.146-.711.686-.711h2.343c.4 0 .706-.305.706-.711a.7.7 0 0 0-.706-.718h-2.343a.696.696 0 0 1-.52-.237.733.733 0 0 1-.173-.556l.333-2.844A.69.69 0 0 1 28.664 0h3.422c.546 0 .686.447.686.711 0 .19-.06.373-.173.494-.12.143-.293.21-.513.21h-2.803l-.166 1.43h1.558c1.438 0 2.09 1.11 2.09 2.133zM30.181 9.4c-.26 0-.7.149-.7.697v6.184h-9.287l-.067-.251a3.782 3.782 0 0 0-2.683-2.73l-.246-.067v-3.136c0-.555-.44-.697-.7-.697-.319 0-.699.183-.699.697v3.136l-.246.068a3.782 3.782 0 0 0-2.683 2.729l-.067.25H3.51v-6.183c0-.555-.44-.697-.7-.697-.26 0-.699.149-.699.697v13.789c0 .555.44.697.7.697.26 0 .699-.149.699-.697v-6.183h9.294l.067.25a3.782 3.782 0 0 0 2.683 2.73l.246.067v3.136c0 .555.44.697.7.697.32 0 .692-.183.692-.697V20.75l.246-.067a3.782 3.782 0 0 0 2.684-2.73l.066-.25h9.295v6.183c0 .555.44.697.699.697.26 0 .7-.149.7-.697V10.097c0-.548-.44-.697-.7-.697zm-13.682 9.989c-1.299 0-2.357-1.077-2.357-2.397 0-1.321 1.058-2.398 2.357-2.398 1.298 0 2.357 1.077 2.357 2.398 0 1.327-1.06 2.397-2.357 2.397z"/></g><defs><clipPath id="clip0"><path fill="#fff" d="M0 0h33v34H0z"/></clipPath></defs></svg>