<svg width="34" height="34" fill="none" xmlns="http://www.w3.org/2000/svg"><path d="M34 16.105l-.186-1.765-1.555-.583 1.184-1.167-.548-1.687-1.644-.248.915-1.386-.887-1.537-1.659.1.607-1.547-1.187-1.32-1.602.443.273-1.638-1.436-1.044-1.475.766-.075-1.66-1.62-.722-1.285 1.054-.418-1.608-1.735-.37-1.037 1.3L17.887 0h-1.774l-.743 1.486L14.333.187l-1.736.37-.417 1.607-1.284-1.056-1.621.722L9.2 3.49l-1.475-.766L6.29 3.77l.273 1.638-1.602-.442-1.188 1.319.607 1.547-1.659-.1-.887 1.537.915 1.387-1.643.248-.549 1.687 1.184 1.166-1.555.584L0 16.105 1.401 17 0 17.895l.186 1.765 1.555.583L.557 21.41l.549 1.687 1.643.248-.915 1.386.887 1.537 1.659-.1-.607 1.548 1.187 1.319 1.602-.443-.273 1.639 1.436 1.043 1.475-.766.075 1.66 1.62.723 1.285-1.056.418 1.608 1.735.37 1.037-1.3.743 1.487h1.774l.743-1.486 1.037 1.299 1.735-.37.418-1.607 1.284 1.055 1.621-.721.075-1.661 1.475.766 1.436-1.043-.273-1.64 1.602.444 1.187-1.32-.607-1.546 1.659.1.887-1.538-.915-1.386 1.643-.248.549-1.687-1.184-1.167 1.555-.583.186-1.766L32.599 17 34 16.105zm-1.206-.976l.044.417-1.052.672a14.754 14.754 0 0 0-.16-1.527l1.168.438zm-.734-3.243l.13.4-.891.876a14.686 14.686 0 0 0-.477-1.462l1.238.186zm-1.392-3.02l.21.364-.693 1.047c-.235-.46-.493-.905-.773-1.335l1.256-.075zm-1.99-2.663l.28.311-.46 1.172c-.324-.4-.667-.785-1.03-1.149l1.21-.334zm-2.5-2.192l.339.246L26.31 5.5c-.4-.324-.817-.627-1.25-.908l1.117-.58zm-2.901-1.624l.383.17.055 1.254a14.645 14.645 0 0 0-1.406-.629l.968-.795zM20.102 1.4l.41.087.314 1.21a14.37 14.37 0 0 0-1.503-.32l.779-.977zm-3.311-.304h.418l.559 1.116a14.85 14.85 0 0 0-1.536 0l.559-1.116zm-3.302.39l.41-.086.778.976c-.51.08-1.011.189-1.503.32l.315-1.21zm-3.15 1.07l.384-.17.967.795c-.481.186-.95.396-1.406.63l.056-1.255zM7.823 4.011l1.116.58c-.433.281-.85.584-1.25.908l-.205-1.242.339-.246zm-2.5 2.192l1.21.335a14.94 14.94 0 0 0-1.03 1.148l-.46-1.171.28-.312zm-1.99 2.664l1.256.076c-.28.43-.538.875-.773 1.335L3.123 9.23l.209-.363zm-1.392 3.02l1.238-.187a14.7 14.7 0 0 0-.477 1.462l-.89-.877.13-.399zm-.778 3.66l.044-.418 1.17-.439a14.754 14.754 0 0 0-.161 1.528l-1.053-.672zm.044 3.324l-.044-.417 1.052-.672c.027.516.082 1.026.16 1.527l-1.168-.438zm.734 3.243l-.13-.4.891-.876c.134.498.294.986.477 1.462l-1.238-.186zm1.392 3.02l-.21-.364.693-1.047c.235.46.493.905.773 1.335l-1.256.075zm1.99 2.663l-.28-.311.46-1.172c.324.4.667.785 1.03 1.149l-1.21.334zm2.5 2.192l-.339-.246.206-1.242c.4.324.817.627 1.25.909l-1.117.58zm2.901 1.624l-.383-.17-.056-1.254c.456.233.926.443 1.407.629l-.968.795zm3.175.986l-.41-.087-.314-1.21c.492.132.992.24 1.503.32l-.779.977zm3.311.304h-.418l-.559-1.116a14.805 14.805 0 0 0 1.536 0l-.559 1.116zm3.302-.39l-.41.086-.778-.976c.51-.08 1.011-.189 1.503-.32l-.315 1.21zm3.15-1.07l-.384.17-.968-.795c.482-.186.95-.396 1.407-.63l-.056 1.255zm2.517-1.454l-1.116-.58c.432-.281.85-.584 1.25-.908l.205 1.242-.339.246zm2.5-2.192l-1.21-.335c.363-.364.706-.748 1.03-1.148l.46 1.171-.28.312zM17 30.71C9.44 30.71 3.29 24.56 3.29 17 3.29 9.44 9.44 3.29 17 3.29c7.56 0 13.71 6.15 13.71 13.71 0 7.56-6.15 13.71-13.71 13.71zm13.668-5.577l-1.256-.075c.28-.43.538-.876.773-1.336l.693 1.047-.21.364zm1.392-3.02l-1.239.187c.184-.476.344-.964.478-1.462l.89.877-.13.399zm.778-3.66l-.044.418-1.17.439c.08-.502.134-1.011.161-1.528l1.053.672z" fill="#ED0035"/><path d="M17 7.677c-5.14 0-9.322 4.182-9.322 9.323 0 5.14 4.182 9.323 9.322 9.323a9.346 9.346 0 0 0 6.888-3.04l-.81-.74A8.244 8.244 0 0 1 17 25.226c-4.535 0-8.225-3.69-8.225-8.226 0-4.536 3.69-8.226 8.225-8.226 4.536 0 8.226 3.69 8.226 8.226a8.18 8.18 0 0 1-1.425 4.629l.906.618A9.271 9.271 0 0 0 26.323 17c0-5.14-4.182-9.323-9.323-9.323z" fill="#ED0035"/><path d="M19.742 17A2.745 2.745 0 0 0 17 14.258 2.745 2.745 0 0 0 14.258 17 2.745 2.745 0 0 0 17 19.742 2.745 2.745 0 0 0 19.742 17zm-4.387 0c0-.907.738-1.645 1.645-1.645s1.645.738 1.645 1.645-.738 1.645-1.645 1.645A1.647 1.647 0 0 1 15.355 17zm3.29-5.484c0-.907-.738-1.645-1.645-1.645s-1.646.738-1.646 1.645.739 1.645 1.646 1.645c.907 0 1.645-.738 1.645-1.645zm-2.194 0a.549.549 0 1 1 1.098.001.549.549 0 0 1-1.098 0zm-3.101 4.298c.136-.418.1-.864-.099-1.255-.2-.392-.54-.682-.957-.818a1.634 1.634 0 0 0-1.256.099c-.392.2-.682.54-.818.958-.136.418-.1.863.099 1.255.2.392.54.682.957.817a1.636 1.636 0 0 0 1.255-.099c.392-.2.683-.539.819-.957zm-1.044-.34a.545.545 0 0 1-.69.353.546.546 0 0 1-.353-.691.545.545 0 0 1 .691-.351.545.545 0 0 1 .352.69zm.504 7.293a1.63 1.63 0 0 0 1.225.294 1.633 1.633 0 0 0 1.073-.657c.259-.355.364-.79.294-1.224a1.634 1.634 0 0 0-.658-1.074 1.646 1.646 0 0 0-1.934 2.662zm.523-1.652a.547.547 0 1 1 .886.642.547.547 0 0 1-.886-.642zm6.633 1.946a1.631 1.631 0 0 0 1.224-.294 1.646 1.646 0 0 0 .365-2.297 1.647 1.647 0 0 0-2.956.71 1.63 1.63 0 0 0 .294 1.224 1.63 1.63 0 0 0 1.073.657zm-.065-2.068zm2.823-4.123c.418-.136.758-.426.958-.817.2-.392.235-.838.099-1.255a1.635 1.635 0 0 0-.818-.958 1.635 1.635 0 0 0-1.255-.1 1.635 1.635 0 0 0-.958.819c-.2.391-.235.837-.1 1.255.137.418.427.758.819.957a1.639 1.639 0 0 0 1.255.099zm-1.03-1.395a.543.543 0 0 1 .033-.418.543.543 0 0 1 .49-.3.55.55 0 0 1 .488.797.545.545 0 0 1-.32.272.542.542 0 0 1-.418-.032.543.543 0 0 1-.273-.319z" fill="#ED0035"/></svg>