<svg width="23" height="34" fill="none" xmlns="http://www.w3.org/2000/svg"><g clip-path="url(#clip0)" fill="#ED0035"><path d="M9.857 4.387H8.214V0H2.738v4.387H1.095v2.194H0v5.484h1.095v1.19A1.648 1.648 0 0 0 0 14.806v7.678c0 .715.458 1.325 1.095 1.551v3.384H2.19v3.29h1.096V34h4.38v-3.29h1.096v-3.29h1.095v-3.385a1.648 1.648 0 0 0 1.095-1.551v-7.678c0-.715-.457-1.324-1.095-1.55v-1.191h1.095V6.58H9.857V4.387zm-6.024-3.29H7.12v1.097H3.833V1.097zm2.738 31.806h-2.19V30.71h2.19v2.193zm1.096-3.29H3.286v-2.194h4.38v2.194zm2.19-7.13a.548.548 0 0 1-.547.55h-.548v3.29H2.19v-3.29h-.547a.548.548 0 0 1-.548-.55V20.84h8.762v1.645zm0-4.935H8.762v1.097h1.095v1.097H1.095v-1.097h6.572v-1.097H1.095v-1.096h8.762v1.096zm0-6.58H8.762v3.29h.548c.302 0 .547.246.547.549v.548H1.095v-.549c0-.302.246-.548.548-.548h.547v-3.29H1.095v-3.29H2.19V5.483h1.643V3.29H7.12v2.194h1.643v2.193h1.095v3.29z"/><path d="M3.286 10.968h4.381v-3.29h-4.38v3.29zm1.095-2.194h2.19v1.097h-2.19V8.774zm17.524-1.097V5.484H20.81V0h-4.381v5.484h-1.095v2.193h-1.096v4.178l1.096.548v14.468c0 .714.459 1.317 1.095 1.544V34h4.38v-5.585a1.643 1.643 0 0 0 1.096-1.544V12.403L23 11.855V7.677h-1.095zm-4.381-6.58h2.19v4.387h-2.19V1.097zM16.429 6.58h4.38v1.096h-4.38V6.581zm3.286 26.322h-2.191v-4.387h2.19v4.387zm1.095-6.032a.548.548 0 0 1-.548.548h-3.286a.548.548 0 0 1-.547-.548v-7.13h4.38v7.13zm0-10.42h-1.095v1.097h1.095v1.097h-4.381v-1.097h2.19v-1.096h-2.19v-1.097h4.38v1.097zm1.095-5.274l-1.095.549v2.532h-4.381v-2.532l-1.095-.549V8.774h6.57v2.403z"/></g><defs><clipPath id="clip0"><path fill="#fff" d="M0 0h23v34H0z"/></clipPath></defs></svg>