<svg width="38" height="34" fill="none" xmlns="http://www.w3.org/2000/svg"><path d="M36.161 0H20.758c-3.977 0-7.795 1.866-10.214 4.993l-7.888 10.19A12.742 12.742 0 0 0 0 22.94v9.238C0 33.183.825 34 1.839 34H36.16A1.832 1.832 0 0 0 38 32.179V1.82A1.833 1.833 0 0 0 36.161 0zM3.63 15.922l7.888-10.19c2.188-2.83 5.643-4.518 9.24-4.518h15.404c.338 0 .613.273.613.607v24.893H1.226v-3.773c0-2.524.854-5.017 2.403-7.02zm32.53 16.864H1.84a.611.611 0 0 1-.613-.607v-1.822h2.451v-1.214H1.226v-1.214h35.548v1.214H4.29v1.214h32.484v1.822a.611.611 0 0 1-.613.607z" fill="#ED0035"/><path d="M34.321 20.643h-4.903c-.676 0-1.226.544-1.226 1.214v1.214c0 .67.55 1.215 1.226 1.215h4.903c.677 0 1.226-.545 1.226-1.215v-1.214c0-.67-.55-1.214-1.226-1.214zm-4.903 1.214h2.452v1.214h-2.452v-1.214zm4.903 1.214h-1.225v-1.214h1.225v1.214zM7.355 19.429H35.55v-17H20.79c-3.24 0-6.343 1.525-8.3 4.082l-5.256 6.858c-.956.064-1.716.847-1.716 1.81v2.428c0 1.004.825 1.822 1.838 1.822zm6.11-12.184a9.272 9.272 0 0 1 7.323-3.602h13.535v14.571H13.468a2.987 2.987 0 0 0 .63-1.821v-3.036H8.781l4.683-6.112zm-6.723 7.934c0-.335.276-.608.613-.608h5.516v1.822a1.832 1.832 0 0 1-1.838 1.821H7.355a.611.611 0 0 1-.613-.607V15.18z" fill="#ED0035"/></svg>