<svg width="29" height="34" fill="none" xmlns="http://www.w3.org/2000/svg"><path d="M29 9.871V0h-5.37v3.29h-4.842a1.633 1.633 0 0 0-.882-1.342l-1.668-.851h-3.476l-1.668.851c-.51.261-.838.768-.882 1.342H5.37V0H0v9.871h5.37v-3.29h2.686v6.45l-1.612 3.291V27.42H5.37v-3.29H0V34h5.37v-3.29h6.342a3.21 3.21 0 0 0 2.788 1.645 3.21 3.21 0 0 0 2.788-1.645h6.342V34H29v-9.871h-5.37v3.29h-1.074V16.322l-1.612-3.29V6.58h2.686v3.29H29zm-4.296-2.194h1.074V6.581h-1.074V5.484h1.074V4.387h-1.074V3.29h1.074V2.194h-1.074V1.097h3.222v1.097h-1.074V3.29h1.074v1.097h-1.074v1.097h1.074V6.58h-1.074v1.096h1.074v1.097h-3.222V7.677zM4.296 2.194H3.222V3.29h1.074v1.097H3.222v1.097h1.074V6.58H3.222v1.096h1.074v1.097H1.074V7.677h1.074V6.581H1.074V5.484h1.074V4.387H1.074V3.29h1.074V2.194H1.074V1.097h3.222v1.097zm0 24.129H3.222v1.096h1.074v1.097H3.222v1.097h1.074v1.097H3.222v1.096h1.074v1.097H1.074v-1.096h1.074V30.71H1.074v-1.097h1.074v-1.097H1.074V27.42h1.074v-1.096H1.074v-1.097h3.222v1.097zm20.408 5.483h1.074V30.71h-1.074v-1.097h1.074v-1.097h-1.074V27.42h1.074v-1.096h-1.074v-1.097h3.222v1.097h-1.074v1.096h1.074v1.097h-1.074v1.097h1.074v1.097h-1.074v1.096h1.074v1.097h-3.222v-1.096zM13.426 2.195h2.148v2.193h-2.148V2.194zM11.278 3.42c0-.21.114-.397.297-.49l.777-.398v2.952h4.296V2.532l.777.397a.546.546 0 0 1 .297.49v4.807a.544.544 0 0 1-.537.548h-5.37a.544.544 0 0 1-.537-.548V3.42zM5.37 5.484V4.387h4.834v1.097H5.37zM7.52 16.58l1.61-3.29V6.58h1.075v1.645c0 .907.723 1.645 1.61 1.645h1.075v16.346a3.257 3.257 0 0 0-1.177 1.202H7.52V16.581zm16.11 11.935v1.097h-7.022l-.14.328a2.148 2.148 0 0 1-1.967 1.317 2.148 2.148 0 0 1-1.967-1.317l-.14-.328H5.37v-1.097h7.023l.14-.328A2.148 2.148 0 0 1 14.5 26.87a2.15 2.15 0 0 1 1.967 1.317l.14.328h7.023zM21.482 16.58v10.838h-4.193a3.262 3.262 0 0 0-1.177-1.202v-2.088h-1.074v1.697a3.117 3.117 0 0 0-.537-.052c-.183 0-.36.021-.537.052V9.87h1.074v13.161h1.074V9.871h1.074c.888 0 1.611-.738 1.611-1.645V6.58h1.074v6.71l1.611 3.29zM18.797 5.484V4.387h4.834v1.097h-4.834z" fill="#ED0035"/></svg>