<svg width="34" height="34" fill="none" xmlns="http://www.w3.org/2000/svg"><path d="M32.355 15.355c.907 0 1.645-.738 1.645-1.645v-3.29c0-.908-.738-1.646-1.645-1.646h-.548V7.13c0-.907-.739-1.645-1.646-1.645h-5.484v-3.84h-2.262A2.198 2.198 0 0 0 20.29 0c-1.02 0-1.88.7-2.124 1.645h-2.263v3.839H14.77a4.391 4.391 0 0 0-4.35-3.839 4.391 4.391 0 0 0-4.35 3.839H3.098L0 7.963v19.202l3.489 2.326L7.999 34h21.293L34 29.291v-8.848l-3.29-1.097v-3.991h1.645zM3.29 28.04l-2.193-1.462V8.489L3.29 6.734V28.04zM32.355 9.871c.302 0 .548.246.548.548v3.29a.549.549 0 0 1-.548.55H30.71V9.87h1.645zM17 2.741h2.194v-.547a1.098 1.098 0 0 1 2.193 0v.548h2.194v2.742H17V2.742zm-6.58 0a3.294 3.294 0 0 1 3.29 3.291 3.294 3.294 0 0 1-3.29 3.29 3.294 3.294 0 0 1-3.291-3.29 3.294 3.294 0 0 1 3.29-3.29zm2.741 7.13v18.645h-2.193V10.382a4.346 4.346 0 0 0 1.57-.511h.623zm-8.774-3.29H6.07A4.37 4.37 0 0 0 7 8.774H4.387V6.581zm0 3.29h2.194v1.097h1.096V9.87H8.3a4.35 4.35 0 0 0 1.571.51v18.135H7.677v-16.45H6.581v16.451H4.387V9.871zm4.066 23.032l-3.29-3.29h8.042c-.026.18-.044.362-.044.548 0 1.074.444 2.045 1.158 2.742H8.453zm8.547 0a2.745 2.745 0 0 1-2.742-2.742A2.745 2.745 0 0 1 17 27.42a2.745 2.745 0 0 1 2.742 2.742A2.745 2.745 0 0 1 17 32.903zm-2.742-5.423V9.871h2.194v16.495a3.828 3.828 0 0 0-2.194 1.114zm3.29-1.114V9.871h2.194v17.61a3.831 3.831 0 0 0-2.194-1.115zm2.133 6.537a3.89 3.89 0 0 0 .61-.775c.17.284.373.545.609.775h-1.22zm4.448-.055V30.16h-1.097v2.687a2.747 2.747 0 0 1-2.193-2.687 2.745 2.745 0 0 1 2.742-2.742 2.745 2.745 0 0 1 2.742 2.742 2.747 2.747 0 0 1-2.194 2.687zm-3.29-5.368V9.871h2.193v16.495a3.828 3.828 0 0 0-2.193 1.114zm3.29-1.114V9.871h2.194v17.61a3.825 3.825 0 0 0-2.194-1.115zm4.708 6.537h-2.575a3.826 3.826 0 0 0 1.157-2.742c0-.186-.018-.368-.044-.548h4.753l-3.29 3.29zm4.066-11.669v7.282H30.71V27.42h-1.097v1.097h-2.194V9.871h2.194v16.452h1.097v-5.82l2.193.731zM13.84 8.774a4.36 4.36 0 0 0 .93-2.193h15.39c.302 0 .549.245.549.548v1.645H13.838z" fill="#ED0035"/><path d="M10.42 8.226c1.209 0 2.193-.984 2.193-2.194s-.984-2.193-2.194-2.193-2.193.984-2.193 2.193c0 1.21.983 2.194 2.193 2.194zm0-3.29a1.098 1.098 0 0 1 0 2.193 1.098 1.098 0 0 1 0-2.193zM17 28.516c-.907 0-1.646.738-1.646 1.645s.739 1.645 1.646 1.645c.907 0 1.645-.738 1.645-1.645s-.738-1.645-1.645-1.645zm0 2.194a.549.549 0 1 1 0-1.098.549.549 0 0 1 0 1.098z" fill="#ED0035"/></svg>