<svg width="34" height="34" fill="none" xmlns="http://www.w3.org/2000/svg"><path d="M17 0C7.626 0 0 7.626 0 17c0 9.374 7.626 17 17 17 9.374 0 17-7.626 17-17 0-9.374-7.626-17-17-17zm0 32.903C8.23 32.903 1.097 25.77 1.097 17S8.23 1.097 17 1.097 32.903 8.231 32.903 17c0 8.77-7.134 15.903-15.903 15.903z" fill="#ED0035"/><path d="M19.742 17A2.745 2.745 0 0 0 17 14.258 2.745 2.745 0 0 0 14.258 17 2.745 2.745 0 0 0 17 19.742 2.745 2.745 0 0 0 19.742 17zm-4.387 0c0-.907.738-1.645 1.645-1.645s1.645.738 1.645 1.645-.738 1.645-1.645 1.645A1.647 1.647 0 0 1 15.355 17z" fill="#ED0035"/><path d="M17 24.129c-3.93 0-7.129-3.198-7.129-7.129 0-3.93 3.198-7.13 7.13-7.13 3.93 0 7.128 3.2 7.128 7.13a7.12 7.12 0 0 1-1.038 3.708l.936.571A8.209 8.209 0 0 0 25.226 17c0-4.536-3.69-8.226-8.226-8.226-4.536 0-8.226 3.69-8.226 8.226 0 4.536 3.69 8.226 8.226 8.226a8.206 8.206 0 0 0 6.348-2.993l-.846-.698A7.113 7.113 0 0 1 17 24.129z" fill="#ED0035"/><path d="M18.645 12.065c0-.908-.738-1.646-1.645-1.646s-1.646.738-1.646 1.646c0 .907.739 1.645 1.646 1.645.907 0 1.645-.739 1.645-1.646zm-2.194 0a.55.55 0 0 1 1.097 0 .55.55 0 0 1-1.097 0zm-2.579 3.918a1.647 1.647 0 0 0-1.056-2.073 1.647 1.647 0 0 0-2.073 1.057 1.648 1.648 0 0 0 1.563 2.154 1.65 1.65 0 0 0 1.566-1.138zm-1.043-.339a.548.548 0 1 1-1.043-.339.548.548 0 0 1 1.043.34zm.303 6.68zm.523-1.654a.549.549 0 1 1 .887.646.549.549 0 0 1-.887-.646zm6.249 1.967c.335 0 .673-.102.964-.313a1.648 1.648 0 0 0 .364-2.298 1.649 1.649 0 0 0-2.298-.364 1.645 1.645 0 1 0 .97 2.976zm-.325-2.088a.55.55 0 1 1 .645.89.55.55 0 0 1-.645-.89zm2.623-3.509a1.647 1.647 0 0 0 1.056-2.074 1.647 1.647 0 0 0-2.072-1.056 1.647 1.647 0 0 0-1.056 2.073 1.649 1.649 0 0 0 2.072 1.056zm-1.03-1.396a.55.55 0 0 1 1.043-.338.549.549 0 0 1-1.043.338zm-6.914-13.45H13.16V3.29h1.097V2.194zm1.645 1.645h-1.096v1.097h1.096V3.839zm1.645 1.645H16.45V6.58h1.097V5.484zm1.646 1.645h-1.097v1.097h1.096V7.129zM3.816 9.245l.776.775.775-.775-.775-.776-.776.776zm3.102-.775l-.775.775.775.775.776-.775-.776-.776zm3.102.775l-.775-.776-.775.776.775.775.776-.775zm2.327 0l-.776-.776-.775.776.775.775.776-.775zM3.29 19.742H2.193v1.097H3.29v-1.097zm1.646-1.645H3.839v1.097h1.097v-1.097zm1.645-1.645H5.484v1.096h1.097v-1.096zm1.645-1.646H7.129v1.097h1.097v-1.097zm.243 14.604l.775.775.776-.776-.776-.775-.775.775zm1.55-2.33l-.776-.776-.775.776.775.775.776-.775zm0-2.327l-.776-.776-.775.776.775.776.776-.776zM8.47 22.429l.775.775.776-.775-.776-.776-.775.776zm12.369 8.281h-1.097v1.096h1.097V30.71zm-1.645-1.646h-1.097v1.097h1.096v-1.097zm-1.646-1.644H16.45v1.096h1.097V27.42zm-1.645-1.646h-1.096v1.097h1.096v-1.097zm12.729-1.021l.775.776.776-.776-.776-.775-.775.775zm-2.329.003l.775.775.776-.775-.776-.776-.775.776zm-2.323-.001l.775.775.775-.776-.775-.775-.776.776zm-2.328-.002l.776.776.775-.776-.775-.775-.776.775zm10.155-11.592H30.71v1.097h1.097v-1.097zm-1.646 1.645h-1.097v1.097h1.097v-1.097zm-1.645 1.646h-1.097v1.096h1.097v-1.096zm-1.645 1.645h-1.097v1.097h1.097v-1.097zM25.53 4.591l-.775-.776-.776.776.776.776.775-.776zm0 2.328l-.775-.776-.776.776.776.775.775-.775zm-1.552 2.327l.776.775.775-.775-.775-.776-.776.776zm1.55 2.325l-.775-.775-.776.775.776.776.775-.776z" fill="#ED0035"/></svg>