<svg width="25" height="34" fill="none" xmlns="http://www.w3.org/2000/svg"><path d="M25 8.774V4.387h-5.435V0H5.435v4.387H0v4.387h1.087v20.839H0V34h25v-4.387h-1.087V8.774H25zM6.522 3.29h9.782V2.194H6.522V1.097h11.956v1.097h-1.087V3.29h1.087v1.097H6.522V3.29zm17.391 29.613H1.087V30.71h22.826v2.193zm-21.74-3.29V8.774h1.088v20.839H2.174zm4.349-4.936V8.774h1.087v20.839H6.522v-3.839H5.435v3.839H4.348V8.774h1.087v15.903h1.087zm2.174 4.936V8.774h1.087v20.839H8.696zm2.174 0V8.774h1.087v20.839H10.87zm2.174 0V8.774h1.086v20.839h-1.087zm2.173 0V8.774h1.087v20.839h-1.087zm2.174 0V8.774h1.087v20.839h-1.087zM21.74 9.87V8.774h1.087v20.839H21.74V10.968h-1.087v18.645h-1.087V8.774h1.087v1.097h1.087zM1.087 7.677V5.484h22.826v2.193H1.087z" fill="#ED0035"/></svg>