<svg id="Слой_1" data-name="Слой 1" xmlns="http://www.w3.org/2000/svg" width="70" height="70"><defs><style>.cls-1{fill:#2c77bb}</style></defs><path class="cls-1" d="M48.18 39.67A1.16 1.16 0 0 0 47 40.83a5.18 5.18 0 1 1-10.35 0 1.16 1.16 0 0 0-1.17-1.16h-5.15v-4.22a7.63 7.63 0 0 0 0-15.08v-7.54a1.16 1.16 0 0 0-1.16-1.16h-28A1.16 1.16 0 0 0 0 12.83v56A1.17 1.17 0 0 0 1.17 70h56a1.16 1.16 0 0 0 1.16-1.17V39.67zM2.33 14H28v7.45a1.17 1.17 0 0 0 1.17 1.17 5.3 5.3 0 0 1 0 10.59A1.16 1.16 0 0 0 28 34.37v5.3h-4.22a7.63 7.63 0 0 0-15.08 0H2.33zm0 28h7.45A1.17 1.17 0 0 0 11 40.83a5.3 5.3 0 0 1 10.59 0A1.17 1.17 0 0 0 22.71 42H28v4.09a7.49 7.49 0 0 0 0 14.84v6.74H2.33zM56 67.67H30.33v-7.82a1.17 1.17 0 0 0-1.16-1.17 5.17 5.17 0 1 1 0-10.34 1.17 1.17 0 0 0 1.16-1.17V42h4.1a7.51 7.51 0 0 0 14.83 0H56v25.67z"/><path class="cls-1" d="M68.83 0h-28a1.16 1.16 0 0 0-1.16 1.17v8.61A1.16 1.16 0 0 0 40.83 11a5.3 5.3 0 0 1 0 10.59 1.16 1.16 0 0 0-1.16 1.17v6.46a1.16 1.16 0 0 0 1.16 1.16h5.26a7.49 7.49 0 0 0 14.84 0h7.9A1.16 1.16 0 0 0 70 29.17v-28A1.17 1.17 0 0 0 68.83 0zm-1.16 28h-7.82a1.17 1.17 0 0 0-1.17 1.17 5.17 5.17 0 0 1-10.34.22v-.22A1.17 1.17 0 0 0 47.17 28H42v-4.22a7.65 7.65 0 0 0 0-15.07V2.33h25.67zM5.83 16.33h9.34v2.34H5.83zm0 4.67h9.34v2.33H5.83zm0 4.67h4.67V28H5.83zm31.5 26.83h10.5v2.33h-10.5zm0 4.67h10.5v2.33h-10.5zm0 4.66h5.84v2.34h-5.84z"/></svg>