<svg width="24" height="24" viewBox="0 0 24 24" fill="none" xmlns="http://www.w3.org/2000/svg">
<path d="M23.5115 19.1631C23.7812 19.1631 23.9999 18.9444 23.9999 18.6747V6.18665C23.9999 2.77538 21.2246 0 17.8133 0H17.6982C15.1409 0 12.9412 1.55969 11.9999 3.77765C11.0587 1.55969 8.85898 0 6.30166 0H6.18657C2.7753 0 0 2.77538 0 6.18665V23.5116C0 23.7813 0.218719 24 0.488394 24H0.498976C0.761813 24 0.977439 23.792 0.987044 23.5294C1.08977 20.7157 3.37358 18.5116 6.18657 18.5116H6.30166C9.11465 18.5116 11.3985 20.7156 11.5013 23.5294C11.5109 23.7921 11.7266 24 11.9893 24H11.9999H12.0105C12.2733 24 12.489 23.792 12.4986 23.5294C12.6014 20.7157 14.8853 18.5116 17.6982 18.5116H17.8133C20.6263 18.5116 22.9101 20.7156 23.0128 23.5294C23.0224 23.7921 23.2381 24 23.5009 24H23.5115C23.7812 24 23.9999 23.7813 23.9999 23.5116C23.9999 23.469 23.9945 23.4277 23.9842 23.3882C23.9009 21.8237 23.2373 20.3659 22.1087 19.2731C20.951 18.1521 19.4255 17.5348 17.8133 17.5348H17.6982C16.086 17.5348 14.5605 18.1521 13.4027 19.2731C12.7927 19.8637 12.32 20.5615 11.9999 21.3247C11.6798 20.5615 11.2071 19.8636 10.5971 19.2731C9.43935 18.1521 7.91385 17.5348 6.30166 17.5348H6.18657C4.57438 17.5348 3.04896 18.1521 1.89114 19.2731C1.54023 19.6128 1.23433 19.9879 0.976788 20.3905V6.18665C0.976788 3.31392 3.31392 0.976788 6.18657 0.976788H6.30166C9.1744 0.976788 11.5115 3.31392 11.5115 6.18665V17.1281C11.5115 17.3978 11.7302 17.6165 11.9999 17.6165C12.2696 17.6165 12.4883 17.3978 12.4883 17.1281V6.18665C12.4883 3.31392 14.8254 0.976788 17.6982 0.976788H17.8133C20.686 0.976788 23.0231 3.31392 23.0231 6.18665V18.6747C23.0231 18.9444 23.2418 19.1631 23.5115 19.1631Z" fill="#999999"/>
</svg>
