<svg width="24" height="24" viewBox="0 0 24 24" fill="none" xmlns="http://www.w3.org/2000/svg">
<path d="M23.2231 21.6162C23.2231 22.5037 22.5035 23.2233 21.6159 23.2233C20.7284 23.2233 20.0088 22.5037 20.0088 21.6162C20.0088 20.7286 20.7284 20.009 21.6159 20.009C22.5035 20.009 23.2231 20.7286 23.2231 21.6162Z" fill="#999999"/>
<path d="M9.96436 20.4648V22.7673L11.3456 21.6161L9.96436 20.4648Z" fill="#999999"/>
<path d="M12.1187 22.0179H19.2055V21.2144H12.1187L12.2306 21.3071C12.3224 21.3835 12.3754 21.4967 12.3754 21.6161C12.3754 21.7356 12.3224 21.8487 12.2306 21.9252L12.1187 22.0179Z" fill="#999999"/>
<path d="M3.93743 2.33029C3.93743 3.21783 3.21783 3.93743 2.33029 3.93743C1.44275 3.93743 0.723145 3.21783 0.723145 2.33029C0.723145 1.44275 1.44275 0.723145 2.33029 0.723145C3.21783 0.723145 3.93743 1.44275 3.93743 2.33029Z" fill="#999999"/>
<path d="M18.0001 12.3749C20.8848 12.3749 23.2233 10.0364 23.2233 7.15168C23.2233 4.26699 20.8848 1.92847 18.0001 1.92847H14.5293L14.6412 2.02122C14.733 2.09766 14.7861 2.21082 14.7861 2.33025C14.7861 2.44969 14.733 2.56285 14.6412 2.63928L14.5293 2.73204H18.0001C20.4409 2.73204 22.4197 4.71083 22.4197 7.15168C22.4197 9.59253 20.4409 11.5713 18.0001 11.5713H14.3479C14.3959 11.8369 14.3959 12.1093 14.3479 12.3749H18.0001Z" fill="#999999"/>
<path d="M4.74121 1.92847H11.5716V2.73204H4.74121V1.92847Z" fill="#999999"/>
<path d="M13.5805 11.9731C13.5805 12.8606 12.8609 13.5803 11.9734 13.5803C11.0858 13.5803 10.3662 12.8606 10.3662 11.9731C10.3662 11.0856 11.0858 10.366 11.9734 10.366C12.8609 10.366 13.5805 11.0856 13.5805 11.9731Z" fill="#999999"/>
<path d="M12.375 3.48162L13.7563 2.33041L12.375 1.1792V3.48162Z" fill="#999999"/>
<path d="M9.59853 12.3751C9.5505 12.1095 9.5505 11.8371 9.59853 11.5715H5.94636C3.06166 11.5715 0.723145 13.9101 0.723145 16.7947C0.723145 19.6794 3.06166 22.018 5.94636 22.018H9.16064V21.2144H5.94636C3.50551 21.2144 1.52672 19.2356 1.52672 16.7947C1.52672 14.3539 3.50551 12.3751 5.94636 12.3751H9.59853Z" fill="#999999"/>
</svg>
