<svg width="24" height="24" viewBox="0 0 24 24" fill="none" xmlns="http://www.w3.org/2000/svg">
<g clip-path="url(#clip0)">
<path d="M20.4866 3.51437C15.8074 -1.16495 8.19355 -1.16495 3.51431 3.51437C1.87256 5.15612 0.749535 7.21867 0.266542 9.47912C-0.203669 11.6801 -0.0496458 13.9605 0.711924 16.0736C0.803427 16.3274 1.08339 16.4589 1.33705 16.3675C1.59088 16.276 1.72244 15.9961 1.63094 15.7424C0.931237 13.8009 0.78975 11.7057 1.22186 9.68313C1.66529 7.60756 2.69689 5.7132 4.20505 4.20504C8.50347 -0.0933764 15.4975 -0.0933764 19.7959 4.20504C21.8429 6.25212 22.9888 8.97317 23.0224 11.8671C23.056 14.7558 21.9795 17.4986 19.9912 19.5901C19.9677 19.6149 19.9444 19.6398 19.9212 19.6647C19.88 19.7087 19.8389 19.7529 19.7959 19.7958C15.4975 24.0943 8.50347 24.0943 4.20505 19.7958C4.18218 19.773 4.15987 19.7497 4.13781 19.7264C4.13667 19.6813 4.13569 19.6369 4.13569 19.5931C4.13569 19.4947 4.13756 19.3968 4.14115 19.2992C4.14237 19.2665 4.14481 19.2342 4.14644 19.2017C4.14961 19.1368 4.15263 19.0719 4.15735 19.0073C4.1602 18.9688 4.16435 18.9307 4.16777 18.8924C4.1729 18.8342 4.1777 18.776 4.18405 18.7181C4.18853 18.6772 4.19439 18.6367 4.19952 18.596C4.20644 18.541 4.21303 18.4859 4.22117 18.4312C4.22736 18.3895 4.23468 18.3483 4.24152 18.3068C4.25023 18.2535 4.2587 18.2002 4.26855 18.1472C4.27628 18.1053 4.28516 18.0637 4.29362 18.0221C4.30413 17.97 4.31446 17.9179 4.32602 17.8662C4.33539 17.8243 4.34581 17.7826 4.35582 17.741C4.36803 17.6901 4.38016 17.6392 4.39335 17.5887C4.40434 17.5469 4.41622 17.5054 4.42778 17.4638C4.4417 17.4139 4.45554 17.364 4.47044 17.3145C4.4829 17.273 4.49625 17.2318 4.50944 17.1906C4.52507 17.1417 4.5407 17.0927 4.55722 17.0442C4.57122 17.0032 4.58588 16.9625 4.60053 16.9218C4.61787 16.8736 4.63529 16.8254 4.65353 16.7776C4.66899 16.7371 4.68503 16.6971 4.70115 16.6569C4.72012 16.6096 4.73925 16.5623 4.75911 16.5154C4.77605 16.4755 4.79347 16.436 4.81105 16.3964C4.83165 16.3499 4.85249 16.3036 4.87398 16.2576C4.8923 16.2185 4.91102 16.1796 4.92999 16.1407C4.95229 16.095 4.97484 16.0495 4.99796 16.0043C5.01758 15.966 5.03753 15.9279 5.0578 15.89C5.08173 15.845 5.10607 15.8003 5.1309 15.7557C5.15182 15.7183 5.17299 15.681 5.19448 15.644C5.22004 15.5999 5.24601 15.5561 5.27247 15.5125C5.2947 15.4759 5.31716 15.4394 5.33996 15.4031C5.36715 15.3599 5.39475 15.317 5.42275 15.2745C5.4462 15.2387 5.4698 15.2031 5.49382 15.1678C5.52256 15.1255 5.55194 15.0836 5.58158 15.0419C5.60624 15.0071 5.63091 14.9724 5.65615 14.9382C5.68651 14.8968 5.71753 14.8559 5.74871 14.8152C5.77451 14.7815 5.80024 14.7478 5.82661 14.7145C5.85861 14.674 5.89133 14.634 5.92414 14.5942C5.95092 14.5617 5.97771 14.5291 6.00506 14.4969C6.03876 14.4574 6.0732 14.4184 6.10772 14.3795C6.13556 14.348 6.16324 14.3165 6.19157 14.2856C6.2269 14.247 6.26296 14.2092 6.2991 14.1713C6.32792 14.141 6.35658 14.1107 6.38589 14.0808C6.42293 14.0432 6.46078 14.0064 6.49855 13.9694C6.52819 13.9405 6.55757 13.9113 6.5877 13.8828C6.62661 13.846 6.66642 13.8101 6.70606 13.7741C6.73635 13.7467 6.76622 13.7189 6.79691 13.6919C6.83786 13.6558 6.87987 13.6208 6.92163 13.5856C6.95224 13.5598 6.98252 13.5336 7.01354 13.5082C7.05677 13.4728 7.10105 13.4385 7.14518 13.404C7.17595 13.38 7.20623 13.3554 7.23733 13.3318C7.28381 13.2966 7.33127 13.2625 7.37865 13.2284C7.40853 13.2067 7.43784 13.1846 7.46812 13.1633C7.52038 13.1266 7.57387 13.0912 7.62719 13.0556C7.65349 13.0381 7.67921 13.02 7.70567 13.0027C7.77519 12.9575 7.84593 12.9138 7.91717 12.8706C7.92824 12.864 7.93898 12.8568 7.95014 12.8501C8.03252 12.8008 8.11605 12.7529 8.20055 12.7064C8.22945 12.6905 8.25916 12.6756 8.28839 12.66C8.34448 12.6301 8.4004 12.5999 8.45747 12.5712C8.49402 12.5528 8.53147 12.5356 8.56835 12.5177C8.61491 12.4952 8.66131 12.4724 8.70845 12.4507C9.59376 13.2963 10.7747 13.7751 12.0006 13.7751C13.2264 13.7751 14.4075 13.2962 15.2928 12.4505C17.021 13.2503 18.4355 14.6855 19.2034 16.4307C19.312 16.6775 19.6001 16.7898 19.8472 16.6811C20.0941 16.5724 20.2062 16.2842 20.0975 16.0373C19.2575 14.1283 17.7952 12.6028 15.9442 11.6819C16.4813 10.8941 16.7718 9.9639 16.7718 9.00394C16.7718 6.37309 14.6314 4.23271 12.0006 4.23271C11.7309 4.23271 11.5121 4.45146 11.5121 4.72116C11.5121 4.99086 11.7309 5.20961 12.0006 5.20961C14.0928 5.20961 15.7949 6.91176 15.7949 9.00394C15.7949 9.93948 15.4472 10.8403 14.816 11.5404C14.8159 11.5404 14.8158 11.5405 14.8157 11.5406C14.095 12.3399 13.0689 12.7983 12.0005 12.7983C10.9321 12.7983 9.90596 12.3399 9.18526 11.5406C9.18517 11.5404 9.18501 11.5404 9.18485 11.5403C8.55369 10.84 8.20608 9.9394 8.20608 9.00402C8.20608 7.98284 8.60588 7.02484 9.33187 6.30666C9.52367 6.1169 9.5253 5.80763 9.33554 5.61591C9.14585 5.42404 8.83659 5.42257 8.64479 5.61217C7.73196 6.51498 7.22919 7.71957 7.22919 9.0037C7.22919 9.96268 7.519 10.8923 8.05515 11.6797C8.05035 11.682 8.04571 11.6846 8.04099 11.6871C8.00289 11.7061 7.96569 11.7263 7.92791 11.7458C7.87003 11.7757 7.81199 11.8055 7.75492 11.8367C7.71454 11.8587 7.67506 11.8818 7.63509 11.9043C7.58177 11.9345 7.52836 11.9646 7.47577 11.9958C7.43499 12.02 7.39485 12.0451 7.35448 12.0699C7.304 12.101 7.25353 12.132 7.20379 12.164C7.16317 12.1902 7.12328 12.217 7.08314 12.2437C7.03487 12.2759 6.98668 12.3082 6.93913 12.3413C6.89916 12.3691 6.85968 12.3975 6.8202 12.4259C6.77379 12.4594 6.72755 12.493 6.68188 12.5273C6.64273 12.5567 6.60406 12.5865 6.56547 12.6164C6.5207 12.6512 6.47625 12.6862 6.43229 12.7218C6.39419 12.7525 6.35642 12.7837 6.31881 12.815C6.27558 12.8512 6.23268 12.8877 6.19018 12.9247C6.1533 12.9567 6.11667 12.9889 6.08036 13.0216C6.03844 13.0593 5.99708 13.0974 5.95597 13.1358C5.92048 13.1689 5.88507 13.2021 5.85006 13.2359C5.80944 13.2752 5.76947 13.315 5.72958 13.3549C5.69555 13.3891 5.66152 13.4231 5.62814 13.4577C5.58866 13.4986 5.54991 13.5403 5.51124 13.582C5.47892 13.6168 5.44636 13.6515 5.41461 13.6869C5.37594 13.7299 5.33833 13.7738 5.30056 13.8175C5.27019 13.8527 5.23958 13.8875 5.20979 13.9231C5.17144 13.9689 5.13432 14.0156 5.09696 14.0622C5.0692 14.0969 5.04087 14.1311 5.01359 14.1662C4.97436 14.2166 4.93642 14.2681 4.89832 14.3194C4.87439 14.3516 4.8498 14.3833 4.82636 14.4159C4.77816 14.4826 4.73152 14.5503 4.68528 14.6184C4.67315 14.6363 4.66028 14.6537 4.64824 14.6717C4.59068 14.7577 4.53475 14.8446 4.48029 14.9325C4.46149 14.9629 4.44382 14.9939 4.42542 15.0245C4.39017 15.083 4.35476 15.1414 4.32081 15.2008C4.29965 15.2378 4.27962 15.2755 4.25903 15.3129C4.22931 15.3666 4.19943 15.4202 4.17094 15.4746C4.14978 15.5149 4.12975 15.5556 4.10915 15.5963C4.08261 15.6487 4.05599 15.701 4.03051 15.754C4.01024 15.7962 3.99095 15.8389 3.97133 15.8813C3.94723 15.9336 3.92306 15.9859 3.89994 16.0387C3.88089 16.0823 3.86265 16.1262 3.84433 16.1701C3.82227 16.2228 3.80037 16.2754 3.77937 16.3285C3.7617 16.3731 3.74477 16.418 3.72784 16.4628C3.70781 16.5161 3.68803 16.5694 3.66898 16.6231C3.65286 16.6686 3.63723 16.7143 3.62176 16.7602C3.60361 16.814 3.58595 16.8679 3.56885 16.9222C3.55428 16.9684 3.54019 17.0147 3.52636 17.0611C3.51007 17.1159 3.49436 17.1709 3.47914 17.226C3.46628 17.2726 3.45366 17.3193 3.44153 17.3661C3.42712 17.4219 3.41344 17.4779 3.40009 17.5341C3.38894 17.581 3.37787 17.6278 3.36753 17.6748C3.35499 17.7318 3.34335 17.789 3.33195 17.8463C3.32259 17.8932 3.31307 17.9401 3.30444 17.9872C3.29377 18.0457 3.28417 18.1044 3.27464 18.1633C3.26715 18.2097 3.25926 18.256 3.2525 18.3026C3.24363 18.3633 3.23614 18.4244 3.22848 18.4854C3.22287 18.5307 3.21668 18.5759 3.21171 18.6213C3.20471 18.6853 3.19934 18.7497 3.19372 18.8141C3.18998 18.857 3.1855 18.8997 3.18241 18.9429C3.1772 19.0147 3.17378 19.0869 3.17028 19.1592C3.16857 19.1951 3.16588 19.2308 3.16458 19.2668C3.16067 19.3752 3.15847 19.4841 3.15847 19.5933C3.15847 19.7113 3.16246 19.8228 3.16727 19.946C3.1684 19.9745 3.17239 20.0021 3.17809 20.0292C3.17858 20.0313 3.17883 20.0334 3.17931 20.0355C3.18534 20.0621 3.1938 20.0877 3.20398 20.1124C3.20496 20.1149 3.20585 20.1173 3.20691 20.1198C3.21741 20.1442 3.22995 20.1675 3.24411 20.1896C3.2459 20.1924 3.24761 20.1952 3.24941 20.1978C3.26398 20.2196 3.28018 20.24 3.29784 20.2591C3.29915 20.2604 3.30004 20.2621 3.30134 20.2635L3.36582 20.3322C3.4145 20.3843 3.46318 20.4362 3.51398 20.4869C5.85364 22.8266 8.92687 23.9964 12.0002 23.9964C15.0735 23.9964 18.1467 22.8266 20.4864 20.4869C20.5372 20.4362 20.5858 20.3842 20.6345 20.3322L20.699 20.2635C22.8636 17.9865 24.0355 15.0008 23.999 11.8561C23.9626 8.70526 22.7151 5.74283 20.4866 3.51437Z" fill="#999999"/>
</g>
<defs>
<clipPath id="clip0">
<rect width="24" height="24" fill="white"/>
</clipPath>
</defs>
</svg>
