<svg width="24" height="24" viewBox="0 0 24 24" fill="none" xmlns="http://www.w3.org/2000/svg">
<g clip-path="url(#clip0)">
<path d="M23.7714 10.9895L19.4631 8.41792C19.3206 4.42402 16.0278 1.21875 11.9998 1.21875C10.8021 1.21875 9.61086 1.50952 8.5547 2.05957C8.32509 2.17914 8.23592 2.46222 8.35548 2.69184C8.47505 2.92145 8.75813 3.01062 8.98775 2.89106C9.43068 2.66034 9.89083 2.48419 10.3653 2.36188C10.0397 2.75739 9.74526 3.27723 9.49312 3.91187C8.95387 5.26814 8.64204 7.03511 8.60561 8.92165C7.55293 8.78597 6.50849 8.58821 5.47834 8.32747C5.52796 7.39564 5.77149 6.50502 6.2038 5.67482C6.32337 5.44538 6.2342 5.16212 6.00459 5.04255C5.77497 4.92298 5.49189 5.01215 5.37232 5.24177C4.86329 6.21882 4.57691 7.3116 4.53662 8.41792L0.228324 10.9895C0.0703036 11.0838 -0.0179535 11.2617 0.00273746 11.4447C0.0234284 11.6274 0.149222 11.7812 0.324272 11.838C1.35461 12.1714 2.39392 12.4598 3.43982 12.7039C3.28418 13.4691 3.33197 14.556 3.83496 15.338C4.11859 15.779 4.50971 16.0602 4.98139 16.1682C5.19837 19.8512 8.2632 22.7813 11.9998 22.7813C12.2547 22.7813 12.5146 22.7668 12.7718 22.7385C13.0293 22.7099 13.2147 22.4783 13.1862 22.221C13.1578 21.9635 12.9262 21.7784 12.6687 21.8066C12.4455 21.8312 12.2205 21.8438 11.9998 21.8438C8.63966 21.8438 5.90607 19.11 5.90607 15.75V13.1942C7.92372 13.5264 9.96004 13.6941 11.9998 13.6941C14.0396 13.6941 16.076 13.5264 18.0936 13.1942V15.75C18.0936 17.417 17.426 18.9762 16.214 20.1404C16.0274 20.3196 16.0214 20.6163 16.2007 20.803C16.2928 20.8988 16.4156 20.9471 16.5389 20.9471C16.6557 20.9471 16.7725 20.9037 16.8635 20.8164C18.1595 19.5716 18.9152 17.9341 19.0185 16.1681C19.49 16.06 19.8811 15.7788 20.1645 15.338C20.6675 14.556 20.7155 13.4691 20.5597 12.7039C21.6058 12.4598 22.6451 12.1714 23.6754 11.838C23.8505 11.7812 23.9761 11.6274 23.9968 11.4445C24.0176 11.2617 23.9294 11.0838 23.7714 10.9895ZM18.521 8.32747C17.491 8.58821 16.4466 8.78615 15.3941 8.92165C15.3576 7.03511 15.0458 5.26814 14.5066 3.91187C14.2548 3.27851 13.9611 2.75959 13.6363 2.36426C16.3362 3.06336 18.3641 5.45033 18.521 8.32747ZM10.3642 4.25812C10.8278 3.09192 11.4394 2.39575 11.9998 2.39575C12.5603 2.39575 13.1717 3.09192 13.6353 4.25812C14.1422 5.53291 14.4315 7.21748 14.4577 9.02602C13.6412 9.10182 12.8211 9.13991 11.9998 9.13991C11.1788 9.13991 10.3585 9.10182 9.54201 9.02602C9.56819 7.21748 9.8575 5.53291 10.3642 4.25812ZM4.96857 15.1701C4.83527 15.096 4.72193 14.9839 4.62342 14.831C4.28467 14.3042 4.24604 13.4623 4.35443 12.9057C4.55896 12.9481 4.76368 12.989 4.96857 13.028V15.1701ZM19.3761 14.8308C19.2778 14.9839 19.1642 15.096 19.0311 15.1701V13.028C19.236 12.989 19.4407 12.9481 19.6452 12.9057C19.7536 13.4623 19.715 14.3042 19.3761 14.8308ZM11.9998 12.7566C8.50105 12.7566 5.01197 12.2516 1.61334 11.2546L5.07203 9.19008C7.33339 9.7784 9.66286 10.0774 11.9998 10.0774C14.3368 10.0774 16.6663 9.7784 18.9275 9.19008L22.3863 11.2546C18.9877 12.2516 15.4984 12.7566 11.9998 12.7566Z" fill="#5FB46E"/>
<path d="M8.82434 15.0431C8.82434 15.3021 9.03418 15.5119 9.29309 15.5119C9.552 15.5119 9.76184 15.3021 9.76184 15.0431V15.0428C9.76184 14.7839 9.552 14.5742 9.29309 14.5742C9.03418 14.5742 8.82434 14.7842 8.82434 15.0431Z" fill="#5FB46E"/>
<path d="M14.7069 15.5119C14.9658 15.5119 15.1757 15.3021 15.1757 15.0431V15.0428C15.1757 14.7839 14.9658 14.5742 14.7069 14.5742C14.448 14.5742 14.2382 14.7842 14.2382 15.0431C14.2382 15.3021 14.448 15.5119 14.7069 15.5119Z" fill="#5FB46E"/>
<path d="M12.8381 17.3061C12.5838 17.4529 12.2939 17.5306 12.0002 17.5306C11.7065 17.5306 11.4167 17.4529 11.1623 17.3061C10.9382 17.1766 10.6515 17.2533 10.522 17.4776C10.3926 17.7018 10.4693 17.9885 10.6936 18.118C11.0902 18.347 11.5421 18.4681 12.0002 18.4681C12.4584 18.4681 12.9101 18.3468 13.3069 18.118C13.531 17.9885 13.6079 17.7018 13.4784 17.4776C13.349 17.2533 13.0622 17.1766 12.8381 17.3061Z" fill="#5FB46E"/>
<path d="M7.05024 4.20618C7.17768 4.20618 7.30475 4.15454 7.39722 4.05292L7.39741 4.05255C7.57154 3.86102 7.55726 3.56476 7.36573 3.39062C7.1742 3.21649 6.87757 3.23077 6.70343 3.4223C6.5293 3.61383 6.5434 3.91028 6.73511 4.08441C6.82483 4.16608 6.93763 4.20618 7.05024 4.20618Z" fill="#5FB46E"/>
<path d="M14.5962 21.2595C14.3582 21.3615 14.2479 21.6371 14.3499 21.8749C14.4261 22.0527 14.5991 22.1591 14.7809 22.1591C14.8427 22.1591 14.9053 22.1468 14.9653 22.1212L14.9657 22.121C15.2037 22.019 15.3138 21.7434 15.2118 21.5056C15.1098 21.2675 14.8339 21.1575 14.5962 21.2595Z" fill="#5FB46E"/>
</g>
<defs>
<clipPath id="clip0">
<rect width="24" height="24" fill="white"/>
</clipPath>
</defs>
</svg>
