<svg width="24" height="24" viewBox="0 0 24 24" fill="none" xmlns="http://www.w3.org/2000/svg">
<path d="M8.98763 12H2.25C1.00913 12 0 13.0091 0 14.25V20.9906C0 22.2315 1.00913 23.2406 2.25 23.2406H8.98763C10.2285 23.2406 11.2376 22.2315 11.2376 20.9906V14.25C11.2376 13.0095 10.2281 12 8.98763 12ZM10 20.9906C10 21.4042 9.40162 22 8.98763 22H2.25C1.836 22 1 21.4136 1 21V14.25C1 13.8364 1.836 13 2.25 13H8.98763C9.40162 13 10 13.84 10 14.25V20.9906Z" fill="#5FB46E"/>
<path d="M8.98763 0H2.25C1.00913 0 0 1.00912 0 2.25V8.99062C0 10.2315 1.00913 11.2406 2.25 11.2406H8.98763C10.2285 11.2406 11.2376 10.2315 11.2376 8.99062V2.25C11.2376 1.0095 10.2281 0 8.98763 0ZM10 8.99062C10 9.40425 9.40162 10 8.98763 10H2.25C1.836 10 1 9.41362 1 9V2.25C1 1.83637 1.836 1 2.25 1H8.98763C9.40162 1 10 1.84 10 2.25V8.99062Z" fill="#5FB46E"/>
<path d="M21.7476 12H15.01C13.7691 12 12.76 13.0091 12.76 14.25V20.9906C12.76 22.2315 13.7691 23.2406 15.01 23.2406H21.7476C22.9885 23.2406 23.9976 22.2315 23.9976 20.9906V14.25C23.9976 13.0095 22.9881 12 21.7476 12ZM22.76 20.9906C22.76 21.4042 22.1616 22 21.7476 22H15.01C14.596 22 13.76 21.4136 13.76 21V14.25C13.76 13.8364 14.596 13 15.01 13H21.7476C22.1616 13 22.76 13.84 22.76 14.25V20.9906Z" fill="#5FB46E"/>
<path d="M21.7474 0H15.0098C13.7689 0 12.7598 1.00912 12.7598 2.25V8.99062C12.7598 10.2315 13.7689 11.2406 15.0098 11.2406H21.7474C22.9883 11.2406 23.9974 10.2315 23.9974 8.99062V2.25C23.9974 1.0095 22.9879 0 21.7474 0ZM22.7598 8.99062C22.7598 9.40425 22.1614 10 21.7474 10H15.0098C14.5958 10 13.7598 9.41362 13.7598 9V2.25C13.7598 1.83637 14.5958 1 15.0098 1H21.7474C22.1614 1 22.7598 1.84 22.7598 2.25V8.99062Z" fill="#5FB46E"/>
</svg>
