<svg width="24" height="24" viewBox="0 0 24 24" fill="none" xmlns="http://www.w3.org/2000/svg">
<g clip-path="url(#clip0)">
<path d="M10.3669 22.4158C10.3669 22.1465 10.1514 21.931 9.88207 21.931H3.11936C1.9343 21.931 0.974495 20.9663 0.974495 19.7862V5.80534H3.91267V7.63191C3.91267 7.90124 4.12814 8.11671 4.39747 8.11671C4.6668 8.11671 4.88227 7.90124 4.88227 7.63191V5.80534H10.7243V7.63191C10.7243 7.90124 10.9398 8.11671 11.2091 8.11671C11.4785 8.11671 11.6939 7.90124 11.6939 7.63191V5.80534H14.6321V6.76025C14.6321 7.02958 14.8476 7.24505 15.1169 7.24505C15.3862 7.24505 15.6017 7.02958 15.6017 6.76025V5.32054C15.6017 5.05121 15.3862 4.83575 15.1169 4.83575H11.689C11.6058 2.76433 9.89676 1.09937 7.80086 1.09937C5.70496 1.09937 3.99592 2.75943 3.91267 4.83575H0.484799C0.215466 4.83575 0 5.05121 0 5.32054V19.7862C0 21.505 1.39563 22.9006 3.11447 22.9006H9.87717C10.1514 22.9006 10.3669 22.6803 10.3669 22.4158ZM7.80086 2.06896C9.35809 2.06896 10.6362 3.2981 10.7194 4.83575H4.88227C4.96552 3.2981 6.24362 2.06896 7.80086 2.06896Z" fill="#5FB46E"/>
<path d="M14.4852 10.859V11.4124H11.8163C11.547 11.4124 11.3315 11.6279 11.3315 11.8972V20.4032C11.3315 21.7793 12.448 22.8958 13.8241 22.8958H21.5074C22.8835 22.8958 24 21.7793 24 20.4032V11.8972C24 11.6279 23.7845 11.4124 23.5152 11.4124H20.8463V10.859C20.8463 9.10594 19.4213 7.67603 17.6633 7.67603C15.9102 7.68092 14.4852 9.10594 14.4852 10.859ZM20.3615 14.0715C20.6309 14.0715 20.8463 13.856 20.8463 13.5867V12.382H23.0304V20.4032C23.0304 21.2455 22.3448 21.9262 21.5074 21.9262H13.8241C12.9818 21.9262 12.3011 21.2406 12.3011 20.4032V12.382H14.4852V13.5867C14.4852 13.856 14.7007 14.0715 14.97 14.0715C15.2393 14.0715 15.4548 13.856 15.4548 13.5867V12.382H19.8767V13.5867C19.8767 13.856 20.0922 14.0715 20.3615 14.0715ZM19.8767 10.859V11.4124H15.4548V10.859C15.4548 9.63971 16.4489 8.64562 17.6682 8.64562C18.8827 8.65052 19.8767 9.63971 19.8767 10.859Z" fill="#5FB46E"/>
</g>
<defs>
<clipPath id="clip0">
<rect width="24" height="24" fill="white"/>
</clipPath>
</defs>
</svg>
