<svg width="173" height="23" viewBox="0 0 173 23" fill="none" xmlns="http://www.w3.org/2000/svg">
<path d="M73.73 17.87H43.57V13.4H73.73V0H39.1V4.46H69.27V8.93H39.1V22.34H73.73V17.87Z" fill="#0A0A0A"/>
<path d="M132.94 22.34V0H98.3101V4.46H128.47V8.93H98.3101V13.4H128.47V17.87H98.3101V22.34H132.94Z" fill="#0A0A0A"/>
<path d="M34.63 22.34V0H0V4.46H30.17V8.93H0V13.4H30.17V17.87H0V22.34H34.63Z" fill="#0A0A0A"/>
<path d="M137.41 0V4.46H167.57V8.93H137.41V22.34H172.04V17.87H141.88V13.4H172.04V0H137.41Z" fill="#0A0A0A"/>
<path d="M89.3699 5.58002L86.0199 9.31002L82.67 5.58002H79.3199L84.3499 11.17L79.3199 16.75H82.67L86.0199 13.03L89.3699 16.75H92.7299L87.7 11.17L92.7299 5.58002H89.3699Z" fill="#0A0A0A"/>
</svg>
