<svg width="67" height="30" fill="none" xmlns="http://www.w3.org/2000/svg"><path d="M1.804 19.556h2.718c.7 0 1.412-.055 2.105.034.389.048.745.343 1.108.534.066.035.125.09.191.13.297.192.587.507.904.534.304.028.634-.246.957-.37 1.742-.657 3.404-.506 4.994.494a.721.721 0 0 0 .363.123c2.62.007 5.232.007 7.852.007.066 0 .125-.014.224-.034v-2.5c0-1.883-.007-3.766-.007-5.649 0-.719.007-.698-.686-.616-1.385.164-2.698.589-4.005 1.075-.93.35-1.88.52-2.876.5-.99-.02-1.98-.007-2.97-.007-.118 0-.244.007-.362-.014-.403-.054-.752-.198-.904-.63-.152-.431-.053-.821.23-1.143.443-.52.905-1.027 1.373-1.527l4.256-4.58c.95-1.028 2.104-1.617 3.47-1.672 1.34-.054 2.672-.027 4.012-.034.066 0 .131.014.237.02v16.797h.39c8.794 0 17.596 0 26.39-.007.198 0 .416-.055.588-.157 1.966-1.171 3.925-1.137 5.885.02.119.069.257.137.39.137 2.388.007 4.77.007 7.158.007a.938.938 0 0 0 .178-.02c.006-.096.02-.185.02-.274-.007-3.547.02-7.101-.027-10.648-.026-2.403-.132-4.82-.725-7.162-.225-.87-.608-1.726-.924-2.602C64.225.089 64.08 0 63.809 0c-5.146.014-10.292.014-15.438.014-6.842 0-13.678-.014-20.52 0a63.158 63.158 0 0 0-4.836.198c-2.091.165-3.945 1.007-5.489 2.479-1.405 1.342-2.751 2.753-4.09 4.163-1.393 1.472-2.745 2.986-4.124 4.478-.178.192-.39.37-.614.507-1.464.904-2.923 1.815-4.407 2.677-1.894 1.103-2.567 2.835-2.487 5.04zM27.812 4.238H38.19c.013.042.033.076.033.103.013 2.506.02 5.012.02 7.519 0 .075-.152.219-.238.226-.362.027-.725.006-1.088.006-2.428 0-4.856-.007-7.284-.007h-1.821V4.238zm34.724 0v7.854h-2.468c-2.513 0-5.034-.013-7.547.007-.343 0-.403-.11-.396-.418.013-2.307.013-4.608.013-6.915v-.528h10.398zm-21.476.007h8.24v7.827h-8.24V4.245zm23.152 9.908v5.239h-1.518V15.81c0-.17 0-.342.02-.513.093-.856.554-1.219 1.498-1.144zM3.644 17.96c.066-.691.317-1.211.845-1.568.528-.356 1.075-.698 1.61-1.04.448.657.791 1.938.719 2.608H3.644zm13.004 4.958c.613 1.143.857 2.308.738 3.567H49.63c.052-.616.052-1.232.171-1.821.119-.596.363-1.157.554-1.746H16.648zm-4.863-1.212c-2.309.062-4.038 1.945-3.978 4.314.053 2.232 1.94 4.047 4.143 3.978 2.158-.068 3.913-1.972 3.853-4.19-.066-2.322-1.867-4.157-4.018-4.102zm1.894 4.156c-.02 1.096-.858 1.952-1.894 1.938-1.036-.014-1.887-.917-1.867-1.979.026-1.082.871-1.93 1.92-1.924 1.03.02 1.86.91 1.84 1.965zm41.601-4.156c-2.216.007-4.004 1.856-4.004 4.15 0 2.28 1.807 4.149 4.011 4.142 2.197-.007 3.979-1.856 3.979-4.136.013-2.3-1.775-4.156-3.985-4.156zm.014 2.198c1.042.007 1.867.877 1.867 1.972-.007 1.089-.858 1.945-1.94 1.938-.976-.007-1.834-.945-1.82-1.993.006-1.061.863-1.924 1.893-1.917zM.932 21.46c.033 1.136-.139 2.273.138 3.396.25.986 1.03 1.595 2.111 1.636.99.034 1.973.007 3.029.007-.112-1.616.27-3.074 1.267-4.348-.35-.226-.687-.452-1.023-.657a.524.524 0 0 0-.25-.062c-1.703-.007-3.405 0-5.107 0-.04-.014-.08.007-.165.027zm59.935 5.012c1.405 0 2.758.068 4.097-.02 1.22-.076 1.828-.795 1.927-2.055.04-.486.006-.972.006-1.479h-6.776c.6 1.116.851 2.287.746 3.554z" fill="#fff"/></svg>