<svg width="25" height="35" fill="none" xmlns="http://www.w3.org/2000/svg"><path d="M21.957 17.119l-1.985-.918a.617.617 0 0 1-.267-.237l-1.708-2.778a1.477 1.477 0 0 0-1.273-.71h-6.136a1.491 1.491 0 0 0-1.195.595l-2.198 2.935a.618.618 0 0 1-.33.227l-3.677 1.025a.994.994 0 0 0-.72.957v1.37a.999.999 0 0 0 .98 1.003h.104C3.79 19.05 5.205 18 6.712 18.243c1.183.19 2.11 1.138 2.298 2.345h6.715c.238-1.538 1.652-2.588 3.159-2.345 1.183.19 2.111 1.138 2.298 2.345h.37a.999.999 0 0 0 .979-1.003V18.02a.997.997 0 0 0-.573-.902z" fill="#fff"/><path d="M6.282 19.458c-.844 0-1.528.698-1.528 1.56 0 .86.684 1.558 1.528 1.558.843 0 1.527-.698 1.527-1.559 0-.86-.684-1.558-1.527-1.56zm12.172 0c-.844 0-1.528.698-1.528 1.56 0 .86.684 1.558 1.528 1.558.843 0 1.527-.698 1.527-1.559 0-.86-.684-1.558-1.527-1.56z" fill="#fff"/><path d="M23.214 5.31h-3.77v2.073a.605.605 0 0 1-.606.605H6.136a.571.571 0 0 1-.58-.605V5.31h-3.77C.794 5.31 0 6.165 0 7.178V33.2c-.002.992.783 1.797 1.755 1.8h21.46c.97.015 1.77-.777 1.785-1.769V7.178c0-1.013-.794-1.868-1.786-1.868zm-2.578 25.91H4.364a.624.624 0 0 1-.618-.63c0-.348.277-.63.618-.63h16.272c.341 0 .618.282.618.63 0 .348-.277.63-.618.63zm-16.89-3.938c0-.348.277-.63.618-.63h9.022c.341 0 .617.282.617.63 0 .348-.276.63-.617.63H4.364a.624.624 0 0 1-.618-.63zm20.02-7.697c-.004 1.246-.992 2.257-2.213 2.263h-.456c-.443 1.49-1.985 2.331-3.445 1.88a2.791 2.791 0 0 1-1.841-1.88H8.925c-.443 1.49-1.986 2.331-3.446 1.88a2.791 2.791 0 0 1-1.84-1.88h-.191c-1.222-.006-2.21-1.017-2.213-2.263v-1.37a2.25 2.25 0 0 1 1.628-2.17l3.478-.967 2.071-2.77a2.723 2.723 0 0 1 2.177-1.091h6.135a2.701 2.701 0 0 1 2.32 1.3l1.61 2.613 1.815.84a2.263 2.263 0 0 1 1.296 2.05v1.565z" fill="#fff"/><path d="M6.79 6.728h11.42v-3.25a.998.998 0 0 0-.995-1.003H15.44a.625.625 0 0 1-.605-.507C14.597.822 13.607.002 12.459 0c-1.15 0-2.106.799-2.38 1.984a.625.625 0 0 1-.6.491H7.745a.964.964 0 0 0-.957 1.003v3.25z" fill="#fff"/></svg>