<svg width="46" height="35" fill="none" xmlns="http://www.w3.org/2000/svg"><path d="M17.79 23.362c-.118.064-.24.12-.366.17-.037.015-.069.036-.106.05-.11.036-.223.067-.338.092a5.3 5.3 0 0 1-.378 2.904 7.021 7.021 0 0 0 3.086-.95c-.337-.914-1.002-1.708-1.899-2.266zm.991-3.857c.074.102.139.208.196.318.017.032.04.06.057.092.042.096.076.195.105.295a7.867 7.867 0 0 1 3.334.33 5.13 5.13 0 0 0-1.09-2.69c-1.05.294-1.961.874-2.602 1.655zm.425 2.108c-.01.037-.028.07-.04.109a2.58 2.58 0 0 1-.13.364c-.015.033-.038.06-.056.092-.027.053-.062.102-.093.153.9.602 1.619 1.387 2.089 2.287a5.306 5.306 0 0 0 1.414-2.575 5.788 5.788 0 0 0-3.184-.43zm-4.85-2.973c.111-.06.227-.114.346-.161.043-.019.08-.043.126-.059.11-.037.223-.067.337-.092a5.3 5.3 0 0 1 .379-2.904 7.019 7.019 0 0 0-3.087.95c.337.913 1.002 1.708 1.899 2.266zm2.542-.334c.143.03.282.068.419.114.037.014.07.034.105.049.06.024.117.054.175.082a6.844 6.844 0 0 1 2.627-1.82 6.837 6.837 0 0 0-2.957-1.233 3.952 3.952 0 0 0-.493 2.772c.043.011.082.027.124.036zm-1.513 1.434a1.527 1.527 0 0 0-.762.664c-.01.02-.024.036-.033.055-.022.05-.04.103-.056.156-.012.036-.03.07-.038.11-.009.038-.005.06-.01.089a.858.858 0 0 0 0 .376c.005.029 0 .06.01.088.01.03.026.07.038.11.015.053.034.105.056.156.009.019.023.036.034.055.087.16.207.303.356.424a1.83 1.83 0 0 0 2.182 0c.149-.12.27-.264.356-.424.01-.019.025-.036.034-.055.022-.05.04-.103.056-.155.012-.037.03-.07.038-.11.009-.04.005-.06.01-.09a.858.858 0 0 0 0-.375c-.005-.03 0-.06-.01-.09s-.026-.07-.038-.109a1.276 1.276 0 0 0-.056-.156c-.009-.02-.023-.036-.033-.055a1.522 1.522 0 0 0-.763-.664c-.021-.008-.04-.021-.062-.03a2.063 2.063 0 0 0-.18-.048c-.041-.01-.08-.025-.125-.033s-.069-.005-.103-.009a1.291 1.291 0 0 0-.431 0c-.034.005-.07 0-.102.01a7.04 7.04 0 0 1-.126.033 1.87 1.87 0 0 0-.179.048c-.02.007-.042.02-.063.03zm-.142 3.955a3.658 3.658 0 0 1-.419-.113c-.037-.014-.069-.035-.105-.05-.06-.024-.117-.053-.175-.081a6.846 6.846 0 0 1-2.626 1.82 6.836 6.836 0 0 0 2.956 1.232 3.953 3.953 0 0 0 .494-2.771c-.043-.012-.082-.027-.125-.037zm3.331-19.128l.288.8 5.754-.408-.679-1.868-5.363 1.476zM24.5 0l-8.43 2.32.485 1.335.764-.21.005-.003 6.894-1.897h.005l.761-.21L24.5 0zM13.363 22.497a2.693 2.693 0 0 1-.196-.319c-.017-.031-.04-.06-.057-.092a2.723 2.723 0 0 1-.105-.292 9.613 9.613 0 0 1-.928.05 7.392 7.392 0 0 1-2.405-.38 5.12 5.12 0 0 0 1.09 2.687c1.048-.293 1.96-.874 2.6-1.654zM38.57 4.2V14c0 .774.72 1.4 1.607 1.4h1.608V2.8h-1.608c-.887 0-1.607.627-1.607 1.4zm-4.015 3.5h2.41v1.4h-2.41V7.7zm0 2.8h2.41v1.4h-2.41v-1.4zm-21.617 9.888c.01-.037.028-.07.039-.108a2.59 2.59 0 0 1 .13-.365c.016-.032.04-.06.056-.092.029-.052.063-.101.095-.152a6.248 6.248 0 0 1-2.09-2.288 5.308 5.308 0 0 0-1.414 2.575c.98.439 2.097.59 3.184.43zM34.555 14c0 .387.36.7.803.7h.804c.444 0 .803-.313.803-.7v-.7h-2.41v.7zm8.84-11.2v12.6c.887 0 1.607-.626 1.607-1.4V4.2c0-.773-.72-1.4-1.608-1.4zm-7.233 2.1h-.804c-.444 0-.803.314-.803.7v.7h2.41v-.7c0-.386-.36-.7-.803-.7z" fill="#fff"/><path d="M15.256 7.021h-.052c-.292.013-.614.032-.934.07a.807.807 0 0 1-.11.007C5.593 7.993-.634 14.62.05 22.111c.686 7.492 8.04 13.176 16.66 12.878C25.33 34.69 32.142 28.516 32.143 21a12.344 12.344 0 0 0-1.342-5.6h-2.676c-.443 0-.803-.314-.803-.7 0-.387.36-.7.803-.7h4.822V5.775L15.318 7.02l-.062.002zm12.066 13.98c0 5.412-5.037 9.8-11.25 9.8s-11.25-4.388-11.25-9.8c0-5.413 5.037-9.8 11.25-9.8 6.21.005 11.243 4.39 11.25 9.8z" fill="#fff"/><path d="M16.072 29.401c5.326 0 9.643-3.76 9.643-8.4 0-4.64-4.317-8.4-9.643-8.4-5.325 0-9.642 3.76-9.642 8.4.006 4.637 4.32 8.395 9.642 8.4zm-4.945-13.906c1.673-1.147 3.803-1.666 5.917-1.442 2.113.225 4.037 1.174 5.345 2.639l.005.006c1.317 1.458 1.912 3.313 1.653 5.155-.259 1.841-1.35 3.517-3.031 4.656-3.491 2.378-8.535 1.841-11.266-1.2-2.73-3.041-2.114-7.435 1.377-9.814z" fill="#fff"/></svg>