<svg width="40" height="40" fill="none" xmlns="http://www.w3.org/2000/svg"><path d="M10.507 0h18.986a3.377 3.377 0 0 1 3.374 3.374v33.252A3.377 3.377 0 0 1 29.493 40H10.507a3.377 3.377 0 0 1-3.374-3.374V3.374A3.377 3.377 0 0 1 10.507 0zm18.986 1.354H10.507c-1.114 0-2.02.906-2.02 2.02V6.14h23.025V3.374c0-1.114-.905-2.02-2.019-2.02zM8.488 7.494v25.012h23.024V7.494H8.488zm2.019 31.152h18.986c1.114 0 2.02-.906 2.02-2.02V33.86H8.487v2.766c0 1.114.905 2.02 2.019 2.02z" fill="#FDBF00"/><path d="M20 25.147A5.153 5.153 0 0 1 14.853 20 5.153 5.153 0 0 1 20 14.852 5.153 5.153 0 0 1 25.147 20 5.153 5.153 0 0 1 20 25.147zm0-8.94A3.797 3.797 0 0 0 16.207 20 3.797 3.797 0 0 0 20 23.793 3.797 3.797 0 0 0 23.793 20 3.797 3.797 0 0 0 20 16.207z" fill="#FDBF00"/><path d="M20 22.374A2.377 2.377 0 0 1 17.626 20 2.377 2.377 0 0 1 20 17.626 2.377 2.377 0 0 1 22.374 20 2.377 2.377 0 0 1 20 22.374zm0-3.394a1.02 1.02 0 0 0 0 2.04 1.02 1.02 0 0 0 0-2.04z" fill="#FDBF00"/><path d="M29.113 22.076a.677.677 0 0 1-.66.526h-.85a7.82 7.82 0 0 1-.387.934l.6.6a.677.677 0 0 1 .095.84 9.41 9.41 0 0 1-2.935 2.935.677.677 0 0 1-.84-.094l-.6-.6a8.002 8.002 0 0 1-.933.387v.849c0 .316-.219.59-.527.66a9.352 9.352 0 0 1-4.152 0 .677.677 0 0 1-.527-.66v-.85a8.033 8.033 0 0 1-.933-.387l-.6.6a.677.677 0 0 1-.84.095 9.435 9.435 0 0 1-2.935-2.936.677.677 0 0 1 .094-.84l.6-.6a8.01 8.01 0 0 1-.387-.933h-.849a.677.677 0 0 1-.66-.526 9.354 9.354 0 0 1 0-4.152.677.677 0 0 1 .66-.527h.85c.108-.319.238-.63.386-.933l-.6-.6a.677.677 0 0 1-.094-.84 9.434 9.434 0 0 1 2.934-2.935.677.677 0 0 1 .84.093l.6.601a8.06 8.06 0 0 1 .934-.387v-.85c0-.316.219-.59.527-.66a9.447 9.447 0 0 1 4.152 0c.308.07.527.345.527.66v.85c.318.109.63.238.933.387l.6-.6a.677.677 0 0 1 .84-.095 9.41 9.41 0 0 1 2.935 2.936.677.677 0 0 1-.095.84l-.6.6c.15.302.279.614.388.933h.849c.316 0 .59.218.66.527a9.355 9.355 0 0 1 0 4.152zm-1.22-3.325h-.79a.677.677 0 0 1-.654-.5 6.638 6.638 0 0 0-.653-1.575.677.677 0 0 1 .108-.816l.56-.559a8.072 8.072 0 0 0-1.766-1.765l-.559.559a.677.677 0 0 1-.816.108 6.648 6.648 0 0 0-1.574-.653.677.677 0 0 1-.5-.654v-.79a8.113 8.113 0 0 0-2.497 0v.79a.677.677 0 0 1-.5.654 6.645 6.645 0 0 0-1.575.653.677.677 0 0 1-.817-.108l-.559-.559a8.094 8.094 0 0 0-1.765 1.765l.56.56c.216.216.26.55.107.816a6.64 6.64 0 0 0-.652 1.574.677.677 0 0 1-.654.5h-.79a8.06 8.06 0 0 0 0 2.497h.79c.306 0 .573.205.653.5.149.549.368 1.078.653 1.575.153.265.109.6-.108.816l-.559.559a8.094 8.094 0 0 0 1.765 1.765l.56-.56a.677.677 0 0 1 .816-.107 6.645 6.645 0 0 0 1.574.653c.296.08.5.348.5.654v.79a8.107 8.107 0 0 0 2.497 0v-.79c0-.306.205-.574.5-.654a6.647 6.647 0 0 0 1.575-.653.677.677 0 0 1 .816.108l.56.56a8.077 8.077 0 0 0 1.764-1.766l-.559-.559a.677.677 0 0 1-.108-.816 6.637 6.637 0 0 0 .654-1.575c.08-.295.347-.5.653-.5h.79a8.056 8.056 0 0 0 0-2.497zM22.89 4.425h-5.78a.677.677 0 1 1 0-1.355h5.78a.677.677 0 1 1 0 1.355zM20 34.185c1.12 0 2.032.912 2.032 2.032S21.12 38.25 20 38.25a2.034 2.034 0 0 1-2.032-2.032c0-1.12.912-2.032 2.032-2.032zm0 2.71a.678.678 0 1 0-.002-1.357.678.678 0 0 0 .002 1.356z" fill="#FDBF00"/></svg>