<svg width="30" height="30" viewBox="0 0 30 30" fill="none" xmlns="http://www.w3.org/2000/svg">
<path d="M25.362 19.1947C24.8842 19.7586 24.4897 20.4249 24.2224 21.1812H5.75474C5.46984 20.4295 5.05129 19.7625 4.54864 19.1947H2.761C1.99952 19.1947 1.24457 18.9782 0.58936 18.5786H0V20.4829C0 21.3246 0.547636 22.2347 0.992916 22.6187C1.34692 22.9251 2.09731 23.2348 2.761 23.2348H27.2377C28.7541 23.2348 29.9993 21.998 29.9993 20.4823V18.1333C29.2672 18.7924 28.2991 19.194 27.2377 19.194H25.362V19.1947Z" fill="#ED0035"/>
<path d="M27.2377 1.35327H2.761C1.24522 1.35327 0 2.55807 0 4.0732V15.0657C0 15.9073 0.546984 16.8214 0.992916 17.2086C1.34692 17.515 2.09731 17.8247 2.761 17.8247H27.2377C28.7541 17.8247 29.9993 16.5808 29.9993 15.0657V4.0732C30 2.55807 28.7541 1.35327 27.2377 1.35327ZM27.9444 11.9781C26.3348 12.5557 24.8894 13.887 24.2224 15.7698H5.75474C5.06758 13.9554 3.59614 12.6215 2.05494 12.0185V7.13996C3.63069 6.55842 5.06302 5.25713 5.74365 3.37366H24.2394C24.9037 5.35949 26.3015 6.6197 27.9464 7.17516V11.9781H27.9444Z" fill="#ED0035"/>
<path d="M14.9768 4.71167C12.2895 4.71167 10.1113 6.88982 10.1113 9.5778C10.1113 12.2651 12.2895 14.4439 14.9768 14.4439C17.6648 14.4439 19.8429 12.2651 19.8429 9.5778C19.8436 6.88982 17.6648 4.71167 14.9768 4.71167ZM15.3765 12.3629V13.2698H14.5204V12.4255C13.9037 12.3988 13.3254 12.2371 12.9845 12.0389L13.2505 10.9873C13.6279 11.194 14.1567 11.3824 14.7402 11.3824C15.2526 11.3824 15.602 11.1842 15.602 10.8256C15.602 10.484 15.3139 10.2682 14.6489 10.0433C13.6866 9.71927 13.0327 9.27008 13.0327 8.39778C13.0327 7.60697 13.5947 6.98631 14.5537 6.7979V5.94189H15.4443V6.73597C16.0264 6.76269 16.4437 6.88852 16.7397 7.0326L16.4769 8.04833C16.2429 7.94989 15.8276 7.74257 15.1809 7.74257C14.5967 7.74257 14.407 7.99422 14.407 8.24587C14.407 8.54251 14.7199 8.73092 15.4847 9.01908C16.5552 9.39656 16.9809 9.89074 16.9809 10.7005C16.9815 11.5004 16.4039 12.1836 15.3765 12.3629Z" fill="#ED0035"/>
<path d="M25.362 24.6058C24.8842 25.1691 24.4897 25.8354 24.2224 26.5916H5.75474C5.46984 25.8406 5.05129 25.173 4.54864 24.6058H2.761C1.99952 24.6058 1.24457 24.3894 0.58936 23.9891H0V25.8941C0 26.7357 0.547636 27.6458 0.992916 28.0298C1.34692 28.3362 2.09731 28.6466 2.761 28.6466H27.2377C28.7541 28.6466 29.9993 27.4092 29.9993 25.8934V23.5444C29.2672 24.2036 28.2991 24.6052 27.2377 24.6052H25.362V24.6058Z" fill="#ED0035"/>
</svg>
