<svg width="30" height="30" viewBox="0 0 30 30" fill="none" xmlns="http://www.w3.org/2000/svg">
<path d="M29.2655 3.73452C28.7759 3.24498 28.1874 3.00024 27.5001 3.00024H2.49998C1.8125 3.00024 1.22413 3.24493 0.734271 3.73452C0.244684 4.22416 0 4.81253 0 5.50006V24.4998C0 25.1875 0.244684 25.7759 0.734271 26.2655C1.22413 26.7551 1.8125 26.9999 2.49998 26.9999H27.5001C28.1874 26.9999 28.7759 26.7551 29.2655 26.2655C29.755 25.7759 30 25.1875 30 24.4998V5.50006C30 4.81253 29.755 4.22416 29.2655 3.73452ZM27.9998 24.5001C27.9998 24.6358 27.9504 24.7526 27.8514 24.8519C27.7525 24.9504 27.6353 24.9998 27.5001 24.9998H2.49998C2.36464 24.9998 2.24742 24.9504 2.14847 24.8515C2.04958 24.7523 2.00005 24.6354 2.00005 24.4998V15.0001H27.9998V24.5001H27.9998ZM27.9998 8.99985H2V5.49984C2 5.36445 2.04936 5.2475 2.14842 5.14833C2.24742 5.04966 2.36464 5.00013 2.49993 5.00013H27.5C27.6352 5.00013 27.7525 5.04944 27.8514 5.14833C27.9503 5.2475 27.9997 5.36445 27.9997 5.49984V8.99985H27.9998Z" fill="#ED0035"/>
<path d="M7.99995 20.9999H4V23H7.99995V20.9999Z" fill="#ED0035"/>
<path d="M15.9999 20.9999H10V23H15.9999V20.9999Z" fill="#ED0035"/>
</svg>
