<svg width="30" height="30" viewBox="0 0 30 30" fill="none" xmlns="http://www.w3.org/2000/svg">
<g clip-path="url(#clip0)">
<path d="M22.4435 9.22435C21.5471 8.86499 21.2881 8.64768 21.2881 8.25526C21.2881 7.94122 21.5259 7.57434 22.1966 7.57434C22.7897 7.57434 23.2446 7.80822 23.2487 7.81025C23.2965 7.83578 23.3502 7.8494 23.4034 7.8494C23.5332 7.8494 23.648 7.77084 23.6956 7.64925L23.8586 7.23273C23.9153 7.08095 23.8292 6.94871 23.7195 6.90127C23.3543 6.74231 22.6406 6.61928 22.6333 6.61801C22.6218 6.61598 22.5818 6.60744 22.5818 6.56068L22.5795 5.95645C22.5795 5.77448 22.4276 5.62634 22.241 5.62634H21.9487C21.7624 5.62634 21.6105 5.7744 21.6105 5.95653L21.6113 6.5918C21.6113 6.6405 21.5585 6.66164 21.5392 6.66612C20.6383 6.88073 20.0752 7.54068 20.0752 8.37313C20.0752 9.41088 20.933 9.87983 21.8593 10.2318C22.5997 10.5225 22.9017 10.8173 22.9017 11.2496C22.9017 11.7201 22.474 12.0487 21.8611 12.0487C21.3378 12.0487 20.6296 11.717 20.6225 11.7136C20.5772 11.6921 20.5292 11.6813 20.4798 11.6813C20.345 11.6813 20.2277 11.7628 20.1807 11.889L20.0252 12.3103C19.9699 12.4676 20.055 12.5952 20.164 12.6521C20.599 12.8786 21.4406 13.0113 21.4781 13.0172C21.4881 13.0186 21.5394 13.0366 21.5394 13.0835V13.716C21.5394 13.8979 21.6913 14.0461 21.8779 14.0461H22.18C22.3667 14.0461 22.5186 13.898 22.5186 13.716V13.0503C22.5186 12.9881 22.5645 12.9826 22.574 12.9803C23.5338 12.7647 24.125 12.0625 24.125 11.1807C24.1248 10.275 23.6218 9.68983 22.4435 9.22435Z" fill="#ED0035"/>
<path d="M22.0657 1.90332C17.6843 1.90332 14.1328 5.45508 14.1328 9.83616C14.1328 14.2173 17.6843 17.7692 22.0657 17.7692C26.4468 17.7692 29.9984 14.2173 29.9984 9.83616C29.9984 5.45508 26.4468 1.90332 22.0657 1.90332ZM22.0657 15.9307C18.6997 15.9307 15.9712 13.202 15.9712 9.83625C15.9712 6.47051 18.6997 3.7419 22.0657 3.7419C25.4315 3.7419 28.1598 6.47051 28.1598 9.83625C28.1598 13.202 25.4315 15.9307 22.0657 15.9307Z" fill="#ED0035"/>
<path d="M28.389 21.6133C26.7021 22.5443 24.382 23.4052 22.0682 23.7681C20.0096 24.0909 16.1368 23.3123 16.1368 22.3928C16.1368 22.0443 19.5334 23.2514 21.588 22.7032C23.1636 22.2829 22.9399 20.8091 22.0829 20.6147C21.231 20.4213 16.2395 18.5927 14.1074 18.5296C13.1031 18.4999 10.6235 18.8789 9.42362 19.0743C9.01259 19.1412 8.75487 19.1338 8.72916 19.5272C8.60977 21.3553 8.37445 25.0937 8.24618 27.0464C8.24348 27.0877 8.3008 27.6425 8.75867 27.252C9.25983 26.8247 9.96275 26.351 10.6129 26.4985C11.6329 26.7299 20.4572 28.3465 21.6744 28.0636C23.4156 27.6588 28.3448 24.7377 29.2899 23.8297C30.7547 22.4221 29.616 20.9361 28.389 21.6133Z" fill="#ED0035"/>
<path d="M6.29316 19.003L1.67034 18.7752C1.31343 18.7576 0.94891 19.0266 0.860211 19.3727L0.0196436 27.0043C-0.0689707 27.3504 0.150705 27.645 0.507783 27.6588L5.63101 27.6583C5.98817 27.6721 6.30255 27.3919 6.32995 27.0356L6.89258 19.6828C6.91981 19.3265 6.65007 19.0206 6.29316 19.003ZM3.57166 26.6473C2.8657 26.6473 2.29351 26.075 2.29351 25.3691C2.29351 24.6632 2.86579 24.091 3.57166 24.091C4.27753 24.091 4.8498 24.6633 4.8498 25.3691C4.8498 26.0751 4.27761 26.6473 3.57166 26.6473Z" fill="#ED0035"/>
</g>
<defs>
<clipPath id="clip0">
<rect width="30" height="30" fill="white"/>
</clipPath>
</defs>
</svg>
