<svg width="36" height="25" viewBox="0 0 36 25" fill="none" xmlns="http://www.w3.org/2000/svg">
<path fill-rule="evenodd" clip-rule="evenodd" d="M26.0763 19.0244C26.0613 19.0698 26.0463 19.1152 26.0162 19.1757C26.0534 19.1009 26.0905 19.0492 26.1419 18.9778C26.22 18.8691 26.3036 18.7634 26.3719 18.6483C26.3725 18.6474 26.373 18.6465 26.3736 18.6456C26.4962 18.439 26.7242 18.327 26.8993 18.1624C26.9477 18.1169 26.993 18.0714 27.0382 18.0258C27.0382 18.0258 27.0382 18.0258 27.0382 18.0258C27.0745 17.9527 27.1328 17.9017 27.1997 17.8594C27.2887 17.8032 27.39 17.7692 27.4937 17.7506C27.5539 17.7398 27.6117 17.7315 27.6694 17.7232C27.7574 17.7106 27.8453 17.6979 27.942 17.6764C27.9807 17.6678 28.0395 17.6664 28.0733 17.687C28.1174 17.7138 28.1273 17.7507 28.1626 17.7884C28.2086 17.8376 28.2546 17.8159 28.3006 17.7232C28.401 17.5717 28.5431 17.4624 28.6922 17.3951C28.7502 17.369 28.815 17.3584 28.8717 17.3298C28.9018 17.3147 28.9319 17.2996 28.9619 17.2996C29.022 17.2996 29.1423 17.2996 29.2625 17.3601C29.3492 17.4037 29.3421 17.4473 29.3314 17.5136C29.3273 17.5393 29.3226 17.5684 29.3226 17.6022V17.7232C29.3226 17.693 29.3376 17.6627 29.3527 17.6324C29.3677 17.6022 29.3827 17.5719 29.3827 17.5417C29.3827 17.5163 29.3933 17.4696 29.41 17.4195C29.4528 17.2911 29.5646 17.2081 29.6869 17.1501C29.8494 17.0729 30.0238 16.9902 30.1815 16.8875C30.2362 16.8518 30.3106 16.8699 30.3337 16.931C30.3605 17.0016 30.4438 16.9984 30.4874 16.9368C30.5828 16.8021 30.6994 16.6517 30.8193 16.5217C30.861 16.4765 30.9209 16.4496 30.9758 16.422C31.0059 16.4069 31.0359 16.3917 31.066 16.3917C31.2246 16.3917 31.3832 16.3917 31.501 16.3094C31.5325 16.2873 31.5685 16.2707 31.607 16.2707C31.6455 16.2707 31.6812 16.2877 31.7125 16.31C31.7906 16.3656 31.8449 16.3363 31.9231 16.2942C31.9523 16.2784 31.985 16.2707 32.0181 16.2707H32.088C32.1481 16.2707 32.1481 16.3312 32.1481 16.3917C32.1481 16.4473 32.2068 16.4829 32.2511 16.4494C32.4049 16.3329 32.4389 16.1807 32.3885 16.0286C32.3307 15.8538 32.2728 15.6228 32.4296 15.4438C32.4413 15.4304 32.4506 15.4125 32.4435 15.3961C32.4387 15.3853 32.4312 15.378 32.4233 15.3731C32.4061 15.3624 32.3846 15.3293 32.3689 15.3166C32.3478 15.2995 32.343 15.274 32.3541 15.2492C32.3641 15.2268 32.3702 15.2089 32.3725 15.1905C32.3766 15.1572 32.3682 15.1224 32.3473 15.0573C32.335 15.0191 32.3284 14.9793 32.3284 14.9392C32.3284 14.8534 32.4192 14.7675 32.5149 14.7032C32.588 14.6541 32.6709 14.6226 32.7544 14.5946L33.122 14.4712C33.1536 14.4606 33.1823 14.4427 33.2057 14.4191C33.2219 14.4028 33.2354 14.3841 33.2456 14.3635L33.5909 13.6683C33.6226 13.6044 33.6711 13.5742 33.7275 13.5689C33.84 13.5583 33.932 13.6486 34.0117 13.7288C34.025 13.7423 34.0384 13.7527 34.0518 13.7602C34.1421 13.8107 34.2259 13.6509 34.3117 13.593C34.3982 13.5347 34.4832 13.5655 34.5869 13.5768C34.6 13.5782 34.6131 13.5795 34.6262 13.5809C34.7155 13.5899 34.8049 13.5988 34.8782 13.64C34.9545 13.6828 35.0005 13.7654 35.0719 13.8158C35.1196 13.8496 35.1757 13.8747 35.2334 13.8638C35.2615 13.8585 35.2841 13.8392 35.3052 13.82C35.3833 13.7489 35.4657 13.7052 35.5846 13.7051C35.6593 13.705 35.7255 13.6356 35.7058 13.5636C35.6861 13.4922 35.672 13.4405 35.6348 13.3657C35.6118 13.3194 35.5889 13.282 35.5693 13.2501C35.5225 13.1739 35.4251 13.0438 35.5086 13.012C35.5244 13.006 35.5461 13.0025 35.5747 13.0025C35.6949 13.0025 35.755 12.8815 35.6949 12.7605C35.6545 12.6383 35.6412 12.5709 35.6919 12.5215C35.7581 12.4568 35.9056 12.4821 35.9053 12.3895C35.905 12.2973 35.7808 12.2441 35.7182 12.1765C35.593 12.0414 35.5146 11.9155 35.5146 11.6711C35.5146 11.5831 35.4828 11.4952 35.3963 11.4305C35.3239 11.3763 35.2443 11.3079 35.1539 11.3079C35.1871 11.3079 35.2141 11.2809 35.2097 11.248C35.2049 11.213 35.197 11.1772 35.1885 11.1392C35.1594 11.0091 35.336 10.9201 35.3436 10.787C35.344 10.7797 35.3443 10.7724 35.3445 10.765C35.3479 10.6729 35.4425 10.6456 35.5344 10.6387C35.5784 10.6353 35.6224 10.6288 35.6664 10.6162C35.7271 10.5989 35.7782 10.5592 35.8285 10.5212C35.8819 10.4808 35.9354 10.4405 35.9354 10.4001C35.9354 10.3627 35.9124 10.3253 35.8807 10.2736C35.8774 10.2683 35.874 10.2628 35.8706 10.2571C35.8416 10.2095 35.7607 10.2183 35.7554 10.2737C35.7538 10.2896 35.7504 10.2863 35.7413 10.2994C35.6299 10.4605 35.5677 10.4559 35.3943 10.3396C35.2801 10.2821 35.1658 10.2246 35.0515 10.1151C35.04 10.104 35.0331 10.0803 35.0284 10.0649C35.0143 10.0186 35.0367 9.96308 35.0838 9.95162C35.103 9.94693 35.1221 9.94217 35.141 9.93746C35.31 9.89526 35.4657 9.85639 35.6341 9.89911C35.6619 9.90618 35.755 9.82363 35.755 9.7949V9.70429C35.755 9.64497 35.7725 9.58696 35.8053 9.53751L35.9767 9.27857C36.0363 9.18866 35.9722 9.033 35.8909 8.96216C35.8799 8.95259 35.8685 8.94446 35.856 8.93706C35.7486 8.87375 35.6949 8.75937 35.6949 8.64499C35.6949 8.52395 35.8152 8.52395 35.8753 8.52395C35.9354 8.52395 35.9955 8.46343 35.9955 8.40291C35.9955 8.38342 35.9877 8.36393 35.9741 8.3452C35.8039 8.11041 35.4129 8.21201 35.1539 8.34239C34.9588 8.44057 34.9512 8.03827 34.7521 7.94855C34.7037 7.92674 34.6401 7.91874 34.5527 7.91874H34.4886C34.4517 7.91874 34.4157 7.90897 34.3814 7.89545C34.3664 7.88958 34.3526 7.88516 34.3396 7.88239C34.235 7.86006 34.1171 7.93407 34.0417 7.85821C34.0095 7.82581 33.9773 7.7934 33.9397 7.7665C33.9092 7.74474 33.8917 7.74102 33.8695 7.7109C33.8376 7.66773 33.8227 7.58885 33.7928 7.54427C33.7832 7.52986 33.7742 7.52129 33.7636 7.51775C33.745 7.51156 33.7212 7.52081 33.6797 7.54124C33.6606 7.55063 33.6436 7.5636 33.6272 7.57711C33.5938 7.60464 33.5493 7.63216 33.4996 7.65969C33.4321 7.69707 33.342 7.64594 33.3127 7.57459C33.301 7.5463 33.2503 7.53011 33.2218 7.54116C33.1845 7.55561 33.1472 7.55561 33.1099 7.55561C32.9296 7.55561 32.8093 7.43456 32.8093 7.31352V7.27737C32.8093 7.23049 32.7713 7.19248 32.7244 7.19248C32.7018 7.19248 32.6806 7.20215 32.6625 7.21567C32.6444 7.22915 32.6272 7.23776 32.6126 7.24326C32.5856 7.25339 32.5581 7.24067 32.5355 7.22286C32.5228 7.21284 32.5107 7.20518 32.4991 7.19979C32.4137 7.16013 32.2746 7.13825 32.2082 7.07143C32.1781 7.04117 32.1481 7.02604 32.118 7.01091C32.0556 6.9795 31.978 6.94539 31.9346 7.00012C31.9181 7.02097 31.9076 7.0462 31.9076 7.07143C31.9076 7.37404 31.7273 7.49508 31.4267 7.37404C31.3936 7.3574 31.3606 7.33619 31.3263 7.31418C31.2358 7.25612 31.1366 7.19248 31.0059 7.19248C30.9918 7.19248 30.9712 7.19248 30.9478 7.1917C30.8126 7.18722 30.7406 7.06594 30.6518 6.96384C30.5056 6.79561 30.3896 6.50857 30.2311 6.35191C30.2289 6.34968 30.2266 6.34744 30.2244 6.34518C30.1642 6.28466 30.1642 6.22413 30.1642 6.16361V6.12747C30.1642 6.08058 30.1262 6.04257 30.0793 6.04257C30.0567 6.04257 30.0352 6.05184 30.0178 6.06619C29.9905 6.08858 29.9571 6.11096 29.9238 6.13335C29.9008 6.14876 29.8779 6.16417 29.8569 6.17958C29.821 6.20594 29.7748 6.2228 29.7434 6.25439C29.7109 6.28718 29.6608 6.29107 29.6152 6.29868C29.5664 6.30683 29.5159 6.31186 29.4652 6.31692C29.4067 6.32275 29.3478 6.32863 29.2905 6.33936C29.0365 6.38694 28.8921 6.65265 28.6613 6.76883C28.4104 6.86989 28.4528 6.76 28.5086 6.61529C28.5197 6.58657 28.4873 6.5608 28.4592 6.57339C28.3555 6.61985 28.2978 6.58902 28.22 6.54744C28.2074 6.54073 28.1943 6.53374 28.1804 6.52674C28.0865 6.47949 28.066 6.50602 28.0328 6.54874C28.0267 6.55657 28.0202 6.56495 28.0128 6.57352C28.0047 6.58289 27.9944 6.59011 27.9833 6.59569C27.9263 6.62441 27.8562 6.60079 27.8137 6.55304C27.7964 6.5335 27.778 6.51499 27.7596 6.49648C27.7145 6.45109 27.6694 6.4057 27.6394 6.34518C27.5792 6.22413 27.5191 6.16361 27.3989 6.16361C27.3608 6.16361 27.3167 6.16968 27.2704 6.17605C27.1784 6.18872 27.0776 6.20258 26.9981 6.17239C26.9846 6.16729 26.9706 6.16361 26.9562 6.16361C26.9317 6.16361 26.9087 6.17407 26.889 6.18859C26.8686 6.20359 26.8482 6.21386 26.8278 6.22413C26.7977 6.23926 26.7677 6.25439 26.7376 6.28466C26.7113 6.31119 26.6965 6.34936 26.6831 6.38386C26.6572 6.4507 26.5768 6.48879 26.5116 6.45896C26.4228 6.41833 26.3168 6.32483 26.3168 6.28466C26.3168 6.20281 26.3168 6.0933 26.2611 6.03095C26.2021 5.96507 26.0763 5.94938 26.0763 5.861C26.0763 5.7901 26.0557 5.73996 26.0386 5.69843C26.0265 5.66906 26.0162 5.64399 26.0162 5.61892C26.0162 5.49788 26.0162 5.43735 26.1365 5.43735C26.2113 5.43735 26.2396 5.4139 26.2357 5.3816C26.2299 5.33241 26.1541 5.31957 26.142 5.27155C26.1415 5.26976 26.1411 5.26792 26.1407 5.26605C26.1316 5.22149 26.1139 5.18073 26.0886 5.1429C26.0882 5.14234 26.0879 5.14179 26.0875 5.14124C26.0638 5.10391 26.0707 5.07327 26.0463 5.0364C26.0219 4.99953 25.9984 4.93544 25.976 4.89729C25.9593 4.86892 25.9427 4.8354 25.9261 4.80188C25.896 4.74136 25.8659 4.68084 25.8359 4.65058C25.7758 4.59005 25.7457 4.55979 25.7457 4.52953C25.7457 4.49927 25.7758 4.46901 25.8359 4.40849C25.8998 4.34416 25.8664 4.22692 25.7758 4.22692C25.5954 4.22692 25.4752 4.1664 25.4752 3.92432C25.4752 3.85341 25.4546 3.80327 25.4375 3.76174C25.42 3.71928 25.3778 3.68223 25.3319 3.68223H25.3037C25.2615 3.68223 25.227 3.64947 25.1878 3.63372C25.1492 3.61822 25.1029 3.63989 25.0621 3.65902C25.0587 3.66057 25.0555 3.6621 25.0522 3.66359C25.0166 3.68007 24.9787 3.6979 24.951 3.72575C24.9398 3.73701 24.9269 3.74649 24.9126 3.75327C24.7144 3.84684 24.6031 3.81055 24.5786 3.68157C24.5724 3.64895 24.5465 3.62171 24.5133 3.62171C24.4833 3.62171 24.4682 3.63684 24.4532 3.65197C24.421 3.68443 24.372 3.67099 24.3302 3.65257C24.2524 3.61835 24.1712 3.59158 24.0959 3.57783C23.9046 3.54289 23.5371 3.59298 23.6889 3.47136C23.707 3.45688 23.7396 3.43131 23.7579 3.41715C23.7718 3.40642 23.7852 3.39808 23.7974 3.39054C23.8291 3.37079 23.852 3.35651 23.852 3.3191C23.852 3.21868 23.7374 3.17747 23.6742 3.09947C23.6288 3.04351 23.6276 2.98921 23.65 2.9057C23.6627 2.8584 23.6717 2.80996 23.6717 2.76098C23.6717 2.6902 23.6574 2.61829 23.6111 2.56482C23.5921 2.54298 23.5718 2.52252 23.5515 2.50206C23.5136 2.46397 23.4758 2.42588 23.4468 2.37885C23.4357 2.36072 23.4094 2.32734 23.3982 2.30923C23.3635 2.25294 23.4032 2.20486 23.465 2.18122C23.5239 2.1587 23.5828 2.14881 23.6416 2.13893C23.8304 2.10726 24.1148 1.97439 24.0213 1.80735C24.0106 1.78831 23.9946 1.76797 23.9723 1.74554C23.9611 1.73428 23.9499 1.72092 23.9379 1.70663C23.8969 1.65762 23.8467 1.59773 23.7562 1.57418C23.7033 1.56044 23.6501 1.54219 23.6116 1.50346L23.5417 1.43313C23.4324 1.32311 23.3711 1.17435 23.3711 1.01929C23.3711 0.958764 23.3561 0.898243 23.3411 0.837721C23.3275 0.783087 23.3139 0.728452 23.3114 0.673818C23.311 0.66407 23.3189 0.656157 23.3287 0.656157C23.3444 0.656157 23.3524 0.637035 23.3418 0.625495C23.2801 0.558812 23.233 0.49259 23.1882 0.429835C23.1182 0.331517 23.0542 0.241713 22.9503 0.171989C22.9503 0.171986 22.9503 0.171983 22.9503 0.171979C22.9008 0.122143 22.8513 0.0723061 22.7682 0.0224696C22.7342 0.00203779 22.6916 0.010623 22.6596 0.0340323C22.5934 0.0822687 22.5249 0.0970982 22.4441 0.0882969C22.4044 0.0839761 22.3473 0.157882 22.3487 0.197746C22.3495 0.218625 22.3321 0.232827 22.3114 0.230785C22.2021 0.22006 22.1891 0.16092 22.176 0.10178C22.1689 0.0693601 22.1617 0.0369407 22.1387 0.0124966C22.1269 -1.54959e-05 22.1087 0.0106878 22.1087 0.0278679C22.1087 0.0406113 22.0983 0.0509989 22.0856 0.0502305C22.023 0.0464482 21.9614 0.0282952 21.9095 0.0129697C21.8997 0.0100817 21.8902 0.00729423 21.8812 0.00472218C21.8352 -0.00833575 21.7897 0.012445 21.7448 0.0288448C21.7106 0.0413434 21.6721 0.0467725 21.6374 0.0491308C21.5989 0.0517448 21.5648 0.0841066 21.5376 0.111463C21.5225 0.126594 21.5075 0.141724 21.5075 0.171985C21.5075 0.146166 21.4787 0.130806 21.4573 0.14518C21.3204 0.236912 21.1868 0.325383 21.0829 0.383908C21.0463 0.404529 21.0047 0.41441 20.9627 0.413729C20.8918 0.412579 20.8248 0.407565 20.7746 0.38569C20.739 0.370211 20.7084 0.34462 20.6742 0.326314C20.5755 0.273524 20.4493 0.20596 20.3187 0.217264C20.2818 0.220457 20.225 0.202844 20.1904 0.216135C20.1498 0.231745 20.1085 0.213185 20.0706 0.191956C20.0509 0.180937 20.0277 0.171985 20.0046 0.171985C19.9824 0.171985 19.9684 0.201588 19.9772 0.221997C19.9987 0.271378 20.0033 0.332592 20.0043 0.379195C20.0048 0.398468 19.989 0.414071 19.9697 0.414071C19.9547 0.414071 19.9413 0.423717 19.9366 0.438004L19.7881 0.886349C19.7738 0.929577 19.7334 0.958764 19.6879 0.958764H19.6641C19.6512 0.958764 19.6388 0.963879 19.6306 0.973912C19.6289 0.976009 19.6271 0.978295 19.6252 0.980751C19.6007 1.01263 19.5295 1.03734 19.4936 1.01929C19.4578 1.00123 19.4035 1.02776 19.4035 1.06792V1.08733C19.4035 1.1166 19.3783 1.13902 19.355 1.12124C19.3347 1.10572 19.3157 1.08267 19.2966 1.05963C19.2674 1.02432 19.2381 0.989017 19.2044 0.980748C19.1461 0.966444 19.0428 0.958269 19.0428 0.898243C19.0428 0.7772 18.9826 0.7772 18.9225 0.7772C18.8976 0.7772 18.8624 0.787584 18.8212 0.799749C18.7628 0.816953 18.6924 0.837721 18.6219 0.837721C18.5177 0.837721 18.4134 0.837721 18.3091 0.826017C18.1544 0.808659 17.9006 0.682073 17.9006 0.837721C17.9006 0.947043 17.7293 0.916352 17.6559 0.835339C17.6534 0.832601 17.651 0.829896 17.6485 0.827218C17.6182 0.794493 17.5749 0.7772 17.5303 0.7772H17.2936C17.262 0.7772 17.2349 0.799518 17.2288 0.830514C17.1894 1.03114 17.1745 1.10745 17.0889 1.13118C17.0406 1.14458 16.9988 1.18097 16.9988 1.23111V1.27944C16.9988 1.30289 16.9798 1.32189 16.9564 1.32189C16.9451 1.32189 16.9342 1.3264 16.9262 1.33443L16.8235 1.43787C16.7806 1.48101 16.751 1.53522 16.7187 1.58675C16.6937 1.62678 16.6635 1.66092 16.6343 1.69402C16.5741 1.76207 16.5179 1.82572 16.5179 1.92711C16.5179 1.95737 16.4878 2.00276 16.4578 2.04815C16.4095 2.12098 16.365 2.20731 16.3375 2.29024C16.3347 2.29887 16.3318 2.30751 16.3289 2.31604C16.309 2.3731 16.3136 2.44464 16.3676 2.4718C16.3871 2.4816 16.4065 2.49139 16.426 2.50529C16.4448 2.51873 16.4448 2.5458 16.4281 2.56176C16.4023 2.58634 16.3853 2.59798 16.3395 2.62183C16.324 2.62988 16.3253 2.67127 16.3375 2.68363C16.3646 2.71089 16.3947 2.74715 16.3676 2.77441C16.3641 2.77793 16.3606 2.78145 16.3573 2.78517C16.3339 2.81143 16.3734 2.86839 16.4057 2.88234C16.4522 2.90241 16.4734 2.92365 16.4908 2.97114C16.5179 3.04477 16.5179 3.09115 16.5179 3.13754V3.20994C16.5179 3.27986 16.4902 3.34819 16.4277 3.37962C16.3653 3.41104 16.2955 3.45087 16.2298 3.42723C16.2056 3.41853 16.1814 3.40397 16.1572 3.37962C16.1271 3.34936 16.082 3.3191 16.037 3.28884C15.9919 3.25858 15.9468 3.22832 15.9167 3.19806C15.8807 3.16175 15.9095 3.12543 15.9384 3.08912C15.9576 3.06491 15.9768 3.0407 15.9768 3.01649C15.9768 2.98307 15.9497 2.95597 15.9163 2.95597H15.8741C15.8282 2.95597 15.7888 2.92498 15.7715 2.88242C15.679 2.65458 15.5167 2.66008 15.3507 2.66571C15.2948 2.6676 15.2386 2.66951 15.1844 2.66254C15.1536 2.65858 15.1037 2.6882 15.0906 2.71635C15.0702 2.7604 15.0357 2.77441 14.9872 2.77441H14.8346C14.7828 2.77441 14.7311 2.72949 14.6793 2.67836C14.6632 2.66246 14.6543 2.64066 14.6543 2.61803C14.6543 2.5707 14.6159 2.53232 14.5686 2.53232H14.5103C14.457 2.53232 14.4075 2.57537 14.3838 2.62311C14.368 2.6549 14.3064 2.67525 14.2748 2.65908C14.2711 2.65716 14.2673 2.65526 14.2635 2.65337C14.2277 2.63531 14.1734 2.66184 14.1734 2.702V2.71389C14.1734 2.75842 14.109 2.79296 14.0654 2.78422C14.0163 2.77441 13.9657 2.77441 13.9329 2.77441C13.9188 2.77441 13.9048 2.77772 13.8915 2.78279C13.8346 2.80449 13.7735 2.83174 13.7417 2.77987C13.7131 2.73326 13.6774 2.68968 13.6624 2.63711C13.6403 2.56025 13.6425 2.48338 13.669 2.40652C13.6819 2.36888 13.6924 2.33004 13.6924 2.29024C13.6924 2.24901 13.6645 2.17971 13.6278 2.12058C13.5968 2.07087 13.5387 2.05236 13.4811 2.04185C13.4739 2.04053 13.4664 2.03894 13.4586 2.03702C13.3796 2.01758 13.2972 2.03145 13.2716 2.10867C13.2442 2.19154 13.162 2.22419 13.0752 2.23368C13.0497 2.23647 13.0278 2.24121 13.0071 2.24929C12.9434 2.27413 12.8921 2.33052 12.7894 2.4585C12.7557 2.50046 12.7627 2.56051 12.782 2.61074C12.7843 2.61663 12.7862 2.62269 12.7877 2.62882C12.7913 2.64427 12.7844 2.65969 12.7732 2.67095C12.7497 2.69462 12.7112 2.69486 12.6883 2.67057C12.6488 2.6286 12.6093 2.5805 12.5698 2.50908C12.5563 2.48471 12.5373 2.46256 12.529 2.43597C12.5163 2.3951 12.5282 2.34324 12.5387 2.29797C12.5473 2.26065 12.5187 2.22744 12.484 2.21121C12.476 2.20748 12.468 2.20347 12.46 2.19945C12.4474 2.19311 12.4349 2.18677 12.4223 2.18154C12.3946 2.17008 12.3752 2.19469 12.3652 2.22291C12.3617 2.23294 12.3555 2.24201 12.3445 2.25427C12.3262 2.27483 12.2939 2.2743 12.2745 2.25473L12.2624 2.2426C12.2356 2.21559 12.1895 2.23459 12.1895 2.27265C12.1895 2.28392 12.1851 2.29472 12.1771 2.30271L12.1312 2.34894C12.0971 2.3833 12.0299 2.38963 12.0138 2.34395C12.0092 2.33079 12.0092 2.31599 12.0092 2.29024C12.0092 2.25241 11.9892 2.21826 11.9612 2.19288C11.8901 2.12854 11.9073 2.08064 11.9274 2.02462C11.9461 1.9724 11.904 1.92633 11.8485 1.92791C11.7081 1.93192 11.6896 1.95595 11.5941 2.10001C11.5903 2.10568 11.5859 2.1111 11.5812 2.11593C11.5496 2.1477 11.501 2.15498 11.4571 2.14586C11.4367 2.14162 11.4157 2.13859 11.3947 2.13557C11.3378 2.12739 11.2809 2.11921 11.236 2.08682C11.1707 2.03962 11.1402 1.92916 11.0609 1.94375C11.0057 1.95391 10.9566 1.99488 10.9175 2.03514C10.8954 2.05787 10.8864 2.08252 10.8877 2.11175C10.8915 2.19398 10.9229 2.27262 10.897 2.35076C10.882 2.39615 10.867 2.44154 10.867 2.4718C10.867 2.49028 10.8558 2.50311 10.8402 2.51203C10.794 2.53852 10.7404 2.48927 10.7167 2.44154C10.6883 2.38444 10.7018 2.32087 10.7154 2.25859C10.766 2.02755 10.6073 1.92488 10.3994 1.87004C10.3906 1.8677 10.3814 1.86659 10.3723 1.86659C10.3426 1.86659 10.3132 1.87777 10.2965 1.9023C10.284 1.92065 10.2749 1.93901 10.2658 1.95737C10.2444 2.00038 10.1938 1.98483 10.1622 1.94868C10.1234 1.90423 10.0717 1.92404 10.0073 1.94875C9.98181 1.95854 9.95431 1.96909 9.92481 1.97672C9.88883 1.98604 9.86451 1.94855 9.88419 1.91704C9.91498 1.86773 9.94885 1.82673 9.99287 1.77981C10.0096 1.76199 9.99139 1.7381 9.97065 1.751C9.90552 1.79152 9.845 1.74388 9.845 1.66718V1.48068C9.845 1.4356 9.79796 1.40725 9.75898 1.4299C9.68823 1.47102 9.63243 1.50346 9.54442 1.50346C9.46322 1.50346 9.40944 1.50346 9.36457 1.48482C9.32072 1.46661 9.27687 1.4387 9.2381 1.41132C9.21094 1.39214 9.18038 1.37055 9.14249 1.36624C9.08905 1.36016 9.0119 1.37596 8.96889 1.34367C8.93935 1.32149 8.93646 1.30361 8.91225 1.27571C8.87984 1.23837 8.83496 1.21002 8.78611 1.19351C8.65501 1.14919 8.45432 1.31547 8.40896 1.18473C8.40463 1.17225 8.40221 1.15751 8.40221 1.14033C8.40221 0.958764 8.28198 0.958764 8.16175 1.01929C8.04152 1.07981 7.86117 0.958764 7.80105 0.837721C7.7918 0.819093 7.78397 0.803331 7.77691 0.789995C7.71887 0.680389 7.55876 0.777813 7.43874 0.746526C7.40356 0.737353 7.36837 0.717766 7.33318 0.68473C7.27828 0.633186 7.25325 0.551528 7.17879 0.540303C7.11957 0.531377 7.05223 0.550586 6.99637 0.572183C6.77556 0.657564 6.57849 0.630858 6.40518 0.552175C6.24375 0.478891 6.08682 0.324764 5.92313 0.392832C5.90876 0.398804 5.8936 0.405884 5.87734 0.414071C5.54657 0.58057 5.2158 0.594385 4.88503 0.502188C4.82512 0.485487 4.76348 0.474233 4.70163 0.467659C4.59321 0.456136 4.46628 0.442645 4.37443 0.535114C4.34437 0.565375 4.31056 0.591853 4.27674 0.618331C4.19481 0.682485 4.11288 0.746639 4.08439 0.864596C4.07208 0.91557 4.11049 0.983036 4.06368 1.00668C4.04111 1.01808 4.00394 1.02965 3.98489 1.04628C3.93043 1.09382 3.86688 1.1322 3.80333 1.17059C3.72818 1.21598 3.65304 1.26137 3.59292 1.32189C3.50971 1.40567 3.48051 1.22551 3.38335 1.15839C3.33914 1.12785 3.28703 1.13228 3.2328 1.13689C3.21276 1.1386 3.19244 1.14033 3.17211 1.14033H2.99176H2.81141C2.84318 1.14033 2.85816 1.15723 2.86523 1.1821C2.87919 1.23124 2.91401 1.30524 2.92713 1.35462C2.93688 1.39134 2.91888 1.39866 2.90384 1.43355C2.85902 1.53755 2.88197 1.64155 2.90493 1.74554C2.9138 1.78573 2.92267 1.82592 2.92763 1.86611C2.93243 1.90499 2.91615 1.94271 2.88854 1.97051C2.87727 1.98185 2.86418 1.99118 2.85012 1.99877C2.75872 2.04808 2.71458 2.09739 2.81523 2.1467C2.8513 2.16437 2.90582 2.17578 2.91932 2.21362C2.93858 2.2676 2.91526 2.31587 2.89787 2.37049C2.87527 2.44148 2.88653 2.4869 2.93165 2.53232C2.97067 2.57161 3.0097 2.6109 3.06517 2.63363C3.10264 2.64899 3.13001 2.70787 3.11199 2.74415C3.08957 2.78931 3.10858 2.85366 3.1506 2.88154C3.22582 2.93144 3.25368 2.99827 3.22143 3.06918C3.19896 3.11856 3.1706 3.17087 3.20087 3.2159C3.224 3.2503 3.25817 3.2847 3.29234 3.3191C3.31724 3.34417 3.33183 3.36924 3.34892 3.39861C3.36225 3.42152 3.37711 3.44705 3.39957 3.47724C3.44217 3.53449 3.48252 3.60134 3.53281 3.65197C3.58445 3.70396 3.57705 3.80475 3.50433 3.79572C3.47646 3.79226 3.44718 3.77856 3.42026 3.76596C3.38417 3.74907 3.33795 3.71097 3.30074 3.72524C3.29975 3.72562 3.29876 3.726 3.29776 3.72638C3.26274 3.73985 3.23223 3.77317 3.23223 3.8107V3.84079C3.23223 3.85592 3.23567 3.87086 3.24266 3.88428C3.2722 3.94095 3.31233 4.00828 3.35246 4.07562C3.42145 4.19138 3.35246 4.35847 3.37775 4.49084C3.38115 4.50865 3.38635 4.52686 3.39313 4.54523C3.40434 4.5756 3.42697 4.60012 3.44245 4.62855C3.46711 4.67384 3.4468 4.7111 3.35246 4.7111C3.31203 4.7111 3.29879 4.73847 3.29445 4.79321C3.28942 4.85671 3.26578 4.91697 3.22611 4.96681C3.16752 5.04042 3.12595 5.11839 3.08867 5.21352C3.07043 5.26009 3.00637 5.27828 2.9617 5.25579C2.89686 5.22315 2.8429 5.17156 2.77821 5.13861C2.69568 5.09659 2.64259 5.10058 2.58217 5.16292C2.52895 5.21782 2.5191 5.29996 2.48847 5.37001C2.47932 5.39095 2.46783 5.40955 2.45495 5.42675C2.41811 5.47592 2.35531 5.50051 2.30043 5.52814C2.2434 5.55684 2.17872 5.55128 2.11583 5.54032C1.89509 5.50186 1.83576 5.5326 1.72932 5.80048C1.66921 5.98205 1.54898 6.10309 1.36863 6.22413C1.2848 6.26633 1.23019 6.33795 1.18444 6.39796C1.14931 6.44403 1.12283 6.49677 1.10065 6.55029C1.02355 6.73633 0.865449 6.82935 0.707351 6.82935C0.677292 6.82935 0.662263 6.84448 0.647234 6.85961C0.615851 6.8912 0.56894 6.90719 0.539682 6.94076C0.39224 7.10994 0.312987 7.31775 0.508982 7.48081C0.520064 7.49003 0.527002 7.50356 0.527002 7.51797C0.527002 7.53986 0.511406 7.55868 0.490017 7.56333C0.240482 7.61756 0.175201 7.67992 0.167194 7.92086C0.165905 7.95965 0.162463 7.99845 0.158579 8.03707C0.12962 8.32492 0.259806 8.49492 0.408312 8.68883C0.42763 8.71406 0.447258 8.73969 0.466886 8.76604C0.70735 9.06864 0.70735 9.12917 0.346654 9.25021C0.0460734 9.31073 -0.0741588 9.61334 0.0460734 9.91594C0.0648882 9.97277 0.083703 10.0296 0.104361 10.0846C0.190346 10.3134 0.41107 10.4835 0.450597 10.7247C0.467347 10.827 0.442473 10.9288 0.362468 11.0439C0.352189 11.0587 0.339714 11.0718 0.328796 11.0862C0.318183 11.1001 0.310672 11.1144 0.306264 11.1297C0.274627 11.2397 0.466886 11.3145 0.466886 11.429C0.466886 11.5701 0.528186 11.6907 0.591222 11.8147C0.636308 11.9033 0.682282 11.9938 0.707351 12.0947C0.761228 12.2574 0.911677 12.3715 1.07215 12.4806C1.10857 12.5054 1.15168 12.5184 1.19571 12.5184C1.23035 12.5184 1.26416 12.5092 1.29706 12.4983C1.41363 12.4598 1.5643 12.4733 1.66921 12.5789C1.76034 12.6706 1.91886 12.586 2.0404 12.6301C2.08526 12.6464 2.12357 12.6732 2.15014 12.6999C2.21025 12.7605 2.33049 12.821 2.3906 12.821C2.45144 12.821 2.51229 12.821 2.56534 12.8288C2.65627 12.8423 2.73164 12.9059 2.81624 12.9418C2.92941 12.9899 2.96432 12.9684 3.07834 12.8548C3.09994 12.8332 3.11465 12.7819 3.14184 12.7681C3.16926 12.7542 3.18445 12.7726 3.20583 12.7947C3.28362 12.8752 3.34093 12.9506 3.23241 12.9842C3.13649 13.0139 3.03139 13.0984 3.07304 13.1897C3.09313 13.2338 3.14331 13.2492 3.16557 13.2922C3.16778 13.2964 3.16995 13.3008 3.17211 13.3051C3.19849 13.3583 3.2612 13.3775 3.31028 13.4108C3.38175 13.4593 3.42722 13.5162 3.47269 13.6078C3.53281 13.7893 3.65304 13.8498 3.83339 13.8498C4.01374 13.8498 4.07385 13.7288 4.07385 13.5472C4.07385 13.4262 4.13397 13.3657 4.2542 13.3657C4.38891 13.3657 4.46132 13.2105 4.59264 13.1804C4.63613 13.1705 4.67962 13.1749 4.72311 13.1793C4.74715 13.1817 4.7712 13.1841 4.79525 13.1841H5.15594H5.39641C5.43648 13.1841 5.48324 13.1908 5.53 13.1976C5.62351 13.211 5.71703 13.2245 5.7571 13.1841C5.84728 13.0933 5.93745 13.1047 6.02763 13.116C6.08729 13.1235 6.14718 13.1322 6.20597 13.1448C6.30365 13.1659 6.34544 13.159 6.38899 13.0856C6.46471 12.958 6.48059 12.8021 6.5503 12.6711C6.62753 12.526 6.75217 12.4412 6.92423 12.4465C6.98804 12.4485 7.05269 12.4563 7.10972 12.4276C7.11377 12.4255 7.11782 12.4235 7.12187 12.4215C7.16916 12.3981 7.22064 12.3756 7.26543 12.3477C7.3186 12.3146 7.32829 12.2411 7.37407 12.1984C7.42031 12.1552 7.47533 12.1552 7.56059 12.1552C7.72023 12.1552 7.75686 11.8256 7.89623 11.9034C7.92105 11.9173 7.94905 11.9411 7.9814 11.9737C8.09418 12.0872 8.15406 12.0943 8.21067 11.9948C8.2185 11.981 8.22755 11.968 8.2387 11.9567C8.2664 11.9288 8.3045 11.9112 8.34302 11.919C8.39396 11.9294 8.43219 11.9525 8.46567 11.9805C8.50542 12.0137 8.54557 12.0475 8.59389 12.0662C8.78672 12.1406 8.88314 12.0694 8.88314 11.8526C8.88314 11.8268 8.91189 11.8115 8.93355 11.8256C8.98761 11.8607 9.02232 11.8786 9.05559 11.8763C9.0944 11.8735 9.13126 11.8433 9.19464 11.7808C9.22635 11.7495 9.27257 11.7303 9.30395 11.7619C9.33534 11.7934 9.38364 11.7753 9.40575 11.7367C9.41249 11.7249 9.41834 11.7131 9.42419 11.7013C9.44982 11.6497 9.51503 11.6525 9.55018 11.6982C9.59074 11.7509 9.61991 11.7846 9.64704 11.804C9.7299 11.8635 9.80316 11.9737 9.90511 11.9737C9.95042 11.9737 9.99573 12.0424 10.0153 12.1022C10.0261 12.1352 10.0391 12.1691 10.0635 12.1937C10.078 12.2082 10.0955 12.2192 10.1151 12.2254C10.1282 12.2295 10.141 12.2334 10.1533 12.2372C10.272 12.2733 10.3548 12.2986 10.3789 12.4285C10.3879 12.4775 10.4264 12.5184 10.4762 12.5184C10.526 12.5184 10.5716 12.5588 10.5936 12.6035C10.5946 12.6054 10.5955 12.6073 10.5964 12.6092C10.6005 12.6172 10.6045 12.6253 10.6082 12.6334C10.6243 12.6683 10.6595 12.6969 10.6866 12.6697C10.718 12.6381 10.7611 12.6176 10.7976 12.592C10.8031 12.5882 10.8083 12.5854 10.8137 12.5835C10.8268 12.5789 10.8415 12.5789 10.867 12.5789C10.9271 12.5789 10.9271 12.6394 10.9271 12.6999V12.7422C10.9271 12.7935 11.0037 12.8269 11.0548 12.8225C11.0864 12.8198 11.1089 12.8468 11.1173 12.8774C11.1228 12.8978 11.1302 12.9199 11.1375 12.942C11.152 12.9857 11.2217 13.0054 11.251 12.9698C11.262 12.9564 11.2725 12.9434 11.2824 12.9311C11.3529 12.8433 11.471 12.7825 11.5707 12.8349C11.574 12.8367 11.5774 12.8385 11.5807 12.8402C11.6602 12.8825 11.7609 12.8352 11.8409 12.8763C11.8799 12.8964 11.8982 12.9418 11.9194 12.9947C11.9282 13.0166 11.9375 13.0398 11.9491 13.0631C11.9928 13.1952 12.0685 13.3274 12.1528 13.4596C12.195 13.5259 12.287 13.5131 12.3409 13.4558C12.3595 13.4361 12.3876 13.4296 12.4098 13.414C12.4173 13.4087 12.4236 13.4023 12.43 13.3959C12.445 13.3808 12.46 13.3657 12.4901 13.3657C12.5273 13.3657 12.5415 13.3888 12.5611 13.4207C12.5732 13.4405 12.5874 13.4636 12.6103 13.4867C12.6333 13.5098 12.6475 13.5329 12.6596 13.5527C12.6609 13.5548 12.6622 13.5569 12.6635 13.559C12.6939 13.608 12.7624 13.6157 12.8029 13.6568C12.8273 13.6816 12.8343 13.7064 12.828 13.7312C12.8169 13.7745 12.7921 13.8181 12.7606 13.8498C12.7291 13.8816 12.7489 13.9278 12.7748 13.9643C12.7804 13.9723 12.7859 13.9804 12.7912 13.9885C12.8324 14.0515 12.8316 14.1318 12.7923 14.196C12.7899 14.1999 12.7876 14.2037 12.7853 14.2075C12.7369 14.2863 12.7568 14.3801 12.7442 14.4716C12.7335 14.5491 12.6935 14.6154 12.6555 14.6782C12.6393 14.7051 12.6234 14.7314 12.6103 14.7577C12.5254 14.886 12.5305 14.9841 12.5832 15.0946C12.6267 15.1858 12.7453 15.1664 12.8356 15.2115C12.8452 15.2163 12.8533 15.2241 12.8607 15.2355C12.9107 15.3114 12.8918 15.407 12.931 15.4889C12.9484 15.5252 12.9832 15.5606 13.0067 15.5933C13.0681 15.6789 13.0959 15.724 13.1324 15.7328C13.1769 15.7435 13.2342 15.7006 13.3806 15.6118C13.3879 15.6073 13.3964 15.605 13.4049 15.605C13.4309 15.605 13.452 15.626 13.452 15.652V15.7445C13.452 15.7719 13.4433 15.7984 13.4304 15.8226C13.3411 15.9895 13.3941 16.1564 13.4493 16.3232C13.4511 16.3285 13.452 16.3341 13.452 16.3396C13.452 16.3684 13.4286 16.3917 13.3998 16.3917H13.3746C13.3509 16.3917 13.3317 16.4109 13.3317 16.4346C13.3317 16.4459 13.336 16.457 13.345 16.4639C13.3742 16.4867 13.4131 16.4997 13.452 16.5128C13.4645 16.517 13.477 16.5212 13.4891 16.5257C13.5471 16.5472 13.5696 16.6087 13.5421 16.6641C13.5271 16.6944 13.5121 16.7246 13.5121 16.7549C13.5121 16.9364 13.5722 16.997 13.6924 16.997C13.7829 16.997 13.816 17.1098 13.8717 17.1811C13.9169 17.239 13.971 17.239 14.0531 17.239C14.0531 17.239 14.1132 17.239 14.1734 17.2996C14.2936 17.4206 14.2936 17.5417 14.2936 17.7232V18.26C14.2936 18.3426 14.3277 18.4206 14.395 18.4685C14.438 18.4991 14.4877 18.5345 14.5391 18.5794C14.5755 18.6112 14.6276 18.6409 14.6104 18.6861C14.5993 18.7154 14.5609 18.7355 14.531 18.7262C14.4659 18.7059 14.4008 18.7065 14.3357 18.7375C14.2723 18.7677 14.1821 18.7711 14.1128 18.7596C14.0438 18.7481 13.9926 18.6948 13.9748 18.6272C13.9615 18.5767 13.942 18.523 13.9199 18.4625C13.9045 18.4199 13.8411 18.42 13.8246 18.4622C13.7805 18.5747 13.7365 18.6634 13.6924 18.7521C13.6924 18.7521 13.6924 18.7521 13.6924 18.7521C13.5005 18.7134 13.4801 18.576 13.4592 18.4345C13.4567 18.4176 13.4542 18.4007 13.4514 18.3838C13.4377 18.3016 13.3454 18.3008 13.3084 18.3754L13.284 18.4246C13.2542 18.4845 13.1724 18.4827 13.1514 18.4192C13.1482 18.4097 13.1451 18.4002 13.1418 18.3906C13.1312 18.3594 13.0725 18.3656 13.0535 18.3925C13.0415 18.4097 13.0312 18.4244 13.0312 18.4495C13.0312 18.51 13.0312 18.5705 12.971 18.631C12.9505 18.6517 12.93 18.6653 12.9095 18.6742C12.8483 18.701 12.7907 18.6374 12.7907 18.5705V18.2679C12.7907 18.2376 12.7757 18.2225 12.7606 18.2074C12.7335 18.18 12.689 18.1462 12.6748 18.182C12.674 18.1843 12.6732 18.1867 12.6725 18.1893C12.6696 18.2009 12.6678 18.2131 12.662 18.2236C12.6353 18.2723 12.608 18.2984 12.575 18.3124C12.486 18.3499 12.3729 18.2936 12.2902 18.3434C12.2665 18.3577 12.2446 18.3768 12.2265 18.3986C12.1484 18.4926 12.182 18.6307 12.197 18.7521C12.2121 18.8734 12.2486 19.0045 12.3279 19.0975C12.3325 19.1029 12.3371 19.1084 12.3419 19.1138C12.3637 19.1391 12.3864 19.1654 12.4061 19.1952C12.4234 19.2212 12.4364 19.2382 12.4226 19.2662C12.4087 19.2946 12.355 19.3039 12.3272 19.319C12.1538 19.4129 12.1353 19.4736 12.1715 19.602C12.1824 19.6406 12.1895 19.6803 12.1895 19.7204V19.8013C12.1895 19.8569 12.1444 19.902 12.0888 19.902C12.0759 19.902 12.063 19.8994 12.051 19.8947C11.7663 19.7836 11.7086 19.8477 11.7086 20.1441V20.2651C11.7086 20.4467 11.6485 20.5072 11.5282 20.5072C11.4961 20.5072 11.4683 20.5115 11.4448 20.5201C11.3365 20.5599 11.2173 20.6275 11.1458 20.718C11.128 20.7405 11.1321 20.7804 11.1482 20.8509C11.1603 20.9042 11.1811 20.955 11.2029 21.0052C11.2334 21.0753 11.2514 21.1455 11.222 21.2156C11.1982 21.2723 11.1323 21.2914 11.0774 21.2637C11.0473 21.2486 11.0173 21.2335 10.9872 21.2335C10.9102 21.2335 10.8351 21.2741 10.7583 21.2785C10.7219 21.2806 10.6845 21.2728 10.6544 21.255C10.6349 21.2435 10.6138 21.2335 10.5912 21.2335C10.5443 21.2335 10.5063 21.2715 10.5063 21.3184V21.3315C10.5063 21.3466 10.5099 21.3615 10.5161 21.3753C10.5365 21.4214 10.5492 21.4669 10.5608 21.5086C10.5658 21.5266 10.5707 21.544 10.5758 21.5603C10.5972 21.6277 10.5975 21.7161 10.6486 21.7649C10.6695 21.7849 10.7008 21.7825 10.7276 21.7933C10.8219 21.8314 10.8993 21.8849 10.9701 21.9337C11.0179 21.9668 11.0627 21.9977 11.1074 22.0202C11.1438 22.0386 11.1858 22.0569 11.2315 22.0769C11.2727 22.0949 11.317 22.1143 11.3632 22.1362C11.4868 22.195 11.6452 22.1326 11.6482 21.9957C11.649 21.9607 11.6552 21.9424 11.6752 21.9137C11.7264 21.84 11.7776 21.8476 11.8288 21.8992C11.9235 21.9946 11.9685 22.0398 12.0073 22.035C12.0383 22.0312 12.0653 21.9953 12.1107 21.9274C12.1224 21.9099 12.1421 21.8992 12.1633 21.8992C12.1801 21.8992 12.1959 21.9062 12.209 21.9168C12.2325 21.936 12.2561 21.9479 12.2797 21.9597C12.3275 21.9838 12.3928 21.9687 12.4272 21.9276C12.467 21.8802 12.5181 21.8517 12.6016 21.8422C12.6454 21.8372 12.6879 21.8211 12.719 21.7898C12.7267 21.7821 12.7351 21.7751 12.7443 21.7691C12.92 21.6542 13.0958 21.6012 13.2716 21.7782C13.2946 21.8013 13.3088 21.8244 13.3209 21.8441C13.3527 21.896 13.4161 21.9237 13.466 21.9586C13.4809 21.9691 13.4965 21.9795 13.5121 21.99C13.5951 22.0457 13.7165 22.0988 13.7064 22.1983C13.7052 22.2095 13.7033 22.2215 13.7013 22.2343C13.6971 22.26 13.6924 22.289 13.6924 22.3228C13.6924 22.3906 13.7838 22.3809 13.814 22.3202L13.9069 22.133C13.924 22.0986 13.9335 22.0607 13.9308 22.0225C13.9246 21.9346 13.9056 21.8632 13.891 21.8084C13.8779 21.7589 13.8315 21.7127 13.7823 21.6983C13.7787 21.6972 13.7751 21.6962 13.7714 21.6951C13.6992 21.6738 13.6581 21.5596 13.696 21.4945C13.7232 21.4477 13.7207 21.3842 13.6724 21.3596C13.6691 21.3579 13.6657 21.3562 13.6624 21.3545C13.6014 21.3238 13.5806 21.2539 13.5916 21.1866C13.6081 21.0861 13.619 20.9921 13.6295 20.902C13.6443 20.7752 13.6581 20.6561 13.6852 20.5376C13.6893 20.5197 13.7053 20.5072 13.7237 20.5072C13.7409 20.5072 13.7563 20.5182 13.7607 20.5349C13.7748 20.5889 13.7805 20.6475 13.7863 20.7077C13.7967 20.8159 13.8076 20.9294 13.8693 21.0313C13.9012 21.084 13.9703 21.0941 14.0265 21.0688C14.1349 21.0199 14.2619 20.9628 14.3537 20.8703C14.4138 20.8098 14.489 20.7493 14.5641 20.6888C14.5684 20.6854 14.5726 20.6819 14.5768 20.6785C14.7118 20.5697 14.8165 20.4264 14.95 20.3158C14.9899 20.2828 15.0325 20.2475 15.0751 20.2046C15.1052 20.1743 15.1352 20.1289 15.1653 20.0836C15.2208 19.9997 15.2996 19.9365 15.3736 19.8685C15.4432 19.8045 15.5036 19.7341 15.5601 19.6682C15.6355 19.5803 15.7264 19.5071 15.8035 19.4208C15.9356 19.2732 16.0247 19.0875 16.1063 18.9174C16.1395 18.8483 16.1605 18.7725 16.1845 18.6998C16.1854 18.6971 16.1863 18.6943 16.1872 18.6916C16.197 18.6621 16.2068 18.6326 16.2124 18.6072C16.2176 18.584 16.2277 18.5616 16.2397 18.541C16.2645 18.4985 16.273 18.4423 16.2759 18.3941C16.2774 18.3699 16.3067 18.3579 16.3237 18.375C16.332 18.3833 16.3446 18.3854 16.355 18.38C16.38 18.3668 16.4024 18.3537 16.4236 18.3415C16.4943 18.3003 16.5501 18.2679 16.6381 18.2679C16.7084 18.2679 16.7879 18.2495 16.8693 18.2306C16.9968 18.2011 17.1292 18.1705 17.2393 18.2074C17.5036 18.2606 17.6749 18.2202 17.7942 18.004C17.8263 17.9458 17.8099 17.8735 17.7803 17.814C17.7785 17.8103 17.7766 17.8066 17.7747 17.8028C17.7586 17.7708 17.7987 17.7481 17.8263 17.771C17.8435 17.7853 17.8533 17.7708 17.8691 17.7549L17.875 17.749C17.9112 17.7125 17.9588 17.7446 17.9331 17.7891C17.9224 17.8077 17.9115 17.826 17.9006 17.8443C17.871 17.8939 17.8414 17.9435 17.8161 17.9973C17.796 18.0401 17.8283 18.0954 17.8705 18.1166C17.9217 18.1424 17.9698 18.1085 17.9975 18.0583C18.0237 18.0108 18.052 17.9909 18.0868 17.9897C18.1416 17.9877 18.183 18.035 18.2219 18.0736C18.2504 18.1019 18.2825 18.1285 18.3165 18.1567C18.3433 18.1789 18.3714 18.2021 18.3998 18.228C18.4208 18.2471 18.4544 18.2414 18.4662 18.2156C18.5047 18.1309 18.5206 18.0958 18.6219 18.1469C18.6304 18.1511 18.6385 18.1551 18.6464 18.1587C18.6997 18.3284 18.8292 18.3284 18.9225 18.3284C18.9826 18.3284 19.0277 18.3436 19.0728 18.3587C19.1124 18.372 19.152 18.3853 19.2018 18.3883C19.2199 18.406 19.2364 18.4277 19.2522 18.4533C19.2716 18.4848 19.2603 18.5254 19.2298 18.5463C19.0882 18.6431 19.0174 18.6916 18.8023 18.6916C18.7722 18.6916 18.7422 18.7067 18.7121 18.7218C18.6754 18.7403 18.6522 18.7982 18.6788 18.8295C18.7373 18.8982 18.783 18.912 18.8379 18.8819C18.8953 18.8505 18.9617 18.8336 19.0232 18.856C19.0402 18.8622 19.0565 18.8677 19.0728 18.8731C19.1077 18.8848 19.1427 18.8966 19.1846 18.9153C19.2104 18.9269 19.2333 18.9439 19.2532 18.9639C19.2731 18.9839 19.2961 19.0006 19.3213 19.0134C19.3437 19.0248 19.366 19.0364 19.3884 19.0486C19.5554 19.1398 19.634 19.4178 19.8243 19.4178C19.8543 19.4178 19.8844 19.4329 19.9144 19.4481C19.9708 19.4765 20.033 19.4967 20.0942 19.5122C20.1846 19.5351 20.275 19.5238 20.3653 19.4783C20.4303 19.4456 20.5129 19.4129 20.6035 19.3897C20.7599 19.3498 20.9275 19.3171 21.0867 19.3438C21.1176 19.349 21.1486 19.3542 21.1795 19.3563C21.1975 19.3575 21.2153 19.3617 21.2317 19.3693C21.3059 19.4034 21.3536 19.4069 21.3747 19.3443C21.3876 19.3063 21.4416 19.2787 21.4775 19.2968C21.5075 19.3119 21.5376 19.327 21.5676 19.3573C21.6008 19.3907 21.6547 19.3907 21.6879 19.3573C21.721 19.3239 21.7754 19.3244 21.8169 19.3464C21.824 19.3502 21.8311 19.3537 21.8382 19.3573C21.8682 19.3724 21.8983 19.3876 21.9283 19.4178C21.9584 19.4481 21.9884 19.4632 22.0185 19.4783C22.0831 19.5108 22.1416 19.558 22.2129 19.5701C22.3474 19.5931 22.5158 19.5717 22.4694 19.4783C22.4299 19.3592 22.494 19.3183 22.5427 19.2871C22.565 19.2728 22.6207 19.2697 22.636 19.2913C22.7325 19.4277 22.7229 19.5886 22.7144 19.7307C22.7101 19.8016 22.7393 19.8712 22.8069 19.8928C22.8229 19.8979 22.8398 19.9026 22.8573 19.9076C22.8843 19.9152 22.9128 19.9233 22.9421 19.9337C22.971 19.9439 22.9709 19.9808 22.9425 19.9924C22.8574 20.027 22.6592 20.0971 22.5697 20.1176C22.5485 20.1225 22.5296 20.132 22.513 20.1462C22.4789 20.1754 22.441 20.2046 22.396 20.2046H22.3615C22.3151 20.2046 22.2705 20.2234 22.2309 20.2475C22.0927 20.3317 21.7924 20.4462 21.5722 20.5303C21.518 20.551 21.4686 20.5698 21.4277 20.5859C21.3604 20.6123 21.3016 20.6563 21.237 20.6888C21.1724 20.7213 21.1313 20.7863 21.0704 20.8254C21.0553 20.8351 21.0393 20.8442 21.0234 20.8532C20.9919 20.8712 20.9608 20.8889 20.9373 20.9109C20.882 20.9628 20.8282 21.0519 20.7524 21.0519C20.7351 21.0519 20.718 21.056 20.7023 21.0635C20.6803 21.074 20.6568 21.0845 20.6324 21.0956C20.5605 21.1279 20.4804 21.164 20.4079 21.2116C20.3348 21.2595 20.2591 21.3064 20.1949 21.3656C20.1901 21.37 20.1855 21.3746 20.1812 21.3792C20.1046 21.4616 20.0732 21.6144 20.1573 21.6891C20.1763 21.7061 20.1997 21.7215 20.2254 21.7362C20.2768 21.7657 20.3361 21.7782 20.3954 21.7782C20.4547 21.7782 20.5136 21.765 20.5643 21.7343C20.5771 21.7266 20.5891 21.7192 20.6004 21.7122C20.6785 21.6636 20.7698 21.6372 20.8609 21.6243C21.0487 21.5977 21.1844 21.6661 21.318 21.779C21.4505 21.8909 21.5545 22.0381 21.6993 22.1336C21.7385 22.1594 21.7788 22.186 21.8163 22.216C21.8511 22.2439 21.8969 22.2637 21.9283 22.2321C21.9434 22.2169 21.9584 22.2018 21.9884 22.2018C22.0412 22.2018 22.0939 22.1785 22.1415 22.1575C22.2372 22.1153 22.3401 22.1616 22.4191 22.23C22.447 22.2541 22.4735 22.2806 22.4977 22.3084C22.5689 22.3906 22.6261 22.4877 22.6553 22.5924C22.6611 22.6131 22.6671 22.6347 22.6742 22.6569C22.6936 22.7173 22.7102 22.7796 22.717 22.8427C22.7284 22.9485 22.7408 23.0638 22.6497 23.1096C22.5135 23.201 22.4802 23.2924 22.4979 23.4099C22.5105 23.4934 22.5359 23.5772 22.521 23.6603C22.517 23.6821 22.5113 23.7037 22.5029 23.7235C22.4869 23.7614 22.4613 23.7955 22.4366 23.8284C22.3224 23.9806 22.2095 24.1748 22.3795 24.2604C22.4032 24.2723 22.4286 24.2832 22.4556 24.2937C22.5041 24.3124 22.5632 24.3049 22.604 24.337C22.6154 24.346 22.629 24.3597 22.6497 24.3806C22.819 24.551 22.9354 24.6148 23.0982 24.5719C23.1199 24.5662 23.1421 24.5621 23.1645 24.5621C23.2198 24.5621 23.2704 24.5891 23.3201 24.6131C23.3838 24.6438 23.4475 24.6334 23.5112 24.6088C23.5796 24.5823 23.6388 24.5339 23.708 24.5097C23.7159 24.507 23.7239 24.5043 23.7318 24.5016C23.7769 24.4865 23.822 24.4714 23.852 24.4411C23.8821 24.4108 23.9272 24.3806 23.9723 24.3503C23.9793 24.3456 23.9864 24.3408 23.9934 24.3361C24.0316 24.3102 24.0907 24.3319 24.1079 24.3748C24.121 24.4077 24.1684 24.4078 24.1789 24.3739C24.193 24.3286 24.2029 24.2789 24.2127 24.2293C24.2278 24.1536 24.2428 24.078 24.2729 24.0175C24.3029 23.9569 24.348 23.8964 24.3931 23.8359C24.4232 23.7955 24.4533 23.7551 24.4789 23.7147C24.5017 23.6787 24.5434 23.6543 24.5734 23.6241C24.6059 23.5914 24.6557 23.5859 24.7002 23.5737C24.7176 23.5689 24.7349 23.5643 24.752 23.5599C24.8058 23.5458 24.8571 23.5324 24.9023 23.5126C25.0274 23.4577 25.1466 23.3517 25.2832 23.3517H25.3039C25.3751 23.3517 25.4406 23.3202 25.4961 23.2757C25.5059 23.2678 25.5157 23.2606 25.5255 23.2544C25.566 23.2289 25.6144 23.2498 25.6482 23.2838L25.6986 23.3346C25.7412 23.3774 25.809 23.3755 25.8359 23.3215C25.8509 23.2912 25.8659 23.2609 25.896 23.2307L26.1542 22.9707C26.1813 22.9434 26.2182 22.9281 26.2567 22.9281C26.2868 22.9281 26.3318 22.9432 26.3769 22.9583C26.3972 22.9651 26.4175 22.972 26.4365 22.9774C26.4693 22.9868 26.5026 22.9612 26.5202 22.9319C26.5446 22.8914 26.5731 22.8439 26.5225 22.7756C26.5078 22.7558 26.4972 22.7326 26.4972 22.7079C26.4972 22.6935 26.5001 22.6791 26.5084 22.6672C26.5879 22.5529 26.8641 22.447 26.9781 22.5044C27.0232 22.5347 27.072 22.5612 27.1209 22.5876C27.2089 22.6354 27.297 22.6831 27.363 22.753C27.4239 22.8174 27.5566 22.8702 27.6449 22.8623C27.7063 22.8568 27.7688 22.8512 27.8241 22.8081C27.8652 22.7761 27.9111 22.7465 27.9632 22.7465C27.9874 22.7465 28.0112 22.7524 28.0333 22.7624C28.0776 22.7826 28.114 22.7948 28.1503 22.807C28.1866 22.8192 28.2228 22.8313 28.2669 22.8514C28.2825 22.8585 28.3006 22.8473 28.3006 22.8301C28.3006 22.8174 28.3111 22.8071 28.3235 22.8043C28.3459 22.7993 28.3684 22.7881 28.3908 22.7768C28.4472 22.7484 28.5099 22.7299 28.57 22.7109C28.6005 22.7013 28.6309 22.6936 28.6613 22.686C28.7567 22.662 28.7816 22.5539 28.7389 22.4653C28.6397 22.2596 28.6927 22.093 28.8493 21.9899C28.8803 21.9695 28.9018 21.9363 28.9018 21.8992C28.9018 21.8328 28.9556 21.7782 29.022 21.7782H29.0581C29.1046 21.7782 29.1423 21.7405 29.1423 21.694C29.1423 21.6266 29.0663 21.5901 29.0002 21.6028C28.9399 21.6144 28.902 21.5922 28.869 21.5625C28.8504 21.5458 28.8294 21.5315 28.8052 21.5252C28.7309 21.5058 28.667 21.5058 28.6087 21.5058C28.5411 21.5058 28.481 21.5058 28.4209 21.4755C28.1876 21.3581 28.0108 21.4686 27.8907 21.6964C27.8833 21.7104 27.8741 21.7234 27.863 21.7346C27.8353 21.7625 27.7974 21.7793 27.7586 21.7732C27.6733 21.7599 27.5881 21.7213 27.5029 21.6791C27.4759 21.6657 27.459 21.6381 27.459 21.6081V21.4974C27.459 21.4671 27.4192 21.4486 27.3935 21.4646C27.3397 21.4981 27.3346 21.5681 27.315 21.6283C27.2441 21.846 27.0918 21.9497 26.8582 22.0068C26.8182 22.0166 26.7766 22.0206 26.7376 22.0337C26.6975 22.0471 26.6575 22.0606 26.6174 22.0202C26.5549 21.9573 26.4923 21.9016 26.4323 21.8482C26.3192 21.7475 26.215 21.6547 26.1365 21.5361C25.7758 21.0519 25.4752 20.6282 25.2948 20.0836C25.2815 20.0499 25.2674 20.0163 25.2533 19.9827C25.1484 19.7327 25.0436 19.4828 25.2437 19.2328C25.2743 19.1946 25.3224 19.1757 25.3714 19.1757C25.4001 19.1757 25.4284 19.169 25.4541 19.1561C25.495 19.1354 25.5351 19.1147 25.572 19.094C25.6727 19.0376 25.7364 18.9369 25.8035 18.8431C25.8057 18.8401 25.8079 18.837 25.8102 18.8339C25.8202 18.8199 25.8302 18.8059 25.84 18.7918C25.9041 18.6993 26.0521 18.6384 26.0324 18.7491C26.0308 18.7581 26.0289 18.7671 26.0267 18.7761C26.0212 18.7988 26.0445 18.8386 26.0647 18.8501C26.1045 18.8729 26.1129 18.9215 26.097 18.9645C26.0893 18.9853 26.0828 19.0049 26.0763 19.0244ZM18.8624 17.118C18.8624 17.2872 18.7721 17.4459 18.802 17.6125C18.8336 17.7881 18.9081 17.9883 18.9826 18.0258C19.0428 18.0561 19.0878 18.0863 19.1329 18.1166C19.22 18.175 19.3247 18.1389 19.4235 18.1041C19.4685 18.0883 19.5182 18.0905 19.5684 18.1327C19.5786 18.1413 19.584 18.1566 19.5836 18.1699C19.5823 18.2148 19.6001 18.2683 19.6449 18.2655C19.7069 18.2616 19.7627 18.2515 19.8025 18.2251C19.8179 18.2149 19.8335 18.2045 19.8508 18.1979C19.9294 18.1681 19.9971 18.1272 20.0647 18.0863C20.1355 18.0436 20.2062 18.0009 20.2895 17.9708C20.2999 17.967 20.3212 17.9659 20.3313 17.9701C20.3742 17.9882 20.3332 18.0331 20.2909 18.0524C20.226 18.082 20.1643 18.1259 20.1018 18.1704C19.9842 18.2541 19.8637 18.3399 19.7132 18.3363C19.6771 18.3354 19.6485 18.3633 19.674 18.389C19.689 18.4041 19.704 18.4192 19.704 18.4495C19.704 18.3992 19.7455 18.3907 19.794 18.3892C19.8107 18.3888 19.8243 18.4025 19.8243 18.4192C19.8243 18.4359 19.8107 18.4497 19.7943 18.453C19.7677 18.4584 19.7359 18.469 19.704 18.4797C19.659 18.4949 19.6139 18.51 19.5838 18.51C19.5838 18.51 19.5838 18.51 19.5838 18.51C19.4636 18.4495 19.3433 18.389 19.2231 18.389C19.2158 18.389 19.2087 18.3887 19.2018 18.3883C19.161 18.3484 19.1118 18.3284 19.0428 18.3284C18.949 18.3284 18.8805 18.2442 18.7918 18.214C18.7852 18.2117 18.7787 18.2096 18.7722 18.2074C18.7335 18.1944 18.6947 18.1814 18.6464 18.1587C18.6079 18.0363 18.6537 17.9037 18.644 17.7757C18.6411 17.7372 18.6339 17.6988 18.6219 17.6627C18.615 17.6488 18.6089 17.6348 18.6037 17.621C18.5326 17.4329 18.773 17.298 18.8624 17.118ZM18.6821 16.9364C18.6821 16.9667 18.6971 16.9818 18.7121 16.997C18.7393 17.0243 18.7747 17.0587 18.8083 17.0775C18.8397 17.0952 18.8624 17.118 18.8624 17.118C18.7628 17.118 18.6821 17.036 18.6821 16.9364ZM18.6151 16.8725C18.6376 16.8751 18.6439 16.8401 18.629 16.823C18.6196 16.8124 18.6278 16.807 18.6344 16.7945C18.6856 16.6971 18.6348 16.6167 18.5819 16.533C18.5424 16.4703 18.5017 16.4059 18.5017 16.3312C18.5017 16.4021 18.5223 16.4523 18.5394 16.4938C18.5515 16.5232 18.5618 16.5482 18.5618 16.5733V16.6303C18.5618 16.6713 18.5434 16.7092 18.5206 16.7434C18.4711 16.8176 18.51 16.8607 18.6151 16.8725ZM14.716 7.99988C14.716 5.68557 16.5862 3.80274 18.885 3.80274C21.1838 3.80274 23.054 5.68557 23.054 7.99988C23.054 8.94652 22.3944 10.5067 21.0936 12.6369C20.1425 14.1944 19.1779 15.5089 19.1683 15.5219C19.0278 15.713 18.7423 15.713 18.6018 15.5219C18.5921 15.5089 17.6276 14.1944 16.6765 12.6369C15.3756 10.5067 14.716 8.94652 14.716 7.99988ZM16.501 7.93484C16.501 9.25826 17.5705 10.3349 18.885 10.3349C20.1996 10.3349 21.269 9.25826 21.269 7.93484C21.269 6.61143 20.1996 5.53474 18.885 5.53474C17.5705 5.53474 16.501 6.61141 16.501 7.93484Z" fill="#ED0035"/>
</svg>
