<svg width="30" height="35" viewBox="0 0 30 35" fill="none" xmlns="http://www.w3.org/2000/svg">
<path d="M0.185774 5.88114C-0.450521 3.95258 0.600704 1.86567 2.52948 1.22926C4.45826 0.592857 6.54505 1.64442 7.18135 3.57297L14.4189 25.5088C13.7444 25.3307 13.0271 25.2981 12.3111 25.429L5.30417 4.19239C5.00931 3.29868 4.04255 2.81165 3.1489 3.10651C2.25518 3.40136 1.76816 4.36812 2.06301 5.26178C2.23401 5.78012 1.95247 6.33908 1.43407 6.51008C0.915731 6.68108 0.356827 6.39948 0.185774 5.88114ZM28.7016 23.089L16.8433 27.0016C17.2642 27.4794 17.5978 28.0474 17.8096 28.6892C17.8171 28.7121 17.8214 28.7352 17.8285 28.7582L29.321 24.9662C29.8394 24.7952 30.121 24.2363 29.95 23.718C29.7789 23.1995 29.2199 22.9179 28.7016 23.089ZM16.871 28.9991C17.5429 31.0354 16.4368 33.2308 14.4005 33.9027C12.3642 34.5746 10.1688 33.4685 9.49692 31.4322C8.82502 29.3958 9.93118 27.2005 11.9674 26.5286C14.0038 25.8566 16.1992 26.9628 16.871 28.9991ZM15.0275 29.6073C14.6916 28.5892 13.594 28.0362 12.5757 28.3721C11.5576 28.708 11.0045 29.8057 11.3405 30.8238C11.6764 31.842 12.7741 32.395 13.7923 32.0592C14.8104 31.7232 15.3634 30.6254 15.0275 29.6073ZM25.7048 8.20969L29.7307 20.4117C29.8163 20.6708 29.6755 20.9503 29.4163 21.0358L16.745 25.2166C16.4858 25.3022 16.2063 25.1614 16.1209 24.9022L12.0949 12.7001C12.0094 12.4409 12.1502 12.1615 12.4094 12.076L25.0806 7.89516C25.3398 7.80975 25.6193 7.95049 25.7048 8.20969ZM24.0286 15.2978L19.714 12.9239L17.66 17.3991L19.0199 18.025L19.908 16.089L21.5116 20.9493L23.0463 20.443L21.443 15.5833L23.3082 16.61L24.0286 15.2978ZM20.2637 8.01819L17.6898 0.217042C17.6351 0.0513371 17.4564 -0.0387027 17.2907 0.0160121L15.0837 0.744187L15.0729 0.764022L15.0544 0.753882L13.8899 1.13811L14.8488 4.04429L13.5354 4.47766L12.5765 1.57148L11.4117 1.95582L11.4029 1.97499L11.3823 1.96552L9.18958 2.68901C9.02382 2.74367 8.93389 2.92236 8.98855 3.08806L11.5625 10.8893C11.6172 11.055 11.7959 11.145 11.9616 11.0903L20.0628 8.41729C20.2284 8.36258 20.3184 8.18389 20.2637 8.01819Z" fill="#ED0035"/>
</svg>
