<svg width="13" height="14" viewBox="0 0 13 14" fill="none" xmlns="http://www.w3.org/2000/svg">
<path d="M7.21453 13.9608C10.212 13.6462 12.6142 11.4012 12.956 8.59278C13.4047 4.92071 10.3585 1.79487 6.53995 1.75483V0.107546C6.53995 0.0160301 6.41786 -0.0325877 6.33544 0.0246097L2.71533 2.51556C2.65428 2.55846 2.65428 2.64139 2.71533 2.68429L6.33544 5.17524C6.41786 5.23244 6.53995 5.18096 6.53995 5.0923V3.44788C9.22299 3.48791 11.3719 5.6271 11.1887 8.18382C11.0331 10.3831 9.11921 12.1676 6.77193 12.3078C4.28425 12.4565 2.16895 10.792 1.79046 8.58992C1.72025 8.18096 1.33871 7.88354 0.899164 7.88354C0.352789 7.88354 -0.0745436 8.33825 0.0109229 8.84445C0.542036 11.9817 3.63409 14.3354 7.21453 13.9608Z" fill="#999999"/>
</svg>
