<svg width="10" height="19" viewBox="0 0 10 19" fill="none" xmlns="http://www.w3.org/2000/svg">
<path d="M9.41389 0.00375759L7.06757 0C4.43156 0 2.72806 1.74446 2.72806 4.44448V6.49369H0.368936C0.16508 6.49369 0 6.65865 0 6.86212V9.83118C0 10.0347 0.165268 10.1994 0.368936 10.1994H2.72806V17.6913C2.72806 17.8948 2.89314 18.0596 3.09699 18.0596H6.17497C6.37883 18.0596 6.54391 17.8946 6.54391 17.6913V10.1994H9.30227C9.50613 10.1994 9.67121 10.0347 9.67121 9.83118L9.67234 6.86212C9.67234 6.76442 9.63337 6.67086 9.56429 6.60172C9.49521 6.53258 9.40109 6.49369 9.30321 6.49369H6.54391V4.75655C6.54391 3.92161 6.74325 3.49776 7.83293 3.49776L9.41352 3.49719C9.61718 3.49719 9.78226 3.33223 9.78226 3.12895V0.372002C9.78226 0.168904 9.61737 0.00413335 9.41389 0.00375759Z" fill="#C5A26D"/>
</svg>
