<svg width="19" height="19" viewBox="0 0 19 19" fill="none" xmlns="http://www.w3.org/2000/svg">
<path d="M16.7228 0H2.27519C1.28192 0 0.469238 0.81268 0.469238 1.80596V16.2536C0.469238 17.2469 1.28192 18.0596 2.27519 18.0596H16.7228C17.7161 18.0596 18.5288 17.2469 18.5288 16.2536V1.80596C18.5288 0.81268 17.7161 0 16.7228 0ZM9.49902 5.41787C11.4856 5.41787 13.1109 7.04323 13.1109 9.02978C13.1109 11.0163 11.4856 12.6417 9.49902 12.6417C7.51247 12.6417 5.88711 11.0163 5.88711 9.02978C5.88711 7.04323 7.51247 5.41787 9.49902 5.41787ZM2.72668 16.2536C2.45579 16.2536 2.27519 16.073 2.27519 15.8021V8.1268H4.17145C4.08115 8.3977 4.08115 8.75889 4.08115 9.02978C4.08115 12.0096 6.51919 14.4477 9.49902 14.4477C12.4788 14.4477 14.9169 12.0096 14.9169 9.02978C14.9169 8.75889 14.9169 8.3977 14.8266 8.1268H16.7228V15.8021C16.7228 16.073 16.5423 16.2536 16.2714 16.2536H2.72668ZM16.7228 4.0634C16.7228 4.3343 16.5423 4.51489 16.2714 4.51489H14.4654C14.1945 4.51489 14.0139 4.3343 14.0139 4.0634V2.25745C14.0139 1.98655 14.1945 1.80596 14.4654 1.80596H16.2714C16.5423 1.80596 16.7228 1.98655 16.7228 2.25745V4.0634Z" fill="#C5A26D"/>
</svg>
