<svg width="62" height="29" viewBox="0 0 62 29" fill="none" xmlns="http://www.w3.org/2000/svg">
<path d="M15.9001 0.910389L19.1709 7.84054C19.3984 8.32254 19.8382 8.65653 20.3469 8.7337L27.6611 9.84508C28.9423 10.0399 29.4535 11.6858 28.5267 12.6302L23.2342 18.0245C22.8664 18.3996 22.6983 18.9404 22.7854 19.4699L24.0345 27.087C24.2535 28.421 22.9142 29.4381 21.7685 28.8088L15.2268 25.2127C14.7719 24.9629 14.2281 24.9629 13.7732 25.2127L7.23152 28.8088C6.08579 29.4388 4.74648 28.421 4.96547 27.087L6.21464 19.4699C6.30175 18.9404 6.13358 18.3996 5.76578 18.0245L0.473288 12.6302C-0.453458 11.6851 0.0577042 10.0393 1.33894 9.84508L8.65309 8.7337C9.16183 8.65653 9.60162 8.32254 9.82907 7.84054L13.0999 0.910389C13.6722 -0.303463 15.3272 -0.303463 15.9001 0.910389Z" fill="#DCDCDC"/>
<path d="M48.9001 0.910389L52.1709 7.84054C52.3984 8.32254 52.8382 8.65653 53.3469 8.7337L60.6611 9.84508C61.9423 10.0399 62.4535 11.6858 61.5267 12.6302L56.2342 18.0245C55.8664 18.3996 55.6983 18.9404 55.7854 19.4699L57.0345 27.087C57.2535 28.421 55.9142 29.4381 54.7685 28.8088L48.2268 25.2127C47.7719 24.9629 47.2281 24.9629 46.7732 25.2127L40.2315 28.8088C39.0858 29.4388 37.7465 28.421 37.9655 27.087L39.2146 19.4699C39.3017 18.9404 39.1336 18.3996 38.7658 18.0245L33.4733 12.6302C32.5465 11.6851 33.0577 10.0393 34.3389 9.84508L41.6531 8.7337C42.1618 8.65653 42.6016 8.32254 42.8291 7.84054L46.0999 0.910389C46.6722 -0.303463 48.3272 -0.303463 48.9001 0.910389Z" fill="#FFC90A"/>
</svg>
