<svg width="50" height="30" xmlns="http://www.w3.org/2000/svg"><g fill="none" fill-rule="evenodd"><rect width="50" height="30" rx="3"/><g fill-rule="nonzero"><path fill="#0571C1" d="M8.429 11.468h1.396l-.698-1.782z"/><path d="M25.762 9.94c-.127-.063-.318-.063-.508-.063h-1.27v1.018h1.27c.19 0 .38 0 .508-.063.127-.064.19-.255.19-.446.064-.254-.063-.381-.19-.445z" fill="#228FE0"/><path d="M39.35 8.032v.763l-.382-.763h-2.984v.763l-.38-.763H31.54c-.699 0-1.27.127-1.778.382v-.382h-2.857v.382c-.318-.255-.699-.382-1.207-.382H15.476l-.698 1.59-.699-1.59h-3.238v.763l-.38-.763H7.73l-1.27 2.99L5 14.333h3.238l.381-1.018h.889l.38 1.018h3.683v-.764l.318.764h1.841l.318-.764v.764h8.825v-1.655H25c.127 0 .127 0 .127.191v1.4h4.571v-.382c.381.191.953.382 1.715.382h1.904l.381-1.018h.89l.38 1.018h3.683v-.954l.571.954h2.984V8.032H39.35zm-21.461 5.345h-1.08v-3.5l-1.523 3.5h-.953l-1.523-3.5v3.5h-2.16l-.444-.954H8.048l-.381 1.018H6.46l1.905-4.518h1.587l1.778 4.263V8.923h1.714l1.397 3.054 1.27-3.054h1.778v4.454zm4.317-3.5H19.73v.828h2.413v.89H19.73v.891h2.476v.955h-3.555V8.923h3.555v.954zm4.762 1.846c.127.254.19.445.19.827v.89H26.08v-.572c0-.254 0-.636-.19-.89-.19-.192-.381-.192-.762-.192h-1.143v1.655h-1.08V8.923h2.413c.572 0 .953 0 1.27.19.318.192.508.51.508 1.019 0 .7-.444 1.082-.762 1.209.318.064.508.254.635.382zm1.905 1.654h-1.08V8.86h1.08v4.518zm12.508 0h-1.524l-2.032-3.372v3.372h-2.158l-.381-.954h-2.223l-.38 1.018h-1.207c-.508 0-1.143-.127-1.524-.51-.38-.381-.571-.89-.571-1.717 0-.637.127-1.273.571-1.782.318-.382.89-.51 1.588-.51h1.016v.955H31.54c-.381 0-.572.064-.826.255-.19.19-.317.573-.317 1.018 0 .51.063.827.317 1.082.19.19.445.254.762.254h.445l1.46-3.5h1.587l1.778 4.264V8.986h1.587l1.842 3.119V8.986h1.079v4.391h.127z" fill="#0571C1"/><path d="M33.444 11.468h1.46l-.698-1.782zM22.65 20.632v-3.627L21 18.786z" fill="#228FE0"/><path fill="#0571C1" d="M15.857 17.45v.827h2.35v.891h-2.35v.955h2.603l1.207-1.337-1.143-1.336z"/><path d="M25.063 17.45H23.73v1.145h1.397c.38 0 .635-.19.635-.572-.064-.382-.318-.573-.699-.573z" fill="#228FE0"/><path d="M44.683 18.532v-2.864h-2.667c-.572 0-1.016.127-1.333.382v-.382h-2.921c-.445 0-1.016.127-1.27.382v-.382H31.35v.382c-.38-.318-1.08-.382-1.397-.382h-3.428v.382c-.318-.318-1.08-.382-1.46-.382h-3.81l-.889.955-.825-.955h-5.715v6.237h5.588l.889-.955.825.955h3.429V20.44H25c.444 0 1.016 0 1.46-.191v1.718h2.857v-1.654h.127c.19 0 .19 0 .19.19v1.464h8.636c.571 0 1.143-.127 1.46-.382v.382h2.73c.572 0 1.143-.063 1.524-.318.635-.382 1.016-1.082 1.016-1.91 0-.445-.127-.89-.317-1.208zM25 19.55h-1.27v1.527h-2.032l-1.27-1.463-1.333 1.463h-4.19V16.56h4.254l1.27 1.464 1.333-1.464h3.365c.825 0 1.778.255 1.778 1.464-.064 1.272-.953 1.527-1.905 1.527zm6.35-.255c.126.191.19.446.19.828v.89h-1.08v-.572c0-.255 0-.7-.19-.891-.127-.19-.381-.19-.762-.19h-1.143v1.654h-1.08v-4.519h2.413c.508 0 .953 0 1.27.191.318.191.572.51.572 1.019 0 .7-.445 1.081-.762 1.209.317.127.508.254.571.381zm4.38-1.845h-2.476v.827h2.413v.891h-2.413v.891h2.476v.955h-3.555v-4.519h3.555v.955zm2.667 3.564h-2.032v-.955h2.032c.19 0 .317 0 .444-.127a.487.487 0 00.127-.318.487.487 0 00-.127-.319c-.063-.063-.19-.127-.38-.127-1.017-.063-2.223 0-2.223-1.4 0-.636.381-1.336 1.524-1.336h2.095v1.082H37.89c-.19 0-.318 0-.445.063-.127.064-.127.191-.127.318 0 .191.127.255.254.319.127.063.254.063.381.063h.572c.571 0 .952.128 1.206.382.19.191.318.51.318.955 0 .954-.572 1.4-1.651 1.4zm5.46-.446c-.254.255-.698.446-1.333.446h-2.032v-.955h2.032c.19 0 .317 0 .444-.127a.487.487 0 00.127-.318.487.487 0 00-.127-.319c-.063-.063-.19-.127-.38-.127-1.017-.063-2.223 0-2.223-1.4 0-.636.381-1.336 1.524-1.336h2.095v1.082H42.08c-.19 0-.317 0-.444.063-.127.064-.127.191-.127.318 0 .191.063.255.254.319.127.063.254.063.38.063h.572c.572 0 .953.128 1.207.382.063 0 .063.064.063.064.19.254.254.572.254.89 0 .382-.127.7-.38.955z" fill="#0571C1"/><path d="M30.206 17.577c-.127-.063-.317-.063-.508-.063h-1.27v1.018h1.27c.19 0 .381 0 .508-.064.127-.063.19-.254.19-.445.064-.255-.063-.382-.19-.446z" fill="#228FE0"/><path d="M25.762 9.94c-.127-.063-.318-.063-.508-.063h-1.27v1.018h1.27c.19 0 .38 0 .508-.063.127-.064.19-.255.19-.446.064-.254-.063-.381-.19-.445zm7.682 1.528h1.46l-.698-1.782zM22.65 20.632v-3.627L21 18.786zm2.413-3.182H23.73v1.145h1.397c.38 0 .635-.19.635-.572-.064-.382-.318-.573-.699-.573zm5.143.127c-.127-.063-.317-.063-.508-.063h-1.27v1.018h1.27c.19 0 .381 0 .508-.064.127-.063.19-.254.19-.445.064-.255-.063-.382-.19-.446z" fill="#0571C1"/><path d="M39.24 14.112l.333.5h.167z" fill="#228FE0"/></g></g></svg>