<svg width="20" height="22" xmlns="http://www.w3.org/2000/svg"><path d="M12.106 19.351a.75.75 0 01.273 1.025 2.75 2.75 0 01-4.758 0 .75.75 0 011.24-.837l.058.085a1.25 1.25 0 002.08.123l.082-.123a.75.75 0 011.025-.273zM10 .25A6.75 6.75 0 0116.75 7c0 2.94.533 5.16 1.408 6.766.297.544.61.972.918 1.296l.153.155.115.104.042.033.03.022c.588.392.352 1.284-.313 1.368L19 16.75H1c-.707 0-1.005-.873-.498-1.312l.082-.062c.048-.032.169-.133.34-.314.308-.324.62-.752.918-1.296.831-1.525 1.354-3.605 1.404-6.33L3.25 7A6.75 6.75 0 0110 .25zm0 1.5a5.25 5.25 0 00-5.246 5.034L4.75 7c0 3.185-.592 5.652-1.592 7.484a9.539 9.539 0 01-.401.672l-.065.094h14.615l-.064-.094a9.211 9.211 0 01-.268-.434l-.133-.238c-.952-1.745-1.535-4.066-1.588-7.034L15.25 7l-.004-.216A5.25 5.25 0 0010 1.75z" fill="#40AC60"/></svg>