<svg width="50" height="30" xmlns="http://www.w3.org/2000/svg"><g fill="none" fill-rule="evenodd"><rect width="50" height="30" rx="3"/><g fill-rule="nonzero"><path d="M17.819 5.086c-5.411.035-9.793 4.447-9.793 9.878 0 5.452 4.415 9.876 9.856 9.876 2.552 0 4.88-.975 6.631-2.573h.001c.36-.328.694-.682 1.001-1.058h-2.018a9.56 9.56 0 01-.735-1.018h3.482c.212-.34.403-.692.574-1.057h-4.63a9.619 9.619 0 01-.413-1.038h5.455a9.964 9.964 0 00.28-5.248h-6.024c.075-.351.169-.698.28-1.037h5.458a9.902 9.902 0 00-.425-1.058h-4.612a9.53 9.53 0 01.565-1.037h3.48a9.813 9.813 0 00-.765-1.057h-1.94c.3-.355.63-.688.988-.997a9.802 9.802 0 00-6.632-2.575h-.064z" fill="#931B1D"/><path d="M40.958 14.967c.001 5.454-4.409 9.877-9.854 9.878-5.442.002-9.855-4.42-9.857-9.874v-.004c-.002-5.456 4.41-9.88 9.853-9.88 5.443-.003 9.857 4.419 9.858 9.874v.006z" fill="#F16622"/><path d="M40.958 15.076c.001 5.454-4.409 9.878-9.854 9.879-5.442.002-9.855-4.42-9.857-9.874v-.005c-.002-5.455 4.41-9.879 9.853-9.88 5.443-.002 9.857 4.42 9.858 9.875v.005z" fill="#F7981D"/><path d="M17.819 5.198c-5.411.035-9.793 4.447-9.793 9.878 0 5.452 4.415 9.877 9.856 9.877 2.552 0 4.88-.976 6.631-2.574h.001c.36-.328.694-.681 1.001-1.059h-2.018a9.48 9.48 0 01-.735-1.016h3.482a9.96 9.96 0 00.574-1.058h-4.63a9.695 9.695 0 01-.413-1.037h5.455a9.961 9.961 0 00.28-5.248h-6.024c.075-.351.169-.699.28-1.038h5.458a9.912 9.912 0 00-.425-1.058h-4.612c.166-.355.355-.702.565-1.037h3.48a9.996 9.996 0 00-.765-1.058h-1.94c.3-.354.63-.687.988-.997a9.803 9.803 0 00-6.632-2.575h-.064z" fill="#CB2026"/><path d="M21.426 17.59l.132-.893c-.072 0-.178.03-.27.03-.366 0-.407-.194-.383-.338l.295-1.824h.555l.134-.99h-.523l.107-.614h-1.05c-.023.023-.62 3.459-.62 3.876 0 .62.347.895.836.891.383-.003.682-.11.787-.138zm.333-1.704c0 1.486.978 1.84 1.812 1.84.77 0 1.108-.173 1.108-.173l.186-1.015s-.586.26-1.115.26c-1.126 0-.929-.842-.929-.842h2.133s.137-.682.137-.96c0-.692-.344-1.537-1.496-1.537-1.056 0-1.836 1.14-1.836 2.427zm1.84-1.485c.592 0 .483.667.483.72h-1.165c0-.068.11-.72.682-.72zm6.645 3.189l.188-1.147s-.515.26-.869.26c-.744 0-1.042-.571-1.042-1.182 0-1.242.64-1.925 1.354-1.925.534 0 .963.3.963.3l.171-1.112s-.636-.26-1.181-.26c-1.212 0-2.39 1.053-2.39 3.032 0 1.311.636 2.178 1.888 2.178.354 0 .918-.144.918-.144zm-14.589-4.115a3.62 3.62 0 00-1.272.232l-.152.906s.456-.185 1.144-.185c.39 0 .676.044.676.362 0 .193-.035.265-.035.265s-.308-.026-.45-.026c-.908 0-1.861.388-1.861 1.559 0 .922.625 1.133 1.013 1.133.74 0 1.058-.48 1.076-.483l-.034.402h.923l.413-2.896c0-1.229-1.07-1.269-1.441-1.269zm.225 2.358c.02.177-.111 1.007-.743 1.007-.326 0-.41-.25-.41-.398 0-.287.155-.633.924-.633.179 0 .198.02.229.024zm2.198 1.867c.236 0 1.587.06 1.587-1.337 0-1.307-1.25-1.049-1.25-1.574 0-.26.204-.343.576-.343.148 0 .717.047.717.047l.133-.929s-.369-.082-.968-.082c-.777 0-1.564.31-1.564 1.373 0 1.205 1.314 1.083 1.314 1.59 0 .339-.368.366-.651.366-.489 0-.93-.168-.932-.16l-.14.919c.025.008.297.13 1.178.13zm20.858-5.058l-.226 1.407s-.395-.546-1.013-.546c-.962 0-1.763 1.162-1.763 2.497 0 .862.427 1.705 1.3 1.705.63 0 .977-.439.977-.439l-.045.375h1.02l.803-5.001-1.053.002zm-.487 2.745c0 .555-.275 1.297-.844 1.297-.378 0-.554-.318-.554-.817 0-.814.365-1.353.825-1.353.379 0 .573.26.573.873zM9.972 17.645l.64-3.775.093 3.775h.723l1.349-3.775-.598 3.775h1.074l.828-5.006H12.42l-1.035 3.071-.054-3.071h-1.53l-.84 5.006zm16.168.007c.306-1.74.363-3.154 1.092-2.896.128-.673.25-.933.39-1.219 0 0-.066-.014-.203-.014-.469 0-.818.644-.818.644l.093-.591h-.977l-.654 4.076h1.078zm6.525-4.177c-.72 0-1.271.232-1.271.232l-.152.906s.455-.185 1.143-.185c.39 0 .677.044.677.362 0 .193-.035.265-.035.265s-.308-.026-.452-.026c-.907 0-1.86.388-1.86 1.559 0 .922.625 1.133 1.013 1.133.74 0 1.06-.48 1.076-.483l-.034.402h.924l.412-2.896c0-1.229-1.069-1.269-1.441-1.269zm.225 2.358c.02.177-.11 1.007-.743 1.007-.325 0-.41-.25-.41-.398 0-.287.156-.633.924-.633.18 0 .199.02.23.024zm2.06 1.819c.306-1.74.362-3.154 1.092-2.896.128-.673.25-.933.39-1.219 0 0-.066-.014-.203-.014-.47 0-.818.644-.818.644l.094-.591h-.978l-.654 4.076h1.077z" fill="#FFF"/></g></g></svg>