<svg width="50" height="30" xmlns="http://www.w3.org/2000/svg"><g fill="none" fill-rule="evenodd"><rect width="50" height="30" rx="3"/><g fill-rule="nonzero"><path d="M36.09 12.617c-.93 0-1.665.247-2.228.36l-.173 1.414c.282-.136 1.169-.382 1.904-.405.737-.022 1.169.135 1.017.764-2.185 0-3.656.448-3.96 1.862-.432 2.424 2.23 2.357 3.29 1.302l-.13.583h1.947l.844-3.86c.346-1.639-1.147-2.042-2.51-2.02zm.13 3.95c-.107.516-.518.74-1.016.764-.433.022-.822-.36-.54-.809.216-.381.822-.471 1.19-.471h.476c-.044.18-.066.337-.11.516zm4.047-5.477l-1.611 7.407h1.977l1.632-7.406zm-9.088.023h-3.622l-1.604 7.384h2.103l.542-2.446h1.496c1.475 0 2.69-.898 3.015-2.424.369-1.728-.89-2.514-1.93-2.514zm-.064 2.514c-.13.561-.695 1.01-1.237 1.01h-.976l.434-2.02h1.04c.543 0 .868.449.739 1.01z" fill="#1A80AD"/><path d="M17.126 12.617c-.919 0-1.646.247-2.18.36l-.17 1.413c.256-.135 1.132-.38 1.859-.404.727-.023 1.154.135 1.025.763-2.158 0-3.611.449-3.91 1.863-.428 2.424 2.2 2.357 3.227 1.302l-.128.583h1.945l.833-3.861c.342-1.638-1.155-2.041-2.5-2.019zm.15 3.95c-.107.516-.535.74-1.026.764-.427.022-.79-.36-.513-.809.214-.381.812-.471 1.154-.471h.492c-.043.18-.086.337-.107.516zm3.198-3.843h1.945l.314 3.438 1.903-3.438h2.007l-4.621 8.23h-2.175l1.421-2.42zm-8.185-1.611H8.658l-1.609 7.384h2.13l.522-2.446h1.522c1.457 0 2.675-.898 3-2.424.37-1.728-.869-2.514-1.934-2.514zm-.065 2.514c-.13.561-.674 1.01-1.218 1.01h-1l.457-2.02h1.044c.521 0 .869.449.717 1.01zm30.185-1.579v-.873h-.326v-.117h.785v.117h-.328v.873zm.589 0v-.99h.196l.235.7.047.146.052-.158.239-.688h.176v.99h-.126v-.829l-.289.83h-.117l-.287-.844v.843h-.126z" fill="#1A5B80"/></g></g></svg>