<svg width="22" height="22" xmlns="http://www.w3.org/2000/svg"><path d="M21.75.957l-.001.1-.01.076-.022.089-7.01 20.026c-.21.603-1.014.67-1.338.16l-.054-.103-3.884-8.737L.695 8.685C.148 8.442.112 7.718.551 7.397l.094-.059.107-.046L20.737.297a.748.748 0 01.107-.03l.104-.016a.728.728 0 01.208.014l.001.001.05.012.1.037.09.048.055.039.078.068.05.053.063.09.032.06a.72.72 0 01.075.284zm-2.543 2.896l-8.313 8.313 3.023 6.801 5.29-15.114zm-1.06-1.061L3.032 8.082l6.801 3.024 8.314-8.314z" fill="#40AC60"/></svg>