<svg width="15" height="15" xmlns="http://www.w3.org/2000/svg"><path d="M7.2 0c2.866 0 5.198 2.246 5.198 5.007 0 .7-.15 1.366-.421 1.972l2.263 3.787a1 1 0 01-.954 1.509l-1.968-.189-.838 1.773a1 1 0 01-1.762.085L7.2 11.405l-1.518 2.54a1 1 0 01-1.762-.086l-.838-1.773-1.968.189a1 1 0 01-.953-1.509L2.425 6.98a4.822 4.822 0 01-.421-1.972C2.004 2.246 4.335 0 7.2 0zM3.664 8.67l-.934 1.563 1.55-.148.645 1.366.957-1.602a5.251 5.251 0 01-2.218-1.18zm7.075 0A5.251 5.251 0 018.52 9.85l.957 1.601.645-1.366 1.55.148zM7.2 1.862c-1.738 0-3.152 1.391-3.152 3.101S5.46 8.065 7.199 8.065c1.738 0 3.152-1.391 3.152-3.102 0-1.71-1.414-3.101-3.152-3.101z" fill="#FFF"/></svg>