<svg width="50" height="30" xmlns="http://www.w3.org/2000/svg"><g fill="none" fill-rule="evenodd"><rect width="50" height="30" rx="3"/><g fill-rule="nonzero"><path d="M19.561 19.772l1.619-9.56h2.621l-1.619 9.56zm11.953-9.313a6.807 6.807 0 00-2.35-.401c-2.59 0-4.415 1.297-4.431 3.155-.014 1.373 1.303 2.14 2.297 2.597 1.02.468 1.364.768 1.359 1.186-.006.64-.815.933-1.569.933-1.049 0-1.607-.145-2.468-.501l-.337-.153-.368 2.14c.612.268 1.744.499 2.92.51 2.755 0 4.545-1.28 4.565-3.266.01-1.087-.689-1.915-2.201-2.597-.917-.442-1.478-.737-1.472-1.185 0-.397.475-.822 1.501-.822a4.86 4.86 0 011.963.366l.234.11.357-2.072zm4.469-.247c-.628 0-1.082.192-1.358.814l-3.885 8.746h2.775l.54-1.465h3.316l.308 1.465h2.467l-2.158-9.56h-2.005zm-1.192 6.182c.217-.55 1.044-2.672 1.044-2.672-.015.025.216-.553.348-.912l.177.824.607 2.76h-2.176zm-20.011.371l-.23-1.31c-.478-1.528-1.963-3.181-3.627-4.01l2.316 8.327h2.776l4.163-9.56h-2.775l-2.622 6.553z" fill="#293688"/><path d="M8.073 10.212v.154c3.29.791 5.573 2.791 6.477 5.089l-.95-4.427c-.159-.605-.64-.795-1.209-.816H8.073z" fill="#F7981D"/></g></g></svg>