<svg width="40" height="40" viewBox="0 0 40 40" fill="none" xmlns="http://www.w3.org/2000/svg">
<path d="M30.5121 12.7058C29.1015 12.7058 27.954 13.8824 27.954 15.3287C27.954 16.7751 29.1015 17.9517 30.5121 17.9517C31.9227 17.9517 33.0702 16.7751 33.0702 15.3287C33.0702 13.8824 31.9227 12.7058 30.5121 12.7058ZM30.5121 16.9303C29.6508 16.9303 28.9501 16.2118 28.9501 15.3287C28.9501 14.4456 29.6508 13.7272 30.5121 13.7272C31.3734 13.7272 32.0741 14.4456 32.0741 15.3287C32.0741 16.2118 31.3735 16.9303 30.5121 16.9303Z" fill="#7800FF"/>
<path d="M30.5123 16.0354C30.893 16.0354 31.2016 15.719 31.2016 15.3288C31.2016 14.9385 30.893 14.6221 30.5123 14.6221C30.1317 14.6221 29.8231 14.9385 29.8231 15.3288C29.8231 15.719 30.1317 16.0354 30.5123 16.0354Z" fill="#7800FF"/>
<path d="M6.04847 29.6614C4.63788 29.6614 3.49036 30.838 3.49036 32.2843C3.49036 33.7306 4.63788 34.9072 6.04847 34.9072C7.45906 34.9072 8.60659 33.7306 8.60659 32.2843C8.60659 30.838 7.45906 29.6614 6.04847 29.6614ZM6.04847 33.8859C5.18719 33.8859 4.48647 33.1674 4.48647 32.2843C4.48647 31.4012 5.18719 30.6827 6.04847 30.6827C6.90975 30.6827 7.61047 31.4012 7.61047 32.2843C7.61047 33.1674 6.90984 33.8859 6.04847 33.8859Z" fill="#7800FF"/>
<path d="M6.04847 32.9906C6.42912 32.9906 6.7377 32.6742 6.7377 32.284C6.7377 31.8937 6.42912 31.5773 6.04847 31.5773C5.66783 31.5773 5.35925 31.8937 5.35925 32.284C5.35925 32.6742 5.66783 32.9906 6.04847 32.9906Z" fill="#7800FF"/>
<path d="M13.1393 2.54272C11.7287 2.54272 10.5812 3.71932 10.5812 5.16565C10.5812 6.61198 11.7287 7.78858 13.1393 7.78858C14.5499 7.78858 15.6974 6.61198 15.6974 5.16565C15.6974 3.71932 14.5499 2.54272 13.1393 2.54272ZM13.1393 6.76723C12.278 6.76723 11.5773 6.04875 11.5773 5.16565C11.5773 4.28255 12.278 3.56408 13.1393 3.56408C14.0006 3.56408 14.7013 4.28255 14.7013 5.16565C14.7013 6.04875 14.0006 6.76723 13.1393 6.76723Z" fill="#7800FF"/>
<path d="M13.1393 5.87211C13.5199 5.87211 13.8285 5.55571 13.8285 5.16542C13.8285 4.77513 13.5199 4.45874 13.1393 4.45874C12.7586 4.45874 12.4501 4.77513 12.4501 5.16542C12.4501 5.55571 12.7586 5.87211 13.1393 5.87211Z" fill="#7800FF"/>
<path d="M24.4592 29.3057H19.3016C19.0265 29.3057 18.8036 29.5343 18.8036 29.8163C18.8036 30.0984 19.0265 30.327 19.3016 30.327H24.4592C24.7343 30.327 24.9572 30.0984 24.9572 29.8163C24.9572 29.5343 24.7342 29.3057 24.4592 29.3057Z" fill="#7800FF"/>
<path d="M24.4592 31.8396H19.3016C19.0265 31.8396 18.8036 32.0682 18.8036 32.3503C18.8036 32.6324 19.0265 32.861 19.3016 32.861H24.4592C24.7343 32.861 24.9572 32.6324 24.9572 32.3503C24.9572 32.0682 24.7342 31.8396 24.4592 31.8396Z" fill="#7800FF"/>
<path d="M24.4592 34.3735H19.3016C19.0265 34.3735 18.8036 34.6021 18.8036 34.8842C18.8036 35.1663 19.0265 35.3949 19.3016 35.3949H24.4592C24.7343 35.3949 24.9572 35.1663 24.9572 34.8842C24.9572 34.6021 24.7342 34.3735 24.4592 34.3735Z" fill="#7800FF"/>
<path d="M38.6645 11.1274H34.3052V7.81066C34.3052 7.67519 34.2527 7.54529 34.1593 7.44957L27.0386 0.149582C26.9453 0.0538532 26.8186 0 26.6865 0H8.77161C8.4965 0 8.27355 0.228597 8.27355 0.510677V24.5682H0.498058C0.222949 24.5682 0 24.7968 0 25.0789V39.4893C0 39.7714 0.222949 40 0.498058 40H28.3273C28.6024 40 28.8253 39.7714 28.8253 39.4893V36.0558H33.8072C34.0823 36.0558 34.3052 35.8272 34.3052 35.5451V19.5302H38.6645C39.4009 19.5302 40 18.9159 40 18.1609V12.4968C40 11.7417 39.401 11.1274 38.6645 11.1274ZM27.1846 1.74345L32.6047 7.29998H27.1846V1.74345ZM27.8292 38.9787H0.996115V25.5895H27.8292V38.9787ZM33.3091 35.0345H28.8253V25.0789C28.8253 24.7968 28.6024 24.5682 28.3273 24.5682H9.26967V1.02135H26.1885V7.81066C26.1885 8.09274 26.4114 8.32134 26.6866 8.32134H33.3091V11.1274H27.7679C27.0315 11.1274 26.4324 11.7417 26.4324 12.4967V18.1608C26.4324 18.9158 27.0315 19.5301 27.7679 19.5301H33.3091V35.0345ZM39.0039 18.1609C39.0039 18.3528 38.8517 18.5089 38.6645 18.5089H27.7679C27.5807 18.5089 27.4285 18.3528 27.4285 18.1609V12.4968C27.4285 12.3049 27.5807 12.1488 27.7679 12.1488H38.6645C38.8517 12.1488 39.0039 12.3049 39.0039 12.4968V18.1609Z" fill="#7800FF"/>
<path d="M37.3529 13.9368H34.1294C33.8543 13.9368 33.6313 14.1654 33.6313 14.4474C33.6313 14.7295 33.8543 14.9581 34.1294 14.9581H37.3529C37.628 14.9581 37.851 14.7295 37.851 14.4474C37.851 14.1654 37.628 13.9368 37.3529 13.9368Z" fill="#7800FF"/>
<path d="M37.3529 15.6995H34.1294C33.8543 15.6995 33.6313 15.9281 33.6313 16.2101C33.6313 16.4922 33.8543 16.7208 34.1294 16.7208H37.3529C37.628 16.7208 37.851 16.4922 37.851 16.2101C37.851 15.9281 37.628 15.6995 37.3529 15.6995Z" fill="#7800FF"/>
<path d="M4.98656 23.6762C5.04705 23.8962 5.24292 24.0482 5.46587 24.0482C5.68882 24.0482 5.88469 23.8962 5.94519 23.6762L6.85074 20.3831C6.86315 20.338 6.86949 20.2914 6.86949 20.2445V2.92486C6.86949 2.64278 6.64654 2.41418 6.37143 2.41418H4.56031C4.2852 2.41418 4.06226 2.64278 4.06226 2.92486V20.2446C4.06226 20.2915 4.0685 20.3381 4.081 20.3832L4.98656 23.6762ZM5.21829 20.7553H5.71354L5.46587 21.6558L5.21829 20.7553ZM5.87337 3.43554V19.7339H5.05837V3.43554H5.87337Z" fill="#7800FF"/>
<path d="M0.498058 24.0483H2.30918C2.58429 24.0483 2.80723 23.8197 2.80723 23.5376V6.21789C2.80723 6.171 2.80099 6.12439 2.78849 6.07926L1.88293 2.78624C1.82244 2.56618 1.62657 2.41418 1.40362 2.41418C1.18067 2.41418 0.984796 2.56618 0.924304 2.78624L0.0187451 6.07926C0.00624836 6.12439 0 6.171 0 6.21789V23.5376C0 23.8196 0.222949 24.0483 0.498058 24.0483ZM0.996115 23.027V6.72857H1.81112V23.027H0.996115ZM1.65129 5.70721H1.15595L1.40362 4.80666L1.65129 5.70721Z" fill="#7800FF"/>
</svg>
