<?xml version="1.0" encoding="utf-8"?>
<!-- Generator: Adobe Illustrator 22.1.0, SVG Export Plug-In . SVG Version: 6.00 Build 0)  -->
<svg version="1.1" id="Слой_1" xmlns="http://www.w3.org/2000/svg" xmlns:xlink="http://www.w3.org/1999/xlink" x="0px" y="0px"
	 viewBox="0 0 360 360" style="enable-background:new 0 0 360 360;" xml:space="preserve">
<style type="text/css">
	.st0{fill:#FCEBB1;}
	.st1{fill:#FDBF00;}
	.st2{fill:#2A2A29;}
</style>
<path class="st0" d="M93.8,316c-13.5,0-24.4-11-24.5-24.5v-132h-30v162c0,13.5,11,24.4,24.5,24.5h232.5c13.5,0,24.4-11,24.5-24.5
	V316L93.8,316z"/>
<path class="st0" d="M47.1,125.6V84.2h-5.5c-13.5,0-24.4,11-24.5,24.5v36.9h117v-20H47.1z"/>
<path class="st1" d="M180.3,84.2c-2.8,0-5.4-1.7-6.5-4.3c-1.1-2.6-0.5-5.6,1.5-7.6l61.6-61.6c14.2-14.2,37.3-14.2,51.5,0
	s14.2,37.3,0,51.5L269.2,82c-2.7,2.7-7.1,2.8-9.9,0.1c-2.8-2.7-2.8-7.1-0.2-9.9l19.3-19.8c8.8-8.8,8.8-23,0.1-31.8s-23-8.8-31.7-0.1
	l-61.6,61.6C183.9,83.5,182.2,84.2,180.3,84.2z"/>
<path class="st1" d="M97.8,83.8c-1.9,0-3.6-0.7-4.9-2l-5.1-5.1c-14.2-14.2-14.1-37.3,0.1-51.5s37.2-14.2,51.4-0.1l46.6,46.6
	c2.7,2.7,2.7,7.2,0,9.9c-2.7,2.7-7.2,2.7-9.9,0L129.4,35c-8.8-8.8-23-8.8-31.7,0s-8.8,23,0,31.7l5.1,5.1c2,2,2.6,5,1.5,7.6
	C103.2,82.1,100.6,83.8,97.8,83.8L97.8,83.8z"/>
<g>
	<path class="st2" d="M155.9,243.8c11.5,0,20.7-9.3,20.7-20.7s-9.3-20.7-20.7-20.7c-11.5,0-20.7,9.3-20.7,20.7
		C135.2,234.5,144.4,243.8,155.9,243.8z M155.9,216.3c3.7,0,6.7,3,6.7,6.7c0,3.7-3,6.7-6.7,6.7c-3.7,0-6.7-3-6.7-6.7
		C149.1,219.3,152.2,216.3,155.9,216.3z"/>
	<path class="st2" d="M182.4,278c0,11.5,9.3,20.7,20.7,20.7c11.5,0,20.7-9.3,20.7-20.7s-9.3-20.7-20.7-20.7
		C191.7,257.3,182.4,266.6,182.4,278z M209.9,278c0,3.7-3,6.7-6.7,6.7c-3.7,0-6.7-3-6.7-6.7c0-3.7,3-6.7,6.7-6.7
		C206.9,271.3,209.9,274.3,209.9,278z"/>
	<path class="st1" d="M10.1,159.5h15.2v162c0,21.2,17.2,38.4,38.5,38.5h232.5c21.2,0,38.4-17.2,38.5-38.5v-162H350c3.9,0,7-3.1,7-7
		v-43.9c0-21.2-17.2-38.4-38.5-38.5h-277c-21.2,0-38.4,17.2-38.5,38.5v43.9C3.1,156.4,6.3,159.5,10.1,159.5z M320.8,321.5
		c0,13.5-11,24.4-24.5,24.5H63.8c-13.5,0-24.4-11-24.5-24.5v-162h281.4V321.5z M228,84.2h90.5c13.5,0,24.4,11,24.5,24.5v36.9H228
		V84.2z M148.1,84.2h66v61.4h-66V84.2z M17.1,108.7c0-13.5,11-24.4,24.5-24.5h92.5v61.4h-117V108.7z"/>
	<path class="st2" d="M155.3,287.9c3.2,2.1,7.6,1.2,9.7-2l44-67.5c1.4-2.1,1.6-4.8,0.4-7c-1.1-2.2-3.4-3.7-5.9-3.8
		c-2.5-0.1-4.9,1.1-6.3,3.2l-44,67.5C151.2,281.5,152.1,285.8,155.3,287.9z"/>
</g>
</svg>
