<svg id="Слой_1" data-name="Слой 1" xmlns="http://www.w3.org/2000/svg" viewBox="0 0 393 363.6"><defs><style>.cls-1{fill:#fcebb1;}.cls-2{fill:#2a2a29;}.cls-3{fill:#fdbf00;}</style></defs><title>dostavka</title><path class="cls-1" d="M119.09,28.93H89.16A8.78,8.78,0,0,0,81.73,33l-62,97.3H49.64l62-97.3A8.77,8.77,0,0,1,119.09,28.93Z" transform="translate(0 -14.96)"/><path class="cls-1" d="M52.69,334.67a8.82,8.82,0,0,1-8.81-8.81V144.26H14V355.78a8.82,8.82,0,0,0,8.81,8.81H370.22a8.8,8.8,0,0,0,8.81-8.81V334.67Z" transform="translate(0 -14.96)"/><path class="cls-2" d="M106.73,338.66H46.88a7,7,0,0,1-7-7V297.76a7,7,0,0,1,7-7h59.85a7,7,0,0,1,7,7v33.92A7,7,0,0,1,106.73,338.66Zm-52.87-14H99.74V304.74H53.86Z" transform="translate(0 -14.96)"/><path class="cls-2" d="M231.41,304.74H140.64a7,7,0,1,1,0-14h90.77a7,7,0,0,1,0,14Z" transform="translate(0 -14.96)"/><path class="cls-2" d="M186.52,330.68H140.64a7,7,0,0,1,0-14h45.88a7,7,0,1,1,0,14Z" transform="translate(0 -14.96)"/><path class="cls-3" d="M89.16,15A22.68,22.68,0,0,0,70,25.49l-68.87,108a.41.41,0,0,1-.05.09,7.73,7.73,0,0,0-.37.69c0,.05-.05.09-.07.14a7.79,7.79,0,0,0-.31.85l0,.11a6.85,6.85,0,0,0-.16.76c0,.07,0,.14,0,.22a6.54,6.54,0,0,0-.06.89v218.5a22.8,22.8,0,0,0,22.77,22.78H370.22A22.79,22.79,0,0,0,393,355.78V137.28a6.8,6.8,0,0,0-.06-.9c0-.07,0-.14,0-.21a6,6,0,0,0-.16-.76l0-.12a6.66,6.66,0,0,0-.31-.85l-.07-.13a5.7,5.7,0,0,0-.37-.69.53.53,0,0,0-.06-.1L323,25.49A22.69,22.69,0,0,0,303.83,15ZM81.73,33a8.78,8.78,0,0,1,7.43-4.07H189.52V130.3H19.71Zm65.64,111.26h98.25V230L239,222.91a7,7,0,0,0-10.19,0l-13.6,14.51L201.6,222.91a7,7,0,0,0-10.19,0L177.8,237.42l-13.61-14.51a7,7,0,0,0-10.19,0L147.37,230ZM370.22,364.59H22.77A8.82,8.82,0,0,1,14,355.78V144.26H133.4V247.63a7,7,0,0,0,12.08,4.78l13.61-14.52,13.62,14.52a7,7,0,0,0,10.19,0l13.61-14.52,13.61,14.52a7,7,0,0,0,10.18,0l13.6-14.52,13.61,14.52a7,7,0,0,0,12.08-4.78V144.26H379V355.78a8.8,8.8,0,0,1-8.81,8.81ZM311.27,33l62,97.3H203.48V28.93H303.83A8.79,8.79,0,0,1,311.27,33Z" transform="translate(0 -14.96)"/></svg>