<svg id="Слой_1" data-name="Слой 1" xmlns="http://www.w3.org/2000/svg" viewBox="0 0 484 334"><defs><style>.cls-1{fill:#fcebb1;}.cls-2{fill:#2a2a29;}.cls-3{fill:#fdbf00;}</style></defs><title>oplata</title><path class="cls-1" d="M417,365H77a33,33,0,0,1-33-33V132c0-1,.1-1.9.1-2.9A33.05,33.05,0,0,0,14,162V362a33,33,0,0,0,33,33H387a33.05,33.05,0,0,0,32.9-30.1C418.9,364.9,418,365,417,365Z" transform="translate(0 -75)"/><path class="cls-2" d="M477,151.5H423a7,7,0,0,1,0-14h54a7,7,0,0,1,0,14Z" transform="translate(0 -75)"/><path class="cls-2" d="M477,194.5H427a7,7,0,0,1,0-14h50a7,7,0,0,1,0,14Z" transform="translate(0 -75)"/><path class="cls-2" d="M7,191.5H427a7,7,0,0,0,0-14H7a7,7,0,0,0,0,14Z" transform="translate(0 -75)"/><path class="cls-2" d="M427,220.5H7a7,7,0,0,0,0,14H427a7,7,0,0,0,0-14Z" transform="translate(0 -75)"/><path class="cls-2" d="M345.2,274.4a45.22,45.22,0,0,0-21,5.1,45.8,45.8,0,1,0,0,81.4,45.8,45.8,0,1,0,42-81.4A45.22,45.22,0,0,0,345.2,274.4Zm-73.8,45.8A31.8,31.8,0,1,1,303.2,352,31.82,31.82,0,0,1,271.4,320.2Zm73.8,31.7a32.24,32.24,0,0,1-8.1-1.1,45.69,45.69,0,0,0,0-61.4,31.75,31.75,0,0,1,16.2,61.4A28.24,28.24,0,0,1,345.2,351.9Z" transform="translate(0 -75)"/><path class="cls-3" d="M437,75H97a47.09,47.09,0,0,0-46.5,40H47A47.07,47.07,0,0,0,0,162V362a47.07,47.07,0,0,0,47,47H387a47.09,47.09,0,0,0,46.5-40H437a47.07,47.07,0,0,0,47-47V122A47.07,47.07,0,0,0,437,75ZM420,362a33,33,0,0,1-33,33H47a33,33,0,0,1-33-33V162a33,33,0,0,1,33-33H387a33,33,0,0,1,33,33Zm50-40a33,33,0,0,1-33,33h-3V162a47.07,47.07,0,0,0-47-47H64.8A33,33,0,0,1,97,89H437a33,33,0,0,1,33,33Z" transform="translate(0 -75)"/></svg>