<?xml version="1.0" encoding="utf-8"?>
<!-- Generator: Adobe Illustrator 23.0.3, SVG Export Plug-In . SVG Version: 6.00 Build 0)  -->
<svg version="1.1" id="Layer_1" xmlns="http://www.w3.org/2000/svg" xmlns:xlink="http://www.w3.org/1999/xlink" x="0px" y="0px"
	 viewBox="0 0 183 37" style="enable-background:new 0 0 183 37;" xml:space="preserve">
<style type="text/css">
	.st0{fill:#EE3358;}
</style>
<g>
	<path class="st0" d="M18.84,21.15H8.41L20.47,5.08c0.33-0.44,0.5-1.02,0.5-1.72c0-1.67-0.91-2.58-2.57-2.58H3.57
		C1.91,0.77,1,1.69,1,3.35c0,1.67,0.91,2.59,2.57,2.59H13.6L1.5,22.01C1.17,22.45,1,23.03,1,23.73c0,1.67,0.91,2.58,2.57,2.58h15.27
		c1.66,0,2.57-0.92,2.57-2.58C21.42,22.07,20.5,21.15,18.84,21.15L18.84,21.15z"/>
	<path class="st0" d="M32.72,6.61c1.13-0.69,2.41-1.03,3.81-1.03c1.4,0,2.68,0.35,3.81,1.03c1.13,0.69,2.03,1.65,2.67,2.86
		c0.65,1.22,0.97,2.59,0.97,4.1c0,1.5-0.33,2.87-0.97,4.07c-0.64,1.19-1.54,2.15-2.67,2.84c-1.13,0.69-2.41,1.03-3.81,1.03
		c-1.4,0-2.68-0.35-3.81-1.03c-1.13-0.69-2.04-1.64-2.7-2.84c-0.66-1.2-0.99-2.57-0.99-4.07c0-1.5,0.33-2.88,0.99-4.09
		C30.68,8.26,31.59,7.3,32.72,6.61L32.72,6.61z M47.62,6.97C46.49,5,44.95,3.43,43.02,2.3v0c-1.93-1.13-4.11-1.71-6.48-1.71
		c-2.37,0-4.57,0.57-6.53,1.7c-1.96,1.13-3.52,2.7-4.63,4.67c-1.11,1.97-1.67,4.19-1.67,6.6c0,2.41,0.52,4.62,1.55,6.59
		c1.03,1.97,2.48,3.54,4.29,4.66c1.81,1.12,3.86,1.69,6.09,1.69c1.79,0,3.49-0.38,5.04-1.13c1.17-0.57,2.22-1.31,3.14-2.22v0.45
		c0,0.79,0.26,1.45,0.79,1.97c0.52,0.52,1.18,0.79,1.97,0.79c0.78,0,1.44-0.27,1.97-0.79c0.52-0.52,0.79-1.19,0.79-1.97V13.57
		C49.32,11.16,48.75,8.94,47.62,6.97L47.62,6.97z"/>
	<path class="st0" d="M100.08,1.28c-0.96-0.51-2.29-0.77-3.94-0.77c-1.55,0-3.03,0.32-4.4,0.94c-1,0.46-1.89,1.04-2.66,1.75
		c-0.1-1.57-1.05-2.42-2.7-2.42c-0.84,0-1.51,0.24-1.99,0.72c-0.48,0.48-0.72,1.15-0.72,2V23.6c0,0.88,0.24,1.56,0.73,2.03
		c0.48,0.46,1.14,0.69,1.98,0.69c0.88,0,1.55-0.25,2.02-0.73c0.46-0.48,0.69-1.15,0.69-1.99V10.46c0-1.54,0.58-2.72,1.78-3.63
		c1.22-0.92,2.88-1.39,4.91-1.39c0.71,0,1.67,0.1,2.82,0.31c0.33,0.07,0.58,0.1,0.76,0.1c1.14,0,1.92-0.62,2.24-1.76
		c0.05-0.14,0.07-0.33,0.07-0.6C101.67,2.59,101.13,1.84,100.08,1.28L100.08,1.28z"/>
	<path class="st0" d="M112.3,6.61c1.13-0.69,2.41-1.03,3.81-1.03c1.4,0,2.68,0.35,3.81,1.03c1.13,0.69,2.03,1.65,2.67,2.86
		c0.65,1.22,0.98,2.59,0.98,4.1c0,1.5-0.33,2.87-0.97,4.07c-0.64,1.19-1.54,2.15-2.67,2.84c-1.13,0.69-2.41,1.03-3.81,1.03
		c-1.4,0-2.68-0.35-3.81-1.03c-1.13-0.69-2.04-1.64-2.7-2.84c-0.66-1.2-0.99-2.57-0.99-4.07c0-1.5,0.33-2.88,1-4.09
		C110.26,8.26,111.17,7.3,112.3,6.61L112.3,6.61z M127.2,6.97c-1.13-1.97-2.68-3.54-4.6-4.67l0,0c-1.93-1.13-4.11-1.71-6.48-1.71
		c-2.37,0-4.57,0.57-6.53,1.7c-1.96,1.13-3.52,2.7-4.63,4.67c-1.11,1.97-1.67,4.19-1.67,6.6c0,2.41,0.52,4.62,1.55,6.59
		c1.03,1.97,2.48,3.54,4.29,4.66c1.81,1.12,3.86,1.69,6.09,1.69c1.79,0,3.49-0.38,5.04-1.13c1.17-0.57,2.22-1.31,3.14-2.22v0.45
		c0,0.79,0.26,1.45,0.79,1.97c0.52,0.52,1.18,0.79,1.97,0.79c0.78,0,1.44-0.27,1.97-0.79c0.52-0.52,0.79-1.19,0.79-1.97V13.57
		C128.9,11.16,128.32,8.94,127.2,6.97L127.2,6.97z"/>
	<path class="st0" d="M154.7,2.04L154.7,2.04c-0.26-0.39-0.62-0.69-1.08-0.9c-0.73-0.37-1.75-0.38-2.57,0.08
		c-0.42,0.24-0.75,0.59-0.98,1.05L142.8,18.2l-7.37-15.96c-0.22-0.44-0.54-0.79-0.94-1.03c-0.8-0.47-1.77-0.44-2.42-0.08
		c-1.25,0.63-1.51,1.58-1.51,2.26c0,0.37,0.08,0.72,0.22,1.01l9.5,20.12c0.31,0.62,0.65,1.05,1.05,1.33
		c0.41,0.28,0.92,0.42,1.52,0.42c0.77,0,1.83-0.31,2.48-1.75l9.49-20.1c0.18-0.36,0.27-0.72,0.27-1.07
		C155.09,2.87,154.96,2.43,154.7,2.04L154.7,2.04z"/>
	<path class="st0" d="M165.91,6.61c1.13-0.69,2.41-1.03,3.81-1.03c1.4,0,2.68,0.35,3.81,1.03c1.13,0.69,2.03,1.65,2.67,2.86
		c0.65,1.22,0.97,2.59,0.97,4.1c0,1.5-0.33,2.87-0.97,4.07c-0.64,1.19-1.54,2.15-2.67,2.84c-1.13,0.69-2.41,1.03-3.81,1.03
		c-1.4,0-2.68-0.35-3.81-1.03c-1.13-0.69-2.04-1.64-2.7-2.84c-0.66-1.2-0.99-2.57-0.99-4.07c0-1.5,0.33-2.88,1-4.09
		C163.87,8.26,164.77,7.3,165.91,6.61L165.91,6.61z M180.8,6.97c-1.13-1.97-2.68-3.54-4.6-4.67l0,0c-1.93-1.13-4.11-1.71-6.48-1.71
		c-2.37,0-4.57,0.57-6.53,1.7c-1.96,1.13-3.52,2.7-4.63,4.67c-1.11,1.97-1.67,4.19-1.67,6.6c0,2.41,0.52,4.62,1.55,6.59
		c1.03,1.97,2.48,3.54,4.29,4.66c1.81,1.12,3.86,1.69,6.09,1.69c1.79,0,3.49-0.38,5.04-1.13c1.17-0.57,2.22-1.31,3.14-2.22v0.45
		c0,0.79,0.26,1.45,0.79,1.97c0.52,0.52,1.18,0.79,1.97,0.79c0.78,0,1.44-0.27,1.97-0.79c0.52-0.52,0.79-1.19,0.79-1.97V13.57
		C182.5,11.16,181.93,8.94,180.8,6.97L180.8,6.97z"/>
	<path class="st0" d="M73.86,14.53L62.1,21.35c-0.76,0.44-1.7-0.11-1.7-0.99V6.72c0-0.88,0.94-1.42,1.7-0.99l11.77,6.82
		C74.62,13,74.62,14.09,73.86,14.53L73.86,14.53z M77.45,6.86c-1.1-1.96-2.63-3.51-4.57-4.61h0c-1.93-1.1-4.14-1.66-6.57-1.66
		c-2.46,0-4.69,0.56-6.63,1.66c-1.95,1.1-3.49,2.66-4.57,4.61c-1.08,1.95-1.63,4.21-1.63,6.71c0,2.46,0.51,4.7,1.51,6.65
		c1.01,1.96,2.43,3.51,4.25,4.62c1.81,1.11,3.89,1.67,6.18,1.67c1.99,0,3.8-0.49,5.39-1.46c1.14-0.7,2.14-1.6,2.96-2.7v0.63
		c0,1.8-0.34,3.37-1.02,4.66c-0.67,1.28-1.58,2.26-2.69,2.92c-1.12,0.66-2.38,0.99-3.75,0.99c-1.48,0-2.81-0.27-3.97-0.79
		c-1.15-0.52-2.11-1.28-2.87-2.26c-0.57-0.75-1.31-1.13-2.21-1.13c-0.51,0-1.02,0.16-1.53,0.49c-0.75,0.54-1.14,1.21-1.14,2
		c0,0.53,0.2,1.05,0.59,1.55c1.3,1.64,2.92,2.92,4.83,3.8c1.9,0.88,3.99,1.33,6.2,1.33c2.46,0,4.7-0.59,6.66-1.75
		c1.96-1.16,3.5-2.78,4.59-4.79c1.08-2.01,1.62-4.27,1.62-6.7v-9.72C79.1,11.07,78.54,8.81,77.45,6.86L77.45,6.86z"/>
</g>
</svg>
