<svg width="48" height="74" viewBox="0 0 48 74" fill="none" xmlns="http://www.w3.org/2000/svg">
<path d="M7.35811 22.3827C7.08733 22.3827 6.86865 21.8697 6.86865 21.2358V0.973162C6.86865 0.338648 7.08733 0 7.35811 0C7.62889 0 7.84757 0.338648 7.84757 0.973162V21.2358C7.84757 21.8686 7.62889 22.3827 7.35811 22.3827Z" fill="#C5A26D"/>
<path d="M16.1685 22.3827C15.898 22.3827 15.6791 21.8698 15.6791 21.2359V0.973162C15.6791 0.338711 15.898 0 16.1685 0C16.4393 0 16.658 0.338711 16.658 0.973162V21.2359C16.658 21.8687 16.4393 22.3827 16.1685 22.3827Z" fill="#C5A26D"/>
<path d="M15.6789 0.973698H7.84757C7.17079 0.973698 6.86865 0.756185 6.86865 0.486849C6.86865 0.217513 7.17079 0 7.84757 0H15.6789C16.3557 0 16.6578 0.217513 16.6578 0.486849C16.6578 0.756185 16.3557 0.973698 15.6789 0.973698Z" fill="#C5A26D"/>
<path d="M0.505571 72.0149C0.234792 72.0149 0.0161133 71.4956 0.0161133 70.8525V31.3314C0.0161133 30.6889 0.234792 30.1689 0.505571 30.1689C0.776351 30.1689 0.99503 30.6889 0.99503 31.3314V70.8525C0.99503 71.4956 0.776351 72.0149 0.505571 72.0149Z" fill="#C5A26D"/>
<path d="M23.0207 72.0139C22.7499 72.0139 22.5312 71.4946 22.5312 70.8515V31.3304C22.5312 30.6879 22.7499 30.168 23.0207 30.168C23.2915 30.168 23.5102 30.6879 23.5102 31.3304V70.8515C23.5102 71.4946 23.2915 72.0139 23.0207 72.0139Z" fill="#C5A26D"/>
<path d="M0.505712 33.6267C-0.138941 33.6267 0.0164384 32.323 0.0164384 31.6821C0.0164384 26.7798 2.46354 23.3554 6.86867 21.4087C7.47804 21.196 7.1459 20.804 7.35812 21.4075C7.57377 22.0111 7.96409 22.1703 7.35812 22.3824C3.64212 23.689 0.995355 27.7583 0.995355 31.6804C0.995355 32.3224 1.15036 33.6267 0.505712 33.6267Z" fill="#C5A26D"/>
<path d="M23.0208 33.573C23.6654 33.573 23.5101 32.3205 23.5101 31.6796C23.5101 26.7773 20.8974 23.3546 16.4923 21.4079C15.8829 21.1952 15.6787 20.9219 15.6787 21.4089C15.6787 21.8951 15.6009 22.2403 16.0028 22.3816C19.7188 23.6882 22.5312 27.7575 22.5312 31.6796C22.5312 32.3216 22.3761 33.573 23.0208 33.573Z" fill="#C5A26D"/>
<path d="M3.51192 73.9997C1.48449 73.96 0.0161131 72.9869 0.0161196 70.5244C0.0159436 69.5808 0.0161131 69.5808 0.505437 69.5808C0.99476 69.5808 0.994895 70.3997 0.994895 71.0406C0.994895 71.6797 2.30978 72.9869 2.95273 72.9869C3.59738 72.9869 4.91053 73.0893 4.91053 73.4735C4.91053 73.8576 4.15658 73.9997 3.51192 73.9997Z" fill="#C5A26D"/>
<path d="M20.0146 73.999C22.042 73.9593 23.5104 72.9861 23.5104 70.5237C23.5105 69.5801 23.5104 69.5801 23.0211 69.5801C22.5317 69.5801 22.5316 70.399 22.5316 71.0398C22.5316 71.679 21.2167 72.9861 20.5738 72.9861C19.9291 72.9861 18.616 73.0886 18.616 73.4727C18.616 73.8569 19.3699 73.999 20.0146 73.999Z" fill="#C5A26D"/>
<path d="M19.4111 73.96H3.13658C2.49348 73.96 1.97412 73.7425 1.97412 73.4732C1.97412 73.2038 2.49348 72.9863 3.13658 72.9863H19.4111C20.0542 72.9863 20.5735 73.2038 20.5735 73.4732C20.5735 73.7425 20.0542 73.96 19.4111 73.96Z" fill="#C5A26D"/>
<path d="M15.4345 6.81159H8.092C7.41522 6.81159 6.86865 6.59384 6.86865 6.32474C6.86865 6.0554 7.41522 5.83789 8.092 5.83789H15.4345C16.1113 5.83789 16.6578 6.0554 16.6578 6.32474C16.6578 6.59384 16.1113 6.81159 15.4345 6.81159Z" fill="#C5A26D"/>
<path d="M15.4345 18.4913H8.092C7.41522 18.4913 6.86865 18.2738 6.86865 18.0044C6.86865 17.7351 7.41522 17.5176 8.092 17.5176H15.4345C16.1113 17.5176 16.6578 17.7351 16.6578 18.0044C16.6578 18.2738 16.1113 18.4913 15.4345 18.4913Z" fill="#C5A26D"/>
<path d="M18.6156 64.2295H4.9108C4.26615 64.2295 3.93188 63.8972 3.93188 63.2564V36.981C3.93188 36.3401 4.26615 36.0078 4.9108 36.0078H18.6156C19.2603 36.0078 19.5945 36.3401 19.5945 36.981V63.2564C19.5945 63.8972 19.2603 64.2295 18.6156 64.2295ZM4.9108 63.2564H18.6156V36.981H4.9108V63.2564Z" fill="#C5A26D"/>
<ellipse cx="11.7633" cy="49.6324" rx="2.93675" ry="2.91949" fill="white"/>
<path d="M14.7 49.6324C14.7 51.2448 13.3852 52.5519 11.7633 52.5519C10.1414 52.5519 8.82654 51.2448 8.82654 49.6324C8.82654 48.02 10.1414 46.7129 11.7633 46.7129C13.3852 46.7129 14.7 48.02 14.7 49.6324ZM9.85057 49.6324C9.85057 50.6825 10.7069 51.5338 11.7633 51.5338C12.8197 51.5338 13.676 50.6825 13.676 49.6324C13.676 48.5822 12.8197 47.7309 11.7633 47.7309C10.7069 47.7309 9.85057 48.5822 9.85057 49.6324Z" fill="#C5A26D"/>
<ellipse cx="8.82652" cy="45.7378" rx="2.93675" ry="2.91949" fill="white"/>
<path d="M11.7633 45.7378C11.7633 47.3502 10.4484 48.6573 8.82652 48.6573C7.2046 48.6573 5.88977 47.3502 5.88977 45.7378C5.88977 44.1255 7.2046 42.8184 8.82652 42.8184C10.4484 42.8184 11.7633 44.1255 11.7633 45.7378ZM6.9138 45.7378C6.9138 46.788 7.77016 47.6393 8.82652 47.6393C9.88288 47.6393 10.7392 46.788 10.7392 45.7378C10.7392 44.6877 9.88288 43.8364 8.82652 43.8364C7.77016 43.8364 6.9138 44.6877 6.9138 45.7378Z" fill="#C5A26D"/>
<ellipse cx="14.6999" cy="45.7378" rx="2.93675" ry="2.91949" fill="white"/>
<path d="M17.6367 45.7378C17.6367 47.3502 16.3219 48.6573 14.6999 48.6573C13.078 48.6573 11.7632 47.3502 11.7632 45.7378C11.7632 44.1255 13.078 42.8184 14.6999 42.8184C16.3219 42.8184 17.6367 44.1255 17.6367 45.7378ZM12.7872 45.7378C12.7872 46.788 13.6436 47.6393 14.6999 47.6393C15.7563 47.6393 16.6126 46.788 16.6126 45.7378C16.6126 44.6877 15.7563 43.8364 14.6999 43.8364C13.6436 43.8364 12.7872 44.6877 12.7872 45.7378Z" fill="#C5A26D"/>
<path d="M11.7633 47.5939C12.0341 47.5939 12.2528 47.1191 12.2528 46.5323V42.8166C12.2528 41.8443 12.2528 40.8711 11.7633 40.8711C11.2739 40.8711 11.2739 41.8443 11.2739 42.8166V46.5323C11.2739 47.1191 11.4926 47.5939 11.7633 47.5939Z" fill="#C5A26D"/>
<path d="M15.4345 55.4717H8.092C7.41522 55.4717 6.86865 55.4717 6.86865 54.9849C6.86865 54.498 7.41522 54.498 8.092 54.498H15.4345C16.1113 54.498 16.6578 54.498 16.6578 54.9849C16.6578 55.4717 16.1113 55.4717 15.4345 55.4717Z" fill="#C5A26D"/>
<path d="M12.7416 58.3897H10.7847C10.2429 58.3897 9.80542 58.3897 9.80542 57.9029C9.80542 57.416 10.2429 57.416 10.7847 57.416H12.7416C13.2829 57.416 13.7209 57.416 13.721 57.9029C13.7211 58.3897 13.2829 58.3897 12.7416 58.3897Z" fill="#C5A26D"/>
<path d="M38.6834 58.3912C32.9003 58.3912 28.4048 54.4075 28.4048 48.6596C28.4048 48.0193 28.5063 47.3633 29.1504 47.3633C29.795 47.3633 29.3837 48.0193 29.3837 48.6596C29.3837 53.1298 32.3205 57.418 38.6834 57.418C45.0464 57.418 47.0042 53.1298 47.0042 48.6596C47.0042 48.0193 47.1477 47.3633 47.7924 47.3633C47.9831 48.173 47.9831 48.0193 47.9831 48.6596C47.9831 54.4075 44.4654 58.3912 38.6834 58.3912Z" fill="#C5A26D"/>
<path d="M29.3837 49.632C29.4428 49.641 29.3245 49.632 29.3837 49.632C28.747 49.5347 28.3069 49.2913 28.4047 48.6589L30.3625 34.0614C30.461 33.429 31.0171 32.2326 31.6543 32.3254C32.2904 32.4227 31.4393 33.4291 31.3415 34.0615L29.3837 48.6589C29.2944 49.2307 29.3837 49.1454 29.3837 49.632Z" fill="#C5A26D"/>
<path d="M47.9829 48.6589C47.9237 48.6679 48.0421 48.6589 47.9829 48.6589C48.0808 49.2913 47.4936 49.1455 47.9829 48.6589L46.572 34.0611C46.4735 33.4287 45.6832 32.0229 45.046 32.1157C44.4099 32.213 45.4952 33.4288 45.593 34.0612L47.0041 48.6589C47.9257 48.6591 47.568 48.6181 47.9829 48.6589Z" fill="#C5A26D"/>
<path d="M45.0465 33.0884H31.3417C30.684 33.0884 30.3628 34.3305 30.3628 34.0616C30.3628 33.7924 30.684 32.1152 31.3417 32.1152H45.0754C45.7325 32.1152 46.5149 33.7924 46.5149 34.0616C46.5149 34.3305 45.7037 33.0884 45.0465 33.0884Z" fill="#C5A26D"/>
<path d="M38.6835 73.9598C38.413 73.9598 38.1941 73.4668 38.1941 72.8563V58.5195C38.1941 57.9096 38.413 57.416 38.6835 57.416C38.9543 57.416 39.173 57.9096 39.173 58.5195V72.8563C39.173 73.4668 38.9543 73.9598 38.6835 73.9598Z" fill="#C5A26D"/>
<path d="M46.8205 73.96H30.5463C29.9031 73.96 29.3837 73.7425 29.3837 73.4732C29.3837 73.2038 29.9031 72.9863 30.5463 72.9863H46.8205C47.4631 72.9863 47.9831 73.2038 47.9831 73.4732C47.9831 73.7425 47.4631 73.96 46.8205 73.96Z" fill="#C5A26D"/>
<path d="M47.8203 48.6592H29.5465C28.9149 48.6592 28.4048 48.4417 28.4048 48.1724C28.4048 47.9033 28.9149 47.6855 29.5465 47.6855H47.8203C47.4937 48.1724 47.9831 48.3901 47.9831 48.6592C47.9831 48.9286 47.4937 47.6855 47.8203 48.6592Z" fill="#C5A26D"/>
</svg>
