<svg width="98" height="58" viewBox="0 0 98 58" fill="none" xmlns="http://www.w3.org/2000/svg">
<path fill-rule="evenodd" clip-rule="evenodd" d="M48.8667 9.30529C48.1967 9.30529 47.2951 9.04805 46.3351 8.55067C45.3888 8.06034 44.469 7.37937 43.766 6.63087C43.0491 5.86757 42.6369 5.12011 42.5453 4.50451C42.4665 3.97507 42.6047 3.45764 43.2527 2.9501C46.567 0.354215 51.048 0.342701 54.4924 2.95915C55.1704 3.47411 55.3094 3.9927 55.2355 4.5103C55.1486 5.11907 54.7377 5.86341 54.0134 6.62758C53.304 7.37611 52.3737 8.05785 51.4174 8.54907C50.4473 9.04742 49.5377 9.30529 48.8667 9.30529ZM46.172 9.58634C42.9484 8.04763 39.7871 4.39426 42.6361 2.16284C46.3179 -0.720946 51.3009 -0.720946 55.0973 2.16284C58.0258 4.38739 54.8448 8.02514 51.605 9.57207C61.447 10.177 70.7601 14.1936 77.7755 20.9196C85.1611 28.0005 89.4147 37.5228 89.6814 47.508C89.6842 47.6126 89.6866 47.7172 89.6885 47.8219H96C97.1046 47.8219 98 48.7174 98 49.8219V56C98 57.1046 97.1046 58 96 58H2C0.89543 58 0 57.1046 0 56V49.8219C0 48.7174 0.895431 47.8219 2 47.8219H8.31122C8.31313 47.7172 8.31549 47.6126 8.31828 47.508C8.58503 37.5228 12.8386 28.0005 20.2242 20.9196C27.1867 14.2444 36.4123 10.2378 46.172 9.58634ZM88.681 47.508C88.4146 37.8014 84.2767 28.5379 77.0834 21.6414C69.6421 14.5071 59.5409 10.4921 48.9998 10.4921C38.4588 10.4921 28.3576 14.5071 20.9163 21.6414C13.723 28.5379 9.58512 37.8014 9.31865 47.508L48.9998 47.508H88.681ZM96 48.8219H2C1.44771 48.8219 1 49.2697 1 49.8219V56C1 56.5523 1.44772 57 2 57H96C96.5523 57 97 56.5523 97 56V49.8219C97 49.2697 96.5523 48.8219 96 48.8219Z" fill="#C5A26D"/>
</svg>
