<svg width="124" height="80" viewBox="0 0 124 80" fill="none" xmlns="http://www.w3.org/2000/svg">
<path d="M39.886 24.79L32.776 12.85L39.386 11.02C39.4896 10.9952 39.5865 10.948 39.67 10.8818C39.7534 10.8155 39.8214 10.7318 39.869 10.6365C39.9167 10.5412 39.9429 10.4366 39.9458 10.3301C39.9487 10.2236 39.9283 10.1178 39.886 10.02C39.8554 9.91979 39.805 9.82676 39.7377 9.74647C39.6704 9.66617 39.5876 9.60026 39.4943 9.55266C39.401 9.50506 39.299 9.47675 39.1945 9.46942C39.09 9.46209 38.985 9.47589 38.886 9.51L20.796 14.61V0.81C20.796 0.595175 20.7106 0.389148 20.5587 0.237244C20.4068 0.085339 20.2008 0 19.986 0C19.7712 0 19.5651 0.085339 19.4132 0.237244C19.2613 0.389148 19.176 0.595175 19.176 0.81V15L0.565988 20.2C0.464797 20.2159 0.3686 20.2548 0.28479 20.3137C0.20098 20.3726 0.131789 20.4499 0.0825357 20.5397C0.0332827 20.6295 0.00527879 20.7294 0.000676625 20.8318C-0.00392554 20.9341 0.0149966 21.0361 0.0559885 21.13C0.155988 21.54 0.665988 21.84 0.975988 21.64L6.76599 20L0.155988 31.13C0.0765106 31.2511 0.0411947 31.3959 0.0559885 31.54C0.0573146 33.7824 0.949378 35.9324 2.53594 37.5171C3.32152 38.3018 4.25396 38.924 5.28002 39.3483C6.30608 39.7726 7.40566 39.9907 8.51599 39.99C9.62631 39.9893 10.7256 39.77 11.7512 39.3445C12.7768 38.919 13.7085 38.2956 14.4931 37.5101C15.2778 36.7245 15.9 35.792 16.3243 34.766C16.7486 33.7399 16.9666 32.6403 16.966 31.53C16.9808 31.3859 16.9455 31.2411 16.866 31.12L9.70599 19.18L29.826 13.57L23.226 24.69C23.1465 24.8111 23.1112 24.9559 23.126 25.1C23.1207 26.2104 23.3349 27.3109 23.7562 28.3383C24.1775 29.3657 24.7976 30.2997 25.5809 31.0868C26.3642 31.8738 27.2953 32.4984 28.3207 32.9245C29.3461 33.3506 30.4456 33.57 31.556 33.57C33.7946 33.5454 35.9399 32.6694 37.556 31.12C39.1206 29.5211 39.9872 27.367 39.966 25.13C39.9817 25.0711 39.9826 25.0093 39.9686 24.95C39.9547 24.8907 39.9263 24.8357 39.886 24.79ZM15.296 32.85C15.0162 34.4249 14.191 35.851 12.965 36.8784C11.739 37.9057 10.1905 38.4688 8.59099 38.4688C6.99146 38.4688 5.44297 37.9057 4.21699 36.8784C2.99101 35.851 2.16579 34.4249 1.88599 32.85L1.78599 32.34H15.506L15.296 32.85ZM14.896 30.85H2.29599L8.59599 20.34L14.896 30.85ZM31.556 13.87L37.856 24.38H25.256L31.556 13.87ZM38.266 26.43C37.9862 28.0049 37.161 29.431 35.935 30.4584C34.709 31.4857 33.1605 32.0488 31.561 32.0488C29.9615 32.0488 28.413 31.4857 27.187 30.4584C25.961 29.431 25.1358 28.0049 24.856 26.43L24.746 25.92H38.466L38.266 26.43Z" fill="#2A2A29"/>
<path d="M39.886 64.79L32.776 52.85L39.386 51.02C39.4896 50.9952 39.5865 50.948 39.67 50.8818C39.7534 50.8155 39.8214 50.7318 39.869 50.6365C39.9167 50.5412 39.9429 50.4366 39.9458 50.3301C39.9487 50.2236 39.9283 50.1178 39.886 50.02C39.8554 49.9198 39.805 49.8268 39.7377 49.7465C39.6704 49.6662 39.5876 49.6003 39.4943 49.5527C39.401 49.5051 39.299 49.4768 39.1945 49.4694C39.09 49.4621 38.985 49.4759 38.886 49.51L20.796 54.61V40.81C20.796 40.5952 20.7106 40.3891 20.5587 40.2372C20.4068 40.0853 20.2008 40 19.986 40C19.7712 40 19.5651 40.0853 19.4132 40.2372C19.2613 40.3891 19.176 40.5952 19.176 40.81V55L0.565988 60.2C0.464797 60.2159 0.3686 60.2548 0.28479 60.3137C0.20098 60.3726 0.131789 60.4499 0.0825357 60.5397C0.0332827 60.6295 0.00527879 60.7294 0.000676625 60.8318C-0.00392554 60.9341 0.0149966 61.0361 0.0559885 61.13C0.155988 61.54 0.665988 61.84 0.975988 61.64L6.76599 60L0.155988 71.13C0.0765106 71.2511 0.0411947 71.3959 0.0559885 71.54C0.0573146 73.7824 0.949378 75.9324 2.53594 77.5171C3.32152 78.3018 4.25396 78.924 5.28002 79.3483C6.30608 79.7726 7.40566 79.9907 8.51599 79.99C9.62631 79.9893 10.7256 79.77 11.7512 79.3445C12.7768 78.919 13.7085 78.2956 14.4931 77.5101C15.2778 76.7245 15.9 75.792 16.3243 74.766C16.7486 73.7399 16.9666 72.6403 16.966 71.53C16.9808 71.3859 16.9455 71.2411 16.866 71.12L9.70599 59.18L29.826 53.57L23.226 64.69C23.1465 64.8111 23.1112 64.9559 23.126 65.1C23.1207 66.2104 23.3349 67.3109 23.7562 68.3383C24.1775 69.3657 24.7976 70.2997 25.5809 71.0868C26.3642 71.8738 27.2953 72.4984 28.3207 72.9245C29.3461 73.3506 30.4456 73.57 31.556 73.57C33.7946 73.5454 35.9399 72.6694 37.556 71.12C39.1206 69.5211 39.9872 67.367 39.966 65.13C39.9817 65.0711 39.9826 65.0093 39.9686 64.95C39.9547 64.8907 39.9263 64.8357 39.886 64.79ZM15.296 72.85C15.0162 74.4249 14.191 75.851 12.965 76.8784C11.739 77.9057 10.1905 78.4688 8.59099 78.4688C6.99146 78.4688 5.44297 77.9057 4.21699 76.8784C2.99101 75.851 2.16579 74.4249 1.88599 72.85L1.78599 72.34H15.506L15.296 72.85ZM14.896 70.85H2.29599L8.59599 60.34L14.896 70.85ZM31.556 53.87L37.856 64.38H25.256L31.556 53.87ZM38.266 66.43C37.9862 68.0049 37.161 69.431 35.935 70.4584C34.709 71.4857 33.1605 72.0488 31.561 72.0488C29.9615 72.0488 28.413 71.4857 27.187 70.4584C25.961 69.431 25.1358 68.0049 24.856 66.43L24.746 65.92H38.466L38.266 66.43Z" fill="#0F61A7"/>
<g clip-path="url(#clip0)">
<path d="M82.93 11.63C82.32 4.89 77.54 0 71.56 0C69.6028 0.0132594 67.6824 0.5333 65.986 1.50945C64.2896 2.48559 62.875 3.88455 61.88 5.57C60.9402 3.88923 59.5711 2.488 57.9126 1.50942C56.2541 0.530837 54.3656 0.0099659 52.44 0C46.46 0 41.68 4.89 41.07 11.63C40.9058 13.0956 41.0247 14.5792 41.42 16C42.3284 19.7471 44.3589 23.1277 47.24 25.69L61.88 39L76.75 25.74C79.6404 23.1633 81.6746 19.7649 82.58 16C82.9559 14.5758 83.0744 13.0959 82.93 11.63V11.63ZM81.01 15.63C80.17 19.0566 78.3075 22.1467 75.67 24.49L61.88 36.82L48.33 24.54C45.6867 22.2032 43.8259 19.1101 43 15.68C42.6527 14.4487 42.5374 13.1635 42.66 11.89V11.81C43.2 5.9 47.31 1.61 52.44 1.61C54.3263 1.63815 56.1613 2.22906 57.7096 3.30698C59.2578 4.3849 60.4489 5.90069 61.13 7.66L61.88 9.44L62.63 7.67C63.3657 5.90413 64.6046 4.39371 66.1925 3.32683C67.7804 2.25995 69.647 1.68375 71.56 1.67C76.69 1.67 80.8 5.96 81.34 11.94C81.4555 13.2162 81.3437 14.5028 81.01 15.74V15.63Z" fill="#2A2A29"/>
</g>
<g clip-path="url(#clip1)">
<path d="M82.93 51.63C82.32 44.89 77.54 40 71.56 40C69.6028 40.0133 67.6824 40.5333 65.986 41.5094C64.2896 42.4856 62.875 43.8845 61.88 45.57C60.9402 43.8892 59.5711 42.488 57.9126 41.5094C56.2541 40.5308 54.3656 40.01 52.44 40C46.46 40 41.68 44.89 41.07 51.63C40.9058 53.0956 41.0247 54.5792 41.42 56C42.3284 59.7471 44.3589 63.1277 47.24 65.69L61.88 79L76.75 65.74C79.6404 63.1633 81.6746 59.7649 82.58 56C82.9559 54.5758 83.0744 53.0959 82.93 51.63V51.63ZM81.01 55.63C80.17 59.0566 78.3075 62.1467 75.67 64.49L61.88 76.82L48.33 64.54C45.6867 62.2032 43.8259 59.1101 43 55.68C42.6527 54.4487 42.5374 53.1635 42.66 51.89V51.81C43.2 45.9 47.31 41.61 52.44 41.61C54.3263 41.6381 56.1613 42.2291 57.7096 43.307C59.2578 44.3849 60.4489 45.9007 61.13 47.66L61.88 49.44L62.63 47.67C63.3657 45.9041 64.6046 44.3937 66.1925 43.3268C67.7804 42.2599 69.647 41.6838 71.56 41.67C76.69 41.67 80.8 45.96 81.34 51.94C81.4555 53.2162 81.3437 54.5028 81.01 55.74V55.63Z" fill="#0F61A7"/>
</g>
<g clip-path="url(#clip2)">
<path d="M110.75 33.19C109.861 33.1979 109.011 33.5582 108.386 34.1918C107.762 34.8254 107.415 35.6806 107.42 36.57V36.57C107.43 37.2264 107.633 37.8652 108.005 38.4062C108.377 38.9472 108.901 39.3663 109.51 39.6106C110.119 39.855 110.787 39.9139 111.43 39.7798C112.072 39.6457 112.661 39.3247 113.122 38.8571C113.582 38.3894 113.895 37.796 114.019 37.1515C114.144 36.5069 114.075 35.84 113.821 35.2344C113.568 34.6288 113.141 34.1117 112.595 33.7479C112.048 33.3842 111.406 33.1901 110.75 33.19V33.19ZM110.75 38.29C110.535 38.2887 110.323 38.2449 110.125 38.1612C109.927 38.0774 109.747 37.9553 109.597 37.802C109.446 37.6486 109.327 37.467 109.247 37.2676C109.167 37.0682 109.127 36.8549 109.13 36.64C109.151 36.2104 109.342 35.8067 109.661 35.5179C109.98 35.2291 110.4 35.0788 110.83 35.1C111.26 35.1212 111.663 35.3122 111.952 35.6311C112.241 35.9499 112.391 36.3704 112.37 36.8C112.337 37.2067 112.152 37.5861 111.852 37.8624C111.552 38.1386 111.158 38.2913 110.75 38.29Z" fill="#2A2A29"/>
<path d="M92.6 33.19C92.1592 33.1913 91.7231 33.2796 91.3165 33.4498C90.9099 33.62 90.5409 33.8687 90.2306 34.1818C89.9203 34.4949 89.6749 34.8661 89.5083 35.2742C89.3418 35.6823 89.2574 36.1192 89.26 36.56C89.2466 37.4574 89.5897 38.3235 90.2139 38.9684C90.8382 39.6132 91.6927 39.9842 92.59 40C93.03 39.9974 93.4651 39.9081 93.8705 39.7374C94.2759 39.5666 94.6438 39.3176 94.953 39.0047C95.2622 38.6918 95.5068 38.321 95.6727 37.9135C95.8386 37.5061 95.9227 37.0699 95.92 36.63V36.63C95.9203 35.7393 95.572 34.8839 94.9497 34.2466C94.3274 33.6094 93.4805 33.2409 92.59 33.22L92.6 33.19ZM92.6 38.29C92.3864 38.29 92.175 38.2478 91.9778 38.1657C91.7806 38.0837 91.6015 37.9635 91.451 37.812C91.3004 37.6605 91.1813 37.4807 91.1005 37.283C91.0196 37.0853 90.9787 36.8736 90.98 36.66C90.9752 36.6369 90.9752 36.6131 90.98 36.59C90.9718 36.1511 91.1357 35.7265 91.4366 35.4069C91.7374 35.0873 92.1515 34.8982 92.59 34.88C92.8054 34.876 93.0194 34.9145 93.2199 34.9933C93.4204 35.0721 93.6035 35.1895 93.7585 35.3391C93.9136 35.4886 94.0377 35.6672 94.1238 35.8646C94.2098 36.0621 94.2561 36.2746 94.26 36.49V36.59C94.2655 37.0305 94.0977 37.4555 93.7928 37.7735C93.4879 38.0914 93.0703 38.2769 92.63 38.29H92.6Z" fill="#2A2A29"/>
<path d="M118.75 0L117.41 5.19H84L90.17 23.45C89.1474 23.6033 88.2162 24.125 87.5513 24.9169C86.8865 25.7088 86.5339 26.7163 86.56 27.75C86.544 28.3156 86.6398 28.8787 86.8419 29.4072C87.044 29.9356 87.3484 30.419 87.7376 30.8296C88.1269 31.2403 88.5933 31.57 89.1102 31.8C89.6272 32.03 90.1844 32.1558 90.75 32.17H113.96V30.56H90.82C90.4764 30.5535 90.1374 30.4792 89.8226 30.3414C89.5077 30.2035 89.2232 30.0049 88.9854 29.7568C88.7475 29.5087 88.561 29.2161 88.4365 28.8957C88.312 28.5754 88.252 28.2336 88.26 27.89V27.83C88.2384 27.1288 88.4958 26.4476 88.9757 25.9358C89.4556 25.4241 90.1188 25.1235 90.82 25.1H114.05L120.05 1.7H123.45V0H118.75ZM112.75 23.4H91.93L86.39 6.89H116.95L112.75 23.4Z" fill="#2A2A29"/>
<path d="M96.52 10.89H94.81V20.51H96.52V10.89Z" fill="#2A2A29"/>
<path d="M102.57 10.89H100.86V20.51H102.57V10.89Z" fill="#2A2A29"/>
<path d="M108.61 10.89H106.9V20.51H108.61V10.89Z" fill="#2A2A29"/>
</g>
<g clip-path="url(#clip3)">
<path d="M110.75 73.19C109.861 73.1979 109.011 73.5582 108.386 74.1918C107.762 74.8254 107.415 75.6806 107.42 76.57V76.57C107.43 77.2264 107.633 77.8652 108.005 78.4062C108.377 78.9472 108.901 79.3663 109.51 79.6106C110.119 79.855 110.787 79.9139 111.43 79.7798C112.072 79.6457 112.661 79.3247 113.122 78.8571C113.582 78.3894 113.895 77.796 114.019 77.1515C114.144 76.5069 114.075 75.84 113.821 75.2344C113.568 74.6288 113.141 74.1117 112.595 73.7479C112.048 73.3842 111.406 73.1901 110.75 73.19V73.19ZM110.75 78.29C110.535 78.2887 110.323 78.2449 110.125 78.1612C109.927 78.0774 109.747 77.9553 109.597 77.802C109.446 77.6486 109.327 77.467 109.247 77.2676C109.167 77.0682 109.127 76.8549 109.13 76.64C109.151 76.2104 109.342 75.8067 109.661 75.5179C109.98 75.2291 110.4 75.0788 110.83 75.1C111.26 75.1212 111.663 75.3122 111.952 75.6311C112.241 75.9499 112.391 76.3704 112.37 76.8C112.337 77.2067 112.152 77.5861 111.852 77.8624C111.552 78.1386 111.158 78.2913 110.75 78.29Z" fill="#0F61A7"/>
<path d="M92.6 73.19C92.1592 73.1913 91.7231 73.2796 91.3165 73.4498C90.9099 73.62 90.5409 73.8687 90.2306 74.1818C89.9203 74.4949 89.6749 74.8661 89.5083 75.2742C89.3418 75.6823 89.2574 76.1192 89.26 76.56C89.2466 77.4574 89.5897 78.3235 90.2139 78.9684C90.8382 79.6132 91.6927 79.9842 92.59 80C93.03 79.9974 93.4651 79.9081 93.8705 79.7374C94.2759 79.5666 94.6438 79.3176 94.953 79.0047C95.2622 78.6918 95.5068 78.321 95.6727 77.9135C95.8386 77.5061 95.9227 77.0699 95.92 76.63V76.63C95.9203 75.7393 95.572 74.8839 94.9497 74.2466C94.3274 73.6094 93.4805 73.2409 92.59 73.22L92.6 73.19ZM92.6 78.29C92.3864 78.29 92.175 78.2478 91.9778 78.1657C91.7806 78.0837 91.6015 77.9635 91.451 77.812C91.3004 77.6605 91.1813 77.4807 91.1005 77.283C91.0196 77.0853 90.9787 76.8736 90.98 76.66C90.9752 76.6369 90.9752 76.6131 90.98 76.59C90.9718 76.1511 91.1357 75.7265 91.4366 75.4069C91.7374 75.0873 92.1515 74.8982 92.59 74.88C92.8054 74.876 93.0194 74.9145 93.2199 74.9933C93.4204 75.0721 93.6035 75.1895 93.7585 75.3391C93.9136 75.4886 94.0377 75.6672 94.1238 75.8646C94.2098 76.0621 94.2561 76.2746 94.26 76.49V76.59C94.2655 77.0305 94.0977 77.4555 93.7928 77.7735C93.4879 78.0914 93.0703 78.2769 92.63 78.29H92.6Z" fill="#0F61A7"/>
<path d="M118.75 40L117.41 45.19H84L90.17 63.45C89.1474 63.6033 88.2162 64.125 87.5513 64.9169C86.8865 65.7088 86.5339 66.7163 86.56 67.75C86.544 68.3156 86.6398 68.8787 86.8419 69.4072C87.044 69.9356 87.3484 70.419 87.7376 70.8296C88.1269 71.2403 88.5933 71.57 89.1102 71.8C89.6272 72.03 90.1844 72.1558 90.75 72.17H113.96V70.56H90.82C90.4764 70.5535 90.1374 70.4792 89.8226 70.3414C89.5077 70.2035 89.2232 70.0049 88.9854 69.7568C88.7475 69.5087 88.561 69.2161 88.4365 68.8957C88.312 68.5754 88.252 68.2336 88.26 67.89V67.83C88.2384 67.1288 88.4958 66.4476 88.9757 65.9358C89.4556 65.4241 90.1188 65.1235 90.82 65.1H114.05L120.05 41.7H123.45V40H118.75ZM112.75 63.4H91.93L86.39 46.89H116.95L112.75 63.4Z" fill="#0F61A7"/>
<path d="M96.52 50.89H94.81V60.51H96.52V50.89Z" fill="#0F61A7"/>
<path d="M102.57 50.89H100.86V60.51H102.57V50.89Z" fill="#0F61A7"/>
<path d="M108.61 50.89H106.9V60.51H108.61V50.89Z" fill="#0F61A7"/>
</g>
<defs>
<clipPath id="clip0">
<rect width="42" height="39" fill="white" transform="translate(41)"/>
</clipPath>
<clipPath id="clip1">
<rect width="42" height="39" fill="white" transform="translate(41 40)"/>
</clipPath>
<clipPath id="clip2">
<rect width="39.45" height="40" fill="white" transform="translate(84)"/>
</clipPath>
<clipPath id="clip3">
<rect width="39.45" height="40" fill="white" transform="translate(84 40)"/>
</clipPath>
</defs>
</svg>
