<svg width="79" height="85" viewBox="0 0 79 85" fill="none" xmlns="http://www.w3.org/2000/svg">
<path d="M52.3301 44.51C56.6326 41.6642 59.9037 37.508 61.6586 32.6572C63.4135 27.8064 63.5588 22.5193 62.073 17.5794C60.5871 12.6396 57.5492 8.30997 53.4095 5.23222C49.2698 2.15447 44.2486 0.492432 39.0901 0.492432C33.9317 0.492432 28.9105 2.15447 24.7708 5.23222C20.6311 8.30997 17.5932 12.6396 16.1073 17.5794C14.6215 22.5193 14.7667 27.8064 16.5216 32.6572C18.2765 37.508 21.5476 41.6642 25.8501 44.51C18.4786 47.2206 12.114 52.1237 7.61235 58.5597C3.11072 64.9957 7.12425e-05 77 1.00022 85H6.50022C4.05022 67 21.4901 48.5 39.0801 48.5C56.6701 48.5 74.2701 65.82 71.8201 84.6L78.0002 84.5C79 76.5 75.0969 64.9875 70.5892 58.5506C66.0815 52.1136 59.7089 47.2133 52.3301 44.51ZM39.0801 42.14C35.5985 42.14 32.195 41.1079 29.2997 39.1742C26.4044 37.2405 24.1472 34.492 22.8135 31.276C21.4798 28.0599 21.1293 24.5206 21.8063 21.1055C22.4834 17.6903 24.1576 14.5524 26.6174 12.0884C29.0772 9.62444 32.2122 7.94489 35.6262 7.26202C39.0403 6.57915 42.5801 6.92361 45.7984 8.25187C49.0168 9.58013 51.7691 11.8326 53.7077 14.7246C55.6464 17.6166 56.6842 21.0183 56.6901 24.5C56.6954 26.8155 56.2437 29.1092 55.361 31.2498C54.4782 33.3904 53.1818 35.3358 51.5459 36.9745C49.91 38.6132 47.9668 39.9129 45.8277 40.7993C43.6886 41.6857 41.3956 42.1413 39.0801 42.14Z" fill="#EBEBEB"/>
</svg>
