<svg width="100" height="100" viewBox="0 0 100 100" fill="none" xmlns="http://www.w3.org/2000/svg">
<g clip-path="url(#clip0)">
<path d="M100 50C100 77.5717 77.5717 100 50 100C22.4283 100 9.80373e-07 77.5717 2.18557e-06 50C3.39077e-06 22.4283 22.4322 -3.39059e-06 50 -2.18557e-06C77.5678 -9.80544e-07 100 22.4283 100 50ZM7.7459 50C7.7459 73.2959 26.7002 92.2541 50 92.2541C73.2998 92.2541 92.2541 73.2959 92.2541 50C92.2541 26.7002 73.2998 7.74589 50 7.74589C26.7002 7.74589 7.7459 26.7041 7.7459 50Z" fill="#FF4A4A" fill-opacity="0.7"/>
<path d="M44.6553 27.8849L64.0202 47.2498C65.5229 48.7603 65.5229 51.2002 64.0202 52.7107L44.6553 72.0756C43.2069 73.3187 41.0651 73.3187 39.6167 72.0756C37.9938 70.6851 37.8042 68.2375 39.1946 66.6146L55.8094 49.9996L39.1944 33.3459C37.6917 31.8353 37.6917 29.3955 39.1944 27.8849C40.7049 26.3822 43.145 26.3822 44.6553 27.8849Z" fill="#FF4A4A" fill-opacity="0.7"/>
</g>
<defs>
<clipPath id="clip0">
<rect width="100" height="100" fill="white" transform="matrix(4.37114e-08 -1 -1 -4.37114e-08 100 100)"/>
</clipPath>
</defs>
</svg>
