<svg width="33" height="39" viewBox="0 0 33 39" fill="none" xmlns="http://www.w3.org/2000/svg">
<path d="M16.3593 21.0142C16.3995 21.0142 16.4397 21.0142 16.4879 21.0142C16.5039 21.0142 16.52 21.0142 16.5361 21.0142C16.5602 21.0142 16.5923 21.0142 16.6164 21.0142C18.9704 20.9738 20.8744 20.1419 22.2804 18.5509C25.3735 15.0459 24.8593 9.03723 24.803 8.46382C24.6022 4.15922 22.5776 2.0998 20.9066 1.13874C19.6613 0.419961 18.2071 0.0323047 16.5843 0H16.528C16.52 0 16.5039 0 16.4959 0H16.4477C15.5559 0 13.8045 0.145371 12.1254 1.10643C10.4383 2.0675 8.38159 4.12692 8.18074 8.46382C8.1245 9.03723 7.61033 15.0459 10.7034 18.5509C12.1013 20.1419 14.0054 20.9738 16.3593 21.0142ZM10.3258 8.66572C10.3258 8.64149 10.3338 8.61727 10.3338 8.60111C10.599 2.8105 14.6883 2.18864 16.4397 2.18864H16.4718C16.4879 2.18864 16.512 2.18864 16.5361 2.18864C18.7053 2.2371 22.3929 3.12547 22.6419 8.60111C22.6419 8.62534 22.6419 8.64957 22.6499 8.66572C22.658 8.72226 23.2204 14.214 20.6655 17.1053C19.6533 18.2521 18.3036 18.8175 16.528 18.8336C16.512 18.8336 16.5039 18.8336 16.4879 18.8336C16.4718 18.8336 16.4638 18.8336 16.4477 18.8336C14.6802 18.8175 13.3225 18.2521 12.3182 17.1053C9.77147 14.2302 10.3178 8.71418 10.3258 8.66572Z" fill="#C5A26D"/>
<path d="M32.9977 30.9807C32.9977 30.9726 32.9977 30.9645 32.9977 30.9565C32.9977 30.8918 32.9897 30.8272 32.9897 30.7546C32.9415 29.1555 32.8371 25.4162 29.3503 24.2209C29.3262 24.2129 29.2941 24.2048 29.27 24.1967C25.6467 23.2679 22.6339 21.1681 22.6018 21.1439C22.1117 20.7966 21.4369 20.9178 21.0914 21.4104C20.7459 21.9031 20.8664 22.5815 21.3565 22.9287C21.4931 23.0257 24.6906 25.2628 28.6915 26.2965C30.5635 26.9668 30.7723 28.9778 30.8286 30.8192C30.8286 30.8918 30.8286 30.9565 30.8366 31.0211C30.8446 31.7479 30.7964 32.8705 30.6679 33.5166C29.3664 34.2596 24.2648 36.8278 16.504 36.8278C8.77529 36.8278 3.64158 34.2515 2.33204 33.5085C2.2035 32.8624 2.14726 31.7398 2.16333 31.013C2.16333 30.9484 2.17136 30.8838 2.17136 30.8111C2.2276 28.9697 2.43648 26.9588 4.3084 26.2884C8.30932 25.2547 11.5068 23.0095 11.6434 22.9207C12.1335 22.5734 12.254 21.895 11.9085 21.4024C11.5631 20.9097 10.8882 20.7886 10.3982 21.1358C10.366 21.1601 7.36935 23.2599 3.72995 24.1886C3.69782 24.1967 3.67372 24.2048 3.64961 24.2129C0.162866 25.4162 0.0584246 29.1555 0.0102207 30.7465C0.0102207 30.8192 0.0102205 30.8838 0.00218656 30.9484C0.00218656 30.9565 0.00218656 30.9645 0.00218656 30.9726C-0.00584742 31.3926 -0.0138812 33.5489 0.41192 34.6311C0.49226 34.8411 0.636871 35.0188 0.829687 35.1399C1.07071 35.3014 6.84714 39.0003 16.512 39.0003C26.1769 39.0003 31.9533 35.2934 32.1944 35.1399C32.3791 35.0188 32.5318 34.8411 32.6121 34.6311C33.0138 33.557 33.0058 31.4006 32.9977 30.9807Z" fill="#C5A26D"/>
</svg>
