<svg width="29" height="39" viewBox="0 0 29 39" fill="none" xmlns="http://www.w3.org/2000/svg">
<path d="M23.0122 30.5889C22.8124 30.5889 22.6167 30.5077 22.4755 30.3665C22.4406 30.3315 22.4085 30.2927 22.3813 30.2512C22.3531 30.21 22.3306 30.1661 22.3116 30.1198C22.2926 30.0742 22.2772 30.0264 22.2674 29.9778C22.2576 29.9292 22.2532 29.8791 22.2532 29.8299C22.2532 29.7806 22.2576 29.7305 22.2674 29.6819C22.2772 29.6333 22.2926 29.5856 22.3116 29.5399C22.3297 29.4936 22.3531 29.4498 22.3807 29.4086C22.4085 29.3667 22.4406 29.3282 22.4755 29.2932C22.5102 29.2582 22.5491 29.2265 22.5909 29.1992C22.6318 29.1719 22.6757 29.1482 22.7213 29.1293C22.7676 29.1103 22.8156 29.0952 22.8639 29.086C22.9621 29.0664 23.0623 29.0664 23.1601 29.086C23.2088 29.0952 23.2565 29.1103 23.3019 29.1293C23.3484 29.1482 23.3923 29.1719 23.4332 29.1992C23.475 29.2265 23.5139 29.2582 23.5486 29.2932C23.5835 29.3282 23.6156 29.3667 23.6428 29.4086C23.6701 29.4498 23.6935 29.4936 23.7125 29.5399C23.7315 29.5856 23.7469 29.6333 23.7558 29.6819C23.7659 29.7305 23.7712 29.7806 23.7712 29.8299C23.7712 30.0294 23.69 30.2254 23.5486 30.3665C23.5139 30.4015 23.475 30.4332 23.4332 30.4605C23.3923 30.4878 23.3484 30.5115 23.3019 30.5305C23.2565 30.5495 23.2088 30.5637 23.1601 30.5738C23.1115 30.5836 23.0614 30.5889 23.0122 30.5889V30.5889Z" fill="#C5A26D"/>
<path d="M27.3868 34.0807H26.8068V0.759023C26.8068 0.339781 26.4671 0 26.0478 0H2.09769C1.67845 0 1.33867 0.339781 1.33867 0.759023V34.0807H0.759023C0.339781 34.0807 0 34.4205 0 34.8397V38.1029C0 38.5222 0.339781 38.862 0.759023 38.862H27.3865C27.8057 38.862 28.1455 38.5222 28.1455 38.1029V34.8397C28.1458 34.4205 27.806 34.0807 27.3868 34.0807V34.0807ZM2.85671 1.51805H25.2891V34.0807H5.8928V4.55414H22.253V18.1495C21.9183 17.9939 21.5459 17.907 21.1533 17.907C19.71 17.907 18.5356 19.0814 18.5356 20.5247C18.5356 21.9681 19.71 23.1422 21.1533 23.1422C21.5459 23.1422 21.9183 23.0553 22.253 22.8999V25.8068C22.253 26.226 22.5928 26.5658 23.012 26.5658C23.431 26.5658 23.771 26.226 23.771 25.8068V3.79511C23.771 3.37587 23.431 3.03609 23.012 3.03609H5.13378C4.71454 3.03609 4.37476 3.37587 4.37476 3.79511V34.0807H2.85671V1.51805ZM22.253 20.5247C22.253 21.1311 21.7596 21.6241 21.1533 21.6241C20.547 21.6241 20.0536 21.1311 20.0536 20.5247C20.0536 19.9184 20.547 19.4253 21.1533 19.4253C21.7596 19.4253 22.253 19.9184 22.253 20.5247ZM26.6278 37.3439H1.51805V35.5988H26.6278V37.3439Z" fill="#C5A26D"/>
<path d="M10.5709 6.96582C10.4677 6.96582 10.3799 6.98776 10.3118 7.03075L9.40152 7.58223C9.23934 7.67948 9.14624 7.84848 9.14624 8.04565C9.14624 8.30597 9.3191 8.58705 9.5981 8.58705C9.65473 8.58705 9.7416 8.5743 9.83055 8.5147L9.85693 8.49839V11.8049C9.85693 12.067 10.125 12.2499 10.5086 12.2499C10.8926 12.2499 11.1606 12.067 11.1606 11.8049V7.41768C11.1606 7.13868 10.8546 6.96582 10.5709 6.96582Z" fill="#C5A26D"/>
<path d="M13.4678 10.4837C14.0807 10.0642 14.92 9.4896 14.92 8.52126C14.92 7.5197 14.0332 6.97949 13.1989 6.97949C12.388 6.97949 11.5261 7.48353 11.5261 8.41748C11.5261 8.97341 11.8504 9.09023 12.1229 9.09023C12.5641 9.09023 12.8022 8.82902 12.8022 8.58322C12.8022 8.31549 12.938 8.1797 13.2057 8.1797C13.5965 8.1797 13.6161 8.49279 13.6161 8.55565C13.6161 8.91263 13.1529 9.25271 12.6625 9.61265C12.063 10.0526 11.4434 10.5075 11.4434 11.1354V11.8046C11.4434 12.0804 11.7828 12.2497 12.0263 12.2497H14.4821C14.7196 12.2497 14.92 11.9796 14.92 11.6596C14.92 11.3474 14.7196 11.0836 14.4821 11.0836H12.7966C12.8484 10.9077 13.1503 10.7011 13.4678 10.4837Z" fill="#C5A26D"/>
<path d="M17.9931 9.45491C18.2504 9.23077 18.4037 8.82605 18.4037 8.34188C18.4037 7.72043 18.117 6.97949 16.7514 6.97949C15.5864 6.97949 15.0649 7.65668 15.0649 8.32794C15.0649 8.75341 15.2158 8.87646 15.7373 8.87646C16.1527 8.87646 16.3546 8.71072 16.3546 8.36945C16.3546 8.23455 16.384 8.13137 16.7514 8.13137C17.0404 8.13137 17.1481 8.23514 17.1481 8.51414C17.1481 8.99357 16.942 8.99357 16.7238 8.99357C16.462 8.99357 16.2995 9.19578 16.2995 9.52133C16.2995 9.84688 16.462 10.0491 16.7238 10.0491C17.1338 10.0491 17.2723 10.1597 17.2723 10.487V10.6181C17.2723 11.0068 17.1504 11.1251 16.7514 11.1251C16.2515 11.1251 16.2515 10.9172 16.2515 10.8389C16.2515 10.4455 15.9968 10.3663 15.5855 10.3663C15.2001 10.3663 14.9614 10.4511 14.9614 10.8736C14.9614 11.5562 15.5108 12.2912 16.717 12.2912C17.8985 12.2912 18.576 11.6813 18.576 10.6184V10.4873C18.576 10.0177 18.3755 9.66453 17.9931 9.45491Z" fill="#C5A26D"/>
<path d="M17.9428 14.4966H10.2029C9.78363 14.4966 9.44385 14.1568 9.44385 13.7375C9.44385 13.3183 9.78363 12.9785 10.2029 12.9785H17.9428C18.3621 12.9785 18.7018 13.3183 18.7018 13.7375C18.7018 14.1568 18.3621 14.4966 17.9428 14.4966Z" fill="#C5A26D"/>
</svg>
