<svg width="22" height="37" viewBox="0 0 22 37" fill="none" xmlns="http://www.w3.org/2000/svg">
<path d="M19.4421 0H2.55794C1.15129 0 0 1.12374 0 2.49909V34.4999C0 35.8752 1.15129 37 2.55794 37H19.4421C20.8487 37 22 35.8773 22 34.5009V2.49909C22 1.12374 20.8487 0 19.4421 0ZM8.29923 1.80137H13.7008C13.8717 1.80137 14.0102 1.93669 14.0102 2.10477C14.0102 2.2718 13.8717 2.40711 13.7008 2.40711H8.29923C8.12827 2.40711 7.98977 2.2718 7.98977 2.10477C7.98977 1.93669 8.12827 1.80137 8.29923 1.80137ZM11 35.7505C10.2934 35.7505 9.72103 35.1912 9.72103 34.4999C9.72103 33.8085 10.2934 33.2503 11 33.2503C11.7066 33.2503 12.279 33.8085 12.279 34.4999C12.279 35.1912 11.7066 35.7505 11 35.7505ZM20.22 32.375H1.77995V3.96323H20.22V32.375Z" fill="#C5A26D"/>
</svg>
