<svg data-name="Слой 1" xmlns="http://www.w3.org/2000/svg" width="180" height="56"><path d="M177.76 41.16a5.87 5.87 0 0 1-7.67 0 5.13 5.13 0 0 1-1.38-3.74V24.77a4.4 4.4 0 0 0-.79-2.74 2.59 2.59 0 0 0-2.15-1 3.65 3.65 0 0 0-3.68 2.4 18.4 18.4 0 0 0-1 6.66v7.36a5.17 5.17 0 0 1-1.38 3.74 5.86 5.86 0 0 1-7.66 0 5.17 5.17 0 0 1-1.38-3.74V17.89a5.06 5.06 0 0 1 1.41-3.68 5.13 5.13 0 0 1 3.8-1.42 4.84 4.84 0 0 1 4.72 2.73 10 10 0 0 1 7.79-3.34c3.75 0 6.48 1.11 8.17 3.34s2.56 5.48 2.56 9.73v12.17a5.17 5.17 0 0 1-1.38 3.74m-44.1-20.47c-2.86 0-4.29 2.34-4.29 7a10.9 10.9 0 0 0 1 5 3.45 3.45 0 0 0 3.25 2q4.31 0 4.3-7c0-4.66-1.43-7-4.3-7m11 18.25q-4 4.26-11 4.26t-11-4.26q-4-4.26-4-11.25t4-11.26q4-4.25 11-4.25t11 4.28q4 4.29 4 11.23c0 4.63-1.34 8.37-4 11.25M121.56 6.65c-.61 2.43-2.43 3.25-5.45 2.43a15.25 15.25 0 0 0-3.55-.54q-2.34 0-2.34 2.43v1.82h3.38c3.27 0 4.9 1.41 4.9 4.25s-1.63 4.26-4.9 4.26h-3.38v28.88a5.31 5.31 0 0 1-1.29 3.75 5.68 5.68 0 0 1-7.54 0 5.32 5.32 0 0 1-1.32-3.75V13.27c0-4.25.84-7.42 2.52-9.48a9.31 9.31 0 0 1 3.84-2.78 13.56 13.56 0 0 1 5.26-1 15.59 15.59 0 0 1 7.48 1.52c2.18 1.22 3 2.92 2.39 5.11m-30.33 6.15a5.06 5.06 0 0 1 3.83 1.45 5.13 5.13 0 0 1 1.37 3.65v19.53a5.28 5.28 0 0 1-1.34 3.71 5.82 5.82 0 0 1-7.7 0A5.2 5.2 0 0 1 86 37.42V17.89a5.14 5.14 0 0 1 1.38-3.65 5.06 5.06 0 0 1 3.84-1.45m4-4.28a7.09 7.09 0 0 1-8 0 4.52 4.52 0 0 1-1.47-3.62 4.48 4.48 0 0 1 1.47-3.59 6.72 6.72 0 0 1 7.94 0 4.5 4.5 0 0 1 1.5 3.56 4.45 4.45 0 0 1-1.5 3.62M83.41 38.91a6.22 6.22 0 0 1-2.67 2.77 14.87 14.87 0 0 1-7.36 1.52 11 11 0 0 1-7.66-2.68q-2.94-2.67-2.94-8.27V10.61a5.11 5.11 0 0 1 1.38-3.66 5.75 5.75 0 0 1 7.66 0 5.11 5.11 0 0 1 1.38 3.66v2.18h2.63c3.28 0 4.91 1.41 4.91 4.25s-1.63 4.26-4.91 4.26H73.2v10.34c0 1.63.77 2.44 2.33 2.44a15 15 0 0 0 3.12-.61c2.46-.73 4.07-.09 4.85 1.94a4.44 4.44 0 0 1-.09 3.5m-34-8.9a18.47 18.47 0 0 0-3.32-.3q-4.23 0-4.23 3.3a2.41 2.41 0 0 0 .8 1.83 3.1 3.1 0 0 0 2.14.73 5 5 0 0 0 3.2-1.16 3.68 3.68 0 0 0 1.41-3zM58 41.14a4.77 4.77 0 0 1-3.78 1.46 4.78 4.78 0 0 1-4.65-2.74 10 10 0 0 1-8 3.35q-4.72 0-7.24-2.4a8.57 8.57 0 0 1-2.51-6.48c0-3.45 1.19-6 3.55-7.54a16.52 16.52 0 0 1 9.32-2.38 20.52 20.52 0 0 1 2.31.09c.8.09 1.41.14 1.86.22l.62.12v-1.59a2.61 2.61 0 0 0-.89-2.16 5.75 5.75 0 0 0-3.35-.7 13.39 13.39 0 0 0-2 .18c-.69.12-1.49.27-2.39.46s-1.69.33-2.39.45q-3.36.55-4.17-2.19c-.7-2.43.41-4.3 3.31-5.59a22.61 22.61 0 0 1 9.14-1.52q6.18 0 9.37 3.19a11.76 11.76 0 0 1 3.12 8.64v13.41A5.5 5.5 0 0 1 58 41.13M18.92 11.01a6.3 6.3 0 0 0-4.26-1.3A25.9 25.9 0 0 0 11 9.9v10.18a24.71 24.71 0 0 0 3.44.19 6.48 6.48 0 0 0 4.32-1.37 5.05 5.05 0 0 0 1.62-4.11 4.65 4.65 0 0 0-1.46-3.78m8.37 14.86q-4.8 3.79-12.29 3.79a27 27 0 0 1-4-.31v7.66a5.66 5.66 0 0 1-1.43 4 5.34 5.34 0 0 1-4.07 1.56 5.35 5.35 0 0 1-4.06-1.56 5.66 5.66 0 0 1-1.44-4V7.26q0-5.05 4.91-6.08a50.15 50.15 0 0 1 10-.86q7.78 0 12.48 3.62t4.66 10.85c0 4.92-1.59 8.62-4.77 11.13" fill="#2a2a29"/><path d="M177.39 56.01h-2a2.61 2.61 0 0 1-2.61-2.6v-2a2.61 2.61 0 0 1 2.6-2.6h2a2.61 2.61 0 0 1 2.62 2.58v2a2.62 2.62 0 0 1-2.61 2.6m-10.8 0h-45.28a2.61 2.61 0 0 1-2.61-2.6v-2a2.61 2.61 0 0 1 2.6-2.6h45.29a2.61 2.61 0 0 1 2.61 2.59v2a2.62 2.62 0 0 1-2.61 2.6" fill="#fdcd39"/></svg>