<svg width="90" height="90" viewBox="0 0 90 90" fill="none" xmlns="http://www.w3.org/2000/svg">
<path d="M39.9195 58.0646C36.318 58.0646 33.3872 60.9954 33.3872 64.5968C33.3872 68.1983 36.318 71.1291 39.9195 71.1291C43.5209 71.1291 46.4517 68.1983 46.4517 64.5968C46.4517 60.9954 43.5209 58.0646 39.9195 58.0646ZM39.9195 68.2259C37.9191 68.2259 36.2904 66.5986 36.2904 64.5968C36.2904 62.5951 37.9191 60.9678 39.9195 60.9678C41.9198 60.9678 43.5485 62.5951 43.5485 64.5968C43.5485 66.5986 41.9198 68.2259 39.9195 68.2259Z" fill="white"/>
<path d="M45 36.2903C42.599 36.2903 40.6451 38.2442 40.6451 40.6451C40.6451 43.0461 42.599 45 45 45C47.4009 45 49.3548 43.0461 49.3548 40.6451C49.3548 38.2442 47.4009 36.2903 45 36.2903ZM45 42.0967C44.2001 42.0967 43.5484 41.445 43.5484 40.6451C43.5484 39.8453 44.2001 39.1935 45 39.1935C45.7998 39.1935 46.4516 39.8453 46.4516 40.6451C46.4516 41.445 45.7998 42.0967 45 42.0967Z" fill="white"/>
<path d="M68.2258 59.5161C65.8248 59.5161 63.871 61.47 63.871 63.871C63.871 66.2719 65.8248 68.2258 68.2258 68.2258C70.6268 68.2258 72.5807 66.2719 72.5807 63.871C72.5807 61.47 70.6268 59.5161 68.2258 59.5161ZM68.2258 65.3226C67.426 65.3226 66.7742 64.6722 66.7742 63.871C66.7742 63.0697 67.426 62.4193 68.2258 62.4193C69.0256 62.4193 69.6774 63.0697 69.6774 63.871C69.6774 64.6722 69.0256 65.3226 68.2258 65.3226Z" fill="white"/>
<path d="M58.7904 75.4839C56.3894 75.4839 54.4355 77.4378 54.4355 79.8387C54.4355 82.2397 56.3894 84.1936 58.7904 84.1936C61.1914 84.1936 63.1452 82.2397 63.1452 79.8387C63.1452 77.4378 61.1914 75.4839 58.7904 75.4839ZM58.7904 81.2903C57.9905 81.2903 57.3388 80.64 57.3388 79.8387C57.3388 79.0374 57.9905 78.3871 58.7904 78.3871C59.5902 78.3871 60.242 79.0374 60.242 79.8387C60.242 80.64 59.5902 81.2903 58.7904 81.2903Z" fill="white"/>
<path d="M13.7904 33.3871C10.189 33.3871 7.25818 36.3179 7.25818 39.9193C7.25818 43.5208 10.189 46.4516 13.7904 46.4516C17.3919 46.4516 20.3227 43.5208 20.3227 39.9193C20.3227 36.3179 17.3919 33.3871 13.7904 33.3871ZM13.7904 43.5484C11.7901 43.5484 10.1614 41.9197 10.1614 39.9193C10.1614 37.919 11.7901 36.2903 13.7904 36.2903C15.7908 36.2903 17.4195 37.919 17.4195 39.9193C17.4195 41.9197 15.7908 43.5484 13.7904 43.5484Z" fill="white"/>
<path d="M20.3225 10.1613C17.9215 10.1613 15.9677 12.1151 15.9677 14.5161C15.9677 16.9171 17.9215 18.8709 20.3225 18.8709C22.7235 18.8709 24.6773 16.9171 24.6773 14.5161C24.6773 12.1151 22.7235 10.1613 20.3225 10.1613ZM20.3225 15.9677C19.5227 15.9677 18.8709 15.3159 18.8709 14.5161C18.8709 13.7163 19.5227 13.0645 20.3225 13.0645C21.1223 13.0645 21.7741 13.7163 21.7741 14.5161C21.7741 15.3159 21.1223 15.9677 20.3225 15.9677Z" fill="white"/>
<path d="M43.5483 8.70972C41.1474 8.70972 39.1935 10.6636 39.1935 13.0646C39.1935 15.4655 41.1474 17.4194 43.5483 17.4194C45.9493 17.4194 47.9032 15.4655 47.9032 13.0646C47.9032 10.6636 45.9493 8.70972 43.5483 8.70972ZM43.5483 14.5162C42.7485 14.5162 42.0967 13.8644 42.0967 13.0646C42.0967 12.2647 42.7485 11.6129 43.5483 11.6129C44.3482 11.6129 44.9999 12.2647 44.9999 13.0646C44.9999 13.8644 44.3482 14.5162 43.5483 14.5162Z" fill="white"/>
<path d="M89.3206 51.5076L88.9606 49.7831L87.3363 50.4668C86.8007 50.6918 86.2316 50.8065 85.6452 50.8065C83.9744 50.8065 82.4777 49.8586 81.7403 48.3329L81.1626 47.1382L79.9215 47.6071C76.8716 48.7611 74.0352 46.4327 74.0279 43.6486L74.0889 42.2303L72.9595 41.9415C71.0274 41.4494 69.6774 39.7219 69.6774 37.7419C69.6774 37.244 69.7761 36.7287 69.9735 36.2105L70.4439 34.9679L69.2477 34.3902C67.7221 33.6527 66.7742 32.1547 66.7742 30.4839C66.7742 30.0324 66.8613 29.5665 67.0398 29.0569L67.5624 27.5647L66.031 27.1713C65.1397 26.9419 64.2498 26.7634 63.3615 26.6095C60.7921 11.3705 47.4895 0 31.9355 0C14.326 0 0 14.326 0 31.9355C0 47.4794 11.3531 60.7718 26.5761 63.3556C29.1048 78.4553 42.2579 90 58.0645 90C75.674 90 90 75.674 90 58.0645C90 55.874 89.7707 53.669 89.3206 51.5076ZM26.219 60.345C12.8061 57.6566 2.90323 45.7766 2.90323 31.9355C2.90323 15.9271 15.9271 2.90323 31.9355 2.90323C45.7781 2.90323 57.661 12.8105 60.345 26.2263C59.58 26.1668 58.8179 26.129 58.0645 26.129C53.309 26.129 48.7974 27.1815 44.7387 29.0526C44.1436 27.3571 42.5424 26.129 40.6452 26.129C38.2442 26.129 36.2903 28.0829 36.2903 30.4839C36.2903 31.6829 36.7984 32.7716 37.6069 33.5656C30.5971 39.4287 26.129 48.2327 26.129 58.0645C26.129 58.8324 26.1653 59.5902 26.219 60.345ZM42.0866 30.4316C41.3681 30.8482 40.6669 31.2881 39.9861 31.7584C39.5144 31.5174 39.1936 31.034 39.1936 30.4839C39.1936 29.684 39.8453 29.0323 40.6452 29.0323C41.4276 29.0323 42.0576 29.6565 42.0866 30.4316ZM58.0645 87.0968C42.0561 87.0968 29.0323 74.0729 29.0323 58.0645C29.0323 42.0561 42.0561 29.0323 58.0645 29.0323C59.9777 29.0323 61.9418 29.2427 63.9232 29.6579C63.8884 29.9352 63.871 30.2095 63.871 30.4839C63.871 32.8616 65.0119 35.0231 66.9136 36.3716C66.8206 36.8289 66.7742 37.2876 66.7742 37.7419C66.7742 40.6727 68.5379 43.2711 71.1784 44.3961C71.5994 47.999 74.671 50.8065 78.3871 50.8065C78.8415 50.8065 79.2987 50.76 79.7574 50.6671C81.106 52.5687 83.2674 53.7097 85.6452 53.7097C86.0197 53.7097 86.3898 53.6806 86.7542 53.6255C86.9821 55.0989 87.0968 56.5853 87.0968 58.0645C87.0968 74.0729 74.0729 87.0968 58.0645 87.0968Z" fill="white"/>
<path d="M56.6129 33.3871H53.7097V36.2903H56.6129V33.3871Z" fill="white"/>
<path d="M59.516 43.5483H56.6128V46.4516H59.516V43.5483Z" fill="white"/>
<path d="M36.2904 49.3549H33.3872V52.2581H36.2904V49.3549Z" fill="white"/>
<path d="M49.3549 52.2581H46.4517V55.1613H49.3549V52.2581Z" fill="white"/>
<path d="M56.6129 63.871H53.7097V66.7742H56.6129V63.871Z" fill="white"/>
<path d="M47.9032 78.3871H45V81.2903H47.9032V78.3871Z" fill="white"/>
<path d="M72.5807 75.4839H69.6775V78.3871H72.5807V75.4839Z" fill="white"/>
<path d="M79.8388 59.5161H76.9355V62.4193H79.8388V59.5161Z" fill="white"/>
<path d="M52.2581 20.3226H49.3549V23.2259H52.2581V20.3226Z" fill="white"/>
<path d="M36.2904 17.4193H33.3872V20.3225H36.2904V17.4193Z" fill="white"/>
<path d="M33.3872 5.8064H30.484V8.70962H33.3872V5.8064Z" fill="white"/>
<path d="M10.1614 23.2258H7.25818V26.1291H10.1614V23.2258Z" fill="white"/>
<path d="M26.1291 26.129H23.2258V29.0323H26.1291V26.129Z" fill="white"/>
<path d="M29.0323 37.7419H26.129V40.6452H29.0323V37.7419Z" fill="white"/>
<path d="M21.7742 50.8064H18.871V53.7096H21.7742V50.8064Z" fill="white"/>
<path d="M68.2257 50.8064H65.3225V53.7096H68.2257V50.8064Z" fill="white"/>
</svg>
