<svg width="200" height="34" viewBox="0 0 200 34" fill="none" xmlns="http://www.w3.org/2000/svg">
<path d="M37.9188 29.3811H32.9727V11.8037H50.7279V29.3811H45.7818V15.1396H37.9188V29.3811Z" fill="#62B22F"/>
<path d="M57.4487 22.966C57.4487 19.3736 59.6047 18.7321 60.9997 18.7321C62.3948 18.7321 64.5508 19.5019 64.5508 22.966C64.5508 25.1472 63.663 27.3283 60.9997 27.3283C58.3365 27.3283 57.4487 25.1472 57.4487 22.966ZM53.1367 16.5509V34H57.7023V27.9698C59.2242 29.6377 61.7607 29.766 62.268 29.766C66.58 29.766 69.2432 26.9434 69.2432 22.966C69.2432 18.7321 66.58 16.0377 62.3948 16.0377C61.3802 16.0377 59.2242 16.166 57.4487 18.0906H57.3219V16.5509H53.1367Z" fill="#62B22F"/>
<path d="M80.5326 27.8415C78.8839 29.3811 77.2352 29.8943 75.4596 29.8943C70.5135 29.8943 70.3867 26.1735 70.3867 24.6339V16.6792H74.9523V24.1207C74.9523 26.6867 75.8401 27.4566 77.4888 27.4566C80.4057 27.4566 80.5326 24.8905 80.5326 23.9924V16.8075H85.0982V29.6377H80.5326V27.8415Z" fill="#62B22F"/>
<path d="M91.5656 19.1169H93.9753C95.2435 19.1169 96.3849 19.3735 96.3849 20.4C96.3849 21.5547 94.6094 21.5547 93.8484 21.5547H91.4388V19.1169H91.5656ZM87 16.5509V29.3811H96.0044C99.3018 29.3811 101.585 28.7396 101.585 26.0452C101.585 23.9924 100.443 23.0943 97.9068 22.7094V22.5811C99.5555 22.3245 100.951 21.2981 100.951 19.6301C100.951 16.5509 97.3995 16.5509 96.0044 16.5509H87ZM91.5656 23.9924H94.3557C96.5117 23.9924 96.8922 24.6339 96.8922 25.532C96.8922 26.0452 96.6386 26.8151 94.3557 26.8151H91.5656V23.9924Z" fill="#62B22F"/>
<path d="M112.62 24.1207C112.62 26.6868 110.464 27.3283 109.323 27.3283C108.435 27.3283 107.04 27.0717 107.04 25.7887C107.04 24.3773 108.689 24.1207 109.703 23.9924C111.479 23.7358 111.352 23.8641 112.747 23.3509V24.1207H112.62ZM107.293 20.6566C107.293 18.7321 109.323 18.6038 110.084 18.6038C110.591 18.6038 112.493 18.6038 112.493 20.2717C112.493 20.4 112.493 20.5283 112.493 20.6566C112.366 21.9396 111.225 21.683 107.801 22.0679C105.011 22.4528 102.094 23.0943 102.094 26.0453C102.094 27.0717 102.601 29.766 107.42 29.766C109.323 29.766 111.352 29.2528 112.493 27.9698H112.62L113.001 29.2528H117.947V28.9962C117.059 28.8679 117.059 27.9698 117.059 26.5585L117.186 20.6566C117.186 19.117 117.059 15.9094 110.21 15.9094C108.562 15.9094 103.235 16.0377 103.108 20.5283H107.293V20.6566Z" fill="#62B22F"/>
<path d="M117.566 19.1169V16.5509H132.151V19.1169H127.205V29.3811H122.639V19.1169H117.566Z" fill="#62B22F"/>
<path d="M137.981 21.683H142.04C143.181 21.683 145.591 21.8113 145.591 23.8641C145.591 25.532 143.815 25.9169 141.913 25.9169H137.854V21.683H137.981ZM137.981 15.1396H149.269V11.8037H133.035V29.3811H143.054C147.873 29.3811 151.044 27.7131 151.044 24.1207C151.044 18.4754 144.83 18.3471 143.054 18.3471H137.981V15.1396Z" fill="#62B22F"/>
<path d="M162.206 24.1207C162.206 26.6868 160.05 27.3283 158.909 27.3283C158.021 27.3283 156.626 27.0717 156.626 25.7887C156.626 24.3773 158.274 24.1207 159.289 23.9924C161.065 23.7358 160.938 23.8641 162.333 23.3509V24.1207H162.206ZM156.879 20.6566C156.879 18.7321 158.909 18.6038 159.67 18.6038C160.177 18.6038 162.079 18.6038 162.079 20.2717C162.079 20.4 162.079 20.5283 162.079 20.6566C161.952 21.9396 160.811 21.683 157.387 22.0679C154.597 22.4528 151.68 23.0943 151.68 26.0453C151.68 27.0717 152.187 29.766 157.006 29.766C158.909 29.766 160.938 29.2528 162.079 27.9698H162.206L162.586 29.2528H167.406V28.9962C166.518 28.8679 166.518 27.9698 166.518 26.5585L166.645 20.6566C166.645 19.117 166.518 15.9094 159.67 15.9094C158.021 15.9094 152.694 16.0377 152.567 20.5283H156.879V20.6566Z" fill="#62B22F"/>
<path d="M173.113 29.3811H168.547V16.5509H173.113V21.4264H178.566V16.5509H183.132V29.3811H178.566V23.9924H173.113V29.3811Z" fill="#62B22F"/>
<path d="M194.672 16.5509H199.618L193.404 22.5811L199.998 29.3811H194.672L189.726 23.7358V29.3811H185.16V16.5509H189.726V21.683L194.672 16.5509Z" fill="#62B22F"/>
<path d="M0 29.3811H11.4141V17.9623H0V29.3811Z" fill="black"/>
<path d="M0 0V14.3698H3.04375C10.9068 14.3698 14.9651 18.4755 14.9651 26.4302V29.5094H29.1693V0H0ZM23.0818 6.03019C23.0818 9.87924 23.0818 19.3736 23.0818 23.3509C21.9404 23.3509 21.8136 23.3509 20.799 23.3509C19.7844 14.7547 14.4578 9.49434 6.08751 8.46792C6.08751 7.44151 6.08751 7.18491 6.08751 6.15849C9.8922 6.03019 19.2771 6.03019 23.0818 6.03019Z" fill="#62B22F"/>
</svg>
