<svg width="200" height="59" viewBox="0 0 200 59" fill="none" xmlns="http://www.w3.org/2000/svg">
<path d="M18.9882 0C22.9998 0 24.2924 2.88563 25.3622 5.77126C25.8079 6.9699 36.2826 35.5598 36.5946 36.4033C36.6838 36.6253 36.6392 37.0248 36.238 37.158C35.8369 37.2912 30.4435 39.4221 30.1315 39.5109C29.8195 39.5997 29.5075 39.4665 29.3737 39.1558C29.24 38.845 27.0114 32.6298 26.7439 31.9639C25.9862 31.9639 11.9902 31.9639 11.2325 31.9639C10.965 32.6742 8.69178 38.8894 8.60263 39.1558C8.51348 39.4221 8.1569 39.6441 7.84489 39.5109C7.53287 39.3777 2.05037 37.2912 1.73836 37.158C1.42634 37.0248 1.29262 36.6697 1.38177 36.4033C1.78293 35.3378 12.0793 7.23627 12.6142 5.77126C13.6394 2.93002 14.9766 0 18.9882 0ZM0.579453 51.0978C0.267441 51.0978 0 51.3642 0 51.7193V58.3785C0 58.7336 0.267441 59 0.579453 59H37.3969C37.7089 59 37.9764 58.7336 37.9764 58.3785V51.7193C37.9764 51.3642 37.7089 51.0978 37.3969 51.0978H0.579453ZM18.9882 9.3228L13.7286 24.994H24.2924L19.0328 9.3228H18.9882ZM155.962 32.319C155.962 34.0948 154.981 35.2491 153.154 35.2491C152.44 35.2491 151.861 35.2491 150.925 34.9827V29.611C151.326 29.5222 152.218 29.4334 153.154 29.4334C155.026 29.5666 155.962 30.4101 155.962 32.319ZM159.706 32.0971C159.706 28.8119 157.789 26.5478 153.688 26.5478C152.708 26.5478 151.995 26.6366 150.925 26.9029V22.1527C151.594 22.064 152.752 21.9752 154 21.9752C155.204 21.9752 156.719 22.064 158.057 22.1971L158.146 19.4447C156.63 19.0895 154.446 18.912 152.752 18.912C151.059 18.912 148.473 19.3115 147.225 19.6667V37.158C149.142 37.8683 151.059 38.1791 152.975 38.1791C157.388 38.1791 159.706 35.8262 159.706 32.0971ZM117.406 31.1204C117.406 33.5621 116.425 35.1603 114.821 35.1603C114.152 35.1603 113.795 35.1159 113.038 34.8939V27.5688C113.885 27.1693 114.33 27.1693 114.999 27.1693C116.604 27.1249 117.406 28.4567 117.406 31.1204ZM105.148 31.2092C105.148 28.5455 105.951 27.1249 107.555 27.1249C108.224 27.1249 108.669 27.1249 109.516 27.5245V34.8495C108.759 35.1159 108.402 35.1159 107.733 35.1159C105.906 35.1603 105.148 33.6509 105.148 31.2092ZM113.038 42.1746V37.38C113.483 37.6464 114.375 38.0459 115.846 38.0459C118.832 38.0459 121.016 35.6042 121.016 31.076C121.016 26.237 118.832 24.1505 115.266 24.1505C114.375 24.1505 113.751 24.2393 113.038 24.5944V18.9564H109.561V24.6388C108.848 24.2837 108.224 24.1949 107.332 24.1949C103.766 24.1949 101.582 26.3702 101.582 31.1648C101.582 35.6486 103.544 38.0459 106.753 38.0459C108.268 38.0459 109.16 37.6464 109.606 37.38V42.1746H113.038ZM86.5166 37.8239V25.0384C84.6 24.4613 83.1291 24.2393 81.1678 24.2393C79.2066 24.2393 77.7803 24.5056 75.8636 25.0384V31.6087C75.8636 33.3845 75.819 33.9172 75.6407 34.4944C75.4625 34.9827 75.195 35.6042 74.4818 36.0926L75.4179 38.1347C78.226 37.3356 79.2957 36.1369 79.2957 32.2303V27.3913C80.2318 27.2581 80.4101 27.2137 81.1678 27.2137C81.9256 27.2137 82.0593 27.2581 82.9953 27.3913V37.8239H86.5166ZM129.663 35.0271C128.906 35.2935 128.371 35.3378 127.791 35.3378C126.543 35.3378 125.83 34.8495 125.83 33.5621C125.83 32.2303 126.722 31.7863 128.46 31.7863C128.861 31.7863 129.307 31.8307 129.485 31.9195V32.8962C129.485 33.9172 129.53 34.5831 129.663 35.0271ZM134.121 36.5809C133.185 35.1603 132.962 34.3612 132.962 32.5854V28.9895C132.962 27.0805 132.739 26.3702 132.204 25.6155C131.491 24.6388 130.332 24.1949 128.103 24.1949C126.543 24.1949 125.028 24.3725 123.602 24.7276L124.136 27.3025C125.117 27.1693 126.142 27.0361 126.9 27.0361C129.218 27.0361 129.485 27.3913 129.485 29.1227V29.7886C128.95 29.6554 128.371 29.5666 127.702 29.5666C124.181 29.5666 122.353 31.2536 122.353 34.0948C122.353 36.7141 124.315 38.1791 126.722 38.1791C127.613 38.1791 128.549 38.0015 129.307 37.6907C129.753 37.5132 129.931 37.38 130.51 36.9804C130.867 37.5132 131.58 38.0015 131.848 38.0903L134.121 36.5809ZM168.308 35.0271C167.551 35.2935 167.016 35.3378 166.436 35.3378C165.188 35.3378 164.475 34.8495 164.475 33.5621C164.475 32.2303 165.367 31.7863 167.105 31.7863C167.551 31.7863 167.952 31.8307 168.13 31.9195V32.8962C168.13 33.9172 168.219 34.5831 168.308 35.0271ZM172.766 36.5809C171.83 35.1603 171.607 34.3612 171.607 32.5854V28.9895C171.607 27.0805 171.384 26.3702 170.894 25.6155C170.181 24.6388 168.977 24.1949 166.793 24.1949C165.233 24.1949 163.717 24.3725 162.291 24.7276L162.826 27.3025C163.807 27.1693 164.832 27.0361 165.589 27.0361C167.907 27.0361 168.175 27.3913 168.175 29.1227V29.7886C167.684 29.6554 167.06 29.5666 166.392 29.5666C162.871 29.5666 161.043 31.2536 161.043 34.0948C161.043 36.7141 163.004 38.1791 165.411 38.1791C166.303 38.1791 167.239 38.0015 167.996 37.6907C168.442 37.5132 168.62 37.38 169.2 36.9804C169.557 37.5132 170.27 38.0015 170.537 38.0903L172.766 36.5809ZM96.4564 33.2513C96.4564 34.5388 96.0107 35.471 94.3169 35.471C93.7375 35.471 93.5146 35.471 92.8014 35.2491V31.4312C93.7375 31.2536 93.782 31.2092 94.3169 31.2092C95.9216 31.2092 96.4564 32.0083 96.4564 33.2513ZM89.2801 24.4169V37.1136C90.9294 37.8239 92.7569 38.1347 94.4061 38.1347C98.1502 38.1347 100.111 36.2257 100.111 33.0737C100.111 30.2325 98.3285 28.4567 95.0301 28.4567C94.1832 28.4567 93.6929 28.5455 92.8014 28.7675V24.4169H89.2801ZM185.603 37.8239V24.55H182.082V29.5666H178.115V24.55H174.593V37.8239H178.115V32.4078H182.082V37.8239H185.603ZM200 37.8239C200 37.8239 198.083 33.7397 197.638 32.8518C197.103 31.8307 196.612 31.076 195.543 30.8096V30.7652C196.256 30.6321 196.835 30.1881 197.459 28.8563C198.039 27.5689 198.217 27.2581 198.574 26.9917C198.93 26.681 199.376 26.8141 199.376 26.8141L199.554 24.4169C199.064 24.3281 198.485 24.3281 197.905 24.3725C196.969 24.4169 196.479 24.6832 195.988 25.1716C195.632 25.5267 195.364 26.0594 195.052 26.681C194.74 27.3469 194.473 27.8796 194.116 28.5899C193.76 29.3002 193.626 29.611 192.69 29.611H192.111V24.55H188.589V37.8239H192.111V32.4078H192.601C193.581 32.4078 193.76 32.6742 194.295 33.6953C194.919 34.9383 196.078 37.8239 196.078 37.8239H200ZM69.3559 37.8239H73.4121L67.3056 19.2671C66.6815 19.0451 65.8792 18.912 65.0323 18.912C64.0963 18.912 63.7843 19.0451 63.0711 19.2671L56.608 37.8239H60.4859C60.4859 37.8239 61.0207 36.1813 61.6447 34.1836H68.3307C68.8656 36.2257 69.3559 37.8239 69.3559 37.8239ZM62.5362 31.076C62.5362 31.076 63.6506 27.3469 63.8288 26.7698C64.2746 25.2603 64.9432 22.8631 64.9432 22.8631H65.0323C65.0323 22.8631 65.6563 25.3491 66.0575 26.7254C66.2358 27.2581 67.3056 31.0316 67.3056 31.0316H62.5362V31.076ZM140.094 28.9451C138.846 28.9451 137.865 29.9661 137.865 31.1648C137.865 32.4078 138.846 33.3845 140.094 33.3845C141.342 33.3845 142.322 32.4078 142.322 31.1648C142.322 29.9661 141.297 28.9451 140.094 28.9451Z" fill="#EE3524"/>
</svg>
