<svg width="75" height="57" fill="none" xmlns="http://www.w3.org/2000/svg"><path fill-rule="evenodd" clip-rule="evenodd" d="M59.872 1H14.17a7 7 0 0 0-7 7v14.197a7.401 7.401 0 0 1 6.405-3.686v-4.17a2 2 0 0 1 2-2h18.212a2 2 0 0 1 2 2v4.17h2.468v-4.17a2 2 0 0 1 2-2h18.213a2 2 0 0 1 2 2v4.17a7.401 7.401 0 0 1 6.404 3.686V8a7 7 0 0 0-7-7zM39.255 18.51h20.213v-4.17a1 1 0 0 0-1-1H40.255a1 1 0 0 0-1 1v4.17zm-3.468 1h2.468v.235h22.213v-.234a6.407 6.407 0 0 1 6.286 5.17H7.289a6.406 6.406 0 0 1 6.286-5.17v.234h22.212v-.234zM6.17 24.68V8a8 8 0 0 1 8-8h45.702a8 8 0 0 1 8 8v16.68h.17a6 6 0 0 1 6 6v12.682a6 6 0 0 1-6 6H65.63v6.563a.841.841 0 1 1-1.683 0v-6.563h-53.85v6.563a.841.841 0 1 1-1.682 0v-6.563H6a6 6 0 0 1-6-6V30.68a6 6 0 0 1 6-6h.17zm0 1H6a5 5 0 0 0-5 5v12.682a5 5 0 0 0 5 5h2.414v-.01h1.683v.01h53.849v-.01h1.683v.01h2.414a5 5 0 0 0 5-5V30.68a5 5 0 0 0-5-5h-.17v.234H6.17v-.234zm28.617-7.17v-4.17a1 1 0 0 0-1-1H15.575a1 1 0 0 0-1 1v4.17h20.212z" fill="#C5A26D"/></svg>