<svg width="98" height="58" fill="none" xmlns="http://www.w3.org/2000/svg"><path fill-rule="evenodd" clip-rule="evenodd" d="M48.612 9.222c-.666 0-1.562-.255-2.517-.748a9.732 9.732 0 0 1-2.554-1.903c-.713-.757-1.122-1.497-1.212-2.104-.078-.521.057-1.031.7-1.533C46.325.36 50.781.348 54.206 2.943c.673.51.81 1.02.736 1.53-.086.6-.493 1.337-1.213 2.095-.705.742-1.63 1.418-2.58 1.905-.966.494-1.87.75-2.537.75zm-2.679.288c-3.207-1.526-6.354-5.15-3.52-7.365 3.664-2.86 8.62-2.86 12.397 0 2.914 2.208-.252 5.817-3.476 7.351 9.791.6 19.057 4.584 26.036 11.256 7.345 7.022 11.576 16.465 11.844 26.367l.007.319h6.268a2 2 0 0 1 2 2v6.096a2 2 0 0 1-2 2H2a2 2 0 0 1-2-2v-6.096a2 2 0 0 1 2-2h6.268l.007-.32c.268-9.901 4.499-19.344 11.844-26.366 6.927-6.621 16.105-10.596 25.814-11.242zm42.28 37.609c-.267-9.623-4.381-18.806-11.534-25.644C69.278 14.4 59.23 10.417 48.745 10.417c-10.486 0-20.534 3.982-27.935 11.058C13.657 28.313 9.543 37.496 9.276 47.12h78.938zm7.276 1.319H2a1 1 0 0 0-1 1v6.096a1 1 0 0 0 1 1h93.49a1 1 0 0 0 1-1v-6.096a1 1 0 0 0-1-1z" fill="#C5A26D"/></svg>