<svg width="46" height="65" fill="none" xmlns="http://www.w3.org/2000/svg"><path fill-rule="evenodd" clip-rule="evenodd" d="M44.845 22.922C44.845 10.816 35.03 1 22.923 1 10.814 1 1 10.815 1 22.922c0 2.926 1.343 6.931 3.484 11.401 2.122 4.434 4.962 9.19 7.815 13.575 2.852 4.38 5.705 8.37 7.846 11.265a226.45 226.45 0 0 0 2.585 3.43l.192.25.193-.25c.623-.81 1.515-1.982 2.585-3.43a234.44 234.44 0 0 0 7.846-11.265c2.853-4.384 5.693-9.141 7.815-13.575 2.14-4.47 3.484-8.475 3.484-11.4zM0 22.922C0 34.325 18.594 58.89 22.289 63.658c.407.526.633.811.633.811s.227-.285.634-.81c3.695-4.77 22.289-29.335 22.289-40.736C45.845 10.262 35.582 0 22.923 0 10.262 0 0 10.263 0 22.922zm29.086 0a6.163 6.163 0 1 1-12.327 0 6.163 6.163 0 0 1 12.327 0zm1 0a7.163 7.163 0 1 1-14.327 0 7.163 7.163 0 0 1 14.327 0z" fill="#C5A26D"/></svg>