<svg width="60" height="58" viewBox="0 0 60 58" fill="none" xmlns="http://www.w3.org/2000/svg">
<path d="M14 35.1425H28V25.2051H14V35.1425ZM16 33.155V30.1738H26V33.155H16ZM26 27.1926V28.1863H16V27.1926H26Z" fill="#5FB46E"/>
<path d="M14 39.1172V51.0421H28V39.1172H14ZM20 41.1047V44.0859H16V41.1047H20ZM16 46.0734H20V49.0546H16V46.0734ZM22 49.0546V46.0734H26V49.0546H22ZM26 44.0859H22V41.1047H26V44.0859Z" fill="#5FB46E"/>
<path d="M32 35.1425H46V25.2051H32V35.1425ZM34 33.155V32.1613H44V33.155H34ZM44 27.1926V30.1738H34V27.1926H44Z" fill="#5FB46E"/>
<path d="M59 47.0678C58.447 47.0678 58 47.513 58 48.0615V49.0553H57V48.0615C57 47.513 56.553 47.0678 56 47.0678C55.447 47.0678 55 47.513 55 48.0615V49.0553H54V28.9776C54.521 29.2102 55.073 29.3384 55.626 29.3384C56.699 29.3384 57.765 28.9051 58.553 28.0624C59.313 27.2495 59.698 26.1494 59.61 25.0434C59.521 23.9384 58.966 22.9118 58.088 22.2281L32.722 2.5112L30 0L27.343 2.45654L1.913 22.2281C1.034 22.9118 0.479 23.9384 0.391 25.0434C0.303 26.1494 0.688 27.2495 1.448 28.0624C2.642 29.3404 4.469 29.6623 6.001 28.9786V49.0563H5V48.0625C5 47.514 4.553 47.0688 4 47.0688C3.447 47.0688 3 47.514 3 48.0625V49.0563H2V48.0625C2 47.514 1.553 47.0688 1 47.0688C0.447 47.0688 0 47.514 0 48.0625V57.0063C0 57.5548 0.447 58 1 58C1.553 58 2 57.5548 2 57.0063V56.0125H3V57.0063C3 57.5548 3.447 58 4 58C4.553 58 5 57.5548 5 57.0063V56.0125H6V58H32H46H54V56.0125H55V57.0063C55 57.5548 55.447 58 56 58C56.553 58 57 57.5548 57 57.0063V56.0125H58V57.0063C58 57.5548 58.447 58 59 58C59.553 58 60 57.5548 60 57.0063V48.0625C60 47.513 59.553 47.0678 59 47.0678ZM2.912 26.7089C2.527 26.2965 2.34 25.7609 2.385 25.2004C2.43 24.6399 2.699 24.1401 3.146 23.7933L28.64 3.96803L30.001 2.71094L31.425 4.02169L56.855 23.7933C57.301 24.1401 57.571 24.6399 57.616 25.2004C57.661 25.7609 57.473 26.2975 57.089 26.7089C56.381 27.4662 55.228 27.5616 54.403 26.9305L54 26.6225L30 8.23816L6.39 26.3243L6.389 26.3253L5.598 26.9305C4.772 27.5616 3.62 27.4662 2.912 26.7089ZM2 54.024V51.0428H3V54.024H2ZM5 54.024V51.0428H6V54.024H5ZM34 56.0115V41.1053H44V56.0115H34ZM52 56.0115H46V39.1178H32V56.0115H8V27.5993L30 10.7464L52 27.5993V56.0115ZM54 54.024V51.0428H55V54.024H54ZM57 54.024V51.0428H58V54.024H57Z" fill="#5FB46E"/>
</svg>
