<svg width="58" height="58" viewBox="0 0 58 58" fill="none" xmlns="http://www.w3.org/2000/svg">
<path d="M16.4315 26.0947H9.66573C9.13195 26.0947 8.69922 26.5275 8.69922 27.0612V36.7265C8.69922 37.2603 9.13195 37.693 9.66573 37.693H16.4315C16.9652 37.693 17.398 37.2603 17.398 36.7265V27.0612C17.398 26.5275 16.9652 26.0947 16.4315 26.0947ZM15.4649 35.76H10.6322V28.0278H15.4649V35.76Z" fill="#5FB46E"/>
<path d="M32.8592 26.0947H26.0935C25.5597 26.0947 25.127 26.5275 25.127 27.0612V36.7265C25.127 37.2603 25.5597 37.693 26.0935 37.693H32.8592C33.393 37.693 33.8257 37.2603 33.8257 36.7265V27.0612C33.8257 26.5275 33.393 26.0947 32.8592 26.0947ZM31.8927 35.76H27.0601V28.0278H31.8927V35.76Z" fill="#5FB46E"/>
<path d="M32.8592 41.5576H26.0935C25.5597 41.5576 25.127 41.9904 25.127 42.5241V52.1894C25.127 52.7232 25.5597 53.1559 26.0935 53.1559H32.8592C33.393 53.1559 33.8257 52.7232 33.8257 52.1894V42.5241C33.8257 41.9905 33.393 41.5576 32.8592 41.5576ZM31.8927 51.2229H27.0601V43.4906H31.8927V51.2229Z" fill="#5FB46E"/>
<path d="M48.324 26.0947H41.5583C41.0245 26.0947 40.5918 26.5275 40.5918 27.0612V36.7265C40.5918 37.2603 41.0245 37.693 41.5583 37.693H48.324C48.8578 37.693 49.2906 37.2603 49.2906 36.7265V27.0612C49.2906 26.5275 48.8578 26.0947 48.324 26.0947ZM47.3575 35.76H42.5249V28.0278H47.3575V35.76Z" fill="#5FB46E"/>
<path d="M16.4315 41.5576H9.66573C9.13195 41.5576 8.69922 41.9904 8.69922 42.5241V52.1894C8.69922 52.7232 9.13195 53.1559 9.66573 53.1559H16.4315C16.9652 53.1559 17.398 52.7232 17.398 52.1894V42.5241C17.398 41.9905 16.9652 41.5576 16.4315 41.5576ZM15.4649 51.2229H10.6322V43.4906H15.4649V51.2229Z" fill="#5FB46E"/>
<path d="M48.324 41.5576H41.5583C41.0245 41.5576 40.5918 41.9904 40.5918 42.5241V52.1894C40.5918 52.7232 41.0245 53.1559 41.5583 53.1559H48.324C48.8578 53.1559 49.2906 52.7232 49.2906 52.1894V42.5241C49.2906 41.9905 48.8578 41.5576 48.324 41.5576ZM47.3575 51.2229H42.5249V43.4906H47.3575V51.2229Z" fill="#5FB46E"/>
<path d="M54.1216 56.0545V23.1949H55.0881C55.6218 23.1949 56.0545 22.7622 56.0545 22.2285V17.3962C56.0545 16.8625 55.6218 16.4298 55.0881 16.4298H54.1216V12.564C54.1216 12.0303 53.6889 11.5976 53.1552 11.5976H51.2223V0.966446C51.2223 0.432703 50.7896 0 50.2559 0H7.73168C7.19794 0 6.76523 0.432703 6.76523 0.966446V11.5975H4.83234C4.2986 11.5975 3.8659 12.0302 3.8659 12.5639V16.4297H2.89945C2.36571 16.4297 1.933 16.8624 1.933 17.3961V22.2284C1.933 22.7621 2.36571 23.1948 2.89945 23.1948H3.8659V56.0543H0V57.9872H4.83234H53.1552H57.9958V56.0543H54.1216V56.0545ZM8.69812 1.93289H49.2893V11.5975H8.69812V1.93289ZM5.79879 13.5304H7.73168H50.2557H52.1886V16.4297H5.79879V13.5304ZM52.1886 56.0545H5.79879V23.1949H52.1887V56.0545H52.1886ZM4.83234 21.262H3.8659V18.3627H4.83234H53.1552H54.1216V21.262H53.1552H4.83234Z" fill="#5FB46E"/>
<path d="M27.5089 5.23892C27.3552 4.84606 27.1393 4.50678 26.8608 4.2212C26.5825 3.93562 26.2475 3.71155 25.8561 3.54922C25.4646 3.38689 25.0312 3.30566 24.5557 3.30566C24.0801 3.30566 23.6459 3.38609 23.253 3.54707C22.8602 3.70804 22.5238 3.932 22.244 4.21905C21.9642 4.50611 21.7475 4.84606 21.5938 5.23904C21.4401 5.63189 21.3633 6.05885 21.3633 6.51991C21.3633 6.98096 21.4401 7.40792 21.5938 7.80078C21.7475 8.19364 21.9642 8.53359 22.244 8.82076C22.5238 9.10782 22.8602 9.33177 23.253 9.49275C23.6459 9.65372 24.0801 9.73415 24.5557 9.73415C25.0312 9.73415 25.4646 9.65372 25.8561 9.49275C26.2476 9.33189 26.5825 9.10782 26.8608 8.82076C27.1392 8.53371 27.3552 8.19375 27.5089 7.80078C27.6626 7.40792 27.7394 6.98096 27.7394 6.51991C27.7394 6.05874 27.6625 5.63178 27.5089 5.23892ZM26.4019 7.44836C26.3106 7.72239 26.1793 7.95439 26.0083 8.14425C25.8372 8.33422 25.6291 8.4799 25.3841 8.5814C25.1391 8.6829 24.8629 8.73365 24.5555 8.73365C24.2482 8.73365 23.9712 8.6829 23.7249 8.5814C23.4784 8.4799 23.2689 8.33422 23.0964 8.14425C22.9238 7.95427 22.7912 7.72239 22.6984 7.44836C22.6056 7.17433 22.5592 6.86485 22.5592 6.51979C22.5592 6.17474 22.6056 5.86525 22.6984 5.59123C22.7912 5.3172 22.9238 5.08452 23.0964 4.89319C23.2689 4.70186 23.4784 4.55538 23.7249 4.45388C23.9714 4.35238 24.2482 4.30163 24.5555 4.30163C24.8629 4.30163 25.1391 4.35238 25.3841 4.45388C25.6291 4.55538 25.8371 4.70186 26.0083 4.89319C26.1793 5.08452 26.3105 5.3172 26.4019 5.59123C26.4932 5.86525 26.5389 6.17474 26.5389 6.51979C26.5389 6.86485 26.4933 7.17433 26.4019 7.44836Z" fill="#5FB46E"/>
<path d="M19.2603 3.37598V6.08125H16.3115V3.37598H15.1328V9.66512H16.3115V6.91635H19.2603V9.66512H20.439V3.37598H19.2603Z" fill="#5FB46E"/>
<path d="M39.6466 8.69951V3.37598H38.4766V9.66512H42.1649V8.69951H39.6466Z" fill="#5FB46E"/>
<path d="M27.793 3.37598V4.33717H29.6937V9.66512H30.8637V4.33717H32.7556V3.37598H27.793Z" fill="#5FB46E"/>
<path d="M37.4647 4.3067V3.37598H33.498V9.66512H37.4647V8.72999H34.6767V6.95113H36.8732V6.05077H34.6767V4.3067H37.4647Z" fill="#5FB46E"/>
</svg>
