<svg width="75" height="57" viewBox="0 0 75 57" fill="none" xmlns="http://www.w3.org/2000/svg">
<path fill-rule="evenodd" clip-rule="evenodd" d="M59.8723 1H14.1702C10.3042 1 7.17021 4.134 7.17021 7.99999V22.1965C8.45274 19.9923 10.8406 18.5106 13.5745 18.5106V14.3404C13.5745 13.2359 14.4699 12.3404 15.5745 12.3404H33.7872C34.8918 12.3404 35.7872 13.2359 35.7872 14.3404V18.5106H38.2553V14.3404C38.2553 13.2359 39.1507 12.3404 40.2553 12.3404H58.4681C59.5727 12.3404 60.4681 13.2359 60.4681 14.3404L60.4681 18.5106C63.202 18.5106 65.5898 19.9923 66.8723 22.1965V8C66.8723 4.13401 63.7383 1 59.8723 1ZM39.2553 18.5106H59.4681V14.3404C59.4681 13.7881 59.0204 13.3404 58.4681 13.3404H40.2553C39.703 13.3404 39.2553 13.7881 39.2553 14.3404V18.5106ZM35.7872 19.5106H38.2553V19.7447H39.2553H59.4681H60.4681L60.4681 19.5106C63.5829 19.5106 66.1784 21.7344 66.7536 24.6809H7.289C7.86416 21.7344 10.4596 19.5106 13.5745 19.5106V19.7447H14.5745H34.7872H35.7872V19.5106ZM6.17021 24.6809V7.99999C6.17021 3.58172 9.75194 0 14.1702 0H59.8723C64.2906 0 67.8723 3.58172 67.8723 8V24.6809H68.0425C71.3563 24.6809 74.0426 27.3671 74.0426 30.6809V43.3617C74.0426 46.6754 71.3563 49.3617 68.0426 49.3617H65.6285V55.9246C65.6285 56.3893 65.2518 56.766 64.7872 56.766C64.3225 56.766 63.9458 56.3893 63.9458 55.9246V49.3617H10.0966V55.9246C10.0966 56.3893 9.71992 56.766 9.25524 56.766C8.79055 56.766 8.41384 56.3893 8.41384 55.9246V49.3617H6C2.6863 49.3617 0 46.6754 0 43.3617V30.6809C0 27.3671 2.68629 24.6809 6 24.6809H6.17021ZM6.17021 25.6809H6C3.23858 25.6809 1 27.9194 1 30.6809V43.3617C1 46.1231 3.23858 48.3617 6 48.3617H8.41384V48.352H9.09663H9.41384H10.0966V48.3617H63.9458V48.352H64.6285H64.9458H65.6285V48.3617H68.0426C70.804 48.3617 73.0426 46.1231 73.0426 43.3617V30.6809C73.0426 27.9194 70.804 25.6809 68.0425 25.6809H67.8723V25.9149H66.8723H7.17021H6.17021V25.6809ZM34.7872 18.5106V14.3404C34.7872 13.7881 34.3395 13.3404 33.7872 13.3404H15.5745C15.0222 13.3404 14.5745 13.7881 14.5745 14.3404V18.5106H34.7872Z" fill="#C5A26D"/>
</svg>
