<svg width="98" height="58" viewBox="0 0 98 58" fill="none" xmlns="http://www.w3.org/2000/svg">
<path fill-rule="evenodd" clip-rule="evenodd" d="M48.612 9.22239C47.9459 9.22239 47.0496 8.96739 46.095 8.47421C45.1539 7.98801 44.2394 7.31285 43.5407 6.57098C42.8278 5.81419 42.4193 5.07436 42.3286 4.46668C42.2509 3.94586 42.3863 3.43578 43.0293 2.93356C46.3249 0.359713 50.7812 0.348242 54.2063 2.94258C54.8792 3.45226 55.0154 3.96354 54.9425 4.47248C54.8564 5.07332 54.4492 5.81003 53.7291 6.5677C53.0239 7.3096 52.099 7.98553 51.1481 8.47261C50.1834 8.96677 49.279 9.22239 48.612 9.22239ZM45.9334 9.5102C42.7258 7.98444 39.5791 4.35939 42.4138 2.14544C46.0765 -0.715146 51.0335 -0.715146 54.8101 2.14544C57.724 4.35256 54.5576 7.96211 51.334 9.49604C61.1255 10.0956 70.3909 14.0801 77.3703 20.7524C84.7154 27.7744 88.9465 37.217 89.2139 47.1189C89.2168 47.2251 89.2192 47.3312 89.2212 47.4375H95.4894C96.5939 47.4375 97.4894 48.3329 97.4894 49.4375V55.5337C97.4894 56.6383 96.5939 57.5337 95.4894 57.5337H2C0.895433 57.5337 0 56.6383 0 55.5337V49.4375C0 48.3329 0.895431 47.4375 2 47.4375H8.26797C8.26992 47.3312 8.27233 47.225 8.2752 47.1189C8.54262 37.2169 12.7737 27.7744 20.1189 20.7524C27.0455 14.1305 36.2238 10.156 45.9334 9.5102ZM88.2136 47.1189C87.9464 37.4965 83.8317 28.3131 76.6792 21.4753C69.2779 14.3995 59.2302 10.4169 48.7446 10.4169C38.2589 10.4169 28.2113 14.3995 20.8099 21.4752C13.6574 28.3131 9.54272 37.4965 9.27558 47.1189L48.7446 47.1189H88.2136ZM95.4894 48.4375H2C1.44771 48.4375 1 48.8852 1 49.4375V55.5337C1 56.086 1.44772 56.5337 2 56.5337H95.4894C96.0416 56.5337 96.4894 56.086 96.4894 55.5337V49.4375C96.4894 48.8852 96.0416 48.4375 95.4894 48.4375Z" fill="#C5A26D"/>
</svg>
