<svg width="46" height="65" viewBox="0 0 46 65" fill="none" xmlns="http://www.w3.org/2000/svg">
<path fill-rule="evenodd" clip-rule="evenodd" d="M44.8449 22.9225C44.8449 10.815 35.0299 1 22.9225 1C10.815 1 1 10.815 1 22.9225C1 25.8477 2.34347 29.8532 4.48359 34.3232C6.60623 38.7566 9.44579 43.5138 12.2993 47.8978C15.1506 52.2784 18.0037 56.2679 20.1449 59.1634C21.2151 60.6106 22.1066 61.7834 22.7301 62.5936L22.9225 62.8432L23.1149 62.5936C23.7383 61.7834 24.6298 60.6106 25.7001 59.1634C27.8412 56.2679 30.6943 52.2784 33.5456 47.8978C36.3991 43.5138 39.2387 38.7566 41.3613 34.3232C43.5014 29.8532 44.8449 25.8477 44.8449 22.9225ZM0 22.9225C0 34.3243 18.5937 58.8892 22.2886 63.6581C22.6962 64.1842 22.9225 64.4694 22.9225 64.4694C22.9225 64.4694 23.1488 64.1842 23.5564 63.6581C27.2512 58.8892 45.8449 34.3243 45.8449 22.9225C45.8449 10.2627 35.5822 0 22.9225 0C10.2627 0 0 10.2627 0 22.9225ZM29.0856 22.9227C29.0856 26.3266 26.3262 29.086 22.9224 29.086C19.5185 29.086 16.7591 26.3266 16.7591 22.9227C16.7591 19.5189 19.5185 16.7595 22.9224 16.7595C26.3262 16.7595 29.0856 19.5189 29.0856 22.9227ZM30.0856 22.9227C30.0856 26.8789 26.8785 30.086 22.9224 30.086C18.9662 30.086 15.7591 26.8789 15.7591 22.9227C15.7591 18.9666 18.9662 15.7595 22.9224 15.7595C26.8785 15.7595 30.0856 18.9666 30.0856 22.9227Z" fill="#C5A26D"/>
</svg>
