<svg width="80" height="80" fill="none" xmlns="http://www.w3.org/2000/svg"><rect width="80" height="80" rx="40" fill="#000" fill-opacity=".5"/><path fill-rule="evenodd" clip-rule="evenodd" d="M40.004 38.66l-13.54-13.41a.86.86 0 0 0-1.212 0 .84.84 0 0 0 0 1.2L38.932 40l-13.68 13.548a.84.84 0 0 0 0 1.2.867.867 0 0 0 .603.252.84.84 0 0 0 .603-.252L39.996 41.34l13.54 13.41a.86.86 0 0 0 1.212 0 .84.84 0 0 0 0-1.2L41.068 40l13.68-13.548a.84.84 0 0 0 0-1.2.866.866 0 0 0-.603-.252.84.84 0 0 0-.603.252L40.004 38.66z" fill="#C5A26D"/></svg>