<svg width="200" height="65" viewBox="0 0 200 65" fill="none" xmlns="http://www.w3.org/2000/svg">
<path d="M199.932 18.4522C199.763 18.976 199.628 19.5167 199.442 20.0405C198.851 21.6796 198.006 22.271 196.283 22.2879C194.289 22.2879 192.278 22.2879 190.284 22.2879C190.014 22.2879 189.726 22.2879 189.355 22.2879C190.014 24.1636 190.149 26.0054 189.963 27.8641C189.777 29.7567 189.321 31.5816 188.222 33.1869C186.093 36.3298 181.7 36.3636 179.503 33.2714C179.334 33.0179 179.165 32.7644 178.929 32.4265C178.794 32.7306 178.692 32.9503 178.608 33.17C178.016 34.5387 176.985 35.1808 175.482 35.1639C173.707 35.1301 171.933 35.1639 170.159 35.1639C168.537 35.1639 167.624 34.3697 167.709 32.7475C167.81 31.024 168.165 29.3004 168.435 27.5769C168.723 25.8364 169.044 24.096 169.348 22.271C168.689 22.2372 168.08 22.2034 167.371 22.1696C167.472 21.5444 167.574 20.9699 167.709 20.1757C167.472 20.4968 167.371 20.632 167.269 20.784C166.627 21.8486 165.681 22.3386 164.464 22.3386C163.163 22.3386 161.879 22.3724 160.578 22.3217C159.97 22.3048 159.699 22.5245 159.48 23.0652C157.959 26.8503 156.387 30.6015 154.883 34.3866C154.647 34.978 154.36 35.1977 153.717 35.1808C152.315 35.1301 150.912 35.1639 149.459 35.1639C149.425 34.4711 149.392 33.8797 149.358 33.0686C149.172 33.3052 149.088 33.4065 149.037 33.5079C148.496 34.6063 147.584 35.1301 146.401 35.147C144.965 35.1808 143.528 35.1639 142.092 35.147C140.808 35.147 140.03 34.5218 139.76 33.1362C139.388 33.6262 139.101 34.0655 138.78 34.4373C137.259 36.1946 135.248 36.0257 134.218 33.9473C133.745 33.0179 133.423 31.9364 133.322 30.9057C133.001 27.881 133.238 24.8901 134.488 22.0514C135.367 20.0743 136.685 18.486 138.966 18.0804C139.794 17.9283 140.656 17.9959 141.484 17.9959C143.258 17.979 145.015 17.9959 146.925 17.9959C146.147 22.3217 145.387 26.563 144.627 30.8888C146.215 30.8888 147.702 30.8888 149.324 30.8888C149.189 26.6644 149.071 22.4569 148.935 18.1818C150.524 18.1818 152.045 18.1818 153.684 18.1818C153.684 21.8317 153.684 25.4478 153.684 29.0808C153.768 29.0976 153.836 29.1314 153.92 29.1483C154.022 28.9118 154.123 28.6921 154.208 28.4555C155.441 25.2619 156.675 22.0514 157.874 18.8408C158.094 18.2663 158.381 18.0804 158.973 18.0973C161.507 18.1311 164.042 18.0128 166.577 18.148C168.537 18.2494 169.939 17.3707 170.919 15.9006C171.798 14.5826 172.372 13.0618 172.964 11.5917C173.352 10.6286 173.538 9.59782 173.876 8.61776C173.961 8.38119 174.299 8.12773 174.552 8.11083C175.177 8.04324 175.836 8.09393 176.631 8.09393C176.056 11.4397 175.482 14.684 174.907 18.0128C175.989 18.0128 176.969 18.0128 177.932 18.0128C178.067 20.1926 176.614 21.95 174.569 22.2541C174.383 22.2879 174.096 22.4907 174.062 22.6597C173.572 25.3971 173.099 28.1345 172.626 30.9226C174.586 30.9226 176.462 30.9226 178.32 30.9226C178.236 29.6553 178.084 28.4217 178.101 27.2051C178.151 24.8733 178.574 22.6259 179.841 20.5982C180.804 19.0605 182.207 18.1649 184.032 18.148C189.219 18.1142 194.39 18.1311 199.578 18.1311C199.713 18.1311 199.865 18.148 200 18.1649C199.932 18.2325 199.932 18.3339 199.932 18.4522ZM183.542 22.3217C183.39 23.1497 183.238 23.927 183.119 24.6874C182.866 26.242 182.545 27.7796 182.376 29.3342C182.241 30.5002 182.883 31.2099 183.913 31.3619C184.387 31.4295 184.556 31.2943 184.623 30.8381C184.927 28.9625 185.282 27.0868 185.603 25.2112C185.772 24.2649 185.924 23.3187 186.11 22.3217C185.198 22.3217 184.42 22.3217 183.542 22.3217ZM138.949 22.2203C138.746 23.6397 138.527 24.9915 138.341 26.3602C138.222 27.3234 138.053 28.3035 138.07 29.2835C138.104 30.4326 138.797 30.9226 139.946 30.7536C140.436 27.9486 140.926 25.1098 141.433 22.2203C140.571 22.2203 139.811 22.2203 138.949 22.2203Z" fill="#ED0035"/>
<path d="M24.1974 0.0337952C25.5323 0.608314 26.2927 1.67286 26.7151 3.00777C27.5431 5.54241 27.4755 8.04326 26.242 10.4596C25.7519 11.4228 25.0591 12.2001 23.8594 12.217C22.6428 12.2339 21.9669 11.4566 21.4262 10.5272C20.5644 9.04022 20.3785 7.40115 20.4292 5.72829C20.4292 5.45793 20.4292 5.17067 20.4292 4.9003C19.314 4.59615 18.4015 5.17067 18.2832 6.47178C18.1818 7.68841 18.1818 8.95573 18.3677 10.1555C18.8577 13.2646 19.5505 16.34 20.0068 19.4491C20.5306 22.9807 20.5813 26.4954 19.2802 29.9256C16.7624 36.5833 8.97263 38.3745 3.4978 34.319C1.57148 32.8827 0.625211 30.8381 0.185874 28.5232C0.152078 28.3035 0.0675904 28.1007 0 27.8979C0 26.7151 0 25.5323 0 24.3494C0.0675904 24.1129 0.152078 23.8763 0.185874 23.6397C0.675904 20.6151 2.51774 18.4522 5.11997 18.1649C7.31666 17.9284 9.54714 17.9621 11.7607 17.8777C11.9635 18.6887 12.1325 19.3815 12.2846 20.0575C12.4366 20.7165 12.5718 21.3924 12.7239 22.1528C11.4228 22.1528 10.2737 22.1528 9.1247 22.1528C7.51943 22.1528 6.26901 22.8962 5.79588 24.4001C5.44103 25.5154 5.35654 26.7658 5.42413 27.9486C5.57621 30.1115 7.41805 31.852 9.68233 32.2406C11.3552 32.5279 13.0787 31.4126 14.0588 29.4356C14.7516 28.0162 14.9713 26.4954 15.0051 24.924C15.0727 21.5951 14.2278 18.4015 13.6195 15.174C13.0618 12.2001 12.707 9.22609 13.2139 6.20142C13.7546 2.92329 15.7824 0.77729 18.807 0.236566C19.1957 0.168976 19.5674 0.084488 19.9392 0C21.3755 0.0337952 22.7949 0.0337952 24.1974 0.0337952Z" fill="#ED0035"/>
<path d="M106.184 30.9057C106.506 29.1146 106.843 27.3572 107.165 25.583C107.249 25.093 107.333 24.586 107.435 24.096C107.655 23.0652 107.739 22.2035 106.962 21.1896C105.509 19.2971 105.88 15.2417 107.367 13.366C107.976 12.6056 108.736 12.0818 109.699 11.9973C110.51 11.9297 111.321 11.9804 112.268 11.9804C111.93 13.9743 111.609 15.9176 111.271 17.9791C113.552 17.9791 115.765 17.9791 118.08 17.9791C117.337 22.3218 116.593 26.5462 115.85 30.8888C117.607 30.8888 119.246 30.8888 120.868 30.8888C121.291 33.0517 119.635 35.1132 117.573 35.1301C116.357 35.1301 115.157 35.1301 113.94 35.1301C112.437 35.1132 111.642 34.5725 111.592 33.0855C111.541 31.362 111.778 29.6215 111.997 27.9149C112.234 26.0561 112.622 24.2143 112.944 22.2711C112.132 22.2711 111.389 22.2711 110.561 22.2711C110.155 24.3664 109.75 26.4786 109.327 28.5908C109.311 28.6415 109.311 28.709 109.311 28.7597C108.939 30.9564 108.736 31.1254 106.489 31.1254C106.387 31.1254 106.269 31.1423 106.201 31.1423C105.88 31.9534 105.627 32.7645 105.255 33.508C104.765 34.4711 103.954 35.0963 102.839 35.1132C100.473 35.1301 98.1074 35.1301 95.7417 35.0963C93.714 35.0625 92.0074 34.3528 90.8583 32.4434C90.7063 32.7814 90.588 33.0179 90.4697 33.2714C89.9121 34.488 88.9827 35.147 87.614 35.147C85.7046 35.147 83.7782 35.1639 81.8688 35.147C80.4494 35.1301 79.9425 34.5894 79.5538 32.7814C79.4356 32.9841 79.3173 33.1193 79.2497 33.2714C78.5907 34.5894 77.5261 35.1977 76.0391 35.1639C74.7211 35.1301 73.3862 35.1808 72.0682 35.147C70.5643 35.1132 69.8884 34.5049 70.0067 33.0179C70.1588 31.1254 70.4967 29.2667 70.7671 27.4079C70.8009 27.2221 70.8178 27.0362 70.6995 26.7827C70.1419 27.7121 69.6012 28.6415 69.0266 29.5708C68.2493 30.8381 67.489 32.1224 66.6948 33.3897C65.7316 34.9612 64.2615 35.3498 62.538 35.1132C62.3183 35.0794 62.1155 34.8767 61.9803 34.8091C61.203 34.9274 60.4765 35.0794 59.733 35.1301C58.7867 35.1808 57.8235 35.1132 56.8604 35.147C55.593 35.1808 54.3764 35.1808 53.9371 33.4404C53.0753 34.9612 51.8756 35.2484 50.49 35.1639C49.4592 35.0963 48.4116 35.1639 47.3639 35.147C46.0121 35.1301 45.4545 34.6401 45.1334 33.3221C44.7448 31.7337 45.1503 30.196 45.4038 28.6415C45.7417 26.58 46.1135 24.5353 46.4514 22.4907C46.4683 22.44 46.4345 22.3893 46.4176 22.2711C45.6911 22.2711 44.9476 22.2711 44.1196 22.2711C43.7309 24.2988 43.3085 26.3434 42.9367 28.3711C42.4805 30.855 42.4974 30.855 39.6924 31.2268C39.5065 31.8689 39.3882 32.5448 39.1348 33.1531C38.611 34.5049 37.614 35.1808 36.127 35.1639C34.2683 35.1301 32.4095 35.1639 30.5508 35.1639C29.0807 35.1639 28.6921 34.8598 28.3372 33.3897C28.1006 32.4265 28.1007 31.6323 29.1145 30.9902C29.6721 30.6354 30.1284 29.9933 30.4156 29.385C31.2267 27.6783 31.3957 25.8703 30.9225 24.0284C30.6691 23.0315 30.2804 22.609 29.3511 22.2035C28.0669 29.6384 26.7826 37.0396 25.4815 44.4745C23.91 44.4745 22.3724 44.4745 20.7671 44.4745C21.1557 42.244 21.5106 40.0811 21.8823 37.9351C23.2679 29.8919 24.6535 21.8655 26.0391 13.8223C26.3433 12.0142 26.3264 12.0142 28.1851 12.0142C29.1314 12.0142 30.0777 12.0142 31.0915 12.0142C30.7367 14.0588 30.4156 15.9683 30.0608 17.996C30.5508 17.996 30.9901 17.996 31.4295 17.996C33.5755 17.996 34.9949 19.0098 35.4849 21.0882C36.2791 24.4509 35.806 27.6276 33.7275 30.4664C33.66 30.5509 33.6093 30.6523 33.5586 30.7537C33.5417 30.7706 33.5755 30.8043 33.5924 30.8888C35.5863 30.8888 37.5971 30.8888 39.7262 30.8888C40.0641 29.0808 40.4021 27.2052 40.7401 25.3295C40.8076 24.9409 40.8583 24.5522 40.9428 24.1636C41.1625 23.1159 41.3146 22.2373 40.4866 21.1727C39.0334 19.2971 39.3882 15.4106 40.8076 13.4843C42.075 11.7608 43.8661 11.8452 45.8093 11.9973C45.4714 13.9912 45.1503 15.9345 44.7955 17.996C47.0767 17.996 49.2902 17.996 51.6221 17.996C50.8786 22.3387 50.1351 26.5631 49.3747 30.9226C50.811 30.9226 52.1459 30.9395 53.4977 30.8888C53.6498 30.8888 53.8695 30.5171 53.9202 30.2974C54.613 26.4786 55.3058 22.6597 55.9648 18.8408C56.0662 18.2325 56.269 17.9791 56.928 18.0129C57.9418 18.0636 58.9557 18.0298 59.9695 18.0298C60.2399 18.0298 60.5102 18.0636 60.8482 18.0805C60.0878 22.3893 59.3443 26.5799 58.5839 30.9226C59.9526 30.9226 61.203 30.9395 62.4535 30.8888C62.6224 30.8888 62.859 30.4833 62.8928 30.2298C63.5856 26.4448 64.2615 22.6428 64.9036 18.8408C65.005 18.2156 65.1909 17.9791 65.8499 17.996C67.0834 18.0467 68.3169 18.0129 69.7363 18.0129C69.3308 20.3954 68.9421 22.6766 68.5535 24.9578C68.5873 24.9747 68.638 24.9916 68.6718 25.0254C68.807 24.8395 68.9421 24.6536 69.0604 24.4509C70.2095 22.609 71.3247 20.7503 72.5244 18.9422C73.0821 18.0805 73.8087 17.3877 74.9915 17.3877C75.7181 17.3877 76.2926 17.6749 76.3771 18.3508C76.5123 19.5337 76.6306 20.7672 76.4616 21.9331C76.056 24.7381 75.4984 27.5262 75.0084 30.3312C74.9746 30.4833 74.9746 30.6523 74.9408 30.8719C76.563 30.8719 78.1175 30.8719 79.8073 30.8719C80.3142 28.0162 80.8043 25.1606 81.3281 22.1866C80.6184 22.1866 80.0101 22.1866 79.3173 22.1866C79.5876 20.8179 79.8073 19.5505 80.0946 18.3001C80.1453 18.0974 80.3818 17.8946 80.5846 17.7932C82.1899 16.9652 83.2882 15.681 83.9303 14.025C84.5893 12.3015 85.1638 10.5272 85.7046 8.75298C85.8735 8.22915 86.0763 8.00949 86.617 8.04328C87.1916 8.09397 87.783 8.06018 88.5265 8.06018C87.952 11.4059 87.3774 14.6333 86.8029 17.9622C87.8506 17.9622 88.8475 17.9622 89.8445 17.9622C89.9121 20.1927 88.5096 21.8993 86.4481 22.2035C86.2622 22.2373 85.9918 22.3893 85.958 22.5414C85.4511 25.2957 84.9949 28.0669 84.5048 30.8888C86.4143 30.8888 88.2392 30.8888 89.9459 30.8888C89.9459 29.2329 89.8614 27.5938 89.9628 25.9885C90.1317 23.5215 90.8583 21.2403 92.734 19.4661C93.7478 18.5029 94.9645 17.9791 96.4007 17.996C97.2118 18.0129 98.0398 17.9791 98.834 18.0805C100.541 18.317 101.656 19.3478 102.197 20.9193C102.873 22.9132 102.72 24.9071 101.723 26.7996C101.487 27.2728 101.166 27.5093 100.591 27.4755C99.4254 27.4248 98.2426 27.4586 96.9415 27.4586C97.3808 25.6506 97.8033 23.9608 98.2426 22.1866C97.5498 22.1866 96.9246 22.1528 96.3163 22.2035C96.1304 22.2204 95.8769 22.5076 95.8262 22.7104C95.4714 24.6198 95.0996 26.5293 94.8462 28.4387C94.6434 29.9933 95.0827 30.9564 96.9922 30.9226C100.051 30.855 103.092 30.9057 106.184 30.9057Z" fill="#ED0035"/>
<path d="M62.707 8.33051C62.6394 9.66542 62.4197 11.22 61.5579 12.6056C60.3075 14.5826 58.3981 14.5826 57.097 12.6394C55.5424 10.3075 55.5424 5.79587 57.097 3.44711C58.3981 1.47009 60.3751 1.52078 61.6086 3.54849C62.2845 4.66373 62.707 6.42108 62.707 8.33051Z" fill="#ED0035"/>
<path d="M131.497 20.4968C131.125 22.6597 130.754 24.7381 130.399 26.8503C127.56 26.8503 124.755 26.8503 121.832 26.8503C122.203 24.7212 122.558 22.6259 122.93 20.4968C125.786 20.4968 128.591 20.4968 131.497 20.4968Z" fill="#ED0035"/>
<path d="M0.854 49.66H3.654C4.72733 49.66 5.54867 49.8793 6.118 50.318C6.68733 50.7567 6.972 51.508 6.972 52.572C6.972 53.2627 6.832 53.804 6.552 54.196C6.272 54.5787 5.866 54.812 5.334 54.896C6.64067 55.148 7.294 56.0813 7.294 57.696C7.294 58.788 7.028 59.614 6.496 60.174C5.964 60.7247 5.17533 61 4.13 61H0.854V49.66ZM3.626 54.294C4.22333 54.294 4.62933 54.1633 4.844 53.902C5.068 53.6313 5.18 53.1973 5.18 52.6C5.18 52.0213 5.03533 51.6293 4.746 51.424C4.466 51.2093 3.99467 51.102 3.332 51.102H2.912V54.294H3.626ZM3.71 59.544C4.31667 59.544 4.73667 59.3993 4.97 59.11C5.20333 58.8207 5.32 58.3447 5.32 57.682C5.32 57.0007 5.18933 56.506 4.928 56.198C4.676 55.8807 4.24667 55.722 3.64 55.722H2.912V59.544H3.71ZM12.049 61.126C11.7036 61.126 11.3956 61.0327 11.125 60.846C10.8636 60.6593 10.6583 60.4213 10.509 60.132C10.369 59.8333 10.299 59.5253 10.299 59.208C10.299 58.5827 10.4436 58.0693 10.733 57.668C11.0316 57.2573 11.3956 56.94 11.825 56.716C12.2636 56.492 12.8423 56.2447 13.561 55.974V55.274C13.561 54.9007 13.5143 54.63 13.421 54.462C13.337 54.2847 13.169 54.196 12.917 54.196C12.4876 54.196 12.2636 54.4947 12.245 55.092L12.217 55.582L10.411 55.512C10.439 54.5787 10.6676 53.8927 11.097 53.454C11.5356 53.006 12.1936 52.782 13.071 52.782C13.8643 52.782 14.4523 53.0013 14.835 53.44C15.2176 53.8693 15.409 54.4807 15.409 55.274V59.012C15.409 59.5907 15.4556 60.2533 15.549 61H13.841C13.7476 60.496 13.6823 60.1087 13.645 59.838C13.533 60.202 13.3416 60.51 13.071 60.762C12.8096 61.0047 12.469 61.126 12.049 61.126ZM12.749 59.712C12.9076 59.712 13.057 59.656 13.197 59.544C13.3463 59.432 13.4676 59.3107 13.561 59.18V56.912C13.0663 57.2013 12.6976 57.4813 12.455 57.752C12.2123 58.0133 12.091 58.3447 12.091 58.746C12.091 59.0447 12.147 59.2827 12.259 59.46C12.3803 59.628 12.5436 59.712 12.749 59.712ZM18.771 52.908H20.675V56.17H22.313V52.908H24.217V61H22.313V57.514H20.675V61H18.771V52.908ZM28.5873 54.252H27.1033V52.908H31.9893V54.252H30.4913V61H28.5873V54.252ZM36.427 61.126C36.0817 61.126 35.7737 61.0327 35.503 60.846C35.2417 60.6593 35.0363 60.4213 34.887 60.132C34.747 59.8333 34.677 59.5253 34.677 59.208C34.677 58.5827 34.8217 58.0693 35.111 57.668C35.4097 57.2573 35.7737 56.94 36.203 56.716C36.6417 56.492 37.2203 56.2447 37.939 55.974V55.274C37.939 54.9007 37.8923 54.63 37.799 54.462C37.715 54.2847 37.547 54.196 37.295 54.196C36.8657 54.196 36.6417 54.4947 36.623 55.092L36.595 55.582L34.789 55.512C34.817 54.5787 35.0457 53.8927 35.475 53.454C35.9137 53.006 36.5717 52.782 37.449 52.782C38.2423 52.782 38.8303 53.0013 39.213 53.44C39.5957 53.8693 39.787 54.4807 39.787 55.274V59.012C39.787 59.5907 39.8337 60.2533 39.927 61H38.219C38.1257 60.496 38.0603 60.1087 38.023 59.838C37.911 60.202 37.7197 60.51 37.449 60.762C37.1877 61.0047 36.847 61.126 36.427 61.126ZM37.127 59.712C37.2857 59.712 37.435 59.656 37.575 59.544C37.7243 59.432 37.8457 59.3107 37.939 59.18V56.912C37.4443 57.2013 37.0757 57.4813 36.833 57.752C36.5903 58.0133 36.469 58.3447 36.469 58.746C36.469 59.0447 36.525 59.2827 36.637 59.46C36.7583 59.628 36.9217 59.712 37.127 59.712ZM44.3111 56.898L42.6031 52.908H44.3251L45.8231 56.772H45.9631V52.908H47.5451V56.772H47.6711L49.2111 52.908H50.9331L49.1831 56.898L51.0311 61H49.3931L47.6711 57.052H47.5451V61H45.9631V57.052H45.8091L44.1431 61H42.5051L44.3111 56.898ZM53.8044 52.908H55.7084V56.17H57.3464V52.908H59.2504V61H57.3464V57.514H55.7084V61H53.8044V52.908ZM62.7247 50.038H64.6287V51.62H62.7247V50.038ZM62.7247 52.908H64.6287V61H62.7247V52.908ZM75.0337 61.126C74.6883 61.126 74.3803 61.0327 74.1097 60.846C73.8483 60.6593 73.643 60.4213 73.4937 60.132C73.3537 59.8333 73.2837 59.5253 73.2837 59.208C73.2837 58.5827 73.4283 58.0693 73.7177 57.668C74.0163 57.2573 74.3803 56.94 74.8097 56.716C75.2483 56.492 75.827 56.2447 76.5457 55.974V55.274C76.5457 54.9007 76.499 54.63 76.4057 54.462C76.3217 54.2847 76.1537 54.196 75.9017 54.196C75.4723 54.196 75.2483 54.4947 75.2297 55.092L75.2017 55.582L73.3957 55.512C73.4237 54.5787 73.6523 53.8927 74.0817 53.454C74.5203 53.006 75.1783 52.782 76.0557 52.782C76.849 52.782 77.437 53.0013 77.8197 53.44C78.2023 53.8693 78.3937 54.4807 78.3937 55.274V59.012C78.3937 59.5907 78.4403 60.2533 78.5337 61H76.8257C76.7323 60.496 76.667 60.1087 76.6297 59.838C76.5177 60.202 76.3263 60.51 76.0557 60.762C75.7943 61.0047 75.4537 61.126 75.0337 61.126ZM75.7337 59.712C75.8923 59.712 76.0417 59.656 76.1817 59.544C76.331 59.432 76.4523 59.3107 76.5457 59.18V56.912C76.051 57.2013 75.6823 57.4813 75.4397 57.752C75.197 58.0133 75.0757 58.3447 75.0757 58.746C75.0757 59.0447 75.1317 59.2827 75.2437 59.46C75.365 59.628 75.5283 59.712 75.7337 59.712ZM81.7557 52.908H84.3317C85.3024 52.908 85.9697 53.0853 86.3337 53.44C86.6977 53.7947 86.8797 54.294 86.8797 54.938C86.8797 55.386 86.7864 55.7453 86.5997 56.016C86.4131 56.2867 86.1191 56.4827 85.7177 56.604C86.2217 56.716 86.5717 56.9493 86.7677 57.304C86.9731 57.6493 87.0757 58.0973 87.0757 58.648C87.0757 59.4413 86.8704 60.034 86.4597 60.426C86.0491 60.8087 85.3351 61 84.3177 61H81.7557V52.908ZM84.2897 56.128C84.5697 56.128 84.7751 56.044 84.9057 55.876C85.0457 55.708 85.1157 55.442 85.1157 55.078C85.1157 54.7233 85.0364 54.462 84.8777 54.294C84.7284 54.126 84.4811 54.042 84.1357 54.042H83.6457V56.128H84.2897ZM84.0937 59.796C84.4671 59.796 84.7471 59.7213 84.9337 59.572C85.1204 59.4133 85.2137 59.0867 85.2137 58.592C85.2137 58.2 85.1671 57.9107 85.0737 57.724C84.9897 57.5373 84.8731 57.4207 84.7237 57.374C84.5837 57.318 84.3877 57.29 84.1357 57.29H83.6457V59.796H84.0937ZM91.1209 54.252H89.6369V52.908H94.5229V54.252H93.0249V61H91.1209V54.252ZM99.7468 61.126C98.8788 61.126 98.2302 60.888 97.8008 60.412C97.3715 59.9267 97.1568 59.2267 97.1568 58.312V55.596C97.1568 54.6813 97.3715 53.986 97.8008 53.51C98.2302 53.0247 98.8788 52.782 99.7468 52.782C100.615 52.782 101.263 53.0247 101.693 53.51C102.131 53.986 102.351 54.6813 102.351 55.596V58.312C102.351 59.2267 102.131 59.9267 101.693 60.412C101.263 60.888 100.615 61.126 99.7468 61.126ZM99.7608 59.81C100.05 59.81 100.241 59.698 100.335 59.474C100.428 59.2407 100.475 58.9 100.475 58.452V55.47C100.475 55.022 100.428 54.6813 100.335 54.448C100.241 54.2147 100.05 54.098 99.7608 54.098C99.4622 54.098 99.2662 54.2147 99.1728 54.448C99.0795 54.6813 99.0328 55.022 99.0328 55.47V58.452C99.0328 58.9 99.0795 59.2407 99.1728 59.474C99.2662 59.698 99.4622 59.81 99.7608 59.81ZM110.516 59.81C111.132 59.4273 111.599 58.858 111.916 58.102C112.243 57.3367 112.425 56.2307 112.462 54.784L112.602 52.908H116.676V59.768H117.754V63.128H116.382L116.242 61H112.028L111.888 63.128H110.516V59.81ZM114.898 59.768V54.126H114.044L113.932 55.204C113.904 56.576 113.764 57.598 113.512 58.27C113.27 58.942 112.929 59.4413 112.49 59.768H114.898ZM120.173 59.698C120.565 59.698 120.854 59.6047 121.041 59.418C121.237 59.2313 121.377 58.9187 121.461 58.48C121.545 58.0413 121.619 57.3507 121.685 56.408L121.909 52.908H126.613V61H124.709V54.252H123.547L123.379 56.646C123.304 57.878 123.178 58.802 123.001 59.418C122.823 60.0247 122.543 60.454 122.161 60.706C121.778 60.9487 121.209 61.07 120.453 61.07H120.173V59.698ZM130.887 57.612C130.533 57.444 130.267 57.1733 130.089 56.8C129.921 56.4173 129.837 55.9507 129.837 55.4C129.837 54.5693 130.075 53.9487 130.551 53.538C131.027 53.118 131.811 52.908 132.903 52.908H135.227V61H133.323V57.962C132.997 57.962 132.768 57.9573 132.637 57.948L131.517 61H129.501L130.887 57.612ZM133.323 56.856V53.986H133.211C132.623 53.9953 132.199 54.112 131.937 54.336C131.685 54.5507 131.559 54.9007 131.559 55.386C131.559 55.8807 131.685 56.2493 131.937 56.492C132.199 56.7253 132.619 56.8467 133.197 56.856H133.323ZM146.536 61.126C145.621 61.126 144.963 60.8787 144.562 60.384C144.16 59.88 143.96 59.1193 143.96 58.102V53.468C143.96 52.4227 144.095 51.6527 144.366 51.158C144.646 50.654 145.084 50.29 145.682 50.066C145.943 49.9633 146.363 49.842 146.942 49.702C147.343 49.6087 147.67 49.5247 147.922 49.45C148.174 49.366 148.421 49.2447 148.664 49.086L148.86 50.64C148.636 50.7613 148.398 50.8593 148.146 50.934C147.903 50.9993 147.609 51.0647 147.264 51.13C146.722 51.242 146.33 51.3493 146.088 51.452C145.836 51.5733 145.644 51.7647 145.514 52.026C145.392 52.2873 145.332 52.642 145.332 53.09V54.042C145.518 53.846 145.78 53.6827 146.116 53.552C146.452 53.4213 146.806 53.356 147.18 53.356C147.833 53.356 148.323 53.5847 148.65 54.042C148.986 54.49 149.154 55.2413 149.154 56.296V58.06C149.154 58.8627 149.046 59.488 148.832 59.936C148.617 60.384 148.318 60.6967 147.936 60.874C147.562 61.042 147.096 61.126 146.536 61.126ZM146.592 59.838C146.788 59.838 146.937 59.7913 147.04 59.698C147.142 59.5953 147.212 59.4273 147.25 59.194C147.296 58.9513 147.32 58.606 147.32 58.158V55.862C147.32 55.3767 147.273 55.036 147.18 54.84C147.086 54.6347 146.918 54.532 146.676 54.532C146.34 54.532 146.055 54.7653 145.822 55.232V58.088C145.822 58.5547 145.84 58.9093 145.878 59.152C145.924 59.3947 146.004 59.572 146.116 59.684C146.228 59.7867 146.386 59.838 146.592 59.838ZM152.485 50.038H154.389V51.62H152.485V50.038ZM152.485 52.908H154.389V61H152.485V52.908ZM160.032 61.14C159.145 61.14 158.524 60.9067 158.17 60.44C157.824 59.9733 157.652 59.2967 157.652 58.41H159.206C159.206 58.9047 159.276 59.264 159.416 59.488C159.556 59.712 159.775 59.824 160.074 59.824C160.391 59.824 160.601 59.7167 160.704 59.502C160.816 59.278 160.872 58.956 160.872 58.536C160.872 58.228 160.82 57.9947 160.718 57.836C160.624 57.668 160.466 57.5513 160.242 57.486C160.018 57.4207 159.7 57.388 159.29 57.388V56.254C159.691 56.254 159.999 56.2167 160.214 56.142C160.428 56.0673 160.578 55.9507 160.662 55.792C160.746 55.6333 160.788 55.414 160.788 55.134C160.788 54.462 160.522 54.126 159.99 54.126C159.691 54.126 159.472 54.2147 159.332 54.392C159.201 54.5693 159.136 54.8867 159.136 55.344H157.596C157.596 54.4947 157.792 53.8553 158.184 53.426C158.576 52.9967 159.206 52.782 160.074 52.782C160.876 52.782 161.478 52.992 161.88 53.412C162.281 53.8227 162.482 54.35 162.482 54.994C162.482 55.554 162.36 55.9787 162.118 56.268C161.875 56.548 161.572 56.7253 161.208 56.8C161.478 56.884 161.702 56.9867 161.88 57.108C162.066 57.22 162.216 57.4113 162.328 57.682C162.449 57.9527 162.51 58.3213 162.51 58.788C162.51 59.5347 162.304 60.1133 161.894 60.524C161.483 60.9347 160.862 61.14 160.032 61.14ZM165.618 52.908H167.522V56.17H169.16V52.908H171.064V61H169.16V57.514H167.522V61H165.618V52.908ZM176.933 61.126C176.037 61.126 175.379 60.8787 174.959 60.384C174.539 59.88 174.329 59.138 174.329 58.158V55.75C174.329 54.7607 174.539 54.0187 174.959 53.524C175.388 53.0293 176.046 52.782 176.933 52.782C177.847 52.782 178.491 53.0387 178.865 53.552C179.247 54.0653 179.439 54.84 179.439 55.876V57.038H176.219V58.634C176.219 59.026 176.275 59.3107 176.387 59.488C176.508 59.6653 176.695 59.754 176.947 59.754C177.189 59.754 177.362 59.67 177.465 59.502C177.577 59.3247 177.633 59.0587 177.633 58.704V58.018H179.425V58.578C179.425 59.4087 179.215 60.0433 178.795 60.482C178.375 60.9113 177.754 61.126 176.933 61.126ZM177.633 56.1V55.33C177.633 54.91 177.581 54.6113 177.479 54.434C177.376 54.2473 177.194 54.154 176.933 54.154C176.662 54.154 176.475 54.252 176.373 54.448C176.27 54.644 176.219 55.008 176.219 55.54V56.1H177.633ZM185.127 61.126C184.221 61.126 183.563 60.874 183.153 60.37C182.742 59.8567 182.537 59.124 182.537 58.172V55.736C182.537 54.7747 182.742 54.042 183.153 53.538C183.563 53.034 184.221 52.782 185.127 52.782C185.985 52.782 186.611 52.9873 187.003 53.398C187.404 53.8087 187.605 54.434 187.605 55.274V55.946H185.813V55.232C185.813 54.812 185.761 54.5227 185.659 54.364C185.565 54.2053 185.393 54.126 185.141 54.126C184.87 54.126 184.683 54.224 184.581 54.42C184.487 54.616 184.441 54.9753 184.441 55.498V58.466C184.441 58.97 184.492 59.3153 184.595 59.502C184.707 59.6887 184.889 59.782 185.141 59.782C185.402 59.782 185.579 59.698 185.673 59.53C185.766 59.3527 185.813 59.0727 185.813 58.69V57.822H187.605V58.592C187.605 59.4227 187.404 60.0527 187.003 60.482C186.601 60.9113 185.976 61.126 185.127 61.126ZM190.887 61.826C191.391 61.826 191.745 61.7793 191.951 61.686C192.165 61.602 192.273 61.434 192.273 61.182C192.273 61.014 192.175 60.538 191.979 59.754L190.201 52.908H192.049L193.099 58.256L194.009 52.908H195.843L193.953 61.322C193.794 62.0033 193.491 62.484 193.043 62.764C192.604 63.0533 192.007 63.198 191.251 63.198H190.887V61.826Z" fill="#DADADA"/>
</svg>
