<svg width="15" height="10" viewBox="0 0 15 10" fill="none" xmlns="http://www.w3.org/2000/svg">
<path d="M0.173077 5.5C0.0576923 5.4 0 5.25 0 5.15C0 5.05 0.0576923 4.9 0.173077 4.8L0.980769 4.1C1.21154 3.9 1.55769 3.9 1.78846 4.1L1.84615 4.15L5.01923 7.1C5.13462 7.2 5.30769 7.2 5.42308 7.1L13.1538 0.15H13.2115V0.15C13.4423 -0.05 13.7885 -0.05 14.0192 0.15L14.8269 0.85C15.0577 1.05 15.0577 1.35 14.8269 1.55L5.59615 9.85C5.48077 9.95 5.36538 10 5.19231 10C5.01923 10 4.90385 9.95 4.78846 9.85L0.288462 5.65L0.173077 5.5V5.5Z" fill="#2A6AF0"/>
</svg>
