<svg width="24" height="24" viewBox="0 0 24 24" fill="none" xmlns="http://www.w3.org/2000/svg">
<g clip-path="url(#clip0)">
<path d="M5.76021 17.0396C5.16007 17.0396 4.65009 17.2495 4.23005 17.6695C3.81017 18.0899 3.60007 18.5998 3.60007 19.1999C3.60007 19.8001 3.81001 20.31 4.23005 20.7303C4.65025 21.1503 5.16023 21.3603 5.76021 21.3603C6.35025 21.3603 6.85766 21.1503 7.28274 20.7303C7.70767 20.3105 7.92013 19.8001 7.92013 19.1999C7.92013 18.5998 7.70772 18.0902 7.28274 17.6695C6.85761 17.2499 6.35025 17.0396 5.76021 17.0396Z" fill="#2A6AF0"/>
<path d="M5.28026 12.4798C5.28026 11.8198 5.04537 11.255 4.57532 10.7845C4.10532 10.3145 3.54022 10.0796 2.88025 10.0796C2.22022 10.0796 1.65523 10.3146 1.18518 10.7845C0.715233 11.2546 0.480286 11.8196 0.480286 12.4798C0.480286 13.1396 0.715181 13.7044 1.18518 14.1745C1.65523 14.6447 2.22022 14.8797 2.88025 14.8797C3.54022 14.8797 4.10532 14.6447 4.57532 14.1745C5.04537 13.7047 5.28026 13.1396 5.28026 12.4798Z" fill="#2A6AF0"/>
<path d="M19.2 6.96004C19.5297 6.96004 19.8127 6.84236 20.0474 6.60746C20.2824 6.37236 20.4001 6.08976 20.4001 5.75982C20.4001 5.42973 20.2824 5.14734 20.0474 4.91239C19.8125 4.67729 19.5297 4.55981 19.2 4.55981C18.8699 4.55981 18.5872 4.6775 18.3522 4.91239C18.1174 5.14739 17.9999 5.42973 17.9999 5.75982C17.9999 6.08992 18.1174 6.37236 18.3522 6.60746C18.5872 6.84257 18.8699 6.96004 19.2 6.96004Z" fill="#2A6AF0"/>
<path d="M5.7604 3.12012C5.03028 3.12012 4.40782 3.37766 3.8928 3.89258C3.37772 4.4075 3.12034 5.03001 3.12034 5.75997C3.12034 6.49019 3.37772 7.11244 3.8928 7.62757C4.40798 8.14265 5.03044 8.40013 5.7604 8.40013C6.49035 8.40013 7.11287 8.14249 7.62779 7.62757C8.14271 7.11244 8.40024 6.49003 8.40024 5.75997C8.40024 5.03001 8.14271 4.4075 7.62779 3.89258C7.11287 3.37766 6.49035 3.12012 5.7604 3.12012Z" fill="#2A6AF0"/>
<path d="M23.0999 11.4597C22.82 11.1796 22.48 11.0398 22.0801 11.0398C21.6799 11.0398 21.3399 11.1796 21.06 11.4597C20.7802 11.7397 20.6404 12.0798 20.6404 12.48C20.6404 12.8798 20.7802 13.2204 21.06 13.4998C21.3401 13.7799 21.6799 13.9197 22.0801 13.9197C22.48 13.9197 22.8202 13.7799 23.0999 13.4998C23.38 13.22 23.5197 12.8798 23.5197 12.48C23.5197 12.08 23.3802 11.7399 23.0999 11.4597Z" fill="#2A6AF0"/>
<path d="M19.2 17.5198C18.7397 17.5198 18.3448 17.6846 18.0147 18.0147C17.6849 18.3445 17.5199 18.7396 17.5199 19.1999C17.5199 19.6598 17.6849 20.055 18.0147 20.3852C18.3448 20.7152 18.7398 20.8799 19.2 20.8799C19.6599 20.8799 20.0549 20.7149 20.385 20.3852C20.7151 20.0551 20.88 19.66 20.88 19.1999C20.88 18.7396 20.7151 18.3449 20.385 18.0147C20.055 17.6846 19.6599 17.5198 19.2 17.5198Z" fill="#2A6AF0"/>
<path d="M12.4801 20.1594C11.9501 20.1594 11.4975 20.3473 11.1223 20.7224C10.7475 21.0974 10.5599 21.5497 10.5599 22.0798C10.5599 22.6098 10.7473 23.0622 11.1223 23.4372C11.4975 23.8123 11.9499 24 12.4801 24C13.0101 24 13.4625 23.8123 13.8376 23.4372C14.2126 23.0622 14.4001 22.6098 14.4001 22.0798C14.4001 21.5497 14.2126 21.0974 13.8376 20.7224C13.4625 20.3473 13.0101 20.1594 12.4801 20.1594Z" fill="#2A6AF0"/>
<path d="M12.4801 0C11.6802 0 10.9999 0.279867 10.4399 0.839864C9.87998 1.39991 9.60001 2.08006 9.60001 2.88C9.60001 3.67999 9.87987 4.35982 10.4399 4.91992C10.9999 5.47981 11.6801 5.75984 12.4801 5.75984C13.2804 5.75984 13.9602 5.47997 14.52 4.91992C15.0799 4.36008 15.3598 3.67999 15.3598 2.88C15.3598 2.08012 15.0799 1.40012 14.52 0.839864C13.9602 0.280025 13.2804 0 12.4801 0Z" fill="#2A6AF0"/>
</g>
<defs>
<clipPath id="clip0">
<rect width="24" height="24" fill="white"/>
</clipPath>
</defs>
</svg>
