<svg width="525" height="365" fill="none" xmlns="http://www.w3.org/2000/svg"><path d="M110.878 338c2.078 0 3.895-1.814 3.895-3.887v-30.062h22.332c2.077 0 3.895-1.555 3.895-3.887v-22.546c0-2.333-1.818-4.147-3.895-4.147h-22.332V165.146c0-2.332-1.817-4.146-3.895-4.146H85.95c-3.375 0-5.193 1.296-6.751 3.628L2.337 271.917C.519 274.508 0 276.063 0 278.914v21.25c0 2.332 1.818 3.887 3.895 3.887h75.044v30.062c0 2.073 1.818 3.887 3.895 3.887h28.044zM78.939 217.236v56.235H39.21l39.73-56.235zM494.878 338c2.078 0 3.895-1.814 3.895-3.887v-30.062h22.332c2.077 0 3.895-1.555 3.895-3.887v-22.546c0-2.333-1.818-4.147-3.895-4.147h-22.332V165.146c0-2.332-1.817-4.146-3.895-4.146H469.95c-3.375 0-5.193 1.296-6.751 3.628l-76.862 107.289c-1.818 2.591-2.337 4.146-2.337 6.997v21.25c0 2.332 1.818 3.887 3.895 3.887h75.044v30.062c0 2.073 1.818 3.887 3.895 3.887h28.044zm-31.939-120.764v56.235H423.21l39.729-56.235z" fill="#9DB2C6"/><path d="M366.208 98.26c-4.282-.484-12.395-1.137-16.63-1.82-9.385-1.475-18.823-3.172-27.981-6.058-2.333-.759-4.835-1.243-7.145-2.1-4.072-1.376-7.997-2.928-11.946-4.38-1.639-.595-7.105-2.718-8.721-3.412l72.423 17.77zm-72.446-17.67c-2.613-1.348-5.051-2.55-7.466-3.85-5.005-2.747-9.987-5.593-14.606-9.087-5.495-4.223-10.698-8.795-14.146-15.048-2.561-4.684-3.319-9.467-.992-14.466 1.563-3.086 4.001-5.442 6.941-7.262 4.8-3.057 10.236-4.813 15.754-6.026 5.961-1.319 12.033-1.774 18.158-2.008 4.223-.157 8.452.105 12.628.145.321-.029.764-.134 1.033-.384 2.683-2.509 5.879-3.64 9.379-4.282 5.226-.864 10.464-.887 15.784-.369 5.372.741 10.773 1.802 15.836 3.412 3.821 1.108 7.402 2.788 11.106 4.392 3.506 1.557 6.673 3.662 9.549 6.118 1.727 1.557 3.208 3.266 4.177 5.378.128.344.554.758.927.95 4.252 1.942 8.505 3.885 12.734 5.926a102.109 102.109 0 0 1 14.927 9.058c2.047 1.528 3.949 3.231 5.85 4.934 3.576 3.039 6.837 6.527 8.972 10.797 1.651 3.213 2.613 6.684 2.048 10.423-.706 4.334-3.109 7.431-6.533 9.975-4.304 3.173-9.122 4.97-14.243 6.276-5.145 1.406-10.447 2.147-15.755 2.469-4.567.285-9.064.274-13.585.362-2.001.052-4.054-.117-6.13-.187L293.762 80.59zm38.538 4.775c7.461 1.65 14.933 2.361 22.527 1.218 2.812-.385 5.495-1.115 7.869-2.754 3.132-2.193 3.727-5.611 1.609-8.62-1.54-2.352-3.64-4.101-5.886-5.676-5.488-3.803-11.602-6.287-17.977-8.101-5.78-1.674-11.678-2.852-17.808-3.038-4.351-.187-8.773-.076-13.083.899-2.316.501-4.503 1.347-6.358 3.004-1.464 1.33-2.082 3.068-1.808 5.016.379 2.392 1.861 4.1 3.465 5.734 4.007 3.873 8.861 6.375 13.929 8.404 4.469 1.47 13.498 4.013 13.521 3.914zm-67.051-47.273c1.003-.706 1.954-1.633 2.933-2.24 4.801-3.056 10.243-4.392 15.767-5.186 6.632-1.056 13.374-1.249 20.123-1.022 3.214.128 6.504.379 9.671.706 4.007.314 8.091.752 12.051 1.265 3.541.519 7.157 1.16 10.727 2 5.874 1.277 11.818 2.257 17.528 4.228 5.215 1.854 10.57 3.114 15.761 5.068 5.763 2.193 11.357 4.66 17.05 7.15 5.121 2.252 9.881 5.15 14.349 8.399 1.873 1.382 3.599 2.94 5.349 4.398 4.504 3.99 8.517 8.282 8.115 14.885-.047.198.227.367.28.59.145-.176.39-.328.414-.427.14-.595.28-1.19.221-1.831.035-2.818-.84-5.326-2.182-7.63-3.138-5.342-7.594-9.53-12.611-13.117-6.288-4.41-13.037-8.195-20.048-11.31-4.848-2.081-9.695-4.164-14.635-5.85a199.594 199.594 0 0 0-15.061-4.484c-10.465-2.67-21.168-4.77-32.076-5.557-4.824-.402-9.694-.606-14.588-.711-2.916-.058-5.955-.04-8.843.222-3.949.327-7.845.875-11.788 1.622-4.684.782-9.111 2.252-13.229 4.632-2.012.992-3.873 2.228-5.278 4.2zm49.748-15.296c.076.122.029.32.082.542 19.791 1.726 39.075 6.053 57.775 12.86-.204-.468-.455-.736-.682-1.103-2.258-2.415-4.953-4.305-7.939-5.845-4.357-2.385-8.954-4.199-13.644-5.616a81.033 81.033 0 0 0-16.968-3.05c-4.304-.385-8.603-.35-12.89.526-1.873.396-3.815 1.09-5.734 1.686zm18.375 22.426c-.939 3.547 1.452 6.726 4.526 7.449 3.273.77 6.58-1.278 7.35-4.55.863-3.67-1.826-6.918-4.725-7.495-2.876-.677-6.632 1.056-7.151 4.596zm48.554 28.48c2.182.514 5.629-.35 7.548-2.724 1.19-1.5.682-4.235-1.4-4.725-2.899-.577-5.559.053-7.653 2.281-1.872 2.176-1.172 4.538 1.505 5.168zM292.88 52.755c2.555.705 4.264-.776 3.931-3.366-.362-2.91-3.564-5.757-6.457-5.914-1.756-.1-2.876 1.102-2.777 2.905.164 2.864 2.427 5.698 5.303 6.375z" fill="#2C77BB"/><path d="M318.925 81.277c-5.092-1.93-9.945-4.433-13.929-8.405-1.604-1.633-3.086-3.342-3.465-5.734-.274-1.948.344-3.686 1.808-5.016 1.755-1.68 4.042-2.502 6.358-3.004 4.31-.975 8.632-1.109 13.083-.9 6.13.187 12.027 1.365 17.808 3.039 6.375 1.814 12.512 4.199 17.977 8.101 2.246 1.575 4.323 3.424 5.886 5.675 2.094 3.109 1.499 6.527-1.609 8.621-2.374 1.64-5.057 2.369-7.869 2.754-7.594 1.143-15.043.333-22.527-1.218-.169.274-9.198-2.269-13.521-3.913zm-53.676-43.185c1.382-1.872 3.266-3.208 5.202-4.322 7.501-4.305 16.531-5.32 24.994-6.155 8.143-.806 16.332-.03 24.446.623 8.312.7 16.583 2.017 24.615 3.907 7.239 1.702 14.384 3.802 21.46 6.199 4.94 1.685 9.788 3.768 14.635 5.85 7.011 3.114 13.783 6.8 20.048 11.309 5.017 3.587 9.473 7.775 12.612 13.117 1.44 2.328 2.216 4.813 2.181 7.63-.04.618-.081 1.236-.221 1.831-.047.199-.268.251-.414.426-.076-.122-.327-.39-.28-.589.32-5.366-2.754-9.648-6.411-13.229-6.061-5.82-13.043-10.393-20.556-14.044-15.178-7.548-31.586-12.977-48.14-16.453-6.271-1.37-12.535-2.32-18.946-3.096a230.227 230.227 0 0 0-16.624-1.4c-6.748-.226-13.392-.01-20.123 1.022-5.547.893-10.966 2.13-15.766 5.187-.759.554-1.686 1.382-2.712 2.187zm49.748-15.296c1.919-.595 3.762-1.313 5.734-1.686 4.211-.998 8.586-.91 12.89-.526a81.033 81.033 0 0 1 16.968 3.05c4.813 1.341 9.287 3.231 13.644 5.616 2.864 1.616 5.681 3.43 7.939 5.845.251.268.478.636.682 1.102-18.677-6.905-37.984-11.133-57.775-12.859a.78.78 0 0 0-.082-.542z" fill="#D8F3FF"/><path d="M333.372 45.223c.495-3.442 4.275-5.274 7.151-4.597 2.875.676 5.588 3.826 4.725 7.495-.77 3.272-4.077 5.32-7.35 4.55-3.074-.723-5.465-3.902-4.526-7.448zm48.531 28.579c-2.677-.63-3.453-3.115-1.505-5.168 2.094-2.229 4.754-2.859 7.653-2.281 2.105.39 2.59 3.225 1.4 4.724-1.797 2.299-5.267 3.261-7.548 2.725zm-89.046-20.948c-2.853-.776-5.239-3.535-5.402-6.398-.123-1.704 1.096-2.882 2.776-2.905 2.917.058 6.096 3.003 6.458 5.914.431 2.613-1.254 3.995-3.832 3.389zM366 78.5c.071 34.552 2.808 70.575.473 105.058-2.336 34.066-3.61 69.105-10.901 102.547-3.751 17.068-5.457 38.246-21.099 49.485-11.042 7.979-25.545 8.588-39.206 6.923-38.434-4.718-76.585-15.889-108.932-36.773-8.352-5.412-16.563-11.726-21.234-20.398-22.132 5.927.991-28.517 10.617-40.936 23.641-30.667 125.723-181.019 125.723-181.019L366 78.5z" fill="#D8F3FF"/><ellipse cx="251.845" cy="297.82" rx="98.936" ry="45.206" transform="rotate(13.585 251.845 297.82)" fill="#C5EDFF"/><ellipse cx="333.199" cy="72.39" rx="33.453" ry="13.119" transform="rotate(13.585 333.199 72.39)" fill="#fff"/><g filter="url(#filter0_f)"><path d="M338.647 212.887c13.173-41.974 3.429-68.985-27.012-78.538-30.622-9.61-54.052 6.989-67.225 48.963-13.116 41.793-3.371 68.803 27.251 78.413 30.44 9.553 53.871-7.046 66.986-48.838zm-26.065-8.18c-4.334 13.809-9.35 23.413-15.288 28.935-5.345 4.909-11.418 6.396-18.163 4.28-6.926-2.174-11.061-6.865-12.642-13.948-1.718-7.924-.53-18.729 3.804-32.539 4.22-13.446 9.533-23.356 15.653-28.82 5.345-4.91 11.418-6.397 18.162-4.28 6.927 2.173 10.879 6.807 12.46 13.89 1.718 7.924.29 18.854-3.986 32.482z" fill="#9DB2C6"/></g><defs><filter id="filter0_f" x="209.451" y="104.534" width="164.212" height="186.95" filterUnits="userSpaceOnUse" color-interpolation-filters="sRGB"><feFlood flood-opacity="0" result="BackgroundImageFix"/><feBlend in="SourceGraphic" in2="BackgroundImageFix" result="shape"/><feGaussianBlur stdDeviation="7.5" result="effect1_foregroundBlur"/></filter></defs></svg>