<svg id="Слой_1" data-name="Слой 1" xmlns="http://www.w3.org/2000/svg" viewBox="0 0 272.94 71.56"><defs><style>.cls-1{fill:#75b32b}.cls-4{fill:#794811}.cls-5{fill:#a3702e}.cls-6{fill:#96c93d}</style></defs><path class="cls-1" d="M157.64 186.44q2 0 4.05.12a29.62 29.62 0 0 1 8.59-18.09c.32-.32.64-.62 1-.93.05-.39.08-.82.12-1.25.18-2.11.41-4.74 2-7a8.52 8.52 0 0 1 1.09-1.26 35.78 35.78 0 0 0-18.73 28.43h1.9M210 161.79c.35.67.69 1.31 1 1.82a7.81 7.81 0 0 1 1.39 4.78l.09.08a29.71 29.71 0 0 1 8.59 18.08c1.3-.07 2.61-.11 3.93-.11h2a35.82 35.82 0 0 0-20-29.08 17.76 17.76 0 0 1 3 4.4" transform="translate(-155.6 -153.79)"/><path d="M172.9 178.05c0-.24-.05-.58-.08-.74a6.44 6.44 0 0 0-.8-1.16 7.16 7.16 0 0 1-1.48-2.62 26.14 26.14 0 0 0-5.32 13.34q3 .34 5.87 1a20.07 20.07 0 0 1 2.17-7.58 10.33 10.33 0 0 1-.36-2.2m44.65 8.77a26.26 26.26 0 0 0-6.3-14.53 27.31 27.31 0 0 1-1.8 2.82 16.92 16.92 0 0 0-1.56 2.48 20.28 20.28 0 0 1 3.79 10.18c1.92-.41 3.88-.72 5.87-.95" transform="translate(-155.6 -153.79)" fill="#aacc71"/><path d="M203.93 189.94c1.13-.41 2.28-.8 3.44-1.15a15.15 15.15 0 0 0-1.61-6.37c-.27.21-.55.41-.84.62-.64.45-1.38.94-2 1.33a11.64 11.64 0 0 1 1.06 4.86v.71m-24.41-5.29h-.08a4.54 4.54 0 0 1-2.75-.93l-.28-.08h-.15a15.2 15.2 0 0 0-1.08 5.23c1.16.36 2.31.75 3.44 1.17v-.76a11.64 11.64 0 0 1 .93-4.58" transform="translate(-155.6 -153.79)" fill="#e9efcd"/><path class="cls-1" d="M195.14 182.52c1.74.29 2.28.79 4.28-.21.83-.41 4.76-2.91 4.77-3.66.09-4.8 7.22-8.27 4-13.18-1.25-1.89-2.11-4.43-3.83-5.95-1.08-1-2.56-.61-3.71-1.52s-2.24-1.92-3.49-2.78c-3.17-2.17-13.18-2-15.56 1.51-1.41 2.1-4 2.52-5.44 4.52-1.8 2.55-1 6.28-2 9.08-1.12 3.15.53 2.95 1.79 5.59.56 1.18.15 3 .92 4s2 .7 2.9 1.41c1.18 1 2.17-.86 3.21.32 1.37 1.55 2.82 1.64 4.69 1-.1-2.69 7.61-2.74 7.51-.08" transform="translate(-155.6 -153.79)"/><path class="cls-4" d="M197.41 168a18.66 18.66 0 0 0-2.41 1.19c-.69-2.34-2-3.93-3.59-3.93s-2.88 1.56-3.58 3.87a18.78 18.78 0 0 0-2.32-1.13 22.6 22.6 0 0 0-3.33-1.35c-.05.08 1.92 1.73 2.57 2.55 2.38 3 2.31 5.34 2.31 5.34q.42 4 .57 8.07c0 1.17.07 2.34.07 3.52 0 2.6 0 5.21-.22 7.81 1.32.74 2.61 1.53 3.85 2.37q1.9-1.29 3.95-2.43c-.16-2.64-.23-5.27-.22-7.91 0-1.15 0-2.29.08-3.44.1-2.66.28-5.32.57-8a10.27 10.27 0 0 1 2.47-5.34c.65-.82 2.61-2.47 2.56-2.55a22.6 22.6 0 0 0-3.33 1.35" transform="translate(-155.6 -153.79)"/><path class="cls-5" d="M206 198.72a47.3 47.3 0 0 0-7.41 3.54l.42.43a47.42 47.42 0 0 1 7-4" transform="translate(-155.6 -153.79)"/><path class="cls-5" d="M227.16 189.57a36.86 36.86 0 0 1-.26 4.36 53.85 53.85 0 0 0-21 4.79 47.3 47.3 0 0 0-7.41 3.54 48.55 48.55 0 0 0-4.45-3.95l-.2-.15A57.44 57.44 0 0 1 225 189.4h2.15v.13" transform="translate(-155.6 -153.79)"/><path class="cls-4" d="M225.36 200.81a36.09 36.09 0 0 0 1-3.9 48.85 48.85 0 0 0-25.44 8 40.09 40.09 0 0 1 3.48 4.8.35.35 0 0 1 .05.08l1.22-.89a49.76 49.76 0 0 1 19.69-8.09z" transform="translate(-155.6 -153.79)"/><path class="cls-5" d="M224.08 204.1a34.61 34.61 0 0 1-4.54 7.52 37.54 37.54 0 0 0-11.21 6.5 36.5 36.5 0 0 0-2.36-5.72 46 46 0 0 1 18.11-8.31" transform="translate(-155.6 -153.79)"/><path class="cls-4" d="M206.31 222.09a38.73 38.73 0 0 1-5.64 2.07c-2-11.23-11.22-20.65-24-25.44a53.81 53.81 0 0 0-20.83-4.81 35 35 0 0 1-.27-4.36.61.61 0 0 1 0-.14h2c13.05 0 25.34 4 34.62 11.25A40.1 40.1 0 0 1 203 213.09a33.34 33.34 0 0 1 3.33 9" transform="translate(-155.6 -153.79)"/><path class="cls-5" d="M196.13 225a26.71 26.71 0 0 1-4.75.32h-1a28.7 28.7 0 0 0-.91-2.06c-2.11-5.74-6.56-10.75-12.52-14.37a49.94 49.94 0 0 0-19.46-8.07h-.06a36.27 36.27 0 0 1-1-3.91 48.08 48.08 0 0 1 27.57 9.68c6.47 5 10.66 11.46 12.15 18.44" transform="translate(-155.6 -153.79)"/><path class="cls-4" d="M176.86 212.55a45.84 45.84 0 0 0-18.19-8.43 35.67 35.67 0 0 0 4.55 7.55 34.57 34.57 0 0 1 15.78 11.5 35.53 35.53 0 0 0 8 1.92 33.94 33.94 0 0 0-10.18-12.54" transform="translate(-155.6 -153.79)"/><path class="cls-6" d="M260.13 169.3s1.57 4.56-3 6.48c-2.94 1.22-7.54.08-7.54.08v4.95H256s.28 0 .24.24v4.16c0 .19-.27.19-.27.19h-6.4v3.5c.19 6.2 3 4.87 2.59 6-.47 1.41-2.91 3.17-5.26 3.17-3.18 0-6-2-6-6.87v-21.87a.19.19 0 0 1 .19-.19h18.69a.36.36 0 0 1 .35.16z" transform="translate(-155.6 -153.79)"/><path class="cls-6" d="M276.15 181a4.74 4.74 0 0 1-4.91 5.06 2.76 2.76 0 0 1-2-.79c-.24-.35-.08-.62-.08-1.41 0-1.22-.24-1.73-.82-1.73-1.14 0-1.34 2-1.34 4.44V197a.17.17 0 0 1-.16.19H259s-.15 0-.15-.19c0 0 .31-8.92.31-11.63 0-6.24-2.67-4.9-2.32-6 .43-1.26 2.56-2.79 4.75-2.79a5.16 5.16 0 0 1 5.27 4.28c1-2.59 3-4.28 4.94-4.28a4.11 4.11 0 0 1 4.35 4.42zm19.48 10.72a10.28 10.28 0 0 1-9.43 6.28 10.67 10.67 0 0 1-10.67-10.72c0-5.73 4.43-10.68 11.18-10.68 6.45 0 9.23 4 9.23 6.83 0 6.16-7.18 6.91-12.33 6.05 1.38 3.92 6.6 4.32 11.39 1.65a.41.41 0 0 1 .51 0c.16.08.24.24.12.59zM283.3 186c3.49.31 5.22-1 5.22-3.1a1.89 1.89 0 0 0-2.08-1.88h-.12a2.58 2.58 0 0 0-.94.36c-1.33.84-1.92 2.73-2.08 4.62zm32.31 5.69c0 4.75-5.65 6.39-10.13 6.39-3.49 0-9.22-1.21-9.22-5.1a3.62 3.62 0 0 1 3.8-3.57c1.3 0 2.79.35 2.95.67s.08.86.08 1.61a2.18 2.18 0 0 0 2.31 2.39c1.46 0 2.08-.71 2.12-1.77-.08-1.88-2.71-2.31-5.61-3.26-2.67-.94-5.3-2.82-5.34-5.92V183c0-4.08 4.83-6.4 8.83-6.4 4.6 0 9.27 1.61 9.27 5.1 0 1.89-1.37 3.42-3.81 3.42a4.73 4.73 0 0 1-2.83-.71c-.19-.31 0-.82 0-1.61 0-1.57-.66-2.28-2-2.24a1.9 1.9 0 0 0-1.84 1.85c0 1.92 2.31 2.43 5 3.22 3.12.91 6.42 2.48 6.42 6.06zm23.67 3.49c-.43 1.22-2.55 2.75-4.75 2.75a5.64 5.64 0 0 1-5.77-6v-7.62c0-3.92-4-2.55-4 2.08V197a.23.23 0 0 1-.16.23H317a.2.2 0 0 1-.15-.19s-.12-23.64-.12-27.88a.16.16 0 0 1 .16-.16h7.73s.12 0 .12.16V181a7.68 7.68 0 0 1 6.55-4.4c2.91 0 5.38 2.55 5.38 6.48v6.12c-.02 6.22 2.97 4.88 2.61 5.98zm22.63-25.84a.44.44 0 0 1 .27-.19h7.58s.24 0 .2.19l.11 27.65c0 .19-.23.19-.23.19h-8s-.24 0-.2-.19l.12-12.57.75-4c-.47.82-6.17 11.7-6.17 11.7-.08.16-.23.16-.51.16h-1.1c-.47 0-.47 0-.55-.16l-6.43-11.82.74 3.65.24 13.08a.19.19 0 0 1-.2.19h-8.28s-.24 0-.2-.19l.27-21.48c-.19-4.52-2.66-3.61-2.27-4.6.47-1.29 3.33-2.9 5.93-2.9 3.73 0 5.45 2.79 7.26 5.93 2 3.38 3.92 7.5 3.92 7.5zm33.5 25.92c-.39 1.25-2.52 2.78-4.71 2.78a5.22 5.22 0 0 1-5.34-4.47c-1.34 2.55-3.46 4.44-6.21 4.44-4.94 0-7.69-5.46-7.69-10.72s2.75-10.64 7.89-10.64a6.54 6.54 0 0 1 5.85 3.73v-2.71a.25.25 0 0 1 .2-.24h7.85a.21.21 0 0 1 .16.2s-.28 9-.28 11.66c0 6.24 2.67 4.91 2.28 5.97zm-10-8c0-2.95-1-5.34-2.95-5.34s-2.94 2.39-2.94 5.34 1 5.3 2.94 5.3 2.98-2.33 2.98-5.27z" transform="translate(-155.6 -153.79)"/><path class="cls-6" d="M413 181a4.74 4.74 0 0 1-4.9 5.06 2.77 2.77 0 0 1-2-.79c-.23-.35-.08-.62-.08-1.41 0-1.22-.23-1.73-.82-1.73-1.14 0-1.34 2-1.34 4.44V197c0 .19-.15.19-.15.19h-7.89a.17.17 0 0 1-.16-.19s.31-8.92.31-11.63c0-6.24-2.67-4.9-2.31-6 .43-1.26 2.55-2.79 4.75-2.79a5.16 5.16 0 0 1 5.26 4.28c1.06-2.59 3-4.28 4.95-4.28A4.11 4.11 0 0 1 413 181zm14.89 12.65c-1.53 0-4 .71-4.48-2.48-.07-2.94-.07-6-.07-10h4.75s.15 0 .15-.19v-3.3c0-.2-.11-.2-.11-.2h-4.75v-6.05c0-.16-.16-.2-.16-.2l-7.54 3.1a.19.19 0 0 0-.19.2v3h-2v3.68h2v11a5.86 5.86 0 0 0 2.67 5.26 7.42 7.42 0 0 0 3.49.9c2.83 0 5.77-1.45 6.83-3.57.2-.64.12-1.15-.59-1.15z" transform="translate(-155.6 -153.79)"/><path d="M241.71 210.61v-7.41h1.21v6l3.33-6h1.56v7.41h-1.22v-6l-3.32 6zm8 0v-7.41h1.22v3h3.69v-3h1.22v7.41h-1.22v-3.39h-3.69v3.39zm11.09-6.34v6.34h-1.22v-6.34h-2.65v-1.07h6.52v1.07zm9.93 3.99a3 3 0 0 1-3.17 2.52c-2.36 0-3.48-1.65-3.55-3.9a3.56 3.56 0 0 1 3.48-3.85c2.62 0 3.42 2.45 3.35 4.24h-5.54a2.18 2.18 0 0 0 2.31 2.43 1.75 1.75 0 0 0 1.91-1.44zm-1.18-2.07a2.12 2.12 0 0 0-2.13-2.09 2.1 2.1 0 0 0-2.12 2.09zm2.68-2.99h1.21v1a2.49 2.49 0 0 1 2.37-1.17c2.27 0 3.41 1.8 3.41 3.89s-1.12 3.86-3.39 3.86a2.85 2.85 0 0 1-2.39-1.16v3.82h-1.21zm3.43.9c-1.64 0-2.26 1.42-2.26 2.79s.66 2.81 2.33 2.81 2.23-1.41 2.23-2.86-.72-2.74-2.3-2.74zm5.07 6.51v-7.41H282v3h3.7v-3h1.22v7.41h-1.22v-3.39H282v3.39zm14.32-2.35a3 3 0 0 1-3.16 2.52c-2.37 0-3.49-1.65-3.56-3.9a3.56 3.56 0 0 1 3.48-3.85c2.63 0 3.43 2.45 3.36 4.24h-5.55a2.18 2.18 0 0 0 2.31 2.43 1.76 1.76 0 0 0 1.92-1.44zm-1.17-2.07a2.14 2.14 0 0 0-2.14-2.09 2.1 2.1 0 0 0-2.12 2.09zm5.63-1.92v6.34h-1.22v-6.34h-2.65v-1.07h6.52v1.07zm2.67 1.78h4.14v1.15h-4.14zm5.89-2.85h1.22v1a2.48 2.48 0 0 1 2.36-1.17c2.28 0 3.41 1.8 3.41 3.89s-1.12 3.86-3.38 3.86a2.84 2.84 0 0 1-2.39-1.16v3.82h-1.22zm3.44.9c-1.65 0-2.27 1.42-2.27 2.79s.66 2.81 2.34 2.81 2.22-1.41 2.22-2.86-.72-2.74-2.29-2.74zm8.56 6.51h-3.49v-7.41h1.21v2.8h2.3a2.18 2.18 0 0 1 2.4 2.27 2.25 2.25 0 0 1-2.42 2.34zm-2.28-3.54v2.49h1.95c1 0 1.49-.4 1.49-1.25s-.51-1.24-1.47-1.24zm5.88 3.54v-7.41h1.22v7.41zm3.11 0v-7.41H328v3h3.7v-3h1.22v7.41h-1.22v-3.39H328v3.39zM338 203c2.35 0 3.6 1.7 3.6 3.88s-1.25 3.87-3.6 3.87-3.59-1.71-3.59-3.87S335.64 203 338 203zm0 6.67c1.28 0 2.31-1 2.31-2.79s-1-2.81-2.31-2.81-2.3 1-2.3 2.81 1.02 2.82 2.3 2.82zm5.08-6.47h1.22v3.42l3.38-3.42h1.63l-3 2.85 3.21 4.56H348l-2.55-3.69-1.15 1.08v2.61h-1.22zm11.48 7.41v-7.41h6.14v7.41h-1.22v-6.34h-3.7v6.34zm8.03-7.41h1.22v1a2.48 2.48 0 0 1 2.39-1.2c2.28 0 3.41 1.8 3.41 3.89s-1.12 3.86-3.38 3.86a2.85 2.85 0 0 1-2.39-1.16v3.82h-1.22zm3.44.9c-1.65 0-2.26 1.42-2.26 2.79s.66 2.81 2.33 2.81 2.22-1.41 2.22-2.86-.71-2.74-2.32-2.74zm8.3-1.1c2.35 0 3.59 1.7 3.59 3.88s-1.24 3.87-3.59 3.87-3.6-1.71-3.6-3.87 1.27-3.88 3.6-3.88zm0 6.67c1.27 0 2.3-1 2.3-2.79s-1-2.81-2.3-2.81-2.31 1-2.31 2.81 1.03 2.82 2.31 2.82zm10.92 3.33v-2.35h-5.53V213h-1.22v-3.43h.8a10.65 10.65 0 0 0 .94-4.54v-1.83h5.27v6.33h1V213zm-1-8.69h-2.85v.69a10.78 10.78 0 0 1-.87 4.5h3.72zm6.33 7.28c-.58 1.44-1.06 2-2.15 2a2.44 2.44 0 0 1-.85-.13v-1.12a2.31 2.31 0 0 0 .72.18 1 1 0 0 0 1-.68l.5-1.26-2.93-7.36h1.37l2.17 6.06 2.08-6.06h1.29zm4.35-8.39h1.22v3.42l3.38-3.42h1.63l-3 2.85 3.21 4.56h-1.55l-2.55-3.69-1.12 1.08v2.61h-1.22zm10.81 1.07v6.34h-1.22v-6.34h-2.65v-1.07h6.52v1.07zm6.82-1.27c2.35 0 3.59 1.7 3.59 3.88s-1.24 3.87-3.59 3.87-3.6-1.71-3.6-3.87 1.25-3.88 3.6-3.88zm0 6.67c1.27 0 2.3-1 2.3-2.79s-1-2.81-2.3-2.81-2.31 1-2.31 2.81 1.03 2.82 2.31 2.82zm5.08-6.47h3.42c1.67 0 2.53.56 2.53 1.8a1.66 1.66 0 0 1-1.08 1.61 1.73 1.73 0 0 1 1.41 1.81 2.14 2.14 0 0 1-2.25 2.18h-4zm3.4 3c.93 0 1.31-.34 1.31-1s-.38-1-1.36-1h-2.16v1.95zm-2.21 3.37h2.61a1.11 1.11 0 0 0 1.24-1.16c0-.69-.45-1.18-1.46-1.18h-2.39z" transform="translate(-155.6 -153.79)" fill="#3c3c3b"/></svg>