<svg width="90" height="22" viewBox="0 0 90 22" fill="none" xmlns="http://www.w3.org/2000/svg">
<path fill-rule="evenodd" clip-rule="evenodd" d="M15.8823 15.8684V18.3428H21.6579V19.5774H15.8823V20.1959H22.2353V17.7242H16.4596V16.487H22.2353V15.8684H15.8823Z" fill="#8D26BD"/>
<path fill-rule="evenodd" clip-rule="evenodd" d="M38.4707 9.52214H22.7925V7.14096H38.4707V0H20.4707V2.38118H36.1488V4.75978H20.4707V11.9007H38.4707V9.52214Z" fill="#8D26BD"/>
<path fill-rule="evenodd" clip-rule="evenodd" d="M69.5294 11.9007V0H51.5294V2.38118H67.2075V4.75978H51.5294V7.14096H67.2075V9.52214H51.5294V11.9007H69.5294Z" fill="#8D26BD"/>
<path d="M24.0001 15.8682H23.2942V20.1957H24.0001V15.8682Z" fill="#8D26BD"/>
<path fill-rule="evenodd" clip-rule="evenodd" d="M5.77562 15.9047H0V20.1882H6.35293V14.0645H5.77562V15.9047ZM0.57731 19.5826H5.77562V16.5181H0.57731V19.5826Z" fill="#8D26BD"/>
<path fill-rule="evenodd" clip-rule="evenodd" d="M18.353 11.9007V0H0.353027V2.38118H16.0312V4.75978H0.353027V7.14096H16.0312V9.52214H0.353027V11.9007H18.353Z" fill="#8D26BD"/>
<path fill-rule="evenodd" clip-rule="evenodd" d="M7.76465 15.8684V20.1882H14.8235V19.5799H8.35204V18.3428H14.8235V15.8684H7.76465ZM8.35204 17.7242H14.2335V16.487H8.35204V17.7242Z" fill="#8D26BD"/>
<path fill-rule="evenodd" clip-rule="evenodd" d="M72 0V2.38118H87.6781V4.75978H72V11.9007H90V9.52214H74.3218V7.14096H90V0H72Z" fill="#8D26BD"/>
<path fill-rule="evenodd" clip-rule="evenodd" d="M25.4116 15.8682V20.1595H31.1872V21.3863H25.4116V21.9997H31.7646V15.8682H25.4116ZM25.9889 19.5486H31.1872V16.4816H25.9889V19.5486Z" fill="#8D26BD"/>
<path d="M82.2352 15.8684H81.5293V20.1959H82.2352V15.8684Z" fill="#8D26BD"/>
<path fill-rule="evenodd" clip-rule="evenodd" d="M83.647 20.1882H89.9999V15.8684H83.647V20.1882ZM84.2243 19.5722H89.4226V16.4663H84.2243V19.5722Z" fill="#8D26BD"/>
<path fill-rule="evenodd" clip-rule="evenodd" d="M72.4689 19.5774H66.5874V15.8684H66V20.1959H73.0588V15.8684H72.4689V19.5774Z" fill="#8D26BD"/>
<path fill-rule="evenodd" clip-rule="evenodd" d="M79.8931 15.9047H74.1174V20.1882H80.4704V14.0645H79.8931V15.9047ZM74.6947 19.5826H79.8931V16.5181H74.6947V19.5826Z" fill="#8D26BD"/>
<path fill-rule="evenodd" clip-rule="evenodd" d="M59.1654 14.0645H58.5881V20.196H59.1654H64.9411V19.5852H59.1654V16.5181H64.9411V15.9047H59.1654V14.0645Z" fill="#8D26BD"/>
<path fill-rule="evenodd" clip-rule="evenodd" d="M32.8237 15.8684V20.1959H33.401V16.487H38.5994V20.1959H39.1767V15.8684H32.8237Z" fill="#8D26BD"/>
<path fill-rule="evenodd" clip-rule="evenodd" d="M46.9408 2.88574L45.1761 4.92787L43.4114 2.88574H41.6467L44.2938 5.95022L41.6467 9.01729H43.4114L45.1761 6.97258L46.9408 9.01729H48.7055L46.0585 5.95022L48.7055 2.88574H46.9408Z" fill="#8D26BD"/>
<path fill-rule="evenodd" clip-rule="evenodd" d="M50.1177 15.8684V18.3428H56.5866V19.5774H50.1177V20.1959H57.1765V17.7242H50.7051V16.487H57.1765V15.8684H50.1177Z" fill="#8D26BD"/>
</svg>
