<svg width="194" height="58" viewBox="0 0 194 58" fill="none" xmlns="http://www.w3.org/2000/svg">
<path d="M63.241 2.73096H65.0668L67.9578 11.026H68.0446L70.8625 2.73096H72.673L75.2866 13.2754H73.8114L71.6793 4.703H71.5773L68.5125 13.5391H67.4472L64.3215 4.703H64.2194L62.1163 13.2754H60.6259L63.241 2.73096Z" fill="white"/>
<path d="M77.0271 2.73096H78.4871V13.2754H77.0271V2.73096Z" fill="white"/>
<path d="M86.7105 2.73096H88.1415L88.1262 7.97348H88.2131L92.6677 2.73096H94.4493L89.7325 8.04663L94.8287 13.2754H92.9878L88.2116 8.33924H88.1247L88.14 13.2754H86.7089L86.7242 8.33924H86.6373L81.8626 13.2754H80.0217L85.1179 8.04663L80.4011 2.73096H82.1827L86.6373 7.97348H86.7242L86.7105 2.73096Z" fill="white"/>
<path d="M97.8767 2.73096V7.31664H105.105V2.73096H106.565V13.2754H105.105V8.57241H97.8767V13.2754H96.4167V2.73096H97.8767Z" fill="white"/>
<path d="M116.34 10.7197H110.82L109.769 13.2754H108.249L112.733 2.73096H114.368L118.983 13.2754H117.434L116.34 10.7197ZM111.331 9.50661H115.828L113.594 4.20465H113.507L111.331 9.50661Z" fill="white"/>
<path d="M120.666 2.73096H124.522C126.989 2.73096 129.21 3.7246 129.21 5.98925C129.21 8.25085 126.903 9.30392 124.42 9.30392H122.126V13.2754H120.666V2.73096ZM122.111 8.04663L124.405 8.03139C125.996 8.01768 127.675 7.55134 127.675 5.98772C127.675 4.42411 125.981 3.98672 124.55 3.97148L122.111 3.95777V8.04663Z" fill="white"/>
<path d="M142.621 8.01927C142.621 11.4498 139.788 13.5529 136.633 13.5529C133.434 13.5529 130.646 11.465 130.646 8.01927C130.646 5.02463 133.084 2.43994 136.633 2.43994C140.196 2.43994 142.621 5.02463 142.621 8.01927ZM132.151 8.00403C132.151 10.4714 133.948 12.3108 136.635 12.3108C139.322 12.3108 141.103 10.4714 141.103 8.00403C141.103 5.24256 139.029 3.65304 136.635 3.65304C134.239 3.65151 132.151 5.24256 132.151 8.00403Z" fill="white"/>
<path d="M143.869 11.9892C144.775 12.0044 145.491 11.5518 145.71 9.57977L146.455 2.73096H153.553V11.9892H155.028L154.97 15.3054H153.554V13.2754H144.895V15.3054H143.478L143.42 11.9892H143.869ZM152.106 3.94405H147.74L147.185 9.6834C147.068 10.8233 146.718 11.567 146.265 12.0197H152.106V3.94405Z" fill="white"/>
<path d="M158.285 2.73096V7.31664H165.513V2.73096H166.973V13.2754H165.513V8.57241H158.285V13.2754H156.825V2.73096H158.285Z" fill="white"/>
<path d="M180.282 13.2754H178.88V4.58718H178.793L171.01 13.2754H169.477V2.73096H170.893V11.4055H170.979L178.762 2.73096H180.282V13.2754Z" fill="white"/>
<path d="M193.591 13.2755H192.189V4.58721H192.1L184.317 13.2755H182.784V2.73099H184.202V11.4055H184.288L192.073 2.73099H193.592V13.2755H193.591ZM189.603 0H190.479C190.523 1.28625 189.529 2.1473 188.172 2.1473C186.827 2.1473 185.82 1.28625 185.864 0H186.754C186.77 0.27889 187.032 1.1247 188.172 1.1247C189.296 1.1247 189.589 0.27889 189.603 0Z" fill="white"/>
<path d="M66.2936 35.646V33.9224C63.5047 33.7182 60.7006 32.1835 60.7006 29.3809C60.7006 26.6209 63.5047 25.0147 66.2936 24.78V23.2468H67.7399V24.7662C70.8503 25.0131 73.3329 26.8389 73.3329 29.3794C73.3329 31.9061 70.8503 33.6724 67.7399 33.9209V35.6445H66.2936V35.646ZM66.2936 32.6514V26.0205C63.8689 26.2262 62.1758 27.4515 62.1758 29.3794C62.1743 31.3666 64.0731 32.4624 66.2936 32.6514ZM67.7383 26.0357V32.6514C70.0609 32.4472 71.8562 31.2935 71.8562 29.3809C71.8577 27.3951 69.9436 26.2415 67.7383 26.0357Z" fill="white"/>
<path d="M86.8461 29.3672C86.8461 32.7977 84.013 34.9008 80.8584 34.9008C77.661 34.9008 74.8706 32.8129 74.8706 29.3672C74.8706 26.3725 77.309 23.7878 80.8584 23.7878C84.423 23.7863 86.8461 26.3725 86.8461 29.3672ZM76.3763 29.3519C76.3763 31.8193 78.1716 33.6587 80.8599 33.6587C83.5482 33.6587 85.3282 31.8193 85.3282 29.3519C85.3282 26.5905 83.2541 25.0009 80.8599 25.0009C78.4642 24.9994 76.3763 26.5905 76.3763 29.3519Z" fill="white"/>
<path d="M90.2797 24.0791V28.6648H97.508V24.0791H98.968V34.6236H97.508V29.9206H90.2797V34.6236H88.8197V24.0791H90.2797Z" fill="white"/>
<path d="M101.182 33.3373C102.088 33.3526 102.804 32.9 103.023 30.9279L103.769 24.0791H110.866V33.3373H112.341L112.283 36.6535H110.867V34.6236H102.208V36.6535H100.791L100.733 33.3373H101.182ZM109.419 25.2922H105.053L104.499 31.0315C104.381 32.1715 104.031 32.9152 103.578 33.3678H109.419V25.2922Z" fill="white"/>
<path d="M61.2842 45.4253H64.8047C67.2141 45.4253 69.2882 46.3747 69.2882 48.2447C69.2882 49.662 67.8862 50.3767 67.3025 50.5383V50.6267C67.9151 50.7425 69.6098 51.3567 69.6098 53.0498C69.6098 54.9335 67.493 55.9713 65.0241 55.9713H61.2858V45.4253H61.2842ZM62.7 50.0689L64.8321 50.0536C66.001 50.0384 67.7963 49.6894 67.7963 48.3453C67.7963 47.0453 66.2479 46.6521 64.8168 46.6369L62.7 46.6216V50.0689ZM62.7 54.7856L65.0805 54.7704C66.8041 54.7567 68.1026 54.2172 68.1026 53.0041C68.1026 51.7483 66.5405 51.2957 65.1521 51.2805L62.6985 51.2652V54.7856H62.7Z" fill="white"/>
<path d="M71.6901 45.4253H73.15V55.9698H71.6901V45.4253Z" fill="white"/>
<path d="M75.3277 54.6851C76.233 54.6988 76.9493 54.2461 77.1687 52.2741L77.914 45.4253H85.0112V54.6851H86.4864L86.4285 57.9997H85.0127V55.9698H76.3534V57.9997H74.9361L74.8782 54.6851H75.3277ZM83.5634 46.6384H79.1972L78.6424 52.3777C78.5251 53.5162 78.1746 54.2614 77.7219 54.714H83.5634V46.6384Z" fill="white"/>
<path d="M88.2893 45.4253H92.145C94.6123 45.4253 96.8328 46.4189 96.8328 48.6836C96.8328 50.9482 94.5255 51.9983 92.0429 51.9983H89.7493V55.9698H88.2893V45.4253ZM89.734 50.741L92.0277 50.7257C93.6187 50.7105 95.2981 50.2442 95.2981 48.6821C95.2981 47.12 93.6035 46.6811 92.1724 46.6658L89.734 46.6521V50.741Z" fill="white"/>
<path d="M110.245 50.7109C110.245 54.1429 107.412 56.246 104.258 56.246C101.059 56.246 98.2699 54.1581 98.2699 50.7109C98.2699 47.7177 100.708 45.1331 104.258 45.1331C107.821 45.1331 110.245 47.7193 110.245 50.7109ZM99.7741 50.6987C99.7741 53.166 101.571 55.0055 104.258 55.0055C106.944 55.0055 108.726 53.166 108.726 50.6987C108.726 47.9372 106.652 46.3477 104.258 46.3477C101.862 46.3462 99.7741 47.9372 99.7741 50.6987Z" fill="white"/>
<path d="M111.494 54.6851C112.399 54.6988 113.115 54.2461 113.335 52.2741L114.08 45.4253H121.177V54.6851H122.652L122.594 57.9997H121.179V55.9698H112.519V57.9997H111.102L111.044 54.6851H111.494ZM119.731 46.6384H115.365L114.81 52.3777C114.692 53.5162 114.342 54.2614 113.889 54.714H119.731V46.6384Z" fill="white"/>
<path d="M130.636 45.4253H132.067L132.052 50.6678H132.141L136.595 45.4253H138.377L133.66 50.741L138.756 55.9698H136.915L132.141 51.0336H132.052L132.067 55.9698H130.636L130.652 51.0336H130.563L125.789 55.9698H123.948L129.044 50.741L124.327 45.4253H126.109L130.563 50.6678H130.652L130.636 45.4253Z" fill="white"/>
<path d="M140.343 45.4253H148.769V46.6658H141.787V49.9515H148.505V51.1784H141.787V54.6851H148.958V55.9698H140.341V45.4253H140.343Z" fill="white"/>
<path d="M152.245 45.4253V50.0125H159.473V45.4253H160.933V55.9698H159.473V51.2667H152.245V55.9698H150.785V45.4253H152.245Z" fill="white"/>
<path d="M164.896 45.4253V50.0125H172.124V45.4253H173.584V55.9698H172.124V51.2667H164.896V55.9698H163.436V45.4253H164.896Z" fill="white"/>
<path d="M184.65 55.9698H183.203V51.4283H180.867C178.926 53.8819 177.085 55.9698 177.085 55.9698H175.23C175.23 55.9698 177.464 53.5604 179.319 51.2667C177.684 50.9467 176.266 49.9668 176.266 48.3895C176.266 46.3168 178.631 45.4253 180.69 45.4253H184.648V55.9698H184.65ZM183.232 46.6521L180.706 46.6658C179.319 46.6811 177.784 47.1474 177.784 48.4184C177.784 49.601 179.142 50.1573 180.675 50.1695L183.231 50.1847V46.6521H183.232Z" fill="white"/>
<path d="M14.5922 55.9914H0V2.70972H14.5922V55.9914ZM1.21919 54.7723H13.373V3.93196H1.21919V54.7723Z" fill="white"/>
<path d="M30.0973 56.5235C22.9727 56.5235 17.1754 50.7262 17.1754 43.6016C17.1754 36.4769 22.9727 30.6797 30.0973 30.6797C37.222 30.6797 43.0192 36.4769 43.0192 43.6016C43.0192 50.7262 37.2235 56.5235 30.0973 56.5235ZM30.0973 31.8989C23.6448 31.8989 18.3946 37.1475 18.3946 43.6016C18.3946 50.0557 23.6448 55.3043 30.0973 55.3043C36.5499 55.3043 41.8 50.0557 41.8 43.6016C41.8 37.1475 36.5514 31.8989 30.0973 31.8989Z" fill="white"/>
<path d="M30.0973 28.0614C22.9711 28.0614 17.1738 22.2642 17.1738 15.1395C17.1738 8.01485 22.9711 2.21606 30.0973 2.21606C37.2234 2.21606 43.0192 8.01485 43.0192 15.1395C43.0192 22.2642 37.2234 28.0614 30.0973 28.0614ZM30.0973 3.43526C23.6432 3.43526 18.393 8.6854 18.393 15.1395C18.393 21.5936 23.6432 26.8422 30.0973 26.8422C36.5498 26.8422 41.8015 21.5936 41.8015 15.1395C41.8015 8.6854 36.5514 3.43526 30.0973 3.43526Z" fill="white"/>
<path d="M30.0973 24.1282C25.1397 24.1282 21.1072 20.0957 21.1072 15.1397C21.1072 10.1821 25.1397 6.14966 30.0973 6.14966C35.0533 6.14966 39.0857 10.1821 39.0857 15.1397C39.0873 20.0957 35.0548 24.1282 30.0973 24.1282ZM30.0973 7.36885C25.8118 7.36885 22.3264 10.8542 22.3264 15.1397C22.3264 19.4251 25.8133 22.909 30.0973 22.909C34.3812 22.909 37.8681 19.4251 37.8681 15.1397C37.8681 10.8542 34.3827 7.36885 30.0973 7.36885Z" fill="white"/>
<path d="M30.0973 20.0391C27.3952 20.0391 25.1976 17.8415 25.1976 15.138C25.1976 12.4344 27.3952 10.2368 30.0973 10.2368C32.7993 10.2368 34.9969 12.4344 34.9969 15.138C34.9969 17.8415 32.7993 20.0391 30.0973 20.0391ZM30.0973 11.4591C28.0673 11.4591 26.4153 13.1095 26.4153 15.1395C26.4153 17.1694 28.0658 18.8199 30.0973 18.8199C32.1287 18.8199 33.7792 17.1694 33.7792 15.1395C33.7792 13.1095 32.1272 11.4591 30.0973 11.4591Z" fill="white"/>
<path d="M30.0972 16.1317C29.5501 16.1317 29.1051 15.6867 29.1051 15.1396C29.1051 14.5925 29.5501 14.1475 30.0972 14.1475C30.6443 14.1475 31.0893 14.5925 31.0893 15.1396C31.0893 15.6867 30.6443 16.1317 30.0972 16.1317ZM30.0972 14.911C29.9723 14.911 29.8701 15.0131 29.8701 15.1381C29.8701 15.388 30.3243 15.388 30.3243 15.1381C30.3243 15.0146 30.2222 14.911 30.0972 14.911Z" fill="white"/>
<path d="M30.1339 15.5552C30.3637 15.5552 30.5499 15.369 30.5499 15.1392C30.5499 14.9094 30.3637 14.7231 30.1339 14.7231C29.9041 14.7231 29.7178 14.9094 29.7178 15.1392C29.7178 15.369 29.9041 15.5552 30.1339 15.5552Z" fill="white"/>
</svg>
