<svg width="194" height="101" viewBox="0 0 194 101" fill="none" xmlns="http://www.w3.org/2000/svg">
<path fill-rule="evenodd" clip-rule="evenodd" d="M0 100.05H194V61.0063H0V100.05Z" fill="#CF141F"/>
<path d="M78.8751 73.3471H82.1391C83.3124 73.3471 84.2298 73.6298 84.8911 74.1951C85.5524 74.7498 85.8831 75.6191 85.8831 76.8031C85.8831 77.4965 85.7444 78.1045 85.4671 78.6271C85.1898 79.1498 84.8004 79.5551 84.2991 79.8431L86.4431 84.5471H84.2511L82.4271 80.3871H82.2511H80.8271V84.5471H78.8751V73.3471ZM81.9631 78.6911C82.5818 78.6911 83.0511 78.5471 83.3711 78.2591C83.7018 77.9711 83.8671 77.5071 83.8671 76.8671C83.8671 76.2271 83.7018 75.7631 83.3711 75.4751C83.0511 75.1871 82.5818 75.0431 81.9631 75.0431H80.8271V78.6911H81.9631ZM87.4528 73.3471H89.4048V84.5471H87.4528V73.3471ZM99.6158 73.3471L96.1278 84.5471H93.8238L90.3358 73.3471H92.2878L94.9758 82.0831L97.6638 73.3471H99.6158ZM100.643 73.3471H102.643L106.355 80.3551V73.3471H108.307V84.5471H106.595L102.595 77.0911V84.5471H100.643V73.3471ZM110.424 73.3471H116.712V75.1391H112.376V77.7791H115.72V79.5711H112.376V82.7551H116.856V84.5471H110.424V73.3471Z" fill="white"/>
<path fill-rule="evenodd" clip-rule="evenodd" d="M121.029 0H111.362V46.2839H131.09V37.2547H121.031L121.029 0ZM135.791 46.2839H145.199V0H135.791V46.2839ZM159.592 9.00771H169.694V0H149.923V46.2839H159.592V28.1561H169.727V19.1963H159.592V9.00771ZM194 28.1561V19.198H183.865V9.00771H193.967V0H174.196V46.2839H193.998V37.2563H183.865V28.1561H194ZM74.7433 46.2673L74.6952 46.3648H84.4886L106.741 0.0990939L106.791 0H96.8647L74.7433 46.2673ZM100.405 33.6427C98.7202 33.6444 97.1046 34.3112 95.913 35.4968C94.7215 36.6824 94.0513 38.2899 94.0495 39.9666C94.0517 41.6429 94.7221 43.25 95.9136 44.4352C97.1051 45.6205 98.7205 46.2871 100.405 46.2888C102.09 46.2866 103.705 45.6198 104.896 44.4347C106.087 43.2495 106.757 41.6427 106.759 39.9666C106.758 38.2899 106.088 36.6822 104.897 35.4963C103.706 34.3104 102.09 33.6432 100.405 33.641V33.6427ZM81.1439 12.699C82.8287 12.6968 84.4438 12.0298 85.635 10.8443C86.8262 9.65872 87.4962 8.05147 87.4979 6.3751C87.4962 4.69872 86.8262 3.09147 85.635 1.90594C84.4438 0.720404 82.8287 0.053385 81.1439 0.0511992C79.4588 0.0533858 77.8434 0.720633 76.6521 1.90652C75.4609 3.09242 74.7911 4.70008 74.7898 6.37675C74.792 8.05284 75.4622 9.65966 76.6533 10.8448C77.8444 12.03 79.4593 12.6968 81.1439 12.699ZM26.9998 37.2101H31.8716V9.00771H26.9998V37.2101ZM34.4013 0H24.6096C22.6961 0.00218559 20.8617 0.759462 19.5087 2.1057C18.1556 3.45194 17.3946 5.2772 17.3924 7.18107V39.1689C17.3941 41.0729 18.1551 42.8984 19.5082 44.2447C20.8613 45.591 22.696 46.3482 24.6096 46.3499H34.4013C36.3146 46.3477 38.1489 45.5904 39.5016 44.2441C40.8544 42.8978 41.6151 41.0726 41.6168 39.1689V7.18107C41.6146 5.27749 40.8538 3.45247 39.5011 2.10628C38.1485 0.760092 36.3144 0.00262257 34.4013 0ZM55.6778 37.2547H60.5512V9.00771H55.6778V37.2547ZM63.0809 0H53.2875C51.3744 0.00262257 49.5404 0.760092 48.1877 2.10628C46.835 3.45247 46.0742 5.27749 46.072 7.18107V39.1689C46.0742 41.0727 46.8353 42.898 48.1883 44.2442C49.5413 45.5905 51.3758 46.3477 53.2892 46.3499H63.0826C64.9957 46.3473 66.8298 45.5898 68.1824 44.2436C69.5351 42.8974 70.2959 41.0724 70.2981 39.1689V7.18107C70.2959 5.2772 69.5348 3.45194 68.1818 2.1057C66.8288 0.759462 64.9944 0.00218559 63.0809 0ZM0 9.00771H2.91477V46.2839H12.5836V0.0660631H0.00165898L0 9.00771Z" fill="#FEFEFE"/>
</svg>
