<svg width="24" height="24" fill="none" xmlns="http://www.w3.org/2000/svg"><path d="M22.64 19.8a.38.38 0 0 0-.36.38v3.08h-8.89V12.69a.37.37 0 0 0-.35-.37h-2.81v-8a.36.36 0 0 0-.36-.37H7.06V.75h6.17a.37.37 0 0 0 0-.73H.36A.36.36 0 0 0 0 .38v23.25a.36.36 0 0 0 .36.37h22.28a.36.36 0 0 0 .36-.37V20.2a.36.36 0 0 0-.33-.39l-.03-.01zM3.15 23.26H.75v-10.2H3.2l-.05 10.2zm0-10.94H.75V.75H3.2l-.05 11.57zm3.17 10.94H3.88V9.42h2.44v13.84zm0-14.58H3.88V.75h2.44v7.93zm3.17 14.58H7.06v-6.85H9.5l-.01 6.85zm0-7.59H7.06v-11H9.5l-.01 11zm3.17 7.59h-2.45v-10.2h2.45v10.2zM22.64 0h-7.49a.37.37 0 0 0 0 .74h7.13V18.2a.36.36 0 0 0 .36.36.35.35 0 0 0 .36-.35V.38a.36.36 0 0 0-.36-.37V0z" fill="#5B748B"/><path d="M17.66 3c-2.34.06-3.52 2.31-3.52 6.89a24.72 24.72 0 0 0 1 5.6.35.35 0 0 0 .34.25h4.42a.35.35 0 0 0 .34-.25 24.72 24.72 0 0 0 1-5.6C21.18 5.35 20.02 3.1 17.66 3zm1.92 12h-3.89a23.002 23.002 0 0 1-.88-5.15 10.42 10.42 0 0 1 .88-5 2.18 2.18 0 0 1 3.87 0 10.38 10.38 0 0 1 .88 5 22.441 22.441 0 0 1-.86 5.23V15zm.37 1.46h-4.61a.35.35 0 0 0-.35.35v2.31a2.55 2.55 0 0 0 2.51 2.59h.25a2.56 2.56 0 0 0 2.52-2.59V16.8a.36.36 0 0 0-.32-.34zm-.36 2.68A1.82 1.82 0 0 1 17.75 21h-.29a1.83 1.83 0 0 1-1.8-1.85V17.2h3.9l.03 1.94z" fill="#5B748B"/></svg>