<svg width="30" height="25" fill="none" xmlns="http://www.w3.org/2000/svg"><path d="M28.85 19.45h-3.92v-4.06a.46.46 0 0 0-.45-.46h-3.93v-4a.45.45 0 0 0-.44-.45h-3.93v-4a.45.45 0 0 0-.43-.48h-5.18V1.32a.45.45 0 0 0-.45-.45H.75a.44.44 0 0 0-.44.45v23.1a.44.44 0 0 0 .44.45h28.1a.45.45 0 0 0 .45-.45V19.9a.46.46 0 0 0-.45-.45zm-4.82-3.57v3.57H14.3v-3.57h9.73zm-4.37-4.48V15h-9.1v-3.6h9.1zm-6.25 4.48v3.57H4.93v-3.57h8.48zm1.88-9v3.57H7.43V6.88h7.86zM1.19 1.76h8.47V6H1.19V1.76zm0 5.12h5.35v3.57H1.19V6.88zm0 4.49h8.47V15H1.19v-3.63zm0 4.48h2.85v3.57H1.19v-3.57zm6.6 8.05h-6.6v-3.55h6.56l.04 3.55zm11.24 0H8.68v-3.55h10.35v3.55zm9.38 0h-8.48v-3.55h8.49l-.01 3.55z" fill="#5B748B"/></svg>