<svg width="25" height="25" fill="none" xmlns="http://www.w3.org/2000/svg"><path d="M20.12 5.12v2.27h-.37v-6h4a.44.44 0 0 0 .44-.45.43.43 0 0 0-.44-.44h-4.73L1.78 14.68a.43.43 0 0 0-.16.3.45.45 0 0 0 .09.32.47.47 0 0 0 .31.16.49.49 0 0 0 .33-.09l.69-.58v5.48H1.18a1 1 0 0 0-1 1v3.16h24V4.14h-3.16a1 1 0 0 0-.9.98zm-4.38-.63l3.16-2.6v5.5h-1.87a1 1 0 0 0-1 1v2.27h-.28l-.01-6.17zm-3.65 3l2.76-2.27v5.41h-1.47a1 1 0 0 0-1 1v2.27h-.3l.01-6.41zm-4 3.34l3.16-2.61v5.66H9.37a1 1 0 0 0-1 1v2.27h-.3l.02-6.32zm-4.07 3.33l3.17-2.6v5.56H5.32a1 1 0 0 0-1 1v2.28H4l.02-6.24zm19.39 9.45H1.14v-2.35H4.2a1 1 0 0 0 1-1V18h3.07a1 1 0 0 0 1-1v-2.27h3.07a1 1 0 0 0 1-1v-2.27h3.64V8.22h3.07a1 1 0 0 0 1-1V5h2.34l.02 18.61z" fill="#5B748B"/></svg>