<svg width="25" height="24" fill="none" xmlns="http://www.w3.org/2000/svg"><path d="M24.33 0H16.6a.43.43 0 0 0-.42.42v7.29H8.9a.44.44 0 0 0-.44.44v7.29H1.17a.42.42 0 0 0-.42.42v7.72a.44.44 0 0 0 .42.42H8.9a.43.43 0 0 0 .42-.42v-7.29h3v3.42a.42.42 0 0 0 .42.43h7.71a.44.44 0 0 0 .44-.43V12a.43.43 0 0 0-.44-.42h-3.42v-3h7.29a.43.43 0 0 0 .42-.42V.43a.44.44 0 0 0-.41-.43zM8.46 23.14H1.61v-6.85h6.85v6.85zm7.72-3.85h-3v-3h3v3zm0-3.86H9.31V8.57h6.87v6.86zm3.85 3.86h-3v-3h3v3zm0-6.87v3h-3v-3h3zm3.85-4.71h-6.85V.86h6.85v6.85z" fill="#5B748B"/></svg>