<svg width="25" height="24" fill="none" xmlns="http://www.w3.org/2000/svg"><path d="M24.38 6.82c-1.62-2.233-3.243-4.46-4.87-6.68L19.44 0h-5.57l-.12.15L.61 13.29l-.15.12V24h10.59l.12-.15 13.14-13.14.15-.12V6.94l-.08-.12zM1.95 13.14l.13-.13 1.67-1.71L13.98 1.09a.82.82 0 0 1 .6-.25h3.41l-.3.33-.13.14-3.24 3.25-8.75 8.73a.751.751 0 0 1-.57.23H1.95l-.1-.27.1-.11zm8.17 10H1.35v-8.78H5.2a.53.53 0 0 1 .47.25l2.7 3.72L10 20.57a.56.56 0 0 1 .12.3v2.27zM23.62 10a.56.56 0 0 1-.15.41c-.38.39-.77.81-1.16 1.16l-.28.28-.09.08-.32.25v-3a.55.55 0 0 0-.1-.32l-1.77-2.37-.49-.67c-.18-.26-.38-.31-.57-.18a.47.47 0 0 0-.21.29.52.52 0 0 0 .13.39l.59.81c.48.65 1 1.31 1.42 2a.74.74 0 0 1 .14.43v3.33a.49.49 0 0 1-.09.33c-.35.37-.72.74-1.08 1.1l-.43.43-.2-.09-.06-.13v-2a2 2 0 0 0-.46-1.42c-.47-.6-.91-1.22-1.33-1.82l-.55-.76c-.09-.12-.31-.38-.58-.18a.409.409 0 0 0-.21.3.51.51 0 0 0 .13.37l.45.63c.51.71 1 1.42 1.53 2.13.1.141.16.307.17.48v3.31a.79.79 0 0 1-.19.45c-.32.34-.65.67-1 1l-.42.43-.21-.06-.07-.13v-2.67a.44.44 0 0 0-.09-.27c-.61-.85-1.22-1.71-1.83-2.55l-.41-.55c-.08-.12-.3-.37-.56-.18a.46.46 0 0 0-.22.3.48.48 0 0 0 .12.36l.67.93 1.34 1.86a.901.901 0 0 1 .15.46v3.32a.56.56 0 0 1-.13.39l-1 1.06-.3.3-.08.05-.28.19v-3a.48.48 0 0 0-.06-.24c-.74-1-1.49-2.07-2.24-3.1v-.05a.45.45 0 0 0-.36-.22.45.45 0 0 0-.35.25c-.09.15-.07.28.07.48l.13.18c.62.81 1.25 1.71 1.85 2.57a.92.92 0 0 1 .17.52V21a.71.71 0 0 1-.17.44c-.29.3-.59.59-.9.9l-.57.57v-2.24a.65.65 0 0 0-.11-.32l-4.41-6.09a.41.41 0 0 1 0-.57L17.03 3.28l1.89-1.89.14-.13.2-.18 1.3 1.79c1.02 1.4 2.02 2.8 3 4.2a.921.921 0 0 1 .16.48 17.13 17.13 0 0 0-.14 2.55l.04-.1z" fill="#5B748B"/></svg>