<svg width="28" height="25" fill="none" xmlns="http://www.w3.org/2000/svg"><path d="M19.63 8.5H7.5a.4.4 0 0 0-.39.4v14.76a.4.4 0 0 0 .61.34l2.87-2a.35.35 0 0 0 .17-.32l.16-9.6a.31.31 0 0 1 .18-.28 1 1 0 0 1 .91 0 .31.31 0 0 1 .16.27v8.44a.39.39 0 0 0 .6.34l3-2.11a.428.428 0 0 0 .18-.34v-6.33c0-.53 1.24-.53 1.24 0v5.27a.4.4 0 0 0 .39.41.41.41 0 0 0 .18-.05l2-1.05a.41.41 0 0 0 .21-.36V8.9a.39.39 0 0 0-.38-.4h.04zm-.39 7.53l-1.24.64v-4.61a1.431 1.431 0 0 0-1.66-1.18 1.45 1.45 0 0 0-1.14 1.18v6.11l-2.25 1.57v-7.68a1.09 1.09 0 0 0-.54-1 1.79 1.79 0 0 0-1.71 0 1.1 1.1 0 0 0-.55 1l-.16 9.38-2.06 1.42V9.3h11.35l-.04 6.73zm6.46-16H1.44a.4.4 0 0 0-.39.4v1.05a.43.43 0 0 0 .11.28l2 2.11a.39.39 0 0 0 .28.12h20.2a.36.36 0 0 0 .27-.12l2-2.11a.381.381 0 0 0 .12-.28V.42a.4.4 0 0 0-.37-.39h.04zm-.39 1.29l-1.77 1.85H3.65L1.86 1.29V.81h23.48l-.03.51zm-21.93 4a3.6 3.6 0 0 0-3.28 4 3.44 3.44 0 0 0 1.19 2.31 2.84 2.84 0 0 0 2.19.69 2.81 2.81 0 0 0 1.85-1.09 2.73 2.73 0 0 0 .54-2 2.51 2.51 0 0 0-.94-1.68 2 2 0 0 0-2.92.43 1.85 1.85 0 0 0-.27 1.39c.067.4.285.758.61 1a1.26 1.26 0 0 0 1.15.21c.27-.091.494-.28.63-.53a1 1 0 0 0 0-1 .6.6 0 0 0-.51-.32.5.5 0 0 0-.41.07.62.62 0 0 0-.22.48.46.46 0 0 0 .11.29l.31.32-.43-.12-.19-.1a.84.84 0 0 1-.295-.871 1 1 0 0 1 .155-.359 1.14 1.14 0 0 1 .78-.52 1.31 1.31 0 0 1 1 .27c.347.282.572.687.63 1.13a1.86 1.86 0 0 1-.39 1.39 2 2 0 0 1-1.37.81A2.14 2.14 0 0 1 1.75 11a2.67 2.67 0 0 1-.9-1.75 2.83 2.83 0 0 1 .63-2 2.9 2.9 0 0 1 2-1h20.28a2.89 2.89 0 0 1 2 1 2.83 2.83 0 0 1 .63 2 2.61 2.61 0 0 1-.9 1.75 2.15 2.15 0 0 1-1.62.52 2 2 0 0 1-1.37-.81 1.86 1.86 0 0 1-.39-1.39 1.77 1.77 0 0 1 .63-1.13 1.32 1.32 0 0 1 1-.27 1.18 1.18 0 0 1 .78.52.939.939 0 0 1 .15.75.84.84 0 0 1-.3.48.69.69 0 0 1-.19.1l-.42.12.31-.32a.46.46 0 0 0 .11-.29.65.65 0 0 0-.23-.48.47.47 0 0 0-.4-.07.57.57 0 0 0-.51.33 1 1 0 0 0 0 .95c.139.247.363.435.63.53a1.27 1.27 0 0 0 1.16-.21 1.66 1.66 0 0 0 .61-1 1.9 1.9 0 0 0-.28-1.39 2 2 0 0 0-2.91-.43 2.471 2.471 0 0 0-1 1.68 2.74 2.74 0 0 0 .55 2 2.79 2.79 0 0 0 4.09.4 3.44 3.44 0 0 0 1.19-2.31 3.71 3.71 0 0 0-.78-2.62 3.62 3.62 0 0 0-2.5-1.33H3.38" fill="#5B748B"/></svg>