<svg width="14" height="18" viewBox="0 0 14 18" fill="none" xmlns="http://www.w3.org/2000/svg">
<path d="M6.50548 0C2.90633 0 0 2.90633 0 6.50548C0 7.76039 0.400873 8.95865 0.95861 9.94336L5.19828 17.281C5.46408 17.7603 6.00003 18 6.50548 18C7.01097 18 7.52073 17.7603 7.81267 17.281L12.0523 9.94772C12.6144 8.96292 13.011 7.78644 13.011 6.50975C13.011 2.91069 10.1046 0 6.50548 0ZM6.50548 8.42706C5.19828 8.42706 4.13074 7.35951 4.13074 6.05232C4.13074 4.74512 5.19828 3.67758 6.50548 3.67758C7.81267 3.67758 8.88022 4.74512 8.88022 6.05232C8.88022 7.36387 7.81267 8.42706 6.50548 8.42706Z" fill="#C5C5C5"/>
</svg>
