<svg width="70" height="70" viewBox="0 0 70 70" fill="none" xmlns="http://www.w3.org/2000/svg">
<path d="M17 47H32.6396V45.2068H19.7014L27.4146 37.3657C29.9382 34.834 32.0709 32.1266 32.0709 29.0675C32.0709 24.4965 28.4809 22 24.6776 22C21.4431 22 18.6351 23.5471 17.1422 26.571L18.7417 27.5204C19.9147 25.0591 21.9762 23.7932 24.6776 23.7932C27.6989 23.7932 30.1515 25.692 30.1515 29.0675C30.1515 31.4937 28.3032 33.8143 26.135 36.0295L17 45.3122V47Z" fill="#C5A26D"/>
<path d="M53 40.0731H49.801V32.3376H47.9171V40.0731H36.6139L46.0333 22.3868H43.9717L34.5168 40.0731V41.8312H47.9171V47H49.801V41.8312H53V40.0731Z" fill="#C5A26D"/>
<circle cx="35" cy="35" r="34.5" stroke="#C5A26D"/>
</svg>
