<svg width="66" height="65" viewBox="0 0 66 65" fill="none" xmlns="http://www.w3.org/2000/svg">
<path d="M53 5.00001C50.2785 4.99681 46.238 5.45163 44 7.00001C41.8325 2.71033 37.8063 -0.0063936 33 1.13003e-05C28.1937 0.0064162 24.1558 3.70446 22 8.00001C17.6468 4.98971 11.5197 4.24697 7 7.00001C2.48027 9.75358 0.321539 13.7512 0.999924 19C1.67778 24.2488 5.92892 29.4858 11 31V64C11 64.7547 11.2458 65 12 65H55C55.7547 65 56 64.7547 56 64V31C62.3787 29.0946 65.9629 22.5869 65 16C64.0371 9.41309 59.6574 5.00055 53 5.00001ZM12 64V54H55.0325L55 64H12ZM56 30C55.3713 30.1361 55 30.3563 55 31L55.0325 53H12V31C12 30.3574 11.6282 30.1361 11 30C11.0069 30.0011 11 29 11 30C5.65617 28.8605 2.42729 22.4335 3 17C3.57323 11.5665 8.53661 6.99948 14 7.00001C16.6164 7.00001 19.9243 7.15113 22 9.00001C22.3437 9.30531 22.5 10 23 10C23.5 10 23.8543 9.43554 24 9.00001C25.2949 5.03645 28.8341 2.17561 33 2.00001C37.1659 1.82441 41.3769 5.15974 43 9.00001C41.4121 10.6824 40.0466 11.2519 39.5 13.5C39.3207 14.2328 39.2672 15.8212 40 16C40.7334 16.1793 41.8207 15.7328 42 15C43.2554 9.87075 47.741 6.52658 53 7.00001C58.2595 7.47397 62.6808 11.7288 63 17C63.3186 22.2707 61.164 28.8952 56 30Z" fill="#C5A26D"/>
<path d="M33 29C32.448 29 32 29.6049 32 30.3514V47.6486C32 48.3951 32.448 49 33 49C33.5523 49 34 48.3951 34 47.6486V30.3514C34 29.6049 33.5523 29 33 29Z" fill="#C5A26D"/>
<path d="M38 32C37.448 32 37 32.5945 37 33.3281V47.6719C37 48.4055 37.448 49 38 49C38.5523 49 39 48.4055 39 47.6719V33.3281C39 32.5945 38.5523 32 38 32Z" fill="#C5A26D"/>
<path d="M27 32C26.448 32 26 32.5945 26 33.3281V47.6719C26 48.4055 26.448 49 27 49C27.5523 49 28 48.4055 28 47.6719V33.3281C28 32.5945 27.5523 32 27 32Z" fill="#C5A26D"/>
<path d="M22 34C21.448 34 21 34.6217 21 35.3889V47.6111C21 48.3783 21.448 49 22 49C22.5523 49 23 48.3783 23 47.6111V35.3889C23 34.6217 22.5523 34 22 34Z" fill="#C5A26D"/>
<path d="M44 34C43.448 34 43 34.6217 43 35.3889V47.6111C43 48.3783 43.448 49 44 49C44.5523 49 45 48.3783 45 47.6111V35.3889C45 34.6217 44.5523 34 44 34Z" fill="#C5A26D"/>
</svg>
