<svg width="79" height="71" viewBox="0 0 79 71" fill="none" xmlns="http://www.w3.org/2000/svg">
<mask id="path-1-inside-1" fill="white">
<path d="M74.7601 29.5287H73.6152V26.0917V13.8736C73.6152 9.87335 70.3608 6.61889 66.3607 6.61889H34.9022L13.6788 0.555024C13.6727 0.553344 13.6665 0.552428 13.6603 0.550748C13.6541 0.549068 13.6481 0.546624 13.6419 0.545097C13.629 0.54189 13.6164 0.540363 13.6037 0.537614C13.584 0.53349 13.5643 0.529214 13.5446 0.526006C13.5267 0.523104 13.5091 0.521272 13.4913 0.519134C13.4705 0.51669 13.4499 0.514552 13.4293 0.51333C13.4125 0.512414 13.3958 0.512261 13.379 0.511955C13.3576 0.51165 13.3364 0.511497 13.3152 0.512413C13.2995 0.513024 13.2837 0.514552 13.2681 0.515773C13.2463 0.517606 13.2245 0.519592 13.2029 0.522799C13.1883 0.524937 13.1738 0.527686 13.1592 0.530283C13.137 0.534253 13.115 0.53853 13.0931 0.543875C13.0795 0.547235 13.0662 0.551053 13.0528 0.554871C13.0305 0.561286 13.0085 0.567853 12.9865 0.57549C12.9741 0.579919 12.9619 0.584653 12.9496 0.589541C12.9274 0.598093 12.9054 0.607104 12.8839 0.617031C12.8724 0.622377 12.8613 0.62818 12.85 0.633831C12.8284 0.644675 12.8072 0.655671 12.7864 0.668042C12.7756 0.674304 12.7652 0.681024 12.7545 0.687744C12.7341 0.700573 12.7139 0.713708 12.6943 0.727911C12.6841 0.735242 12.6742 0.743184 12.6641 0.750973C12.6453 0.765482 12.6267 0.780296 12.6088 0.796027C12.5987 0.804885 12.5891 0.814202 12.5793 0.823365C12.5625 0.839249 12.5459 0.855132 12.53 0.871932C12.5201 0.882471 12.5108 0.893467 12.5011 0.904463C12.4866 0.92111 12.4723 0.937911 12.4587 0.955474C12.4489 0.96815 12.4398 0.981132 12.4304 0.994114C12.4184 1.01107 12.4065 1.02817 12.3955 1.04574C12.386 1.0607 12.3773 1.07628 12.3686 1.09171C12.359 1.10866 12.3493 1.12576 12.3406 1.14333C12.3321 1.16043 12.3244 1.178 12.3167 1.19556C12.309 1.21282 12.3015 1.23008 12.2948 1.24779C12.2878 1.26643 12.2817 1.28552 12.2754 1.30476C12.2714 1.31713 12.2666 1.32874 12.2629 1.34126C12.2611 1.34752 12.2603 1.35363 12.2586 1.35974C12.2569 1.366 12.2545 1.37196 12.253 1.37822L10.9432 6.61859H7.25529C3.26316 6.61859 0.0143563 9.85991 0.00122184 13.8491C0.00106911 13.8574 0 13.8652 0 13.8733L0.00157422 57.6782L1 57.1645L2.29136 56.5L2.2909 19.1565C3.58969 20.3777 5.33597 21.1282 7.25529 21.1282H66.3607L66.3647 21.1281C69.0997 21.1302 71.3243 23.3561 71.3243 26.0919V34.1106H58.7225L58.7204 34.1108C58.6873 34.1108 58.6543 34.1128 58.6214 34.1157C58.5849 34.1189 58.5489 34.1241 58.5135 34.1306C58.5081 34.1316 58.5029 34.132 58.4976 34.1331C58.4676 34.139 58.4383 34.147 58.4092 34.1552C58.4027 34.1571 58.3962 34.1583 58.3899 34.1603C58.3639 34.1682 58.3387 34.1777 58.3135 34.1873C58.3039 34.191 58.2942 34.194 58.2845 34.198C58.2635 34.2067 58.2431 34.2169 58.2228 34.2269C58.2094 34.2333 58.1958 34.2392 58.1827 34.2461C58.1668 34.2545 58.1518 34.2641 58.1365 34.2733C58.1196 34.2834 58.1023 34.2931 58.0858 34.3041C58.0747 34.3115 58.0644 34.3199 58.0538 34.3277C58.0342 34.3417 58.0145 34.3556 57.9959 34.371C57.9878 34.3778 57.9803 34.3852 57.9725 34.3921C57.9525 34.4095 57.9325 34.4268 57.9136 34.4457C57.9024 34.4569 57.8923 34.4691 57.8818 34.4807C57.867 34.4967 57.8517 34.5125 57.8377 34.5296C57.814 34.5584 57.7918 34.5884 57.7711 34.6194L57.7698 34.6211L51.6611 43.7848C51.6185 43.8487 51.5824 43.9163 51.5539 43.9867C51.543 44.013 51.5343 44.0397 51.5256 44.0663C51.523 44.0744 51.5196 44.0822 51.5172 44.0903C51.5087 44.1185 51.5021 44.1471 51.4958 44.1755C51.4941 44.183 51.492 44.1903 51.4905 44.1978C51.4854 44.2234 51.4821 44.2493 51.4789 44.2751C51.4775 44.2861 51.4754 44.2971 51.4743 44.3082C51.4721 44.3294 51.4717 44.3505 51.4709 44.3717C51.4702 44.3879 51.4688 44.4041 51.4688 44.4205C51.4688 44.4362 51.4702 44.4519 51.4708 44.4677C51.4715 44.4893 51.4721 44.5112 51.4743 44.5329C51.4754 44.5434 51.4773 44.5539 51.4787 44.5645C51.4821 44.5908 51.4854 44.617 51.4906 44.6431C51.492 44.6503 51.4941 44.6573 51.4958 44.6645C51.5021 44.6932 51.5088 44.7219 51.5174 44.7505C51.5198 44.7586 51.5232 44.7664 51.5258 44.7746C51.5345 44.8012 51.5432 44.8279 51.554 44.8542C51.5827 44.9245 51.6188 44.9923 51.6615 45.0563L57.7701 54.2187L57.7711 54.2199C57.7957 54.2564 57.8225 54.2912 57.8509 54.3246C57.8603 54.3356 57.8702 54.3459 57.8798 54.3563C57.8992 54.3775 57.9194 54.398 57.9403 54.4177C57.9527 54.4293 57.9649 54.4406 57.9774 54.4514C57.9997 54.4705 58.0228 54.4884 58.0464 54.5058C58.0571 54.5136 58.0673 54.5221 58.0782 54.5295C58.1126 54.5528 58.1481 54.5744 58.185 54.5939C58.1943 54.5988 58.2039 54.6029 58.2132 54.6075C58.2425 54.6222 58.2725 54.6358 58.3032 54.6478C58.3151 54.6526 58.327 54.6568 58.3391 54.6611C58.3682 54.6715 58.3979 54.6807 58.4281 54.6887C58.4405 54.692 58.4527 54.6953 58.4652 54.6984C58.4962 54.7056 58.5277 54.711 58.5596 54.7156C58.5712 54.7173 58.5826 54.7196 58.5943 54.721C58.6337 54.7254 58.6737 54.7278 58.7143 54.7282C58.7175 54.7282 58.7207 54.7288 58.7241 54.7288L58.7262 54.7286H71.3248V62.748C71.3248 65.4852 69.098 67.7119 66.3612 67.7119H7.2559C4.51903 67.7119 2.29228 65.4852 2.29228 62.748C2.29228 62.742 2.29151 62.7362 2.29136 62.7303V56.5L0.00157422 57.6782L0.000458181 62.748C0.000458181 62.7599 0.00183272 62.7715 0.0022909 62.7833C0.0213818 66.7673 3.26759 70.0028 7.2559 70.0028H66.3612C70.3609 70.0028 73.6151 66.749 73.6157 62.7492V54.7286H74.7605C76.655 54.7286 78.1963 53.1873 78.1963 51.2929V32.9644C78.1958 31.07 76.6545 29.5287 74.7601 29.5287ZM14.1883 3.08311L34.4 8.85817L34.4029 8.85894L47.9492 12.7293H11.7774L14.1883 3.08311ZM71.3242 20.8083C70.0256 19.5874 68.2796 18.837 66.3607 18.837C66.3607 18.837 66.3569 18.8373 66.3548 18.8373H7.25529C4.51827 18.8373 2.29151 16.6106 2.29151 13.8736C2.29151 11.1366 4.51827 8.90979 7.25529 8.90979H10.3706L9.41607 12.7293H7.25559C6.623 12.7293 6.11014 13.2422 6.11014 13.8748C6.11014 14.5074 6.623 15.0202 7.25559 15.0202H10.3065L10.3114 15.0205L10.3149 15.0202H56.1239L56.1282 15.0205L56.1318 15.0202H64.8321C65.4647 15.0202 65.9775 14.5074 65.9775 13.8748C65.9775 13.2422 65.4647 12.7293 64.8321 12.7293H56.2881L42.9201 8.90979H66.3606C69.0974 8.90979 71.3242 11.1366 71.3242 13.8736V20.8083ZM75.9049 51.2923C75.9049 51.9235 75.3913 52.4371 74.7601 52.4371H59.3356L53.9903 44.4199L59.3356 36.4014H74.7601C74.7761 36.4014 74.7917 36.3996 74.8076 36.3989C75.1918 36.3936 75.5608 36.3252 75.9049 36.2033V51.2923ZM74.7601 34.1093C74.7522 34.1093 74.7444 34.1103 74.7364 34.1105H73.6152V31.8196H74.7601C75.3913 31.8196 75.9049 32.3332 75.9049 32.9644C75.9049 33.5956 75.3913 34.1093 74.7601 34.1093Z"/>
</mask>
<path d="M74.7601 29.5287H73.6152V26.0917V13.8736C73.6152 9.87335 70.3608 6.61889 66.3607 6.61889H34.9022L13.6788 0.555024C13.6727 0.553344 13.6665 0.552428 13.6603 0.550748C13.6541 0.549068 13.6481 0.546624 13.6419 0.545097C13.629 0.54189 13.6164 0.540363 13.6037 0.537614C13.584 0.53349 13.5643 0.529214 13.5446 0.526006C13.5267 0.523104 13.5091 0.521272 13.4913 0.519134C13.4705 0.51669 13.4499 0.514552 13.4293 0.51333C13.4125 0.512414 13.3958 0.512261 13.379 0.511955C13.3576 0.51165 13.3364 0.511497 13.3152 0.512413C13.2995 0.513024 13.2837 0.514552 13.2681 0.515773C13.2463 0.517606 13.2245 0.519592 13.2029 0.522799C13.1883 0.524937 13.1738 0.527686 13.1592 0.530283C13.137 0.534253 13.115 0.53853 13.0931 0.543875C13.0795 0.547235 13.0662 0.551053 13.0528 0.554871C13.0305 0.561286 13.0085 0.567853 12.9865 0.57549C12.9741 0.579919 12.9619 0.584653 12.9496 0.589541C12.9274 0.598093 12.9054 0.607104 12.8839 0.617031C12.8724 0.622377 12.8613 0.62818 12.85 0.633831C12.8284 0.644675 12.8072 0.655671 12.7864 0.668042C12.7756 0.674304 12.7652 0.681024 12.7545 0.687744C12.7341 0.700573 12.7139 0.713708 12.6943 0.727911C12.6841 0.735242 12.6742 0.743184 12.6641 0.750973C12.6453 0.765482 12.6267 0.780296 12.6088 0.796027C12.5987 0.804885 12.5891 0.814202 12.5793 0.823365C12.5625 0.839249 12.5459 0.855132 12.53 0.871932C12.5201 0.882471 12.5108 0.893467 12.5011 0.904463C12.4866 0.92111 12.4723 0.937911 12.4587 0.955474C12.4489 0.96815 12.4398 0.981132 12.4304 0.994114C12.4184 1.01107 12.4065 1.02817 12.3955 1.04574C12.386 1.0607 12.3773 1.07628 12.3686 1.09171C12.359 1.10866 12.3493 1.12576 12.3406 1.14333C12.3321 1.16043 12.3244 1.178 12.3167 1.19556C12.309 1.21282 12.3015 1.23008 12.2948 1.24779C12.2878 1.26643 12.2817 1.28552 12.2754 1.30476C12.2714 1.31713 12.2666 1.32874 12.2629 1.34126C12.2611 1.34752 12.2603 1.35363 12.2586 1.35974C12.2569 1.366 12.2545 1.37196 12.253 1.37822L10.9432 6.61859H7.25529C3.26316 6.61859 0.0143563 9.85991 0.00122184 13.8491C0.00106911 13.8574 0 13.8652 0 13.8733L0.00157422 57.6782L1 57.1645L2.29136 56.5L2.2909 19.1565C3.58969 20.3777 5.33597 21.1282 7.25529 21.1282H66.3607L66.3647 21.1281C69.0997 21.1302 71.3243 23.3561 71.3243 26.0919V34.1106H58.7225L58.7204 34.1108C58.6873 34.1108 58.6543 34.1128 58.6214 34.1157C58.5849 34.1189 58.5489 34.1241 58.5135 34.1306C58.5081 34.1316 58.5029 34.132 58.4976 34.1331C58.4676 34.139 58.4383 34.147 58.4092 34.1552C58.4027 34.1571 58.3962 34.1583 58.3899 34.1603C58.3639 34.1682 58.3387 34.1777 58.3135 34.1873C58.3039 34.191 58.2942 34.194 58.2845 34.198C58.2635 34.2067 58.2431 34.2169 58.2228 34.2269C58.2094 34.2333 58.1958 34.2392 58.1827 34.2461C58.1668 34.2545 58.1518 34.2641 58.1365 34.2733C58.1196 34.2834 58.1023 34.2931 58.0858 34.3041C58.0747 34.3115 58.0644 34.3199 58.0538 34.3277C58.0342 34.3417 58.0145 34.3556 57.9959 34.371C57.9878 34.3778 57.9803 34.3852 57.9725 34.3921C57.9525 34.4095 57.9325 34.4268 57.9136 34.4457C57.9024 34.4569 57.8923 34.4691 57.8818 34.4807C57.867 34.4967 57.8517 34.5125 57.8377 34.5296C57.814 34.5584 57.7918 34.5884 57.7711 34.6194L57.7698 34.6211L51.6611 43.7848C51.6185 43.8487 51.5824 43.9163 51.5539 43.9867C51.543 44.013 51.5343 44.0397 51.5256 44.0663C51.523 44.0744 51.5196 44.0822 51.5172 44.0903C51.5087 44.1185 51.5021 44.1471 51.4958 44.1755C51.4941 44.183 51.492 44.1903 51.4905 44.1978C51.4854 44.2234 51.4821 44.2493 51.4789 44.2751C51.4775 44.2861 51.4754 44.2971 51.4743 44.3082C51.4721 44.3294 51.4717 44.3505 51.4709 44.3717C51.4702 44.3879 51.4688 44.4041 51.4688 44.4205C51.4688 44.4362 51.4702 44.4519 51.4708 44.4677C51.4715 44.4893 51.4721 44.5112 51.4743 44.5329C51.4754 44.5434 51.4773 44.5539 51.4787 44.5645C51.4821 44.5908 51.4854 44.617 51.4906 44.6431C51.492 44.6503 51.4941 44.6573 51.4958 44.6645C51.5021 44.6932 51.5088 44.7219 51.5174 44.7505C51.5198 44.7586 51.5232 44.7664 51.5258 44.7746C51.5345 44.8012 51.5432 44.8279 51.554 44.8542C51.5827 44.9245 51.6188 44.9923 51.6615 45.0563L57.7701 54.2187L57.7711 54.2199C57.7957 54.2564 57.8225 54.2912 57.8509 54.3246C57.8603 54.3356 57.8702 54.3459 57.8798 54.3563C57.8992 54.3775 57.9194 54.398 57.9403 54.4177C57.9527 54.4293 57.9649 54.4406 57.9774 54.4514C57.9997 54.4705 58.0228 54.4884 58.0464 54.5058C58.0571 54.5136 58.0673 54.5221 58.0782 54.5295C58.1126 54.5528 58.1481 54.5744 58.185 54.5939C58.1943 54.5988 58.2039 54.6029 58.2132 54.6075C58.2425 54.6222 58.2725 54.6358 58.3032 54.6478C58.3151 54.6526 58.327 54.6568 58.3391 54.6611C58.3682 54.6715 58.3979 54.6807 58.4281 54.6887C58.4405 54.692 58.4527 54.6953 58.4652 54.6984C58.4962 54.7056 58.5277 54.711 58.5596 54.7156C58.5712 54.7173 58.5826 54.7196 58.5943 54.721C58.6337 54.7254 58.6737 54.7278 58.7143 54.7282C58.7175 54.7282 58.7207 54.7288 58.7241 54.7288L58.7262 54.7286H71.3248V62.748C71.3248 65.4852 69.098 67.7119 66.3612 67.7119H7.2559C4.51903 67.7119 2.29228 65.4852 2.29228 62.748C2.29228 62.742 2.29151 62.7362 2.29136 62.7303V56.5L0.00157422 57.6782L0.000458181 62.748C0.000458181 62.7599 0.00183272 62.7715 0.0022909 62.7833C0.0213818 66.7673 3.26759 70.0028 7.2559 70.0028H66.3612C70.3609 70.0028 73.6151 66.749 73.6157 62.7492V54.7286H74.7605C76.655 54.7286 78.1963 53.1873 78.1963 51.2929V32.9644C78.1958 31.07 76.6545 29.5287 74.7601 29.5287ZM14.1883 3.08311L34.4 8.85817L34.4029 8.85894L47.9492 12.7293H11.7774L14.1883 3.08311ZM71.3242 20.8083C70.0256 19.5874 68.2796 18.837 66.3607 18.837C66.3607 18.837 66.3569 18.8373 66.3548 18.8373H7.25529C4.51827 18.8373 2.29151 16.6106 2.29151 13.8736C2.29151 11.1366 4.51827 8.90979 7.25529 8.90979H10.3706L9.41607 12.7293H7.25559C6.623 12.7293 6.11014 13.2422 6.11014 13.8748C6.11014 14.5074 6.623 15.0202 7.25559 15.0202H10.3065L10.3114 15.0205L10.3149 15.0202H56.1239L56.1282 15.0205L56.1318 15.0202H64.8321C65.4647 15.0202 65.9775 14.5074 65.9775 13.8748C65.9775 13.2422 65.4647 12.7293 64.8321 12.7293H56.2881L42.9201 8.90979H66.3606C69.0974 8.90979 71.3242 11.1366 71.3242 13.8736V20.8083ZM75.9049 51.2923C75.9049 51.9235 75.3913 52.4371 74.7601 52.4371H59.3356L53.9903 44.4199L59.3356 36.4014H74.7601C74.7761 36.4014 74.7917 36.3996 74.8076 36.3989C75.1918 36.3936 75.5608 36.3252 75.9049 36.2033V51.2923ZM74.7601 34.1093C74.7522 34.1093 74.7444 34.1103 74.7364 34.1105H73.6152V31.8196H74.7601C75.3913 31.8196 75.9049 32.3332 75.9049 32.9644C75.9049 33.5956 75.3913 34.1093 74.7601 34.1093Z" fill="#C5A26D"/>
<path d="M73.6152 29.5287H73.3652V29.7787H73.6152V29.5287ZM34.9022 6.61889L34.8335 6.85927L34.8672 6.86889H34.9022V6.61889ZM13.6788 0.555024L13.7475 0.314632L13.7451 0.313973L13.6788 0.555024ZM13.6603 0.550748L13.7266 0.309692L13.7251 0.309287L13.6603 0.550748ZM13.6419 0.545097L13.5812 0.787637L13.5826 0.787977L13.6419 0.545097ZM13.6037 0.537614L13.6567 0.293286L13.6549 0.292916L13.6037 0.537614ZM13.5446 0.526006L13.5847 0.279254L13.5847 0.279239L13.5446 0.526006ZM13.4913 0.519134L13.521 0.270904L13.5205 0.270846L13.4913 0.519134ZM13.4293 0.51333L13.4441 0.263765L13.4429 0.263701L13.4293 0.51333ZM13.379 0.511955L13.3836 0.261995L13.3826 0.261981L13.379 0.511955ZM13.3152 0.512413L13.3249 0.762227L13.326 0.762181L13.3152 0.512413ZM13.2681 0.515773L13.2486 0.266535L13.2472 0.266649L13.2681 0.515773ZM13.2029 0.522799L13.239 0.770183L13.2398 0.770072L13.2029 0.522799ZM13.1592 0.530283L13.2031 0.77641L13.2033 0.776373L13.1592 0.530283ZM13.0931 0.543875L13.0337 0.301042L13.0331 0.30118L13.0931 0.543875ZM13.0528 0.554871L12.9845 0.314386L12.9837 0.314615L13.0528 0.554871ZM12.9865 0.57549L12.9045 0.33931L12.9022 0.34012L12.9865 0.57549ZM12.9496 0.589541L13.0396 0.822759L13.0414 0.822054L12.9496 0.589541ZM12.8839 0.617031L12.7792 0.389992L12.7782 0.390485L12.8839 0.617031ZM12.85 0.633831L12.7382 0.410224L12.7375 0.410542L12.85 0.633831ZM12.7864 0.668042L12.9115 0.884558L12.9144 0.882832L12.7864 0.668042ZM12.7545 0.687744L12.8873 0.899566L12.8876 0.899403L12.7545 0.687744ZM12.6943 0.727911L12.8399 0.931144L12.8413 0.930164L12.6943 0.727911ZM12.6641 0.750973L12.8169 0.948829L12.817 0.948794L12.6641 0.750973ZM12.6088 0.796027L12.7738 0.983819L12.774 0.983674L12.6088 0.796027ZM12.5793 0.823365L12.4084 0.64098L12.4076 0.641704L12.5793 0.823365ZM12.53 0.871932L12.3484 0.700179L12.348 0.700509L12.53 0.871932ZM12.5011 0.904463L12.313 0.739837L12.3127 0.740205L12.5011 0.904463ZM12.4587 0.955474L12.261 0.802465L12.2607 0.802816L12.4587 0.955474ZM12.4304 0.994114L12.2273 0.848352L12.2268 0.849152L12.4304 0.994114ZM12.3955 1.04574L12.6067 1.1794L12.6074 1.1784L12.3955 1.04574ZM12.3686 1.09171L12.586 1.21511L12.5863 1.21458L12.3686 1.09171ZM12.3406 1.14333L12.5642 1.25513L12.5646 1.25435L12.3406 1.14333ZM12.3167 1.19556L12.0881 1.09421L12.088 1.0944L12.3167 1.19556ZM12.2948 1.24779L12.0611 1.15913L12.0609 1.15959L12.2948 1.24779ZM12.2754 1.30476L12.0377 1.2274L12.0374 1.22835L12.2754 1.30476ZM12.2586 1.35974L12.0176 1.29345L12.0172 1.29496L12.2586 1.35974ZM12.253 1.37822L12.4955 1.43884L12.4958 1.43746L12.253 1.37822ZM10.9432 6.61859V6.86859H11.1384L11.1857 6.67921L10.9432 6.61859ZM0.00122184 13.8491L0.251208 13.8538L0.25122 13.85L0.00122184 13.8491ZM0 13.8733H-0.25V13.8733L0 13.8733ZM1 57.1645L0.885618 56.9422H0.885618L1 57.1645ZM2.29136 56.5H2.54136V56.5L2.29136 56.5ZM2.2909 19.1565L2.46216 18.9744L2.0409 18.5783L2.0409 19.1565L2.2909 19.1565ZM66.3607 21.1282V21.3784L66.3702 21.3781L66.3607 21.1282ZM66.3647 21.1281L66.3649 20.8779L66.3552 20.8783L66.3647 21.1281ZM71.3243 34.1106V34.3606H71.5743V34.1106H71.3243ZM58.7225 34.1106V33.8606H58.7134L58.7043 33.8613L58.7225 34.1106ZM58.7204 34.1108V34.3608H58.7296L58.7387 34.3601L58.7204 34.1108ZM58.6214 34.1157L58.6433 34.3647L58.6435 34.3647L58.6214 34.1157ZM58.5135 34.1306L58.5557 34.3771L58.559 34.3765L58.5135 34.1306ZM58.4976 34.1331L58.5464 34.3783L58.5466 34.3782L58.4976 34.1331ZM58.4092 34.1552L58.3411 33.9147L58.3405 33.9149L58.4092 34.1552ZM58.3899 34.1603L58.463 34.3994L58.4655 34.3986L58.3899 34.1603ZM58.3135 34.1873L58.4025 34.4209L58.4027 34.4209L58.3135 34.1873ZM58.2845 34.198L58.1892 33.9669L58.1891 33.9669L58.2845 34.198ZM58.2228 34.2269L58.3305 34.4525L58.3326 34.4515L58.2228 34.2269ZM58.1827 34.2461L58.0668 34.0246L58.0658 34.0251L58.1827 34.2461ZM58.1365 34.2733L58.2643 34.4882L58.2652 34.4877L58.1365 34.2733ZM58.0858 34.3041L58.2232 34.513L58.2245 34.5122L58.0858 34.3041ZM58.0538 34.3277L58.1997 34.5307L58.201 34.5297L58.0538 34.3277ZM57.9959 34.371L57.8364 34.1785L57.8362 34.1787L57.9959 34.371ZM57.9725 34.3921L58.1366 34.5807L58.1379 34.5796L57.9725 34.3921ZM57.9136 34.4457L58.0903 34.6225L57.9136 34.4457ZM57.8818 34.4807L58.0654 34.6503L58.0669 34.6487L57.8818 34.4807ZM57.8377 34.5296L57.6445 34.3709L57.6443 34.371L57.8377 34.5296ZM57.7711 34.6194L57.9734 34.7665L57.9788 34.7585L57.7711 34.6194ZM57.7698 34.6211L57.5675 34.4739L57.5618 34.4824L57.7698 34.6211ZM51.6611 43.7848L51.869 43.9236L51.8691 43.9235L51.6611 43.7848ZM51.5539 43.9867L51.7849 44.0821L51.7855 44.0807L51.5539 43.9867ZM51.5256 44.0663L51.288 43.9885L51.2876 43.9899L51.5256 44.0663ZM51.5172 44.0903L51.7565 44.1627L51.7565 44.1625L51.5172 44.0903ZM51.4958 44.1755L51.7397 44.2303L51.74 44.2293L51.4958 44.1755ZM51.4905 44.1978L51.2455 44.1478L51.2452 44.1496L51.4905 44.1978ZM51.4789 44.2751L51.7269 44.3061L51.727 44.3059L51.4789 44.2751ZM51.4743 44.3082L51.723 44.3333L51.7231 44.3321L51.4743 44.3082ZM51.4709 44.3717L51.7207 44.3835L51.7208 44.3807L51.4709 44.3717ZM51.4708 44.4677L51.7206 44.4589L51.7206 44.458L51.4708 44.4677ZM51.4743 44.5329L51.2255 44.5574L51.2256 44.5581L51.4743 44.5329ZM51.4787 44.5645L51.7267 44.5328L51.7266 44.5322L51.4787 44.5645ZM51.4906 44.6431L51.7362 44.5961L51.7358 44.5944L51.4906 44.6431ZM51.4958 44.6645L51.7401 44.6112L51.7392 44.6076L51.4958 44.6645ZM51.5174 44.7505L51.2779 44.8222L51.278 44.8228L51.5174 44.7505ZM51.5258 44.7746L51.2873 44.8497L51.2882 44.8525L51.5258 44.7746ZM51.554 44.8542L51.7854 44.7596L51.7851 44.7588L51.554 44.8542ZM51.6615 45.0563L51.8695 44.9176L51.8694 44.9174L51.6615 45.0563ZM57.7701 54.2187L57.5618 54.3576L57.5701 54.3687L57.7701 54.2187ZM57.7711 54.2199L57.9787 54.08L57.9711 54.0699L57.7711 54.2199ZM57.8509 54.3246L58.0417 54.163L58.0415 54.1628L57.8509 54.3246ZM57.8798 54.3563L58.0644 54.1876L58.0632 54.1864L57.8798 54.3563ZM57.9403 54.4177L57.7689 54.5997L57.7692 54.6L57.9403 54.4177ZM57.9774 54.4514L57.8137 54.6404L57.8148 54.6413L57.9774 54.4514ZM58.0464 54.5058L57.8983 54.7072L57.8992 54.7078L58.0464 54.5058ZM58.0782 54.5295L58.2188 54.3227L58.2182 54.3223L58.0782 54.5295ZM58.185 54.5939L58.0677 54.8147L58.0688 54.8153L58.185 54.5939ZM58.2132 54.6075L58.325 54.3839L58.3235 54.3832L58.2132 54.6075ZM58.3032 54.6478L58.3955 54.4155L58.3946 54.4151L58.3032 54.6478ZM58.3391 54.6611L58.4229 54.4256L58.4226 54.4255L58.3391 54.6611ZM58.4281 54.6887L58.3634 54.9303L58.3654 54.9307L58.4281 54.6887ZM58.4652 54.6984L58.406 54.9413L58.4088 54.9419L58.4652 54.6984ZM58.5596 54.7156L58.5954 54.4682L58.5951 54.4682L58.5596 54.7156ZM58.5943 54.721L58.5649 54.9692L58.5663 54.9694L58.5943 54.721ZM58.7143 54.7282L58.7124 54.9782H58.7143V54.7282ZM58.7241 54.7288V54.9788H58.733L58.7419 54.9781L58.7241 54.7288ZM58.7262 54.7286V54.4786H58.7173L58.7084 54.4792L58.7262 54.7286ZM71.3248 54.7286H71.5748V54.4786H71.3248V54.7286ZM2.29136 62.7303H2.04128L2.04144 62.7367L2.29136 62.7303ZM0.000458181 62.748L-0.249542 62.7479V62.748H0.000458181ZM0.0022909 62.7833L0.252434 62.7821L0.252101 62.7735L0.0022909 62.7833ZM73.6157 62.7492L73.8657 62.7493V62.7492H73.6157ZM73.6157 54.7286V54.4786H73.3657V54.7286H73.6157ZM78.1963 32.9644H78.4463V32.9644L78.1963 32.9644ZM14.1883 3.08311L14.257 2.84273L14.0085 2.77172L13.9458 3.02249L14.1883 3.08311ZM34.4 8.85817L34.3313 9.09861L34.3364 9.09994L34.4 8.85817ZM34.4029 8.85894L34.4716 8.6185L34.4666 8.61717L34.4029 8.85894ZM47.9492 12.7293V12.9793L48.0179 12.489L47.9492 12.7293ZM11.7774 12.7293L11.5348 12.6687L11.4572 12.9793H11.7774V12.7293ZM71.3242 20.8083L71.153 20.9904L71.5742 21.3865V20.8083H71.3242ZM66.3607 18.837V18.587H66.3508L66.3408 18.5878L66.3607 18.837ZM10.3706 8.90979L10.6132 8.97041L10.6908 8.65979H10.3706V8.90979ZM9.41607 12.7293V12.9793H9.61128L9.65861 12.79L9.41607 12.7293ZM10.3065 15.0202L10.322 14.7707L10.3143 14.7702H10.3065V15.0202ZM10.3114 15.0205L10.2958 15.2701L10.3144 15.2712L10.333 15.2696L10.3114 15.0205ZM10.3149 15.0202V14.7702H10.304L10.2932 14.7712L10.3149 15.0202ZM56.1239 15.0202L56.1417 14.7709L56.1328 14.7702H56.1239V15.0202ZM56.1282 15.0205L56.1104 15.2699L56.1297 15.2713L56.1489 15.2697L56.1282 15.0205ZM56.1318 15.0202V14.7702H56.1215L56.1111 14.7711L56.1318 15.0202ZM56.2881 12.7293L56.2194 12.9697L56.2531 12.9793H56.2881V12.7293ZM42.9201 8.90979V8.65979L42.8514 9.15017L42.9201 8.90979ZM59.3356 52.4371L59.1276 52.5758L59.2018 52.6871H59.3356V52.4371ZM53.9903 44.4199L53.7823 44.2812L53.6898 44.4199L53.7823 44.5585L53.9903 44.4199ZM59.3356 36.4014V36.1514H59.2018L59.1276 36.2627L59.3356 36.4014ZM74.8076 36.3989L74.8041 36.1489L74.798 36.1491L74.8076 36.3989ZM75.9049 36.2033H76.1549V35.8495L75.8215 35.9677L75.9049 36.2033ZM74.7364 34.1105V34.3605L74.7412 34.3604L74.7364 34.1105ZM73.6152 34.1105H73.3652V34.3605H73.6152V34.1105ZM73.6152 31.8196V31.5696H73.3652V31.8196H73.6152ZM74.7601 29.2787H73.6152V29.7787H74.7601V29.2787ZM73.8652 29.5287V26.0917H73.3652V29.5287H73.8652ZM73.8652 26.0917V13.8736H73.3652V26.0917H73.8652ZM73.8652 13.8736C73.8652 9.73528 70.4989 6.36889 66.3607 6.36889V6.86889C70.2227 6.86889 73.3652 10.0114 73.3652 13.8736H73.8652ZM66.3607 6.36889H34.9022V6.86889H66.3607V6.36889ZM34.9709 6.37851L13.7475 0.314644L13.6101 0.795405L34.8335 6.85927L34.9709 6.37851ZM13.7451 0.313973C13.7388 0.312225 13.7333 0.310926 13.7293 0.310035C13.7256 0.309191 13.7222 0.308476 13.7209 0.308217C13.7191 0.307827 13.7194 0.307893 13.7201 0.308039C13.7209 0.308234 13.7233 0.308789 13.7266 0.309696L13.5941 0.791799C13.6004 0.793547 13.6059 0.794846 13.6098 0.795738C13.6136 0.796581 13.617 0.797296 13.6182 0.797555C13.6201 0.797945 13.6198 0.797879 13.6191 0.797733C13.6182 0.797538 13.6158 0.796984 13.6125 0.796076L13.7451 0.313973ZM13.7251 0.309287C13.7285 0.310195 13.7309 0.310943 13.7315 0.311148C13.7318 0.31123 13.7322 0.311365 13.7297 0.310545C13.728 0.309977 13.7241 0.308697 13.7196 0.307322C13.715 0.305897 13.7086 0.30405 13.7011 0.302217L13.5826 0.787977C13.5782 0.786908 13.575 0.785939 13.5734 0.785454C13.572 0.78502 13.5712 0.784741 13.5725 0.785186C13.5731 0.785377 13.5765 0.786534 13.5799 0.787594C13.5836 0.788777 13.589 0.790461 13.5956 0.792208L13.7251 0.309287ZM13.7025 0.302561C13.687 0.298692 13.6733 0.296253 13.6663 0.295017C13.6618 0.29421 13.6605 0.293989 13.6582 0.293568C13.6565 0.293257 13.6562 0.293189 13.6567 0.293293L13.5507 0.781934C13.5575 0.783412 13.5636 0.784566 13.5682 0.785415C13.5723 0.786154 13.5773 0.787031 13.5791 0.78735C13.5848 0.788366 13.5839 0.788295 13.5812 0.787633L13.7025 0.302561ZM13.6549 0.292916C13.6381 0.289396 13.6114 0.2836 13.5847 0.279254L13.5044 0.772758C13.5171 0.774827 13.5299 0.777584 13.5525 0.782311L13.6549 0.292916ZM13.5847 0.279239C13.56 0.27523 13.5339 0.272452 13.521 0.270904L13.4616 0.767363C13.4844 0.770091 13.4935 0.770979 13.5045 0.772774L13.5847 0.279239ZM13.5205 0.270846C13.4978 0.268177 13.4717 0.265406 13.4441 0.263768L13.4145 0.762892C13.4281 0.763697 13.4432 0.765203 13.4621 0.767421L13.5205 0.270846ZM13.4429 0.263701C13.4202 0.262466 13.3972 0.262245 13.3836 0.261997L13.3745 0.761914C13.3944 0.762277 13.4047 0.762361 13.4157 0.762959L13.4429 0.263701ZM13.3826 0.261981C13.3607 0.261668 13.3333 0.261397 13.3044 0.262646L13.326 0.762181C13.3395 0.761597 13.3546 0.761631 13.3755 0.76193L13.3826 0.261981ZM13.3055 0.262602C13.2832 0.263468 13.258 0.265802 13.2486 0.266539L13.2877 0.765008C13.3095 0.763301 13.3157 0.762581 13.3249 0.762225L13.3055 0.262602ZM13.2472 0.266649C13.2251 0.268507 13.1963 0.271033 13.1661 0.275526L13.2398 0.770072C13.2527 0.76815 13.2675 0.766705 13.289 0.764898L13.2472 0.266649ZM13.1669 0.275416C13.147 0.278316 13.1263 0.282207 13.1152 0.284192L13.2033 0.776373C13.2212 0.773166 13.2296 0.771558 13.239 0.770182L13.1669 0.275416ZM13.1154 0.284155C13.0909 0.288526 13.063 0.293874 13.0337 0.301043L13.1526 0.786707C13.1669 0.783186 13.183 0.779981 13.2031 0.77641L13.1154 0.284155ZM13.0331 0.30118C13.0144 0.305799 12.9965 0.310969 12.9845 0.314388L13.1211 0.795355C13.136 0.791137 13.1446 0.788671 13.1531 0.78657L13.0331 0.30118ZM12.9837 0.314615C12.9602 0.32138 12.933 0.32943 12.9045 0.339321L13.0685 0.811658C13.084 0.806277 13.1008 0.801192 13.1219 0.795128L12.9837 0.314615ZM12.9022 0.34012C12.886 0.345925 12.8708 0.351833 12.8577 0.357028L13.0414 0.822054C13.053 0.817474 13.0623 0.813912 13.0708 0.810859L12.9022 0.34012ZM12.8595 0.356329C12.8344 0.366036 12.8071 0.377128 12.7792 0.389994L12.9885 0.844068C13.0037 0.83708 13.0205 0.830151 13.0396 0.822752L12.8595 0.356329ZM12.7782 0.390485C12.7626 0.397726 12.7446 0.407005 12.7382 0.410225L12.9618 0.857438C12.9779 0.849356 12.9822 0.847028 12.9896 0.843577L12.7782 0.390485ZM12.7375 0.410542C12.7149 0.421956 12.6872 0.436181 12.6585 0.453252L12.9144 0.882832C12.9272 0.875162 12.942 0.867394 12.9624 0.85712L12.7375 0.410542ZM12.6614 0.451547C12.6452 0.460896 12.6284 0.471707 12.6215 0.476085L12.8876 0.899403C12.902 0.890341 12.906 0.887713 12.9115 0.884538L12.6614 0.451547ZM12.6217 0.475922C12.5991 0.490122 12.5735 0.50667 12.5474 0.525659L12.8413 0.930164C12.8543 0.920745 12.869 0.911024 12.8873 0.899566L12.6217 0.475922ZM12.5488 0.524683C12.5336 0.535529 12.5168 0.548833 12.5112 0.553152L12.817 0.948794C12.8315 0.937535 12.8346 0.934955 12.8399 0.931139L12.5488 0.524683ZM12.5113 0.553116C12.491 0.568804 12.4674 0.58741 12.4436 0.608381L12.774 0.983674C12.7859 0.973183 12.7997 0.962159 12.8169 0.948829L12.5113 0.553116ZM12.4438 0.608236C12.4297 0.620635 12.4142 0.635489 12.4084 0.640981L12.7503 1.00575C12.764 0.992915 12.7678 0.989136 12.7738 0.983818L12.4438 0.608236ZM12.4076 0.641704C12.3908 0.657554 12.3696 0.67774 12.3484 0.70018L12.7117 1.04369C12.7222 1.03253 12.7343 1.02094 12.7511 1.00503L12.4076 0.641704ZM12.348 0.700509C12.3339 0.715493 12.3191 0.732829 12.313 0.739837L12.6893 1.06909C12.7024 1.0541 12.7062 1.04945 12.712 1.04336L12.348 0.700509ZM12.3127 0.740205C12.2974 0.757692 12.2792 0.778944 12.261 0.802466L12.6564 1.10848C12.6654 1.09688 12.6758 1.08453 12.6896 1.06872L12.3127 0.740205ZM12.2607 0.802816C12.2476 0.819859 12.235 0.837637 12.2273 0.848353L12.6335 1.13988C12.6445 1.12463 12.6503 1.11644 12.6567 1.10813L12.2607 0.802816ZM12.2268 0.849152C12.214 0.867051 12.1986 0.889034 12.1836 0.91307L12.6074 1.1784C12.6143 1.16731 12.6227 1.15508 12.6341 1.13908L12.2268 0.849152ZM12.1842 0.912075C12.1706 0.933518 12.1585 0.955287 12.1509 0.968834L12.5863 1.21458C12.5961 1.19728 12.6014 1.18789 12.6067 1.1794L12.1842 0.912075ZM12.1512 0.968305C12.1417 0.985057 12.1288 1.00772 12.1166 1.0323L12.5646 1.25435C12.5699 1.24381 12.5763 1.23226 12.586 1.21511L12.1512 0.968305ZM12.117 1.03152C12.1052 1.05512 12.0947 1.07928 12.0881 1.09421L12.5452 1.29691C12.5541 1.27671 12.5589 1.26575 12.5642 1.25513L12.117 1.03152ZM12.088 1.0944C12.0801 1.11228 12.0703 1.13472 12.0611 1.15913L12.5286 1.33646C12.5327 1.32544 12.5379 1.31336 12.5453 1.29672L12.088 1.0944ZM12.0609 1.15959C12.0514 1.18485 12.0432 1.21032 12.0377 1.2274L12.5132 1.38212C12.5201 1.36071 12.5242 1.348 12.5287 1.33599L12.0609 1.15959ZM12.0374 1.22835C12.0374 1.22815 12.0373 1.2286 12.0367 1.23025C12.036 1.23234 12.0354 1.23383 12.034 1.23788C12.0317 1.24426 12.0272 1.25665 12.023 1.27104L12.5028 1.41149C12.5023 1.41335 12.5021 1.41368 12.5041 1.40803C12.5048 1.40606 12.5065 1.40155 12.5079 1.39759C12.5094 1.3932 12.5114 1.38756 12.5135 1.38117L12.0374 1.22835ZM12.023 1.27104C12.0208 1.27857 12.0192 1.2851 12.018 1.28999C12.017 1.29466 12.0161 1.29872 12.0158 1.30036C12.0153 1.3028 12.0154 1.30213 12.0156 1.30145C12.0158 1.30037 12.0165 1.29743 12.0176 1.29345L12.4997 1.42603C12.5016 1.419 12.503 1.413 12.5039 1.40887C12.5047 1.40513 12.5055 1.40139 12.5056 1.40076C12.5059 1.39932 12.5057 1.4003 12.5054 1.40187C12.5049 1.40366 12.5041 1.40708 12.5028 1.41149L12.023 1.27104ZM12.0172 1.29496C12.0181 1.29157 12.0188 1.2892 12.019 1.28855C12.0191 1.28829 12.0192 1.28788 12.0184 1.29036C12.0179 1.29207 12.0166 1.29594 12.0152 1.30044C12.0138 1.3051 12.0119 1.31146 12.0101 1.31898L12.4958 1.43746C12.4948 1.44185 12.4938 1.44512 12.4933 1.44671C12.4929 1.44813 12.4926 1.44894 12.4931 1.4476C12.4932 1.44703 12.4944 1.44356 12.4955 1.44023C12.4966 1.43651 12.4983 1.43104 12.5001 1.42452L12.0172 1.29496ZM12.0104 1.3176L10.7006 6.55796L11.1857 6.67921L12.4955 1.43884L12.0104 1.3176ZM10.9432 6.36859H7.25529V6.86859H10.9432V6.36859ZM7.25529 6.36859C3.12533 6.36859 -0.235189 9.72141 -0.248777 13.8483L0.25122 13.85C0.263902 9.9984 3.40099 6.86859 7.25529 6.86859V6.36859ZM-0.248735 13.8445C-0.248689 13.842 -0.248588 13.8403 -0.248579 13.8402C-0.248574 13.8401 -0.248582 13.8402 -0.248622 13.8408C-0.248671 13.8415 -0.248707 13.842 -0.248805 13.8434C-0.249068 13.847 -0.25 13.8592 -0.25 13.8733H0.25C0.25 13.8767 0.249888 13.8791 0.24984 13.8801C0.249801 13.8808 0.249777 13.881 0.249912 13.8792C0.249997 13.878 0.250282 13.8741 0.250512 13.8703C0.250764 13.8661 0.251056 13.8604 0.251179 13.8538L-0.248735 13.8445ZM-0.25 13.8733L-0.248426 57.6782L0.251574 57.6782L0.25 13.8733L-0.25 13.8733ZM0.115956 57.9005L1.11438 57.3868L0.885618 56.9422L-0.112808 57.4559L0.115956 57.9005ZM1.11438 57.3868L2.40574 56.7223L2.17698 56.2777L0.885618 56.9422L1.11438 57.3868ZM2.54136 56.5L2.5409 19.1565L2.0409 19.1565L2.04136 56.5L2.54136 56.5ZM2.11965 19.3387C3.46268 20.6015 5.26947 21.3782 7.25529 21.3782V20.8782C5.40247 20.8782 3.71671 20.154 2.46216 18.9744L2.11965 19.3387ZM7.25529 21.3782H66.3607V20.8782H7.25529V21.3782ZM66.3702 21.3781L66.3742 21.3779L66.3552 20.8783L66.3512 20.8784L66.3702 21.3781ZM66.3645 21.3781C68.9615 21.3801 71.0743 23.4941 71.0743 26.0919H71.5743C71.5743 23.2181 69.2379 20.8803 66.3649 20.8781L66.3645 21.3781ZM71.0743 26.0919V34.1106H71.5743V26.0919H71.0743ZM71.3243 33.8606H58.7225V34.3606H71.3243V33.8606ZM58.7043 33.8613L58.7022 33.8615L58.7387 34.3601L58.7408 34.36L58.7043 33.8613ZM58.7204 33.8608C58.6775 33.8608 58.6367 33.8634 58.5994 33.8666L58.6435 34.3647C58.6719 34.3622 58.697 34.3608 58.7204 34.3608V33.8608ZM58.5996 33.8666C58.554 33.8706 58.51 33.877 58.4679 33.8848L58.559 34.3765C58.5878 34.3711 58.6159 34.3671 58.6433 34.3647L58.5996 33.8666ZM58.4712 33.8842C58.4722 33.8841 58.4729 33.884 58.4734 33.8839C58.4739 33.8838 58.4742 33.8838 58.4742 33.8838C58.4742 33.8838 58.4741 33.8838 58.474 33.8838C58.4739 33.8838 58.4737 33.8838 58.4735 33.8839C58.4734 33.8839 58.472 33.8841 58.4714 33.8842C58.4682 33.8846 58.4592 33.8858 58.4486 33.8879L58.5466 34.3782C58.5413 34.3793 58.5376 34.3798 58.5397 34.3795C58.5398 34.3795 58.5427 34.3791 58.5448 34.3788C58.5474 34.3784 58.5512 34.3778 58.5557 34.3771L58.4712 33.8842ZM58.4488 33.8879C58.4086 33.8959 58.3713 33.9061 58.3411 33.9147L58.4772 34.3958C58.5054 34.3878 58.5267 34.3822 58.5464 34.3783L58.4488 33.8879ZM58.3405 33.9149C58.3415 33.9145 58.3424 33.9143 58.3429 33.9142C58.3432 33.9141 58.3434 33.9141 58.3436 33.914C58.3437 33.914 58.3438 33.914 58.3438 33.914C58.3438 33.914 58.3437 33.914 58.3436 33.914C58.3434 33.914 58.3433 33.9141 58.343 33.9142C58.3427 33.9142 58.3424 33.9143 58.342 33.9144C58.3416 33.9145 58.3411 33.9146 58.3405 33.9147C58.3371 33.9156 58.3265 33.9181 58.3144 33.922L58.4655 34.3986C58.4622 34.3996 58.4597 34.4003 58.4586 34.4006C58.4576 34.4009 58.4572 34.401 58.4584 34.4007C58.4589 34.4005 58.4622 34.3997 58.4649 34.3991C58.468 34.3983 58.4726 34.3971 58.4778 34.3956L58.3405 33.9149ZM58.3168 33.9212C58.2818 33.9319 58.2495 33.9442 58.2244 33.9538L58.4027 34.4209C58.428 34.4112 58.4461 34.4045 58.463 34.3993L58.3168 33.9212ZM58.2245 33.9537C58.2233 33.9542 58.2226 33.9544 58.2155 33.9569C58.2101 33.9588 58.2002 33.9624 58.1892 33.9669L58.3799 34.4291C58.3785 34.4297 58.3783 34.4297 58.3826 34.4282C58.3837 34.4278 58.3878 34.4263 58.3904 34.4254C58.3936 34.4242 58.3979 34.4227 58.4025 34.4209L58.2245 33.9537ZM58.1891 33.9669C58.1588 33.9794 58.1293 33.9943 58.1131 34.0023L58.3326 34.4515C58.3569 34.4396 58.3681 34.434 58.38 34.4291L58.1891 33.9669ZM58.1151 34.0012C58.1117 34.0029 58.0849 34.0151 58.0668 34.0246L58.2986 34.4676C58.3066 34.4634 58.307 34.4637 58.3305 34.4525L58.1151 34.0012ZM58.0658 34.0251C58.042 34.0377 58.0144 34.055 58.0079 34.0589L58.2652 34.4877C58.2892 34.4732 58.2916 34.4713 58.2995 34.4671L58.0658 34.0251ZM58.0088 34.0584C57.9979 34.0649 57.9708 34.0804 57.9472 34.0961L58.2245 34.5122C58.2339 34.5059 58.2413 34.5019 58.2643 34.4882L58.0088 34.0584ZM57.9485 34.0953C57.936 34.1034 57.9256 34.1113 57.9191 34.1162C57.9105 34.1226 57.9097 34.1233 57.9065 34.1256L58.201 34.5297C58.2055 34.5264 58.2096 34.5234 58.2127 34.521C58.2142 34.5199 58.2157 34.5187 58.2169 34.5178C58.2182 34.5168 58.2192 34.516 58.2202 34.5153C58.2243 34.5122 58.2245 34.5122 58.2232 34.513L57.9485 34.0953ZM57.9078 34.1247C57.8913 34.1365 57.8633 34.1563 57.8364 34.1785L58.1553 34.5636C58.1658 34.5549 58.1771 34.5469 58.1997 34.5307L57.9078 34.1247ZM57.8362 34.1787C57.8266 34.1866 57.8186 34.194 57.8142 34.1981C57.8112 34.2009 57.8107 34.2013 57.8088 34.2031C57.8082 34.2036 57.8078 34.204 57.8075 34.2043C57.8072 34.2046 57.8071 34.2047 57.8071 34.2047L58.1379 34.5796C58.1418 34.5762 58.1452 34.573 58.1478 34.5707C58.1497 34.5689 58.1531 34.5657 58.1539 34.565C58.1573 34.5619 58.157 34.5622 58.1556 34.5634L57.8362 34.1787ZM57.8084 34.2035C57.7902 34.2193 57.7631 34.2426 57.7368 34.2689L58.0903 34.6225C58.1019 34.6109 58.1148 34.5997 58.1366 34.5807L57.8084 34.2035ZM57.7368 34.2689C57.7259 34.2799 57.7166 34.2901 57.7104 34.2972C57.7023 34.3063 57.7008 34.3081 57.6967 34.3127L58.0669 34.6487C58.0708 34.6444 58.0744 34.6404 58.0772 34.6372C58.0805 34.6334 58.0822 34.6315 58.0845 34.6289C58.0865 34.6266 58.0879 34.6251 58.0889 34.624C58.0899 34.6229 58.0903 34.6225 58.0903 34.6225L57.7368 34.2689ZM57.6982 34.3111C57.6889 34.321 57.6647 34.3463 57.6445 34.3709L58.0308 34.6883C58.0387 34.6786 58.045 34.6724 58.0654 34.6503L57.6982 34.3111ZM57.6443 34.371C57.6154 34.4063 57.5885 34.4428 57.5634 34.4802L57.9788 34.7585C57.9952 34.734 58.0126 34.7105 58.031 34.6881L57.6443 34.371ZM57.5689 34.4723L57.5677 34.474L57.972 34.7681L57.9732 34.7664L57.5689 34.4723ZM57.5618 34.4824L51.4531 43.6461L51.8691 43.9235L57.9779 34.7597L57.5618 34.4824ZM51.4531 43.646C51.4014 43.7235 51.3573 43.8062 51.3222 43.8927L51.7855 44.0807C51.8075 44.0265 51.8355 43.9738 51.869 43.9236L51.4531 43.646ZM51.3228 43.8913C51.3077 43.9278 51.2961 43.9637 51.288 43.9885L51.7632 44.1441C51.7725 44.1157 51.7783 44.0982 51.7849 44.0821L51.3228 43.8913ZM51.2876 43.9899C51.2881 43.9882 51.2884 43.9873 51.2883 43.9876C51.2881 43.9883 51.2879 43.9888 51.2869 43.9915C51.2855 43.9953 51.2816 44.0058 51.2779 44.018L51.7565 44.1625C51.7558 44.165 51.7552 44.1666 51.7551 44.1669C51.755 44.1671 51.7551 44.1669 51.7558 44.165C51.7563 44.1638 51.7576 44.1603 51.7588 44.157C51.7601 44.1534 51.7618 44.1484 51.7637 44.1426L51.2876 43.9899ZM51.2779 44.0178C51.2664 44.056 51.2581 44.0926 51.2517 44.1217L51.74 44.2293C51.7461 44.2015 51.7509 44.1811 51.7565 44.1627L51.2779 44.0178ZM51.2519 44.1207C51.252 44.1204 51.2521 44.12 51.2507 44.1254C51.2497 44.1294 51.2475 44.1379 51.2455 44.1478L51.7354 44.2478C51.7349 44.2502 51.7346 44.2513 51.7355 44.2478C51.7358 44.2468 51.7365 44.2438 51.7371 44.2413C51.7379 44.2384 51.7388 44.2346 51.7397 44.2303L51.2519 44.1207ZM51.2452 44.1496C51.2382 44.1848 51.234 44.2185 51.2308 44.2442L51.727 44.3059C51.7302 44.28 51.7326 44.2621 51.7358 44.246L51.2452 44.1496ZM51.2308 44.2441C51.2308 44.244 51.2308 44.2442 51.2307 44.2446C51.2307 44.245 51.2306 44.2456 51.2305 44.2464C51.2301 44.2488 51.2299 44.2499 51.2293 44.254C51.2284 44.2601 51.2267 44.2714 51.2254 44.2843L51.7231 44.3321C51.723 44.3339 51.7229 44.3341 51.7236 44.3292C51.7238 44.3278 51.7245 44.3233 51.725 44.3202C51.7255 44.3164 51.7263 44.3116 51.7269 44.3061L51.2308 44.2441ZM51.2255 44.2832C51.2224 44.3146 51.2217 44.3466 51.2211 44.3628L51.7208 44.3807C51.7217 44.3544 51.7219 44.3442 51.723 44.3333L51.2255 44.2832ZM51.2212 44.36C51.221 44.3633 51.2188 44.3966 51.2188 44.4205H51.7188C51.7188 44.4116 51.7193 44.4126 51.7206 44.3835L51.2212 44.36ZM51.2188 44.4205C51.2188 44.4352 51.2194 44.4484 51.2199 44.4574C51.2205 44.4685 51.2207 44.4719 51.221 44.4774L51.7206 44.458C51.7193 44.4243 51.7188 44.4315 51.7188 44.4205H51.2188ZM51.2209 44.4765C51.2216 44.495 51.2224 44.526 51.2255 44.5574L51.7231 44.5083C51.7219 44.4963 51.7215 44.4837 51.7206 44.4589L51.2209 44.4765ZM51.2256 44.5581C51.2268 44.5699 51.2283 44.5803 51.2292 44.5862C51.2304 44.5939 51.2306 44.595 51.2308 44.5968L51.7266 44.5322C51.726 44.5273 51.7253 44.5229 51.7248 44.5194C51.7244 44.5169 51.7237 44.5122 51.7235 44.5111C51.7228 44.5065 51.7229 44.5064 51.723 44.5076L51.2256 44.5581ZM51.2307 44.5962C51.2339 44.6211 51.2383 44.6559 51.2454 44.6919L51.7358 44.5944C51.7326 44.5781 51.7302 44.5604 51.7267 44.5328L51.2307 44.5962ZM51.2451 44.6902C51.2473 44.7019 51.2499 44.7117 51.251 44.7163C51.2514 44.7175 51.2517 44.7187 51.2519 44.7195C51.2521 44.7204 51.2523 44.721 51.2524 44.7215C51.2526 44.7224 51.2526 44.7222 51.2524 44.7215L51.7392 44.6076C51.7382 44.6032 51.7373 44.5995 51.7366 44.5969C51.7363 44.5956 51.736 44.5943 51.7357 44.5935C51.7355 44.5925 51.7353 44.5919 51.7352 44.5914C51.7345 44.5889 51.7353 44.5916 51.7362 44.5961L51.2451 44.6902ZM51.2516 44.7178C51.2583 44.7485 51.2666 44.7845 51.2779 44.8222L51.7568 44.6788C51.751 44.6594 51.7459 44.638 51.7401 44.6113L51.2516 44.7178ZM51.278 44.8228C51.2817 44.835 51.2857 44.8456 51.2869 44.849C51.2879 44.8515 51.288 44.852 51.2882 44.8525C51.2883 44.8527 51.2879 44.8516 51.2873 44.8497L51.7642 44.6996C51.7623 44.6936 51.7605 44.6884 51.7592 44.6846C51.7579 44.681 51.7566 44.6775 51.7561 44.676C51.7553 44.674 51.7552 44.6737 51.7553 44.6739C51.7554 44.6742 51.7559 44.6758 51.7567 44.6783L51.278 44.8228ZM51.2882 44.8525C51.2963 44.8772 51.3079 44.9131 51.3229 44.9496L51.7851 44.7588C51.7785 44.7428 51.7726 44.7252 51.7633 44.6968L51.2882 44.8525ZM51.3226 44.9488C51.3577 45.0347 51.4016 45.1173 51.4537 45.1952L51.8694 44.9174C51.8359 44.8672 51.8078 44.8143 51.7854 44.7596L51.3226 44.9488ZM51.4535 45.1949L57.5621 54.3573L57.9782 54.08L51.8695 44.9176L51.4535 45.1949ZM57.5701 54.3687L57.5711 54.3699L57.9711 54.0699L57.9701 54.0687L57.5701 54.3687ZM57.5637 54.3596C57.5943 54.4049 57.627 54.4471 57.6604 54.4865L58.0415 54.1628C58.0181 54.1353 57.997 54.1078 57.9784 54.0802L57.5637 54.3596ZM57.6602 54.4863C57.6743 54.5029 57.692 54.5214 57.6964 54.5262L58.0632 54.1864C58.0483 54.1703 58.0462 54.1684 58.0417 54.163L57.6602 54.4863ZM57.6952 54.5249C57.7189 54.5507 57.7434 54.5757 57.7689 54.5997L58.1117 54.2356C58.0953 54.2202 58.0796 54.2042 58.0644 54.1876L57.6952 54.5249ZM57.7692 54.6C57.7821 54.6121 57.7973 54.6262 57.8137 54.6404L58.141 54.2624C58.1324 54.255 58.1232 54.2464 58.1113 54.2353L57.7692 54.6ZM57.8148 54.6413C57.8432 54.6656 57.8714 54.6874 57.8983 54.7072L58.1945 54.3044C58.1741 54.2893 58.1562 54.2754 58.14 54.2615L57.8148 54.6413ZM57.8992 54.7078C57.9012 54.7093 57.9025 54.7103 57.9101 54.7161C57.9159 54.7206 57.9262 54.7284 57.9382 54.7366L58.2182 54.3223C58.2194 54.3231 58.2191 54.323 58.2144 54.3194C58.2133 54.3186 58.2123 54.3178 58.2108 54.3167C58.2095 54.3156 58.2079 54.3144 58.2062 54.3131C58.2028 54.3105 58.1985 54.3073 58.1936 54.3037L57.8992 54.7078ZM57.9376 54.7362C57.9793 54.7645 58.0227 54.7908 58.0677 54.8147L58.3022 54.3731C58.2736 54.3579 58.2458 54.3411 58.2188 54.3227L57.9376 54.7362ZM58.0688 54.8153C58.0788 54.8205 58.0878 54.8248 58.0931 54.8272C58.0999 54.8304 58.1011 54.831 58.1029 54.8318L58.3235 54.3832C58.3193 54.3811 58.3155 54.3793 58.3125 54.3779C58.3102 54.3768 58.3061 54.3749 58.305 54.3744C58.3009 54.3724 58.3004 54.3722 58.3011 54.3725L58.0688 54.8153ZM58.1014 54.8311C58.1363 54.8485 58.173 54.8653 58.2117 54.8805L58.3946 54.4151C58.3719 54.4062 58.3488 54.3958 58.325 54.3839L58.1014 54.8311ZM58.2108 54.8801C58.2275 54.8868 58.2434 54.8924 58.2555 54.8967L58.4226 54.4255C58.4106 54.4212 58.4026 54.4183 58.3955 54.4155L58.2108 54.8801ZM58.2552 54.8966C58.291 54.9094 58.3271 54.9205 58.3634 54.9302L58.4927 54.4473C58.4687 54.4408 58.4454 54.4336 58.4229 54.4256L58.2552 54.8966ZM58.3654 54.9307C58.3726 54.9326 58.3914 54.9377 58.406 54.9413L58.5244 54.4555C58.5139 54.4529 58.5083 54.4513 58.4908 54.4467L58.3654 54.9307ZM58.4088 54.9419C58.4486 54.9511 58.4873 54.9578 58.5241 54.9631L58.5951 54.4682C58.568 54.4643 58.5438 54.46 58.5216 54.4548L58.4088 54.9419ZM58.5238 54.9631C58.5263 54.9634 58.5282 54.9638 58.5361 54.9651C58.5425 54.9661 58.553 54.9678 58.5649 54.9692L58.6237 54.4727C58.6239 54.4727 58.6229 54.4726 58.6177 54.4718C58.6141 54.4712 58.6045 54.4695 58.5954 54.4682L58.5238 54.9631ZM58.5663 54.9694C58.6143 54.9748 58.663 54.9778 58.7124 54.9781L58.7162 54.4782C58.6844 54.4779 58.6531 54.476 58.6222 54.4725L58.5663 54.9694ZM58.7143 54.9782C58.7073 54.9782 58.7019 54.9778 58.699 54.9776C58.6964 54.9774 58.6943 54.9772 58.6957 54.9774C58.6962 54.9774 58.6999 54.9778 58.7042 54.9781C58.7089 54.9784 58.7158 54.9788 58.7241 54.9788V54.4788C58.7307 54.4788 58.7359 54.4791 58.7389 54.4793C58.7416 54.4795 58.7437 54.4797 58.7425 54.4796C58.7424 54.4795 58.7386 54.4792 58.7345 54.4789C58.7299 54.4786 58.7229 54.4782 58.7143 54.4782V54.9782ZM58.7419 54.9781L58.744 54.978L58.7084 54.4792L58.7063 54.4794L58.7419 54.9781ZM58.7262 54.9786H71.3248V54.4786H58.7262V54.9786ZM71.0748 54.7286V62.748H71.5748V54.7286H71.0748ZM71.0748 62.748C71.0748 65.3471 68.96 67.4619 66.3612 67.4619V67.9619C69.2361 67.9619 71.5748 65.6232 71.5748 62.748H71.0748ZM66.3612 67.4619H7.2559V67.9619H66.3612V67.4619ZM7.2559 67.4619C4.65712 67.4619 2.54228 65.3471 2.54228 62.748H2.04228C2.04228 65.6232 4.38095 67.9619 7.2559 67.9619V67.4619ZM2.54228 62.748C2.54228 62.7352 2.54146 62.7244 2.54124 62.7213C2.54113 62.7197 2.54116 62.7202 2.54109 62.7192C2.54106 62.7188 2.54106 62.7188 2.54107 62.719C2.54109 62.7193 2.54121 62.7212 2.54128 62.7239L2.04144 62.7367C2.04159 62.7424 2.04186 62.7472 2.04206 62.7505C2.04224 62.7533 2.04248 62.7566 2.04251 62.7569C2.04259 62.7581 2.04253 62.7574 2.04247 62.7561C2.0424 62.7546 2.04228 62.7518 2.04228 62.748H2.54228ZM2.54136 62.7303V56.5H2.04136V62.7303H2.54136ZM2.17698 56.2777L-0.112808 57.4559L0.115956 57.9005L2.40574 56.7223L2.17698 56.2777ZM-0.248426 57.6781L-0.249542 62.7479L0.250458 62.748L0.251574 57.6782L-0.248426 57.6781ZM-0.249542 62.748C-0.249542 62.7629 -0.248683 62.7759 -0.248214 62.7827C-0.247866 62.7878 -0.247846 62.7879 -0.247646 62.7909C-0.247526 62.7928 -0.247511 62.7932 -0.24752 62.793L0.252101 62.7735C0.251864 62.7674 0.251535 62.762 0.251268 62.758C0.251134 62.756 0.251001 62.7541 0.250894 62.7525C0.250777 62.7509 0.250699 62.7498 0.25062 62.7486C0.250287 62.7438 0.250458 62.745 0.250458 62.748H-0.249542ZM-0.247706 62.7845C-0.227957 66.906 3.12986 70.2528 7.2559 70.2528V69.7528C3.40532 69.7528 0.27072 66.6286 0.252288 62.7821L-0.247706 62.7845ZM7.2559 70.2528H66.3612V69.7528H7.2559V70.2528ZM66.3612 70.2528C70.499 70.2528 73.8651 66.8871 73.8657 62.7493L73.3657 62.7492C73.3651 66.6109 70.2229 69.7528 66.3612 69.7528V70.2528ZM73.8657 62.7492V54.7286H73.3657V62.7492H73.8657ZM73.6157 54.9786H74.7605V54.4786H73.6157V54.9786ZM74.7605 54.9786C76.793 54.9786 78.4463 53.3254 78.4463 51.2929H77.9463C77.9463 53.0492 76.5169 54.4786 74.7605 54.4786V54.9786ZM78.4463 51.2929V32.9644H77.9463V51.2929H78.4463ZM78.4463 32.9644C78.4458 30.9319 76.7926 29.2787 74.7601 29.2787V29.7787C76.5164 29.7787 77.9459 31.2081 77.9463 32.9645L78.4463 32.9644ZM14.1196 3.32349L34.3314 9.09855L34.4687 8.61779L14.257 2.84273L14.1196 3.32349ZM34.3364 9.09994L34.3393 9.1007L34.4666 8.61717L34.4637 8.6164L34.3364 9.09994ZM34.3343 9.09932L47.8805 12.9697L48.0179 12.489L34.4716 8.61855L34.3343 9.09932ZM47.9492 12.4793H11.7774V12.9793H47.9492V12.4793ZM12.0199 12.79L14.4309 3.14373L13.9458 3.02249L11.5348 12.6687L12.0199 12.79ZM71.4954 20.6261C70.1526 19.3637 68.3461 18.587 66.3607 18.587V19.087C68.2131 19.087 69.8986 19.8111 71.153 20.9904L71.4954 20.6261ZM66.3607 18.837C66.3408 18.5878 66.3408 18.5878 66.3408 18.5878C66.3408 18.5878 66.3408 18.5878 66.3408 18.5878C66.3409 18.5878 66.3409 18.5878 66.3409 18.5878C66.3409 18.5878 66.3409 18.5878 66.3409 18.5878C66.3409 18.5878 66.341 18.5878 66.341 18.5878C66.341 18.5878 66.3411 18.5878 66.3411 18.5878C66.3412 18.5878 66.3413 18.5878 66.3414 18.5878C66.3416 18.5878 66.3417 18.5878 66.3419 18.5877C66.3421 18.5877 66.3425 18.5877 66.343 18.5877C66.3434 18.5877 66.3444 18.5876 66.3458 18.5875C66.3467 18.5875 66.3501 18.5873 66.3548 18.5873V19.0873C66.3643 19.0873 66.3726 19.0868 66.3741 19.0867C66.3758 19.0866 66.3773 19.0865 66.3783 19.0864C66.3789 19.0864 66.3793 19.0863 66.3797 19.0863C66.3799 19.0863 66.3801 19.0863 66.3802 19.0863C66.3803 19.0863 66.3804 19.0863 66.3804 19.0863C66.3805 19.0863 66.3805 19.0863 66.3805 19.0863C66.3806 19.0863 66.3806 19.0862 66.3806 19.0862C66.3806 19.0862 66.3806 19.0862 66.3806 19.0862C66.3806 19.0862 66.3806 19.0862 66.3806 19.0862C66.3806 19.0862 66.3806 19.0862 66.3607 18.837ZM66.3548 18.5873H7.25529V19.0873H66.3548V18.5873ZM7.25529 18.5873C4.65634 18.5873 2.54151 16.4725 2.54151 13.8736H2.04151C2.04151 16.7487 4.3802 19.0873 7.25529 19.0873V18.5873ZM2.54151 13.8736C2.54151 11.2746 4.65634 9.15979 7.25529 9.15979V8.65979C4.3802 8.65979 2.04151 10.9985 2.04151 13.8736H2.54151ZM7.25529 9.15979H10.3706V8.65979H7.25529V9.15979ZM10.1281 8.84918L9.17353 12.6687L9.65861 12.79L10.6132 8.97041L10.1281 8.84918ZM9.41607 12.4793H7.25559V12.9793H9.41607V12.4793ZM7.25559 12.4793C6.48493 12.4793 5.86014 13.1041 5.86014 13.8748H6.36014C6.36014 13.3803 6.76107 12.9793 7.25559 12.9793V12.4793ZM5.86014 13.8748C5.86014 14.6455 6.48493 15.2702 7.25559 15.2702V14.7702C6.76107 14.7702 6.36014 14.3693 6.36014 13.8748H5.86014ZM7.25559 15.2702H10.3065V14.7702H7.25559V15.2702ZM10.2909 15.2698L10.2958 15.2701L10.3269 14.771L10.322 14.7707L10.2909 15.2698ZM10.333 15.2696L10.3365 15.2693L10.2932 14.7712L10.2897 14.7715L10.333 15.2696ZM10.3149 15.2702H56.1239V14.7702H10.3149V15.2702ZM56.1061 15.2696L56.1104 15.2699L56.146 14.7712L56.1417 14.7709L56.1061 15.2696ZM56.1489 15.2697L56.1526 15.2694L56.1111 14.7711L56.1074 14.7714L56.1489 15.2697ZM56.1318 15.2702H64.8321V14.7702H56.1318V15.2702ZM64.8321 15.2702C65.6028 15.2702 66.2275 14.6455 66.2275 13.8748H65.7275C65.7275 14.3693 65.3266 14.7702 64.8321 14.7702V15.2702ZM66.2275 13.8748C66.2275 13.1041 65.6028 12.4793 64.8321 12.4793V12.9793C65.3266 12.9793 65.7275 13.3803 65.7275 13.8748H66.2275ZM64.8321 12.4793H56.2881V12.9793H64.8321V12.4793ZM56.3568 12.489L42.9887 8.66941L42.8514 9.15017L56.2194 12.9697L56.3568 12.489ZM42.9201 9.15979H66.3606V8.65979H42.9201V9.15979ZM66.3606 9.15979C68.9594 9.15979 71.0742 11.2746 71.0742 13.8736H71.5742C71.5742 10.9985 69.2355 8.65979 66.3606 8.65979V9.15979ZM71.0742 13.8736V20.8083H71.5742V13.8736H71.0742ZM75.6549 51.2923C75.6549 51.7854 75.2532 52.1871 74.7601 52.1871V52.6871C75.5294 52.6871 76.1549 52.0615 76.1549 51.2923H75.6549ZM74.7601 52.1871H59.3356V52.6871H74.7601V52.1871ZM59.5436 52.2984L54.1983 44.2812L53.7823 44.5585L59.1276 52.5758L59.5436 52.2984ZM54.1983 44.5585L59.5436 36.5401L59.1276 36.2627L53.7823 44.2812L54.1983 44.5585ZM59.3356 36.6514H74.7601V36.1514H59.3356V36.6514ZM74.7601 36.6514C74.777 36.6514 74.7919 36.6504 74.8008 36.6498C74.812 36.6491 74.814 36.6489 74.8172 36.6488L74.798 36.1491C74.7909 36.1494 74.7845 36.1498 74.7794 36.1501C74.7755 36.1504 74.7689 36.1508 74.767 36.151C74.7601 36.1514 74.7592 36.1514 74.7601 36.1514V36.6514ZM74.8111 36.6489C75.2229 36.6432 75.6189 36.5698 75.9884 36.439L75.8215 35.9677C75.5027 36.0805 75.1608 36.144 74.8041 36.149L74.8111 36.6489ZM75.6549 36.2033V51.2923H76.1549V36.2033H75.6549ZM74.7601 33.8593C74.7459 33.8593 74.7337 33.8602 74.7301 33.8605C74.7287 33.8606 74.7282 33.8606 74.7275 33.8607C74.7269 33.8607 74.7268 33.8607 74.7269 33.8607C74.7271 33.8607 74.7289 33.8606 74.7316 33.8605L74.7412 34.3604C74.7479 34.3603 74.7537 34.36 74.7578 34.3598C74.7615 34.3595 74.7654 34.3592 74.7664 34.3592C74.7683 34.359 74.768 34.3591 74.7672 34.3591C74.7662 34.3591 74.7636 34.3593 74.7601 34.3593V33.8593ZM74.7364 33.8605H73.6152V34.3605H74.7364V33.8605ZM73.8652 34.1105V31.8196H73.3652V34.1105H73.8652ZM73.6152 32.0696H74.7601V31.5696H73.6152V32.0696ZM74.7601 32.0696C75.2532 32.0696 75.6549 32.4713 75.6549 32.9644H76.1549C76.1549 32.1951 75.5294 31.5696 74.7601 31.5696V32.0696ZM75.6549 32.9644C75.6549 33.4576 75.2532 33.8593 74.7601 33.8593V34.3593C75.5294 34.3593 76.1549 33.7337 76.1549 32.9644H75.6549Z" fill="#F2F2F2" mask="url(#path-1-inside-1)"/>
</svg>
