<svg width="11" height="14" viewBox="0 0 11 14" fill="none" xmlns="http://www.w3.org/2000/svg">
<path d="M5.71929 13.9075L10.9084 8.54927C11.0305 8.42311 11.0305 8.22078 10.9084 8.09462C10.7862 7.96846 10.5902 7.96846 10.4681 8.09462L5.50029 13.2243L0.532509 8.09462C0.410332 7.96846 0.214387 7.96846 0.09221 8.09462C0.0322739 8.15651 6.46905e-07 8.23982 6.45006e-07 8.32075C6.43107e-07 8.40169 0.0299687 8.485 0.09221 8.54689L5.28129 13.9051C5.40116 14.0312 5.59941 14.0312 5.71929 13.9075Z" fill="#99958E"/>
<path d="M5.28071 0.0925391L0.091633 5.45073C-0.0305444 5.57689 -0.0305444 5.77922 0.091633 5.90538C0.21381 6.03154 0.409755 6.03154 0.531933 5.90538L5.49971 0.775702L10.4675 5.90538C10.5897 6.03154 10.7856 6.03154 10.9078 5.90538C10.9677 5.84349 11 5.76018 11 5.67925C11 5.59831 10.97 5.515 10.9078 5.45311L5.71871 0.0949189C5.59884 -0.0312402 5.40059 -0.0312396 5.28071 0.0925391Z" fill="#99958E"/>
</svg>
