<svg width="39" height="39" viewBox="0 0 39 39" fill="none" xmlns="http://www.w3.org/2000/svg">
<g clip-path="url(#clip0)">
<path d="M35.2043 16.5386V16.4969V10.1985C35.2043 7.36212 33.2021 6.31934 31.3251 6.31934H7.54973C5.67273 6.31934 3.67059 7.32041 3.67059 10.1985V16.4969V16.5386C1.79358 16.7471 0 17.9985 0 20.8766V25.7985C0 26.6327 0.66738 27.3001 1.5016 27.3001H2.00214V31.1792C2.00214 32.0134 2.66952 32.6808 3.50374 32.6808H4.92193C5.75615 32.6808 6.42353 32.0134 6.42353 31.1792V27.2584H32.5765V31.1792C32.5765 32.0134 33.2438 32.6808 34.0781 32.6808H35.4963C36.3305 32.6808 36.9979 32.0134 36.9979 31.1792V27.2584H37.4984C38.3326 27.2584 39 26.591 39 25.7568V20.8766C38.8749 17.9985 37.0813 16.7471 35.2043 16.5386ZM5.08877 10.1985H5.17219C5.17219 8.23805 6.46524 7.82094 7.54973 7.82094H31.3251C32.4096 7.82094 33.7027 8.23805 33.7027 10.1985V16.4969H32.5765V12.9097C32.5765 12.0755 31.9091 11.4081 31.0749 11.4081H21.8984C21.0642 11.4081 20.3968 12.0755 20.3968 12.9097V16.4969H18.6449V12.9097C18.6449 12.0755 17.9775 11.4081 17.1433 11.4081H7.96685C7.13262 11.4081 6.46524 12.0755 6.46524 12.9097V16.4969H5.08877V10.1985ZM31.0749 12.9097V16.4969H21.8984V12.9097H31.0749ZM17.2267 12.9097V16.4969H8.05027V12.9097H17.2267ZM4.88021 31.1792H3.46203V27.2584H4.88021V31.1792ZM35.4128 31.1792H33.9947V27.2584H35.4128V31.1792ZM37.3733 25.7985H35.4128H33.9947H4.88021H3.46203H1.45989V23.5878H37.3733V25.7985ZM37.3733 22.0862H1.45989V20.8766C1.45989 18.3739 3.29519 17.9985 4.33797 17.9985H5.13048H8.00856H17.185H21.8984H31.0749H33.7027H34.4952C35.5797 17.9985 37.3733 18.3739 37.3733 20.8766V22.0862Z" fill="#C5A26D"/>
</g>
<defs>
<clipPath id="clip0">
<rect width="39" height="39" fill="white"/>
</clipPath>
</defs>
</svg>
