<svg width="32" height="32" viewBox="0 0 32 32" fill="none" xmlns="http://www.w3.org/2000/svg">
<g clip-path="url(#clip0)">
<path d="M22.3238 6.71146C20.6739 5.04105 18.4732 4.10453 16.1272 4.07401C13.7476 4.043 11.4978 4.95121 9.79105 6.6309C8.08524 8.30961 7.14188 10.5435 7.1348 12.9212C7.12724 15.4947 8.23539 17.9419 10.1751 19.6355C11.5794 20.8616 12.3848 22.6053 12.3848 24.4187V28.896C12.3848 30.6077 13.7774 32.0003 15.4891 32.0003H16.5308C18.2422 32.0003 19.6348 30.6077 19.6348 28.896V24.4761C19.6348 22.6109 20.4248 20.8599 21.8025 19.6719C23.7613 17.9832 24.8848 15.5323 24.8848 12.9483C24.8848 10.5982 23.9754 8.38309 22.3238 6.71146ZM16.002 17.4473H15.5874C15.3609 17.4473 15.1766 17.263 15.1766 17.0362C15.1766 16.8096 15.3609 16.6253 15.5874 16.6253C15.816 16.6253 16.002 16.8113 16.002 17.0398V17.4473ZM16.0098 21.1619C16.3545 21.1619 16.6348 21.4422 16.6348 21.7869V23.9119H15.3848V21.7869C15.3848 21.4422 15.6651 21.1619 16.0098 21.1619ZM18.3848 25.1619V26.0811H13.6348V25.1619H18.3848ZM13.6348 27.3311H18.3848V28.2503H13.6348V27.3311ZM16.5306 30.7503H15.4891C14.678 30.7503 13.9876 30.2268 13.7364 29.5003H18.2832C18.032 30.2268 17.3416 30.7503 16.5306 30.7503ZM20.9864 18.7254C19.4734 20.0298 18.5508 21.8958 18.4051 23.9119H17.8848V21.7869C17.8848 21.2288 17.6394 20.7273 17.2515 20.3836C17.2515 20.3809 17.252 20.3782 17.252 20.3753V18.3211C17.761 17.9558 18.0931 17.3592 18.0931 16.6863V15.7183C18.0931 14.3868 17.0098 13.3033 15.678 13.3033H14.5516C14.2063 13.3033 13.9266 13.583 13.9266 13.9283C13.9266 14.2735 14.2063 14.5533 14.5516 14.5533H15.678C16.3206 14.5533 16.8431 15.076 16.8431 15.7183V15.9483C16.5376 15.5974 16.0882 15.3753 15.5874 15.3753C14.6717 15.3753 13.9266 16.1204 13.9266 17.0364C13.9266 17.9522 14.6717 18.6973 15.5874 18.6973H16.002V19.9121C14.9717 19.9163 14.1348 20.7557 14.1348 21.7869V23.9119H13.6175C13.4805 21.9224 12.5428 20.0432 10.9974 18.6939C9.33036 17.2388 8.37821 15.136 8.3848 12.9251C8.39091 10.8836 9.2017 8.96464 10.668 7.52176C12.135 6.07792 14.0664 5.29716 16.1109 5.32401C20.2596 5.37772 23.6348 8.79813 23.6348 12.9483C23.6348 15.1685 22.6695 17.274 20.9864 18.7254Z" fill="#C5A26D"/>
<path d="M16.136 7.11429H16.1263C15.7818 7.11087 15.5013 7.38699 15.4971 7.73196C15.4932 8.07718 15.7727 8.36038 16.118 8.36429H16.1275H16.1351C16.4766 8.36429 16.7527 8.08939 16.7566 7.74661C16.7608 7.4014 16.4812 7.11844 16.136 7.11429Z" fill="#C5A26D"/>
<path d="M18.8863 7.84665C18.5846 7.67868 18.204 7.78708 18.036 8.08884C17.8683 8.39035 17.9764 8.77096 18.2782 8.93893C19.7325 9.74875 20.6358 11.2846 20.6358 12.9475C20.6358 13.2927 20.9156 13.5725 21.2608 13.5725C21.6061 13.5725 21.8858 13.2927 21.8858 12.9475C21.8858 10.8315 20.7364 8.87717 18.8863 7.84665Z" fill="#C5A26D"/>
<path d="M16.0107 2.9375C16.356 2.9375 16.6357 2.65771 16.6357 2.3125V0.625C16.6357 0.279785 16.356 0 16.0107 0C15.6655 0 15.3857 0.279785 15.3857 0.625V2.3125C15.3857 2.65771 15.6655 2.9375 16.0107 2.9375Z" fill="#C5A26D"/>
<path d="M28.334 12.3232H26.6465C26.3013 12.3232 26.0215 12.603 26.0215 12.9482C26.0215 13.2935 26.3013 13.5732 26.6465 13.5732H28.334C28.6792 13.5732 28.959 13.2935 28.959 12.9482C28.959 12.603 28.6792 12.3232 28.334 12.3232Z" fill="#C5A26D"/>
<path d="M5.375 12.3232H3.6875C3.34229 12.3232 3.0625 12.603 3.0625 12.9482C3.0625 13.2935 3.34229 13.5732 3.6875 13.5732H5.375C5.72021 13.5732 6 13.2935 6 12.9482C6 12.603 5.72021 12.3232 5.375 12.3232Z" fill="#C5A26D"/>
<path d="M23.9732 20.0269C23.7291 19.7827 23.3333 19.7827 23.0892 20.0269C22.8453 20.2708 22.8453 20.6665 23.0892 20.9106L24.2825 22.104C24.4046 22.2258 24.5645 22.2871 24.7244 22.2871C24.8843 22.2871 25.0443 22.2258 25.1663 22.104C25.4105 21.8599 25.4105 21.4641 25.1663 21.22L23.9732 20.0269Z" fill="#C5A26D"/>
<path d="M8.04825 5.86945C8.17032 5.99152 8.33023 6.05255 8.49014 6.05255C8.65005 6.05255 8.81021 5.99152 8.93204 5.86945C9.17618 5.62555 9.17618 5.2298 8.93204 4.98566L7.73892 3.7923C7.49478 3.5484 7.09903 3.5484 6.85489 3.7923C6.61075 4.03644 6.61099 4.43219 6.85489 4.67633L8.04825 5.86945Z" fill="#C5A26D"/>
<path d="M24.2815 3.7926L23.0884 4.98572C22.8442 5.22986 22.8442 5.62561 23.0884 5.86975C23.2104 5.99182 23.3704 6.05286 23.5303 6.05286C23.6902 6.05286 23.8501 5.99182 23.9722 5.86975L25.1653 4.67639C25.4094 4.43225 25.4094 4.0365 25.1653 3.79236C24.9214 3.54822 24.5256 3.54846 24.2815 3.7926Z" fill="#C5A26D"/>
<path d="M8.0481 20.0269L6.85498 21.22C6.61084 21.4641 6.61084 21.8599 6.85498 22.104C6.97705 22.2258 7.13696 22.2871 7.29688 22.2871C7.45679 22.2871 7.6167 22.2258 7.73877 22.104L8.93188 20.9106C9.17603 20.6665 9.17603 20.2708 8.93188 20.0269C8.68799 19.7827 8.29224 19.7827 8.0481 20.0269Z" fill="#C5A26D"/>
</g>
<defs>
<clipPath id="clip0">
<rect width="32" height="32" fill="white"/>
</clipPath>
</defs>
</svg>
