<svg width="32" height="32" viewBox="0 0 32 32" fill="none" xmlns="http://www.w3.org/2000/svg">
<g clip-path="url(#clip0)">
<path d="M22.3238 6.71146C20.6739 5.04105 18.4732 4.10453 16.1272 4.07401C13.7476 4.043 11.4978 4.95121 9.79105 6.6309C8.08524 8.30961 7.14188 10.5435 7.1348 12.9212C7.12724 15.4947 8.23539 17.9419 10.1751 19.6355C11.5794 20.8616 12.3848 22.6053 12.3848 24.4187V28.896C12.3848 30.6077 13.7774 32.0003 15.4891 32.0003H16.5308C18.2422 32.0003 19.6348 30.6077 19.6348 28.896V24.4761C19.6348 22.6109 20.4248 20.8599 21.8025 19.6719C23.7613 17.9832 24.8848 15.5323 24.8848 12.9483C24.8848 10.5982 23.9754 8.38309 22.3238 6.71146V6.71146ZM16.002 17.4473H15.5874C15.3609 17.4473 15.1766 17.263 15.1766 17.0362C15.1766 16.8096 15.3609 16.6253 15.5874 16.6253C15.816 16.6253 16.002 16.8113 16.002 17.0398V17.4473ZM16.0098 21.1619C16.3545 21.1619 16.6348 21.4422 16.6348 21.7869V23.9119H15.3848V21.7869C15.3848 21.4422 15.6651 21.1619 16.0098 21.1619ZM18.3848 25.1619V26.0811H13.6348V25.1619H18.3848ZM13.6348 27.3311H18.3848V28.2503H13.6348V27.3311ZM16.5306 30.7503H15.4891C14.678 30.7503 13.9876 30.2268 13.7364 29.5003H18.2832C18.032 30.2268 17.3416 30.7503 16.5306 30.7503ZM20.9864 18.7254C19.4734 20.0298 18.5508 21.8958 18.4051 23.9119H17.8848V21.7869C17.8848 21.2288 17.6394 20.7273 17.2515 20.3836C17.2515 20.3809 17.252 20.3782 17.252 20.3753V18.3211C17.761 17.9558 18.0931 17.3592 18.0931 16.6863V15.7183C18.0931 14.3868 17.0098 13.3033 15.678 13.3033H14.5516C14.2063 13.3033 13.9266 13.583 13.9266 13.9283C13.9266 14.2735 14.2063 14.5533 14.5516 14.5533H15.678C16.3206 14.5533 16.8431 15.076 16.8431 15.7183V15.9483C16.5376 15.5974 16.0882 15.3753 15.5874 15.3753C14.6717 15.3753 13.9266 16.1204 13.9266 17.0364C13.9266 17.9522 14.6717 18.6973 15.5874 18.6973H16.002V19.9121C14.9717 19.9163 14.1348 20.7557 14.1348 21.7869V23.9119H13.6175C13.4805 21.9224 12.5428 20.0432 10.9974 18.6939C9.33036 17.2388 8.37821 15.136 8.3848 12.9251C8.39091 10.8836 9.2017 8.96464 10.668 7.52176C12.135 6.07792 14.0664 5.29716 16.1109 5.32401C20.2596 5.37772 23.6348 8.79813 23.6348 12.9483C23.6348 15.1685 22.6695 17.274 20.9864 18.7254V18.7254Z" fill="#C5A26D"/>
<path d="M16.136 7.11429H16.1263C15.7818 7.11087 15.5013 7.38699 15.4971 7.73196C15.4932 8.07718 15.7727 8.36038 16.118 8.36429H16.1275H16.1351C16.4766 8.36429 16.7527 8.08939 16.7566 7.74661C16.7608 7.4014 16.4812 7.11844 16.136 7.11429Z" fill="#C5A26D"/>
<path d="M18.8863 7.84665C18.5846 7.67868 18.204 7.78708 18.036 8.08884C17.8683 8.39035 17.9764 8.77096 18.2782 8.93893C19.7325 9.74875 20.6358 11.2846 20.6358 12.9475C20.6358 13.2927 20.9156 13.5725 21.2608 13.5725C21.6061 13.5725 21.8858 13.2927 21.8858 12.9475C21.8858 10.8315 20.7364 8.87717 18.8863 7.84665V7.84665Z" fill="#C5A26D"/>
</g>
<defs>
<clipPath id="clip0">
<rect width="32" height="32" fill="white"/>
</clipPath>
</defs>
</svg>
