<svg width="37" height="50" viewBox="0 0 37 50" fill="none" xmlns="http://www.w3.org/2000/svg">
<path d="M18.1082 0C8.12327 0 0 8.12327 0 18.1081C0 30.4995 16.205 48.6909 16.895 49.4592C17.543 50.181 18.6745 50.1798 19.3214 49.4592C20.0113 48.6909 36.2163 30.4995 36.2163 18.1081C36.2161 8.12327 28.093 0 18.1082 0ZM18.1082 45.8721C12.6543 39.3938 3.26095 26.6126 3.26095 18.1083C3.26095 9.92132 9.92132 3.26095 18.1082 3.26095C26.295 3.26095 32.9554 9.92132 32.9554 18.1082C32.9553 26.6129 23.5634 39.3917 18.1082 45.8721Z" fill="#C5A26D"/>
<path d="M18.1081 8.99707C13.0845 8.99707 8.99756 13.0841 8.99756 18.1077C8.99756 23.1314 13.0846 27.2184 18.1081 27.2184C23.1317 27.2184 27.2186 23.1314 27.2186 18.1077C27.2186 13.0841 23.1317 8.99707 18.1081 8.99707ZM18.1081 23.9575C14.8825 23.9575 12.2585 21.3333 12.2585 18.1077C12.2585 14.8821 14.8826 12.258 18.1081 12.258C21.3336 12.258 23.9578 14.8821 23.9578 18.1077C23.9578 21.3333 21.3336 23.9575 18.1081 23.9575Z" fill="#C5A26D"/>
</svg>
