<svg width="22" height="38" viewBox="0 0 22 38" fill="none" xmlns="http://www.w3.org/2000/svg">
<path d="M13.9334 1.8999H7.60004C7.25047 1.8999 6.96674 2.18364 6.96674 2.53321C6.96674 2.88278 7.25047 3.16652 7.60004 3.16652H13.9334C14.2829 3.16652 14.5667 2.88278 14.5667 2.53321C14.5667 2.18364 14.2829 1.8999 13.9334 1.8999Z" fill="#C5A26D"/>
<path d="M11.5532 32.3003H9.98067C9.01738 32.3003 8.23334 33.0843 8.23334 34.0476V34.3536C8.23334 35.3168 9.01738 36.1003 9.98008 36.1003H11.5526C12.5159 36.1003 13.3 35.3168 13.3 34.3536V34.0476C13.3 33.0843 12.5159 32.3003 11.5532 32.3003ZM12.0333 34.3536C12.0333 34.6183 11.818 34.8336 11.5533 34.8336H9.98067C9.71534 34.8336 9.49995 34.6183 9.49995 34.3536V34.0476C9.49995 33.7823 9.71526 33.5669 9.98067 33.5669H11.5526C11.818 33.5669 12.0333 33.7822 12.0333 34.0476V34.3536Z" fill="#C5A26D"/>
<path d="M19.2445 0H2.2895C1.02726 0 0 1.02726 0 2.2895V35.7105C0 36.9727 1.02726 38 2.2895 38H19.2438C20.506 38 21.5333 36.9727 21.5333 35.7112V2.2895C21.5334 1.02726 20.5061 0 19.2445 0ZM20.2667 35.7105C20.2667 36.2742 19.8082 36.7333 19.2445 36.7333H2.2895C1.72522 36.7333 1.26669 36.2741 1.26669 35.7111V2.2895C1.26669 1.72581 1.72522 1.26669 2.2895 1.26669H19.2438C19.8081 1.26669 20.2666 1.72588 20.2666 2.2895V35.7105H20.2667Z" fill="#C5A26D"/>
<path d="M20.9 3.80029H0.633431C0.283861 3.80029 0.00012207 4.08403 0.00012207 4.4336V31.0336C0.00012207 31.3832 0.283861 31.6669 0.633431 31.6669H20.9001C21.2497 31.6669 21.5334 31.3832 21.5334 31.0336V4.4336C21.5334 4.08403 21.2497 3.80029 20.9 3.80029ZM20.2667 30.4003H1.26674V5.06698H20.2667V30.4003Z" fill="#C5A26D"/>
</svg>
