<svg width="15" height="21" viewBox="0 0 15 21" fill="none" xmlns="http://www.w3.org/2000/svg">
<path d="M7.37291 0C3.30747 0 0 3.30747 0 7.37287C0 12.4182 6.59804 19.825 6.87895 20.1378C7.14281 20.4317 7.60349 20.4312 7.86687 20.1378C8.14779 19.825 14.7458 12.4182 14.7458 7.37287C14.7457 3.30747 11.4383 0 7.37291 0ZM7.37291 18.6773C5.15234 16.0396 1.32773 10.8356 1.32773 7.37295C1.32773 4.03956 4.03956 1.32773 7.37291 1.32773C10.7063 1.32773 13.4181 4.03956 13.4181 7.37291C13.4181 10.8357 9.59405 16.0387 7.37291 18.6773Z" fill="#C5A26D"/>
<path d="M7.37279 3.66309C5.32736 3.66309 3.66333 5.32716 3.66333 7.37258C3.66333 9.41801 5.3274 11.0821 7.37279 11.0821C9.41818 11.0821 11.0822 9.41801 11.0822 7.37258C11.0822 5.32716 9.41818 3.66309 7.37279 3.66309ZM7.37279 9.75436C6.05946 9.75436 4.99106 8.68592 4.99106 7.37258C4.99106 6.05925 6.0595 4.99081 7.37279 4.99081C8.68608 4.99081 9.75452 6.05925 9.75452 7.37258C9.75452 8.68592 8.68608 9.75436 7.37279 9.75436Z" fill="#C5A26D"/>
</svg>
