<svg width="53" height="19" viewBox="0 0 53 19" fill="none" xmlns="http://www.w3.org/2000/svg">
<path d="M52.3026 2.14342C51.4817 2.50715 50.601 2.75383 49.6755 2.86396C50.6205 2.29812 51.3438 1.40062 51.6866 0.334467C50.8002 0.858469 49.8219 1.23896 48.7794 1.44523C47.9446 0.554687 46.7572 0 45.4402 0C42.9135 0 40.8648 2.04867 40.8648 4.57397C40.8648 4.93212 40.9053 5.28193 40.9833 5.61644C37.1814 5.42548 33.8102 3.60399 31.5539 0.836166C31.1595 1.51071 30.9351 2.2967 30.9351 3.13571C30.9351 4.72309 31.7434 6.12371 32.9699 6.94315C32.2201 6.91808 31.5149 6.71182 30.8975 6.36897V6.42611C30.8975 8.64201 32.4751 10.4914 34.567 10.9123C34.1837 11.0154 33.7796 11.0726 33.3615 11.0726C33.066 11.0726 32.7803 11.0433 32.5002 10.9875C33.0827 12.8063 34.7719 14.1288 36.7731 14.1651C35.2081 15.3915 33.2346 16.1204 31.0912 16.1204C30.7219 16.1204 30.3582 16.0981 30 16.0577C32.025 17.358 34.429 18.1161 37.0129 18.1161C45.4291 18.1161 50.0296 11.145 50.0296 5.09939L50.0142 4.5071C50.9131 3.86597 51.6908 3.06045 52.3026 2.14342Z" fill="#C5A26D"/>
<path d="M27.2536 0H12.806C11.8127 0 11 0.81268 11 1.80596V16.2536C11 17.2469 11.8127 18.0596 12.806 18.0596H27.2536C28.2469 18.0596 29.0596 17.2469 29.0596 16.2536V1.80596C29.0596 0.81268 28.2469 0 27.2536 0ZM20.0298 5.41787C22.0163 5.41787 23.6417 7.04323 23.6417 9.02978C23.6417 11.0163 22.0163 12.6417 20.0298 12.6417C18.0432 12.6417 16.4179 11.0163 16.4179 9.02978C16.4179 7.04323 18.0432 5.41787 20.0298 5.41787ZM13.2574 16.2536C12.9866 16.2536 12.806 16.073 12.806 15.8021V8.1268H14.7022C14.6119 8.3977 14.6119 8.75889 14.6119 9.02978C14.6119 12.0096 17.05 14.4477 20.0298 14.4477C23.0096 14.4477 25.4477 12.0096 25.4477 9.02978C25.4477 8.75889 25.4477 8.3977 25.3574 8.1268H27.2536V15.8021C27.2536 16.073 27.073 16.2536 26.8021 16.2536H13.2574ZM27.2536 4.0634C27.2536 4.3343 27.073 4.51489 26.8021 4.51489H24.9962C24.7253 4.51489 24.5447 4.3343 24.5447 4.0634V2.25745C24.5447 1.98655 24.7253 1.80596 24.9962 1.80596H26.8021C27.073 1.80596 27.2536 1.98655 27.2536 2.25745V4.0634Z" fill="#C5A26D"/>
<path d="M9.41389 0.00375759L7.06757 0C4.43156 0 2.72806 1.74446 2.72806 4.44448V6.49369H0.368936C0.16508 6.49369 0 6.65865 0 6.86212V9.83118C0 10.0347 0.165268 10.1994 0.368936 10.1994H2.72806V17.6913C2.72806 17.8948 2.89314 18.0596 3.09699 18.0596H6.17497C6.37883 18.0596 6.54391 17.8946 6.54391 17.6913V10.1994H9.30227C9.50613 10.1994 9.67121 10.0347 9.67121 9.83118L9.67234 6.86212C9.67234 6.76442 9.63337 6.67086 9.56429 6.60172C9.49521 6.53258 9.40109 6.49369 9.30321 6.49369H6.54391V4.75655C6.54391 3.92161 6.74325 3.49776 7.83293 3.49776L9.41352 3.49719C9.61719 3.49719 9.78227 3.33223 9.78227 3.12895V0.372002C9.78227 0.168904 9.61737 0.00413335 9.41389 0.00375759Z" fill="#C5A26D"/>
</svg>
