<svg width="23" height="20" viewBox="0 0 23 20" fill="none" xmlns="http://www.w3.org/2000/svg">
<path d="M23 3.13463C22.1791 3.49836 21.2984 3.74504 20.3729 3.85517C21.3178 3.28933 22.0412 2.39183 22.384 1.32568C21.4976 1.84968 20.5193 2.23017 19.4768 2.43644C18.642 1.5459 17.4546 0.991211 16.1376 0.991211C13.6109 0.991211 11.5622 3.03988 11.5622 5.56518C11.5622 5.92334 11.6026 6.27314 11.6807 6.60765C7.87883 6.41669 4.5076 4.5952 2.25128 1.82738C1.85687 2.50192 1.63249 3.28791 1.63249 4.12692C1.63249 5.7143 2.44082 7.11492 3.66725 7.93436C2.91745 7.90929 2.21225 7.70303 1.59489 7.36018V7.41732C1.59489 9.63323 3.17251 11.4826 5.26436 11.9035C4.8811 12.0066 4.47695 12.0638 4.05885 12.0638C3.76342 12.0638 3.47771 12.0345 3.19758 11.9788C3.78011 13.7975 5.46924 15.12 7.47054 15.1563C5.90545 16.3827 3.93203 17.1116 1.78861 17.1116C1.41931 17.1116 1.05554 17.0893 0.697388 17.0489C2.72237 18.3492 5.12643 19.1073 7.71025 19.1073C16.1265 19.1073 20.727 12.1363 20.727 6.09061L20.7116 5.49831C21.6105 4.85718 22.3882 4.05166 23 3.13463Z" fill="#C5A26D"/>
</svg>
