<svg width="61" height="63" viewBox="0 0 61 63" fill="none" xmlns="http://www.w3.org/2000/svg">
<path d="M27.603 23.6161H34.6877V16.5313C34.6877 15.8795 35.2167 15.3505 35.8685 15.3505C36.5203 15.3505 37.0493 15.8795 37.0493 16.5313V23.6161H44.1341C44.7859 23.6161 45.3149 24.1451 45.3149 24.7969C45.3149 25.4487 44.7859 25.9777 44.1341 25.9777H37.0493V33.0625C37.0493 33.7143 36.5203 34.2433 35.8685 34.2433C35.2167 34.2433 34.6877 33.7143 34.6877 33.0625V25.9777H27.603C26.9511 25.9777 26.4222 25.4487 26.4222 24.7969C26.4222 24.1451 26.9511 23.6161 27.603 23.6161Z" fill="white"/>
<path d="M1.10862 60.5431L18.6541 42.2962C14.1789 37.808 11.4064 31.6206 11.4064 24.7968C11.4064 11.1231 22.5295 0 36.2032 0C49.8768 0 60.9999 11.1231 60.9999 24.7968C60.9999 38.4704 49.8768 49.5936 36.2032 49.5936C30.2012 49.5936 24.6927 47.4481 20.3993 43.8879L2.81133 62.1797C2.5799 62.4218 2.27053 62.5422 1.95998 62.5422C1.66478 62.5422 1.37076 62.4324 1.14169 62.2128C0.67173 61.7605 0.657558 61.0131 1.10862 60.5431ZM58.6383 24.7968C58.6383 12.4256 48.5744 2.3616 36.2032 2.3616C23.8319 2.3616 13.768 12.4256 13.768 24.7968C13.768 37.168 23.8319 47.232 36.2032 47.232C48.5744 47.232 58.6383 37.168 58.6383 24.7968Z" fill="white"/>
</svg>
