<svg width="109" height="38" viewBox="0 0 109 38" fill="none" xmlns="http://www.w3.org/2000/svg">
<g clip-path="url(#clip0)">
<path d="M109 8.1C109.041 7.42402 108.813 6.7593 108.365 6.25138C107.917 5.74346 107.286 5.43372 106.61 5.39C106.31 5.39 106.01 5.29 105.71 5.29C104.906 5.20461 104.108 5.07104 103.32 4.89C100.055 4.08924 96.976 2.66661 94.25 0.7C93.7489 0.265731 93.1129 0.0183846 92.45 0C91.7906 0.0206702 91.1585 0.267873 90.66 0.7C86.37 3.62 82.58 5.1 78.6 5.43C78.237 5.4177 77.8756 5.4837 77.5404 5.62352C77.2052 5.76334 76.904 5.9737 76.6573 6.2403C76.4106 6.50691 76.2242 6.8235 76.1108 7.16855C75.9974 7.51361 75.9596 7.87904 76 8.24V20.24C75.9906 21.3889 76.1249 22.5345 76.4 23.65C77.0725 26.4987 78.5638 29.0884 80.69 31.1C83.7155 34.1337 87.4015 36.4268 91.46 37.8C91.7795 37.9232 92.1177 37.9909 92.46 38C92.8667 37.9824 93.2696 37.9153 93.66 37.8C93.86 37.7 94.16 37.6 94.36 37.5C95.46 36.99 96.55 36.59 97.65 35.99C100.904 34.3271 103.756 31.976 106.01 29.1C107.72 26.8786 108.742 24.2053 108.95 21.41V12.87C109.05 11.36 109.05 9.75 109.05 8.14L109 8.1ZM107.11 14.74V21.27C106.969 23.6534 106.099 25.936 104.62 27.81C102.58 30.5137 99.9588 32.7248 96.95 34.28C95.95 34.78 94.86 35.28 93.86 35.69C93.6192 35.7716 93.3852 35.8719 93.16 35.99C93.0427 36.0695 92.901 36.105 92.76 36.09H92.46C88.6692 34.7598 85.2248 32.5968 82.38 29.76C80.5523 27.9616 79.246 25.7015 78.6 23.22C78.3694 22.2354 78.2354 21.2306 78.2 20.22V8.22C78.1764 7.96983 78.2478 7.71992 78.4 7.52C78.5945 7.36461 78.8426 7.29268 79.09 7.32C83.38 7.02 87.57 5.41 92.09 2.32C92.3121 2.17338 92.5424 2.03982 92.78 1.92C93.0509 1.97307 93.2968 2.1136 93.48 2.32C96.3597 4.47538 99.6508 6.01715 103.15 6.85C104.004 7.03884 104.869 7.17245 105.74 7.25C106.04 7.25 106.34 7.35 106.54 7.35C107.14 7.45 107.24 7.65 107.24 8.15V12.88L107.11 14.74Z" fill="#FECD3B"/>
<path d="M93.35 15.98C93.174 15.8282 92.9686 15.7143 92.7467 15.6455C92.5247 15.5767 92.291 15.5544 92.06 15.58C91.6904 15.5588 91.3197 15.5925 90.96 15.68V18.68C91.26 18.68 91.56 18.78 91.96 18.78C92.4253 18.816 92.8867 18.6729 93.25 18.38C93.4101 18.222 93.5368 18.0335 93.6227 17.8257C93.7086 17.6178 93.7519 17.3949 93.75 17.17C93.7918 16.9509 93.777 16.7248 93.707 16.5131C93.637 16.3013 93.5141 16.1109 93.35 15.96V15.98ZM95.84 20.39C94.803 21.1537 93.5369 21.5417 92.25 21.49C91.8507 21.506 91.451 21.4724 91.06 21.39V23.7C91.0798 23.9183 91.0545 24.1384 90.9857 24.3465C90.9168 24.5547 90.806 24.7465 90.66 24.91C90.5039 25.0698 90.3172 25.1964 90.111 25.2823C89.9048 25.3683 89.6834 25.4117 89.46 25.41C89.238 25.4121 89.018 25.3688 88.8134 25.2828C88.6088 25.1968 88.4238 25.07 88.27 24.91C88.124 24.7465 88.0131 24.5547 87.9443 24.3465C87.8755 24.1384 87.8502 23.9183 87.87 23.7V14.88C87.8367 14.4631 87.9611 14.049 88.2185 13.7194C88.4759 13.3898 88.8475 13.1688 89.26 13.1C90.2114 12.8855 91.1849 12.7848 92.16 12.8C93.4724 12.7665 94.7613 13.1518 95.84 13.9C96.3048 14.2889 96.6732 14.7802 96.9161 15.3354C97.159 15.8907 97.2699 16.4947 97.24 17.1C97.2826 17.7243 97.1781 18.3499 96.935 18.9265C96.6918 19.5032 96.3168 20.0147 95.84 20.42" fill="#FECD3B"/>
</g>
<g clip-path="url(#clip1)">
<path d="M72.9 14.82C72.1898 14.0159 71.2986 13.3921 70.3 13C69.2809 12.5995 68.195 12.3959 67.1 12.4H60.8V8.82001C60.8 8.70182 60.7767 8.58479 60.7315 8.4756C60.6863 8.36641 60.62 8.26719 60.5364 8.18362C60.3676 8.01483 60.1387 7.92001 59.9 7.92001H32.1C31.8613 7.92001 31.6324 8.01483 31.4636 8.18362C31.2948 8.3524 31.2 8.58132 31.2 8.82001V33.42C31.2 33.6587 31.2948 33.8876 31.4636 34.0564C31.6324 34.2252 31.8613 34.32 32.1 34.32H36.7V34.52C36.8792 35.483 37.3847 36.3549 38.1315 36.9887C38.8783 37.6226 39.8207 37.9797 40.8 38C41.7865 37.9943 42.7393 37.6398 43.4896 36.9992C44.2399 36.3587 44.7395 35.4734 44.9 34.5V34.3H62.5V34.5C62.675 35.4667 63.1788 36.3432 63.926 36.981C64.6732 37.6188 65.6178 37.9788 66.6 38C67.5865 37.9943 68.5393 37.6398 69.2896 36.9992C70.0399 36.3587 70.5395 35.4734 70.7 34.5V34.3H74.2C74.4387 34.3 74.6676 34.2052 74.8364 34.0364C75.0052 33.8676 75.1 33.6387 75.1 33.4V21.72C75.2067 20.4816 75.0672 19.2344 74.6896 18.0501C74.312 16.8659 73.7038 15.7681 72.9 14.82V14.82ZM40.9 36C40.4253 36 39.9613 35.8593 39.5666 35.5955C39.172 35.3318 38.8644 34.957 38.6827 34.5185C38.5011 34.0799 38.4535 33.5974 38.5461 33.1318C38.6387 32.6662 38.8673 32.2386 39.203 31.903C39.5386 31.5673 39.9662 31.3387 40.4318 31.2461C40.8973 31.1535 41.3799 31.2011 41.8185 31.3827C42.257 31.5644 42.6318 31.872 42.8955 32.2666C43.1593 32.6613 43.3 33.1253 43.3 33.6C43.304 33.9163 43.2447 34.2302 43.1255 34.5232C43.0063 34.8162 42.8297 35.0824 42.606 35.306C42.3824 35.5297 42.1162 35.7063 41.8232 35.8255C41.5302 35.9447 41.2163 36.004 40.9 36V36ZM59 32.42H44.9L44.8 32.32C44.5165 31.5091 43.9899 30.8053 43.2921 30.3043C42.5943 29.8032 41.759 29.5294 40.9 29.52C40.0374 29.5145 39.1953 29.7826 38.4946 30.2857C37.7939 30.7887 37.2706 31.5009 37 32.32L36.9 32.42H33V9.62001H59V32.42ZM66.7 36C66.2253 36 65.7613 35.8593 65.3666 35.5955C64.972 35.3318 64.6644 34.957 64.4827 34.5185C64.3011 34.0799 64.2535 33.5974 64.3461 33.1318C64.4387 32.6662 64.6673 32.2386 65.003 31.903C65.3386 31.5673 65.7662 31.3387 66.2318 31.2461C66.6973 31.1535 67.1799 31.2011 67.6185 31.3827C68.057 31.5644 68.4318 31.872 68.6955 32.2666C68.9593 32.6613 69.1 33.1253 69.1 33.6C69.104 33.9163 69.0447 34.2302 68.9255 34.5232C68.8063 34.8162 68.6297 35.0824 68.406 35.306C68.1824 35.5297 67.9162 35.7063 67.6232 35.8255C67.3302 35.9447 67.0163 36.004 66.7 36V36ZM73.4 32.4H70.6L70.5 32.3C70.2165 31.4891 69.6899 30.7853 68.9921 30.2843C68.2943 29.7832 67.459 29.5094 66.6 29.5C65.7374 29.4945 64.8953 29.7626 64.1946 30.2656C63.4939 30.7687 62.9706 31.4809 62.7 32.3L62.6 32.4H60.7V14.22H67C70.9 14.22 73.3 17.12 73.3 21.82V32.42L73.4 32.4Z" fill="#FDCD39"/>
<path d="M27.8 12H1.10001C0.861317 12 0.632399 11.9052 0.463616 11.7364C0.294833 11.5676 0.200012 11.3387 0.200012 11.1V11.1C0.200012 10.8613 0.294833 10.6324 0.463616 10.4636C0.632399 10.2948 0.861317 10.2 1.10001 10.2H27.8V12Z" fill="#FDCD39"/>
<path d="M27.9 17H4.00004C3.76134 17 3.53242 16.9052 3.36364 16.7364C3.19486 16.5676 3.10004 16.3387 3.10004 16.1C3.10004 15.8613 3.19486 15.6324 3.36364 15.4636C3.53242 15.2948 3.76134 15.2 4.00004 15.2H27.9V17Z" fill="#FDCD39"/>
<path d="M27.9 21.92H6.50004C6.26134 21.92 6.03242 21.8252 5.86364 21.6564C5.69486 21.4876 5.60004 21.2587 5.60004 21.02C5.60004 20.7813 5.69486 20.5524 5.86364 20.3836C6.03242 20.2148 6.26134 20.12 6.50004 20.12H27.9V21.92Z" fill="#FDCD39"/>
<path d="M27.9 26.82H9.10001C8.86132 26.82 8.6324 26.7252 8.46362 26.5564C8.29483 26.3876 8.20001 26.1587 8.20001 25.92V25.92C8.20001 25.6813 8.29483 25.4524 8.46362 25.2836C8.6324 25.1148 8.86132 25.02 9.10001 25.02H27.9V26.82Z" fill="#FDCD39"/>
<path d="M27.9 31.72H11.4C11.1613 31.72 10.9324 31.6252 10.7636 31.4564C10.5948 31.2876 10.5 31.0587 10.5 30.82V30.82C10.5 30.5813 10.5948 30.3524 10.7636 30.1836C10.9324 30.0148 11.1613 29.92 11.4 29.92H27.9V31.72Z" fill="#FDCD39"/>
</g>
<defs>
<clipPath id="clip0">
<rect width="33" height="38" fill="white" transform="translate(76)"/>
</clipPath>
<clipPath id="clip1">
<rect width="75" height="30" fill="white" transform="translate(0 8)"/>
</clipPath>
</defs>
</svg>
