<svg id="Слой_1" data-name="Слой 1" xmlns="http://www.w3.org/2000/svg" viewBox="0 0 515 515"><defs><style>.cls-1{fill:#e30711;}</style></defs><title>no</title><path class="cls-1" d="M493.05,156.56A263.06,263.06,0,0,0,355.59,19a252,252,0,0,0-199-.06A263.06,263.06,0,0,0,19,156.41a252,252,0,0,0-.06,199A263.06,263.06,0,0,0,156.41,493a252,252,0,0,0,199,.06A263.06,263.06,0,0,0,493,355.59a252,252,0,0,0,.06-199ZM402,425.29C312.61,503,182.19,498.27,98,414S9,199.4,86.71,110.05ZM110.05,86.71C199.39,9,329.8,13.73,414,98s89,214.64,11.25,304Z" transform="translate(1.5 1.5)"/></svg>