<?xml version="1.0" encoding="utf-8"?>
<!-- Generator: Adobe Illustrator 22.1.0, SVG Export Plug-In . SVG Version: 6.00 Build 0)  -->
<svg version="1.1" id="Слой_1" xmlns="http://www.w3.org/2000/svg" xmlns:xlink="http://www.w3.org/1999/xlink" x="0px" y="0px"
	 viewBox="0 0 44 22" style="enable-background:new 0 0 44 22;" xml:space="preserve">
<style type="text/css">
	.st0{fill:#6AC43E;}
</style>
<path class="st0" d="M40,1c1.7,0,3,1.3,3,3v14c0,1.7-1.3,3-3,3H4c-1.7,0-3-1.3-3-3V4c0-1.7,1.3-3,3-3H40 M40,0H4C1.8,0,0,1.8,0,4v14
	c0,2.2,1.8,4,4,4h36c2.2,0,4-1.8,4-4V4C44,1.8,42.2,0,40,0z"/>
<g>
	<path class="st0" d="M9.3,14.9h-1L5,11.3v3.6H4.1V7.8H5v3.5l3.2-3.5h1L6,11.3L9.3,14.9z"/>
	<path class="st0" d="M14.8,9.9c0,0.7-0.2,1.3-0.7,1.7s-1.2,0.6-2.1,0.6h-0.8v2.8h-0.8V7.8h1.9C13.9,7.8,14.8,8.5,14.8,9.9z
		 M11.1,11.4h0.7c0.7,0,1.3-0.1,1.6-0.4s0.5-0.6,0.5-1.1c0-0.5-0.2-0.8-0.5-1.1S12.7,8.5,12,8.5h-0.9V11.4z"/>
	<path class="st0" d="M20.3,14.9h-4V7.8h4v0.7h-3.1v2.3h3v0.7h-3v2.6h3.1V14.9z"/>
	<path class="st0" d="M27.5,16.8h-0.8v-1.9h-5v1.9h-0.8v-2.6h0.6c0.5-0.8,0.9-1.9,1.3-3.1c0.4-1.2,0.6-2.3,0.6-3.3h3.2v6.4h0.9V16.8
		z M25.7,14.2V8.5h-1.6c-0.1,0.8-0.3,1.7-0.6,2.8s-0.7,2-1.2,2.8H25.7z"/>
	<path class="st0" d="M28.7,7.8h0.8v4c0,0.7,0,1.4-0.1,2h0l4-6h0.9v7.1h-0.8V11c0-0.7,0-1.3,0.1-2.1h0l-4,6h-0.9V7.8z"/>
	<path class="st0" d="M38.5,14.9h-0.8V8.5h-2.3V7.8h5.4v0.7h-2.3V14.9z"/>
</g>
</svg>
