<svg width="86" height="21" viewBox="0 0 86 21" fill="none" xmlns="http://www.w3.org/2000/svg">
<g clip-path="url(#clip0)">
<path d="M18.94 16.87L16.61 12C15.2823 13.8659 13.2681 15.1284 11.01 15.51L13.01 19.62C13.082 19.7788 13.214 19.9026 13.377 19.9644C13.54 20.0262 13.7208 20.021 13.88 19.95C13.9634 19.9156 14.0386 19.864 14.1006 19.7985C14.1627 19.733 14.2102 19.6551 14.24 19.57L15.24 16.87L15.44 16.77L18.2 17.77C18.3697 17.8091 18.5479 17.7795 18.6959 17.6877C18.8439 17.5959 18.9496 17.4494 18.99 17.28C19.0233 17.1418 19.0055 16.9962 18.94 16.87V16.87Z" fill="#FDCD39"/>
<path d="M9.51002 14.34C10.4595 14.3479 11.4012 14.1687 12.2814 13.8127C13.1616 13.4566 13.9631 12.9307 14.64 12.2649C15.317 11.5991 15.8562 10.8065 16.2268 9.93228C16.5974 9.0581 16.7922 8.11947 16.8 7.17001C16.7922 6.22054 16.5974 5.28192 16.2268 4.40773C15.8562 3.53355 15.317 2.74093 14.64 2.07513C13.9631 1.40932 13.1616 0.883381 12.2814 0.527331C11.4012 0.17128 10.4595 -0.00790447 9.51002 7.61606e-06C7.59155 -0.0159809 5.74517 0.73015 4.37643 2.07452C3.00769 3.41889 2.2285 5.25156 2.21002 7.17001V7.17001C2.23114 9.08762 3.01115 10.9188 4.37932 12.2626C5.74749 13.6064 7.59234 14.3533 9.51002 14.34V14.34ZM6.32002 5.53001L8.11002 5.28001L8.92002 3.68001C8.99921 3.52577 9.13591 3.40889 9.30058 3.35463C9.46524 3.30036 9.64465 3.31307 9.80002 3.39001C9.92423 3.45453 10.0255 3.5558 10.09 3.68001L10.9 5.28001L12.69 5.53001C12.7756 5.53989 12.8584 5.5667 12.9336 5.60887C13.0088 5.65105 13.0748 5.70776 13.1278 5.77569C13.1809 5.84362 13.2199 5.92143 13.2426 6.00457C13.2653 6.08772 13.2712 6.17455 13.26 6.26001C13.2391 6.40593 13.1685 6.54015 13.06 6.64001L11.76 7.88001L12.01 9.63001C12.0392 9.80091 12 9.97643 11.9008 10.1186C11.8016 10.2609 11.6505 10.3583 11.48 10.39C11.3297 10.4167 11.1747 10.3921 11.04 10.32L9.51002 9.49001L7.91002 10.32C7.83004 10.3588 7.74314 10.3813 7.65437 10.3862C7.5656 10.3911 7.47675 10.3783 7.39298 10.3486C7.30922 10.3188 7.23222 10.2726 7.16647 10.2128C7.10072 10.1529 7.04754 10.0806 7.01002 10C6.97172 9.87965 6.97172 9.75037 7.01002 9.63001L7.32002 7.88001L5.95002 6.64001C5.88833 6.58033 5.83927 6.50885 5.80576 6.42983C5.77226 6.3508 5.75499 6.26584 5.75499 6.18001C5.75499 6.09417 5.77226 6.00922 5.80576 5.93019C5.83927 5.85116 5.88833 5.77969 5.95002 5.72001C6.05198 5.62165 6.18068 5.55556 6.32002 5.53001V5.53001Z" fill="#FDCD39"/>
<path d="M6.08002 19.62L8.01002 15.51C5.7487 15.1298 3.73086 13.8673 2.40002 12L0.0700195 16.87C0.0328333 16.9474 0.0113549 17.0314 0.00682527 17.1172C0.00229561 17.2029 0.0148045 17.2887 0.0436291 17.3696C0.0724538 17.4505 0.117023 17.5249 0.174761 17.5885C0.2325 17.6521 0.302263 17.7035 0.380019 17.74C0.543781 17.8051 0.726258 17.8051 0.890019 17.74L3.65002 16.74L3.85002 16.84L4.85002 19.54C4.91854 19.7024 5.04828 19.8312 5.21112 19.8986C5.37397 19.966 5.5568 19.9665 5.72002 19.9C5.86755 19.8488 5.99408 19.7504 6.08002 19.62V19.62Z" fill="#FDCD39"/>
</g>
<g clip-path="url(#clip1)">
<path d="M43.08 14.2C42.6058 14.202 42.1427 14.3444 41.7494 14.6093C41.356 14.8743 41.05 15.2498 40.8698 15.6885C40.6897 16.1272 40.6436 16.6094 40.7373 17.0743C40.8311 17.5392 41.0604 17.9659 41.3965 18.3006C41.7325 18.6352 42.1602 18.8628 42.6255 18.9546C43.0907 19.0464 43.5728 18.9983 44.0107 18.8163C44.4487 18.6344 44.8229 18.3268 45.0862 17.9323C45.3495 17.5379 45.49 17.0743 45.49 16.6C45.4874 15.9626 45.2323 15.3521 44.7806 14.9023C44.3289 14.4525 43.7174 14.2 43.08 14.2V14.2ZM43.08 17.3C42.9404 17.306 42.8023 17.2701 42.6833 17.1969C42.5643 17.1237 42.4699 17.0166 42.4123 16.8893C42.3547 16.7621 42.3365 16.6205 42.36 16.4828C42.3835 16.3451 42.4477 16.2176 42.5443 16.1166C42.6409 16.0157 42.7655 15.946 42.902 15.9165C43.0386 15.8869 43.1808 15.8989 43.3105 15.9509C43.4402 16.0029 43.5513 16.0925 43.6296 16.2082C43.708 16.3239 43.7499 16.4603 43.75 16.6C43.7541 16.6905 43.7397 16.7809 43.7079 16.8656C43.676 16.9504 43.6273 17.0279 43.5647 17.0933C43.5021 17.1587 43.4268 17.2108 43.3435 17.2463C43.2602 17.2818 43.1706 17.3001 43.08 17.3V17.3Z" fill="#FDCD39"/>
<path d="M42.88 4.20001H38.73C38.5768 4.21206 38.4333 4.2797 38.3264 4.39021C38.2196 4.50072 38.1569 4.64647 38.15 4.80001V15.9C38.1569 16.0536 38.2196 16.1993 38.3264 16.3098C38.4333 16.4203 38.5768 16.488 38.73 16.5H39.31C39.4487 16.4937 39.5813 16.4409 39.6864 16.3503C39.7916 16.2596 39.8633 16.1363 39.89 16C39.9874 15.224 40.3648 14.5103 40.9513 13.9928C41.5377 13.4754 42.2929 13.1899 43.075 13.1899C43.8571 13.1899 44.6123 13.4754 45.1988 13.9928C45.7852 14.5103 46.1626 15.224 46.26 16C46.2728 16.1424 46.3405 16.2742 46.4487 16.3675C46.557 16.4609 46.6973 16.5084 46.84 16.5H47.42C47.5733 16.488 47.7168 16.4203 47.8236 16.3098C47.9304 16.1993 47.9932 16.0536 48 15.9V10.4C48.015 10.2591 47.9796 10.1173 47.9 10L43.37 4.50001C43.17 4.20001 43.08 4.20001 42.88 4.20001V4.20001ZM39.31 8.70001V5.90001C39.3169 5.74647 39.3796 5.60072 39.4864 5.49021C39.5933 5.3797 39.7368 5.31206 39.89 5.30001H42.4C42.4757 5.30295 42.5498 5.32237 42.6171 5.35692C42.6845 5.39146 42.7435 5.4403 42.79 5.50001L45.1 8.30001C45.1611 8.3786 45.2 8.47202 45.213 8.57068C45.2259 8.66933 45.2123 8.76965 45.1736 8.86131C45.1349 8.95297 45.0725 9.03267 44.9928 9.0922C44.9131 9.15173 44.8189 9.18894 44.72 9.20001H39.89C39.6 9.30001 39.31 9.00001 39.31 8.70001V8.70001Z" fill="#FDCD39"/>
<path d="M20.58 16.4H22C22.1387 16.3936 22.2713 16.3409 22.3764 16.2502C22.4816 16.1596 22.5533 16.0363 22.58 15.9C22.6558 15.1169 23.0265 14.3919 23.617 13.8719C24.2075 13.352 24.9736 13.076 25.76 13.1C26.5559 13.0628 27.3358 13.3325 27.9387 13.8535C28.5415 14.3745 28.9214 15.1071 29 15.9C29.0127 16.0424 29.0804 16.1742 29.1887 16.2675C29.297 16.3608 29.4373 16.4084 29.58 16.4H36.58C36.7332 16.388 36.8768 16.3203 36.9836 16.2098C37.0904 16.0993 37.1532 15.9535 37.16 15.8V1.6C37.1532 1.44645 37.0904 1.30071 36.9836 1.1902C36.8768 1.07969 36.7332 1.01205 36.58 1L20.58 1C20.4268 1.01205 20.2832 1.07969 20.1764 1.1902C20.0696 1.30071 20.0068 1.44645 20 1.6V15.8C20.0068 15.9535 20.0696 16.0993 20.1764 16.2098C20.2832 16.3203 20.4268 16.388 20.58 16.4V16.4Z" fill="#FDCD39"/>
<path d="M25.79 14.2C25.3162 14.204 24.8541 14.3481 24.4621 14.6142C24.0701 14.8803 23.7656 15.2565 23.587 15.6953C23.4084 16.1342 23.3637 16.6161 23.4586 17.0804C23.5534 17.5446 23.7835 17.9704 24.12 18.304C24.4564 18.6377 24.8841 18.8643 25.3491 18.9553C25.8141 19.0462 26.2956 18.9976 26.733 18.8153C27.1704 18.6331 27.544 18.3255 27.8068 17.9313C28.0697 17.537 28.21 17.0738 28.21 16.6C28.1737 15.9719 27.9066 15.3794 27.4598 14.9363C27.0131 14.4933 26.4184 14.231 25.79 14.2V14.2ZM25.79 17.3C25.6507 17.304 25.5135 17.2663 25.3958 17.1919C25.2781 17.1174 25.1852 17.0095 25.1292 16.882C25.0731 16.7545 25.0564 16.6132 25.0811 16.4761C25.1058 16.339 25.1708 16.2125 25.2679 16.1125C25.3649 16.0126 25.4896 15.944 25.6259 15.9153C25.7622 15.8866 25.9039 15.8993 26.033 15.9516C26.1621 16.0039 26.2726 16.0936 26.3505 16.2091C26.4283 16.3246 26.4699 16.4607 26.47 16.6C26.4741 16.6913 26.4595 16.7825 26.427 16.868C26.3945 16.9535 26.3449 17.0314 26.2812 17.0969C26.2175 17.1625 26.1411 17.2144 26.0566 17.2493C25.9721 17.2842 25.8814 17.3015 25.79 17.3V17.3Z" fill="#FDCD39"/>
</g>
<g clip-path="url(#clip2)">
<path d="M60.99 1.53003V4.92003H64.53L60.99 1.53003Z" fill="#FDCD39"/>
<path d="M59.35 6.39997V0.999972H49.94C49.7097 0.983326 49.4821 1.05787 49.3062 1.20753C49.1304 1.35719 49.0204 1.56996 49 1.79997V18.1C48.996 18.2142 49.0145 18.3282 49.0546 18.4353C49.0946 18.5424 49.1554 18.6405 49.2334 18.7241C49.3114 18.8077 49.4052 18.8751 49.5092 18.9224C49.6133 18.9697 49.7257 18.9961 49.84 19H64.06C64.1808 19.0026 64.301 18.9815 64.4136 18.9377C64.5262 18.8939 64.6292 18.8283 64.7164 18.7447C64.8037 18.6611 64.8737 18.5612 64.9224 18.4506C64.971 18.3399 64.9974 18.2208 65 18.1V18.1V6.39997H59.35ZM50.88 3.24997C50.8787 3.19219 50.8887 3.13471 50.9096 3.08081C50.9305 3.02692 50.9618 2.97767 51.0018 2.93588C51.0417 2.89409 51.0895 2.86058 51.1423 2.83726C51.1952 2.81394 51.2522 2.80127 51.31 2.79997H57C57.0578 2.7959 57.1158 2.80328 57.1708 2.8217C57.2257 2.84012 57.2765 2.86921 57.3202 2.90731C57.3639 2.94541 57.3996 2.99176 57.4253 3.0437C57.451 3.09564 57.4662 3.15214 57.47 3.20997V6.84997C57.4715 6.9112 57.4603 6.97208 57.4369 7.02871C57.4136 7.08533 57.3787 7.13646 57.3344 7.17882C57.2902 7.22118 57.2376 7.25384 57.18 7.2747C57.1224 7.29556 57.0611 7.30417 57 7.29997H51.35C51.2922 7.30405 51.2341 7.29666 51.1792 7.27824C51.1242 7.25982 51.0735 7.23073 51.0298 7.19263C50.9861 7.15454 50.9504 7.10819 50.9247 7.05625C50.899 7.00431 50.8838 6.9478 50.88 6.88997V3.24997V3.24997ZM59.35 14.5H51.82C51.6945 14.5133 51.5676 14.5 51.4476 14.4611C51.3276 14.4222 51.2171 14.3584 51.1233 14.274C51.0295 14.1896 50.9545 14.0864 50.9031 13.9712C50.8518 13.8559 50.8252 13.7312 50.8252 13.605C50.8252 13.4788 50.8518 13.354 50.9031 13.2388C50.9545 13.1235 51.0295 13.0203 51.1233 12.9359C51.2171 12.8515 51.3276 12.7878 51.4476 12.7489C51.5676 12.7099 51.6945 12.6967 51.82 12.71H59.35C59.463 12.699 59.5771 12.7105 59.6857 12.7438C59.7942 12.7771 59.8951 12.8316 59.9825 12.9041C60.0699 12.9766 60.1421 13.0657 60.1948 13.1663C60.2476 13.2668 60.28 13.3769 60.29 13.49V13.61C60.2821 13.8522 60.179 14.0816 60.003 14.2483C59.827 14.4149 59.5923 14.5054 59.35 14.5ZM62.18 10.9H51.82C51.5813 10.9 51.3524 10.8052 51.1836 10.6364C51.0148 10.4676 50.92 10.2387 50.92 9.99997C50.92 9.76128 51.0148 9.53236 51.1836 9.36358C51.3524 9.19479 51.5813 9.09997 51.82 9.09997H62.18C62.4103 9.08333 62.6379 9.15787 62.8138 9.30753C62.9896 9.45719 63.0996 9.66996 63.12 9.89997V9.99997C63.1174 10.1208 63.091 10.2399 63.0424 10.3506C62.9937 10.4612 62.9237 10.5611 62.8364 10.6447C62.7492 10.7283 62.6462 10.7939 62.5336 10.8377C62.421 10.8815 62.3008 10.9026 62.18 10.9Z" fill="#FDCD39"/>
</g>
<g clip-path="url(#clip3)">
<path d="M75.96 12.8L73.52 10.68L66.45 16.62C66.7216 16.8713 67.0801 17.0075 67.45 17H84.56C84.9303 17.0096 85.2895 16.8731 85.56 16.62L78.47 10.68L75.96 12.8Z" fill="#FDCD39"/>
<path d="M85.54 3.37999C85.2695 3.12688 84.9103 2.99038 84.54 2.99999H67.43C67.0604 2.99457 66.7027 3.13049 66.43 3.37999L75.96 11.4L85.54 3.37999Z" fill="#FDCD39"/>
<path d="M65.96 4.22998V15.86L72.86 10.11L65.96 4.22998Z" fill="#FDCD39"/>
<path d="M79.09 10.11L85.96 15.86V4.21997L79.09 10.11Z" fill="#FDCD39"/>
</g>
<defs>
<clipPath id="clip0">
<rect width="19" height="20.01" fill="white"/>
</clipPath>
<clipPath id="clip1">
<rect width="28" height="18" fill="white" transform="translate(20 1)"/>
</clipPath>
<clipPath id="clip2">
<rect width="16" height="18" fill="white" transform="translate(49 1)"/>
</clipPath>
<clipPath id="clip3">
<rect width="20" height="14" fill="white" transform="translate(66 3)"/>
</clipPath>
</defs>
</svg>
