<svg width="140" height="123" fill="none" xmlns="http://www.w3.org/2000/svg"><path d="M41.97 83.643l1.075.62.783-.681-2.043-1.187c.61 0 1.217-.047 1.818-.143l1.083.62.782-.681-2.042-1.186c.609 0 1.217-.048 1.818-.143l1.075.62 48.335-40.96-2.042-1.185a18.132 18.132 0 0 0 5.718-1.132 18.018 18.018 0 0 0-2.042 5.454l-.83-2.23-48.403 41.007.428 1.166a11.356 11.356 0 0 0-.435 1.773l-.83-2.202-.784.681.436 1.166c-.19.58-.338 1.172-.442 1.773l-.824-2.257-.783.682.429 1.166c-.193.58-.338 1.175-.436 1.779l-1.048-2.836-2.6-1.54c.608 0 1.216-.049 1.817-.144h-.014zm59.172-25.641c-.885.096-1.784 0-2.669.055-.715 2.55-1.402 5.1-2.097 7.663a.6.6 0 0 1-.68.484H85.484a.53.53 0 0 1 0-1.057h9.933c.755-2.57 1.409-5.181 2.144-7.758a.477.477 0 0 1 .49-.368h2.996a.53.53 0 0 1 .429.47.523.523 0 0 1-.341.539l.007-.028zm-7.148 11.066a1.271 1.271 0 0 1-1.199-.913 1.255 1.255 0 0 1 .933-1.582 1.257 1.257 0 0 1 1.513 1.1 1.264 1.264 0 0 1-1.247 1.395zm-6.025-.021a1.258 1.258 0 0 1-1.417-.934 1.263 1.263 0 0 1 .797-1.5 1.244 1.244 0 0 1 1.614.913 1.27 1.27 0 0 1-.994 1.52z" fill="#fff"/><path d="M84.626 57.683c3.833-.041 7.659 0 11.499 0a.544.544 0 0 1 .551.736c-.524 1.97-1.021 3.94-1.552 5.904a.572.572 0 0 1-.64.402h-8.135a.578.578 0 0 1-.627-.45c-.503-1.93-.98-3.879-1.47-5.808-.116-.3 0-.736.374-.764v-.02zm4.84 5.126c-.014.27.008.541.069.805h2.008c0-.266.122-.573 0-.805H89.46h.007zm5.746-3.074c.123-.326.21-.664.259-1.01h-2.512a2.663 2.663 0 0 0 0 1.01h2.274-.02zm-5.875 1.077a4.94 4.94 0 0 0 .048.893c.765.078 1.536.078 2.3 0a5.65 5.65 0 0 0 .049-.838 18.748 18.748 0 0 0-2.397 0v-.055zm4.875 2.795a5.9 5.9 0 0 0 .218-.784h-1.757c-.02.268-.02.537 0 .804h1.559l-.02-.02zm.435-1.895c.218-.218.204-.607.286-.907h-2.11a3.78 3.78 0 0 0-.041.92h1.865v-.013zm-2.832-1.984c0-.334.055-.682.055-1.002H89.2c-.022.34.001.681.068 1.016h2.546v-.014zm-3.655 0a7.02 7.02 0 0 0-.048-1.002c-.892-.055-1.777 0-2.682 0 .053.347.142.687.265 1.016h2.465v-.014zm-1.702 3.081c.04.275.109.544.204.805h1.77a2.826 2.826 0 0 0-.068-.79h-1.906v-.015zm-.504-1.997c.045.304.12.604.225.893a19.67 19.67 0 0 0 2.117 0 4.378 4.378 0 0 0-.055-.893 21.277 21.277 0 0 0-2.287 0z" fill="#fff"/><path fill-rule="evenodd" clip-rule="evenodd" d="M45.788 54.042a8.073 8.073 0 0 1 7.466 4.995 8.103 8.103 0 0 1-1.752 8.82A8.076 8.076 0 0 1 39.07 66.63a8.1 8.1 0 0 1-.749-7.594 8.084 8.084 0 0 1 4.374-4.38 8.065 8.065 0 0 1 3.093-.614z" fill="#fff"/><path d="M42.97 66.96v-9.182h3.465c.467-.01.933.018 1.396.081.403.058.79.205 1.13.43.316.227.57.533.735.886a3.004 3.004 0 0 1-.47 3.225c-.497.545-1.361.811-2.723.811h-2.315v3.75H42.97zm1.218-4.826h2.37a2.496 2.496 0 0 0 1.667-.437 1.548 1.548 0 0 0 .497-1.233 1.645 1.645 0 0 0-.292-.989 1.361 1.361 0 0 0-.776-.538 5.196 5.196 0 0 0-1.137-.082h-2.329v3.279z" fill="#2D2421"/><path d="M121.694 63.354v3.722h-4.929v-.947c0-.496.055-.99.164-1.473a6.73 6.73 0 0 1 .497-1.404 7.06 7.06 0 0 1 .823-1.364l.885-1.152c.337-.402.594-.865.756-1.363.124-.543.179-1.1.163-1.657 0-1.159-.292-1.732-.891-1.732-.6 0-.947.546-.947 1.63 0 .073.034.454.102 1.145h-1.429a5.067 5.067 0 0 1-.123-1.111 3.416 3.416 0 0 1 .633-2.216 2.18 2.18 0 0 1 1.791-.777 2.236 2.236 0 0 1 1.851.818c.486.674.726 1.495.681 2.325a5.852 5.852 0 0 1-.292 1.861c-.165.512-.421.99-.756 1.411l-1.076 1.275a6.318 6.318 0 0 0-1.15 2.161 4.439 4.439 0 0 0-.198 1.084h2.077v-2.236h1.368zm6.175-2.413c0 2.322-.202 3.958-.606 4.908a1.913 1.913 0 0 1-1.842 1.416 1.905 1.905 0 0 1-1.841-1.416c-.404-.94-.606-2.581-.606-4.922a14.968 14.968 0 0 1 .565-4.697c.381-1.064 1.007-1.595 1.879-1.595a1.977 1.977 0 0 1 1.838 1.445c.408.959.613 2.575.613 4.847v.014zm-3.254 2.393a7.337 7.337 0 0 0 .19 1.97c.129.43.334.64.62.64s.497-.204.619-.613a8.075 8.075 0 0 0 .177-1.997V58.56a6.998 6.998 0 0 0-.19-1.977c-.137-.388-.334-.58-.606-.58-.538 0-.81.812-.81 2.442v4.888zm5.412 3.742v-1.41h.728V56.89a1.844 1.844 0 0 1-.728.375v-1.507a3.448 3.448 0 0 0 1.559-1.11h.68v11.016h.681v1.411h-2.92zm8.496-6.599c.989.514 1.481 1.527 1.477 3.04 0 2.51-.824 3.757-2.465 3.757a2.038 2.038 0 0 1-1.824-.94 5.024 5.024 0 0 1-.619-2.728c0-1.595.485-2.631 1.456-3.108-.851-.382-1.279-1.316-1.279-2.802a3.66 3.66 0 0 1 .599-2.23 2.147 2.147 0 0 1 1.667-.797 2.147 2.147 0 0 1 1.668.797 3.66 3.66 0 0 1 .599 2.23c0 1.486-.428 2.42-1.279 2.802v-.02zm-1.008-4.5a.604.604 0 0 0-.606.457 5.108 5.108 0 0 0-.143 1.514c0 1.261.252 1.888.769 1.888a.62.62 0 0 0 .593-.45c.139-.466.199-.952.177-1.438a5.451 5.451 0 0 0-.15-1.527.614.614 0 0 0-.62-.47l-.02.027zm0 5.216a.68.68 0 0 0-.681.532 7.42 7.42 0 0 0-.156 1.827c-.018.603.03 1.206.143 1.8a.676.676 0 0 0 .68.593c.334 0 .552-.191.681-.58a6.964 6.964 0 0 0 .164-1.745 7.67 7.67 0 0 0-.164-1.93.683.683 0 0 0-.681-.497h.014zM0 67.076v-1.479h.899v-9.272H0v-1.48h5.623v3.573H4.146v-2.093H2.62v3.709h1.246v1.473H2.62v4.09h1.525V63.32h1.477v3.756H0zm6.971 0V62.87h1.47v1.132c-.029.464.04.928.205 1.363a.796.796 0 0 0 1.361.075 1.46 1.46 0 0 0 .204-.859 3.57 3.57 0 0 0-.163-1.009 3.409 3.409 0 0 0-.395-.907c-.15-.238-.544-.756-1.177-1.554a9.811 9.811 0 0 1-1.308-1.984 4.348 4.348 0 0 1-.326-1.752c-.03-.696.16-1.383.544-1.963a1.622 1.622 0 0 1 2.054-.614c.217.098.41.243.567.423v-.361h1.47v3.654h-1.47v-.941a2.376 2.376 0 0 0-.197-1.111.681.681 0 0 0-.62-.334c-.453 0-.692.3-.714.9.004.367.078.73.217 1.07.182.44.43.849.736 1.213l.782.928a6.686 6.686 0 0 1 1.723 4.09c.028.751-.19 1.49-.62 2.107a1.867 1.867 0 0 1-1.545.838 1.735 1.735 0 0 1-1.307-.58v.382h-1.49zm12.336-12.23v4.465h-1.294v-3.17h-.994v9.456h.96v1.48h-3.683v-1.48h.967v-9.456h-1.028v3.17h-1.3v-4.465h6.372zm-.102 12.23v-2.045h1.674v2.045h-1.675zm10.81-29.989l-1.77-1.145 2.042-3.157 1.362.86a10.899 10.899 0 0 1 3.853 3.715 3.187 3.187 0 0 1 0 3.45 2.97 2.97 0 0 1-1.362 1.145 4.08 4.08 0 0 1-2.042.259 7.977 7.977 0 0 1-2.6-.798 36.384 36.384 0 0 1-3.629-2.1c-2.66-1.713-4.452-3.202-5.378-4.465-.926-1.264-1.06-2.4-.402-3.409a2.495 2.495 0 0 1 1.804-1.063l-.572-.382 1.144-1.78 4.766 3.068-1.144 1.78c-2.042-1.323-3.322-1.589-3.826-.805a.847.847 0 0 0 0 .927 5.45 5.45 0 0 0 1.361 1.323c.731.559 1.884 1.345 3.459 2.359 1.715 1.104 2.995 1.888 3.826 2.338a5.6 5.6 0 0 0 1.77.73.89.89 0 0 0 .885-.396c.293-.463.184-.954-.334-1.48a15.4 15.4 0 0 0-2.594-1.976l-.64 1.002h.02zm8.108-.955l-1.45-1.527.926-.886-9.15-9.62-.926.88-1.456-1.527 5.82-5.55 3.513 3.696-1.525 1.459-2.042-2.168-1.58 1.506 3.642 3.832L35.182 25l1.457 1.534-1.287 1.227 4.017 4.227 1.58-1.5-2.234-2.36 1.525-1.458 3.69 3.893-5.807 5.57zm9.803-18.25c2.968 5.154 3.288 8.404.96 9.75-1.198.68-2.444.558-3.751-.39-1.307-.947-2.723-2.726-4.207-5.31a22.927 22.927 0 0 1-2.124-4.636 6.869 6.869 0 0 1-.314-3.34 2.824 2.824 0 0 1 1.362-1.978c1.117-.64 2.356-.477 3.717.491 1.361.968 2.802 2.764 4.323 5.386l.034.027zm-4.616 2.775a30.15 30.15 0 0 0 2.825 4.322c.613.682 1.151.92 1.607.682.456-.239.51-.825.218-1.704a30.468 30.468 0 0 0-2.349-4.65 35.824 35.824 0 0 0-2.988-4.65c-.62-.722-1.164-.954-1.62-.681-.457.273-.545.913-.178 1.888a37.965 37.965 0 0 0 2.451 4.773l.034.02zm12.833-3.286l-.572-2.045 3.567-1.01.43 1.528c.575 1.7.725 3.518.435 5.29a3.22 3.22 0 0 1-2.28 2.59 3.073 3.073 0 0 1-1.77 0 4.009 4.009 0 0 1-1.696-1.165 7.917 7.917 0 0 1-1.423-2.318 36.2 36.2 0 0 1-1.32-3.974c-.858-3.046-1.217-5.35-1.076-6.913.143-1.575.803-2.536 1.981-2.85a2.502 2.502 0 0 1 2.042.395l-.177-.634 2.043-.572 1.545 5.454-2.042.58c-.681-2.346-1.444-3.41-2.342-3.137a.83.83 0 0 0-.627.682 5.393 5.393 0 0 0 .137 1.888c.177.91.522 2.273 1.034 4.09.552 1.971.994 3.41 1.314 4.289a5.51 5.51 0 0 0 .885 1.745.879.879 0 0 0 .933.26c.524-.15.77-.594.728-1.364a16.272 16.272 0 0 0-.64-3.136l-1.143.327h.034zm10.307-3.34l.143 5.815 1.273-.075.054 2.113-5.242.13-.047-2.1 1.47-.034-.327-13.24h-1.47l-.055-2.113 4.357-.102a4.63 4.63 0 0 1 3.513 1.24 4.678 4.678 0 0 1 1.362 3.41 4.553 4.553 0 0 1-1.961 4.158l2.042 6.463h1.042l.054 2.113-2.94.075-2.322-7.976a5.069 5.069 0 0 1-.967.095l.02.027zm-.211-7.452l.129 5.318a2.68 2.68 0 0 0 1.981-.682 2.907 2.907 0 0 0 .558-2.045 2.73 2.73 0 0 0-.68-2.046 2.842 2.842 0 0 0-2.002-.525l.014-.02zM78.56 16.894l-1.287 3.77 1.082.252-.47 2.045-4.554-1.056.477-2.046 1.062.246 4.84-12.47-1.164-.272.476-2.045L85.3 6.77l-.476 2.045-1.165-.266-1.123 13.335 1.062.245-.47 2.046-4.554-1.057.477-2.045 1.089.252.497-3.954-2.043-.477h-.033zm.646-2.045l1.73.395 1.027-7.745-.279-.061-2.478 7.417v-.007zm7.121 8.692l6.576-11.494-1.232-.682 1.049-1.82 3.744 2.147a4.494 4.494 0 0 1 2.348 3.006 5.809 5.809 0 0 1-.864 4.091 5.83 5.83 0 0 1-2.989 2.802c-1.162.423-2.564.164-4.207-.777L88.5 24.795l1.252.716-1.048 1.834-4.622-2.652 1.014-1.834 1.232.682zm8.714-10.267l-3.24 5.665c.395.244.827.423 1.28.532.436.055.877-.06 1.232-.32a4.895 4.895 0 0 0 1.402-1.705c.633-1.105.864-1.957.68-2.584a2.666 2.666 0 0 0-1.36-1.588h.006zm5.97 13.055l-4.227 4.431.606.573-1.457 1.527-3.35-3.17 1.45-1.527.967.92 9.156-9.585-.96-.914 1.437-1.54 3.342 3.19-1.456 1.582-.599-.58-3.452 3.627 1.763 1.684 3.452-3.62-.599-.572 1.457-1.528 3.342 3.198-1.457 1.527-.96-.92-9.129 9.544.96.92-1.457 1.527-3.342-3.217 1.457-1.527.599.572 4.22-4.424-1.763-1.691v-.007zm.579 13.26l1.831-1.05.613 1.07 4.888-2.76 5.214-6.252-.558-.975 1.831-1.05 2.349 4.09-1.831 1.05-.599-.988-3.22 3.715v.041l4.765-1.022-.551-.968 1.831-1.05 2.226 3.886-1.824 1.056-.559-.975-7.713 1.453-5.037 2.897.619 1.07-1.831 1.05-2.458-4.281.014-.007z" fill="#fff"/><path fill-rule="evenodd" clip-rule="evenodd" d="M69.193 0c28.45 0 52.515 18.216 60.514 43.29h-2.601C119.196 19.6 96.261 2.469 69.193 2.469c-27.067 0-50.002 17.132-57.92 40.823H8.68C16.672 18.216 40.744 0 69.193 0zm61.065 77.862C122.879 103.884 98.337 123 69.193 123c-29.143 0-53.692-19.089-61.065-45.138h2.56c7.318 24.645 30.737 42.67 58.505 42.67 27.769 0 51.187-18.025 58.499-42.67h2.566z" fill="#fff"/><path d="M21.785 79.26l6.447-2.905.483 1.064-2.54 1.152.954 2.1 2.532-1.153.483 1.064-6.44 2.918-.483-1.064 2.819-1.309-.954-2.045-2.811 1.275-.49-1.098zm5.303 3.408a5.032 5.032 0 0 1 1.988-.682 2.802 2.802 0 0 1 1.545.246c.455.246.826.62 1.069 1.077a2.504 2.504 0 0 1 .177 2.23 4.142 4.142 0 0 1-1.968 2.044 4.25 4.25 0 0 1-2.818.682 2.421 2.421 0 0 1-1.743-1.281 2.457 2.457 0 0 1-.224-2.161 4.176 4.176 0 0 1 1.974-2.046v-.109zm.633 1.03A2.95 2.95 0 0 0 26.359 85a1.364 1.364 0 0 0 1.13 1.997 3.087 3.087 0 0 0 1.839-.518 3.066 3.066 0 0 0 1.361-1.282 1.365 1.365 0 0 0-.061-1.302 1.416 1.416 0 0 0-1.09-.681 2.978 2.978 0 0 0-1.817.518v-.034zm.735 7.792l4.575-3.702-1.082-1.363.932-.75 2.894 3.633-.933.75-1.076-1.363-4.575 3.695-.735-.9zm2.233 2.89l5.092-4.915 2.982 3.095-.858.839-2.171-2.257-1.124 1.084 2.043 2.1-.865.832-2.042-2.1-1.362 1.363 2.247 2.339-.865.831-3.056-3.176-.02-.035zm3.765 3.907l4.609-5.29.878.763-3.82 4.411 2.193 1.916-.783.906-3.077-2.686v-.02zm9.15 2.795c-.21.306-.526.525-.886.614a1.066 1.066 0 0 1-.905-.15 1.054 1.054 0 0 1-.415-.812 1.67 1.67 0 0 1 1.205-1.656 1.067 1.067 0 0 1 .898.156 1.098 1.098 0 0 1 .422.812c.023.373-.091.741-.32 1.036zm.557 4.459l3.166-6.34 2.199 1.104c.424.178.807.443 1.123.777.195.254.3.566.3.886.01.392-.081.78-.266 1.125-.193.439-.53.799-.953 1.023-.41.185-.875.207-1.3.061.138.254.237.528.293.811.068.452.098.908.088 1.364v1.554l-1.252-.627-.075-1.759a11.195 11.195 0 0 0-.089-1.213.872.872 0 0 0-.184-.416 1.513 1.513 0 0 0-.49-.334l-.218-.109-1.313 2.645-1.049-.518.02-.034zm2.867-3.136l.782.388c.294.168.607.299.933.389a.618.618 0 0 0 .443-.096.988.988 0 0 0 .374-.443.954.954 0 0 0 .123-.545.682.682 0 0 0-.205-.423 4.753 4.753 0 0 0-.823-.47l-.824-.409-.803 1.609zm2.41 5.651l2.668-6.558 3.976 1.622-.45 1.112-2.9-1.187-.585 1.453 2.723 1.097-.45 1.111-2.722-1.104-.722 1.786 2.995 1.227-.449 1.105-4.084-1.664zm5.384-.443l1.13.164c-.108.906.184 1.452.872 1.643.288.093.601.076.878-.048a.897.897 0 0 0 .477-.586.813.813 0 0 0 0-.423.796.796 0 0 0-.245-.354 9.001 9.001 0 0 0-.92-.628 3.557 3.557 0 0 1-.925-.763 1.858 1.858 0 0 1-.354-.818 2.13 2.13 0 0 1 .088-.948c.087-.353.268-.676.524-.934.241-.247.549-.417.885-.491a2.62 2.62 0 0 1 1.171.075 2.213 2.213 0 0 1 1.396.955c.278.521.339 1.131.17 1.697l-1.15-.252a1.208 1.208 0 0 0-.116-.852 1.053 1.053 0 0 0-.681-.409 1.178 1.178 0 0 0-.756 0 .577.577 0 0 0-.374.395.63.63 0 0 0 .102.532c.266.277.577.508.919.682.403.228.77.515 1.09.852.2.251.334.549.387.866a2.5 2.5 0 0 1-.088 1.097 2.23 2.23 0 0 1-.947 1.364 2.311 2.311 0 0 1-1.879.136c-1.36-.375-1.92-1.363-1.654-2.959v.007zm6.209 3.825l1.103-5.768-1.688-.32.224-1.18 4.52.866-.224 1.173-1.654-.334-1.103 5.781-1.144-.218h-.034zm8.237.784l-1.266-.096-.374-1.636-2.322-.177-.599 1.561-1.239-.068 2.784-6.886 1.246.096 1.77 7.233v-.027zm-1.926-2.952l-.627-2.679-.987 2.556 1.586.123h.028zm2.042-4.159l1.164-.088.286 3.817c.02.389.065.776.136 1.159.055.271.205.513.422.682a1.306 1.306 0 0 0 1.444-.034.909.909 0 0 0 .313-.525c.05-.453.05-.91 0-1.364l-.293-3.899 1.157-.089.286 3.709c.07.68.07 1.365 0 2.045a1.73 1.73 0 0 1-.606 1.077c-.39.306-.866.48-1.361.498a2.633 2.633 0 0 1-1.444-.218 1.86 1.86 0 0 1-.803-.859 6.898 6.898 0 0 1-.395-2.154l-.286-3.764-.02.007zm6.379 6.64l-1.32-6.953 2.423-.464a3.433 3.433 0 0 1 1.361-.061c.308.087.58.271.776.525.246.305.408.669.47 1.056.105.458.055.938-.143 1.364a1.778 1.778 0 0 1-.994.838c.262.118.505.275.722.464.32.311.614.648.878 1.009l.953 1.22-1.362.266-1.123-1.363a10.055 10.055 0 0 0-.81-.914.877.877 0 0 0-.395-.218 1.555 1.555 0 0 0-.592.034l-.238.041.558 2.904-1.15.218-.014.034zm.388-4.227l.85-.163a4.25 4.25 0 0 0 .981-.259.632.632 0 0 0 .293-.341.975.975 0 0 0 0-.586.942.942 0 0 0-.232-.505.68.68 0 0 0-.415-.211c-.319.01-.635.051-.946.123l-.899.177.34 1.765h.028zm10.375 1.657l-1.219.341-.912-1.404-2.247.634v1.67l-1.198.341.252-7.431 1.205-.341 4.146 6.19h-.027zm-2.825-2.113l-1.484-2.311-.048 2.727 1.532-.437v.021zm3.403 1.847l-2.913-6.449 1.034-.47 4.12 3.326-1.948-4.308.987-.45 2.914 6.449-1.069.491-4.037-3.245 1.906 4.206-.994.45zm6.454-3.027l-2.9-5.12-1.498.853-.592-1.043 4.003-2.278.592 1.044-1.498.852 2.907 5.113-1.014.579zm4.548-7.178c.225.296.336.664.313 1.036a1.021 1.021 0 0 1-1.328.961 1.519 1.519 0 0 1-.885-.62 1.536 1.536 0 0 1-.313-1.037 1.046 1.046 0 0 1 .861-.986c.155-.027.315-.018.467.025.36.092.675.313.885.62zm2.648-.539l.721-.886c.681.559 1.362.593 1.852.095.232-.199.378-.48.409-.784a.919.919 0 0 0-.252-.682.726.726 0 0 0-.79-.19 8.495 8.495 0 0 0-1.008.47 3.786 3.786 0 0 1-1.13.402 1.91 1.91 0 0 1-.885-.116 2.17 2.17 0 0 1-.79-.525 2.045 2.045 0 0 1-.53-.934 1.754 1.754 0 0 1 0-1.009 2.48 2.48 0 0 1 .68-.968 2.043 2.043 0 0 1 3.078 0l-.811.86a1.207 1.207 0 0 0-.789-.342 1.063 1.063 0 0 0-.681.348 1.125 1.125 0 0 0-.388.682.594.594 0 0 0 .38.681c.088.03.181.04.273.028a3.4 3.4 0 0 0 1.069-.423c.403-.233.839-.4 1.294-.498.317-.049.642-.011.939.11.343.14.65.358.899.634.411.396.655.935.681 1.506a2.278 2.278 0 0 1-.845 1.684c-1.021.986-2.155.955-3.403-.095l.027-.048zm5.664-2.338l-5.399-4.575.756-.893 2.124 1.807 1.491-1.76-2.131-1.806.756-.886 5.398 4.574-.756.894-2.362-2.005-1.484 1.759 2.356 2.004-.749.887zm.681-6.136a4.932 4.932 0 0 1-1.553-1.439 2.826 2.826 0 0 1-.503-1.479 2.55 2.55 0 0 1 .456-1.445 2.5 2.5 0 0 1 1.892-1.2 5.063 5.063 0 0 1 4.582 3 2.68 2.68 0 0 1-.32 2.143 2.658 2.658 0 0 1-1.804 1.197 4.12 4.12 0 0 1-2.723-.777h-.027zm.605-1.043a2.97 2.97 0 0 0 1.784.6 1.41 1.41 0 0 0 1.137-.641 1.369 1.369 0 0 0 .109-1.295 3.12 3.12 0 0 0-1.321-1.364 3.08 3.08 0 0 0-1.763-.607 1.36 1.36 0 0 0-1.116.682 1.363 1.363 0 0 0-.13 1.302 3.03 3.03 0 0 0 1.3 1.364v-.041zm5.767-2.645l-6.277-3.259.871-1.677c.192-.419.435-.813.722-1.173a1.53 1.53 0 0 1 1.014-.436c.477-.015.948.103 1.362.34a2.6 2.6 0 0 1 1.007.853c.204.287.314.63.313.982-.068.504-.24.99-.503 1.425l-.354.681 2.369 1.234-.538 1.03h.014zm-4.677-3.743l1.783.927.3-.58c.155-.257.268-.538.333-.831a.82.82 0 0 0-.115-.491 1.17 1.17 0 0 0-.456-.409 1.057 1.057 0 0 0-.6-.136.773.773 0 0 0-.462.19 3.466 3.466 0 0 0-.525.819l-.258.51zm-30.649 7.083v-.041a1.877 1.877 0 0 0-.143-.682l-.864-4.506a.548.548 0 0 0-.068-.157v-3.518a1.808 1.808 0 0 0-1.798-1.8H62.944a1.796 1.796 0 0 0-1.798 1.8v3.477a.328.328 0 0 0-.068.157l-.844 4.452a1.864 1.864 0 0 0-.163.756v3.689h.715v-1.623h16.638v1.61h.721v-3.621.007zm-16.284-8.904a1.085 1.085 0 0 1 1.083-1.077h12.328a1.075 1.075 0 0 1 1.076 1.077v3.34h-1.103v-1.458a1.098 1.098 0 0 0-1.096-1.09H70.8a1.089 1.089 0 0 0-1.089 1.09v1.363a.447.447 0 0 0 0 .096h-1.232v-1.48a1.092 1.092 0 0 0-1.089-1.09h-3.336a1.088 1.088 0 0 0-1.089 1.09v1.48h-1.103v-3.34zm-1.075 10.226v-1.363a1.105 1.105 0 0 1 1.102-1.098h14.44a1.096 1.096 0 0 1 1.096 1.098v1.363H60.786z" fill="#fff"/><path fill-rule="evenodd" clip-rule="evenodd" d="M47.899 43.632l49.015 42.022-.783.886-49.015-42.07-.858 1.111a1.055 1.055 0 0 1-1.532.096c-1.361-1.132-5.126-5.352-5.391-6.136l5.596 4.772a.593.593 0 0 0 .837-.068.607.607 0 0 0-.068-.832l-5.446-5.454 6.385 4.37a.619.619 0 0 0 .838-.068.593.593 0 0 0-.068-.832l-5.576-4.738c.892.253 5.569 3.457 6.767 4.48a1.076 1.076 0 0 1 .13 1.52l-.831.94zm30.852-4.663a9.496 9.496 0 0 0-3.905-5.46 9.472 9.472 0 0 0-12.431 1.692 9.505 9.505 0 0 0-2.31 6.304l18.646-2.536zM56.98 43.495c0 .273.443.498.994.498h.68l.784 1.002H79.86l.626-1.016h.524c.552 0 .994-.225.994-.497v-.498c0-.28-.442-.505-.994-.505H57.974c-.551 0-.994.226-.994.505v.511z" fill="#fff"/><path fill-rule="evenodd" clip-rule="evenodd" d="M68.628 30.924a1.267 1.267 0 0 0 .449-1.79 1.267 1.267 0 0 0-2.32.863 1.263 1.263 0 0 0 .959 1.063l.136 1.01.456-.062.456-.068-.136-1.002v-.014z" fill="#fff"/></svg>