<svg width="24" height="19" viewBox="0 0 24 19" fill="none" xmlns="http://www.w3.org/2000/svg">
<path d="M20.9998 13.1535H8.51023L3.25932 1.46159H0V0H4.24089L9.49185 11.6922H20.9998V13.1535Z" fill="white"/>
<path d="M13.4998 16.8076C13.4998 18.0177 12.4919 19 11.2497 19C10.0075 19 8.99954 18.0177 8.99954 16.8076C8.99954 15.5971 10.0074 14.6153 11.2497 14.6153C12.4919 14.6153 13.4998 15.5971 13.4998 16.8076Z" fill="white"/>
<path d="M20.9998 16.8076C20.9998 18.0177 19.9921 19 18.7499 19C17.5077 19 16.4998 18.0177 16.4998 16.8076C16.4998 15.5971 17.5077 14.6153 18.7499 14.6153C19.9921 14.6153 20.9998 15.5971 20.9998 16.8076Z" fill="white"/>
<path d="M23.3994 4.38463L24 2.9231H7.50021L8.10012 4.38463H23.3994Z" fill="white"/>
<path d="M9.89975 8.76926L10.4997 10.2308H20.9998L21.6005 8.76926H9.89975Z" fill="white"/>
<path d="M22.8003 5.84619H8.70001L9.29992 7.30763H22.1996L22.8003 5.84619Z" fill="white"/>
</svg>
