<svg width="21" height="22" viewBox="0 0 21 22" fill="none" xmlns="http://www.w3.org/2000/svg">
<path d="M16.103 5.67005C16.4007 5.67005 16.4846 5.23783 16.2162 5.10726L5.73704 0.118676C5.09965 -0.187482 4.34904 0.118676 4.06389 0.807533L0.394711 9.6411C0.109564 10.3255 0.394711 11.1314 1.03629 11.4375L3.14974 12.419C3.41392 12.5451 3.71584 12.338 3.71584 12.0273V8.2769C3.71584 6.84066 4.80192 5.67455 6.1396 5.67455H16.103V5.67005Z" fill="white"/>
<path d="M18.8448 6.89465H6.13473C5.42605 6.89465 4.85156 7.51147 4.85156 8.27237V17.9119C4.85156 18.6727 5.42605 19.2896 6.13473 19.2896H7.84142C7.79949 19.0194 7.77852 18.7448 7.77852 18.4656C7.77852 18.1505 7.80787 17.8443 7.85819 17.5427H6.48277V12.9278H18.5009V17.5382H17.1213C17.1716 17.8398 17.201 18.146 17.201 18.4611C17.201 18.7403 17.18 19.0149 17.1381 19.2851H18.8448C19.5534 19.2851 20.1279 18.6682 20.1279 17.9074V8.27237C20.1279 7.51147 19.5534 6.89465 18.8448 6.89465ZM18.5009 10.0868H6.48277V8.64156H18.5009V10.0868Z" fill="white"/>
<path d="M12.4932 14.9224C10.6733 14.9224 9.19727 16.5072 9.19727 18.4612C9.19727 20.4152 10.6733 22 12.4932 22C14.3131 22 15.7892 20.4152 15.7892 18.4612C15.7892 16.5072 14.3131 14.9224 12.4932 14.9224ZM13.4409 19.8569C13.2984 20.046 13.1097 20.1721 12.8916 20.2351C12.7952 20.2621 12.7532 20.3162 12.7574 20.4242C12.7616 20.5278 12.7574 20.6313 12.7574 20.7394C12.7574 20.8339 12.7113 20.8834 12.6274 20.8834C12.5226 20.888 12.4178 20.888 12.3129 20.8834C12.2207 20.8834 12.1787 20.8249 12.1787 20.7304C12.1787 20.6538 12.1787 20.5773 12.1787 20.5008C12.1787 20.3342 12.1703 20.3252 12.0194 20.2981C11.8265 20.2666 11.6378 20.2171 11.4617 20.1271C11.3233 20.055 11.3065 20.019 11.3485 19.8614C11.3778 19.7444 11.4072 19.6273 11.4407 19.5147C11.4784 19.3797 11.512 19.3662 11.6294 19.4292C11.8265 19.5373 12.032 19.6003 12.25 19.6273C12.3884 19.6453 12.5268 19.6318 12.6568 19.5688C12.9 19.4562 12.9377 19.1546 12.7323 18.9745C12.661 18.9114 12.5855 18.8664 12.5016 18.8304C12.2878 18.7313 12.0655 18.6548 11.8684 18.5242C11.5413 18.3171 11.3359 18.029 11.361 17.6012C11.3862 17.1195 11.642 16.8223 12.0529 16.6603C12.2207 16.5927 12.2249 16.5972 12.2249 16.4081C12.2249 16.3451 12.2249 16.2776 12.2249 16.2145C12.2291 16.0705 12.25 16.0479 12.3842 16.0434C12.4261 16.0434 12.4681 16.0434 12.5058 16.0434C12.791 16.0434 12.791 16.0434 12.791 16.3496C12.791 16.5657 12.791 16.5657 12.9922 16.5972C13.1432 16.6242 13.29 16.6693 13.4325 16.7368C13.5122 16.7728 13.5416 16.8314 13.5164 16.9214C13.4829 17.052 13.4493 17.187 13.4074 17.3131C13.3696 17.4347 13.3319 17.4527 13.2229 17.3986C13.0006 17.2816 12.77 17.2366 12.5268 17.2501C12.4639 17.2546 12.401 17.2636 12.3423 17.2906C12.1326 17.3896 12.0949 17.6418 12.2752 17.7948C12.3674 17.8714 12.4681 17.9299 12.5771 17.9794C12.7658 18.0605 12.9503 18.1415 13.1306 18.2496C13.6841 18.5783 13.8393 19.3391 13.4409 19.8569Z" fill="white"/>
</svg>
