<svg width="15" height="11" viewBox="0 0 15 11" fill="none" xmlns="http://www.w3.org/2000/svg">
<path d="M0.173077 5.57362C0.0576923 5.47228 0 5.32027 0 5.21893C0 5.11759 0.0576923 4.96559 0.173077 4.86425L0.980769 4.15488C1.21154 3.9522 1.55769 3.9522 1.78846 4.15488L1.84615 4.20555L5.01923 7.19503C5.13462 7.29637 5.30769 7.29637 5.42308 7.19503L13.1538 0.152008H13.2115C13.4423 -0.0506692 13.7885 -0.0506692 14.0192 0.152008L14.8269 0.861377C15.0577 1.06405 15.0577 1.36807 14.8269 1.57075L5.59615 9.98184C5.48077 10.0832 5.36538 10.1339 5.19231 10.1339C5.01923 10.1339 4.90385 10.0832 4.78846 9.98184L0.288462 5.72563L0.173077 5.57362Z" fill="#ED0035"/>
</svg>
