<svg width="30" height="30" viewBox="0 0 30 30" fill="none" xmlns="http://www.w3.org/2000/svg">
<path d="M11.1183 22.6108L12.587 21.1421C17.0855 23.9138 22.9046 23.2567 26.6583 19.5033C31.1137 15.0478 31.1137 7.79702 26.6583 3.34158C22.2029 -1.11386 14.9521 -1.11386 10.4966 3.34158C6.68392 7.15432 6.14513 13.0094 8.85808 17.4126L7.38911 18.8816L11.1183 22.6108ZM12.9828 5.82771C16.0681 2.74236 21.0868 2.74236 24.1722 5.82771C27.2575 8.91214 27.2575 13.9325 24.1722 17.0171C21.088 20.1011 16.0681 20.1025 12.9828 17.0171C9.89743 13.9325 9.89743 8.91214 12.9828 5.82771Z" fill="#1A1A1D"/>
<path d="M6.1462 20.1245L9.8754 23.8537L3.72919 29.9999L0 26.2707L6.1462 20.1245Z" fill="#1A1A1D"/>
<path d="M22.929 15.774C24.0888 14.614 24.7274 13.0679 24.7274 11.4222C24.7274 9.77657 24.0888 8.23046 22.929 7.07071C20.5292 4.67088 16.6258 4.67065 14.2257 7.07071C11.8259 9.47055 11.8257 13.3739 14.2257 15.774C16.5452 18.0935 20.6093 18.0935 22.929 15.774ZM15.6826 10.8008L17.6984 12.8164L21.4722 9.04254L22.7152 10.2856L17.6984 15.3025L14.4395 12.0439L15.6826 10.8008Z" fill="#1A1A1D"/>
</svg>
