<svg width="11" height="20" viewBox="0 0 11 20" fill="none" xmlns="http://www.w3.org/2000/svg">
<path d="M0.319234 10.6532H2.49002V19.6774C2.49002 19.8548 2.63368 20 2.80926 20H6.48843C6.66401 20 6.80766 19.8548 6.80766 19.6774V10.6935H9.30566C9.46528 10.6935 9.60096 10.5726 9.6249 10.4113L10 7.08871C10.008 7 9.98404 6.90323 9.92019 6.83871C9.85634 6.77419 9.77654 6.73387 9.68076 6.73387H6.80766V4.64516C6.80766 4.01613 7.14286 3.70161 7.80527 3.70161H9.68076C9.85634 3.70161 10 3.55645 10 3.37903V0.322581C10 0.145161 9.85634 0 9.68076 0H7.08699C7.07103 0 7.03112 0 6.96728 0C6.52035 0 4.9561 0.0887097 3.72705 1.23387C2.36233 2.50806 2.55387 4.02419 2.59377 4.29032V6.72581H0.319234C0.143655 6.72581 0 6.87097 0 7.04839V10.3306C0 10.5081 0.143655 10.6532 0.319234 10.6532Z" fill="#ED0035"/>
</svg>
