<svg width="20" height="21" viewBox="0 0 20 21" fill="none" xmlns="http://www.w3.org/2000/svg">
<path d="M10 7.60938C8.1361 7.60938 6.62723 9.11825 6.62723 10.9822C6.62723 12.8461 8.1361 14.3697 10 14.3697C11.8639 14.3697 13.3728 12.8609 13.3728 10.9969C13.3876 9.11825 11.8639 7.60938 10 7.60938Z" fill="#ED0035"/>
<path d="M14.4822 0.982178H5.51775C2.47041 0.982178 0 3.45259 0 6.49993V15.4644C0 18.5118 2.47041 20.9822 5.51775 20.9822H14.4822C17.5296 20.9822 20 18.5118 20 15.4644V6.49993C20 3.45259 17.5296 0.982178 14.4822 0.982178ZM10 16.1449C7.15976 16.1449 4.85207 13.8372 4.85207 10.997C4.85207 8.15673 7.15976 5.84904 10 5.84904C12.8402 5.84904 15.1479 8.15673 15.1479 10.997C15.1627 13.8372 12.855 16.1449 10 16.1449ZM16.3018 6.54431C15.7988 7.04727 14.9704 7.04727 14.4675 6.54431C13.9645 6.04135 13.9645 5.21295 14.4675 4.70999C14.9704 4.20703 15.7988 4.20703 16.3018 4.70999C16.5385 4.94668 16.6864 5.28691 16.6864 5.62715C16.6716 5.96738 16.5385 6.30762 16.3018 6.54431Z" fill="#ED0035"/>
</svg>
