<svg width="25" height="28" viewBox="0 0 25 28" fill="none" xmlns="http://www.w3.org/2000/svg">
<path d="M6.04913 18.1264C6.04913 17.6667 5.70342 17.3926 5.09346 17.3926C4.79459 17.3926 4.58746 17.647 4.58746 17.9459V18.5001C4.58746 18.7399 4.75764 18.9407 4.99739 18.9407C5.64755 18.9407 6.04913 18.6376 6.04913 18.1264Z" fill="white"/>
<path d="M9.82522 17.408C9.50032 17.408 9.27112 17.6842 9.27112 18.0091V20.2913C9.27112 20.5405 9.44765 20.7409 9.69679 20.7409C10.8049 20.7481 11.5276 20.1854 11.5276 18.993C11.5355 17.9562 10.8769 17.408 9.82522 17.408Z" fill="white"/>
<path d="M18.5625 1.90406C17.4552 0.886175 16.006 0.321289 14.502 0.321289H4.79146C3.03118 0.321289 1.5985 1.64383 1.5985 3.26675V13.8467C1.5985 14.0189 1.45888 14.1585 1.28664 14.1585C0.576183 14.1585 0 14.6895 0 15.3455V22.5436C0 23.1995 0.57612 23.7305 1.28664 23.7305C1.45888 23.7305 1.5985 23.8701 1.5985 24.0424V25.0504C1.5985 26.6751 3.03118 27.9958 4.79146 27.9958H21.2321C22.9913 27.9958 24.4242 26.675 24.4242 25.0504V9.92679C24.4242 8.24788 23.7207 6.64578 22.4847 5.50956L18.5625 1.90406ZM3.3754 18.3031C3.3754 17.3484 4.07455 16.5414 5.02921 16.5414C5.78385 16.5414 6.3217 16.6743 6.68309 16.9412C7.02831 17.1927 7.26127 17.6079 7.26127 18.0965C7.26127 18.585 7.08474 19.0003 6.76355 19.2816C6.34579 19.6443 5.72798 19.8072 5.00526 19.8072C4.7832 19.8072 4.58749 19.9819 4.58749 20.204V20.9643C4.58749 21.299 4.31616 21.5703 3.98145 21.5703C3.64673 21.5703 3.3754 21.299 3.3754 20.9643V18.3031ZM21.2321 26.192H4.79146C4.10987 26.192 3.55485 25.68 3.55485 25.0504C3.55485 24.3214 4.14579 23.7305 4.87475 23.7305H18.8809C19.5915 23.7305 20.1676 23.1995 20.1676 22.5436V15.3455C20.1676 14.6895 19.5915 14.1585 18.8809 14.1585H9.55485C6.24114 14.1585 3.55485 11.4722 3.55485 8.15854V3.26675C3.55485 2.63891 4.10994 2.12691 4.79146 2.12691L12.25 2.11972C14.3808 2.11767 16.1092 3.8444 16.1092 5.97514C16.1092 7.10236 17.1006 8.01782 18.3235 8.01782C20.5868 8.01183 22.4265 9.84172 22.4327 12.1051L22.4677 25.0503C22.4677 25.68 21.9137 26.192 21.2321 26.192ZM9.43191 21.6218C8.63746 21.6218 8.04285 20.9503 8.04285 20.1558V18.303C8.04285 17.3504 8.74421 16.5414 9.69673 16.5414C10.7244 16.5414 11.3908 16.7115 11.913 17.0742C12.4749 17.4596 12.8279 18.0739 12.8279 18.9558C12.8279 19.9111 12.4508 20.5706 11.9286 20.9777C11.3588 21.4146 10.4915 21.6218 9.43191 21.6218ZM16.3464 18.6447C16.6 18.6447 16.8055 18.8503 16.8055 19.1038C16.8055 19.3573 16.5999 19.5629 16.3464 19.5629H15.8339C15.2973 19.5629 14.8623 19.9979 14.8623 20.5345V20.9562C14.8623 21.2954 14.5873 21.5703 14.2481 21.5703C13.909 21.5703 13.634 21.2954 13.634 20.9562V18.2324C13.634 17.319 14.3745 16.5785 15.2879 16.5785H16.4791C16.7346 16.5785 16.9418 16.7857 16.9418 17.0412C16.9418 17.2967 16.7346 17.5039 16.4791 17.5039H15.4327C15.1177 17.5039 14.8623 17.7593 14.8623 18.0743C14.8623 18.3893 15.1177 18.6447 15.4327 18.6447H16.3464Z" fill="white"/>
</svg>
