<svg width="16" height="20" viewBox="0 0 16 20" fill="none" xmlns="http://www.w3.org/2000/svg">
<path d="M8 0C3.59 0 3.8147e-06 3.25 3.8147e-06 7.24C3.8147e-06 12.24 7.16 19.48 7.46 19.78C7.60524 19.9193 7.79873 19.9972 8 19.9972C8.20128 19.9972 8.39476 19.9193 8.54 19.78C8.84 19.48 16 12.2 16 7.24C16 3.25 12.41 0 8 0ZM8 10.89C6.987 10.9308 5.99877 10.5704 5.24987 9.88706C4.50097 9.20369 4.05185 8.2525 4 7.24C4.05183 6.22834 4.50129 5.27815 5.2505 4.59637C5.99971 3.91459 6.98796 3.55647 8 3.6C9.01137 3.5591 9.99815 3.91813 10.7468 4.59938C11.4954 5.28062 11.9456 6.22927 12 7.24C11.9456 8.25158 11.4957 9.20123 10.7474 9.88407C9.99909 10.5669 9.01232 10.9282 8 10.89Z" fill="#ED0035"/>
</svg>
