<svg width="30" height="30" viewBox="0 0 30 30" fill="none" xmlns="http://www.w3.org/2000/svg">
<path d="M24.2419 19.7702C23.2419 19.3253 23.9631 18.1916 24.1547 17.4924C24.6358 15.7374 24.5971 13.8473 24.046 12.1131C23.2122 9.48969 21.2225 7.31021 18.6906 6.23674C16.0777 5.12867 13.0285 5.26864 10.5282 6.61128C8.08308 7.92461 6.28957 10.3016 5.7153 13.0207C5.36328 14.6889 5.46742 16.4483 6.02132 18.0612C6.22571 18.6568 6.56148 19.4364 5.75902 19.7702C5.75856 19.7704 5.75833 19.7704 5.75787 19.7706L1.49609 21.5375C2.21799 23.0256 3.19051 24.3985 4.39374 25.6028C7.22684 28.4384 10.9935 30 15.0004 30C19.0069 30 22.7736 28.4384 25.607 25.6028C26.81 24.3985 27.7825 23.0256 28.5046 21.5375L24.2426 19.7706C24.2424 19.7704 24.2421 19.7704 24.2419 19.7702ZM15.0004 12.4375C15.1196 12.4375 15.237 12.4464 15.3519 12.4622L17.3711 8.68149C17.6 8.25311 18.1324 8.09138 18.5606 8.32046C18.9886 8.54954 19.1502 9.08238 18.9213 9.51099L16.9017 13.2927C17.3031 13.7435 17.5476 14.337 17.5476 14.9869C17.5476 16.3926 16.405 17.5362 15.0004 17.5362C13.5959 17.5362 12.4534 16.3926 12.4534 14.9869C12.4534 13.5811 13.5959 12.4375 15.0004 12.4375ZM21.0856 24.056C21.0856 24.5419 20.6922 24.9357 20.2067 24.9357H9.79398C9.30852 24.9357 8.91507 24.5419 8.91507 24.056V20.3965C8.91507 19.9106 9.30852 19.5168 9.79398 19.5168H20.2067C20.6922 19.5168 21.0856 19.9106 21.0856 20.3965V24.056Z" fill="#1A1A1D"/>
<path d="M10.6719 21.2761H19.3268V23.1764H10.6719V21.2761Z" fill="#1A1A1D"/>
<path d="M14.9994 15.7769C15.4347 15.7769 15.7888 15.4225 15.7888 14.987C15.7888 14.5513 15.4347 14.1969 14.9994 14.1969C14.564 14.1969 14.21 14.5513 14.21 14.987C14.21 15.4225 14.564 15.7769 14.9994 15.7769Z" fill="#1A1A1D"/>
<path d="M25.6962 18.469L29.1773 19.912C29.7179 18.3489 30.0003 16.6897 30.0003 14.9867C30.0003 12.2721 29.2844 9.66792 27.9436 7.38879L24.7793 9.50482C26.2657 12.1706 26.6932 15.4146 25.6962 18.469Z" fill="#1A1A1D"/>
<path d="M19.3488 4.60522C21.148 5.36302 22.6618 6.56592 23.8081 8.03846L26.9637 5.92793C26.5503 5.38341 26.098 4.86293 25.6066 4.37087C22.9818 1.74377 19.555 0.211213 15.8789 0V3.7764C17.0531 3.86093 18.2247 4.13171 19.3488 4.60522Z" fill="#1A1A1D"/>
<path d="M14.1209 3.78808V0C10.4448 0.211213 7.01799 1.74376 4.39317 4.37087C3.90176 4.86293 3.44949 5.3834 3.03613 5.92793L6.17044 8.02402C8.1331 5.54995 11.0571 4.04809 14.1209 3.78808Z" fill="#1A1A1D"/>
<path d="M5.19104 9.48489L2.05673 7.38879C0.715942 9.66815 0 12.2721 0 14.9867C0 16.6897 0.28244 18.3489 0.823059 19.912L4.30412 18.4688C3.33435 15.498 3.67126 12.1993 5.19104 9.48489Z" fill="#1A1A1D"/>
</svg>
