<svg width="23" height="26" viewBox="0 0 23 26" fill="none" xmlns="http://www.w3.org/2000/svg">
<path fill-rule="evenodd" clip-rule="evenodd" d="M18.6498 0.243436C18.9489 -0.0257526 19.4075 -0.00955599 19.6868 0.280061L22.7788 3.48575C23.0366 3.753 23.0737 4.16363 22.8679 4.47272C21.0908 7.19711 20.7691 10.3315 21.964 13.3049C22.5922 14.8669 23.113 16.7818 22.1938 19.1792C21.3461 21.3276 19.8294 22.6353 17.654 23.0712C15.1057 23.6005 13.3745 24.4256 12.057 25.7645C11.7586 26.0677 11.273 26.0779 10.9621 25.7876L10.954 25.78C9.63132 24.4256 7.90015 23.6005 5.32637 23.0712C3.24283 22.6509 1.75678 21.421 0.898851 19.4127C0.0868839 17.4512 0.117524 15.583 1.02141 13.3101C2.2317 10.3315 1.90998 7.2023 0.132844 4.47272C-0.0730357 4.16346 -0.0364876 3.75269 0.22076 3.48463L3.28425 0.292375C3.57005 -0.00543477 4.03912 -0.0269547 4.35099 0.243436C4.36631 0.259004 5.883 1.61341 7.66013 1.61341C9.45259 1.61341 10.9693 0.2123 10.9846 0.196732C11.274 -0.0617191 11.7101 -0.0659988 12.0045 0.186722L12.0162 0.196732C12.0315 0.2123 13.5482 1.61341 15.3253 1.61341C17.1178 1.61341 18.6345 0.259004 18.6498 0.243436ZM16.6382 15.4695C16.7763 15.3871 16.9394 15.3364 17.115 15.3364C17.642 15.3364 18.0686 15.7673 18.0749 16.3059C18.0749 16.8445 17.642 17.2753 17.115 17.2753C16.5818 17.2753 16.1552 16.8381 16.1552 16.3059C16.1552 16.2425 16.105 16.1918 16.0485 16.1855L13.7085 15.9257C13.3572 15.8813 13.0247 16.0778 12.8804 16.4073L11.9269 18.587C11.9081 18.6377 11.9269 18.701 11.9771 18.7327C12.2657 18.8975 12.4601 19.2143 12.4601 19.5691C12.4601 20.1077 12.0273 20.5386 11.5003 20.5386C10.967 20.5386 10.5405 20.1014 10.5405 19.5691C10.5405 19.2143 10.7349 18.8975 11.0235 18.7327C11.0737 18.7074 11.0988 18.644 11.0737 18.587L10.1201 16.4073C9.98211 16.0841 9.64335 15.8877 9.29204 15.9257L6.95204 16.1855C6.8893 16.1918 6.84539 16.2425 6.84539 16.3059C6.84539 16.8445 6.41252 17.2753 5.88555 17.2753C5.35231 17.2753 4.92571 16.8381 4.92571 16.3059C4.92571 15.7673 5.35858 15.3364 5.88555 15.3364C6.06121 15.3364 6.22432 15.3871 6.36233 15.4695C6.41252 15.5011 6.47526 15.4885 6.5129 15.4378L7.9056 13.5178C8.11263 13.2264 8.11263 12.8398 7.9056 12.5483L6.5129 10.6284C6.48153 10.5777 6.41252 10.565 6.36233 10.5967C6.22432 10.6791 6.06121 10.7298 5.88555 10.7298C5.35231 10.7298 4.92571 10.2926 4.92571 9.76031C4.92571 9.22171 5.35858 8.79083 5.88555 8.79083C6.41879 8.79083 6.84539 9.22804 6.84539 9.76031C6.84539 9.81734 6.89558 9.86803 6.95204 9.87436L9.29204 10.1342C9.64335 10.1785 9.97584 9.98208 10.1201 9.65259L11.0737 7.47285C11.0925 7.42215 11.0737 7.35879 11.0235 7.32711C10.7349 7.16236 10.5405 6.84554 10.5405 6.49069C10.5405 5.9521 10.9733 5.52122 11.5003 5.52122C12.0335 5.52122 12.4601 5.95843 12.4601 6.49069C12.4601 6.84554 12.2657 7.16236 11.9771 7.32711C11.9269 7.35245 11.9018 7.41582 11.9269 7.47285L12.8804 9.65259C13.0185 9.97575 13.3572 10.1722 13.7085 10.1342L16.0485 9.87436C16.1113 9.86803 16.1552 9.81734 16.1552 9.76031C16.1552 9.22171 16.5881 8.79083 17.115 8.79083C17.6483 8.79083 18.0749 9.22804 18.0749 9.76031C18.0749 10.2989 17.642 10.7298 17.115 10.7298C16.9394 10.7298 16.7763 10.6791 16.6382 10.5967C16.5881 10.565 16.5253 10.5777 16.4877 10.6284L15.095 12.5483C14.888 12.8398 14.888 13.2264 15.095 13.5178L16.4877 15.4378C16.5191 15.4885 16.5881 15.5011 16.6382 15.4695Z" fill="#A6A9B0"/>
</svg>
