<svg width="38" height="26" viewBox="0 0 38 26" fill="none" xmlns="http://www.w3.org/2000/svg">
<path fill-rule="evenodd" clip-rule="evenodd" d="M27.5252 20.0808C27.5093 20.1287 27.4935 20.1766 27.4617 20.2405C27.5009 20.1616 27.5402 20.107 27.5944 20.0316C27.6768 19.9169 27.7651 19.8053 27.8372 19.6838C27.8378 19.6828 27.8384 19.6819 27.8389 19.6809C27.9684 19.4628 28.2091 19.3447 28.3939 19.1709C28.445 19.1229 28.4927 19.0748 28.5405 19.0267C28.5405 19.0267 28.5405 19.0267 28.5405 19.0267C28.5788 18.9495 28.6403 18.8957 28.7109 18.851C28.8049 18.7917 28.9119 18.7559 29.0212 18.7362C29.0848 18.7248 29.1458 18.7161 29.2068 18.7073C29.2996 18.6939 29.3924 18.6806 29.4945 18.6579C29.5353 18.6489 29.5974 18.6473 29.6331 18.669C29.6797 18.6974 29.6901 18.7364 29.7274 18.7761C29.7759 18.828 29.8245 18.8051 29.8731 18.7073C29.979 18.5474 30.129 18.4319 30.2864 18.361C30.3476 18.3334 30.416 18.3222 30.4759 18.292C30.5076 18.2761 30.5394 18.2601 30.5711 18.2601C30.6345 18.2601 30.7614 18.2601 30.8884 18.324C30.9798 18.37 30.9724 18.4161 30.9611 18.486C30.9568 18.5132 30.9518 18.5438 30.9518 18.5795V18.7073C30.9518 18.6754 30.9677 18.6434 30.9835 18.6115C30.9994 18.5795 31.0153 18.5476 31.0153 18.5156C31.0153 18.4888 31.0264 18.4396 31.0441 18.3867C31.0893 18.2512 31.2073 18.1636 31.3363 18.1023C31.5079 18.0209 31.6919 17.9335 31.8584 17.8251C31.9162 17.7875 31.9947 17.8066 32.0191 17.871C32.0474 17.9456 32.1353 17.9423 32.1813 17.8772C32.282 17.735 32.4051 17.5762 32.5317 17.439C32.5756 17.3913 32.6389 17.363 32.6969 17.3338C32.7286 17.3178 32.7603 17.3018 32.792 17.3018C32.9595 17.3018 33.1269 17.3018 33.2512 17.2149C33.2845 17.1916 33.3225 17.1741 33.3632 17.1741C33.4038 17.1741 33.4414 17.192 33.4745 17.2156C33.5569 17.2742 33.6143 17.2433 33.6968 17.1988C33.7276 17.1823 33.7621 17.1741 33.7971 17.1741H33.8708C33.9343 17.1741 33.9343 17.238 33.9343 17.3018C33.9343 17.3605 33.9963 17.3981 34.043 17.3627C34.2053 17.2397 34.2413 17.0791 34.1881 16.9185C34.127 16.734 34.0659 16.4902 34.2314 16.3013C34.2438 16.2871 34.2537 16.2682 34.2461 16.2509C34.241 16.2395 34.2331 16.2318 34.2248 16.2266C34.2066 16.2153 34.1839 16.1804 34.1673 16.167C34.1451 16.1489 34.14 16.122 34.1517 16.0958C34.1622 16.0722 34.1687 16.0533 34.1711 16.0338C34.1755 15.9987 34.1666 15.962 34.1446 15.8932C34.1316 15.853 34.1246 15.8109 34.1246 15.7686C34.1246 15.678 34.2204 15.5873 34.3214 15.5195C34.3986 15.4677 34.4861 15.4344 34.5742 15.4048L34.9623 15.2746C34.9957 15.2634 35.0259 15.2446 35.0507 15.2196C35.0678 15.2024 35.082 15.1826 35.0927 15.1609L35.4572 14.4271C35.4907 14.3596 35.5419 14.3278 35.6015 14.3221C35.7202 14.3109 35.8173 14.4063 35.9014 14.4909C35.9155 14.5051 35.9296 14.5162 35.9437 14.5241C36.0391 14.5774 36.1275 14.4087 36.2181 14.3476C36.3094 14.286 36.3991 14.3186 36.5086 14.3305C36.5224 14.332 36.5362 14.3334 36.5501 14.3348C36.6444 14.3443 36.7387 14.3538 36.8161 14.3972C36.8966 14.4424 36.9451 14.5295 37.0205 14.5828C37.0709 14.6185 37.1302 14.6449 37.191 14.6334C37.2207 14.6278 37.2445 14.6075 37.2668 14.5872C37.3493 14.5122 37.4362 14.4661 37.5618 14.4659C37.6406 14.4658 37.7105 14.3926 37.6896 14.3166C37.6689 14.2412 37.6539 14.1866 37.6147 14.1076C37.5905 14.0588 37.5662 14.0194 37.5455 13.9856C37.4962 13.9053 37.3933 13.7679 37.4815 13.7343C37.4981 13.7279 37.5211 13.7243 37.5513 13.7243C37.6782 13.7243 37.7416 13.5966 37.6782 13.4688C37.6355 13.3398 37.6215 13.2687 37.6749 13.2165C37.7448 13.1483 37.9006 13.175 37.9003 13.0773C37.8999 12.98 37.7688 12.9237 37.7027 12.8524C37.5706 12.7098 37.4878 12.5768 37.4878 12.3189C37.4878 12.2261 37.4543 12.1332 37.363 12.0649C37.2865 12.0077 37.2026 11.9356 37.1071 11.9356C37.1421 11.9356 37.1706 11.9071 37.166 11.8723C37.161 11.8354 37.1525 11.7976 37.1436 11.7575C37.1129 11.6201 37.2994 11.5262 37.3073 11.3857C37.3078 11.378 37.3081 11.3702 37.3083 11.3625C37.3118 11.2652 37.4118 11.2365 37.5087 11.2291C37.5552 11.2256 37.6016 11.2187 37.6481 11.2054C37.7121 11.1871 37.766 11.1452 37.8192 11.1051C37.8756 11.0625 37.932 11.0199 37.932 10.9773C37.932 10.9378 37.9078 10.8984 37.8743 10.8438C37.8708 10.8381 37.8672 10.8323 37.8636 10.8263C37.833 10.7761 37.7476 10.7853 37.742 10.8439C37.7404 10.8607 37.7367 10.8572 37.7271 10.871C37.6096 11.041 37.5439 11.0362 37.3609 10.9134C37.2403 10.8527 37.1197 10.792 36.9991 10.6765C36.9868 10.6647 36.9796 10.6397 36.9746 10.6235C36.9597 10.5746 36.9834 10.516 37.0331 10.5039C37.0534 10.499 37.0735 10.4939 37.0934 10.489C37.2719 10.4444 37.4362 10.4034 37.6139 10.4485C37.6433 10.4559 37.7416 10.3688 37.7416 10.3385V10.2428C37.7416 10.1802 37.7601 10.119 37.7946 10.0668L37.9756 9.79346C38.0385 9.69855 37.9708 9.53424 37.885 9.45946C37.8734 9.44936 37.8614 9.44078 37.8482 9.43297C37.7348 9.36614 37.6782 9.24541 37.6782 9.12468C37.6782 8.99691 37.8051 8.99691 37.8685 8.99691C37.932 8.99691 37.9955 8.93303 37.9955 8.86914C37.9955 8.84857 37.9872 8.828 37.9729 8.80822C37.7933 8.5604 37.3805 8.66763 37.1071 8.80526C36.9012 8.9089 36.8932 8.48425 36.683 8.38954C36.6319 8.36651 36.5648 8.35807 36.4725 8.35807H36.4049C36.3659 8.35807 36.3279 8.34776 36.2917 8.33349C36.2759 8.32729 36.2612 8.32263 36.2475 8.3197C36.1372 8.29613 36.0127 8.37425 35.9331 8.29418C35.8992 8.25998 35.8652 8.22577 35.8254 8.19737C35.7933 8.17441 35.7748 8.17048 35.7513 8.13868C35.7177 8.09312 35.7019 8.00978 35.6704 7.96274C35.6541 7.93847 35.6397 7.9299 35.6169 7.93364C35.5484 7.9449 35.4963 8.00124 35.4379 8.03897C35.3722 8.08144 35.2878 8.12392 35.2034 8.1664C35.2034 8.16641 35.2034 8.16639 35.2034 8.16638C35.2034 8.09155 35.1816 8.03864 35.1636 7.9948C35.1513 7.96494 35.0978 7.94785 35.0677 7.95951C35.0283 7.97476 34.9889 7.97476 34.9496 7.97476C34.7592 7.97476 34.6323 7.84699 34.6323 7.71923V7.68107C34.6323 7.63158 34.5922 7.59146 34.5427 7.59146C34.5188 7.59146 34.4964 7.60167 34.4772 7.61594C34.4582 7.63017 34.44 7.63926 34.4246 7.64506C34.3961 7.65575 34.3671 7.64232 34.3432 7.62353C34.3298 7.61295 34.317 7.60487 34.3048 7.59918C34.2146 7.55731 34.0678 7.53422 33.9977 7.46369C33.966 7.43175 33.9343 7.41578 33.9025 7.3998C33.8367 7.36665 33.7548 7.33064 33.7089 7.38841C33.6915 7.41041 33.6804 7.43705 33.6804 7.46369C33.6804 7.78311 33.4901 7.91088 33.1728 7.78311C33.1379 7.76555 33.103 7.74316 33.0668 7.71992C32.9713 7.65863 32.8666 7.59146 32.7286 7.59146C32.7137 7.59146 32.692 7.59146 32.6673 7.59064C32.5246 7.58591 32.4486 7.45789 32.3549 7.35012C32.2006 7.17254 32.0781 6.86955 31.9108 6.70418C31.9084 6.70184 31.906 6.69947 31.9037 6.69708C31.8402 6.63319 31.8402 6.56931 31.8402 6.50543V6.46727C31.8402 6.41778 31.8001 6.37766 31.7506 6.37766C31.7267 6.37766 31.704 6.38744 31.6856 6.40259C31.6568 6.42622 31.6216 6.44986 31.5864 6.47349C31.5621 6.48975 31.5379 6.50602 31.5158 6.52228C31.4779 6.55011 31.4291 6.5679 31.396 6.60125C31.3616 6.63586 31.3088 6.63996 31.2606 6.648C31.2091 6.6566 31.1559 6.66191 31.1023 6.66725C31.0406 6.67341 30.9784 6.67961 30.9179 6.69094C30.6498 6.74117 30.4974 7.02163 30.2538 7.14427C29.9889 7.25095 30.0336 7.13495 30.0926 6.9822C30.1043 6.95188 30.0701 6.92468 30.0404 6.93797C29.931 6.98702 29.87 6.95447 29.7879 6.91058C29.7746 6.9035 29.7608 6.89611 29.7461 6.88873C29.6471 6.83885 29.6253 6.86686 29.5904 6.91195C29.584 6.92022 29.5771 6.92907 29.5692 6.93811C29.5606 6.948 29.5498 6.95562 29.5381 6.96151C29.4779 6.99183 29.4039 6.9669 29.3591 6.9165C29.3408 6.89587 29.3214 6.87633 29.302 6.85679C29.2544 6.80888 29.2068 6.76096 29.175 6.69708C29.1116 6.56931 29.0481 6.50543 28.9212 6.50543C28.881 6.50543 28.8345 6.51183 28.7856 6.51856C28.6885 6.53192 28.5821 6.54656 28.4981 6.51469C28.4839 6.50931 28.4691 6.50543 28.454 6.50543C28.4281 6.50543 28.4038 6.51647 28.383 6.53179C28.3615 6.54763 28.3399 6.55847 28.3184 6.56931C28.2867 6.58528 28.2549 6.60125 28.2232 6.6332C28.1954 6.66121 28.1798 6.7015 28.1656 6.73791C28.1383 6.80847 28.0534 6.84867 27.9846 6.81719C27.8908 6.7743 27.779 6.6756 27.779 6.6332C27.779 6.5468 27.779 6.4312 27.7202 6.36539C27.658 6.29585 27.5252 6.2793 27.5252 6.18601C27.5252 6.11116 27.5034 6.05824 27.4854 6.01439C27.4726 5.98339 27.4617 5.95693 27.4617 5.93047C27.4617 5.8027 27.4617 5.73882 27.5886 5.73882C27.6676 5.73882 27.6975 5.71406 27.6934 5.67997C27.6873 5.62804 27.6127 5.62048 27.5965 5.57078C27.5804 5.52152 27.5607 5.46798 27.535 5.42294C27.533 5.41937 27.5314 5.41585 27.5301 5.41221C27.5179 5.37767 27.5097 5.34143 27.4901 5.31046C27.4874 5.30615 27.4847 5.30163 27.4822 5.29693C27.4598 5.25596 27.4429 5.20901 27.4193 5.16875C27.4017 5.1388 27.3841 5.10342 27.3665 5.06804C27.3348 5.00415 27.3031 4.94027 27.2714 4.90832C27.2079 4.84444 27.1762 4.8125 27.1762 4.78055C27.1762 4.74861 27.2079 4.71667 27.2714 4.65279C27.3388 4.58488 27.3036 4.46113 27.2079 4.46113C27.0175 4.46113 26.8906 4.39725 26.8906 4.14171C26.8906 4.06687 26.8688 4.01395 26.8508 3.9701C26.8324 3.92528 26.7879 3.88618 26.7394 3.88618H26.7096C26.665 3.88618 26.6287 3.8516 26.5873 3.83497C26.5466 3.81861 26.4977 3.84148 26.4545 3.86168C26.451 3.86331 26.4476 3.86493 26.4442 3.8665C26.4066 3.8839 26.3665 3.90271 26.3373 3.93211C26.3255 3.944 26.3119 3.95401 26.2968 3.96116C26.0875 4.05994 25.97 4.02163 25.9442 3.88548C25.9377 3.85104 25.9104 3.82229 25.8753 3.82229C25.8436 3.82229 25.8277 3.83826 25.8119 3.85424C25.7778 3.8885 25.7262 3.87432 25.682 3.85487C25.5999 3.81875 25.5142 3.79049 25.4347 3.77597C25.2327 3.73909 24.8449 3.79197 25.0051 3.66359C25.0242 3.6483 25.0586 3.62131 25.078 3.60637C25.0926 3.59504 25.1068 3.58624 25.1196 3.57828C25.1531 3.55744 25.1773 3.54236 25.1773 3.50287C25.1773 3.39687 25.0563 3.35337 24.9895 3.27104C24.9416 3.21197 24.9403 3.15464 24.964 3.0665C24.9775 3.01657 24.9869 2.96545 24.9869 2.91374C24.9869 2.83903 24.9719 2.76313 24.9229 2.70668C24.9029 2.68363 24.8815 2.66203 24.86 2.64044C24.8201 2.60023 24.7801 2.56003 24.7496 2.51038C24.7378 2.49124 24.7101 2.45601 24.6983 2.43689C24.6616 2.37747 24.7035 2.32672 24.7687 2.30177C24.8309 2.27799 24.893 2.26756 24.9552 2.25713C25.1545 2.22369 25.4547 2.08344 25.356 1.90712C25.3447 1.88703 25.3277 1.86555 25.3042 1.84188C25.2924 1.82999 25.2806 1.81589 25.268 1.80081C25.2246 1.74908 25.1717 1.68586 25.0761 1.661C25.0203 1.64649 24.9641 1.62724 24.9235 1.58635L24.8497 1.51211C24.7344 1.39598 24.6697 1.23895 24.6697 1.07527C24.6697 1.01139 24.6538 0.947506 24.6379 0.883622C24.6236 0.825952 24.6093 0.768282 24.6066 0.710612C24.6062 0.700323 24.6145 0.69197 24.6248 0.69197C24.6414 0.69197 24.6499 0.671786 24.6387 0.659605C24.5736 0.589217 24.5238 0.519316 24.4766 0.453076C24.41 0.35953 24.3485 0.273285 24.2567 0.203284C24.2364 0.187774 24.2165 0.171671 24.1983 0.153708C24.1541 0.110163 24.1058 0.0666187 24.0333 0.0230743C23.9973 0.00150716 23.9524 0.0105695 23.9186 0.0352795C23.8488 0.0861956 23.7764 0.101849 23.6911 0.0925588C23.6492 0.0879979 23.5889 0.16601 23.5904 0.208089C23.5913 0.230128 23.573 0.245119 23.551 0.242964C23.4357 0.231643 23.4219 0.169217 23.4081 0.106791C23.4006 0.0725697 23.393 0.0383485 23.3688 0.0125461C23.3563 -0.000660911 23.3371 0.0106374 23.3371 0.028772C23.3371 0.0422236 23.3262 0.0531884 23.3127 0.0523773C23.2466 0.0483849 23.1817 0.0292235 23.1268 0.0130464C23.1165 0.00999792 23.1065 0.00705541 23.0969 0.00434037C23.0484 -0.00944333 23.0003 0.0124924 22.9529 0.0298035C22.9168 0.0429964 22.8763 0.0487271 22.8396 0.0512165C22.799 0.0539758 22.7629 0.0881342 22.7342 0.117012C22.7184 0.132983 22.7025 0.148954 22.7025 0.180897C22.7025 0.153643 22.6721 0.13743 22.6495 0.152602C22.505 0.249431 22.3639 0.342818 22.2543 0.404594C22.2156 0.426361 22.1717 0.436792 22.1274 0.436072C22.0526 0.434859 21.9819 0.429565 21.9288 0.406473C21.8913 0.390135 21.8589 0.363124 21.8228 0.343803C21.7187 0.288079 21.5855 0.216759 21.4476 0.228691C21.4087 0.232062 21.3487 0.213469 21.3122 0.2275C21.2693 0.243976 21.2258 0.224386 21.1857 0.201977C21.1649 0.190346 21.1405 0.180897 21.1161 0.180897C21.0926 0.180897 21.0778 0.212145 21.0872 0.233687C21.1098 0.285811 21.1147 0.350427 21.1158 0.39962C21.1162 0.419963 21.0996 0.436433 21.0793 0.436433C21.0634 0.436433 21.0493 0.446615 21.0443 0.461696L20.8876 0.934953C20.8725 0.980582 20.8298 1.01139 20.7818 1.01139H20.7567C20.743 1.01139 20.7299 1.01679 20.7213 1.02738C20.7195 1.02959 20.7176 1.03201 20.7156 1.0346C20.6898 1.06825 20.6146 1.09434 20.5767 1.07527C20.5389 1.05621 20.4815 1.08422 20.4815 1.12661V1.1471C20.4815 1.178 20.455 1.20166 20.4304 1.1829C20.409 1.16651 20.3889 1.14219 20.3687 1.11786C20.3379 1.08059 20.307 1.04332 20.2715 1.0346C20.2099 1.0195 20.1008 1.01087 20.1008 0.947506C20.1008 0.819738 20.0373 0.819738 19.9739 0.819738C19.9476 0.819738 19.9104 0.830699 19.8669 0.84354C19.8053 0.861701 19.731 0.883622 19.6566 0.883622C19.5465 0.883622 19.4364 0.883622 19.3263 0.871268C19.1631 0.852945 18.8951 0.719327 18.8951 0.883622C18.8951 0.999019 18.7144 0.966621 18.6369 0.881107C18.6343 0.878218 18.6317 0.875362 18.6291 0.872536C18.5971 0.837992 18.5514 0.819738 18.5043 0.819738H18.2545C18.2211 0.819738 18.1924 0.8433 18.186 0.876023C18.1445 1.08779 18.1287 1.16834 18.0384 1.19339C17.9874 1.20753 17.9433 1.24595 17.9433 1.29887V1.34989C17.9433 1.37463 17.9232 1.3947 17.8985 1.3947C17.8865 1.3947 17.8751 1.39946 17.8667 1.40793L17.7582 1.51712C17.713 1.56265 17.6817 1.61987 17.6477 1.67426C17.6212 1.71652 17.5894 1.75256 17.5585 1.7875C17.495 1.85933 17.4356 1.92651 17.4356 2.03354C17.4356 2.06548 17.4039 2.11339 17.3722 2.1613C17.3213 2.23818 17.2743 2.32931 17.2453 2.41684C17.2423 2.42596 17.2392 2.43507 17.2361 2.44407C17.2152 2.50431 17.22 2.57983 17.277 2.60849C17.2975 2.61883 17.3181 2.62917 17.3386 2.64384C17.3585 2.65803 17.3585 2.68661 17.3408 2.70345C17.3136 2.7294 17.2957 2.74168 17.2473 2.76686C17.231 2.77535 17.2323 2.81905 17.2453 2.83209C17.2739 2.86087 17.3056 2.89914 17.277 2.92792C17.2733 2.93163 17.2696 2.93535 17.2661 2.93927C17.2414 2.96699 17.2832 3.02712 17.3173 3.04184C17.3663 3.06302 17.3887 3.08545 17.4071 3.13557C17.4356 3.2133 17.4356 3.26226 17.4356 3.31122V3.38765C17.4356 3.46145 17.4064 3.53357 17.3405 3.56676C17.2746 3.59992 17.2009 3.64196 17.1315 3.617C17.106 3.60782 17.0804 3.59246 17.0549 3.56676C17.0232 3.53481 16.9756 3.50287 16.928 3.47093C16.8804 3.43899 16.8328 3.40705 16.8011 3.3751C16.763 3.33677 16.7935 3.29844 16.8239 3.26011C16.8442 3.23456 16.8645 3.209 16.8645 3.18345C16.8645 3.14817 16.8359 3.11957 16.8006 3.11957H16.7561C16.7076 3.11957 16.666 3.08686 16.6478 3.04193C16.5502 2.80143 16.3788 2.80724 16.2036 2.81317C16.1447 2.81517 16.0853 2.81718 16.0281 2.80983C15.9956 2.80565 15.9429 2.83691 15.9291 2.86663C15.9075 2.91313 15.8711 2.92792 15.8199 2.92792H15.6589C15.6042 2.92792 15.5495 2.8805 15.4949 2.82653C15.4779 2.80974 15.4685 2.78674 15.4685 2.76285C15.4685 2.71288 15.428 2.67238 15.378 2.67238H15.3165C15.2603 2.67238 15.208 2.71782 15.1829 2.7682C15.1663 2.80177 15.1013 2.82324 15.068 2.80618C15.064 2.80415 15.06 2.80215 15.056 2.80015C15.0182 2.78108 14.9608 2.80909 14.9608 2.85149V2.86403C14.9608 2.91104 14.8929 2.94749 14.8468 2.93827C14.7951 2.92792 14.7416 2.92792 14.707 2.92792C14.6922 2.92792 14.6773 2.93141 14.6633 2.93676C14.6033 2.95967 14.5388 2.98843 14.5052 2.93368C14.475 2.88448 14.4374 2.83847 14.4215 2.78299C14.3982 2.70185 14.4005 2.62072 14.4285 2.53958C14.4421 2.49985 14.4532 2.45886 14.4532 2.41684C14.4532 2.37333 14.4238 2.30018 14.3849 2.23776C14.3523 2.18529 14.2909 2.16574 14.2301 2.15465C14.2225 2.15326 14.2146 2.15158 14.2064 2.14955C14.123 2.12904 14.036 2.14367 14.009 2.22519C13.98 2.31266 13.8932 2.34712 13.8016 2.35715C13.6921 2.36915 13.6436 2.41548 13.5 2.5944C13.4645 2.63869 13.4718 2.70213 13.4922 2.75515C13.4946 2.76137 13.4966 2.76776 13.4982 2.77424C13.502 2.79054 13.4947 2.80682 13.4829 2.81871C13.4581 2.84369 13.4174 2.84394 13.3933 2.81831C13.3516 2.774 13.3099 2.72323 13.2681 2.64784C13.2539 2.62212 13.2339 2.59874 13.2251 2.57067C13.2117 2.52753 13.2243 2.47279 13.2354 2.42501C13.2445 2.38561 13.2142 2.35056 13.1776 2.33342C13.1692 2.32948 13.1608 2.32525 13.1523 2.32102C13.1444 2.31701 13.1364 2.313 13.1285 2.30925C13.0911 2.29164 13.0672 2.32697 13.0443 2.36135C13.0408 2.36671 13.0362 2.37237 13.0304 2.37888C13.011 2.40058 12.977 2.40002 12.9565 2.37937L12.9438 2.36655C12.9154 2.33805 12.8668 2.3581 12.8668 2.39828C12.8668 2.41017 12.8621 2.42158 12.8537 2.43001L12.8299 2.45396C12.7803 2.50393 12.6781 2.50942 12.6766 2.43901C12.6764 2.43253 12.6764 2.42524 12.6764 2.41684C12.6764 2.37691 12.6554 2.34087 12.6258 2.31407C12.5507 2.24616 12.5689 2.1956 12.5901 2.13647C12.6098 2.08134 12.5654 2.03271 12.5068 2.03438C12.3586 2.03861 12.339 2.06398 12.2383 2.21605C12.2343 2.22203 12.2297 2.22776 12.2246 2.23285C12.1913 2.26639 12.14 2.27407 12.0937 2.26445C12.0721 2.25997 12.05 2.25677 12.0278 2.25358C11.9677 2.24495 11.9077 2.23631 11.8603 2.20213C11.7913 2.1523 11.7592 2.03571 11.6755 2.05111C11.6172 2.06183 11.5653 2.10507 11.5241 2.14757C11.5008 2.17156 11.4912 2.19759 11.4927 2.22844C11.4967 2.31524 11.5298 2.39824 11.5025 2.48073C11.4866 2.52864 11.4708 2.57655 11.4708 2.60849C11.4708 2.628 11.4589 2.64155 11.4425 2.65096C11.3937 2.67892 11.3371 2.62694 11.3121 2.57655C11.2822 2.51628 11.2964 2.44918 11.3108 2.38344C11.3641 2.13956 11.1967 2.03118 10.9772 1.97329C10.9679 1.97083 10.9582 1.96965 10.9485 1.96965C10.9172 1.96965 10.8862 1.98146 10.8686 2.00735C10.8554 2.02672 10.8458 2.0461 10.8362 2.06548C10.8136 2.11088 10.7602 2.09447 10.7268 2.05631C10.6858 2.00939 10.6313 2.0303 10.5633 2.05639C10.5364 2.06671 10.5074 2.07785 10.4762 2.08591C10.4383 2.09574 10.4126 2.05618 10.4334 2.02291C10.4659 1.97086 10.5016 1.92758 10.5481 1.87805C10.5657 1.85924 10.5465 1.83402 10.5246 1.84764C10.4559 1.89042 10.392 1.84013 10.392 1.75916V1.56231C10.392 1.51472 10.3423 1.48479 10.3012 1.5087C10.2265 1.55211 10.1676 1.58635 10.0747 1.58635C9.98901 1.58635 9.93225 1.58635 9.88487 1.56667C9.83859 1.54745 9.79231 1.518 9.75138 1.48909C9.72271 1.46884 9.69045 1.44605 9.65046 1.44151C9.59405 1.43509 9.51262 1.45177 9.46722 1.41768C9.43603 1.39427 9.43298 1.3754 9.40742 1.34595C9.37321 1.30653 9.32584 1.2766 9.27427 1.25917C9.13589 1.2124 8.92407 1.38792 8.87618 1.24991C8.87161 1.23674 8.86905 1.22118 8.86905 1.20304C8.86905 1.01139 8.74214 1.01139 8.61522 1.07527C8.48831 1.13916 8.29794 1.01139 8.23449 0.883622C8.22472 0.863958 8.21646 0.847321 8.209 0.833244C8.14774 0.717548 7.97873 0.820386 7.85205 0.78736C7.81491 0.777677 7.77776 0.757001 7.74062 0.72213C7.68267 0.667723 7.65625 0.581528 7.57765 0.569679C7.51515 0.560257 7.44406 0.580534 7.3851 0.60333C7.15202 0.693454 6.944 0.665266 6.76106 0.582212C6.59066 0.504855 6.42501 0.342164 6.25222 0.414015C6.23706 0.420319 6.22106 0.427792 6.20389 0.436433C5.85474 0.612183 5.5056 0.626766 5.15645 0.529447C5.09321 0.511818 5.02814 0.499938 4.96286 0.492999C4.84842 0.480836 4.71443 0.466595 4.61748 0.564201C4.58575 0.596143 4.55006 0.624093 4.51437 0.652042C4.42788 0.719761 4.3414 0.78748 4.31133 0.911991C4.29833 0.965796 4.33888 1.03701 4.28947 1.06197C4.26564 1.074 4.22641 1.08621 4.20629 1.10377C4.14881 1.15395 4.08173 1.19447 4.01465 1.23498C3.93533 1.2829 3.85601 1.33081 3.79255 1.3947C3.70471 1.48313 3.67389 1.29296 3.57134 1.22211C3.52466 1.18987 3.46966 1.19455 3.41241 1.19942C3.39127 1.20122 3.36981 1.20304 3.34836 1.20304H3.15799H2.96762C3.00115 1.20304 3.01697 1.22088 3.02442 1.24713C3.03916 1.29901 3.07591 1.37712 3.08976 1.42924C3.10006 1.468 3.08106 1.47573 3.06518 1.51256C3.01787 1.62233 3.0421 1.73211 3.06633 1.84188C3.07569 1.8843 3.08506 1.92673 3.09029 1.96915C3.09536 2.01019 3.07817 2.05001 3.04903 2.07935C3.03714 2.09132 3.02332 2.10117 3.00847 2.10918C2.912 2.16123 2.86541 2.21328 2.97164 2.26533C3.00972 2.28398 3.06728 2.29603 3.08152 2.33596C3.10186 2.39295 3.07723 2.4439 3.05888 2.50155C3.03503 2.57649 3.04691 2.62444 3.09453 2.67238C3.13573 2.71385 3.17692 2.75532 3.23547 2.77931C3.27503 2.79553 3.30392 2.85768 3.2849 2.89597C3.26123 2.94364 3.2813 3.01157 3.32565 3.04099C3.40505 3.09367 3.43446 3.16421 3.40041 3.23906C3.3767 3.29119 3.34676 3.34641 3.37872 3.39394C3.40313 3.43025 3.4392 3.46656 3.47527 3.50287C3.50155 3.52933 3.51695 3.5558 3.53499 3.5868C3.54906 3.61098 3.56474 3.63793 3.58845 3.6698C3.63342 3.73023 3.67601 3.8008 3.72909 3.85423C3.7836 3.90911 3.77579 4.0155 3.69904 4.00597C3.66962 4.00232 3.63871 3.98786 3.61029 3.97456C3.57219 3.95673 3.52341 3.91652 3.48413 3.93157C3.48309 3.93197 3.48205 3.93237 3.48099 3.93278C3.44402 3.947 3.41181 3.98217 3.41181 4.02178V4.05355C3.41181 4.06952 3.41545 4.08529 3.42283 4.09945C3.454 4.15927 3.49637 4.23035 3.53873 4.30142C3.61155 4.42362 3.53873 4.59999 3.56542 4.73971C3.56901 4.75851 3.5745 4.77773 3.58166 4.79713C3.59349 4.82919 3.61737 4.85507 3.63372 4.88508C3.65975 4.93288 3.6383 4.97221 3.53873 4.97221C3.49605 4.97221 3.48208 5.0011 3.4775 5.05888C3.47219 5.12591 3.44723 5.18952 3.40535 5.24213C3.34351 5.31983 3.29963 5.40213 3.26029 5.50255C3.24103 5.5517 3.17341 5.5709 3.12626 5.54716C3.05781 5.51271 3.00085 5.45825 2.93257 5.42348C2.84546 5.37912 2.78941 5.38333 2.72564 5.44913C2.66947 5.50708 2.65907 5.59379 2.62673 5.66773C2.61707 5.68984 2.60495 5.70947 2.59135 5.72762C2.55246 5.77953 2.48618 5.80548 2.42824 5.83464C2.36805 5.86494 2.29978 5.85907 2.23339 5.8475C2.00038 5.80691 1.93776 5.83935 1.82541 6.12212C1.76195 6.31377 1.63504 6.44154 1.44467 6.56931C1.35618 6.61385 1.29854 6.68945 1.25025 6.7528C1.21317 6.80143 1.18522 6.8571 1.1618 6.91359C1.08042 7.10996 0.913535 7.20815 0.746652 7.20815C0.714924 7.20815 0.69906 7.22412 0.683196 7.24009C0.650069 7.27345 0.600551 7.29032 0.569668 7.32575C0.414034 7.50434 0.330377 7.72369 0.537262 7.89581C0.548959 7.90554 0.556283 7.91982 0.556283 7.93504C0.556283 7.95814 0.53982 7.97801 0.517243 7.98292C0.253844 8.04016 0.184936 8.10598 0.176484 8.36031C0.175123 8.40125 0.17149 8.44221 0.16739 8.48297C0.136822 8.78682 0.274242 8.96626 0.430999 9.17095C0.45139 9.19758 0.472108 9.22463 0.492827 9.25245C0.746652 9.57187 0.746652 9.63575 0.365914 9.76352C0.0486333 9.8274 -0.0782792 10.1468 0.0486333 10.4662C0.0684935 10.5262 0.0883538 10.5862 0.110159 10.6442C0.200922 10.8857 0.433909 11.0654 0.475633 11.32C0.493314 11.4279 0.467057 11.5354 0.382607 11.6569C0.371757 11.6725 0.358589 11.6864 0.347064 11.7015C0.335862 11.7162 0.327934 11.7312 0.323281 11.7474C0.289884 11.8635 0.492827 11.9425 0.492827 12.0633C0.492827 12.2123 0.557532 12.3396 0.624071 12.4705C0.671662 12.5641 0.720191 12.6595 0.746652 12.7661C0.803523 12.9378 0.962331 13.0583 1.13172 13.1734C1.17016 13.1995 1.21567 13.2133 1.26214 13.2133C1.29871 13.2133 1.3344 13.2035 1.36912 13.1921C1.49217 13.1515 1.65122 13.1657 1.76195 13.2771C1.85815 13.374 2.02548 13.2846 2.15377 13.3312C2.20112 13.3485 2.24156 13.3767 2.2696 13.4049C2.33306 13.4688 2.45997 13.5327 2.52343 13.5327C2.54475 13.5327 2.56607 13.5327 2.58709 13.533C2.76432 13.5355 2.91504 13.7139 3.08973 13.6839C3.13661 13.6759 3.17852 13.6389 3.2494 13.5683C3.2722 13.5456 3.28771 13.4915 3.3164 13.4769C3.34535 13.4622 3.36139 13.4816 3.38395 13.505C3.46607 13.5899 3.52655 13.6695 3.412 13.7049C3.31076 13.7363 3.19982 13.8255 3.24379 13.9219C3.26499 13.9684 3.31796 13.9847 3.34146 14.0301C3.34379 14.0346 3.34607 14.0392 3.34836 14.0438C3.3762 14.0998 3.44239 14.1201 3.4942 14.1553C3.56965 14.2064 3.61764 14.2665 3.66564 14.3632C3.72909 14.5548 3.85601 14.6187 4.04638 14.6187C4.23674 14.6187 4.3002 14.4909 4.3002 14.2993C4.3002 14.1715 4.36366 14.1076 4.49057 14.1076C4.63276 14.1076 4.7092 13.9438 4.84781 13.9121C4.89372 13.9016 4.93962 13.9063 4.98553 13.9109C5.01091 13.9134 5.03629 13.916 5.06168 13.916H5.44241H5.69624C5.73854 13.916 5.7879 13.9231 5.83725 13.9302C5.93596 13.9444 6.03467 13.9586 6.07698 13.916C6.17216 13.8202 6.26734 13.8321 6.36253 13.8441C6.42551 13.852 6.48872 13.8612 6.55078 13.8746C6.65389 13.8967 6.698 13.8895 6.74398 13.812C6.8239 13.6774 6.84066 13.5128 6.91425 13.3745C6.99577 13.2214 7.12733 13.1318 7.30895 13.1374C7.3763 13.1395 7.44455 13.1477 7.50474 13.1174C7.50902 13.1153 7.5133 13.1131 7.51757 13.111C7.56749 13.0863 7.62183 13.0625 7.6691 13.0331C7.72523 12.9982 7.73546 12.9206 7.78378 12.8755C7.83259 12.83 7.89067 12.83 7.98066 12.83C8.14918 12.83 8.18784 12.482 8.33496 12.5642C8.36115 12.5788 8.39071 12.6039 8.42486 12.6383C8.5439 12.7582 8.60711 12.7656 8.66687 12.6606C8.67513 12.6461 8.68468 12.6323 8.69646 12.6204C8.72569 12.591 8.76591 12.5723 8.80657 12.5806C8.86034 12.5915 8.9007 12.616 8.93603 12.6455C8.97799 12.6805 9.02037 12.7163 9.07137 12.736C9.27492 12.8145 9.3767 12.7394 9.3767 12.5105C9.3767 12.4833 9.40705 12.4672 9.4299 12.482C9.48698 12.5191 9.52361 12.538 9.55873 12.5355C9.59969 12.5326 9.63861 12.5007 9.70551 12.4347C9.73898 12.4017 9.78777 12.3814 9.82089 12.4147C9.85402 12.4481 9.90501 12.4289 9.92835 12.3881C9.93546 12.3757 9.94163 12.3633 9.9478 12.3508C9.97486 12.2963 10.0437 12.2993 10.0808 12.3475C10.1236 12.4031 10.1544 12.4387 10.183 12.4592C10.2705 12.522 10.3478 12.6383 10.4555 12.6383C10.5033 12.6383 10.5511 12.7109 10.5718 12.774C10.5832 12.8088 10.5969 12.8445 10.6227 12.8705C10.6379 12.8859 10.6565 12.8975 10.6771 12.904C10.6909 12.9084 10.7044 12.9125 10.7175 12.9165C10.8427 12.9546 10.9301 12.9813 10.9555 13.1184C10.9651 13.1701 11.0057 13.2133 11.0583 13.2133C11.1109 13.2133 11.1589 13.256 11.1822 13.3031C11.1832 13.3051 11.1842 13.3071 11.1852 13.3091C11.1894 13.3176 11.1937 13.3261 11.1976 13.3347C11.2146 13.3715 11.2518 13.4017 11.2804 13.373C11.3135 13.3396 11.359 13.318 11.3975 13.291C11.4174 13.2771 11.4326 13.2771 11.4708 13.2771C11.5342 13.2771 11.5342 13.341 11.5342 13.4049V13.4496C11.5342 13.5037 11.6151 13.5389 11.669 13.5343C11.7024 13.5314 11.7261 13.5599 11.7349 13.5922C11.7408 13.6137 11.7486 13.6371 11.7563 13.6605C11.7716 13.7066 11.8452 13.7273 11.8761 13.6898C11.8878 13.6756 11.8988 13.6619 11.9092 13.6489C11.9837 13.5562 12.1083 13.4921 12.2136 13.5474C12.2171 13.5493 12.2206 13.5511 12.2242 13.553C12.3081 13.5976 12.4143 13.5477 12.4988 13.5911C12.54 13.6123 12.5593 13.6602 12.5817 13.716C12.591 13.7392 12.6008 13.7637 12.613 13.7882C12.6592 13.9277 12.739 14.0673 12.828 14.2068C12.8726 14.2768 12.9696 14.2632 13.0265 14.2028C13.0462 14.1819 13.0758 14.1751 13.0993 14.1586C13.1072 14.1531 13.1139 14.1463 13.1206 14.1396C13.1365 14.1236 13.1523 14.1076 13.1841 14.1076C13.2233 14.1076 13.2383 14.132 13.259 14.1658C13.2718 14.1866 13.2867 14.211 13.311 14.2354C13.3352 14.2598 13.3502 14.2842 13.363 14.3051C13.3644 14.3073 13.3657 14.3095 13.3671 14.3117C13.3991 14.3635 13.4715 14.3716 13.5142 14.415C13.54 14.4411 13.5474 14.4673 13.5407 14.4935C13.529 14.5392 13.5029 14.5852 13.4696 14.6187C13.4364 14.6522 13.4572 14.7011 13.4845 14.7396C13.4905 14.748 13.4963 14.7566 13.5019 14.7651C13.5454 14.8316 13.5445 14.9164 13.5031 14.9841C13.5006 14.9882 13.4981 14.9923 13.4956 14.9963C13.4446 15.0794 13.4656 15.1784 13.4523 15.275C13.441 15.3569 13.3988 15.4268 13.3587 15.4931C13.3415 15.5215 13.3248 15.5493 13.311 15.577C13.2508 15.6678 13.2334 15.7443 13.2453 15.8201C13.2727 15.9947 13.5368 15.9675 13.5996 16.1327C13.6145 16.1716 13.6261 16.2372 13.6305 16.2787C13.6333 16.3047 13.6395 16.3307 13.6535 16.3567C13.6736 16.3941 13.7046 16.4245 13.7293 16.459C13.7941 16.5494 13.8235 16.597 13.8621 16.6063C13.909 16.6176 13.9696 16.5723 14.124 16.4785C14.1318 16.4738 14.1407 16.4714 14.1497 16.4714C14.1772 16.4714 14.1994 16.4936 14.1994 16.521V16.6187C14.1994 16.6476 14.1903 16.6756 14.1766 16.7011C14.0824 16.8772 14.1383 17.0534 14.1966 17.2295C14.1984 17.2351 14.1994 17.241 14.1994 17.2468C14.1994 17.2772 14.1747 17.3018 14.1444 17.3018H14.1177C14.0927 17.3018 14.0725 17.3221 14.0725 17.3471C14.0725 17.359 14.077 17.3707 14.0864 17.3781C14.1173 17.4021 14.1583 17.4158 14.1994 17.4296C14.2126 17.434 14.2258 17.4385 14.2386 17.4432C14.2998 17.4659 14.3236 17.5309 14.2946 17.5893C14.2787 17.6213 14.2628 17.6532 14.2628 17.6852C14.2628 17.8768 14.3263 17.9407 14.4532 17.9407C14.5487 17.9407 14.5837 18.0598 14.6424 18.1351C14.6901 18.1962 14.7472 18.1962 14.8339 18.1962C14.8339 18.1962 14.8974 18.1962 14.9608 18.2601C15.0878 18.3879 15.0878 18.5156 15.0878 18.7073V19.2739C15.0878 19.3611 15.1237 19.4434 15.1948 19.4939C15.2402 19.5263 15.2927 19.5636 15.3469 19.6111C15.3853 19.6446 15.4403 19.676 15.4222 19.7237C15.4105 19.7546 15.3699 19.7758 15.3384 19.766C15.2696 19.7446 15.2009 19.7452 15.1322 19.7779C15.0653 19.8098 14.9701 19.8134 14.8969 19.8012C14.8241 19.7891 14.77 19.7328 14.7512 19.6615C14.7372 19.6082 14.7166 19.5516 14.6934 19.4877C14.677 19.4427 14.6101 19.4428 14.5927 19.4873C14.5607 19.569 14.5287 19.6388 14.4967 19.7049C14.4714 19.7573 14.4117 19.7887 14.3602 19.7617C14.2428 19.7001 14.2251 19.5806 14.207 19.4581C14.2044 19.4403 14.2017 19.4224 14.1988 19.4046C14.1843 19.3179 14.0869 19.317 14.0478 19.3958L14.0221 19.4476C13.9907 19.5108 13.9043 19.509 13.8821 19.442C13.8788 19.4319 13.8755 19.4219 13.872 19.4118C13.8608 19.3789 13.7988 19.3853 13.7788 19.4138C13.7661 19.4319 13.7552 19.4474 13.7552 19.4739C13.7552 19.5378 13.7552 19.6017 13.6917 19.6656C13.6701 19.6874 13.6484 19.7017 13.6268 19.7112C13.5621 19.7394 13.5014 19.6722 13.5014 19.6017V19.2823C13.5014 19.2503 13.4855 19.2343 13.4696 19.2184C13.4409 19.1895 13.394 19.1537 13.3791 19.1916C13.3781 19.194 13.3773 19.1966 13.3766 19.1993C13.3736 19.2116 13.3716 19.2244 13.3655 19.2355C13.3373 19.2869 13.3086 19.3145 13.2737 19.3292C13.1798 19.3688 13.0603 19.3094 12.973 19.362C12.9481 19.377 12.9249 19.3972 12.9058 19.4202C12.8234 19.5195 12.8588 19.6652 12.8747 19.7933C12.8906 19.9214 12.9291 20.0597 13.0128 20.158C13.0177 20.1637 13.0226 20.1694 13.0276 20.1752C13.0506 20.2019 13.0746 20.2296 13.0954 20.261C13.1137 20.2885 13.1274 20.3064 13.1128 20.3361C13.0981 20.366 13.0415 20.3759 13.0121 20.3918C12.8291 20.4908 12.8096 20.5549 12.8478 20.6905C12.8593 20.7313 12.8668 20.7732 12.8668 20.8155V20.9008C12.8668 20.9595 12.8192 21.0071 12.7605 21.0071C12.7469 21.0071 12.7332 21.0044 12.7205 20.9995C12.42 20.8821 12.3591 20.9498 12.3591 21.2627V21.3904C12.3591 21.5821 12.2957 21.646 12.1688 21.646C12.1349 21.646 12.1055 21.6505 12.0807 21.6596C11.9664 21.7016 11.8406 21.773 11.7651 21.8685C11.7463 21.8923 11.7506 21.9343 11.7676 22.0087C11.7804 22.065 11.8024 22.1186 11.8254 22.1716C11.8575 22.2457 11.8766 22.3197 11.8455 22.3937C11.8204 22.4535 11.7508 22.4737 11.6929 22.4445C11.6611 22.4285 11.6294 22.4126 11.5977 22.4126C11.5164 22.4126 11.4372 22.4555 11.3561 22.4601C11.3176 22.4624 11.2782 22.4541 11.2464 22.4353C11.2258 22.4232 11.2035 22.4126 11.1796 22.4126C11.1301 22.4126 11.09 22.4527 11.09 22.5022V22.5161C11.09 22.532 11.0939 22.5477 11.1003 22.5623C11.1219 22.6109 11.1353 22.659 11.1476 22.703C11.1529 22.7221 11.158 22.7403 11.1634 22.7576C11.186 22.8287 11.1863 22.922 11.2402 22.9736C11.2623 22.9947 11.2953 22.9921 11.3237 23.0035C11.4231 23.0437 11.5049 23.1002 11.5796 23.1518C11.6301 23.1867 11.6773 23.2193 11.7246 23.2431C11.763 23.2624 11.8073 23.2818 11.8556 23.3029C11.899 23.3219 11.9458 23.3423 11.9945 23.3655C12.1251 23.4275 12.2922 23.3616 12.2954 23.2172C12.2962 23.1803 12.3028 23.1609 12.3239 23.1306C12.3779 23.0528 12.432 23.0609 12.4861 23.1153C12.586 23.216 12.6335 23.2637 12.6744 23.2587C12.7072 23.2546 12.7357 23.2168 12.7835 23.1451C12.7959 23.1266 12.8168 23.1153 12.8391 23.1153C12.8568 23.1153 12.8736 23.1227 12.8873 23.1339C12.9122 23.1541 12.9371 23.1667 12.962 23.1792C13.0125 23.2046 13.0814 23.1887 13.1177 23.1453C13.1597 23.0952 13.2136 23.0652 13.3018 23.0552C13.348 23.0499 13.3929 23.0328 13.4257 22.9998C13.4338 22.9917 13.4427 22.9843 13.4524 22.978C13.6379 22.8567 13.8235 22.8007 14.009 22.9875C14.0332 23.0119 14.0482 23.0363 14.061 23.0572C14.0946 23.1119 14.1615 23.1412 14.2141 23.178C14.2299 23.1891 14.2464 23.2001 14.2628 23.2111C14.3504 23.2699 14.4786 23.326 14.4679 23.431C14.4667 23.4429 14.4647 23.4555 14.4625 23.469C14.4581 23.4961 14.4532 23.5268 14.4532 23.5625C14.4532 23.634 14.5497 23.6238 14.5815 23.5597L14.6796 23.3621C14.6976 23.3258 14.7077 23.2858 14.7048 23.2454C14.6983 23.1526 14.6782 23.0773 14.6628 23.0195C14.6489 22.9672 14.6 22.9185 14.548 22.9032C14.5443 22.9021 14.5404 22.901 14.5366 22.8998C14.4603 22.8774 14.4169 22.7569 14.4569 22.6882C14.4857 22.6387 14.483 22.5717 14.4321 22.5457C14.4285 22.5439 14.425 22.5421 14.4215 22.5403C14.3571 22.508 14.3351 22.4342 14.3468 22.3631C14.3641 22.2571 14.3757 22.1578 14.3868 22.0627C14.4024 21.9289 14.417 21.8031 14.4456 21.6781C14.4499 21.6592 14.4668 21.646 14.4862 21.646C14.5044 21.646 14.5207 21.6576 14.5253 21.6752C14.5402 21.7322 14.5461 21.7941 14.5522 21.8576C14.5632 21.9719 14.5747 22.0917 14.6399 22.1992C14.6736 22.2548 14.7465 22.2654 14.8058 22.2387C14.9203 22.1872 15.0543 22.1269 15.1512 22.0293C15.2147 21.9654 15.294 21.9015 15.3733 21.8376C15.3778 21.834 15.3823 21.8304 15.3867 21.8268C15.5292 21.712 15.6397 21.5607 15.7806 21.444C15.8228 21.4091 15.8677 21.3718 15.9127 21.3265C15.9444 21.2946 15.9761 21.2467 16.0079 21.1988C16.0665 21.1103 16.1497 21.0436 16.2278 20.9718C16.3013 20.9043 16.365 20.83 16.4247 20.7603C16.5042 20.6676 16.6001 20.5903 16.6816 20.4992C16.821 20.3434 16.9151 20.1474 17.0012 19.9678C17.0362 19.8949 17.0584 19.8149 17.0838 19.7381C17.0847 19.7352 17.0857 19.7323 17.0866 19.7294C17.0969 19.6983 17.1072 19.6672 17.1132 19.6404C17.1187 19.6159 17.1293 19.5922 17.142 19.5706C17.1682 19.5257 17.1772 19.4663 17.1802 19.4154C17.1818 19.3899 17.2127 19.3772 17.2307 19.3953C17.2394 19.4041 17.2528 19.4063 17.2637 19.4005C17.2901 19.3866 17.3138 19.3728 17.3361 19.3599C17.4107 19.3165 17.4696 19.2823 17.5626 19.2823C17.6368 19.2823 17.7206 19.2628 17.8066 19.2429C17.9412 19.2118 18.081 19.1794 18.1971 19.2184C18.4761 19.2745 18.657 19.2319 18.7829 19.0036C18.8167 18.9422 18.7994 18.866 18.7682 18.8031C18.7663 18.7992 18.7643 18.7953 18.7623 18.7913C18.7453 18.7575 18.7876 18.7335 18.8167 18.7578C18.8349 18.7729 18.8452 18.7575 18.8619 18.7408L18.8681 18.7345C18.9064 18.696 18.9566 18.7299 18.9295 18.7769C18.9182 18.7964 18.9066 18.8157 18.8951 18.8351C18.8639 18.8874 18.8327 18.9398 18.806 18.9966C18.7848 19.0418 18.8188 19.1001 18.8634 19.1225C18.9174 19.1497 18.9682 19.114 18.9974 19.061C19.0251 19.0109 19.055 18.9899 19.0917 18.9886C19.1496 18.9865 19.1933 19.0364 19.2344 19.0772C19.2644 19.1071 19.2983 19.1351 19.3342 19.1648C19.3625 19.1883 19.3921 19.2128 19.4221 19.2401C19.4443 19.2603 19.4798 19.2543 19.4922 19.2271C19.5328 19.1376 19.5496 19.1006 19.6566 19.1545C19.6655 19.159 19.6741 19.1631 19.6824 19.167C19.7387 19.3461 19.8754 19.3461 19.9739 19.3461C20.0373 19.3461 20.0849 19.3621 20.1325 19.3781C20.1743 19.3921 20.2161 19.4061 20.2687 19.4093C20.2878 19.4281 20.3052 19.4509 20.3218 19.478C20.3423 19.5112 20.3304 19.5541 20.2982 19.5761C20.1487 19.6783 20.074 19.7294 19.847 19.7294C19.8153 19.7294 19.7835 19.7454 19.7518 19.7614C19.713 19.7809 19.6886 19.842 19.7167 19.875C19.7784 19.9476 19.8266 19.9621 19.8846 19.9304C19.9451 19.8972 20.0152 19.8794 20.0801 19.903C20.0981 19.9095 20.1153 19.9153 20.1325 19.9211C20.1694 19.9335 20.2063 19.9458 20.2505 19.9656C20.2777 19.9778 20.3019 19.9958 20.3229 20.0169C20.3439 20.0381 20.3682 20.0556 20.3948 20.0692C20.4184 20.0812 20.442 20.0934 20.4656 20.1063C20.6419 20.2026 20.7249 20.4961 20.9257 20.4961C20.9575 20.4961 20.9892 20.512 21.0209 20.528C21.0804 20.558 21.1461 20.5794 21.2107 20.5957C21.3061 20.6199 21.4015 20.608 21.4968 20.5599C21.5655 20.5254 21.6526 20.4909 21.7483 20.4664C21.9134 20.4242 22.0903 20.3898 22.2583 20.418C22.291 20.4235 22.3236 20.4289 22.3563 20.4311C22.3753 20.4324 22.394 20.4368 22.4114 20.4448C22.4897 20.4808 22.54 20.4845 22.5623 20.4185C22.5759 20.3783 22.6329 20.3492 22.6708 20.3683C22.7025 20.3843 22.7342 20.4002 22.766 20.4322C22.8009 20.4674 22.8579 20.4674 22.8929 20.4322C22.9279 20.397 22.9853 20.3974 23.0291 20.4207C23.0366 20.4247 23.044 20.4284 23.0515 20.4322C23.0832 20.4481 23.115 20.4641 23.1467 20.4961C23.1784 20.528 23.2102 20.544 23.2419 20.5599C23.31 20.5942 23.3718 20.644 23.447 20.6568C23.5891 20.681 23.7668 20.6585 23.7178 20.5599C23.6762 20.4342 23.7438 20.391 23.7952 20.3581C23.8188 20.343 23.8775 20.3397 23.8937 20.3625C23.9956 20.5065 23.9854 20.6763 23.9764 20.8263C23.9719 20.9012 24.0027 20.9746 24.0741 20.9974C24.0909 21.0028 24.1088 21.0078 24.1273 21.0131C24.1558 21.0211 24.1859 21.0296 24.2168 21.0406C24.2473 21.0514 24.2472 21.0903 24.2172 21.1025C24.1274 21.1391 23.9182 21.2131 23.8237 21.2347C23.8013 21.2398 23.7814 21.2499 23.7639 21.2649C23.7279 21.2958 23.6878 21.3265 23.6404 21.3265H23.6039C23.555 21.3265 23.5078 21.3463 23.466 21.3718C23.3202 21.4607 23.0032 21.5816 22.7708 21.6703C22.7136 21.6921 22.6614 21.712 22.6183 21.729C22.5473 21.7569 22.4851 21.8033 22.417 21.8376C22.3488 21.8719 22.3053 21.9406 22.2411 21.9818C22.2251 21.9921 22.2083 22.0017 22.1915 22.0112C22.1583 22.0301 22.1254 22.0489 22.1006 22.0721C22.0422 22.1269 21.9855 22.2209 21.9054 22.2209C21.8871 22.2209 21.8691 22.2253 21.8525 22.2332C21.8294 22.2442 21.8046 22.2554 21.7788 22.267C21.7029 22.3012 21.6184 22.3392 21.5418 22.3895C21.4646 22.44 21.3848 22.4896 21.317 22.5521C21.3119 22.5568 21.3071 22.5615 21.3025 22.5664C21.2217 22.6534 21.1885 22.8147 21.2773 22.8936C21.2973 22.9114 21.3221 22.9277 21.3491 22.9432C21.4034 22.9744 21.466 22.9875 21.5286 22.9875C21.5912 22.9875 21.6533 22.9736 21.7069 22.9413C21.7204 22.9331 21.733 22.9253 21.7449 22.9179C21.8274 22.8666 21.9238 22.8387 22.0199 22.8251C22.2182 22.7971 22.3614 22.8692 22.5025 22.9884C22.6424 23.1066 22.7521 23.2619 22.905 23.3627C22.9463 23.3899 22.9889 23.418 23.0285 23.4497C23.0651 23.4791 23.1136 23.5 23.1467 23.4667C23.1626 23.4507 23.1784 23.4347 23.2102 23.4347C23.2658 23.4347 23.3214 23.4102 23.3717 23.388C23.4727 23.3434 23.5813 23.3923 23.6648 23.4645C23.6942 23.4899 23.7221 23.5179 23.7477 23.5473C23.8228 23.634 23.8832 23.7365 23.9141 23.847C23.9202 23.8688 23.9265 23.8917 23.934 23.9151C23.9545 23.9789 23.9721 24.0446 23.9792 24.1112C23.9912 24.2229 24.0043 24.3446 23.9082 24.393C23.7644 24.4895 23.7292 24.586 23.7479 24.71C23.7612 24.7981 23.7881 24.8865 23.7722 24.9742C23.7681 24.9972 23.762 25.0201 23.7532 25.041C23.7363 25.081 23.7093 25.117 23.6832 25.1517C23.5627 25.3124 23.4435 25.5173 23.6229 25.6077C23.655 25.6238 23.6899 25.6382 23.7277 25.652C23.763 25.6649 23.8021 25.663 23.8375 25.6756C23.8561 25.6822 23.8716 25.6978 23.9082 25.7346C24.0869 25.9145 24.2097 25.9818 24.3816 25.9365C24.4045 25.9305 24.4279 25.9262 24.4516 25.9262C24.5099 25.9262 24.5633 25.9546 24.6158 25.98C24.6831 26.0124 24.7503 26.0014 24.8175 25.9754C24.8897 25.9475 24.9522 25.8964 25.0253 25.8709C25.0336 25.868 25.042 25.8651 25.0504 25.8623C25.098 25.8464 25.1456 25.8304 25.1773 25.7984C25.209 25.7665 25.2566 25.7346 25.3042 25.7026C25.3117 25.6976 25.3191 25.6926 25.3265 25.6876C25.3669 25.6603 25.4293 25.6832 25.4473 25.7284C25.4612 25.7631 25.5112 25.7633 25.5223 25.7276C25.5372 25.6797 25.5476 25.6273 25.558 25.5748C25.5739 25.495 25.5898 25.4151 25.6215 25.3512C25.6532 25.2874 25.7008 25.2235 25.7484 25.1596C25.7802 25.117 25.8119 25.0743 25.839 25.0317C25.8631 24.9937 25.9071 24.9679 25.9388 24.936C25.9731 24.9015 26.0256 24.8958 26.0725 24.8828C26.091 24.8777 26.1092 24.873 26.1272 24.8683C26.184 24.8534 26.2382 24.8393 26.2859 24.8183C26.4179 24.7604 26.5438 24.6485 26.688 24.6485H26.7098C26.7849 24.6485 26.8541 24.6153 26.9127 24.5682C26.923 24.5599 26.9334 24.5524 26.9437 24.5458C26.9865 24.5189 27.0376 24.5409 27.0732 24.5768L27.1265 24.6305C27.1714 24.6756 27.243 24.6736 27.2714 24.6166C27.2872 24.5846 27.3031 24.5527 27.3348 24.5208L27.6074 24.2464C27.636 24.2175 27.6749 24.2013 27.7155 24.2013C27.7473 24.2013 27.7949 24.2173 27.8425 24.2333C27.8639 24.2405 27.8853 24.2477 27.9053 24.2534C27.94 24.2633 27.9751 24.2363 27.9937 24.2054C28.0195 24.1626 28.0496 24.1125 27.9961 24.0404C27.9806 24.0195 27.9694 23.995 27.9694 23.969C27.9694 23.9537 27.9725 23.9385 27.9812 23.926C28.0652 23.8053 28.3567 23.6936 28.477 23.7541C28.5246 23.7861 28.5762 23.814 28.6277 23.842C28.7207 23.8924 28.8136 23.9428 28.8833 24.0165C28.9476 24.0845 29.0877 24.1402 29.1809 24.1319C29.2457 24.1261 29.3116 24.1202 29.37 24.0747C29.4134 24.0409 29.4619 24.0097 29.5169 24.0097C29.5425 24.0097 29.5676 24.0159 29.5909 24.0265C29.6376 24.0478 29.676 24.0607 29.7144 24.0736C29.7527 24.0864 29.7909 24.0992 29.8374 24.1204C29.8539 24.1279 29.8731 24.1161 29.8731 24.0979C29.8731 24.0845 29.8841 24.0737 29.8972 24.0707C29.9209 24.0655 29.9446 24.0535 29.9682 24.0416C30.0278 24.0117 30.0939 23.9922 30.1574 23.9721C30.1896 23.962 30.2217 23.9539 30.2538 23.9458C30.3545 23.9205 30.3807 23.8063 30.3357 23.7128C30.231 23.4957 30.2869 23.3198 30.4522 23.2111C30.4849 23.1896 30.5076 23.1545 30.5076 23.1153C30.5076 23.0452 30.5644 22.9875 30.6345 22.9875H30.6726C30.7217 22.9875 30.7614 22.9477 30.7614 22.8987C30.7614 22.8276 30.6813 22.7891 30.6115 22.8025C30.5478 22.8147 30.5078 22.7913 30.473 22.7599C30.4534 22.7423 30.4312 22.7272 30.4057 22.7205C30.3273 22.7001 30.2598 22.7001 30.1983 22.7001C30.1269 22.7001 30.0634 22.7001 30 22.6681C29.7537 22.5441 29.5672 22.6607 29.4404 22.9012C29.4326 22.916 29.4229 22.9297 29.4111 22.9415C29.3819 22.971 29.3419 22.9887 29.3009 22.9823C29.2109 22.9683 29.1209 22.9276 29.031 22.8829C29.0025 22.8688 28.9847 22.8397 28.9847 22.808V22.6912C28.9847 22.6592 28.9427 22.6397 28.9155 22.6566C28.8587 22.6919 28.8533 22.7658 28.8326 22.8294C28.7578 23.0591 28.5971 23.1686 28.3505 23.2289C28.3083 23.2392 28.2644 23.2434 28.2232 23.2573C28.1809 23.2715 28.1386 23.2857 28.0963 23.2431C28.0303 23.1766 27.9643 23.1179 27.9009 23.0615C27.7815 22.9552 27.6716 22.8572 27.5886 22.732C27.2079 22.2209 26.8906 21.7737 26.7002 21.1988C26.6861 21.1633 26.6713 21.1278 26.6564 21.0923C26.5457 20.8285 26.4351 20.5646 26.6463 20.3008C26.6786 20.2604 26.7293 20.2405 26.7811 20.2405C26.8114 20.2405 26.8413 20.2334 26.8683 20.2198C26.9115 20.1979 26.9538 20.176 26.9929 20.1542C27.0991 20.0947 27.1663 19.9884 27.2372 19.8894C27.2395 19.8862 27.2419 19.8829 27.2442 19.8797C27.2548 19.865 27.2654 19.8501 27.2757 19.8352C27.3434 19.7376 27.4996 19.6733 27.4788 19.7902C27.4771 19.7997 27.4751 19.8092 27.4728 19.8187C27.467 19.8426 27.4916 19.8846 27.5129 19.8968C27.5549 19.9208 27.5637 19.9722 27.547 20.0175C27.5389 20.0395 27.532 20.0601 27.5252 20.0808ZM19.9104 18.0685C19.9104 18.2471 19.8151 18.4146 19.8467 18.5904C19.8801 18.7758 19.9587 18.9871 20.0373 19.0267C20.1008 19.0587 20.1484 19.0906 20.196 19.1225C20.2878 19.1842 20.3984 19.146 20.5027 19.1094C20.5502 19.0927 20.6027 19.095 20.6557 19.1395C20.6665 19.1486 20.6721 19.1648 20.6717 19.1788C20.6704 19.2262 20.6891 19.2827 20.7364 19.2797C20.8018 19.2756 20.8608 19.2649 20.9027 19.2371C20.919 19.2263 20.9354 19.2153 20.9537 19.2084C21.0367 19.1769 21.1081 19.1337 21.1796 19.0906C21.2542 19.0455 21.3289 19.0004 21.4169 18.9686C21.4278 18.9647 21.4503 18.9634 21.461 18.9679C21.5062 18.987 21.463 19.0344 21.4183 19.0548C21.3497 19.0861 21.2846 19.1324 21.2187 19.1793C21.0945 19.2677 20.9674 19.3582 20.8085 19.3544C20.7704 19.3535 20.7402 19.383 20.7671 19.41C20.783 19.426 20.7988 19.442 20.7988 19.4739C20.7988 19.4208 20.8426 19.4119 20.8938 19.4103C20.9114 19.4098 20.9257 19.4243 20.9257 19.442C20.9257 19.4596 20.9114 19.4741 20.8941 19.4776C20.866 19.4833 20.8324 19.4946 20.7988 19.5058C20.717 19.5333 20.6324 19.516 20.5538 19.4803C20.4663 19.4404 20.3787 19.41 20.2912 19.41C20.2834 19.41 20.276 19.4098 20.2687 19.4093C20.2256 19.3672 20.1737 19.3461 20.1008 19.3461C20.0739 19.3461 20.0584 19.3461 20.0446 19.3413C19.9867 19.3207 19.9465 19.2668 19.8892 19.2445C19.8632 19.2345 19.8392 19.2264 19.8152 19.2184C19.7743 19.2046 19.7334 19.1909 19.6824 19.167C19.6418 19.0377 19.6902 18.8978 19.6799 18.7627C19.6768 18.7221 19.6692 18.6815 19.6566 18.6434C19.6493 18.6287 19.6428 18.614 19.6373 18.5994C19.5623 18.4009 19.816 18.2585 19.9104 18.0685ZM19.7201 17.8768C19.7201 17.9087 19.7359 17.9247 19.7518 17.9407C19.7805 17.9696 19.8178 18.0059 19.8533 18.0258C19.8865 18.0443 19.9104 18.0685 19.9104 18.0685C19.8053 18.0685 19.7201 17.9819 19.7201 17.8768ZM19.6494 17.8094C19.6731 17.812 19.6797 17.7751 19.664 17.7571C19.6542 17.7458 19.6628 17.7402 19.6697 17.7269C19.7237 17.6242 19.6701 17.5393 19.6144 17.4509C19.5726 17.3848 19.5297 17.3168 19.5297 17.238C19.5297 17.3128 19.5515 17.3657 19.5695 17.4096C19.5823 17.4406 19.5932 17.467 19.5932 17.4935V17.5536C19.5932 17.597 19.5737 17.637 19.5496 17.673C19.4973 17.7514 19.5384 17.7968 19.6494 17.8094ZM15.5323 8.44432C15.5323 6.00143 17.5065 4.01398 19.933 4.01398C22.3595 4.01398 24.3336 6.00143 24.3336 8.44432C24.3336 9.44356 23.6374 11.0904 22.2642 13.339C21.2603 14.983 20.2421 16.3705 20.232 16.3843C20.0836 16.586 19.7823 16.586 19.634 16.3843C19.6238 16.3705 18.6057 14.983 17.6017 13.339C16.2286 11.0904 15.5323 9.44356 15.5323 8.44432ZM17.4165 8.37567C17.4165 9.77261 18.5454 10.9091 19.933 10.9091C21.3206 10.9091 22.4495 9.77261 22.4495 8.37567C22.4495 6.97873 21.3206 5.84221 19.933 5.84221C18.5454 5.84221 17.4165 6.9787 17.4165 8.37567Z" fill="#A6A9B0"/>
</svg>
