<svg width="92" height="36" viewBox="0 0 92 36" fill="none" xmlns="http://www.w3.org/2000/svg">
<path d="M28.5938 17.3394L19.9851 11.8612C19.7441 11.7086 19.4388 11.6984 19.1876 11.8354C18.938 11.9731 18.7822 12.236 18.7822 12.5217V23.4782C18.7822 23.7639 18.938 24.0268 19.1884 24.1646C19.3058 24.2287 19.4349 24.2608 19.5648 24.2608C19.7112 24.2608 19.8575 24.2194 19.9851 24.1387L28.5938 18.6605C28.8192 18.5165 28.9561 18.2676 28.9561 18C28.9561 17.7323 28.8192 17.4834 28.5938 17.3394ZM20.3474 22.0531V13.9468L26.7155 18L20.3474 22.0531Z" fill="#A6A9B0"/>
<path d="M44.6087 0H36.7826H8.6087H0.782609C0.350609 0 0 0.349826 0 0.782609V9.3913V18V26.6087V35.2174C0 35.6502 0.350609 36 0.782609 36H8.6087H36.7826H44.6087C45.0407 36 45.3913 35.6502 45.3913 35.2174V26.6087V18V9.3913V0.782609C45.3913 0.349826 45.0407 0 44.6087 0ZM7.82609 17.2174H1.56522V10.1739H7.82609V17.2174ZM1.56522 18.7826H7.82609V25.8261H1.56522V18.7826ZM9.3913 26.6087V18V9.3913V1.56522H36V9.3913V18V26.6087V34.4348H9.3913V26.6087ZM43.8261 17.2174H37.5652V10.1739H43.8261V17.2174ZM37.5652 18.7826H43.8261V25.8261H37.5652V18.7826ZM43.8261 1.56522V8.6087H37.5652V1.56522H43.8261ZM1.56522 1.56522H7.82609V8.6087H1.56522V1.56522ZM1.56522 34.4348V27.3913H7.82609V34.4348H1.56522ZM43.8261 34.4348H37.5652V27.3913H43.8261V34.4348Z" fill="#A6A9B0"/>
<path d="M44.6087 0H36.7826H8.6087H0.782609C0.350609 0 0 0.349826 0 0.782609V9.3913V18V26.6087V35.2174C0 35.6502 0.350609 36 0.782609 36H8.6087H36.7826H44.6087C45.0407 36 45.3913 35.6502 45.3913 35.2174V26.6087V18V9.3913V0.782609C45.3913 0.349826 45.0407 0 44.6087 0ZM7.82609 17.2174H1.56522V10.1739H7.82609V17.2174ZM1.56522 18.7826H7.82609V25.8261H1.56522V18.7826ZM9.3913 26.6087V18V9.3913V1.56522H36V9.3913V18V26.6087V34.4348H9.3913V26.6087ZM43.8261 17.2174H37.5652V10.1739H43.8261V17.2174ZM37.5652 18.7826H43.8261V25.8261H37.5652V18.7826ZM43.8261 1.56522V8.6087H37.5652V1.56522H43.8261ZM1.56522 1.56522H7.82609V8.6087H1.56522V1.56522ZM1.56522 34.4348V27.3913H7.82609V34.4348H1.56522ZM43.8261 34.4348H37.5652V27.3913H43.8261V34.4348Z" fill="#A6A9B0"/>
<path d="M74.5938 17.3394L65.9851 11.8612C65.7441 11.7086 65.4388 11.6984 65.1876 11.8354C64.938 11.9731 64.7822 12.236 64.7822 12.5217V23.4782C64.7822 23.7639 64.938 24.0268 65.1884 24.1646C65.3058 24.2287 65.4349 24.2608 65.5648 24.2608C65.7112 24.2608 65.8575 24.2194 65.9851 24.1387L74.5938 18.6605C74.8192 18.5165 74.9561 18.2676 74.9561 18C74.9561 17.7323 74.8192 17.4834 74.5938 17.3394ZM66.3474 22.0531V13.9468L72.7155 18L66.3474 22.0531Z" fill="#ED0035"/>
<path d="M90.6087 0H82.7826H54.6087H46.7826C46.3506 0 46 0.349826 46 0.782609V9.3913V18V26.6087V35.2174C46 35.6502 46.3506 36 46.7826 36H54.6087H82.7826H90.6087C91.0407 36 91.3913 35.6502 91.3913 35.2174V26.6087V18V9.3913V0.782609C91.3913 0.349826 91.0407 0 90.6087 0ZM53.8261 17.2174H47.5652V10.1739H53.8261V17.2174ZM47.5652 18.7826H53.8261V25.8261H47.5652V18.7826ZM55.3913 26.6087V18V9.3913V1.56522H82V9.3913V18V26.6087V34.4348H55.3913V26.6087ZM89.8261 17.2174H83.5652V10.1739H89.8261V17.2174ZM83.5652 18.7826H89.8261V25.8261H83.5652V18.7826ZM89.8261 1.56522V8.6087H83.5652V1.56522H89.8261ZM47.5652 1.56522H53.8261V8.6087H47.5652V1.56522ZM47.5652 34.4348V27.3913H53.8261V34.4348H47.5652ZM89.8261 34.4348H83.5652V27.3913H89.8261V34.4348Z" fill="#ED0035"/>
<path d="M90.6087 0H82.7826H54.6087H46.7826C46.3506 0 46 0.349826 46 0.782609V9.3913V18V26.6087V35.2174C46 35.6502 46.3506 36 46.7826 36H54.6087H82.7826H90.6087C91.0407 36 91.3913 35.6502 91.3913 35.2174V26.6087V18V9.3913V0.782609C91.3913 0.349826 91.0407 0 90.6087 0ZM53.8261 17.2174H47.5652V10.1739H53.8261V17.2174ZM47.5652 18.7826H53.8261V25.8261H47.5652V18.7826ZM55.3913 26.6087V18V9.3913V1.56522H82V9.3913V18V26.6087V34.4348H55.3913V26.6087ZM89.8261 17.2174H83.5652V10.1739H89.8261V17.2174ZM83.5652 18.7826H89.8261V25.8261H83.5652V18.7826ZM89.8261 1.56522V8.6087H83.5652V1.56522H89.8261ZM47.5652 1.56522H53.8261V8.6087H47.5652V1.56522ZM47.5652 34.4348V27.3913H53.8261V34.4348H47.5652ZM89.8261 34.4348H83.5652V27.3913H89.8261V34.4348Z" fill="#ED0035"/>
</svg>
