<svg width="28" height="30" viewBox="0 0 28 30" fill="none" xmlns="http://www.w3.org/2000/svg">
<path d="M27.2584 4.81026C27.0103 4.64798 26.6969 4.62166 26.4252 4.74068C24.8375 5.43511 22.3917 5.39734 20.042 4.64203C17.4925 3.82241 15.5147 2.30905 14.6161 0.489673C14.4708 0.195561 14.1739 0.00696318 13.8462 9.67186e-05C13.5202 -0.00470978 13.2138 0.169927 13.0568 0.457859C12.0703 2.2651 10.0319 3.79289 7.46427 4.64982C5.08345 5.44449 2.71201 5.48729 1.27533 4.76128C1.00296 4.62372 0.678404 4.63723 0.418395 4.79722C0.158386 4.9572 0 5.24056 0 5.54589C0 9.57831 0.474928 13.1951 1.41197 16.2953C2.21992 18.9688 3.39385 21.3314 4.90103 23.3167C7.65355 26.9424 10.9719 28.6439 13.1675 29.7697L13.4264 29.9025C13.5525 29.9675 13.6903 30 13.8285 30C13.951 30 14.0737 29.9744 14.1883 29.9231C17.0622 28.6336 20.0793 26.9746 22.6766 23.5971C24.2088 21.6046 25.4024 19.214 26.2243 16.4917C27.1744 13.345 27.6562 9.66208 27.6562 5.54589C27.6562 5.24926 27.5067 4.97254 27.2584 4.81026ZM13.8285 23.3592C9.46698 23.3592 5.91841 19.8107 5.91841 15.4491C5.91841 11.0876 9.46698 7.53898 13.8285 7.53898C18.1903 7.53898 21.7387 11.0876 21.7387 15.4491C21.7387 19.8109 18.1903 23.3592 13.8285 23.3592Z" fill="#1A1A1D"/>
<path d="M13.8281 9.29675C10.4304 9.29675 7.67578 12.0513 7.67578 15.4491C7.67578 18.847 10.4304 21.6014 13.8281 21.6014C17.2261 21.6014 19.9804 18.847 19.9804 15.4491C19.9804 12.0513 17.2261 9.29675 13.8281 9.29675ZM16.672 14.2536L13.6281 17.9892C13.461 18.1943 13.2108 18.3131 12.9469 18.3131C12.941 18.3131 12.935 18.3128 12.9291 18.3128C12.6585 18.3073 12.4058 18.1776 12.2436 17.9613L10.6107 15.7832C10.3196 15.3948 10.3986 14.8439 10.787 14.5528C11.1754 14.2616 11.7261 14.3404 12.0172 14.7288L12.9755 16.0071L15.3092 13.1433C15.6159 12.767 16.1696 12.7105 16.5458 13.0172C16.9221 13.3237 16.9787 13.8774 16.672 14.2536Z" fill="#1A1A1D"/>
</svg>
