<svg width="577" height="328" viewBox="0 0 577 328" fill="none" xmlns="http://www.w3.org/2000/svg">
<path d="M258.967 141.795C372.167 141.795 463.934 172.496 463.934 210.368C463.934 248.239 372.167 278.94 258.967 278.94C145.767 278.94 54 248.239 54 210.368C54 172.496 145.767 141.795 258.967 141.795Z" fill="#2A6AF0"/>
<path d="M382.059 105C443.273 105 492.897 121.474 492.897 141.795C492.897 162.116 443.273 178.59 382.059 178.59C320.844 178.59 271.22 162.116 271.22 141.795C271.22 121.474 320.844 105 382.059 105Z" fill="#2A6AF0"/>
<path d="M150.357 252.18C195.575 252.18 232.232 264.411 232.232 279.498C232.232 294.585 195.575 306.815 150.357 306.815C105.138 306.815 68.4812 294.585 68.4812 279.498C68.4812 264.411 105.138 252.18 150.357 252.18Z" fill="#2A6AF0"/>
<path d="M433.3 231.552C512.356 231.552 576.443 253.018 576.443 279.497C576.443 305.977 512.356 327.442 433.3 327.442C354.245 327.442 290.158 305.977 290.158 279.497C290.158 253.018 354.245 231.552 433.3 231.552Z" fill="#2A6AF0"/>
<path opacity="0.8" d="M152.585 186.952C145.901 186.952 142.559 189.74 139.774 191.97C136.989 194.2 135.319 195.872 130.863 195.872C126.407 195.872 124.736 194.2 121.951 191.97C119.166 189.74 115.824 186.952 109.141 186.952C102.457 186.952 99.1151 189.74 96.3302 191.97C93.5454 194.2 91.8744 195.872 87.4186 195.872C85.7477 195.872 84.0768 197.545 84.0768 199.217C84.0768 200.89 85.7477 202.562 87.4186 202.562C94.1023 202.562 97.4442 199.775 100.229 197.545C102.457 195.315 104.685 193.643 109.141 193.643C113.596 193.643 115.267 195.315 118.052 197.545C120.837 199.775 124.179 202.562 130.863 202.562C137.546 202.562 140.888 199.775 143.673 197.545C146.458 195.315 148.129 193.643 152.585 193.643C154.256 193.643 155.927 191.97 155.927 190.298C155.927 188.068 154.256 186.952 152.585 186.952Z" fill="#C2D5FC"/>
<path opacity="0.8" d="M199.928 223.747C193.244 223.747 189.902 226.535 187.117 228.765C184.332 230.995 182.661 232.667 178.206 232.667C173.75 232.667 172.079 230.995 169.294 228.765C166.509 226.535 163.167 223.747 156.484 223.747C149.8 223.747 146.458 226.535 143.673 228.765C140.888 230.995 139.217 232.667 134.762 232.667C133.091 232.667 131.42 234.34 131.42 236.012C131.42 237.685 133.091 239.357 134.762 239.357C141.445 239.357 144.787 236.57 147.572 234.34C150.357 232.11 152.028 230.437 156.484 230.437C160.939 230.437 162.61 232.11 165.395 234.34C168.18 236.57 171.522 239.357 178.206 239.357C184.889 239.357 188.231 236.57 191.016 234.34C193.801 232.11 195.472 230.437 199.928 230.437C201.599 230.437 203.27 228.765 203.27 227.092C203.27 225.42 202.156 223.747 199.928 223.747Z" fill="#C2D5FC"/>
<path opacity="0.8" d="M386.514 118.38C379.831 118.38 376.489 121.168 373.704 123.398C370.919 125.628 369.248 127.3 364.792 127.3C360.337 127.3 358.666 125.628 355.881 123.398C353.096 121.168 349.754 118.38 343.07 118.38C336.387 118.38 333.045 121.168 330.26 123.398C327.475 125.628 325.804 127.3 321.348 127.3C319.677 127.3 318.006 128.973 318.006 130.645C318.006 132.318 319.677 133.99 321.348 133.99C328.032 133.99 331.374 131.203 334.159 128.973C336.944 126.743 338.615 125.07 343.07 125.07C347.526 125.07 349.197 126.743 351.982 128.973C354.767 131.203 358.109 133.99 364.792 133.99C371.476 133.99 374.818 131.203 377.603 128.973C380.388 126.743 382.059 125.07 386.514 125.07C388.185 125.07 389.856 123.398 389.856 121.725C389.856 119.495 388.185 118.38 386.514 118.38Z" fill="#C2D5FC"/>
<path opacity="0.8" d="M291.829 202.563C285.145 202.563 281.803 205.35 279.018 207.58C276.233 209.81 274.562 211.483 270.107 211.483C265.651 211.483 263.98 209.81 261.195 207.58C258.41 205.35 255.068 202.563 248.385 202.563C241.701 202.563 238.359 205.35 235.574 207.58C232.789 209.81 231.118 211.483 226.663 211.483C224.992 211.483 223.321 213.155 223.321 214.828C223.321 216.5 224.992 218.173 226.663 218.173C233.346 218.173 236.688 215.385 239.473 213.155C242.258 210.925 243.929 209.253 248.385 209.253C252.84 209.253 254.511 210.925 257.296 213.155C260.081 215.385 263.423 218.173 270.107 218.173C276.79 218.173 280.132 215.385 282.917 213.155C285.702 210.925 287.373 209.253 291.829 209.253C293.5 209.253 295.171 207.58 295.171 205.908C295.171 203.678 293.5 202.563 291.829 202.563Z" fill="#C2D5FC"/>
<path opacity="0.8" d="M386.514 239.914C379.831 239.914 376.489 242.702 373.704 244.932C370.919 247.162 369.248 248.834 364.792 248.834C360.337 248.834 358.666 247.162 355.881 244.932C353.096 242.702 349.754 239.914 343.07 239.914C336.387 239.914 333.045 242.702 330.26 244.932C327.475 247.162 325.804 248.834 321.348 248.834C319.677 248.834 318.006 250.507 318.006 252.179C318.006 253.852 319.677 255.524 321.348 255.524C328.032 255.524 331.374 252.737 334.159 250.507C336.944 248.277 338.615 246.604 343.07 246.604C347.526 246.604 349.197 248.277 351.982 250.507C354.767 252.737 358.109 255.524 364.792 255.524C371.476 255.524 374.818 252.737 377.603 250.507C380.388 248.277 382.059 246.604 386.514 246.604C388.185 246.604 389.856 244.932 389.856 243.259C389.856 241.587 388.185 239.914 386.514 239.914Z" fill="#C2D5FC"/>
<path opacity="0.8" d="M426.617 202.563C419.933 202.563 416.591 205.35 413.806 207.58C411.021 209.81 409.35 211.483 404.894 211.483C400.439 211.483 398.768 209.81 395.983 207.58C393.198 205.35 389.856 202.563 383.172 202.563C376.489 202.563 373.147 205.35 370.362 207.58C367.577 209.81 365.906 211.483 361.45 211.483C359.779 211.483 358.109 213.155 358.109 214.828C358.109 216.5 359.779 218.173 361.45 218.173C368.134 218.173 371.476 215.385 374.261 213.155C377.046 210.925 378.717 209.253 383.172 209.253C387.628 209.253 389.299 210.925 392.084 213.155C394.869 215.385 398.211 218.173 404.894 218.173C411.578 218.173 414.92 215.385 417.705 213.155C420.49 210.925 422.161 209.253 426.617 209.253C428.287 209.253 429.958 207.58 429.958 205.908C429.958 203.678 428.844 202.563 426.617 202.563Z" fill="#C2D5FC"/>
<path opacity="0.8" d="M467.276 136.778C460.592 136.778 457.25 139.565 454.465 141.795C451.681 144.025 450.01 145.698 445.554 145.698C441.098 145.698 439.427 144.025 436.642 141.795C433.857 139.565 430.516 136.778 423.832 136.778C417.148 136.778 413.806 139.565 411.021 141.795C408.237 144.025 406.566 145.698 402.11 145.698C400.439 145.698 398.768 147.37 398.768 149.043C398.768 150.715 400.439 152.388 402.11 152.388C408.793 152.388 412.135 149.6 414.92 147.37C417.705 145.14 419.376 143.468 423.832 143.468C428.288 143.468 429.959 145.14 432.743 147.37C435.528 149.6 438.87 152.388 445.554 152.388C452.238 152.388 455.579 149.6 458.364 147.37C461.149 145.14 462.82 143.468 467.276 143.468C468.947 143.468 470.618 141.795 470.618 140.123C470.618 138.45 469.504 136.778 467.276 136.778Z" fill="#C2D5FC"/>
<path opacity="0.8" d="M265.094 159.635C258.41 159.635 255.068 162.423 252.283 164.653C249.498 166.883 247.827 168.555 243.372 168.555C238.916 168.555 237.245 166.883 234.46 164.653C231.675 162.423 228.333 159.635 221.65 159.635C214.966 159.635 211.624 162.423 208.839 164.653C206.054 166.883 204.383 168.555 199.928 168.555C198.257 168.555 196.586 170.228 196.586 171.9C196.586 173.573 198.257 175.245 199.928 175.245C206.611 175.245 209.953 172.458 212.738 170.228C215.523 167.998 217.194 166.325 221.65 166.325C226.105 166.325 227.776 167.998 230.561 170.228C233.346 172.458 236.688 175.245 243.372 175.245C250.055 175.245 253.397 172.458 256.182 170.228C258.967 167.998 260.638 166.325 265.094 166.325C266.765 166.325 268.436 164.653 268.436 162.98C268.436 160.75 267.322 159.635 265.094 159.635Z" fill="#C2D5FC"/>
<path opacity="0.8" d="M363.678 167.44C356.995 167.44 353.653 170.227 350.868 172.457C348.083 174.687 346.412 176.36 341.956 176.36C337.501 176.36 335.83 174.687 333.045 172.457C330.26 170.227 326.918 167.44 320.234 167.44C313.551 167.44 310.209 170.227 307.424 172.457C304.639 174.687 302.968 176.36 298.512 176.36C296.841 176.36 295.17 178.032 295.17 179.705C295.17 181.377 296.841 183.05 298.512 183.05C305.196 183.05 308.538 180.262 311.323 178.032C314.108 175.802 315.778 174.13 320.234 174.13C324.69 174.13 326.361 175.802 329.146 178.032C331.931 180.262 335.273 183.05 341.956 183.05C348.64 183.05 351.982 180.262 354.767 178.032C357.552 175.802 359.223 174.13 363.678 174.13C365.349 174.13 367.02 172.457 367.02 170.785C367.02 168.555 365.906 167.44 363.678 167.44Z" fill="#C2D5FC"/>
<path opacity="0.8" d="M280.689 247.72C274.005 247.72 270.664 250.508 267.879 252.738C265.094 254.968 263.423 256.64 258.967 256.64C254.511 256.64 252.84 254.968 250.055 252.738C247.271 250.508 243.929 247.72 237.245 247.72C230.561 247.72 227.219 250.508 224.435 252.738C221.65 254.968 219.979 256.64 215.523 256.64C213.852 256.64 212.181 258.313 212.181 259.985C212.181 261.658 213.852 263.33 215.523 263.33C222.207 263.33 225.549 260.543 228.333 258.313C231.118 256.083 232.789 254.41 237.245 254.41C241.701 254.41 243.372 256.083 246.157 258.313C248.942 260.543 252.283 263.33 258.967 263.33C265.651 263.33 268.993 260.543 271.778 258.313C274.562 256.083 276.233 254.41 280.689 254.41C282.36 254.41 284.031 252.738 284.031 251.065C284.031 249.393 282.36 247.72 280.689 247.72Z" fill="#C2D5FC"/>
<path opacity="0.8" d="M380.945 279.497C374.261 279.497 370.919 282.285 368.134 284.515C365.349 286.745 363.678 288.417 359.223 288.417C354.767 288.417 353.096 286.745 350.311 284.515C347.526 282.285 344.184 279.497 337.501 279.497C330.817 279.497 327.475 282.285 324.69 284.515C321.905 286.745 319.677 288.417 315.222 288.417C313.551 288.417 311.88 290.09 311.88 291.762C311.88 293.435 313.551 295.107 315.222 295.107C321.905 295.107 325.247 292.32 328.032 290.09C330.817 287.86 332.488 286.187 336.944 286.187C341.399 286.187 343.07 287.86 345.855 290.09C348.64 292.32 351.982 295.107 358.666 295.107C365.349 295.107 368.691 292.32 371.476 290.09C374.261 287.86 375.932 286.187 380.388 286.187C382.059 286.187 383.73 284.515 383.73 282.842C384.286 281.17 382.616 279.497 380.945 279.497Z" fill="#C2D5FC"/>
<path opacity="0.8" d="M489.555 252.18C482.871 252.18 479.529 254.968 476.744 257.198C473.96 259.428 472.289 261.1 467.833 261.1C463.377 261.1 461.706 259.428 458.921 257.198C456.136 254.968 452.794 252.18 446.111 252.18C439.427 252.18 436.085 254.968 433.3 257.198C430.515 259.428 428.845 261.1 424.389 261.1C422.718 261.1 421.047 262.773 421.047 264.445C421.047 266.118 422.718 267.79 424.389 267.79C431.072 267.79 434.414 265.003 437.199 262.773C439.984 260.543 441.655 258.87 446.111 258.87C450.567 258.87 452.238 260.543 455.022 262.773C457.807 265.003 461.149 267.79 467.833 267.79C474.517 267.79 477.858 265.003 480.643 262.773C483.428 260.543 485.099 258.87 489.555 258.87C491.226 258.87 492.897 257.198 492.897 255.525C492.897 253.295 491.783 252.18 489.555 252.18Z" fill="#C2D5FC"/>
<path opacity="0.8" d="M472.288 299.01C465.605 299.01 462.263 301.798 459.478 304.028C456.693 306.258 455.022 307.93 450.566 307.93C446.111 307.93 444.44 306.258 441.655 304.028C438.87 301.798 435.528 299.01 428.844 299.01C422.161 299.01 418.819 301.798 416.034 304.028C413.249 306.258 411.578 307.93 407.122 307.93C405.451 307.93 403.781 309.603 403.781 311.275C403.781 312.948 405.451 314.62 407.122 314.62C413.806 314.62 417.148 311.833 419.933 309.603C422.718 307.373 424.389 305.7 428.844 305.7C433.3 305.7 434.971 307.373 437.756 309.603C440.541 311.833 443.883 314.62 450.566 314.62C457.25 314.62 460.592 311.833 463.377 309.603C466.162 307.373 467.833 305.7 472.288 305.7C473.959 305.7 475.63 304.028 475.63 302.355C475.63 300.683 474.516 299.01 472.288 299.01Z" fill="#C2D5FC"/>
<path opacity="0.8" d="M566.417 275.595C559.734 275.595 556.392 278.383 553.607 280.613C550.822 282.843 548.594 284.515 544.138 284.515C539.683 284.515 538.012 282.843 535.227 280.613C532.442 278.383 529.1 275.595 522.416 275.595C515.733 275.595 512.391 278.383 509.606 280.613C506.821 282.843 505.15 284.515 500.694 284.515C499.023 284.515 497.352 286.188 497.352 287.86C497.352 289.533 499.023 291.205 500.694 291.205C507.378 291.205 510.72 288.418 513.505 286.188C516.29 283.958 517.961 282.285 522.416 282.285C526.872 282.285 528.543 283.958 531.328 286.188C534.113 288.418 537.455 291.205 544.138 291.205C550.822 291.205 554.164 288.418 556.949 286.188C559.734 283.958 561.405 282.285 565.86 282.285C567.531 282.285 569.202 280.613 569.202 278.94C569.759 276.71 568.088 275.595 566.417 275.595Z" fill="#C2D5FC"/>
<path opacity="0.8" d="M174.307 271.693C167.623 271.693 164.281 274.48 161.496 276.71C158.711 278.94 157.04 280.613 152.585 280.613C148.129 280.613 146.458 278.94 143.673 276.71C140.888 274.48 137.546 271.693 130.862 271.693C124.179 271.693 120.837 274.48 118.052 276.71C115.267 278.94 113.596 280.613 109.14 280.613C107.47 280.613 105.799 282.285 105.799 283.958C105.799 285.63 107.47 287.303 109.14 287.303C115.824 287.303 119.166 284.515 121.951 282.285C124.736 280.055 126.407 278.383 130.862 278.383C135.318 278.383 136.989 280.055 139.774 282.285C142.559 284.515 145.901 287.303 152.585 287.303C159.268 287.303 162.61 284.515 165.395 282.285C168.18 280.055 169.851 278.383 174.307 278.383C175.978 278.383 177.648 276.71 177.648 275.038C177.648 273.365 175.978 271.693 174.307 271.693Z" fill="#C2D5FC"/>
<g filter="url(#filter0_d)">
<path d="M163.36 176.5V204H115.84V176.5H40.82V133.82L99.78 48.24H163.14V135.58H184.26V176.5H163.36ZM116.5 96.2H115.62L89.66 135.58H116.5V96.2ZM294.303 203.12C285.796 206.64 276.043 208.4 265.043 208.4C254.043 208.4 244.29 206.64 235.783 203.12C227.423 199.453 220.676 194.833 215.543 189.26C210.556 183.687 206.45 177.087 203.223 169.46C200.143 161.833 198.016 154.5 196.843 147.46C195.67 140.273 195.083 132.867 195.083 125.24C195.083 117.613 195.67 110.353 196.843 103.46C198.016 96.42 200.143 89.16 203.223 81.68C206.45 74.2 210.556 67.7467 215.543 62.32C220.676 56.8933 227.423 52.4933 235.783 49.12C244.29 45.6 254.043 43.84 265.043 43.84C276.043 43.84 285.796 45.6 294.303 49.12C302.81 52.4933 309.556 56.8933 314.543 62.32C319.53 67.7467 323.636 74.2 326.863 81.68C330.09 89.16 332.216 96.42 333.243 103.46C334.416 110.353 335.003 117.613 335.003 125.24C335.003 132.867 334.416 140.273 333.243 147.46C332.216 154.5 330.09 161.833 326.863 169.46C323.636 177.087 319.53 183.687 314.543 189.26C309.556 194.833 302.81 199.453 294.303 203.12ZM280.883 125.24C280.883 101.04 275.603 88.94 265.043 88.94C254.483 88.94 249.203 101.04 249.203 125.24C249.203 150.32 254.483 162.86 265.043 162.86C275.603 162.86 280.883 150.32 280.883 125.24ZM471.446 176.5V204H423.926V176.5H348.906V133.82L407.866 48.24H471.226V135.58H492.346V176.5H471.446ZM424.586 96.2H423.706L397.746 135.58H424.586V96.2Z" fill="#F7F9FA"/>
</g>
<path d="M138.015 121C138.015 121 134 126.162 134 129.985C134 132.471 135.784 134 138.015 134C140.245 134 142.029 132.471 142.029 129.985C142.093 126.162 138.015 121 138.015 121Z" fill="#2A6AF0"/>
<path d="M136.167 130.113C136.167 130.878 135.784 131.515 135.402 131.515C135.02 131.515 134.637 130.878 134.637 130.113C134.637 129.348 135.02 128.711 135.402 128.711C135.784 128.711 136.167 129.284 136.167 130.113Z" fill="white"/>
<path d="M138.333 121.383C139.417 123.486 140.627 126.29 140.627 128.648C140.627 131.451 138.843 133.236 136.613 133.236C136.167 133.236 135.784 133.172 135.402 133.045C136.103 133.618 137.059 134 138.078 134C140.309 134 142.093 132.471 142.093 129.986C142.093 126.799 139.289 122.721 138.333 121.383Z" fill="#145AEF"/>
<path d="M73.0147 100C73.0147 100 69 105.162 69 108.985C69 111.471 70.7843 113 73.0147 113C75.2451 113 77.0294 111.471 77.0294 108.985C77.0931 105.162 73.0147 100 73.0147 100Z" fill="#2A6AF0"/>
<path d="M71.1666 109.113C71.1666 109.878 70.7843 110.515 70.4019 110.515C70.0196 110.515 69.6372 109.878 69.6372 109.113C69.6372 108.348 70.0196 107.711 70.4019 107.711C70.7843 107.711 71.1666 108.284 71.1666 109.113Z" fill="white"/>
<path d="M73.3334 100.383C74.4167 102.486 75.6275 105.29 75.6275 107.648C75.6275 110.451 73.8432 112.236 71.6128 112.236C71.1667 112.236 70.7843 112.172 70.402 112.045C71.103 112.618 72.0588 113 73.0784 113C75.3088 113 77.0932 111.471 77.0932 108.986C77.0932 105.799 74.2892 101.721 73.3334 100.383Z" fill="#145AEF"/>
<path d="M124.015 59C124.015 59 120 64.1618 120 67.9853C120 70.4706 121.784 72 124.015 72C126.245 72 128.029 70.4706 128.029 67.9853C128.093 64.1618 124.015 59 124.015 59Z" fill="#2A6AF0"/>
<path d="M122.167 68.1129C122.167 68.8776 121.784 69.5149 121.402 69.5149C121.02 69.5149 120.637 68.8776 120.637 68.1129C120.637 67.3482 121.02 66.7109 121.402 66.7109C121.784 66.7109 122.167 67.2845 122.167 68.1129Z" fill="white"/>
<path d="M124.333 59.3828C125.417 61.4858 126.627 64.2897 126.627 66.6475C126.627 69.4514 124.843 71.2358 122.613 71.2358C122.167 71.2358 121.784 71.172 121.402 71.0446C122.103 71.6181 123.059 72.0005 124.078 72.0005C126.309 72.0005 128.093 70.471 128.093 67.9858C128.093 64.7995 125.289 60.721 124.333 59.3828Z" fill="#145AEF"/>
<path d="M88.0147 166C88.0147 166 84 171.162 84 174.985C84 177.471 85.7843 179 88.0147 179C90.2451 179 92.0294 177.471 92.0294 174.985C92.0931 171.162 88.0147 166 88.0147 166Z" fill="#2A6AF0"/>
<path d="M86.1666 175.113C86.1666 175.878 85.7843 176.515 85.4019 176.515C85.0196 176.515 84.6372 175.878 84.6372 175.113C84.6372 174.348 85.0196 173.711 85.4019 173.711C85.7843 173.711 86.1666 174.284 86.1666 175.113Z" fill="white"/>
<path d="M88.3334 166.383C89.4167 168.486 90.6275 171.29 90.6275 173.648C90.6275 176.451 88.8432 178.236 86.6128 178.236C86.1667 178.236 85.7843 178.172 85.402 178.045C86.103 178.618 87.0588 179 88.0784 179C90.3088 179 92.0932 177.471 92.0932 174.986C92.0932 171.799 89.2892 167.721 88.3334 166.383Z" fill="#145AEF"/>
<path d="M231.25 71C231.25 71 226 77.75 226 82.75C226 86 228.333 88 231.25 88C234.167 88 236.5 86 236.5 82.75C236.583 77.75 231.25 71 231.25 71Z" fill="#2A6AF0"/>
<path d="M228.833 82.9163C228.833 83.9163 228.333 84.7497 227.833 84.7497C227.333 84.7497 226.833 83.9163 226.833 82.9163C226.833 81.9163 227.333 81.083 227.833 81.083C228.333 81.083 228.833 81.833 228.833 82.9163Z" fill="white"/>
<path d="M231.667 71.5C233.083 74.25 234.667 77.9167 234.667 81C234.667 84.6667 232.333 87 229.417 87C228.833 87 228.333 86.9167 227.833 86.75C228.75 87.5 230 88 231.333 88C234.25 88 236.583 86 236.583 82.75C236.583 78.5833 232.917 73.25 231.667 71.5Z" fill="#145AEF"/>
<path d="M293.472 64C293.472 64 290 68.4646 290 71.7716C290 73.9213 291.543 75.2441 293.472 75.2441C295.402 75.2441 296.945 73.9213 296.945 71.7716C297 68.4646 293.472 64 293.472 64Z" fill="#2A6AF0"/>
<path d="M291.874 71.8815C291.874 72.543 291.543 73.0941 291.213 73.0941C290.882 73.0941 290.551 72.543 290.551 71.8815C290.551 71.2201 290.882 70.6689 291.213 70.6689C291.543 70.6689 291.874 71.165 291.874 71.8815Z" fill="white"/>
<path d="M293.748 64.3311C294.685 66.15 295.732 68.5751 295.732 70.6145C295.732 73.0397 294.189 74.583 292.26 74.583C291.874 74.583 291.543 74.5279 291.213 74.4177C291.819 74.9137 292.646 75.2444 293.528 75.2444C295.457 75.2444 297 73.9216 297 71.772C297 69.0161 294.575 65.4885 293.748 64.3311Z" fill="#145AEF"/>
<path d="M207.465 115C207.465 115 203 120.74 203 124.992C203 127.756 204.984 129.457 207.465 129.457C209.945 129.457 211.929 127.756 211.929 124.992C212 120.74 207.465 115 207.465 115Z" fill="#2A6AF0"/>
<path d="M205.409 125.134C205.409 125.985 204.984 126.693 204.559 126.693C204.134 126.693 203.709 125.985 203.709 125.134C203.709 124.284 204.134 123.575 204.559 123.575C204.984 123.575 205.409 124.213 205.409 125.134Z" fill="white"/>
<path d="M207.819 115.425C209.024 117.763 210.37 120.881 210.37 123.504C210.37 126.622 208.386 128.606 205.906 128.606C205.409 128.606 204.984 128.535 204.559 128.393C205.339 129.031 206.402 129.456 207.535 129.456C210.016 129.456 212 127.756 212 124.992C212 121.448 208.882 116.913 207.819 115.425Z" fill="#145AEF"/>
<path d="M237.465 166C237.465 166 233 171.74 233 175.992C233 178.756 234.984 180.457 237.465 180.457C239.945 180.457 241.929 178.756 241.929 175.992C242 171.74 237.465 166 237.465 166Z" fill="#2A6AF0"/>
<path d="M235.409 176.134C235.409 176.985 234.984 177.693 234.559 177.693C234.134 177.693 233.709 176.985 233.709 176.134C233.709 175.284 234.134 174.575 234.559 174.575C234.984 174.575 235.409 175.213 235.409 176.134Z" fill="white"/>
<path d="M237.819 166.425C239.024 168.763 240.37 171.881 240.37 174.504C240.37 177.622 238.386 179.606 235.906 179.606C235.409 179.606 234.984 179.535 234.559 179.393C235.339 180.031 236.402 180.456 237.535 180.456C240.016 180.456 242 178.756 242 175.992C242 172.448 238.882 167.913 237.819 166.425Z" fill="#145AEF"/>
<path d="M312.391 136C312.391 136 307 142.931 307 148.066C307 151.403 309.396 153.457 312.391 153.457C315.386 153.457 317.782 151.403 317.782 148.066C317.868 142.931 312.391 136 312.391 136Z" fill="#2A6AF0"/>
<path d="M309.909 148.237C309.909 149.264 309.396 150.12 308.883 150.12C308.369 150.12 307.856 149.264 307.856 148.237C307.856 147.21 308.369 146.354 308.883 146.354C309.396 146.354 309.909 147.125 309.909 148.237Z" fill="white"/>
<path d="M312.819 136.514C314.274 139.338 315.899 143.103 315.899 146.269C315.899 150.034 313.503 152.43 310.508 152.43C309.909 152.43 309.396 152.344 308.883 152.173C309.824 152.943 311.107 153.457 312.477 153.457C315.472 153.457 317.868 151.403 317.868 148.066C317.868 143.787 314.102 138.311 312.819 136.514Z" fill="#145AEF"/>
<path d="M446.472 64C446.472 64 443 68.4646 443 71.7716C443 73.9212 444.543 75.2441 446.472 75.2441C448.402 75.2441 449.945 73.9212 449.945 71.7716C450 68.4646 446.472 64 446.472 64Z" fill="#2A6AF0"/>
<path d="M444.874 71.8815C444.874 72.543 444.543 73.0941 444.213 73.0941C443.882 73.0941 443.551 72.543 443.551 71.8815C443.551 71.2201 443.882 70.6689 444.213 70.6689C444.543 70.6689 444.874 71.165 444.874 71.8815Z" fill="white"/>
<path d="M446.748 64.3311C447.685 66.1499 448.732 68.5751 448.732 70.6145C448.732 73.0397 447.189 74.583 445.26 74.583C444.874 74.583 444.543 74.5279 444.213 74.4176C444.819 74.9137 445.646 75.2444 446.528 75.2444C448.457 75.2444 450 73.9216 450 71.772C450 69.0161 447.575 65.4885 446.748 64.3311Z" fill="#145AEF"/>
<path d="M394.941 99C394.941 99 390 105.353 390 110.059C390 113.118 392.196 115 394.941 115C397.686 115 399.882 113.118 399.882 110.059C399.961 105.353 394.941 99 394.941 99Z" fill="#2A6AF0"/>
<path d="M392.667 110.216C392.667 111.157 392.196 111.941 391.725 111.941C391.255 111.941 390.784 111.157 390.784 110.216C390.784 109.275 391.255 108.49 391.725 108.49C392.196 108.49 392.667 109.196 392.667 110.216Z" fill="white"/>
<path d="M395.333 99.4707C396.667 102.059 398.157 105.51 398.157 108.412C398.157 111.863 395.961 114.059 393.216 114.059C392.667 114.059 392.196 113.981 391.726 113.824C392.588 114.53 393.765 115 395.02 115C397.765 115 399.961 113.118 399.961 110.059C399.961 106.137 396.51 101.118 395.333 99.4707Z" fill="#145AEF"/>
<path d="M480.941 168C480.941 168 476 174.353 476 179.059C476 182.118 478.196 184 480.941 184C483.686 184 485.882 182.118 485.882 179.059C485.961 174.353 480.941 168 480.941 168Z" fill="#2A6AF0"/>
<path d="M478.667 179.216C478.667 180.157 478.196 180.941 477.725 180.941C477.255 180.941 476.784 180.157 476.784 179.216C476.784 178.275 477.255 177.49 477.725 177.49C478.196 177.49 478.667 178.196 478.667 179.216Z" fill="white"/>
<path d="M481.333 168.471C482.667 171.059 484.157 174.51 484.157 177.412C484.157 180.863 481.961 183.059 479.216 183.059C478.667 183.059 478.196 182.981 477.726 182.824C478.588 183.53 479.765 184 481.02 184C483.765 184 485.961 182.118 485.961 179.059C485.961 175.137 482.51 170.118 481.333 168.471Z" fill="#145AEF"/>
<path d="M458.941 192C458.941 192 454 198.353 454 203.059C454 206.118 456.196 208 458.941 208C461.686 208 463.882 206.118 463.882 203.059C463.961 198.353 458.941 192 458.941 192Z" fill="#2A6AF0"/>
<path d="M456.667 203.216C456.667 204.157 456.196 204.941 455.725 204.941C455.255 204.941 454.784 204.157 454.784 203.216C454.784 202.275 455.255 201.49 455.725 201.49C456.196 201.49 456.667 202.196 456.667 203.216Z" fill="white"/>
<path d="M459.333 192.471C460.667 195.059 462.157 198.51 462.157 201.412C462.157 204.863 459.961 207.059 457.216 207.059C456.667 207.059 456.196 206.981 455.726 206.824C456.588 207.53 457.765 208 459.02 208C461.765 208 463.961 206.118 463.961 203.059C463.961 199.137 460.51 194.118 459.333 192.471Z" fill="#145AEF"/>
<path d="M424.941 142C424.941 142 420 148.353 420 153.059C420 156.118 422.196 158 424.941 158C427.686 158 429.882 156.118 429.882 153.059C429.961 148.353 424.941 142 424.941 142Z" fill="#2A6AF0"/>
<path d="M422.667 153.216C422.667 154.157 422.196 154.941 421.725 154.941C421.255 154.941 420.784 154.157 420.784 153.216C420.784 152.275 421.255 151.49 421.725 151.49C422.196 151.49 422.667 152.196 422.667 153.216Z" fill="white"/>
<path d="M425.333 142.471C426.667 145.059 428.157 148.51 428.157 151.412C428.157 154.863 425.961 157.059 423.216 157.059C422.667 157.059 422.196 156.981 421.726 156.824C422.588 157.53 423.765 158 425.02 158C427.765 158 429.961 156.118 429.961 153.059C429.961 149.137 426.51 144.118 425.333 142.471Z" fill="#145AEF"/>
<path d="M153.3 190C153.3 190 147 198.1 147 204.1C147 208 149.8 210.4 153.3 210.4C156.8 210.4 159.6 208 159.6 204.1C159.7 198.1 153.3 190 153.3 190Z" fill="#2A6AF0"/>
<path d="M150.4 204.3C150.4 205.5 149.8 206.5 149.2 206.5C148.6 206.5 148 205.5 148 204.3C148 203.1 148.6 202.1 149.2 202.1C149.8 202.1 150.4 203 150.4 204.3Z" fill="white"/>
<path d="M153.8 190.6C155.5 193.9 157.4 198.3 157.4 202C157.4 206.4 154.6 209.2 151.1 209.2C150.4 209.2 149.8 209.1 149.2 208.9C150.3 209.8 151.8 210.4 153.4 210.4C156.9 210.4 159.7 208 159.7 204.1C159.7 199.1 155.3 192.7 153.8 190.6Z" fill="#145AEF"/>
<defs>
<filter id="filter0_d" x="0.819946" y="21.8398" width="531.526" height="244.56" filterUnits="userSpaceOnUse" color-interpolation-filters="sRGB">
<feFlood flood-opacity="0" result="BackgroundImageFix"/>
<feColorMatrix in="SourceAlpha" type="matrix" values="0 0 0 0 0 0 0 0 0 0 0 0 0 0 0 0 0 0 127 0"/>
<feOffset dy="18"/>
<feGaussianBlur stdDeviation="20"/>
<feColorMatrix type="matrix" values="0 0 0 0 0.164706 0 0 0 0 0.415686 0 0 0 0 0.941176 0 0 0 0.35 0"/>
<feBlend mode="normal" in2="BackgroundImageFix" result="effect1_dropShadow"/>
<feBlend mode="normal" in="SourceGraphic" in2="effect1_dropShadow" result="shape"/>
</filter>
</defs>
</svg>
