<svg width="30" height="30" fill="none" xmlns="http://www.w3.org/2000/svg"><path d="M25.362 19.195a6.331 6.331 0 0 0-1.14 1.986H5.755a6.445 6.445 0 0 0-1.206-1.986H2.76a4.186 4.186 0 0 1-2.172-.616H0v1.904c0 .842.548 1.752.993 2.136.354.306 1.104.616 1.768.616h24.477a2.766 2.766 0 0 0 2.761-2.753v-2.349a4.11 4.11 0 0 1-2.761 1.061h-1.876zm1.876-17.842H2.76C1.245 1.353 0 2.558 0 4.073v10.993c0 .841.547 1.755.993 2.143.354.306 1.104.616 1.768.616h24.477a2.772 2.772 0 0 0 2.761-2.76V4.074c.001-1.515-1.245-2.72-2.761-2.72zm.706 10.625c-1.61.578-3.055 1.909-3.722 3.792H5.755a6.61 6.61 0 0 0-3.7-3.752V7.14c1.576-.582 3.008-1.883 3.689-3.766h18.495c.665 1.985 2.063 3.246 3.707 3.801v4.803h-.002z" fill="#ED0035"/><path d="M14.977 4.712a4.866 4.866 0 1 0 0 9.733 4.866 4.866 0 0 0 0-9.733zm.4 7.65v.908h-.857v-.845c-.616-.026-1.195-.188-1.535-.386l.266-1.052a3.16 3.16 0 0 0 1.49.395c.512 0 .861-.198.861-.556 0-.342-.288-.558-.953-.783-.962-.324-1.616-.773-1.616-1.645 0-.791.562-1.412 1.52-1.6v-.856h.891v.794c.582.027 1 .153 1.296.297l-.263 1.015c-.234-.098-.65-.305-1.296-.305-.584 0-.774.251-.774.503 0 .297.313.485 1.078.773 1.07.378 1.496.872 1.496 1.681 0 .8-.577 1.484-1.605 1.663zm9.985 12.244a6.322 6.322 0 0 0-1.14 1.986H5.755a6.443 6.443 0 0 0-1.206-1.986H2.76a4.18 4.18 0 0 1-2.172-.617H0v1.905c0 .842.548 1.752.993 2.136.354.306 1.104.617 1.768.617h24.477a2.766 2.766 0 0 0 2.761-2.754v-2.349a4.11 4.11 0 0 1-2.761 1.061h-1.876z" fill="#ED0035"/></svg>