<svg width="30" height="30" fill="none" xmlns="http://www.w3.org/2000/svg"><path d="M29.265 3.735A2.407 2.407 0 0 0 27.5 3h-25c-.688 0-1.276.245-1.766.735A2.407 2.407 0 0 0 0 5.5v19c0 .688.245 1.276.734 1.765.49.49 1.079.735 1.766.735h25c.687 0 1.276-.245 1.765-.735.49-.49.735-1.078.735-1.765v-19c0-.687-.245-1.276-.735-1.765zM28 24.5a.48.48 0 0 1-.149.352.481.481 0 0 1-.35.148H2.5a.48.48 0 0 1-.352-.148A.481.481 0 0 1 2 24.5V15h26v9.5zM28 9H2V5.5a.48.48 0 0 1 .148-.352A.482.482 0 0 1 2.5 5h25a.48.48 0 0 1 .351.148A.48.48 0 0 1 28 5.5V9z" fill="#ED0035"/><path d="M8 21H4v2h4v-2zm8 0h-6v2h6v-2z" fill="#ED0035"/></svg>