<svg width="30" height="30" fill="none" xmlns="http://www.w3.org/2000/svg"><g clip-path="url(#clip0)" fill="#ED0035"><path d="M22.444 9.224c-.897-.359-1.156-.576-1.156-.969 0-.314.238-.68.909-.68.593 0 1.048.233 1.052.235a.33.33 0 0 0 .154.04c.13 0 .245-.08.293-.2l.163-.417a.258.258 0 0 0-.14-.332c-.365-.159-1.078-.282-1.086-.283-.011-.002-.051-.01-.051-.057l-.003-.605a.335.335 0 0 0-.338-.33h-.292a.335.335 0 0 0-.339.33l.001.636c0 .049-.053.07-.072.074-.9.215-1.464.875-1.464 1.707 0 1.038.858 1.507 1.784 1.859.74.29 1.043.585 1.043 1.018 0 .47-.428.799-1.04.799-.524 0-1.232-.332-1.24-.335a.33.33 0 0 0-.142-.033.316.316 0 0 0-.3.208l-.155.421c-.055.158.03.285.139.342.435.227 1.277.36 1.314.365.01.002.061.02.061.067v.632c0 .182.152.33.339.33h.302a.335.335 0 0 0 .339-.33v-.666c0-.062.046-.067.055-.07.96-.215 1.551-.918 1.551-1.8 0-.905-.503-1.49-1.681-1.956z"/><path d="M22.066 1.903a7.933 7.933 0 1 0 0 15.866 7.933 7.933 0 0 0 0-15.866zm0 14.028a6.094 6.094 0 1 1 0-12.19 6.094 6.094 0 0 1 0 12.19zm6.323 5.682c-1.687.931-4.007 1.792-6.32 2.155-2.06.323-5.932-.456-5.932-1.375 0-.349 3.396.858 5.451.31 1.576-.42 1.352-1.894.495-2.088-.852-.194-5.843-2.022-7.976-2.085-1.004-.03-3.483.349-4.683.544-.411.067-.67.06-.695.453-.12 1.828-.355 5.567-.483 7.52-.003.04.055.595.513.205.5-.427 1.204-.901 1.854-.753 1.02.23 9.844 1.848 11.061 1.565 1.742-.405 6.67-3.326 7.616-4.234 1.465-1.408.326-2.894-.901-2.217zm-22.096-2.61l-4.623-.228a.832.832 0 0 0-.81.598l-.84 7.631a.504.504 0 0 0 .488.655H5.63a.682.682 0 0 0 .699-.623l.563-7.353a.63.63 0 0 0-.6-.68zm-2.721 7.644a1.278 1.278 0 1 1 0-2.556 1.278 1.278 0 0 1 0 2.556z"/></g><defs><clipPath id="clip0"><path fill="#fff" d="M0 0h30v30H0z"/></clipPath></defs></svg>