<svg width="36" height="25" fill="none" xmlns="http://www.w3.org/2000/svg"><path fill-rule="evenodd" clip-rule="evenodd" d="M26.076 19.024c-.015.046-.03.091-.06.152.037-.075.075-.127.126-.198.078-.109.162-.215.23-.33l.002-.002c.122-.207.35-.319.525-.484.049-.045.094-.09.14-.136a.421.421 0 0 1 .16-.167.82.82 0 0 1 .295-.108c.06-.011.118-.02.175-.028a3.07 3.07 0 0 0 .273-.047c.039-.008.098-.01.131.011.044.027.054.064.09.101.046.05.092.028.138-.065a.93.93 0 0 1 .391-.328c.058-.026.123-.037.18-.065.03-.015.06-.03.09-.03.06 0 .18 0 .3.06.087.044.08.087.07.154a.436.436 0 0 0-.01.088v.121c0-.03.016-.06.03-.09a.204.204 0 0 0 .03-.091.47.47 0 0 1 .028-.123c.043-.128.155-.21.277-.269.162-.077.337-.16.494-.262.055-.036.13-.018.153.043.026.07.11.067.153.006a4.27 4.27 0 0 1 .332-.415c.042-.045.102-.072.157-.1.03-.015.06-.03.09-.03.159 0 .317 0 .435-.083a.188.188 0 0 1 .106-.038c.038 0 .074.017.105.039.079.056.133.026.211-.016a.2.2 0 0 1 .095-.023h.07c.06 0 .06.06.06.12 0 .056.059.092.103.058.154-.116.188-.268.138-.42-.058-.175-.116-.406.04-.585.012-.014.022-.032.014-.048a.051.051 0 0 0-.02-.023c-.017-.01-.038-.044-.054-.056a.055.055 0 0 1-.015-.068.205.205 0 0 0 .019-.059.32.32 0 0 0-.026-.133.385.385 0 0 1-.019-.118c0-.086.091-.171.187-.236a.985.985 0 0 1 .24-.108l.367-.124a.214.214 0 0 0 .124-.107l.345-.696a.165.165 0 0 1 .136-.1c.113-.01.205.08.285.16a.181.181 0 0 0 .04.032c.09.05.174-.11.26-.167.086-.058.171-.027.275-.016l.04.004c.088.009.178.018.251.059.077.043.123.125.194.176.048.034.104.059.161.048a.155.155 0 0 0 .072-.044.39.39 0 0 1 .28-.115c.074 0 .14-.07.12-.141a.923.923 0 0 0-.07-.198 1.413 1.413 0 0 0-.066-.116c-.047-.076-.144-.206-.06-.238a.19.19 0 0 1 .066-.01c.12 0 .18-.12.12-.242-.04-.122-.054-.19-.003-.239.066-.064.214-.039.213-.132 0-.092-.124-.145-.187-.212a.657.657 0 0 1-.203-.506.288.288 0 0 0-.119-.24c-.072-.055-.152-.123-.242-.123.033 0 .06-.027.056-.06a1.34 1.34 0 0 0-.022-.109c-.029-.13.148-.219.156-.352v-.022c.004-.092.099-.12.19-.126a.66.66 0 0 0 .132-.023c.061-.017.112-.057.163-.095.053-.04.106-.08.106-.12 0-.038-.023-.076-.054-.127a1.01 1.01 0 0 1-.01-.017c-.03-.047-.11-.039-.116.017-.001.016-.005.012-.014.025-.111.162-.173.157-.347.04-.114-.057-.228-.114-.343-.224-.011-.011-.018-.035-.023-.05-.014-.046.009-.102.056-.113l.057-.015c.169-.042.325-.08.493-.038.028.007.121-.075.121-.104v-.09c0-.06.017-.118.05-.167l.172-.26c.06-.09-.005-.245-.086-.316a.234.234 0 0 0-.035-.025.335.335 0 0 1-.161-.292c0-.121.12-.121.18-.121s.12-.06.12-.121a.1.1 0 0 0-.02-.058c-.171-.235-.562-.133-.821-.003-.195.099-.203-.304-.402-.393a.492.492 0 0 0-.2-.03h-.063a.294.294 0 0 1-.108-.024.27.27 0 0 0-.041-.013c-.105-.022-.223.052-.298-.024a.8.8 0 0 0-.102-.091c-.03-.022-.048-.026-.07-.056-.032-.043-.047-.122-.077-.167-.01-.014-.019-.023-.03-.026-.018-.006-.042.003-.083.023a.275.275 0 0 0-.053.036.867.867 0 0 1-.127.083c-.068.037-.158-.014-.187-.085-.012-.029-.063-.045-.091-.034-.038.015-.075.015-.112.015-.18 0-.3-.121-.3-.242v-.037a.085.085 0 0 0-.086-.085.105.105 0 0 0-.061.024.204.204 0 0 1-.05.027c-.027.01-.055-.002-.078-.02A.186.186 0 0 0 32.5 7.2c-.085-.04-.224-.062-.29-.129a.314.314 0 0 0-.091-.06c-.062-.032-.14-.066-.183-.01a.117.117 0 0 0-.027.07c0 .303-.18.424-.481.303a1.202 1.202 0 0 1-.1-.06c-.091-.058-.19-.122-.321-.122h-.058c-.135-.005-.207-.126-.296-.228-.146-.168-.262-.455-.42-.612l-.008-.007c-.06-.06-.06-.12-.06-.181v-.037a.085.085 0 0 0-.085-.084.098.098 0 0 0-.061.023.91.91 0 0 1-.094.067c-.023.016-.046.031-.067.047-.036.026-.082.043-.114.074-.032.033-.082.037-.128.045-.049.008-.1.013-.15.018a2.064 2.064 0 0 0-.174.022c-.255.048-.399.314-.63.43-.25.1-.208-.009-.152-.154.01-.028-.022-.054-.05-.042-.104.047-.161.016-.239-.026l-.04-.02c-.093-.048-.114-.021-.147.022l-.02.025a.095.095 0 0 1-.03.022c-.057.028-.127.005-.17-.043-.017-.02-.035-.038-.053-.057a.567.567 0 0 1-.12-.15c-.06-.122-.12-.182-.241-.182-.038 0-.082.006-.129.012-.092.013-.192.027-.272-.004a.119.119 0 0 0-.042-.008.115.115 0 0 0-.067.025.342.342 0 0 1-.061.035.314.314 0 0 0-.09.06c-.027.027-.041.065-.055.1-.026.067-.106.105-.171.075-.09-.04-.195-.134-.195-.174 0-.082 0-.192-.056-.254-.059-.066-.185-.082-.185-.17 0-.07-.02-.121-.037-.163a.218.218 0 0 1-.023-.08c0-.12 0-.18.12-.18.075 0 .104-.024.1-.056-.006-.05-.082-.062-.094-.11l-.001-.006a.343.343 0 0 0-.052-.123l-.002-.002c-.023-.037-.016-.068-.04-.105-.025-.036-.049-.1-.071-.139a1.56 1.56 0 0 1-.05-.095c-.03-.06-.06-.121-.09-.151-.06-.061-.09-.091-.09-.121s.03-.061.09-.122c.064-.064.03-.181-.06-.181-.18 0-.3-.06-.3-.303 0-.07-.021-.12-.038-.162-.018-.043-.06-.08-.106-.08h-.028c-.042 0-.077-.033-.116-.048-.039-.016-.085.006-.126.025l-.01.005a.343.343 0 0 0-.101.062.138.138 0 0 1-.038.027c-.199.094-.31.058-.334-.071-.007-.033-.032-.06-.066-.06-.03 0-.045.015-.06.03-.032.032-.081.019-.123 0a1.078 1.078 0 0 0-.234-.074c-.191-.035-.559.015-.407-.107l.069-.054a.445.445 0 0 1 .04-.026c.031-.02.054-.034.054-.072 0-.1-.115-.142-.178-.22-.045-.055-.046-.11-.024-.193a.56.56 0 0 0 .022-.145.294.294 0 0 0-.06-.196l-.06-.063a.696.696 0 0 1-.105-.123c-.011-.018-.038-.052-.049-.07-.035-.056.005-.104.067-.128a.947.947 0 0 1 .177-.042c.188-.032.473-.165.38-.332a.296.296 0 0 0-.05-.061l-.034-.04a.346.346 0 0 0-.182-.132.306.306 0 0 1-.144-.07l-.07-.07a.587.587 0 0 1-.17-.415c0-.06-.016-.12-.03-.181a.849.849 0 0 1-.03-.164c-.001-.01.007-.018.017-.018.015 0 .023-.019.013-.03-.062-.067-.109-.133-.154-.196a.934.934 0 0 0-.238-.258c-.05-.05-.099-.1-.182-.15-.034-.02-.076-.011-.108.012a.29.29 0 0 1-.216.054c-.04-.004-.097.07-.095.11 0 .02-.017.035-.038.033-.109-.01-.122-.07-.135-.13a.18.18 0 0 0-.037-.089c-.012-.012-.03-.001-.03.016 0 .013-.01.023-.023.022a.801.801 0 0 1-.205-.045c-.046-.013-.091.007-.136.024a.398.398 0 0 1-.108.02c-.038.003-.072.035-.1.062-.014.016-.03.03-.03.061a.032.032 0 0 0-.05-.027c-.137.092-.27.18-.374.239a.237.237 0 0 1-.12.03.514.514 0 0 1-.188-.028c-.036-.016-.067-.041-.1-.06-.1-.052-.226-.12-.356-.109-.037.003-.094-.014-.129 0-.04.015-.082-.004-.12-.025a.14.14 0 0 0-.065-.02c-.023 0-.037.03-.028.05.022.05.026.11.027.157 0 .02-.015.035-.034.035a.035.035 0 0 0-.033.024l-.149.448a.106.106 0 0 1-.1.073h-.024a.043.043 0 0 0-.033.015.386.386 0 0 0-.006.007c-.024.032-.096.056-.131.038-.036-.018-.09.009-.09.049v.02c0 .029-.026.051-.049.033a.34.34 0 0 1-.058-.061c-.03-.036-.059-.071-.093-.08-.058-.014-.161-.022-.161-.082 0-.12-.06-.12-.12-.12-.025 0-.06.01-.102.022-.058.017-.129.038-.2.038-.103 0-.208 0-.312-.012-.155-.017-.408-.144-.408.012 0 .109-.172.078-.245-.003l-.008-.008a.16.16 0 0 0-.118-.05h-.236a.066.066 0 0 0-.065.054c-.04.2-.055.276-.14.3-.048.014-.09.05-.09.1v.048a.042.042 0 0 1-.043.043.043.043 0 0 0-.03.012l-.102.104c-.043.043-.073.097-.105.149-.025.04-.056.074-.085.107-.06.068-.116.132-.116.233 0 .03-.03.076-.06.121a1.058 1.058 0 0 0-.13.268c-.019.057-.014.129.04.156.02.01.039.02.058.033.019.014.019.04.002.057a.321.321 0 0 1-.088.06c-.016.008-.015.05-.003.062.028.027.058.063.03.09l-.01.011c-.023.026.016.083.049.097.046.02.067.042.085.09.027.073.027.12.027.166v.072c0 .07-.028.138-.09.17-.063.031-.133.07-.198.047a.193.193 0 0 1-.073-.047c-.03-.03-.075-.06-.12-.091-.045-.03-.09-.06-.12-.09-.036-.037-.008-.074.021-.11.02-.024.039-.048.039-.073a.06.06 0 0 0-.06-.06h-.043a.113.113 0 0 1-.103-.074c-.092-.227-.254-.222-.42-.216-.056.002-.112.004-.167-.003-.03-.004-.08.025-.093.053-.02.044-.055.058-.104.058h-.152c-.052 0-.104-.045-.156-.096a.085.085 0 0 1-.025-.06.086.086 0 0 0-.085-.086h-.059c-.053 0-.102.043-.126.091-.016.032-.078.052-.11.036a.743.743 0 0 0-.01-.006c-.036-.018-.09.009-.09.049v.012c0 .044-.065.079-.109.07-.049-.01-.1-.01-.132-.01a.117.117 0 0 0-.041.009c-.057.021-.118.049-.15-.003-.029-.047-.065-.09-.08-.143a.374.374 0 0 1 .007-.23.361.361 0 0 0 .023-.117.393.393 0 0 0-.064-.17c-.031-.05-.09-.068-.147-.078a.383.383 0 0 1-.022-.005c-.08-.02-.162-.006-.187.072-.028.083-.11.115-.197.125a.262.262 0 0 0-.068.015c-.064.025-.115.082-.218.21-.033.041-.026.102-.007.152a.144.144 0 0 1 .006.018c.003.015-.004.03-.015.042a.06.06 0 0 1-.085 0 .765.765 0 0 1-.118-.162c-.014-.024-.033-.046-.041-.073-.013-.04 0-.093.01-.138.008-.037-.02-.07-.055-.087a.914.914 0 0 1-.024-.012l-.038-.017c-.027-.012-.047.013-.057.04a.093.093 0 0 1-.02.032.048.048 0 0 1-.07 0l-.013-.011a.043.043 0 0 0-.072.03.042.042 0 0 1-.013.03l-.046.046c-.034.034-.101.04-.117-.005-.005-.013-.005-.028-.005-.054a.134.134 0 0 0-.048-.097c-.07-.064-.054-.112-.034-.168.02-.053-.023-.099-.079-.097-.14.004-.158.028-.254.172a.114.114 0 0 1-.013.016c-.031.032-.08.039-.124.03a1.025 1.025 0 0 0-.062-.01.35.35 0 0 1-.159-.05c-.065-.046-.096-.157-.175-.142a.29.29 0 0 0-.143.091.098.098 0 0 0-.03.077c.004.082.035.16.009.239a.471.471 0 0 0-.03.12c0 .02-.011.032-.027.041-.046.027-.1-.023-.123-.07-.029-.058-.015-.121-.002-.183.051-.231-.108-.334-.316-.389a.106.106 0 0 0-.027-.003.09.09 0 0 0-.075.035.446.446 0 0 0-.031.055c-.022.043-.072.028-.104-.008-.039-.045-.09-.025-.155 0a.759.759 0 0 1-.082.028c-.036.009-.06-.028-.04-.06.03-.05.064-.09.108-.137.017-.018-.002-.042-.022-.029-.065.04-.126-.007-.126-.084v-.186a.057.057 0 0 0-.086-.051.394.394 0 0 1-.215.073c-.08 0-.135 0-.18-.018a.682.682 0 0 1-.126-.074.22.22 0 0 0-.096-.045c-.053-.006-.13.01-.173-.022-.03-.023-.033-.04-.057-.068a.29.29 0 0 0-.126-.082c-.131-.045-.332.121-.377-.01a.135.135 0 0 1-.007-.044c0-.181-.12-.181-.24-.12-.12.06-.3-.061-.361-.182A2.181 2.181 0 0 0 7.777.79C7.719.68 7.559.778 7.439.747a.245.245 0 0 1-.106-.062C7.278.633 7.253.552 7.18.54a.379.379 0 0 0-.183.032.734.734 0 0 1-.59-.02c-.162-.073-.32-.227-.483-.16a.699.699 0 0 0-.046.022 1.33 1.33 0 0 1-.992.088 1.128 1.128 0 0 0-.183-.034c-.109-.012-.236-.025-.328.067a.964.964 0 0 1-.097.083c-.082.064-.164.129-.193.247-.012.05.026.118-.02.142-.023.011-.06.023-.08.04-.054.047-.117.085-.18.124-.076.045-.151.09-.211.15-.083.085-.112-.095-.21-.163-.044-.03-.096-.026-.15-.021a.715.715 0 0 1-.06.003h-.361c.031 0 .046.017.053.042.014.05.049.123.062.173.01.036-.008.044-.023.079-.045.104-.022.208 0 .312.01.04.019.08.024.12a.127.127 0 0 1-.04.105.163.163 0 0 1-.038.028c-.091.05-.135.098-.035.148.036.017.09.029.104.067.02.054-.004.102-.021.156-.023.071-.011.117.034.162.039.04.078.079.133.102.038.015.065.074.047.11a.114.114 0 0 0 .039.138c.075.05.103.116.07.187-.022.05-.05.102-.02.147a.764.764 0 0 0 .091.103.36.36 0 0 1 .057.08.776.776 0 0 0 .05.078c.043.057.084.124.134.175.051.052.044.153-.029.144a.298.298 0 0 1-.084-.03c-.036-.017-.082-.055-.12-.04a.95.95 0 0 1-.002 0c-.035.014-.066.047-.066.085v.03c0 .015.004.03.01.043.03.057.07.124.11.192.07.115 0 .282.026.415a.344.344 0 0 0 .015.054c.011.03.034.055.05.084.024.045.004.082-.09.082-.041 0-.054.027-.059.082a.319.319 0 0 1-.068.174.919.919 0 0 0-.137.247c-.019.046-.083.064-.127.042-.065-.033-.12-.084-.184-.117-.082-.042-.135-.038-.196.024-.053.055-.063.137-.094.207a.266.266 0 0 1-.033.057c-.037.049-.1.074-.155.101-.057.029-.121.023-.184.012-.22-.038-.28-.007-.387.26-.06.182-.18.303-.36.424a.553.553 0 0 0-.185.174.677.677 0 0 0-.083.152.426.426 0 0 1-.394.28c-.03 0-.045.014-.06.03-.031.031-.078.047-.107.08-.148.17-.227.378-.031.54.011.01.018.024.018.038 0 .022-.016.04-.037.045-.25.055-.315.117-.323.358a1.741 1.741 0 0 1-.008.116c-.03.288.1.458.25.652l.058.077c.24.303.24.363-.12.484-.3.06-.421.363-.3.666.018.057.037.114.057.169.086.228.307.398.347.64a.425.425 0 0 1-.089.319c-.01.015-.022.028-.033.042a.131.131 0 0 0-.023.044c-.031.11.16.184.16.299 0 .141.062.262.125.386.045.088.091.179.116.28.054.162.205.276.365.386a.22.22 0 0 0 .124.037.324.324 0 0 0 .101-.02.364.364 0 0 1 .372.08c.091.093.25.008.371.052a.306.306 0 0 1 .11.07c.06.06.18.121.24.121.061 0 .122 0 .175.008.091.013.167.077.251.113.113.048.148.026.262-.087.022-.022.037-.073.064-.087.027-.014.042.005.064.027.078.08.135.156.026.19-.096.029-.2.113-.159.205.02.044.07.06.093.102l.006.013c.026.053.09.072.138.106a.465.465 0 0 1 .163.197c.06.181.18.242.36.242s.24-.121.24-.303c0-.12.061-.181.181-.181.135 0 .207-.155.339-.186a.4.4 0 0 1 .13 0 .728.728 0 0 0 .072.004h.601c.04 0 .087.007.134.014.094.013.187.027.227-.014.09-.09.18-.08.27-.068.06.008.12.016.179.029.098.02.14.014.183-.06.076-.127.092-.283.161-.414a.39.39 0 0 1 .374-.224c.064.002.129.01.186-.02l.012-.005c.047-.024.099-.046.143-.074.054-.033.063-.107.11-.15.045-.043.1-.043.186-.043.16 0 .196-.33.335-.252a.418.418 0 0 1 .085.07c.113.114.173.121.23.022a.18.18 0 0 1 .028-.038c.027-.028.066-.046.104-.038.051.01.09.034.123.061.04.034.08.067.128.086.193.075.29.003.29-.213 0-.026.028-.041.05-.027.054.035.088.053.122.05.038-.002.075-.033.139-.095.031-.032.078-.05.109-.02.031.032.08.014.102-.024a.673.673 0 0 0 .018-.036c.026-.051.091-.049.126-.003a.53.53 0 0 0 .097.106c.083.06.156.17.258.17.045 0 .09.068.11.128a.239.239 0 0 0 .048.092.127.127 0 0 0 .052.031l.038.012c.119.036.202.062.226.191.009.05.047.09.097.09s.096.04.118.085l.002.006a.6.6 0 0 1 .012.024c.016.035.051.064.079.037.031-.032.074-.052.11-.078a.068.068 0 0 1 .017-.008c.013-.005.027-.005.053-.005.06 0 .06.06.06.12v.043c0 .051.077.085.128.08.031-.002.054.025.062.055l.02.065c.015.044.085.063.114.028l.031-.039c.07-.088.189-.148.289-.096a.483.483 0 0 0 .01.005c.08.043.18-.005.26.036.039.02.057.066.078.119.01.022.018.045.03.068.044.132.12.264.204.397.042.066.134.053.188-.004.019-.02.047-.026.069-.042l.02-.018c.015-.015.03-.03.06-.03.037 0 .051.023.071.055.012.02.026.043.05.066a.334.334 0 0 1 .049.066c0 .002.002.004.004.006.03.049.098.057.139.098.024.025.031.05.025.074a.269.269 0 0 1-.067.119c-.032.032-.012.078.014.114a.936.936 0 0 1 .016.024c.041.064.04.144.001.208l-.007.011c-.048.08-.028.173-.04.265a.551.551 0 0 1-.09.206c-.016.027-.032.053-.045.08-.085.128-.08.226-.027.337.044.09.162.071.253.116a.07.07 0 0 1 .025.024c.05.076.03.172.07.254.017.036.052.072.076.104.061.086.089.131.125.14.045.01.102-.032.249-.121a.047.047 0 0 1 .071.04v.092a.167.167 0 0 1-.022.079c-.089.166-.036.333.02.5l.002.017a.052.052 0 0 1-.052.052h-.025a.043.043 0 0 0-.043.043c0 .01.004.022.013.029.03.023.068.036.107.049l.037.013c.058.021.08.083.053.138-.015.03-.03.06-.03.09 0 .182.06.243.18.243.09 0 .124.113.18.184.045.058.099.058.181.058 0 0 .06 0 .12.06.12.122.12.243.12.424v.537c0 .083.035.16.102.208.043.031.093.067.144.111.037.032.089.062.071.107-.01.03-.05.05-.079.04a.259.259 0 0 0-.195.012.405.405 0 0 1-.223.022.175.175 0 0 1-.138-.133 1.933 1.933 0 0 0-.055-.165c-.015-.042-.079-.042-.095 0a3.42 3.42 0 0 1-.133.29c-.191-.039-.212-.176-.233-.317l-.008-.051c-.013-.082-.106-.083-.143-.009l-.024.05c-.03.06-.112.058-.133-.006l-.01-.028c-.01-.032-.069-.025-.088.002-.012.017-.022.031-.022.056 0 .061 0 .121-.06.182a.196.196 0 0 1-.062.043c-.06.027-.118-.037-.118-.104v-.302c0-.03-.015-.046-.03-.06-.027-.028-.072-.062-.086-.026a.105.105 0 0 0-.003.007c-.002.012-.004.024-.01.035-.027.048-.054.074-.087.088-.089.038-.202-.018-.285.031a.255.255 0 0 0-.063.056c-.079.094-.045.232-.03.353a.662.662 0 0 0 .13.346l.015.016a.761.761 0 0 1 .064.081c.017.026.03.043.017.071-.014.029-.068.038-.096.053-.173.094-.192.155-.155.283.01.039.018.078.018.118v.081a.1.1 0 0 1-.139.094c-.285-.111-.342-.047-.342.25v.12c0 .182-.06.242-.18.242a.243.243 0 0 0-.084.013.696.696 0 0 0-.3.198c-.017.023-.013.062.003.133a.88.88 0 0 0 .055.154c.03.07.048.14.019.21-.024.057-.09.076-.145.049-.03-.015-.06-.03-.09-.03-.077 0-.152.04-.229.044a.186.186 0 0 1-.104-.023.127.127 0 0 0-.063-.021.085.085 0 0 0-.085.084v.013c0 .016.004.03.01.044.02.046.033.092.045.134l.015.051c.021.068.021.156.073.205.02.02.052.017.079.028.094.038.171.092.242.14a1.2 1.2 0 0 0 .137.087c.037.019.079.037.125.057.04.018.085.037.131.06.124.058.282-.004.285-.141a.127.127 0 0 1 .027-.082c.051-.074.103-.066.154-.015.095.096.14.14.178.136.031-.004.058-.04.104-.108a.063.063 0 0 1 .052-.028c.017 0 .033.007.046.018.024.019.047.03.07.043a.127.127 0 0 0 .148-.032.244.244 0 0 1 .175-.086.194.194 0 0 0 .117-.052.158.158 0 0 1 .025-.02c.176-.116.352-.169.528.008a.336.336 0 0 1 .049.066c.032.052.095.08.145.115l.046.031c.083.056.204.109.194.208 0 .011-.003.023-.005.036a.527.527 0 0 0-.009.089c0 .068.092.058.122-.003l.093-.187a.215.215 0 0 0 .024-.11 1.095 1.095 0 0 0-.04-.215.168.168 0 0 0-.109-.11l-.01-.003c-.073-.021-.114-.135-.076-.2.027-.047.025-.11-.024-.135l-.01-.005c-.06-.031-.081-.101-.07-.168.016-.1.027-.195.037-.285.015-.127.03-.246.056-.364a.04.04 0 0 1 .039-.03c.017 0 .032.01.037.027.014.054.02.113.025.173.01.108.022.221.083.323.032.053.101.063.158.038.108-.05.235-.106.327-.199.06-.06.135-.12.21-.181l.013-.01c.135-.11.24-.253.373-.363.04-.033.083-.069.125-.111.03-.03.06-.076.09-.121.056-.084.135-.148.209-.215.07-.064.13-.135.186-.2.075-.089.166-.162.243-.248.133-.148.222-.334.303-.504.034-.069.054-.145.078-.217l.003-.008c.01-.03.02-.06.025-.085a.236.236 0 0 1 .028-.066.341.341 0 0 0 .036-.147.028.028 0 0 1 .048-.019c.008.008.02.01.031.005l.069-.038a.393.393 0 0 1 .214-.074c.07 0 .15-.018.231-.037.128-.03.26-.06.37-.024.265.054.436.013.555-.203.032-.058.016-.13-.014-.19l-.005-.011c-.016-.032.024-.055.051-.032.017.014.027 0 .043-.016l.006-.006c.036-.037.084-.004.058.04l-.032.055c-.03.05-.06.1-.085.153-.02.043.012.098.055.12.05.025.099-.009.127-.059.026-.047.054-.067.089-.068.055-.002.096.045.135.084.028.028.06.054.095.083l.083.071c.02.02.054.013.066-.012.039-.085.055-.12.156-.07a.88.88 0 0 0 .024.013c.054.17.183.17.276.17.06 0 .106.015.15.03a.54.54 0 0 0 .13.03.34.34 0 0 1 .05.064c.02.032.008.072-.022.093-.142.097-.213.146-.428.146-.03 0-.06.015-.09.03-.037.018-.06.076-.033.107.058.07.104.083.159.053a.225.225 0 0 1 .185-.026l.05.017c.035.012.07.024.112.042a.231.231 0 0 1 .068.049c.02.02.043.037.068.05a.61.61 0 0 1 .067.035c.167.09.246.369.436.369.03 0 .06.015.09.03a.885.885 0 0 0 .18.064.38.38 0 0 0 .271-.034c.065-.032.148-.065.239-.088.156-.04.323-.073.483-.046.03.005.062.01.093.012a.147.147 0 0 1 .052.013c.074.034.122.038.143-.025.013-.038.067-.065.102-.047.03.015.06.03.09.06a.085.085 0 0 0 .12 0c.034-.033.088-.033.13-.01l.021.01c.03.015.06.03.09.06.03.031.06.046.09.061.065.033.124.08.195.092.134.023.303.002.256-.092-.04-.119.025-.16.074-.19.022-.015.078-.018.093.003.097.137.087.298.078.44-.004.07.025.14.093.162l.05.015a.813.813 0 0 1 .085.026c.029.01.029.047 0 .058a3.494 3.494 0 0 1-.372.126.132.132 0 0 0-.057.028c-.034.03-.072.059-.117.059h-.035a.256.256 0 0 0-.13.043c-.138.084-.439.198-.659.282l-.144.056c-.068.026-.126.07-.191.103-.065.032-.106.097-.167.136a.984.984 0 0 1-.047.028c-.031.018-.062.036-.086.058-.055.052-.109.14-.185.14a.116.116 0 0 0-.05.013l-.07.032a1.6 1.6 0 0 0-.224.116c-.073.047-.149.094-.213.154a.251.251 0 0 0-.014.013c-.076.083-.108.235-.024.31a.34.34 0 0 0 .238.09c.06 0 .119-.014.17-.045l.035-.022a.67.67 0 0 1 .26-.088c.189-.026.324.042.458.155.133.112.236.26.381.355.04.025.08.052.117.082.035.028.08.048.112.016.015-.015.03-.03.06-.03.053 0 .106-.024.154-.045.095-.042.198.005.277.073a.786.786 0 0 1 .236.362c.006.021.012.043.02.065.019.06.035.123.042.186.011.105.024.22-.067.267-.136.091-.17.182-.152.3.012.083.038.167.023.25a.302.302 0 0 1-.018.064.514.514 0 0 1-.066.104c-.115.153-.228.347-.058.432.024.012.05.023.077.034.048.018.107.01.148.043a.588.588 0 0 1 .046.044c.169.17.285.234.448.19a.262.262 0 0 1 .067-.009c.055 0 .105.027.155.051.064.03.128.02.191-.004.069-.027.128-.075.197-.1l.024-.007a.3.3 0 0 0 .12-.06c.03-.031.075-.061.12-.092l.021-.014c.039-.026.098-.004.115.039.013.033.06.033.07-.001.015-.045.025-.095.035-.145.015-.075.03-.151.06-.212.03-.06.075-.12.12-.181.03-.04.06-.08.086-.121.023-.036.064-.06.094-.09.033-.034.083-.04.127-.051l.052-.014c.054-.014.105-.028.15-.047.125-.055.245-.161.381-.161h.02a.31.31 0 0 0 .193-.076.32.32 0 0 1 .03-.022c.04-.025.088-.004.122.03l.05.05c.043.043.111.041.138-.012.015-.03.03-.061.06-.091l.258-.26a.144.144 0 0 1 .103-.043c.03 0 .075.015.12.03l.06.02c.032.009.066-.017.083-.046.025-.04.053-.088.003-.156a.115.115 0 0 1-.026-.068.07.07 0 0 1 .011-.04c.08-.115.356-.221.47-.164.045.03.094.057.143.084a.917.917 0 0 1 .242.165c.06.064.194.117.282.11.061-.006.124-.012.18-.055.04-.032.086-.061.138-.061a.17.17 0 0 1 .07.015c.045.02.081.033.117.045.037.012.073.024.117.044a.024.024 0 0 0 .034-.02c0-.014.01-.024.023-.027a.303.303 0 0 0 .067-.027c.056-.029.119-.047.179-.066.03-.01.06-.017.091-.025.096-.024.12-.132.078-.22-.1-.206-.046-.373.11-.476a.11.11 0 0 0 .053-.09.12.12 0 0 1 .12-.122h.036a.084.084 0 0 0 .084-.084c0-.067-.076-.104-.142-.091a.14.14 0 0 1-.131-.04.156.156 0 0 0-.064-.038c-.074-.02-.138-.02-.196-.02-.068 0-.128 0-.188-.03-.233-.117-.41-.006-.53.221a.16.16 0 0 1-.028.039.122.122 0 0 1-.104.038.916.916 0 0 1-.256-.094.08.08 0 0 1-.044-.07v-.112c0-.03-.04-.048-.066-.032-.053.033-.058.103-.078.163-.07.218-.223.322-.457.379-.04.01-.081.014-.12.027-.04.013-.08.027-.12-.014-.063-.063-.126-.118-.186-.172a1.653 1.653 0 0 1-.295-.312c-.361-.484-.662-.908-.842-1.452l-.042-.101c-.105-.25-.21-.5-.01-.75a.162.162 0 0 1 .128-.057.184.184 0 0 0 .083-.02c.041-.02.081-.041.118-.062.1-.056.164-.157.232-.25l.006-.01.03-.042c.064-.093.212-.154.192-.043a.432.432 0 0 1-.005.027c-.006.023.017.063.038.074.04.023.048.072.032.114l-.02.06zm-7.214-1.906c0 .17-.09.328-.06.495.032.175.106.375.18.413.06.03.106.06.15.09.088.059.193.023.291-.012a.14.14 0 0 1 .145.029.05.05 0 0 1 .016.037c-.002.045.016.098.06.095a.327.327 0 0 0 .159-.04c.015-.01.03-.02.048-.027.078-.03.146-.07.214-.112.07-.042.141-.085.224-.115a.074.074 0 0 1 .042 0c.043.017.002.062-.04.081-.065.03-.127.074-.19.118-.117.084-.237.17-.388.166-.036 0-.065.027-.039.053.015.015.03.03.03.06 0-.05.041-.058.09-.06a.03.03 0 0 1 .03.03c0 .017-.013.03-.03.034a.824.824 0 0 0-.09.027.458.458 0 0 1-.12.03c-.12-.06-.24-.121-.36-.121h-.022a.212.212 0 0 0-.16-.06c-.093 0-.162-.085-.25-.115l-.02-.007c-.038-.013-.077-.026-.126-.048-.038-.123.008-.255-.002-.383a.472.472 0 0 0-.022-.113.455.455 0 0 1-.018-.042c-.071-.188.169-.323.258-.503zm-.18-.182c0 .03.015.046.03.061a.496.496 0 0 0 .096.08c.032.018.054.041.054.041-.1 0-.18-.082-.18-.182zm-.067-.064c.023.003.029-.032.014-.049-.01-.01-.001-.016.005-.029.052-.097 0-.177-.052-.261-.04-.063-.08-.127-.08-.202 0 .071.02.121.037.163.012.03.023.054.023.08v.056a.208.208 0 0 1-.041.113c-.05.075-.011.118.094.13zM14.716 8c0-2.314 1.87-4.197 4.169-4.197 2.299 0 4.169 1.883 4.169 4.197 0 .947-.66 2.507-1.96 4.637a45.8 45.8 0 0 1-1.926 2.885.352.352 0 0 1-.566 0 45.75 45.75 0 0 1-1.925-2.885c-1.301-2.13-1.961-3.69-1.961-4.637zm1.785-.065c0 1.323 1.07 2.4 2.384 2.4a2.395 2.395 0 0 0 2.384-2.4c0-1.324-1.07-2.4-2.384-2.4a2.395 2.395 0 0 0-2.384 2.4z" fill="#ED0035"/></svg>