<svg width="30" height="35" fill="none" xmlns="http://www.w3.org/2000/svg"><path d="M.186 5.881A3.687 3.687 0 0 1 2.529 1.23a3.687 3.687 0 0 1 4.652 2.344l7.238 21.936a4.836 4.836 0 0 0-2.108-.08L5.304 4.192A1.708 1.708 0 0 0 3.15 3.107a1.708 1.708 0 0 0-1.086 2.155.988.988 0 0 1-1.877.62zM28.702 23.09l-11.859 3.913c.421.477.755 1.045.967 1.687.007.023.011.046.018.07l11.493-3.793a.988.988 0 1 0-.62-1.877zM16.871 29a3.883 3.883 0 1 1-7.374 2.433A3.883 3.883 0 0 1 16.87 29zm-1.843.608a1.941 1.941 0 1 0-3.687 1.217 1.941 1.941 0 0 0 3.687-1.217zM25.704 8.21l4.026 12.202a.494.494 0 0 1-.315.624l-12.671 4.18a.494.494 0 0 1-.624-.314L12.095 12.7a.494.494 0 0 1 .314-.624l12.672-4.18a.494.494 0 0 1 .624.314zm-1.676 7.088l-4.315-2.374-2.054 4.475 1.36.626.888-1.936 1.604 4.86 1.534-.506-1.603-4.86 1.865 1.027.72-1.312zm-3.765-7.28L17.69.217a.316.316 0 0 0-.4-.201l-2.206.728-.011.02-.019-.01-1.164.384.959 2.906-1.314.434-.959-2.907-1.164.385-.01.019-.02-.01-2.192.724a.316.316 0 0 0-.201.4l2.573 7.8a.316.316 0 0 0 .4.201l8.1-2.673a.316.316 0 0 0 .202-.399z" fill="#ED0035"/></svg>