<svg width="12" height="23" viewBox="0 0 12 23" fill="none" xmlns="http://www.w3.org/2000/svg">
<path d="M0.38302 12.2512H2.98759V22.629C2.98759 22.8331 3.15995 23 3.37061 23H7.785C7.9956 23 8.168 22.8331 8.168 22.629V12.2976H11.1651C11.3567 12.2976 11.5194 12.1585 11.5482 11.973L11.9982 8.152C12.0078 8.05 11.9791 7.9387 11.9025 7.8645C11.8259 7.7903 11.7301 7.744 11.6152 7.744H8.168V5.3419C8.168 4.6185 8.5702 4.2569 9.3649 4.2569H11.6152C11.8259 4.2569 11.9982 4.0899 11.9982 3.8859V0.371C11.9982 0.1669 11.8259 0 11.6152 0H8.5031C8.484 0 8.4361 0 8.3595 0C7.8233 0 5.9464 0.102 4.4718 1.419C2.83438 2.8843 3.06419 4.6278 3.11207 4.9339V7.7347H0.38302C0.17236 7.7347 0 7.9016 0 8.1056V11.8802C0 12.0843 0.17236 12.2512 0.38302 12.2512Z" fill="#9DB2C6"/>
</svg>
