<svg width="61" height="41" viewBox="0 0 61 41" fill="none" xmlns="http://www.w3.org/2000/svg">
<path fill-rule="evenodd" clip-rule="evenodd" d="M43.9 31.45C43.875 31.525 43.85 31.6 43.8 31.7C43.8618 31.5764 43.9236 31.491 44.009 31.3729V31.3729C44.1389 31.1934 44.278 31.0187 44.3917 30.8285C44.3926 30.827 44.3935 30.8255 44.3944 30.824C44.4255 30.7719 44.457 30.7192 44.4908 30.6691C44.646 30.4394 44.922 30.3281 45.1326 30.1478C45.1627 30.1221 45.1918 30.0963 45.2202 30.0706C45.4111 29.8973 45.5466 29.6655 45.7644 29.5276V29.5276C45.9123 29.434 46.0852 29.376 46.2575 29.3453C46.3577 29.3274 46.4538 29.3137 46.55 29.3C46.6964 29.279 46.8429 29.2581 47.004 29.2225C47.0679 29.2084 47.1653 29.2059 47.2213 29.2397V29.2397C47.295 29.2842 47.3117 29.346 47.371 29.4084C47.4473 29.4888 47.5236 29.4526 47.6 29.3C47.7668 29.0497 48.0033 28.869 48.2514 28.7579C48.3478 28.7147 48.4554 28.6972 48.55 28.65V28.65C48.6 28.625 48.65 28.6 48.7 28.6C48.8 28.6 49 28.6 49.2 28.7C49.3441 28.772 49.3324 28.8441 49.3146 28.9536C49.3078 28.9961 49.3 29.0441 49.3 29.1V29.3C49.3 29.25 49.325 29.2 49.35 29.15C49.375 29.1 49.4 29.05 49.4 29C49.4 28.9582 49.4174 28.8817 49.4449 28.7994C49.5163 28.5862 49.7026 28.4488 49.9059 28.353V28.353C50.1765 28.2254 50.4668 28.0886 50.7293 27.9186C50.8202 27.8598 50.9433 27.8898 50.9819 27.991V27.991V27.991C51.0266 28.108 51.1647 28.1027 51.2375 28.0007C51.3961 27.7782 51.59 27.5298 51.7893 27.3149C51.8588 27.2401 51.9586 27.1957 52.05 27.15V27.15C52.1 27.125 52.15 27.1 52.2 27.1C52.4637 27.1 52.7275 27.1 52.9233 26.964C52.9759 26.9275 53.0359 26.9 53.1 26.9V26.9C53.164 26.9 53.2234 26.9282 53.2757 26.9651C53.4054 27.0567 53.4958 27.0083 53.6258 26.9387V26.9387C53.6743 26.9128 53.7286 26.9 53.7836 26.9H53.9C54 26.9 54 27 54 27.1V27.1C54 27.1919 54.097 27.251 54.1705 27.1958C54.427 27.0032 54.4838 26.7516 54.4 26.5C54.3037 26.2111 54.2074 25.8296 54.4681 25.5339C54.4878 25.5116 54.5033 25.4818 54.4912 25.4547C54.4832 25.4368 54.4707 25.4248 54.4575 25.4167C54.429 25.3992 54.3933 25.3446 54.3673 25.3236V25.3236C54.3323 25.2953 54.3243 25.2529 54.3428 25.2118C54.3593 25.1749 54.3695 25.1454 54.3733 25.115C54.3801 25.0601 54.3661 25.0026 54.3313 24.895C54.311 24.832 54.3 24.7662 54.3 24.7V24.7C54.3 24.5581 54.451 24.4162 54.6102 24.31C54.7318 24.2289 54.8695 24.1768 55.0082 24.1306L55.6204 23.9265C55.6727 23.909 55.7202 23.8797 55.7592 23.8407V23.8407C55.7862 23.8137 55.8087 23.7826 55.8257 23.7484L56.4 22.6C56.4529 22.4941 56.5339 22.4442 56.6281 22.4356C56.8147 22.4186 56.9675 22.5675 57.1 22.7V22.7C57.122 22.722 57.144 22.7391 57.166 22.7515C57.3164 22.8357 57.4565 22.5706 57.6 22.475V22.475C57.7434 22.3793 57.8838 22.43 58.0552 22.4486C58.0774 22.4511 58.0998 22.4533 58.1222 22.4555C58.2705 22.4704 58.4188 22.4852 58.5407 22.5529C58.668 22.6236 58.745 22.7607 58.8642 22.8442C58.9435 22.8998 59.0367 22.941 59.1325 22.9229C59.179 22.9142 59.2166 22.8824 59.2517 22.8507C59.382 22.7329 59.5195 22.6606 59.7182 22.6607C59.8417 22.6608 59.9509 22.546 59.918 22.427V22.427C59.8854 22.309 59.8618 22.2236 59.8 22.1C59.7618 22.0236 59.7236 21.9618 59.6909 21.909V21.909C59.6133 21.7833 59.4516 21.5681 59.5897 21.5156C59.616 21.5056 59.6523 21.5 59.7 21.5C59.8336 21.5 59.9227 21.4106 59.9371 21.2916C59.953 21.1608 59.8698 21.0392 59.8468 20.9094C59.8309 20.8191 59.842 20.7559 59.8955 20.7044C60.0059 20.5983 60.2499 20.6406 60.25 20.4875V20.4875C60.25 20.3343 60.0427 20.2467 59.9382 20.1347C59.7302 19.9117 59.6 19.7035 59.6 19.3C59.6 19.1547 59.5472 19.0093 59.4032 18.9024C59.2826 18.8128 59.1502 18.7 59 18.7V18.7V18.7C59.0552 18.7 59.1001 18.655 59.0927 18.6003C59.0848 18.5427 59.0716 18.4838 59.0575 18.4212V18.4212C59.0092 18.2061 59.3024 18.0611 59.3154 17.841C59.3162 17.8284 59.3167 17.8156 59.3171 17.8028V17.8028C59.3226 17.6504 59.4796 17.6056 59.6317 17.5942C59.7054 17.5887 59.7791 17.578 59.8528 17.557C59.9535 17.5283 60.0384 17.4628 60.1222 17.4V17.4C60.2111 17.3333 60.3 17.2666 60.3 17.2C60.3 17.1382 60.2618 17.0764 60.209 16.991C60.2034 16.982 60.1977 16.9728 60.1919 16.9633C60.1437 16.8847 60.0096 16.8991 60.0005 16.9909V16.9909C59.9979 17.0175 59.9921 17.012 59.9768 17.0339C59.7918 17.2997 59.6882 17.2921 59.4 17.1C59.2099 17.0049 59.0198 16.9099 58.8297 16.729C58.8104 16.7107 58.7991 16.6715 58.7913 16.6461V16.6461C58.7678 16.5697 58.8048 16.4779 58.8825 16.4591C58.9148 16.4513 58.9468 16.4434 58.9785 16.4355C59.2602 16.3657 59.5196 16.3013 59.8002 16.3725C59.8462 16.3842 60 16.2474 60 16.2V16.2V16.0508C60 15.9525 60.0291 15.8563 60.0836 15.7745L60.3679 15.3481C60.4671 15.1993 60.3609 14.941 60.2257 14.8239V14.8239C60.2076 14.8081 60.1888 14.7948 60.168 14.7827C59.9893 14.6781 59.9 14.489 59.9 14.3C59.9 14.1 60.1 14.1 60.2 14.1C60.3 14.1 60.4 14 60.4 13.9C60.4 13.8679 60.3871 13.8358 60.3646 13.8049C60.081 13.415 59.4312 13.5843 59 13.8V13.8V13.8C58.6759 13.962 58.6618 13.2957 58.3306 13.1487C58.2502 13.1131 58.1447 13.1 58 13.1H57.8931C57.8319 13.1 57.7721 13.0839 57.7151 13.0615C57.6902 13.0518 57.667 13.0445 57.6454 13.0399C57.4716 13.0031 57.2756 13.1256 57.15 13V13C57.0962 12.9462 57.0425 12.8925 56.9796 12.848C56.9293 12.8124 56.9005 12.8064 56.8637 12.7569V12.7569C56.8105 12.6855 56.7856 12.5546 56.7357 12.4809C56.7198 12.4574 56.705 12.4433 56.6875 12.4375C56.6565 12.4271 56.617 12.4424 56.5478 12.4762C56.516 12.4917 56.4877 12.5132 56.4603 12.5356C56.4044 12.5812 56.3302 12.6269 56.247 12.6726C56.1351 12.7341 55.9861 12.6493 55.9372 12.5313V12.5313V12.5313C55.9178 12.4845 55.8339 12.4576 55.7866 12.4759C55.7244 12.5 55.6622 12.5 55.6 12.5C55.3 12.5 55.1 12.3 55.1 12.1V12.0414C55.1 11.9633 55.0366 11.9 54.9585 11.9V11.9C54.921 11.9 54.8858 11.916 54.8557 11.9383C54.8256 11.9606 54.7969 11.9748 54.7725 11.9839C54.7277 12.0006 54.682 11.9796 54.6444 11.9501C54.6227 11.9332 54.6021 11.9203 54.5824 11.9114C54.4399 11.847 54.2105 11.8105 54.1 11.7V11.7C54.05 11.65 54 11.625 53.95 11.6V11.6C53.8462 11.5481 53.7173 11.4915 53.6449 11.5821C53.6174 11.6165 53.6 11.6583 53.6 11.7C53.6 12.2 53.3 12.4 52.8 12.2C52.745 12.1725 52.69 12.1374 52.6329 12.1011C52.4824 12.0051 52.3175 11.9 52.1 11.9C52.0763 11.9 52.0415 11.9 52.0022 11.8987C51.7783 11.8911 51.6586 11.6908 51.5111 11.5222V11.5222V11.5222C51.2687 11.2452 51.0758 10.7701 50.8128 10.5127C50.8085 10.5085 50.8042 10.5042 50.8 10.5C50.7 10.4 50.7 10.3 50.7 10.2V10.1414C50.7 10.0633 50.6366 9.99997 50.5585 9.99997V9.99997C50.521 9.99997 50.4854 10.0153 50.4563 10.039C50.4109 10.076 50.3554 10.113 50.3 10.15C50.2618 10.1754 50.2237 10.2008 50.1888 10.2263C50.129 10.2699 50.0523 10.2977 50 10.35V10.35V10.35C49.9457 10.4042 49.8625 10.4106 49.7868 10.4231C49.7056 10.4366 49.6216 10.4449 49.5371 10.4533C49.3662 10.4702 49.1933 10.4873 49.0366 10.5478C48.7717 10.65 48.6148 10.9199 48.3858 11.0877C48.3306 11.1282 48.2717 11.1641 48.2 11.2C47.7825 11.367 47.853 11.1854 47.9459 10.9463V10.9463C47.9643 10.8988 47.9109 10.856 47.8643 10.8768C47.6914 10.9539 47.5954 10.903 47.4658 10.8342C47.4448 10.8231 47.4231 10.8115 47.4 10.8C47.2438 10.7219 47.2096 10.7657 47.1545 10.8363C47.1444 10.8492 47.1336 10.863 47.1212 10.8772C47.1076 10.8927 47.0905 10.9047 47.072 10.9139V10.9139C46.977 10.9614 46.8606 10.9222 46.7897 10.843C46.7609 10.8109 46.7304 10.7804 46.7 10.75C46.625 10.675 46.55 10.6 46.5 10.5C46.4 10.3 46.3 10.2 46.1 10.2C46.0366 10.2 45.9633 10.21 45.8863 10.2205C45.7331 10.2414 45.5655 10.2644 45.4332 10.2145C45.4109 10.2061 45.3875 10.2 45.3637 10.2V10.2C45.3229 10.2 45.2846 10.2173 45.2516 10.2414C45.2177 10.2661 45.1838 10.283 45.15 10.3C45.1 10.325 45.05 10.35 45 10.4C44.9561 10.4438 44.9315 10.5069 44.9092 10.5639V10.5639C44.866 10.6746 44.7327 10.7373 44.6245 10.6882C44.4766 10.6212 44.3 10.4664 44.3 10.4C44.3 10.2644 44.3 10.083 44.2066 9.98009C44.1083 9.87173 43.9 9.84627 43.9 9.69997V9.69997C43.9 9.58281 43.8656 9.49997 43.8372 9.43134C43.8171 9.38281 43.8 9.34139 43.8 9.29997C43.8 9.09997 43.8 8.99997 44 8.99997C44.1249 8.99997 44.1718 8.96093 44.165 8.90724C44.1547 8.82624 44.0383 8.81493 44.0125 8.73747V8.73747C43.9866 8.66001 43.9555 8.5761 43.9152 8.50511C43.9121 8.49962 43.9096 8.49422 43.9076 8.48863V8.48863C43.8886 8.43465 43.8756 8.37802 43.8449 8.32971C43.8406 8.32292 43.8363 8.31578 43.8322 8.30835C43.797 8.24426 43.7703 8.17069 43.7331 8.1077C43.7054 8.0608 43.6777 8.00538 43.65 7.94997C43.6 7.84997 43.55 7.74997 43.5 7.69997C43.4 7.59997 43.35 7.54997 43.35 7.49997C43.35 7.44997 43.4 7.39997 43.5 7.29997C43.5575 7.24247 43.5819 7.21803 43.5923 7.18863V7.18863C43.6113 7.13465 43.5788 7.07545 43.5357 7.03782C43.5178 7.0222 43.5039 7.01303 43.4886 7.00764C43.4669 6.99997 43.4425 6.99997 43.4 6.99997C43.1 6.99997 42.9 6.89997 42.9 6.49997C42.9 6.38281 42.8656 6.29997 42.8372 6.23134V6.23134C42.8082 6.16121 42.7384 6.09997 42.6625 6.09997H42.6145C42.5443 6.09997 42.487 6.04566 42.4218 6.01974C42.3576 5.99428 42.2807 6.03004 42.2127 6.06162C42.2071 6.06423 42.2016 6.06681 42.1961 6.06932C42.137 6.09647 42.0741 6.12582 42.0281 6.17182V6.17182C42.0095 6.19047 41.988 6.20615 41.9641 6.21735C41.6347 6.37181 41.4496 6.31212 41.4087 6.09952C41.3982 6.04528 41.3552 5.99997 41.3 5.99997V5.99997C41.25 5.99997 41.225 6.02497 41.2 6.04997V6.04997C41.1462 6.1037 41.0649 6.08141 40.9953 6.05099C40.8656 5.99429 40.7302 5.94997 40.6046 5.92729C40.2869 5.86991 39.6759 5.95282 39.9285 5.75167V5.75167C39.9586 5.72768 40.013 5.68532 40.0435 5.66189C40.0666 5.6442 40.0888 5.63045 40.109 5.618C40.1618 5.58538 40.2 5.56177 40.2 5.49997V5.49997C40.2 5.33368 40.0097 5.26615 39.9044 5.13746C39.8286 5.04485 39.8265 4.95506 39.8639 4.81687C39.885 4.73873 39.9 4.6587 39.9 4.57776V4.57776C39.9 4.46084 39.8762 4.34208 39.7993 4.25398C39.7678 4.21777 39.7339 4.18387 39.7 4.14997C39.637 4.08702 39.5741 4.02407 39.5259 3.94633C39.5073 3.91642 39.4637 3.86131 39.4451 3.83143V3.83143C39.3873 3.73848 39.4532 3.65901 39.5555 3.62006C39.6537 3.58269 39.7518 3.56633 39.85 3.54997V3.54997C40.1638 3.49766 40.6386 3.27665 40.4806 3.00047C40.4628 2.96948 40.4364 2.93638 40.4 2.89997C40.3813 2.88136 40.3627 2.85928 40.3428 2.83567C40.2745 2.75462 40.191 2.65554 40.04 2.61671C39.9523 2.59415 39.864 2.564 39.8 2.49997V2.49997L39.6828 2.38281C39.5017 2.20171 39.4 1.95609 39.4 1.69997V1.69997C39.4 1.59997 39.375 1.49997 39.35 1.39997C39.3274 1.30973 39.3048 1.21949 39.3006 1.12925C39.2999 1.11309 39.3131 1.09997 39.3292 1.09997V1.09997C39.3553 1.09997 39.3686 1.06817 39.3509 1.04906C39.2485 0.938962 39.1701 0.829631 39.0958 0.726023C38.9908 0.579662 38.894 0.444719 38.7494 0.335171C38.7173 0.310777 38.6857 0.28545 38.6569 0.257183C38.5873 0.18896 38.511 0.120737 38.3964 0.0525133C38.34 0.0189862 38.2699 0.0331083 38.2168 0.0716406C38.1064 0.151903 37.9917 0.176412 37.8566 0.161555C37.7911 0.154357 37.6969 0.276855 37.6993 0.342675V0.342675C37.7005 0.377125 37.6719 0.400489 37.6376 0.397177C37.4554 0.379592 37.4337 0.281781 37.412 0.183971C37.4 0.130293 37.3881 0.0766159 37.3497 0.036198C37.3301 0.0156247 37.3 0.0333792 37.3 0.0617739V0.0617739C37.3 0.0828695 37.2828 0.100064 37.2618 0.0988063C37.1576 0.0925812 37.0551 0.0625663 36.9686 0.0372287C36.9521 0.0324102 36.9363 0.0277609 36.9211 0.0234766C36.8448 0.00198445 36.7693 0.0363 36.6949 0.0633685C36.6377 0.0841556 36.5734 0.0931373 36.5154 0.0970181C36.4518 0.10128 36.3951 0.154847 36.35 0.199971V0.199971C36.325 0.224971 36.3 0.249971 36.3 0.299971V0.299971C36.3 0.257226 36.2523 0.231736 36.2167 0.255423C35.9888 0.40715 35.7663 0.553503 35.5933 0.650258C35.5326 0.684252 35.4637 0.700525 35.3941 0.699412C35.2761 0.697526 35.1645 0.689266 35.0808 0.653099C35.0216 0.627543 34.9706 0.585218 34.9137 0.554972V0.554972C34.7496 0.467711 34.5395 0.356019 34.3221 0.374808C34.2609 0.380106 34.1664 0.350972 34.109 0.37292V0.37292V0.37292C34.0414 0.398732 33.9727 0.367955 33.9095 0.332863C33.8767 0.314706 33.8383 0.299971 33.8 0.299971V0.299971C33.7631 0.299971 33.7398 0.3492 33.7546 0.383033C33.79 0.464395 33.7978 0.565093 33.7995 0.641907C33.8002 0.673994 33.7739 0.699971 33.7418 0.699971V0.699971C33.7168 0.699971 33.6946 0.715977 33.6867 0.739707L33.4401 1.47948C33.4161 1.55144 33.3488 1.59997 33.2729 1.59997H33.2334C33.212 1.59997 33.1914 1.6084 33.1778 1.62496C33.1751 1.62829 33.1722 1.63191 33.1692 1.63579C33.1282 1.68868 33.0098 1.72987 32.95 1.69997V1.69997V1.69997C32.8901 1.67007 32.8 1.7143 32.8 1.78117V1.8121C32.8 1.86063 32.7583 1.89787 32.7196 1.86856C32.6857 1.8429 32.654 1.80477 32.6222 1.76664C32.5732 1.70786 32.5242 1.64908 32.4676 1.63599C32.3705 1.61354 32.2 1.59961 32.2 1.49997V1.49997C32.2 1.29997 32.1 1.29997 32 1.29997C31.9585 1.29997 31.9 1.31713 31.8313 1.33723C31.7343 1.36566 31.6171 1.39997 31.5 1.39997C31.3262 1.39997 31.1525 1.39997 30.9788 1.38055C30.722 1.35185 30.3 1.14161 30.3 1.39997V1.39997V1.39997C30.3 1.58148 30.0153 1.53012 29.893 1.39602C29.8889 1.39151 29.8848 1.38706 29.8807 1.38265C29.8302 1.32853 29.7584 1.29997 29.6844 1.29997H29.2898C29.2375 1.29997 29.1926 1.33683 29.1825 1.38807V1.38807C29.1169 1.72029 29.092 1.8462 28.9488 1.88512C28.8689 1.90684 28.8 1.96713 28.8 2.04997V2.12926C28.8 2.16831 28.7683 2.19997 28.7292 2.19997V2.19997C28.7105 2.19997 28.6925 2.20742 28.6792 2.22068L28.5089 2.39106C28.4372 2.46268 28.3876 2.5529 28.3335 2.6385C28.2919 2.70426 28.242 2.7604 28.1935 2.81484C28.0935 2.92728 28 3.03244 28 3.19997C28 3.24997 27.95 3.32497 27.9 3.39997V3.39997C27.8198 3.52019 27.7456 3.6629 27.7 3.79997V3.79997C27.6953 3.81406 27.6906 3.82816 27.6857 3.84209C27.6527 3.93656 27.6604 4.05522 27.75 4.09997V4.09997C27.7823 4.11614 27.8146 4.13231 27.847 4.15525C27.8782 4.17742 27.8783 4.22234 27.8505 4.2487C27.8077 4.28925 27.7793 4.30849 27.7032 4.34788C27.6776 4.36111 27.6796 4.42962 27.7 4.44997V4.44997V4.44997C27.7451 4.4951 27.7951 4.55485 27.75 4.59997V4.59997C27.7443 4.6056 27.7387 4.61124 27.7333 4.61716C27.694 4.6607 27.7599 4.75545 27.8139 4.77851V4.77851C27.8909 4.81144 27.9259 4.84656 27.955 4.92515C28 5.04674 28 5.12336 28 5.19997V5.31877C28 5.43479 27.9537 5.54808 27.85 5.59997V5.59997V5.59997C27.7462 5.65186 27.6303 5.71764 27.521 5.67874C27.4806 5.66438 27.4403 5.64031 27.4 5.59997C27.35 5.54997 27.275 5.49997 27.2 5.44997C27.125 5.39997 27.05 5.34997 27 5.29997C26.94 5.23997 26.988 5.17997 27.036 5.11997C27.068 5.07997 27.1 5.03997 27.1 4.99997V4.99997C27.1 4.94474 27.0552 4.89997 27 4.89997H26.9289C26.8526 4.89997 26.7871 4.84853 26.7581 4.77787C26.6043 4.40199 26.3344 4.41108 26.0584 4.42036C25.9653 4.4235 25.8714 4.42666 25.7811 4.41504C25.7303 4.40851 25.6477 4.45732 25.626 4.5037V4.5037C25.5918 4.57661 25.5347 4.59997 25.4541 4.59997H25.2C25.1138 4.59997 25.0277 4.52576 24.9415 4.44126C24.9147 4.415 24.9 4.3789 24.9 4.34139V4.34139C24.9 4.26329 24.8366 4.19997 24.7585 4.19997H24.6595C24.5714 4.19997 24.4894 4.27115 24.45 4.34997V4.34997V4.34997C24.4236 4.40264 24.3218 4.43637 24.2693 4.40969C24.2628 4.40641 24.2564 4.40319 24.25 4.39997V4.39997C24.1901 4.37007 24.1 4.4143 24.1 4.48117V4.49997C24.1 4.57378 23.9937 4.6309 23.9214 4.61639C23.8395 4.59997 23.7547 4.59997 23.7 4.59997C23.6765 4.59997 23.6531 4.60546 23.631 4.61386C23.5365 4.6497 23.435 4.69491 23.3819 4.60899V4.60899V4.60899C23.3343 4.53194 23.275 4.45994 23.2499 4.37291C23.2133 4.24594 23.217 4.11897 23.261 3.992C23.2825 3.92987 23.3 3.86573 23.3 3.79997V3.79997C23.3 3.732 23.2538 3.61782 23.1928 3.52026C23.1411 3.43761 23.0442 3.40694 22.9483 3.38954C22.9361 3.38732 22.9233 3.38462 22.91 3.38134C22.7791 3.34915 22.6426 3.37212 22.6 3.49997V3.49997V3.49997C22.5543 3.63704 22.418 3.69102 22.2743 3.70641C22.1008 3.72499 22.0246 3.79721 21.7978 4.07797C21.742 4.14715 21.7535 4.24659 21.7855 4.32954C21.7892 4.33914 21.7924 4.34898 21.7948 4.35897C21.801 4.38475 21.7894 4.41051 21.7707 4.42926V4.42926C21.7316 4.46831 21.6679 4.46871 21.6299 4.42864C21.5642 4.35934 21.4985 4.27995 21.4327 4.16209C21.4101 4.12149 21.3782 4.08462 21.3645 4.04021C21.3436 3.97277 21.3634 3.88734 21.3808 3.81275V3.81275C21.3951 3.75109 21.3478 3.69631 21.2903 3.66968C21.2769 3.66343 21.2634 3.6567 21.25 3.64997C21.2288 3.63939 21.2076 3.62881 21.1865 3.62013C21.1408 3.60138 21.1087 3.64207 21.0923 3.68863V3.68863C21.0864 3.70525 21.076 3.72029 21.0577 3.74062C21.0271 3.77462 20.9737 3.77374 20.9414 3.74139L20.9207 3.72068C20.8761 3.67614 20.8 3.70768 20.8 3.77068V3.77068C20.8 3.78943 20.7925 3.80742 20.7792 3.82068L20.703 3.89696C20.6461 3.95385 20.5344 3.96449 20.5076 3.88863V3.88863C20.5 3.8669 20.5 3.84247 20.5 3.79997V3.79997C20.5 3.7375 20.4669 3.68111 20.4204 3.63938C20.3018 3.53294 20.3304 3.45373 20.3639 3.36109V3.36109C20.395 3.27483 20.3254 3.19871 20.2338 3.20127C19.9993 3.2078 19.9685 3.24724 19.8096 3.48555C19.8033 3.495 19.7959 3.50402 19.7879 3.51205V3.51205C19.7354 3.56455 19.6548 3.57658 19.5821 3.56152C19.548 3.55445 19.5129 3.54943 19.4777 3.54442C19.3835 3.53095 19.2892 3.51748 19.2147 3.46446C19.1054 3.38664 19.0541 3.2031 18.9222 3.22754V3.22754C18.8308 3.24447 18.7493 3.31187 18.6842 3.37821C18.6473 3.41586 18.6322 3.45669 18.6345 3.50513C18.6409 3.64102 18.693 3.77091 18.65 3.89997V3.89997C18.625 3.97497 18.6 4.04997 18.6 4.09997C18.6 4.1308 18.5809 4.15213 18.5546 4.16688C18.4778 4.20999 18.3894 4.12879 18.35 4.04997V4.04997V4.04997C18.3028 3.95569 18.3252 3.8506 18.3479 3.74766C18.4319 3.36592 18.168 3.19627 17.8222 3.10566C17.8075 3.10181 17.7923 3.09997 17.777 3.09997V3.09997C17.7277 3.09997 17.6787 3.11849 17.6508 3.15925C17.6302 3.18949 17.6151 3.21973 17.6 3.24997V3.24997C17.5643 3.3213 17.4803 3.2953 17.4275 3.23549C17.3629 3.16221 17.2771 3.19493 17.17 3.23574C17.1274 3.25195 17.0815 3.26943 17.0323 3.28206C16.9727 3.29734 16.9325 3.23521 16.9653 3.18313C17.0164 3.10185 17.0726 3.03421 17.1457 2.95687C17.1735 2.92742 17.1434 2.8877 17.109 2.90899V2.90899V2.90899C17.0006 2.97599 16.9 2.89666 16.9 2.76921V2.46318C16.9 2.3882 16.8218 2.34094 16.7569 2.37843V2.37843C16.6392 2.44638 16.5464 2.49997 16.4 2.49997C16.2649 2.49997 16.1755 2.49997 16.1009 2.46921C16.0279 2.43915 15.955 2.39303 15.8904 2.34772V2.34772C15.8451 2.31593 15.7941 2.28014 15.7308 2.27318C15.6423 2.26344 15.5144 2.2894 15.443 2.23624V2.23624C15.3935 2.19943 15.3885 2.16947 15.3479 2.12312C15.2938 2.06141 15.2189 2.01462 15.1375 1.98747C14.9199 1.91494 14.5878 2.19018 14.5114 1.97392C14.5041 1.95318 14.5 1.92863 14.5 1.89997C14.5 1.59997 14.3 1.59997 14.1 1.69997C13.9 1.79997 13.6 1.59997 13.5 1.39997C13.4842 1.36836 13.4708 1.34175 13.4589 1.31934C13.3623 1.13892 13.0981 1.29972 12.8996 1.24989C12.8407 1.23509 12.7817 1.2029 12.7228 1.14821C12.6306 1.0627 12.5881 0.926737 12.4637 0.908379V0.908379C12.3659 0.893944 12.2546 0.925353 12.1624 0.960862C11.7952 1.10216 11.4675 1.05841 11.1793 0.928738C10.91 0.807584 10.6482 0.552196 10.3753 0.665205C10.3517 0.675004 10.3267 0.686592 10.3 0.699971C9.74977 0.975065 9.19958 0.997903 8.64939 0.84559C8.54967 0.817983 8.44713 0.799378 8.34423 0.788515V0.788515C8.16389 0.769476 7.95274 0.747184 7.79996 0.899971C7.74996 0.949971 7.69371 0.993721 7.63746 1.03747C7.50139 1.1433 7.36532 1.24913 7.31772 1.44344C7.29697 1.52812 7.36078 1.64027 7.2828 1.67926V1.67926C7.24535 1.69798 7.1837 1.71705 7.15207 1.74448C7.06146 1.82307 6.95571 1.88652 6.84996 1.94997C6.72496 2.02497 6.59996 2.09997 6.49996 2.19997V2.19997C6.36145 2.33848 6.31256 2.03941 6.15057 1.92928C6.07718 1.8794 5.9908 1.8867 5.9009 1.8943C5.86758 1.89711 5.83377 1.89997 5.79996 1.89997H5.49996H5.19996C5.25274 1.89997 5.27766 1.92783 5.28943 1.96885C5.31273 2.05005 5.37058 2.1724 5.39243 2.254V2.254C5.40869 2.31475 5.37872 2.32681 5.35369 2.3845C5.27915 2.55633 5.31733 2.72815 5.35551 2.89997C5.37023 2.9662 5.38495 3.03242 5.39321 3.09865C5.40126 3.16321 5.37411 3.22582 5.32811 3.27182V3.27182C5.30946 3.29047 5.28782 3.3058 5.26458 3.31825C5.11209 3.39993 5.0385 3.4816 5.20728 3.56328C5.2667 3.59203 5.35658 3.61047 5.37914 3.6725V3.6725C5.41173 3.7621 5.37247 3.84253 5.34352 3.93337C5.30627 4.05022 5.32508 4.1251 5.39996 4.19997C5.46504 4.26506 5.53013 4.33015 5.62279 4.36766C5.68477 4.39275 5.72986 4.49016 5.69996 4.54997V4.54997V4.54997C5.66273 4.62443 5.69409 4.73092 5.76366 4.77664C5.88919 4.85915 5.93573 4.96974 5.88196 5.08708C5.84456 5.1687 5.79752 5.25522 5.84787 5.32955C5.88634 5.38636 5.94315 5.44316 5.99995 5.49997L5.99996 5.49997C6.04138 5.54139 6.06564 5.58281 6.09407 5.63134C6.11626 5.66923 6.14099 5.71144 6.1784 5.76137C6.24923 5.8559 6.31643 5.96645 6.39996 6.04997V6.04997V6.04997C6.48574 6.13576 6.47345 6.30213 6.35301 6.28754C6.30652 6.28191 6.25766 6.2592 6.21274 6.23832V6.23832C6.15267 6.2104 6.07563 6.14753 6.01373 6.1711C6.01216 6.1717 6.01057 6.17231 6.00897 6.17292V6.17292C5.95069 6.19518 5.89996 6.25055 5.89996 6.31295V6.36177C5.89996 6.38689 5.90571 6.41169 5.91738 6.43394C5.9665 6.52754 6.03323 6.63876 6.09996 6.74997V6.74997C6.21453 6.94092 6.09999 7.21729 6.14201 7.43597C6.14768 7.46548 6.15636 7.49564 6.16768 7.52609C6.1863 7.57616 6.22375 7.61652 6.24951 7.66332C6.29076 7.73826 6.25707 7.79997 6.09996 7.79997C6.03313 7.79997 6.01096 7.84463 6.00361 7.93395C5.99488 8.0399 5.95543 8.14041 5.88902 8.22343C5.7921 8.34462 5.7232 8.473 5.66142 8.62949C5.63085 8.70692 5.52442 8.7372 5.44996 8.69997V8.69997V8.69997C5.34217 8.64608 5.2523 8.56078 5.14477 8.50639C5.00777 8.43708 4.91953 8.44348 4.81929 8.54583C4.73025 8.63675 4.71385 8.77369 4.66219 8.89C4.64711 8.92392 4.62832 8.95413 4.60728 8.98207C4.54582 9.06369 4.44134 9.10428 4.34996 9.14997V9.14997V9.14997C4.25504 9.19743 4.14753 9.18822 4.04297 9.17012C3.67571 9.10655 3.57702 9.15731 3.39996 9.59997C3.29996 9.89997 3.09996 10.1 2.79996 10.3C2.66051 10.3697 2.56968 10.488 2.49357 10.5872V10.5872C2.43513 10.6633 2.39106 10.7506 2.35407 10.8392C2.22578 11.1464 1.96287 11.3 1.69996 11.3C1.64996 11.3 1.62496 11.325 1.59996 11.35V11.35C1.54764 11.4023 1.46969 11.4286 1.4209 11.4842C1.17572 11.7638 1.044 12.1071 1.37005 12.3764C1.38844 12.3916 1.39996 12.414 1.39996 12.4379V12.4379C1.39996 12.474 1.3742 12.505 1.33889 12.5126C0.923696 12.6022 0.8149 12.7051 0.801461 13.1027C0.799277 13.1673 0.793507 13.2319 0.787028 13.2962C0.739157 13.7714 0.955618 14.0522 1.20252 14.3724C1.23466 14.4141 1.26731 14.4564 1.29996 14.5C1.69996 15 1.69996 15.1 1.09996 15.3C0.599956 15.4 0.399956 15.9 0.599956 16.4C0.650987 16.5531 0.702017 16.7062 0.766337 16.846C0.885 17.1039 1.11136 17.3015 1.22142 17.5632C1.31824 17.7935 1.30453 18.0089 1.12632 18.2636C1.10918 18.2881 1.0884 18.3099 1.0702 18.3336C1.05276 18.3563 1.04037 18.3796 1.03301 18.4046C0.979398 18.5867 1.29996 18.7101 1.29996 18.9V18.9C1.29996 19.1332 1.40192 19.3324 1.50678 19.5372C1.58178 19.6838 1.65826 19.8332 1.69996 20C1.78955 20.2688 2.03971 20.4573 2.30657 20.6374C2.3673 20.6784 2.43906 20.7 2.51234 20.7V20.7C2.56996 20.7 2.62621 20.6847 2.68096 20.6668C2.87487 20.6032 3.12547 20.6255 3.29996 20.8V20.8C3.45193 20.9519 3.71503 20.8117 3.91723 20.8846C3.99193 20.9115 4.05573 20.9557 4.09996 21C4.19996 21.1 4.39996 21.2 4.49996 21.2C4.53352 21.2 4.56709 21.2 4.60018 21.2004C4.87937 21.2044 5.11741 21.4839 5.39259 21.4367V21.4367C5.46632 21.424 5.53231 21.3663 5.64374 21.256C5.67983 21.2203 5.70454 21.1352 5.74996 21.1125V21.1125C5.79538 21.0898 5.82037 21.1199 5.85579 21.1563C5.98563 21.2897 6.08135 21.4146 5.89896 21.47C5.73987 21.5183 5.56577 21.6586 5.63531 21.8096V21.8096C5.66871 21.8821 5.75174 21.9071 5.78872 21.9778C5.79252 21.9851 5.79624 21.9925 5.79996 22V22C5.84393 22.0879 5.94801 22.1194 6.02956 22.1744C6.11467 22.2317 6.17762 22.2961 6.23425 22.3835C6.28268 22.4583 6.31004 22.5445 6.35232 22.6229C6.46288 22.828 6.64542 22.9 6.89996 22.9C7.19996 22.9 7.29996 22.7 7.29996 22.4C7.29996 22.2 7.39996 22.1 7.59996 22.1V22.1C7.8237 22.1 7.94515 21.8431 8.16341 21.7938C8.23559 21.7775 8.30777 21.7848 8.37996 21.792C8.41996 21.796 8.45996 21.8 8.49996 21.8H9.09996H9.49996C9.56662 21.8 9.6444 21.8111 9.72218 21.8222C9.87773 21.8444 10.0333 21.8666 10.1 21.8C10.25 21.65 10.4 21.6687 10.55 21.6875V21.6875C10.6492 21.6999 10.7488 21.7142 10.8467 21.7351C11.0077 21.7695 11.0774 21.7587 11.1492 21.6403C11.2777 21.4285 11.3033 21.1671 11.4211 20.9492C11.5498 20.7114 11.7565 20.5724 12.0415 20.5812C12.1476 20.5845 12.255 20.5974 12.35 20.55V20.55C12.3568 20.5466 12.3636 20.5432 12.3704 20.5398C12.449 20.5012 12.5345 20.464 12.609 20.418V20.418V20.418C12.6972 20.3635 12.7137 20.2417 12.7898 20.1712C12.8667 20.1 12.9582 20.1 13.1 20.1V20.1C13.3649 20.1 13.4272 19.5552 13.6587 19.6841C13.6999 19.7071 13.7463 19.7463 13.8 19.8C13.9875 19.9875 14.0871 19.9992 14.1812 19.8351C14.1943 19.8122 14.2095 19.7905 14.2281 19.7718V19.7718C14.2741 19.7258 14.3372 19.6967 14.401 19.7095C14.4858 19.7266 14.5495 19.7648 14.6052 19.8109C14.6715 19.8659 14.7385 19.9221 14.819 19.9529C15.1396 20.0758 15.3 19.9581 15.3 19.6V19.6C15.3 19.5572 15.3475 19.5319 15.3834 19.5551C15.4736 19.6133 15.5314 19.6429 15.5869 19.639C15.6514 19.6345 15.7127 19.5846 15.818 19.4814C15.8708 19.4297 15.9476 19.3977 16 19.45V19.45V19.45C16.0523 19.5023 16.1326 19.4722 16.1694 19.4081C16.1806 19.3887 16.1903 19.3693 16.2 19.35V19.35C16.2427 19.2644 16.3509 19.2691 16.4095 19.3447C16.4777 19.4327 16.5265 19.4887 16.572 19.5206C16.7101 19.6177 16.8311 19.8 17 19.8V19.8C17.0752 19.8 17.1504 19.9132 17.1831 20.0119C17.2012 20.0666 17.2229 20.1229 17.2637 20.1637V20.1637C17.2875 20.1875 17.3166 20.2056 17.3488 20.2157C17.3708 20.2226 17.3922 20.2291 17.4129 20.2354C17.6099 20.295 17.7476 20.3367 17.7878 20.5505C17.8031 20.6319 17.8671 20.7 17.95 20.7V20.7C18.0328 20.7 18.1087 20.7673 18.1457 20.8414C18.1471 20.8443 18.1485 20.8471 18.15 20.85C18.1565 20.8632 18.1631 20.8763 18.1693 20.8895C18.1962 20.9474 18.2548 20.9951 18.3 20.95V20.95V20.95C18.3523 20.8977 18.4239 20.8637 18.4847 20.8216C18.4938 20.8153 18.5023 20.8108 18.5113 20.8076C18.533 20.8 18.5575 20.8 18.6 20.8C18.7 20.8 18.7 20.9 18.7 21V21.0689C18.7 21.1542 18.8271 21.2098 18.9121 21.2025V21.2025C18.9648 21.198 19.0024 21.243 19.0165 21.294C19.0258 21.3274 19.0379 21.3637 19.05 21.4V21.4C19.0741 21.4724 19.1897 21.5051 19.2384 21.4463C19.2569 21.424 19.2744 21.4024 19.2909 21.3819V21.3819C19.4085 21.2366 19.6043 21.1363 19.77 21.2227C19.7757 21.2257 19.7815 21.2288 19.7872 21.2318V21.2318C19.9196 21.3016 20.0867 21.2235 20.22 21.2914C20.285 21.3245 20.3153 21.3996 20.3506 21.487C20.3606 21.5116 20.3709 21.5371 20.3825 21.563C20.3936 21.5878 20.4041 21.613 20.4134 21.6386C20.4876 21.8441 20.6069 22.0497 20.7388 22.2553C20.8094 22.3651 20.9618 22.3438 21.0516 22.249V22.249C21.0827 22.2163 21.1292 22.2056 21.1662 22.1799C21.1788 22.1712 21.1894 22.1606 21.2 22.15C21.225 22.125 21.25 22.1 21.3 22.1C21.3618 22.1 21.3854 22.1382 21.418 22.191C21.4382 22.2236 21.4618 22.2618 21.5 22.3C21.5382 22.3382 21.5618 22.3764 21.5819 22.409C21.5843 22.4129 21.5867 22.4167 21.589 22.4204C21.6393 22.5009 21.7522 22.5131 21.8194 22.5802C21.8608 22.6214 21.8726 22.6627 21.862 22.704C21.8435 22.7756 21.8023 22.8477 21.75 22.9V22.9V22.9C21.6976 22.9523 21.7304 23.0288 21.7734 23.089C21.7828 23.1022 21.7919 23.1156 21.8007 23.1289C21.8692 23.233 21.8679 23.3661 21.8026 23.4721C21.7986 23.4785 21.7947 23.4848 21.7909 23.4909V23.4909C21.7106 23.621 21.7437 23.7762 21.7226 23.9276C21.7048 24.0556 21.6383 24.1649 21.5751 24.2688C21.5481 24.3132 21.5217 24.3566 21.5 24.4C21.359 24.6114 21.3671 24.7732 21.4542 24.9553C21.5267 25.1071 21.7245 25.0747 21.875 25.15V25.15C21.8907 25.1578 21.9039 25.1707 21.9163 25.1892C21.9997 25.3145 21.968 25.4731 22.0336 25.6086V25.6086C22.0624 25.6683 22.1201 25.7265 22.1589 25.7802C22.2612 25.9218 22.3075 25.9964 22.3682 26.0111C22.4422 26.029 22.5376 25.9581 22.7813 25.8112C22.7934 25.8039 22.8075 25.8 22.8216 25.8V25.8C22.8649 25.8 22.9 25.835 22.9 25.8783V26.0302C22.9 26.0757 22.8855 26.1197 22.864 26.1597C22.7156 26.4354 22.8037 26.7111 22.8955 26.9867C22.8985 26.9955 22.9 27.0047 22.9 27.0139V27.0139C22.9 27.0614 22.8614 27.1 22.8139 27.1H22.7707C22.7316 27.1 22.7 27.1316 22.7 27.1707V27.1707C22.7 27.1894 22.7071 27.2078 22.722 27.2193C22.7706 27.2569 22.8353 27.2784 22.9 27.3C22.921 27.307 22.942 27.314 22.9624 27.3215C23.0583 27.3569 23.0956 27.4586 23.05 27.55V27.55C23.025 27.6 23 27.65 23 27.7C23 28 23.1 28.1 23.3 28.1V28.1C23.4502 28.1 23.5055 28.287 23.5987 28.4049C23.6737 28.5 23.7636 28.5 23.8999 28.5C23.8999 28.5 23.8999 28.5 23.9 28.5C23.9004 28.5 24.0002 28.5002 24.1 28.6C24.3 28.8 24.3 29 24.3 29.3V30.186C24.3 30.323 24.3567 30.4522 24.4686 30.5313V30.5313C24.5403 30.582 24.6229 30.6405 24.7085 30.7148C24.7689 30.7673 24.8556 30.8162 24.827 30.891V30.891V30.891C24.8085 30.9394 24.745 30.9727 24.6954 30.9573C24.5869 30.9236 24.4783 30.9245 24.3697 30.976C24.2643 31.026 24.115 31.0316 24 31.0125V31.0125C23.8849 30.9933 23.7992 30.9044 23.7691 30.7917C23.747 30.7088 23.7148 30.6208 23.6784 30.5215V30.5215C23.6525 30.4508 23.5474 30.4509 23.5198 30.5209C23.4694 30.6487 23.419 30.758 23.3687 30.8614C23.3286 30.9435 23.2348 30.9928 23.1538 30.9506C22.9684 30.8543 22.9406 30.6671 22.912 30.4752C22.9078 30.4474 22.9037 30.4195 22.899 30.3917C22.8761 30.2553 22.723 30.2539 22.6611 30.3777L22.6205 30.4589C22.5708 30.5582 22.4351 30.5553 22.4 30.45V30.45C22.3947 30.4343 22.3895 30.4186 22.384 30.4026C22.3663 30.3509 22.2688 30.3612 22.2372 30.4059V30.4059C22.2171 30.4343 22.2 30.4585 22.2 30.5C22.2 30.6 22.2 30.7 22.1 30.8C22.0654 30.8345 22.0309 30.8571 21.9964 30.8719C21.8949 30.9154 21.8 30.8104 21.8 30.7V30.7V30.2C21.8 30.15 21.775 30.125 21.75 30.1V30.1C21.7048 30.0548 21.6311 29.9985 21.6074 30.0578C21.6059 30.0616 21.6046 30.0656 21.6035 30.0699C21.5986 30.0892 21.5955 30.1095 21.5858 30.1269C21.541 30.2082 21.4951 30.2513 21.4394 30.2742C21.292 30.3347 21.106 30.2426 20.9689 30.3239C20.9289 30.3476 20.8919 30.3795 20.8614 30.416C20.7319 30.5711 20.7874 30.7995 20.8125 31V31C20.8375 31.2005 20.8983 31.4171 21.0298 31.5705C21.0376 31.5795 21.0454 31.5886 21.0534 31.5977C21.0896 31.6394 21.1271 31.6826 21.1599 31.7316C21.1889 31.7749 21.2108 31.8033 21.1875 31.85V31.85C21.1641 31.8966 21.0755 31.9117 21.0295 31.9364C20.7405 32.0917 20.7098 32.1919 20.77 32.4044C20.7881 32.4682 20.8 32.5337 20.8 32.6V32.6V32.7323C20.8 32.8249 20.7249 32.9 20.6323 32.9V32.9C20.6109 32.9 20.5895 32.8957 20.5696 32.888C20.0959 32.7043 20 32.8103 20 33.3V33.5C20 33.8 19.9 33.9 19.7 33.9C19.6473 33.9 19.6017 33.9069 19.5629 33.9207C19.382 33.9853 19.1824 34.0978 19.0635 34.2486V34.2486C19.0343 34.2857 19.041 34.3512 19.0674 34.4667C19.0878 34.5556 19.1227 34.6401 19.1592 34.7237C19.2095 34.8391 19.2393 34.9545 19.1908 35.0699C19.1512 35.1641 19.0413 35.1957 18.95 35.15V35.15C18.9 35.125 18.85 35.1 18.8 35.1V35.1C18.6719 35.1 18.5468 35.1672 18.419 35.1744C18.3584 35.1779 18.2964 35.1649 18.2463 35.1355C18.214 35.1165 18.1789 35.1 18.1414 35.1V35.1C18.0633 35.1 18 35.1633 18 35.2414V35.2618C18 35.2869 18.006 35.3116 18.0163 35.3345C18.0502 35.4105 18.0713 35.4858 18.0907 35.5546C18.099 35.5842 18.107 35.6126 18.1155 35.6393C18.151 35.7512 18.1514 35.8982 18.237 35.9784V35.9784C18.2717 36.0109 18.3232 36.007 18.3673 36.0247C18.5245 36.0876 18.6536 36.1762 18.7714 36.257C18.851 36.3117 18.9255 36.3627 19 36.4C19.0605 36.4302 19.1302 36.4605 19.2064 36.4936C19.2756 36.5237 19.3502 36.5561 19.428 36.5928C19.6326 36.6896 19.8943 36.5863 19.8994 36.3601V36.3601C19.9008 36.3017 19.9113 36.2711 19.9448 36.2233C20.0299 36.1022 20.1149 36.1149 20.2 36.2C20.3576 36.3576 20.4324 36.4324 20.4969 36.4244C20.5484 36.418 20.5933 36.3588 20.6686 36.2469C20.6883 36.2176 20.7211 36.2 20.7563 36.2V36.2C20.7843 36.2 20.8106 36.2116 20.8324 36.2291C20.8716 36.2608 20.9108 36.2804 20.95 36.3V36.3C21.0297 36.3398 21.1382 36.3147 21.1957 36.2466C21.2618 36.1683 21.3469 36.1213 21.4859 36.1058C21.5585 36.0976 21.629 36.0709 21.6807 36.0193V36.0193C21.6935 36.0064 21.7076 35.9948 21.7228 35.985C22.0152 35.7952 22.3076 35.7076 22.6 36C22.6382 36.0382 22.6618 36.0764 22.6819 36.109V36.109C22.735 36.1949 22.8402 36.2405 22.9232 36.2981C22.9481 36.3154 22.974 36.3327 23 36.35V36.35C23.1379 36.442 23.3401 36.5296 23.3231 36.6946C23.3212 36.7131 23.318 36.7327 23.3146 36.7536C23.3078 36.7961 23.3 36.8441 23.3 36.9V36.9C23.3 37.0124 23.4519 36.9961 23.5021 36.8956L23.6563 36.5872C23.685 36.5298 23.701 36.4665 23.6964 36.4025C23.686 36.2578 23.6545 36.1403 23.6303 36.05V36.05C23.6084 35.9681 23.5316 35.892 23.4503 35.8683C23.4441 35.8664 23.4377 35.8646 23.4313 35.8627V35.8627C23.3115 35.8276 23.2427 35.6391 23.3058 35.5313V35.5313V35.5313C23.3511 35.4541 23.3469 35.349 23.267 35.3085C23.2613 35.3057 23.2556 35.3028 23.25 35.3V35.3C23.1487 35.2493 23.114 35.1334 23.1324 35.0217C23.1597 34.856 23.1779 34.701 23.1953 34.5523C23.2198 34.3429 23.2429 34.1462 23.2878 33.9505C23.2947 33.9208 23.3214 33.9 23.352 33.9V33.9C23.3806 33.9 23.4063 33.9183 23.4136 33.946C23.4371 34.0352 23.4464 34.1319 23.456 34.2313C23.4733 34.41 23.4914 34.5973 23.5939 34.7655C23.6472 34.853 23.7621 34.8697 23.8557 34.8278V34.8278C24.036 34.7472 24.2472 34.6528 24.4 34.5C24.5 34.4 24.625 34.3 24.7499 34.2C24.7571 34.1943 24.7642 34.1886 24.7714 34.1828C24.9957 34.0033 25.17 33.7663 25.3919 33.5838V33.5838C25.4583 33.5291 25.5291 33.4708 25.6 33.4C25.65 33.35 25.7 33.275 25.75 33.2V33.2C25.8423 33.0614 25.9733 32.9572 26.0963 32.8449C26.2121 32.7392 26.3127 32.6227 26.4068 32.5137V32.5137C26.5322 32.3685 26.6832 32.2476 26.8116 32.1051C27.0313 31.8611 27.1796 31.5542 27.3154 31.2731V31.2731C27.3705 31.159 27.4055 31.0337 27.4455 30.9134C27.447 30.9089 27.4485 30.9045 27.45 30.9C27.4661 30.8514 27.4823 30.8029 27.4917 30.7611C27.5004 30.7225 27.5173 30.6851 27.5374 30.6509C27.5785 30.5808 27.5926 30.4883 27.5974 30.4088C27.5999 30.3687 27.6485 30.3486 27.677 30.377V30.377C27.6907 30.3907 27.7117 30.3942 27.7289 30.3852C27.7706 30.3634 27.8079 30.3418 27.843 30.3215C27.9607 30.2536 28.0535 30.2 28.2 30.2C28.3169 30.2 28.4491 30.1696 28.5846 30.1384C28.7966 30.0896 29.0169 30.039 29.2 30.1C29.6396 30.1879 29.9246 30.1212 30.1229 29.764C30.1763 29.6679 30.1491 29.5483 30.1 29.45V29.45C30.097 29.4441 30.0941 29.4383 30.0911 29.4324C30.0642 29.3793 30.1308 29.3412 30.1767 29.3793V29.3793C30.2052 29.4028 30.2211 29.3788 30.2473 29.3526L30.2573 29.3427C30.3177 29.2822 30.3966 29.3358 30.3536 29.4097C30.3359 29.44 30.3179 29.47 30.3 29.5C30.2509 29.5817 30.2019 29.6634 30.1598 29.7522C30.1262 29.8231 30.1797 29.9149 30.25 29.95V29.95V29.95C30.3352 29.9926 30.4151 29.9362 30.4616 29.8529C30.5051 29.7749 30.5521 29.7422 30.61 29.7403C30.701 29.7372 30.7699 29.8152 30.8347 29.8791C30.882 29.9258 30.9353 29.9697 30.9919 30.0162C31.0365 30.053 31.0833 30.0914 31.1306 30.1342C31.1655 30.1657 31.2213 30.1563 31.2408 30.1136V30.1136C31.3049 29.9735 31.3313 29.9157 31.5 30C31.514 30.007 31.5275 30.0135 31.5406 30.0196C31.6293 30.3 31.8448 30.3 32 30.3C32.1 30.3 32.175 30.325 32.25 30.35C32.3158 30.3719 32.3817 30.3939 32.4645 30.3989C32.4946 30.4281 32.5219 30.4639 32.5481 30.5061C32.5804 30.5582 32.5617 30.6255 32.511 30.66V30.66C32.2755 30.82 32.1577 30.9 31.8 30.9C31.75 30.9 31.7 30.925 31.65 30.95V30.95C31.589 30.9805 31.5506 31.0765 31.595 31.1283C31.6924 31.2419 31.7687 31.2643 31.8604 31.2139C31.9548 31.1618 32.0644 31.1344 32.1659 31.1711C32.1947 31.1816 32.2223 31.1908 32.25 31.2C32.3081 31.2193 32.3662 31.2387 32.436 31.2698C32.4788 31.2888 32.5168 31.3169 32.55 31.35V31.35C32.5831 31.3831 32.6214 31.4106 32.6631 31.4317C32.7005 31.4506 32.7378 31.4698 32.7752 31.4901C33.0522 31.6404 33.1848 32.1 33.5 32.1V32.1C33.55 32.1 33.6 32.125 33.65 32.15V32.15C33.7438 32.1969 33.8473 32.2304 33.949 32.256C34.0993 32.2938 34.2496 32.2751 34.4 32.2C34.5081 32.1459 34.6455 32.0918 34.7962 32.0536C35.0565 31.9875 35.3351 31.9336 35.6 31.9777V31.9777C35.6515 31.9863 35.703 31.9949 35.7546 31.9984C35.7844 32.0004 35.8138 32.0073 35.841 32.0197C35.9643 32.0759 36.0435 32.0819 36.0788 31.9793C36.1005 31.9161 36.1901 31.8701 36.25 31.9V31.9C36.3 31.925 36.35 31.95 36.4 32V32C36.4552 32.0552 36.5447 32.0552 36.6 32V32C36.6552 31.9447 36.7454 31.9455 36.8145 31.9819C36.8263 31.9882 36.8381 31.9941 36.85 32C36.9 32.025 36.95 32.05 37 32.1C37.05 32.15 37.1 32.175 37.15 32.2V32.2C37.2573 32.2536 37.3546 32.3315 37.473 32.3516C37.5822 32.3701 37.7048 32.3712 37.7928 32.3496C37.9352 32.3146 37.8308 32.1126 37.9063 31.9869C37.9349 31.9393 37.9816 31.9096 38.0219 31.884V31.884C38.0591 31.8603 38.1516 31.8551 38.1772 31.891C38.3377 32.1163 38.3217 32.3821 38.3075 32.617V32.617C38.3004 32.734 38.3488 32.8489 38.4605 32.8844C38.4873 32.893 38.5157 32.9009 38.5453 32.9093C38.5901 32.9218 38.6376 32.9352 38.6863 32.9523C38.7342 32.9692 38.7341 33.0303 38.687 33.0493V33.0493V33.0493C38.5457 33.1064 38.217 33.2231 38.0683 33.2559C38.0325 33.2638 38.0006 33.2796 37.9727 33.3033C37.9159 33.3516 37.8528 33.4 37.7782 33.4H37.7203C37.6433 33.4 37.569 33.431 37.503 33.4709C37.2732 33.61 36.7738 33.7993 36.4076 33.9381C36.3173 33.9723 36.2351 34.0034 36.167 34.03C36.0552 34.0737 35.9573 34.1463 35.85 34.2V34.2V34.2C35.7426 34.2536 35.6739 34.3613 35.5727 34.4258C35.5476 34.4418 35.5211 34.4568 35.4947 34.4717C35.4429 34.501 35.3916 34.53 35.3527 34.5659C35.2599 34.6513 35.1697 34.8 35.0436 34.8V34.8C35.0149 34.8 34.9866 34.8067 34.9607 34.819C34.9241 34.8364 34.885 34.8539 34.8442 34.8721C34.7242 34.9258 34.5906 34.9855 34.4696 35.0645C34.349 35.1433 34.2242 35.2204 34.1176 35.3173C34.1098 35.3244 34.1024 35.3317 34.0953 35.3391C33.9663 35.4753 33.9143 35.731 34.0556 35.8544C34.0869 35.8817 34.1252 35.9067 34.167 35.9305C34.2527 35.9794 34.3513 36 34.45 36V36C34.5486 36 34.6466 35.9782 34.7312 35.9275C34.7524 35.9148 34.7723 35.9025 34.7909 35.8909V35.8909C34.921 35.8106 35.0728 35.7671 35.2241 35.7458C35.5366 35.7018 35.7624 35.8147 35.9847 36.0013C36.2051 36.1862 36.3784 36.4297 36.6191 36.5872V36.5872C36.6841 36.6298 36.7512 36.6737 36.8135 36.7234C36.8714 36.7695 36.9476 36.8023 37 36.75V36.75C37.025 36.725 37.05 36.7 37.1 36.7C37.1876 36.7 37.2753 36.6615 37.3546 36.6268V36.6268C37.5138 36.557 37.6849 36.6335 37.8167 36.7468C37.863 36.7866 37.907 36.8303 37.9472 36.8764C38.0654 37.0119 38.1606 37.1722 38.2092 37.3453V37.3453C38.2188 37.3796 38.2289 37.4153 38.2407 37.452C38.273 37.5518 38.3006 37.6547 38.3119 37.7589V37.7589C38.3308 37.9338 38.3514 38.1242 38.2 38.2C37.9736 38.3509 37.918 38.5018 37.9474 38.6957C37.9683 38.834 38.0108 38.9728 37.9856 39.1104C37.9791 39.1462 37.9696 39.1817 37.9557 39.2143C37.929 39.277 37.8867 39.3331 37.8456 39.3875V39.3875C37.6556 39.6392 37.4689 39.9608 37.7512 40.1017C37.7908 40.1215 37.8333 40.1396 37.8785 40.1569C37.9582 40.1874 38.0551 40.175 38.1227 40.2271C38.1418 40.2419 38.1647 40.2647 38.2 40.3C38.4816 40.5816 38.6751 40.687 38.946 40.6161C38.9821 40.6066 39.019 40.6 39.0563 40.6V40.6C39.1483 40.6 39.2325 40.6446 39.3155 40.6843C39.4212 40.7348 39.5269 40.7176 39.6326 40.6771C39.7466 40.6334 39.8455 40.5532 39.9608 40.5132C39.9738 40.5087 39.9869 40.5043 40 40.5C40.075 40.475 40.15 40.45 40.2 40.4C40.25 40.35 40.325 40.3 40.3999 40.25C40.4119 40.242 40.4238 40.2341 40.4356 40.2262C40.4991 40.1834 40.5969 40.2195 40.6256 40.2905V40.2905C40.6475 40.3449 40.7261 40.3451 40.7436 40.2891C40.7671 40.2141 40.7835 40.132 40.8 40.05C40.825 39.925 40.85 39.8 40.9 39.7C40.95 39.6 41.025 39.5 41.1 39.4C41.1499 39.3334 41.1999 39.2667 41.2424 39.2001C41.2806 39.1405 41.3499 39.1 41.4 39.05V39.05V39.05C41.4541 38.9959 41.5368 38.987 41.6106 38.9668C41.6397 38.9588 41.6685 38.9513 41.6969 38.9439C41.7858 38.9209 41.8706 38.8989 41.9454 38.8665C42.1542 38.776 42.3534 38.6 42.581 38.6H42.6155C42.7336 38.6 42.8425 38.5479 42.9348 38.4742C42.9511 38.4612 42.9674 38.4494 42.9837 38.4392C43.0512 38.397 43.1316 38.4316 43.1878 38.4878L43.2718 38.5718C43.3426 38.6426 43.4552 38.6395 43.5 38.55V38.55C43.525 38.5 43.55 38.45 43.6 38.4L44.0292 37.9707C44.0745 37.9254 44.1359 37.9 44.2 37.9V37.9C44.25 37.9 44.325 37.925 44.4 37.95C44.4339 37.9613 44.4679 37.9726 44.4995 37.9816C44.5539 37.9971 44.609 37.9547 44.6383 37.9064V37.9064C44.6789 37.8393 44.7264 37.7609 44.6419 37.6479C44.6175 37.6152 44.6 37.5771 44.6 37.5363V37.5363C44.6 37.5124 44.6049 37.4885 44.6186 37.469C44.7509 37.2801 45.2103 37.1051 45.4 37.2C45.475 37.25 45.5562 37.2937 45.6375 37.3375C45.7835 37.4161 45.9296 37.4948 46.0393 37.6097C46.1413 37.7165 46.362 37.8044 46.5091 37.7913V37.7913C46.6111 37.7822 46.7149 37.7729 46.8068 37.702C46.8754 37.6491 46.952 37.6 47.0387 37.6V37.6C47.079 37.6 47.1185 37.6097 47.1552 37.6263C47.2289 37.6596 47.2894 37.6798 47.35 37.7C47.4103 37.7201 47.4707 37.7402 47.5441 37.7734C47.57 37.7851 47.6 37.7666 47.6 37.7382V37.7382C47.6 37.7171 47.6172 37.7001 47.6378 37.6956C47.6752 37.6873 47.7126 37.6687 47.75 37.65V37.65C47.8438 37.603 47.948 37.5726 48.0481 37.5412C48.0987 37.5253 48.1493 37.5126 48.2 37.5V37.5C48.3582 37.4604 48.3994 37.281 48.3284 37.1341C48.1641 36.7946 48.2526 36.5196 48.5131 36.3496C48.5644 36.3161 48.6 36.2613 48.6 36.2V36.2V36.2C48.6 36.0895 48.6895 36 48.8 36V36H48.8605C48.9375 36 49 35.9375 49 35.8605V35.8605C49 35.7492 48.8746 35.6885 48.7654 35.7099C48.6641 35.7298 48.6006 35.6931 48.5455 35.6438C48.5145 35.6161 48.4796 35.5924 48.4393 35.582C48.3157 35.55 48.2095 35.55 48.1125 35.55C48 35.55 47.9 35.55 47.8 35.5C47.4119 35.306 47.118 35.4883 46.9182 35.8646C46.9058 35.8879 46.8905 35.9095 46.8718 35.9281V35.9281C46.8258 35.9741 46.7631 36.0018 46.6988 35.9919C46.5568 35.97 46.4149 35.9062 46.2729 35.8363C46.2281 35.8142 46.2 35.7684 46.2 35.7184V35.5367C46.2 35.4863 46.1339 35.4554 46.0909 35.4819V35.4819V35.4819C46.0017 35.5371 45.993 35.653 45.9602 35.7527C45.8422 36.1121 45.589 36.2834 45.2005 36.3778C45.134 36.3939 45.0649 36.4005 45 36.4222V36.4222C44.9333 36.4444 44.8666 36.4666 44.8 36.4C44.6959 36.296 44.5919 36.204 44.4921 36.1157C44.304 35.9493 44.1306 35.796 44 35.6C43.4 34.8 42.9 34.1 42.6 33.2C42.5777 33.1444 42.5543 33.0889 42.5308 33.0333C42.3565 32.6204 42.1822 32.2076 42.5146 31.7947C42.5657 31.7312 42.6458 31.7 42.7273 31.7V31.7C42.7751 31.7 42.8222 31.6889 42.8649 31.6674C42.9324 31.6335 42.9987 31.5995 43.0598 31.5655C43.228 31.4721 43.3349 31.3047 43.4475 31.1486C43.4507 31.1441 43.4539 31.1396 43.4572 31.1351C43.4738 31.1121 43.4905 31.089 43.5068 31.0656C43.613 30.9133 43.8595 30.8118 43.8269 30.9946C43.8243 31.0095 43.8211 31.0244 43.8175 31.0393C43.8083 31.0769 43.8471 31.143 43.8808 31.1621V31.1621C43.9468 31.1995 43.9606 31.2803 43.9341 31.3515C43.9214 31.3856 43.9107 31.4178 43.9 31.45ZM31.9 28.3V28.3C31.9 28.5797 31.7497 28.8419 31.7996 29.1172C31.8521 29.4074 31.976 29.738 32.1 29.8C32.2 29.85 32.275 29.9 32.35 29.95V29.95C32.4949 30.0466 32.669 29.9866 32.8335 29.9293C32.8948 29.9079 32.9615 29.9065 33.0295 29.9452C33.0793 29.9734 33.1113 30.0347 33.0923 30.0886V30.0886V30.0886C33.0744 30.1393 33.0919 30.2002 33.1456 30.1985C33.2709 30.1946 33.386 30.1805 33.4639 30.1292C33.4894 30.1124 33.5152 30.0952 33.5438 30.0844C33.6747 30.0351 33.7873 29.9676 33.9 29.9C34.0177 29.8293 34.1355 29.7587 34.2742 29.7089C34.2912 29.7028 34.3265 29.7009 34.3432 29.7078V29.7078C34.4145 29.7375 34.3466 29.8119 34.2764 29.8438C34.1682 29.8928 34.0656 29.9654 33.9616 30.0389C33.7658 30.1773 33.5652 30.3191 33.3147 30.3129C33.2549 30.3115 33.2077 30.3577 33.25 30.4V30.4C33.275 30.425 33.3 30.45 33.3 30.5C33.3 30.4168 33.3691 30.4028 33.4499 30.4004C33.4775 30.3996 33.5 30.4224 33.5 30.45V30.45C33.5 30.4776 33.4775 30.5003 33.4504 30.5057C33.4062 30.5146 33.3531 30.5323 33.3 30.55V30.55C33.1709 30.593 33.0377 30.5659 32.9137 30.5099C32.7758 30.4475 32.6379 30.4 32.5 30.4C32.4878 30.4 32.476 30.3996 32.4645 30.3989C32.3967 30.3329 32.3148 30.3 32.2 30.3V30.3C32.0443 30.3 31.9301 30.1608 31.7826 30.1109C31.7717 30.1072 31.7608 30.1036 31.75 30.1C31.6855 30.0785 31.621 30.057 31.5406 30.0196V30.0196C31.4766 29.8174 31.5528 29.5982 31.5367 29.3867C31.5356 29.3735 31.5343 29.3602 31.5327 29.347C31.5203 29.2473 31.4706 29.1566 31.447 29.059C31.445 29.0508 31.4433 29.0426 31.4417 29.0345C31.3923 28.7731 31.7173 28.6183 31.8519 28.3888C31.8679 28.3615 31.8839 28.332 31.9 28.3ZM31.6 28C31.6 28.05 31.625 28.075 31.65 28.1V28.1C31.6951 28.1451 31.7537 28.2019 31.8095 28.2329C31.862 28.262 31.9 28.3 31.9 28.3V28.3C31.7343 28.3 31.6 28.1657 31.6 28V28ZM31.489 27.8944C31.5262 27.8986 31.5364 27.8407 31.5117 27.8127V27.8127C31.4961 27.795 31.5097 27.786 31.5207 27.7653C31.6057 27.6045 31.5212 27.4716 31.4334 27.3333C31.3676 27.2298 31.3 27.1234 31.3 27C31.3 27.1171 31.3343 27.2 31.3627 27.2686C31.3828 27.3171 31.4 27.3585 31.4 27.4V27.4935C31.4 27.5617 31.3692 27.6246 31.3312 27.6812C31.249 27.8038 31.3139 27.8749 31.489 27.8944ZM25 13.235C25 9.41104 28.111 6.30002 31.9349 6.30002C35.7589 6.30002 38.8699 9.41104 38.8699 13.235C38.8699 14.7991 37.7727 17.3769 35.6087 20.8968C34.0266 23.4703 32.4221 25.6421 32.4061 25.6637V25.6637C32.1717 25.9802 31.6981 25.9802 31.4638 25.6637V25.6637C31.4477 25.6421 29.8433 23.4703 28.2611 20.8968C26.0972 17.3769 25 14.7991 25 13.235ZM27.9692 13.1275C27.9692 15.3142 29.7482 17.0932 31.9349 17.0932C34.1217 17.0932 35.9006 15.3142 35.9006 13.1275C35.9006 10.9408 34.1216 9.16182 31.9349 9.16182C29.7483 9.16182 27.9692 10.9408 27.9692 13.1275Z" fill="#ED0035"/>
</svg>
