<svg width="40" height="39" viewBox="0 0 40 39" fill="none" xmlns="http://www.w3.org/2000/svg">
<g clip-path="url(#clip0)" filter="url(#filter0_d)">
<path d="M34.6026 2.08322C33.1586 1.30568 31.548 2.80522 30.6038 3.69383C28.4379 5.8043 26.6051 8.24799 24.5501 10.4695C22.273 12.9132 20.1626 15.3569 17.8299 17.7452C16.497 19.0781 15.053 20.5221 14.1644 22.1883C12.165 20.2443 10.4433 18.1339 8.22178 16.4123C6.61117 15.1904 3.94532 14.3018 4.00085 17.2453C4.11193 21.0776 7.49978 25.1874 9.99902 27.7976C11.0542 28.9084 12.4427 30.0747 14.0533 30.1303C15.9972 30.2413 17.9966 27.9087 19.1629 26.6313C21.2179 24.4098 22.884 21.9105 24.7723 19.6335C27.216 16.6344 29.7152 13.6908 32.1034 10.6362C33.6029 8.74784 38.3237 4.08251 34.6026 2.08322Z" fill="#76B82A"/>
</g>
<defs>
<filter id="filter0_d" x="0" y="0" width="40" height="40" filterUnits="userSpaceOnUse" color-interpolation-filters="sRGB">
<feFlood flood-opacity="0" result="BackgroundImageFix"/>
<feColorMatrix in="SourceAlpha" type="matrix" values="0 0 0 0 0 0 0 0 0 0 0 0 0 0 0 0 0 0 127 0"/>
<feOffset dy="4"/>
<feGaussianBlur stdDeviation="2"/>
<feColorMatrix type="matrix" values="0 0 0 0 0 0 0 0 0 0 0 0 0 0 0 0 0 0 0.25 0"/>
<feBlend mode="normal" in2="BackgroundImageFix" result="effect1_dropShadow"/>
<feBlend mode="normal" in="SourceGraphic" in2="effect1_dropShadow" result="shape"/>
</filter>
<clipPath id="clip0">
<rect width="32" height="32" fill="white" transform="translate(4)"/>
</clipPath>
</defs>
</svg>
