<svg width="51" height="45" viewBox="0 0 51 45" fill="none" xmlns="http://www.w3.org/2000/svg">
<path d="M45.2101 44.875H5.78986C2.66658 44.875 0.125 42.3335 0.125 39.2103V5.78969C0.125 2.66651 2.66658 0.125 5.78986 0.125H45.2101C48.3334 0.125 50.875 2.66651 50.875 5.78969V39.2103C50.875 42.3335 48.3334 44.875 45.2101 44.875ZM5.78986 1.59959C3.47937 1.59959 1.59964 3.47926 1.59964 5.78969V39.2103C1.59964 41.5207 3.47937 43.4004 5.78986 43.4004H45.2101C47.5206 43.4004 49.4004 41.5207 49.4004 39.2103V5.78969C49.4004 3.47926 47.5206 1.59959 45.2101 1.59959H5.78986Z" fill="#7800FF" stroke="white" stroke-width="0.25"/>
<path d="M43.2171 31.7101H29.6669C29.2595 31.7101 28.9296 31.3801 28.9296 30.9728C28.9296 30.5659 29.2596 30.2355 29.6669 30.2355H43.2171C43.624 30.2355 43.9544 30.5659 43.9544 30.9728C43.9544 31.3801 43.6245 31.7101 43.2171 31.7101Z" fill="#7800FF" stroke="white" stroke-width="0.25"/>
<path d="M43.2171 37.9442H29.6669C29.2595 37.9442 28.9296 37.6142 28.9296 37.2069C28.9296 36.8 29.2596 36.4696 29.6669 36.4696H43.2171C43.624 36.4696 43.9544 36.8 43.9544 37.2069C43.9544 37.6142 43.6245 37.9442 43.2171 37.9442Z" fill="#7800FF" stroke="white" stroke-width="0.25"/>
<path d="M43.2171 19.2417H29.6669C29.2595 19.2417 28.9296 18.9117 28.9296 18.5044C28.9296 18.0975 29.2596 17.7671 29.6669 17.7671H43.2171C43.624 17.7671 43.9544 18.0975 43.9544 18.5044C43.9544 18.9117 43.6245 19.2417 43.2171 19.2417Z" fill="#7800FF" stroke="white" stroke-width="0.25"/>
<path d="M43.2171 25.4757H29.6669C29.2595 25.4757 28.9296 25.1457 28.9296 24.7384C28.9296 24.3315 29.2596 24.0011 29.6669 24.0011H43.2171C43.624 24.0011 43.9544 24.3315 43.9544 24.7384C43.9544 25.1457 43.6245 25.4757 43.2171 25.4757Z" fill="#7800FF" stroke="white" stroke-width="0.25"/>
<path d="M12.4315 8.34793C11.0208 8.34793 9.87286 7.2004 9.87286 5.78981C9.87286 4.37922 11.0208 3.23169 12.4315 3.23169C13.8422 3.23169 14.9897 4.37919 14.9897 5.78981C14.9897 7.20043 13.8422 8.34793 12.4315 8.34793ZM12.4315 4.70628C11.8337 4.70628 11.3475 5.19238 11.3475 5.78981C11.3475 6.38724 11.8337 6.87334 12.4315 6.87334C13.0289 6.87334 13.5151 6.3872 13.5151 5.78981C13.5151 5.19242 13.0289 4.70628 12.4315 4.70628Z" fill="#7800FF" stroke="white" stroke-width="0.25"/>
<path d="M6.21829 8.34793C4.80809 8.34793 3.6601 7.20042 3.6601 5.78981C3.6601 4.3792 4.80809 3.23169 6.21829 3.23169C7.62899 3.23169 8.77697 4.37922 8.77697 5.78981C8.77697 7.2004 7.62899 8.34793 6.21829 8.34793ZM6.21829 4.70628C5.6209 4.70628 5.13473 5.19242 5.13473 5.78981C5.13473 6.3872 5.6209 6.87334 6.21829 6.87334C6.81613 6.87334 7.30233 6.38724 7.30233 5.78981C7.30233 5.19238 6.81613 4.70628 6.21829 4.70628Z" fill="#7800FF" stroke="white" stroke-width="0.25"/>
<path d="M18.6443 8.34793C17.2336 8.34793 16.0861 7.20043 16.0861 5.78981C16.0861 4.37919 17.2336 3.23169 18.6443 3.23169C20.055 3.23169 21.203 4.37922 21.203 5.78981C21.203 7.2004 20.055 8.34793 18.6443 8.34793ZM18.6443 4.70628C18.0464 4.70628 17.5608 5.19246 17.5608 5.78981C17.5608 6.3872 18.0469 6.87334 18.6443 6.87334C19.2422 6.87334 19.7284 6.38724 19.7284 5.78981C19.7284 5.19238 19.2422 4.70628 18.6443 4.70628Z" fill="#7800FF" stroke="white" stroke-width="0.25"/>
<path d="M8.25198 36.345V36.47H8.37698H22.2973H22.4223V36.345V19.3667V19.2417H22.2973H8.37698H8.25198V19.3667V36.345ZM23.1596 37.9446H7.51466C7.1073 37.9446 6.77734 37.6146 6.77734 37.2073V18.5044C6.77734 18.0975 7.10735 17.7671 7.51466 17.7671H23.1596C23.5669 17.7671 23.8969 18.0975 23.8969 18.5044V37.2073C23.8969 37.6146 23.567 37.9446 23.1596 37.9446Z" fill="#7800FF" stroke="white" stroke-width="0.25"/>
<line x1="1.13336" y1="10.75" x2="49.8667" y2="10.75" stroke="#7800FF"/>
</svg>
