<svg width="24" height="28" fill="none" xmlns="http://www.w3.org/2000/svg"><g clip-path="url(#clip0)" fill="#2C77BB"><path d="M11.9 15.09h.19a5.4 5.4 0 0 0 4.11-1.77c2.25-2.52 1.88-6.83 1.8-7.24C17.89 3 16.42 1.51 15.21.82A6.5 6.5 0 0 0 12.06 0H12a6.51 6.51 0 0 0-3.18.79C7.59 1.48 6.1 3 6 6.08c0 .41-.41 4.72 1.83 7.24a5.421 5.421 0 0 0 4.07 1.77zM7.51 6.22C7.71 2 10.68 1.57 12 1.57c1.57 0 4.26.67 4.44 4.61 0 0 .42 4-1.44 6.06a3.86 3.86 0 0 1-3 1.24 3.84 3.84 0 0 1-3-1.24c-1.89-2.02-1.5-5.98-1.49-6.02z"/><path d="M24 22.24v-.14c0-1.15-.11-3.83-2.64-4.69h-.06a16.83 16.83 0 0 1-4.85-2.19.8.8 0 0 0-1.1.19.78.78 0 0 0 .19 1.09 18.243 18.243 0 0 0 5.34 2.42c1.36.48 1.51 1.92 1.55 3.25a.655.655 0 0 0 0 .14c.009.6-.035 1.198-.13 1.79A21.48 21.48 0 0 1 12 26.44a21.77 21.77 0 0 1-10.3-2.38 9.489 9.489 0 0 1-.13-1.79v-.15c0-1.32.19-2.77 1.55-3.25a18.652 18.652 0 0 0 5.34-2.41.79.79 0 0 0-.91-1.29 16.551 16.551 0 0 1-4.85 2.2h-.05C.12 18.25 0 20.93 0 22.07a.71.71 0 0 1 0 .15 9 9 0 0 0 .3 2.62.78.78 0 0 0 .3.37A22.35 22.35 0 0 0 12 28c3.98.113 7.916-.843 11.4-2.77a.8.8 0 0 0 .31-.37 9.559 9.559 0 0 0 .29-2.62z"/></g><defs><clipPath id="clip0"><path fill="#fff" d="M0 0h24v28H0z"/></clipPath></defs></svg>