<svg width="20" height="33" fill="none" xmlns="http://www.w3.org/2000/svg"><g clip-path="url(#clip0)" fill="#2C77BB"><path d="M10 27a1.83 1.83 0 1 0 1.85 1.83A1.84 1.84 0 0 0 10 27zm0 2.39a.56.56 0 1 1 .57-.56.57.57 0 0 1-.57.51v.05zm3-26.78H9.75a.67.67 0 0 0-.619.925.66.66 0 0 0 .619.405H13a.66.66 0 0 0 .67-.66.67.67 0 0 0-.67-.67zM7.68 3.99c.392 0 .71-.313.71-.7 0-.387-.318-.7-.71-.7a.705.705 0 0 0-.71.7c0 .387.318.7.71.7z"/><path d="M17.87 0H2.13A2.13 2.13 0 0 0 0 2.11v28.78A2.13 2.13 0 0 0 2.13 33h15.74A2.13 2.13 0 0 0 20 30.89V2.11A2.13 2.13 0 0 0 17.87 0zm.71 30.89a.71.71 0 0 1-.71.7H2.13a.71.71 0 0 1-.71-.7V2.11a.7.7 0 0 1 .71-.7h15.74a.7.7 0 0 1 .71.7v28.78z"/><path d="M11.2 13.23a.71.71 0 0 0-1 0l-3.42 3.38a.7.7 0 0 0 0 1 .74.74 0 0 0 1.01 0l3.41-3.39a.71.71 0 0 0 0-.99zm2.02 1.96a.71.71 0 0 0-1 0l-1.36 1.34a.71.71 0 0 0 .771 1.155.701.701 0 0 0 .229-.155l1.36-1.35a.69.69 0 0 0 0-.99z"/><path d="M16.46 5.21H3.54a.64.64 0 0 0-.64.64v19.42a.64.64 0 0 0 .64.63h12.92a.64.64 0 0 0 .64-.63V5.85a.64.64 0 0 0-.64-.64zm-.64 19.42H4.18V6.48h11.64v18.15z"/></g><defs><clipPath id="clip0"><path fill="#fff" d="M0 0h20v33H0z"/></clipPath></defs></svg>