<svg width="30" height="27" fill="none" xmlns="http://www.w3.org/2000/svg"><g clip-path="url(#clip0)" fill="#fff"><path d="M1.11 2.2h3.18l4.53 16.25a1.12 1.12 0 0 0 1.08.81h13.92a1.11 1.11 0 0 0 1-.66L29.91 7a1.101 1.101 0 0 0-.09-1 1.13 1.13 0 0 0-.93-.5H13.5a1.1 1.1 0 0 0 0 2.2h13.69l-4.11 9.36H10.73L6.2.81A1.12 1.12 0 0 0 5.12 0h-4A1.11 1.11 0 0 0 0 1.1a1.11 1.11 0 0 0 1.11 1.1zM8.84 27a2.5 2.5 0 1 0-2.51-2.49A2.51 2.51 0 0 0 8.84 27zm15.72 0h.19a2.55 2.55 0 0 0 1.72-.86 2.51 2.51 0 1 0-1.91.86z"/></g><defs><clipPath id="clip0"><path fill="#fff" d="M0 0h30v27H0z"/></clipPath></defs></svg>